solid GiantLegoRocks
facet normal 0.0000 5.0000 0.0000
    outer loop
        vertex 3.4000 0.0000 6.0000
        vertex 4.0000 0.0000 5.9000
        vertex -4.0000 0.0000 5.9000
    endloop
endfacet
facet normal 0.0000 4.2500 0.0000
    outer loop
        vertex -4.0000 0.0000 5.9000
        vertex -3.4000 0.0000 6.0000
        vertex 3.4000 0.0000 6.0000
    endloop
endfacet
facet normal 0.0000 17.2500 0.0000
    outer loop
        vertex 4.0000 0.0000 5.9000
        vertex 4.6000 0.0000 5.6000
        vertex -4.6000 0.0000 5.6000
    endloop
endfacet
facet normal 0.0000 15.0000 0.0000
    outer loop
        vertex -4.6000 0.0000 5.6000
        vertex -4.0000 0.0000 5.9000
        vertex 4.0000 0.0000 5.9000
    endloop
endfacet
facet normal 0.0000 24.0000 0.0000
    outer loop
        vertex 4.6000 0.0000 5.6000
        vertex 4.8000 0.0000 5.2000
        vertex -4.8000 0.0000 5.2000
    endloop
endfacet
facet normal 0.0000 23.0000 0.0000
    outer loop
        vertex -4.8000 0.0000 5.2000
        vertex -4.6000 0.0000 5.6000
        vertex 4.6000 0.0000 5.6000
    endloop
endfacet
facet normal 0.0000 1008.0000 0.0000
    outer loop
        vertex 4.8000 0.0000 5.2000
        vertex 7.2000 0.0000 -6.0000
        vertex -7.2000 0.0000 -6.0000
    endloop
endfacet
facet normal 0.0000 672.0000 0.0000
    outer loop
        vertex -7.2000 0.0000 -6.0000
        vertex -4.8000 0.0000 5.2000
        vertex 4.8000 0.0000 5.2000
    endloop
endfacet
facet normal 0.0000 0.0000 4.2500
    outer loop
        vertex 3.4000 0.0000 6.0000
        vertex -3.4000 0.0000 6.0000
        vertex -3.4000 -0.1000 6.0000
    endloop
endfacet
facet normal 0.0000 0.0000 4.2500
    outer loop
        vertex -3.4000 -0.1000 6.0000
        vertex 3.4000 -0.1000 6.0000
        vertex 3.4000 0.0000 6.0000
    endloop
endfacet
facet normal -0.0625 0.0000 0.3750
    outer loop
        vertex -3.4000 0.0000 6.0000
        vertex -4.0000 0.0000 5.9000
        vertex -4.0000 -0.1000 5.9000
    endloop
endfacet
facet normal -0.0625 0.0000 0.3750
    outer loop
        vertex -4.0000 -0.1000 5.9000
        vertex -3.4000 -0.1000 6.0000
        vertex -3.4000 0.0000 6.0000
    endloop
endfacet
facet normal 0.0625 0.0000 0.3750
    outer loop
        vertex 3.4000 -0.1000 6.0000
        vertex 4.0000 -0.1000 5.9000
        vertex 4.0000 0.0000 5.9000
    endloop
endfacet
facet normal 0.0625 0.0000 0.3750
    outer loop
        vertex 4.0000 0.0000 5.9000
        vertex 3.4000 0.0000 6.0000
        vertex 3.4000 -0.1000 6.0000
    endloop
endfacet
facet normal -0.1875 0.0000 0.3750
    outer loop
        vertex -4.0000 0.0000 5.9000
        vertex -4.6000 0.0000 5.6000
        vertex -4.6000 -0.1000 5.6000
    endloop
endfacet
facet normal -0.1875 0.0000 0.3750
    outer loop
        vertex -4.6000 -0.1000 5.6000
        vertex -4.0000 -0.1000 5.9000
        vertex -4.0000 0.0000 5.9000
    endloop
endfacet
facet normal 0.1875 0.0000 0.3750
    outer loop
        vertex 4.0000 -0.1000 5.9000
        vertex 4.6000 -0.1000 5.6000
        vertex 4.6000 0.0000 5.6000
    endloop
endfacet
facet normal 0.1875 0.0000 0.3750
    outer loop
        vertex 4.6000 0.0000 5.6000
        vertex 4.0000 0.0000 5.9000
        vertex 4.0000 -0.1000 5.9000
    endloop
endfacet
facet normal -0.2500 0.0000 0.1250
    outer loop
        vertex -4.6000 0.0000 5.6000
        vertex -4.8000 0.0000 5.2000
        vertex -4.8000 -0.1000 5.2000
    endloop
endfacet
facet normal -0.2500 0.0000 0.1250
    outer loop
        vertex -4.8000 -0.1000 5.2000
        vertex -4.6000 -0.1000 5.6000
        vertex -4.6000 0.0000 5.6000
    endloop
endfacet
facet normal 0.2500 0.0000 0.1250
    outer loop
        vertex 4.6000 -0.1000 5.6000
        vertex 4.8000 -0.1000 5.2000
        vertex 4.8000 0.0000 5.2000
    endloop
endfacet
facet normal 0.2500 0.0000 0.1250
    outer loop
        vertex 4.8000 0.0000 5.2000
        vertex 4.6000 0.0000 5.6000
        vertex 4.6000 -0.1000 5.6000
    endloop
endfacet
facet normal -7.0000 0.0000 1.5000
    outer loop
        vertex -7.2000 -0.1000 -6.0000
        vertex -4.8000 -0.1000 5.2000
        vertex -4.8000 0.0000 5.2000
    endloop
endfacet
facet normal -7.0000 0.0000 1.5000
    outer loop
        vertex -4.8000 0.0000 5.2000
        vertex -7.2000 0.0000 -6.0000
        vertex -7.2000 -0.1000 -6.0000
    endloop
endfacet
facet normal 7.0000 0.0000 1.5000
    outer loop
        vertex 7.2000 0.0000 -6.0000
        vertex 4.8000 0.0000 5.2000
        vertex 4.8000 -0.1000 5.2000
    endloop
endfacet
facet normal 7.0000 0.0000 1.5000
    outer loop
        vertex 4.8000 -0.1000 5.2000
        vertex 7.2000 -0.1000 -6.0000
        vertex 7.2000 0.0000 -6.0000
    endloop
endfacet
facet normal 0.0000 0.0000 -9.0000
    outer loop
        vertex -7.2000 0.0000 -6.0000
        vertex 7.2000 0.0000 -6.0000
        vertex 7.2000 -0.1000 -6.0000
    endloop
endfacet
facet normal 0.0000 0.0000 -9.0000
    outer loop
        vertex 7.2000 -0.1000 -6.0000
        vertex -7.2000 -0.1000 -6.0000
        vertex -7.2000 0.0000 -6.0000
    endloop
endfacet
facet normal 0.0000 -1.8076 0.0000
    outer loop
        vertex -3.7100 -0.1000 5.9484
        vertex -3.8800 -0.1000 4.8000
        vertex -3.6400 -0.1000 4.7200
    endloop
endfacet
facet normal 0.0000 -2.4026 0.0000
    outer loop
        vertex -3.6400 -0.1000 4.7200
        vertex -3.4000 -0.1000 6.0000
        vertex -3.7100 -0.1000 5.9484
    endloop
endfacet
facet normal 0.0000 -3.4100 0.0000
    outer loop
        vertex -3.8800 -0.1000 4.8000
        vertex -4.0800 -0.1000 2.3600
        vertex -3.8400 -0.1000 2.5600
    endloop
endfacet
facet normal 0.0000 -3.3400 0.0000
    outer loop
        vertex -3.8400 -0.1000 2.5600
        vertex -3.6400 -0.1000 4.7200
        vertex -3.8800 -0.1000 4.8000
    endloop
endfacet
facet normal 0.0000 -2.0800 0.0000
    outer loop
        vertex -4.0800 -0.1000 2.3600
        vertex -2.9200 -0.1000 1.7600
        vertex -2.5200 -0.1000 1.8400
    endloop
endfacet
facet normal 0.0000 -2.7300 0.0000
    outer loop
        vertex -2.5200 -0.1000 1.8400
        vertex -3.8400 -0.1000 2.5600
        vertex -4.0800 -0.1000 2.3600
    endloop
endfacet
facet normal 0.0000 -1.7300 0.0000
    outer loop
        vertex -2.9200 -0.1000 1.7600
        vertex -3.6800 -0.1000 1.1600
        vertex -3.3200 -0.1000 1.0800
    endloop
endfacet
facet normal 0.0000 -1.5000 0.0000
    outer loop
        vertex -3.3200 -0.1000 1.0800
        vertex -2.5200 -0.1000 1.8400
        vertex -2.9200 -0.1000 1.7600
    endloop
endfacet
facet normal 0.0000 -4.3500 0.0000
    outer loop
        vertex -4.0000 -0.1000 5.9000
        vertex -4.6000 -0.1000 5.6000
        vertex -3.8800 -0.1000 4.8000
    endloop
endfacet
facet normal 0.0000 -2.0300 0.0000
    outer loop
        vertex -3.8800 -0.1000 4.8000
        vertex -3.7100 -0.1000 5.9484
        vertex -4.0000 -0.1000 5.9000
    endloop
endfacet
facet normal 0.0000 -14.5300 0.0000
    outer loop
        vertex -4.8000 -0.1000 5.2000
        vertex -4.0800 -0.1000 2.3600
        vertex -3.8800 -0.1000 4.8000
    endloop
endfacet
facet normal 0.0000 -2.8000 0.0000
    outer loop
        vertex -3.8800 -0.1000 4.8000
        vertex -4.6000 -0.1000 5.6000
        vertex -4.8000 -0.1000 5.2000
    endloop
endfacet
facet normal 0.0000 -93.0000 0.0000
    outer loop
        vertex -4.8000 -0.1000 5.2000
        vertex -7.2000 -0.1000 -6.0000
        vertex -4.0800 -0.1000 2.3600
    endloop
endfacet
facet normal 0.0000 -196.4700 0.0000
    outer loop
        vertex -7.2000 -0.1000 -6.0000
        vertex -0.1200 -0.1000 -6.0000
        vertex -1.5200 -0.1000 -1.5600
    endloop
endfacet
facet normal 0.0000 -39.5500 0.0000
    outer loop
        vertex -1.5200 -0.1000 -1.5600
        vertex -2.2800 -0.1000 -1.0400
        vertex -7.2000 -0.1000 -6.0000
    endloop
endfacet
facet normal 0.0000 -7.2000 0.0000
    outer loop
        vertex -4.0800 -0.1000 2.3600
        vertex -3.6800 -0.1000 1.1600
        vertex -2.9200 -0.1000 1.7600
    endloop
endfacet
facet normal 0.0000 -44.3000 0.0000
    outer loop
        vertex -4.0800 -0.1000 2.3600
        vertex -7.2000 -0.1000 -6.0000
        vertex -3.6800 -0.1000 1.1600
    endloop
endfacet
facet normal 0.0000 -1.8200 0.0000
    outer loop
        vertex -3.3200 -0.1000 1.0800
        vertex -3.6800 -0.1000 1.1600
        vertex -3.3600 -0.1000 0.2800
    endloop
endfacet
facet normal 0.0000 -1.8000 0.0000
    outer loop
        vertex -3.3600 -0.1000 0.2800
        vertex -3.0000 -0.1000 0.2800
        vertex -3.3200 -0.1000 1.0800
    endloop
endfacet
facet normal 0.0000 -1.7100 0.0000
    outer loop
        vertex -3.0000 -0.1000 0.2800
        vertex -3.3600 -0.1000 0.2800
        vertex -2.8800 -0.1000 -0.4800
    endloop
endfacet
facet normal 0.0000 -1.4500 0.0000
    outer loop
        vertex -2.8800 -0.1000 -0.4800
        vertex -2.6000 -0.1000 -0.3200
        vertex -3.0000 -0.1000 0.2800
    endloop
endfacet
facet normal 0.0000 -1.5800 0.0000
    outer loop
        vertex -2.6000 -0.1000 -0.3200
        vertex -2.8800 -0.1000 -0.4800
        vertex -2.2800 -0.1000 -1.0400
    endloop
endfacet
facet normal 0.0000 -1.5800 0.0000
    outer loop
        vertex -2.2800 -0.1000 -1.0400
        vertex -2.0000 -0.1000 -0.8800
        vertex -2.6000 -0.1000 -0.3200
    endloop
endfacet
facet normal 0.0000 -1.6700 0.0000
    outer loop
        vertex -2.0000 -0.1000 -0.8800
        vertex -2.2800 -0.1000 -1.0400
        vertex -1.5200 -0.1000 -1.5600
    endloop
endfacet
facet normal 0.0000 -1.5700 0.0000
    outer loop
        vertex -1.5200 -0.1000 -1.5600
        vertex -1.3200 -0.1000 -1.3200
        vertex -2.0000 -0.1000 -0.8800
    endloop
endfacet
facet normal 0.0000 -1.4400 0.0000
    outer loop
        vertex -1.3200 -0.1000 -1.3200
        vertex -1.5200 -0.1000 -1.5600
        vertex -0.7600 -0.1000 -1.8000
    endloop
endfacet
facet normal 0.0000 -1.4800 0.0000
    outer loop
        vertex -0.7600 -0.1000 -1.8000
        vertex -0.6400 -0.1000 -1.4800
        vertex -1.3200 -0.1000 -1.3200
    endloop
endfacet
facet normal 0.0000 -1.3400 0.0000
    outer loop
        vertex 0.0000 -0.1000 -1.5600
        vertex -0.6400 -0.1000 -1.4800
        vertex -0.7600 -0.1000 -1.8000
    endloop
endfacet
facet normal 0.0000 -1.1500 0.0000
    outer loop
        vertex -0.7600 -0.1000 -1.8000
        vertex -0.1200 -0.1000 -1.8400
        vertex 0.0000 -0.1000 -1.5600
    endloop
endfacet
facet normal 0.0000 -33.6800 0.0000
    outer loop
        vertex -3.6800 -0.1000 1.1600
        vertex -7.2000 -0.1000 -6.0000
        vertex -3.3600 -0.1000 0.2800
    endloop
endfacet
facet normal 0.0000 -37.0800 0.0000
    outer loop
        vertex -3.3600 -0.1000 0.2800
        vertex -7.2000 -0.1000 -6.0000
        vertex -2.8800 -0.1000 -0.4800
    endloop
endfacet
facet normal 0.0000 -35.8200 0.0000
    outer loop
        vertex -2.8800 -0.1000 -0.4800
        vertex -7.2000 -0.1000 -6.0000
        vertex -2.2800 -0.1000 -1.0400
    endloop
endfacet
facet normal 0.0000 -18.9900 0.0000
    outer loop
        vertex -1.5200 -0.1000 -1.5600
        vertex -0.1200 -0.1000 -6.0000
        vertex -0.7600 -0.1000 -1.8000
    endloop
endfacet
facet normal 0.0000 -16.6400 0.0000
    outer loop
        vertex -0.7600 -0.1000 -1.8000
        vertex -0.1200 -0.1000 -6.0000
        vertex -0.1200 -0.1000 -1.8400
    endloop
endfacet
facet normal 0.0000 -8.0000 0.0000
    outer loop
        vertex -2.4000 -0.1000 6.0000
        vertex -3.4000 -0.1000 6.0000
        vertex -3.6400 -0.1000 4.7200
    endloop
endfacet
facet normal 0.0000 -8.3300 0.0000
    outer loop
        vertex -3.6400 -0.1000 4.7200
        vertex -2.5600 -0.1000 4.7600
        vertex -2.4000 -0.1000 6.0000
    endloop
endfacet
facet normal 0.0000 -7.8400 0.0000
    outer loop
        vertex -2.5200 -0.1000 3.6000
        vertex -2.5600 -0.1000 4.7600
        vertex -3.6400 -0.1000 4.7200
    endloop
endfacet
facet normal 0.0000 -16.5200 0.0000
    outer loop
        vertex -3.6400 -0.1000 4.7200
        vertex -3.8400 -0.1000 2.5600
        vertex -2.5200 -0.1000 3.6000
    endloop
endfacet
facet normal 0.0000 -9.2900 0.0000
    outer loop
        vertex -2.3600 -0.1000 2.6000
        vertex -2.5200 -0.1000 3.6000
        vertex -3.8400 -0.1000 2.5600
    endloop
endfacet
facet normal 0.0000 -6.9900 0.0000
    outer loop
        vertex -3.8400 -0.1000 2.5600
        vertex -2.5200 -0.1000 1.8400
        vertex -2.3600 -0.1000 2.6000
    endloop
endfacet
facet normal 0.0000 -2.6000 0.0000
    outer loop
        vertex -2.3600 -0.1000 2.6000
        vertex -2.5200 -0.1000 1.8400
        vertex -2.0400 -0.1000 1.5200
    endloop
endfacet
facet normal 0.0000 -3.8800 0.0000
    outer loop
        vertex -2.0400 -0.1000 1.5200
        vertex -2.5200 -0.1000 1.8400
        vertex -3.3200 -0.1000 1.0800
    endloop
endfacet
facet normal 0.0000 -7.2800 0.0000
    outer loop
        vertex -3.3200 -0.1000 1.0800
        vertex -3.0000 -0.1000 0.2800
        vertex -2.0400 -0.1000 1.5200
    endloop
endfacet
facet normal 0.0000 -9.4100 0.0000
    outer loop
        vertex -1.6000 -0.1000 0.5200
        vertex -2.0400 -0.1000 1.5200
        vertex -3.0000 -0.1000 0.2800
    endloop
endfacet
facet normal 0.0000 -5.8500 0.0000
    outer loop
        vertex -3.0000 -0.1000 0.2800
        vertex -2.6000 -0.1000 -0.3200
        vertex -1.6000 -0.1000 0.5200
    endloop
endfacet
facet normal 0.0000 -6.6500 0.0000
    outer loop
        vertex -1.6000 -0.1000 0.5200
        vertex -2.6000 -0.1000 -0.3200
        vertex -2.0000 -0.1000 -0.8800
    endloop
endfacet
facet normal 0.0000 -5.8500 0.0000
    outer loop
        vertex -2.0000 -0.1000 -0.8800
        vertex -1.1600 -0.1000 -0.2800
        vertex -1.6000 -0.1000 0.5200
    endloop
endfacet
facet normal 0.0000 -4.8600 0.0000
    outer loop
        vertex -1.1600 -0.1000 -0.2800
        vertex -2.0000 -0.1000 -0.8800
        vertex -1.3200 -0.1000 -1.3200
    endloop
endfacet
facet normal 0.0000 -4.5800 0.0000
    outer loop
        vertex -1.3200 -0.1000 -1.3200
        vertex -0.6400 -0.1000 -1.4800
        vertex -1.1600 -0.1000 -0.2800
    endloop
endfacet
facet normal 0.0000 -1.7300 0.0000
    outer loop
        vertex -1.1600 -0.1000 -0.2800
        vertex -0.6400 -0.1000 -1.4800
        vertex -0.6000 -0.1000 -1.0400
    endloop
endfacet
facet normal 0.0000 -1.7800 0.0000
    outer loop
        vertex -0.6000 -0.1000 -1.0400
        vertex -0.6400 -0.1000 -1.4800
        vertex 0.0000 -0.1000 -1.5600
    endloop
endfacet
facet normal 0.0000 -4.3200 0.0000
    outer loop
        vertex -1.3200 -0.1000 5.3600
        vertex -1.3200 -0.1000 6.0000
        vertex -2.4000 -0.1000 6.0000
    endloop
endfacet
facet normal 0.0000 -9.0100 0.0000
    outer loop
        vertex -2.4000 -0.1000 6.0000
        vertex -2.5600 -0.1000 4.7600
        vertex -1.3200 -0.1000 5.3600
    endloop
endfacet
facet normal 0.0000 -5.2500 0.0000
    outer loop
        vertex -1.1600 -0.1000 4.7600
        vertex -1.3200 -0.1000 5.3600
        vertex -2.5600 -0.1000 4.7600
    endloop
endfacet
facet normal 0.0000 -10.1500 0.0000
    outer loop
        vertex -2.5600 -0.1000 4.7600
        vertex -2.5200 -0.1000 3.6000
        vertex -1.1600 -0.1000 4.7600
    endloop
endfacet
facet normal 0.0000 -7.4200 0.0000
    outer loop
        vertex -1.1600 -0.1000 4.7600
        vertex -2.5200 -0.1000 3.6000
        vertex -0.8400 -0.1000 4.1600
    endloop
endfacet
facet normal 0.0000 -6.7200 0.0000
    outer loop
        vertex -0.4800 -0.1000 3.6400
        vertex -0.8400 -0.1000 4.1600
        vertex -2.5200 -0.1000 3.6000
    endloop
endfacet
facet normal 0.0000 -12.7900 0.0000
    outer loop
        vertex -2.5200 -0.1000 3.6000
        vertex -2.3600 -0.1000 2.6000
        vertex -0.4800 -0.1000 3.6400
    endloop
endfacet
facet normal 0.0000 -3.5000 0.0000
    outer loop
        vertex -0.5200 -0.1000 3.3200
        vertex -0.4800 -0.1000 3.6400
        vertex -2.3600 -0.1000 2.6000
    endloop
endfacet
facet normal 0.0000 -13.8600 0.0000
    outer loop
        vertex -2.3600 -0.1000 2.6000
        vertex -2.0400 -0.1000 1.5200
        vertex -0.5200 -0.1000 3.3200
    endloop
endfacet
facet normal 0.0000 -14.4500 0.0000
    outer loop
        vertex -0.5200 -0.1000 3.3200
        vertex -2.0400 -0.1000 1.5200
        vertex -1.6000 -0.1000 0.5200
    endloop
endfacet
facet normal 0.0000 -13.1000 0.0000
    outer loop
        vertex -1.6000 -0.1000 0.5200
        vertex -1.1600 -0.1000 -0.2800
        vertex -0.5200 -0.1000 3.3200
    endloop
endfacet
facet normal 0.0000 -1.8076 0.0000
    outer loop
        vertex 3.6400 -0.1000 4.7200
        vertex 3.8800 -0.1000 4.8000
        vertex 3.7100 -0.1000 5.9484
    endloop
endfacet
facet normal 0.0000 -2.4026 0.0000
    outer loop
        vertex 3.7100 -0.1000 5.9484
        vertex 3.4000 -0.1000 6.0000
        vertex 3.6400 -0.1000 4.7200
    endloop
endfacet
facet normal 0.0000 -3.4100 0.0000
    outer loop
        vertex 3.8400 -0.1000 2.5600
        vertex 4.0800 -0.1000 2.3600
        vertex 3.8800 -0.1000 4.8000
    endloop
endfacet
facet normal 0.0000 -3.3400 0.0000
    outer loop
        vertex 3.8800 -0.1000 4.8000
        vertex 3.6400 -0.1000 4.7200
        vertex 3.8400 -0.1000 2.5600
    endloop
endfacet
facet normal 0.0000 -2.0800 0.0000
    outer loop
        vertex 2.5200 -0.1000 1.8400
        vertex 2.9200 -0.1000 1.7600
        vertex 4.0800 -0.1000 2.3600
    endloop
endfacet
facet normal 0.0000 -2.7300 0.0000
    outer loop
        vertex 4.0800 -0.1000 2.3600
        vertex 3.8400 -0.1000 2.5600
        vertex 2.5200 -0.1000 1.8400
    endloop
endfacet
facet normal 0.0000 -1.7300 0.0000
    outer loop
        vertex 3.3200 -0.1000 1.0800
        vertex 3.6800 -0.1000 1.1600
        vertex 2.9200 -0.1000 1.7600
    endloop
endfacet
facet normal 0.0000 -1.5000 0.0000
    outer loop
        vertex 2.9200 -0.1000 1.7600
        vertex 2.5200 -0.1000 1.8400
        vertex 3.3200 -0.1000 1.0800
    endloop
endfacet
facet normal 0.0000 -4.3500 0.0000
    outer loop
        vertex 3.8800 -0.1000 4.8000
        vertex 4.6000 -0.1000 5.6000
        vertex 4.0000 -0.1000 5.9000
    endloop
endfacet
facet normal 0.0000 -2.0300 0.0000
    outer loop
        vertex 4.0000 -0.1000 5.9000
        vertex 3.7100 -0.1000 5.9484
        vertex 3.8800 -0.1000 4.8000
    endloop
endfacet
facet normal 0.0000 -14.5300 0.0000
    outer loop
        vertex 3.8800 -0.1000 4.8000
        vertex 4.0800 -0.1000 2.3600
        vertex 4.8000 -0.1000 5.2000
    endloop
endfacet
facet normal 0.0000 -2.8000 0.0000
    outer loop
        vertex 4.8000 -0.1000 5.2000
        vertex 4.6000 -0.1000 5.6000
        vertex 3.8800 -0.1000 4.8000
    endloop
endfacet
facet normal 0.0000 -93.0000 0.0000
    outer loop
        vertex 4.8000 -0.1000 5.2000
        vertex 4.0800 -0.1000 2.3600
        vertex 7.2000 -0.1000 -6.0000
    endloop
endfacet
facet normal 0.0000 -196.4700 0.0000
    outer loop
        vertex 1.5200 -0.1000 -1.5600
        vertex 0.1200 -0.1000 -6.0000
        vertex 7.2000 -0.1000 -6.0000
    endloop
endfacet
facet normal 0.0000 -39.5500 0.0000
    outer loop
        vertex 7.2000 -0.1000 -6.0000
        vertex 2.2800 -0.1000 -1.0400
        vertex 1.5200 -0.1000 -1.5600
    endloop
endfacet
facet normal 0.0000 -7.2000 0.0000
    outer loop
        vertex 4.0800 -0.1000 2.3600
        vertex 2.9200 -0.1000 1.7600
        vertex 3.6800 -0.1000 1.1600
    endloop
endfacet
facet normal 0.0000 -44.3000 0.0000
    outer loop
        vertex 4.0800 -0.1000 2.3600
        vertex 3.6800 -0.1000 1.1600
        vertex 7.2000 -0.1000 -6.0000
    endloop
endfacet
facet normal 0.0000 -1.8200 0.0000
    outer loop
        vertex 3.3600 -0.1000 0.2800
        vertex 3.6800 -0.1000 1.1600
        vertex 3.3200 -0.1000 1.0800
    endloop
endfacet
facet normal 0.0000 -1.8000 0.0000
    outer loop
        vertex 3.3200 -0.1000 1.0800
        vertex 3.0000 -0.1000 0.2800
        vertex 3.3600 -0.1000 0.2800
    endloop
endfacet
facet normal 0.0000 -1.7100 0.0000
    outer loop
        vertex 2.8800 -0.1000 -0.4800
        vertex 3.3600 -0.1000 0.2800
        vertex 3.0000 -0.1000 0.2800
    endloop
endfacet
facet normal 0.0000 -1.4500 0.0000
    outer loop
        vertex 3.0000 -0.1000 0.2800
        vertex 2.6000 -0.1000 -0.3200
        vertex 2.8800 -0.1000 -0.4800
    endloop
endfacet
facet normal 0.0000 -1.5800 0.0000
    outer loop
        vertex 2.2800 -0.1000 -1.0400
        vertex 2.8800 -0.1000 -0.4800
        vertex 2.6000 -0.1000 -0.3200
    endloop
endfacet
facet normal 0.0000 -1.5800 0.0000
    outer loop
        vertex 2.6000 -0.1000 -0.3200
        vertex 2.0000 -0.1000 -0.8800
        vertex 2.2800 -0.1000 -1.0400
    endloop
endfacet
facet normal 0.0000 -1.6700 0.0000
    outer loop
        vertex 1.5200 -0.1000 -1.5600
        vertex 2.2800 -0.1000 -1.0400
        vertex 2.0000 -0.1000 -0.8800
    endloop
endfacet
facet normal 0.0000 -1.5700 0.0000
    outer loop
        vertex 2.0000 -0.1000 -0.8800
        vertex 1.3200 -0.1000 -1.3200
        vertex 1.5200 -0.1000 -1.5600
    endloop
endfacet
facet normal 0.0000 -1.4400 0.0000
    outer loop
        vertex 0.7600 -0.1000 -1.8000
        vertex 1.5200 -0.1000 -1.5600
        vertex 1.3200 -0.1000 -1.3200
    endloop
endfacet
facet normal 0.0000 -1.4800 0.0000
    outer loop
        vertex 1.3200 -0.1000 -1.3200
        vertex 0.6400 -0.1000 -1.4800
        vertex 0.7600 -0.1000 -1.8000
    endloop
endfacet
facet normal 0.0000 -1.3400 0.0000
    outer loop
        vertex 0.7600 -0.1000 -1.8000
        vertex 0.6400 -0.1000 -1.4800
        vertex 0.0000 -0.1000 -1.5600
    endloop
endfacet
facet normal 0.0000 -1.1500 0.0000
    outer loop
        vertex 0.0000 -0.1000 -1.5600
        vertex 0.1200 -0.1000 -1.8400
        vertex 0.7600 -0.1000 -1.8000
    endloop
endfacet
facet normal 0.0000 -33.6800 0.0000
    outer loop
        vertex 3.6800 -0.1000 1.1600
        vertex 3.3600 -0.1000 0.2800
        vertex 7.2000 -0.1000 -6.0000
    endloop
endfacet
facet normal 0.0000 -37.0800 0.0000
    outer loop
        vertex 3.3600 -0.1000 0.2800
        vertex 2.8800 -0.1000 -0.4800
        vertex 7.2000 -0.1000 -6.0000
    endloop
endfacet
facet normal 0.0000 -35.8200 0.0000
    outer loop
        vertex 2.8800 -0.1000 -0.4800
        vertex 2.2800 -0.1000 -1.0400
        vertex 7.2000 -0.1000 -6.0000
    endloop
endfacet
facet normal 0.0000 -18.9900 0.0000
    outer loop
        vertex 1.5200 -0.1000 -1.5600
        vertex 0.7600 -0.1000 -1.8000
        vertex 0.1200 -0.1000 -6.0000
    endloop
endfacet
facet normal 0.0000 -16.6400 0.0000
    outer loop
        vertex 0.7600 -0.1000 -1.8000
        vertex 0.1200 -0.1000 -1.8400
        vertex 0.1200 -0.1000 -6.0000
    endloop
endfacet
facet normal 0.0000 -8.0000 0.0000
    outer loop
        vertex 3.6400 -0.1000 4.7200
        vertex 3.4000 -0.1000 6.0000
        vertex 2.4000 -0.1000 6.0000
    endloop
endfacet
facet normal 0.0000 -8.3300 0.0000
    outer loop
        vertex 2.4000 -0.1000 6.0000
        vertex 2.5600 -0.1000 4.7600
        vertex 3.6400 -0.1000 4.7200
    endloop
endfacet
facet normal 0.0000 -7.8400 0.0000
    outer loop
        vertex 3.6400 -0.1000 4.7200
        vertex 2.5600 -0.1000 4.7600
        vertex 2.5200 -0.1000 3.6000
    endloop
endfacet
facet normal 0.0000 -16.5200 0.0000
    outer loop
        vertex 2.5200 -0.1000 3.6000
        vertex 3.8400 -0.1000 2.5600
        vertex 3.6400 -0.1000 4.7200
    endloop
endfacet
facet normal 0.0000 -9.2900 0.0000
    outer loop
        vertex 3.8400 -0.1000 2.5600
        vertex 2.5200 -0.1000 3.6000
        vertex 2.3600 -0.1000 2.6000
    endloop
endfacet
facet normal 0.0000 -6.9900 0.0000
    outer loop
        vertex 2.3600 -0.1000 2.6000
        vertex 2.5200 -0.1000 1.8400
        vertex 3.8400 -0.1000 2.5600
    endloop
endfacet
facet normal 0.0000 -2.6000 0.0000
    outer loop
        vertex 2.3600 -0.1000 2.6000
        vertex 2.0400 -0.1000 1.5200
        vertex 2.5200 -0.1000 1.8400
    endloop
endfacet
facet normal 0.0000 -3.8800 0.0000
    outer loop
        vertex 3.3200 -0.1000 1.0800
        vertex 2.5200 -0.1000 1.8400
        vertex 2.0400 -0.1000 1.5200
    endloop
endfacet
facet normal 0.0000 -7.2800 0.0000
    outer loop
        vertex 2.0400 -0.1000 1.5200
        vertex 3.0000 -0.1000 0.2800
        vertex 3.3200 -0.1000 1.0800
    endloop
endfacet
facet normal 0.0000 -9.4100 0.0000
    outer loop
        vertex 3.0000 -0.1000 0.2800
        vertex 2.0400 -0.1000 1.5200
        vertex 1.6000 -0.1000 0.5200
    endloop
endfacet
facet normal 0.0000 -5.8500 0.0000
    outer loop
        vertex 1.6000 -0.1000 0.5200
        vertex 2.6000 -0.1000 -0.3200
        vertex 3.0000 -0.1000 0.2800
    endloop
endfacet
facet normal 0.0000 -6.6500 0.0000
    outer loop
        vertex 2.0000 -0.1000 -0.8800
        vertex 2.6000 -0.1000 -0.3200
        vertex 1.6000 -0.1000 0.5200
    endloop
endfacet
facet normal 0.0000 -5.8500 0.0000
    outer loop
        vertex 1.6000 -0.1000 0.5200
        vertex 1.1600 -0.1000 -0.2800
        vertex 2.0000 -0.1000 -0.8800
    endloop
endfacet
facet normal 0.0000 -4.8600 0.0000
    outer loop
        vertex 1.3200 -0.1000 -1.3200
        vertex 2.0000 -0.1000 -0.8800
        vertex 1.1600 -0.1000 -0.2800
    endloop
endfacet
facet normal 0.0000 -4.5800 0.0000
    outer loop
        vertex 1.1600 -0.1000 -0.2800
        vertex 0.6400 -0.1000 -1.4800
        vertex 1.3200 -0.1000 -1.3200
    endloop
endfacet
facet normal 0.0000 -1.7300 0.0000
    outer loop
        vertex 1.1600 -0.1000 -0.2800
        vertex 0.6000 -0.1000 -1.0400
        vertex 0.6400 -0.1000 -1.4800
    endloop
endfacet
facet normal 0.0000 -1.7800 0.0000
    outer loop
        vertex 0.6000 -0.1000 -1.0400
        vertex 0.0000 -0.1000 -1.5600
        vertex 0.6400 -0.1000 -1.4800
    endloop
endfacet
facet normal 0.0000 -4.3200 0.0000
    outer loop
        vertex 2.4000 -0.1000 6.0000
        vertex 1.3200 -0.1000 6.0000
        vertex 1.3200 -0.1000 5.3600
    endloop
endfacet
facet normal 0.0000 -9.0100 0.0000
    outer loop
        vertex 1.3200 -0.1000 5.3600
        vertex 2.5600 -0.1000 4.7600
        vertex 2.4000 -0.1000 6.0000
    endloop
endfacet
facet normal 0.0000 -5.2500 0.0000
    outer loop
        vertex 2.5600 -0.1000 4.7600
        vertex 1.3200 -0.1000 5.3600
        vertex 1.1600 -0.1000 4.7600
    endloop
endfacet
facet normal 0.0000 -10.1500 0.0000
    outer loop
        vertex 1.1600 -0.1000 4.7600
        vertex 2.5200 -0.1000 3.6000
        vertex 2.5600 -0.1000 4.7600
    endloop
endfacet
facet normal 0.0000 -7.4200 0.0000
    outer loop
        vertex 1.1600 -0.1000 4.7600
        vertex 0.8400 -0.1000 4.1600
        vertex 2.5200 -0.1000 3.6000
    endloop
endfacet
facet normal 0.0000 -6.7200 0.0000
    outer loop
        vertex 2.5200 -0.1000 3.6000
        vertex 0.8400 -0.1000 4.1600
        vertex 0.4800 -0.1000 3.6400
    endloop
endfacet
facet normal 0.0000 -12.7900 0.0000
    outer loop
        vertex 0.4800 -0.1000 3.6400
        vertex 2.3600 -0.1000 2.6000
        vertex 2.5200 -0.1000 3.6000
    endloop
endfacet
facet normal 0.0000 -3.5000 0.0000
    outer loop
        vertex 2.3600 -0.1000 2.6000
        vertex 0.4800 -0.1000 3.6400
        vertex 0.5200 -0.1000 3.3200
    endloop
endfacet
facet normal 0.0000 -13.8600 0.0000
    outer loop
        vertex 0.5200 -0.1000 3.3200
        vertex 2.0400 -0.1000 1.5200
        vertex 2.3600 -0.1000 2.6000
    endloop
endfacet
facet normal 0.0000 -14.4500 0.0000
    outer loop
        vertex 1.6000 -0.1000 0.5200
        vertex 2.0400 -0.1000 1.5200
        vertex 0.5200 -0.1000 3.3200
    endloop
endfacet
facet normal 0.0000 -13.1000 0.0000
    outer loop
        vertex 0.5200 -0.1000 3.3200
        vertex 1.1600 -0.1000 -0.2800
        vertex 1.6000 -0.1000 0.5200
    endloop
endfacet
facet normal 0.0000 -0.4200 0.0000
    outer loop
        vertex 0.1200 -0.1000 -1.8400
        vertex 0.0000 -0.1000 -1.5600
        vertex -0.1200 -0.1000 -1.8400
    endloop
endfacet
facet normal 0.0000 -6.2400 0.0000
    outer loop
        vertex -0.1200 -0.1000 -1.8400
        vertex -0.1200 -0.1000 -6.0000
        vertex 0.1200 -0.1000 -1.8400
    endloop
endfacet
facet normal 0.0000 -6.2400 0.0000
    outer loop
        vertex 0.1200 -0.1000 -1.8400
        vertex -0.1200 -0.1000 -6.0000
        vertex 0.1200 -0.1000 -6.0000
    endloop
endfacet
facet normal 0.0000 -1.0400 0.0000
    outer loop
        vertex 0.0000 -0.1000 3.7200
        vertex 0.0000 -0.1000 3.4000
        vertex 0.5200 -0.1000 3.3200
    endloop
endfacet
facet normal 0.0000 -0.9400 0.0000
    outer loop
        vertex 0.5200 -0.1000 3.3200
        vertex 0.4800 -0.1000 3.6400
        vertex 0.0000 -0.1000 3.7200
    endloop
endfacet
facet normal 0.0000 -1.0200 0.0000
    outer loop
        vertex -0.4800 -0.1000 3.6400
        vertex -0.5200 -0.1000 3.3200
        vertex 0.0000 -0.1000 3.4000
    endloop
endfacet
facet normal 0.0000 -0.9600 0.0000
    outer loop
        vertex 0.0000 -0.1000 3.4000
        vertex 0.0000 -0.1000 3.7200
        vertex -0.4800 -0.1000 3.6400
    endloop
endfacet
facet normal 0.0000 -10.5600 0.0000
    outer loop
        vertex 1.3200 -0.1000 6.0000
        vertex -1.3200 -0.1000 6.0000
        vertex -1.3200 -0.1000 5.3600
    endloop
endfacet
facet normal 0.0000 -10.5600 0.0000
    outer loop
        vertex -1.3200 -0.1000 5.3600
        vertex 1.3200 -0.1000 5.3600
        vertex 1.3200 -0.1000 6.0000
    endloop
endfacet
facet normal 0.0000 -9.9000 0.0000
    outer loop
        vertex 1.3200 -0.1000 5.3600
        vertex -1.3200 -0.1000 5.3600
        vertex -1.1600 -0.1000 4.7600
    endloop
endfacet
facet normal 0.0000 -8.7000 0.0000
    outer loop
        vertex -1.1600 -0.1000 4.7600
        vertex 1.1600 -0.1000 4.7600
        vertex 1.3200 -0.1000 5.3600
    endloop
endfacet
facet normal 0.0000 -8.7000 0.0000
    outer loop
        vertex 1.1600 -0.1000 4.7600
        vertex -1.1600 -0.1000 4.7600
        vertex -0.8400 -0.1000 4.1600
    endloop
endfacet
facet normal 0.0000 -6.3000 0.0000
    outer loop
        vertex -0.8400 -0.1000 4.1600
        vertex 0.8400 -0.1000 4.1600
        vertex 1.1600 -0.1000 4.7600
    endloop
endfacet
facet normal 0.0000 -1.7400 0.0000
    outer loop
        vertex 0.0000 -0.1000 3.7200
        vertex 0.4800 -0.1000 3.6400
        vertex 0.8400 -0.1000 4.1600
    endloop
endfacet
facet normal 0.0000 -5.4600 0.0000
    outer loop
        vertex 0.8400 -0.1000 4.1600
        vertex -0.8400 -0.1000 4.1600
        vertex -0.4800 -0.1000 3.6400
    endloop
endfacet
facet normal 0.0000 -0.9000 0.0000
    outer loop
        vertex -0.4800 -0.1000 3.6400
        vertex 0.0000 -0.1000 3.7200
        vertex 0.8400 -0.1000 4.1600
    endloop
endfacet
facet normal 0.0000 -11.3800 0.0000
    outer loop
        vertex 0.0000 -0.1000 3.4000
        vertex -0.5200 -0.1000 3.3200
        vertex -1.1600 -0.1000 -0.2800
    endloop
endfacet
facet normal 0.0000 -52.2000 0.0000
    outer loop
        vertex -1.1600 -0.1000 -0.2800
        vertex 1.1600 -0.1000 -0.2800
        vertex 0.5200 -0.1000 3.3200
    endloop
endfacet
facet normal 0.0000 -12.5400 0.0000
    outer loop
        vertex 0.5200 -0.1000 3.3200
        vertex 0.0000 -0.1000 3.4000
        vertex -1.1600 -0.1000 -0.2800
    endloop
endfacet
facet normal 0.0000 -11.0200 0.0000
    outer loop
        vertex 1.1600 -0.1000 -0.2800
        vertex -1.1600 -0.1000 -0.2800
        vertex -0.6000 -0.1000 -1.0400
    endloop
endfacet
facet normal 0.0000 -5.7000 0.0000
    outer loop
        vertex -0.6000 -0.1000 -1.0400
        vertex 0.6000 -0.1000 -1.0400
        vertex 1.1600 -0.1000 -0.2800
    endloop
endfacet
facet normal 0.0000 -3.9000 0.0000
    outer loop
        vertex 0.6000 -0.1000 -1.0400
        vertex -0.6000 -0.1000 -1.0400
        vertex 0.0000 -0.1000 -1.5600
    endloop
endfacet
endsolid GiantLegoRocks
