solid GiantLegoRocks
facet normal 0.0000 0.7500 0.0000
    outer loop
        vertex 4.0000 0.0000 4.0000
        vertex 4.0000 0.0000 -4.0000
        vertex -4.0000 0.0000 -4.0000
    endloop
endfacet
facet normal 0.0000 0.7500 0.0000
    outer loop
        vertex -4.0000 0.0000 -4.0000
        vertex -4.0000 0.0000 4.0000
        vertex 4.0000 0.0000 4.0000
    endloop
endfacet
facet normal 0.0000 -0.2500 20.0000
    outer loop
        vertex -4.0000 -0.1000 4.0000
        vertex 4.0000 -0.1000 4.0000
        vertex 4.0000 0.0000 4.0000
    endloop
endfacet
facet normal 0.0000 -0.2500 20.0000
    outer loop
        vertex 4.0000 0.0000 4.0000
        vertex -4.0000 0.0000 4.0000
        vertex -4.0000 -0.1000 4.0000
    endloop
endfacet
facet normal -20.0000 -0.2500 0.0000
    outer loop
        vertex -4.0000 -0.1000 -4.0000
        vertex -4.0000 -0.1000 4.0000
        vertex -4.0000 0.0000 4.0000
    endloop
endfacet
facet normal -20.0000 -0.2500 0.0000
    outer loop
        vertex -4.0000 0.0000 4.0000
        vertex -4.0000 0.0000 -4.0000
        vertex -4.0000 -0.1000 -4.0000
    endloop
endfacet
facet normal 0.0000 -0.2500 -20.0000
    outer loop
        vertex 4.0000 -0.1000 -4.0000
        vertex -4.0000 -0.1000 -4.0000
        vertex -4.0000 0.0000 -4.0000
    endloop
endfacet
facet normal 0.0000 -0.2500 -20.0000
    outer loop
        vertex -4.0000 0.0000 -4.0000
        vertex 4.0000 0.0000 -4.0000
        vertex 4.0000 -0.1000 -4.0000
    endloop
endfacet
facet normal 20.0000 -0.2500 0.0000
    outer loop
        vertex 4.0000 -0.1000 4.0000
        vertex 4.0000 -0.1000 -4.0000
        vertex 4.0000 0.0000 -4.0000
    endloop
endfacet
facet normal 20.0000 -0.2500 0.0000
    outer loop
        vertex 4.0000 0.0000 -4.0000
        vertex 4.0000 0.0000 4.0000
        vertex 4.0000 -0.1000 4.0000
    endloop
endfacet
facet normal 0.0000 -3.3097 0.0000
    outer loop
        vertex -3.0208 -0.1000 3.1800
        vertex -3.0208 -0.1000 2.6176
        vertex -2.0792 -0.1000 2.6176
    endloop
endfacet
facet normal 0.0000 -10.5657 0.0000
    outer loop
        vertex -1.4284 -0.1000 2.6176
        vertex -2.0792 -0.1000 2.6176
        vertex -2.0792 -0.1000 0.0200
    endloop
endfacet
facet normal 0.0000 -10.5657 0.0000
    outer loop
        vertex -2.0792 -0.1000 0.0200
        vertex -1.4284 -0.1000 0.0200
        vertex -1.4284 -0.1000 2.6176
    endloop
endfacet
facet normal 0.0000 -3.2661 0.0000
    outer loop
        vertex -1.4284 -0.1000 2.6176
        vertex -0.4992 -0.1000 2.6176
        vertex -0.4992 -0.1000 3.1800
    endloop
endfacet
facet normal 0.0000 -8.8634 0.0000
    outer loop
        vertex -0.4992 -0.1000 3.1800
        vertex -3.0208 -0.1000 3.1800
        vertex -2.0792 -0.1000 2.6176
    endloop
endfacet
facet normal 0.0000 -2.2876 0.0000
    outer loop
        vertex -2.0792 -0.1000 2.6176
        vertex -1.4284 -0.1000 2.6176
        vertex -0.4992 -0.1000 3.1800
    endloop
endfacet
facet normal 0.0000 -2.9645 0.0000
    outer loop
        vertex 1.5200 -0.1000 0.8100
        vertex 1.2200 -0.1000 0.0200
        vertex 1.8204 -0.1000 0.0200
    endloop
endfacet
facet normal 0.0000 -14.2279 0.0000
    outer loop
        vertex 0.8468 -0.1000 3.1800
        vertex 0.1264 -0.1000 3.1800
        vertex 1.2200 -0.1000 0.0200
    endloop
endfacet
facet normal 0.0000 -7.7677 0.0000
    outer loop
        vertex 1.2200 -0.1000 0.0200
        vertex 1.5200 -0.1000 0.8100
        vertex 0.8468 -0.1000 3.1800
    endloop
endfacet
facet normal 0.0000 -7.7736 0.0000
    outer loop
        vertex 2.1932 -0.1000 3.1800
        vertex 1.5200 -0.1000 0.8100
        vertex 1.8204 -0.1000 0.0200
    endloop
endfacet
facet normal 0.0000 -14.2279 0.0000
    outer loop
        vertex 1.8204 -0.1000 0.0200
        vertex 2.9136 -0.1000 3.1800
        vertex 2.1932 -0.1000 3.1800
    endloop
endfacet
facet normal 0.0000 -0.2299 0.0000
    outer loop
        vertex -1.0552 -0.1000 -2.5428
        vertex -1.1912 -0.1000 -2.8680
        vertex -1.2420 -0.1000 -3.2600
    endloop
endfacet
facet normal 0.0000 -2.8584 0.0000
    outer loop
        vertex -1.2420 -0.1000 -3.2600
        vertex -0.4644 -0.1000 -2.7228
        vertex -1.0552 -0.1000 -2.5428
    endloop
endfacet
facet normal 0.0000 -1.5845 0.0000
    outer loop
        vertex -0.2308 -0.1000 -1.8224
        vertex 0.2624 -0.1000 -2.1444
        vertex 0.6288 -0.1000 -1.8696
    endloop
endfacet
facet normal 0.0000 -2.1528 0.0000
    outer loop
        vertex 0.6288 -0.1000 -1.8696
        vertex 0.2120 -0.1000 -1.4460
        vertex -0.2308 -0.1000 -1.8224
    endloop
endfacet
facet normal 0.0000 -0.7724 0.0000
    outer loop
        vertex -0.5436 -0.1000 -0.1728
        vertex -0.7364 -0.1000 -0.2676
        vertex -0.4740 -0.1000 -0.7796
    endloop
endfacet
facet normal 0.0000 -0.6367 0.0000
    outer loop
        vertex -0.4740 -0.1000 -0.7796
        vertex -0.3192 -0.1000 -0.6656
        vertex -0.5436 -0.1000 -0.1728
    endloop
endfacet
facet normal 0.0000 -1.3063 0.0000
    outer loop
        vertex 0.6288 -0.1000 -1.8696
        vertex 0.8500 -0.1000 -1.6232
        vertex 0.3224 -0.1000 -1.2660
    endloop
endfacet
facet normal 0.0000 -0.7612 0.0000
    outer loop
        vertex 0.3224 -0.1000 -1.2660
        vertex 0.2120 -0.1000 -1.4460
        vertex 0.6288 -0.1000 -1.8696
    endloop
endfacet
facet normal 0.0000 -0.6894 0.0000
    outer loop
        vertex 0.2340 -0.1000 -0.7508
        vertex 0.3288 -0.1000 -0.8996
        vertex 0.9292 -0.1000 -0.6784
    endloop
endfacet
facet normal 0.0000 -1.4439 0.0000
    outer loop
        vertex 0.9292 -0.1000 -0.6784
        vertex 0.7112 -0.1000 -0.3688
        vertex 0.2340 -0.1000 -0.7508
    endloop
endfacet
facet normal 0.0000 -1.7656 0.0000
    outer loop
        vertex -0.4360 -0.1000 -1.9488
        vertex -0.8120 -0.1000 -2.2488
        vertex -0.4644 -0.1000 -2.7228
    endloop
endfacet
facet normal 0.0000 -0.6721 0.0000
    outer loop
        vertex -0.4644 -0.1000 -2.7228
        vertex -0.3192 -0.1000 -2.5520
        vertex -0.4360 -0.1000 -1.9488
    endloop
endfacet
facet normal 0.0000 -1.0881 0.0000
    outer loop
        vertex 0.3224 -0.1000 -1.2660
        vertex 0.8500 -0.1000 -1.6232
        vertex 0.9640 -0.1000 -1.3704
    endloop
endfacet
facet normal 0.0000 -1.2166 0.0000
    outer loop
        vertex 0.9640 -0.1000 -1.3704
        vertex 1.0020 -0.1000 -1.0732
        vertex 0.3224 -0.1000 -1.2660
    endloop
endfacet
facet normal 0.0000 -0.7188 0.0000
    outer loop
        vertex 0.3604 -0.1000 -1.0860
        vertex 0.3224 -0.1000 -1.2660
        vertex 1.0020 -0.1000 -1.0732
    endloop
endfacet
facet normal 0.0000 -1.5890 0.0000
    outer loop
        vertex 1.0020 -0.1000 -1.0732
        vertex 0.9292 -0.1000 -0.6784
        vertex 0.3604 -0.1000 -1.0860
    endloop
endfacet
facet normal 0.0000 -0.7432 0.0000
    outer loop
        vertex 0.9292 -0.1000 -0.6784
        vertex 0.3288 -0.1000 -0.8996
        vertex 0.3604 -0.1000 -1.0860
    endloop
endfacet
facet normal 0.0000 -1.5445 0.0000
    outer loop
        vertex -0.1104 -0.1000 -0.6276
        vertex -0.0696 -0.1000 -0.1000
        vertex -0.5436 -0.1000 -0.1728
    endloop
endfacet
facet normal 0.0000 -0.6964 0.0000
    outer loop
        vertex -0.5436 -0.1000 -0.1728
        vertex -0.3192 -0.1000 -0.6656
        vertex -0.1104 -0.1000 -0.6276
    endloop
endfacet
facet normal 0.0000 -0.8659 0.0000
    outer loop
        vertex -0.2308 -0.1000 -1.8224
        vertex -0.4360 -0.1000 -1.9488
        vertex -0.3192 -0.1000 -2.5520
    endloop
endfacet
facet normal 0.0000 -1.3685 0.0000
    outer loop
        vertex -0.3192 -0.1000 -2.5520
        vertex 0.0096 -0.1000 -2.3152
        vertex -0.2308 -0.1000 -1.8224
    endloop
endfacet
facet normal 0.0000 -7.4174 0.0000
    outer loop
        vertex -0.4644 -0.1000 -2.7228
        vertex -1.2420 -0.1000 -3.2600
        vertex 0.9672 -0.1000 -3.2600
    endloop
endfacet
facet normal 0.0000 -4.8066 0.0000
    outer loop
        vertex 0.9672 -0.1000 -3.2600
        vertex 0.9672 -0.1000 -2.7228
        vertex -0.4644 -0.1000 -2.7228
    endloop
endfacet
facet normal 0.0000 -1.0353 0.0000
    outer loop
        vertex -0.2308 -0.1000 -1.8224
        vertex 0.0096 -0.1000 -2.3152
        vertex 0.2624 -0.1000 -2.1444
    endloop
endfacet
facet normal 0.0000 -1.7239 0.0000
    outer loop
        vertex -1.1124 -0.1000 -0.7508
        vertex -1.1848 -0.1000 -1.2280
        vertex -0.6068 -0.1000 -1.2280
    endloop
endfacet
facet normal 0.0000 -0.9418 0.0000
    outer loop
        vertex -0.6068 -0.1000 -1.2280
        vertex -0.5720 -0.1000 -0.9628
        vertex -1.1124 -0.1000 -0.7508
    endloop
endfacet
facet normal 0.0000 -0.7842 0.0000
    outer loop
        vertex -0.4740 -0.1000 -0.7796
        vertex -1.0208 -0.1000 -0.5584
        vertex -1.1124 -0.1000 -0.7508
    endloop
endfacet
facet normal 0.0000 -0.7486 0.0000
    outer loop
        vertex -1.1124 -0.1000 -0.7508
        vertex -0.5720 -0.1000 -0.9628
        vertex -0.4740 -0.1000 -0.7796
    endloop
endfacet
facet normal 0.0000 -0.6598 0.0000
    outer loop
        vertex -0.1104 -0.1000 -0.6276
        vertex 0.0856 -0.1000 -0.6592
        vertex 0.3700 -0.1000 -0.1664
    endloop
endfacet
facet normal 0.0000 -1.4665 0.0000
    outer loop
        vertex 0.3700 -0.1000 -0.1664
        vertex -0.0696 -0.1000 -0.1000
        vertex -0.1104 -0.1000 -0.6276
    endloop
endfacet
facet normal 0.0000 -1.4107 0.0000
    outer loop
        vertex 0.7112 -0.1000 -0.3688
        vertex 0.3700 -0.1000 -0.1664
        vertex 0.0856 -0.1000 -0.6592
    endloop
endfacet
facet normal 0.0000 -0.6275 0.0000
    outer loop
        vertex 0.0856 -0.1000 -0.6592
        vertex 0.2340 -0.1000 -0.7508
        vertex 0.7112 -0.1000 -0.3688
    endloop
endfacet
facet normal 0.0000 -1.3870 0.0000
    outer loop
        vertex -1.0208 -0.1000 -0.5584
        vertex -0.4740 -0.1000 -0.7796
        vertex -0.7364 -0.1000 -0.2676
    endloop
endfacet
facet normal 0.0000 -0.0568 0.0000
    outer loop
        vertex -0.7364 -0.1000 -0.2676
        vertex -0.8944 -0.1000 -0.3972
        vertex -1.0208 -0.1000 -0.5584
    endloop
endfacet
facet normal 0.0000 -1.3592 0.0000
    outer loop
        vertex -0.8120 -0.1000 -2.2488
        vertex -1.0552 -0.1000 -2.5428
        vertex -0.4644 -0.1000 -2.7228
    endloop
endfacet
facet normal 0.0000 -15.2869 0.0000
    outer loop
        vertex -2.0792 -0.1000 0.0200
        vertex -2.0792 -0.1000 2.6176
        vertex -3.0208 -0.1000 2.6176
    endloop
endfacet
facet normal 0.0000 -54.8419 0.0000
    outer loop
        vertex -3.0208 -0.1000 2.6176
        vertex -4.0000 -0.1000 -4.0000
        vertex -2.0792 -0.1000 0.0200
    endloop
endfacet
facet normal 0.0000 -19.9436 0.0000
    outer loop
        vertex 2.1932 -0.1000 3.1800
        vertex 0.8468 -0.1000 3.1800
        vertex 1.5200 -0.1000 0.8100
    endloop
endfacet
facet normal 0.0000 -2.5350 0.0000
    outer loop
        vertex 0.6288 -0.1000 -1.8696
        vertex 0.2624 -0.1000 -2.1444
        vertex 0.9672 -0.1000 -2.7228
    endloop
endfacet
facet normal 0.0000 -3.6876 0.0000
    outer loop
        vertex -0.6068 -0.1000 -1.2280
        vertex -1.1848 -0.1000 -1.2280
        vertex -0.8120 -0.1000 -2.2488
    endloop
endfacet
facet normal 0.0000 -2.0141 0.0000
    outer loop
        vertex -0.8120 -0.1000 -2.2488
        vertex -0.4360 -0.1000 -1.9488
        vertex -0.6068 -0.1000 -1.2280
    endloop
endfacet
facet normal 0.0000 -0.9686 0.0000
    outer loop
        vertex 0.9640 -0.1000 -1.3704
        vertex 0.8500 -0.1000 -1.6232
        vertex 0.9672 -0.1000 -2.7228
    endloop
endfacet
facet normal 0.0000 -25.6092 0.0000
    outer loop
        vertex 0.9672 -0.1000 -2.7228
        vertex 4.0000 -0.1000 -4.0000
        vertex 0.9640 -0.1000 -1.3704
    endloop
endfacet
facet normal 0.0000 -1.7007 0.0000
    outer loop
        vertex 0.8500 -0.1000 -1.6232
        vertex 0.6288 -0.1000 -1.8696
        vertex 0.9672 -0.1000 -2.7228
    endloop
endfacet
facet normal 0.0000 -0.8649 0.0000
    outer loop
        vertex -0.0696 -0.1000 -0.1000
        vertex 0.3700 -0.1000 -0.1664
        vertex 1.2200 -0.1000 0.0200
    endloop
endfacet
facet normal 0.0000 -22.2261 0.0000
    outer loop
        vertex 1.2200 -0.1000 0.0200
        vertex -0.4992 -0.1000 2.6176
        vertex -0.0696 -0.1000 -0.1000
    endloop
endfacet
facet normal 0.0000 -1.5143 0.0000
    outer loop
        vertex 1.2200 -0.1000 0.0200
        vertex 0.7112 -0.1000 -0.3688
        vertex 0.9292 -0.1000 -0.6784
    endloop
endfacet
facet normal 0.0000 -0.3232 0.0000
    outer loop
        vertex -0.4740 -0.1000 -0.7796
        vertex -0.5720 -0.1000 -0.9628
        vertex -0.1104 -0.1000 -0.6276
    endloop
endfacet
facet normal 0.0000 -0.1120 0.0000
    outer loop
        vertex -0.1104 -0.1000 -0.6276
        vertex -0.3192 -0.1000 -0.6656
        vertex -0.4740 -0.1000 -0.7796
    endloop
endfacet
facet normal 0.0000 -1.4727 0.0000
    outer loop
        vertex 1.2200 -0.1000 0.0200
        vertex 0.3700 -0.1000 -0.1664
        vertex 0.7112 -0.1000 -0.3688
    endloop
endfacet
facet normal 0.0000 -1.0353 0.0000
    outer loop
        vertex 1.2200 -0.1000 0.0200
        vertex 0.9292 -0.1000 -0.6784
        vertex 1.0020 -0.1000 -1.0732
    endloop
endfacet
facet normal 0.0000 -4.1022 0.0000
    outer loop
        vertex 1.0020 -0.1000 -1.0732
        vertex 1.8204 -0.1000 0.0200
        vertex 1.2200 -0.1000 0.0200
    endloop
endfacet
facet normal 0.0000 -0.9738 0.0000
    outer loop
        vertex -1.4284 -0.1000 0.0200
        vertex -0.5436 -0.1000 -0.1728
        vertex -0.0696 -0.1000 -0.1000
    endloop
endfacet
facet normal 0.0000 -22.7570 0.0000
    outer loop
        vertex -0.0696 -0.1000 -0.1000
        vertex -0.4992 -0.1000 2.6176
        vertex -1.4284 -0.1000 0.0200
    endloop
endfacet
facet normal 0.0000 -6.2639 0.0000
    outer loop
        vertex 1.0020 -0.1000 -1.0732
        vertex 0.9640 -0.1000 -1.3704
        vertex 4.0000 -0.1000 -4.0000
    endloop
endfacet
facet normal 0.0000 -35.4544 0.0000
    outer loop
        vertex 4.0000 -0.1000 -4.0000
        vertex 1.8204 -0.1000 0.0200
        vertex 1.0020 -0.1000 -1.0732
    endloop
endfacet
facet normal 0.0000 -10.1826 0.0000
    outer loop
        vertex 0.9672 -0.1000 -2.7228
        vertex 0.9672 -0.1000 -3.2600
        vertex 4.0000 -0.1000 -4.0000
    endloop
endfacet
facet normal 0.0000 -3.6470 0.0000
    outer loop
        vertex -0.4644 -0.1000 -2.7228
        vertex 0.9672 -0.1000 -2.7228
        vertex 0.0096 -0.1000 -2.3152
    endloop
endfacet
facet normal 0.0000 -0.1361 0.0000
    outer loop
        vertex 0.0096 -0.1000 -2.3152
        vertex -0.3192 -0.1000 -2.5520
        vertex -0.4644 -0.1000 -2.7228
    endloop
endfacet
facet normal 0.0000 -1.2913 0.0000
    outer loop
        vertex -1.1848 -0.1000 -1.2280
        vertex -1.1124 -0.1000 -0.7508
        vertex -1.4284 -0.1000 0.0200
    endloop
endfacet
facet normal 0.0000 -5.0762 0.0000
    outer loop
        vertex -1.4284 -0.1000 0.0200
        vertex -2.0792 -0.1000 0.0200
        vertex -1.1848 -0.1000 -1.2280
    endloop
endfacet
facet normal 0.0000 -1.3810 0.0000
    outer loop
        vertex -1.1912 -0.1000 -2.8680
        vertex -1.0552 -0.1000 -2.5428
        vertex -1.1848 -0.1000 -1.2280
    endloop
endfacet
facet normal 0.0000 -28.7449 0.0000
    outer loop
        vertex -1.1848 -0.1000 -1.2280
        vertex -4.0000 -0.1000 -4.0000
        vertex -1.1912 -0.1000 -2.8680
    endloop
endfacet
facet normal 0.0000 -1.5484 0.0000
    outer loop
        vertex 0.3224 -0.1000 -1.2660
        vertex -0.5720 -0.1000 -0.9628
        vertex -0.6068 -0.1000 -1.2280
    endloop
endfacet
facet normal 0.0000 -1.0716 0.0000
    outer loop
        vertex -0.6068 -0.1000 -1.2280
        vertex 0.2120 -0.1000 -1.4460
        vertex 0.3224 -0.1000 -1.2660
    endloop
endfacet
facet normal 0.0000 -0.1329 0.0000
    outer loop
        vertex -0.4360 -0.1000 -1.9488
        vertex -0.2308 -0.1000 -1.8224
        vertex 0.2120 -0.1000 -1.4460
    endloop
endfacet
facet normal 0.0000 -3.4560 0.0000
    outer loop
        vertex 0.2120 -0.1000 -1.4460
        vertex -0.6068 -0.1000 -1.2280
        vertex -0.4360 -0.1000 -1.9488
    endloop
endfacet
facet normal 0.0000 -0.8213 0.0000
    outer loop
        vertex -1.4284 -0.1000 0.0200
        vertex -1.1124 -0.1000 -0.7508
        vertex -1.0208 -0.1000 -0.5584
    endloop
endfacet
facet normal 0.0000 -0.8676 0.0000
    outer loop
        vertex -1.4284 -0.1000 0.0200
        vertex -1.0208 -0.1000 -0.5584
        vertex -0.8944 -0.1000 -0.3972
    endloop
endfacet
facet normal 0.0000 -2.2366 0.0000
    outer loop
        vertex -1.1848 -0.1000 -1.2280
        vertex -1.0552 -0.1000 -2.5428
        vertex -0.8120 -0.1000 -2.2488
    endloop
endfacet
facet normal 0.0000 -1.6662 0.0000
    outer loop
        vertex 0.2624 -0.1000 -2.1444
        vertex 0.0096 -0.1000 -2.3152
        vertex 0.9672 -0.1000 -2.7228
    endloop
endfacet
facet normal 0.0000 -0.8445 0.0000
    outer loop
        vertex -1.4284 -0.1000 0.0200
        vertex -0.8944 -0.1000 -0.3972
        vertex -0.7364 -0.1000 -0.2676
    endloop
endfacet
facet normal 0.0000 -2.3088 0.0000
    outer loop
        vertex 0.3604 -0.1000 -1.0860
        vertex -0.1104 -0.1000 -0.6276
        vertex -0.5720 -0.1000 -0.9628
    endloop
endfacet
facet normal 0.0000 -1.0782 0.0000
    outer loop
        vertex -0.5720 -0.1000 -0.9628
        vertex 0.3224 -0.1000 -1.2660
        vertex 0.3604 -0.1000 -1.0860
    endloop
endfacet
facet normal 0.0000 -0.2385 0.0000
    outer loop
        vertex 0.2340 -0.1000 -0.7508
        vertex 0.0856 -0.1000 -0.6592
        vertex 0.3604 -0.1000 -1.0860
    endloop
endfacet
facet normal 0.0000 -0.0811 0.0000
    outer loop
        vertex 0.3604 -0.1000 -1.0860
        vertex 0.3288 -0.1000 -0.8996
        vertex 0.2340 -0.1000 -0.7508
    endloop
endfacet
facet normal 0.0000 -0.4686 0.0000
    outer loop
        vertex -0.1104 -0.1000 -0.6276
        vertex 0.3604 -0.1000 -1.0860
        vertex 0.0856 -0.1000 -0.6592
    endloop
endfacet
facet normal 0.0000 -0.7566 0.0000
    outer loop
        vertex -1.4284 -0.1000 0.0200
        vertex -0.7364 -0.1000 -0.2676
        vertex -0.5436 -0.1000 -0.1728
    endloop
endfacet
facet normal 0.0000 -70.5137 0.0000
    outer loop
        vertex 2.9136 -0.1000 3.1800
        vertex 1.8204 -0.1000 0.0200
        vertex 4.0000 -0.1000 -4.0000
    endloop
endfacet
facet normal 0.0000 -54.3200 0.0000
    outer loop
        vertex 4.0000 -0.1000 -4.0000
        vertex 4.0000 -0.1000 4.0000
        vertex 2.9136 -0.1000 3.1800
    endloop
endfacet
facet normal 0.0000 -3.6921 0.0000
    outer loop
        vertex 4.0000 -0.1000 4.0000
        vertex 2.1932 -0.1000 3.1800
        vertex 2.9136 -0.1000 3.1800
    endloop
endfacet
facet normal 0.0000 -6.9003 0.0000
    outer loop
        vertex 4.0000 -0.1000 4.0000
        vertex 0.8468 -0.1000 3.1800
        vertex 2.1932 -0.1000 3.1800
    endloop
endfacet
facet normal 0.0000 -3.6920 0.0000
    outer loop
        vertex 4.0000 -0.1000 4.0000
        vertex 0.1264 -0.1000 3.1800
        vertex 0.8468 -0.1000 3.1800
    endloop
endfacet
facet normal 0.0000 -3.2062 0.0000
    outer loop
        vertex -0.4992 -0.1000 3.1800
        vertex 0.1264 -0.1000 3.1800
        vertex 4.0000 -0.1000 4.0000
    endloop
endfacet
facet normal 0.0000 -41.0000 0.0000
    outer loop
        vertex 4.0000 -0.1000 4.0000
        vertex -4.0000 -0.1000 4.0000
        vertex -0.4992 -0.1000 3.1800
    endloop
endfacet
facet normal 0.0000 -12.9232 0.0000
    outer loop
        vertex -4.0000 -0.1000 4.0000
        vertex -3.0208 -0.1000 3.1800
        vertex -0.4992 -0.1000 3.1800
    endloop
endfacet
facet normal 0.0000 -3.4419 0.0000
    outer loop
        vertex -3.0208 -0.1000 2.6176
        vertex -3.0208 -0.1000 3.1800
        vertex -4.0000 -0.1000 4.0000
    endloop
endfacet
facet normal 0.0000 -48.9600 0.0000
    outer loop
        vertex -4.0000 -0.1000 4.0000
        vertex -4.0000 -0.1000 -4.0000
        vertex -3.0208 -0.1000 2.6176
    endloop
endfacet
facet normal 0.0000 -37.4540 0.0000
    outer loop
        vertex -2.0792 -0.1000 0.0200
        vertex -4.0000 -0.1000 -4.0000
        vertex -1.1848 -0.1000 -1.2280
    endloop
endfacet
facet normal 0.0000 -6.5222 0.0000
    outer loop
        vertex -1.1912 -0.1000 -2.8680
        vertex -4.0000 -0.1000 -4.0000
        vertex -1.2420 -0.1000 -3.2600
    endloop
endfacet
facet normal 0.0000 -10.2175 0.0000
    outer loop
        vertex 0.9672 -0.1000 -3.2600
        vertex -1.2420 -0.1000 -3.2600
        vertex -4.0000 -0.1000 -4.0000
    endloop
endfacet
facet normal 0.0000 -37.0000 0.0000
    outer loop
        vertex -4.0000 -0.1000 -4.0000
        vertex 4.0000 -0.1000 -4.0000
        vertex 0.9672 -0.1000 -3.2600
    endloop
endfacet
facet normal 0.0000 -2.1990 0.0000
    outer loop
        vertex 0.1264 -0.1000 3.1800
        vertex -0.4992 -0.1000 3.1800
        vertex -0.4992 -0.1000 2.6176
    endloop
endfacet
facet normal 0.0000 -16.1996 0.0000
    outer loop
        vertex -0.4992 -0.1000 2.6176
        vertex 1.2200 -0.1000 0.0200
        vertex 0.1264 -0.1000 3.1800
    endloop
endfacet
facet normal 0.0000 -15.0856 0.0000
    outer loop
        vertex -0.4992 -0.1000 2.6176
        vertex -1.4284 -0.1000 2.6176
        vertex -1.4284 -0.1000 0.0200
    endloop
endfacet
endsolid GiantLegoRocks
