solid GiantLegoRocks
facet normal 0.0000 91.5528 0.0000
    outer loop
        vertex 1.7760 -0.1000 5.9000
        vertex 1.7760 -0.1000 1.7760
        vertex -1.7760 -0.1000 1.7760
    endloop
endfacet
facet normal 0.0000 91.5528 0.0000
    outer loop
        vertex -1.7760 -0.1000 1.7760
        vertex -1.7760 -0.1000 5.9000
        vertex 1.7760 -0.1000 5.9000
    endloop
endfacet
facet normal 0.0000 91.5528 0.0000
    outer loop
        vertex -1.7760 -0.1000 -1.7760
        vertex -5.9000 -0.1000 -1.7760
        vertex -5.9000 -0.1000 1.7760
    endloop
endfacet
facet normal 0.0000 91.5528 0.0000
    outer loop
        vertex -5.9000 -0.1000 1.7760
        vertex -1.7760 -0.1000 1.7760
        vertex -1.7760 -0.1000 -1.7760
    endloop
endfacet
facet normal 0.0000 78.8544 0.0000
    outer loop
        vertex 1.7760 -0.1000 -1.7760
        vertex -1.7760 -0.1000 -1.7760
        vertex -1.7760 -0.1000 1.7760
    endloop
endfacet
facet normal 0.0000 78.8544 0.0000
    outer loop
        vertex -1.7760 -0.1000 1.7760
        vertex 1.7760 -0.1000 1.7760
        vertex 1.7760 -0.1000 -1.7760
    endloop
endfacet
facet normal 0.0000 91.5528 0.0000
    outer loop
        vertex 5.9000 -0.1000 -1.7760
        vertex 1.7760 -0.1000 -1.7760
        vertex 1.7760 -0.1000 1.7760
    endloop
endfacet
facet normal 0.0000 91.5528 0.0000
    outer loop
        vertex 1.7760 -0.1000 1.7760
        vertex 5.9000 -0.1000 1.7760
        vertex 5.9000 -0.1000 -1.7760
    endloop
endfacet
facet normal 0.0000 91.5528 0.0000
    outer loop
        vertex 1.7760 -0.1000 -5.9000
        vertex -1.7760 -0.1000 -5.9000
        vertex -1.7760 -0.1000 -1.7760
    endloop
endfacet
facet normal 0.0000 91.5528 0.0000
    outer loop
        vertex -1.7760 -0.1000 -1.7760
        vertex 1.7760 -0.1000 -1.7760
        vertex 1.7760 -0.1000 -5.9000
    endloop
endfacet
facet normal 0.0000 555.0000 0.0000
    outer loop
        vertex -12.0000 -0.1000 9.6000
        vertex 12.0000 -0.1000 9.6000
        vertex 1.7760 -0.1000 5.9000
    endloop
endfacet
facet normal 0.0000 82.1400 0.0000
    outer loop
        vertex 1.7760 -0.1000 5.9000
        vertex -1.7760 -0.1000 5.9000
        vertex -12.0000 -0.1000 9.6000
    endloop
endfacet
facet normal 0.0000 358.8911 0.0000
    outer loop
        vertex 1.7760 -0.1000 5.9000
        vertex 12.0000 -0.1000 9.6000
        vertex 5.9000 -0.1000 1.7760
    endloop
endfacet
facet normal 0.0000 106.2961 0.0000
    outer loop
        vertex 5.9000 -0.1000 1.7760
        vertex 1.7760 -0.1000 1.7760
        vertex 1.7760 -0.1000 5.9000
    endloop
endfacet
facet normal 0.0000 135.4200 0.0000
    outer loop
        vertex 12.0000 -0.1000 -9.6000
        vertex 5.9000 -0.1000 -1.7760
        vertex 5.9000 -0.1000 1.7760
    endloop
endfacet
facet normal 0.0000 732.0000 0.0000
    outer loop
        vertex 5.9000 -0.1000 1.7760
        vertex 12.0000 -0.1000 9.6000
        vertex 12.0000 -0.1000 -9.6000
    endloop
endfacet
facet normal 0.0000 358.8911 0.0000
    outer loop
        vertex 5.9000 -0.1000 -1.7760
        vertex 12.0000 -0.1000 -9.6000
        vertex 1.7760 -0.1000 -5.9000
    endloop
endfacet
facet normal 0.0000 106.2961 0.0000
    outer loop
        vertex 1.7760 -0.1000 -5.9000
        vertex 1.7760 -0.1000 -1.7760
        vertex 5.9000 -0.1000 -1.7760
    endloop
endfacet
facet normal 0.0000 555.0000 0.0000
    outer loop
        vertex 12.0000 -0.1000 -9.6000
        vertex -12.0000 -0.1000 -9.6000
        vertex -1.7760 -0.1000 -5.9000
    endloop
endfacet
facet normal 0.0000 82.1400 0.0000
    outer loop
        vertex -1.7760 -0.1000 -5.9000
        vertex 1.7760 -0.1000 -5.9000
        vertex 12.0000 -0.1000 -9.6000
    endloop
endfacet
facet normal 0.0000 358.8911 0.0000
    outer loop
        vertex -1.7760 -0.1000 -5.9000
        vertex -12.0000 -0.1000 -9.6000
        vertex -5.9000 -0.1000 -1.7760
    endloop
endfacet
facet normal 0.0000 106.2961 0.0000
    outer loop
        vertex -5.9000 -0.1000 -1.7760
        vertex -1.7760 -0.1000 -1.7760
        vertex -1.7760 -0.1000 -5.9000
    endloop
endfacet
facet normal 0.0000 732.0000 0.0000
    outer loop
        vertex -12.0000 -0.1000 -9.6000
        vertex -12.0000 -0.1000 9.6000
        vertex -5.9000 -0.1000 1.7760
    endloop
endfacet
facet normal 0.0000 135.4200 0.0000
    outer loop
        vertex -5.9000 -0.1000 1.7760
        vertex -5.9000 -0.1000 -1.7760
        vertex -12.0000 -0.1000 -9.6000
    endloop
endfacet
facet normal 0.0000 358.8911 0.0000
    outer loop
        vertex -5.9000 -0.1000 1.7760
        vertex -12.0000 -0.1000 9.6000
        vertex -1.7760 -0.1000 5.9000
    endloop
endfacet
facet normal 0.0000 106.2961 0.0000
    outer loop
        vertex -1.7760 -0.1000 5.9000
        vertex -1.7760 -0.1000 1.7760
        vertex -5.9000 -0.1000 1.7760
    endloop
endfacet
facet normal 0.0000 0.7500 0.0000
    outer loop
        vertex 12.0000 0.0000 9.6000
        vertex 12.0000 0.0000 -9.6000
        vertex -12.0000 0.0000 -9.6000
    endloop
endfacet
facet normal 0.0000 0.7500 0.0000
    outer loop
        vertex -12.0000 0.0000 -9.6000
        vertex -12.0000 0.0000 9.6000
        vertex 12.0000 0.0000 9.6000
    endloop
endfacet
facet normal 0.0000 -0.2500 48.0000
    outer loop
        vertex -12.0000 -0.1000 9.6000
        vertex 12.0000 -0.1000 9.6000
        vertex 12.0000 0.0000 9.6000
    endloop
endfacet
facet normal 0.0000 -0.2500 48.0000
    outer loop
        vertex 12.0000 0.0000 9.6000
        vertex -12.0000 0.0000 9.6000
        vertex -12.0000 -0.1000 9.6000
    endloop
endfacet
facet normal -60.0000 -0.2500 0.0000
    outer loop
        vertex -12.0000 -0.1000 -9.6000
        vertex -12.0000 -0.1000 9.6000
        vertex -12.0000 0.0000 9.6000
    endloop
endfacet
facet normal -60.0000 -0.2500 0.0000
    outer loop
        vertex -12.0000 0.0000 9.6000
        vertex -12.0000 0.0000 -9.6000
        vertex -12.0000 -0.1000 -9.6000
    endloop
endfacet
facet normal 0.0000 -0.2500 -48.0000
    outer loop
        vertex 12.0000 -0.1000 -9.6000
        vertex -12.0000 -0.1000 -9.6000
        vertex -12.0000 0.0000 -9.6000
    endloop
endfacet
facet normal 0.0000 -0.2500 -48.0000
    outer loop
        vertex -12.0000 0.0000 -9.6000
        vertex 12.0000 0.0000 -9.6000
        vertex 12.0000 -0.1000 -9.6000
    endloop
endfacet
facet normal 60.0000 -0.2500 0.0000
    outer loop
        vertex 12.0000 -0.1000 9.6000
        vertex 12.0000 -0.1000 -9.6000
        vertex 12.0000 0.0000 -9.6000
    endloop
endfacet
facet normal 60.0000 -0.2500 0.0000
    outer loop
        vertex 12.0000 0.0000 -9.6000
        vertex 12.0000 0.0000 9.6000
        vertex 12.0000 -0.1000 9.6000
    endloop
endfacet
endsolid GiantLegoRocks
