solid GiantLegoRocks
facet normal 0.0000 960.0000 0.0000
    outer loop
        vertex -4.0000 -0.1000 -9.6000
        vertex -12.0000 -0.1000 -9.6000
        vertex -12.0000 -0.1000 9.6000
    endloop
endfacet
facet normal 0.0000 960.0000 0.0000
    outer loop
        vertex -12.0000 -0.1000 9.6000
        vertex -4.0000 -0.1000 9.6000
        vertex -4.0000 -0.1000 -9.6000
    endloop
endfacet
facet normal 0.0000 960.0000 0.0000
    outer loop
        vertex -4.0000 -0.1000 9.6000
        vertex 4.0000 -0.1000 9.6000
        vertex 4.0000 -0.1000 -9.6000
    endloop
endfacet
facet normal 0.0000 960.0000 0.0000
    outer loop
        vertex 4.0000 -0.1000 -9.6000
        vertex -4.0000 -0.1000 -9.6000
        vertex -4.0000 -0.1000 9.6000
    endloop
endfacet
facet normal 0.0000 960.0000 0.0000
    outer loop
        vertex 4.0000 -0.1000 9.6000
        vertex 12.0000 -0.1000 9.6000
        vertex 12.0000 -0.1000 -9.6000
    endloop
endfacet
facet normal 0.0000 960.0000 0.0000
    outer loop
        vertex 12.0000 -0.1000 -9.6000
        vertex 4.0000 -0.1000 -9.6000
        vertex 4.0000 -0.1000 9.6000
    endloop
endfacet
facet normal 0.0000 0.7500 0.0000
    outer loop
        vertex 12.0000 0.0000 9.6000
        vertex 12.0000 0.0000 -9.6000
        vertex -12.0000 0.0000 -9.6000
    endloop
endfacet
facet normal 0.0000 0.7500 0.0000
    outer loop
        vertex -12.0000 0.0000 -9.6000
        vertex -12.0000 0.0000 9.6000
        vertex 12.0000 0.0000 9.6000
    endloop
endfacet
facet normal 0.0000 -0.2500 48.0000
    outer loop
        vertex -12.0000 -0.1000 9.6000
        vertex 12.0000 -0.1000 9.6000
        vertex 12.0000 0.0000 9.6000
    endloop
endfacet
facet normal 0.0000 -0.2500 48.0000
    outer loop
        vertex 12.0000 0.0000 9.6000
        vertex -12.0000 0.0000 9.6000
        vertex -12.0000 -0.1000 9.6000
    endloop
endfacet
facet normal -60.0000 -0.2500 0.0000
    outer loop
        vertex -12.0000 -0.1000 -9.6000
        vertex -12.0000 -0.1000 9.6000
        vertex -12.0000 0.0000 9.6000
    endloop
endfacet
facet normal -60.0000 -0.2500 0.0000
    outer loop
        vertex -12.0000 0.0000 9.6000
        vertex -12.0000 0.0000 -9.6000
        vertex -12.0000 -0.1000 -9.6000
    endloop
endfacet
facet normal 0.0000 -0.2500 -48.0000
    outer loop
        vertex 12.0000 -0.1000 -9.6000
        vertex -12.0000 -0.1000 -9.6000
        vertex -12.0000 0.0000 -9.6000
    endloop
endfacet
facet normal 0.0000 -0.2500 -48.0000
    outer loop
        vertex -12.0000 0.0000 -9.6000
        vertex 12.0000 0.0000 -9.6000
        vertex 12.0000 -0.1000 -9.6000
    endloop
endfacet
facet normal 60.0000 -0.2500 0.0000
    outer loop
        vertex 12.0000 -0.1000 9.6000
        vertex 12.0000 -0.1000 -9.6000
        vertex 12.0000 0.0000 -9.6000
    endloop
endfacet
facet normal 60.0000 -0.2500 0.0000
    outer loop
        vertex 12.0000 0.0000 -9.6000
        vertex 12.0000 0.0000 9.6000
        vertex 12.0000 -0.1000 9.6000
    endloop
endfacet
endsolid GiantLegoRocks
