solid GiantLegoRocks
facet normal 0.0000 0.7500 0.0000
    outer loop
        vertex 15.6000 0.0000 9.2000
        vertex 15.6000 0.0000 -9.2000
        vertex -15.6000 0.0000 -9.2000
    endloop
endfacet
facet normal 0.0000 0.7500 0.0000
    outer loop
        vertex -15.6000 0.0000 -9.2000
        vertex -15.6000 0.0000 9.2000
        vertex 15.6000 0.0000 9.2000
    endloop
endfacet
facet normal 0.0000 -0.2500 46.0000
    outer loop
        vertex -15.6000 -0.1000 9.2000
        vertex 15.6000 -0.1000 9.2000
        vertex 15.6000 0.0000 9.2000
    endloop
endfacet
facet normal 0.0000 -0.2500 46.0000
    outer loop
        vertex 15.6000 0.0000 9.2000
        vertex -15.6000 0.0000 9.2000
        vertex -15.6000 -0.1000 9.2000
    endloop
endfacet
facet normal -78.0000 -0.2500 0.0000
    outer loop
        vertex -15.6000 -0.1000 -9.2000
        vertex -15.6000 -0.1000 9.2000
        vertex -15.6000 0.0000 9.2000
    endloop
endfacet
facet normal -78.0000 -0.2500 0.0000
    outer loop
        vertex -15.6000 0.0000 9.2000
        vertex -15.6000 0.0000 -9.2000
        vertex -15.6000 -0.1000 -9.2000
    endloop
endfacet
facet normal 0.0000 -0.2500 -46.0000
    outer loop
        vertex 15.6000 -0.1000 -9.2000
        vertex -15.6000 -0.1000 -9.2000
        vertex -15.6000 0.0000 -9.2000
    endloop
endfacet
facet normal 0.0000 -0.2500 -46.0000
    outer loop
        vertex -15.6000 0.0000 -9.2000
        vertex 15.6000 0.0000 -9.2000
        vertex 15.6000 -0.1000 -9.2000
    endloop
endfacet
facet normal 78.0000 -0.2500 0.0000
    outer loop
        vertex 15.6000 -0.1000 9.2000
        vertex 15.6000 -0.1000 -9.2000
        vertex 15.6000 0.0000 -9.2000
    endloop
endfacet
facet normal 78.0000 -0.2500 0.0000
    outer loop
        vertex 15.6000 0.0000 -9.2000
        vertex 15.6000 0.0000 9.2000
        vertex 15.6000 -0.1000 9.2000
    endloop
endfacet
facet normal 0.0000 -37.0000 0.0000
    outer loop
        vertex -1.4800 -0.1000 3.8800
        vertex 0.0000 -0.1000 4.0000
        vertex 0.0000 -0.1000 8.0000
    endloop
endfacet
facet normal 0.0000 -56.9400 0.0000
    outer loop
        vertex 0.0000 -0.1000 8.0000
        vertex -2.2400 -0.1000 7.9200
        vertex -1.4800 -0.1000 3.8800
    endloop
endfacet
facet normal 0.0000 -9.6600 0.0000
    outer loop
        vertex -1.8400 -0.1000 3.7600
        vertex -1.4800 -0.1000 3.8800
        vertex -2.2400 -0.1000 7.9200
    endloop
endfacet
facet normal 0.0000 -64.5400 0.0000
    outer loop
        vertex -2.2400 -0.1000 7.9200
        vertex -4.6800 -0.1000 7.4800
        vertex -1.8400 -0.1000 3.7600
    endloop
endfacet
facet normal 0.0000 -9.4000 0.0000
    outer loop
        vertex -2.0000 -0.1000 3.4400
        vertex -1.8400 -0.1000 3.7600
        vertex -4.6800 -0.1000 7.4800
    endloop
endfacet
facet normal 0.0000 -118.4300 0.0000
    outer loop
        vertex -4.6800 -0.1000 7.4800
        vertex -6.0800 -0.1000 2.5200
        vertex -2.0000 -0.1000 3.4400
    endloop
endfacet
facet normal 0.0000 -10.9700 0.0000
    outer loop
        vertex -6.4000 -0.1000 2.6400
        vertex -6.0800 -0.1000 2.5200
        vertex -4.6800 -0.1000 7.4800
    endloop
endfacet
facet normal 0.0000 -73.2500 0.0000
    outer loop
        vertex -4.6800 -0.1000 7.4800
        vertex -7.4000 -0.1000 6.6400
        vertex -6.4000 -0.1000 2.6400
    endloop
endfacet
facet normal 0.0000 -9.5000 0.0000
    outer loop
        vertex -6.7600 -0.1000 2.5600
        vertex -6.4000 -0.1000 2.6400
        vertex -7.4000 -0.1000 6.6400
    endloop
endfacet
facet normal 0.0000 -74.7400 0.0000
    outer loop
        vertex -7.4000 -0.1000 6.6400
        vertex -10.0800 -0.1000 5.0400
        vertex -6.7600 -0.1000 2.5600
    endloop
endfacet
facet normal 0.0000 -42.0400 0.0000
    outer loop
        vertex -8.0800 -0.1000 1.5200
        vertex -6.7600 -0.1000 2.5600
        vertex -10.0800 -0.1000 5.0400
    endloop
endfacet
facet normal 0.0000 -65.6200 0.0000
    outer loop
        vertex -10.0800 -0.1000 5.0400
        vertex -12.0400 -0.1000 3.2400
        vertex -8.0800 -0.1000 1.5200
    endloop
endfacet
facet normal 0.0000 -35.6300 0.0000
    outer loop
        vertex -9.0000 -0.1000 0.4800
        vertex -8.0800 -0.1000 1.5200
        vertex -12.0400 -0.1000 3.2400
    endloop
endfacet
facet normal 0.0000 -55.0400 0.0000
    outer loop
        vertex -12.0400 -0.1000 3.2400
        vertex -13.1600 -0.1000 1.3600
        vertex -9.0000 -0.1000 0.4800
    endloop
endfacet
facet normal 0.0000 -31.1600 0.0000
    outer loop
        vertex -9.5600 -0.1000 -0.6000
        vertex -9.0000 -0.1000 0.4800
        vertex -13.1600 -0.1000 1.3600
    endloop
endfacet
facet normal 0.0000 -47.3600 0.0000
    outer loop
        vertex -13.1600 -0.1000 1.3600
        vertex -13.7200 -0.1000 -0.4400
        vertex -9.5600 -0.1000 -0.6000
    endloop
endfacet
facet normal 0.0000 -29.2800 0.0000
    outer loop
        vertex -9.7200 -0.1000 -1.7200
        vertex -9.5600 -0.1000 -0.6000
        vertex -13.7200 -0.1000 -0.4400
    endloop
endfacet
facet normal 0.0000 -42.9600 0.0000
    outer loop
        vertex -13.7200 -0.1000 -0.4400
        vertex -13.8400 -0.1000 -2.1200
        vertex -9.7200 -0.1000 -1.7200
    endloop
endfacet
facet normal 0.0000 -24.0900 0.0000
    outer loop
        vertex -9.5600 -0.1000 -2.6400
        vertex -9.7200 -0.1000 -1.7200
        vertex -13.8400 -0.1000 -2.1200
    endloop
endfacet
facet normal 0.0000 -47.5000 0.0000
    outer loop
        vertex -13.8400 -0.1000 -2.1200
        vertex -13.6400 -0.1000 -3.9200
        vertex -9.5600 -0.1000 -2.6400
    endloop
endfacet
facet normal 0.0000 -22.8400 0.0000
    outer loop
        vertex -9.0000 -0.1000 -3.3600
        vertex -9.5600 -0.1000 -2.6400
        vertex -13.6400 -0.1000 -3.9200
    endloop
endfacet
facet normal 0.0000 -49.2000 0.0000
    outer loop
        vertex -13.6400 -0.1000 -3.9200
        vertex -12.8400 -0.1000 -5.5200
        vertex -9.0000 -0.1000 -3.3600
    endloop
endfacet
facet normal 0.0000 -28.3200 0.0000
    outer loop
        vertex -8.0400 -0.1000 -4.0000
        vertex -9.0000 -0.1000 -3.3600
        vertex -12.8400 -0.1000 -5.5200
    endloop
endfacet
facet normal 0.0000 -68.7000 0.0000
    outer loop
        vertex -12.8400 -0.1000 -5.5200
        vertex -11.0400 -0.1000 -7.2400
        vertex -8.0400 -0.1000 -4.0000
    endloop
endfacet
facet normal 0.0000 -24.8100 0.0000
    outer loop
        vertex -7.0000 -0.1000 -4.2000
        vertex -8.0400 -0.1000 -4.0000
        vertex -11.0400 -0.1000 -7.2400
    endloop
endfacet
facet normal 0.0000 -63.2600 0.0000
    outer loop
        vertex -11.0400 -0.1000 -7.2400
        vertex -8.8800 -0.1000 -8.1200
        vertex -7.0000 -0.1000 -4.2000
    endloop
endfacet
facet normal 0.0000 -62.6400 0.0000
    outer loop
        vertex -7.0000 -0.1000 -4.2000
        vertex -8.8800 -0.1000 -8.1200
        vertex -6.4000 -0.1000 -8.2800
    endloop
endfacet
facet normal 0.0000 -38.6400 0.0000
    outer loop
        vertex -6.4000 -0.1000 -8.2800
        vertex -5.5200 -0.1000 -3.9600
        vertex -7.0000 -0.1000 -4.2000
    endloop
endfacet
facet normal 0.0000 -67.9800 0.0000
    outer loop
        vertex -5.5200 -0.1000 -3.9600
        vertex -6.4000 -0.1000 -8.2800
        vertex -3.7600 -0.1000 -7.6800
    endloop
endfacet
facet normal 0.0000 -41.4500 0.0000
    outer loop
        vertex -3.7600 -0.1000 -7.6800
        vertex -4.0400 -0.1000 -3.3200
        vertex -5.5200 -0.1000 -3.9600
    endloop
endfacet
facet normal 0.0000 -76.3600 0.0000
    outer loop
        vertex -4.0400 -0.1000 -3.3200
        vertex -3.7600 -0.1000 -7.6800
        vertex -1.0400 -0.1000 -6.4000
    endloop
endfacet
facet normal 0.0000 -22.8400 0.0000
    outer loop
        vertex -1.0400 -0.1000 -6.4000
        vertex -3.3600 -0.1000 -2.8000
        vertex -4.0400 -0.1000 -3.3200
    endloop
endfacet
facet normal 0.0000 -24.6400 0.0000
    outer loop
        vertex -3.3600 -0.1000 -2.8000
        vertex -1.0400 -0.1000 -6.4000
        vertex -0.2800 -0.1000 -5.8800
    endloop
endfacet
facet normal 0.0000 -8.4700 0.0000
    outer loop
        vertex -0.2800 -0.1000 -5.8800
        vertex -3.2400 -0.1000 -2.4800
        vertex -3.3600 -0.1000 -2.8000
    endloop
endfacet
facet normal 0.0000 -8.1700 0.0000
    outer loop
        vertex -3.2400 -0.1000 -2.4800
        vertex -0.2800 -0.1000 -5.8800
        vertex 0.0000 -0.1000 -5.7600
    endloop
endfacet
facet normal 0.0000 -123.1200 0.0000
    outer loop
        vertex 0.0000 -0.1000 -5.7600
        vertex 0.0000 -0.1000 0.3200
        vertex -3.2400 -0.1000 -2.4800
    endloop
endfacet
facet normal 0.0000 -8.1400 0.0000
    outer loop
        vertex -3.2400 -0.1000 -2.4800
        vertex 0.0000 -0.1000 0.3200
        vertex -0.2800 -0.1000 0.4800
    endloop
endfacet
facet normal 0.0000 -74.7400 0.0000
    outer loop
        vertex -0.2800 -0.1000 0.4800
        vertex -4.8800 -0.1000 -0.0800
        vertex -3.2400 -0.1000 -2.4800
    endloop
endfacet
facet normal 0.0000 -91.1200 0.0000
    outer loop
        vertex -4.8800 -0.1000 -0.0800
        vertex -0.2800 -0.1000 0.4800
        vertex -2.0000 -0.1000 3.4400
    endloop
endfacet
facet normal 0.0000 -73.2000 0.0000
    outer loop
        vertex -2.0000 -0.1000 3.4400
        vertex -6.0800 -0.1000 2.5200
        vertex -4.8800 -0.1000 -0.0800
    endloop
endfacet
facet normal 0.0000 -37.0000 0.0000
    outer loop
        vertex 0.0000 -0.1000 8.0000
        vertex 0.0000 -0.1000 4.0000
        vertex 1.4800 -0.1000 3.8800
    endloop
endfacet
facet normal 0.0000 -56.9400 0.0000
    outer loop
        vertex 1.4800 -0.1000 3.8800
        vertex 2.2400 -0.1000 7.9200
        vertex 0.0000 -0.1000 8.0000
    endloop
endfacet
facet normal 0.0000 -9.6600 0.0000
    outer loop
        vertex 2.2400 -0.1000 7.9200
        vertex 1.4800 -0.1000 3.8800
        vertex 1.8400 -0.1000 3.7600
    endloop
endfacet
facet normal 0.0000 -64.5400 0.0000
    outer loop
        vertex 1.8400 -0.1000 3.7600
        vertex 4.6800 -0.1000 7.4800
        vertex 2.2400 -0.1000 7.9200
    endloop
endfacet
facet normal 0.0000 -9.4000 0.0000
    outer loop
        vertex 4.6800 -0.1000 7.4800
        vertex 1.8400 -0.1000 3.7600
        vertex 2.0000 -0.1000 3.4400
    endloop
endfacet
facet normal 0.0000 -118.4300 0.0000
    outer loop
        vertex 2.0000 -0.1000 3.4400
        vertex 6.0800 -0.1000 2.5200
        vertex 4.6800 -0.1000 7.4800
    endloop
endfacet
facet normal 0.0000 -10.9700 0.0000
    outer loop
        vertex 4.6800 -0.1000 7.4800
        vertex 6.0800 -0.1000 2.5200
        vertex 6.4000 -0.1000 2.6400
    endloop
endfacet
facet normal 0.0000 -73.2500 0.0000
    outer loop
        vertex 6.4000 -0.1000 2.6400
        vertex 7.4000 -0.1000 6.6400
        vertex 4.6800 -0.1000 7.4800
    endloop
endfacet
facet normal 0.0000 -9.5000 0.0000
    outer loop
        vertex 7.4000 -0.1000 6.6400
        vertex 6.4000 -0.1000 2.6400
        vertex 6.7600 -0.1000 2.5600
    endloop
endfacet
facet normal 0.0000 -74.7400 0.0000
    outer loop
        vertex 6.7600 -0.1000 2.5600
        vertex 10.0800 -0.1000 5.0400
        vertex 7.4000 -0.1000 6.6400
    endloop
endfacet
facet normal 0.0000 -42.0400 0.0000
    outer loop
        vertex 10.0800 -0.1000 5.0400
        vertex 6.7600 -0.1000 2.5600
        vertex 8.0800 -0.1000 1.5200
    endloop
endfacet
facet normal 0.0000 -65.6200 0.0000
    outer loop
        vertex 8.0800 -0.1000 1.5200
        vertex 12.0400 -0.1000 3.2400
        vertex 10.0800 -0.1000 5.0400
    endloop
endfacet
facet normal 0.0000 -35.6300 0.0000
    outer loop
        vertex 12.0400 -0.1000 3.2400
        vertex 8.0800 -0.1000 1.5200
        vertex 9.0000 -0.1000 0.4800
    endloop
endfacet
facet normal 0.0000 -55.0400 0.0000
    outer loop
        vertex 9.0000 -0.1000 0.4800
        vertex 13.1600 -0.1000 1.3600
        vertex 12.0400 -0.1000 3.2400
    endloop
endfacet
facet normal 0.0000 -31.1600 0.0000
    outer loop
        vertex 13.1600 -0.1000 1.3600
        vertex 9.0000 -0.1000 0.4800
        vertex 9.5600 -0.1000 -0.6000
    endloop
endfacet
facet normal 0.0000 -47.3600 0.0000
    outer loop
        vertex 9.5600 -0.1000 -0.6000
        vertex 13.7200 -0.1000 -0.4400
        vertex 13.1600 -0.1000 1.3600
    endloop
endfacet
facet normal 0.0000 -29.2800 0.0000
    outer loop
        vertex 13.7200 -0.1000 -0.4400
        vertex 9.5600 -0.1000 -0.6000
        vertex 9.7200 -0.1000 -1.7200
    endloop
endfacet
facet normal 0.0000 -42.9600 0.0000
    outer loop
        vertex 9.7200 -0.1000 -1.7200
        vertex 13.8400 -0.1000 -2.1200
        vertex 13.7200 -0.1000 -0.4400
    endloop
endfacet
facet normal 0.0000 -24.0900 0.0000
    outer loop
        vertex 13.8400 -0.1000 -2.1200
        vertex 9.7200 -0.1000 -1.7200
        vertex 9.5600 -0.1000 -2.6400
    endloop
endfacet
facet normal 0.0000 -47.5000 0.0000
    outer loop
        vertex 9.5600 -0.1000 -2.6400
        vertex 13.6400 -0.1000 -3.9200
        vertex 13.8400 -0.1000 -2.1200
    endloop
endfacet
facet normal 0.0000 -22.8400 0.0000
    outer loop
        vertex 13.6400 -0.1000 -3.9200
        vertex 9.5600 -0.1000 -2.6400
        vertex 9.0000 -0.1000 -3.3600
    endloop
endfacet
facet normal 0.0000 -49.2000 0.0000
    outer loop
        vertex 9.0000 -0.1000 -3.3600
        vertex 12.8400 -0.1000 -5.5200
        vertex 13.6400 -0.1000 -3.9200
    endloop
endfacet
facet normal 0.0000 -28.3200 0.0000
    outer loop
        vertex 12.8400 -0.1000 -5.5200
        vertex 9.0000 -0.1000 -3.3600
        vertex 8.0400 -0.1000 -4.0000
    endloop
endfacet
facet normal 0.0000 -68.7000 0.0000
    outer loop
        vertex 8.0400 -0.1000 -4.0000
        vertex 11.0400 -0.1000 -7.2400
        vertex 12.8400 -0.1000 -5.5200
    endloop
endfacet
facet normal 0.0000 -24.8100 0.0000
    outer loop
        vertex 11.0400 -0.1000 -7.2400
        vertex 8.0400 -0.1000 -4.0000
        vertex 7.0000 -0.1000 -4.2000
    endloop
endfacet
facet normal 0.0000 -63.2600 0.0000
    outer loop
        vertex 7.0000 -0.1000 -4.2000
        vertex 8.8800 -0.1000 -8.1200
        vertex 11.0400 -0.1000 -7.2400
    endloop
endfacet
facet normal 0.0000 -62.6400 0.0000
    outer loop
        vertex 6.4000 -0.1000 -8.2800
        vertex 8.8800 -0.1000 -8.1200
        vertex 7.0000 -0.1000 -4.2000
    endloop
endfacet
facet normal 0.0000 -38.6400 0.0000
    outer loop
        vertex 7.0000 -0.1000 -4.2000
        vertex 5.5200 -0.1000 -3.9600
        vertex 6.4000 -0.1000 -8.2800
    endloop
endfacet
facet normal 0.0000 -67.9800 0.0000
    outer loop
        vertex 3.7600 -0.1000 -7.6800
        vertex 6.4000 -0.1000 -8.2800
        vertex 5.5200 -0.1000 -3.9600
    endloop
endfacet
facet normal 0.0000 -41.4500 0.0000
    outer loop
        vertex 5.5200 -0.1000 -3.9600
        vertex 4.0400 -0.1000 -3.3200
        vertex 3.7600 -0.1000 -7.6800
    endloop
endfacet
facet normal 0.0000 -76.3600 0.0000
    outer loop
        vertex 1.0400 -0.1000 -6.4000
        vertex 3.7600 -0.1000 -7.6800
        vertex 4.0400 -0.1000 -3.3200
    endloop
endfacet
facet normal 0.0000 -22.8400 0.0000
    outer loop
        vertex 4.0400 -0.1000 -3.3200
        vertex 3.3600 -0.1000 -2.8000
        vertex 1.0400 -0.1000 -6.4000
    endloop
endfacet
facet normal 0.0000 -24.6400 0.0000
    outer loop
        vertex 0.2800 -0.1000 -5.8800
        vertex 1.0400 -0.1000 -6.4000
        vertex 3.3600 -0.1000 -2.8000
    endloop
endfacet
facet normal 0.0000 -8.4700 0.0000
    outer loop
        vertex 3.3600 -0.1000 -2.8000
        vertex 3.2400 -0.1000 -2.4800
        vertex 0.2800 -0.1000 -5.8800
    endloop
endfacet
facet normal 0.0000 -8.1700 0.0000
    outer loop
        vertex 0.0000 -0.1000 -5.7600
        vertex 0.2800 -0.1000 -5.8800
        vertex 3.2400 -0.1000 -2.4800
    endloop
endfacet
facet normal 0.0000 -123.1200 0.0000
    outer loop
        vertex 3.2400 -0.1000 -2.4800
        vertex 0.0000 -0.1000 0.3200
        vertex 0.0000 -0.1000 -5.7600
    endloop
endfacet
facet normal 0.0000 -8.1400 0.0000
    outer loop
        vertex 0.2800 -0.1000 0.4800
        vertex 0.0000 -0.1000 0.3200
        vertex 3.2400 -0.1000 -2.4800
    endloop
endfacet
facet normal 0.0000 -74.7400 0.0000
    outer loop
        vertex 3.2400 -0.1000 -2.4800
        vertex 4.8800 -0.1000 -0.0800
        vertex 0.2800 -0.1000 0.4800
    endloop
endfacet
facet normal 0.0000 -91.1200 0.0000
    outer loop
        vertex 2.0000 -0.1000 3.4400
        vertex 0.2800 -0.1000 0.4800
        vertex 4.8800 -0.1000 -0.0800
    endloop
endfacet
facet normal 0.0000 -73.2000 0.0000
    outer loop
        vertex 4.8800 -0.1000 -0.0800
        vertex 6.0800 -0.1000 2.5200
        vertex 2.0000 -0.1000 3.4400
    endloop
endfacet
facet normal 0.0000 -234.0000 0.0000
    outer loop
        vertex 0.0000 -0.1000 8.0000
        vertex 15.6000 -0.1000 9.2000
        vertex -15.6000 -0.1000 9.2000
    endloop
endfacet
facet normal 0.0000 -24.6000 0.0000
    outer loop
        vertex -15.6000 -0.1000 9.2000
        vertex -2.2400 -0.1000 7.9200
        vertex 0.0000 -0.1000 8.0000
    endloop
endfacet
facet normal 0.0000 -56.2600 0.0000
    outer loop
        vertex -15.6000 -0.1000 9.2000
        vertex -4.6800 -0.1000 7.4800
        vertex -2.2400 -0.1000 7.9200
    endloop
endfacet
facet normal 0.0000 -86.5700 0.0000
    outer loop
        vertex -15.6000 -0.1000 9.2000
        vertex -7.4000 -0.1000 6.6400
        vertex -4.6800 -0.1000 7.4800
    endloop
endfacet
facet normal 0.0000 -124.8800 0.0000
    outer loop
        vertex -15.6000 -0.1000 9.2000
        vertex -10.0800 -0.1000 5.0400
        vertex -7.4000 -0.1000 6.6400
    endloop
endfacet
facet normal 0.0000 -113.0600 0.0000
    outer loop
        vertex -15.6000 -0.1000 9.2000
        vertex -12.0400 -0.1000 3.2400
        vertex -10.0800 -0.1000 5.0400
    endloop
endfacet
facet normal 0.0000 -83.5500 0.0000
    outer loop
        vertex -15.6000 -0.1000 9.2000
        vertex -13.1600 -0.1000 1.3600
        vertex -12.0400 -0.1000 3.2400
    endloop
endfacet
facet normal 0.0000 -54.8900 0.0000
    outer loop
        vertex -15.6000 -0.1000 9.2000
        vertex -13.7200 -0.1000 -0.4400
        vertex -13.1600 -0.1000 1.3600
    endloop
endfacet
facet normal 0.0000 -26.9700 0.0000
    outer loop
        vertex -13.8400 -0.1000 -2.1200
        vertex -13.7200 -0.1000 -0.4400
        vertex -15.6000 -0.1000 9.2000
    endloop
endfacet
facet normal 0.0000 -202.4000 0.0000
    outer loop
        vertex -15.6000 -0.1000 9.2000
        vertex -15.6000 -0.1000 -9.2000
        vertex -13.8400 -0.1000 -2.1200
    endloop
endfacet
facet normal 0.0000 -28.6500 0.0000
    outer loop
        vertex -13.8400 -0.1000 -2.1200
        vertex -15.6000 -0.1000 -9.2000
        vertex -13.6400 -0.1000 -3.9200
    endloop
endfacet
facet normal 0.0000 -46.0000 0.0000
    outer loop
        vertex -13.6400 -0.1000 -3.9200
        vertex -15.6000 -0.1000 -9.2000
        vertex -12.8400 -0.1000 -5.5200
    endloop
endfacet
facet normal 0.0000 -71.0700 0.0000
    outer loop
        vertex -12.8400 -0.1000 -5.5200
        vertex -15.6000 -0.1000 -9.2000
        vertex -11.0400 -0.1000 -7.2400
    endloop
endfacet
facet normal 0.0000 -51.5400 0.0000
    outer loop
        vertex -11.0400 -0.1000 -7.2400
        vertex -15.6000 -0.1000 -9.2000
        vertex -8.8800 -0.1000 -8.1200
    endloop
endfacet
facet normal 0.0000 -23.4600 0.0000
    outer loop
        vertex -6.4000 -0.1000 -8.2800
        vertex -8.8800 -0.1000 -8.1200
        vertex -15.6000 -0.1000 -9.2000
    endloop
endfacet
facet normal 0.0000 -89.7000 0.0000
    outer loop
        vertex -15.6000 -0.1000 -9.2000
        vertex 0.0000 -0.1000 -9.2000
        vertex -6.4000 -0.1000 -8.2800
    endloop
endfacet
facet normal 0.0000 -39.1800 0.0000
    outer loop
        vertex -3.7600 -0.1000 -7.6800
        vertex -6.4000 -0.1000 -8.2800
        vertex 0.0000 -0.1000 -9.2000
    endloop
endfacet
facet normal 0.0000 -55.9200 0.0000
    outer loop
        vertex -1.0400 -0.1000 -6.4000
        vertex -3.7600 -0.1000 -7.6800
        vertex 0.0000 -0.1000 -9.2000
    endloop
endfacet
facet normal 0.0000 -16.6800 0.0000
    outer loop
        vertex -0.2800 -0.1000 -5.8800
        vertex -1.0400 -0.1000 -6.4000
        vertex 0.0000 -0.1000 -9.2000
    endloop
endfacet
facet normal 0.0000 -6.0200 0.0000
    outer loop
        vertex 0.0000 -0.1000 -9.2000
        vertex 0.0000 -0.1000 -5.7600
        vertex -0.2800 -0.1000 -5.8800
    endloop
endfacet
facet normal 0.0000 -6.0200 0.0000
    outer loop
        vertex 0.2800 -0.1000 -5.8800
        vertex 0.0000 -0.1000 -5.7600
        vertex 0.0000 -0.1000 -9.2000
    endloop
endfacet
facet normal 0.0000 -16.6800 0.0000
    outer loop
        vertex 0.0000 -0.1000 -9.2000
        vertex 1.0400 -0.1000 -6.4000
        vertex 0.2800 -0.1000 -5.8800
    endloop
endfacet
facet normal 0.0000 -55.9200 0.0000
    outer loop
        vertex 1.0400 -0.1000 -6.4000
        vertex 0.0000 -0.1000 -9.2000
        vertex 3.7600 -0.1000 -7.6800
    endloop
endfacet
facet normal 0.0000 -39.1800 0.0000
    outer loop
        vertex 3.7600 -0.1000 -7.6800
        vertex 0.0000 -0.1000 -9.2000
        vertex 6.4000 -0.1000 -8.2800
    endloop
endfacet
facet normal 0.0000 -89.7000 0.0000
    outer loop
        vertex 6.4000 -0.1000 -8.2800
        vertex 0.0000 -0.1000 -9.2000
        vertex 15.6000 -0.1000 -9.2000
    endloop
endfacet
facet normal 0.0000 -23.4600 0.0000
    outer loop
        vertex 15.6000 -0.1000 -9.2000
        vertex 8.8800 -0.1000 -8.1200
        vertex 6.4000 -0.1000 -8.2800
    endloop
endfacet
facet normal 0.0000 -51.5400 0.0000
    outer loop
        vertex 11.0400 -0.1000 -7.2400
        vertex 8.8800 -0.1000 -8.1200
        vertex 15.6000 -0.1000 -9.2000
    endloop
endfacet
facet normal 0.0000 -71.0700 0.0000
    outer loop
        vertex 12.8400 -0.1000 -5.5200
        vertex 11.0400 -0.1000 -7.2400
        vertex 15.6000 -0.1000 -9.2000
    endloop
endfacet
facet normal 0.0000 -46.0000 0.0000
    outer loop
        vertex 13.6400 -0.1000 -3.9200
        vertex 12.8400 -0.1000 -5.5200
        vertex 15.6000 -0.1000 -9.2000
    endloop
endfacet
facet normal 0.0000 -28.6500 0.0000
    outer loop
        vertex 13.8400 -0.1000 -2.1200
        vertex 13.6400 -0.1000 -3.9200
        vertex 15.6000 -0.1000 -9.2000
    endloop
endfacet
facet normal 0.0000 -202.4000 0.0000
    outer loop
        vertex 15.6000 -0.1000 -9.2000
        vertex 15.6000 -0.1000 9.2000
        vertex 13.8400 -0.1000 -2.1200
    endloop
endfacet
facet normal 0.0000 -26.9700 0.0000
    outer loop
        vertex 15.6000 -0.1000 9.2000
        vertex 13.7200 -0.1000 -0.4400
        vertex 13.8400 -0.1000 -2.1200
    endloop
endfacet
facet normal 0.0000 -54.8900 0.0000
    outer loop
        vertex 15.6000 -0.1000 9.2000
        vertex 13.1600 -0.1000 1.3600
        vertex 13.7200 -0.1000 -0.4400
    endloop
endfacet
facet normal 0.0000 -83.5500 0.0000
    outer loop
        vertex 15.6000 -0.1000 9.2000
        vertex 12.0400 -0.1000 3.2400
        vertex 13.1600 -0.1000 1.3600
    endloop
endfacet
facet normal 0.0000 -113.0600 0.0000
    outer loop
        vertex 15.6000 -0.1000 9.2000
        vertex 10.0800 -0.1000 5.0400
        vertex 12.0400 -0.1000 3.2400
    endloop
endfacet
facet normal 0.0000 -124.8800 0.0000
    outer loop
        vertex 15.6000 -0.1000 9.2000
        vertex 7.4000 -0.1000 6.6400
        vertex 10.0800 -0.1000 5.0400
    endloop
endfacet
facet normal 0.0000 -86.5700 0.0000
    outer loop
        vertex 15.6000 -0.1000 9.2000
        vertex 4.6800 -0.1000 7.4800
        vertex 7.4000 -0.1000 6.6400
    endloop
endfacet
facet normal 0.0000 -56.2600 0.0000
    outer loop
        vertex 15.6000 -0.1000 9.2000
        vertex 2.2400 -0.1000 7.9200
        vertex 4.6800 -0.1000 7.4800
    endloop
endfacet
facet normal 0.0000 -24.6000 0.0000
    outer loop
        vertex 15.6000 -0.1000 9.2000
        vertex 0.0000 -0.1000 8.0000
        vertex 2.2400 -0.1000 7.9200
    endloop
endfacet
facet normal 0.0000 -2.2200 0.0000
    outer loop
        vertex 1.4800 -0.1000 3.8800
        vertex 0.0000 -0.1000 4.0000
        vertex -1.4800 -0.1000 3.8800
    endloop
endfacet
facet normal 0.0000 -2.2200 0.0000
    outer loop
        vertex -1.4800 -0.1000 3.8800
        vertex -1.8400 -0.1000 3.7600
        vertex 1.4800 -0.1000 3.8800
    endloop
endfacet
facet normal 0.0000 -2.7600 0.0000
    outer loop
        vertex 1.8400 -0.1000 3.7600
        vertex 1.4800 -0.1000 3.8800
        vertex -1.8400 -0.1000 3.7600
    endloop
endfacet
facet normal 0.0000 -7.3600 0.0000
    outer loop
        vertex -1.8400 -0.1000 3.7600
        vertex -2.0000 -0.1000 3.4400
        vertex 1.8400 -0.1000 3.7600
    endloop
endfacet
facet normal 0.0000 -8.0000 0.0000
    outer loop
        vertex 2.0000 -0.1000 3.4400
        vertex 1.8400 -0.1000 3.7600
        vertex -2.0000 -0.1000 3.4400
    endloop
endfacet
facet normal 0.0000 -74.0000 0.0000
    outer loop
        vertex -2.0000 -0.1000 3.4400
        vertex -0.2800 -0.1000 0.4800
        vertex 2.0000 -0.1000 3.4400
    endloop
endfacet
facet normal 0.0000 -10.3600 0.0000
    outer loop
        vertex 0.2800 -0.1000 0.4800
        vertex 2.0000 -0.1000 3.4400
        vertex -0.2800 -0.1000 0.4800
    endloop
endfacet
facet normal 0.0000 -0.5600 0.0000
    outer loop
        vertex -0.2800 -0.1000 0.4800
        vertex 0.0000 -0.1000 0.3200
        vertex 0.2800 -0.1000 0.4800
    endloop
endfacet
facet normal 0.0000 -0.4300 0.0000
    outer loop
        vertex -6.0800 -0.1000 2.5200
        vertex -6.4000 -0.1000 2.6400
        vertex -6.7600 -0.1000 2.5600
    endloop
endfacet
facet normal 0.0000 -4.7500 0.0000
    outer loop
        vertex -6.7600 -0.1000 2.5600
        vertex -8.0800 -0.1000 1.5200
        vertex -6.0800 -0.1000 2.5200
    endloop
endfacet
facet normal 0.0000 -40.0000 0.0000
    outer loop
        vertex -4.8800 -0.1000 -0.0800
        vertex -6.0800 -0.1000 2.5200
        vertex -8.0800 -0.1000 1.5200
    endloop
endfacet
facet normal 0.0000 -30.0000 0.0000
    outer loop
        vertex -8.0800 -0.1000 1.5200
        vertex -9.0000 -0.1000 0.4800
        vertex -4.8800 -0.1000 -0.0800
    endloop
endfacet
facet normal 0.0000 -56.0600 0.0000
    outer loop
        vertex -3.2400 -0.1000 -2.4800
        vertex -4.8800 -0.1000 -0.0800
        vertex -9.0000 -0.1000 0.4800
    endloop
endfacet
facet normal 0.0000 -49.2400 0.0000
    outer loop
        vertex -9.0000 -0.1000 0.4800
        vertex -9.5600 -0.1000 -0.6000
        vertex -3.2400 -0.1000 -2.4800
    endloop
endfacet
facet normal 0.0000 -14.0500 0.0000
    outer loop
        vertex -3.3600 -0.1000 -2.8000
        vertex -3.2400 -0.1000 -2.4800
        vertex -9.5600 -0.1000 -0.6000
    endloop
endfacet
facet normal 0.0000 -45.6000 0.0000
    outer loop
        vertex -9.5600 -0.1000 -0.6000
        vertex -9.7200 -0.1000 -1.7200
        vertex -3.3600 -0.1000 -2.8000
    endloop
endfacet
facet normal 0.0000 -25.2600 0.0000
    outer loop
        vertex -4.0400 -0.1000 -3.3200
        vertex -3.3600 -0.1000 -2.8000
        vertex -9.7200 -0.1000 -1.7200
    endloop
endfacet
facet normal 0.0000 -31.0600 0.0000
    outer loop
        vertex -9.7200 -0.1000 -1.7200
        vertex -9.5600 -0.1000 -2.6400
        vertex -4.0400 -0.1000 -3.3200
    endloop
endfacet
facet normal 0.0000 -28.3700 0.0000
    outer loop
        vertex -5.5200 -0.1000 -3.9600
        vertex -4.0400 -0.1000 -3.3200
        vertex -9.5600 -0.1000 -2.6400
    endloop
endfacet
facet normal 0.0000 -13.5600 0.0000
    outer loop
        vertex -9.5600 -0.1000 -2.6400
        vertex -9.0000 -0.1000 -3.3600
        vertex -5.5200 -0.1000 -3.9600
    endloop
endfacet
facet normal 0.0000 -10.7700 0.0000
    outer loop
        vertex -7.0000 -0.1000 -4.2000
        vertex -5.5200 -0.1000 -3.9600
        vertex -9.0000 -0.1000 -3.3600
    endloop
endfacet
facet normal 0.0000 -2.9600 0.0000
    outer loop
        vertex -9.0000 -0.1000 -3.3600
        vertex -8.0400 -0.1000 -4.0000
        vertex -7.0000 -0.1000 -4.2000
    endloop
endfacet
facet normal 0.0000 -0.4300 0.0000
    outer loop
        vertex 6.7600 -0.1000 2.5600
        vertex 6.4000 -0.1000 2.6400
        vertex 6.0800 -0.1000 2.5200
    endloop
endfacet
facet normal 0.0000 -4.7500 0.0000
    outer loop
        vertex 6.0800 -0.1000 2.5200
        vertex 8.0800 -0.1000 1.5200
        vertex 6.7600 -0.1000 2.5600
    endloop
endfacet
facet normal 0.0000 -40.0000 0.0000
    outer loop
        vertex 8.0800 -0.1000 1.5200
        vertex 6.0800 -0.1000 2.5200
        vertex 4.8800 -0.1000 -0.0800
    endloop
endfacet
facet normal 0.0000 -30.0000 0.0000
    outer loop
        vertex 4.8800 -0.1000 -0.0800
        vertex 9.0000 -0.1000 0.4800
        vertex 8.0800 -0.1000 1.5200
    endloop
endfacet
facet normal 0.0000 -56.0600 0.0000
    outer loop
        vertex 9.0000 -0.1000 0.4800
        vertex 4.8800 -0.1000 -0.0800
        vertex 3.2400 -0.1000 -2.4800
    endloop
endfacet
facet normal 0.0000 -49.2400 0.0000
    outer loop
        vertex 3.2400 -0.1000 -2.4800
        vertex 9.5600 -0.1000 -0.6000
        vertex 9.0000 -0.1000 0.4800
    endloop
endfacet
facet normal 0.0000 -14.0500 0.0000
    outer loop
        vertex 9.5600 -0.1000 -0.6000
        vertex 3.2400 -0.1000 -2.4800
        vertex 3.3600 -0.1000 -2.8000
    endloop
endfacet
facet normal 0.0000 -45.6000 0.0000
    outer loop
        vertex 3.3600 -0.1000 -2.8000
        vertex 9.7200 -0.1000 -1.7200
        vertex 9.5600 -0.1000 -0.6000
    endloop
endfacet
facet normal 0.0000 -25.2600 0.0000
    outer loop
        vertex 9.7200 -0.1000 -1.7200
        vertex 3.3600 -0.1000 -2.8000
        vertex 4.0400 -0.1000 -3.3200
    endloop
endfacet
facet normal 0.0000 -31.0600 0.0000
    outer loop
        vertex 4.0400 -0.1000 -3.3200
        vertex 9.5600 -0.1000 -2.6400
        vertex 9.7200 -0.1000 -1.7200
    endloop
endfacet
facet normal 0.0000 -28.3700 0.0000
    outer loop
        vertex 9.5600 -0.1000 -2.6400
        vertex 4.0400 -0.1000 -3.3200
        vertex 5.5200 -0.1000 -3.9600
    endloop
endfacet
facet normal 0.0000 -13.5600 0.0000
    outer loop
        vertex 5.5200 -0.1000 -3.9600
        vertex 9.0000 -0.1000 -3.3600
        vertex 9.5600 -0.1000 -2.6400
    endloop
endfacet
facet normal 0.0000 -10.7700 0.0000
    outer loop
        vertex 9.0000 -0.1000 -3.3600
        vertex 5.5200 -0.1000 -3.9600
        vertex 7.0000 -0.1000 -4.2000
    endloop
endfacet
facet normal 0.0000 -2.9600 0.0000
    outer loop
        vertex 7.0000 -0.1000 -4.2000
        vertex 8.0400 -0.1000 -4.0000
        vertex 9.0000 -0.1000 -3.3600
    endloop
endfacet
endsolid GiantLegoRocks
