solid GiantLegoRocks
facet normal 0.0000 5.0000 0.0000
    outer loop
        vertex 3.4000 0.0000 6.0000
        vertex 4.0000 0.0000 5.9000
        vertex -4.0000 0.0000 5.9000
    endloop
endfacet
facet normal 0.0000 4.2500 0.0000
    outer loop
        vertex -4.0000 0.0000 5.9000
        vertex -3.4000 0.0000 6.0000
        vertex 3.4000 0.0000 6.0000
    endloop
endfacet
facet normal 0.0000 17.2500 0.0000
    outer loop
        vertex 4.0000 0.0000 5.9000
        vertex 4.6000 0.0000 5.6000
        vertex -4.6000 0.0000 5.6000
    endloop
endfacet
facet normal 0.0000 15.0000 0.0000
    outer loop
        vertex -4.6000 0.0000 5.6000
        vertex -4.0000 0.0000 5.9000
        vertex 4.0000 0.0000 5.9000
    endloop
endfacet
facet normal 0.0000 24.0000 0.0000
    outer loop
        vertex 4.6000 0.0000 5.6000
        vertex 4.8000 0.0000 5.2000
        vertex -4.8000 0.0000 5.2000
    endloop
endfacet
facet normal 0.0000 23.0000 0.0000
    outer loop
        vertex -4.8000 0.0000 5.2000
        vertex -4.6000 0.0000 5.6000
        vertex 4.6000 0.0000 5.6000
    endloop
endfacet
facet normal 0.0000 1008.0000 0.0000
    outer loop
        vertex 4.8000 0.0000 5.2000
        vertex 7.2000 0.0000 -6.0000
        vertex -7.2000 0.0000 -6.0000
    endloop
endfacet
facet normal 0.0000 672.0000 0.0000
    outer loop
        vertex -7.2000 0.0000 -6.0000
        vertex -4.8000 0.0000 5.2000
        vertex 4.8000 0.0000 5.2000
    endloop
endfacet
facet normal 0.0000 0.0000 4.2500
    outer loop
        vertex 3.4000 0.0000 6.0000
        vertex -3.4000 0.0000 6.0000
        vertex -3.4000 -0.1000 6.0000
    endloop
endfacet
facet normal 0.0000 0.0000 4.2500
    outer loop
        vertex -3.4000 -0.1000 6.0000
        vertex 3.4000 -0.1000 6.0000
        vertex 3.4000 0.0000 6.0000
    endloop
endfacet
facet normal -0.0625 0.0000 0.3750
    outer loop
        vertex -3.4000 0.0000 6.0000
        vertex -4.0000 0.0000 5.9000
        vertex -4.0000 -0.1000 5.9000
    endloop
endfacet
facet normal -0.0625 0.0000 0.3750
    outer loop
        vertex -4.0000 -0.1000 5.9000
        vertex -3.4000 -0.1000 6.0000
        vertex -3.4000 0.0000 6.0000
    endloop
endfacet
facet normal 0.0625 0.0000 0.3750
    outer loop
        vertex 3.4000 -0.1000 6.0000
        vertex 4.0000 -0.1000 5.9000
        vertex 4.0000 0.0000 5.9000
    endloop
endfacet
facet normal 0.0625 0.0000 0.3750
    outer loop
        vertex 4.0000 0.0000 5.9000
        vertex 3.4000 0.0000 6.0000
        vertex 3.4000 -0.1000 6.0000
    endloop
endfacet
facet normal -0.1875 0.0000 0.3750
    outer loop
        vertex -4.0000 0.0000 5.9000
        vertex -4.6000 0.0000 5.6000
        vertex -4.6000 -0.1000 5.6000
    endloop
endfacet
facet normal -0.1875 0.0000 0.3750
    outer loop
        vertex -4.6000 -0.1000 5.6000
        vertex -4.0000 -0.1000 5.9000
        vertex -4.0000 0.0000 5.9000
    endloop
endfacet
facet normal 0.1875 0.0000 0.3750
    outer loop
        vertex 4.0000 -0.1000 5.9000
        vertex 4.6000 -0.1000 5.6000
        vertex 4.6000 0.0000 5.6000
    endloop
endfacet
facet normal 0.1875 0.0000 0.3750
    outer loop
        vertex 4.6000 0.0000 5.6000
        vertex 4.0000 0.0000 5.9000
        vertex 4.0000 -0.1000 5.9000
    endloop
endfacet
facet normal -0.2500 0.0000 0.1250
    outer loop
        vertex -4.6000 0.0000 5.6000
        vertex -4.8000 0.0000 5.2000
        vertex -4.8000 -0.1000 5.2000
    endloop
endfacet
facet normal -0.2500 0.0000 0.1250
    outer loop
        vertex -4.8000 -0.1000 5.2000
        vertex -4.6000 -0.1000 5.6000
        vertex -4.6000 0.0000 5.6000
    endloop
endfacet
facet normal 0.2500 0.0000 0.1250
    outer loop
        vertex 4.6000 -0.1000 5.6000
        vertex 4.8000 -0.1000 5.2000
        vertex 4.8000 0.0000 5.2000
    endloop
endfacet
facet normal 0.2500 0.0000 0.1250
    outer loop
        vertex 4.8000 0.0000 5.2000
        vertex 4.6000 0.0000 5.6000
        vertex 4.6000 -0.1000 5.6000
    endloop
endfacet
facet normal -7.0000 0.0000 1.5000
    outer loop
        vertex -7.2000 -0.1000 -6.0000
        vertex -4.8000 -0.1000 5.2000
        vertex -4.8000 0.0000 5.2000
    endloop
endfacet
facet normal -7.0000 0.0000 1.5000
    outer loop
        vertex -4.8000 0.0000 5.2000
        vertex -7.2000 0.0000 -6.0000
        vertex -7.2000 -0.1000 -6.0000
    endloop
endfacet
facet normal 7.0000 0.0000 1.5000
    outer loop
        vertex 7.2000 0.0000 -6.0000
        vertex 4.8000 0.0000 5.2000
        vertex 4.8000 -0.1000 5.2000
    endloop
endfacet
facet normal 7.0000 0.0000 1.5000
    outer loop
        vertex 4.8000 -0.1000 5.2000
        vertex 7.2000 -0.1000 -6.0000
        vertex 7.2000 0.0000 -6.0000
    endloop
endfacet
facet normal 0.0000 0.0000 -9.0000
    outer loop
        vertex -7.2000 0.0000 -6.0000
        vertex 7.2000 0.0000 -6.0000
        vertex 7.2000 -0.1000 -6.0000
    endloop
endfacet
facet normal 0.0000 0.0000 -9.0000
    outer loop
        vertex 7.2000 -0.1000 -6.0000
        vertex -7.2000 -0.1000 -6.0000
        vertex -7.2000 0.0000 -6.0000
    endloop
endfacet
facet normal 0.0000 -77.5000 0.0000
    outer loop
        vertex -7.2000 -0.1000 -6.0000
        vertex -1.0000 -0.1000 -3.0000
        vertex -1.0000 -0.1000 -1.0000
    endloop
endfacet
facet normal 0.0000 -62.5000 0.0000
    outer loop
        vertex -1.0000 -0.1000 -1.0000
        vertex -3.0000 -0.1000 -1.0000
        vertex -7.2000 -0.1000 -6.0000
    endloop
endfacet
facet normal 0.0000 -270.0000 0.0000
    outer loop
        vertex -7.2000 -0.1000 -6.0000
        vertex 7.2000 -0.1000 -6.0000
        vertex 1.0000 -0.1000 -3.0000
    endloop
endfacet
facet normal 0.0000 -37.5000 0.0000
    outer loop
        vertex 1.0000 -0.1000 -3.0000
        vertex -1.0000 -0.1000 -3.0000
        vertex -7.2000 -0.1000 -6.0000
    endloop
endfacet
facet normal 0.0000 -62.5000 0.0000
    outer loop
        vertex 7.2000 -0.1000 -6.0000
        vertex 3.0000 -0.1000 -1.0000
        vertex 1.0000 -0.1000 -1.0000
    endloop
endfacet
facet normal 0.0000 -77.5000 0.0000
    outer loop
        vertex 1.0000 -0.1000 -1.0000
        vertex 1.0000 -0.1000 -3.0000
        vertex 7.2000 -0.1000 -6.0000
    endloop
endfacet
facet normal 0.0000 -172.3750 0.0000
    outer loop
        vertex 7.2000 -0.1000 -6.0000
        vertex 4.0000 -0.1000 5.9000
        vertex 3.0000 -0.1000 1.0000
    endloop
endfacet
facet normal 0.0000 -52.5000 0.0000
    outer loop
        vertex 3.0000 -0.1000 1.0000
        vertex 3.0000 -0.1000 -1.0000
        vertex 7.2000 -0.1000 -6.0000
    endloop
endfacet
facet normal 0.0000 -37.5000 0.0000
    outer loop
        vertex 4.0000 -0.1000 5.9000
        vertex 1.0000 -0.1000 3.0000
        vertex 1.0000 -0.1000 1.0000
    endloop
endfacet
facet normal 0.0000 -61.2500 0.0000
    outer loop
        vertex 1.0000 -0.1000 1.0000
        vertex 3.0000 -0.1000 1.0000
        vertex 4.0000 -0.1000 5.9000
    endloop
endfacet
facet normal 0.0000 -146.5000 0.0000
    outer loop
        vertex 4.0000 -0.1000 5.9000
        vertex -4.6000 -0.1000 5.6000
        vertex -1.0000 -0.1000 3.0000
    endloop
endfacet
facet normal 0.0000 -36.2500 0.0000
    outer loop
        vertex -1.0000 -0.1000 3.0000
        vertex 1.0000 -0.1000 3.0000
        vertex 4.0000 -0.1000 5.9000
    endloop
endfacet
facet normal 0.0000 -57.5000 0.0000
    outer loop
        vertex -4.6000 -0.1000 5.6000
        vertex -3.0000 -0.1000 1.0000
        vertex -1.0000 -0.1000 1.0000
    endloop
endfacet
facet normal 0.0000 -45.0000 0.0000
    outer loop
        vertex -1.0000 -0.1000 1.0000
        vertex -1.0000 -0.1000 3.0000
        vertex -4.6000 -0.1000 5.6000
    endloop
endfacet
facet normal 0.0000 -52.5000 0.0000
    outer loop
        vertex -7.2000 -0.1000 -6.0000
        vertex -3.0000 -0.1000 -1.0000
        vertex -3.0000 -0.1000 1.0000
    endloop
endfacet
facet normal 0.0000 -190.7500 0.0000
    outer loop
        vertex -3.0000 -0.1000 1.0000
        vertex -4.6000 -0.1000 5.6000
        vertex -7.2000 -0.1000 -6.0000
    endloop
endfacet
facet normal 0.0000 -25.0000 0.0000
    outer loop
        vertex -1.0000 -0.1000 -3.0000
        vertex 1.0000 -0.1000 -3.0000
        vertex 1.0000 -0.1000 -1.0000
    endloop
endfacet
facet normal 0.0000 -25.0000 0.0000
    outer loop
        vertex 1.0000 -0.1000 -1.0000
        vertex -1.0000 -0.1000 -1.0000
        vertex -1.0000 -0.1000 -3.0000
    endloop
endfacet
facet normal 0.0000 -25.0000 0.0000
    outer loop
        vertex -1.0000 -0.1000 1.0000
        vertex 1.0000 -0.1000 1.0000
        vertex 1.0000 -0.1000 3.0000
    endloop
endfacet
facet normal 0.0000 -25.0000 0.0000
    outer loop
        vertex 1.0000 -0.1000 3.0000
        vertex -1.0000 -0.1000 3.0000
        vertex -1.0000 -0.1000 1.0000
    endloop
endfacet
facet normal 0.0000 -25.0000 0.0000
    outer loop
        vertex 3.0000 -0.1000 -1.0000
        vertex 3.0000 -0.1000 1.0000
        vertex 1.0000 -0.1000 1.0000
    endloop
endfacet
facet normal 0.0000 -25.0000 0.0000
    outer loop
        vertex 1.0000 -0.1000 1.0000
        vertex 1.0000 -0.1000 -1.0000
        vertex 3.0000 -0.1000 -1.0000
    endloop
endfacet
facet normal 0.0000 -25.0000 0.0000
    outer loop
        vertex 1.0000 -0.1000 -1.0000
        vertex 1.0000 -0.1000 1.0000
        vertex -1.0000 -0.1000 1.0000
    endloop
endfacet
facet normal 0.0000 -25.0000 0.0000
    outer loop
        vertex -1.0000 -0.1000 1.0000
        vertex -1.0000 -0.1000 -1.0000
        vertex 1.0000 -0.1000 -1.0000
    endloop
endfacet
facet normal 0.0000 -25.0000 0.0000
    outer loop
        vertex -1.0000 -0.1000 -1.0000
        vertex -1.0000 -0.1000 1.0000
        vertex -3.0000 -0.1000 1.0000
    endloop
endfacet
facet normal 0.0000 -25.0000 0.0000
    outer loop
        vertex -3.0000 -0.1000 1.0000
        vertex -3.0000 -0.1000 -1.0000
        vertex -1.0000 -0.1000 -1.0000
    endloop
endfacet
facet normal 0.0000 -0.7500 0.0000
    outer loop
        vertex -4.6000 -0.1000 5.6000
        vertex -3.4000 -0.1000 6.0000
        vertex -4.0000 -0.1000 5.9000
    endloop
endfacet
facet normal 0.0000 -8.0000 0.0000
    outer loop
        vertex -4.6000 -0.1000 5.6000
        vertex -4.8000 -0.1000 5.2000
        vertex -7.2000 -0.1000 -6.0000
    endloop
endfacet
facet normal 0.0000 -45.5000 0.0000
    outer loop
        vertex 7.2000 -0.1000 -6.0000
        vertex 4.8000 -0.1000 5.2000
        vertex 4.0000 -0.1000 5.9000
    endloop
endfacet
facet normal 0.0000 -1.1250 0.0000
    outer loop
        vertex 4.0000 -0.1000 5.9000
        vertex 4.8000 -0.1000 5.2000
        vertex 4.6000 -0.1000 5.6000
    endloop
endfacet
facet normal 0.0000 -19.2500 0.0000
    outer loop
        vertex -3.4000 -0.1000 6.0000
        vertex -4.6000 -0.1000 5.6000
        vertex 4.0000 -0.1000 5.9000
    endloop
endfacet
facet normal 0.0000 -4.2500 0.0000
    outer loop
        vertex 4.0000 -0.1000 5.9000
        vertex 3.4000 -0.1000 6.0000
        vertex -3.4000 -0.1000 6.0000
    endloop
endfacet
endsolid GiantLegoRocks
