solid GiantLegoRocks
facet normal 0.0000 0.7500 0.0000
    outer loop
        vertex 31.6000 0.0000 4.4000
        vertex 31.6000 0.0000 -4.4000
        vertex -31.6000 0.0000 -4.4000
    endloop
endfacet
facet normal 0.0000 0.7500 0.0000
    outer loop
        vertex -31.6000 0.0000 -4.4000
        vertex -31.6000 0.0000 4.4000
        vertex 31.6000 0.0000 4.4000
    endloop
endfacet
facet normal 0.0000 -0.2500 22.0000
    outer loop
        vertex -31.6000 -0.1000 4.4000
        vertex 31.6000 -0.1000 4.4000
        vertex 31.6000 0.0000 4.4000
    endloop
endfacet
facet normal 0.0000 -0.2500 22.0000
    outer loop
        vertex 31.6000 0.0000 4.4000
        vertex -31.6000 0.0000 4.4000
        vertex -31.6000 -0.1000 4.4000
    endloop
endfacet
facet normal -158.0000 -0.2500 0.0000
    outer loop
        vertex -31.6000 -0.1000 -4.4000
        vertex -31.6000 -0.1000 4.4000
        vertex -31.6000 0.0000 4.4000
    endloop
endfacet
facet normal -158.0000 -0.2500 0.0000
    outer loop
        vertex -31.6000 0.0000 4.4000
        vertex -31.6000 0.0000 -4.4000
        vertex -31.6000 -0.1000 -4.4000
    endloop
endfacet
facet normal 0.0000 -0.2500 -22.0000
    outer loop
        vertex 31.6000 -0.1000 -4.4000
        vertex -31.6000 -0.1000 -4.4000
        vertex -31.6000 0.0000 -4.4000
    endloop
endfacet
facet normal 0.0000 -0.2500 -22.0000
    outer loop
        vertex -31.6000 0.0000 -4.4000
        vertex 31.6000 0.0000 -4.4000
        vertex 31.6000 -0.1000 -4.4000
    endloop
endfacet
facet normal 158.0000 -0.2500 0.0000
    outer loop
        vertex 31.6000 -0.1000 4.4000
        vertex 31.6000 -0.1000 -4.4000
        vertex 31.6000 0.0000 -4.4000
    endloop
endfacet
facet normal 158.0000 -0.2500 0.0000
    outer loop
        vertex 31.6000 0.0000 -4.4000
        vertex 31.6000 0.0000 4.4000
        vertex 31.6000 -0.1000 4.4000
    endloop
endfacet
facet normal 0.0000 -20.3083 0.0000
    outer loop
        vertex -28.9960 -0.1000 -3.0240
        vertex -27.7520 -0.1000 -3.0240
        vertex -27.7520 -0.1000 -0.4120
    endloop
endfacet
facet normal 0.0000 -47.7074 0.0000
    outer loop
        vertex -27.7520 -0.1000 -0.4120
        vertex -28.9960 -0.1000 3.1120
        vertex -28.9960 -0.1000 -3.0240
    endloop
endfacet
facet normal 0.0000 -8.3037 0.0000
    outer loop
        vertex -28.9960 -0.1000 3.1120
        vertex -27.7520 -0.1000 -0.4120
        vertex -27.7520 -0.1000 0.6560
    endloop
endfacet
facet normal 0.0000 -17.7822 0.0000
    outer loop
        vertex -27.7520 -0.1000 0.6560
        vertex -27.7520 -0.1000 -0.4120
        vertex -25.0880 -0.1000 -0.4120
    endloop
endfacet
facet normal 0.0000 -17.7822 0.0000
    outer loop
        vertex -25.0880 -0.1000 -0.4120
        vertex -25.0880 -0.1000 0.6560
        vertex -27.7520 -0.1000 0.6560
    endloop
endfacet
facet normal 0.0000 -10.7917 0.0000
    outer loop
        vertex -28.9960 -0.1000 3.1120
        vertex -27.7520 -0.1000 0.6560
        vertex -27.7520 -0.1000 2.0440
    endloop
endfacet
facet normal 0.0000 -20.2920 0.0000
    outer loop
        vertex -27.7520 -0.1000 2.0440
        vertex -24.7120 -0.1000 2.0440
        vertex -24.7120 -0.1000 3.1120
    endloop
endfacet
facet normal 0.0000 -28.5957 0.0000
    outer loop
        vertex -24.7120 -0.1000 3.1120
        vertex -28.9960 -0.1000 3.1120
        vertex -27.7520 -0.1000 2.0440
    endloop
endfacet
facet normal 0.0000 -48.4744 0.0000
    outer loop
        vertex -23.8520 -0.1000 3.1120
        vertex -23.8520 -0.1000 -3.0240
        vertex -22.5880 -0.1000 -3.0240
    endloop
endfacet
facet normal 0.0000 -48.4744 0.0000
    outer loop
        vertex -22.5880 -0.1000 -3.0240
        vertex -22.5880 -0.1000 3.1120
        vertex -23.8520 -0.1000 3.1120
    endloop
endfacet
facet normal 0.0000 -18.8652 0.0000
    outer loop
        vertex -20.0080 -0.1000 -0.6360
        vertex -21.2720 -0.1000 -3.0240
        vertex -20.0080 -0.1000 -3.0240
    endloop
endfacet
facet normal 0.0000 -2.9050 0.0000
    outer loop
        vertex -18.6720 -0.1000 -0.6360
        vertex -18.2440 -0.1000 -0.6880
        vertex -18.5240 -0.1000 0.4320
    endloop
endfacet
facet normal 0.0000 -9.9057 0.0000
    outer loop
        vertex -18.5240 -0.1000 0.4320
        vertex -20.0080 -0.1000 0.4320
        vertex -18.6720 -0.1000 -0.6360
    endloop
endfacet
facet normal 0.0000 -8.9178 0.0000
    outer loop
        vertex -20.0080 -0.1000 0.4320
        vertex -20.0080 -0.1000 -0.6360
        vertex -18.6720 -0.1000 -0.6360
    endloop
endfacet
facet normal 0.0000 -8.4372 0.0000
    outer loop
        vertex -21.2720 -0.1000 -3.0240
        vertex -20.0080 -0.1000 -0.6360
        vertex -20.0080 -0.1000 0.4320
    endloop
endfacet
facet normal 0.0000 -48.4744 0.0000
    outer loop
        vertex -20.0080 -0.1000 0.4320
        vertex -21.2720 -0.1000 3.1120
        vertex -21.2720 -0.1000 -3.0240
    endloop
endfacet
facet normal 0.0000 -5.2431 0.0000
    outer loop
        vertex -16.4480 -0.1000 -2.1720
        vertex -17.7600 -0.1000 -1.6080
        vertex -17.7400 -0.1000 -2.2560
    endloop
endfacet
facet normal 0.0000 -3.6730 0.0000
    outer loop
        vertex -17.7400 -0.1000 -2.2560
        vertex -17.6960 -0.1000 -2.7080
        vertex -16.4480 -0.1000 -2.1720
    endloop
endfacet
facet normal 0.0000 -2.0609 0.0000
    outer loop
        vertex -17.2360 -0.1000 -0.0800
        vertex -17.9720 -0.1000 -0.8360
        vertex -17.8240 -0.1000 -1.1320
    endloop
endfacet
facet normal 0.0000 -2.8823 0.0000
    outer loop
        vertex -17.8240 -0.1000 -1.1320
        vertex -16.8960 -0.1000 -0.2560
        vertex -17.2360 -0.1000 -0.0800
    endloop
endfacet
facet normal 0.0000 -1.9660 0.0000
    outer loop
        vertex -18.2440 -0.1000 -0.6880
        vertex -17.9720 -0.1000 -0.8360
        vertex -17.2360 -0.1000 -0.0800
    endloop
endfacet
facet normal 0.0000 -6.8264 0.0000
    outer loop
        vertex -17.2360 -0.1000 -0.0800
        vertex -18.1040 -0.1000 0.4800
        vertex -18.2440 -0.1000 -0.6880
    endloop
endfacet
facet normal 0.0000 -3.8951 0.0000
    outer loop
        vertex -17.8240 -0.1000 -1.1320
        vertex -17.7600 -0.1000 -1.6080
        vertex -16.4760 -0.1000 -1.4200
    endloop
endfacet
facet normal 0.0000 -4.4078 0.0000
    outer loop
        vertex -16.4760 -0.1000 -1.4200
        vertex -16.5360 -0.1000 -0.8840
        vertex -17.8240 -0.1000 -1.1320
    endloop
endfacet
facet normal 0.0000 -19.7160 0.0000
    outer loop
        vertex -18.2960 -0.1000 3.1120
        vertex -21.2720 -0.1000 3.1120
        vertex -20.0080 -0.1000 2.0520
    endloop
endfacet
facet normal 0.0000 -10.2025 0.0000
    outer loop
        vertex -20.0080 -0.1000 2.0520
        vertex -18.4680 -0.1000 2.0520
        vertex -18.2960 -0.1000 3.1120
    endloop
endfacet
facet normal 0.0000 -12.7980 0.0000
    outer loop
        vertex -21.2720 -0.1000 3.1120
        vertex -20.0080 -0.1000 0.4320
        vertex -20.0080 -0.1000 2.0520
    endloop
endfacet
facet normal 0.0000 -1.7892 0.0000
    outer loop
        vertex -17.8160 -0.1000 0.6240
        vertex -18.1040 -0.1000 0.4800
        vertex -17.2360 -0.1000 -0.0800
    endloop
endfacet
facet normal 0.0000 -3.8812 0.0000
    outer loop
        vertex -17.8080 -0.1000 1.8480
        vertex -17.1880 -0.1000 2.9200
        vertex -17.6840 -0.1000 3.0640
    endloop
endfacet
facet normal 0.0000 -2.2154 0.0000
    outer loop
        vertex -17.6840 -0.1000 3.0640
        vertex -18.0840 -0.1000 2.0000
        vertex -17.8080 -0.1000 1.8480
    endloop
endfacet
facet normal 0.0000 -4.1898 0.0000
    outer loop
        vertex -18.0840 -0.1000 2.0000
        vertex -17.6840 -0.1000 3.0640
        vertex -18.2960 -0.1000 3.1120
    endloop
endfacet
facet normal 0.0000 -2.5999 0.0000
    outer loop
        vertex -18.2960 -0.1000 3.1120
        vertex -18.4680 -0.1000 2.0520
        vertex -18.0840 -0.1000 2.0000
    endloop
endfacet
facet normal 0.0000 -3.0240 0.0000
    outer loop
        vertex -18.1040 -0.1000 0.4800
        vertex -18.5240 -0.1000 0.4320
        vertex -18.2440 -0.1000 -0.6880
    endloop
endfacet
facet normal 0.0000 -6.0677 0.0000
    outer loop
        vertex -16.4760 -0.1000 -1.4200
        vertex -17.7600 -0.1000 -1.6080
        vertex -16.4480 -0.1000 -2.1720
    endloop
endfacet
facet normal 0.0000 -2.7331 0.0000
    outer loop
        vertex -16.6680 -0.1000 -0.5120
        vertex -16.8960 -0.1000 -0.2560
        vertex -17.8240 -0.1000 -1.1320
    endloop
endfacet
facet normal 0.0000 -3.1992 0.0000
    outer loop
        vertex -17.8240 -0.1000 -1.1320
        vertex -16.5360 -0.1000 -0.8840
        vertex -16.6680 -0.1000 -0.5120
    endloop
endfacet
facet normal 0.0000 -0.1978 0.0000
    outer loop
        vertex -16.2120 -0.1000 -3.0240
        vertex -16.2120 -0.1000 -2.8400
        vertex -16.3840 -0.1000 -2.6120
    endloop
endfacet
facet normal 0.0000 -3.5638 0.0000
    outer loop
        vertex -16.3840 -0.1000 -2.6120
        vertex -17.5960 -0.1000 -3.0240
        vertex -16.2120 -0.1000 -3.0240
    endloop
endfacet
facet normal 0.0000 -3.6464 0.0000
    outer loop
        vertex -16.3840 -0.1000 -2.6120
        vertex -16.4480 -0.1000 -2.1720
        vertex -17.6960 -0.1000 -2.7080
    endloop
endfacet
facet normal 0.0000 -2.6512 0.0000
    outer loop
        vertex -17.6960 -0.1000 -2.7080
        vertex -17.5960 -0.1000 -3.0240
        vertex -16.3840 -0.1000 -2.6120
    endloop
endfacet
facet normal 0.0000 -2.8735 0.0000
    outer loop
        vertex -16.3840 -0.1000 0.8560
        vertex -17.5880 -0.1000 1.2400
        vertex -17.6440 -0.1000 0.8760
    endloop
endfacet
facet normal 0.0000 -3.3610 0.0000
    outer loop
        vertex -17.6440 -0.1000 0.8760
        vertex -16.5600 -0.1000 0.4320
        vertex -16.3840 -0.1000 0.8560
    endloop
endfacet
facet normal 0.0000 -1.6703 0.0000
    outer loop
        vertex -17.6440 -0.1000 0.8760
        vertex -17.8160 -0.1000 0.6240
        vertex -17.2360 -0.1000 -0.0800
    endloop
endfacet
facet normal 0.0000 -2.8283 0.0000
    outer loop
        vertex -17.2360 -0.1000 -0.0800
        vertex -16.8480 -0.1000 0.1200
        vertex -17.6440 -0.1000 0.8760
    endloop
endfacet
facet normal 0.0000 -3.4605 0.0000
    outer loop
        vertex -16.8080 -0.1000 2.6840
        vertex -17.1880 -0.1000 2.9200
        vertex -17.8080 -0.1000 1.8480
    endloop
endfacet
facet normal 0.0000 -2.4569 0.0000
    outer loop
        vertex -17.8080 -0.1000 1.8480
        vertex -17.6440 -0.1000 1.5920
        vertex -16.8080 -0.1000 2.6840
    endloop
endfacet
facet normal 0.0000 -2.8270 0.0000
    outer loop
        vertex -16.3240 -0.1000 1.3720
        vertex -17.6440 -0.1000 1.5920
        vertex -17.5880 -0.1000 1.2400
    endloop
endfacet
facet normal 0.0000 -4.0269 0.0000
    outer loop
        vertex -17.5880 -0.1000 1.2400
        vertex -16.3840 -0.1000 0.8560
        vertex -16.3240 -0.1000 1.3720
    endloop
endfacet
facet normal 0.0000 -5.3267 0.0000
    outer loop
        vertex -16.4440 -0.1000 2.1400
        vertex -16.8080 -0.1000 2.6840
        vertex -17.6440 -0.1000 1.5920
    endloop
endfacet
facet normal 0.0000 -6.1710 0.0000
    outer loop
        vertex -17.6440 -0.1000 1.5920
        vertex -16.3240 -0.1000 1.3720
        vertex -16.4440 -0.1000 2.1400
    endloop
endfacet
facet normal 0.0000 -2.9130 0.0000
    outer loop
        vertex -17.6440 -0.1000 0.8760
        vertex -16.8480 -0.1000 0.1200
        vertex -16.5600 -0.1000 0.4320
    endloop
endfacet
facet normal 0.0000 -12.3240 0.0000
    outer loop
        vertex -15.1800 -0.1000 -3.0240
        vertex -13.9320 -0.1000 -1.8920
        vertex -13.9320 -0.1000 -0.3120
    endloop
endfacet
facet normal 0.0000 -47.8608 0.0000
    outer loop
        vertex -13.9320 -0.1000 -0.3120
        vertex -15.1800 -0.1000 3.1120
        vertex -15.1800 -0.1000 -3.0240
    endloop
endfacet
facet normal 0.0000 -32.6016 0.0000
    outer loop
        vertex -13.9320 -0.1000 -1.8920
        vertex -15.1800 -0.1000 -3.0240
        vertex -10.5720 -0.1000 -3.0240
    endloop
endfacet
facet normal 0.0000 -23.7720 0.0000
    outer loop
        vertex -10.5720 -0.1000 -3.0240
        vertex -10.5720 -0.1000 -1.8920
        vertex -13.9320 -0.1000 -1.8920
    endloop
endfacet
facet normal 0.0000 -10.2024 0.0000
    outer loop
        vertex -15.1800 -0.1000 3.1120
        vertex -13.9320 -0.1000 0.7360
        vertex -13.9320 -0.1000 2.0440
    endloop
endfacet
facet normal 0.0000 -8.1744 0.0000
    outer loop
        vertex -15.1800 -0.1000 3.1120
        vertex -13.9320 -0.1000 -0.3120
        vertex -13.9320 -0.1000 0.7360
    endloop
endfacet
facet normal 0.0000 -29.7705 0.0000
    outer loop
        vertex -10.7200 -0.1000 3.1120
        vertex -15.1800 -0.1000 3.1120
        vertex -13.9320 -0.1000 2.0440
    endloop
endfacet
facet normal 0.0000 -21.4401 0.0000
    outer loop
        vertex -13.9320 -0.1000 2.0440
        vertex -10.7200 -0.1000 2.0440
        vertex -10.7200 -0.1000 3.1120
    endloop
endfacet
facet normal 0.0000 -19.2308 0.0000
    outer loop
        vertex -13.9320 -0.1000 0.7360
        vertex -13.9320 -0.1000 -0.3120
        vertex -10.9960 -0.1000 -0.3120
    endloop
endfacet
facet normal 0.0000 -19.2308 0.0000
    outer loop
        vertex -10.9960 -0.1000 -0.3120
        vertex -10.9960 -0.1000 0.7360
        vertex -13.9320 -0.1000 0.7360
    endloop
endfacet
facet normal 0.0000 -3.6815 0.0000
    outer loop
        vertex -6.0840 -0.1000 -1.5680
        vertex -6.2240 -0.1000 -1.1280
        vertex -7.3680 -0.1000 -1.7400
    endloop
endfacet
facet normal 0.0000 -4.3625 0.0000
    outer loop
        vertex -7.3680 -0.1000 -1.7400
        vertex -7.1320 -0.1000 -2.2520
        vertex -6.0840 -0.1000 -1.5680
    endloop
endfacet
facet normal 0.0000 -4.2627 0.0000
    outer loop
        vertex -6.0840 -0.1000 -1.5680
        vertex -7.1320 -0.1000 -2.2520
        vertex -6.7600 -0.1000 -2.6600
    endloop
endfacet
facet normal 0.0000 -3.1746 0.0000
    outer loop
        vertex -6.7600 -0.1000 -2.6600
        vertex -5.8120 -0.1000 -1.8800
        vertex -6.0840 -0.1000 -1.5680
    endloop
endfacet
facet normal 0.0000 -4.7583 0.0000
    outer loop
        vertex -6.2240 -0.1000 -1.1280
        vertex -7.4680 -0.1000 -1.1280
        vertex -7.3680 -0.1000 -1.7400
    endloop
endfacet
facet normal 0.0000 -3.1211 0.0000
    outer loop
        vertex -6.0400 -0.1000 1.2040
        vertex -6.9960 -0.1000 0.2800
        vertex -6.7080 -0.1000 0.0360
    endloop
endfacet
facet normal 0.0000 -3.5716 0.0000
    outer loop
        vertex -6.7080 -0.1000 0.0360
        vertex -5.6880 -0.1000 0.9640
        vertex -6.0400 -0.1000 1.2040
    endloop
endfacet
facet normal 0.0000 -4.1718 0.0000
    outer loop
        vertex -5.8120 -0.1000 -1.8800
        vertex -6.7600 -0.1000 -2.6600
        vertex -6.2640 -0.1000 -2.9560
    endloop
endfacet
facet normal 0.0000 -3.3330 0.0000
    outer loop
        vertex -6.2640 -0.1000 -2.9560
        vertex -5.3920 -0.1000 -2.0600
        vertex -5.8120 -0.1000 -1.8800
    endloop
endfacet
facet normal 0.0000 -4.9156 0.0000
    outer loop
        vertex -5.6600 -0.1000 -3.1360
        vertex -4.9440 -0.1000 -3.1960
        vertex -5.3920 -0.1000 -2.0600
    endloop
endfacet
facet normal 0.0000 -4.3634 0.0000
    outer loop
        vertex -5.3920 -0.1000 -2.0600
        vertex -6.2640 -0.1000 -2.9560
        vertex -5.6600 -0.1000 -3.1360
    endloop
endfacet
facet normal 0.0000 -5.9458 0.0000
    outer loop
        vertex -6.2200 -0.1000 -0.1840
        vertex -5.4840 -0.1000 -0.3840
        vertex -5.6880 -0.1000 0.9640
    endloop
endfacet
facet normal 0.0000 -4.2329 0.0000
    outer loop
        vertex -5.6880 -0.1000 0.9640
        vertex -6.7080 -0.1000 0.0360
        vertex -6.2200 -0.1000 -0.1840
    endloop
endfacet
facet normal 0.0000 -1.2984 0.0000
    outer loop
        vertex -5.1080 -0.1000 0.7720
        vertex -5.4840 -0.1000 -0.3840
        vertex -5.3160 -0.1000 -0.4200
    endloop
endfacet
facet normal 0.0000 -3.4132 0.0000
    outer loop
        vertex -5.3160 -0.1000 -0.4200
        vertex -4.6680 -0.1000 0.6680
        vertex -5.1080 -0.1000 0.7720
    endloop
endfacet
facet normal 0.0000 -3.4369 0.0000
    outer loop
        vertex -6.1560 -0.1000 1.5040
        vertex -7.3760 -0.1000 1.4280
        vertex -7.3320 -0.1000 0.9800
    endloop
endfacet
facet normal 0.0000 -2.5849 0.0000
    outer loop
        vertex -7.3320 -0.1000 0.9800
        vertex -6.0400 -0.1000 1.2040
        vertex -6.1560 -0.1000 1.5040
    endloop
endfacet
facet normal 0.0000 -3.2800 0.0000
    outer loop
        vertex -6.0400 -0.1000 1.2040
        vertex -7.3320 -0.1000 0.9800
        vertex -7.2040 -0.1000 0.5960
    endloop
endfacet
facet normal 0.0000 -3.0893 0.0000
    outer loop
        vertex -7.2040 -0.1000 0.5960
        vertex -6.9960 -0.1000 0.2800
        vertex -6.0400 -0.1000 1.2040
    endloop
endfacet
facet normal 0.0000 -4.1767 0.0000
    outer loop
        vertex -7.3080 -0.1000 1.9800
        vertex -7.3760 -0.1000 1.4280
        vertex -6.1560 -0.1000 1.5040
    endloop
endfacet
facet normal 0.0000 -2.4775 0.0000
    outer loop
        vertex -6.1560 -0.1000 1.5040
        vertex -6.0880 -0.1000 1.8200
        vertex -7.3080 -0.1000 1.9800
    endloop
endfacet
facet normal 0.0000 -3.6810 0.0000
    outer loop
        vertex -7.1040 -0.1000 2.4360
        vertex -7.3080 -0.1000 1.9800
        vertex -6.0880 -0.1000 1.8200
    endloop
endfacet
facet normal 0.0000 -3.6050 0.0000
    outer loop
        vertex -6.0880 -0.1000 1.8200
        vertex -6.7680 -0.1000 2.8000
        vertex -7.1040 -0.1000 2.4360
    endloop
endfacet
facet normal 0.0000 -3.6348 0.0000
    outer loop
        vertex -6.3000 -0.1000 3.0640
        vertex -6.7680 -0.1000 2.8000
        vertex -5.8840 -0.1000 2.0560
    endloop
endfacet
facet normal 0.0000 -2.4156 0.0000
    outer loop
        vertex -5.8840 -0.1000 2.0560
        vertex -5.5600 -0.1000 2.2000
        vertex -6.3000 -0.1000 3.0640
    endloop
endfacet
facet normal 0.0000 -3.8936 0.0000
    outer loop
        vertex -5.7160 -0.1000 3.2240
        vertex -6.3000 -0.1000 3.0640
        vertex -5.5600 -0.1000 2.2000
    endloop
endfacet
facet normal 0.0000 -2.8628 0.0000
    outer loop
        vertex -5.5600 -0.1000 2.2000
        vertex -5.1200 -0.1000 2.2480
        vertex -5.7160 -0.1000 3.2240
    endloop
endfacet
facet normal 0.0000 -4.5125 0.0000
    outer loop
        vertex -5.0080 -0.1000 3.2760
        vertex -5.7160 -0.1000 3.2240
        vertex -5.1200 -0.1000 2.2480
    endloop
endfacet
facet normal 0.0000 -3.2802 0.0000
    outer loop
        vertex -5.1200 -0.1000 2.2480
        vertex -4.6160 -0.1000 2.1880
        vertex -5.0080 -0.1000 3.2760
    endloop
endfacet
facet normal 0.0000 -2.2525 0.0000
    outer loop
        vertex -6.7680 -0.1000 2.8000
        vertex -6.0880 -0.1000 1.8200
        vertex -5.8840 -0.1000 2.0560
    endloop
endfacet
facet normal 0.0000 -4.6417 0.0000
    outer loop
        vertex -5.6880 -0.1000 0.9640
        vertex -5.4840 -0.1000 -0.3840
        vertex -5.1080 -0.1000 0.7720
    endloop
endfacet
facet normal 0.0000 -4.8088 0.0000
    outer loop
        vertex -4.8240 -0.1000 -2.1240
        vertex -4.9440 -0.1000 -3.1960
        vertex -4.2200 -0.1000 -3.1400
    endloop
endfacet
facet normal 0.0000 -3.2697 0.0000
    outer loop
        vertex -4.2200 -0.1000 -3.1400
        vertex -4.3400 -0.1000 -2.0720
        vertex -4.8240 -0.1000 -2.1240
    endloop
endfacet
facet normal 0.0000 -2.5730 0.0000
    outer loop
        vertex -3.6120 -0.1000 -2.9640
        vertex -3.9960 -0.1000 -1.9280
        vertex -4.3400 -0.1000 -2.0720
    endloop
endfacet
facet normal 0.0000 -4.1904 0.0000
    outer loop
        vertex -4.3400 -0.1000 -2.0720
        vertex -4.2200 -0.1000 -3.1400
        vertex -3.6120 -0.1000 -2.9640
    endloop
endfacet
facet normal 0.0000 -2.3103 0.0000
    outer loop
        vertex -3.7840 -0.1000 -1.6840
        vertex -3.9960 -0.1000 -1.9280
        vertex -3.1240 -0.1000 -2.6680
    endloop
endfacet
facet normal 0.0000 -3.8475 0.0000
    outer loop
        vertex -3.1240 -0.1000 -2.6680
        vertex -2.7640 -0.1000 -2.2720
        vertex -3.7840 -0.1000 -1.6840
    endloop
endfacet
facet normal 0.0000 -5.0288 0.0000
    outer loop
        vertex -3.7160 -0.1000 0.4040
        vertex -4.4280 -0.1000 -0.6880
        vertex -3.8920 -0.1000 -0.9960
    endloop
endfacet
facet normal 0.0000 -4.5032 0.0000
    outer loop
        vertex -3.8920 -0.1000 -0.9960
        vertex -3.2280 -0.1000 0.1920
        vertex -3.7160 -0.1000 0.4040
    endloop
endfacet
facet normal 0.0000 -7.1238 0.0000
    outer loop
        vertex -4.6680 -0.1000 0.6680
        vertex -5.3160 -0.1000 -0.4200
        vertex -4.4280 -0.1000 -0.6880
    endloop
endfacet
facet normal 0.0000 -4.6197 0.0000
    outer loop
        vertex -4.4280 -0.1000 -0.6880
        vertex -4.0960 -0.1000 0.5160
        vertex -4.6680 -0.1000 0.6680
    endloop
endfacet
facet normal 0.0000 -3.9558 0.0000
    outer loop
        vertex -3.7840 -0.1000 -1.6840
        vertex -2.7640 -0.1000 -2.2720
        vertex -2.5480 -0.1000 -1.7760
    endloop
endfacet
facet normal 0.0000 -2.6347 0.0000
    outer loop
        vertex -2.5480 -0.1000 -1.7760
        vertex -3.7160 -0.1000 -1.3480
        vertex -3.7840 -0.1000 -1.6840
    endloop
endfacet
facet normal 0.0000 -3.2912 0.0000
    outer loop
        vertex -3.8920 -0.1000 -0.9960
        vertex -3.7160 -0.1000 -1.3480
        vertex -2.5240 -0.1000 -0.7400
    endloop
endfacet
facet normal 0.0000 -3.4730 0.0000
    outer loop
        vertex -2.5240 -0.1000 -0.7400
        vertex -2.6640 -0.1000 -0.3600
        vertex -3.8920 -0.1000 -0.9960
    endloop
endfacet
facet normal 0.0000 -3.4902 0.0000
    outer loop
        vertex -2.4760 -0.1000 -1.1840
        vertex -2.5240 -0.1000 -0.7400
        vertex -3.7160 -0.1000 -1.3480
    endloop
endfacet
facet normal 0.0000 -4.5142 0.0000
    outer loop
        vertex -3.7160 -0.1000 -1.3480
        vertex -2.5480 -0.1000 -1.7760
        vertex -2.4760 -0.1000 -1.1840
    endloop
endfacet
facet normal 0.0000 -3.8702 0.0000
    outer loop
        vertex -3.9960 -0.1000 -1.9280
        vertex -3.6120 -0.1000 -2.9640
        vertex -3.1240 -0.1000 -2.6680
    endloop
endfacet
facet normal 0.0000 -3.3020 0.0000
    outer loop
        vertex -3.8920 -0.1000 -0.9960
        vertex -2.6640 -0.1000 -0.3600
        vertex -2.9000 -0.1000 -0.0520
    endloop
endfacet
facet normal 0.0000 -3.4480 0.0000
    outer loop
        vertex -2.9000 -0.1000 -0.0520
        vertex -3.2280 -0.1000 0.1920
        vertex -3.8920 -0.1000 -0.9960
    endloop
endfacet
facet normal 0.0000 -2.7768 0.0000
    outer loop
        vertex -4.2440 -0.1000 2.0160
        vertex -4.0040 -0.1000 1.7280
        vertex -3.3280 -0.1000 2.7680
    endloop
endfacet
facet normal 0.0000 -3.7691 0.0000
    outer loop
        vertex -3.3280 -0.1000 2.7680
        vertex -3.7840 -0.1000 3.0520
        vertex -4.2440 -0.1000 2.0160
    endloop
endfacet
facet normal 0.0000 -4.3780 0.0000
    outer loop
        vertex -4.3440 -0.1000 3.2200
        vertex -5.0080 -0.1000 3.2760
        vertex -4.6160 -0.1000 2.1880
    endloop
endfacet
facet normal 0.0000 -3.8976 0.0000
    outer loop
        vertex -4.6160 -0.1000 2.1880
        vertex -3.7840 -0.1000 3.0520
        vertex -4.3440 -0.1000 3.2200
    endloop
endfacet
facet normal 0.0000 -2.9032 0.0000
    outer loop
        vertex -3.7840 -0.1000 3.0520
        vertex -4.6160 -0.1000 2.1880
        vertex -4.2440 -0.1000 2.0160
    endloop
endfacet
facet normal 0.0000 -3.1256 0.0000
    outer loop
        vertex -2.7760 -0.1000 1.9080
        vertex -4.0040 -0.1000 1.7280
        vertex -3.9000 -0.1000 1.3360
    endloop
endfacet
facet normal 0.0000 -4.3329 0.0000
    outer loop
        vertex -3.9000 -0.1000 1.3360
        vertex -2.6880 -0.1000 1.3360
        vertex -2.7760 -0.1000 1.9080
    endloop
endfacet
facet normal 0.0000 -3.0919 0.0000
    outer loop
        vertex -4.0960 -0.1000 0.5160
        vertex -4.4280 -0.1000 -0.6880
        vertex -3.7160 -0.1000 0.4040
    endloop
endfacet
facet normal 0.0000 -3.8324 0.0000
    outer loop
        vertex -2.9880 -0.1000 2.3840
        vertex -3.3280 -0.1000 2.7680
        vertex -4.0040 -0.1000 1.7280
    endloop
endfacet
facet normal 0.0000 -3.8918 0.0000
    outer loop
        vertex -4.0040 -0.1000 1.7280
        vertex -2.7760 -0.1000 1.9080
        vertex -2.9880 -0.1000 2.3840
    endloop
endfacet
facet normal 0.0000 -3.8536 0.0000
    outer loop
        vertex -5.3920 -0.1000 -2.0600
        vertex -4.9440 -0.1000 -3.1960
        vertex -4.8240 -0.1000 -2.1240
    endloop
endfacet
facet normal 0.0000 -33.5102 0.0000
    outer loop
        vertex -0.2200 -0.1000 2.0160
        vertex 2.8520 -0.1000 3.1120
        vertex -2.0400 -0.1000 3.1120
    endloop
endfacet
facet normal 0.0000 -12.4670 0.0000
    outer loop
        vertex -2.0400 -0.1000 3.1120
        vertex -2.0400 -0.1000 2.0160
        vertex -0.2200 -0.1000 2.0160
    endloop
endfacet
facet normal 0.0000 -39.8160 0.0000
    outer loop
        vertex -0.2200 -0.1000 2.0160
        vertex -0.2200 -0.1000 -3.0240
        vertex 1.0440 -0.1000 -3.0240
    endloop
endfacet
facet normal 0.0000 -39.8160 0.0000
    outer loop
        vertex 1.0440 -0.1000 -3.0240
        vertex 1.0440 -0.1000 2.0160
        vertex -0.2200 -0.1000 2.0160
    endloop
endfacet
facet normal 0.0000 -12.3848 0.0000
    outer loop
        vertex 2.8520 -0.1000 3.1120
        vertex 1.0440 -0.1000 2.0160
        vertex 2.8520 -0.1000 2.0160
    endloop
endfacet
facet normal 0.0000 -8.6584 0.0000
    outer loop
        vertex 2.8520 -0.1000 3.1120
        vertex -0.2200 -0.1000 2.0160
        vertex 1.0440 -0.1000 2.0160
    endloop
endfacet
facet normal 0.0000 -10.4580 0.0000
    outer loop
        vertex 4.6760 -0.1000 -1.7640
        vertex 2.9440 -0.1000 -3.0240
        vertex 4.2720 -0.1000 -3.0240
    endloop
endfacet
facet normal 0.0000 -48.0220 0.0000
    outer loop
        vertex 5.1280 -0.1000 3.1120
        vertex 2.9440 -0.1000 -3.0240
        vertex 5.0120 -0.1000 -0.7320
    endloop
endfacet
facet normal 0.0000 -18.4766 0.0000
    outer loop
        vertex 5.0120 -0.1000 -0.7320
        vertex 5.8600 -0.1000 1.8840
        vertex 5.1280 -0.1000 3.1120
    endloop
endfacet
facet normal 0.0000 -10.9908 0.0000
    outer loop
        vertex 6.7160 -0.1000 -0.7320
        vertex 5.0120 -0.1000 -0.7320
        vertex 4.6760 -0.1000 -1.7640
    endloop
endfacet
facet normal 0.0000 -15.3510 0.0000
    outer loop
        vertex 4.6760 -0.1000 -1.7640
        vertex 7.0560 -0.1000 -1.7640
        vertex 6.7160 -0.1000 -0.7320
    endloop
endfacet
facet normal 0.0000 -8.5254 0.0000
    outer loop
        vertex 5.0120 -0.1000 -0.7320
        vertex 2.9440 -0.1000 -3.0240
        vertex 4.6760 -0.1000 -1.7640
    endloop
endfacet
facet normal 0.0000 -10.4265 0.0000
    outer loop
        vertex 7.0560 -0.1000 -1.7640
        vertex 7.4720 -0.1000 -3.0240
        vertex 8.7960 -0.1000 -3.0240
    endloop
endfacet
facet normal 0.0000 -8.5455 0.0000
    outer loop
        vertex 6.7160 -0.1000 -0.7320
        vertex 7.0560 -0.1000 -1.7640
        vertex 8.7960 -0.1000 -3.0240
    endloop
endfacet
facet normal 0.0000 -48.0811 0.0000
    outer loop
        vertex 8.7960 -0.1000 -3.0240
        vertex 6.5840 -0.1000 3.1120
        vertex 6.7160 -0.1000 -0.7320
    endloop
endfacet
facet normal 0.0000 -18.4072 0.0000
    outer loop
        vertex 6.5840 -0.1000 3.1120
        vertex 5.8600 -0.1000 1.8840
        vertex 6.7160 -0.1000 -0.7320
    endloop
endfacet
facet normal 0.0000 -11.1748 0.0000
    outer loop
        vertex 6.5840 -0.1000 3.1120
        vertex 5.1280 -0.1000 3.1120
        vertex 5.8600 -0.1000 1.8840
    endloop
endfacet
facet normal 0.0000 -33.5376 0.0000
    outer loop
        vertex 10.7040 -0.1000 2.0160
        vertex 13.7760 -0.1000 3.1120
        vertex 8.8800 -0.1000 3.1120
    endloop
endfacet
facet normal 0.0000 -12.4944 0.0000
    outer loop
        vertex 8.8800 -0.1000 3.1120
        vertex 8.8800 -0.1000 2.0160
        vertex 10.7040 -0.1000 2.0160
    endloop
endfacet
facet normal 0.0000 -39.6900 0.0000
    outer loop
        vertex 10.7040 -0.1000 2.0160
        vertex 10.7040 -0.1000 -3.0240
        vertex 11.9640 -0.1000 -3.0240
    endloop
endfacet
facet normal 0.0000 -39.6900 0.0000
    outer loop
        vertex 11.9640 -0.1000 -3.0240
        vertex 11.9640 -0.1000 2.0160
        vertex 10.7040 -0.1000 2.0160
    endloop
endfacet
facet normal 0.0000 -12.4122 0.0000
    outer loop
        vertex 13.7760 -0.1000 3.1120
        vertex 11.9640 -0.1000 2.0160
        vertex 13.7760 -0.1000 2.0160
    endloop
endfacet
facet normal 0.0000 -8.6310 0.0000
    outer loop
        vertex 13.7760 -0.1000 3.1120
        vertex 10.7040 -0.1000 2.0160
        vertex 11.9640 -0.1000 2.0160
    endloop
endfacet
facet normal 0.0000 -48.3210 0.0000
    outer loop
        vertex 14.5440 -0.1000 3.1120
        vertex 14.5440 -0.1000 -3.0240
        vertex 15.8040 -0.1000 -3.0240
    endloop
endfacet
facet normal 0.0000 -48.3210 0.0000
    outer loop
        vertex 15.8040 -0.1000 -3.0240
        vertex 15.8040 -0.1000 3.1120
        vertex 14.5440 -0.1000 3.1120
    endloop
endfacet
facet normal 0.0000 -5.9570 0.0000
    outer loop
        vertex 18.5920 -0.1000 -1.5360
        vertex 17.2160 -0.1000 -1.6720
        vertex 17.6680 -0.1000 -2.3200
    endloop
endfacet
facet normal 0.0000 -5.7582 0.0000
    outer loop
        vertex 17.6680 -0.1000 -2.3200
        vertex 18.2680 -0.1000 -2.8080
        vertex 18.5920 -0.1000 -1.5360
    endloop
endfacet
facet normal 0.0000 -4.3684 0.0000
    outer loop
        vertex 18.3440 -0.1000 -1.1120
        vertex 18.1920 -0.1000 -0.5880
        vertex 16.9440 -0.1000 -0.8840
    endloop
endfacet
facet normal 0.0000 -6.5074 0.0000
    outer loop
        vertex 16.9440 -0.1000 -0.8840
        vertex 17.2160 -0.1000 -1.6720
        vertex 18.3440 -0.1000 -1.1120
    endloop
endfacet
facet normal 0.0000 -7.3388 0.0000
    outer loop
        vertex 16.8560 -0.1000 0.0360
        vertex 16.9440 -0.1000 -0.8840
        vertex 18.1920 -0.1000 -0.5880
    endloop
endfacet
facet normal 0.0000 -5.0232 0.0000
    outer loop
        vertex 18.1920 -0.1000 -0.5880
        vertex 18.1440 -0.1000 0.0360
        vertex 16.8560 -0.1000 0.0360
    endloop
endfacet
facet normal 0.0000 -5.8850 0.0000
    outer loop
        vertex 19.8520 -0.1000 -2.0960
        vertex 18.9960 -0.1000 -3.1000
        vertex 19.8520 -0.1000 -3.1960
    endloop
endfacet
facet normal 0.0000 -3.4650 0.0000
    outer loop
        vertex 19.8520 -0.1000 -3.1960
        vertex 20.3560 -0.1000 -2.0320
        vertex 19.8520 -0.1000 -2.0960
    endloop
endfacet
facet normal 0.0000 -5.2670 0.0000
    outer loop
        vertex 18.9960 -0.1000 -3.1000
        vertex 19.8520 -0.1000 -2.0960
        vertex 19.1320 -0.1000 -1.9560
    endloop
endfacet
facet normal 0.0000 -5.4534 0.0000
    outer loop
        vertex 19.1320 -0.1000 -1.9560
        vertex 18.2680 -0.1000 -2.8080
        vertex 18.9960 -0.1000 -3.1000
    endloop
endfacet
facet normal 0.0000 -3.8572 0.0000
    outer loop
        vertex 18.3440 -0.1000 -1.1120
        vertex 17.2160 -0.1000 -1.6720
        vertex 18.5920 -0.1000 -1.5360
    endloop
endfacet
facet normal 0.0000 -5.1435 0.0000
    outer loop
        vertex 18.5920 -0.1000 -1.5360
        vertex 18.2680 -0.1000 -2.8080
        vertex 19.1320 -0.1000 -1.9560
    endloop
endfacet
facet normal 0.0000 -5.0554 0.0000
    outer loop
        vertex 16.8560 -0.1000 0.0360
        vertex 18.1440 -0.1000 0.0360
        vertex 18.1920 -0.1000 0.6640
    endloop
endfacet
facet normal 0.0000 -7.3700 0.0000
    outer loop
        vertex 18.1920 -0.1000 0.6640
        vertex 16.9440 -0.1000 0.9600
        vertex 16.8560 -0.1000 0.0360
    endloop
endfacet
facet normal 0.0000 -6.5074 0.0000
    outer loop
        vertex 18.3440 -0.1000 1.1880
        vertex 17.2160 -0.1000 1.7480
        vertex 16.9440 -0.1000 0.9600
    endloop
endfacet
facet normal 0.0000 -4.3684 0.0000
    outer loop
        vertex 16.9440 -0.1000 0.9600
        vertex 18.1920 -0.1000 0.6640
        vertex 18.3440 -0.1000 1.1880
    endloop
endfacet
facet normal 0.0000 -5.9914 0.0000
    outer loop
        vertex 17.6680 -0.1000 2.4000
        vertex 17.2160 -0.1000 1.7480
        vertex 18.5920 -0.1000 1.6120
    endloop
endfacet
facet normal 0.0000 -5.7501 0.0000
    outer loop
        vertex 18.5920 -0.1000 1.6120
        vertex 18.2680 -0.1000 2.8840
        vertex 17.6680 -0.1000 2.4000
    endloop
endfacet
facet normal 0.0000 -5.1435 0.0000
    outer loop
        vertex 18.2680 -0.1000 2.8840
        vertex 18.5920 -0.1000 1.6120
        vertex 19.1320 -0.1000 2.0320
    endloop
endfacet
facet normal 0.0000 -5.4534 0.0000
    outer loop
        vertex 19.1320 -0.1000 2.0320
        vertex 18.9960 -0.1000 3.1760
        vertex 18.2680 -0.1000 2.8840
    endloop
endfacet
facet normal 0.0000 -5.8850 0.0000
    outer loop
        vertex 19.8520 -0.1000 2.1720
        vertex 19.8520 -0.1000 3.2720
        vertex 18.9960 -0.1000 3.1760
    endloop
endfacet
facet normal 0.0000 -5.2670 0.0000
    outer loop
        vertex 18.9960 -0.1000 3.1760
        vertex 19.1320 -0.1000 2.0320
        vertex 19.8520 -0.1000 2.1720
    endloop
endfacet
facet normal 0.0000 -3.8572 0.0000
    outer loop
        vertex 17.2160 -0.1000 1.7480
        vertex 18.3440 -0.1000 1.1880
        vertex 18.5920 -0.1000 1.6120
    endloop
endfacet
facet normal 0.0000 -3.2304 0.0000
    outer loop
        vertex 20.7040 -0.1000 -3.1000
        vertex 20.7800 -0.1000 -1.8480
        vertex 20.3560 -0.1000 -2.0320
    endloop
endfacet
facet normal 0.0000 -5.8959 0.0000
    outer loop
        vertex 20.3560 -0.1000 -2.0320
        vertex 19.8520 -0.1000 -3.1960
        vertex 20.7040 -0.1000 -3.1000
    endloop
endfacet
facet normal 0.0000 -3.3432 0.0000
    outer loop
        vertex 21.4360 -0.1000 -2.8080
        vertex 21.1240 -0.1000 -1.5360
        vertex 20.7800 -0.1000 -1.8480
    endloop
endfacet
facet normal 0.0000 -5.5892 0.0000
    outer loop
        vertex 20.7800 -0.1000 -1.8480
        vertex 20.7040 -0.1000 -3.1000
        vertex 21.4360 -0.1000 -2.8080
    endloop
endfacet
facet normal 0.0000 -3.8394 0.0000
    outer loop
        vertex 22.4920 -0.1000 -1.6720
        vertex 21.3760 -0.1000 -1.1120
        vertex 21.1240 -0.1000 -1.5360
    endloop
endfacet
facet normal 0.0000 -5.9246 0.0000
    outer loop
        vertex 21.1240 -0.1000 -1.5360
        vertex 22.0400 -0.1000 -2.3200
        vertex 22.4920 -0.1000 -1.6720
    endloop
endfacet
facet normal 0.0000 -6.4483 0.0000
    outer loop
        vertex 21.3760 -0.1000 -1.1120
        vertex 22.4920 -0.1000 -1.6720
        vertex 22.7640 -0.1000 -0.8840
    endloop
endfacet
facet normal 0.0000 -4.3291 0.0000
    outer loop
        vertex 22.7640 -0.1000 -0.8840
        vertex 21.5280 -0.1000 -0.5880
        vertex 21.3760 -0.1000 -1.1120
    endloop
endfacet
facet normal 0.0000 -4.9920 0.0000
    outer loop
        vertex 22.8560 -0.1000 0.0360
        vertex 21.5760 -0.1000 0.0360
        vertex 21.5280 -0.1000 -0.5880
    endloop
endfacet
facet normal 0.0000 -7.2772 0.0000
    outer loop
        vertex 21.5280 -0.1000 -0.5880
        vertex 22.7640 -0.1000 -0.8840
        vertex 22.8560 -0.1000 0.0360
    endloop
endfacet
facet normal 0.0000 -5.7534 0.0000
    outer loop
        vertex 21.1240 -0.1000 -1.5360
        vertex 21.4360 -0.1000 -2.8080
        vertex 22.0400 -0.1000 -2.3200
    endloop
endfacet
facet normal 0.0000 -3.3518 0.0000
    outer loop
        vertex 20.7800 -0.1000 1.9200
        vertex 21.1240 -0.1000 1.6080
        vertex 21.4360 -0.1000 2.8840
    endloop
endfacet
facet normal 0.0000 -5.6075 0.0000
    outer loop
        vertex 21.4360 -0.1000 2.8840
        vertex 20.7040 -0.1000 3.1760
        vertex 20.7800 -0.1000 1.9200
    endloop
endfacet
facet normal 0.0000 -5.8959 0.0000
    outer loop
        vertex 20.7040 -0.1000 3.1760
        vertex 19.8520 -0.1000 3.2720
        vertex 20.3560 -0.1000 2.1080
    endloop
endfacet
facet normal 0.0000 -3.2391 0.0000
    outer loop
        vertex 20.3560 -0.1000 2.1080
        vertex 20.7800 -0.1000 1.9200
        vertex 20.7040 -0.1000 3.1760
    endloop
endfacet
facet normal 0.0000 -3.4650 0.0000
    outer loop
        vertex 19.8520 -0.1000 3.2720
        vertex 19.8520 -0.1000 2.1720
        vertex 20.3560 -0.1000 2.1080
    endloop
endfacet
facet normal 0.0000 -3.8052 0.0000
    outer loop
        vertex 22.4920 -0.1000 1.7440
        vertex 21.1240 -0.1000 1.6080
        vertex 21.3760 -0.1000 1.1880
    endloop
endfacet
facet normal 0.0000 -6.4136 0.0000
    outer loop
        vertex 21.3760 -0.1000 1.1880
        vertex 22.7640 -0.1000 0.9600
        vertex 22.4920 -0.1000 1.7440
    endloop
endfacet
facet normal 0.0000 -7.3081 0.0000
    outer loop
        vertex 22.8560 -0.1000 0.0360
        vertex 22.7640 -0.1000 0.9600
        vertex 21.5280 -0.1000 0.6640
    endloop
endfacet
facet normal 0.0000 -5.0240 0.0000
    outer loop
        vertex 21.5280 -0.1000 0.6640
        vertex 21.5760 -0.1000 0.0360
        vertex 22.8560 -0.1000 0.0360
    endloop
endfacet
facet normal 0.0000 -5.7685 0.0000
    outer loop
        vertex 22.0400 -0.1000 2.3960
        vertex 21.4360 -0.1000 2.8840
        vertex 21.1240 -0.1000 1.6080
    endloop
endfacet
facet normal 0.0000 -5.9588 0.0000
    outer loop
        vertex 21.1240 -0.1000 1.6080
        vertex 22.4920 -0.1000 1.7440
        vertex 22.0400 -0.1000 2.3960
    endloop
endfacet
facet normal 0.0000 -4.3291 0.0000
    outer loop
        vertex 21.3760 -0.1000 1.1880
        vertex 21.5280 -0.1000 0.6640
        vertex 22.7640 -0.1000 0.9600
    endloop
endfacet
facet normal 0.0000 -32.7794 0.0000
    outer loop
        vertex 23.8560 -0.1000 -3.0240
        vertex 25.1000 -0.1000 -3.0240
        vertex 25.1000 -0.1000 1.1920
    endloop
endfacet
facet normal 0.0000 -47.7074 0.0000
    outer loop
        vertex 25.1000 -0.1000 1.1920
        vertex 23.8560 -0.1000 3.1120
        vertex 23.8560 -0.1000 -3.0240
    endloop
endfacet
facet normal 0.0000 -15.8400 0.0000
    outer loop
        vertex 25.1760 -0.1000 3.1120
        vertex 23.8560 -0.1000 3.1120
        vertex 25.1000 -0.1000 1.1920
    endloop
endfacet
facet normal 0.0000 -31.9066 0.0000
    outer loop
        vertex 25.1000 -0.1000 1.1920
        vertex 27.6680 -0.1000 -1.1040
        vertex 25.1760 -0.1000 3.1120
    endloop
endfacet
facet normal 0.0000 -15.6480 0.0000
    outer loop
        vertex 27.6680 -0.1000 -1.1040
        vertex 27.6080 -0.1000 -3.0240
        vertex 28.9120 -0.1000 -3.0240
    endloop
endfacet
facet normal 0.0000 -47.7074 0.0000
    outer loop
        vertex 28.9120 -0.1000 -3.0240
        vertex 28.9120 -0.1000 3.1120
        vertex 27.6680 -0.1000 -1.1040
    endloop
endfacet
facet normal 0.0000 -32.7794 0.0000
    outer loop
        vertex 28.9120 -0.1000 3.1120
        vertex 27.6680 -0.1000 3.1120
        vertex 27.6680 -0.1000 -1.1040
    endloop
endfacet
facet normal 0.0000 -31.6770 0.0000
    outer loop
        vertex 25.1000 -0.1000 1.1920
        vertex 27.6080 -0.1000 -3.0240
        vertex 27.6680 -0.1000 -1.1040
    endloop
endfacet
facet normal 0.0000 -254.3800 0.0000
    outer loop
        vertex -15.1800 -0.1000 3.1120
        vertex 0.0000 -0.1000 4.4000
        vertex -31.6000 -0.1000 4.4000
    endloop
endfacet
facet normal 0.0000 -25.0838 0.0000
    outer loop
        vertex -31.6000 -0.1000 4.4000
        vertex -18.2960 -0.1000 3.1120
        vertex -15.1800 -0.1000 3.1120
    endloop
endfacet
facet normal 0.0000 -23.9568 0.0000
    outer loop
        vertex -31.6000 -0.1000 4.4000
        vertex -21.2720 -0.1000 3.1120
        vertex -18.2960 -0.1000 3.1120
    endloop
endfacet
facet normal 0.0000 -10.5938 0.0000
    outer loop
        vertex -31.6000 -0.1000 4.4000
        vertex -22.5880 -0.1000 3.1120
        vertex -21.2720 -0.1000 3.1120
    endloop
endfacet
facet normal 0.0000 -10.1752 0.0000
    outer loop
        vertex -31.6000 -0.1000 4.4000
        vertex -23.8520 -0.1000 3.1120
        vertex -22.5880 -0.1000 3.1120
    endloop
endfacet
facet normal 0.0000 -6.9230 0.0000
    outer loop
        vertex -31.6000 -0.1000 4.4000
        vertex -24.7120 -0.1000 3.1120
        vertex -23.8520 -0.1000 3.1120
    endloop
endfacet
facet normal 0.0000 -34.4862 0.0000
    outer loop
        vertex -31.6000 -0.1000 4.4000
        vertex -28.9960 -0.1000 3.1120
        vertex -24.7120 -0.1000 3.1120
    endloop
endfacet
facet normal 0.0000 -99.8634 0.0000
    outer loop
        vertex -28.9960 -0.1000 -3.0240
        vertex -28.9960 -0.1000 3.1120
        vertex -31.6000 -0.1000 4.4000
    endloop
endfacet
facet normal 0.0000 -143.2200 0.0000
    outer loop
        vertex -31.6000 -0.1000 4.4000
        vertex -31.6000 -0.1000 -4.4000
        vertex -28.9960 -0.1000 -3.0240
    endloop
endfacet
facet normal 0.0000 -10.6984 0.0000
    outer loop
        vertex -27.7520 -0.1000 -3.0240
        vertex -28.9960 -0.1000 -3.0240
        vertex -31.6000 -0.1000 -4.4000
    endloop
endfacet
facet normal 0.0000 -33.5400 0.0000
    outer loop
        vertex -23.8520 -0.1000 -3.0240
        vertex -27.7520 -0.1000 -3.0240
        vertex -31.6000 -0.1000 -4.4000
    endloop
endfacet
facet normal 0.0000 -63.6675 0.0000
    outer loop
        vertex -27.7520 -0.1000 -0.4120
        vertex -27.7520 -0.1000 -3.0240
        vertex -23.8520 -0.1000 -3.0240
    endloop
endfacet
facet normal 0.0000 -43.4898 0.0000
    outer loop
        vertex -23.8520 -0.1000 -3.0240
        vertex -25.0880 -0.1000 -0.4120
        vertex -27.7520 -0.1000 -0.4120
    endloop
endfacet
facet normal 0.0000 -8.2503 0.0000
    outer loop
        vertex -25.0880 -0.1000 0.6560
        vertex -25.0880 -0.1000 -0.4120
        vertex -23.8520 -0.1000 -3.0240
    endloop
endfacet
facet normal 0.0000 -19.3703 0.0000
    outer loop
        vertex -23.8520 -0.1000 -3.0240
        vertex -24.7120 -0.1000 2.0440
        vertex -25.0880 -0.1000 0.6560
    endloop
endfacet
facet normal 0.0000 -23.1102 0.0000
    outer loop
        vertex -27.7520 -0.1000 0.6560
        vertex -25.0880 -0.1000 0.6560
        vertex -24.7120 -0.1000 2.0440
    endloop
endfacet
facet normal 0.0000 -26.3720 0.0000
    outer loop
        vertex -24.7120 -0.1000 2.0440
        vertex -27.7520 -0.1000 2.0440
        vertex -27.7520 -0.1000 0.6560
    endloop
endfacet
facet normal 0.0000 -32.9810 0.0000
    outer loop
        vertex -24.7120 -0.1000 2.0440
        vertex -23.8520 -0.1000 -3.0240
        vertex -23.8520 -0.1000 3.1120
    endloop
endfacet
facet normal 0.0000 -5.7405 0.0000
    outer loop
        vertex -23.8520 -0.1000 3.1120
        vertex -24.7120 -0.1000 3.1120
        vertex -24.7120 -0.1000 2.0440
    endloop
endfacet
facet normal 0.0000 -10.8704 0.0000
    outer loop
        vertex -22.5880 -0.1000 -3.0240
        vertex -23.8520 -0.1000 -3.0240
        vertex -31.6000 -0.1000 -4.4000
    endloop
endfacet
facet normal 0.0000 -11.3176 0.0000
    outer loop
        vertex -21.2720 -0.1000 -3.0240
        vertex -22.5880 -0.1000 -3.0240
        vertex -31.6000 -0.1000 -4.4000
    endloop
endfacet
facet normal 0.0000 -50.4686 0.0000
    outer loop
        vertex -22.5880 -0.1000 3.1120
        vertex -22.5880 -0.1000 -3.0240
        vertex -21.2720 -0.1000 -3.0240
    endloop
endfacet
facet normal 0.0000 -50.4686 0.0000
    outer loop
        vertex -21.2720 -0.1000 -3.0240
        vertex -21.2720 -0.1000 3.1120
        vertex -22.5880 -0.1000 3.1120
    endloop
endfacet
facet normal 0.0000 -10.8704 0.0000
    outer loop
        vertex -20.0080 -0.1000 -3.0240
        vertex -21.2720 -0.1000 -3.0240
        vertex -31.6000 -0.1000 -4.4000
    endloop
endfacet
facet normal 0.0000 -20.7432 0.0000
    outer loop
        vertex -17.5960 -0.1000 -3.0240
        vertex -20.0080 -0.1000 -3.0240
        vertex -31.6000 -0.1000 -4.4000
    endloop
endfacet
facet normal 0.0000 -4.7637 0.0000
    outer loop
        vertex -17.6960 -0.1000 -2.7080
        vertex -20.0080 -0.1000 -3.0240
        vertex -17.5960 -0.1000 -3.0240
    endloop
endfacet
facet normal 0.0000 -6.6183 0.0000
    outer loop
        vertex -17.7400 -0.1000 -2.2560
        vertex -20.0080 -0.1000 -3.0240
        vertex -17.6960 -0.1000 -2.7080
    endloop
endfacet
facet normal 0.0000 -9.2814 0.0000
    outer loop
        vertex -20.0080 -0.1000 -3.0240
        vertex -17.7400 -0.1000 -2.2560
        vertex -17.7600 -0.1000 -1.6080
    endloop
endfacet
facet normal 0.0000 -33.5514 0.0000
    outer loop
        vertex -17.7600 -0.1000 -1.6080
        vertex -20.0080 -0.1000 -0.6360
        vertex -20.0080 -0.1000 -3.0240
    endloop
endfacet
facet normal 0.0000 -8.1162 0.0000
    outer loop
        vertex -18.6720 -0.1000 -0.6360
        vertex -20.0080 -0.1000 -0.6360
        vertex -17.7600 -0.1000 -1.6080
    endloop
endfacet
facet normal 0.0000 -2.3244 0.0000
    outer loop
        vertex -17.7600 -0.1000 -1.6080
        vertex -17.8240 -0.1000 -1.1320
        vertex -18.6720 -0.1000 -0.6360
    endloop
endfacet
facet normal 0.0000 -1.0512 0.0000
    outer loop
        vertex -18.2440 -0.1000 -0.6880
        vertex -18.6720 -0.1000 -0.6360
        vertex -17.8240 -0.1000 -1.1320
    endloop
endfacet
facet normal 0.0000 -0.3663 0.0000
    outer loop
        vertex -17.8240 -0.1000 -1.1320
        vertex -17.9720 -0.1000 -0.8360
        vertex -18.2440 -0.1000 -0.6880
    endloop
endfacet
facet normal 0.0000 -15.5925 0.0000
    outer loop
        vertex -18.4680 -0.1000 2.0520
        vertex -20.0080 -0.1000 2.0520
        vertex -20.0080 -0.1000 0.4320
    endloop
endfacet
facet normal 0.0000 -15.0255 0.0000
    outer loop
        vertex -20.0080 -0.1000 0.4320
        vertex -18.5240 -0.1000 0.4320
        vertex -18.4680 -0.1000 2.0520
    endloop
endfacet
facet normal 0.0000 -3.9062 0.0000
    outer loop
        vertex -18.0840 -0.1000 2.0000
        vertex -18.4680 -0.1000 2.0520
        vertex -18.5240 -0.1000 0.4320
    endloop
endfacet
facet normal 0.0000 -3.9840 0.0000
    outer loop
        vertex -18.5240 -0.1000 0.4320
        vertex -18.1040 -0.1000 0.4800
        vertex -18.0840 -0.1000 2.0000
    endloop
endfacet
facet normal 0.0000 -2.6410 0.0000
    outer loop
        vertex -17.8080 -0.1000 1.8480
        vertex -18.0840 -0.1000 2.0000
        vertex -18.1040 -0.1000 0.4800
    endloop
endfacet
facet normal 0.0000 -2.1960 0.0000
    outer loop
        vertex -18.1040 -0.1000 0.4800
        vertex -17.8160 -0.1000 0.6240
        vertex -17.8080 -0.1000 1.8480
    endloop
endfacet
facet normal 0.0000 -1.2674 0.0000
    outer loop
        vertex -17.6440 -0.1000 1.5920
        vertex -17.8080 -0.1000 1.8480
        vertex -17.8160 -0.1000 0.6240
    endloop
endfacet
facet normal 0.0000 -0.7697 0.0000
    outer loop
        vertex -17.8160 -0.1000 0.6240
        vertex -17.6440 -0.1000 0.8760
        vertex -17.6440 -0.1000 1.5920
    endloop
endfacet
facet normal 0.0000 -0.2506 0.0000
    outer loop
        vertex -17.6440 -0.1000 1.5920
        vertex -17.6440 -0.1000 0.8760
        vertex -17.5880 -0.1000 1.2400
    endloop
endfacet
facet normal 0.0000 -11.9024 0.0000
    outer loop
        vertex -16.2120 -0.1000 -3.0240
        vertex -17.5960 -0.1000 -3.0240
        vertex -31.6000 -0.1000 -4.4000
    endloop
endfacet
facet normal 0.0000 -8.8752 0.0000
    outer loop
        vertex -15.1800 -0.1000 -3.0240
        vertex -16.2120 -0.1000 -3.0240
        vertex -31.6000 -0.1000 -4.4000
    endloop
endfacet
facet normal 0.0000 -271.7600 0.0000
    outer loop
        vertex -31.6000 -0.1000 -4.4000
        vertex 0.0000 -0.1000 -4.4000
        vertex -15.1800 -0.1000 -3.0240
    endloop
endfacet
facet normal 0.0000 -1.1868 0.0000
    outer loop
        vertex -16.2120 -0.1000 -2.8400
        vertex -16.2120 -0.1000 -3.0240
        vertex -15.1800 -0.1000 -3.0240
    endloop
endfacet
facet normal 0.0000 -39.5772 0.0000
    outer loop
        vertex -15.1800 -0.1000 -3.0240
        vertex -15.1800 -0.1000 3.1120
        vertex -16.2120 -0.1000 -2.8400
    endloop
endfacet
facet normal 0.0000 -7.8690 0.0000
    outer loop
        vertex -16.3840 -0.1000 -2.6120
        vertex -16.2120 -0.1000 -2.8400
        vertex -15.1800 -0.1000 3.1120
    endloop
endfacet
facet normal 0.0000 -5.6006 0.0000
    outer loop
        vertex -15.1800 -0.1000 3.1120
        vertex -16.4480 -0.1000 -2.1720
        vertex -16.3840 -0.1000 -2.6120
    endloop
endfacet
facet normal 0.0000 -6.8843 0.0000
    outer loop
        vertex -15.1800 -0.1000 3.1120
        vertex -16.4760 -0.1000 -1.4200
        vertex -16.4480 -0.1000 -2.1720
    endloop
endfacet
facet normal 0.0000 -6.0411 0.0000
    outer loop
        vertex -16.5360 -0.1000 -0.8840
        vertex -16.4760 -0.1000 -1.4200
        vertex -15.1800 -0.1000 3.1120
    endloop
endfacet
facet normal 0.0000 -10.9503 0.0000
    outer loop
        vertex -15.1800 -0.1000 3.1120
        vertex -16.3840 -0.1000 0.8560
        vertex -16.5360 -0.1000 -0.8840
    endloop
endfacet
facet normal 0.0000 -1.7889 0.0000
    outer loop
        vertex -16.6680 -0.1000 -0.5120
        vertex -16.5360 -0.1000 -0.8840
        vertex -16.3840 -0.1000 0.8560
    endloop
endfacet
facet normal 0.0000 -0.7522 0.0000
    outer loop
        vertex -16.3840 -0.1000 0.8560
        vertex -16.5600 -0.1000 0.4320
        vertex -16.6680 -0.1000 -0.5120
    endloop
endfacet
facet normal 0.0000 -1.5180 0.0000
    outer loop
        vertex -16.8960 -0.1000 -0.2560
        vertex -16.6680 -0.1000 -0.5120
        vertex -16.5600 -0.1000 0.4320
    endloop
endfacet
facet normal 0.0000 -0.5832 0.0000
    outer loop
        vertex -16.5600 -0.1000 0.4320
        vertex -16.8480 -0.1000 0.1200
        vertex -16.8960 -0.1000 -0.2560
    endloop
endfacet
facet normal 0.0000 -0.8518 0.0000
    outer loop
        vertex -16.8480 -0.1000 0.1200
        vertex -17.2360 -0.1000 -0.0800
        vertex -16.8960 -0.1000 -0.2560
    endloop
endfacet
facet normal 0.0000 -3.0369 0.0000
    outer loop
        vertex -15.1800 -0.1000 3.1120
        vertex -16.3240 -0.1000 1.3720
        vertex -16.3840 -0.1000 0.8560
    endloop
endfacet
facet normal 0.0000 -6.7962 0.0000
    outer loop
        vertex -15.1800 -0.1000 3.1120
        vertex -16.4440 -0.1000 2.1400
        vertex -16.3240 -0.1000 1.3720
    endloop
endfacet
facet normal 0.0000 -6.5089 0.0000
    outer loop
        vertex -15.1800 -0.1000 3.1120
        vertex -16.8080 -0.1000 2.6840
        vertex -16.4440 -0.1000 2.1400
    endloop
endfacet
facet normal 0.0000 -3.4178 0.0000
    outer loop
        vertex -15.1800 -0.1000 3.1120
        vertex -17.1880 -0.1000 2.9200
        vertex -16.8080 -0.1000 2.6840
    endloop
endfacet
facet normal 0.0000 -2.4024 0.0000
    outer loop
        vertex -15.1800 -0.1000 3.1120
        vertex -17.6840 -0.1000 3.0640
        vertex -17.1880 -0.1000 2.9200
    endloop
endfacet
facet normal 0.0000 -0.9348 0.0000
    outer loop
        vertex -15.1800 -0.1000 3.1120
        vertex -18.2960 -0.1000 3.1120
        vertex -17.6840 -0.1000 3.0640
    endloop
endfacet
facet normal 0.0000 -39.6288 0.0000
    outer loop
        vertex -10.5720 -0.1000 -3.0240
        vertex -15.1800 -0.1000 -3.0240
        vertex 0.0000 -0.1000 -4.4000
    endloop
endfacet
facet normal 0.0000 -34.8428 0.0000
    outer loop
        vertex 0.0000 -0.1000 -4.4000
        vertex -5.6600 -0.1000 -3.1360
        vertex -10.5720 -0.1000 -3.0240
    endloop
endfacet
facet normal 0.0000 -5.1032 0.0000
    outer loop
        vertex -6.2640 -0.1000 -2.9560
        vertex -10.5720 -0.1000 -3.0240
        vertex -5.6600 -0.1000 -3.1360
    endloop
endfacet
facet normal 0.0000 -8.1806 0.0000
    outer loop
        vertex -6.7600 -0.1000 -2.6600
        vertex -10.5720 -0.1000 -3.0240
        vertex -6.2640 -0.1000 -2.9560
    endloop
endfacet
facet normal 0.0000 -10.5669 0.0000
    outer loop
        vertex -10.5720 -0.1000 -3.0240
        vertex -6.7600 -0.1000 -2.6600
        vertex -7.1320 -0.1000 -2.2520
    endloop
endfacet
facet normal 0.0000 -24.3380 0.0000
    outer loop
        vertex -7.1320 -0.1000 -2.2520
        vertex -10.5720 -0.1000 -1.8920
        vertex -10.5720 -0.1000 -3.0240
    endloop
endfacet
facet normal 0.0000 -10.4770 0.0000
    outer loop
        vertex -7.3680 -0.1000 -1.7400
        vertex -10.5720 -0.1000 -1.8920
        vertex -7.1320 -0.1000 -2.2520
    endloop
endfacet
facet normal 0.0000 -12.3503 0.0000
    outer loop
        vertex -10.5720 -0.1000 -1.8920
        vertex -7.3680 -0.1000 -1.7400
        vertex -7.4680 -0.1000 -1.1280
    endloop
endfacet
facet normal 0.0000 -32.6766 0.0000
    outer loop
        vertex -7.4680 -0.1000 -1.1280
        vertex -10.9960 -0.1000 -0.3120
        vertex -10.5720 -0.1000 -1.8920
    endloop
endfacet
facet normal 0.0000 -33.1800 0.0000
    outer loop
        vertex -13.9320 -0.1000 -1.8920
        vertex -10.5720 -0.1000 -1.8920
        vertex -10.9960 -0.1000 -0.3120
    endloop
endfacet
facet normal 0.0000 -28.9930 0.0000
    outer loop
        vertex -10.9960 -0.1000 -0.3120
        vertex -13.9320 -0.1000 -0.3120
        vertex -13.9320 -0.1000 -1.8920
    endloop
endfacet
facet normal 0.0000 -39.3606 0.0000
    outer loop
        vertex -7.2040 -0.1000 0.5960
        vertex -10.9960 -0.1000 -0.3120
        vertex -7.4680 -0.1000 -1.1280
    endloop
endfacet
facet normal 0.0000 -2.7626 0.0000
    outer loop
        vertex -7.4680 -0.1000 -1.1280
        vertex -6.9960 -0.1000 0.2800
        vertex -7.2040 -0.1000 0.5960
    endloop
endfacet
facet normal 0.0000 -3.2542 0.0000
    outer loop
        vertex -6.9960 -0.1000 0.2800
        vertex -7.4680 -0.1000 -1.1280
        vertex -6.7080 -0.1000 0.0360
    endloop
endfacet
facet normal 0.0000 -4.5952 0.0000
    outer loop
        vertex -6.2200 -0.1000 -0.1840
        vertex -6.7080 -0.1000 0.0360
        vertex -7.4680 -0.1000 -1.1280
    endloop
endfacet
facet normal 0.0000 -7.3396 0.0000
    outer loop
        vertex -7.4680 -0.1000 -1.1280
        vertex -6.2240 -0.1000 -1.1280
        vertex -6.2200 -0.1000 -0.1840
    endloop
endfacet
facet normal 0.0000 -4.3474 0.0000
    outer loop
        vertex -5.4840 -0.1000 -0.3840
        vertex -6.2200 -0.1000 -0.1840
        vertex -6.2240 -0.1000 -1.1280
    endloop
endfacet
facet normal 0.0000 -2.6860 0.0000
    outer loop
        vertex -6.2240 -0.1000 -1.1280
        vertex -6.0840 -0.1000 -1.5680
        vertex -5.4840 -0.1000 -0.3840
    endloop
endfacet
facet normal 0.0000 -1.3782 0.0000
    outer loop
        vertex -5.3160 -0.1000 -0.4200
        vertex -5.4840 -0.1000 -0.3840
        vertex -6.0840 -0.1000 -1.5680
    endloop
endfacet
facet normal 0.0000 -3.4492 0.0000
    outer loop
        vertex -6.0840 -0.1000 -1.5680
        vertex -5.8120 -0.1000 -1.8800
        vertex -5.3160 -0.1000 -0.4200
    endloop
endfacet
facet normal 0.0000 -4.3905 0.0000
    outer loop
        vertex -5.3160 -0.1000 -0.4200
        vertex -5.8120 -0.1000 -1.8800
        vertex -5.3920 -0.1000 -2.0600
    endloop
endfacet
facet normal 0.0000 -9.2293 0.0000
    outer loop
        vertex -5.3920 -0.1000 -2.0600
        vertex -4.4280 -0.1000 -0.6880
        vertex -5.3160 -0.1000 -0.4200
    endloop
endfacet
facet normal 0.0000 -5.2562 0.0000
    outer loop
        vertex -4.4280 -0.1000 -0.6880
        vertex -5.3920 -0.1000 -2.0600
        vertex -4.8240 -0.1000 -2.1240
    endloop
endfacet
facet normal 0.0000 -5.5729 0.0000
    outer loop
        vertex -4.8240 -0.1000 -2.1240
        vertex -3.8920 -0.1000 -0.9960
        vertex -4.4280 -0.1000 -0.6880
    endloop
endfacet
facet normal 0.0000 -3.1093 0.0000
    outer loop
        vertex -3.8920 -0.1000 -0.9960
        vertex -4.8240 -0.1000 -2.1240
        vertex -4.3400 -0.1000 -2.0720
    endloop
endfacet
facet normal 0.0000 -1.9102 0.0000
    outer loop
        vertex -4.3400 -0.1000 -2.0720
        vertex -3.9960 -0.1000 -1.9280
        vertex -3.8920 -0.1000 -0.9960
    endloop
endfacet
facet normal 0.0000 -1.2540 0.0000
    outer loop
        vertex -3.7160 -0.1000 -1.3480
        vertex -3.8920 -0.1000 -0.9960
        vertex -3.9960 -0.1000 -1.9280
    endloop
endfacet
facet normal 0.0000 -0.3415 0.0000
    outer loop
        vertex -3.9960 -0.1000 -1.9280
        vertex -3.7840 -0.1000 -1.6840
        vertex -3.7160 -0.1000 -1.3480
    endloop
endfacet
facet normal 0.0000 -24.8376 0.0000
    outer loop
        vertex -10.9960 -0.1000 0.7360
        vertex -10.9960 -0.1000 -0.3120
        vertex -7.2040 -0.1000 0.5960
    endloop
endfacet
facet normal 0.0000 -8.9888 0.0000
    outer loop
        vertex -7.2040 -0.1000 0.5960
        vertex -7.3320 -0.1000 0.9800
        vertex -10.9960 -0.1000 0.7360
    endloop
endfacet
facet normal 0.0000 -29.5323 0.0000
    outer loop
        vertex -10.9960 -0.1000 0.7360
        vertex -7.3320 -0.1000 0.9800
        vertex -10.7200 -0.1000 2.0440
    endloop
endfacet
facet normal 0.0000 -24.0018 0.0000
    outer loop
        vertex -10.7200 -0.1000 2.0440
        vertex -13.9320 -0.1000 0.7360
        vertex -10.9960 -0.1000 0.7360
    endloop
endfacet
facet normal 0.0000 -26.2581 0.0000
    outer loop
        vertex -10.7200 -0.1000 2.0440
        vertex -13.9320 -0.1000 2.0440
        vertex -13.9320 -0.1000 0.7360
    endloop
endfacet
facet normal 0.0000 -9.1938 0.0000
    outer loop
        vertex -10.7200 -0.1000 2.0440
        vertex -7.3320 -0.1000 0.9800
        vertex -7.3760 -0.1000 1.4280
    endloop
endfacet
facet normal 0.0000 -11.7986 0.0000
    outer loop
        vertex -10.7200 -0.1000 2.0440
        vertex -7.3760 -0.1000 1.4280
        vertex -7.3080 -0.1000 1.9800
    endloop
endfacet
facet normal 0.0000 -22.7751 0.0000
    outer loop
        vertex -7.3080 -0.1000 1.9800
        vertex -10.7200 -0.1000 3.1120
        vertex -10.7200 -0.1000 2.0440
    endloop
endfacet
facet normal 0.0000 -11.1675 0.0000
    outer loop
        vertex -10.7200 -0.1000 3.1120
        vertex -7.3080 -0.1000 1.9800
        vertex -7.1040 -0.1000 2.4360
    endloop
endfacet
facet normal 0.0000 -9.6460 0.0000
    outer loop
        vertex -10.7200 -0.1000 3.1120
        vertex -7.1040 -0.1000 2.4360
        vertex -6.7680 -0.1000 2.8000
    endloop
endfacet
facet normal 0.0000 -7.4334 0.0000
    outer loop
        vertex -10.7200 -0.1000 3.1120
        vertex -6.7680 -0.1000 2.8000
        vertex -6.3000 -0.1000 3.0640
    endloop
endfacet
facet normal 0.0000 -4.5952 0.0000
    outer loop
        vertex -5.7160 -0.1000 3.2240
        vertex -10.7200 -0.1000 3.1120
        vertex -6.3000 -0.1000 3.0640
    endloop
endfacet
facet normal 0.0000 -3.5339 0.0000
    outer loop
        vertex -5.6600 -0.1000 -3.1360
        vertex 0.0000 -0.1000 -4.4000
        vertex -4.9440 -0.1000 -3.1960
    endloop
endfacet
facet normal 0.0000 -7.1785 0.0000
    outer loop
        vertex -4.2200 -0.1000 -3.1400
        vertex -4.9440 -0.1000 -3.1960
        vertex 0.0000 -0.1000 -4.4000
    endloop
endfacet
facet normal 0.0000 -9.4300 0.0000
    outer loop
        vertex -3.6120 -0.1000 -2.9640
        vertex -4.2200 -0.1000 -3.1400
        vertex 0.0000 -0.1000 -4.4000
    endloop
endfacet
facet normal 0.0000 -29.0887 0.0000
    outer loop
        vertex 0.0000 -0.1000 -4.4000
        vertex -0.2200 -0.1000 -3.0240
        vertex -3.6120 -0.1000 -2.9640
    endloop
endfacet
facet normal 0.0000 -6.4582 0.0000
    outer loop
        vertex -3.1240 -0.1000 -2.6680
        vertex -3.6120 -0.1000 -2.9640
        vertex -0.2200 -0.1000 -3.0240
    endloop
endfacet
facet normal 0.0000 -7.9884 0.0000
    outer loop
        vertex -2.7640 -0.1000 -2.2720
        vertex -3.1240 -0.1000 -2.6680
        vertex -0.2200 -0.1000 -3.0240
    endloop
endfacet
facet normal 0.0000 -8.9016 0.0000
    outer loop
        vertex -2.5480 -0.1000 -1.7760
        vertex -2.7640 -0.1000 -2.2720
        vertex -0.2200 -0.1000 -3.0240
    endloop
endfacet
facet normal 0.0000 -9.1752 0.0000
    outer loop
        vertex -2.4760 -0.1000 -1.1840
        vertex -2.5480 -0.1000 -1.7760
        vertex -0.2200 -0.1000 -3.0240
    endloop
endfacet
facet normal 0.0000 -71.0640 0.0000
    outer loop
        vertex -0.2200 -0.1000 -3.0240
        vertex -0.2200 -0.1000 2.0160
        vertex -2.4760 -0.1000 -1.1840
    endloop
endfacet
facet normal 0.0000 -7.2204 0.0000
    outer loop
        vertex -2.5240 -0.1000 -0.7400
        vertex -2.4760 -0.1000 -1.1840
        vertex -0.2200 -0.1000 2.0160
    endloop
endfacet
facet normal 0.0000 -31.3495 0.0000
    outer loop
        vertex -0.2200 -0.1000 2.0160
        vertex -2.0400 -0.1000 2.0160
        vertex -2.5240 -0.1000 -0.7400
    endloop
endfacet
facet normal 0.0000 -3.5610 0.0000
    outer loop
        vertex -2.6640 -0.1000 -0.3600
        vertex -2.5240 -0.1000 -0.7400
        vertex -2.0400 -0.1000 2.0160
    endloop
endfacet
facet normal 0.0000 -6.9708 0.0000
    outer loop
        vertex -2.0400 -0.1000 2.0160
        vertex -2.6880 -0.1000 1.3360
        vertex -2.6640 -0.1000 -0.3600
    endloop
endfacet
facet normal 0.0000 -2.4554 0.0000
    outer loop
        vertex -2.6880 -0.1000 1.3360
        vertex -2.9000 -0.1000 -0.0520
        vertex -2.6640 -0.1000 -0.3600
    endloop
endfacet
facet normal 0.0000 -3.1687 0.0000
    outer loop
        vertex -2.6880 -0.1000 1.3360
        vertex -3.2280 -0.1000 0.1920
        vertex -2.9000 -0.1000 -0.0520
    endloop
endfacet
facet normal 0.0000 -4.2047 0.0000
    outer loop
        vertex -3.7160 -0.1000 0.4040
        vertex -3.2280 -0.1000 0.1920
        vertex -2.6880 -0.1000 1.3360
    endloop
endfacet
facet normal 0.0000 -7.0599 0.0000
    outer loop
        vertex -2.6880 -0.1000 1.3360
        vertex -3.9000 -0.1000 1.3360
        vertex -3.7160 -0.1000 0.4040
    endloop
endfacet
facet normal 0.0000 -2.0847 0.0000
    outer loop
        vertex -4.0960 -0.1000 0.5160
        vertex -3.7160 -0.1000 0.4040
        vertex -3.9000 -0.1000 1.3360
    endloop
endfacet
facet normal 0.0000 -1.0132 0.0000
    outer loop
        vertex -3.9000 -0.1000 1.3360
        vertex -4.0040 -0.1000 1.7280
        vertex -4.0960 -0.1000 0.5160
    endloop
endfacet
facet normal 0.0000 -4.4203 0.0000
    outer loop
        vertex -4.6680 -0.1000 0.6680
        vertex -4.0960 -0.1000 0.5160
        vertex -4.0040 -0.1000 1.7280
    endloop
endfacet
facet normal 0.0000 -2.7852 0.0000
    outer loop
        vertex -4.0040 -0.1000 1.7280
        vertex -4.2440 -0.1000 2.0160
        vertex -4.6680 -0.1000 0.6680
    endloop
endfacet
facet normal 0.0000 -3.9826 0.0000
    outer loop
        vertex -5.1080 -0.1000 0.7720
        vertex -4.6680 -0.1000 0.6680
        vertex -4.2440 -0.1000 2.0160
    endloop
endfacet
facet normal 0.0000 -3.8211 0.0000
    outer loop
        vertex -4.2440 -0.1000 2.0160
        vertex -4.6160 -0.1000 2.1880
        vertex -5.1080 -0.1000 0.7720
    endloop
endfacet
facet normal 0.0000 -5.7234 0.0000
    outer loop
        vertex -5.6880 -0.1000 0.9640
        vertex -5.1080 -0.1000 0.7720
        vertex -4.6160 -0.1000 2.1880
    endloop
endfacet
facet normal 0.0000 -4.2576 0.0000
    outer loop
        vertex -4.6160 -0.1000 2.1880
        vertex -5.1200 -0.1000 2.2480
        vertex -5.6880 -0.1000 0.9640
    endloop
endfacet
facet normal 0.0000 -3.6768 0.0000
    outer loop
        vertex -6.0400 -0.1000 1.2040
        vertex -5.6880 -0.1000 0.9640
        vertex -5.1200 -0.1000 2.2480
    endloop
endfacet
facet normal 0.0000 -2.5950 0.0000
    outer loop
        vertex -5.1200 -0.1000 2.2480
        vertex -5.5600 -0.1000 2.2000
        vertex -6.0400 -0.1000 1.2040
    endloop
endfacet
facet normal 0.0000 -1.6221 0.0000
    outer loop
        vertex -6.1560 -0.1000 1.5040
        vertex -6.0400 -0.1000 1.2040
        vertex -5.5600 -0.1000 2.2000
    endloop
endfacet
facet normal 0.0000 -0.8730 0.0000
    outer loop
        vertex -5.5600 -0.1000 2.2000
        vertex -5.8840 -0.1000 2.0560
        vertex -6.1560 -0.1000 1.5040
    endloop
endfacet
facet normal 0.0000 -0.3026 0.0000
    outer loop
        vertex -5.8840 -0.1000 2.0560
        vertex -6.0880 -0.1000 1.8200
        vertex -6.1560 -0.1000 1.5040
    endloop
endfacet
facet normal 0.0000 -2.6906 0.0000
    outer loop
        vertex -2.7760 -0.1000 1.9080
        vertex -2.6880 -0.1000 1.3360
        vertex -2.0400 -0.1000 2.0160
    endloop
endfacet
facet normal 0.0000 -5.0416 0.0000
    outer loop
        vertex -2.0400 -0.1000 2.0160
        vertex -2.0400 -0.1000 3.1120
        vertex -2.7760 -0.1000 1.9080
    endloop
endfacet
facet normal 0.0000 -3.7849 0.0000
    outer loop
        vertex -2.0400 -0.1000 3.1120
        vertex -2.9880 -0.1000 2.3840
        vertex -2.7760 -0.1000 1.9080
    endloop
endfacet
facet normal 0.0000 -3.8222 0.0000
    outer loop
        vertex -2.0400 -0.1000 3.1120
        vertex -3.3280 -0.1000 2.7680
        vertex -2.9880 -0.1000 2.3840
    endloop
endfacet
facet normal 0.0000 -3.2666 0.0000
    outer loop
        vertex -2.0400 -0.1000 3.1120
        vertex -3.7840 -0.1000 3.0520
        vertex -3.3280 -0.1000 2.7680
    endloop
endfacet
facet normal 0.0000 -2.0412 0.0000
    outer loop
        vertex -4.3440 -0.1000 3.2200
        vertex -3.7840 -0.1000 3.0520
        vertex -2.0400 -0.1000 3.1120
    endloop
endfacet
facet normal 0.0000 -19.9242 0.0000
    outer loop
        vertex -2.0400 -0.1000 3.1120
        vertex 0.0000 -0.1000 4.4000
        vertex -4.3440 -0.1000 3.2200
    endloop
endfacet
facet normal 0.0000 -10.8704 0.0000
    outer loop
        vertex 1.0440 -0.1000 -3.0240
        vertex -0.2200 -0.1000 -3.0240
        vertex 0.0000 -0.1000 -4.4000
    endloop
endfacet
facet normal 0.0000 -16.3400 0.0000
    outer loop
        vertex 2.9440 -0.1000 -3.0240
        vertex 1.0440 -0.1000 -3.0240
        vertex 0.0000 -0.1000 -4.4000
    endloop
endfacet
facet normal 0.0000 -59.8500 0.0000
    outer loop
        vertex 1.0440 -0.1000 2.0160
        vertex 1.0440 -0.1000 -3.0240
        vertex 2.9440 -0.1000 -3.0240
    endloop
endfacet
facet normal 0.0000 -56.9520 0.0000
    outer loop
        vertex 2.9440 -0.1000 -3.0240
        vertex 2.8520 -0.1000 2.0160
        vertex 1.0440 -0.1000 2.0160
    endloop
endfacet
facet normal 0.0000 -72.3242 0.0000
    outer loop
        vertex 2.8520 -0.1000 2.0160
        vertex 2.9440 -0.1000 -3.0240
        vertex 5.1280 -0.1000 3.1120
    endloop
endfacet
facet normal 0.0000 -15.5906 0.0000
    outer loop
        vertex 5.1280 -0.1000 3.1120
        vertex 2.8520 -0.1000 3.1120
        vertex 2.8520 -0.1000 2.0160
    endloop
endfacet
facet normal 0.0000 -11.4208 0.0000
    outer loop
        vertex 4.2720 -0.1000 -3.0240
        vertex 2.9440 -0.1000 -3.0240
        vertex 0.0000 -0.1000 -4.4000
    endloop
endfacet
facet normal 0.0000 -27.5200 0.0000
    outer loop
        vertex 7.4720 -0.1000 -3.0240
        vertex 4.2720 -0.1000 -3.0240
        vertex 0.0000 -0.1000 -4.4000
    endloop
endfacet
facet normal 0.0000 -25.2000 0.0000
    outer loop
        vertex 4.6760 -0.1000 -1.7640
        vertex 4.2720 -0.1000 -3.0240
        vertex 7.4720 -0.1000 -3.0240
    endloop
endfacet
facet normal 0.0000 -18.7425 0.0000
    outer loop
        vertex 7.4720 -0.1000 -3.0240
        vertex 7.0560 -0.1000 -1.7640
        vertex 4.6760 -0.1000 -1.7640
    endloop
endfacet
facet normal 0.0000 -27.8604 0.0000
    outer loop
        vertex 5.8600 -0.1000 1.8840
        vertex 5.0120 -0.1000 -0.7320
        vertex 6.7160 -0.1000 -0.7320
    endloop
endfacet
facet normal 0.0000 -11.3864 0.0000
    outer loop
        vertex 8.7960 -0.1000 -3.0240
        vertex 7.4720 -0.1000 -3.0240
        vertex 0.0000 -0.1000 -4.4000
    endloop
endfacet
facet normal 0.0000 -16.4088 0.0000
    outer loop
        vertex 10.7040 -0.1000 -3.0240
        vertex 8.7960 -0.1000 -3.0240
        vertex 0.0000 -0.1000 -4.4000
    endloop
endfacet
facet normal 0.0000 -60.1020 0.0000
    outer loop
        vertex 8.7960 -0.1000 -3.0240
        vertex 10.7040 -0.1000 -3.0240
        vertex 10.7040 -0.1000 2.0160
    endloop
endfacet
facet normal 0.0000 -57.4560 0.0000
    outer loop
        vertex 10.7040 -0.1000 2.0160
        vertex 8.8800 -0.1000 2.0160
        vertex 8.7960 -0.1000 -3.0240
    endloop
endfacet
facet normal 0.0000 -72.8994 0.0000
    outer loop
        vertex 6.5840 -0.1000 3.1120
        vertex 8.7960 -0.1000 -3.0240
        vertex 8.8800 -0.1000 2.0160
    endloop
endfacet
facet normal 0.0000 -15.7276 0.0000
    outer loop
        vertex 8.8800 -0.1000 2.0160
        vertex 8.8800 -0.1000 3.1120
        vertex 6.5840 -0.1000 3.1120
    endloop
endfacet
facet normal 0.0000 -10.8360 0.0000
    outer loop
        vertex 11.9640 -0.1000 -3.0240
        vertex 10.7040 -0.1000 -3.0240
        vertex 0.0000 -0.1000 -4.4000
    endloop
endfacet
facet normal 0.0000 -22.1880 0.0000
    outer loop
        vertex 14.5440 -0.1000 -3.0240
        vertex 11.9640 -0.1000 -3.0240
        vertex 0.0000 -0.1000 -4.4000
    endloop
endfacet
facet normal 0.0000 -81.2700 0.0000
    outer loop
        vertex 11.9640 -0.1000 2.0160
        vertex 11.9640 -0.1000 -3.0240
        vertex 14.5440 -0.1000 -3.0240
    endloop
endfacet
facet normal 0.0000 -57.0780 0.0000
    outer loop
        vertex 14.5440 -0.1000 -3.0240
        vertex 13.7760 -0.1000 2.0160
        vertex 11.9640 -0.1000 2.0160
    endloop
endfacet
facet normal 0.0000 -29.4528 0.0000
    outer loop
        vertex 13.7760 -0.1000 2.0160
        vertex 14.5440 -0.1000 -3.0240
        vertex 14.5440 -0.1000 3.1120
    endloop
endfacet
facet normal 0.0000 -5.2608 0.0000
    outer loop
        vertex 14.5440 -0.1000 3.1120
        vertex 13.7760 -0.1000 3.1120
        vertex 13.7760 -0.1000 2.0160
    endloop
endfacet
facet normal 0.0000 -10.8360 0.0000
    outer loop
        vertex 15.8040 -0.1000 -3.0240
        vertex 14.5440 -0.1000 -3.0240
        vertex 0.0000 -0.1000 -4.4000
    endloop
endfacet
facet normal 0.0000 -34.9581 0.0000
    outer loop
        vertex 0.0000 -0.1000 -4.4000
        vertex 18.9960 -0.1000 -3.1000
        vertex 15.8040 -0.1000 -3.0240
    endloop
endfacet
facet normal 0.0000 -5.4796 0.0000
    outer loop
        vertex 18.2680 -0.1000 -2.8080
        vertex 15.8040 -0.1000 -3.0240
        vertex 18.9960 -0.1000 -3.1000
    endloop
endfacet
facet normal 0.0000 -8.3252 0.0000
    outer loop
        vertex 17.6680 -0.1000 -2.3200
        vertex 15.8040 -0.1000 -3.0240
        vertex 18.2680 -0.1000 -2.8080
    endloop
endfacet
facet normal 0.0000 -9.5380 0.0000
    outer loop
        vertex 17.2160 -0.1000 -1.6720
        vertex 15.8040 -0.1000 -3.0240
        vertex 17.6680 -0.1000 -2.3200
    endloop
endfacet
facet normal 0.0000 -9.2525 0.0000
    outer loop
        vertex 16.9440 -0.1000 -0.8840
        vertex 15.8040 -0.1000 -3.0240
        vertex 17.2160 -0.1000 -1.6720
    endloop
endfacet
facet normal 0.0000 -7.7320 0.0000
    outer loop
        vertex 15.8040 -0.1000 -3.0240
        vertex 16.9440 -0.1000 -0.8840
        vertex 16.8560 -0.1000 0.0360
    endloop
endfacet
facet normal 0.0000 -40.3442 0.0000
    outer loop
        vertex 16.8560 -0.1000 0.0360
        vertex 15.8040 -0.1000 3.1120
        vertex 15.8040 -0.1000 -3.0240
    endloop
endfacet
facet normal 0.0000 -7.7671 0.0000
    outer loop
        vertex 15.8040 -0.1000 3.1120
        vertex 16.8560 -0.1000 0.0360
        vertex 16.9440 -0.1000 0.9600
    endloop
endfacet
facet normal 0.0000 -9.2729 0.0000
    outer loop
        vertex 15.8040 -0.1000 3.1120
        vertex 16.9440 -0.1000 0.9600
        vertex 17.2160 -0.1000 1.7480
    endloop
endfacet
facet normal 0.0000 -9.6072 0.0000
    outer loop
        vertex 15.8040 -0.1000 3.1120
        vertex 17.2160 -0.1000 1.7480
        vertex 17.6680 -0.1000 2.4000
    endloop
endfacet
facet normal 0.0000 -8.3086 0.0000
    outer loop
        vertex 15.8040 -0.1000 3.1120
        vertex 17.6680 -0.1000 2.4000
        vertex 18.2680 -0.1000 2.8840
    endloop
endfacet
facet normal 0.0000 -5.5342 0.0000
    outer loop
        vertex 18.9960 -0.1000 3.1760
        vertex 15.8040 -0.1000 3.1120
        vertex 18.2680 -0.1000 2.8840
    endloop
endfacet
facet normal 0.0000 -0.7290 0.0000
    outer loop
        vertex 20.3560 -0.1000 2.1080
        vertex 19.8520 -0.1000 2.1720
        vertex 19.1320 -0.1000 2.0320
    endloop
endfacet
facet normal 0.0000 -2.9565 0.0000
    outer loop
        vertex 19.1320 -0.1000 2.0320
        vertex 18.5920 -0.1000 1.6120
        vertex 20.3560 -0.1000 2.1080
    endloop
endfacet
facet normal 0.0000 -3.3871 0.0000
    outer loop
        vertex 20.7800 -0.1000 1.9200
        vertex 20.3560 -0.1000 2.1080
        vertex 18.5920 -0.1000 1.6120
    endloop
endfacet
facet normal 0.0000 -5.3208 0.0000
    outer loop
        vertex 18.5920 -0.1000 1.6120
        vertex 18.3440 -0.1000 1.1880
        vertex 20.7800 -0.1000 1.9200
    endloop
endfacet
facet normal 0.0000 -6.3240 0.0000
    outer loop
        vertex 21.1240 -0.1000 1.6080
        vertex 20.7800 -0.1000 1.9200
        vertex 18.3440 -0.1000 1.1880
    endloop
endfacet
facet normal 0.0000 -8.7055 0.0000
    outer loop
        vertex 18.3440 -0.1000 1.1880
        vertex 18.1920 -0.1000 0.6640
        vertex 21.1240 -0.1000 1.6080
    endloop
endfacet
facet normal 0.0000 -9.1833 0.0000
    outer loop
        vertex 21.3760 -0.1000 1.1880
        vertex 21.1240 -0.1000 1.6080
        vertex 18.1920 -0.1000 0.6640
    endloop
endfacet
facet normal 0.0000 -12.3400 0.0000
    outer loop
        vertex 18.1920 -0.1000 0.6640
        vertex 18.1440 -0.1000 0.0360
        vertex 21.3760 -0.1000 1.1880
    endloop
endfacet
facet normal 0.0000 -11.6792 0.0000
    outer loop
        vertex 21.5280 -0.1000 0.6640
        vertex 21.3760 -0.1000 1.1880
        vertex 18.1440 -0.1000 0.0360
    endloop
endfacet
facet normal 0.0000 -13.3860 0.0000
    outer loop
        vertex 18.1440 -0.1000 0.0360
        vertex 18.1920 -0.1000 -0.5880
        vertex 21.5280 -0.1000 0.6640
    endloop
endfacet
facet normal 0.0000 -13.4694 0.0000
    outer loop
        vertex 21.5760 -0.1000 0.0360
        vertex 21.5280 -0.1000 0.6640
        vertex 18.1920 -0.1000 -0.5880
    endloop
endfacet
facet normal 0.0000 -11.6754 0.0000
    outer loop
        vertex 18.1920 -0.1000 -0.5880
        vertex 18.3440 -0.1000 -1.1120
        vertex 21.5760 -0.1000 0.0360
    endloop
endfacet
facet normal 0.0000 -12.2604 0.0000
    outer loop
        vertex 21.5280 -0.1000 -0.5880
        vertex 21.5760 -0.1000 0.0360
        vertex 18.3440 -0.1000 -1.1120
    endloop
endfacet
facet normal 0.0000 -9.2498 0.0000
    outer loop
        vertex 18.3440 -0.1000 -1.1120
        vertex 18.5920 -0.1000 -1.5360
        vertex 21.5280 -0.1000 -0.5880
    endloop
endfacet
facet normal 0.0000 -8.7148 0.0000
    outer loop
        vertex 21.3760 -0.1000 -1.1120
        vertex 21.5280 -0.1000 -0.5880
        vertex 18.5920 -0.1000 -1.5360
    endloop
endfacet
facet normal 0.0000 -8.7390 0.0000
    outer loop
        vertex 18.5920 -0.1000 -1.5360
        vertex 19.1320 -0.1000 -1.9560
        vertex 21.3760 -0.1000 -1.1120
    endloop
endfacet
facet normal 0.0000 -4.6173 0.0000
    outer loop
        vertex 21.1240 -0.1000 -1.5360
        vertex 21.3760 -0.1000 -1.1120
        vertex 19.1320 -0.1000 -1.9560
    endloop
endfacet
facet normal 0.0000 -3.6330 0.0000
    outer loop
        vertex 19.1320 -0.1000 -1.9560
        vertex 19.8520 -0.1000 -2.0960
        vertex 21.1240 -0.1000 -1.5360
    endloop
endfacet
facet normal 0.0000 -1.2764 0.0000
    outer loop
        vertex 20.7800 -0.1000 -1.8480
        vertex 21.1240 -0.1000 -1.5360
        vertex 19.8520 -0.1000 -2.0960
    endloop
endfacet
facet normal 0.0000 -0.4100 0.0000
    outer loop
        vertex 19.8520 -0.1000 -2.0960
        vertex 20.3560 -0.1000 -2.0320
        vertex 20.7800 -0.1000 -1.8480
    endloop
endfacet
facet normal 0.0000 -18.3526 0.0000
    outer loop
        vertex 18.9960 -0.1000 -3.1000
        vertex 0.0000 -0.1000 -4.4000
        vertex 19.8520 -0.1000 -3.1960
    endloop
endfacet
facet normal 0.0000 -237.7900 0.0000
    outer loop
        vertex 19.8520 -0.1000 -3.1960
        vertex 0.0000 -0.1000 -4.4000
        vertex 31.6000 -0.1000 -4.4000
    endloop
endfacet
facet normal 0.0000 -13.4601 0.0000
    outer loop
        vertex 20.7040 -0.1000 -3.1000
        vertex 19.8520 -0.1000 -3.1960
        vertex 31.6000 -0.1000 -4.4000
    endloop
endfacet
facet normal 0.0000 -30.7856 0.0000
    outer loop
        vertex 31.6000 -0.1000 -4.4000
        vertex 23.8560 -0.1000 -3.0240
        vertex 20.7040 -0.1000 -3.1000
    endloop
endfacet
facet normal 0.0000 -5.4047 0.0000
    outer loop
        vertex 21.4360 -0.1000 -2.8080
        vertex 20.7040 -0.1000 -3.1000
        vertex 23.8560 -0.1000 -3.0240
    endloop
endfacet
facet normal 0.0000 -8.1964 0.0000
    outer loop
        vertex 22.0400 -0.1000 -2.3200
        vertex 21.4360 -0.1000 -2.8080
        vertex 23.8560 -0.1000 -3.0240
    endloop
endfacet
facet normal 0.0000 -9.3436 0.0000
    outer loop
        vertex 22.4920 -0.1000 -1.6720
        vertex 22.0400 -0.1000 -2.3200
        vertex 23.8560 -0.1000 -3.0240
    endloop
endfacet
facet normal 0.0000 -9.0161 0.0000
    outer loop
        vertex 22.7640 -0.1000 -0.8840
        vertex 22.4920 -0.1000 -1.6720
        vertex 23.8560 -0.1000 -3.0240
    endloop
endfacet
facet normal 0.0000 -7.5095 0.0000
    outer loop
        vertex 22.8560 -0.1000 0.0360
        vertex 22.7640 -0.1000 -0.8840
        vertex 23.8560 -0.1000 -3.0240
    endloop
endfacet
facet normal 0.0000 -38.3500 0.0000
    outer loop
        vertex 23.8560 -0.1000 -3.0240
        vertex 23.8560 -0.1000 3.1120
        vertex 22.8560 -0.1000 0.0360
    endloop
endfacet
facet normal 0.0000 -7.5437 0.0000
    outer loop
        vertex 23.8560 -0.1000 3.1120
        vertex 22.7640 -0.1000 0.9600
        vertex 22.8560 -0.1000 0.0360
    endloop
endfacet
facet normal 0.0000 -9.0092 0.0000
    outer loop
        vertex 23.8560 -0.1000 3.1120
        vertex 22.4920 -0.1000 1.7440
        vertex 22.7640 -0.1000 0.9600
    endloop
endfacet
facet normal 0.0000 -9.4229 0.0000
    outer loop
        vertex 23.8560 -0.1000 3.1120
        vertex 22.0400 -0.1000 2.3960
        vertex 22.4920 -0.1000 1.7440
    endloop
endfacet
facet normal 0.0000 -8.2417 0.0000
    outer loop
        vertex 23.8560 -0.1000 3.1120
        vertex 21.4360 -0.1000 2.8840
        vertex 22.0400 -0.1000 2.3960
    endloop
endfacet
facet normal 0.0000 -5.4596 0.0000
    outer loop
        vertex 20.7040 -0.1000 3.1760
        vertex 21.4360 -0.1000 2.8840
        vertex 23.8560 -0.1000 3.1120
    endloop
endfacet
facet normal 0.0000 -28.4712 0.0000
    outer loop
        vertex 23.8560 -0.1000 3.1120
        vertex 31.6000 -0.1000 4.4000
        vertex 20.7040 -0.1000 3.1760
    endloop
endfacet
facet normal 0.0000 -10.6984 0.0000
    outer loop
        vertex 25.1000 -0.1000 -3.0240
        vertex 23.8560 -0.1000 -3.0240
        vertex 31.6000 -0.1000 -4.4000
    endloop
endfacet
facet normal 0.0000 -21.5688 0.0000
    outer loop
        vertex 27.6080 -0.1000 -3.0240
        vertex 25.1000 -0.1000 -3.0240
        vertex 31.6000 -0.1000 -4.4000
    endloop
endfacet
facet normal 0.0000 -66.0858 0.0000
    outer loop
        vertex 25.1000 -0.1000 1.1920
        vertex 25.1000 -0.1000 -3.0240
        vertex 27.6080 -0.1000 -3.0240
    endloop
endfacet
facet normal 0.0000 -11.2144 0.0000
    outer loop
        vertex 28.9120 -0.1000 -3.0240
        vertex 27.6080 -0.1000 -3.0240
        vertex 31.6000 -0.1000 -4.4000
    endloop
endfacet
facet normal 0.0000 -103.0848 0.0000
    outer loop
        vertex 28.9120 -0.1000 3.1120
        vertex 28.9120 -0.1000 -3.0240
        vertex 31.6000 -0.1000 -4.4000
    endloop
endfacet
facet normal 0.0000 -147.8400 0.0000
    outer loop
        vertex 31.6000 -0.1000 -4.4000
        vertex 31.6000 -0.1000 4.4000
        vertex 28.9120 -0.1000 3.1120
    endloop
endfacet
facet normal 0.0000 -10.0142 0.0000
    outer loop
        vertex 31.6000 -0.1000 4.4000
        vertex 27.6680 -0.1000 3.1120
        vertex 28.9120 -0.1000 3.1120
    endloop
endfacet
facet normal 0.0000 -20.0606 0.0000
    outer loop
        vertex 31.6000 -0.1000 4.4000
        vertex 25.1760 -0.1000 3.1120
        vertex 27.6680 -0.1000 3.1120
    endloop
endfacet
facet normal 0.0000 -65.6642 0.0000
    outer loop
        vertex 27.6680 -0.1000 3.1120
        vertex 25.1760 -0.1000 3.1120
        vertex 27.6680 -0.1000 -1.1040
    endloop
endfacet
facet normal 0.0000 -10.6260 0.0000
    outer loop
        vertex 31.6000 -0.1000 4.4000
        vertex 23.8560 -0.1000 3.1120
        vertex 25.1760 -0.1000 3.1120
    endloop
endfacet
facet normal 0.0000 -13.0554 0.0000
    outer loop
        vertex 31.6000 -0.1000 4.4000
        vertex 19.8520 -0.1000 3.2720
        vertex 20.7040 -0.1000 3.1760
    endloop
endfacet
facet normal 0.0000 -222.7800 0.0000
    outer loop
        vertex 31.6000 -0.1000 4.4000
        vertex 0.0000 -0.1000 4.4000
        vertex 19.8520 -0.1000 3.2720
    endloop
endfacet
facet normal 0.0000 -17.9460 0.0000
    outer loop
        vertex 18.9960 -0.1000 3.1760
        vertex 19.8520 -0.1000 3.2720
        vertex 0.0000 -0.1000 4.4000
    endloop
endfacet
facet normal 0.0000 -32.0172 0.0000
    outer loop
        vertex 0.0000 -0.1000 4.4000
        vertex 15.8040 -0.1000 3.1120
        vertex 18.9960 -0.1000 3.1760
    endloop
endfacet
facet normal 0.0000 -10.1430 0.0000
    outer loop
        vertex 0.0000 -0.1000 4.4000
        vertex 14.5440 -0.1000 3.1120
        vertex 15.8040 -0.1000 3.1120
    endloop
endfacet
facet normal 0.0000 -6.1824 0.0000
    outer loop
        vertex 0.0000 -0.1000 4.4000
        vertex 13.7760 -0.1000 3.1120
        vertex 14.5440 -0.1000 3.1120
    endloop
endfacet
facet normal 0.0000 -39.4128 0.0000
    outer loop
        vertex 0.0000 -0.1000 4.4000
        vertex 8.8800 -0.1000 3.1120
        vertex 13.7760 -0.1000 3.1120
    endloop
endfacet
facet normal 0.0000 -18.4828 0.0000
    outer loop
        vertex 0.0000 -0.1000 4.4000
        vertex 6.5840 -0.1000 3.1120
        vertex 8.8800 -0.1000 3.1120
    endloop
endfacet
facet normal 0.0000 -11.7208 0.0000
    outer loop
        vertex 0.0000 -0.1000 4.4000
        vertex 5.1280 -0.1000 3.1120
        vertex 6.5840 -0.1000 3.1120
    endloop
endfacet
facet normal 0.0000 -18.3218 0.0000
    outer loop
        vertex 0.0000 -0.1000 4.4000
        vertex 2.8520 -0.1000 3.1120
        vertex 5.1280 -0.1000 3.1120
    endloop
endfacet
facet normal 0.0000 -39.3806 0.0000
    outer loop
        vertex 0.0000 -0.1000 4.4000
        vertex -2.0400 -0.1000 3.1120
        vertex 2.8520 -0.1000 3.1120
    endloop
endfacet
facet normal 0.0000 -6.4174 0.0000
    outer loop
        vertex 0.0000 -0.1000 4.4000
        vertex -5.0080 -0.1000 3.2760
        vertex -4.3440 -0.1000 3.2200
    endloop
endfacet
facet normal 0.0000 -3.3461 0.0000
    outer loop
        vertex -5.7160 -0.1000 3.2240
        vertex -5.0080 -0.1000 3.2760
        vertex 0.0000 -0.1000 4.4000
    endloop
endfacet
facet normal 0.0000 -32.7782 0.0000
    outer loop
        vertex 0.0000 -0.1000 4.4000
        vertex -10.7200 -0.1000 3.1120
        vertex -5.7160 -0.1000 3.2240
    endloop
endfacet
facet normal 0.0000 -35.9030 0.0000
    outer loop
        vertex 0.0000 -0.1000 4.4000
        vertex -15.1800 -0.1000 3.1120
        vertex -10.7200 -0.1000 3.1120
    endloop
endfacet
endsolid GiantLegoRocks
