solid GiantLegoRocks
facet normal 0.0000 -7.4945 0.0000
    outer loop
        vertex 3.0440 -0.1000 3.9672
        vertex 3.3096 -0.1000 3.7340
        vertex 5.7136 -0.1000 6.1380
    endloop
endfacet
facet normal 0.0000 -16.9181 0.0000
    outer loop
        vertex 5.7136 -0.1000 6.1380
        vertex 5.1140 -0.1000 6.6644
        vertex 3.0440 -0.1000 3.9672
    endloop
endfacet
facet normal 0.0000 -13.8642 0.0000
    outer loop
        vertex 2.5000 -0.1000 4.3300
        vertex 3.0440 -0.1000 3.9672
        vertex 5.1140 -0.1000 6.6644
    endloop
endfacet
facet normal 0.0000 -23.3011 0.0000
    outer loop
        vertex 5.1140 -0.1000 6.6644
        vertex 4.2000 -0.1000 7.2744
        vertex 2.5000 -0.1000 4.3300
    endloop
endfacet
facet normal 0.0000 -13.8682 0.0000
    outer loop
        vertex 1.9136 -0.1000 4.6196
        vertex 2.5000 -0.1000 4.3300
        vertex 4.2000 -0.1000 7.2744
    endloop
endfacet
facet normal 0.0000 -23.2976 0.0000
    outer loop
        vertex 4.2000 -0.1000 7.2744
        vertex 3.2148 -0.1000 7.7608
        vertex 1.9136 -0.1000 4.6196
    endloop
endfacet
facet normal 0.0000 -13.8721 0.0000
    outer loop
        vertex 1.2940 -0.1000 4.8296
        vertex 1.9136 -0.1000 4.6196
        vertex 3.2148 -0.1000 7.7608
    endloop
endfacet
facet normal 0.0000 -23.3028 0.0000
    outer loop
        vertex 3.2148 -0.1000 7.7608
        vertex 2.1740 -0.1000 8.1136
        vertex 1.2940 -0.1000 4.8296
    endloop
endfacet
facet normal 0.0000 -13.8706 0.0000
    outer loop
        vertex 0.6524 -0.1000 4.9572
        vertex 1.2940 -0.1000 4.8296
        vertex 2.1740 -0.1000 8.1136
    endloop
endfacet
facet normal 0.0000 -23.2935 0.0000
    outer loop
        vertex 2.1740 -0.1000 8.1136
        vertex 1.0964 -0.1000 8.3276
        vertex 0.6524 -0.1000 4.9572
    endloop
endfacet
facet normal 0.0000 -13.8616 0.0000
    outer loop
        vertex 0.0000 -0.1000 5.0000
        vertex 0.6524 -0.1000 4.9572
        vertex 1.0964 -0.1000 8.3276
    endloop
endfacet
facet normal 0.0000 -23.2985 0.0000
    outer loop
        vertex 1.0964 -0.1000 8.3276
        vertex 0.0000 -0.1000 8.4000
        vertex 0.0000 -0.1000 5.0000
    endloop
endfacet
facet normal 0.0000 -13.8635 0.0000
    outer loop
        vertex -0.6524 -0.1000 4.9572
        vertex 0.0000 -0.1000 5.0000
        vertex 0.0000 -0.1000 8.4000
    endloop
endfacet
facet normal 0.0000 -23.2966 0.0000
    outer loop
        vertex 0.0000 -0.1000 8.4000
        vertex -1.0964 -0.1000 8.3276
        vertex -0.6524 -0.1000 4.9572
    endloop
endfacet
facet normal 0.0000 -13.8694 0.0000
    outer loop
        vertex -1.2940 -0.1000 4.8296
        vertex -0.6524 -0.1000 4.9572
        vertex -1.0964 -0.1000 8.3276
    endloop
endfacet
facet normal 0.0000 -23.2947 0.0000
    outer loop
        vertex -1.0964 -0.1000 8.3276
        vertex -2.1740 -0.1000 8.1136
        vertex -1.2940 -0.1000 4.8296
    endloop
endfacet
facet normal 0.0000 -13.8723 0.0000
    outer loop
        vertex -1.9136 -0.1000 4.6196
        vertex -1.2940 -0.1000 4.8296
        vertex -2.1740 -0.1000 8.1136
    endloop
endfacet
facet normal 0.0000 -23.3027 0.0000
    outer loop
        vertex -2.1740 -0.1000 8.1136
        vertex -3.2148 -0.1000 7.7608
        vertex -1.9136 -0.1000 4.6196
    endloop
endfacet
facet normal 0.0000 -13.8677 0.0000
    outer loop
        vertex -2.5000 -0.1000 4.3300
        vertex -1.9136 -0.1000 4.6196
        vertex -3.2148 -0.1000 7.7608
    endloop
endfacet
facet normal 0.0000 -23.2981 0.0000
    outer loop
        vertex -3.2148 -0.1000 7.7608
        vertex -4.2000 -0.1000 7.2744
        vertex -2.5000 -0.1000 4.3300
    endloop
endfacet
facet normal 0.0000 -13.8657 0.0000
    outer loop
        vertex -3.0440 -0.1000 3.9672
        vertex -2.5000 -0.1000 4.3300
        vertex -4.2000 -0.1000 7.2744
    endloop
endfacet
facet normal 0.0000 -23.2996 0.0000
    outer loop
        vertex -4.2000 -0.1000 7.2744
        vertex -5.1140 -0.1000 6.6644
        vertex -3.0440 -0.1000 3.9672
    endloop
endfacet
facet normal 0.0000 -7.4944 0.0000
    outer loop
        vertex -3.3096 -0.1000 3.7340
        vertex -3.0440 -0.1000 3.9672
        vertex -5.1140 -0.1000 6.6644
    endloop
endfacet
facet normal 0.0000 -16.9182 0.0000
    outer loop
        vertex -5.1140 -0.1000 6.6644
        vertex -5.7136 -0.1000 6.1380
        vertex -3.3096 -0.1000 3.7340
    endloop
endfacet
facet normal 0.0000 -7.4945 0.0000
    outer loop
        vertex -3.0440 -0.1000 -3.9672
        vertex -3.3096 -0.1000 -3.7340
        vertex -5.7136 -0.1000 -6.1380
    endloop
endfacet
facet normal 0.0000 -16.9181 0.0000
    outer loop
        vertex -5.7136 -0.1000 -6.1380
        vertex -5.1140 -0.1000 -6.6644
        vertex -3.0440 -0.1000 -3.9672
    endloop
endfacet
facet normal 0.0000 -13.8642 0.0000
    outer loop
        vertex -2.5000 -0.1000 -4.3300
        vertex -3.0440 -0.1000 -3.9672
        vertex -5.1140 -0.1000 -6.6644
    endloop
endfacet
facet normal 0.0000 -23.3011 0.0000
    outer loop
        vertex -5.1140 -0.1000 -6.6644
        vertex -4.2000 -0.1000 -7.2744
        vertex -2.5000 -0.1000 -4.3300
    endloop
endfacet
facet normal 0.0000 -13.8682 0.0000
    outer loop
        vertex -1.9136 -0.1000 -4.6196
        vertex -2.5000 -0.1000 -4.3300
        vertex -4.2000 -0.1000 -7.2744
    endloop
endfacet
facet normal 0.0000 -23.2976 0.0000
    outer loop
        vertex -4.2000 -0.1000 -7.2744
        vertex -3.2148 -0.1000 -7.7608
        vertex -1.9136 -0.1000 -4.6196
    endloop
endfacet
facet normal 0.0000 -13.8721 0.0000
    outer loop
        vertex -1.2940 -0.1000 -4.8296
        vertex -1.9136 -0.1000 -4.6196
        vertex -3.2148 -0.1000 -7.7608
    endloop
endfacet
facet normal 0.0000 -23.3028 0.0000
    outer loop
        vertex -3.2148 -0.1000 -7.7608
        vertex -2.1740 -0.1000 -8.1136
        vertex -1.2940 -0.1000 -4.8296
    endloop
endfacet
facet normal 0.0000 -13.8706 0.0000
    outer loop
        vertex -0.6524 -0.1000 -4.9572
        vertex -1.2940 -0.1000 -4.8296
        vertex -2.1740 -0.1000 -8.1136
    endloop
endfacet
facet normal 0.0000 -23.2935 0.0000
    outer loop
        vertex -2.1740 -0.1000 -8.1136
        vertex -1.0964 -0.1000 -8.3276
        vertex -0.6524 -0.1000 -4.9572
    endloop
endfacet
facet normal 0.0000 -13.8616 0.0000
    outer loop
        vertex 0.0000 -0.1000 -5.0000
        vertex -0.6524 -0.1000 -4.9572
        vertex -1.0964 -0.1000 -8.3276
    endloop
endfacet
facet normal 0.0000 -23.2985 0.0000
    outer loop
        vertex -1.0964 -0.1000 -8.3276
        vertex 0.0000 -0.1000 -8.4000
        vertex 0.0000 -0.1000 -5.0000
    endloop
endfacet
facet normal 0.0000 -13.8635 0.0000
    outer loop
        vertex 0.6524 -0.1000 -4.9572
        vertex 0.0000 -0.1000 -5.0000
        vertex 0.0000 -0.1000 -8.4000
    endloop
endfacet
facet normal 0.0000 -23.2966 0.0000
    outer loop
        vertex 0.0000 -0.1000 -8.4000
        vertex 1.0964 -0.1000 -8.3276
        vertex 0.6524 -0.1000 -4.9572
    endloop
endfacet
facet normal 0.0000 -13.8694 0.0000
    outer loop
        vertex 1.2940 -0.1000 -4.8296
        vertex 0.6524 -0.1000 -4.9572
        vertex 1.0964 -0.1000 -8.3276
    endloop
endfacet
facet normal 0.0000 -23.2947 0.0000
    outer loop
        vertex 1.0964 -0.1000 -8.3276
        vertex 2.1740 -0.1000 -8.1136
        vertex 1.2940 -0.1000 -4.8296
    endloop
endfacet
facet normal 0.0000 -13.8723 0.0000
    outer loop
        vertex 1.9136 -0.1000 -4.6196
        vertex 1.2940 -0.1000 -4.8296
        vertex 2.1740 -0.1000 -8.1136
    endloop
endfacet
facet normal 0.0000 -23.3027 0.0000
    outer loop
        vertex 2.1740 -0.1000 -8.1136
        vertex 3.2148 -0.1000 -7.7608
        vertex 1.9136 -0.1000 -4.6196
    endloop
endfacet
facet normal 0.0000 -13.8677 0.0000
    outer loop
        vertex 2.5000 -0.1000 -4.3300
        vertex 1.9136 -0.1000 -4.6196
        vertex 3.2148 -0.1000 -7.7608
    endloop
endfacet
facet normal 0.0000 -23.2981 0.0000
    outer loop
        vertex 3.2148 -0.1000 -7.7608
        vertex 4.2000 -0.1000 -7.2744
        vertex 2.5000 -0.1000 -4.3300
    endloop
endfacet
facet normal 0.0000 -13.8657 0.0000
    outer loop
        vertex 3.0440 -0.1000 -3.9672
        vertex 2.5000 -0.1000 -4.3300
        vertex 4.2000 -0.1000 -7.2744
    endloop
endfacet
facet normal 0.0000 -23.2996 0.0000
    outer loop
        vertex 4.2000 -0.1000 -7.2744
        vertex 5.1140 -0.1000 -6.6644
        vertex 3.0440 -0.1000 -3.9672
    endloop
endfacet
facet normal 0.0000 -7.4944 0.0000
    outer loop
        vertex 3.3096 -0.1000 -3.7340
        vertex 3.0440 -0.1000 -3.9672
        vertex 5.1140 -0.1000 -6.6644
    endloop
endfacet
facet normal 0.0000 -16.9182 0.0000
    outer loop
        vertex 5.1140 -0.1000 -6.6644
        vertex 5.7136 -0.1000 -6.1380
        vertex 3.3096 -0.1000 -3.7340
    endloop
endfacet
facet normal 0.0000 -0.3805 0.0000
    outer loop
        vertex 0.0000 -0.1000 0.0000
        vertex 4.4000 -0.1000 0.0000
        vertex 4.3622 -0.1000 0.5742
    endloop
endfacet
facet normal 0.0000 -0.3805 0.0000
    outer loop
        vertex 0.0000 -0.1000 0.0000
        vertex 4.3622 -0.1000 0.5742
        vertex 4.2500 -0.1000 1.1387
    endloop
endfacet
facet normal 0.0000 -0.3805 0.0000
    outer loop
        vertex 0.0000 -0.1000 0.0000
        vertex 4.2500 -0.1000 1.1387
        vertex 4.0652 -0.1000 1.6839
    endloop
endfacet
facet normal 0.0000 -0.3805 0.0000
    outer loop
        vertex 0.0000 -0.1000 0.0000
        vertex 4.0652 -0.1000 1.6839
        vertex 3.8104 -0.1000 2.2000
    endloop
endfacet
facet normal 0.0000 -0.3805 0.0000
    outer loop
        vertex 0.0000 -0.1000 0.0000
        vertex 3.8104 -0.1000 2.2000
        vertex 3.4910 -0.1000 2.6787
    endloop
endfacet
facet normal 0.0000 -0.3805 0.0000
    outer loop
        vertex 0.0000 -0.1000 0.0000
        vertex 3.4910 -0.1000 2.6787
        vertex 3.1112 -0.1000 3.1112
    endloop
endfacet
facet normal 0.0000 -0.3805 0.0000
    outer loop
        vertex 0.0000 -0.1000 0.0000
        vertex 3.1112 -0.1000 3.1112
        vertex 2.6787 -0.1000 3.4910
    endloop
endfacet
facet normal 0.0000 -0.3805 0.0000
    outer loop
        vertex 0.0000 -0.1000 0.0000
        vertex 2.6787 -0.1000 3.4910
        vertex 2.2000 -0.1000 3.8104
    endloop
endfacet
facet normal 0.0000 -0.3805 0.0000
    outer loop
        vertex 0.0000 -0.1000 0.0000
        vertex 2.2000 -0.1000 3.8104
        vertex 1.6839 -0.1000 4.0652
    endloop
endfacet
facet normal 0.0000 -0.3805 0.0000
    outer loop
        vertex 0.0000 -0.1000 0.0000
        vertex 1.6839 -0.1000 4.0652
        vertex 1.1387 -0.1000 4.2500
    endloop
endfacet
facet normal 0.0000 -0.3805 0.0000
    outer loop
        vertex 0.0000 -0.1000 0.0000
        vertex 1.1387 -0.1000 4.2500
        vertex 0.5742 -0.1000 4.3622
    endloop
endfacet
facet normal 0.0000 -0.3805 0.0000
    outer loop
        vertex 0.0000 -0.1000 0.0000
        vertex 0.5742 -0.1000 4.3622
        vertex 0.0000 -0.1000 4.4000
    endloop
endfacet
facet normal 0.0000 -0.3805 0.0000
    outer loop
        vertex 0.0000 -0.1000 0.0000
        vertex 0.0000 -0.1000 4.4000
        vertex -0.5742 -0.1000 4.3622
    endloop
endfacet
facet normal 0.0000 -0.3805 0.0000
    outer loop
        vertex 0.0000 -0.1000 0.0000
        vertex -0.5742 -0.1000 4.3622
        vertex -1.1387 -0.1000 4.2500
    endloop
endfacet
facet normal 0.0000 -0.3805 0.0000
    outer loop
        vertex 0.0000 -0.1000 0.0000
        vertex -1.1387 -0.1000 4.2500
        vertex -1.6839 -0.1000 4.0652
    endloop
endfacet
facet normal 0.0000 -0.3805 0.0000
    outer loop
        vertex 0.0000 -0.1000 0.0000
        vertex -1.6839 -0.1000 4.0652
        vertex -2.2000 -0.1000 3.8104
    endloop
endfacet
facet normal 0.0000 -0.3805 0.0000
    outer loop
        vertex 0.0000 -0.1000 0.0000
        vertex -2.2000 -0.1000 3.8104
        vertex -2.6787 -0.1000 3.4910
    endloop
endfacet
facet normal 0.0000 -0.3805 0.0000
    outer loop
        vertex 0.0000 -0.1000 0.0000
        vertex -2.6787 -0.1000 3.4910
        vertex -3.1112 -0.1000 3.1112
    endloop
endfacet
facet normal 0.0000 -0.3805 0.0000
    outer loop
        vertex 0.0000 -0.1000 0.0000
        vertex -3.1112 -0.1000 3.1112
        vertex -3.4910 -0.1000 2.6787
    endloop
endfacet
facet normal 0.0000 -0.3805 0.0000
    outer loop
        vertex 0.0000 -0.1000 0.0000
        vertex -3.4910 -0.1000 2.6787
        vertex -3.8104 -0.1000 2.2000
    endloop
endfacet
facet normal 0.0000 -0.3805 0.0000
    outer loop
        vertex 0.0000 -0.1000 0.0000
        vertex -3.8104 -0.1000 2.2000
        vertex -4.0652 -0.1000 1.6839
    endloop
endfacet
facet normal 0.0000 -0.3805 0.0000
    outer loop
        vertex 0.0000 -0.1000 0.0000
        vertex -4.0652 -0.1000 1.6839
        vertex -4.2500 -0.1000 1.1387
    endloop
endfacet
facet normal 0.0000 -0.3805 0.0000
    outer loop
        vertex 0.0000 -0.1000 0.0000
        vertex -4.2500 -0.1000 1.1387
        vertex -4.3622 -0.1000 0.5742
    endloop
endfacet
facet normal 0.0000 -0.3805 0.0000
    outer loop
        vertex 0.0000 -0.1000 0.0000
        vertex -4.3622 -0.1000 0.5742
        vertex -4.4000 -0.1000 0.0000
    endloop
endfacet
facet normal 0.0000 -0.3805 0.0000
    outer loop
        vertex 0.0000 -0.1000 0.0000
        vertex -4.4000 -0.1000 0.0000
        vertex -4.3622 -0.1000 -0.5742
    endloop
endfacet
facet normal 0.0000 -0.3805 0.0000
    outer loop
        vertex 0.0000 -0.1000 0.0000
        vertex -4.3622 -0.1000 -0.5742
        vertex -4.2500 -0.1000 -1.1387
    endloop
endfacet
facet normal 0.0000 -0.3805 0.0000
    outer loop
        vertex 0.0000 -0.1000 0.0000
        vertex -4.2500 -0.1000 -1.1387
        vertex -4.0652 -0.1000 -1.6839
    endloop
endfacet
facet normal 0.0000 -0.3805 0.0000
    outer loop
        vertex 0.0000 -0.1000 0.0000
        vertex -4.0652 -0.1000 -1.6839
        vertex -3.8104 -0.1000 -2.2000
    endloop
endfacet
facet normal 0.0000 -0.3805 0.0000
    outer loop
        vertex 0.0000 -0.1000 0.0000
        vertex -3.8104 -0.1000 -2.2000
        vertex -3.4910 -0.1000 -2.6787
    endloop
endfacet
facet normal 0.0000 -0.3805 0.0000
    outer loop
        vertex 0.0000 -0.1000 0.0000
        vertex -3.4910 -0.1000 -2.6787
        vertex -3.1112 -0.1000 -3.1112
    endloop
endfacet
facet normal 0.0000 -0.3805 0.0000
    outer loop
        vertex 0.0000 -0.1000 0.0000
        vertex -3.1112 -0.1000 -3.1112
        vertex -2.6787 -0.1000 -3.4910
    endloop
endfacet
facet normal 0.0000 -0.3805 0.0000
    outer loop
        vertex 0.0000 -0.1000 0.0000
        vertex -2.6787 -0.1000 -3.4910
        vertex -2.2000 -0.1000 -3.8104
    endloop
endfacet
facet normal 0.0000 -0.3805 0.0000
    outer loop
        vertex 0.0000 -0.1000 0.0000
        vertex -2.2000 -0.1000 -3.8104
        vertex -1.6839 -0.1000 -4.0652
    endloop
endfacet
facet normal 0.0000 -0.3805 0.0000
    outer loop
        vertex 0.0000 -0.1000 0.0000
        vertex -1.6839 -0.1000 -4.0652
        vertex -1.1387 -0.1000 -4.2500
    endloop
endfacet
facet normal 0.0000 -0.3805 0.0000
    outer loop
        vertex 0.0000 -0.1000 0.0000
        vertex -1.1387 -0.1000 -4.2500
        vertex -0.5742 -0.1000 -4.3622
    endloop
endfacet
facet normal 0.0000 -0.3805 0.0000
    outer loop
        vertex 0.0000 -0.1000 0.0000
        vertex -0.5742 -0.1000 -4.3622
        vertex 0.0000 -0.1000 -4.4000
    endloop
endfacet
facet normal 0.0000 -0.3805 0.0000
    outer loop
        vertex 0.0000 -0.1000 0.0000
        vertex 0.0000 -0.1000 -4.4000
        vertex 0.5742 -0.1000 -4.3622
    endloop
endfacet
facet normal 0.0000 -0.3805 0.0000
    outer loop
        vertex 0.0000 -0.1000 0.0000
        vertex 0.5742 -0.1000 -4.3622
        vertex 1.1387 -0.1000 -4.2500
    endloop
endfacet
facet normal 0.0000 -0.3805 0.0000
    outer loop
        vertex 0.0000 -0.1000 0.0000
        vertex 1.1387 -0.1000 -4.2500
        vertex 1.6839 -0.1000 -4.0652
    endloop
endfacet
facet normal 0.0000 -0.3805 0.0000
    outer loop
        vertex 0.0000 -0.1000 0.0000
        vertex 1.6839 -0.1000 -4.0652
        vertex 2.2000 -0.1000 -3.8104
    endloop
endfacet
facet normal 0.0000 -0.3805 0.0000
    outer loop
        vertex 0.0000 -0.1000 0.0000
        vertex 2.2000 -0.1000 -3.8104
        vertex 2.6787 -0.1000 -3.4910
    endloop
endfacet
facet normal 0.0000 -0.3805 0.0000
    outer loop
        vertex 0.0000 -0.1000 0.0000
        vertex 2.6787 -0.1000 -3.4910
        vertex 3.1112 -0.1000 -3.1112
    endloop
endfacet
facet normal 0.0000 -0.3805 0.0000
    outer loop
        vertex 0.0000 -0.1000 0.0000
        vertex 3.1112 -0.1000 -3.1112
        vertex 3.4910 -0.1000 -2.6787
    endloop
endfacet
facet normal 0.0000 -0.3805 0.0000
    outer loop
        vertex 0.0000 -0.1000 0.0000
        vertex 3.4910 -0.1000 -2.6787
        vertex 3.8104 -0.1000 -2.2000
    endloop
endfacet
facet normal 0.0000 -0.3805 0.0000
    outer loop
        vertex 0.0000 -0.1000 0.0000
        vertex 3.8104 -0.1000 -2.2000
        vertex 4.0652 -0.1000 -1.6839
    endloop
endfacet
facet normal 0.0000 -0.3805 0.0000
    outer loop
        vertex 0.0000 -0.1000 0.0000
        vertex 4.0652 -0.1000 -1.6839
        vertex 4.2500 -0.1000 -1.1387
    endloop
endfacet
facet normal 0.0000 -0.3805 0.0000
    outer loop
        vertex 0.0000 -0.1000 0.0000
        vertex 4.2500 -0.1000 -1.1387
        vertex 4.3622 -0.1000 -0.5742
    endloop
endfacet
facet normal 0.0000 -0.3805 0.0000
    outer loop
        vertex 0.0000 -0.1000 0.0000
        vertex 4.3622 -0.1000 -0.5742
        vertex 4.4000 -0.1000 0.0000
    endloop
endfacet
facet normal 0.0000 -7.4945 0.0000
    outer loop
        vertex -3.9672 -0.1000 3.0440
        vertex -3.7340 -0.1000 3.3096
        vertex -6.1380 -0.1000 5.7136
    endloop
endfacet
facet normal 0.0000 -16.9181 0.0000
    outer loop
        vertex -6.1380 -0.1000 5.7136
        vertex -6.6644 -0.1000 5.1140
        vertex -3.9672 -0.1000 3.0440
    endloop
endfacet
facet normal 0.0000 -13.8642 0.0000
    outer loop
        vertex -4.3300 -0.1000 2.5000
        vertex -3.9672 -0.1000 3.0440
        vertex -6.6644 -0.1000 5.1140
    endloop
endfacet
facet normal 0.0000 -23.3011 0.0000
    outer loop
        vertex -6.6644 -0.1000 5.1140
        vertex -7.2744 -0.1000 4.2000
        vertex -4.3300 -0.1000 2.5000
    endloop
endfacet
facet normal 0.0000 -13.8682 0.0000
    outer loop
        vertex -4.6196 -0.1000 1.9136
        vertex -4.3300 -0.1000 2.5000
        vertex -7.2744 -0.1000 4.2000
    endloop
endfacet
facet normal 0.0000 -23.2976 0.0000
    outer loop
        vertex -7.2744 -0.1000 4.2000
        vertex -7.7608 -0.1000 3.2148
        vertex -4.6196 -0.1000 1.9136
    endloop
endfacet
facet normal 0.0000 -13.8721 0.0000
    outer loop
        vertex -4.8296 -0.1000 1.2940
        vertex -4.6196 -0.1000 1.9136
        vertex -7.7608 -0.1000 3.2148
    endloop
endfacet
facet normal 0.0000 -23.3028 0.0000
    outer loop
        vertex -7.7608 -0.1000 3.2148
        vertex -8.1136 -0.1000 2.1740
        vertex -4.8296 -0.1000 1.2940
    endloop
endfacet
facet normal 0.0000 -13.8706 0.0000
    outer loop
        vertex -4.9572 -0.1000 0.6524
        vertex -4.8296 -0.1000 1.2940
        vertex -8.1136 -0.1000 2.1740
    endloop
endfacet
facet normal 0.0000 -23.2935 0.0000
    outer loop
        vertex -8.1136 -0.1000 2.1740
        vertex -8.3276 -0.1000 1.0964
        vertex -4.9572 -0.1000 0.6524
    endloop
endfacet
facet normal 0.0000 -13.8616 0.0000
    outer loop
        vertex -5.0000 -0.1000 0.0000
        vertex -4.9572 -0.1000 0.6524
        vertex -8.3276 -0.1000 1.0964
    endloop
endfacet
facet normal 0.0000 -23.2985 0.0000
    outer loop
        vertex -8.3276 -0.1000 1.0964
        vertex -8.4000 -0.1000 0.0000
        vertex -5.0000 -0.1000 0.0000
    endloop
endfacet
facet normal 0.0000 -13.8635 0.0000
    outer loop
        vertex -4.9572 -0.1000 -0.6524
        vertex -5.0000 -0.1000 0.0000
        vertex -8.4000 -0.1000 0.0000
    endloop
endfacet
facet normal 0.0000 -23.2966 0.0000
    outer loop
        vertex -8.4000 -0.1000 0.0000
        vertex -8.3276 -0.1000 -1.0964
        vertex -4.9572 -0.1000 -0.6524
    endloop
endfacet
facet normal 0.0000 -13.8694 0.0000
    outer loop
        vertex -4.8296 -0.1000 -1.2940
        vertex -4.9572 -0.1000 -0.6524
        vertex -8.3276 -0.1000 -1.0964
    endloop
endfacet
facet normal 0.0000 -23.2947 0.0000
    outer loop
        vertex -8.3276 -0.1000 -1.0964
        vertex -8.1136 -0.1000 -2.1740
        vertex -4.8296 -0.1000 -1.2940
    endloop
endfacet
facet normal 0.0000 -13.8723 0.0000
    outer loop
        vertex -4.6196 -0.1000 -1.9136
        vertex -4.8296 -0.1000 -1.2940
        vertex -8.1136 -0.1000 -2.1740
    endloop
endfacet
facet normal 0.0000 -23.3027 0.0000
    outer loop
        vertex -8.1136 -0.1000 -2.1740
        vertex -7.7608 -0.1000 -3.2148
        vertex -4.6196 -0.1000 -1.9136
    endloop
endfacet
facet normal 0.0000 -13.8677 0.0000
    outer loop
        vertex -4.3300 -0.1000 -2.5000
        vertex -4.6196 -0.1000 -1.9136
        vertex -7.7608 -0.1000 -3.2148
    endloop
endfacet
facet normal 0.0000 -23.2981 0.0000
    outer loop
        vertex -7.7608 -0.1000 -3.2148
        vertex -7.2744 -0.1000 -4.2000
        vertex -4.3300 -0.1000 -2.5000
    endloop
endfacet
facet normal 0.0000 -13.8657 0.0000
    outer loop
        vertex -3.9672 -0.1000 -3.0440
        vertex -4.3300 -0.1000 -2.5000
        vertex -7.2744 -0.1000 -4.2000
    endloop
endfacet
facet normal 0.0000 -23.2996 0.0000
    outer loop
        vertex -7.2744 -0.1000 -4.2000
        vertex -6.6644 -0.1000 -5.1140
        vertex -3.9672 -0.1000 -3.0440
    endloop
endfacet
facet normal 0.0000 -7.4944 0.0000
    outer loop
        vertex -3.7340 -0.1000 -3.3096
        vertex -3.9672 -0.1000 -3.0440
        vertex -6.6644 -0.1000 -5.1140
    endloop
endfacet
facet normal 0.0000 -16.9182 0.0000
    outer loop
        vertex -6.6644 -0.1000 -5.1140
        vertex -6.1380 -0.1000 -5.7136
        vertex -3.7340 -0.1000 -3.3096
    endloop
endfacet
facet normal 0.0000 -7.4945 0.0000
    outer loop
        vertex 3.9672 -0.1000 -3.0440
        vertex 3.7340 -0.1000 -3.3096
        vertex 6.1380 -0.1000 -5.7136
    endloop
endfacet
facet normal 0.0000 -16.9181 0.0000
    outer loop
        vertex 6.1380 -0.1000 -5.7136
        vertex 6.6644 -0.1000 -5.1140
        vertex 3.9672 -0.1000 -3.0440
    endloop
endfacet
facet normal 0.0000 -13.8642 0.0000
    outer loop
        vertex 4.3300 -0.1000 -2.5000
        vertex 3.9672 -0.1000 -3.0440
        vertex 6.6644 -0.1000 -5.1140
    endloop
endfacet
facet normal 0.0000 -23.3011 0.0000
    outer loop
        vertex 6.6644 -0.1000 -5.1140
        vertex 7.2744 -0.1000 -4.2000
        vertex 4.3300 -0.1000 -2.5000
    endloop
endfacet
facet normal 0.0000 -13.8682 0.0000
    outer loop
        vertex 4.6196 -0.1000 -1.9136
        vertex 4.3300 -0.1000 -2.5000
        vertex 7.2744 -0.1000 -4.2000
    endloop
endfacet
facet normal 0.0000 -23.2976 0.0000
    outer loop
        vertex 7.2744 -0.1000 -4.2000
        vertex 7.7608 -0.1000 -3.2148
        vertex 4.6196 -0.1000 -1.9136
    endloop
endfacet
facet normal 0.0000 -13.8721 0.0000
    outer loop
        vertex 4.8296 -0.1000 -1.2940
        vertex 4.6196 -0.1000 -1.9136
        vertex 7.7608 -0.1000 -3.2148
    endloop
endfacet
facet normal 0.0000 -23.3028 0.0000
    outer loop
        vertex 7.7608 -0.1000 -3.2148
        vertex 8.1136 -0.1000 -2.1740
        vertex 4.8296 -0.1000 -1.2940
    endloop
endfacet
facet normal 0.0000 -13.8706 0.0000
    outer loop
        vertex 4.9572 -0.1000 -0.6524
        vertex 4.8296 -0.1000 -1.2940
        vertex 8.1136 -0.1000 -2.1740
    endloop
endfacet
facet normal 0.0000 -23.2935 0.0000
    outer loop
        vertex 8.1136 -0.1000 -2.1740
        vertex 8.3276 -0.1000 -1.0964
        vertex 4.9572 -0.1000 -0.6524
    endloop
endfacet
facet normal 0.0000 -13.8616 0.0000
    outer loop
        vertex 5.0000 -0.1000 0.0000
        vertex 4.9572 -0.1000 -0.6524
        vertex 8.3276 -0.1000 -1.0964
    endloop
endfacet
facet normal 0.0000 -23.2985 0.0000
    outer loop
        vertex 8.3276 -0.1000 -1.0964
        vertex 8.4000 -0.1000 0.0000
        vertex 5.0000 -0.1000 0.0000
    endloop
endfacet
facet normal 0.0000 -13.8635 0.0000
    outer loop
        vertex 4.9572 -0.1000 0.6524
        vertex 5.0000 -0.1000 0.0000
        vertex 8.4000 -0.1000 0.0000
    endloop
endfacet
facet normal 0.0000 -23.2966 0.0000
    outer loop
        vertex 8.4000 -0.1000 0.0000
        vertex 8.3276 -0.1000 1.0964
        vertex 4.9572 -0.1000 0.6524
    endloop
endfacet
facet normal 0.0000 -13.8694 0.0000
    outer loop
        vertex 4.8296 -0.1000 1.2940
        vertex 4.9572 -0.1000 0.6524
        vertex 8.3276 -0.1000 1.0964
    endloop
endfacet
facet normal 0.0000 -23.2947 0.0000
    outer loop
        vertex 8.3276 -0.1000 1.0964
        vertex 8.1136 -0.1000 2.1740
        vertex 4.8296 -0.1000 1.2940
    endloop
endfacet
facet normal 0.0000 -13.8723 0.0000
    outer loop
        vertex 4.6196 -0.1000 1.9136
        vertex 4.8296 -0.1000 1.2940
        vertex 8.1136 -0.1000 2.1740
    endloop
endfacet
facet normal 0.0000 -23.3027 0.0000
    outer loop
        vertex 8.1136 -0.1000 2.1740
        vertex 7.7608 -0.1000 3.2148
        vertex 4.6196 -0.1000 1.9136
    endloop
endfacet
facet normal 0.0000 -13.8677 0.0000
    outer loop
        vertex 4.3300 -0.1000 2.5000
        vertex 4.6196 -0.1000 1.9136
        vertex 7.7608 -0.1000 3.2148
    endloop
endfacet
facet normal 0.0000 -23.2981 0.0000
    outer loop
        vertex 7.7608 -0.1000 3.2148
        vertex 7.2744 -0.1000 4.2000
        vertex 4.3300 -0.1000 2.5000
    endloop
endfacet
facet normal 0.0000 -13.8657 0.0000
    outer loop
        vertex 3.9672 -0.1000 3.0440
        vertex 4.3300 -0.1000 2.5000
        vertex 7.2744 -0.1000 4.2000
    endloop
endfacet
facet normal 0.0000 -23.2996 0.0000
    outer loop
        vertex 7.2744 -0.1000 4.2000
        vertex 6.6644 -0.1000 5.1140
        vertex 3.9672 -0.1000 3.0440
    endloop
endfacet
facet normal 0.0000 -7.4944 0.0000
    outer loop
        vertex 3.7340 -0.1000 3.3096
        vertex 3.9672 -0.1000 3.0440
        vertex 6.6644 -0.1000 5.1140
    endloop
endfacet
facet normal 0.0000 -16.9182 0.0000
    outer loop
        vertex 6.6644 -0.1000 5.1140
        vertex 6.1380 -0.1000 5.7136
        vertex 3.7340 -0.1000 3.3096
    endloop
endfacet
facet normal 0.0000 -4.1115 0.0000
    outer loop
        vertex -1.0964 -0.1000 8.3276
        vertex 0.0000 -0.1000 8.4000
        vertex 0.0000 -0.1000 9.0000
    endloop
endfacet
facet normal 0.0000 -4.4064 0.0000
    outer loop
        vertex 0.0000 -0.1000 9.0000
        vertex -1.1744 -0.1000 8.9228
        vertex -1.0964 -0.1000 8.3276
    endloop
endfacet
facet normal 0.0000 -4.1130 0.0000
    outer loop
        vertex -2.1740 -0.1000 8.1136
        vertex -1.0964 -0.1000 8.3276
        vertex -1.1744 -0.1000 8.9228
    endloop
endfacet
facet normal 0.0000 -4.4060 0.0000
    outer loop
        vertex -1.1744 -0.1000 8.9228
        vertex -2.3292 -0.1000 8.6932
        vertex -2.1740 -0.1000 8.1136
    endloop
endfacet
facet normal 0.0000 -4.1125 0.0000
    outer loop
        vertex -3.2148 -0.1000 7.7608
        vertex -2.1740 -0.1000 8.1136
        vertex -2.3292 -0.1000 8.6932
    endloop
endfacet
facet normal 0.0000 -4.4066 0.0000
    outer loop
        vertex -2.3292 -0.1000 8.6932
        vertex -3.4444 -0.1000 8.3152
        vertex -3.2148 -0.1000 7.7608
    endloop
endfacet
facet normal 0.0000 -4.1117 0.0000
    outer loop
        vertex -4.2000 -0.1000 7.2744
        vertex -3.2148 -0.1000 7.7608
        vertex -3.4444 -0.1000 8.3152
    endloop
endfacet
facet normal 0.0000 -4.4053 0.0000
    outer loop
        vertex -3.4444 -0.1000 8.3152
        vertex -4.5000 -0.1000 7.7940
        vertex -4.2000 -0.1000 7.2744
    endloop
endfacet
facet normal 0.0000 -4.1120 0.0000
    outer loop
        vertex -5.1140 -0.1000 6.6644
        vertex -4.2000 -0.1000 7.2744
        vertex -4.5000 -0.1000 7.7940
    endloop
endfacet
facet normal 0.0000 -4.4065 0.0000
    outer loop
        vertex -4.5000 -0.1000 7.7940
        vertex -5.4792 -0.1000 7.1408
        vertex -5.1140 -0.1000 6.6644
    endloop
endfacet
facet normal 0.0000 -2.9868 0.0000
    outer loop
        vertex -5.7136 -0.1000 6.1380
        vertex -5.1140 -0.1000 6.6644
        vertex -5.4792 -0.1000 7.1408
    endloop
endfacet
facet normal 0.0000 -4.4075 0.0000
    outer loop
        vertex -5.4792 -0.1000 7.1408
        vertex -6.3640 -0.1000 6.3640
        vertex -5.7136 -0.1000 6.1380
    endloop
endfacet
facet normal 0.0000 -2.3247 0.0000
    outer loop
        vertex -6.3640 -0.1000 6.3640
        vertex -6.1380 -0.1000 5.7136
        vertex -5.7136 -0.1000 6.1380
    endloop
endfacet
facet normal 0.0000 -2.9868 0.0000
    outer loop
        vertex -6.6644 -0.1000 5.1140
        vertex -6.1380 -0.1000 5.7136
        vertex -6.3640 -0.1000 6.3640
    endloop
endfacet
facet normal 0.0000 -4.4075 0.0000
    outer loop
        vertex -6.3640 -0.1000 6.3640
        vertex -7.1408 -0.1000 5.4792
        vertex -6.6644 -0.1000 5.1140
    endloop
endfacet
facet normal 0.0000 -4.1138 0.0000
    outer loop
        vertex -7.2744 -0.1000 4.2000
        vertex -6.6644 -0.1000 5.1140
        vertex -7.1408 -0.1000 5.4792
    endloop
endfacet
facet normal 0.0000 -4.4047 0.0000
    outer loop
        vertex -7.1408 -0.1000 5.4792
        vertex -7.7940 -0.1000 4.5000
        vertex -7.2744 -0.1000 4.2000
    endloop
endfacet
facet normal 0.0000 -4.1114 0.0000
    outer loop
        vertex -7.7608 -0.1000 3.2148
        vertex -7.2744 -0.1000 4.2000
        vertex -7.7940 -0.1000 4.5000
    endloop
endfacet
facet normal 0.0000 -4.4056 0.0000
    outer loop
        vertex -7.7940 -0.1000 4.5000
        vertex -8.3152 -0.1000 3.4444
        vertex -7.7608 -0.1000 3.2148
    endloop
endfacet
facet normal 0.0000 -4.1126 0.0000
    outer loop
        vertex -8.1136 -0.1000 2.1740
        vertex -7.7608 -0.1000 3.2148
        vertex -8.3152 -0.1000 3.4444
    endloop
endfacet
facet normal 0.0000 -4.4065 0.0000
    outer loop
        vertex -8.3152 -0.1000 3.4444
        vertex -8.6932 -0.1000 2.3292
        vertex -8.1136 -0.1000 2.1740
    endloop
endfacet
facet normal 0.0000 -4.1112 0.0000
    outer loop
        vertex -8.3276 -0.1000 1.0964
        vertex -8.1136 -0.1000 2.1740
        vertex -8.6932 -0.1000 2.3292
    endloop
endfacet
facet normal 0.0000 -4.4078 0.0000
    outer loop
        vertex -8.6932 -0.1000 2.3292
        vertex -8.9228 -0.1000 1.1744
        vertex -8.3276 -0.1000 1.0964
    endloop
endfacet
facet normal 0.0000 -4.1139 0.0000
    outer loop
        vertex -8.4000 -0.1000 0.0000
        vertex -8.3276 -0.1000 1.0964
        vertex -8.9228 -0.1000 1.1744
    endloop
endfacet
facet normal 0.0000 -4.4040 0.0000
    outer loop
        vertex -8.9228 -0.1000 1.1744
        vertex -9.0000 -0.1000 0.0000
        vertex -8.4000 -0.1000 0.0000
    endloop
endfacet
facet normal 0.0000 -4.1115 0.0000
    outer loop
        vertex -8.3276 -0.1000 -1.0964
        vertex -8.4000 -0.1000 0.0000
        vertex -9.0000 -0.1000 0.0000
    endloop
endfacet
facet normal 0.0000 -4.4064 0.0000
    outer loop
        vertex -9.0000 -0.1000 0.0000
        vertex -8.9228 -0.1000 -1.1744
        vertex -8.3276 -0.1000 -1.0964
    endloop
endfacet
facet normal 0.0000 -4.1130 0.0000
    outer loop
        vertex -8.1136 -0.1000 -2.1740
        vertex -8.3276 -0.1000 -1.0964
        vertex -8.9228 -0.1000 -1.1744
    endloop
endfacet
facet normal 0.0000 -4.4060 0.0000
    outer loop
        vertex -8.9228 -0.1000 -1.1744
        vertex -8.6932 -0.1000 -2.3292
        vertex -8.1136 -0.1000 -2.1740
    endloop
endfacet
facet normal 0.0000 -4.1125 0.0000
    outer loop
        vertex -7.7608 -0.1000 -3.2148
        vertex -8.1136 -0.1000 -2.1740
        vertex -8.6932 -0.1000 -2.3292
    endloop
endfacet
facet normal 0.0000 -4.4066 0.0000
    outer loop
        vertex -8.6932 -0.1000 -2.3292
        vertex -8.3152 -0.1000 -3.4444
        vertex -7.7608 -0.1000 -3.2148
    endloop
endfacet
facet normal 0.0000 -4.1117 0.0000
    outer loop
        vertex -7.2744 -0.1000 -4.2000
        vertex -7.7608 -0.1000 -3.2148
        vertex -8.3152 -0.1000 -3.4444
    endloop
endfacet
facet normal 0.0000 -4.4053 0.0000
    outer loop
        vertex -8.3152 -0.1000 -3.4444
        vertex -7.7940 -0.1000 -4.5000
        vertex -7.2744 -0.1000 -4.2000
    endloop
endfacet
facet normal 0.0000 -4.1120 0.0000
    outer loop
        vertex -6.6644 -0.1000 -5.1140
        vertex -7.2744 -0.1000 -4.2000
        vertex -7.7940 -0.1000 -4.5000
    endloop
endfacet
facet normal 0.0000 -4.4065 0.0000
    outer loop
        vertex -7.7940 -0.1000 -4.5000
        vertex -7.1408 -0.1000 -5.4792
        vertex -6.6644 -0.1000 -5.1140
    endloop
endfacet
facet normal 0.0000 -2.9868 0.0000
    outer loop
        vertex -6.1380 -0.1000 -5.7136
        vertex -6.6644 -0.1000 -5.1140
        vertex -7.1408 -0.1000 -5.4792
    endloop
endfacet
facet normal 0.0000 -4.4075 0.0000
    outer loop
        vertex -7.1408 -0.1000 -5.4792
        vertex -6.3640 -0.1000 -6.3640
        vertex -6.1380 -0.1000 -5.7136
    endloop
endfacet
facet normal 0.0000 -2.3247 0.0000
    outer loop
        vertex -6.1380 -0.1000 -5.7136
        vertex -6.3640 -0.1000 -6.3640
        vertex -5.7136 -0.1000 -6.1380
    endloop
endfacet
facet normal 0.0000 -4.4075 0.0000
    outer loop
        vertex -5.7136 -0.1000 -6.1380
        vertex -6.3640 -0.1000 -6.3640
        vertex -5.4792 -0.1000 -7.1408
    endloop
endfacet
facet normal 0.0000 -2.9868 0.0000
    outer loop
        vertex -5.4792 -0.1000 -7.1408
        vertex -5.1140 -0.1000 -6.6644
        vertex -5.7136 -0.1000 -6.1380
    endloop
endfacet
facet normal 0.0000 -4.1138 0.0000
    outer loop
        vertex -4.2000 -0.1000 -7.2744
        vertex -5.1140 -0.1000 -6.6644
        vertex -5.4792 -0.1000 -7.1408
    endloop
endfacet
facet normal 0.0000 -4.4047 0.0000
    outer loop
        vertex -5.4792 -0.1000 -7.1408
        vertex -4.5000 -0.1000 -7.7940
        vertex -4.2000 -0.1000 -7.2744
    endloop
endfacet
facet normal 0.0000 -4.1114 0.0000
    outer loop
        vertex -3.2148 -0.1000 -7.7608
        vertex -4.2000 -0.1000 -7.2744
        vertex -4.5000 -0.1000 -7.7940
    endloop
endfacet
facet normal 0.0000 -4.4056 0.0000
    outer loop
        vertex -4.5000 -0.1000 -7.7940
        vertex -3.4444 -0.1000 -8.3152
        vertex -3.2148 -0.1000 -7.7608
    endloop
endfacet
facet normal 0.0000 -4.1126 0.0000
    outer loop
        vertex -2.1740 -0.1000 -8.1136
        vertex -3.2148 -0.1000 -7.7608
        vertex -3.4444 -0.1000 -8.3152
    endloop
endfacet
facet normal 0.0000 -4.4065 0.0000
    outer loop
        vertex -3.4444 -0.1000 -8.3152
        vertex -2.3292 -0.1000 -8.6932
        vertex -2.1740 -0.1000 -8.1136
    endloop
endfacet
facet normal 0.0000 -4.1112 0.0000
    outer loop
        vertex -1.0964 -0.1000 -8.3276
        vertex -2.1740 -0.1000 -8.1136
        vertex -2.3292 -0.1000 -8.6932
    endloop
endfacet
facet normal 0.0000 -4.4078 0.0000
    outer loop
        vertex -2.3292 -0.1000 -8.6932
        vertex -1.1744 -0.1000 -8.9228
        vertex -1.0964 -0.1000 -8.3276
    endloop
endfacet
facet normal 0.0000 -4.1139 0.0000
    outer loop
        vertex 0.0000 -0.1000 -8.4000
        vertex -1.0964 -0.1000 -8.3276
        vertex -1.1744 -0.1000 -8.9228
    endloop
endfacet
facet normal 0.0000 -4.4040 0.0000
    outer loop
        vertex -1.1744 -0.1000 -8.9228
        vertex 0.0000 -0.1000 -9.0000
        vertex 0.0000 -0.1000 -8.4000
    endloop
endfacet
facet normal 0.0000 -4.1115 0.0000
    outer loop
        vertex 1.0964 -0.1000 -8.3276
        vertex 0.0000 -0.1000 -8.4000
        vertex 0.0000 -0.1000 -9.0000
    endloop
endfacet
facet normal 0.0000 -4.4064 0.0000
    outer loop
        vertex 0.0000 -0.1000 -9.0000
        vertex 1.1744 -0.1000 -8.9228
        vertex 1.0964 -0.1000 -8.3276
    endloop
endfacet
facet normal 0.0000 -4.1130 0.0000
    outer loop
        vertex 2.1740 -0.1000 -8.1136
        vertex 1.0964 -0.1000 -8.3276
        vertex 1.1744 -0.1000 -8.9228
    endloop
endfacet
facet normal 0.0000 -4.4060 0.0000
    outer loop
        vertex 1.1744 -0.1000 -8.9228
        vertex 2.3292 -0.1000 -8.6932
        vertex 2.1740 -0.1000 -8.1136
    endloop
endfacet
facet normal 0.0000 -4.1125 0.0000
    outer loop
        vertex 3.2148 -0.1000 -7.7608
        vertex 2.1740 -0.1000 -8.1136
        vertex 2.3292 -0.1000 -8.6932
    endloop
endfacet
facet normal 0.0000 -4.4066 0.0000
    outer loop
        vertex 2.3292 -0.1000 -8.6932
        vertex 3.4444 -0.1000 -8.3152
        vertex 3.2148 -0.1000 -7.7608
    endloop
endfacet
facet normal 0.0000 -4.1117 0.0000
    outer loop
        vertex 4.2000 -0.1000 -7.2744
        vertex 3.2148 -0.1000 -7.7608
        vertex 3.4444 -0.1000 -8.3152
    endloop
endfacet
facet normal 0.0000 -4.4053 0.0000
    outer loop
        vertex 3.4444 -0.1000 -8.3152
        vertex 4.5000 -0.1000 -7.7940
        vertex 4.2000 -0.1000 -7.2744
    endloop
endfacet
facet normal 0.0000 -4.1120 0.0000
    outer loop
        vertex 5.1140 -0.1000 -6.6644
        vertex 4.2000 -0.1000 -7.2744
        vertex 4.5000 -0.1000 -7.7940
    endloop
endfacet
facet normal 0.0000 -4.4065 0.0000
    outer loop
        vertex 4.5000 -0.1000 -7.7940
        vertex 5.4792 -0.1000 -7.1408
        vertex 5.1140 -0.1000 -6.6644
    endloop
endfacet
facet normal 0.0000 -2.9868 0.0000
    outer loop
        vertex 5.7136 -0.1000 -6.1380
        vertex 5.1140 -0.1000 -6.6644
        vertex 5.4792 -0.1000 -7.1408
    endloop
endfacet
facet normal 0.0000 -4.4075 0.0000
    outer loop
        vertex 5.4792 -0.1000 -7.1408
        vertex 6.3640 -0.1000 -6.3640
        vertex 5.7136 -0.1000 -6.1380
    endloop
endfacet
facet normal 0.0000 -2.3247 0.0000
    outer loop
        vertex 6.1380 -0.1000 -5.7136
        vertex 5.7136 -0.1000 -6.1380
        vertex 6.3640 -0.1000 -6.3640
    endloop
endfacet
facet normal 0.0000 -4.4075 0.0000
    outer loop
        vertex 6.1380 -0.1000 -5.7136
        vertex 6.3640 -0.1000 -6.3640
        vertex 7.1408 -0.1000 -5.4792
    endloop
endfacet
facet normal 0.0000 -2.9868 0.0000
    outer loop
        vertex 7.1408 -0.1000 -5.4792
        vertex 6.6644 -0.1000 -5.1140
        vertex 6.1380 -0.1000 -5.7136
    endloop
endfacet
facet normal 0.0000 -4.1138 0.0000
    outer loop
        vertex 7.2744 -0.1000 -4.2000
        vertex 6.6644 -0.1000 -5.1140
        vertex 7.1408 -0.1000 -5.4792
    endloop
endfacet
facet normal 0.0000 -4.4047 0.0000
    outer loop
        vertex 7.1408 -0.1000 -5.4792
        vertex 7.7940 -0.1000 -4.5000
        vertex 7.2744 -0.1000 -4.2000
    endloop
endfacet
facet normal 0.0000 -4.1114 0.0000
    outer loop
        vertex 7.7608 -0.1000 -3.2148
        vertex 7.2744 -0.1000 -4.2000
        vertex 7.7940 -0.1000 -4.5000
    endloop
endfacet
facet normal 0.0000 -4.4056 0.0000
    outer loop
        vertex 7.7940 -0.1000 -4.5000
        vertex 8.3152 -0.1000 -3.4444
        vertex 7.7608 -0.1000 -3.2148
    endloop
endfacet
facet normal 0.0000 -4.1126 0.0000
    outer loop
        vertex 8.1136 -0.1000 -2.1740
        vertex 7.7608 -0.1000 -3.2148
        vertex 8.3152 -0.1000 -3.4444
    endloop
endfacet
facet normal 0.0000 -4.4065 0.0000
    outer loop
        vertex 8.3152 -0.1000 -3.4444
        vertex 8.6932 -0.1000 -2.3292
        vertex 8.1136 -0.1000 -2.1740
    endloop
endfacet
facet normal 0.0000 -4.1112 0.0000
    outer loop
        vertex 8.3276 -0.1000 -1.0964
        vertex 8.1136 -0.1000 -2.1740
        vertex 8.6932 -0.1000 -2.3292
    endloop
endfacet
facet normal 0.0000 -4.4078 0.0000
    outer loop
        vertex 8.6932 -0.1000 -2.3292
        vertex 8.9228 -0.1000 -1.1744
        vertex 8.3276 -0.1000 -1.0964
    endloop
endfacet
facet normal 0.0000 -4.1139 0.0000
    outer loop
        vertex 8.4000 -0.1000 0.0000
        vertex 8.3276 -0.1000 -1.0964
        vertex 8.9228 -0.1000 -1.1744
    endloop
endfacet
facet normal 0.0000 -4.4040 0.0000
    outer loop
        vertex 8.9228 -0.1000 -1.1744
        vertex 9.0000 -0.1000 0.0000
        vertex 8.4000 -0.1000 0.0000
    endloop
endfacet
facet normal 0.0000 -4.1115 0.0000
    outer loop
        vertex 8.3276 -0.1000 1.0964
        vertex 8.4000 -0.1000 0.0000
        vertex 9.0000 -0.1000 0.0000
    endloop
endfacet
facet normal 0.0000 -4.4064 0.0000
    outer loop
        vertex 9.0000 -0.1000 0.0000
        vertex 8.9228 -0.1000 1.1744
        vertex 8.3276 -0.1000 1.0964
    endloop
endfacet
facet normal 0.0000 -4.1130 0.0000
    outer loop
        vertex 8.1136 -0.1000 2.1740
        vertex 8.3276 -0.1000 1.0964
        vertex 8.9228 -0.1000 1.1744
    endloop
endfacet
facet normal 0.0000 -4.4060 0.0000
    outer loop
        vertex 8.9228 -0.1000 1.1744
        vertex 8.6932 -0.1000 2.3292
        vertex 8.1136 -0.1000 2.1740
    endloop
endfacet
facet normal 0.0000 -4.1125 0.0000
    outer loop
        vertex 7.7608 -0.1000 3.2148
        vertex 8.1136 -0.1000 2.1740
        vertex 8.6932 -0.1000 2.3292
    endloop
endfacet
facet normal 0.0000 -4.4066 0.0000
    outer loop
        vertex 8.6932 -0.1000 2.3292
        vertex 8.3152 -0.1000 3.4444
        vertex 7.7608 -0.1000 3.2148
    endloop
endfacet
facet normal 0.0000 -4.1117 0.0000
    outer loop
        vertex 7.2744 -0.1000 4.2000
        vertex 7.7608 -0.1000 3.2148
        vertex 8.3152 -0.1000 3.4444
    endloop
endfacet
facet normal 0.0000 -4.4053 0.0000
    outer loop
        vertex 8.3152 -0.1000 3.4444
        vertex 7.7940 -0.1000 4.5000
        vertex 7.2744 -0.1000 4.2000
    endloop
endfacet
facet normal 0.0000 -4.1120 0.0000
    outer loop
        vertex 6.6644 -0.1000 5.1140
        vertex 7.2744 -0.1000 4.2000
        vertex 7.7940 -0.1000 4.5000
    endloop
endfacet
facet normal 0.0000 -4.4065 0.0000
    outer loop
        vertex 7.7940 -0.1000 4.5000
        vertex 7.1408 -0.1000 5.4792
        vertex 6.6644 -0.1000 5.1140
    endloop
endfacet
facet normal 0.0000 -2.9868 0.0000
    outer loop
        vertex 6.1380 -0.1000 5.7136
        vertex 6.6644 -0.1000 5.1140
        vertex 7.1408 -0.1000 5.4792
    endloop
endfacet
facet normal 0.0000 -4.4075 0.0000
    outer loop
        vertex 7.1408 -0.1000 5.4792
        vertex 6.3640 -0.1000 6.3640
        vertex 6.1380 -0.1000 5.7136
    endloop
endfacet
facet normal 0.0000 -2.3247 0.0000
    outer loop
        vertex 6.3640 -0.1000 6.3640
        vertex 5.7136 -0.1000 6.1380
        vertex 6.1380 -0.1000 5.7136
    endloop
endfacet
facet normal 0.0000 -4.4075 0.0000
    outer loop
        vertex 5.7136 -0.1000 6.1380
        vertex 6.3640 -0.1000 6.3640
        vertex 5.4792 -0.1000 7.1408
    endloop
endfacet
facet normal 0.0000 -2.9868 0.0000
    outer loop
        vertex 5.4792 -0.1000 7.1408
        vertex 5.1140 -0.1000 6.6644
        vertex 5.7136 -0.1000 6.1380
    endloop
endfacet
facet normal 0.0000 -4.1138 0.0000
    outer loop
        vertex 4.2000 -0.1000 7.2744
        vertex 5.1140 -0.1000 6.6644
        vertex 5.4792 -0.1000 7.1408
    endloop
endfacet
facet normal 0.0000 -4.4047 0.0000
    outer loop
        vertex 5.4792 -0.1000 7.1408
        vertex 4.5000 -0.1000 7.7940
        vertex 4.2000 -0.1000 7.2744
    endloop
endfacet
facet normal 0.0000 -4.1114 0.0000
    outer loop
        vertex 3.2148 -0.1000 7.7608
        vertex 4.2000 -0.1000 7.2744
        vertex 4.5000 -0.1000 7.7940
    endloop
endfacet
facet normal 0.0000 -4.4056 0.0000
    outer loop
        vertex 4.5000 -0.1000 7.7940
        vertex 3.4444 -0.1000 8.3152
        vertex 3.2148 -0.1000 7.7608
    endloop
endfacet
facet normal 0.0000 -4.1126 0.0000
    outer loop
        vertex 2.1740 -0.1000 8.1136
        vertex 3.2148 -0.1000 7.7608
        vertex 3.4444 -0.1000 8.3152
    endloop
endfacet
facet normal 0.0000 -4.4065 0.0000
    outer loop
        vertex 3.4444 -0.1000 8.3152
        vertex 2.3292 -0.1000 8.6932
        vertex 2.1740 -0.1000 8.1136
    endloop
endfacet
facet normal 0.0000 -4.1112 0.0000
    outer loop
        vertex 1.0964 -0.1000 8.3276
        vertex 2.1740 -0.1000 8.1136
        vertex 2.3292 -0.1000 8.6932
    endloop
endfacet
facet normal 0.0000 -4.4078 0.0000
    outer loop
        vertex 2.3292 -0.1000 8.6932
        vertex 1.1744 -0.1000 8.9228
        vertex 1.0964 -0.1000 8.3276
    endloop
endfacet
facet normal 0.0000 -4.1139 0.0000
    outer loop
        vertex 0.0000 -0.1000 8.4000
        vertex 1.0964 -0.1000 8.3276
        vertex 1.1744 -0.1000 8.9228
    endloop
endfacet
facet normal 0.0000 -4.4040 0.0000
    outer loop
        vertex 1.1744 -0.1000 8.9228
        vertex 0.0000 -0.1000 9.0000
        vertex 0.0000 -0.1000 8.4000
    endloop
endfacet
facet normal 0.0000 -2.1540 0.0000
    outer loop
        vertex -0.5744 -0.1000 4.3620
        vertex 0.0000 -0.1000 4.4000
        vertex 0.0000 -0.1000 5.0000
    endloop
endfacet
facet normal 0.0000 -2.4478 0.0000
    outer loop
        vertex 0.0000 -0.1000 5.0000
        vertex -0.6524 -0.1000 4.9572
        vertex -0.5744 -0.1000 4.3620
    endloop
endfacet
facet normal 0.0000 -2.1542 0.0000
    outer loop
        vertex -1.1388 -0.1000 4.2500
        vertex -0.5744 -0.1000 4.3620
        vertex -0.6524 -0.1000 4.9572
    endloop
endfacet
facet normal 0.0000 -2.4480 0.0000
    outer loop
        vertex -0.6524 -0.1000 4.9572
        vertex -1.2940 -0.1000 4.8296
        vertex -1.1388 -0.1000 4.2500
    endloop
endfacet
facet normal 0.0000 -2.1542 0.0000
    outer loop
        vertex -1.6840 -0.1000 4.0652
        vertex -1.1388 -0.1000 4.2500
        vertex -1.2940 -0.1000 4.8296
    endloop
endfacet
facet normal 0.0000 -2.4483 0.0000
    outer loop
        vertex -1.2940 -0.1000 4.8296
        vertex -1.9136 -0.1000 4.6196
        vertex -1.6840 -0.1000 4.0652
    endloop
endfacet
facet normal 0.0000 -2.1536 0.0000
    outer loop
        vertex -2.2000 -0.1000 3.8104
        vertex -1.6840 -0.1000 4.0652
        vertex -1.9136 -0.1000 4.6196
    endloop
endfacet
facet normal 0.0000 -2.4473 0.0000
    outer loop
        vertex -1.9136 -0.1000 4.6196
        vertex -2.5000 -0.1000 4.3300
        vertex -2.2000 -0.1000 3.8104
    endloop
endfacet
facet normal 0.0000 -2.1542 0.0000
    outer loop
        vertex -2.6788 -0.1000 3.4908
        vertex -2.2000 -0.1000 3.8104
        vertex -2.5000 -0.1000 4.3300
    endloop
endfacet
facet normal 0.0000 -2.4479 0.0000
    outer loop
        vertex -2.5000 -0.1000 4.3300
        vertex -3.0440 -0.1000 3.9672
        vertex -2.6788 -0.1000 3.4908
    endloop
endfacet
facet normal 0.0000 -1.3231 0.0000
    outer loop
        vertex -2.6788 -0.1000 3.4908
        vertex -3.0440 -0.1000 3.9672
        vertex -3.3096 -0.1000 3.7340
    endloop
endfacet
facet normal 0.0000 -2.1538 0.0000
    outer loop
        vertex -3.3096 -0.1000 3.7340
        vertex -3.1112 -0.1000 3.1112
        vertex -2.6788 -0.1000 3.4908
    endloop
endfacet
facet normal 0.0000 -2.1782 0.0000
    outer loop
        vertex -3.3096 -0.1000 3.7340
        vertex -3.7340 -0.1000 3.3096
        vertex -3.1112 -0.1000 3.1112
    endloop
endfacet
facet normal 0.0000 -2.1538 0.0000
    outer loop
        vertex -3.4908 -0.1000 2.6788
        vertex -3.1112 -0.1000 3.1112
        vertex -3.7340 -0.1000 3.3096
    endloop
endfacet
facet normal 0.0000 -1.3231 0.0000
    outer loop
        vertex -3.7340 -0.1000 3.3096
        vertex -3.9672 -0.1000 3.0440
        vertex -3.4908 -0.1000 2.6788
    endloop
endfacet
facet normal 0.0000 -2.1551 0.0000
    outer loop
        vertex -3.8104 -0.1000 2.2000
        vertex -3.4908 -0.1000 2.6788
        vertex -3.9672 -0.1000 3.0440
    endloop
endfacet
facet normal 0.0000 -2.4469 0.0000
    outer loop
        vertex -3.9672 -0.1000 3.0440
        vertex -4.3300 -0.1000 2.5000
        vertex -3.8104 -0.1000 2.2000
    endloop
endfacet
facet normal 0.0000 -2.1535 0.0000
    outer loop
        vertex -4.0652 -0.1000 1.6840
        vertex -3.8104 -0.1000 2.2000
        vertex -4.3300 -0.1000 2.5000
    endloop
endfacet
facet normal 0.0000 -2.4475 0.0000
    outer loop
        vertex -4.3300 -0.1000 2.5000
        vertex -4.6196 -0.1000 1.9136
        vertex -4.0652 -0.1000 1.6840
    endloop
endfacet
facet normal 0.0000 -2.1543 0.0000
    outer loop
        vertex -4.2500 -0.1000 1.1388
        vertex -4.0652 -0.1000 1.6840
        vertex -4.6196 -0.1000 1.9136
    endloop
endfacet
facet normal 0.0000 -2.4482 0.0000
    outer loop
        vertex -4.6196 -0.1000 1.9136
        vertex -4.8296 -0.1000 1.2940
        vertex -4.2500 -0.1000 1.1388
    endloop
endfacet
facet normal 0.0000 -2.1532 0.0000
    outer loop
        vertex -4.3620 -0.1000 0.5744
        vertex -4.2500 -0.1000 1.1388
        vertex -4.8296 -0.1000 1.2940
    endloop
endfacet
facet normal 0.0000 -2.4490 0.0000
    outer loop
        vertex -4.8296 -0.1000 1.2940
        vertex -4.9572 -0.1000 0.6524
        vertex -4.3620 -0.1000 0.5744
    endloop
endfacet
facet normal 0.0000 -2.1553 0.0000
    outer loop
        vertex -4.4000 -0.1000 0.0000
        vertex -4.3620 -0.1000 0.5744
        vertex -4.9572 -0.1000 0.6524
    endloop
endfacet
facet normal 0.0000 -2.4465 0.0000
    outer loop
        vertex -4.9572 -0.1000 0.6524
        vertex -5.0000 -0.1000 0.0000
        vertex -4.4000 -0.1000 0.0000
    endloop
endfacet
facet normal 0.0000 -2.1540 0.0000
    outer loop
        vertex -4.3620 -0.1000 -0.5744
        vertex -4.4000 -0.1000 0.0000
        vertex -5.0000 -0.1000 0.0000
    endloop
endfacet
facet normal 0.0000 -2.4478 0.0000
    outer loop
        vertex -5.0000 -0.1000 0.0000
        vertex -4.9572 -0.1000 -0.6524
        vertex -4.3620 -0.1000 -0.5744
    endloop
endfacet
facet normal 0.0000 -2.1542 0.0000
    outer loop
        vertex -4.2500 -0.1000 -1.1388
        vertex -4.3620 -0.1000 -0.5744
        vertex -4.9572 -0.1000 -0.6524
    endloop
endfacet
facet normal 0.0000 -2.4480 0.0000
    outer loop
        vertex -4.9572 -0.1000 -0.6524
        vertex -4.8296 -0.1000 -1.2940
        vertex -4.2500 -0.1000 -1.1388
    endloop
endfacet
facet normal 0.0000 -2.1542 0.0000
    outer loop
        vertex -4.0652 -0.1000 -1.6840
        vertex -4.2500 -0.1000 -1.1388
        vertex -4.8296 -0.1000 -1.2940
    endloop
endfacet
facet normal 0.0000 -2.4483 0.0000
    outer loop
        vertex -4.8296 -0.1000 -1.2940
        vertex -4.6196 -0.1000 -1.9136
        vertex -4.0652 -0.1000 -1.6840
    endloop
endfacet
facet normal 0.0000 -2.1536 0.0000
    outer loop
        vertex -3.8104 -0.1000 -2.2000
        vertex -4.0652 -0.1000 -1.6840
        vertex -4.6196 -0.1000 -1.9136
    endloop
endfacet
facet normal 0.0000 -2.4473 0.0000
    outer loop
        vertex -4.6196 -0.1000 -1.9136
        vertex -4.3300 -0.1000 -2.5000
        vertex -3.8104 -0.1000 -2.2000
    endloop
endfacet
facet normal 0.0000 -2.1542 0.0000
    outer loop
        vertex -3.4908 -0.1000 -2.6788
        vertex -3.8104 -0.1000 -2.2000
        vertex -4.3300 -0.1000 -2.5000
    endloop
endfacet
facet normal 0.0000 -2.4479 0.0000
    outer loop
        vertex -4.3300 -0.1000 -2.5000
        vertex -3.9672 -0.1000 -3.0440
        vertex -3.4908 -0.1000 -2.6788
    endloop
endfacet
facet normal 0.0000 -2.1539 0.0000
    outer loop
        vertex -3.1112 -0.1000 -3.1112
        vertex -3.4908 -0.1000 -2.6788
        vertex -3.9672 -0.1000 -3.0440
    endloop
endfacet
facet normal 0.0000 -1.3230 0.0000
    outer loop
        vertex -3.9672 -0.1000 -3.0440
        vertex -3.7340 -0.1000 -3.3096
        vertex -3.1112 -0.1000 -3.1112
    endloop
endfacet
facet normal 0.0000 -2.1782 0.0000
    outer loop
        vertex -3.1112 -0.1000 -3.1112
        vertex -3.7340 -0.1000 -3.3096
        vertex -3.3096 -0.1000 -3.7340
    endloop
endfacet
facet normal 0.0000 -2.1538 0.0000
    outer loop
        vertex -2.6788 -0.1000 -3.4908
        vertex -3.1112 -0.1000 -3.1112
        vertex -3.3096 -0.1000 -3.7340
    endloop
endfacet
facet normal 0.0000 -1.3231 0.0000
    outer loop
        vertex -3.3096 -0.1000 -3.7340
        vertex -3.0440 -0.1000 -3.9672
        vertex -2.6788 -0.1000 -3.4908
    endloop
endfacet
facet normal 0.0000 -2.1551 0.0000
    outer loop
        vertex -2.2000 -0.1000 -3.8104
        vertex -2.6788 -0.1000 -3.4908
        vertex -3.0440 -0.1000 -3.9672
    endloop
endfacet
facet normal 0.0000 -2.4469 0.0000
    outer loop
        vertex -3.0440 -0.1000 -3.9672
        vertex -2.5000 -0.1000 -4.3300
        vertex -2.2000 -0.1000 -3.8104
    endloop
endfacet
facet normal 0.0000 -2.1535 0.0000
    outer loop
        vertex -1.6840 -0.1000 -4.0652
        vertex -2.2000 -0.1000 -3.8104
        vertex -2.5000 -0.1000 -4.3300
    endloop
endfacet
facet normal 0.0000 -2.4475 0.0000
    outer loop
        vertex -2.5000 -0.1000 -4.3300
        vertex -1.9136 -0.1000 -4.6196
        vertex -1.6840 -0.1000 -4.0652
    endloop
endfacet
facet normal 0.0000 -2.1543 0.0000
    outer loop
        vertex -1.1388 -0.1000 -4.2500
        vertex -1.6840 -0.1000 -4.0652
        vertex -1.9136 -0.1000 -4.6196
    endloop
endfacet
facet normal 0.0000 -2.4482 0.0000
    outer loop
        vertex -1.9136 -0.1000 -4.6196
        vertex -1.2940 -0.1000 -4.8296
        vertex -1.1388 -0.1000 -4.2500
    endloop
endfacet
facet normal 0.0000 -2.1532 0.0000
    outer loop
        vertex -0.5744 -0.1000 -4.3620
        vertex -1.1388 -0.1000 -4.2500
        vertex -1.2940 -0.1000 -4.8296
    endloop
endfacet
facet normal 0.0000 -2.4490 0.0000
    outer loop
        vertex -1.2940 -0.1000 -4.8296
        vertex -0.6524 -0.1000 -4.9572
        vertex -0.5744 -0.1000 -4.3620
    endloop
endfacet
facet normal 0.0000 -2.1553 0.0000
    outer loop
        vertex 0.0000 -0.1000 -4.4000
        vertex -0.5744 -0.1000 -4.3620
        vertex -0.6524 -0.1000 -4.9572
    endloop
endfacet
facet normal 0.0000 -2.4465 0.0000
    outer loop
        vertex -0.6524 -0.1000 -4.9572
        vertex 0.0000 -0.1000 -5.0000
        vertex 0.0000 -0.1000 -4.4000
    endloop
endfacet
facet normal 0.0000 -2.1540 0.0000
    outer loop
        vertex 0.5744 -0.1000 -4.3620
        vertex 0.0000 -0.1000 -4.4000
        vertex 0.0000 -0.1000 -5.0000
    endloop
endfacet
facet normal 0.0000 -2.4478 0.0000
    outer loop
        vertex 0.0000 -0.1000 -5.0000
        vertex 0.6524 -0.1000 -4.9572
        vertex 0.5744 -0.1000 -4.3620
    endloop
endfacet
facet normal 0.0000 -2.1542 0.0000
    outer loop
        vertex 1.1388 -0.1000 -4.2500
        vertex 0.5744 -0.1000 -4.3620
        vertex 0.6524 -0.1000 -4.9572
    endloop
endfacet
facet normal 0.0000 -2.4480 0.0000
    outer loop
        vertex 0.6524 -0.1000 -4.9572
        vertex 1.2940 -0.1000 -4.8296
        vertex 1.1388 -0.1000 -4.2500
    endloop
endfacet
facet normal 0.0000 -2.1542 0.0000
    outer loop
        vertex 1.6840 -0.1000 -4.0652
        vertex 1.1388 -0.1000 -4.2500
        vertex 1.2940 -0.1000 -4.8296
    endloop
endfacet
facet normal 0.0000 -2.4483 0.0000
    outer loop
        vertex 1.2940 -0.1000 -4.8296
        vertex 1.9136 -0.1000 -4.6196
        vertex 1.6840 -0.1000 -4.0652
    endloop
endfacet
facet normal 0.0000 -2.1536 0.0000
    outer loop
        vertex 2.2000 -0.1000 -3.8104
        vertex 1.6840 -0.1000 -4.0652
        vertex 1.9136 -0.1000 -4.6196
    endloop
endfacet
facet normal 0.0000 -2.4473 0.0000
    outer loop
        vertex 1.9136 -0.1000 -4.6196
        vertex 2.5000 -0.1000 -4.3300
        vertex 2.2000 -0.1000 -3.8104
    endloop
endfacet
facet normal 0.0000 -2.1542 0.0000
    outer loop
        vertex 2.6788 -0.1000 -3.4908
        vertex 2.2000 -0.1000 -3.8104
        vertex 2.5000 -0.1000 -4.3300
    endloop
endfacet
facet normal 0.0000 -2.4479 0.0000
    outer loop
        vertex 2.5000 -0.1000 -4.3300
        vertex 3.0440 -0.1000 -3.9672
        vertex 2.6788 -0.1000 -3.4908
    endloop
endfacet
facet normal 0.0000 -1.3231 0.0000
    outer loop
        vertex 2.6788 -0.1000 -3.4908
        vertex 3.0440 -0.1000 -3.9672
        vertex 3.3096 -0.1000 -3.7340
    endloop
endfacet
facet normal 0.0000 -2.1538 0.0000
    outer loop
        vertex 3.3096 -0.1000 -3.7340
        vertex 3.1112 -0.1000 -3.1112
        vertex 2.6788 -0.1000 -3.4908
    endloop
endfacet
facet normal 0.0000 -2.1782 0.0000
    outer loop
        vertex 3.1112 -0.1000 -3.1112
        vertex 3.3096 -0.1000 -3.7340
        vertex 3.7340 -0.1000 -3.3096
    endloop
endfacet
facet normal 0.0000 -2.1538 0.0000
    outer loop
        vertex 3.4908 -0.1000 -2.6788
        vertex 3.1112 -0.1000 -3.1112
        vertex 3.7340 -0.1000 -3.3096
    endloop
endfacet
facet normal 0.0000 -1.3231 0.0000
    outer loop
        vertex 3.7340 -0.1000 -3.3096
        vertex 3.9672 -0.1000 -3.0440
        vertex 3.4908 -0.1000 -2.6788
    endloop
endfacet
facet normal 0.0000 -2.1551 0.0000
    outer loop
        vertex 3.8104 -0.1000 -2.2000
        vertex 3.4908 -0.1000 -2.6788
        vertex 3.9672 -0.1000 -3.0440
    endloop
endfacet
facet normal 0.0000 -2.4469 0.0000
    outer loop
        vertex 3.9672 -0.1000 -3.0440
        vertex 4.3300 -0.1000 -2.5000
        vertex 3.8104 -0.1000 -2.2000
    endloop
endfacet
facet normal 0.0000 -2.1535 0.0000
    outer loop
        vertex 4.0652 -0.1000 -1.6840
        vertex 3.8104 -0.1000 -2.2000
        vertex 4.3300 -0.1000 -2.5000
    endloop
endfacet
facet normal 0.0000 -2.4475 0.0000
    outer loop
        vertex 4.3300 -0.1000 -2.5000
        vertex 4.6196 -0.1000 -1.9136
        vertex 4.0652 -0.1000 -1.6840
    endloop
endfacet
facet normal 0.0000 -2.1543 0.0000
    outer loop
        vertex 4.2500 -0.1000 -1.1388
        vertex 4.0652 -0.1000 -1.6840
        vertex 4.6196 -0.1000 -1.9136
    endloop
endfacet
facet normal 0.0000 -2.4482 0.0000
    outer loop
        vertex 4.6196 -0.1000 -1.9136
        vertex 4.8296 -0.1000 -1.2940
        vertex 4.2500 -0.1000 -1.1388
    endloop
endfacet
facet normal 0.0000 -2.1532 0.0000
    outer loop
        vertex 4.3620 -0.1000 -0.5744
        vertex 4.2500 -0.1000 -1.1388
        vertex 4.8296 -0.1000 -1.2940
    endloop
endfacet
facet normal 0.0000 -2.4490 0.0000
    outer loop
        vertex 4.8296 -0.1000 -1.2940
        vertex 4.9572 -0.1000 -0.6524
        vertex 4.3620 -0.1000 -0.5744
    endloop
endfacet
facet normal 0.0000 -2.1553 0.0000
    outer loop
        vertex 4.4000 -0.1000 0.0000
        vertex 4.3620 -0.1000 -0.5744
        vertex 4.9572 -0.1000 -0.6524
    endloop
endfacet
facet normal 0.0000 -2.4465 0.0000
    outer loop
        vertex 4.9572 -0.1000 -0.6524
        vertex 5.0000 -0.1000 0.0000
        vertex 4.4000 -0.1000 0.0000
    endloop
endfacet
facet normal 0.0000 -2.1540 0.0000
    outer loop
        vertex 4.3620 -0.1000 0.5744
        vertex 4.4000 -0.1000 0.0000
        vertex 5.0000 -0.1000 0.0000
    endloop
endfacet
facet normal 0.0000 -2.4478 0.0000
    outer loop
        vertex 5.0000 -0.1000 0.0000
        vertex 4.9572 -0.1000 0.6524
        vertex 4.3620 -0.1000 0.5744
    endloop
endfacet
facet normal 0.0000 -2.1542 0.0000
    outer loop
        vertex 4.2500 -0.1000 1.1388
        vertex 4.3620 -0.1000 0.5744
        vertex 4.9572 -0.1000 0.6524
    endloop
endfacet
facet normal 0.0000 -2.4480 0.0000
    outer loop
        vertex 4.9572 -0.1000 0.6524
        vertex 4.8296 -0.1000 1.2940
        vertex 4.2500 -0.1000 1.1388
    endloop
endfacet
facet normal 0.0000 -2.1542 0.0000
    outer loop
        vertex 4.0652 -0.1000 1.6840
        vertex 4.2500 -0.1000 1.1388
        vertex 4.8296 -0.1000 1.2940
    endloop
endfacet
facet normal 0.0000 -2.4483 0.0000
    outer loop
        vertex 4.8296 -0.1000 1.2940
        vertex 4.6196 -0.1000 1.9136
        vertex 4.0652 -0.1000 1.6840
    endloop
endfacet
facet normal 0.0000 -2.1536 0.0000
    outer loop
        vertex 3.8104 -0.1000 2.2000
        vertex 4.0652 -0.1000 1.6840
        vertex 4.6196 -0.1000 1.9136
    endloop
endfacet
facet normal 0.0000 -2.4473 0.0000
    outer loop
        vertex 4.6196 -0.1000 1.9136
        vertex 4.3300 -0.1000 2.5000
        vertex 3.8104 -0.1000 2.2000
    endloop
endfacet
facet normal 0.0000 -2.1542 0.0000
    outer loop
        vertex 3.4908 -0.1000 2.6788
        vertex 3.8104 -0.1000 2.2000
        vertex 4.3300 -0.1000 2.5000
    endloop
endfacet
facet normal 0.0000 -2.4479 0.0000
    outer loop
        vertex 4.3300 -0.1000 2.5000
        vertex 3.9672 -0.1000 3.0440
        vertex 3.4908 -0.1000 2.6788
    endloop
endfacet
facet normal 0.0000 -1.3231 0.0000
    outer loop
        vertex 3.4908 -0.1000 2.6788
        vertex 3.9672 -0.1000 3.0440
        vertex 3.7340 -0.1000 3.3096
    endloop
endfacet
facet normal 0.0000 -2.1538 0.0000
    outer loop
        vertex 3.7340 -0.1000 3.3096
        vertex 3.1112 -0.1000 3.1112
        vertex 3.4908 -0.1000 2.6788
    endloop
endfacet
facet normal 0.0000 -2.1782 0.0000
    outer loop
        vertex 3.3096 -0.1000 3.7340
        vertex 3.1112 -0.1000 3.1112
        vertex 3.7340 -0.1000 3.3096
    endloop
endfacet
facet normal 0.0000 -2.1538 0.0000
    outer loop
        vertex 2.6788 -0.1000 3.4908
        vertex 3.1112 -0.1000 3.1112
        vertex 3.3096 -0.1000 3.7340
    endloop
endfacet
facet normal 0.0000 -1.3231 0.0000
    outer loop
        vertex 3.3096 -0.1000 3.7340
        vertex 3.0440 -0.1000 3.9672
        vertex 2.6788 -0.1000 3.4908
    endloop
endfacet
facet normal 0.0000 -2.1551 0.0000
    outer loop
        vertex 2.2000 -0.1000 3.8104
        vertex 2.6788 -0.1000 3.4908
        vertex 3.0440 -0.1000 3.9672
    endloop
endfacet
facet normal 0.0000 -2.4469 0.0000
    outer loop
        vertex 3.0440 -0.1000 3.9672
        vertex 2.5000 -0.1000 4.3300
        vertex 2.2000 -0.1000 3.8104
    endloop
endfacet
facet normal 0.0000 -2.1535 0.0000
    outer loop
        vertex 1.6840 -0.1000 4.0652
        vertex 2.2000 -0.1000 3.8104
        vertex 2.5000 -0.1000 4.3300
    endloop
endfacet
facet normal 0.0000 -2.4475 0.0000
    outer loop
        vertex 2.5000 -0.1000 4.3300
        vertex 1.9136 -0.1000 4.6196
        vertex 1.6840 -0.1000 4.0652
    endloop
endfacet
facet normal 0.0000 -2.1543 0.0000
    outer loop
        vertex 1.1388 -0.1000 4.2500
        vertex 1.6840 -0.1000 4.0652
        vertex 1.9136 -0.1000 4.6196
    endloop
endfacet
facet normal 0.0000 -2.4482 0.0000
    outer loop
        vertex 1.9136 -0.1000 4.6196
        vertex 1.2940 -0.1000 4.8296
        vertex 1.1388 -0.1000 4.2500
    endloop
endfacet
facet normal 0.0000 -2.1532 0.0000
    outer loop
        vertex 0.5744 -0.1000 4.3620
        vertex 1.1388 -0.1000 4.2500
        vertex 1.2940 -0.1000 4.8296
    endloop
endfacet
facet normal 0.0000 -2.4490 0.0000
    outer loop
        vertex 1.2940 -0.1000 4.8296
        vertex 0.6524 -0.1000 4.9572
        vertex 0.5744 -0.1000 4.3620
    endloop
endfacet
facet normal 0.0000 -2.1553 0.0000
    outer loop
        vertex 0.0000 -0.1000 4.4000
        vertex 0.5744 -0.1000 4.3620
        vertex 0.6524 -0.1000 4.9572
    endloop
endfacet
facet normal 0.0000 -2.4465 0.0000
    outer loop
        vertex 0.6524 -0.1000 4.9572
        vertex 0.0000 -0.1000 5.0000
        vertex 0.0000 -0.1000 4.4000
    endloop
endfacet
facet normal 0.0000 -12.7532 0.0000
    outer loop
        vertex -3.7340 -0.1000 3.3096
        vertex -3.3096 -0.1000 3.7340
        vertex -5.7136 -0.1000 6.1380
    endloop
endfacet
facet normal 0.0000 -12.7532 0.0000
    outer loop
        vertex -5.7136 -0.1000 6.1380
        vertex -6.1380 -0.1000 5.7136
        vertex -3.7340 -0.1000 3.3096
    endloop
endfacet
facet normal 0.0000 -12.7532 0.0000
    outer loop
        vertex 3.3096 -0.1000 3.7340
        vertex 3.7340 -0.1000 3.3096
        vertex 6.1380 -0.1000 5.7136
    endloop
endfacet
facet normal 0.0000 -12.7532 0.0000
    outer loop
        vertex 6.1380 -0.1000 5.7136
        vertex 5.7136 -0.1000 6.1380
        vertex 3.3096 -0.1000 3.7340
    endloop
endfacet
facet normal 0.0000 -12.7532 0.0000
    outer loop
        vertex -3.3096 -0.1000 -3.7340
        vertex -3.7340 -0.1000 -3.3096
        vertex -6.1380 -0.1000 -5.7136
    endloop
endfacet
facet normal 0.0000 -12.7532 0.0000
    outer loop
        vertex -6.1380 -0.1000 -5.7136
        vertex -5.7136 -0.1000 -6.1380
        vertex -3.3096 -0.1000 -3.7340
    endloop
endfacet
facet normal 0.0000 -12.7532 0.0000
    outer loop
        vertex 3.7340 -0.1000 -3.3096
        vertex 3.3096 -0.1000 -3.7340
        vertex 5.7136 -0.1000 -6.1380
    endloop
endfacet
facet normal 0.0000 -12.7532 0.0000
    outer loop
        vertex 5.7136 -0.1000 -6.1380
        vertex 6.1380 -0.1000 -5.7136
        vertex 3.7340 -0.1000 -3.3096
    endloop
endfacet
facet normal 0.0000 -0.1305 0.0000
    outer loop
        vertex 0.0000 0.0000 0.0000
        vertex 8.9226 0.0000 1.1745
        vertex 9.0000 0.0000 0.0000
    endloop
endfacet
facet normal 0.0000 -0.1305 0.0000
    outer loop
        vertex 0.0000 0.0000 0.0000
        vertex 8.6931 0.0000 2.3292
        vertex 8.9226 0.0000 1.1745
    endloop
endfacet
facet normal 0.0000 -0.1305 0.0000
    outer loop
        vertex 0.0000 0.0000 0.0000
        vertex 8.3151 0.0000 3.4443
        vertex 8.6931 0.0000 2.3292
    endloop
endfacet
facet normal 0.0000 -0.1305 0.0000
    outer loop
        vertex 0.0000 0.0000 0.0000
        vertex 7.7940 0.0000 4.5000
        vertex 8.3151 0.0000 3.4443
    endloop
endfacet
facet normal 0.0000 -0.1305 0.0000
    outer loop
        vertex 0.0000 0.0000 0.0000
        vertex 7.1406 0.0000 5.4792
        vertex 7.7940 0.0000 4.5000
    endloop
endfacet
facet normal 0.0000 -0.1305 0.0000
    outer loop
        vertex 0.0000 0.0000 0.0000
        vertex 6.3639 0.0000 6.3639
        vertex 7.1406 0.0000 5.4792
    endloop
endfacet
facet normal 0.0000 -0.1305 0.0000
    outer loop
        vertex 0.0000 0.0000 0.0000
        vertex 5.4792 0.0000 7.1406
        vertex 6.3639 0.0000 6.3639
    endloop
endfacet
facet normal 0.0000 -0.1305 0.0000
    outer loop
        vertex 0.0000 0.0000 0.0000
        vertex 4.5000 0.0000 7.7940
        vertex 5.4792 0.0000 7.1406
    endloop
endfacet
facet normal 0.0000 -0.1305 0.0000
    outer loop
        vertex 0.0000 0.0000 0.0000
        vertex 3.4443 0.0000 8.3151
        vertex 4.5000 0.0000 7.7940
    endloop
endfacet
facet normal 0.0000 -0.1305 0.0000
    outer loop
        vertex 0.0000 0.0000 0.0000
        vertex 2.3292 0.0000 8.6931
        vertex 3.4443 0.0000 8.3151
    endloop
endfacet
facet normal 0.0000 -0.1305 0.0000
    outer loop
        vertex 0.0000 0.0000 0.0000
        vertex 1.1745 0.0000 8.9226
        vertex 2.3292 0.0000 8.6931
    endloop
endfacet
facet normal 0.0000 -0.1305 0.0000
    outer loop
        vertex 0.0000 0.0000 0.0000
        vertex 0.0000 0.0000 9.0000
        vertex 1.1745 0.0000 8.9226
    endloop
endfacet
facet normal 0.0000 -0.1305 0.0000
    outer loop
        vertex 0.0000 0.0000 0.0000
        vertex -1.1745 0.0000 8.9226
        vertex 0.0000 0.0000 9.0000
    endloop
endfacet
facet normal 0.0000 -0.1305 0.0000
    outer loop
        vertex 0.0000 0.0000 0.0000
        vertex -2.3292 0.0000 8.6931
        vertex -1.1745 0.0000 8.9226
    endloop
endfacet
facet normal 0.0000 -0.1305 0.0000
    outer loop
        vertex 0.0000 0.0000 0.0000
        vertex -3.4443 0.0000 8.3151
        vertex -2.3292 0.0000 8.6931
    endloop
endfacet
facet normal 0.0000 -0.1305 0.0000
    outer loop
        vertex 0.0000 0.0000 0.0000
        vertex -4.5000 0.0000 7.7940
        vertex -3.4443 0.0000 8.3151
    endloop
endfacet
facet normal 0.0000 -0.1305 0.0000
    outer loop
        vertex 0.0000 0.0000 0.0000
        vertex -5.4792 0.0000 7.1406
        vertex -4.5000 0.0000 7.7940
    endloop
endfacet
facet normal 0.0000 -0.1305 0.0000
    outer loop
        vertex 0.0000 0.0000 0.0000
        vertex -6.3639 0.0000 6.3639
        vertex -5.4792 0.0000 7.1406
    endloop
endfacet
facet normal 0.0000 -0.1305 0.0000
    outer loop
        vertex 0.0000 0.0000 0.0000
        vertex -7.1406 0.0000 5.4792
        vertex -6.3639 0.0000 6.3639
    endloop
endfacet
facet normal 0.0000 -0.1305 0.0000
    outer loop
        vertex 0.0000 0.0000 0.0000
        vertex -7.7940 0.0000 4.5000
        vertex -7.1406 0.0000 5.4792
    endloop
endfacet
facet normal 0.0000 -0.1305 0.0000
    outer loop
        vertex 0.0000 0.0000 0.0000
        vertex -8.3151 0.0000 3.4443
        vertex -7.7940 0.0000 4.5000
    endloop
endfacet
facet normal 0.0000 -0.1305 0.0000
    outer loop
        vertex 0.0000 0.0000 0.0000
        vertex -8.6931 0.0000 2.3292
        vertex -8.3151 0.0000 3.4443
    endloop
endfacet
facet normal 0.0000 -0.1305 0.0000
    outer loop
        vertex 0.0000 0.0000 0.0000
        vertex -8.9226 0.0000 1.1745
        vertex -8.6931 0.0000 2.3292
    endloop
endfacet
facet normal 0.0000 -0.1305 0.0000
    outer loop
        vertex 0.0000 0.0000 0.0000
        vertex -9.0000 0.0000 0.0000
        vertex -8.9226 0.0000 1.1745
    endloop
endfacet
facet normal 0.0000 -0.1305 0.0000
    outer loop
        vertex 0.0000 0.0000 0.0000
        vertex -8.9226 0.0000 -1.1745
        vertex -9.0000 0.0000 0.0000
    endloop
endfacet
facet normal 0.0000 -0.1305 0.0000
    outer loop
        vertex 0.0000 0.0000 0.0000
        vertex -8.6931 0.0000 -2.3292
        vertex -8.9226 0.0000 -1.1745
    endloop
endfacet
facet normal 0.0000 -0.1305 0.0000
    outer loop
        vertex 0.0000 0.0000 0.0000
        vertex -8.3151 0.0000 -3.4443
        vertex -8.6931 0.0000 -2.3292
    endloop
endfacet
facet normal 0.0000 -0.1305 0.0000
    outer loop
        vertex 0.0000 0.0000 0.0000
        vertex -7.7940 0.0000 -4.5000
        vertex -8.3151 0.0000 -3.4443
    endloop
endfacet
facet normal 0.0000 -0.1305 0.0000
    outer loop
        vertex 0.0000 0.0000 0.0000
        vertex -7.1406 0.0000 -5.4792
        vertex -7.7940 0.0000 -4.5000
    endloop
endfacet
facet normal 0.0000 -0.1305 0.0000
    outer loop
        vertex 0.0000 0.0000 0.0000
        vertex -6.3639 0.0000 -6.3639
        vertex -7.1406 0.0000 -5.4792
    endloop
endfacet
facet normal 0.0000 -0.1305 0.0000
    outer loop
        vertex 0.0000 0.0000 0.0000
        vertex -5.4792 0.0000 -7.1406
        vertex -6.3639 0.0000 -6.3639
    endloop
endfacet
facet normal 0.0000 -0.1305 0.0000
    outer loop
        vertex 0.0000 0.0000 0.0000
        vertex -4.5000 0.0000 -7.7940
        vertex -5.4792 0.0000 -7.1406
    endloop
endfacet
facet normal 0.0000 -0.1305 0.0000
    outer loop
        vertex 0.0000 0.0000 0.0000
        vertex -3.4443 0.0000 -8.3151
        vertex -4.5000 0.0000 -7.7940
    endloop
endfacet
facet normal 0.0000 -0.1305 0.0000
    outer loop
        vertex 0.0000 0.0000 0.0000
        vertex -2.3292 0.0000 -8.6931
        vertex -3.4443 0.0000 -8.3151
    endloop
endfacet
facet normal 0.0000 -0.1305 0.0000
    outer loop
        vertex 0.0000 0.0000 0.0000
        vertex -1.1745 0.0000 -8.9226
        vertex -2.3292 0.0000 -8.6931
    endloop
endfacet
facet normal 0.0000 -0.1305 0.0000
    outer loop
        vertex 0.0000 0.0000 0.0000
        vertex 0.0000 0.0000 -9.0000
        vertex -1.1745 0.0000 -8.9226
    endloop
endfacet
facet normal 0.0000 -0.1305 0.0000
    outer loop
        vertex 0.0000 0.0000 0.0000
        vertex 1.1745 0.0000 -8.9226
        vertex 0.0000 0.0000 -9.0000
    endloop
endfacet
facet normal 0.0000 -0.1305 0.0000
    outer loop
        vertex 0.0000 0.0000 0.0000
        vertex 2.3292 0.0000 -8.6931
        vertex 1.1745 0.0000 -8.9226
    endloop
endfacet
facet normal 0.0000 -0.1305 0.0000
    outer loop
        vertex 0.0000 0.0000 0.0000
        vertex 3.4443 0.0000 -8.3151
        vertex 2.3292 0.0000 -8.6931
    endloop
endfacet
facet normal 0.0000 -0.1305 0.0000
    outer loop
        vertex 0.0000 0.0000 0.0000
        vertex 4.5000 0.0000 -7.7940
        vertex 3.4443 0.0000 -8.3151
    endloop
endfacet
facet normal 0.0000 -0.1305 0.0000
    outer loop
        vertex 0.0000 0.0000 0.0000
        vertex 5.4792 0.0000 -7.1406
        vertex 4.5000 0.0000 -7.7940
    endloop
endfacet
facet normal 0.0000 -0.1305 0.0000
    outer loop
        vertex 0.0000 0.0000 0.0000
        vertex 6.3639 0.0000 -6.3639
        vertex 5.4792 0.0000 -7.1406
    endloop
endfacet
facet normal 0.0000 -0.1305 0.0000
    outer loop
        vertex 0.0000 0.0000 0.0000
        vertex 7.1406 0.0000 -5.4792
        vertex 6.3639 0.0000 -6.3639
    endloop
endfacet
facet normal 0.0000 -0.1305 0.0000
    outer loop
        vertex 0.0000 0.0000 0.0000
        vertex 7.7940 0.0000 -4.5000
        vertex 7.1406 0.0000 -5.4792
    endloop
endfacet
facet normal 0.0000 -0.1305 0.0000
    outer loop
        vertex 0.0000 0.0000 0.0000
        vertex 8.3151 0.0000 -3.4443
        vertex 7.7940 0.0000 -4.5000
    endloop
endfacet
facet normal 0.0000 -0.1305 0.0000
    outer loop
        vertex 0.0000 0.0000 0.0000
        vertex 8.6931 0.0000 -2.3292
        vertex 8.3151 0.0000 -3.4443
    endloop
endfacet
facet normal 0.0000 -0.1305 0.0000
    outer loop
        vertex 0.0000 0.0000 0.0000
        vertex 8.9226 0.0000 -1.1745
        vertex 8.6931 0.0000 -2.3292
    endloop
endfacet
facet normal 0.0000 -0.1305 0.0000
    outer loop
        vertex 0.0000 0.0000 0.0000
        vertex 9.0000 0.0000 0.0000
        vertex 8.9226 0.0000 -1.1745
    endloop
endfacet
facet normal 2.9363 -0.2500 0.1935
    outer loop
        vertex 8.9226 -0.1000 1.1745
        vertex 9.0000 -0.1000 0.0000
        vertex 9.0000 0.0000 0.0000
    endloop
endfacet
facet normal 2.9363 -0.2500 0.1935
    outer loop
        vertex 9.0000 0.0000 0.0000
        vertex 8.9226 0.0000 1.1745
        vertex 8.9226 -0.1000 1.1745
    endloop
endfacet
facet normal 2.8867 -0.2500 0.5737
    outer loop
        vertex 8.6931 -0.1000 2.3292
        vertex 8.9226 -0.1000 1.1745
        vertex 8.9226 0.0000 1.1745
    endloop
endfacet
facet normal 2.8867 -0.2500 0.5737
    outer loop
        vertex 8.9226 0.0000 1.1745
        vertex 8.6931 0.0000 2.3292
        vertex 8.6931 -0.1000 2.3292
    endloop
endfacet
facet normal 2.7878 -0.2500 0.9450
    outer loop
        vertex 8.3151 -0.1000 3.4443
        vertex 8.6931 -0.1000 2.3292
        vertex 8.6931 0.0000 2.3292
    endloop
endfacet
facet normal 2.7878 -0.2500 0.9450
    outer loop
        vertex 8.6931 0.0000 2.3292
        vertex 8.3151 0.0000 3.4443
        vertex 8.3151 -0.1000 3.4443
    endloop
endfacet
facet normal 2.6393 -0.2500 1.3028
    outer loop
        vertex 7.7940 -0.1000 4.5000
        vertex 8.3151 -0.1000 3.4443
        vertex 8.3151 0.0000 3.4443
    endloop
endfacet
facet normal 2.6393 -0.2500 1.3028
    outer loop
        vertex 8.3151 0.0000 3.4443
        vertex 7.7940 0.0000 4.5000
        vertex 7.7940 -0.1000 4.5000
    endloop
endfacet
facet normal 2.4480 -0.2500 1.6335
    outer loop
        vertex 7.1406 -0.1000 5.4792
        vertex 7.7940 -0.1000 4.5000
        vertex 7.7940 0.0000 4.5000
    endloop
endfacet
facet normal 2.4480 -0.2500 1.6335
    outer loop
        vertex 7.7940 0.0000 4.5000
        vertex 7.1406 0.0000 5.4792
        vertex 7.1406 -0.1000 5.4792
    endloop
endfacet
facet normal 2.2117 -0.2500 1.9418
    outer loop
        vertex 6.3639 -0.1000 6.3639
        vertex 7.1406 -0.1000 5.4792
        vertex 7.1406 0.0000 5.4792
    endloop
endfacet
facet normal 2.2117 -0.2500 1.9418
    outer loop
        vertex 7.1406 0.0000 5.4792
        vertex 6.3639 0.0000 6.3639
        vertex 6.3639 -0.1000 6.3639
    endloop
endfacet
facet normal 1.9418 -0.2500 2.2117
    outer loop
        vertex 5.4792 -0.1000 7.1406
        vertex 6.3639 -0.1000 6.3639
        vertex 6.3639 0.0000 6.3639
    endloop
endfacet
facet normal 1.9418 -0.2500 2.2117
    outer loop
        vertex 6.3639 0.0000 6.3639
        vertex 5.4792 0.0000 7.1406
        vertex 5.4792 -0.1000 7.1406
    endloop
endfacet
facet normal 1.6335 -0.2500 2.4480
    outer loop
        vertex 4.5000 -0.1000 7.7940
        vertex 5.4792 -0.1000 7.1406
        vertex 5.4792 0.0000 7.1406
    endloop
endfacet
facet normal 1.6335 -0.2500 2.4480
    outer loop
        vertex 5.4792 0.0000 7.1406
        vertex 4.5000 0.0000 7.7940
        vertex 4.5000 -0.1000 7.7940
    endloop
endfacet
facet normal 1.3028 -0.2500 2.6393
    outer loop
        vertex 3.4443 -0.1000 8.3151
        vertex 4.5000 -0.1000 7.7940
        vertex 4.5000 0.0000 7.7940
    endloop
endfacet
facet normal 1.3028 -0.2500 2.6393
    outer loop
        vertex 4.5000 0.0000 7.7940
        vertex 3.4443 0.0000 8.3151
        vertex 3.4443 -0.1000 8.3151
    endloop
endfacet
facet normal 0.9450 -0.2500 2.7878
    outer loop
        vertex 2.3292 -0.1000 8.6931
        vertex 3.4443 -0.1000 8.3151
        vertex 3.4443 0.0000 8.3151
    endloop
endfacet
facet normal 0.9450 -0.2500 2.7878
    outer loop
        vertex 3.4443 0.0000 8.3151
        vertex 2.3292 0.0000 8.6931
        vertex 2.3292 -0.1000 8.6931
    endloop
endfacet
facet normal 0.5737 -0.2500 2.8867
    outer loop
        vertex 1.1745 -0.1000 8.9226
        vertex 2.3292 -0.1000 8.6931
        vertex 2.3292 0.0000 8.6931
    endloop
endfacet
facet normal 0.5737 -0.2500 2.8867
    outer loop
        vertex 2.3292 0.0000 8.6931
        vertex 1.1745 0.0000 8.9226
        vertex 1.1745 -0.1000 8.9226
    endloop
endfacet
facet normal 0.1935 -0.2500 2.9363
    outer loop
        vertex 0.0000 -0.1000 9.0000
        vertex 1.1745 -0.1000 8.9226
        vertex 1.1745 0.0000 8.9226
    endloop
endfacet
facet normal 0.1935 -0.2500 2.9363
    outer loop
        vertex 1.1745 0.0000 8.9226
        vertex 0.0000 0.0000 9.0000
        vertex 0.0000 -0.1000 9.0000
    endloop
endfacet
facet normal -0.1935 -0.2500 2.9363
    outer loop
        vertex -1.1745 -0.1000 8.9226
        vertex 0.0000 -0.1000 9.0000
        vertex 0.0000 0.0000 9.0000
    endloop
endfacet
facet normal -0.1935 -0.2500 2.9363
    outer loop
        vertex 0.0000 0.0000 9.0000
        vertex -1.1745 0.0000 8.9226
        vertex -1.1745 -0.1000 8.9226
    endloop
endfacet
facet normal -0.5737 -0.2500 2.8867
    outer loop
        vertex -2.3292 -0.1000 8.6931
        vertex -1.1745 -0.1000 8.9226
        vertex -1.1745 0.0000 8.9226
    endloop
endfacet
facet normal -0.5737 -0.2500 2.8867
    outer loop
        vertex -1.1745 0.0000 8.9226
        vertex -2.3292 0.0000 8.6931
        vertex -2.3292 -0.1000 8.6931
    endloop
endfacet
facet normal -0.9450 -0.2500 2.7878
    outer loop
        vertex -3.4443 -0.1000 8.3151
        vertex -2.3292 -0.1000 8.6931
        vertex -2.3292 0.0000 8.6931
    endloop
endfacet
facet normal -0.9450 -0.2500 2.7878
    outer loop
        vertex -2.3292 0.0000 8.6931
        vertex -3.4443 0.0000 8.3151
        vertex -3.4443 -0.1000 8.3151
    endloop
endfacet
facet normal -1.3028 -0.2500 2.6393
    outer loop
        vertex -4.5000 -0.1000 7.7940
        vertex -3.4443 -0.1000 8.3151
        vertex -3.4443 0.0000 8.3151
    endloop
endfacet
facet normal -1.3028 -0.2500 2.6393
    outer loop
        vertex -3.4443 0.0000 8.3151
        vertex -4.5000 0.0000 7.7940
        vertex -4.5000 -0.1000 7.7940
    endloop
endfacet
facet normal -1.6335 -0.2500 2.4480
    outer loop
        vertex -5.4792 -0.1000 7.1406
        vertex -4.5000 -0.1000 7.7940
        vertex -4.5000 0.0000 7.7940
    endloop
endfacet
facet normal -1.6335 -0.2500 2.4480
    outer loop
        vertex -4.5000 0.0000 7.7940
        vertex -5.4792 0.0000 7.1406
        vertex -5.4792 -0.1000 7.1406
    endloop
endfacet
facet normal -1.9418 -0.2500 2.2117
    outer loop
        vertex -6.3639 -0.1000 6.3639
        vertex -5.4792 -0.1000 7.1406
        vertex -5.4792 0.0000 7.1406
    endloop
endfacet
facet normal -1.9418 -0.2500 2.2117
    outer loop
        vertex -5.4792 0.0000 7.1406
        vertex -6.3639 0.0000 6.3639
        vertex -6.3639 -0.1000 6.3639
    endloop
endfacet
facet normal -2.2117 -0.2500 1.9418
    outer loop
        vertex -7.1406 -0.1000 5.4792
        vertex -6.3639 -0.1000 6.3639
        vertex -6.3639 0.0000 6.3639
    endloop
endfacet
facet normal -2.2117 -0.2500 1.9418
    outer loop
        vertex -6.3639 0.0000 6.3639
        vertex -7.1406 0.0000 5.4792
        vertex -7.1406 -0.1000 5.4792
    endloop
endfacet
facet normal -2.4480 -0.2500 1.6335
    outer loop
        vertex -7.7940 -0.1000 4.5000
        vertex -7.1406 -0.1000 5.4792
        vertex -7.1406 0.0000 5.4792
    endloop
endfacet
facet normal -2.4480 -0.2500 1.6335
    outer loop
        vertex -7.1406 0.0000 5.4792
        vertex -7.7940 0.0000 4.5000
        vertex -7.7940 -0.1000 4.5000
    endloop
endfacet
facet normal -2.6393 -0.2500 1.3028
    outer loop
        vertex -8.3151 -0.1000 3.4443
        vertex -7.7940 -0.1000 4.5000
        vertex -7.7940 0.0000 4.5000
    endloop
endfacet
facet normal -2.6393 -0.2500 1.3028
    outer loop
        vertex -7.7940 0.0000 4.5000
        vertex -8.3151 0.0000 3.4443
        vertex -8.3151 -0.1000 3.4443
    endloop
endfacet
facet normal -2.7878 -0.2500 0.9450
    outer loop
        vertex -8.6931 -0.1000 2.3292
        vertex -8.3151 -0.1000 3.4443
        vertex -8.3151 0.0000 3.4443
    endloop
endfacet
facet normal -2.7878 -0.2500 0.9450
    outer loop
        vertex -8.3151 0.0000 3.4443
        vertex -8.6931 0.0000 2.3292
        vertex -8.6931 -0.1000 2.3292
    endloop
endfacet
facet normal -2.8867 -0.2500 0.5737
    outer loop
        vertex -8.9226 -0.1000 1.1745
        vertex -8.6931 -0.1000 2.3292
        vertex -8.6931 0.0000 2.3292
    endloop
endfacet
facet normal -2.8867 -0.2500 0.5737
    outer loop
        vertex -8.6931 0.0000 2.3292
        vertex -8.9226 0.0000 1.1745
        vertex -8.9226 -0.1000 1.1745
    endloop
endfacet
facet normal -2.9363 -0.2500 0.1935
    outer loop
        vertex -9.0000 -0.1000 0.0000
        vertex -8.9226 -0.1000 1.1745
        vertex -8.9226 0.0000 1.1745
    endloop
endfacet
facet normal -2.9363 -0.2500 0.1935
    outer loop
        vertex -8.9226 0.0000 1.1745
        vertex -9.0000 0.0000 0.0000
        vertex -9.0000 -0.1000 0.0000
    endloop
endfacet
facet normal -2.9363 -0.2500 -0.1935
    outer loop
        vertex -8.9226 -0.1000 -1.1745
        vertex -9.0000 -0.1000 0.0000
        vertex -9.0000 0.0000 0.0000
    endloop
endfacet
facet normal -2.9363 -0.2500 -0.1935
    outer loop
        vertex -9.0000 0.0000 0.0000
        vertex -8.9226 0.0000 -1.1745
        vertex -8.9226 -0.1000 -1.1745
    endloop
endfacet
facet normal -2.8867 -0.2500 -0.5737
    outer loop
        vertex -8.6931 -0.1000 -2.3292
        vertex -8.9226 -0.1000 -1.1745
        vertex -8.9226 0.0000 -1.1745
    endloop
endfacet
facet normal -2.8867 -0.2500 -0.5737
    outer loop
        vertex -8.9226 0.0000 -1.1745
        vertex -8.6931 0.0000 -2.3292
        vertex -8.6931 -0.1000 -2.3292
    endloop
endfacet
facet normal -2.7878 -0.2500 -0.9450
    outer loop
        vertex -8.3151 -0.1000 -3.4443
        vertex -8.6931 -0.1000 -2.3292
        vertex -8.6931 0.0000 -2.3292
    endloop
endfacet
facet normal -2.7878 -0.2500 -0.9450
    outer loop
        vertex -8.6931 0.0000 -2.3292
        vertex -8.3151 0.0000 -3.4443
        vertex -8.3151 -0.1000 -3.4443
    endloop
endfacet
facet normal -2.6393 -0.2500 -1.3028
    outer loop
        vertex -7.7940 -0.1000 -4.5000
        vertex -8.3151 -0.1000 -3.4443
        vertex -8.3151 0.0000 -3.4443
    endloop
endfacet
facet normal -2.6393 -0.2500 -1.3028
    outer loop
        vertex -8.3151 0.0000 -3.4443
        vertex -7.7940 0.0000 -4.5000
        vertex -7.7940 -0.1000 -4.5000
    endloop
endfacet
facet normal -2.4480 -0.2500 -1.6335
    outer loop
        vertex -7.1406 -0.1000 -5.4792
        vertex -7.7940 -0.1000 -4.5000
        vertex -7.7940 0.0000 -4.5000
    endloop
endfacet
facet normal -2.4480 -0.2500 -1.6335
    outer loop
        vertex -7.7940 0.0000 -4.5000
        vertex -7.1406 0.0000 -5.4792
        vertex -7.1406 -0.1000 -5.4792
    endloop
endfacet
facet normal -2.2117 -0.2500 -1.9418
    outer loop
        vertex -6.3639 -0.1000 -6.3639
        vertex -7.1406 -0.1000 -5.4792
        vertex -7.1406 0.0000 -5.4792
    endloop
endfacet
facet normal -2.2117 -0.2500 -1.9418
    outer loop
        vertex -7.1406 0.0000 -5.4792
        vertex -6.3639 0.0000 -6.3639
        vertex -6.3639 -0.1000 -6.3639
    endloop
endfacet
facet normal -1.9418 -0.2500 -2.2117
    outer loop
        vertex -5.4792 -0.1000 -7.1406
        vertex -6.3639 -0.1000 -6.3639
        vertex -6.3639 0.0000 -6.3639
    endloop
endfacet
facet normal -1.9418 -0.2500 -2.2117
    outer loop
        vertex -6.3639 0.0000 -6.3639
        vertex -5.4792 0.0000 -7.1406
        vertex -5.4792 -0.1000 -7.1406
    endloop
endfacet
facet normal -1.6335 -0.2500 -2.4480
    outer loop
        vertex -4.5000 -0.1000 -7.7940
        vertex -5.4792 -0.1000 -7.1406
        vertex -5.4792 0.0000 -7.1406
    endloop
endfacet
facet normal -1.6335 -0.2500 -2.4480
    outer loop
        vertex -5.4792 0.0000 -7.1406
        vertex -4.5000 0.0000 -7.7940
        vertex -4.5000 -0.1000 -7.7940
    endloop
endfacet
facet normal -1.3028 -0.2500 -2.6393
    outer loop
        vertex -3.4443 -0.1000 -8.3151
        vertex -4.5000 -0.1000 -7.7940
        vertex -4.5000 0.0000 -7.7940
    endloop
endfacet
facet normal -1.3028 -0.2500 -2.6393
    outer loop
        vertex -4.5000 0.0000 -7.7940
        vertex -3.4443 0.0000 -8.3151
        vertex -3.4443 -0.1000 -8.3151
    endloop
endfacet
facet normal -0.9450 -0.2500 -2.7878
    outer loop
        vertex -2.3292 -0.1000 -8.6931
        vertex -3.4443 -0.1000 -8.3151
        vertex -3.4443 0.0000 -8.3151
    endloop
endfacet
facet normal -0.9450 -0.2500 -2.7878
    outer loop
        vertex -3.4443 0.0000 -8.3151
        vertex -2.3292 0.0000 -8.6931
        vertex -2.3292 -0.1000 -8.6931
    endloop
endfacet
facet normal -0.5737 -0.2500 -2.8867
    outer loop
        vertex -1.1745 -0.1000 -8.9226
        vertex -2.3292 -0.1000 -8.6931
        vertex -2.3292 0.0000 -8.6931
    endloop
endfacet
facet normal -0.5737 -0.2500 -2.8867
    outer loop
        vertex -2.3292 0.0000 -8.6931
        vertex -1.1745 0.0000 -8.9226
        vertex -1.1745 -0.1000 -8.9226
    endloop
endfacet
facet normal -0.1935 -0.2500 -2.9363
    outer loop
        vertex 0.0000 -0.1000 -9.0000
        vertex -1.1745 -0.1000 -8.9226
        vertex -1.1745 0.0000 -8.9226
    endloop
endfacet
facet normal -0.1935 -0.2500 -2.9363
    outer loop
        vertex -1.1745 0.0000 -8.9226
        vertex 0.0000 0.0000 -9.0000
        vertex 0.0000 -0.1000 -9.0000
    endloop
endfacet
facet normal 0.1935 -0.2500 -2.9363
    outer loop
        vertex 1.1745 -0.1000 -8.9226
        vertex 0.0000 -0.1000 -9.0000
        vertex 0.0000 0.0000 -9.0000
    endloop
endfacet
facet normal 0.1935 -0.2500 -2.9363
    outer loop
        vertex 0.0000 0.0000 -9.0000
        vertex 1.1745 0.0000 -8.9226
        vertex 1.1745 -0.1000 -8.9226
    endloop
endfacet
facet normal 0.5737 -0.2500 -2.8867
    outer loop
        vertex 2.3292 -0.1000 -8.6931
        vertex 1.1745 -0.1000 -8.9226
        vertex 1.1745 0.0000 -8.9226
    endloop
endfacet
facet normal 0.5737 -0.2500 -2.8867
    outer loop
        vertex 1.1745 0.0000 -8.9226
        vertex 2.3292 0.0000 -8.6931
        vertex 2.3292 -0.1000 -8.6931
    endloop
endfacet
facet normal 0.9450 -0.2500 -2.7878
    outer loop
        vertex 3.4443 -0.1000 -8.3151
        vertex 2.3292 -0.1000 -8.6931
        vertex 2.3292 0.0000 -8.6931
    endloop
endfacet
facet normal 0.9450 -0.2500 -2.7878
    outer loop
        vertex 2.3292 0.0000 -8.6931
        vertex 3.4443 0.0000 -8.3151
        vertex 3.4443 -0.1000 -8.3151
    endloop
endfacet
facet normal 1.3028 -0.2500 -2.6393
    outer loop
        vertex 4.5000 -0.1000 -7.7940
        vertex 3.4443 -0.1000 -8.3151
        vertex 3.4443 0.0000 -8.3151
    endloop
endfacet
facet normal 1.3028 -0.2500 -2.6393
    outer loop
        vertex 3.4443 0.0000 -8.3151
        vertex 4.5000 0.0000 -7.7940
        vertex 4.5000 -0.1000 -7.7940
    endloop
endfacet
facet normal 1.6335 -0.2500 -2.4480
    outer loop
        vertex 5.4792 -0.1000 -7.1406
        vertex 4.5000 -0.1000 -7.7940
        vertex 4.5000 0.0000 -7.7940
    endloop
endfacet
facet normal 1.6335 -0.2500 -2.4480
    outer loop
        vertex 4.5000 0.0000 -7.7940
        vertex 5.4792 0.0000 -7.1406
        vertex 5.4792 -0.1000 -7.1406
    endloop
endfacet
facet normal 1.9418 -0.2500 -2.2117
    outer loop
        vertex 6.3639 -0.1000 -6.3639
        vertex 5.4792 -0.1000 -7.1406
        vertex 5.4792 0.0000 -7.1406
    endloop
endfacet
facet normal 1.9418 -0.2500 -2.2117
    outer loop
        vertex 5.4792 0.0000 -7.1406
        vertex 6.3639 0.0000 -6.3639
        vertex 6.3639 -0.1000 -6.3639
    endloop
endfacet
facet normal 2.2117 -0.2500 -1.9418
    outer loop
        vertex 7.1406 -0.1000 -5.4792
        vertex 6.3639 -0.1000 -6.3639
        vertex 6.3639 0.0000 -6.3639
    endloop
endfacet
facet normal 2.2117 -0.2500 -1.9418
    outer loop
        vertex 6.3639 0.0000 -6.3639
        vertex 7.1406 0.0000 -5.4792
        vertex 7.1406 -0.1000 -5.4792
    endloop
endfacet
facet normal 2.4480 -0.2500 -1.6335
    outer loop
        vertex 7.7940 -0.1000 -4.5000
        vertex 7.1406 -0.1000 -5.4792
        vertex 7.1406 0.0000 -5.4792
    endloop
endfacet
facet normal 2.4480 -0.2500 -1.6335
    outer loop
        vertex 7.1406 0.0000 -5.4792
        vertex 7.7940 0.0000 -4.5000
        vertex 7.7940 -0.1000 -4.5000
    endloop
endfacet
facet normal 2.6393 -0.2500 -1.3028
    outer loop
        vertex 8.3151 -0.1000 -3.4443
        vertex 7.7940 -0.1000 -4.5000
        vertex 7.7940 0.0000 -4.5000
    endloop
endfacet
facet normal 2.6393 -0.2500 -1.3028
    outer loop
        vertex 7.7940 0.0000 -4.5000
        vertex 8.3151 0.0000 -3.4443
        vertex 8.3151 -0.1000 -3.4443
    endloop
endfacet
facet normal 2.7878 -0.2500 -0.9450
    outer loop
        vertex 8.6931 -0.1000 -2.3292
        vertex 8.3151 -0.1000 -3.4443
        vertex 8.3151 0.0000 -3.4443
    endloop
endfacet
facet normal 2.7878 -0.2500 -0.9450
    outer loop
        vertex 8.3151 0.0000 -3.4443
        vertex 8.6931 0.0000 -2.3292
        vertex 8.6931 -0.1000 -2.3292
    endloop
endfacet
facet normal 2.8867 -0.2500 -0.5737
    outer loop
        vertex 8.9226 -0.1000 -1.1745
        vertex 8.6931 -0.1000 -2.3292
        vertex 8.6931 0.0000 -2.3292
    endloop
endfacet
facet normal 2.8867 -0.2500 -0.5737
    outer loop
        vertex 8.6931 0.0000 -2.3292
        vertex 8.9226 0.0000 -1.1745
        vertex 8.9226 -0.1000 -1.1745
    endloop
endfacet
facet normal 2.9363 -0.2500 -0.1935
    outer loop
        vertex 9.0000 -0.1000 0.0000
        vertex 8.9226 -0.1000 -1.1745
        vertex 8.9226 0.0000 -1.1745
    endloop
endfacet
facet normal 2.9363 -0.2500 -0.1935
    outer loop
        vertex 8.9226 0.0000 -1.1745
        vertex 9.0000 0.0000 0.0000
        vertex 9.0000 -0.1000 0.0000
    endloop
endfacet
endsolid GiantLegoRocks
