solid GiantLegoRocks
facet normal 0.0000 0.7500 0.0000
    outer loop
        vertex 7.6000 0.0000 4.4000
        vertex 7.6000 0.0000 -4.4000
        vertex -7.6000 0.0000 -4.4000
    endloop
endfacet
facet normal 0.0000 0.7500 0.0000
    outer loop
        vertex -7.6000 0.0000 -4.4000
        vertex -7.6000 0.0000 4.4000
        vertex 7.6000 0.0000 4.4000
    endloop
endfacet
facet normal 0.0000 -0.2500 22.0000
    outer loop
        vertex -7.6000 -0.1000 4.4000
        vertex 7.6000 -0.1000 4.4000
        vertex 7.6000 0.0000 4.4000
    endloop
endfacet
facet normal 0.0000 -0.2500 22.0000
    outer loop
        vertex 7.6000 0.0000 4.4000
        vertex -7.6000 0.0000 4.4000
        vertex -7.6000 -0.1000 4.4000
    endloop
endfacet
facet normal -38.0000 -0.2500 0.0000
    outer loop
        vertex -7.6000 -0.1000 -4.4000
        vertex -7.6000 -0.1000 4.4000
        vertex -7.6000 0.0000 4.4000
    endloop
endfacet
facet normal -38.0000 -0.2500 0.0000
    outer loop
        vertex -7.6000 0.0000 4.4000
        vertex -7.6000 0.0000 -4.4000
        vertex -7.6000 -0.1000 -4.4000
    endloop
endfacet
facet normal 0.0000 -0.2500 -22.0000
    outer loop
        vertex 7.6000 -0.1000 -4.4000
        vertex -7.6000 -0.1000 -4.4000
        vertex -7.6000 0.0000 -4.4000
    endloop
endfacet
facet normal 0.0000 -0.2500 -22.0000
    outer loop
        vertex -7.6000 0.0000 -4.4000
        vertex 7.6000 0.0000 -4.4000
        vertex 7.6000 -0.1000 -4.4000
    endloop
endfacet
facet normal 38.0000 -0.2500 0.0000
    outer loop
        vertex 7.6000 -0.1000 4.4000
        vertex 7.6000 -0.1000 -4.4000
        vertex 7.6000 0.0000 -4.4000
    endloop
endfacet
facet normal 38.0000 -0.2500 0.0000
    outer loop
        vertex 7.6000 0.0000 -4.4000
        vertex 7.6000 0.0000 4.4000
        vertex 7.6000 -0.1000 4.4000
    endloop
endfacet
facet normal 0.0000 -7.6503 0.0000
    outer loop
        vertex -2.2000 -0.1000 -1.9560
        vertex -2.5160 -0.1000 -2.7280
        vertex -0.7880 -0.1000 -2.3800
    endloop
endfacet
facet normal 0.0000 -5.0523 0.0000
    outer loop
        vertex -0.7880 -0.1000 -2.3800
        vertex -1.8520 -0.1000 -1.4880
        vertex -2.2000 -0.1000 -1.9560
    endloop
endfacet
facet normal 0.0000 -9.7356 0.0000
    outer loop
        vertex -0.7880 -0.1000 -2.3800
        vertex -2.5160 -0.1000 -2.7280
        vertex -2.6280 -0.1000 -3.6520
    endloop
endfacet
facet normal 0.0000 -41.5308 0.0000
    outer loop
        vertex -2.6280 -0.1000 -3.6520
        vertex 2.5960 -0.1000 -3.6520
        vertex -0.7880 -0.1000 -2.3800
    endloop
endfacet
facet normal 0.0000 -5.6195 0.0000
    outer loop
        vertex -1.3560 -0.1000 -1.0200
        vertex -1.8520 -0.1000 -1.4880
        vertex -0.4480 -0.1000 -1.9760
    endloop
endfacet
facet normal 0.0000 -6.5014 0.0000
    outer loop
        vertex -0.4480 -0.1000 -1.9760
        vertex -0.7200 -0.1000 -0.5440
        vertex -1.3560 -0.1000 -1.0200
    endloop
endfacet
facet normal 0.0000 -26.9028 0.0000
    outer loop
        vertex 2.5960 -0.1000 -2.3800
        vertex -0.7880 -0.1000 -2.3800
        vertex 2.5960 -0.1000 -3.6520
    endloop
endfacet
facet normal 0.0000 -4.5048 0.0000
    outer loop
        vertex 0.3160 -0.1000 -1.4200
        vertex -0.2520 -0.1000 -0.2440
        vertex -0.7200 -0.1000 -0.5440
    endloop
endfacet
facet normal 0.0000 -7.7830 0.0000
    outer loop
        vertex -0.7200 -0.1000 -0.5440
        vertex -0.4480 -0.1000 -1.9760
        vertex 0.3160 -0.1000 -1.4200
    endloop
endfacet
facet normal 0.0000 -4.5821 0.0000
    outer loop
        vertex -1.8520 -0.1000 -1.4880
        vertex -0.7880 -0.1000 -2.3800
        vertex -0.4480 -0.1000 -1.9760
    endloop
endfacet
facet normal 0.0000 -5.8620 0.0000
    outer loop
        vertex -1.0520 -0.1000 1.7800
        vertex -2.1960 -0.1000 2.5880
        vertex -2.4280 -0.1000 1.9320
    endloop
endfacet
facet normal 0.0000 -5.0258 0.0000
    outer loop
        vertex -2.4280 -0.1000 1.9320
        vertex -1.1280 -0.1000 1.2040
        vertex -1.0520 -0.1000 1.7800
    endloop
endfacet
facet normal 0.0000 -0.5160 0.0000
    outer loop
        vertex -2.5040 -0.1000 1.1440
        vertex -1.1280 -0.1000 1.1440
        vertex -1.1280 -0.1000 1.2040
    endloop
endfacet
facet normal 0.0000 -6.7483 0.0000
    outer loop
        vertex -1.1280 -0.1000 1.2040
        vertex -2.4280 -0.1000 1.9320
        vertex -2.5040 -0.1000 1.1440
    endloop
endfacet
facet normal 0.0000 -5.4301 0.0000
    outer loop
        vertex -1.8160 -0.1000 3.1160
        vertex -2.1960 -0.1000 2.5880
        vertex -0.8240 -0.1000 2.2080
    endloop
endfacet
facet normal 0.0000 -5.3545 0.0000
    outer loop
        vertex -0.8240 -0.1000 2.2080
        vertex -1.2920 -0.1000 3.5000
        vertex -1.8160 -0.1000 3.1160
    endloop
endfacet
facet normal 0.0000 -3.7761 0.0000
    outer loop
        vertex -1.2920 -0.1000 3.5000
        vertex -0.8240 -0.1000 2.2080
        vertex -0.4520 -0.1000 2.4720
    endloop
endfacet
facet normal 0.0000 -5.4071 0.0000
    outer loop
        vertex -0.4520 -0.1000 2.4720
        vertex -0.6400 -0.1000 3.7320
        vertex -1.2920 -0.1000 3.5000
    endloop
endfacet
facet normal 0.0000 -4.0094 0.0000
    outer loop
        vertex -0.6400 -0.1000 3.7320
        vertex -0.4520 -0.1000 2.4720
        vertex 0.0440 -0.1000 2.5600
    endloop
endfacet
facet normal 0.0000 -6.0677 0.0000
    outer loop
        vertex 0.0440 -0.1000 2.5600
        vertex 0.1440 -0.1000 3.8080
        vertex -0.6400 -0.1000 3.7320
    endloop
endfacet
facet normal 0.0000 -4.2116 0.0000
    outer loop
        vertex -2.1960 -0.1000 2.5880
        vertex -1.0520 -0.1000 1.7800
        vertex -0.8240 -0.1000 2.2080
    endloop
endfacet
facet normal 0.0000 -2.5567 0.0000
    outer loop
        vertex -0.2520 -0.1000 -0.2440
        vertex 0.6600 -0.1000 -1.2000
        vertex 0.9200 -0.1000 -1.0240
    endloop
endfacet
facet normal 0.0000 -8.1682 0.0000
    outer loop
        vertex 0.9200 -0.1000 -1.0240
        vertex 0.5280 -0.1000 0.3520
        vertex -0.2520 -0.1000 -0.2440
    endloop
endfacet
facet normal 0.0000 -6.6159 0.0000
    outer loop
        vertex 1.7840 -0.1000 -0.3640
        vertex 0.9960 -0.1000 0.9280
        vertex 0.5280 -0.1000 0.3520
    endloop
endfacet
facet normal 0.0000 -9.0474 0.0000
    outer loop
        vertex 0.5280 -0.1000 0.3520
        vertex 0.9200 -0.1000 -1.0240
        vertex 1.7840 -0.1000 -0.3640
    endloop
endfacet
facet normal 0.0000 -6.0908 0.0000
    outer loop
        vertex 2.3080 -0.1000 0.2200
        vertex 2.5800 -0.1000 0.8160
        vertex 0.9960 -0.1000 0.9280
    endloop
endfacet
facet normal 0.0000 -7.1075 0.0000
    outer loop
        vertex 0.9960 -0.1000 0.9280
        vertex 1.7840 -0.1000 -0.3640
        vertex 2.3080 -0.1000 0.2200
    endloop
endfacet
facet normal 0.0000 -5.6928 0.0000
    outer loop
        vertex 1.1520 -0.1000 1.4920
        vertex 0.9960 -0.1000 0.9280
        vertex 2.5800 -0.1000 0.8160
    endloop
endfacet
facet normal 0.0000 -6.5836 0.0000
    outer loop
        vertex 2.5800 -0.1000 0.8160
        vertex 2.6680 -0.1000 1.5120
        vertex 1.1520 -0.1000 1.4920
    endloop
endfacet
facet normal 0.0000 -3.5948 0.0000
    outer loop
        vertex 0.5040 -0.1000 2.4880
        vertex 0.8560 -0.1000 2.2720
        vertex 1.4720 -0.1000 3.5280
    endloop
endfacet
facet normal 0.0000 -5.2606 0.0000
    outer loop
        vertex 1.4720 -0.1000 3.5280
        vertex 0.8600 -0.1000 3.7400
        vertex 0.5040 -0.1000 2.4880
    endloop
endfacet
facet normal 0.0000 -5.7540 0.0000
    outer loop
        vertex 0.5040 -0.1000 2.4880
        vertex 0.8600 -0.1000 3.7400
        vertex 0.1440 -0.1000 3.8080
    endloop
endfacet
facet normal 0.0000 -3.6330 0.0000
    outer loop
        vertex 0.1440 -0.1000 3.8080
        vertex 0.0440 -0.1000 2.5600
        vertex 0.5040 -0.1000 2.4880
    endloop
endfacet
facet normal 0.0000 -3.6316 0.0000
    outer loop
        vertex 0.8560 -0.1000 2.2720
        vertex 1.0800 -0.1000 1.9360
        vertex 1.9800 -0.1000 3.1800
    endloop
endfacet
facet normal 0.0000 -5.3276 0.0000
    outer loop
        vertex 1.9800 -0.1000 3.1800
        vertex 1.4720 -0.1000 3.5280
        vertex 0.8560 -0.1000 2.2720
    endloop
endfacet
facet normal 0.0000 -6.1493 0.0000
    outer loop
        vertex 1.1520 -0.1000 1.4920
        vertex 2.6680 -0.1000 1.5120
        vertex 2.5920 -0.1000 2.1600
    endloop
endfacet
facet normal 0.0000 -4.2966 0.0000
    outer loop
        vertex 2.5920 -0.1000 2.1600
        vertex 1.0800 -0.1000 1.9360
        vertex 1.1520 -0.1000 1.4920
    endloop
endfacet
facet normal 0.0000 -5.5734 0.0000
    outer loop
        vertex 1.0800 -0.1000 1.9360
        vertex 2.5920 -0.1000 2.1600
        vertex 2.3640 -0.1000 2.7160
    endloop
endfacet
facet normal 0.0000 -5.5956 0.0000
    outer loop
        vertex 2.3640 -0.1000 2.7160
        vertex 1.9800 -0.1000 3.1800
        vertex 1.0800 -0.1000 1.9360
    endloop
endfacet
facet normal 0.0000 -3.3094 0.0000
    outer loop
        vertex -0.2520 -0.1000 -0.2440
        vertex 0.3160 -0.1000 -1.4200
        vertex 0.6600 -0.1000 -1.2000
    endloop
endfacet
facet normal 0.0000 -56.2400 0.0000
    outer loop
        vertex 7.6000 -0.1000 4.4000
        vertex -7.6000 -0.1000 4.4000
        vertex 0.1440 -0.1000 3.8080
    endloop
endfacet
facet normal 0.0000 -6.5792 0.0000
    outer loop
        vertex -7.6000 -0.1000 4.4000
        vertex -0.6400 -0.1000 3.7320
        vertex 0.1440 -0.1000 3.8080
    endloop
endfacet
facet normal 0.0000 -12.8141 0.0000
    outer loop
        vertex -7.6000 -0.1000 4.4000
        vertex -1.2920 -0.1000 3.5000
        vertex -0.6400 -0.1000 3.7320
    endloop
endfacet
facet normal 0.0000 -18.0867 0.0000
    outer loop
        vertex -7.6000 -0.1000 4.4000
        vertex -1.8160 -0.1000 3.1160
        vertex -1.2920 -0.1000 3.5000
    endloop
endfacet
facet normal 0.0000 -22.1367 0.0000
    outer loop
        vertex -7.6000 -0.1000 4.4000
        vertex -2.1960 -0.1000 2.5880
        vertex -1.8160 -0.1000 3.1160
    endloop
endfacet
facet normal 0.0000 -24.7838 0.0000
    outer loop
        vertex -7.6000 -0.1000 4.4000
        vertex -2.4280 -0.1000 1.9320
        vertex -2.1960 -0.1000 2.5880
    endloop
endfacet
facet normal 0.0000 -26.6444 0.0000
    outer loop
        vertex -7.6000 -0.1000 4.4000
        vertex -2.5040 -0.1000 1.1440
        vertex -2.4280 -0.1000 1.9320
    endloop
endfacet
facet normal 0.0000 -123.5674 0.0000
    outer loop
        vertex -2.5040 -0.1000 1.1440
        vertex -7.6000 -0.1000 4.4000
        vertex -2.5160 -0.1000 -2.7280
    endloop
endfacet
facet normal 0.0000 -7.5893 0.0000
    outer loop
        vertex -2.5160 -0.1000 -2.7280
        vertex -2.2000 -0.1000 -1.9560
        vertex -2.5040 -0.1000 1.1440
    endloop
endfacet
facet normal 0.0000 -7.6317 0.0000
    outer loop
        vertex -2.5040 -0.1000 1.1440
        vertex -2.2000 -0.1000 -1.9560
        vertex -1.8520 -0.1000 -1.4880
    endloop
endfacet
facet normal 0.0000 -22.6352 0.0000
    outer loop
        vertex -1.8520 -0.1000 -1.4880
        vertex -1.1280 -0.1000 1.1440
        vertex -2.5040 -0.1000 1.1440
    endloop
endfacet
facet normal 0.0000 -6.0415 0.0000
    outer loop
        vertex -1.1280 -0.1000 1.1440
        vertex -1.8520 -0.1000 -1.4880
        vertex -1.3560 -0.1000 -1.0200
    endloop
endfacet
facet normal 0.0000 -7.9236 0.0000
    outer loop
        vertex -1.1280 -0.1000 1.1440
        vertex -1.3560 -0.1000 -1.0200
        vertex -0.7200 -0.1000 -0.5440
    endloop
endfacet
facet normal 0.0000 -5.7024 0.0000
    outer loop
        vertex -1.1280 -0.1000 1.1440
        vertex -0.7200 -0.1000 -0.5440
        vertex -0.2520 -0.1000 -0.2440
    endloop
endfacet
facet normal 0.0000 -10.0296 0.0000
    outer loop
        vertex -0.2520 -0.1000 -0.2440
        vertex 0.5280 -0.1000 0.3520
        vertex -1.1280 -0.1000 1.1440
    endloop
endfacet
facet normal 0.0000 -0.6210 0.0000
    outer loop
        vertex -1.1280 -0.1000 1.2040
        vertex -1.1280 -0.1000 1.1440
        vertex 0.5280 -0.1000 0.3520
    endloop
endfacet
facet normal 0.0000 -8.4537 0.0000
    outer loop
        vertex 0.5280 -0.1000 0.3520
        vertex 0.9960 -0.1000 0.9280
        vertex -1.1280 -0.1000 1.2040
    endloop
endfacet
facet normal 0.0000 -7.7775 0.0000
    outer loop
        vertex -1.0520 -0.1000 1.7800
        vertex -1.1280 -0.1000 1.2040
        vertex 0.9960 -0.1000 0.9280
    endloop
endfacet
facet normal 0.0000 -8.0499 0.0000
    outer loop
        vertex 0.9960 -0.1000 0.9280
        vertex 1.1520 -0.1000 1.4920
        vertex -1.0520 -0.1000 1.7800
    endloop
endfacet
facet normal 0.0000 -6.3061 0.0000
    outer loop
        vertex -0.8240 -0.1000 2.2080
        vertex -1.0520 -0.1000 1.7800
        vertex 1.1520 -0.1000 1.4920
    endloop
endfacet
facet normal 0.0000 -5.1612 0.0000
    outer loop
        vertex 1.1520 -0.1000 1.4920
        vertex 1.0800 -0.1000 1.9360
        vertex -0.8240 -0.1000 2.2080
    endloop
endfacet
facet normal 0.0000 -3.7740 0.0000
    outer loop
        vertex -0.4520 -0.1000 2.4720
        vertex -0.8240 -0.1000 2.2080
        vertex 1.0800 -0.1000 1.9360
    endloop
endfacet
facet normal 0.0000 -2.4668 0.0000
    outer loop
        vertex 1.0800 -0.1000 1.9360
        vertex 0.8560 -0.1000 2.2720
        vertex -0.4520 -0.1000 2.4720
    endloop
endfacet
facet normal 0.0000 -1.3394 0.0000
    outer loop
        vertex 0.0440 -0.1000 2.5600
        vertex -0.4520 -0.1000 2.4720
        vertex 0.8560 -0.1000 2.2720
    endloop
endfacet
facet normal 0.0000 -0.4626 0.0000
    outer loop
        vertex 0.8560 -0.1000 2.2720
        vertex 0.5040 -0.1000 2.4880
        vertex 0.0440 -0.1000 2.5600
    endloop
endfacet
facet normal 0.0000 -34.3497 0.0000
    outer loop
        vertex -2.6280 -0.1000 -3.6520
        vertex -2.5160 -0.1000 -2.7280
        vertex -7.6000 -0.1000 4.4000
    endloop
endfacet
facet normal 0.0000 -273.4600 0.0000
    outer loop
        vertex -7.6000 -0.1000 4.4000
        vertex -7.6000 -0.1000 -4.4000
        vertex -2.6280 -0.1000 -3.6520
    endloop
endfacet
facet normal 0.0000 -24.4222 0.0000
    outer loop
        vertex 2.5960 -0.1000 -3.6520
        vertex -2.6280 -0.1000 -3.6520
        vertex -7.6000 -0.1000 -4.4000
    endloop
endfacet
facet normal 0.0000 -71.0600 0.0000
    outer loop
        vertex -7.6000 -0.1000 -4.4000
        vertex 7.6000 -0.1000 -4.4000
        vertex 2.5960 -0.1000 -3.6520
    endloop
endfacet
facet normal 0.0000 -39.7818 0.0000
    outer loop
        vertex 2.5960 -0.1000 -2.3800
        vertex 2.5960 -0.1000 -3.6520
        vertex 7.6000 -0.1000 -4.4000
    endloop
endfacet
facet normal 0.0000 -99.7529 0.0000
    outer loop
        vertex 2.5960 -0.1000 -2.3800
        vertex 7.6000 -0.1000 -4.4000
        vertex 2.5800 -0.1000 0.8160
    endloop
endfacet
facet normal 0.0000 -5.4928 0.0000
    outer loop
        vertex 2.5800 -0.1000 0.8160
        vertex 2.3080 -0.1000 0.2200
        vertex 2.5960 -0.1000 -2.3800
    endloop
endfacet
facet normal 0.0000 -9.5662 0.0000
    outer loop
        vertex 2.3080 -0.1000 0.2200
        vertex 1.7840 -0.1000 -0.3640
        vertex 2.5960 -0.1000 -2.3800
    endloop
endfacet
facet normal 0.0000 -14.2359 0.0000
    outer loop
        vertex 1.7840 -0.1000 -0.3640
        vertex 0.9200 -0.1000 -1.0240
        vertex 2.5960 -0.1000 -2.3800
    endloop
endfacet
facet normal 0.0000 -4.0471 0.0000
    outer loop
        vertex 0.9200 -0.1000 -1.0240
        vertex 0.6600 -0.1000 -1.2000
        vertex 2.5960 -0.1000 -2.3800
    endloop
endfacet
facet normal 0.0000 -5.1990 0.0000
    outer loop
        vertex 2.5960 -0.1000 -2.3800
        vertex 0.6600 -0.1000 -1.2000
        vertex 0.3160 -0.1000 -1.4200
    endloop
endfacet
facet normal 0.0000 -12.5070 0.0000
    outer loop
        vertex 0.3160 -0.1000 -1.4200
        vertex -0.4480 -0.1000 -1.9760
        vertex 2.5960 -0.1000 -2.3800
    endloop
endfacet
facet normal 0.0000 -8.5446 0.0000
    outer loop
        vertex -0.4480 -0.1000 -1.9760
        vertex -0.7880 -0.1000 -2.3800
        vertex 2.5960 -0.1000 -2.3800
    endloop
endfacet
facet normal 0.0000 -276.1000 0.0000
    outer loop
        vertex 2.5800 -0.1000 0.8160
        vertex 7.6000 -0.1000 -4.4000
        vertex 7.6000 -0.1000 4.4000
    endloop
endfacet
facet normal 0.0000 -19.8658 0.0000
    outer loop
        vertex 7.6000 -0.1000 4.4000
        vertex 2.6680 -0.1000 1.5120
        vertex 2.5800 -0.1000 0.8160
    endloop
endfacet
facet normal 0.0000 -21.3464 0.0000
    outer loop
        vertex 7.6000 -0.1000 4.4000
        vertex 2.5920 -0.1000 2.1600
        vertex 2.6680 -0.1000 1.5120
    endloop
endfacet
facet normal 0.0000 -20.5948 0.0000
    outer loop
        vertex 7.6000 -0.1000 4.4000
        vertex 2.3640 -0.1000 2.7160
        vertex 2.5920 -0.1000 2.1600
    endloop
endfacet
facet normal 0.0000 -19.2260 0.0000
    outer loop
        vertex 7.6000 -0.1000 4.4000
        vertex 1.9800 -0.1000 3.1800
        vertex 2.3640 -0.1000 2.7160
    endloop
endfacet
facet normal 0.0000 -16.0970 0.0000
    outer loop
        vertex 7.6000 -0.1000 4.4000
        vertex 1.4720 -0.1000 3.5280
        vertex 1.9800 -0.1000 3.1800
    endloop
endfacet
facet normal 0.0000 -11.4550 0.0000
    outer loop
        vertex 7.6000 -0.1000 4.4000
        vertex 0.8600 -0.1000 3.7400
        vertex 1.4720 -0.1000 3.5280
    endloop
endfacet
facet normal 0.0000 -5.8180 0.0000
    outer loop
        vertex 7.6000 -0.1000 4.4000
        vertex 0.1440 -0.1000 3.8080
        vertex 0.8600 -0.1000 3.7400
    endloop
endfacet
endsolid GiantLegoRocks
