solid GiantLegoRocks
facet normal 0.0000 17.3708 -17.3708
    outer loop
        vertex 3.4500 0.5500 -0.9528
        vertex -3.4500 0.5500 -0.9528
        vertex -3.4500 0.9528 -0.5500
    endloop
endfacet
facet normal 0.0000 17.3708 -17.3708
    outer loop
        vertex -3.4500 0.9528 -0.5500
        vertex 3.4500 0.9528 -0.5500
        vertex 3.4500 0.5500 -0.9528
    endloop
endfacet
facet normal 0.0000 23.7188 -6.3480
    outer loop
        vertex 3.4500 0.9528 -0.5500
        vertex -3.4500 0.9528 -0.5500
        vertex -3.4500 1.1000 0.0000
    endloop
endfacet
facet normal 0.0000 23.7188 -6.3480
    outer loop
        vertex -3.4500 1.1000 0.0000
        vertex 3.4500 1.1000 0.0000
        vertex 3.4500 0.9528 -0.5500
    endloop
endfacet
facet normal 0.0000 23.7188 6.3480
    outer loop
        vertex 3.4500 1.1000 0.0000
        vertex -3.4500 1.1000 0.0000
        vertex -3.4500 0.9528 0.5500
    endloop
endfacet
facet normal 0.0000 23.7188 6.3480
    outer loop
        vertex -3.4500 0.9528 0.5500
        vertex 3.4500 0.9528 0.5500
        vertex 3.4500 1.1000 0.0000
    endloop
endfacet
facet normal 0.0000 17.3708 17.3708
    outer loop
        vertex 3.4500 0.9528 0.5500
        vertex -3.4500 0.9528 0.5500
        vertex -3.4500 0.5500 0.9528
    endloop
endfacet
facet normal 0.0000 17.3708 17.3708
    outer loop
        vertex -3.4500 0.5500 0.9528
        vertex 3.4500 0.5500 0.9528
        vertex 3.4500 0.9528 0.5500
    endloop
endfacet
facet normal 0.0000 6.3480 23.7188
    outer loop
        vertex 3.4500 0.5500 0.9528
        vertex -3.4500 0.5500 0.9528
        vertex -3.4500 0.0000 1.1000
    endloop
endfacet
facet normal 0.0000 6.3480 23.7188
    outer loop
        vertex -3.4500 0.0000 1.1000
        vertex 3.4500 0.0000 1.1000
        vertex 3.4500 0.5500 0.9528
    endloop
endfacet
facet normal 0.0000 -6.3480 23.7188
    outer loop
        vertex 3.4500 0.0000 1.1000
        vertex -3.4500 0.0000 1.1000
        vertex -3.4500 -0.5500 0.9528
    endloop
endfacet
facet normal 0.0000 -6.3480 23.7188
    outer loop
        vertex -3.4500 -0.5500 0.9528
        vertex 3.4500 -0.5500 0.9528
        vertex 3.4500 0.0000 1.1000
    endloop
endfacet
facet normal 0.0000 -17.3708 17.3708
    outer loop
        vertex 3.4500 -0.5500 0.9528
        vertex -3.4500 -0.5500 0.9528
        vertex -3.4500 -0.9528 0.5500
    endloop
endfacet
facet normal 0.0000 -17.3708 17.3708
    outer loop
        vertex -3.4500 -0.9528 0.5500
        vertex 3.4500 -0.9528 0.5500
        vertex 3.4500 -0.5500 0.9528
    endloop
endfacet
facet normal 0.0000 -23.7188 6.3480
    outer loop
        vertex 3.4500 -0.9528 0.5500
        vertex -3.4500 -0.9528 0.5500
        vertex -3.4500 -1.1000 0.0000
    endloop
endfacet
facet normal 0.0000 -23.7188 6.3480
    outer loop
        vertex -3.4500 -1.1000 0.0000
        vertex 3.4500 -1.1000 0.0000
        vertex 3.4500 -0.9528 0.5500
    endloop
endfacet
facet normal 0.0000 -23.7188 -6.3480
    outer loop
        vertex 3.4500 -1.1000 0.0000
        vertex -3.4500 -1.1000 0.0000
        vertex -3.4500 -0.9528 -0.5500
    endloop
endfacet
facet normal 0.0000 -23.7188 -6.3480
    outer loop
        vertex -3.4500 -0.9528 -0.5500
        vertex 3.4500 -0.9528 -0.5500
        vertex 3.4500 -1.1000 0.0000
    endloop
endfacet
facet normal 0.0000 -17.3708 -17.3708
    outer loop
        vertex 3.4500 -0.9528 -0.5500
        vertex -3.4500 -0.9528 -0.5500
        vertex -3.4500 -0.5500 -0.9528
    endloop
endfacet
facet normal 0.0000 -17.3708 -17.3708
    outer loop
        vertex -3.4500 -0.5500 -0.9528
        vertex 3.4500 -0.5500 -0.9528
        vertex 3.4500 -0.9528 -0.5500
    endloop
endfacet
facet normal 0.0000 -6.3480 -23.7188
    outer loop
        vertex 3.4500 -0.5500 -0.9528
        vertex -3.4500 -0.5500 -0.9528
        vertex -3.4500 0.0000 -1.1000
    endloop
endfacet
facet normal 0.0000 -6.3480 -23.7188
    outer loop
        vertex -3.4500 0.0000 -1.1000
        vertex 3.4500 0.0000 -1.1000
        vertex 3.4500 -0.5500 -0.9528
    endloop
endfacet
facet normal 0.0000 6.3480 -23.7188
    outer loop
        vertex 3.4500 0.0000 -1.1000
        vertex -3.4500 0.0000 -1.1000
        vertex -3.4500 0.5500 -0.9528
    endloop
endfacet
facet normal 0.0000 6.3480 -23.7188
    outer loop
        vertex -3.4500 0.5500 -0.9528
        vertex 3.4500 0.5500 -0.9528
        vertex 3.4500 0.0000 -1.1000
    endloop
endfacet
facet normal -3.7833 0.0000 0.0000
    outer loop
        vertex -3.4500 0.9528 -0.5500
        vertex -3.4500 0.5500 -0.9528
        vertex -3.4500 0.0000 0.0000
    endloop
endfacet
facet normal -3.7812 0.0000 0.0000
    outer loop
        vertex -3.4500 0.0000 0.0000
        vertex -3.4500 1.1000 0.0000
        vertex -3.4500 0.9528 -0.5500
    endloop
endfacet
facet normal -3.7812 0.0000 0.0000
    outer loop
        vertex -3.4500 0.9528 0.5500
        vertex -3.4500 1.1000 0.0000
        vertex -3.4500 0.0000 0.0000
    endloop
endfacet
facet normal -3.7833 0.0000 0.0000
    outer loop
        vertex -3.4500 0.0000 0.0000
        vertex -3.4500 0.5500 0.9528
        vertex -3.4500 0.9528 0.5500
    endloop
endfacet
facet normal -3.7812 0.0000 0.0000
    outer loop
        vertex -3.4500 0.0000 1.1000
        vertex -3.4500 0.5500 0.9528
        vertex -3.4500 0.0000 0.0000
    endloop
endfacet
facet normal -3.7812 0.0000 0.0000
    outer loop
        vertex -3.4500 0.0000 0.0000
        vertex -3.4500 -0.5500 0.9528
        vertex -3.4500 0.0000 1.1000
    endloop
endfacet
facet normal -3.7833 0.0000 0.0000
    outer loop
        vertex -3.4500 -0.9528 0.5500
        vertex -3.4500 -0.5500 0.9528
        vertex -3.4500 0.0000 0.0000
    endloop
endfacet
facet normal -3.7812 0.0000 0.0000
    outer loop
        vertex -3.4500 0.0000 0.0000
        vertex -3.4500 -1.1000 0.0000
        vertex -3.4500 -0.9528 0.5500
    endloop
endfacet
facet normal -3.7812 0.0000 0.0000
    outer loop
        vertex -3.4500 -0.9528 -0.5500
        vertex -3.4500 -1.1000 0.0000
        vertex -3.4500 0.0000 0.0000
    endloop
endfacet
facet normal -3.7833 0.0000 0.0000
    outer loop
        vertex -3.4500 0.0000 0.0000
        vertex -3.4500 -0.5500 -0.9528
        vertex -3.4500 -0.9528 -0.5500
    endloop
endfacet
facet normal -3.7812 0.0000 0.0000
    outer loop
        vertex -3.4500 0.0000 -1.1000
        vertex -3.4500 -0.5500 -0.9528
        vertex -3.4500 0.0000 0.0000
    endloop
endfacet
facet normal -3.7812 0.0000 0.0000
    outer loop
        vertex -3.4500 0.0000 0.0000
        vertex -3.4500 0.5500 -0.9528
        vertex -3.4500 0.0000 -1.1000
    endloop
endfacet
facet normal 3.7833 0.0000 0.0000
    outer loop
        vertex 3.4500 0.0000 0.0000
        vertex 3.4500 0.5500 -0.9528
        vertex 3.4500 0.9528 -0.5500
    endloop
endfacet
facet normal 3.7812 0.0000 0.0000
    outer loop
        vertex 3.4500 0.9528 -0.5500
        vertex 3.4500 1.1000 0.0000
        vertex 3.4500 0.0000 0.0000
    endloop
endfacet
facet normal 3.7812 0.0000 0.0000
    outer loop
        vertex 3.4500 0.0000 0.0000
        vertex 3.4500 1.1000 0.0000
        vertex 3.4500 0.9528 0.5500
    endloop
endfacet
facet normal 3.7833 0.0000 0.0000
    outer loop
        vertex 3.4500 0.9528 0.5500
        vertex 3.4500 0.5500 0.9528
        vertex 3.4500 0.0000 0.0000
    endloop
endfacet
facet normal 3.7812 0.0000 0.0000
    outer loop
        vertex 3.4500 0.0000 0.0000
        vertex 3.4500 0.5500 0.9528
        vertex 3.4500 0.0000 1.1000
    endloop
endfacet
facet normal 3.7812 0.0000 0.0000
    outer loop
        vertex 3.4500 0.0000 1.1000
        vertex 3.4500 -0.5500 0.9528
        vertex 3.4500 0.0000 0.0000
    endloop
endfacet
facet normal 3.7833 0.0000 0.0000
    outer loop
        vertex 3.4500 0.0000 0.0000
        vertex 3.4500 -0.5500 0.9528
        vertex 3.4500 -0.9528 0.5500
    endloop
endfacet
facet normal 3.7812 0.0000 0.0000
    outer loop
        vertex 3.4500 -0.9528 0.5500
        vertex 3.4500 -1.1000 0.0000
        vertex 3.4500 0.0000 0.0000
    endloop
endfacet
facet normal 3.7812 0.0000 0.0000
    outer loop
        vertex 3.4500 0.0000 0.0000
        vertex 3.4500 -1.1000 0.0000
        vertex 3.4500 -0.9528 -0.5500
    endloop
endfacet
facet normal 3.7833 0.0000 0.0000
    outer loop
        vertex 3.4500 -0.9528 -0.5500
        vertex 3.4500 -0.5500 -0.9528
        vertex 3.4500 0.0000 0.0000
    endloop
endfacet
facet normal 3.7812 0.0000 0.0000
    outer loop
        vertex 3.4500 0.0000 0.0000
        vertex 3.4500 -0.5500 -0.9528
        vertex 3.4500 0.0000 -1.1000
    endloop
endfacet
facet normal 3.7812 0.0000 0.0000
    outer loop
        vertex 3.4500 0.0000 -1.1000
        vertex 3.4500 0.5500 -0.9528
        vertex 3.4500 0.0000 0.0000
    endloop
endfacet
facet normal 0.8952 0.0000 0.0000
    outer loop
        vertex 0.6400 0.9876 0.4200
        vertex 0.6400 1.5264 0.2692
        vertex 0.6400 1.4772 0.5488
    endloop
endfacet
facet normal 0.4258 0.0000 0.0000
    outer loop
        vertex 0.6400 1.4772 0.5488
        vertex 0.6400 0.9528 0.5500
        vertex 0.6400 0.9876 0.4200
    endloop
endfacet
facet normal 1.8727 0.0000 0.0000
    outer loop
        vertex 0.6400 0.9528 0.5500
        vertex 0.6400 1.4772 0.5488
        vertex 0.6400 1.2072 1.1208
    endloop
endfacet
facet normal 2.0774 0.0000 0.0000
    outer loop
        vertex 0.6400 1.2072 1.1208
        vertex 0.6400 0.5500 0.9528
        vertex 0.6400 0.9528 0.5500
    endloop
endfacet
facet normal 2.0079 0.0000 0.0000
    outer loop
        vertex 0.6400 0.5500 0.9528
        vertex 0.6400 1.2072 1.1208
        vertex 0.6400 0.6844 1.4760
    endloop
endfacet
facet normal 1.9221 0.0000 0.0000
    outer loop
        vertex 0.6400 0.6844 1.4760
        vertex 0.6400 0.0000 1.1000
        vertex 0.6400 0.5500 0.9528
    endloop
endfacet
facet normal 1.8735 0.0000 0.0000
    outer loop
        vertex 0.6400 0.0000 1.1000
        vertex 0.6400 0.6844 1.4760
        vertex 0.6400 0.0000 1.5380
    endloop
endfacet
facet normal 1.8735 0.0000 0.0000
    outer loop
        vertex 0.6400 0.0000 1.5380
        vertex 0.6400 -0.6844 1.4760
        vertex 0.6400 0.0000 1.1000
    endloop
endfacet
facet normal 1.3085 0.0000 0.0000
    outer loop
        vertex 1.0000 1.5260 0.2708
        vertex 1.0000 0.9876 0.4200
        vertex 1.0000 1.1000 0.0000
    endloop
endfacet
facet normal 1.2233 0.0000 0.0000
    outer loop
        vertex 1.0000 1.1000 0.0000
        vertex 1.0000 1.5396 -0.1800
        vertex 1.0000 1.5260 0.2708
    endloop
endfacet
facet normal 1.6767 0.0000 0.0000
    outer loop
        vertex 1.0000 1.5396 -0.1800
        vertex 1.0000 1.1000 0.0000
        vertex 1.0000 0.9528 -0.5500
    endloop
endfacet
facet normal 2.1792 0.0000 0.0000
    outer loop
        vertex 1.0000 0.9528 -0.5500
        vertex 1.0000 1.1872 -0.9964
        vertex 1.0000 1.5396 -0.1800
    endloop
endfacet
facet normal 1.7139 0.0000 0.0000
    outer loop
        vertex 1.0000 1.1872 -0.9964
        vertex 1.0000 0.9528 -0.5500
        vertex 1.0000 0.5500 -0.9528
    endloop
endfacet
facet normal 2.1475 0.0000 0.0000
    outer loop
        vertex 1.0000 0.5500 -0.9528
        vertex 1.0000 0.4444 -1.4848
        vertex 1.0000 1.1872 -0.9964
    endloop
endfacet
facet normal 1.7316 0.0000 0.0000
    outer loop
        vertex 1.0000 0.4444 -1.4848
        vertex 1.0000 0.5500 -0.9528
        vertex 1.0000 0.0000 -1.1000
    endloop
endfacet
facet normal 1.2499 0.0000 0.0000
    outer loop
        vertex 1.0000 0.0000 -1.1000
        vertex 1.0000 0.0000 -1.5500
        vertex 1.0000 0.4444 -1.4848
    endloop
endfacet
facet normal 0.0000 -0.0605 -0.0622
    outer loop
        vertex 0.7600 2.1276 4.9192
        vertex 0.7600 2.3764 4.6772
        vertex 0.8000 2.3764 4.6772
    endloop
endfacet
facet normal 0.0000 -0.0605 -0.0622
    outer loop
        vertex 0.8000 2.3764 4.6772
        vertex 0.8000 2.1276 4.9192
        vertex 0.7600 2.1276 4.9192
    endloop
endfacet
facet normal 0.0000 -0.0677 -0.5319
    outer loop
        vertex 0.8000 2.1276 4.9192
        vertex 0.8000 0.0000 5.1900
        vertex 0.7600 0.0000 5.1900
    endloop
endfacet
facet normal 0.0000 -0.0677 -0.5319
    outer loop
        vertex 0.7600 0.0000 5.1900
        vertex 0.7600 2.1276 4.9192
        vertex 0.8000 2.1276 4.9192
    endloop
endfacet
facet normal 0.0000 -0.0093 0.0669
    outer loop
        vertex 0.8000 1.9540 4.0860
        vertex 0.8000 2.2216 4.1232
        vertex 0.7600 2.2216 4.1232
    endloop
endfacet
facet normal 0.0000 -0.0093 0.0669
    outer loop
        vertex 0.7600 2.2216 4.1232
        vertex 0.7600 1.9540 4.0860
        vertex 0.8000 1.9540 4.0860
    endloop
endfacet
facet normal 0.0000 -0.0543 0.0404
    outer loop
        vertex 0.8000 2.2216 4.1232
        vertex 0.8000 2.3832 4.3404
        vertex 0.7600 2.3832 4.3404
    endloop
endfacet
facet normal 0.0000 -0.0543 0.0404
    outer loop
        vertex 0.7600 2.3832 4.3404
        vertex 0.7600 2.2216 4.1232
        vertex 0.8000 2.2216 4.1232
    endloop
endfacet
facet normal 0.0000 -0.0842 -0.0017
    outer loop
        vertex 0.8000 2.3832 4.3404
        vertex 0.8000 2.3764 4.6772
        vertex 0.7600 2.3764 4.6772
    endloop
endfacet
facet normal 0.0000 -0.0842 -0.0017
    outer loop
        vertex 0.7600 2.3764 4.6772
        vertex 0.7600 2.3832 4.3404
        vertex 0.8000 2.3832 4.3404
    endloop
endfacet
facet normal -5.8915 0.0000 0.0000
    outer loop
        vertex -0.6000 0.0000 6.5432
        vertex -0.6000 0.5216 6.4036
        vertex -0.6000 0.5216 4.5964
    endloop
endfacet
facet normal -6.8017 0.0000 0.0000
    outer loop
        vertex -0.6000 0.5216 4.5964
        vertex -0.6000 0.0000 4.4568
        vertex -0.6000 0.0000 6.5432
    endloop
endfacet
facet normal -2.4906 0.0000 0.0000
    outer loop
        vertex -0.6000 0.9036 4.9784
        vertex -0.6000 0.5216 6.4036
        vertex -0.6000 0.9036 6.0216
    endloop
endfacet
facet normal -0.9102 0.0000 0.0000
    outer loop
        vertex -0.6000 0.9036 6.0216
        vertex -0.6000 1.0432 5.5000
        vertex -0.6000 0.9036 4.9784
    endloop
endfacet
facet normal -4.3147 0.0000 0.0000
    outer loop
        vertex -0.6000 0.9036 4.9784
        vertex -0.6000 0.5216 4.5964
        vertex -0.6000 0.5216 6.4036
    endloop
endfacet
facet normal -0.7773 -0.5690 -0.5690
    outer loop
        vertex -0.8000 0.6216 6.5768
        vertex -0.8000 1.0768 6.1216
        vertex -0.6000 0.9036 6.0216
    endloop
endfacet
facet normal -0.6523 -0.4775 -0.4775
    outer loop
        vertex -0.6000 0.9036 6.0216
        vertex -0.6000 0.5216 6.4036
        vertex -0.8000 0.6216 6.5768
    endloop
endfacet
facet normal -0.7773 -0.5690 0.5690
    outer loop
        vertex -0.8000 1.0768 4.8784
        vertex -0.8000 0.6216 4.4232
        vertex -0.6000 0.5216 4.5964
    endloop
endfacet
facet normal -0.6523 -0.4775 0.4775
    outer loop
        vertex -0.6000 0.5216 4.5964
        vertex -0.6000 0.9036 4.9784
        vertex -0.8000 1.0768 4.8784
    endloop
endfacet
facet normal -0.7769 -0.7770 0.2080
    outer loop
        vertex -0.8000 1.2432 5.5000
        vertex -0.8000 1.0768 4.8784
        vertex -0.6000 0.9036 4.9784
    endloop
endfacet
facet normal -0.6520 -0.6520 0.1745
    outer loop
        vertex -0.6000 0.9036 4.9784
        vertex -0.6000 1.0432 5.5000
        vertex -0.8000 1.2432 5.5000
    endloop
endfacet
facet normal -0.7770 -0.7770 -0.2080
    outer loop
        vertex -0.8000 1.0768 6.1216
        vertex -0.8000 1.2432 5.5000
        vertex -0.6000 1.0432 5.5000
    endloop
endfacet
facet normal -0.6519 -0.6520 -0.1745
    outer loop
        vertex -0.6000 1.0432 5.5000
        vertex -0.6000 0.9036 6.0216
        vertex -0.8000 1.0768 6.1216
    endloop
endfacet
facet normal 6.1791 0.0000 0.0000
    outer loop
        vertex 1.3200 0.0000 -2.6500
        vertex 1.3200 1.0940 -2.9412
        vertex 1.3200 1.1876 -2.0624
    endloop
endfacet
facet normal 7.0166 0.0000 0.0000
    outer loop
        vertex 1.3200 1.1876 -2.0624
        vertex 1.3200 0.4444 -1.4848
        vertex 1.3200 0.0000 -2.6500
    endloop
endfacet
facet normal 3.0553 0.0000 0.0000
    outer loop
        vertex 1.3200 0.0000 -2.6500
        vertex 1.3200 0.4444 -1.4848
        vertex 1.3200 0.0000 -1.5500
    endloop
endfacet
facet normal 9.0247 0.0000 0.0000
    outer loop
        vertex 1.3200 3.0856 0.2528
        vertex 1.3200 2.0488 0.8236
        vertex 1.3200 2.2764 -0.6944
    endloop
endfacet
facet normal 19.7970 0.0000 0.0000
    outer loop
        vertex 1.3200 2.2764 -0.6944
        vertex 1.3200 3.1700 -3.5628
        vertex 1.3200 3.0856 0.2528
    endloop
endfacet
facet normal 11.4836 0.0000 0.0000
    outer loop
        vertex 1.3200 2.2764 -0.6944
        vertex 1.3200 2.3252 -2.9072
        vertex 1.3200 3.1700 -3.5628
    endloop
endfacet
facet normal 1.0413 0.0000 0.0000
    outer loop
        vertex 1.3200 1.5264 0.2692
        vertex 1.3200 2.0488 0.8236
        vertex 1.3200 1.7464 0.8216
    endloop
endfacet
facet normal 0.5543 0.0000 0.0000
    outer loop
        vertex 1.3200 1.7464 0.8216
        vertex 1.3200 1.4772 0.5488
        vertex 1.3200 1.5264 0.2692
    endloop
endfacet
facet normal 1.5124 0.0000 0.0000
    outer loop
        vertex 1.3200 2.0488 0.8236
        vertex 1.3200 1.5264 0.2692
        vertex 1.3200 1.5396 -0.1800
    endloop
endfacet
facet normal 6.2587 0.0000 0.0000
    outer loop
        vertex 1.3200 1.5396 -0.1800
        vertex 1.3200 2.2764 -0.6944
        vertex 1.3200 2.0488 0.8236
    endloop
endfacet
facet normal 4.8925 0.0000 0.0000
    outer loop
        vertex 1.3200 2.2764 -0.6944
        vertex 1.3200 1.5396 -0.1800
        vertex 1.3200 1.1872 -0.9964
    endloop
endfacet
facet normal 4.4733 0.0000 0.0000
    outer loop
        vertex 1.3200 1.1872 -0.9964
        vertex 1.3200 1.8476 -1.4704
        vertex 1.3200 2.2764 -0.6944
    endloop
endfacet
facet normal 4.3987 0.0000 0.0000
    outer loop
        vertex 1.3200 1.1876 -2.0624
        vertex 1.3200 1.8476 -1.4704
        vertex 1.3200 1.1872 -0.9964
    endloop
endfacet
facet normal 4.9501 0.0000 0.0000
    outer loop
        vertex 1.3200 1.1872 -0.9964
        vertex 1.3200 0.4444 -1.4848
        vertex 1.3200 1.1876 -2.0624
    endloop
endfacet
facet normal 3.8777 0.0000 0.0000
    outer loop
        vertex 1.3200 2.3252 -2.9072
        vertex 1.3200 1.8064 -2.4176
        vertex 1.3200 1.0940 -2.9412
    endloop
endfacet
facet normal 8.1248 0.0000 0.0000
    outer loop
        vertex 1.3200 1.0940 -2.9412
        vertex 1.3200 2.2328 -3.9656
        vertex 1.3200 2.3252 -2.9072
    endloop
endfacet
facet normal 3.6066 0.0000 0.0000
    outer loop
        vertex 1.3200 1.8064 -2.4176
        vertex 1.3200 1.1876 -2.0624
        vertex 1.3200 1.0940 -2.9412
    endloop
endfacet
facet normal 5.9670 0.0000 0.0000
    outer loop
        vertex 1.3200 3.1700 -3.5628
        vertex 1.3200 2.3252 -2.9072
        vertex 1.3200 2.2328 -3.9656
    endloop
endfacet
facet normal 1.9224 0.0000 0.0000
    outer loop
        vertex 1.3200 2.2328 -3.9656
        vertex 1.3200 2.6260 -4.1248
        vertex 1.3200 3.1700 -3.5628
    endloop
endfacet
facet normal 0.7972 0.0000 0.0000
    outer loop
        vertex 1.3200 3.1700 -3.5628
        vertex 1.3200 2.6260 -4.1248
        vertex 1.3200 3.0152 -3.9572
    endloop
endfacet
facet normal 0.0000 0.0635 0.4885
    outer loop
        vertex 0.8000 0.0000 4.3400
        vertex 0.8000 1.9540 4.0860
        vertex 0.7600 1.9540 4.0860
    endloop
endfacet
facet normal 0.0000 0.0635 0.4885
    outer loop
        vertex 0.7600 1.9540 4.0860
        vertex 0.7600 0.0000 4.3400
        vertex 0.8000 0.0000 4.3400
    endloop
endfacet
facet normal 11.3029 0.0000 0.0000
    outer loop
        vertex 0.7600 2.1276 4.9192
        vertex 0.7600 0.0000 5.1900
        vertex 0.7600 0.0000 4.3400
    endloop
endfacet
facet normal 10.4510 0.0000 0.0000
    outer loop
        vertex 0.7600 0.0000 4.3400
        vertex 0.7600 1.9540 4.0860
        vertex 0.7600 2.1276 4.9192
    endloop
endfacet
facet normal 1.5582 0.0000 0.0000
    outer loop
        vertex 0.7600 2.3764 4.6772
        vertex 0.7600 2.1276 4.9192
        vertex 0.7600 1.9540 4.0860
    endloop
endfacet
facet normal 0.8906 0.0000 0.0000
    outer loop
        vertex 0.7600 1.9540 4.0860
        vertex 0.7600 2.2216 4.1232
        vertex 0.7600 2.3764 4.6772
    endloop
endfacet
facet normal 0.3494 0.0000 0.0000
    outer loop
        vertex 0.7600 2.3832 4.3404
        vertex 0.7600 2.3764 4.6772
        vertex 0.7600 2.2216 4.1232
    endloop
endfacet
facet normal 21.4758 0.0000 0.0000
    outer loop
        vertex 0.8000 3.0856 0.2528
        vertex 0.8000 2.9616 5.8664
        vertex 0.8000 2.3832 4.3404
    endloop
endfacet
facet normal 9.0729 0.0000 0.0000
    outer loop
        vertex 0.8000 2.3832 4.3404
        vertex 0.8000 2.1856 3.4236
        vertex 0.8000 3.0856 0.2528
    endloop
endfacet
facet normal 31.3821 0.0000 0.0000
    outer loop
        vertex 0.8000 0.0000 7.5500
        vertex 0.8000 0.0000 5.1900
        vertex 0.8000 2.1276 4.9192
    endloop
endfacet
facet normal 27.6112 0.0000 0.0000
    outer loop
        vertex 0.8000 2.1276 4.9192
        vertex 0.8000 2.4524 6.5940
        vertex 0.8000 0.0000 7.5500
    endloop
endfacet
facet normal 6.8071 0.0000 0.0000
    outer loop
        vertex 0.8000 2.4524 6.5940
        vertex 0.8000 2.1276 4.9192
        vertex 0.8000 2.9616 5.8664
    endloop
endfacet
facet normal 0.7480 0.0000 0.0000
    outer loop
        vertex 0.8000 2.9616 5.8664
        vertex 0.8000 2.8176 6.3072
        vertex 0.8000 2.4524 6.5940
    endloop
endfacet
facet normal 1.4227 0.0000 0.0000
    outer loop
        vertex 0.8000 1.2072 1.1208
        vertex 0.8000 1.4772 0.5488
        vertex 0.8000 1.7464 0.8216
    endloop
endfacet
facet normal 6.7472 0.0000 0.0000
    outer loop
        vertex 0.8000 1.7464 0.8216
        vertex 0.8000 2.2044 2.5696
        vertex 0.8000 1.2072 1.1208
    endloop
endfacet
facet normal 5.6253 0.0000 0.0000
    outer loop
        vertex 0.8000 0.0000 4.3400
        vertex 0.8000 -0.7392 3.7312
        vertex 0.8000 0.7392 3.7312
    endloop
endfacet
facet normal 6.2615 0.0000 0.0000
    outer loop
        vertex 0.8000 0.7392 3.7312
        vertex 0.8000 1.9540 4.0860
        vertex 0.8000 0.0000 4.3400
    endloop
endfacet
facet normal 5.5428 0.0000 0.0000
    outer loop
        vertex 0.8000 1.9540 4.0860
        vertex 0.8000 0.7392 3.7312
        vertex 0.8000 2.1856 3.4236
    endloop
endfacet
facet normal 1.1617 0.0000 0.0000
    outer loop
        vertex 0.8000 2.1856 3.4236
        vertex 0.8000 2.2216 4.1232
        vertex 0.8000 1.9540 4.0860
    endloop
endfacet
facet normal 6.2241 0.0000 0.0000
    outer loop
        vertex 0.8000 0.7492 2.9252
        vertex 0.8000 0.0000 1.5380
        vertex 0.8000 0.6844 1.4760
    endloop
endfacet
facet normal 13.3245 0.0000 0.0000
    outer loop
        vertex 0.8000 0.6844 1.4760
        vertex 0.8000 2.2044 2.5696
        vertex 0.8000 0.7492 2.9252
    endloop
endfacet
facet normal 6.9477 0.0000 0.0000
    outer loop
        vertex 0.8000 0.6844 1.4760
        vertex 0.8000 1.2072 1.1208
        vertex 0.8000 2.2044 2.5696
    endloop
endfacet
facet normal 3.2980 0.0000 0.0000
    outer loop
        vertex 0.8000 1.7464 0.8216
        vertex 0.8000 2.0488 0.8236
        vertex 0.8000 2.2044 2.5696
    endloop
endfacet
facet normal 11.8692 0.0000 0.0000
    outer loop
        vertex 0.8000 3.0856 0.2528
        vertex 0.8000 2.2044 2.5696
        vertex 0.8000 2.0488 0.8236
    endloop
endfacet
facet normal 4.4312 0.0000 0.0000
    outer loop
        vertex 0.8000 3.0856 0.2528
        vertex 0.8000 2.1856 3.4236
        vertex 0.8000 2.2044 2.5696
    endloop
endfacet
facet normal 2.7343 0.0000 0.0000
    outer loop
        vertex 0.8000 2.1276 4.9192
        vertex 0.8000 2.3764 4.6772
        vertex 0.8000 2.9616 5.8664
    endloop
endfacet
facet normal 0.6577 0.0000 0.0000
    outer loop
        vertex 0.8000 2.2216 4.1232
        vertex 0.8000 2.1856 3.4236
        vertex 0.8000 2.3832 4.3404
    endloop
endfacet
facet normal 1.2824 0.0000 0.0000
    outer loop
        vertex 0.8000 2.3832 4.3404
        vertex 0.8000 2.9616 5.8664
        vertex 0.8000 2.3764 4.6772
    endloop
endfacet
facet normal -0.7769 -0.2080 -0.7770
    outer loop
        vertex -0.8000 0.0000 6.7432
        vertex -0.8000 0.6216 6.5768
        vertex -0.6000 0.5216 6.4036
    endloop
endfacet
facet normal -0.6520 -0.1745 -0.6520
    outer loop
        vertex -0.6000 0.5216 6.4036
        vertex -0.6000 0.0000 6.5432
        vertex -0.8000 0.0000 6.7432
    endloop
endfacet
facet normal -0.7770 -0.2080 0.7770
    outer loop
        vertex -0.8000 0.6216 4.4232
        vertex -0.8000 0.0000 4.2568
        vertex -0.6000 0.0000 4.4568
    endloop
endfacet
facet normal -0.6519 -0.1745 0.6520
    outer loop
        vertex -0.6000 0.0000 4.4568
        vertex -0.6000 0.5216 4.5964
        vertex -0.8000 0.6216 4.4232
    endloop
endfacet
facet normal -0.8952 0.0000 0.0000
    outer loop
        vertex -0.6400 1.4772 0.5488
        vertex -0.6400 1.5264 0.2692
        vertex -0.6400 0.9876 0.4200
    endloop
endfacet
facet normal -0.4258 0.0000 0.0000
    outer loop
        vertex -0.6400 0.9876 0.4200
        vertex -0.6400 0.9528 0.5500
        vertex -0.6400 1.4772 0.5488
    endloop
endfacet
facet normal -1.8727 0.0000 0.0000
    outer loop
        vertex -0.6400 1.2072 1.1208
        vertex -0.6400 1.4772 0.5488
        vertex -0.6400 0.9528 0.5500
    endloop
endfacet
facet normal -2.0774 0.0000 0.0000
    outer loop
        vertex -0.6400 0.9528 0.5500
        vertex -0.6400 0.5500 0.9528
        vertex -0.6400 1.2072 1.1208
    endloop
endfacet
facet normal -2.0079 0.0000 0.0000
    outer loop
        vertex -0.6400 0.6844 1.4760
        vertex -0.6400 1.2072 1.1208
        vertex -0.6400 0.5500 0.9528
    endloop
endfacet
facet normal -1.9221 0.0000 0.0000
    outer loop
        vertex -0.6400 0.5500 0.9528
        vertex -0.6400 0.0000 1.1000
        vertex -0.6400 0.6844 1.4760
    endloop
endfacet
facet normal -1.8735 0.0000 0.0000
    outer loop
        vertex -0.6400 0.0000 1.5380
        vertex -0.6400 0.6844 1.4760
        vertex -0.6400 0.0000 1.1000
    endloop
endfacet
facet normal -1.8735 0.0000 0.0000
    outer loop
        vertex -0.6400 0.0000 1.1000
        vertex -0.6400 -0.6844 1.4760
        vertex -0.6400 0.0000 1.5380
    endloop
endfacet
facet normal -1.3085 0.0000 0.0000
    outer loop
        vertex -1.0000 1.1000 0.0000
        vertex -1.0000 0.9876 0.4200
        vertex -1.0000 1.5260 0.2708
    endloop
endfacet
facet normal -1.2233 0.0000 0.0000
    outer loop
        vertex -1.0000 1.5260 0.2708
        vertex -1.0000 1.5396 -0.1800
        vertex -1.0000 1.1000 0.0000
    endloop
endfacet
facet normal -1.6767 0.0000 0.0000
    outer loop
        vertex -1.0000 0.9528 -0.5500
        vertex -1.0000 1.1000 0.0000
        vertex -1.0000 1.5396 -0.1800
    endloop
endfacet
facet normal -2.1792 0.0000 0.0000
    outer loop
        vertex -1.0000 1.5396 -0.1800
        vertex -1.0000 1.1872 -0.9964
        vertex -1.0000 0.9528 -0.5500
    endloop
endfacet
facet normal -1.7139 0.0000 0.0000
    outer loop
        vertex -1.0000 0.5500 -0.9528
        vertex -1.0000 0.9528 -0.5500
        vertex -1.0000 1.1872 -0.9964
    endloop
endfacet
facet normal -2.1475 0.0000 0.0000
    outer loop
        vertex -1.0000 1.1872 -0.9964
        vertex -1.0000 0.4444 -1.4848
        vertex -1.0000 0.5500 -0.9528
    endloop
endfacet
facet normal -1.7316 0.0000 0.0000
    outer loop
        vertex -1.0000 0.0000 -1.1000
        vertex -1.0000 0.5500 -0.9528
        vertex -1.0000 0.4444 -1.4848
    endloop
endfacet
facet normal -1.2499 0.0000 0.0000
    outer loop
        vertex -1.0000 0.4444 -1.4848
        vertex -1.0000 0.0000 -1.5500
        vertex -1.0000 0.0000 -1.1000
    endloop
endfacet
facet normal -6.1791 0.0000 0.0000
    outer loop
        vertex -1.3200 1.1876 -2.0624
        vertex -1.3200 1.0940 -2.9412
        vertex -1.3200 0.0000 -2.6500
    endloop
endfacet
facet normal -7.0166 0.0000 0.0000
    outer loop
        vertex -1.3200 0.0000 -2.6500
        vertex -1.3200 0.4444 -1.4848
        vertex -1.3200 1.1876 -2.0624
    endloop
endfacet
facet normal -3.0553 0.0000 0.0000
    outer loop
        vertex -1.3200 0.0000 -1.5500
        vertex -1.3200 0.4444 -1.4848
        vertex -1.3200 0.0000 -2.6500
    endloop
endfacet
facet normal -9.0247 0.0000 0.0000
    outer loop
        vertex -1.3200 2.2764 -0.6944
        vertex -1.3200 2.0488 0.8236
        vertex -1.3200 3.0856 0.2528
    endloop
endfacet
facet normal -19.7970 0.0000 0.0000
    outer loop
        vertex -1.3200 3.0856 0.2528
        vertex -1.3200 3.1700 -3.5628
        vertex -1.3200 2.2764 -0.6944
    endloop
endfacet
facet normal -11.4836 0.0000 0.0000
    outer loop
        vertex -1.3200 2.2764 -0.6944
        vertex -1.3200 3.1700 -3.5628
        vertex -1.3200 2.3252 -2.9072
    endloop
endfacet
facet normal -1.0413 0.0000 0.0000
    outer loop
        vertex -1.3200 1.7464 0.8216
        vertex -1.3200 2.0488 0.8236
        vertex -1.3200 1.5264 0.2692
    endloop
endfacet
facet normal -0.5543 0.0000 0.0000
    outer loop
        vertex -1.3200 1.5264 0.2692
        vertex -1.3200 1.4772 0.5488
        vertex -1.3200 1.7464 0.8216
    endloop
endfacet
facet normal -1.5124 0.0000 0.0000
    outer loop
        vertex -1.3200 1.5396 -0.1800
        vertex -1.3200 1.5264 0.2692
        vertex -1.3200 2.0488 0.8236
    endloop
endfacet
facet normal -6.2587 0.0000 0.0000
    outer loop
        vertex -1.3200 2.0488 0.8236
        vertex -1.3200 2.2764 -0.6944
        vertex -1.3200 1.5396 -0.1800
    endloop
endfacet
facet normal -4.8925 0.0000 0.0000
    outer loop
        vertex -1.3200 1.1872 -0.9964
        vertex -1.3200 1.5396 -0.1800
        vertex -1.3200 2.2764 -0.6944
    endloop
endfacet
facet normal -4.4733 0.0000 0.0000
    outer loop
        vertex -1.3200 2.2764 -0.6944
        vertex -1.3200 1.8476 -1.4704
        vertex -1.3200 1.1872 -0.9964
    endloop
endfacet
facet normal -4.3987 0.0000 0.0000
    outer loop
        vertex -1.3200 1.1872 -0.9964
        vertex -1.3200 1.8476 -1.4704
        vertex -1.3200 1.1876 -2.0624
    endloop
endfacet
facet normal -4.9501 0.0000 0.0000
    outer loop
        vertex -1.3200 1.1876 -2.0624
        vertex -1.3200 0.4444 -1.4848
        vertex -1.3200 1.1872 -0.9964
    endloop
endfacet
facet normal -3.8777 0.0000 0.0000
    outer loop
        vertex -1.3200 1.0940 -2.9412
        vertex -1.3200 1.8064 -2.4176
        vertex -1.3200 2.3252 -2.9072
    endloop
endfacet
facet normal -8.1248 0.0000 0.0000
    outer loop
        vertex -1.3200 2.3252 -2.9072
        vertex -1.3200 2.2328 -3.9656
        vertex -1.3200 1.0940 -2.9412
    endloop
endfacet
facet normal -3.6066 0.0000 0.0000
    outer loop
        vertex -1.3200 1.8064 -2.4176
        vertex -1.3200 1.0940 -2.9412
        vertex -1.3200 1.1876 -2.0624
    endloop
endfacet
facet normal -5.9670 0.0000 0.0000
    outer loop
        vertex -1.3200 2.2328 -3.9656
        vertex -1.3200 2.3252 -2.9072
        vertex -1.3200 3.1700 -3.5628
    endloop
endfacet
facet normal -1.9224 0.0000 0.0000
    outer loop
        vertex -1.3200 3.1700 -3.5628
        vertex -1.3200 2.6260 -4.1248
        vertex -1.3200 2.2328 -3.9656
    endloop
endfacet
facet normal -0.7972 0.0000 0.0000
    outer loop
        vertex -1.3200 3.1700 -3.5628
        vertex -1.3200 3.0152 -3.9572
        vertex -1.3200 2.6260 -4.1248
    endloop
endfacet
facet normal -3.1344 0.0000 0.0000
    outer loop
        vertex -0.8000 0.6216 6.5768
        vertex -0.8000 0.0000 6.7432
        vertex -0.8000 0.0000 7.5500
    endloop
endfacet
facet normal -11.2027 0.0000 0.0000
    outer loop
        vertex -0.8000 0.0000 7.5500
        vertex -0.8000 2.4524 6.5940
        vertex -0.8000 0.6216 6.5768
    endloop
endfacet
facet normal -5.2576 0.0000 0.0000
    outer loop
        vertex -0.8000 1.0768 6.1216
        vertex -0.8000 0.6216 6.5768
        vertex -0.8000 2.4524 6.5940
    endloop
endfacet
facet normal -7.7590 0.0000 0.0000
    outer loop
        vertex -0.8000 2.4524 6.5940
        vertex -0.8000 2.9616 5.8664
        vertex -0.8000 1.0768 6.1216
    endloop
endfacet
facet normal -0.7480 0.0000 0.0000
    outer loop
        vertex -0.8000 2.4524 6.5940
        vertex -0.8000 2.8176 6.3072
        vertex -0.8000 2.9616 5.8664
    endloop
endfacet
facet normal -1.4227 0.0000 0.0000
    outer loop
        vertex -0.8000 1.7464 0.8216
        vertex -0.8000 1.4772 0.5488
        vertex -0.8000 1.2072 1.1208
    endloop
endfacet
facet normal -6.7472 0.0000 0.0000
    outer loop
        vertex -0.8000 1.2072 1.1208
        vertex -0.8000 2.2044 2.5696
        vertex -0.8000 1.7464 0.8216
    endloop
endfacet
facet normal -2.8107 0.0000 0.0000
    outer loop
        vertex -0.8000 0.7392 3.7312
        vertex -0.8000 0.0000 4.2568
        vertex -0.8000 0.6216 4.4232
    endloop
endfacet
facet normal -6.0296 0.0000 0.0000
    outer loop
        vertex -0.8000 0.6216 4.4232
        vertex -0.8000 2.1856 3.4236
        vertex -0.8000 0.7392 3.7312
    endloop
endfacet
facet normal -7.2934 0.0000 0.0000
    outer loop
        vertex -0.8000 2.1856 3.4236
        vertex -0.8000 0.6216 4.4232
        vertex -0.8000 1.0768 4.8784
    endloop
endfacet
facet normal -23.9844 0.0000 0.0000
    outer loop
        vertex -0.8000 1.0768 4.8784
        vertex -0.8000 2.9616 5.8664
        vertex -0.8000 2.1856 3.4236
    endloop
endfacet
facet normal -12.9911 0.0000 0.0000
    outer loop
        vertex -0.8000 0.0000 1.5380
        vertex -0.8000 -0.7492 2.9252
        vertex -0.8000 0.7492 2.9252
    endloop
endfacet
facet normal -6.2241 0.0000 0.0000
    outer loop
        vertex -0.8000 0.7492 2.9252
        vertex -0.8000 0.6844 1.4760
        vertex -0.8000 0.0000 1.5380
    endloop
endfacet
facet normal -13.3245 0.0000 0.0000
    outer loop
        vertex -0.8000 0.6844 1.4760
        vertex -0.8000 0.7492 2.9252
        vertex -0.8000 2.2044 2.5696
    endloop
endfacet
facet normal -6.9477 0.0000 0.0000
    outer loop
        vertex -0.8000 2.2044 2.5696
        vertex -0.8000 1.2072 1.1208
        vertex -0.8000 0.6844 1.4760
    endloop
endfacet
facet normal -3.2980 0.0000 0.0000
    outer loop
        vertex -0.8000 1.7464 0.8216
        vertex -0.8000 2.2044 2.5696
        vertex -0.8000 2.0488 0.8236
    endloop
endfacet
facet normal -11.8692 0.0000 0.0000
    outer loop
        vertex -0.8000 3.0856 0.2528
        vertex -0.8000 2.0488 0.8236
        vertex -0.8000 2.2044 2.5696
    endloop
endfacet
facet normal -4.4312 0.0000 0.0000
    outer loop
        vertex -0.8000 3.0856 0.2528
        vertex -0.8000 2.2044 2.5696
        vertex -0.8000 2.1856 3.4236
    endloop
endfacet
facet normal -29.1191 0.0000 0.0000
    outer loop
        vertex -0.8000 2.1856 3.4236
        vertex -0.8000 2.9616 5.8664
        vertex -0.8000 3.0856 0.2528
    endloop
endfacet
facet normal -6.2949 0.0000 0.0000
    outer loop
        vertex -0.8000 2.9616 5.8664
        vertex -0.8000 1.0768 4.8784
        vertex -0.8000 1.2432 5.5000
    endloop
endfacet
facet normal -7.0570 0.0000 0.0000
    outer loop
        vertex -0.8000 1.2432 5.5000
        vertex -0.8000 1.0768 6.1216
        vertex -0.8000 2.9616 5.8664
    endloop
endfacet
facet normal 0.0000 9.5600 24.5240
    outer loop
        vertex 0.8000 0.0000 7.5500
        vertex 0.8000 2.4524 6.5940
        vertex -0.8000 2.4524 6.5940
    endloop
endfacet
facet normal 0.0000 9.5600 24.5240
    outer loop
        vertex -0.8000 2.4524 6.5940
        vertex -0.8000 0.0000 7.5500
        vertex 0.8000 0.0000 7.5500
    endloop
endfacet
facet normal 0.0000 -0.6200 -6.8440
    outer loop
        vertex -0.8000 0.0000 1.5380
        vertex -0.8000 0.6844 1.4760
        vertex 0.8000 0.6844 1.4760
    endloop
endfacet
facet normal 0.0000 -0.6200 -6.8440
    outer loop
        vertex 0.8000 0.6844 1.4760
        vertex 0.8000 0.0000 1.5380
        vertex -0.8000 0.0000 1.5380
    endloop
endfacet
facet normal 0.0000 -3.0760 -14.4640
    outer loop
        vertex -0.8000 0.7392 3.7312
        vertex -0.8000 2.1856 3.4236
        vertex 0.8000 2.1856 3.4236
    endloop
endfacet
facet normal 0.0000 -3.0760 -14.4640
    outer loop
        vertex 0.8000 2.1856 3.4236
        vertex 0.8000 0.7392 3.7312
        vertex -0.8000 0.7392 3.7312
    endloop
endfacet
facet normal 0.0000 3.5560 14.5520
    outer loop
        vertex -0.8000 2.2044 2.5696
        vertex -0.8000 0.7492 2.9252
        vertex 0.8000 0.7492 2.9252
    endloop
endfacet
facet normal 0.0000 3.5560 14.5520
    outer loop
        vertex 0.8000 0.7492 2.9252
        vertex 0.8000 2.2044 2.5696
        vertex -0.8000 2.2044 2.5696
    endloop
endfacet
facet normal 0.0000 1.4875 7.4915
    outer loop
        vertex -0.8000 2.2044 2.5696
        vertex 0.8000 2.2044 2.5696
        vertex 0.8000 2.1856 3.4236
    endloop
endfacet
facet normal 0.0000 1.4875 7.4915
    outer loop
        vertex 0.8000 2.1856 3.4236
        vertex -0.8000 2.1856 3.4236
        vertex -0.8000 2.2044 2.5696
    endloop
endfacet
facet normal 0.0000 56.1360 1.2400
    outer loop
        vertex -0.8000 3.0856 0.2528
        vertex -0.8000 2.9616 5.8664
        vertex 0.8000 2.9616 5.8664
    endloop
endfacet
facet normal 0.0000 56.1360 1.2400
    outer loop
        vertex 0.8000 2.9616 5.8664
        vertex 0.8000 3.0856 0.2528
        vertex -0.8000 3.0856 0.2528
    endloop
endfacet
facet normal 0.0000 2.8680 3.6520
    outer loop
        vertex 0.8000 2.4524 6.5940
        vertex 0.8000 2.8176 6.3072
        vertex -0.8000 2.8176 6.3072
    endloop
endfacet
facet normal 0.0000 2.8680 3.6520
    outer loop
        vertex -0.8000 2.8176 6.3072
        vertex -0.8000 2.4524 6.5940
        vertex 0.8000 2.4524 6.5940
    endloop
endfacet
facet normal 0.0000 4.4080 1.4400
    outer loop
        vertex 0.8000 2.8176 6.3072
        vertex 0.8000 2.9616 5.8664
        vertex -0.8000 2.9616 5.8664
    endloop
endfacet
facet normal 0.0000 4.4080 1.4400
    outer loop
        vertex -0.8000 2.9616 5.8664
        vertex -0.8000 2.8176 6.3072
        vertex 0.8000 2.8176 6.3072
    endloop
endfacet
facet normal 0.0000 -5.7200 -2.7000
    outer loop
        vertex -0.8000 1.2072 1.1208
        vertex -0.8000 1.4772 0.5488
        vertex 0.8000 1.4772 0.5488
    endloop
endfacet
facet normal 0.0000 -5.7200 -2.7000
    outer loop
        vertex 0.8000 1.4772 0.5488
        vertex 0.8000 1.2072 1.1208
        vertex -0.8000 1.2072 1.1208
    endloop
endfacet
facet normal 0.0000 -3.5520 -5.2280
    outer loop
        vertex -0.8000 0.6844 1.4760
        vertex -0.8000 1.2072 1.1208
        vertex 0.8000 1.2072 1.1208
    endloop
endfacet
facet normal 0.0000 -3.5520 -5.2280
    outer loop
        vertex 0.8000 1.2072 1.1208
        vertex 0.8000 0.6844 1.4760
        vertex -0.8000 0.6844 1.4760
    endloop
endfacet
facet normal 0.0000 3.1420 4.8635
    outer loop
        vertex 1.0000 1.5260 0.2708
        vertex -1.0000 1.5260 0.2708
        vertex -1.0000 0.9876 0.4200
    endloop
endfacet
facet normal 0.0000 3.1420 4.8635
    outer loop
        vertex -1.0000 0.9876 0.4200
        vertex 1.0000 0.9876 0.4200
        vertex 1.0000 1.5260 0.2708
    endloop
endfacet
facet normal 0.0000 1.7520 -4.5020
    outer loop
        vertex 1.3200 2.2764 -0.6944
        vertex -1.3200 2.2764 -0.6944
        vertex -1.3200 2.3252 -2.9072
    endloop
endfacet
facet normal 0.0000 1.7520 -4.5020
    outer loop
        vertex -1.3200 2.3252 -2.9072
        vertex 1.3200 2.3252 -2.9072
        vertex 1.3200 2.2764 -0.6944
    endloop
endfacet
facet normal 0.0000 5.8608 10.2102
    outer loop
        vertex 1.3200 1.1876 -2.0624
        vertex 1.3200 1.8064 -2.4176
        vertex -1.3200 1.8064 -2.4176
    endloop
endfacet
facet normal 0.0000 5.8608 10.2102
    outer loop
        vertex -1.3200 1.8064 -2.4176
        vertex -1.3200 1.1876 -2.0624
        vertex 1.3200 1.1876 -2.0624
    endloop
endfacet
facet normal 0.0000 8.0784 8.5602
    outer loop
        vertex 1.3200 1.8064 -2.4176
        vertex 1.3200 2.3252 -2.9072
        vertex -1.3200 2.3252 -2.9072
    endloop
endfacet
facet normal 0.0000 8.0784 8.5602
    outer loop
        vertex -1.3200 2.3252 -2.9072
        vertex -1.3200 1.8064 -2.4176
        vertex 1.3200 1.8064 -2.4176
    endloop
endfacet
facet normal 0.0000 9.7680 -10.8900
    outer loop
        vertex 1.3200 1.8476 -1.4704
        vertex 1.3200 1.1876 -2.0624
        vertex -1.3200 1.1876 -2.0624
    endloop
endfacet
facet normal 0.0000 9.7680 -10.8900
    outer loop
        vertex -1.3200 1.1876 -2.0624
        vertex -1.3200 1.8476 -1.4704
        vertex 1.3200 1.8476 -1.4704
    endloop
endfacet
facet normal 0.0000 12.8040 -7.0752
    outer loop
        vertex 1.3200 2.2764 -0.6944
        vertex 1.3200 1.8476 -1.4704
        vertex -1.3200 1.8476 -1.4704
    endloop
endfacet
facet normal 0.0000 12.8040 -7.0752
    outer loop
        vertex -1.3200 1.8476 -1.4704
        vertex -1.3200 2.2764 -0.6944
        vertex 1.3200 2.2764 -0.6944
    endloop
endfacet
facet normal 0.0000 62.9574 1.3926
    outer loop
        vertex 1.3200 3.0856 0.2528
        vertex 1.3200 3.1700 -3.5628
        vertex -1.3200 3.1700 -3.5628
    endloop
endfacet
facet normal 0.0000 62.9574 1.3926
    outer loop
        vertex -1.3200 3.1700 -3.5628
        vertex -1.3200 3.0856 0.2528
        vertex 1.3200 3.0856 0.2528
    endloop
endfacet
facet normal 0.0000 6.5076 -2.5542
    outer loop
        vertex 1.3200 3.1700 -3.5628
        vertex 1.3200 3.0152 -3.9572
        vertex -1.3200 3.0152 -3.9572
    endloop
endfacet
facet normal 0.0000 6.5076 -2.5542
    outer loop
        vertex -1.3200 3.0152 -3.9572
        vertex -1.3200 3.1700 -3.5628
        vertex 1.3200 3.1700 -3.5628
    endloop
endfacet
facet normal 0.0000 2.7654 -6.4218
    outer loop
        vertex -1.3200 2.6260 -4.1248
        vertex -1.3200 3.0152 -3.9572
        vertex 1.3200 3.0152 -3.9572
    endloop
endfacet
facet normal 0.0000 2.7654 -6.4218
    outer loop
        vertex 1.3200 3.0152 -3.9572
        vertex 1.3200 2.6260 -4.1248
        vertex -1.3200 2.6260 -4.1248
    endloop
endfacet
facet normal 0.0000 -2.6268 -6.4878
    outer loop
        vertex -1.3200 2.2328 -3.9656
        vertex -1.3200 2.6260 -4.1248
        vertex 1.3200 2.6260 -4.1248
    endloop
endfacet
facet normal 0.0000 -2.6268 -6.4878
    outer loop
        vertex 1.3200 2.6260 -4.1248
        vertex 1.3200 2.2328 -3.9656
        vertex -1.3200 2.2328 -3.9656
    endloop
endfacet
facet normal 0.0000 -16.9026 -18.7902
    outer loop
        vertex -1.3200 1.0940 -2.9412
        vertex -1.3200 2.2328 -3.9656
        vertex 1.3200 2.2328 -3.9656
    endloop
endfacet
facet normal 0.0000 -16.9026 -18.7902
    outer loop
        vertex 1.3200 2.2328 -3.9656
        vertex 1.3200 1.0940 -2.9412
        vertex -1.3200 1.0940 -2.9412
    endloop
endfacet
facet normal 0.0000 -4.8048 -18.0510
    outer loop
        vertex -1.3200 0.0000 -2.6500
        vertex -1.3200 1.0940 -2.9412
        vertex 1.3200 1.0940 -2.9412
    endloop
endfacet
facet normal 0.0000 -4.8048 -18.0510
    outer loop
        vertex 1.3200 1.0940 -2.9412
        vertex 1.3200 0.0000 -2.6500
        vertex -1.3200 0.0000 -2.6500
    endloop
endfacet
facet normal 0.0000 -1.0758 7.3326
    outer loop
        vertex -1.3200 0.4444 -1.4848
        vertex -1.3200 0.0000 -1.5500
        vertex 1.3200 0.0000 -1.5500
    endloop
endfacet
facet normal 0.0000 -1.0758 7.3326
    outer loop
        vertex 1.3200 0.0000 -1.5500
        vertex 1.3200 0.4444 -1.4848
        vertex -1.3200 0.4444 -1.4848
    endloop
endfacet
facet normal 0.0000 -8.0586 12.2562
    outer loop
        vertex -1.3200 1.1872 -0.9964
        vertex -1.3200 0.4444 -1.4848
        vertex 1.3200 0.4444 -1.4848
    endloop
endfacet
facet normal 0.0000 -8.0586 12.2562
    outer loop
        vertex 1.3200 0.4444 -1.4848
        vertex 1.3200 1.1872 -0.9964
        vertex -1.3200 1.1872 -0.9964
    endloop
endfacet
facet normal 0.0000 -13.4706 5.8146
    outer loop
        vertex -1.3200 1.5396 -0.1800
        vertex -1.3200 1.1872 -0.9964
        vertex 1.3200 1.1872 -0.9964
    endloop
endfacet
facet normal 0.0000 -13.4706 5.8146
    outer loop
        vertex 1.3200 1.1872 -0.9964
        vertex 1.3200 1.5396 -0.1800
        vertex -1.3200 1.5396 -0.1800
    endloop
endfacet
facet normal 0.0000 -7.4118 -0.2178
    outer loop
        vertex -1.3200 1.5264 0.2692
        vertex -1.3200 1.5396 -0.1800
        vertex 1.3200 1.5396 -0.1800
    endloop
endfacet
facet normal 0.0000 -7.4118 -0.2178
    outer loop
        vertex 1.3200 1.5396 -0.1800
        vertex 1.3200 1.5264 0.2692
        vertex -1.3200 1.5264 0.2692
    endloop
endfacet
facet normal 0.0000 -4.6134 -0.8118
    outer loop
        vertex -1.3200 1.4772 0.5488
        vertex -1.3200 1.5264 0.2692
        vertex 1.3200 1.5264 0.2692
    endloop
endfacet
facet normal 0.0000 -4.6134 -0.8118
    outer loop
        vertex 1.3200 1.5264 0.2692
        vertex 1.3200 1.4772 0.5488
        vertex -1.3200 1.4772 0.5488
    endloop
endfacet
facet normal 0.8952 0.0000 0.0000
    outer loop
        vertex 0.6400 -1.4772 0.5488
        vertex 0.6400 -1.5264 0.2692
        vertex 0.6400 -0.9876 0.4200
    endloop
endfacet
facet normal 0.4258 0.0000 0.0000
    outer loop
        vertex 0.6400 -0.9876 0.4200
        vertex 0.6400 -0.9528 0.5500
        vertex 0.6400 -1.4772 0.5488
    endloop
endfacet
facet normal 1.8727 0.0000 0.0000
    outer loop
        vertex 0.6400 -1.2072 1.1208
        vertex 0.6400 -1.4772 0.5488
        vertex 0.6400 -0.9528 0.5500
    endloop
endfacet
facet normal 2.0774 0.0000 0.0000
    outer loop
        vertex 0.6400 -0.9528 0.5500
        vertex 0.6400 -0.5500 0.9528
        vertex 0.6400 -1.2072 1.1208
    endloop
endfacet
facet normal 2.0079 0.0000 0.0000
    outer loop
        vertex 0.6400 -0.6844 1.4760
        vertex 0.6400 -1.2072 1.1208
        vertex 0.6400 -0.5500 0.9528
    endloop
endfacet
facet normal 1.9221 0.0000 0.0000
    outer loop
        vertex 0.6400 -0.5500 0.9528
        vertex 0.6400 0.0000 1.1000
        vertex 0.6400 -0.6844 1.4760
    endloop
endfacet
facet normal 1.3085 0.0000 0.0000
    outer loop
        vertex 1.0000 -1.1000 0.0000
        vertex 1.0000 -0.9876 0.4200
        vertex 1.0000 -1.5260 0.2708
    endloop
endfacet
facet normal 1.2233 0.0000 0.0000
    outer loop
        vertex 1.0000 -1.5260 0.2708
        vertex 1.0000 -1.5396 -0.1800
        vertex 1.0000 -1.1000 0.0000
    endloop
endfacet
facet normal 1.6767 0.0000 0.0000
    outer loop
        vertex 1.0000 -0.9528 -0.5500
        vertex 1.0000 -1.1000 0.0000
        vertex 1.0000 -1.5396 -0.1800
    endloop
endfacet
facet normal 2.1792 0.0000 0.0000
    outer loop
        vertex 1.0000 -1.5396 -0.1800
        vertex 1.0000 -1.1872 -0.9964
        vertex 1.0000 -0.9528 -0.5500
    endloop
endfacet
facet normal 1.7139 0.0000 0.0000
    outer loop
        vertex 1.0000 -0.5500 -0.9528
        vertex 1.0000 -0.9528 -0.5500
        vertex 1.0000 -1.1872 -0.9964
    endloop
endfacet
facet normal 2.1475 0.0000 0.0000
    outer loop
        vertex 1.0000 -1.1872 -0.9964
        vertex 1.0000 -0.4444 -1.4848
        vertex 1.0000 -0.5500 -0.9528
    endloop
endfacet
facet normal 1.7316 0.0000 0.0000
    outer loop
        vertex 1.0000 0.0000 -1.1000
        vertex 1.0000 -0.5500 -0.9528
        vertex 1.0000 -0.4444 -1.4848
    endloop
endfacet
facet normal 1.2499 0.0000 0.0000
    outer loop
        vertex 1.0000 -0.4444 -1.4848
        vertex 1.0000 0.0000 -1.5500
        vertex 1.0000 0.0000 -1.1000
    endloop
endfacet
facet normal 0.0000 0.0605 -0.0622
    outer loop
        vertex 0.8000 -2.3764 4.6772
        vertex 0.7600 -2.3764 4.6772
        vertex 0.7600 -2.1276 4.9192
    endloop
endfacet
facet normal 0.0000 0.0605 -0.0622
    outer loop
        vertex 0.7600 -2.1276 4.9192
        vertex 0.8000 -2.1276 4.9192
        vertex 0.8000 -2.3764 4.6772
    endloop
endfacet
facet normal 0.0000 0.0677 -0.5319
    outer loop
        vertex 0.7600 0.0000 5.1900
        vertex 0.8000 0.0000 5.1900
        vertex 0.8000 -2.1276 4.9192
    endloop
endfacet
facet normal 0.0000 0.0677 -0.5319
    outer loop
        vertex 0.8000 -2.1276 4.9192
        vertex 0.7600 -2.1276 4.9192
        vertex 0.7600 0.0000 5.1900
    endloop
endfacet
facet normal 0.0000 0.0093 0.0669
    outer loop
        vertex 0.7600 -2.2216 4.1232
        vertex 0.8000 -2.2216 4.1232
        vertex 0.8000 -1.9540 4.0860
    endloop
endfacet
facet normal 0.0000 0.0093 0.0669
    outer loop
        vertex 0.8000 -1.9540 4.0860
        vertex 0.7600 -1.9540 4.0860
        vertex 0.7600 -2.2216 4.1232
    endloop
endfacet
facet normal 0.0000 0.0543 0.0404
    outer loop
        vertex 0.7600 -2.3832 4.3404
        vertex 0.8000 -2.3832 4.3404
        vertex 0.8000 -2.2216 4.1232
    endloop
endfacet
facet normal 0.0000 0.0543 0.0404
    outer loop
        vertex 0.8000 -2.2216 4.1232
        vertex 0.7600 -2.2216 4.1232
        vertex 0.7600 -2.3832 4.3404
    endloop
endfacet
facet normal 0.0000 0.0842 -0.0017
    outer loop
        vertex 0.7600 -2.3764 4.6772
        vertex 0.8000 -2.3764 4.6772
        vertex 0.8000 -2.3832 4.3404
    endloop
endfacet
facet normal 0.0000 0.0842 -0.0017
    outer loop
        vertex 0.8000 -2.3832 4.3404
        vertex 0.7600 -2.3832 4.3404
        vertex 0.7600 -2.3764 4.6772
    endloop
endfacet
facet normal -5.8915 0.0000 0.0000
    outer loop
        vertex -0.6000 -0.5216 4.5964
        vertex -0.6000 -0.5216 6.4036
        vertex -0.6000 0.0000 6.5432
    endloop
endfacet
facet normal -6.8017 0.0000 0.0000
    outer loop
        vertex -0.6000 0.0000 6.5432
        vertex -0.6000 0.0000 4.4568
        vertex -0.6000 -0.5216 4.5964
    endloop
endfacet
facet normal -2.4906 0.0000 0.0000
    outer loop
        vertex -0.6000 -0.9036 6.0216
        vertex -0.6000 -0.5216 6.4036
        vertex -0.6000 -0.9036 4.9784
    endloop
endfacet
facet normal -0.9102 0.0000 0.0000
    outer loop
        vertex -0.6000 -0.9036 4.9784
        vertex -0.6000 -1.0432 5.5000
        vertex -0.6000 -0.9036 6.0216
    endloop
endfacet
facet normal -4.3147 0.0000 0.0000
    outer loop
        vertex -0.6000 -0.9036 4.9784
        vertex -0.6000 -0.5216 6.4036
        vertex -0.6000 -0.5216 4.5964
    endloop
endfacet
facet normal -0.7773 0.5690 -0.5690
    outer loop
        vertex -0.6000 -0.9036 6.0216
        vertex -0.8000 -1.0768 6.1216
        vertex -0.8000 -0.6216 6.5768
    endloop
endfacet
facet normal -0.6523 0.4775 -0.4775
    outer loop
        vertex -0.8000 -0.6216 6.5768
        vertex -0.6000 -0.5216 6.4036
        vertex -0.6000 -0.9036 6.0216
    endloop
endfacet
facet normal -0.7773 0.5690 0.5690
    outer loop
        vertex -0.6000 -0.5216 4.5964
        vertex -0.8000 -0.6216 4.4232
        vertex -0.8000 -1.0768 4.8784
    endloop
endfacet
facet normal -0.6523 0.4775 0.4775
    outer loop
        vertex -0.8000 -1.0768 4.8784
        vertex -0.6000 -0.9036 4.9784
        vertex -0.6000 -0.5216 4.5964
    endloop
endfacet
facet normal -0.7769 0.7770 0.2080
    outer loop
        vertex -0.6000 -0.9036 4.9784
        vertex -0.8000 -1.0768 4.8784
        vertex -0.8000 -1.2432 5.5000
    endloop
endfacet
facet normal -0.6520 0.6520 0.1745
    outer loop
        vertex -0.8000 -1.2432 5.5000
        vertex -0.6000 -1.0432 5.5000
        vertex -0.6000 -0.9036 4.9784
    endloop
endfacet
facet normal -0.7770 0.7770 -0.2080
    outer loop
        vertex -0.6000 -1.0432 5.5000
        vertex -0.8000 -1.2432 5.5000
        vertex -0.8000 -1.0768 6.1216
    endloop
endfacet
facet normal -0.6519 0.6520 -0.1745
    outer loop
        vertex -0.8000 -1.0768 6.1216
        vertex -0.6000 -0.9036 6.0216
        vertex -0.6000 -1.0432 5.5000
    endloop
endfacet
facet normal 6.1791 0.0000 0.0000
    outer loop
        vertex 1.3200 -1.1876 -2.0624
        vertex 1.3200 -1.0940 -2.9412
        vertex 1.3200 0.0000 -2.6500
    endloop
endfacet
facet normal 7.0166 0.0000 0.0000
    outer loop
        vertex 1.3200 0.0000 -2.6500
        vertex 1.3200 -0.4444 -1.4848
        vertex 1.3200 -1.1876 -2.0624
    endloop
endfacet
facet normal 3.0553 0.0000 0.0000
    outer loop
        vertex 1.3200 0.0000 -2.6500
        vertex 1.3200 0.0000 -1.5500
        vertex 1.3200 -0.4444 -1.4848
    endloop
endfacet
facet normal 9.0247 0.0000 0.0000
    outer loop
        vertex 1.3200 -2.2764 -0.6944
        vertex 1.3200 -2.0488 0.8236
        vertex 1.3200 -3.0856 0.2528
    endloop
endfacet
facet normal 19.7970 0.0000 0.0000
    outer loop
        vertex 1.3200 -3.0856 0.2528
        vertex 1.3200 -3.1700 -3.5628
        vertex 1.3200 -2.2764 -0.6944
    endloop
endfacet
facet normal 11.4836 0.0000 0.0000
    outer loop
        vertex 1.3200 -2.2764 -0.6944
        vertex 1.3200 -3.1700 -3.5628
        vertex 1.3200 -2.3252 -2.9072
    endloop
endfacet
facet normal 1.0413 0.0000 0.0000
    outer loop
        vertex 1.3200 -1.7464 0.8216
        vertex 1.3200 -2.0488 0.8236
        vertex 1.3200 -1.5264 0.2692
    endloop
endfacet
facet normal 0.5543 0.0000 0.0000
    outer loop
        vertex 1.3200 -1.5264 0.2692
        vertex 1.3200 -1.4772 0.5488
        vertex 1.3200 -1.7464 0.8216
    endloop
endfacet
facet normal 1.5124 0.0000 0.0000
    outer loop
        vertex 1.3200 -1.5396 -0.1800
        vertex 1.3200 -1.5264 0.2692
        vertex 1.3200 -2.0488 0.8236
    endloop
endfacet
facet normal 6.2587 0.0000 0.0000
    outer loop
        vertex 1.3200 -2.0488 0.8236
        vertex 1.3200 -2.2764 -0.6944
        vertex 1.3200 -1.5396 -0.1800
    endloop
endfacet
facet normal 4.8925 0.0000 0.0000
    outer loop
        vertex 1.3200 -1.1872 -0.9964
        vertex 1.3200 -1.5396 -0.1800
        vertex 1.3200 -2.2764 -0.6944
    endloop
endfacet
facet normal 4.4733 0.0000 0.0000
    outer loop
        vertex 1.3200 -2.2764 -0.6944
        vertex 1.3200 -1.8476 -1.4704
        vertex 1.3200 -1.1872 -0.9964
    endloop
endfacet
facet normal 4.3987 0.0000 0.0000
    outer loop
        vertex 1.3200 -1.1872 -0.9964
        vertex 1.3200 -1.8476 -1.4704
        vertex 1.3200 -1.1876 -2.0624
    endloop
endfacet
facet normal 4.9501 0.0000 0.0000
    outer loop
        vertex 1.3200 -1.1876 -2.0624
        vertex 1.3200 -0.4444 -1.4848
        vertex 1.3200 -1.1872 -0.9964
    endloop
endfacet
facet normal 3.8777 0.0000 0.0000
    outer loop
        vertex 1.3200 -1.0940 -2.9412
        vertex 1.3200 -1.8064 -2.4176
        vertex 1.3200 -2.3252 -2.9072
    endloop
endfacet
facet normal 8.1248 0.0000 0.0000
    outer loop
        vertex 1.3200 -2.3252 -2.9072
        vertex 1.3200 -2.2328 -3.9656
        vertex 1.3200 -1.0940 -2.9412
    endloop
endfacet
facet normal 3.6066 0.0000 0.0000
    outer loop
        vertex 1.3200 -1.8064 -2.4176
        vertex 1.3200 -1.0940 -2.9412
        vertex 1.3200 -1.1876 -2.0624
    endloop
endfacet
facet normal 5.9670 0.0000 0.0000
    outer loop
        vertex 1.3200 -2.2328 -3.9656
        vertex 1.3200 -2.3252 -2.9072
        vertex 1.3200 -3.1700 -3.5628
    endloop
endfacet
facet normal 1.9224 0.0000 0.0000
    outer loop
        vertex 1.3200 -3.1700 -3.5628
        vertex 1.3200 -2.6260 -4.1248
        vertex 1.3200 -2.2328 -3.9656
    endloop
endfacet
facet normal 0.7972 0.0000 0.0000
    outer loop
        vertex 1.3200 -3.1700 -3.5628
        vertex 1.3200 -3.0152 -3.9572
        vertex 1.3200 -2.6260 -4.1248
    endloop
endfacet
facet normal 0.0000 -0.0635 0.4885
    outer loop
        vertex 0.7600 -1.9540 4.0860
        vertex 0.8000 -1.9540 4.0860
        vertex 0.8000 0.0000 4.3400
    endloop
endfacet
facet normal 0.0000 -0.0635 0.4885
    outer loop
        vertex 0.8000 0.0000 4.3400
        vertex 0.7600 0.0000 4.3400
        vertex 0.7600 -1.9540 4.0860
    endloop
endfacet
facet normal 11.3029 0.0000 0.0000
    outer loop
        vertex 0.7600 0.0000 4.3400
        vertex 0.7600 0.0000 5.1900
        vertex 0.7600 -2.1276 4.9192
    endloop
endfacet
facet normal 10.4510 0.0000 0.0000
    outer loop
        vertex 0.7600 -2.1276 4.9192
        vertex 0.7600 -1.9540 4.0860
        vertex 0.7600 0.0000 4.3400
    endloop
endfacet
facet normal 1.5582 0.0000 0.0000
    outer loop
        vertex 0.7600 -1.9540 4.0860
        vertex 0.7600 -2.1276 4.9192
        vertex 0.7600 -2.3764 4.6772
    endloop
endfacet
facet normal 0.8906 0.0000 0.0000
    outer loop
        vertex 0.7600 -2.3764 4.6772
        vertex 0.7600 -2.2216 4.1232
        vertex 0.7600 -1.9540 4.0860
    endloop
endfacet
facet normal 0.3494 0.0000 0.0000
    outer loop
        vertex 0.7600 -2.3832 4.3404
        vertex 0.7600 -2.2216 4.1232
        vertex 0.7600 -2.3764 4.6772
    endloop
endfacet
facet normal 21.4758 0.0000 0.0000
    outer loop
        vertex 0.8000 -2.3832 4.3404
        vertex 0.8000 -2.9616 5.8664
        vertex 0.8000 -3.0856 0.2528
    endloop
endfacet
facet normal 9.0729 0.0000 0.0000
    outer loop
        vertex 0.8000 -3.0856 0.2528
        vertex 0.8000 -2.1856 3.4236
        vertex 0.8000 -2.3832 4.3404
    endloop
endfacet
facet normal 31.3821 0.0000 0.0000
    outer loop
        vertex 0.8000 -2.1276 4.9192
        vertex 0.8000 0.0000 5.1900
        vertex 0.8000 0.0000 7.5500
    endloop
endfacet
facet normal 27.6112 0.0000 0.0000
    outer loop
        vertex 0.8000 0.0000 7.5500
        vertex 0.8000 -2.4524 6.5940
        vertex 0.8000 -2.1276 4.9192
    endloop
endfacet
facet normal 6.8071 0.0000 0.0000
    outer loop
        vertex 0.8000 -2.9616 5.8664
        vertex 0.8000 -2.1276 4.9192
        vertex 0.8000 -2.4524 6.5940
    endloop
endfacet
facet normal 0.7480 0.0000 0.0000
    outer loop
        vertex 0.8000 -2.4524 6.5940
        vertex 0.8000 -2.8176 6.3072
        vertex 0.8000 -2.9616 5.8664
    endloop
endfacet
facet normal 1.4227 0.0000 0.0000
    outer loop
        vertex 0.8000 -1.7464 0.8216
        vertex 0.8000 -1.4772 0.5488
        vertex 0.8000 -1.2072 1.1208
    endloop
endfacet
facet normal 6.7472 0.0000 0.0000
    outer loop
        vertex 0.8000 -1.2072 1.1208
        vertex 0.8000 -2.2044 2.5696
        vertex 0.8000 -1.7464 0.8216
    endloop
endfacet
facet normal 6.2615 0.0000 0.0000
    outer loop
        vertex 0.8000 -0.7392 3.7312
        vertex 0.8000 0.0000 4.3400
        vertex 0.8000 -1.9540 4.0860
    endloop
endfacet
facet normal 5.5428 0.0000 0.0000
    outer loop
        vertex 0.8000 -1.9540 4.0860
        vertex 0.8000 -2.1856 3.4236
        vertex 0.8000 -0.7392 3.7312
    endloop
endfacet
facet normal 1.1617 0.0000 0.0000
    outer loop
        vertex 0.8000 -1.9540 4.0860
        vertex 0.8000 -2.2216 4.1232
        vertex 0.8000 -2.1856 3.4236
    endloop
endfacet
facet normal 12.9911 0.0000 0.0000
    outer loop
        vertex 0.8000 0.0000 1.5380
        vertex 0.8000 0.7492 2.9252
        vertex 0.8000 -0.7492 2.9252
    endloop
endfacet
facet normal 6.2241 0.0000 0.0000
    outer loop
        vertex 0.8000 -0.7492 2.9252
        vertex 0.8000 -0.6844 1.4760
        vertex 0.8000 0.0000 1.5380
    endloop
endfacet
facet normal 13.3245 0.0000 0.0000
    outer loop
        vertex 0.8000 -0.6844 1.4760
        vertex 0.8000 -0.7492 2.9252
        vertex 0.8000 -2.2044 2.5696
    endloop
endfacet
facet normal 6.9477 0.0000 0.0000
    outer loop
        vertex 0.8000 -2.2044 2.5696
        vertex 0.8000 -1.2072 1.1208
        vertex 0.8000 -0.6844 1.4760
    endloop
endfacet
facet normal 3.2980 0.0000 0.0000
    outer loop
        vertex 0.8000 -1.7464 0.8216
        vertex 0.8000 -2.2044 2.5696
        vertex 0.8000 -2.0488 0.8236
    endloop
endfacet
facet normal 11.8692 0.0000 0.0000
    outer loop
        vertex 0.8000 -3.0856 0.2528
        vertex 0.8000 -2.0488 0.8236
        vertex 0.8000 -2.2044 2.5696
    endloop
endfacet
facet normal 4.4312 0.0000 0.0000
    outer loop
        vertex 0.8000 -3.0856 0.2528
        vertex 0.8000 -2.2044 2.5696
        vertex 0.8000 -2.1856 3.4236
    endloop
endfacet
facet normal 2.7343 0.0000 0.0000
    outer loop
        vertex 0.8000 -2.1276 4.9192
        vertex 0.8000 -2.9616 5.8664
        vertex 0.8000 -2.3764 4.6772
    endloop
endfacet
facet normal 0.6577 0.0000 0.0000
    outer loop
        vertex 0.8000 -2.2216 4.1232
        vertex 0.8000 -2.3832 4.3404
        vertex 0.8000 -2.1856 3.4236
    endloop
endfacet
facet normal 1.2824 0.0000 0.0000
    outer loop
        vertex 0.8000 -2.3832 4.3404
        vertex 0.8000 -2.3764 4.6772
        vertex 0.8000 -2.9616 5.8664
    endloop
endfacet
facet normal -0.7769 0.2080 -0.7770
    outer loop
        vertex -0.6000 -0.5216 6.4036
        vertex -0.8000 -0.6216 6.5768
        vertex -0.8000 0.0000 6.7432
    endloop
endfacet
facet normal -0.6520 0.1745 -0.6520
    outer loop
        vertex -0.8000 0.0000 6.7432
        vertex -0.6000 0.0000 6.5432
        vertex -0.6000 -0.5216 6.4036
    endloop
endfacet
facet normal -0.7770 0.2080 0.7770
    outer loop
        vertex -0.6000 0.0000 4.4568
        vertex -0.8000 0.0000 4.2568
        vertex -0.8000 -0.6216 4.4232
    endloop
endfacet
facet normal -0.6519 0.1745 0.6520
    outer loop
        vertex -0.8000 -0.6216 4.4232
        vertex -0.6000 -0.5216 4.5964
        vertex -0.6000 0.0000 4.4568
    endloop
endfacet
facet normal -0.8952 0.0000 0.0000
    outer loop
        vertex -0.6400 -0.9876 0.4200
        vertex -0.6400 -1.5264 0.2692
        vertex -0.6400 -1.4772 0.5488
    endloop
endfacet
facet normal -0.4258 0.0000 0.0000
    outer loop
        vertex -0.6400 -1.4772 0.5488
        vertex -0.6400 -0.9528 0.5500
        vertex -0.6400 -0.9876 0.4200
    endloop
endfacet
facet normal -1.8727 0.0000 0.0000
    outer loop
        vertex -0.6400 -0.9528 0.5500
        vertex -0.6400 -1.4772 0.5488
        vertex -0.6400 -1.2072 1.1208
    endloop
endfacet
facet normal -2.0774 0.0000 0.0000
    outer loop
        vertex -0.6400 -1.2072 1.1208
        vertex -0.6400 -0.5500 0.9528
        vertex -0.6400 -0.9528 0.5500
    endloop
endfacet
facet normal -2.0079 0.0000 0.0000
    outer loop
        vertex -0.6400 -0.5500 0.9528
        vertex -0.6400 -1.2072 1.1208
        vertex -0.6400 -0.6844 1.4760
    endloop
endfacet
facet normal -1.9221 0.0000 0.0000
    outer loop
        vertex -0.6400 -0.6844 1.4760
        vertex -0.6400 0.0000 1.1000
        vertex -0.6400 -0.5500 0.9528
    endloop
endfacet
facet normal -1.3085 0.0000 0.0000
    outer loop
        vertex -1.0000 -1.5260 0.2708
        vertex -1.0000 -0.9876 0.4200
        vertex -1.0000 -1.1000 0.0000
    endloop
endfacet
facet normal -1.2233 0.0000 0.0000
    outer loop
        vertex -1.0000 -1.1000 0.0000
        vertex -1.0000 -1.5396 -0.1800
        vertex -1.0000 -1.5260 0.2708
    endloop
endfacet
facet normal -1.6767 0.0000 0.0000
    outer loop
        vertex -1.0000 -1.5396 -0.1800
        vertex -1.0000 -1.1000 0.0000
        vertex -1.0000 -0.9528 -0.5500
    endloop
endfacet
facet normal -2.1792 0.0000 0.0000
    outer loop
        vertex -1.0000 -0.9528 -0.5500
        vertex -1.0000 -1.1872 -0.9964
        vertex -1.0000 -1.5396 -0.1800
    endloop
endfacet
facet normal -1.7139 0.0000 0.0000
    outer loop
        vertex -1.0000 -1.1872 -0.9964
        vertex -1.0000 -0.9528 -0.5500
        vertex -1.0000 -0.5500 -0.9528
    endloop
endfacet
facet normal -2.1475 0.0000 0.0000
    outer loop
        vertex -1.0000 -0.5500 -0.9528
        vertex -1.0000 -0.4444 -1.4848
        vertex -1.0000 -1.1872 -0.9964
    endloop
endfacet
facet normal -1.7316 0.0000 0.0000
    outer loop
        vertex -1.0000 -0.4444 -1.4848
        vertex -1.0000 -0.5500 -0.9528
        vertex -1.0000 0.0000 -1.1000
    endloop
endfacet
facet normal -1.2499 0.0000 0.0000
    outer loop
        vertex -1.0000 0.0000 -1.1000
        vertex -1.0000 0.0000 -1.5500
        vertex -1.0000 -0.4444 -1.4848
    endloop
endfacet
facet normal -6.1791 0.0000 0.0000
    outer loop
        vertex -1.3200 0.0000 -2.6500
        vertex -1.3200 -1.0940 -2.9412
        vertex -1.3200 -1.1876 -2.0624
    endloop
endfacet
facet normal -7.0166 0.0000 0.0000
    outer loop
        vertex -1.3200 -1.1876 -2.0624
        vertex -1.3200 -0.4444 -1.4848
        vertex -1.3200 0.0000 -2.6500
    endloop
endfacet
facet normal -3.0553 0.0000 0.0000
    outer loop
        vertex -1.3200 0.0000 -1.5500
        vertex -1.3200 0.0000 -2.6500
        vertex -1.3200 -0.4444 -1.4848
    endloop
endfacet
facet normal -9.0247 0.0000 0.0000
    outer loop
        vertex -1.3200 -3.0856 0.2528
        vertex -1.3200 -2.0488 0.8236
        vertex -1.3200 -2.2764 -0.6944
    endloop
endfacet
facet normal -19.7970 0.0000 0.0000
    outer loop
        vertex -1.3200 -2.2764 -0.6944
        vertex -1.3200 -3.1700 -3.5628
        vertex -1.3200 -3.0856 0.2528
    endloop
endfacet
facet normal -11.4836 0.0000 0.0000
    outer loop
        vertex -1.3200 -2.2764 -0.6944
        vertex -1.3200 -2.3252 -2.9072
        vertex -1.3200 -3.1700 -3.5628
    endloop
endfacet
facet normal -1.0413 0.0000 0.0000
    outer loop
        vertex -1.3200 -1.5264 0.2692
        vertex -1.3200 -2.0488 0.8236
        vertex -1.3200 -1.7464 0.8216
    endloop
endfacet
facet normal -0.5543 0.0000 0.0000
    outer loop
        vertex -1.3200 -1.7464 0.8216
        vertex -1.3200 -1.4772 0.5488
        vertex -1.3200 -1.5264 0.2692
    endloop
endfacet
facet normal -1.5124 0.0000 0.0000
    outer loop
        vertex -1.3200 -2.0488 0.8236
        vertex -1.3200 -1.5264 0.2692
        vertex -1.3200 -1.5396 -0.1800
    endloop
endfacet
facet normal -6.2587 0.0000 0.0000
    outer loop
        vertex -1.3200 -1.5396 -0.1800
        vertex -1.3200 -2.2764 -0.6944
        vertex -1.3200 -2.0488 0.8236
    endloop
endfacet
facet normal -4.8925 0.0000 0.0000
    outer loop
        vertex -1.3200 -2.2764 -0.6944
        vertex -1.3200 -1.5396 -0.1800
        vertex -1.3200 -1.1872 -0.9964
    endloop
endfacet
facet normal -4.4733 0.0000 0.0000
    outer loop
        vertex -1.3200 -1.1872 -0.9964
        vertex -1.3200 -1.8476 -1.4704
        vertex -1.3200 -2.2764 -0.6944
    endloop
endfacet
facet normal -4.3987 0.0000 0.0000
    outer loop
        vertex -1.3200 -1.1876 -2.0624
        vertex -1.3200 -1.8476 -1.4704
        vertex -1.3200 -1.1872 -0.9964
    endloop
endfacet
facet normal -4.9501 0.0000 0.0000
    outer loop
        vertex -1.3200 -1.1872 -0.9964
        vertex -1.3200 -0.4444 -1.4848
        vertex -1.3200 -1.1876 -2.0624
    endloop
endfacet
facet normal -3.8777 0.0000 0.0000
    outer loop
        vertex -1.3200 -2.3252 -2.9072
        vertex -1.3200 -1.8064 -2.4176
        vertex -1.3200 -1.0940 -2.9412
    endloop
endfacet
facet normal -8.1248 0.0000 0.0000
    outer loop
        vertex -1.3200 -1.0940 -2.9412
        vertex -1.3200 -2.2328 -3.9656
        vertex -1.3200 -2.3252 -2.9072
    endloop
endfacet
facet normal -3.6066 0.0000 0.0000
    outer loop
        vertex -1.3200 -1.8064 -2.4176
        vertex -1.3200 -1.1876 -2.0624
        vertex -1.3200 -1.0940 -2.9412
    endloop
endfacet
facet normal -5.9670 0.0000 0.0000
    outer loop
        vertex -1.3200 -3.1700 -3.5628
        vertex -1.3200 -2.3252 -2.9072
        vertex -1.3200 -2.2328 -3.9656
    endloop
endfacet
facet normal -1.9224 0.0000 0.0000
    outer loop
        vertex -1.3200 -2.2328 -3.9656
        vertex -1.3200 -2.6260 -4.1248
        vertex -1.3200 -3.1700 -3.5628
    endloop
endfacet
facet normal -0.7972 0.0000 0.0000
    outer loop
        vertex -1.3200 -3.1700 -3.5628
        vertex -1.3200 -2.6260 -4.1248
        vertex -1.3200 -3.0152 -3.9572
    endloop
endfacet
facet normal -3.1344 0.0000 0.0000
    outer loop
        vertex -0.8000 0.0000 7.5500
        vertex -0.8000 0.0000 6.7432
        vertex -0.8000 -0.6216 6.5768
    endloop
endfacet
facet normal -11.2027 0.0000 0.0000
    outer loop
        vertex -0.8000 -0.6216 6.5768
        vertex -0.8000 -2.4524 6.5940
        vertex -0.8000 0.0000 7.5500
    endloop
endfacet
facet normal -5.2576 0.0000 0.0000
    outer loop
        vertex -0.8000 -2.4524 6.5940
        vertex -0.8000 -0.6216 6.5768
        vertex -0.8000 -1.0768 6.1216
    endloop
endfacet
facet normal -7.7590 0.0000 0.0000
    outer loop
        vertex -0.8000 -1.0768 6.1216
        vertex -0.8000 -2.9616 5.8664
        vertex -0.8000 -2.4524 6.5940
    endloop
endfacet
facet normal -0.7480 0.0000 0.0000
    outer loop
        vertex -0.8000 -2.4524 6.5940
        vertex -0.8000 -2.9616 5.8664
        vertex -0.8000 -2.8176 6.3072
    endloop
endfacet
facet normal -1.4227 0.0000 0.0000
    outer loop
        vertex -0.8000 -1.2072 1.1208
        vertex -0.8000 -1.4772 0.5488
        vertex -0.8000 -1.7464 0.8216
    endloop
endfacet
facet normal -6.7472 0.0000 0.0000
    outer loop
        vertex -0.8000 -1.7464 0.8216
        vertex -0.8000 -2.2044 2.5696
        vertex -0.8000 -1.2072 1.1208
    endloop
endfacet
facet normal -4.8565 0.0000 0.0000
    outer loop
        vertex -0.8000 0.0000 4.2568
        vertex -0.8000 0.7392 3.7312
        vertex -0.8000 -0.7392 3.7312
    endloop
endfacet
facet normal -2.8107 0.0000 0.0000
    outer loop
        vertex -0.8000 -0.7392 3.7312
        vertex -0.8000 -0.6216 4.4232
        vertex -0.8000 0.0000 4.2568
    endloop
endfacet
facet normal -6.0296 0.0000 0.0000
    outer loop
        vertex -0.8000 -0.6216 4.4232
        vertex -0.8000 -0.7392 3.7312
        vertex -0.8000 -2.1856 3.4236
    endloop
endfacet
facet normal -7.2934 0.0000 0.0000
    outer loop
        vertex -0.8000 -2.1856 3.4236
        vertex -0.8000 -1.0768 4.8784
        vertex -0.8000 -0.6216 4.4232
    endloop
endfacet
facet normal -6.2241 0.0000 0.0000
    outer loop
        vertex -0.8000 -0.7492 2.9252
        vertex -0.8000 0.0000 1.5380
        vertex -0.8000 -0.6844 1.4760
    endloop
endfacet
facet normal -13.3245 0.0000 0.0000
    outer loop
        vertex -0.8000 -0.6844 1.4760
        vertex -0.8000 -2.2044 2.5696
        vertex -0.8000 -0.7492 2.9252
    endloop
endfacet
facet normal -6.9477 0.0000 0.0000
    outer loop
        vertex -0.8000 -0.6844 1.4760
        vertex -0.8000 -1.2072 1.1208
        vertex -0.8000 -2.2044 2.5696
    endloop
endfacet
facet normal -3.2980 0.0000 0.0000
    outer loop
        vertex -0.8000 -1.7464 0.8216
        vertex -0.8000 -2.0488 0.8236
        vertex -0.8000 -2.2044 2.5696
    endloop
endfacet
facet normal -11.8692 0.0000 0.0000
    outer loop
        vertex -0.8000 -3.0856 0.2528
        vertex -0.8000 -2.2044 2.5696
        vertex -0.8000 -2.0488 0.8236
    endloop
endfacet
facet normal -4.4312 0.0000 0.0000
    outer loop
        vertex -0.8000 -2.1856 3.4236
        vertex -0.8000 -2.2044 2.5696
        vertex -0.8000 -3.0856 0.2528
    endloop
endfacet
facet normal -29.1191 0.0000 0.0000
    outer loop
        vertex -0.8000 -3.0856 0.2528
        vertex -0.8000 -2.9616 5.8664
        vertex -0.8000 -2.1856 3.4236
    endloop
endfacet
facet normal -23.9844 0.0000 0.0000
    outer loop
        vertex -0.8000 -1.0768 4.8784
        vertex -0.8000 -2.1856 3.4236
        vertex -0.8000 -2.9616 5.8664
    endloop
endfacet
facet normal -6.2949 0.0000 0.0000
    outer loop
        vertex -0.8000 -2.9616 5.8664
        vertex -0.8000 -1.2432 5.5000
        vertex -0.8000 -1.0768 4.8784
    endloop
endfacet
facet normal -7.0570 0.0000 0.0000
    outer loop
        vertex -0.8000 -1.2432 5.5000
        vertex -0.8000 -2.9616 5.8664
        vertex -0.8000 -1.0768 6.1216
    endloop
endfacet
facet normal 0.0000 -9.5600 24.5240
    outer loop
        vertex -0.8000 -2.4524 6.5940
        vertex 0.8000 -2.4524 6.5940
        vertex 0.8000 0.0000 7.5500
    endloop
endfacet
facet normal 0.0000 -9.5600 24.5240
    outer loop
        vertex 0.8000 0.0000 7.5500
        vertex -0.8000 0.0000 7.5500
        vertex -0.8000 -2.4524 6.5940
    endloop
endfacet
facet normal 0.0000 0.6200 -6.8440
    outer loop
        vertex 0.8000 -0.6844 1.4760
        vertex -0.8000 -0.6844 1.4760
        vertex -0.8000 0.0000 1.5380
    endloop
endfacet
facet normal 0.0000 0.6200 -6.8440
    outer loop
        vertex -0.8000 0.0000 1.5380
        vertex 0.8000 0.0000 1.5380
        vertex 0.8000 -0.6844 1.4760
    endloop
endfacet
facet normal 0.0000 3.0760 -14.4640
    outer loop
        vertex 0.8000 -2.1856 3.4236
        vertex -0.8000 -2.1856 3.4236
        vertex -0.8000 -0.7392 3.7312
    endloop
endfacet
facet normal 0.0000 3.0760 -14.4640
    outer loop
        vertex -0.8000 -0.7392 3.7312
        vertex 0.8000 -0.7392 3.7312
        vertex 0.8000 -2.1856 3.4236
    endloop
endfacet
facet normal 0.0000 0.0000 -14.7840
    outer loop
        vertex -0.8000 0.7392 3.7312
        vertex 0.8000 0.7392 3.7312
        vertex 0.8000 -0.7392 3.7312
    endloop
endfacet
facet normal 0.0000 0.0000 -14.7840
    outer loop
        vertex 0.8000 -0.7392 3.7312
        vertex -0.8000 -0.7392 3.7312
        vertex -0.8000 0.7392 3.7312
    endloop
endfacet
facet normal 0.0000 -3.5560 14.5520
    outer loop
        vertex 0.8000 -0.7492 2.9252
        vertex -0.8000 -0.7492 2.9252
        vertex -0.8000 -2.2044 2.5696
    endloop
endfacet
facet normal 0.0000 -3.5560 14.5520
    outer loop
        vertex -0.8000 -2.2044 2.5696
        vertex 0.8000 -2.2044 2.5696
        vertex 0.8000 -0.7492 2.9252
    endloop
endfacet
facet normal 0.0000 0.0000 14.9840
    outer loop
        vertex 0.8000 0.7492 2.9252
        vertex -0.8000 0.7492 2.9252
        vertex -0.8000 -0.7492 2.9252
    endloop
endfacet
facet normal 0.0000 0.0000 14.9840
    outer loop
        vertex -0.8000 -0.7492 2.9252
        vertex 0.8000 -0.7492 2.9252
        vertex 0.8000 0.7492 2.9252
    endloop
endfacet
facet normal 0.0000 -1.4875 7.4915
    outer loop
        vertex -0.8000 -2.2044 2.5696
        vertex -0.8000 -2.1856 3.4236
        vertex 0.8000 -2.1856 3.4236
    endloop
endfacet
facet normal 0.0000 -1.4875 7.4915
    outer loop
        vertex 0.8000 -2.1856 3.4236
        vertex 0.8000 -2.2044 2.5696
        vertex -0.8000 -2.2044 2.5696
    endloop
endfacet
facet normal 0.0000 -56.1360 1.2400
    outer loop
        vertex 0.8000 -2.9616 5.8664
        vertex -0.8000 -2.9616 5.8664
        vertex -0.8000 -3.0856 0.2528
    endloop
endfacet
facet normal 0.0000 -56.1360 1.2400
    outer loop
        vertex -0.8000 -3.0856 0.2528
        vertex 0.8000 -3.0856 0.2528
        vertex 0.8000 -2.9616 5.8664
    endloop
endfacet
facet normal 0.0000 -2.8680 3.6520
    outer loop
        vertex -0.8000 -2.8176 6.3072
        vertex 0.8000 -2.8176 6.3072
        vertex 0.8000 -2.4524 6.5940
    endloop
endfacet
facet normal 0.0000 -2.8680 3.6520
    outer loop
        vertex 0.8000 -2.4524 6.5940
        vertex -0.8000 -2.4524 6.5940
        vertex -0.8000 -2.8176 6.3072
    endloop
endfacet
facet normal 0.0000 -4.4080 1.4400
    outer loop
        vertex -0.8000 -2.9616 5.8664
        vertex 0.8000 -2.9616 5.8664
        vertex 0.8000 -2.8176 6.3072
    endloop
endfacet
facet normal 0.0000 -4.4080 1.4400
    outer loop
        vertex 0.8000 -2.8176 6.3072
        vertex -0.8000 -2.8176 6.3072
        vertex -0.8000 -2.9616 5.8664
    endloop
endfacet
facet normal 0.0000 5.7200 -2.7000
    outer loop
        vertex 0.8000 -1.4772 0.5488
        vertex -0.8000 -1.4772 0.5488
        vertex -0.8000 -1.2072 1.1208
    endloop
endfacet
facet normal 0.0000 5.7200 -2.7000
    outer loop
        vertex -0.8000 -1.2072 1.1208
        vertex 0.8000 -1.2072 1.1208
        vertex 0.8000 -1.4772 0.5488
    endloop
endfacet
facet normal 0.0000 3.5520 -5.2280
    outer loop
        vertex 0.8000 -1.2072 1.1208
        vertex -0.8000 -1.2072 1.1208
        vertex -0.8000 -0.6844 1.4760
    endloop
endfacet
facet normal 0.0000 3.5520 -5.2280
    outer loop
        vertex -0.8000 -0.6844 1.4760
        vertex 0.8000 -0.6844 1.4760
        vertex 0.8000 -1.2072 1.1208
    endloop
endfacet
facet normal 0.0000 -3.1420 4.8635
    outer loop
        vertex 1.0000 -1.5260 0.2708
        vertex 1.0000 -0.9876 0.4200
        vertex -1.0000 -0.9876 0.4200
    endloop
endfacet
facet normal 0.0000 -3.1420 4.8635
    outer loop
        vertex -1.0000 -0.9876 0.4200
        vertex -1.0000 -1.5260 0.2708
        vertex 1.0000 -1.5260 0.2708
    endloop
endfacet
facet normal 0.0000 -1.7520 -4.5020
    outer loop
        vertex 1.3200 -2.2764 -0.6944
        vertex 1.3200 -2.3252 -2.9072
        vertex -1.3200 -2.3252 -2.9072
    endloop
endfacet
facet normal 0.0000 -1.7520 -4.5020
    outer loop
        vertex -1.3200 -2.3252 -2.9072
        vertex -1.3200 -2.2764 -0.6944
        vertex 1.3200 -2.2764 -0.6944
    endloop
endfacet
facet normal 0.0000 -5.8608 10.2102
    outer loop
        vertex -1.3200 -1.8064 -2.4176
        vertex 1.3200 -1.8064 -2.4176
        vertex 1.3200 -1.1876 -2.0624
    endloop
endfacet
facet normal 0.0000 -5.8608 10.2102
    outer loop
        vertex 1.3200 -1.1876 -2.0624
        vertex -1.3200 -1.1876 -2.0624
        vertex -1.3200 -1.8064 -2.4176
    endloop
endfacet
facet normal 0.0000 -8.0784 8.5602
    outer loop
        vertex -1.3200 -2.3252 -2.9072
        vertex 1.3200 -2.3252 -2.9072
        vertex 1.3200 -1.8064 -2.4176
    endloop
endfacet
facet normal 0.0000 -8.0784 8.5602
    outer loop
        vertex 1.3200 -1.8064 -2.4176
        vertex -1.3200 -1.8064 -2.4176
        vertex -1.3200 -2.3252 -2.9072
    endloop
endfacet
facet normal 0.0000 -9.7680 -10.8900
    outer loop
        vertex -1.3200 -1.1876 -2.0624
        vertex 1.3200 -1.1876 -2.0624
        vertex 1.3200 -1.8476 -1.4704
    endloop
endfacet
facet normal 0.0000 -9.7680 -10.8900
    outer loop
        vertex 1.3200 -1.8476 -1.4704
        vertex -1.3200 -1.8476 -1.4704
        vertex -1.3200 -1.1876 -2.0624
    endloop
endfacet
facet normal 0.0000 -12.8040 -7.0752
    outer loop
        vertex -1.3200 -1.8476 -1.4704
        vertex 1.3200 -1.8476 -1.4704
        vertex 1.3200 -2.2764 -0.6944
    endloop
endfacet
facet normal 0.0000 -12.8040 -7.0752
    outer loop
        vertex 1.3200 -2.2764 -0.6944
        vertex -1.3200 -2.2764 -0.6944
        vertex -1.3200 -1.8476 -1.4704
    endloop
endfacet
facet normal 0.0000 -62.9574 1.3926
    outer loop
        vertex -1.3200 -3.1700 -3.5628
        vertex 1.3200 -3.1700 -3.5628
        vertex 1.3200 -3.0856 0.2528
    endloop
endfacet
facet normal 0.0000 -62.9574 1.3926
    outer loop
        vertex 1.3200 -3.0856 0.2528
        vertex -1.3200 -3.0856 0.2528
        vertex -1.3200 -3.1700 -3.5628
    endloop
endfacet
facet normal 0.0000 -6.5076 -2.5542
    outer loop
        vertex -1.3200 -3.0152 -3.9572
        vertex 1.3200 -3.0152 -3.9572
        vertex 1.3200 -3.1700 -3.5628
    endloop
endfacet
facet normal 0.0000 -6.5076 -2.5542
    outer loop
        vertex 1.3200 -3.1700 -3.5628
        vertex -1.3200 -3.1700 -3.5628
        vertex -1.3200 -3.0152 -3.9572
    endloop
endfacet
facet normal 0.0000 -2.7654 -6.4218
    outer loop
        vertex 1.3200 -3.0152 -3.9572
        vertex -1.3200 -3.0152 -3.9572
        vertex -1.3200 -2.6260 -4.1248
    endloop
endfacet
facet normal 0.0000 -2.7654 -6.4218
    outer loop
        vertex -1.3200 -2.6260 -4.1248
        vertex 1.3200 -2.6260 -4.1248
        vertex 1.3200 -3.0152 -3.9572
    endloop
endfacet
facet normal 0.0000 2.6268 -6.4878
    outer loop
        vertex 1.3200 -2.6260 -4.1248
        vertex -1.3200 -2.6260 -4.1248
        vertex -1.3200 -2.2328 -3.9656
    endloop
endfacet
facet normal 0.0000 2.6268 -6.4878
    outer loop
        vertex -1.3200 -2.2328 -3.9656
        vertex 1.3200 -2.2328 -3.9656
        vertex 1.3200 -2.6260 -4.1248
    endloop
endfacet
facet normal 0.0000 16.9026 -18.7902
    outer loop
        vertex 1.3200 -2.2328 -3.9656
        vertex -1.3200 -2.2328 -3.9656
        vertex -1.3200 -1.0940 -2.9412
    endloop
endfacet
facet normal 0.0000 16.9026 -18.7902
    outer loop
        vertex -1.3200 -1.0940 -2.9412
        vertex 1.3200 -1.0940 -2.9412
        vertex 1.3200 -2.2328 -3.9656
    endloop
endfacet
facet normal 0.0000 4.8048 -18.0510
    outer loop
        vertex 1.3200 -1.0940 -2.9412
        vertex -1.3200 -1.0940 -2.9412
        vertex -1.3200 0.0000 -2.6500
    endloop
endfacet
facet normal 0.0000 4.8048 -18.0510
    outer loop
        vertex -1.3200 0.0000 -2.6500
        vertex 1.3200 0.0000 -2.6500
        vertex 1.3200 -1.0940 -2.9412
    endloop
endfacet
facet normal 0.0000 1.0758 7.3326
    outer loop
        vertex 1.3200 0.0000 -1.5500
        vertex -1.3200 0.0000 -1.5500
        vertex -1.3200 -0.4444 -1.4848
    endloop
endfacet
facet normal 0.0000 1.0758 7.3326
    outer loop
        vertex -1.3200 -0.4444 -1.4848
        vertex 1.3200 -0.4444 -1.4848
        vertex 1.3200 0.0000 -1.5500
    endloop
endfacet
facet normal 0.0000 8.0586 12.2562
    outer loop
        vertex 1.3200 -0.4444 -1.4848
        vertex -1.3200 -0.4444 -1.4848
        vertex -1.3200 -1.1872 -0.9964
    endloop
endfacet
facet normal 0.0000 8.0586 12.2562
    outer loop
        vertex -1.3200 -1.1872 -0.9964
        vertex 1.3200 -1.1872 -0.9964
        vertex 1.3200 -0.4444 -1.4848
    endloop
endfacet
facet normal 0.0000 13.4706 5.8146
    outer loop
        vertex 1.3200 -1.1872 -0.9964
        vertex -1.3200 -1.1872 -0.9964
        vertex -1.3200 -1.5396 -0.1800
    endloop
endfacet
facet normal 0.0000 13.4706 5.8146
    outer loop
        vertex -1.3200 -1.5396 -0.1800
        vertex 1.3200 -1.5396 -0.1800
        vertex 1.3200 -1.1872 -0.9964
    endloop
endfacet
facet normal 0.0000 7.4118 -0.2178
    outer loop
        vertex 1.3200 -1.5396 -0.1800
        vertex -1.3200 -1.5396 -0.1800
        vertex -1.3200 -1.5264 0.2692
    endloop
endfacet
facet normal 0.0000 7.4118 -0.2178
    outer loop
        vertex -1.3200 -1.5264 0.2692
        vertex 1.3200 -1.5264 0.2692
        vertex 1.3200 -1.5396 -0.1800
    endloop
endfacet
facet normal 0.0000 4.6134 -0.8118
    outer loop
        vertex 1.3200 -1.5264 0.2692
        vertex -1.3200 -1.5264 0.2692
        vertex -1.3200 -1.4772 0.5488
    endloop
endfacet
facet normal 0.0000 4.6134 -0.8118
    outer loop
        vertex -1.3200 -1.4772 0.5488
        vertex 1.3200 -1.4772 0.5488
        vertex 1.3200 -1.5264 0.2692
    endloop
endfacet
facet normal 7.7253 0.0000 0.0000
    outer loop
        vertex 0.3300 -2.1856 3.4236
        vertex 0.3300 -2.2044 2.5696
        vertex 0.3300 -0.7492 2.9252
    endloop
endfacet
facet normal 7.2670 0.0000 0.0000
    outer loop
        vertex 0.3300 -0.7492 2.9252
        vertex 0.3300 -0.7392 3.7312
        vertex 0.3300 -2.1856 3.4236
    endloop
endfacet
facet normal 7.7253 0.0000 0.0000
    outer loop
        vertex 0.3300 0.7492 2.9252
        vertex 0.3300 2.2044 2.5696
        vertex 0.3300 2.1856 3.4236
    endloop
endfacet
facet normal 7.2670 0.0000 0.0000
    outer loop
        vertex 0.3300 2.1856 3.4236
        vertex 0.3300 0.7392 3.7312
        vertex 0.3300 0.7492 2.9252
    endloop
endfacet
facet normal 7.5482 0.0000 0.0000
    outer loop
        vertex 0.3300 -0.7392 3.7312
        vertex 0.3300 -0.7492 2.9252
        vertex 0.3300 0.7492 2.9252
    endloop
endfacet
facet normal 7.4474 0.0000 0.0000
    outer loop
        vertex 0.3300 0.7492 2.9252
        vertex 0.3300 0.7392 3.7312
        vertex 0.3300 -0.7392 3.7312
    endloop
endfacet
facet normal 6.1670 0.0000 0.0000
    outer loop
        vertex 0.5500 -1.8476 -1.4704
        vertex 0.5500 -2.2764 -0.6944
        vertex 0.5500 -2.3252 -2.9072
    endloop
endfacet
facet normal 3.1974 0.0000 0.0000
    outer loop
        vertex 0.5500 -2.3252 -2.9072
        vertex 0.5500 -1.8064 -2.4176
        vertex 0.5500 -1.8476 -1.4704
    endloop
endfacet
facet normal 3.7548 0.0000 0.0000
    outer loop
        vertex 0.5500 -1.8064 -2.4176
        vertex 0.5500 -1.1876 -2.0624
        vertex 0.5500 -1.8476 -1.4704
    endloop
endfacet
facet normal -7.7253 0.0000 0.0000
    outer loop
        vertex -0.5700 -0.7492 2.9252
        vertex -0.5700 -2.2044 2.5696
        vertex -0.5700 -2.1856 3.4236
    endloop
endfacet
facet normal -7.2670 0.0000 0.0000
    outer loop
        vertex -0.5700 -2.1856 3.4236
        vertex -0.5700 -0.7392 3.7312
        vertex -0.5700 -0.7492 2.9252
    endloop
endfacet
facet normal -7.7253 0.0000 0.0000
    outer loop
        vertex -0.5700 2.1856 3.4236
        vertex -0.5700 2.2044 2.5696
        vertex -0.5700 0.7492 2.9252
    endloop
endfacet
facet normal -7.2670 0.0000 0.0000
    outer loop
        vertex -0.5700 0.7492 2.9252
        vertex -0.5700 0.7392 3.7312
        vertex -0.5700 2.1856 3.4236
    endloop
endfacet
facet normal -7.5482 0.0000 0.0000
    outer loop
        vertex -0.5700 0.7392 3.7312
        vertex -0.5700 0.7492 2.9252
        vertex -0.5700 -0.7492 2.9252
    endloop
endfacet
facet normal -7.4474 0.0000 0.0000
    outer loop
        vertex -0.5700 -0.7492 2.9252
        vertex -0.5700 -0.7392 3.7312
        vertex -0.5700 0.7392 3.7312
    endloop
endfacet
facet normal -6.1670 0.0000 0.0000
    outer loop
        vertex -0.8600 -2.3252 -2.9072
        vertex -0.8600 -2.2764 -0.6944
        vertex -0.8600 -1.8476 -1.4704
    endloop
endfacet
facet normal -3.1974 0.0000 0.0000
    outer loop
        vertex -0.8600 -1.8476 -1.4704
        vertex -0.8600 -1.8064 -2.4176
        vertex -0.8600 -2.3252 -2.9072
    endloop
endfacet
facet normal -3.7548 0.0000 0.0000
    outer loop
        vertex -0.8600 -1.8064 -2.4176
        vertex -0.8600 -1.8476 -1.4704
        vertex -0.8600 -1.1876 -2.0624
    endloop
endfacet
facet normal 6.1670 0.0000 0.0000
    outer loop
        vertex 0.5500 2.3252 -2.9072
        vertex 0.5500 2.2764 -0.6944
        vertex 0.5500 1.8476 -1.4704
    endloop
endfacet
facet normal 3.1974 0.0000 0.0000
    outer loop
        vertex 0.5500 1.8476 -1.4704
        vertex 0.5500 1.8064 -2.4176
        vertex 0.5500 2.3252 -2.9072
    endloop
endfacet
facet normal 3.7548 0.0000 0.0000
    outer loop
        vertex 0.5500 1.8064 -2.4176
        vertex 0.5500 1.8476 -1.4704
        vertex 0.5500 1.1876 -2.0624
    endloop
endfacet
facet normal -6.1670 0.0000 0.0000
    outer loop
        vertex -0.8600 1.8476 -1.4704
        vertex -0.8600 2.2764 -0.6944
        vertex -0.8600 2.3252 -2.9072
    endloop
endfacet
facet normal -3.1974 0.0000 0.0000
    outer loop
        vertex -0.8600 2.3252 -2.9072
        vertex -0.8600 1.8064 -2.4176
        vertex -0.8600 1.8476 -1.4704
    endloop
endfacet
facet normal -3.7548 0.0000 0.0000
    outer loop
        vertex -0.8600 1.8064 -2.4176
        vertex -0.8600 1.1876 -2.0624
        vertex -0.8600 1.8476 -1.4704
    endloop
endfacet
facet normal 0.0000 0.8866 0.8749
    outer loop
        vertex 1.3200 -1.4772 0.5488
        vertex 0.8000 -1.4772 0.5488
        vertex 0.8000 -1.7464 0.8216
    endloop
endfacet
facet normal 0.0000 0.8866 0.8749
    outer loop
        vertex 0.8000 -1.7464 0.8216
        vertex 1.3200 -1.7464 0.8216
        vertex 1.3200 -1.4772 0.5488
    endloop
endfacet
facet normal 0.0000 0.0065 0.9828
    outer loop
        vertex 1.3200 -1.7464 0.8216
        vertex 0.8000 -1.7464 0.8216
        vertex 0.8000 -2.0488 0.8236
    endloop
endfacet
facet normal 0.0000 0.0065 0.9828
    outer loop
        vertex 0.8000 -2.0488 0.8236
        vertex 1.3200 -2.0488 0.8236
        vertex 1.3200 -1.7464 0.8216
    endloop
endfacet
facet normal 0.0000 -1.8551 3.3696
    outer loop
        vertex 1.3200 -2.0488 0.8236
        vertex 0.8000 -2.0488 0.8236
        vertex 0.8000 -3.0856 0.2528
    endloop
endfacet
facet normal 0.0000 -1.8551 3.3696
    outer loop
        vertex 0.8000 -3.0856 0.2528
        vertex 1.3200 -3.0856 0.2528
        vertex 1.3200 -2.0488 0.8236
    endloop
endfacet
facet normal 0.0000 0.8866 0.8749
    outer loop
        vertex -1.3200 -1.7464 0.8216
        vertex -0.8000 -1.7464 0.8216
        vertex -0.8000 -1.4772 0.5488
    endloop
endfacet
facet normal 0.0000 0.8866 0.8749
    outer loop
        vertex -0.8000 -1.4772 0.5488
        vertex -1.3200 -1.4772 0.5488
        vertex -1.3200 -1.7464 0.8216
    endloop
endfacet
facet normal 0.0000 0.0065 0.9828
    outer loop
        vertex -1.3200 -2.0488 0.8236
        vertex -0.8000 -2.0488 0.8236
        vertex -0.8000 -1.7464 0.8216
    endloop
endfacet
facet normal 0.0000 0.0065 0.9828
    outer loop
        vertex -0.8000 -1.7464 0.8216
        vertex -1.3200 -1.7464 0.8216
        vertex -1.3200 -2.0488 0.8236
    endloop
endfacet
facet normal 0.0000 -1.8551 3.3696
    outer loop
        vertex -1.3200 -3.0856 0.2528
        vertex -0.8000 -3.0856 0.2528
        vertex -0.8000 -2.0488 0.8236
    endloop
endfacet
facet normal 0.0000 -1.8551 3.3696
    outer loop
        vertex -0.8000 -2.0488 0.8236
        vertex -1.3200 -2.0488 0.8236
        vertex -1.3200 -3.0856 0.2528
    endloop
endfacet
facet normal 0.0000 -0.8866 0.8749
    outer loop
        vertex 1.3200 1.7464 0.8216
        vertex 0.8000 1.7464 0.8216
        vertex 0.8000 1.4772 0.5488
    endloop
endfacet
facet normal 0.0000 -0.8866 0.8749
    outer loop
        vertex 0.8000 1.4772 0.5488
        vertex 1.3200 1.4772 0.5488
        vertex 1.3200 1.7464 0.8216
    endloop
endfacet
facet normal 0.0000 -0.0065 0.9828
    outer loop
        vertex 1.3200 2.0488 0.8236
        vertex 0.8000 2.0488 0.8236
        vertex 0.8000 1.7464 0.8216
    endloop
endfacet
facet normal 0.0000 -0.0065 0.9828
    outer loop
        vertex 0.8000 1.7464 0.8216
        vertex 1.3200 1.7464 0.8216
        vertex 1.3200 2.0488 0.8236
    endloop
endfacet
facet normal 0.0000 1.8551 3.3696
    outer loop
        vertex 1.3200 3.0856 0.2528
        vertex 0.8000 3.0856 0.2528
        vertex 0.8000 2.0488 0.8236
    endloop
endfacet
facet normal 0.0000 1.8551 3.3696
    outer loop
        vertex 0.8000 2.0488 0.8236
        vertex 1.3200 2.0488 0.8236
        vertex 1.3200 3.0856 0.2528
    endloop
endfacet
facet normal 0.0000 -0.8866 0.8749
    outer loop
        vertex -1.3200 1.4772 0.5488
        vertex -0.8000 1.4772 0.5488
        vertex -0.8000 1.7464 0.8216
    endloop
endfacet
facet normal 0.0000 -0.8866 0.8749
    outer loop
        vertex -0.8000 1.7464 0.8216
        vertex -1.3200 1.7464 0.8216
        vertex -1.3200 1.4772 0.5488
    endloop
endfacet
facet normal 0.0000 -0.0065 0.9828
    outer loop
        vertex -1.3200 1.7464 0.8216
        vertex -0.8000 1.7464 0.8216
        vertex -0.8000 2.0488 0.8236
    endloop
endfacet
facet normal 0.0000 -0.0065 0.9828
    outer loop
        vertex -0.8000 2.0488 0.8236
        vertex -1.3200 2.0488 0.8236
        vertex -1.3200 1.7464 0.8216
    endloop
endfacet
facet normal 0.0000 1.8551 3.3696
    outer loop
        vertex -1.3200 2.0488 0.8236
        vertex -0.8000 2.0488 0.8236
        vertex -0.8000 3.0856 0.2528
    endloop
endfacet
facet normal 0.0000 1.8551 3.3696
    outer loop
        vertex -0.8000 3.0856 0.2528
        vertex -1.3200 3.0856 0.2528
        vertex -1.3200 2.0488 0.8236
    endloop
endfacet
endsolid GiantLegoRocks
