solid GiantLegoRocks
facet normal 0.0000 0.7500 0.0000
    outer loop
        vertex 4.4000 0.0000 4.4000
        vertex 4.4000 0.0000 -4.4000
        vertex -4.4000 0.0000 -4.4000
    endloop
endfacet
facet normal 0.0000 0.7500 0.0000
    outer loop
        vertex -4.4000 0.0000 -4.4000
        vertex -4.4000 0.0000 4.4000
        vertex 4.4000 0.0000 4.4000
    endloop
endfacet
facet normal 0.0000 -0.2500 22.0000
    outer loop
        vertex -4.4000 -0.1000 4.4000
        vertex 4.4000 -0.1000 4.4000
        vertex 4.4000 0.0000 4.4000
    endloop
endfacet
facet normal 0.0000 -0.2500 22.0000
    outer loop
        vertex 4.4000 0.0000 4.4000
        vertex -4.4000 0.0000 4.4000
        vertex -4.4000 -0.1000 4.4000
    endloop
endfacet
facet normal -22.0000 -0.2500 0.0000
    outer loop
        vertex -4.4000 -0.1000 -4.4000
        vertex -4.4000 -0.1000 4.4000
        vertex -4.4000 0.0000 4.4000
    endloop
endfacet
facet normal -22.0000 -0.2500 0.0000
    outer loop
        vertex -4.4000 0.0000 4.4000
        vertex -4.4000 0.0000 -4.4000
        vertex -4.4000 -0.1000 -4.4000
    endloop
endfacet
facet normal 0.0000 -0.2500 -22.0000
    outer loop
        vertex 4.4000 -0.1000 -4.4000
        vertex -4.4000 -0.1000 -4.4000
        vertex -4.4000 0.0000 -4.4000
    endloop
endfacet
facet normal 0.0000 -0.2500 -22.0000
    outer loop
        vertex -4.4000 0.0000 -4.4000
        vertex 4.4000 0.0000 -4.4000
        vertex 4.4000 -0.1000 -4.4000
    endloop
endfacet
facet normal 22.0000 -0.2500 0.0000
    outer loop
        vertex 4.4000 -0.1000 4.4000
        vertex 4.4000 -0.1000 -4.4000
        vertex 4.4000 0.0000 -4.4000
    endloop
endfacet
facet normal 22.0000 -0.2500 0.0000
    outer loop
        vertex 4.4000 0.0000 -4.4000
        vertex 4.4000 0.0000 4.4000
        vertex 4.4000 -0.1000 4.4000
    endloop
endfacet
facet normal 0.0000 -0.1500 0.0000
    outer loop
        vertex 0.4800 -0.1000 2.5600
        vertex 0.2800 -0.1000 2.5600
        vertex 0.2800 -0.1000 2.4400
    endloop
endfacet
facet normal 0.0000 -0.1500 0.0000
    outer loop
        vertex 0.2800 -0.1000 2.4400
        vertex 0.4800 -0.1000 2.4400
        vertex 0.4800 -0.1000 2.5600
    endloop
endfacet
facet normal 0.0000 -0.3000 0.0000
    outer loop
        vertex 0.4800 -0.1000 2.4400
        vertex 0.2800 -0.1000 2.4400
        vertex 0.2800 -0.1000 2.2000
    endloop
endfacet
facet normal 0.0000 -0.3000 0.0000
    outer loop
        vertex 0.2800 -0.1000 2.2000
        vertex 0.4800 -0.1000 2.2000
        vertex 0.4800 -0.1000 2.4400
    endloop
endfacet
facet normal 0.0000 -0.3000 0.0000
    outer loop
        vertex 0.6800 -0.1000 2.4000
        vertex 0.4800 -0.1000 2.4400
        vertex 0.4800 -0.1000 2.2000
    endloop
endfacet
facet normal 0.0000 -0.2000 0.0000
    outer loop
        vertex 0.4800 -0.1000 2.2000
        vertex 0.6000 -0.1000 2.1600
        vertex 0.6800 -0.1000 2.4000
    endloop
endfacet
facet normal 0.0000 -0.3000 0.0000
    outer loop
        vertex 0.8400 -0.1000 2.2800
        vertex 0.6800 -0.1000 2.4000
        vertex 0.6000 -0.1000 2.1600
    endloop
endfacet
facet normal 0.0000 -0.1500 0.0000
    outer loop
        vertex 0.6000 -0.1000 2.1600
        vertex 0.6400 -0.1000 2.0800
        vertex 0.8400 -0.1000 2.2800
    endloop
endfacet
facet normal 0.0000 -0.2500 0.0000
    outer loop
        vertex 0.8400 -0.1000 2.2800
        vertex 0.6400 -0.1000 2.0800
        vertex 0.8400 -0.1000 2.0800
    endloop
endfacet
facet normal 0.0000 -0.3000 0.0000
    outer loop
        vertex 0.2800 -0.1000 2.2000
        vertex 0.2800 -0.1000 2.4400
        vertex 0.0800 -0.1000 2.4000
    endloop
endfacet
facet normal 0.0000 -0.2000 0.0000
    outer loop
        vertex 0.0800 -0.1000 2.4000
        vertex 0.1600 -0.1000 2.1600
        vertex 0.2800 -0.1000 2.2000
    endloop
endfacet
facet normal 0.0000 -0.3000 0.0000
    outer loop
        vertex 0.1600 -0.1000 2.1600
        vertex 0.0800 -0.1000 2.4000
        vertex -0.0800 -0.1000 2.2800
    endloop
endfacet
facet normal 0.0000 -0.3300 0.0000
    outer loop
        vertex -0.0800 -0.1000 2.2800
        vertex -0.1200 -0.1000 2.0800
        vertex 0.1600 -0.1000 2.1600
    endloop
endfacet
facet normal 0.0000 -0.2100 0.0000
    outer loop
        vertex 0.1600 -0.1000 2.0400
        vertex 0.1600 -0.1000 2.1600
        vertex -0.1200 -0.1000 2.0800
    endloop
endfacet
facet normal 0.0000 -0.3300 0.0000
    outer loop
        vertex -0.1200 -0.1000 2.0800
        vertex -0.0400 -0.1000 1.8800
        vertex 0.1600 -0.1000 2.0400
    endloop
endfacet
facet normal 0.0000 -0.2200 0.0000
    outer loop
        vertex 0.2800 -0.1000 1.9600
        vertex 0.1600 -0.1000 2.0400
        vertex -0.0400 -0.1000 1.8800
    endloop
endfacet
facet normal 0.0000 -0.3200 0.0000
    outer loop
        vertex -0.0400 -0.1000 1.8800
        vertex 0.1200 -0.1000 1.7600
        vertex 0.2800 -0.1000 1.9600
    endloop
endfacet
facet normal 0.0000 -0.2400 0.0000
    outer loop
        vertex 0.2800 -0.1000 1.9600
        vertex 0.1200 -0.1000 1.7600
        vertex 0.2800 -0.1000 1.7200
    endloop
endfacet
facet normal 0.0000 -0.3000 0.0000
    outer loop
        vertex 0.2800 -0.1000 1.7200
        vertex 0.4800 -0.1000 1.9200
        vertex 0.2800 -0.1000 1.9600
    endloop
endfacet
facet normal 0.0000 -0.3500 0.0000
    outer loop
        vertex 0.2800 -0.1000 1.9600
        vertex 0.4800 -0.1000 1.9200
        vertex 0.4800 -0.1000 2.2000
    endloop
endfacet
facet normal 0.0000 -0.3000 0.0000
    outer loop
        vertex 0.4800 -0.1000 2.2000
        vertex 0.2800 -0.1000 2.2000
        vertex 0.2800 -0.1000 1.9600
    endloop
endfacet
facet normal 0.0000 -0.3500 0.0000
    outer loop
        vertex 0.4800 -0.1000 1.9200
        vertex 0.2800 -0.1000 1.7200
        vertex 0.4800 -0.1000 1.6400
    endloop
endfacet
facet normal 0.0000 -0.3500 0.0000
    outer loop
        vertex 0.4800 -0.1000 1.6400
        vertex 0.6800 -0.1000 1.8000
        vertex 0.4800 -0.1000 1.9200
    endloop
endfacet
facet normal 0.0000 -0.3100 0.0000
    outer loop
        vertex 0.6800 -0.1000 1.8000
        vertex 0.4800 -0.1000 1.6400
        vertex 0.6400 -0.1000 1.5200
    endloop
endfacet
facet normal 0.0000 -0.3300 0.0000
    outer loop
        vertex 0.6400 -0.1000 1.5200
        vertex 0.8400 -0.1000 1.6000
        vertex 0.6800 -0.1000 1.8000
    endloop
endfacet
facet normal 0.0000 -0.3000 0.0000
    outer loop
        vertex 0.8400 -0.1000 1.3600
        vertex 0.8400 -0.1000 1.6000
        vertex 0.6400 -0.1000 1.5200
    endloop
endfacet
facet normal 0.0000 -0.2400 0.0000
    outer loop
        vertex 0.6400 -0.1000 1.5200
        vertex 0.6000 -0.1000 1.3600
        vertex 0.8400 -0.1000 1.3600
    endloop
endfacet
facet normal 0.0000 -0.3000 0.0000
    outer loop
        vertex 0.7200 -0.1000 1.1600
        vertex 0.8400 -0.1000 1.3600
        vertex 0.6000 -0.1000 1.3600
    endloop
endfacet
facet normal 0.0000 -0.1800 0.0000
    outer loop
        vertex 0.6000 -0.1000 1.3600
        vertex 0.4800 -0.1000 1.3200
        vertex 0.7200 -0.1000 1.1600
    endloop
endfacet
facet normal 0.0000 -0.3600 0.0000
    outer loop
        vertex 0.4800 -0.1000 1.0800
        vertex 0.7200 -0.1000 1.1600
        vertex 0.4800 -0.1000 1.3200
    endloop
endfacet
facet normal 0.0000 -0.3000 0.0000
    outer loop
        vertex 0.4800 -0.1000 1.3200
        vertex 0.2800 -0.1000 1.3200
        vertex 0.4800 -0.1000 1.0800
    endloop
endfacet
facet normal 0.0000 -0.4000 0.0000
    outer loop
        vertex 0.2800 -0.1000 1.3200
        vertex 0.4800 -0.1000 1.3200
        vertex 0.4800 -0.1000 1.6400
    endloop
endfacet
facet normal 0.0000 -0.5000 0.0000
    outer loop
        vertex 0.4800 -0.1000 1.6400
        vertex 0.2800 -0.1000 1.7200
        vertex 0.2800 -0.1000 1.3200
    endloop
endfacet
facet normal 0.0000 -0.3000 0.0000
    outer loop
        vertex 0.4800 -0.1000 1.0800
        vertex 0.2800 -0.1000 1.3200
        vertex 0.2800 -0.1000 1.0800
    endloop
endfacet
facet normal 0.0000 -0.1500 0.0000
    outer loop
        vertex 0.2800 -0.1000 1.0800
        vertex 0.4800 -0.1000 0.9600
        vertex 0.4800 -0.1000 1.0800
    endloop
endfacet
facet normal 0.0000 -0.1500 0.0000
    outer loop
        vertex 0.2800 -0.1000 1.0800
        vertex 0.2800 -0.1000 0.9600
        vertex 0.4800 -0.1000 0.9600
    endloop
endfacet
facet normal 0.0000 -0.3000 0.0000
    outer loop
        vertex 0.0800 -0.1000 1.1200
        vertex 0.2800 -0.1000 1.0800
        vertex 0.2800 -0.1000 1.3200
    endloop
endfacet
facet normal 0.0000 -0.2000 0.0000
    outer loop
        vertex 0.2800 -0.1000 1.3200
        vertex 0.1600 -0.1000 1.3600
        vertex 0.0800 -0.1000 1.1200
    endloop
endfacet
facet normal 0.0000 -0.3200 0.0000
    outer loop
        vertex -0.0800 -0.1000 1.2800
        vertex 0.0800 -0.1000 1.1200
        vertex 0.1600 -0.1000 1.3600
    endloop
endfacet
facet normal 0.0000 -0.2800 0.0000
    outer loop
        vertex 0.1600 -0.1000 1.3600
        vertex 0.0800 -0.1000 1.5200
        vertex -0.0800 -0.1000 1.2800
    endloop
endfacet
facet normal 0.0000 -0.3000 0.0000
    outer loop
        vertex 0.0800 -0.1000 1.5200
        vertex -0.1200 -0.1000 1.5200
        vertex -0.0800 -0.1000 1.2800
    endloop
endfacet
facet normal 0.0000 -0.2700 0.0000
    outer loop
        vertex 2.3600 -0.1000 0.4800
        vertex 2.5600 -0.1000 0.5200
        vertex 2.4800 -0.1000 0.7200
    endloop
endfacet
facet normal 0.0000 -0.2700 0.0000
    outer loop
        vertex 2.4800 -0.1000 0.7200
        vertex 2.2800 -0.1000 0.6800
        vertex 2.3600 -0.1000 0.4800
    endloop
endfacet
facet normal 0.0000 -0.2400 0.0000
    outer loop
        vertex 2.2800 -0.1000 0.6800
        vertex 2.4800 -0.1000 0.7200
        vertex 2.3200 -0.1000 0.8800
    endloop
endfacet
facet normal 0.0000 -0.2100 0.0000
    outer loop
        vertex 2.3200 -0.1000 0.8800
        vertex 2.1200 -0.1000 0.7200
        vertex 2.2800 -0.1000 0.6800
    endloop
endfacet
facet normal 0.0000 -0.2500 0.0000
    outer loop
        vertex 2.1200 -0.1000 0.7200
        vertex 2.3200 -0.1000 0.8800
        vertex 2.1200 -0.1000 0.9200
    endloop
endfacet
facet normal 0.0000 -0.3000 0.0000
    outer loop
        vertex 2.1200 -0.1000 0.9200
        vertex 1.8800 -0.1000 0.8800
        vertex 2.1200 -0.1000 0.7200
    endloop
endfacet
facet normal 0.0000 -0.2200 0.0000
    outer loop
        vertex 1.9600 -0.1000 0.6800
        vertex 2.1200 -0.1000 0.7200
        vertex 1.8800 -0.1000 0.8800
    endloop
endfacet
facet normal 0.0000 -0.2800 0.0000
    outer loop
        vertex 1.8800 -0.1000 0.8800
        vertex 1.7200 -0.1000 0.7200
        vertex 1.9600 -0.1000 0.6800
    endloop
endfacet
facet normal 0.0000 -0.2600 0.0000
    outer loop
        vertex 1.8800 -0.1000 0.5200
        vertex 1.9600 -0.1000 0.6800
        vertex 1.7200 -0.1000 0.7200
    endloop
endfacet
facet normal 0.0000 -0.2500 0.0000
    outer loop
        vertex 1.7200 -0.1000 0.7200
        vertex 1.6800 -0.1000 0.5200
        vertex 1.8800 -0.1000 0.5200
    endloop
endfacet
facet normal 0.0000 -0.2500 0.0000
    outer loop
        vertex 1.8800 -0.1000 0.5200
        vertex 1.6800 -0.1000 0.5200
        vertex 1.7600 -0.1000 0.3200
    endloop
endfacet
facet normal 0.0000 -0.2500 0.0000
    outer loop
        vertex 1.7600 -0.1000 0.3200
        vertex 1.9600 -0.1000 0.3200
        vertex 1.8800 -0.1000 0.5200
    endloop
endfacet
facet normal 0.0000 -0.2500 0.0000
    outer loop
        vertex 1.9600 -0.1000 0.3200
        vertex 1.7600 -0.1000 0.3200
        vertex 1.8000 -0.1000 0.1200
    endloop
endfacet
facet normal 0.0000 -0.2500 0.0000
    outer loop
        vertex 1.8000 -0.1000 0.1200
        vertex 2.0000 -0.1000 0.1200
        vertex 1.9600 -0.1000 0.3200
    endloop
endfacet
facet normal 0.0000 -0.3000 0.0000
    outer loop
        vertex 2.2000 -0.1000 0.3200
        vertex 1.9600 -0.1000 0.3200
        vertex 2.0000 -0.1000 0.1200
    endloop
endfacet
facet normal 0.0000 -0.2500 0.0000
    outer loop
        vertex 2.0000 -0.1000 0.1200
        vertex 2.2000 -0.1000 0.1200
        vertex 2.2000 -0.1000 0.3200
    endloop
endfacet
facet normal 0.0000 -0.2000 0.0000
    outer loop
        vertex 1.8000 -0.1000 0.1200
        vertex 1.7600 -0.1000 0.3200
        vertex 1.6000 -0.1000 0.3200
    endloop
endfacet
facet normal 0.0000 -0.2500 0.0000
    outer loop
        vertex 1.6000 -0.1000 0.3200
        vertex 1.6000 -0.1000 0.1200
        vertex 1.8000 -0.1000 0.1200
    endloop
endfacet
facet normal 0.0000 -0.2000 0.0000
    outer loop
        vertex 2.0400 -0.1000 -0.0400
        vertex 2.0000 -0.1000 0.1200
        vertex 1.8000 -0.1000 0.1200
    endloop
endfacet
facet normal 0.0000 -0.4600 0.0000
    outer loop
        vertex 1.8000 -0.1000 0.1200
        vertex 1.7600 -0.1000 -0.1600
        vertex 2.0400 -0.1000 -0.0400
    endloop
endfacet
facet normal 0.0000 -0.1800 0.0000
    outer loop
        vertex 2.0400 -0.1000 -0.0400
        vertex 1.7600 -0.1000 -0.1600
        vertex 2.0000 -0.1000 -0.1600
    endloop
endfacet
facet normal 0.0000 -0.3600 0.0000
    outer loop
        vertex 1.9600 -0.1000 -0.4000
        vertex 2.0000 -0.1000 -0.1600
        vertex 1.7600 -0.1000 -0.1600
    endloop
endfacet
facet normal 0.0000 -0.4800 0.0000
    outer loop
        vertex 1.7600 -0.1000 -0.1600
        vertex 1.6400 -0.1000 -0.4000
        vertex 1.9600 -0.1000 -0.4000
    endloop
endfacet
facet normal 0.0000 -0.1800 0.0000
    outer loop
        vertex 1.7600 -0.1000 -0.1600
        vertex 1.6400 -0.1000 -0.1600
        vertex 1.6400 -0.1000 -0.4000
    endloop
endfacet
facet normal 0.0000 -0.3800 0.0000
    outer loop
        vertex 2.2400 -0.1000 -0.2400
        vertex 2.0000 -0.1000 -0.1600
        vertex 1.9600 -0.1000 -0.4000
    endloop
endfacet
facet normal 0.0000 -0.3800 0.0000
    outer loop
        vertex 1.9600 -0.1000 -0.4000
        vertex 2.2000 -0.1000 -0.4800
        vertex 2.2400 -0.1000 -0.2400
    endloop
endfacet
facet normal 0.0000 -0.3500 0.0000
    outer loop
        vertex 2.2400 -0.1000 -0.2400
        vertex 2.2000 -0.1000 -0.4800
        vertex 2.4400 -0.1000 -0.4400
    endloop
endfacet
facet normal 0.0000 -0.2000 0.0000
    outer loop
        vertex 2.4400 -0.1000 -0.4400
        vertex 2.4000 -0.1000 -0.2400
        vertex 2.2400 -0.1000 -0.2400
    endloop
endfacet
facet normal 0.0000 -0.1800 0.0000
    outer loop
        vertex 2.4000 -0.1000 -0.2400
        vertex 2.4400 -0.1000 -0.4400
        vertex 2.5600 -0.1000 -0.3200
    endloop
endfacet
facet normal 0.0000 -0.0800 0.0000
    outer loop
        vertex 2.5600 -0.1000 -0.3200
        vertex 2.4800 -0.1000 -0.2000
        vertex 2.4000 -0.1000 -0.2400
    endloop
endfacet
facet normal 0.0000 -0.8000 0.0000
    outer loop
        vertex -2.5600 -0.1000 -0.7200
        vertex -2.3600 -0.1000 -0.9200
        vertex -1.7200 -0.1000 -0.9200
    endloop
endfacet
facet normal 0.0000 -1.0500 0.0000
    outer loop
        vertex -1.7200 -0.1000 -0.9200
        vertex -1.7200 -0.1000 -0.7200
        vertex -2.5600 -0.1000 -0.7200
    endloop
endfacet
facet normal 0.0000 -0.4000 0.0000
    outer loop
        vertex -2.3600 -0.1000 -1.2400
        vertex -2.3600 -0.1000 -0.9200
        vertex -2.5600 -0.1000 -0.7200
    endloop
endfacet
facet normal 0.0000 -1.6000 0.0000
    outer loop
        vertex -2.5600 -0.1000 -0.7200
        vertex -2.5600 -0.1000 -2.0000
        vertex -2.3600 -0.1000 -1.2400
    endloop
endfacet
facet normal 0.0000 -0.2500 0.0000
    outer loop
        vertex -2.3600 -0.1000 -1.2400
        vertex -2.5600 -0.1000 -2.0000
        vertex -2.3600 -0.1000 -1.4400
    endloop
endfacet
facet normal 0.0000 -0.7000 0.0000
    outer loop
        vertex -2.3600 -0.1000 -1.4400
        vertex -2.5600 -0.1000 -2.0000
        vertex -2.3600 -0.1000 -2.0000
    endloop
endfacet
facet normal 0.0000 -0.6000 0.0000
    outer loop
        vertex -1.8800 -0.1000 -1.2400
        vertex -2.3600 -0.1000 -1.2400
        vertex -2.3600 -0.1000 -1.4400
    endloop
endfacet
facet normal 0.0000 -0.6000 0.0000
    outer loop
        vertex -2.3600 -0.1000 -1.4400
        vertex -1.8800 -0.1000 -1.4400
        vertex -1.8800 -0.1000 -1.2400
    endloop
endfacet
facet normal 0.0000 -0.1200 0.0000
    outer loop
        vertex -1.4800 -0.1000 -1.1200
        vertex -1.6400 -0.1000 -1.1200
        vertex -1.4800 -0.1000 -1.2400
    endloop
endfacet
facet normal 0.0000 -0.2000 0.0000
    outer loop
        vertex -1.4800 -0.1000 -1.4400
        vertex -1.4800 -0.1000 -1.2400
        vertex -1.6400 -0.1000 -1.1200
    endloop
endfacet
facet normal 0.0000 -0.8800 0.0000
    outer loop
        vertex -1.6400 -0.1000 -1.1200
        vertex -1.6400 -0.1000 -2.0000
        vertex -1.4800 -0.1000 -1.4400
    endloop
endfacet
facet normal 0.0000 -0.5600 0.0000
    outer loop
        vertex -1.4800 -0.1000 -1.4400
        vertex -1.6400 -0.1000 -2.0000
        vertex -1.4800 -0.1000 -2.0000
    endloop
endfacet
facet normal 0.0000 -0.2000 0.0000
    outer loop
        vertex -1.3200 -0.1000 -1.1200
        vertex -1.4800 -0.1000 -1.2400
        vertex -1.4800 -0.1000 -1.4400
    endloop
endfacet
facet normal 0.0000 -0.2400 0.0000
    outer loop
        vertex -1.4800 -0.1000 -1.4400
        vertex -1.2800 -0.1000 -1.2800
        vertex -1.3200 -0.1000 -1.1200
    endloop
endfacet
facet normal 0.0000 -0.1600 0.0000
    outer loop
        vertex -1.1600 -0.1000 -1.1200
        vertex -1.3200 -0.1000 -1.1200
        vertex -1.2800 -0.1000 -1.2800
    endloop
endfacet
facet normal 0.0000 -0.1200 0.0000
    outer loop
        vertex -1.2800 -0.1000 -1.2800
        vertex -1.1600 -0.1000 -1.2800
        vertex -1.1600 -0.1000 -1.1200
    endloop
endfacet
facet normal 0.0000 -0.7800 0.0000
    outer loop
        vertex 1.0400 -0.1000 -2.2000
        vertex 0.7600 -0.1000 -1.6800
        vertex 0.5200 -0.1000 -1.6800
    endloop
endfacet
facet normal 0.0000 -0.9100 0.0000
    outer loop
        vertex 0.5200 -0.1000 -1.6800
        vertex 0.9200 -0.1000 -2.3600
        vertex 1.0400 -0.1000 -2.2000
    endloop
endfacet
facet normal 0.0000 -0.0900 0.0000
    outer loop
        vertex 1.0400 -0.1000 -2.2000
        vertex 0.9200 -0.1000 -2.3600
        vertex 0.9200 -0.1000 -2.4800
    endloop
endfacet
facet normal 0.0000 -0.4200 0.0000
    outer loop
        vertex 0.9200 -0.1000 -2.4800
        vertex 1.1600 -0.1000 -2.4800
        vertex 1.0400 -0.1000 -2.2000
    endloop
endfacet
facet normal 0.0000 -0.2800 0.0000
    outer loop
        vertex 0.9200 -0.1000 -2.6400
        vertex 0.9200 -0.1000 -2.4800
        vertex 0.6400 -0.1000 -2.4800
    endloop
endfacet
facet normal 0.0000 -0.2800 0.0000
    outer loop
        vertex 0.6400 -0.1000 -2.4800
        vertex 0.6400 -0.1000 -2.6400
        vertex 0.9200 -0.1000 -2.6400
    endloop
endfacet
facet normal 0.0000 -0.7800 0.0000
    outer loop
        vertex 1.5600 -0.1000 -1.6800
        vertex 1.3200 -0.1000 -1.6800
        vertex 1.0400 -0.1000 -2.2000
    endloop
endfacet
facet normal 0.0000 -0.9100 0.0000
    outer loop
        vertex 1.0400 -0.1000 -2.2000
        vertex 1.1600 -0.1000 -2.3600
        vertex 1.5600 -0.1000 -1.6800
    endloop
endfacet
facet normal 0.0000 -0.0900 0.0000
    outer loop
        vertex 1.0400 -0.1000 -2.2000
        vertex 1.1600 -0.1000 -2.4800
        vertex 1.1600 -0.1000 -2.3600
    endloop
endfacet
facet normal 0.0000 -0.2800 0.0000
    outer loop
        vertex 1.4400 -0.1000 -2.4800
        vertex 1.1600 -0.1000 -2.4800
        vertex 1.1600 -0.1000 -2.6400
    endloop
endfacet
facet normal 0.0000 -0.2800 0.0000
    outer loop
        vertex 1.1600 -0.1000 -2.6400
        vertex 1.4400 -0.1000 -2.6400
        vertex 1.4400 -0.1000 -2.4800
    endloop
endfacet
facet normal 0.0000 -0.2400 0.0000
    outer loop
        vertex 1.1600 -0.1000 -2.4800
        vertex 0.9200 -0.1000 -2.4800
        vertex 0.9200 -0.1000 -2.6400
    endloop
endfacet
facet normal 0.0000 -0.2400 0.0000
    outer loop
        vertex 0.9200 -0.1000 -2.6400
        vertex 1.1600 -0.1000 -2.6400
        vertex 1.1600 -0.1000 -2.4800
    endloop
endfacet
facet normal 0.0000 -0.4200 0.0000
    outer loop
        vertex 1.1600 -0.1000 -2.6400
        vertex 0.9200 -0.1000 -2.6400
        vertex 0.9200 -0.1000 -2.9200
    endloop
endfacet
facet normal 0.0000 -0.4200 0.0000
    outer loop
        vertex 0.9200 -0.1000 -2.9200
        vertex 1.1600 -0.1000 -2.9200
        vertex 1.1600 -0.1000 -2.6400
    endloop
endfacet
facet normal 0.0000 -0.3500 0.0000
    outer loop
        vertex 0.4000 -0.1000 2.8400
        vertex 0.2800 -0.1000 2.5600
        vertex 0.4800 -0.1000 2.5600
    endloop
endfacet
facet normal 0.0000 -0.6530 0.0000
    outer loop
        vertex 0.4800 -0.1000 2.5600
        vertex 0.7960 -0.1000 2.7600
        vertex 0.4000 -0.1000 2.8400
    endloop
endfacet
facet normal 0.0000 -0.2370 0.0000
    outer loop
        vertex 0.7960 -0.1000 2.7600
        vertex 0.4800 -0.1000 2.5600
        vertex 0.4800 -0.1000 2.4400
    endloop
endfacet
facet normal 0.0000 -0.4790 0.0000
    outer loop
        vertex 0.4800 -0.1000 2.4400
        vertex 0.6800 -0.1000 2.4000
        vertex 0.7960 -0.1000 2.7600
    endloop
endfacet
facet normal 0.0000 -0.9274 0.0000
    outer loop
        vertex 1.1360 -0.1000 2.5360
        vertex 0.7960 -0.1000 2.7600
        vertex 0.6800 -0.1000 2.4000
    endloop
endfacet
facet normal 0.0000 -0.4780 0.0000
    outer loop
        vertex 0.6800 -0.1000 2.4000
        vertex 0.8400 -0.1000 2.2800
        vertex 1.1360 -0.1000 2.5360
    endloop
endfacet
facet normal 0.0000 -0.9874 0.0000
    outer loop
        vertex 1.3600 -0.1000 2.1960
        vertex 1.1360 -0.1000 2.5360
        vertex 0.8400 -0.1000 2.2800
    endloop
endfacet
facet normal 0.0000 -0.6500 0.0000
    outer loop
        vertex 0.8400 -0.1000 2.2800
        vertex 0.8400 -0.1000 2.0800
        vertex 1.3600 -0.1000 2.1960
    endloop
endfacet
facet normal 0.0000 -1.3450 0.0000
    outer loop
        vertex 1.4400 -0.1000 1.8000
        vertex 1.3600 -0.1000 2.1960
        vertex 0.8400 -0.1000 2.0800
    endloop
endfacet
facet normal 0.0000 -1.8000 0.0000
    outer loop
        vertex 0.8400 -0.1000 2.0800
        vertex 0.8400 -0.1000 1.6000
        vertex 1.4400 -0.1000 1.8000
    endloop
endfacet
facet normal 0.0000 -0.4800 0.0000
    outer loop
        vertex 0.6800 -0.1000 1.8000
        vertex 0.8400 -0.1000 1.6000
        vertex 0.8400 -0.1000 2.0800
    endloop
endfacet
facet normal 0.0000 -0.3500 0.0000
    outer loop
        vertex 0.8400 -0.1000 2.0800
        vertex 0.6400 -0.1000 2.0800
        vertex 0.6800 -0.1000 1.8000
    endloop
endfacet
facet normal 0.0000 -0.3200 0.0000
    outer loop
        vertex 0.4800 -0.1000 1.9200
        vertex 0.6800 -0.1000 1.8000
        vertex 0.6400 -0.1000 2.0800
    endloop
endfacet
facet normal 0.0000 -0.1200 0.0000
    outer loop
        vertex 0.6400 -0.1000 2.0800
        vertex 0.6000 -0.1000 2.1600
        vertex 0.4800 -0.1000 1.9200
    endloop
endfacet
facet normal 0.0000 -0.2100 0.0000
    outer loop
        vertex 0.4800 -0.1000 2.2000
        vertex 0.4800 -0.1000 1.9200
        vertex 0.6000 -0.1000 2.1600
    endloop
endfacet
facet normal 0.0000 -0.1800 0.0000
    outer loop
        vertex 0.2800 -0.1000 1.9600
        vertex 0.2800 -0.1000 2.2000
        vertex 0.1600 -0.1000 2.1600
    endloop
endfacet
facet normal 0.0000 -0.0900 0.0000
    outer loop
        vertex 0.1600 -0.1000 2.1600
        vertex 0.1600 -0.1000 2.0400
        vertex 0.2800 -0.1000 1.9600
    endloop
endfacet
facet normal 0.0000 -0.2400 0.0000
    outer loop
        vertex 0.4800 -0.1000 1.6400
        vertex 0.4800 -0.1000 1.3200
        vertex 0.6000 -0.1000 1.3600
    endloop
endfacet
facet normal 0.0000 -0.1900 0.0000
    outer loop
        vertex 0.6000 -0.1000 1.3600
        vertex 0.6400 -0.1000 1.5200
        vertex 0.4800 -0.1000 1.6400
    endloop
endfacet
facet normal 0.0000 -1.3850 0.0000
    outer loop
        vertex 1.3600 -0.1000 1.4040
        vertex 1.4400 -0.1000 1.8000
        vertex 0.8400 -0.1000 1.6000
    endloop
endfacet
facet normal 0.0000 -0.7800 0.0000
    outer loop
        vertex 0.8400 -0.1000 1.6000
        vertex 0.8400 -0.1000 1.3600
        vertex 1.3600 -0.1000 1.4040
    endloop
endfacet
facet normal 0.0000 -1.0434 0.0000
    outer loop
        vertex 1.1360 -0.1000 1.0640
        vertex 1.3600 -0.1000 1.4040
        vertex 0.8400 -0.1000 1.3600
    endloop
endfacet
facet normal 0.0000 -0.5920 0.0000
    outer loop
        vertex 0.8400 -0.1000 1.3600
        vertex 0.7200 -0.1000 1.1600
        vertex 1.1360 -0.1000 1.0640
    endloop
endfacet
facet normal 0.0000 -0.7864 0.0000
    outer loop
        vertex 0.7960 -0.1000 0.8400
        vertex 1.1360 -0.1000 1.0640
        vertex 0.7200 -0.1000 1.1600
    endloop
endfacet
facet normal 0.0000 -0.5180 0.0000
    outer loop
        vertex 0.7200 -0.1000 1.1600
        vertex 0.4800 -0.1000 1.0800
        vertex 0.7960 -0.1000 0.8400
    endloop
endfacet
facet normal 0.0000 -0.2370 0.0000
    outer loop
        vertex 0.4800 -0.1000 1.0800
        vertex 0.4800 -0.1000 0.9600
        vertex 0.7960 -0.1000 0.8400
    endloop
endfacet
facet normal 0.0000 -0.4550 0.0000
    outer loop
        vertex 0.4000 -0.1000 0.7600
        vertex 0.7960 -0.1000 0.8400
        vertex 0.4800 -0.1000 0.9600
    endloop
endfacet
facet normal 0.0000 -0.2500 0.0000
    outer loop
        vertex 0.4800 -0.1000 0.9600
        vertex 0.2800 -0.1000 0.9600
        vertex 0.4000 -0.1000 0.7600
    endloop
endfacet
facet normal 0.0000 -0.4350 0.0000
    outer loop
        vertex 0.2800 -0.1000 0.9600
        vertex 0.0040 -0.1000 0.8400
        vertex 0.4000 -0.1000 0.7600
    endloop
endfacet
facet normal 0.0000 -0.2070 0.0000
    outer loop
        vertex 0.0040 -0.1000 0.8400
        vertex 0.2800 -0.1000 0.9600
        vertex 0.2800 -0.1000 1.0800
    endloop
endfacet
facet normal 0.0000 -0.3690 0.0000
    outer loop
        vertex 0.2800 -0.1000 1.0800
        vertex 0.0800 -0.1000 1.1200
        vertex 0.0040 -0.1000 0.8400
    endloop
endfacet
facet normal 0.0000 -0.7014 0.0000
    outer loop
        vertex -0.3360 -0.1000 1.0640
        vertex 0.0040 -0.1000 0.8400
        vertex 0.0800 -0.1000 1.1200
    endloop
endfacet
facet normal 0.0000 -0.4720 0.0000
    outer loop
        vertex 0.0800 -0.1000 1.1200
        vertex -0.0800 -0.1000 1.2800
        vertex -0.3360 -0.1000 1.0640
    endloop
endfacet
facet normal 0.0000 -0.8464 0.0000
    outer loop
        vertex -0.5600 -0.1000 1.4040
        vertex -0.3360 -0.1000 1.0640
        vertex -0.0800 -0.1000 1.2800
    endloop
endfacet
facet normal 0.0000 -0.6890 0.0000
    outer loop
        vertex -0.0800 -0.1000 1.2800
        vertex -0.1200 -0.1000 1.5200
        vertex -0.5600 -0.1000 1.4040
    endloop
endfacet
facet normal 0.0000 -1.1470 0.0000
    outer loop
        vertex -0.6400 -0.1000 1.8000
        vertex -0.5600 -0.1000 1.4040
        vertex -0.1200 -0.1000 1.5200
    endloop
endfacet
facet normal 0.0000 -1.3100 0.0000
    outer loop
        vertex -0.1200 -0.1000 1.5200
        vertex -0.0400 -0.1000 1.8800
        vertex -0.6400 -0.1000 1.8000
    endloop
endfacet
facet normal 0.0000 -0.4500 0.0000
    outer loop
        vertex -0.0400 -0.1000 1.8800
        vertex -0.1200 -0.1000 1.5200
        vertex 0.0800 -0.1000 1.5200
    endloop
endfacet
facet normal 0.0000 -0.2700 0.0000
    outer loop
        vertex 0.0800 -0.1000 1.5200
        vertex 0.1200 -0.1000 1.7600
        vertex -0.0400 -0.1000 1.8800
    endloop
endfacet
facet normal 0.0000 -0.1600 0.0000
    outer loop
        vertex 0.1200 -0.1000 1.7600
        vertex 0.0800 -0.1000 1.5200
        vertex 0.1600 -0.1000 1.3600
    endloop
endfacet
facet normal 0.0000 -0.3900 0.0000
    outer loop
        vertex 0.1600 -0.1000 1.3600
        vertex 0.2800 -0.1000 1.7200
        vertex 0.1200 -0.1000 1.7600
    endloop
endfacet
facet normal 0.0000 -0.3000 0.0000
    outer loop
        vertex 0.2800 -0.1000 1.7200
        vertex 0.1600 -0.1000 1.3600
        vertex 0.2800 -0.1000 1.3200
    endloop
endfacet
facet normal 0.0000 -0.7900 0.0000
    outer loop
        vertex -0.6400 -0.1000 1.8000
        vertex -0.0400 -0.1000 1.8800
        vertex -0.1200 -0.1000 2.0800
    endloop
endfacet
facet normal 0.0000 -1.1470 0.0000
    outer loop
        vertex -0.1200 -0.1000 2.0800
        vertex -0.5600 -0.1000 2.1960
        vertex -0.6400 -0.1000 1.8000
    endloop
endfacet
facet normal 0.0000 -0.5790 0.0000
    outer loop
        vertex -0.5600 -0.1000 2.1960
        vertex -0.1200 -0.1000 2.0800
        vertex -0.0800 -0.1000 2.2800
    endloop
endfacet
facet normal 0.0000 -0.9024 0.0000
    outer loop
        vertex -0.0800 -0.1000 2.2800
        vertex -0.3360 -0.1000 2.5360
        vertex -0.5600 -0.1000 2.1960
    endloop
endfacet
facet normal 0.0000 -0.4480 0.0000
    outer loop
        vertex -0.3360 -0.1000 2.5360
        vertex -0.0800 -0.1000 2.2800
        vertex 0.0800 -0.1000 2.4000
    endloop
endfacet
facet normal 0.0000 -0.8714 0.0000
    outer loop
        vertex 0.0800 -0.1000 2.4000
        vertex 0.0040 -0.1000 2.7600
        vertex -0.3360 -0.1000 2.5360
    endloop
endfacet
facet normal 0.0000 -0.4690 0.0000
    outer loop
        vertex 0.0040 -0.1000 2.7600
        vertex 0.0800 -0.1000 2.4000
        vertex 0.2800 -0.1000 2.4400
    endloop
endfacet
facet normal 0.0000 -0.2070 0.0000
    outer loop
        vertex 0.2800 -0.1000 2.4400
        vertex 0.2800 -0.1000 2.5600
        vertex 0.0040 -0.1000 2.7600
    endloop
endfacet
facet normal 0.0000 -0.6330 0.0000
    outer loop
        vertex 0.4000 -0.1000 2.8400
        vertex 0.0040 -0.1000 2.7600
        vertex 0.2800 -0.1000 2.5600
    endloop
endfacet
facet normal 0.0000 -0.7920 0.0000
    outer loop
        vertex 2.5160 -0.1000 1.1600
        vertex 2.1200 -0.1000 1.2400
        vertex 2.1200 -0.1000 0.9200
    endloop
endfacet
facet normal 0.0000 -0.3990 0.0000
    outer loop
        vertex 2.1200 -0.1000 0.9200
        vertex 2.3200 -0.1000 0.8800
        vertex 2.5160 -0.1000 1.1600
    endloop
endfacet
facet normal 0.0000 -0.8694 0.0000
    outer loop
        vertex 2.8560 -0.1000 0.9360
        vertex 2.5160 -0.1000 1.1600
        vertex 2.3200 -0.1000 0.8800
    endloop
endfacet
facet normal 0.0000 -0.5920 0.0000
    outer loop
        vertex 2.3200 -0.1000 0.8800
        vertex 2.4800 -0.1000 0.7200
        vertex 2.8560 -0.1000 0.9360
    endloop
endfacet
facet normal 0.0000 -0.5780 0.0000
    outer loop
        vertex 2.8560 -0.1000 0.9360
        vertex 2.4800 -0.1000 0.7200
        vertex 2.5600 -0.1000 0.5200
    endloop
endfacet
facet normal 0.0000 -0.7000 0.0000
    outer loop
        vertex 2.5600 -0.1000 0.5200
        vertex 3.0000 -0.1000 0.7600
        vertex 2.8560 -0.1000 0.9360
    endloop
endfacet
facet normal 0.0000 -2.7600 0.0000
    outer loop
        vertex 3.0800 -0.1000 -0.2000
        vertex 3.0000 -0.1000 0.7600
        vertex 2.5600 -0.1000 0.5200
    endloop
endfacet
facet normal 0.0000 -2.7300 0.0000
    outer loop
        vertex 2.5600 -0.1000 0.5200
        vertex 2.5600 -0.1000 -0.3200
        vertex 3.0800 -0.1000 -0.2000
    endloop
endfacet
facet normal 0.0000 -0.4200 0.0000
    outer loop
        vertex 2.5600 -0.1000 0.5200
        vertex 2.4800 -0.1000 -0.2000
        vertex 2.5600 -0.1000 -0.3200
    endloop
endfacet
facet normal 0.0000 -1.4200 0.0000
    outer loop
        vertex 2.2000 -0.1000 0.1200
        vertex 2.4800 -0.1000 -0.2000
        vertex 2.5600 -0.1000 0.5200
    endloop
endfacet
facet normal 0.0000 -0.4100 0.0000
    outer loop
        vertex 2.5600 -0.1000 0.5200
        vertex 2.3600 -0.1000 0.4800
        vertex 2.2000 -0.1000 0.1200
    endloop
endfacet
facet normal 0.0000 -0.2000 0.0000
    outer loop
        vertex 2.2000 -0.1000 0.3200
        vertex 2.2000 -0.1000 0.1200
        vertex 2.3600 -0.1000 0.4800
    endloop
endfacet
facet normal 0.0000 -0.2800 0.0000
    outer loop
        vertex 2.3600 -0.1000 0.4800
        vertex 2.2800 -0.1000 0.6800
        vertex 2.2000 -0.1000 0.3200
    endloop
endfacet
facet normal 0.0000 -0.5400 0.0000
    outer loop
        vertex 1.9600 -0.1000 0.3200
        vertex 2.2000 -0.1000 0.3200
        vertex 2.2800 -0.1000 0.6800
    endloop
endfacet
facet normal 0.0000 -0.4400 0.0000
    outer loop
        vertex 2.2800 -0.1000 0.6800
        vertex 2.1200 -0.1000 0.7200
        vertex 1.9600 -0.1000 0.3200
    endloop
endfacet
facet normal 0.0000 -0.4000 0.0000
    outer loop
        vertex 1.8800 -0.1000 0.5200
        vertex 1.9600 -0.1000 0.3200
        vertex 2.1200 -0.1000 0.7200
    endloop
endfacet
facet normal 0.0000 -0.1400 0.0000
    outer loop
        vertex 2.1200 -0.1000 0.7200
        vertex 1.9600 -0.1000 0.6800
        vertex 1.8800 -0.1000 0.5200
    endloop
endfacet
facet normal 0.0000 -0.2300 0.0000
    outer loop
        vertex 2.4000 -0.1000 -0.2400
        vertex 2.4800 -0.1000 -0.2000
        vertex 2.2000 -0.1000 0.1200
    endloop
endfacet
facet normal 0.0000 -0.3600 0.0000
    outer loop
        vertex 2.2000 -0.1000 0.1200
        vertex 2.2400 -0.1000 -0.2400
        vertex 2.4000 -0.1000 -0.2400
    endloop
endfacet
facet normal 0.0000 -0.4000 0.0000
    outer loop
        vertex 2.0400 -0.1000 -0.0400
        vertex 2.2400 -0.1000 -0.2400
        vertex 2.2000 -0.1000 0.1200
    endloop
endfacet
facet normal 0.0000 -0.2000 0.0000
    outer loop
        vertex 2.2000 -0.1000 0.1200
        vertex 2.0000 -0.1000 0.1200
        vertex 2.0400 -0.1000 -0.0400
    endloop
endfacet
facet normal 0.0000 -0.2000 0.0000
    outer loop
        vertex 2.0400 -0.1000 -0.0400
        vertex 2.0000 -0.1000 -0.1600
        vertex 2.2400 -0.1000 -0.2400
    endloop
endfacet
facet normal 0.0000 -0.9240 0.0000
    outer loop
        vertex 2.8560 -0.1000 -0.5360
        vertex 3.0800 -0.1000 -0.2000
        vertex 2.5600 -0.1000 -0.3200
    endloop
endfacet
facet normal 0.0000 -0.3840 0.0000
    outer loop
        vertex 2.5600 -0.1000 -0.3200
        vertex 2.4400 -0.1000 -0.4400
        vertex 2.8560 -0.1000 -0.5360
    endloop
endfacet
facet normal 0.0000 -0.7864 0.0000
    outer loop
        vertex 2.5160 -0.1000 -0.7600
        vertex 2.8560 -0.1000 -0.5360
        vertex 2.4400 -0.1000 -0.4400
    endloop
endfacet
facet normal 0.0000 -0.4990 0.0000
    outer loop
        vertex 2.4400 -0.1000 -0.4400
        vertex 2.2000 -0.1000 -0.4800
        vertex 2.5160 -0.1000 -0.7600
    endloop
endfacet
facet normal 0.0000 -0.8510 0.0000
    outer loop
        vertex 2.1200 -0.1000 -0.8400
        vertex 2.5160 -0.1000 -0.7600
        vertex 2.2000 -0.1000 -0.4800
    endloop
endfacet
facet normal 0.0000 -0.5800 0.0000
    outer loop
        vertex 2.2000 -0.1000 -0.4800
        vertex 1.9600 -0.1000 -0.4000
        vertex 2.1200 -0.1000 -0.8400
    endloop
endfacet
facet normal 0.0000 -1.0090 0.0000
    outer loop
        vertex 1.7240 -0.1000 -0.7600
        vertex 2.1200 -0.1000 -0.8400
        vertex 1.9600 -0.1000 -0.4000
    endloop
endfacet
facet normal 0.0000 -0.7200 0.0000
    outer loop
        vertex 1.9600 -0.1000 -0.4000
        vertex 1.6400 -0.1000 -0.4000
        vertex 1.7240 -0.1000 -0.7600
    endloop
endfacet
facet normal 0.0000 -0.6474 0.0000
    outer loop
        vertex 1.6400 -0.1000 -0.4000
        vertex 1.3840 -0.1000 -0.5360
        vertex 1.7240 -0.1000 -0.7600
    endloop
endfacet
facet normal 0.0000 -0.3840 0.0000
    outer loop
        vertex 1.3840 -0.1000 -0.5360
        vertex 1.6400 -0.1000 -0.4000
        vertex 1.6400 -0.1000 -0.1600
    endloop
endfacet
facet normal 0.0000 -1.0640 0.0000
    outer loop
        vertex 1.6400 -0.1000 -0.1600
        vertex 1.1600 -0.1000 -0.2000
        vertex 1.3840 -0.1000 -0.5360
    endloop
endfacet
facet normal 0.0000 -0.8500 0.0000
    outer loop
        vertex 1.1600 -0.1000 -0.2000
        vertex 1.6400 -0.1000 -0.1600
        vertex 1.6000 -0.1000 0.1200
    endloop
endfacet
facet normal 0.0000 -2.2000 0.0000
    outer loop
        vertex 1.6000 -0.1000 0.1200
        vertex 1.1600 -0.1000 0.6000
        vertex 1.1600 -0.1000 -0.2000
    endloop
endfacet
facet normal 0.0000 -0.5500 0.0000
    outer loop
        vertex 1.1600 -0.1000 0.6000
        vertex 1.6000 -0.1000 0.1200
        vertex 1.6000 -0.1000 0.3200
    endloop
endfacet
facet normal 0.0000 -0.2100 0.0000
    outer loop
        vertex 1.6000 -0.1000 0.1200
        vertex 1.6400 -0.1000 -0.1600
        vertex 1.7600 -0.1000 -0.1600
    endloop
endfacet
facet normal 0.0000 -0.3500 0.0000
    outer loop
        vertex 1.7600 -0.1000 -0.1600
        vertex 1.8000 -0.1000 0.1200
        vertex 1.6000 -0.1000 0.1200
    endloop
endfacet
facet normal 0.0000 -0.6900 0.0000
    outer loop
        vertex 1.6800 -0.1000 0.5200
        vertex 1.1600 -0.1000 0.6000
        vertex 1.6000 -0.1000 0.3200
    endloop
endfacet
facet normal 0.0000 -0.2000 0.0000
    outer loop
        vertex 1.6000 -0.1000 0.3200
        vertex 1.7600 -0.1000 0.3200
        vertex 1.6800 -0.1000 0.5200
    endloop
endfacet
facet normal 0.0000 -1.2040 0.0000
    outer loop
        vertex 1.3840 -0.1000 0.9360
        vertex 1.1600 -0.1000 0.6000
        vertex 1.6800 -0.1000 0.5200
    endloop
endfacet
facet normal 0.0000 -0.4740 0.0000
    outer loop
        vertex 1.6800 -0.1000 0.5200
        vertex 1.7200 -0.1000 0.7200
        vertex 1.3840 -0.1000 0.9360
    endloop
endfacet
facet normal 0.0000 -0.9294 0.0000
    outer loop
        vertex 1.7240 -0.1000 1.1600
        vertex 1.3840 -0.1000 0.9360
        vertex 1.7200 -0.1000 0.7200
    endloop
endfacet
facet normal 0.0000 -0.4360 0.0000
    outer loop
        vertex 1.7200 -0.1000 0.7200
        vertex 1.8800 -0.1000 0.8800
        vertex 1.7240 -0.1000 1.1600
    endloop
endfacet
facet normal 0.0000 -0.7710 0.0000
    outer loop
        vertex 2.1200 -0.1000 1.2400
        vertex 1.7240 -0.1000 1.1600
        vertex 1.8800 -0.1000 0.8800
    endloop
endfacet
facet normal 0.0000 -0.4800 0.0000
    outer loop
        vertex 1.8800 -0.1000 0.8800
        vertex 2.1200 -0.1000 0.9200
        vertex 2.1200 -0.1000 1.2400
    endloop
endfacet
facet normal 0.0000 -3.0550 0.0000
    outer loop
        vertex -0.5600 -0.1000 2.1960
        vertex -2.2000 -0.1000 3.0000
        vertex -2.4000 -0.1000 2.8000
    endloop
endfacet
facet normal 0.0000 -4.8560 0.0000
    outer loop
        vertex -2.4000 -0.1000 2.8000
        vertex -0.6400 -0.1000 1.8000
        vertex -0.5600 -0.1000 2.1960
    endloop
endfacet
facet normal 0.0000 -22.0000 0.0000
    outer loop
        vertex -0.6400 -0.1000 1.8000
        vertex -2.4000 -0.1000 2.8000
        vertex -2.4000 -0.1000 0.8000
    endloop
endfacet
facet normal 0.0000 -3.4500 0.0000
    outer loop
        vertex -2.4000 -0.1000 0.8000
        vertex -2.2000 -0.1000 0.6000
        vertex -0.6400 -0.1000 1.8000
    endloop
endfacet
facet normal 0.0000 -4.4610 0.0000
    outer loop
        vertex -0.6400 -0.1000 1.8000
        vertex -2.2000 -0.1000 0.6000
        vertex -0.5600 -0.1000 1.4040
    endloop
endfacet
facet normal 0.0000 -4.6106 0.0000
    outer loop
        vertex -0.5600 -0.1000 1.4040
        vertex -2.2000 -0.1000 0.6000
        vertex -0.3360 -0.1000 1.0640
    endloop
endfacet
facet normal 0.0000 -3.5956 0.0000
    outer loop
        vertex -0.3360 -0.1000 1.0640
        vertex -2.2000 -0.1000 0.6000
        vertex 0.0040 -0.1000 0.8400
    endloop
endfacet
facet normal 0.0000 -1.6960 0.0000
    outer loop
        vertex 0.4000 -0.1000 0.7600
        vertex 0.0040 -0.1000 0.8400
        vertex -2.2000 -0.1000 0.6000
    endloop
endfacet
facet normal 0.0000 -3.3600 0.0000
    outer loop
        vertex -2.2000 -0.1000 0.6000
        vertex 1.1600 -0.1000 0.6000
        vertex 0.4000 -0.1000 0.7600
    endloop
endfacet
facet normal 0.0000 -0.7760 0.0000
    outer loop
        vertex 0.7960 -0.1000 0.8400
        vertex 0.4000 -0.1000 0.7600
        vertex 1.1600 -0.1000 0.6000
    endloop
endfacet
facet normal 0.0000 -1.0196 0.0000
    outer loop
        vertex 1.1360 -0.1000 1.0640
        vertex 0.7960 -0.1000 0.8400
        vertex 1.1600 -0.1000 0.6000
    endloop
endfacet
facet normal 0.0000 -0.7000 0.0000
    outer loop
        vertex 1.1600 -0.1000 0.6000
        vertex 1.3840 -0.1000 0.9360
        vertex 1.1360 -0.1000 1.0640
    endloop
endfacet
facet normal 0.0000 -0.7062 0.0000
    outer loop
        vertex 1.3600 -0.1000 1.4040
        vertex 1.1360 -0.1000 1.0640
        vertex 1.3840 -0.1000 0.9360
    endloop
endfacet
facet normal 0.0000 -1.0281 0.0000
    outer loop
        vertex 1.3840 -0.1000 0.9360
        vertex 1.7240 -0.1000 1.1600
        vertex 1.3600 -0.1000 1.4040
    endloop
endfacet
facet normal 0.0000 -1.0229 0.0000
    outer loop
        vertex 1.4400 -0.1000 1.8000
        vertex 1.3600 -0.1000 1.4040
        vertex 1.7240 -0.1000 1.1600
    endloop
endfacet
facet normal 0.0000 -1.7260 0.0000
    outer loop
        vertex 1.7240 -0.1000 1.1600
        vertex 2.1200 -0.1000 1.2400
        vertex 1.4400 -0.1000 1.8000
    endloop
endfacet
facet normal 0.0000 -9.8600 0.0000
    outer loop
        vertex 2.8000 -0.1000 3.0000
        vertex 1.4400 -0.1000 1.8000
        vertex 2.1200 -0.1000 1.2400
    endloop
endfacet
facet normal 0.0000 -3.0500 0.0000
    outer loop
        vertex 2.1200 -0.1000 1.2400
        vertex 3.0000 -0.1000 2.8000
        vertex 2.8000 -0.1000 3.0000
    endloop
endfacet
facet normal 0.0000 -4.3010 0.0000
    outer loop
        vertex 3.0000 -0.1000 2.8000
        vertex 2.1200 -0.1000 1.2400
        vertex 2.5160 -0.1000 1.1600
    endloop
endfacet
facet normal 0.0000 -4.1626 0.0000
    outer loop
        vertex 3.0000 -0.1000 2.8000
        vertex 2.5160 -0.1000 1.1600
        vertex 2.8560 -0.1000 0.9360
    endloop
endfacet
facet normal 0.0000 -1.8360 0.0000
    outer loop
        vertex 3.0000 -0.1000 2.8000
        vertex 2.8560 -0.1000 0.9360
        vertex 3.0000 -0.1000 0.7600
    endloop
endfacet
facet normal 0.0000 -3.9660 0.0000
    outer loop
        vertex 2.8000 -0.1000 3.0000
        vertex 1.3600 -0.1000 2.1960
        vertex 1.4400 -0.1000 1.8000
    endloop
endfacet
facet normal 0.0000 -4.1856 0.0000
    outer loop
        vertex 2.8000 -0.1000 3.0000
        vertex 1.1360 -0.1000 2.5360
        vertex 1.3600 -0.1000 2.1960
    endloop
endfacet
facet normal 0.0000 -3.3156 0.0000
    outer loop
        vertex 2.8000 -0.1000 3.0000
        vertex 0.7960 -0.1000 2.7600
        vertex 1.1360 -0.1000 2.5360
    endloop
endfacet
facet normal 0.0000 -1.5960 0.0000
    outer loop
        vertex 2.8000 -0.1000 3.0000
        vertex 0.4000 -0.1000 2.8400
        vertex 0.7960 -0.1000 2.7600
    endloop
endfacet
facet normal 0.0000 -5.0000 0.0000
    outer loop
        vertex 2.8000 -0.1000 3.0000
        vertex -2.2000 -0.1000 3.0000
        vertex 0.4000 -0.1000 2.8400
    endloop
endfacet
facet normal 0.0000 -1.6960 0.0000
    outer loop
        vertex -2.2000 -0.1000 3.0000
        vertex 0.0040 -0.1000 2.7600
        vertex 0.4000 -0.1000 2.8400
    endloop
endfacet
facet normal 0.0000 -3.5956 0.0000
    outer loop
        vertex -2.2000 -0.1000 3.0000
        vertex -0.3360 -0.1000 2.5360
        vertex 0.0040 -0.1000 2.7600
    endloop
endfacet
facet normal 0.0000 -4.6106 0.0000
    outer loop
        vertex -2.2000 -0.1000 3.0000
        vertex -0.5600 -0.1000 2.1960
        vertex -0.3360 -0.1000 2.5360
    endloop
endfacet
facet normal 0.0000 -1.8500 0.0000
    outer loop
        vertex -2.2000 -0.1000 3.0000
        vertex -2.8000 -0.1000 3.8000
        vertex -3.0800 -0.1000 3.6800
    endloop
endfacet
facet normal 0.0000 -1.9500 0.0000
    outer loop
        vertex -3.0800 -0.1000 3.6800
        vertex -2.4000 -0.1000 2.8000
        vertex -2.2000 -0.1000 3.0000
    endloop
endfacet
facet normal 0.0000 -1.8500 0.0000
    outer loop
        vertex -2.4000 -0.1000 2.8000
        vertex -3.0800 -0.1000 3.6800
        vertex -3.2000 -0.1000 3.4000
    endloop
endfacet
facet normal 0.0000 -10.0000 0.0000
    outer loop
        vertex -3.2000 -0.1000 3.4000
        vertex -2.4000 -0.1000 0.8000
        vertex -2.4000 -0.1000 2.8000
    endloop
endfacet
facet normal 0.0000 -16.0000 0.0000
    outer loop
        vertex -2.4000 -0.1000 0.8000
        vertex -3.2000 -0.1000 3.4000
        vertex -3.2000 -0.1000 0.2000
    endloop
endfacet
facet normal 0.0000 -1.8500 0.0000
    outer loop
        vertex -3.2000 -0.1000 0.2000
        vertex -3.0800 -0.1000 -0.0800
        vertex -2.4000 -0.1000 0.8000
    endloop
endfacet
facet normal 0.0000 -1.9500 0.0000
    outer loop
        vertex -2.2000 -0.1000 0.6000
        vertex -2.4000 -0.1000 0.8000
        vertex -3.0800 -0.1000 -0.0800
    endloop
endfacet
facet normal 0.0000 -1.8500 0.0000
    outer loop
        vertex -3.0800 -0.1000 -0.0800
        vertex -2.8000 -0.1000 -0.2000
        vertex -2.2000 -0.1000 0.6000
    endloop
endfacet
facet normal 0.0000 -16.8000 0.0000
    outer loop
        vertex 1.1600 -0.1000 0.6000
        vertex -2.2000 -0.1000 0.6000
        vertex -2.8000 -0.1000 -0.2000
    endloop
endfacet
facet normal 0.0000 -19.8000 0.0000
    outer loop
        vertex -2.8000 -0.1000 -0.2000
        vertex 1.1600 -0.1000 -0.2000
        vertex 1.1600 -0.1000 0.6000
    endloop
endfacet
facet normal 0.0000 -1.9500 0.0000
    outer loop
        vertex 2.8000 -0.1000 3.0000
        vertex 3.0000 -0.1000 2.8000
        vertex 3.6800 -0.1000 3.6800
    endloop
endfacet
facet normal 0.0000 -1.8500 0.0000
    outer loop
        vertex 3.6800 -0.1000 3.6800
        vertex 3.4000 -0.1000 3.8000
        vertex 2.8000 -0.1000 3.0000
    endloop
endfacet
facet normal 0.0000 -25.0000 0.0000
    outer loop
        vertex -2.2000 -0.1000 3.0000
        vertex 2.8000 -0.1000 3.0000
        vertex 3.4000 -0.1000 3.8000
    endloop
endfacet
facet normal 0.0000 -31.0000 0.0000
    outer loop
        vertex 3.4000 -0.1000 3.8000
        vertex -2.8000 -0.1000 3.8000
        vertex -2.2000 -0.1000 3.0000
    endloop
endfacet
facet normal 0.0000 -1.8500 0.0000
    outer loop
        vertex 3.8000 -0.1000 3.4000
        vertex 3.6800 -0.1000 3.6800
        vertex 3.0000 -0.1000 2.8000
    endloop
endfacet
facet normal 0.0000 -10.2000 0.0000
    outer loop
        vertex 3.0000 -0.1000 2.8000
        vertex 3.0000 -0.1000 0.7600
        vertex 3.8000 -0.1000 3.4000
    endloop
endfacet
facet normal 0.0000 -16.0000 0.0000
    outer loop
        vertex 3.8000 -0.1000 0.2000
        vertex 3.8000 -0.1000 3.4000
        vertex 3.0000 -0.1000 0.7600
    endloop
endfacet
facet normal 0.0000 -1.8200 0.0000
    outer loop
        vertex 3.0000 -0.1000 0.7600
        vertex 3.6800 -0.1000 -0.0800
        vertex 3.8000 -0.1000 0.2000
    endloop
endfacet
facet normal 0.0000 -1.9800 0.0000
    outer loop
        vertex 3.4000 -0.1000 -0.2000
        vertex 3.6800 -0.1000 -0.0800
        vertex 3.0000 -0.1000 0.7600
    endloop
endfacet
facet normal 0.0000 -1.9200 0.0000
    outer loop
        vertex 3.0000 -0.1000 0.7600
        vertex 3.0800 -0.1000 -0.2000
        vertex 3.4000 -0.1000 -0.2000
    endloop
endfacet
facet normal 0.0000 -0.7910 0.0000
    outer loop
        vertex -1.5240 -0.1000 -0.4400
        vertex -1.9200 -0.1000 -0.3600
        vertex -1.7200 -0.1000 -0.7200
    endloop
endfacet
facet normal 0.0000 -0.8694 0.0000
    outer loop
        vertex -1.7200 -0.1000 -0.7200
        vertex -1.1840 -0.1000 -0.6640
        vertex -1.5240 -0.1000 -0.4400
    endloop
endfacet
facet normal 0.0000 -0.6700 0.0000
    outer loop
        vertex -1.1840 -0.1000 -0.6640
        vertex -1.7200 -0.1000 -0.7200
        vertex -1.7200 -0.1000 -0.9200
    endloop
endfacet
facet normal 0.0000 -1.0540 0.0000
    outer loop
        vertex -1.7200 -0.1000 -0.9200
        vertex -1.4800 -0.1000 -1.1200
        vertex -1.1840 -0.1000 -0.6640
    endloop
endfacet
facet normal 0.0000 -0.4560 0.0000
    outer loop
        vertex -1.3200 -0.1000 -1.1200
        vertex -1.1840 -0.1000 -0.6640
        vertex -1.4800 -0.1000 -1.1200
    endloop
endfacet
facet normal 0.0000 -0.1200 0.0000
    outer loop
        vertex -1.4800 -0.1000 -1.1200
        vertex -1.4800 -0.1000 -1.2400
        vertex -1.3200 -0.1000 -1.1200
    endloop
endfacet
facet normal 0.0000 -0.4560 0.0000
    outer loop
        vertex -1.1840 -0.1000 -0.6640
        vertex -1.3200 -0.1000 -1.1200
        vertex -1.1600 -0.1000 -1.1200
    endloop
endfacet
facet normal 0.0000 -0.5874 0.0000
    outer loop
        vertex -1.1600 -0.1000 -1.1200
        vertex -0.9600 -0.1000 -1.0040
        vertex -1.1840 -0.1000 -0.6640
    endloop
endfacet
facet normal 0.0000 -0.2000 0.0000
    outer loop
        vertex -0.9600 -0.1000 -1.0040
        vertex -1.1600 -0.1000 -1.1200
        vertex -1.1600 -0.1000 -1.2800
    endloop
endfacet
facet normal 0.0000 -0.6330 0.0000
    outer loop
        vertex -1.1600 -0.1000 -1.2800
        vertex -0.8800 -0.1000 -1.4000
        vertex -0.9600 -0.1000 -1.0040
    endloop
endfacet
facet normal 0.0000 -0.7530 0.0000
    outer loop
        vertex -0.9600 -0.1000 -1.7960
        vertex -0.8800 -0.1000 -1.4000
        vertex -1.1600 -0.1000 -1.2800
    endloop
endfacet
facet normal 0.0000 -0.3870 0.0000
    outer loop
        vertex -1.1600 -0.1000 -1.2800
        vertex -1.2800 -0.1000 -1.2800
        vertex -0.9600 -0.1000 -1.7960
    endloop
endfacet
facet normal 0.0000 -0.9650 0.0000
    outer loop
        vertex -0.9600 -0.1000 -1.7960
        vertex -1.2800 -0.1000 -1.2800
        vertex -1.4800 -0.1000 -1.4400
    endloop
endfacet
facet normal 0.0000 -1.8200 0.0000
    outer loop
        vertex -1.4800 -0.1000 -1.4400
        vertex -1.4800 -0.1000 -2.0000
        vertex -0.9600 -0.1000 -1.7960
    endloop
endfacet
facet normal 0.0000 -0.8194 0.0000
    outer loop
        vertex -1.1840 -0.1000 -2.1360
        vertex -0.9600 -0.1000 -1.7960
        vertex -1.4800 -0.1000 -2.0000
    endloop
endfacet
facet normal 0.0000 -0.7034 0.0000
    outer loop
        vertex -1.4800 -0.1000 -2.0000
        vertex -1.5240 -0.1000 -2.3600
        vertex -1.1840 -0.1000 -2.1360
    endloop
endfacet
facet normal 0.0000 -0.3600 0.0000
    outer loop
        vertex -1.5240 -0.1000 -2.3600
        vertex -1.4800 -0.1000 -2.0000
        vertex -1.6400 -0.1000 -2.0000
    endloop
endfacet
facet normal 0.0000 -0.9490 0.0000
    outer loop
        vertex -1.6400 -0.1000 -2.0000
        vertex -1.9200 -0.1000 -2.4400
        vertex -1.5240 -0.1000 -2.3600
    endloop
endfacet
facet normal 0.0000 -1.2290 0.0000
    outer loop
        vertex -2.3160 -0.1000 -2.3600
        vertex -1.9200 -0.1000 -2.4400
        vertex -1.6400 -0.1000 -2.0000
    endloop
endfacet
facet normal 0.0000 -1.6200 0.0000
    outer loop
        vertex -1.6400 -0.1000 -2.0000
        vertex -2.3600 -0.1000 -2.0000
        vertex -2.3160 -0.1000 -2.3600
    endloop
endfacet
facet normal 0.0000 -2.5200 0.0000
    outer loop
        vertex -2.3600 -0.1000 -2.0000
        vertex -1.6400 -0.1000 -2.0000
        vertex -1.8800 -0.1000 -1.4400
    endloop
endfacet
facet normal 0.0000 -1.6800 0.0000
    outer loop
        vertex -1.8800 -0.1000 -1.4400
        vertex -2.3600 -0.1000 -1.4400
        vertex -2.3600 -0.1000 -2.0000
    endloop
endfacet
facet normal 0.0000 -1.3200 0.0000
    outer loop
        vertex -1.8800 -0.1000 -1.4400
        vertex -1.6400 -0.1000 -2.0000
        vertex -1.6400 -0.1000 -1.1200
    endloop
endfacet
facet normal 0.0000 -0.3000 0.0000
    outer loop
        vertex -1.6400 -0.1000 -1.1200
        vertex -1.8800 -0.1000 -1.2400
        vertex -1.8800 -0.1000 -1.4400
    endloop
endfacet
facet normal 0.0000 -0.3600 0.0000
    outer loop
        vertex -1.8800 -0.1000 -1.2400
        vertex -1.6400 -0.1000 -1.1200
        vertex -1.7200 -0.1000 -0.9200
    endloop
endfacet
facet normal 0.0000 -1.2800 0.0000
    outer loop
        vertex -1.7200 -0.1000 -0.9200
        vertex -2.3600 -0.1000 -0.9200
        vertex -1.8800 -0.1000 -1.2400
    endloop
endfacet
facet normal 0.0000 -0.2000 0.0000
    outer loop
        vertex -1.7200 -0.1000 -0.9200
        vertex -1.6400 -0.1000 -1.1200
        vertex -1.4800 -0.1000 -1.1200
    endloop
endfacet
facet normal 0.0000 -0.9600 0.0000
    outer loop
        vertex -2.3600 -0.1000 -0.9200
        vertex -2.3600 -0.1000 -1.2400
        vertex -1.8800 -0.1000 -1.2400
    endloop
endfacet
facet normal 0.0000 -0.4500 0.0000
    outer loop
        vertex -2.3160 -0.1000 -2.3600
        vertex -2.3600 -0.1000 -2.0000
        vertex -2.5600 -0.1000 -2.0000
    endloop
endfacet
facet normal 0.0000 -0.4234 0.0000
    outer loop
        vertex -2.5600 -0.1000 -2.0000
        vertex -2.6560 -0.1000 -2.1360
        vertex -2.3160 -0.1000 -2.3600
    endloop
endfacet
facet normal 0.0000 -0.3944 0.0000
    outer loop
        vertex -2.8800 -0.1000 -1.7960
        vertex -2.6560 -0.1000 -2.1360
        vertex -2.5600 -0.1000 -2.0000
    endloop
endfacet
facet normal 0.0000 -0.6900 0.0000
    outer loop
        vertex -2.5600 -0.1000 -2.0000
        vertex -2.9600 -0.1000 -1.4000
        vertex -2.8800 -0.1000 -1.7960
    endloop
endfacet
facet normal 0.0000 -3.2000 0.0000
    outer loop
        vertex -2.9600 -0.1000 -1.4000
        vertex -2.5600 -0.1000 -2.0000
        vertex -2.5600 -0.1000 -0.7200
    endloop
endfacet
facet normal 0.0000 -0.6500 0.0000
    outer loop
        vertex -2.5600 -0.1000 -0.7200
        vertex -2.8800 -0.1000 -1.0040
        vertex -2.9600 -0.1000 -1.4000
    endloop
endfacet
facet normal 0.0000 -0.2824 0.0000
    outer loop
        vertex -2.6560 -0.1000 -0.6640
        vertex -2.8800 -0.1000 -1.0040
        vertex -2.5600 -0.1000 -0.7200
    endloop
endfacet
facet normal 0.0000 -0.2534 0.0000
    outer loop
        vertex -2.5600 -0.1000 -0.7200
        vertex -2.3160 -0.1000 -0.4400
        vertex -2.6560 -0.1000 -0.6640
    endloop
endfacet
facet normal 0.0000 -1.4700 0.0000
    outer loop
        vertex -2.3160 -0.1000 -0.4400
        vertex -2.5600 -0.1000 -0.7200
        vertex -1.7200 -0.1000 -0.7200
    endloop
endfacet
facet normal 0.0000 -0.9910 0.0000
    outer loop
        vertex -1.7200 -0.1000 -0.7200
        vertex -1.9200 -0.1000 -0.3600
        vertex -2.3160 -0.1000 -0.4400
    endloop
endfacet
facet normal 0.0000 -1.5400 0.0000
    outer loop
        vertex 1.3200 -0.1000 -1.6800
        vertex 1.0400 -0.1000 -1.2400
        vertex 0.7600 -0.1000 -1.6800
    endloop
endfacet
facet normal 0.0000 -1.8200 0.0000
    outer loop
        vertex 0.7600 -0.1000 -1.6800
        vertex 1.0400 -0.1000 -2.2000
        vertex 1.3200 -0.1000 -1.6800
    endloop
endfacet
facet normal 0.0000 -0.9490 0.0000
    outer loop
        vertex 1.4360 -0.1000 -1.3200
        vertex 1.0400 -0.1000 -1.2400
        vertex 1.3200 -0.1000 -1.6800
    endloop
endfacet
facet normal 0.0000 -0.5400 0.0000
    outer loop
        vertex 1.3200 -0.1000 -1.6800
        vertex 1.5600 -0.1000 -1.6800
        vertex 1.4360 -0.1000 -1.3200
    endloop
endfacet
facet normal 0.0000 -0.5914 0.0000
    outer loop
        vertex 1.7760 -0.1000 -1.5440
        vertex 1.4360 -0.1000 -1.3200
        vertex 1.5600 -0.1000 -1.6800
    endloop
endfacet
facet normal 0.0000 -0.6494 0.0000
    outer loop
        vertex 1.5600 -0.1000 -1.6800
        vertex 2.0000 -0.1000 -1.8840
        vertex 1.7760 -0.1000 -1.5440
    endloop
endfacet
facet normal 0.0000 -2.3800 0.0000
    outer loop
        vertex 2.0000 -0.1000 -1.8840
        vertex 1.5600 -0.1000 -1.6800
        vertex 1.1600 -0.1000 -2.3600
    endloop
endfacet
facet normal 0.0000 -0.6300 0.0000
    outer loop
        vertex 1.1600 -0.1000 -2.3600
        vertex 1.1600 -0.1000 -2.4800
        vertex 2.0000 -0.1000 -1.8840
    endloop
endfacet
facet normal 0.0000 -1.0430 0.0000
    outer loop
        vertex 2.0000 -0.1000 -1.8840
        vertex 1.1600 -0.1000 -2.4800
        vertex 1.4400 -0.1000 -2.4800
    endloop
endfacet
facet normal 0.0000 -1.6840 0.0000
    outer loop
        vertex 1.4400 -0.1000 -2.4800
        vertex 2.0800 -0.1000 -2.2800
        vertex 2.0000 -0.1000 -1.8840
    endloop
endfacet
facet normal 0.0000 -1.4840 0.0000
    outer loop
        vertex 2.0000 -0.1000 -2.6760
        vertex 2.0800 -0.1000 -2.2800
        vertex 1.4400 -0.1000 -2.4800
    endloop
endfacet
facet normal 0.0000 -0.5600 0.0000
    outer loop
        vertex 1.4400 -0.1000 -2.4800
        vertex 1.4400 -0.1000 -2.6400
        vertex 2.0000 -0.1000 -2.6760
    endloop
endfacet
facet normal 0.0000 -1.2404 0.0000
    outer loop
        vertex 1.7760 -0.1000 -3.0160
        vertex 2.0000 -0.1000 -2.6760
        vertex 1.4400 -0.1000 -2.6400
    endloop
endfacet
facet normal 0.0000 -0.6580 0.0000
    outer loop
        vertex 1.4400 -0.1000 -2.6400
        vertex 1.1600 -0.1000 -2.6400
        vertex 1.7760 -0.1000 -3.0160
    endloop
endfacet
facet normal 0.0000 -1.6614 0.0000
    outer loop
        vertex 1.4360 -0.1000 -3.2400
        vertex 1.7760 -0.1000 -3.0160
        vertex 1.1600 -0.1000 -2.6400
    endloop
endfacet
facet normal 0.0000 -0.4830 0.0000
    outer loop
        vertex 1.1600 -0.1000 -2.6400
        vertex 1.1600 -0.1000 -2.9200
        vertex 1.4360 -0.1000 -3.2400
    endloop
endfacet
facet normal 0.0000 -0.9300 0.0000
    outer loop
        vertex 1.0400 -0.1000 -3.3200
        vertex 1.4360 -0.1000 -3.2400
        vertex 1.1600 -0.1000 -2.9200
    endloop
endfacet
facet normal 0.0000 -0.6000 0.0000
    outer loop
        vertex 1.1600 -0.1000 -2.9200
        vertex 0.9200 -0.1000 -2.9200
        vertex 1.0400 -0.1000 -3.3200
    endloop
endfacet
facet normal 0.0000 -0.9300 0.0000
    outer loop
        vertex 0.9200 -0.1000 -2.9200
        vertex 0.6440 -0.1000 -3.2400
        vertex 1.0400 -0.1000 -3.3200
    endloop
endfacet
facet normal 0.0000 -0.4830 0.0000
    outer loop
        vertex 0.6440 -0.1000 -3.2400
        vertex 0.9200 -0.1000 -2.9200
        vertex 0.9200 -0.1000 -2.6400
    endloop
endfacet
facet normal 0.0000 -1.0500 0.0000
    outer loop
        vertex 0.9200 -0.1000 -2.6400
        vertex 0.6400 -0.1000 -2.6400
        vertex 0.6440 -0.1000 -3.2400
    endloop
endfacet
facet normal 0.0000 -1.2694 0.0000
    outer loop
        vertex 0.3040 -0.1000 -3.0160
        vertex 0.6440 -0.1000 -3.2400
        vertex 0.6400 -0.1000 -2.6400
    endloop
endfacet
facet normal 0.0000 -1.2404 0.0000
    outer loop
        vertex 0.6400 -0.1000 -2.6400
        vertex 0.0800 -0.1000 -2.6760
        vertex 0.3040 -0.1000 -3.0160
    endloop
endfacet
facet normal 0.0000 -0.5600 0.0000
    outer loop
        vertex 0.0800 -0.1000 -2.6760
        vertex 0.6400 -0.1000 -2.6400
        vertex 0.6400 -0.1000 -2.4800
    endloop
endfacet
facet normal 0.0000 -1.4840 0.0000
    outer loop
        vertex 0.6400 -0.1000 -2.4800
        vertex 0.0000 -0.1000 -2.2800
        vertex 0.0800 -0.1000 -2.6760
    endloop
endfacet
facet normal 0.0000 -0.8300 0.0000
    outer loop
        vertex 0.9200 -0.1000 -2.3600
        vertex 0.0000 -0.1000 -2.2800
        vertex 0.6400 -0.1000 -2.4800
    endloop
endfacet
facet normal 0.0000 -0.2100 0.0000
    outer loop
        vertex 0.6400 -0.1000 -2.4800
        vertex 0.9200 -0.1000 -2.4800
        vertex 0.9200 -0.1000 -2.3600
    endloop
endfacet
facet normal 0.0000 -2.3170 0.0000
    outer loop
        vertex 0.0800 -0.1000 -1.8840
        vertex 0.0000 -0.1000 -2.2800
        vertex 0.9200 -0.1000 -2.3600
    endloop
endfacet
facet normal 0.0000 -2.3800 0.0000
    outer loop
        vertex 0.9200 -0.1000 -2.3600
        vertex 0.5200 -0.1000 -1.6800
        vertex 0.0800 -0.1000 -1.8840
    endloop
endfacet
facet normal 0.0000 -0.6494 0.0000
    outer loop
        vertex 0.3040 -0.1000 -1.5440
        vertex 0.0800 -0.1000 -1.8840
        vertex 0.5200 -0.1000 -1.6800
    endloop
endfacet
facet normal 0.0000 -0.5914 0.0000
    outer loop
        vertex 0.5200 -0.1000 -1.6800
        vertex 0.6440 -0.1000 -1.3200
        vertex 0.3040 -0.1000 -1.5440
    endloop
endfacet
facet normal 0.0000 -0.5400 0.0000
    outer loop
        vertex 0.6440 -0.1000 -1.3200
        vertex 0.5200 -0.1000 -1.6800
        vertex 0.7600 -0.1000 -1.6800
    endloop
endfacet
facet normal 0.0000 -0.9490 0.0000
    outer loop
        vertex 0.7600 -0.1000 -1.6800
        vertex 1.0400 -0.1000 -1.2400
        vertex 0.6440 -0.1000 -1.3200
    endloop
endfacet
facet normal 0.0000 -33.0000 0.0000
    outer loop
        vertex 4.4000 -0.1000 4.4000
        vertex -4.4000 -0.1000 4.4000
        vertex -2.8000 -0.1000 3.8000
    endloop
endfacet
facet normal 0.0000 -23.2500 0.0000
    outer loop
        vertex -2.8000 -0.1000 3.8000
        vertex 3.4000 -0.1000 3.8000
        vertex 4.4000 -0.1000 4.4000
    endloop
endfacet
facet normal 0.0000 -1.8000 0.0000
    outer loop
        vertex 4.4000 -0.1000 4.4000
        vertex 3.4000 -0.1000 3.8000
        vertex 3.6800 -0.1000 3.6800
    endloop
endfacet
facet normal 0.0000 -1.8000 0.0000
    outer loop
        vertex 4.4000 -0.1000 4.4000
        vertex 3.6800 -0.1000 3.6800
        vertex 3.8000 -0.1000 3.4000
    endloop
endfacet
facet normal 0.0000 -12.0000 0.0000
    outer loop
        vertex 4.4000 -0.1000 4.4000
        vertex 3.8000 -0.1000 3.4000
        vertex 3.8000 -0.1000 0.2000
    endloop
endfacet
facet normal 0.0000 -33.0000 0.0000
    outer loop
        vertex 3.8000 -0.1000 0.2000
        vertex 4.4000 -0.1000 -4.4000
        vertex 4.4000 -0.1000 4.4000
    endloop
endfacet
facet normal 0.0000 -4.5000 0.0000
    outer loop
        vertex 3.8000 -0.1000 0.2000
        vertex 3.6800 -0.1000 -0.0800
        vertex 4.4000 -0.1000 -4.4000
    endloop
endfacet
facet normal 0.0000 -8.1000 0.0000
    outer loop
        vertex 3.6800 -0.1000 -0.0800
        vertex 3.4000 -0.1000 -0.2000
        vertex 4.4000 -0.1000 -4.4000
    endloop
endfacet
facet normal 0.0000 -8.4000 0.0000
    outer loop
        vertex 4.4000 -0.1000 -4.4000
        vertex 3.4000 -0.1000 -0.2000
        vertex 3.0800 -0.1000 -0.2000
    endloop
endfacet
facet normal 0.0000 -8.6520 0.0000
    outer loop
        vertex 3.0800 -0.1000 -0.2000
        vertex 2.8560 -0.1000 -0.5360
        vertex 4.4000 -0.1000 -4.4000
    endloop
endfacet
facet normal 0.0000 -10.3726 0.0000
    outer loop
        vertex 2.8560 -0.1000 -0.5360
        vertex 2.5160 -0.1000 -0.7600
        vertex 4.4000 -0.1000 -4.4000
    endloop
endfacet
facet normal 0.0000 -9.9510 0.0000
    outer loop
        vertex 4.4000 -0.1000 -4.4000
        vertex 2.5160 -0.1000 -0.7600
        vertex 2.1200 -0.1000 -0.8400
    endloop
endfacet
facet normal 0.0000 -17.5470 0.0000
    outer loop
        vertex 2.1200 -0.1000 -0.8400
        vertex 2.0000 -0.1000 -1.8840
        vertex 4.4000 -0.1000 -4.4000
    endloop
endfacet
facet normal 0.0000 -4.6820 0.0000
    outer loop
        vertex 2.0000 -0.1000 -1.8840
        vertex 2.0800 -0.1000 -2.2800
        vertex 4.4000 -0.1000 -4.4000
    endloop
endfacet
facet normal 0.0000 -6.8020 0.0000
    outer loop
        vertex 2.0800 -0.1000 -2.2800
        vertex 2.0000 -0.1000 -2.6760
        vertex 4.4000 -0.1000 -4.4000
    endloop
endfacet
facet normal 0.0000 -7.5136 0.0000
    outer loop
        vertex 2.0000 -0.1000 -2.6760
        vertex 1.7760 -0.1000 -3.0160
        vertex 4.4000 -0.1000 -4.4000
    endloop
endfacet
facet normal 0.0000 -6.6146 0.0000
    outer loop
        vertex 1.7760 -0.1000 -3.0160
        vertex 1.4360 -0.1000 -3.2400
        vertex 4.4000 -0.1000 -4.4000
    endloop
endfacet
facet normal 0.0000 -4.3530 0.0000
    outer loop
        vertex 1.4360 -0.1000 -3.2400
        vertex 1.0400 -0.1000 -3.3200
        vertex 4.4000 -0.1000 -4.4000
    endloop
endfacet
facet normal 0.0000 -59.4000 0.0000
    outer loop
        vertex -4.4000 -0.1000 -4.4000
        vertex 4.4000 -0.1000 -4.4000
        vertex 1.0400 -0.1000 -3.3200
    endloop
endfacet
facet normal 0.0000 -5.3930 0.0000
    outer loop
        vertex 1.0400 -0.1000 -3.3200
        vertex 0.6440 -0.1000 -3.2400
        vertex -4.4000 -0.1000 -4.4000
    endloop
endfacet
facet normal 0.0000 -9.5266 0.0000
    outer loop
        vertex 0.3040 -0.1000 -3.0160
        vertex -4.4000 -0.1000 -4.4000
        vertex 0.6440 -0.1000 -3.2400
    endloop
endfacet
facet normal 0.0000 -11.9336 0.0000
    outer loop
        vertex 0.0800 -0.1000 -2.6760
        vertex -4.4000 -0.1000 -4.4000
        vertex 0.3040 -0.1000 -3.0160
    endloop
endfacet
facet normal 0.0000 -11.9500 0.0000
    outer loop
        vertex -4.4000 -0.1000 -4.4000
        vertex 0.0800 -0.1000 -2.6760
        vertex 0.0000 -0.1000 -2.2800
    endloop
endfacet
facet normal 0.0000 -17.9930 0.0000
    outer loop
        vertex 0.0000 -0.1000 -2.2800
        vertex -1.5240 -0.1000 -2.3600
        vertex -4.4000 -0.1000 -4.4000
    endloop
endfacet
facet normal 0.0000 -3.6110 0.0000
    outer loop
        vertex -1.5240 -0.1000 -2.3600
        vertex -1.9200 -0.1000 -2.4400
        vertex -4.4000 -0.1000 -4.4000
    endloop
endfacet
facet normal 0.0000 -6.0910 0.0000
    outer loop
        vertex -2.3160 -0.1000 -2.3600
        vertex -4.4000 -0.1000 -4.4000
        vertex -1.9200 -0.1000 -2.4400
    endloop
endfacet
facet normal 0.0000 -7.2526 0.0000
    outer loop
        vertex -2.6560 -0.1000 -2.1360
        vertex -4.4000 -0.1000 -4.4000
        vertex -2.3160 -0.1000 -2.3600
    endloop
endfacet
facet normal 0.0000 -6.8756 0.0000
    outer loop
        vertex -2.8800 -0.1000 -1.7960
        vertex -4.4000 -0.1000 -4.4000
        vertex -2.6560 -0.1000 -2.1360
    endloop
endfacet
facet normal 0.0000 -5.0640 0.0000
    outer loop
        vertex -2.9600 -0.1000 -1.4000
        vertex -4.4000 -0.1000 -4.4000
        vertex -2.8800 -0.1000 -1.7960
    endloop
endfacet
facet normal 0.0000 -14.1300 0.0000
    outer loop
        vertex -3.0800 -0.1000 -0.0800
        vertex -4.4000 -0.1000 -4.4000
        vertex -2.9600 -0.1000 -1.4000
    endloop
endfacet
facet normal 0.0000 -0.9570 0.0000
    outer loop
        vertex -2.9600 -0.1000 -1.4000
        vertex -2.8800 -0.1000 -1.0040
        vertex -3.0800 -0.1000 -0.0800
    endloop
endfacet
facet normal 0.0000 -1.4670 0.0000
    outer loop
        vertex -2.8000 -0.1000 -0.2000
        vertex -3.0800 -0.1000 -0.0800
        vertex -2.8800 -0.1000 -1.0040
    endloop
endfacet
facet normal 0.0000 -0.9556 0.0000
    outer loop
        vertex -2.8800 -0.1000 -1.0040
        vertex -2.6560 -0.1000 -0.6640
        vertex -2.8000 -0.1000 -0.2000
    endloop
endfacet
facet normal 0.0000 -1.1876 0.0000
    outer loop
        vertex -2.8000 -0.1000 -0.2000
        vertex -2.6560 -0.1000 -0.6640
        vertex -2.3160 -0.1000 -0.4400
    endloop
endfacet
facet normal 0.0000 -0.8360 0.0000
    outer loop
        vertex -2.8000 -0.1000 -0.2000
        vertex -2.3160 -0.1000 -0.4400
        vertex -1.9200 -0.1000 -0.3600
    endloop
endfacet
facet normal 0.0000 -3.9600 0.0000
    outer loop
        vertex 1.1600 -0.1000 -0.2000
        vertex -2.8000 -0.1000 -0.2000
        vertex -1.9200 -0.1000 -0.3600
    endloop
endfacet
facet normal 0.0000 -1.9360 0.0000
    outer loop
        vertex 1.1600 -0.1000 -0.2000
        vertex -1.9200 -0.1000 -0.3600
        vertex -1.5240 -0.1000 -0.4400
    endloop
endfacet
facet normal 0.0000 -4.2676 0.0000
    outer loop
        vertex 1.1600 -0.1000 -0.2000
        vertex -1.5240 -0.1000 -0.4400
        vertex -1.1840 -0.1000 -0.6640
    endloop
endfacet
facet normal 0.0000 -5.6306 0.0000
    outer loop
        vertex 1.1600 -0.1000 -0.2000
        vertex -1.1840 -0.1000 -0.6640
        vertex -0.9600 -0.1000 -1.0040
    endloop
endfacet
facet normal 0.0000 -5.6490 0.0000
    outer loop
        vertex 1.1600 -0.1000 -0.2000
        vertex -0.9600 -0.1000 -1.0040
        vertex -0.8800 -0.1000 -1.4000
    endloop
endfacet
facet normal 0.0000 -10.7160 0.0000
    outer loop
        vertex -0.8800 -0.1000 -1.4000
        vertex 0.3040 -0.1000 -1.5440
        vertex 1.1600 -0.1000 -0.2000
    endloop
endfacet
facet normal 0.0000 -3.0024 0.0000
    outer loop
        vertex 0.3040 -0.1000 -1.5440
        vertex -0.8800 -0.1000 -1.4000
        vertex -0.9600 -0.1000 -1.7960
    endloop
endfacet
facet normal 0.0000 -2.3332 0.0000
    outer loop
        vertex -0.9600 -0.1000 -1.7960
        vertex 0.0800 -0.1000 -1.8840
        vertex 0.3040 -0.1000 -1.5440
    endloop
endfacet
facet normal 0.0000 -2.3332 0.0000
    outer loop
        vertex 0.0800 -0.1000 -1.8840
        vertex -0.9600 -0.1000 -1.7960
        vertex -1.1840 -0.1000 -2.1360
    endloop
endfacet
facet normal 0.0000 -3.0024 0.0000
    outer loop
        vertex -1.1840 -0.1000 -2.1360
        vertex 0.0000 -0.1000 -2.2800
        vertex 0.0800 -0.1000 -1.8840
    endloop
endfacet
facet normal 0.0000 -1.9636 0.0000
    outer loop
        vertex -1.1840 -0.1000 -2.1360
        vertex -1.5240 -0.1000 -2.3600
        vertex 0.0000 -0.1000 -2.2800
    endloop
endfacet
facet normal 0.0000 -1.6576 0.0000
    outer loop
        vertex 1.1600 -0.1000 -0.2000
        vertex 0.3040 -0.1000 -1.5440
        vertex 0.6440 -0.1000 -1.3200
    endloop
endfacet
facet normal 0.0000 -2.6516 0.0000
    outer loop
        vertex 0.6440 -0.1000 -1.3200
        vertex 1.3840 -0.1000 -0.5360
        vertex 1.1600 -0.1000 -0.2000
    endloop
endfacet
facet normal 0.0000 -1.5704 0.0000
    outer loop
        vertex 1.3840 -0.1000 -0.5360
        vertex 0.6440 -0.1000 -1.3200
        vertex 1.0400 -0.1000 -1.2400
    endloop
endfacet
facet normal 0.0000 -1.9776 0.0000
    outer loop
        vertex 1.0400 -0.1000 -1.2400
        vertex 1.7240 -0.1000 -0.7600
        vertex 1.3840 -0.1000 -0.5360
    endloop
endfacet
facet normal 0.0000 -1.5300 0.0000
    outer loop
        vertex 1.7240 -0.1000 -0.7600
        vertex 1.0400 -0.1000 -1.2400
        vertex 1.4360 -0.1000 -1.3200
    endloop
endfacet
facet normal 0.0000 -1.5300 0.0000
    outer loop
        vertex 1.4360 -0.1000 -1.3200
        vertex 2.1200 -0.1000 -0.8400
        vertex 1.7240 -0.1000 -0.7600
    endloop
endfacet
facet normal 0.0000 -1.9776 0.0000
    outer loop
        vertex 2.1200 -0.1000 -0.8400
        vertex 1.4360 -0.1000 -1.3200
        vertex 1.7760 -0.1000 -1.5440
    endloop
endfacet
facet normal 0.0000 -1.7166 0.0000
    outer loop
        vertex 2.1200 -0.1000 -0.8400
        vertex 1.7760 -0.1000 -1.5440
        vertex 2.0000 -0.1000 -1.8840
    endloop
endfacet
facet normal 0.0000 -5.5500 0.0000
    outer loop
        vertex -3.2000 -0.1000 0.2000
        vertex -4.4000 -0.1000 -4.4000
        vertex -3.0800 -0.1000 -0.0800
    endloop
endfacet
facet normal 0.0000 -66.0000 0.0000
    outer loop
        vertex -4.4000 -0.1000 4.4000
        vertex -4.4000 -0.1000 -4.4000
        vertex -3.2000 -0.1000 0.2000
    endloop
endfacet
facet normal 0.0000 -24.0000 0.0000
    outer loop
        vertex -3.2000 -0.1000 0.2000
        vertex -3.2000 -0.1000 3.4000
        vertex -4.4000 -0.1000 4.4000
    endloop
endfacet
facet normal 0.0000 -2.8500 0.0000
    outer loop
        vertex -4.4000 -0.1000 4.4000
        vertex -3.2000 -0.1000 3.4000
        vertex -3.0800 -0.1000 3.6800
    endloop
endfacet
facet normal 0.0000 -2.2500 0.0000
    outer loop
        vertex -4.4000 -0.1000 4.4000
        vertex -3.0800 -0.1000 3.6800
        vertex -2.8000 -0.1000 3.8000
    endloop
endfacet
endsolid GiantLegoRocks
