solid GiantLegoRocks
facet normal 0.0000 0.7500 0.0000
    outer loop
        vertex 7.6000 0.0000 4.4000
        vertex 7.6000 0.0000 -4.4000
        vertex -7.6000 0.0000 -4.4000
    endloop
endfacet
facet normal 0.0000 0.7500 0.0000
    outer loop
        vertex -7.6000 0.0000 -4.4000
        vertex -7.6000 0.0000 4.4000
        vertex 7.6000 0.0000 4.4000
    endloop
endfacet
facet normal 0.0000 -0.2500 22.0000
    outer loop
        vertex -7.6000 -0.1000 4.4000
        vertex 7.6000 -0.1000 4.4000
        vertex 7.6000 0.0000 4.4000
    endloop
endfacet
facet normal 0.0000 -0.2500 22.0000
    outer loop
        vertex 7.6000 0.0000 4.4000
        vertex -7.6000 0.0000 4.4000
        vertex -7.6000 -0.1000 4.4000
    endloop
endfacet
facet normal -38.0000 -0.2500 0.0000
    outer loop
        vertex -7.6000 -0.1000 -4.4000
        vertex -7.6000 -0.1000 4.4000
        vertex -7.6000 0.0000 4.4000
    endloop
endfacet
facet normal -38.0000 -0.2500 0.0000
    outer loop
        vertex -7.6000 0.0000 4.4000
        vertex -7.6000 0.0000 -4.4000
        vertex -7.6000 -0.1000 -4.4000
    endloop
endfacet
facet normal 0.0000 -0.2500 -22.0000
    outer loop
        vertex 7.6000 -0.1000 -4.4000
        vertex -7.6000 -0.1000 -4.4000
        vertex -7.6000 0.0000 -4.4000
    endloop
endfacet
facet normal 0.0000 -0.2500 -22.0000
    outer loop
        vertex -7.6000 0.0000 -4.4000
        vertex 7.6000 0.0000 -4.4000
        vertex 7.6000 -0.1000 -4.4000
    endloop
endfacet
facet normal 38.0000 -0.2500 0.0000
    outer loop
        vertex 7.6000 -0.1000 4.4000
        vertex 7.6000 -0.1000 -4.4000
        vertex 7.6000 0.0000 -4.4000
    endloop
endfacet
facet normal 38.0000 -0.2500 0.0000
    outer loop
        vertex 7.6000 0.0000 -4.4000
        vertex 7.6000 0.0000 4.4000
        vertex 7.6000 -0.1000 4.4000
    endloop
endfacet
facet normal 0.0000 -3.7746 0.0000
    outer loop
        vertex 1.1916 -0.1000 -3.2796
        vertex 7.6000 -0.1000 -4.4000
        vertex 1.3028 -0.1000 -3.2048
    endloop
endfacet
facet normal 0.0000 -5.9302 0.0000
    outer loop
        vertex -1.3408 -0.1000 0.5764
        vertex -1.6136 -0.1000 0.9700
        vertex -1.2788 -0.1000 -2.9912
    endloop
endfacet
facet normal 0.0000 -1.3074 0.0000
    outer loop
        vertex -1.2788 -0.1000 -2.9912
        vertex -1.2788 -0.1000 0.3828
        vertex -1.3408 -0.1000 0.5764
    endloop
endfacet
facet normal 0.0000 -1.0485 0.0000
    outer loop
        vertex -0.6076 -0.1000 -3.1228
        vertex 0.6164 -0.1000 -3.0936
        vertex 0.5888 -0.1000 -2.9572
    endloop
endfacet
facet normal 0.0000 -0.9546 0.0000
    outer loop
        vertex 0.5888 -0.1000 -2.9572
        vertex -0.5792 -0.1000 -2.9912
        vertex -0.6076 -0.1000 -3.1228
    endloop
endfacet
facet normal 0.0000 -347.6660 0.0000
    outer loop
        vertex -7.6000 -0.1000 4.4000
        vertex -7.6000 -0.1000 -4.4000
        vertex -1.2788 -0.1000 -2.9912
    endloop
endfacet
facet normal 0.0000 -141.0310 0.0000
    outer loop
        vertex -1.2788 -0.1000 -2.9912
        vertex -1.6136 -0.1000 0.9700
        vertex -7.6000 -0.1000 4.4000
    endloop
endfacet
facet normal 0.0000 -1.1301 0.0000
    outer loop
        vertex -1.2556 -0.1000 1.7800
        vertex -1.2556 -0.1000 2.7480
        vertex -1.4424 -0.1000 2.7480
    endloop
endfacet
facet normal 0.0000 -1.1301 0.0000
    outer loop
        vertex -1.4424 -0.1000 2.7480
        vertex -1.4424 -0.1000 1.7800
        vertex -1.2556 -0.1000 1.7800
    endloop
endfacet
facet normal 0.0000 -0.3168 0.0000
    outer loop
        vertex -1.1392 -0.1000 2.8688
        vertex -1.5588 -0.1000 2.8688
        vertex -1.4424 -0.1000 2.7480
    endloop
endfacet
facet normal 0.0000 -0.1410 0.0000
    outer loop
        vertex -1.4424 -0.1000 2.7480
        vertex -1.2556 -0.1000 2.7480
        vertex -1.1392 -0.1000 2.8688
    endloop
endfacet
facet normal 0.0000 -1.1277 0.0000
    outer loop
        vertex -0.8360 -0.1000 2.7480
        vertex -1.0224 -0.1000 2.7480
        vertex -1.0224 -0.1000 1.7800
    endloop
endfacet
facet normal 0.0000 -1.1277 0.0000
    outer loop
        vertex -1.0224 -0.1000 1.7800
        vertex -0.8360 -0.1000 1.7800
        vertex -0.8360 -0.1000 2.7480
    endloop
endfacet
facet normal 0.0000 -0.3171 0.0000
    outer loop
        vertex -0.7192 -0.1000 2.8688
        vertex -1.1392 -0.1000 2.8688
        vertex -1.0224 -0.1000 2.7480
    endloop
endfacet
facet normal 0.0000 -0.1407 0.0000
    outer loop
        vertex -1.0224 -0.1000 2.7480
        vertex -0.8360 -0.1000 2.7480
        vertex -0.7192 -0.1000 2.8688
    endloop
endfacet
facet normal 0.0000 -4.7128 0.0000
    outer loop
        vertex -7.6000 -0.1000 -4.4000
        vertex -1.1816 -0.1000 -3.2272
        vertex -1.2532 -0.1000 -3.1228
    endloop
endfacet
facet normal 0.0000 -1.2705 0.0000
    outer loop
        vertex -0.3928 -0.1000 2.7480
        vertex -0.6028 -0.1000 2.7480
        vertex -0.6028 -0.1000 1.7800
    endloop
endfacet
facet normal 0.0000 -1.2705 0.0000
    outer loop
        vertex -0.6028 -0.1000 1.7800
        vertex -0.3928 -0.1000 1.7800
        vertex -0.3928 -0.1000 2.7480
    endloop
endfacet
facet normal 0.0000 -5.4246 0.0000
    outer loop
        vertex -7.6000 -0.1000 -4.4000
        vertex -1.2532 -0.1000 -3.1228
        vertex -1.2788 -0.1000 -2.9912
    endloop
endfacet
facet normal 0.0000 -0.3346 0.0000
    outer loop
        vertex -0.2760 -0.1000 2.8688
        vertex -0.7192 -0.1000 2.8688
        vertex -0.6028 -0.1000 2.7480
    endloop
endfacet
facet normal 0.0000 -0.1585 0.0000
    outer loop
        vertex -0.6028 -0.1000 2.7480
        vertex -0.3928 -0.1000 2.7480
        vertex -0.2760 -0.1000 2.8688
    endloop
endfacet
facet normal 0.0000 -8.3988 0.0000
    outer loop
        vertex -1.6136 -0.1000 0.9700
        vertex -1.6756 -0.1000 1.2300
        vertex -7.6000 -0.1000 4.4000
    endloop
endfacet
facet normal 0.0000 -56.2077 0.0000
    outer loop
        vertex -1.6756 -0.1000 1.2300
        vertex -1.6756 -0.1000 2.7480
        vertex -7.6000 -0.1000 4.4000
    endloop
endfacet
facet normal 0.0000 -5.6789 0.0000
    outer loop
        vertex -1.6756 -0.1000 2.7480
        vertex -1.5588 -0.1000 2.8688
        vertex -7.6000 -0.1000 4.4000
    endloop
endfacet
facet normal 0.0000 -0.2685 0.0000
    outer loop
        vertex -0.1596 -0.1000 1.2300
        vertex 0.2420 -0.1000 2.2888
        vertex 0.2876 -0.1000 2.5160
    endloop
endfacet
facet normal 0.0000 -4.2428 0.0000
    outer loop
        vertex 0.2876 -0.1000 2.5160
        vertex -0.1596 -0.1000 2.7480
        vertex -0.1596 -0.1000 1.2300
    endloop
endfacet
facet normal 0.0000 -8.1491 0.0000
    outer loop
        vertex -0.2252 -0.1000 0.9696
        vertex 0.2420 -0.1000 -0.5020
        vertex 0.2420 -0.1000 2.2888
    endloop
endfacet
facet normal 0.0000 -0.2195 0.0000
    outer loop
        vertex 0.2420 -0.1000 2.2888
        vertex -0.1596 -0.1000 1.2300
        vertex -0.2252 -0.1000 0.9696
    endloop
endfacet
facet normal 0.0000 -4.9694 0.0000
    outer loop
        vertex -0.5792 -0.1000 0.3828
        vertex 0.2420 -0.1000 -0.5020
        vertex -0.2252 -0.1000 0.9696
    endloop
endfacet
facet normal 0.0000 -0.1904 0.0000
    outer loop
        vertex -0.2252 -0.1000 0.9696
        vertex -0.5136 -0.1000 0.5776
        vertex -0.5792 -0.1000 0.3828
    endloop
endfacet
facet normal 0.0000 -17.3171 0.0000
    outer loop
        vertex -0.5792 -0.1000 -2.9912
        vertex 0.2420 -0.1000 -0.5020
        vertex -0.5792 -0.1000 0.3828
    endloop
endfacet
facet normal 0.0000 -4.9202 0.0000
    outer loop
        vertex 0.5888 -0.1000 -2.9572
        vertex 0.5888 -0.1000 -0.6872
        vertex 0.2420 -0.1000 -0.5020
    endloop
endfacet
facet normal 0.0000 -17.9967 0.0000
    outer loop
        vertex 0.2420 -0.1000 -0.5020
        vertex -0.5792 -0.1000 -2.9912
        vertex 0.5888 -0.1000 -2.9572
    endloop
endfacet
facet normal 0.0000 -8.6895 0.0000
    outer loop
        vertex 1.2376 -0.1000 2.7012
        vertex 1.3624 -0.1000 2.5160
        vertex 7.6000 -0.1000 4.4000
    endloop
endfacet
facet normal 0.0000 -9.3943 0.0000
    outer loop
        vertex 1.3624 -0.1000 2.5160
        vertex 1.4080 -0.1000 2.2888
        vertex 7.6000 -0.1000 4.4000
    endloop
endfacet
facet normal 0.0000 -1.3496 0.0000
    outer loop
        vertex 1.4052 -0.1000 -0.6872
        vertex 1.4080 -0.1000 -0.5020
        vertex 0.2420 -0.1000 -0.5020
    endloop
endfacet
facet normal 0.0000 -0.9450 0.0000
    outer loop
        vertex 0.2420 -0.1000 -0.5020
        vertex 0.5888 -0.1000 -0.6872
        vertex 1.4052 -0.1000 -0.6872
    endloop
endfacet
facet normal 0.0000 -340.5600 0.0000
    outer loop
        vertex 7.6000 -0.1000 -4.4000
        vertex 7.6000 -0.1000 4.4000
        vertex 1.4080 -0.1000 2.2888
    endloop
endfacet
facet normal 0.0000 -108.0040 0.0000
    outer loop
        vertex 1.4080 -0.1000 2.2888
        vertex 1.4080 -0.1000 -0.5020
        vertex 7.6000 -0.1000 -4.4000
    endloop
endfacet
facet normal 0.0000 -95.0845 0.0000
    outer loop
        vertex 1.4052 -0.1000 -2.9572
        vertex 7.6000 -0.1000 -4.4000
        vertex 1.4080 -0.1000 -0.5020
    endloop
endfacet
facet normal 0.0000 -0.0397 0.0000
    outer loop
        vertex 1.4080 -0.1000 -0.5020
        vertex 1.4052 -0.1000 -0.6872
        vertex 1.4052 -0.1000 -2.9572
    endloop
endfacet
facet normal 0.0000 -5.5300 0.0000
    outer loop
        vertex 1.3776 -0.1000 -3.0936
        vertex 7.6000 -0.1000 -4.4000
        vertex 1.4052 -0.1000 -2.9572
    endloop
endfacet
facet normal 0.0000 -4.9353 0.0000
    outer loop
        vertex 1.3028 -0.1000 -3.2048
        vertex 7.6000 -0.1000 -4.4000
        vertex 1.3776 -0.1000 -3.0936
    endloop
endfacet
facet normal 0.0000 -14.4126 0.0000
    outer loop
        vertex 0.2420 -0.1000 -0.5020
        vertex 1.4080 -0.1000 2.2888
        vertex 0.8252 -0.1000 2.8716
    endloop
endfacet
facet normal 0.0000 -10.1725 0.0000
    outer loop
        vertex 0.8252 -0.1000 2.8716
        vertex 0.2420 -0.1000 2.2888
        vertex 0.2420 -0.1000 -0.5020
    endloop
endfacet
facet normal 0.0000 -1.7859 0.0000
    outer loop
        vertex 1.0552 -0.1000 -3.3072
        vertex 1.4052 -0.1000 -2.9572
        vertex 0.5888 -0.1000 -2.9572
    endloop
endfacet
facet normal 0.0000 -0.2546 0.0000
    outer loop
        vertex 0.5888 -0.1000 -2.9572
        vertex 0.9388 -0.1000 -3.3072
        vertex 1.0552 -0.1000 -3.3072
    endloop
endfacet
facet normal 0.0000 -0.8956 0.0000
    outer loop
        vertex -1.2556 -0.1000 1.7800
        vertex -1.6756 -0.1000 1.2300
        vertex -1.6136 -0.1000 0.9700
    endloop
endfacet
facet normal 0.0000 -1.1806 0.0000
    outer loop
        vertex -1.6136 -0.1000 0.9700
        vertex -1.0224 -0.1000 1.7800
        vertex -1.2556 -0.1000 1.7800
    endloop
endfacet
facet normal 0.0000 -20.3380 0.0000
    outer loop
        vertex 0.2420 -0.1000 -0.5020
        vertex 1.4080 -0.1000 -0.5020
        vertex 1.4080 -0.1000 2.2888
    endloop
endfacet
facet normal 0.0000 -0.6615 0.0000
    outer loop
        vertex 0.8252 -0.1000 2.8716
        vertex 1.4080 -0.1000 2.2888
        vertex 1.3624 -0.1000 2.5160
    endloop
endfacet
facet normal 0.0000 -0.3444 0.0000
    outer loop
        vertex 1.3624 -0.1000 2.5160
        vertex 1.2376 -0.1000 2.7012
        vertex 0.8252 -0.1000 2.8716
    endloop
endfacet
facet normal 0.0000 -0.1244 0.0000
    outer loop
        vertex 1.2376 -0.1000 2.7012
        vertex 1.0524 -0.1000 2.8260
        vertex 0.8252 -0.1000 2.8716
    endloop
endfacet
facet normal 0.0000 -0.6628 0.0000
    outer loop
        vertex 0.2420 -0.1000 2.2888
        vertex 0.8252 -0.1000 2.8716
        vertex 0.5976 -0.1000 2.8260
    endloop
endfacet
facet normal 0.0000 -0.3444 0.0000
    outer loop
        vertex 0.5976 -0.1000 2.8260
        vertex 0.4124 -0.1000 2.7012
        vertex 0.2420 -0.1000 2.2888
    endloop
endfacet
facet normal 0.0000 -0.1244 0.0000
    outer loop
        vertex 0.2876 -0.1000 2.5160
        vertex 0.2420 -0.1000 2.2888
        vertex 0.4124 -0.1000 2.7012
    endloop
endfacet
facet normal 0.0000 -11.5827 0.0000
    outer loop
        vertex 1.4052 -0.1000 -2.9572
        vertex 1.4052 -0.1000 -0.6872
        vertex 0.5888 -0.1000 -0.6872
    endloop
endfacet
facet normal 0.0000 -11.5827 0.0000
    outer loop
        vertex 0.5888 -0.1000 -0.6872
        vertex 0.5888 -0.1000 -2.9572
        vertex 1.4052 -0.1000 -2.9572
    endloop
endfacet
facet normal 0.0000 -0.2380 0.0000
    outer loop
        vertex 0.9388 -0.1000 -3.3072
        vertex 0.5888 -0.1000 -2.9572
        vertex 0.6164 -0.1000 -3.0936
    endloop
endfacet
facet normal 0.0000 -0.1242 0.0000
    outer loop
        vertex 0.6164 -0.1000 -3.0936
        vertex 0.6912 -0.1000 -3.2048
        vertex 0.9388 -0.1000 -3.3072
    endloop
endfacet
facet normal 0.0000 -0.0446 0.0000
    outer loop
        vertex 0.8024 -0.1000 -3.2796
        vertex 0.9388 -0.1000 -3.3072
        vertex 0.6912 -0.1000 -3.2048
    endloop
endfacet
facet normal 0.0000 -0.2380 0.0000
    outer loop
        vertex 1.4052 -0.1000 -2.9572
        vertex 1.0552 -0.1000 -3.3072
        vertex 1.1916 -0.1000 -3.2796
    endloop
endfacet
facet normal 0.0000 -0.1242 0.0000
    outer loop
        vertex 1.1916 -0.1000 -3.2796
        vertex 1.3028 -0.1000 -3.2048
        vertex 1.4052 -0.1000 -2.9572
    endloop
endfacet
facet normal 0.0000 -0.0446 0.0000
    outer loop
        vertex 1.3028 -0.1000 -3.2048
        vertex 1.3776 -0.1000 -3.0936
        vertex 1.4052 -0.1000 -2.9572
    endloop
endfacet
facet normal 0.0000 -14.7528 0.0000
    outer loop
        vertex -0.5792 -0.1000 -2.9912
        vertex -0.5792 -0.1000 0.3828
        vertex -1.2788 -0.1000 0.3828
    endloop
endfacet
facet normal 0.0000 -14.7528 0.0000
    outer loop
        vertex -1.2788 -0.1000 0.3828
        vertex -1.2788 -0.1000 -2.9912
        vertex -0.5792 -0.1000 -2.9912
    endloop
endfacet
facet normal 0.0000 -0.0422 0.0000
    outer loop
        vertex -1.2788 -0.1000 -2.9912
        vertex -1.2532 -0.1000 -3.1228
        vertex -1.1816 -0.1000 -3.2272
    endloop
endfacet
facet normal 0.0000 -0.1166 0.0000
    outer loop
        vertex -1.1816 -0.1000 -3.2272
        vertex -1.0744 -0.1000 -3.2956
        vertex -1.2788 -0.1000 -2.9912
    endloop
endfacet
facet normal 0.0000 -0.1249 0.0000
    outer loop
        vertex -0.6076 -0.1000 -3.1228
        vertex -0.5792 -0.1000 -2.9912
        vertex -0.7968 -0.1000 -3.2956
    endloop
endfacet
facet normal 0.0000 -0.0405 0.0000
    outer loop
        vertex -0.7968 -0.1000 -3.2956
        vertex -0.6844 -0.1000 -3.2272
        vertex -0.6076 -0.1000 -3.1228
    endloop
endfacet
facet normal 0.0000 -1.7525 0.0000
    outer loop
        vertex -0.6028 -0.1000 1.7800
        vertex -0.8360 -0.1000 1.7800
        vertex -0.5136 -0.1000 0.5776
    endloop
endfacet
facet normal 0.0000 -2.3859 0.0000
    outer loop
        vertex -0.5136 -0.1000 0.5776
        vertex -0.2252 -0.1000 0.9696
        vertex -0.6028 -0.1000 1.7800
    endloop
endfacet
facet normal 0.0000 -0.3457 0.0000
    outer loop
        vertex -1.0744 -0.1000 -3.2956
        vertex -0.9324 -0.1000 -3.3200
        vertex -0.5792 -0.1000 -2.9912
    endloop
endfacet
facet normal 0.0000 -1.3310 0.0000
    outer loop
        vertex -0.5792 -0.1000 -2.9912
        vertex -1.2788 -0.1000 -2.9912
        vertex -1.0744 -0.1000 -3.2956
    endloop
endfacet
facet normal 0.0000 -1.0636 0.0000
    outer loop
        vertex -0.3928 -0.1000 1.7800
        vertex -0.6028 -0.1000 1.7800
        vertex -0.2252 -0.1000 0.9696
    endloop
endfacet
facet normal 0.0000 -0.6050 0.0000
    outer loop
        vertex -0.2252 -0.1000 0.9696
        vertex -0.1596 -0.1000 1.2300
        vertex -0.3928 -0.1000 1.7800
    endloop
endfacet
facet normal 0.0000 -0.8518 0.0000
    outer loop
        vertex -1.2788 -0.1000 0.3828
        vertex -0.5792 -0.1000 0.3828
        vertex -0.5136 -0.1000 0.5776
    endloop
endfacet
facet normal 0.0000 -1.0014 0.0000
    outer loop
        vertex -0.5136 -0.1000 0.5776
        vertex -1.3408 -0.1000 0.5764
        vertex -1.2788 -0.1000 0.3828
    endloop
endfacet
facet normal 0.0000 -0.8803 0.0000
    outer loop
        vertex -0.3928 -0.1000 1.7800
        vertex -0.1596 -0.1000 2.7480
        vertex -0.2760 -0.1000 2.8688
    endloop
endfacet
facet normal 0.0000 -0.7066 0.0000
    outer loop
        vertex -0.2760 -0.1000 2.8688
        vertex -0.3928 -0.1000 2.7480
        vertex -0.3928 -0.1000 1.7800
    endloop
endfacet
facet normal 0.0000 -0.8827 0.0000
    outer loop
        vertex -0.7192 -0.1000 2.8688
        vertex -0.8360 -0.1000 2.7480
        vertex -0.6028 -0.1000 1.7800
    endloop
endfacet
facet normal 0.0000 -0.7042 0.0000
    outer loop
        vertex -0.6028 -0.1000 1.7800
        vertex -0.6028 -0.1000 2.7480
        vertex -0.7192 -0.1000 2.8688
    endloop
endfacet
facet normal 0.0000 -2.2125 0.0000
    outer loop
        vertex -0.3928 -0.1000 1.7800
        vertex -0.1596 -0.1000 1.2300
        vertex -0.1596 -0.1000 2.7480
    endloop
endfacet
facet normal 0.0000 -1.4109 0.0000
    outer loop
        vertex -0.8360 -0.1000 1.7800
        vertex -0.6028 -0.1000 1.7800
        vertex -0.8360 -0.1000 2.7480
    endloop
endfacet
facet normal 0.0000 -0.2248 0.0000
    outer loop
        vertex -0.9324 -0.1000 -3.3200
        vertex -0.7968 -0.1000 -3.2956
        vertex -0.5792 -0.1000 -2.9912
    endloop
endfacet
facet normal 0.0000 -2.2125 0.0000
    outer loop
        vertex -1.4424 -0.1000 2.7480
        vertex -1.6756 -0.1000 2.7480
        vertex -1.6756 -0.1000 1.2300
    endloop
endfacet
facet normal 0.0000 -1.4109 0.0000
    outer loop
        vertex -1.6756 -0.1000 1.2300
        vertex -1.4424 -0.1000 1.7800
        vertex -1.4424 -0.1000 2.7480
    endloop
endfacet
facet normal 0.0000 -0.8803 0.0000
    outer loop
        vertex -1.1392 -0.1000 2.8688
        vertex -1.2556 -0.1000 2.7480
        vertex -1.0224 -0.1000 1.7800
    endloop
endfacet
facet normal 0.0000 -0.7066 0.0000
    outer loop
        vertex -1.0224 -0.1000 1.7800
        vertex -1.0224 -0.1000 2.7480
        vertex -1.1392 -0.1000 2.8688
    endloop
endfacet
facet normal 0.0000 -6.2202 0.0000
    outer loop
        vertex -1.0224 -0.1000 1.7800
        vertex -1.3408 -0.1000 0.5764
        vertex -0.5136 -0.1000 0.5776
    endloop
endfacet
facet normal 0.0000 -1.4008 0.0000
    outer loop
        vertex -0.5136 -0.1000 0.5776
        vertex -0.8360 -0.1000 1.7800
        vertex -1.0224 -0.1000 1.7800
    endloop
endfacet
facet normal 0.0000 -0.1761 0.0000
    outer loop
        vertex -1.6756 -0.1000 2.7480
        vertex -1.4424 -0.1000 2.7480
        vertex -1.5588 -0.1000 2.8688
    endloop
endfacet
facet normal 0.0000 -1.4109 0.0000
    outer loop
        vertex -1.2556 -0.1000 1.7800
        vertex -1.0224 -0.1000 1.7800
        vertex -1.2556 -0.1000 2.7480
    endloop
endfacet
facet normal 0.0000 -0.6421 0.0000
    outer loop
        vertex -1.4424 -0.1000 1.7800
        vertex -1.6756 -0.1000 1.2300
        vertex -1.2556 -0.1000 1.7800
    endloop
endfacet
facet normal 0.0000 -2.8354 0.0000
    outer loop
        vertex -1.6136 -0.1000 0.9700
        vertex -1.3408 -0.1000 0.5764
        vertex -1.0224 -0.1000 1.7800
    endloop
endfacet
facet normal 0.0000 -3.5296 0.0000
    outer loop
        vertex -7.6000 -0.1000 -4.4000
        vertex -1.0744 -0.1000 -3.2956
        vertex -1.1816 -0.1000 -3.2272
    endloop
endfacet
facet normal 0.0000 -1.9753 0.0000
    outer loop
        vertex -7.6000 -0.1000 -4.4000
        vertex -0.9324 -0.1000 -3.3200
        vertex -1.0744 -0.1000 -3.2956
    endloop
endfacet
facet normal 0.0000 -0.8391 0.0000
    outer loop
        vertex 0.8024 -0.1000 -3.2796
        vertex 0.6912 -0.1000 -3.2048
        vertex -0.9324 -0.1000 -3.3200
    endloop
endfacet
facet normal 0.0000 -10.0263 0.0000
    outer loop
        vertex -0.9324 -0.1000 -3.3200
        vertex -7.6000 -0.1000 -4.4000
        vertex 0.8024 -0.1000 -3.2796
    endloop
endfacet
facet normal 0.0000 -0.1500 0.0000
    outer loop
        vertex -0.7968 -0.1000 -3.2956
        vertex -0.9324 -0.1000 -3.3200
        vertex 0.6912 -0.1000 -3.2048
    endloop
endfacet
facet normal 0.0000 -0.5723 0.0000
    outer loop
        vertex -0.6844 -0.1000 -3.2272
        vertex -0.7968 -0.1000 -3.2956
        vertex 0.6912 -0.1000 -3.2048
    endloop
endfacet
facet normal 0.0000 -0.7846 0.0000
    outer loop
        vertex 0.6164 -0.1000 -3.0936
        vertex -0.6076 -0.1000 -3.1228
        vertex -0.6844 -0.1000 -3.2272
    endloop
endfacet
facet normal 0.0000 -0.9665 0.0000
    outer loop
        vertex -0.6844 -0.1000 -3.2272
        vertex 0.6912 -0.1000 -3.2048
        vertex 0.6164 -0.1000 -3.0936
    endloop
endfacet
facet normal 0.0000 -103.8160 0.0000
    outer loop
        vertex 0.9388 -0.1000 -3.3072
        vertex -7.6000 -0.1000 -4.4000
        vertex 7.6000 -0.1000 -4.4000
    endloop
endfacet
facet normal 0.0000 -0.7950 0.0000
    outer loop
        vertex 7.6000 -0.1000 -4.4000
        vertex 1.0552 -0.1000 -3.3072
        vertex 0.9388 -0.1000 -3.3072
    endloop
endfacet
facet normal 0.0000 -2.0606 0.0000
    outer loop
        vertex 1.0552 -0.1000 -3.3072
        vertex 7.6000 -0.1000 -4.4000
        vertex 1.1916 -0.1000 -3.2796
    endloop
endfacet
facet normal 0.0000 -4.0156 0.0000
    outer loop
        vertex -1.5588 -0.1000 2.8688
        vertex -1.1392 -0.1000 2.8688
        vertex -7.6000 -0.1000 4.4000
    endloop
endfacet
facet normal 0.0000 -4.0194 0.0000
    outer loop
        vertex -1.1392 -0.1000 2.8688
        vertex -0.7192 -0.1000 2.8688
        vertex -7.6000 -0.1000 4.4000
    endloop
endfacet
facet normal 0.0000 -4.2414 0.0000
    outer loop
        vertex -0.7192 -0.1000 2.8688
        vertex -0.2760 -0.1000 2.8688
        vertex -7.6000 -0.1000 4.4000
    endloop
endfacet
facet normal 0.0000 -10.6667 0.0000
    outer loop
        vertex 0.8252 -0.1000 2.8716
        vertex -7.6000 -0.1000 4.4000
        vertex -0.2760 -0.1000 2.8688
    endloop
endfacet
facet normal 0.0000 -0.3099 0.0000
    outer loop
        vertex -0.2760 -0.1000 2.8688
        vertex 0.5976 -0.1000 2.8260
        vertex 0.8252 -0.1000 2.8716
    endloop
endfacet
facet normal 0.0000 -0.5003 0.0000
    outer loop
        vertex -0.1596 -0.1000 2.7480
        vertex 0.4124 -0.1000 2.7012
        vertex 0.5976 -0.1000 2.8260
    endloop
endfacet
facet normal 0.0000 -0.6284 0.0000
    outer loop
        vertex 0.5976 -0.1000 2.8260
        vertex -0.2760 -0.1000 2.8688
        vertex -0.1596 -0.1000 2.7480
    endloop
endfacet
facet normal 0.0000 -0.6986 0.0000
    outer loop
        vertex 0.2876 -0.1000 2.5160
        vertex 0.4124 -0.1000 2.7012
        vertex -0.1596 -0.1000 2.7480
    endloop
endfacet
facet normal 0.0000 -145.1980 0.0000
    outer loop
        vertex -7.6000 -0.1000 4.4000
        vertex 0.8252 -0.1000 2.8716
        vertex 7.6000 -0.1000 4.4000
    endloop
endfacet
facet normal 0.0000 -4.1011 0.0000
    outer loop
        vertex 0.8252 -0.1000 2.8716
        vertex 1.0524 -0.1000 2.8260
        vertex 7.6000 -0.1000 4.4000
    endloop
endfacet
facet normal 0.0000 -6.9290 0.0000
    outer loop
        vertex 1.0524 -0.1000 2.8260
        vertex 1.2376 -0.1000 2.7012
        vertex 7.6000 -0.1000 4.4000
    endloop
endfacet
facet normal 0.0000 -2.4046 0.0000
    outer loop
        vertex -7.6000 -0.1000 -4.4000
        vertex 0.9388 -0.1000 -3.3072
        vertex 0.8024 -0.1000 -3.2796
    endloop
endfacet
endsolid GiantLegoRocks
