solid GiantLegoRocks
facet normal 0.0000 72.0000 0.0000
    outer loop
        vertex -1.6000 0.0000 5.6000
        vertex 0.0000 0.0000 3.6000
        vertex 0.0000 0.0000 -3.6000
    endloop
endfacet
facet normal 0.0000 112.0000 0.0000
    outer loop
        vertex 0.0000 0.0000 -3.6000
        vertex -1.6000 0.0000 -5.6000
        vertex -1.6000 0.0000 5.6000
    endloop
endfacet
facet normal 0.0000 112.0000 0.0000
    outer loop
        vertex -3.2000 0.0000 5.6000
        vertex -1.6000 0.0000 5.6000
        vertex -1.6000 0.0000 -5.6000
    endloop
endfacet
facet normal 0.0000 112.0000 0.0000
    outer loop
        vertex -1.6000 0.0000 -5.6000
        vertex -3.2000 0.0000 -5.6000
        vertex -3.2000 0.0000 5.6000
    endloop
endfacet
facet normal 0.0000 1260.0000 0.0000
    outer loop
        vertex -21.2000 0.0000 0.0000
        vertex -3.2000 0.0000 5.6000
        vertex -3.2000 0.0000 -5.6000
    endloop
endfacet
facet normal 0.0000 72.0000 0.0000
    outer loop
        vertex 0.0000 0.0000 -3.6000
        vertex 0.0000 0.0000 3.6000
        vertex 1.6000 0.0000 5.6000
    endloop
endfacet
facet normal 0.0000 112.0000 0.0000
    outer loop
        vertex 1.6000 0.0000 5.6000
        vertex 1.6000 0.0000 -5.6000
        vertex 0.0000 0.0000 -3.6000
    endloop
endfacet
facet normal 0.0000 112.0000 0.0000
    outer loop
        vertex 1.6000 0.0000 -5.6000
        vertex 1.6000 0.0000 5.6000
        vertex 3.2000 0.0000 5.6000
    endloop
endfacet
facet normal 0.0000 112.0000 0.0000
    outer loop
        vertex 3.2000 0.0000 5.6000
        vertex 3.2000 0.0000 -5.6000
        vertex 1.6000 0.0000 -5.6000
    endloop
endfacet
facet normal 0.0000 1260.0000 0.0000
    outer loop
        vertex 3.2000 0.0000 -5.6000
        vertex 3.2000 0.0000 5.6000
        vertex 21.2000 0.0000 0.0000
    endloop
endfacet
facet normal 0.0000 -72.0000 0.0000
    outer loop
        vertex 0.0000 -0.1000 -3.6000
        vertex 0.0000 -0.1000 3.6000
        vertex -1.6000 -0.1000 5.6000
    endloop
endfacet
facet normal 0.0000 -112.0000 0.0000
    outer loop
        vertex -1.6000 -0.1000 5.6000
        vertex -1.6000 -0.1000 -5.6000
        vertex 0.0000 -0.1000 -3.6000
    endloop
endfacet
facet normal 0.0000 -112.0000 0.0000
    outer loop
        vertex -1.6000 -0.1000 -5.6000
        vertex -1.6000 -0.1000 5.6000
        vertex -3.2000 -0.1000 5.6000
    endloop
endfacet
facet normal 0.0000 -112.0000 0.0000
    outer loop
        vertex -3.2000 -0.1000 5.6000
        vertex -3.2000 -0.1000 -5.6000
        vertex -1.6000 -0.1000 -5.6000
    endloop
endfacet
facet normal 0.0000 -1260.0000 0.0000
    outer loop
        vertex -3.2000 -0.1000 5.6000
        vertex -21.2000 -0.1000 0.0000
        vertex -3.2000 -0.1000 -5.6000
    endloop
endfacet
facet normal 0.0000 -72.0000 0.0000
    outer loop
        vertex 1.6000 -0.1000 5.6000
        vertex 0.0000 -0.1000 3.6000
        vertex 0.0000 -0.1000 -3.6000
    endloop
endfacet
facet normal 0.0000 -112.0000 0.0000
    outer loop
        vertex 0.0000 -0.1000 -3.6000
        vertex 1.6000 -0.1000 -5.6000
        vertex 1.6000 -0.1000 5.6000
    endloop
endfacet
facet normal 0.0000 -112.0000 0.0000
    outer loop
        vertex 3.2000 -0.1000 5.6000
        vertex 1.6000 -0.1000 5.6000
        vertex 1.6000 -0.1000 -5.6000
    endloop
endfacet
facet normal 0.0000 -112.0000 0.0000
    outer loop
        vertex 1.6000 -0.1000 -5.6000
        vertex 3.2000 -0.1000 -5.6000
        vertex 3.2000 -0.1000 5.6000
    endloop
endfacet
facet normal 0.0000 -1260.0000 0.0000
    outer loop
        vertex 3.2000 -0.1000 5.6000
        vertex 3.2000 -0.1000 -5.6000
        vertex 21.2000 -0.1000 0.0000
    endloop
endfacet
facet normal -3.5000 0.0000 11.2500
    outer loop
        vertex -21.2000 0.0000 0.0000
        vertex -21.2000 -0.1000 0.0000
        vertex -3.2000 -0.1000 5.6000
    endloop
endfacet
facet normal -3.5000 0.0000 11.2500
    outer loop
        vertex -3.2000 -0.1000 5.6000
        vertex -3.2000 0.0000 5.6000
        vertex -21.2000 0.0000 0.0000
    endloop
endfacet
facet normal -3.5000 0.0000 -11.2500
    outer loop
        vertex -3.2000 0.0000 -5.6000
        vertex -3.2000 -0.1000 -5.6000
        vertex -21.2000 -0.1000 0.0000
    endloop
endfacet
facet normal -3.5000 0.0000 -11.2500
    outer loop
        vertex -21.2000 -0.1000 0.0000
        vertex -21.2000 0.0000 0.0000
        vertex -3.2000 0.0000 -5.6000
    endloop
endfacet
facet normal -1.2500 0.0000 -1.0000
    outer loop
        vertex 1.6000 0.0000 -5.6000
        vertex 1.6000 -0.1000 -5.6000
        vertex 0.0000 -0.1000 -3.6000
    endloop
endfacet
facet normal -1.2500 0.0000 -1.0000
    outer loop
        vertex 0.0000 -0.1000 -3.6000
        vertex 0.0000 0.0000 -3.6000
        vertex 1.6000 0.0000 -5.6000
    endloop
endfacet
facet normal 0.0000 0.0000 -1.0000
    outer loop
        vertex 3.2000 0.0000 -5.6000
        vertex 3.2000 -0.1000 -5.6000
        vertex 1.6000 -0.1000 -5.6000
    endloop
endfacet
facet normal 0.0000 0.0000 -1.0000
    outer loop
        vertex 1.6000 -0.1000 -5.6000
        vertex 1.6000 0.0000 -5.6000
        vertex 3.2000 0.0000 -5.6000
    endloop
endfacet
facet normal 1.2500 0.0000 -1.0000
    outer loop
        vertex 0.0000 0.0000 -3.6000
        vertex 0.0000 -0.1000 -3.6000
        vertex -1.6000 -0.1000 -5.6000
    endloop
endfacet
facet normal 1.2500 0.0000 -1.0000
    outer loop
        vertex -1.6000 -0.1000 -5.6000
        vertex -1.6000 0.0000 -5.6000
        vertex 0.0000 0.0000 -3.6000
    endloop
endfacet
facet normal 0.0000 0.0000 -1.0000
    outer loop
        vertex -1.6000 0.0000 -5.6000
        vertex -1.6000 -0.1000 -5.6000
        vertex -3.2000 -0.1000 -5.6000
    endloop
endfacet
facet normal 0.0000 0.0000 -1.0000
    outer loop
        vertex -3.2000 -0.1000 -5.6000
        vertex -3.2000 0.0000 -5.6000
        vertex -1.6000 0.0000 -5.6000
    endloop
endfacet
facet normal 3.5000 0.0000 11.2500
    outer loop
        vertex 3.2000 0.0000 5.6000
        vertex 3.2000 -0.1000 5.6000
        vertex 21.2000 -0.1000 0.0000
    endloop
endfacet
facet normal 3.5000 0.0000 11.2500
    outer loop
        vertex 21.2000 -0.1000 0.0000
        vertex 21.2000 0.0000 0.0000
        vertex 3.2000 0.0000 5.6000
    endloop
endfacet
facet normal 3.5000 0.0000 -11.2500
    outer loop
        vertex 21.2000 0.0000 0.0000
        vertex 21.2000 -0.1000 0.0000
        vertex 3.2000 -0.1000 -5.6000
    endloop
endfacet
facet normal 3.5000 0.0000 -11.2500
    outer loop
        vertex 3.2000 -0.1000 -5.6000
        vertex 3.2000 0.0000 -5.6000
        vertex 21.2000 0.0000 0.0000
    endloop
endfacet
facet normal 1.2500 0.0000 1.0000
    outer loop
        vertex -1.6000 0.0000 5.6000
        vertex -1.6000 -0.1000 5.6000
        vertex 0.0000 -0.1000 3.6000
    endloop
endfacet
facet normal 1.2500 0.0000 1.0000
    outer loop
        vertex 0.0000 -0.1000 3.6000
        vertex 0.0000 0.0000 3.6000
        vertex -1.6000 0.0000 5.6000
    endloop
endfacet
facet normal 0.0000 0.0000 1.0000
    outer loop
        vertex -3.2000 0.0000 5.6000
        vertex -3.2000 -0.1000 5.6000
        vertex -1.6000 -0.1000 5.6000
    endloop
endfacet
facet normal 0.0000 0.0000 1.0000
    outer loop
        vertex -1.6000 -0.1000 5.6000
        vertex -1.6000 0.0000 5.6000
        vertex -3.2000 0.0000 5.6000
    endloop
endfacet
facet normal -1.2500 0.0000 1.0000
    outer loop
        vertex 0.0000 0.0000 3.6000
        vertex 0.0000 -0.1000 3.6000
        vertex 1.6000 -0.1000 5.6000
    endloop
endfacet
facet normal -1.2500 0.0000 1.0000
    outer loop
        vertex 1.6000 -0.1000 5.6000
        vertex 1.6000 0.0000 5.6000
        vertex 0.0000 0.0000 3.6000
    endloop
endfacet
facet normal 0.0000 0.0000 1.0000
    outer loop
        vertex 1.6000 0.0000 5.6000
        vertex 1.6000 -0.1000 5.6000
        vertex 3.2000 -0.1000 5.6000
    endloop
endfacet
facet normal 0.0000 0.0000 1.0000
    outer loop
        vertex 3.2000 -0.1000 5.6000
        vertex 3.2000 0.0000 5.6000
        vertex 1.6000 0.0000 5.6000
    endloop
endfacet
endsolid GiantLegoRocks
