solid GiantLegoRocks
facet normal 0.6525 0.0000 0.0430
    outer loop
        vertex 1.9828 0.0000 0.2610
        vertex 2.0000 0.0000 0.0000
        vertex 2.0000 0.4000 0.0000
    endloop
endfacet
facet normal 0.6525 0.0000 0.0430
    outer loop
        vertex 2.0000 0.4000 0.0000
        vertex 1.9828 0.4000 0.2610
        vertex 1.9828 0.0000 0.2610
    endloop
endfacet
facet normal 0.6415 0.0000 0.1275
    outer loop
        vertex 1.9318 0.0000 0.5176
        vertex 1.9828 0.0000 0.2610
        vertex 1.9828 0.4000 0.2610
    endloop
endfacet
facet normal 0.6415 0.0000 0.1275
    outer loop
        vertex 1.9828 0.4000 0.2610
        vertex 1.9318 0.4000 0.5176
        vertex 1.9318 0.0000 0.5176
    endloop
endfacet
facet normal 0.6195 0.0000 0.2100
    outer loop
        vertex 1.8478 0.0000 0.7654
        vertex 1.9318 0.0000 0.5176
        vertex 1.9318 0.4000 0.5176
    endloop
endfacet
facet normal 0.6195 0.0000 0.2100
    outer loop
        vertex 1.9318 0.4000 0.5176
        vertex 1.8478 0.4000 0.7654
        vertex 1.8478 0.0000 0.7654
    endloop
endfacet
facet normal 0.5865 0.0000 0.2895
    outer loop
        vertex 1.7320 0.0000 1.0000
        vertex 1.8478 0.0000 0.7654
        vertex 1.8478 0.4000 0.7654
    endloop
endfacet
facet normal 0.5865 0.0000 0.2895
    outer loop
        vertex 1.8478 0.4000 0.7654
        vertex 1.7320 0.4000 1.0000
        vertex 1.7320 0.0000 1.0000
    endloop
endfacet
facet normal 0.5440 0.0000 0.3630
    outer loop
        vertex 1.5868 0.0000 1.2176
        vertex 1.7320 0.0000 1.0000
        vertex 1.7320 0.4000 1.0000
    endloop
endfacet
facet normal 0.5440 0.0000 0.3630
    outer loop
        vertex 1.7320 0.4000 1.0000
        vertex 1.5868 0.4000 1.2176
        vertex 1.5868 0.0000 1.2176
    endloop
endfacet
facet normal 0.4915 0.0000 0.4315
    outer loop
        vertex 1.4142 0.0000 1.4142
        vertex 1.5868 0.0000 1.2176
        vertex 1.5868 0.4000 1.2176
    endloop
endfacet
facet normal 0.4915 0.0000 0.4315
    outer loop
        vertex 1.5868 0.4000 1.2176
        vertex 1.4142 0.4000 1.4142
        vertex 1.4142 0.0000 1.4142
    endloop
endfacet
facet normal 0.4315 0.0000 0.4915
    outer loop
        vertex 1.2176 0.0000 1.5868
        vertex 1.4142 0.0000 1.4142
        vertex 1.4142 0.4000 1.4142
    endloop
endfacet
facet normal 0.4315 0.0000 0.4915
    outer loop
        vertex 1.4142 0.4000 1.4142
        vertex 1.2176 0.4000 1.5868
        vertex 1.2176 0.0000 1.5868
    endloop
endfacet
facet normal 0.3630 0.0000 0.5440
    outer loop
        vertex 1.0000 0.0000 1.7320
        vertex 1.2176 0.0000 1.5868
        vertex 1.2176 0.4000 1.5868
    endloop
endfacet
facet normal 0.3630 0.0000 0.5440
    outer loop
        vertex 1.2176 0.4000 1.5868
        vertex 1.0000 0.4000 1.7320
        vertex 1.0000 0.0000 1.7320
    endloop
endfacet
facet normal 0.2895 0.0000 0.5865
    outer loop
        vertex 0.7654 0.0000 1.8478
        vertex 1.0000 0.0000 1.7320
        vertex 1.0000 0.4000 1.7320
    endloop
endfacet
facet normal 0.2895 0.0000 0.5865
    outer loop
        vertex 1.0000 0.4000 1.7320
        vertex 0.7654 0.4000 1.8478
        vertex 0.7654 0.0000 1.8478
    endloop
endfacet
facet normal 0.2100 0.0000 0.6195
    outer loop
        vertex 0.5176 0.0000 1.9318
        vertex 0.7654 0.0000 1.8478
        vertex 0.7654 0.4000 1.8478
    endloop
endfacet
facet normal 0.2100 0.0000 0.6195
    outer loop
        vertex 0.7654 0.4000 1.8478
        vertex 0.5176 0.4000 1.9318
        vertex 0.5176 0.0000 1.9318
    endloop
endfacet
facet normal 0.1275 0.0000 0.6415
    outer loop
        vertex 0.2610 0.0000 1.9828
        vertex 0.5176 0.0000 1.9318
        vertex 0.5176 0.4000 1.9318
    endloop
endfacet
facet normal 0.1275 0.0000 0.6415
    outer loop
        vertex 0.5176 0.4000 1.9318
        vertex 0.2610 0.4000 1.9828
        vertex 0.2610 0.0000 1.9828
    endloop
endfacet
facet normal 0.0430 0.0000 0.6525
    outer loop
        vertex 0.0000 0.0000 2.0000
        vertex 0.2610 0.0000 1.9828
        vertex 0.2610 0.4000 1.9828
    endloop
endfacet
facet normal 0.0430 0.0000 0.6525
    outer loop
        vertex 0.2610 0.4000 1.9828
        vertex 0.0000 0.4000 2.0000
        vertex 0.0000 0.0000 2.0000
    endloop
endfacet
facet normal -0.0430 0.0000 0.6525
    outer loop
        vertex -0.2610 0.0000 1.9828
        vertex 0.0000 0.0000 2.0000
        vertex 0.0000 0.4000 2.0000
    endloop
endfacet
facet normal -0.0430 0.0000 0.6525
    outer loop
        vertex 0.0000 0.4000 2.0000
        vertex -0.2610 0.4000 1.9828
        vertex -0.2610 0.0000 1.9828
    endloop
endfacet
facet normal -0.1275 0.0000 0.6415
    outer loop
        vertex -0.5176 0.0000 1.9318
        vertex -0.2610 0.0000 1.9828
        vertex -0.2610 0.4000 1.9828
    endloop
endfacet
facet normal -0.1275 0.0000 0.6415
    outer loop
        vertex -0.2610 0.4000 1.9828
        vertex -0.5176 0.4000 1.9318
        vertex -0.5176 0.0000 1.9318
    endloop
endfacet
facet normal -0.2100 0.0000 0.6195
    outer loop
        vertex -0.7654 0.0000 1.8478
        vertex -0.5176 0.0000 1.9318
        vertex -0.5176 0.4000 1.9318
    endloop
endfacet
facet normal -0.2100 0.0000 0.6195
    outer loop
        vertex -0.5176 0.4000 1.9318
        vertex -0.7654 0.4000 1.8478
        vertex -0.7654 0.0000 1.8478
    endloop
endfacet
facet normal -0.2895 0.0000 0.5865
    outer loop
        vertex -1.0000 0.0000 1.7320
        vertex -0.7654 0.0000 1.8478
        vertex -0.7654 0.4000 1.8478
    endloop
endfacet
facet normal -0.2895 0.0000 0.5865
    outer loop
        vertex -0.7654 0.4000 1.8478
        vertex -1.0000 0.4000 1.7320
        vertex -1.0000 0.0000 1.7320
    endloop
endfacet
facet normal -0.3630 0.0000 0.5440
    outer loop
        vertex -1.2176 0.0000 1.5868
        vertex -1.0000 0.0000 1.7320
        vertex -1.0000 0.4000 1.7320
    endloop
endfacet
facet normal -0.3630 0.0000 0.5440
    outer loop
        vertex -1.0000 0.4000 1.7320
        vertex -1.2176 0.4000 1.5868
        vertex -1.2176 0.0000 1.5868
    endloop
endfacet
facet normal -0.4315 0.0000 0.4915
    outer loop
        vertex -1.4142 0.0000 1.4142
        vertex -1.2176 0.0000 1.5868
        vertex -1.2176 0.4000 1.5868
    endloop
endfacet
facet normal -0.4315 0.0000 0.4915
    outer loop
        vertex -1.2176 0.4000 1.5868
        vertex -1.4142 0.4000 1.4142
        vertex -1.4142 0.0000 1.4142
    endloop
endfacet
facet normal -0.4915 0.0000 0.4315
    outer loop
        vertex -1.5868 0.0000 1.2176
        vertex -1.4142 0.0000 1.4142
        vertex -1.4142 0.4000 1.4142
    endloop
endfacet
facet normal -0.4915 0.0000 0.4315
    outer loop
        vertex -1.4142 0.4000 1.4142
        vertex -1.5868 0.4000 1.2176
        vertex -1.5868 0.0000 1.2176
    endloop
endfacet
facet normal -0.5440 0.0000 0.3630
    outer loop
        vertex -1.7320 0.0000 1.0000
        vertex -1.5868 0.0000 1.2176
        vertex -1.5868 0.4000 1.2176
    endloop
endfacet
facet normal -0.5440 0.0000 0.3630
    outer loop
        vertex -1.5868 0.4000 1.2176
        vertex -1.7320 0.4000 1.0000
        vertex -1.7320 0.0000 1.0000
    endloop
endfacet
facet normal -0.5865 0.0000 0.2895
    outer loop
        vertex -1.8478 0.0000 0.7654
        vertex -1.7320 0.0000 1.0000
        vertex -1.7320 0.4000 1.0000
    endloop
endfacet
facet normal -0.5865 0.0000 0.2895
    outer loop
        vertex -1.7320 0.4000 1.0000
        vertex -1.8478 0.4000 0.7654
        vertex -1.8478 0.0000 0.7654
    endloop
endfacet
facet normal -0.6195 0.0000 0.2100
    outer loop
        vertex -1.9318 0.0000 0.5176
        vertex -1.8478 0.0000 0.7654
        vertex -1.8478 0.4000 0.7654
    endloop
endfacet
facet normal -0.6195 0.0000 0.2100
    outer loop
        vertex -1.8478 0.4000 0.7654
        vertex -1.9318 0.4000 0.5176
        vertex -1.9318 0.0000 0.5176
    endloop
endfacet
facet normal -0.6415 0.0000 0.1275
    outer loop
        vertex -1.9828 0.0000 0.2610
        vertex -1.9318 0.0000 0.5176
        vertex -1.9318 0.4000 0.5176
    endloop
endfacet
facet normal -0.6415 0.0000 0.1275
    outer loop
        vertex -1.9318 0.4000 0.5176
        vertex -1.9828 0.4000 0.2610
        vertex -1.9828 0.0000 0.2610
    endloop
endfacet
facet normal -0.6525 0.0000 0.0430
    outer loop
        vertex -2.0000 0.0000 0.0000
        vertex -1.9828 0.0000 0.2610
        vertex -1.9828 0.4000 0.2610
    endloop
endfacet
facet normal -0.6525 0.0000 0.0430
    outer loop
        vertex -1.9828 0.4000 0.2610
        vertex -2.0000 0.4000 0.0000
        vertex -2.0000 0.0000 0.0000
    endloop
endfacet
facet normal -0.6525 0.0000 -0.0430
    outer loop
        vertex -1.9828 0.0000 -0.2610
        vertex -2.0000 0.0000 0.0000
        vertex -2.0000 0.4000 0.0000
    endloop
endfacet
facet normal -0.6525 0.0000 -0.0430
    outer loop
        vertex -2.0000 0.4000 0.0000
        vertex -1.9828 0.4000 -0.2610
        vertex -1.9828 0.0000 -0.2610
    endloop
endfacet
facet normal -0.6415 0.0000 -0.1275
    outer loop
        vertex -1.9318 0.0000 -0.5176
        vertex -1.9828 0.0000 -0.2610
        vertex -1.9828 0.4000 -0.2610
    endloop
endfacet
facet normal -0.6415 0.0000 -0.1275
    outer loop
        vertex -1.9828 0.4000 -0.2610
        vertex -1.9318 0.4000 -0.5176
        vertex -1.9318 0.0000 -0.5176
    endloop
endfacet
facet normal -0.6195 0.0000 -0.2100
    outer loop
        vertex -1.8478 0.0000 -0.7654
        vertex -1.9318 0.0000 -0.5176
        vertex -1.9318 0.4000 -0.5176
    endloop
endfacet
facet normal -0.6195 0.0000 -0.2100
    outer loop
        vertex -1.9318 0.4000 -0.5176
        vertex -1.8478 0.4000 -0.7654
        vertex -1.8478 0.0000 -0.7654
    endloop
endfacet
facet normal -0.5865 0.0000 -0.2895
    outer loop
        vertex -1.7320 0.0000 -1.0000
        vertex -1.8478 0.0000 -0.7654
        vertex -1.8478 0.4000 -0.7654
    endloop
endfacet
facet normal -0.5865 0.0000 -0.2895
    outer loop
        vertex -1.8478 0.4000 -0.7654
        vertex -1.7320 0.4000 -1.0000
        vertex -1.7320 0.0000 -1.0000
    endloop
endfacet
facet normal -0.5440 0.0000 -0.3630
    outer loop
        vertex -1.5868 0.0000 -1.2176
        vertex -1.7320 0.0000 -1.0000
        vertex -1.7320 0.4000 -1.0000
    endloop
endfacet
facet normal -0.5440 0.0000 -0.3630
    outer loop
        vertex -1.7320 0.4000 -1.0000
        vertex -1.5868 0.4000 -1.2176
        vertex -1.5868 0.0000 -1.2176
    endloop
endfacet
facet normal -0.4915 0.0000 -0.4315
    outer loop
        vertex -1.4142 0.0000 -1.4142
        vertex -1.5868 0.0000 -1.2176
        vertex -1.5868 0.4000 -1.2176
    endloop
endfacet
facet normal -0.4915 0.0000 -0.4315
    outer loop
        vertex -1.5868 0.4000 -1.2176
        vertex -1.4142 0.4000 -1.4142
        vertex -1.4142 0.0000 -1.4142
    endloop
endfacet
facet normal -0.4315 0.0000 -0.4915
    outer loop
        vertex -1.2176 0.0000 -1.5868
        vertex -1.4142 0.0000 -1.4142
        vertex -1.4142 0.4000 -1.4142
    endloop
endfacet
facet normal -0.4315 0.0000 -0.4915
    outer loop
        vertex -1.4142 0.4000 -1.4142
        vertex -1.2176 0.4000 -1.5868
        vertex -1.2176 0.0000 -1.5868
    endloop
endfacet
facet normal -0.3630 0.0000 -0.5440
    outer loop
        vertex -1.0000 0.0000 -1.7320
        vertex -1.2176 0.0000 -1.5868
        vertex -1.2176 0.4000 -1.5868
    endloop
endfacet
facet normal -0.3630 0.0000 -0.5440
    outer loop
        vertex -1.2176 0.4000 -1.5868
        vertex -1.0000 0.4000 -1.7320
        vertex -1.0000 0.0000 -1.7320
    endloop
endfacet
facet normal -0.2895 0.0000 -0.5865
    outer loop
        vertex -0.7654 0.0000 -1.8478
        vertex -1.0000 0.0000 -1.7320
        vertex -1.0000 0.4000 -1.7320
    endloop
endfacet
facet normal -0.2895 0.0000 -0.5865
    outer loop
        vertex -1.0000 0.4000 -1.7320
        vertex -0.7654 0.4000 -1.8478
        vertex -0.7654 0.0000 -1.8478
    endloop
endfacet
facet normal -0.2100 0.0000 -0.6195
    outer loop
        vertex -0.5176 0.0000 -1.9318
        vertex -0.7654 0.0000 -1.8478
        vertex -0.7654 0.4000 -1.8478
    endloop
endfacet
facet normal -0.2100 0.0000 -0.6195
    outer loop
        vertex -0.7654 0.4000 -1.8478
        vertex -0.5176 0.4000 -1.9318
        vertex -0.5176 0.0000 -1.9318
    endloop
endfacet
facet normal -0.1275 0.0000 -0.6415
    outer loop
        vertex -0.2610 0.0000 -1.9828
        vertex -0.5176 0.0000 -1.9318
        vertex -0.5176 0.4000 -1.9318
    endloop
endfacet
facet normal -0.1275 0.0000 -0.6415
    outer loop
        vertex -0.5176 0.4000 -1.9318
        vertex -0.2610 0.4000 -1.9828
        vertex -0.2610 0.0000 -1.9828
    endloop
endfacet
facet normal -0.0430 0.0000 -0.6525
    outer loop
        vertex 0.0000 0.0000 -2.0000
        vertex -0.2610 0.0000 -1.9828
        vertex -0.2610 0.4000 -1.9828
    endloop
endfacet
facet normal -0.0430 0.0000 -0.6525
    outer loop
        vertex -0.2610 0.4000 -1.9828
        vertex 0.0000 0.4000 -2.0000
        vertex 0.0000 0.0000 -2.0000
    endloop
endfacet
facet normal 0.0430 0.0000 -0.6525
    outer loop
        vertex 0.2610 0.0000 -1.9828
        vertex 0.0000 0.0000 -2.0000
        vertex 0.0000 0.4000 -2.0000
    endloop
endfacet
facet normal 0.0430 0.0000 -0.6525
    outer loop
        vertex 0.0000 0.4000 -2.0000
        vertex 0.2610 0.4000 -1.9828
        vertex 0.2610 0.0000 -1.9828
    endloop
endfacet
facet normal 0.1275 0.0000 -0.6415
    outer loop
        vertex 0.5176 0.0000 -1.9318
        vertex 0.2610 0.0000 -1.9828
        vertex 0.2610 0.4000 -1.9828
    endloop
endfacet
facet normal 0.1275 0.0000 -0.6415
    outer loop
        vertex 0.2610 0.4000 -1.9828
        vertex 0.5176 0.4000 -1.9318
        vertex 0.5176 0.0000 -1.9318
    endloop
endfacet
facet normal 0.2100 0.0000 -0.6195
    outer loop
        vertex 0.7654 0.0000 -1.8478
        vertex 0.5176 0.0000 -1.9318
        vertex 0.5176 0.4000 -1.9318
    endloop
endfacet
facet normal 0.2100 0.0000 -0.6195
    outer loop
        vertex 0.5176 0.4000 -1.9318
        vertex 0.7654 0.4000 -1.8478
        vertex 0.7654 0.0000 -1.8478
    endloop
endfacet
facet normal 0.2895 0.0000 -0.5865
    outer loop
        vertex 1.0000 0.0000 -1.7320
        vertex 0.7654 0.0000 -1.8478
        vertex 0.7654 0.4000 -1.8478
    endloop
endfacet
facet normal 0.2895 0.0000 -0.5865
    outer loop
        vertex 0.7654 0.4000 -1.8478
        vertex 1.0000 0.4000 -1.7320
        vertex 1.0000 0.0000 -1.7320
    endloop
endfacet
facet normal 0.3630 0.0000 -0.5440
    outer loop
        vertex 1.2176 0.0000 -1.5868
        vertex 1.0000 0.0000 -1.7320
        vertex 1.0000 0.4000 -1.7320
    endloop
endfacet
facet normal 0.3630 0.0000 -0.5440
    outer loop
        vertex 1.0000 0.4000 -1.7320
        vertex 1.2176 0.4000 -1.5868
        vertex 1.2176 0.0000 -1.5868
    endloop
endfacet
facet normal 0.4315 0.0000 -0.4915
    outer loop
        vertex 1.4142 0.0000 -1.4142
        vertex 1.2176 0.0000 -1.5868
        vertex 1.2176 0.4000 -1.5868
    endloop
endfacet
facet normal 0.4315 0.0000 -0.4915
    outer loop
        vertex 1.2176 0.4000 -1.5868
        vertex 1.4142 0.4000 -1.4142
        vertex 1.4142 0.0000 -1.4142
    endloop
endfacet
facet normal 0.4915 0.0000 -0.4315
    outer loop
        vertex 1.5868 0.0000 -1.2176
        vertex 1.4142 0.0000 -1.4142
        vertex 1.4142 0.4000 -1.4142
    endloop
endfacet
facet normal 0.4915 0.0000 -0.4315
    outer loop
        vertex 1.4142 0.4000 -1.4142
        vertex 1.5868 0.4000 -1.2176
        vertex 1.5868 0.0000 -1.2176
    endloop
endfacet
facet normal 0.5440 0.0000 -0.3630
    outer loop
        vertex 1.7320 0.0000 -1.0000
        vertex 1.5868 0.0000 -1.2176
        vertex 1.5868 0.4000 -1.2176
    endloop
endfacet
facet normal 0.5440 0.0000 -0.3630
    outer loop
        vertex 1.5868 0.4000 -1.2176
        vertex 1.7320 0.4000 -1.0000
        vertex 1.7320 0.0000 -1.0000
    endloop
endfacet
facet normal 0.5865 0.0000 -0.2895
    outer loop
        vertex 1.8478 0.0000 -0.7654
        vertex 1.7320 0.0000 -1.0000
        vertex 1.7320 0.4000 -1.0000
    endloop
endfacet
facet normal 0.5865 0.0000 -0.2895
    outer loop
        vertex 1.7320 0.4000 -1.0000
        vertex 1.8478 0.4000 -0.7654
        vertex 1.8478 0.0000 -0.7654
    endloop
endfacet
facet normal 0.6195 0.0000 -0.2100
    outer loop
        vertex 1.9318 0.0000 -0.5176
        vertex 1.8478 0.0000 -0.7654
        vertex 1.8478 0.4000 -0.7654
    endloop
endfacet
facet normal 0.6195 0.0000 -0.2100
    outer loop
        vertex 1.8478 0.4000 -0.7654
        vertex 1.9318 0.4000 -0.5176
        vertex 1.9318 0.0000 -0.5176
    endloop
endfacet
facet normal 0.6415 0.0000 -0.1275
    outer loop
        vertex 1.9828 0.0000 -0.2610
        vertex 1.9318 0.0000 -0.5176
        vertex 1.9318 0.4000 -0.5176
    endloop
endfacet
facet normal 0.6415 0.0000 -0.1275
    outer loop
        vertex 1.9318 0.4000 -0.5176
        vertex 1.9828 0.4000 -0.2610
        vertex 1.9828 0.0000 -0.2610
    endloop
endfacet
facet normal 0.6525 0.0000 -0.0430
    outer loop
        vertex 2.0000 0.0000 0.0000
        vertex 1.9828 0.0000 -0.2610
        vertex 1.9828 0.4000 -0.2610
    endloop
endfacet
facet normal 0.6525 0.0000 -0.0430
    outer loop
        vertex 1.9828 0.4000 -0.2610
        vertex 2.0000 0.4000 0.0000
        vertex 2.0000 0.0000 0.0000
    endloop
endfacet
facet normal -0.3915 0.0000 -0.0258
    outer loop
        vertex 1.1897 0.0000 0.1566
        vertex 1.2000 0.4000 0.0000
        vertex 1.2000 0.0000 0.0000
    endloop
endfacet
facet normal -0.3915 0.0000 -0.0258
    outer loop
        vertex 1.2000 0.4000 0.0000
        vertex 1.1897 0.0000 0.1566
        vertex 1.1897 0.4000 0.1566
    endloop
endfacet
facet normal -0.3849 0.0000 -0.0765
    outer loop
        vertex 1.1591 0.0000 0.3106
        vertex 1.1897 0.4000 0.1566
        vertex 1.1897 0.0000 0.1566
    endloop
endfacet
facet normal -0.3849 0.0000 -0.0765
    outer loop
        vertex 1.1897 0.4000 0.1566
        vertex 1.1591 0.0000 0.3106
        vertex 1.1591 0.4000 0.3106
    endloop
endfacet
facet normal -0.3717 0.0000 -0.1260
    outer loop
        vertex 1.1087 0.0000 0.4592
        vertex 1.1591 0.4000 0.3106
        vertex 1.1591 0.0000 0.3106
    endloop
endfacet
facet normal -0.3717 0.0000 -0.1260
    outer loop
        vertex 1.1591 0.4000 0.3106
        vertex 1.1087 0.0000 0.4592
        vertex 1.1087 0.4000 0.4592
    endloop
endfacet
facet normal -0.3519 0.0000 -0.1737
    outer loop
        vertex 1.0392 0.0000 0.6000
        vertex 1.1087 0.4000 0.4592
        vertex 1.1087 0.0000 0.4592
    endloop
endfacet
facet normal -0.3519 0.0000 -0.1737
    outer loop
        vertex 1.1087 0.4000 0.4592
        vertex 1.0392 0.0000 0.6000
        vertex 1.0392 0.4000 0.6000
    endloop
endfacet
facet normal -0.3264 0.0000 -0.2178
    outer loop
        vertex 0.9521 0.0000 0.7306
        vertex 1.0392 0.4000 0.6000
        vertex 1.0392 0.0000 0.6000
    endloop
endfacet
facet normal -0.3264 0.0000 -0.2178
    outer loop
        vertex 1.0392 0.4000 0.6000
        vertex 0.9521 0.0000 0.7306
        vertex 0.9521 0.4000 0.7306
    endloop
endfacet
facet normal -0.2949 0.0000 -0.2589
    outer loop
        vertex 0.8485 0.0000 0.8485
        vertex 0.9521 0.4000 0.7306
        vertex 0.9521 0.0000 0.7306
    endloop
endfacet
facet normal -0.2949 0.0000 -0.2589
    outer loop
        vertex 0.9521 0.4000 0.7306
        vertex 0.8485 0.0000 0.8485
        vertex 0.8485 0.4000 0.8485
    endloop
endfacet
facet normal -0.2589 0.0000 -0.2949
    outer loop
        vertex 0.7306 0.0000 0.9521
        vertex 0.8485 0.4000 0.8485
        vertex 0.8485 0.0000 0.8485
    endloop
endfacet
facet normal -0.2589 0.0000 -0.2949
    outer loop
        vertex 0.8485 0.4000 0.8485
        vertex 0.7306 0.0000 0.9521
        vertex 0.7306 0.4000 0.9521
    endloop
endfacet
facet normal -0.2178 0.0000 -0.3264
    outer loop
        vertex 0.6000 0.0000 1.0392
        vertex 0.7306 0.4000 0.9521
        vertex 0.7306 0.0000 0.9521
    endloop
endfacet
facet normal -0.2178 0.0000 -0.3264
    outer loop
        vertex 0.7306 0.4000 0.9521
        vertex 0.6000 0.0000 1.0392
        vertex 0.6000 0.4000 1.0392
    endloop
endfacet
facet normal -0.1737 0.0000 -0.3519
    outer loop
        vertex 0.4592 0.0000 1.1087
        vertex 0.6000 0.4000 1.0392
        vertex 0.6000 0.0000 1.0392
    endloop
endfacet
facet normal -0.1737 0.0000 -0.3519
    outer loop
        vertex 0.6000 0.4000 1.0392
        vertex 0.4592 0.0000 1.1087
        vertex 0.4592 0.4000 1.1087
    endloop
endfacet
facet normal -0.1260 0.0000 -0.3717
    outer loop
        vertex 0.3106 0.0000 1.1591
        vertex 0.4592 0.4000 1.1087
        vertex 0.4592 0.0000 1.1087
    endloop
endfacet
facet normal -0.1260 0.0000 -0.3717
    outer loop
        vertex 0.4592 0.4000 1.1087
        vertex 0.3106 0.0000 1.1591
        vertex 0.3106 0.4000 1.1591
    endloop
endfacet
facet normal -0.0765 0.0000 -0.3849
    outer loop
        vertex 0.1566 0.0000 1.1897
        vertex 0.3106 0.4000 1.1591
        vertex 0.3106 0.0000 1.1591
    endloop
endfacet
facet normal -0.0765 0.0000 -0.3849
    outer loop
        vertex 0.3106 0.4000 1.1591
        vertex 0.1566 0.0000 1.1897
        vertex 0.1566 0.4000 1.1897
    endloop
endfacet
facet normal -0.0258 0.0000 -0.3915
    outer loop
        vertex 0.0000 0.0000 1.2000
        vertex 0.1566 0.4000 1.1897
        vertex 0.1566 0.0000 1.1897
    endloop
endfacet
facet normal -0.0258 0.0000 -0.3915
    outer loop
        vertex 0.1566 0.4000 1.1897
        vertex 0.0000 0.0000 1.2000
        vertex 0.0000 0.4000 1.2000
    endloop
endfacet
facet normal 0.0258 0.0000 -0.3915
    outer loop
        vertex -0.1566 0.0000 1.1897
        vertex 0.0000 0.4000 1.2000
        vertex 0.0000 0.0000 1.2000
    endloop
endfacet
facet normal 0.0258 0.0000 -0.3915
    outer loop
        vertex 0.0000 0.4000 1.2000
        vertex -0.1566 0.0000 1.1897
        vertex -0.1566 0.4000 1.1897
    endloop
endfacet
facet normal 0.0765 0.0000 -0.3849
    outer loop
        vertex -0.3106 0.0000 1.1591
        vertex -0.1566 0.4000 1.1897
        vertex -0.1566 0.0000 1.1897
    endloop
endfacet
facet normal 0.0765 0.0000 -0.3849
    outer loop
        vertex -0.1566 0.4000 1.1897
        vertex -0.3106 0.0000 1.1591
        vertex -0.3106 0.4000 1.1591
    endloop
endfacet
facet normal 0.1260 0.0000 -0.3717
    outer loop
        vertex -0.4592 0.0000 1.1087
        vertex -0.3106 0.4000 1.1591
        vertex -0.3106 0.0000 1.1591
    endloop
endfacet
facet normal 0.1260 0.0000 -0.3717
    outer loop
        vertex -0.3106 0.4000 1.1591
        vertex -0.4592 0.0000 1.1087
        vertex -0.4592 0.4000 1.1087
    endloop
endfacet
facet normal 0.1737 0.0000 -0.3519
    outer loop
        vertex -0.6000 0.0000 1.0392
        vertex -0.4592 0.4000 1.1087
        vertex -0.4592 0.0000 1.1087
    endloop
endfacet
facet normal 0.1737 0.0000 -0.3519
    outer loop
        vertex -0.4592 0.4000 1.1087
        vertex -0.6000 0.0000 1.0392
        vertex -0.6000 0.4000 1.0392
    endloop
endfacet
facet normal 0.2178 0.0000 -0.3264
    outer loop
        vertex -0.7306 0.0000 0.9521
        vertex -0.6000 0.4000 1.0392
        vertex -0.6000 0.0000 1.0392
    endloop
endfacet
facet normal 0.2178 0.0000 -0.3264
    outer loop
        vertex -0.6000 0.4000 1.0392
        vertex -0.7306 0.0000 0.9521
        vertex -0.7306 0.4000 0.9521
    endloop
endfacet
facet normal 0.2589 0.0000 -0.2949
    outer loop
        vertex -0.8485 0.0000 0.8485
        vertex -0.7306 0.4000 0.9521
        vertex -0.7306 0.0000 0.9521
    endloop
endfacet
facet normal 0.2589 0.0000 -0.2949
    outer loop
        vertex -0.7306 0.4000 0.9521
        vertex -0.8485 0.0000 0.8485
        vertex -0.8485 0.4000 0.8485
    endloop
endfacet
facet normal 0.2949 0.0000 -0.2589
    outer loop
        vertex -0.9521 0.0000 0.7306
        vertex -0.8485 0.4000 0.8485
        vertex -0.8485 0.0000 0.8485
    endloop
endfacet
facet normal 0.2949 0.0000 -0.2589
    outer loop
        vertex -0.8485 0.4000 0.8485
        vertex -0.9521 0.0000 0.7306
        vertex -0.9521 0.4000 0.7306
    endloop
endfacet
facet normal 0.3264 0.0000 -0.2178
    outer loop
        vertex -1.0392 0.0000 0.6000
        vertex -0.9521 0.4000 0.7306
        vertex -0.9521 0.0000 0.7306
    endloop
endfacet
facet normal 0.3264 0.0000 -0.2178
    outer loop
        vertex -0.9521 0.4000 0.7306
        vertex -1.0392 0.0000 0.6000
        vertex -1.0392 0.4000 0.6000
    endloop
endfacet
facet normal 0.3519 0.0000 -0.1737
    outer loop
        vertex -1.1087 0.0000 0.4592
        vertex -1.0392 0.4000 0.6000
        vertex -1.0392 0.0000 0.6000
    endloop
endfacet
facet normal 0.3519 0.0000 -0.1737
    outer loop
        vertex -1.0392 0.4000 0.6000
        vertex -1.1087 0.0000 0.4592
        vertex -1.1087 0.4000 0.4592
    endloop
endfacet
facet normal 0.3717 0.0000 -0.1260
    outer loop
        vertex -1.1591 0.0000 0.3106
        vertex -1.1087 0.4000 0.4592
        vertex -1.1087 0.0000 0.4592
    endloop
endfacet
facet normal 0.3717 0.0000 -0.1260
    outer loop
        vertex -1.1087 0.4000 0.4592
        vertex -1.1591 0.0000 0.3106
        vertex -1.1591 0.4000 0.3106
    endloop
endfacet
facet normal 0.3849 0.0000 -0.0765
    outer loop
        vertex -1.1897 0.0000 0.1566
        vertex -1.1591 0.4000 0.3106
        vertex -1.1591 0.0000 0.3106
    endloop
endfacet
facet normal 0.3849 0.0000 -0.0765
    outer loop
        vertex -1.1591 0.4000 0.3106
        vertex -1.1897 0.0000 0.1566
        vertex -1.1897 0.4000 0.1566
    endloop
endfacet
facet normal 0.3915 0.0000 -0.0258
    outer loop
        vertex -1.2000 0.0000 0.0000
        vertex -1.1897 0.4000 0.1566
        vertex -1.1897 0.0000 0.1566
    endloop
endfacet
facet normal 0.3915 0.0000 -0.0258
    outer loop
        vertex -1.1897 0.4000 0.1566
        vertex -1.2000 0.0000 0.0000
        vertex -1.2000 0.4000 0.0000
    endloop
endfacet
facet normal 0.3915 0.0000 0.0258
    outer loop
        vertex -1.1897 0.0000 -0.1566
        vertex -1.2000 0.4000 0.0000
        vertex -1.2000 0.0000 0.0000
    endloop
endfacet
facet normal 0.3915 0.0000 0.0258
    outer loop
        vertex -1.2000 0.4000 0.0000
        vertex -1.1897 0.0000 -0.1566
        vertex -1.1897 0.4000 -0.1566
    endloop
endfacet
facet normal 0.3849 0.0000 0.0765
    outer loop
        vertex -1.1591 0.0000 -0.3106
        vertex -1.1897 0.4000 -0.1566
        vertex -1.1897 0.0000 -0.1566
    endloop
endfacet
facet normal 0.3849 0.0000 0.0765
    outer loop
        vertex -1.1897 0.4000 -0.1566
        vertex -1.1591 0.0000 -0.3106
        vertex -1.1591 0.4000 -0.3106
    endloop
endfacet
facet normal 0.3717 0.0000 0.1260
    outer loop
        vertex -1.1087 0.0000 -0.4592
        vertex -1.1591 0.4000 -0.3106
        vertex -1.1591 0.0000 -0.3106
    endloop
endfacet
facet normal 0.3717 0.0000 0.1260
    outer loop
        vertex -1.1591 0.4000 -0.3106
        vertex -1.1087 0.0000 -0.4592
        vertex -1.1087 0.4000 -0.4592
    endloop
endfacet
facet normal 0.3519 0.0000 0.1737
    outer loop
        vertex -1.0392 0.0000 -0.6000
        vertex -1.1087 0.4000 -0.4592
        vertex -1.1087 0.0000 -0.4592
    endloop
endfacet
facet normal 0.3519 0.0000 0.1737
    outer loop
        vertex -1.1087 0.4000 -0.4592
        vertex -1.0392 0.0000 -0.6000
        vertex -1.0392 0.4000 -0.6000
    endloop
endfacet
facet normal 0.3264 0.0000 0.2178
    outer loop
        vertex -0.9521 0.0000 -0.7306
        vertex -1.0392 0.4000 -0.6000
        vertex -1.0392 0.0000 -0.6000
    endloop
endfacet
facet normal 0.3264 0.0000 0.2178
    outer loop
        vertex -1.0392 0.4000 -0.6000
        vertex -0.9521 0.0000 -0.7306
        vertex -0.9521 0.4000 -0.7306
    endloop
endfacet
facet normal 0.2949 0.0000 0.2589
    outer loop
        vertex -0.8485 0.0000 -0.8485
        vertex -0.9521 0.4000 -0.7306
        vertex -0.9521 0.0000 -0.7306
    endloop
endfacet
facet normal 0.2949 0.0000 0.2589
    outer loop
        vertex -0.9521 0.4000 -0.7306
        vertex -0.8485 0.0000 -0.8485
        vertex -0.8485 0.4000 -0.8485
    endloop
endfacet
facet normal 0.2589 0.0000 0.2949
    outer loop
        vertex -0.7306 0.0000 -0.9521
        vertex -0.8485 0.4000 -0.8485
        vertex -0.8485 0.0000 -0.8485
    endloop
endfacet
facet normal 0.2589 0.0000 0.2949
    outer loop
        vertex -0.8485 0.4000 -0.8485
        vertex -0.7306 0.0000 -0.9521
        vertex -0.7306 0.4000 -0.9521
    endloop
endfacet
facet normal 0.2178 0.0000 0.3264
    outer loop
        vertex -0.6000 0.0000 -1.0392
        vertex -0.7306 0.4000 -0.9521
        vertex -0.7306 0.0000 -0.9521
    endloop
endfacet
facet normal 0.2178 0.0000 0.3264
    outer loop
        vertex -0.7306 0.4000 -0.9521
        vertex -0.6000 0.0000 -1.0392
        vertex -0.6000 0.4000 -1.0392
    endloop
endfacet
facet normal 0.1737 0.0000 0.3519
    outer loop
        vertex -0.4592 0.0000 -1.1087
        vertex -0.6000 0.4000 -1.0392
        vertex -0.6000 0.0000 -1.0392
    endloop
endfacet
facet normal 0.1737 0.0000 0.3519
    outer loop
        vertex -0.6000 0.4000 -1.0392
        vertex -0.4592 0.0000 -1.1087
        vertex -0.4592 0.4000 -1.1087
    endloop
endfacet
facet normal 0.1260 0.0000 0.3717
    outer loop
        vertex -0.3106 0.0000 -1.1591
        vertex -0.4592 0.4000 -1.1087
        vertex -0.4592 0.0000 -1.1087
    endloop
endfacet
facet normal 0.1260 0.0000 0.3717
    outer loop
        vertex -0.4592 0.4000 -1.1087
        vertex -0.3106 0.0000 -1.1591
        vertex -0.3106 0.4000 -1.1591
    endloop
endfacet
facet normal 0.0765 0.0000 0.3849
    outer loop
        vertex -0.1566 0.0000 -1.1897
        vertex -0.3106 0.4000 -1.1591
        vertex -0.3106 0.0000 -1.1591
    endloop
endfacet
facet normal 0.0765 0.0000 0.3849
    outer loop
        vertex -0.3106 0.4000 -1.1591
        vertex -0.1566 0.0000 -1.1897
        vertex -0.1566 0.4000 -1.1897
    endloop
endfacet
facet normal 0.0258 0.0000 0.3915
    outer loop
        vertex 0.0000 0.0000 -1.2000
        vertex -0.1566 0.4000 -1.1897
        vertex -0.1566 0.0000 -1.1897
    endloop
endfacet
facet normal 0.0258 0.0000 0.3915
    outer loop
        vertex -0.1566 0.4000 -1.1897
        vertex 0.0000 0.0000 -1.2000
        vertex 0.0000 0.4000 -1.2000
    endloop
endfacet
facet normal -0.0258 0.0000 0.3915
    outer loop
        vertex 0.1566 0.0000 -1.1897
        vertex 0.0000 0.4000 -1.2000
        vertex 0.0000 0.0000 -1.2000
    endloop
endfacet
facet normal -0.0258 0.0000 0.3915
    outer loop
        vertex 0.0000 0.4000 -1.2000
        vertex 0.1566 0.0000 -1.1897
        vertex 0.1566 0.4000 -1.1897
    endloop
endfacet
facet normal -0.0765 0.0000 0.3849
    outer loop
        vertex 0.3106 0.0000 -1.1591
        vertex 0.1566 0.4000 -1.1897
        vertex 0.1566 0.0000 -1.1897
    endloop
endfacet
facet normal -0.0765 0.0000 0.3849
    outer loop
        vertex 0.1566 0.4000 -1.1897
        vertex 0.3106 0.0000 -1.1591
        vertex 0.3106 0.4000 -1.1591
    endloop
endfacet
facet normal -0.1260 0.0000 0.3717
    outer loop
        vertex 0.4592 0.0000 -1.1087
        vertex 0.3106 0.4000 -1.1591
        vertex 0.3106 0.0000 -1.1591
    endloop
endfacet
facet normal -0.1260 0.0000 0.3717
    outer loop
        vertex 0.3106 0.4000 -1.1591
        vertex 0.4592 0.0000 -1.1087
        vertex 0.4592 0.4000 -1.1087
    endloop
endfacet
facet normal -0.1737 0.0000 0.3519
    outer loop
        vertex 0.6000 0.0000 -1.0392
        vertex 0.4592 0.4000 -1.1087
        vertex 0.4592 0.0000 -1.1087
    endloop
endfacet
facet normal -0.1737 0.0000 0.3519
    outer loop
        vertex 0.4592 0.4000 -1.1087
        vertex 0.6000 0.0000 -1.0392
        vertex 0.6000 0.4000 -1.0392
    endloop
endfacet
facet normal -0.2178 0.0000 0.3264
    outer loop
        vertex 0.7306 0.0000 -0.9521
        vertex 0.6000 0.4000 -1.0392
        vertex 0.6000 0.0000 -1.0392
    endloop
endfacet
facet normal -0.2178 0.0000 0.3264
    outer loop
        vertex 0.6000 0.4000 -1.0392
        vertex 0.7306 0.0000 -0.9521
        vertex 0.7306 0.4000 -0.9521
    endloop
endfacet
facet normal -0.2589 0.0000 0.2949
    outer loop
        vertex 0.8485 0.0000 -0.8485
        vertex 0.7306 0.4000 -0.9521
        vertex 0.7306 0.0000 -0.9521
    endloop
endfacet
facet normal -0.2589 0.0000 0.2949
    outer loop
        vertex 0.7306 0.4000 -0.9521
        vertex 0.8485 0.0000 -0.8485
        vertex 0.8485 0.4000 -0.8485
    endloop
endfacet
facet normal -0.2949 0.0000 0.2589
    outer loop
        vertex 0.9521 0.0000 -0.7306
        vertex 0.8485 0.4000 -0.8485
        vertex 0.8485 0.0000 -0.8485
    endloop
endfacet
facet normal -0.2949 0.0000 0.2589
    outer loop
        vertex 0.8485 0.4000 -0.8485
        vertex 0.9521 0.0000 -0.7306
        vertex 0.9521 0.4000 -0.7306
    endloop
endfacet
facet normal -0.3264 0.0000 0.2178
    outer loop
        vertex 1.0392 0.0000 -0.6000
        vertex 0.9521 0.4000 -0.7306
        vertex 0.9521 0.0000 -0.7306
    endloop
endfacet
facet normal -0.3264 0.0000 0.2178
    outer loop
        vertex 0.9521 0.4000 -0.7306
        vertex 1.0392 0.0000 -0.6000
        vertex 1.0392 0.4000 -0.6000
    endloop
endfacet
facet normal -0.3519 0.0000 0.1737
    outer loop
        vertex 1.1087 0.0000 -0.4592
        vertex 1.0392 0.4000 -0.6000
        vertex 1.0392 0.0000 -0.6000
    endloop
endfacet
facet normal -0.3519 0.0000 0.1737
    outer loop
        vertex 1.0392 0.4000 -0.6000
        vertex 1.1087 0.0000 -0.4592
        vertex 1.1087 0.4000 -0.4592
    endloop
endfacet
facet normal -0.3717 0.0000 0.1260
    outer loop
        vertex 1.1591 0.0000 -0.3106
        vertex 1.1087 0.4000 -0.4592
        vertex 1.1087 0.0000 -0.4592
    endloop
endfacet
facet normal -0.3717 0.0000 0.1260
    outer loop
        vertex 1.1087 0.4000 -0.4592
        vertex 1.1591 0.0000 -0.3106
        vertex 1.1591 0.4000 -0.3106
    endloop
endfacet
facet normal -0.3849 0.0000 0.0765
    outer loop
        vertex 1.1897 0.0000 -0.1566
        vertex 1.1591 0.4000 -0.3106
        vertex 1.1591 0.0000 -0.3106
    endloop
endfacet
facet normal -0.3849 0.0000 0.0765
    outer loop
        vertex 1.1591 0.4000 -0.3106
        vertex 1.1897 0.0000 -0.1566
        vertex 1.1897 0.4000 -0.1566
    endloop
endfacet
facet normal -0.3915 0.0000 0.0258
    outer loop
        vertex 1.2000 0.0000 0.0000
        vertex 1.1897 0.4000 -0.1566
        vertex 1.1897 0.0000 -0.1566
    endloop
endfacet
facet normal -0.3915 0.0000 0.0258
    outer loop
        vertex 1.1897 0.4000 -0.1566
        vertex 1.2000 0.0000 0.0000
        vertex 1.2000 0.4000 0.0000
    endloop
endfacet
endsolid GiantLegoRocks
