solid GiantLegoRocks
facet normal 0.0000 0.7500 0.0000
    outer loop
        vertex 6.3200 0.0000 3.1200
        vertex 6.3200 0.0000 -3.1200
        vertex -6.3200 0.0000 -3.1200
    endloop
endfacet
facet normal 0.0000 0.7500 0.0000
    outer loop
        vertex -6.3200 0.0000 -3.1200
        vertex -6.3200 0.0000 3.1200
        vertex 6.3200 0.0000 3.1200
    endloop
endfacet
facet normal 0.0000 -0.2500 15.6000
    outer loop
        vertex -6.3200 -0.1000 3.1200
        vertex 6.3200 -0.1000 3.1200
        vertex 6.3200 0.0000 3.1200
    endloop
endfacet
facet normal 0.0000 -0.2500 15.6000
    outer loop
        vertex 6.3200 0.0000 3.1200
        vertex -6.3200 0.0000 3.1200
        vertex -6.3200 -0.1000 3.1200
    endloop
endfacet
facet normal -31.6000 -0.2500 0.0000
    outer loop
        vertex -6.3200 -0.1000 -3.1200
        vertex -6.3200 -0.1000 3.1200
        vertex -6.3200 0.0000 3.1200
    endloop
endfacet
facet normal -31.6000 -0.2500 0.0000
    outer loop
        vertex -6.3200 0.0000 3.1200
        vertex -6.3200 0.0000 -3.1200
        vertex -6.3200 -0.1000 -3.1200
    endloop
endfacet
facet normal 0.0000 -0.2500 -15.6000
    outer loop
        vertex 6.3200 -0.1000 -3.1200
        vertex -6.3200 -0.1000 -3.1200
        vertex -6.3200 0.0000 -3.1200
    endloop
endfacet
facet normal 0.0000 -0.2500 -15.6000
    outer loop
        vertex -6.3200 0.0000 -3.1200
        vertex 6.3200 0.0000 -3.1200
        vertex 6.3200 -0.1000 -3.1200
    endloop
endfacet
facet normal 31.6000 -0.2500 0.0000
    outer loop
        vertex 6.3200 -0.1000 3.1200
        vertex 6.3200 -0.1000 -3.1200
        vertex 6.3200 0.0000 -3.1200
    endloop
endfacet
facet normal 31.6000 -0.2500 0.0000
    outer loop
        vertex 6.3200 0.0000 -3.1200
        vertex 6.3200 0.0000 3.1200
        vertex 6.3200 -0.1000 3.1200
    endloop
endfacet
facet normal 0.0000 -9.0000 0.0000
    outer loop
        vertex -6.0800 -0.1000 2.8800
        vertex -0.0800 -0.1000 2.8800
        vertex 0.0000 -0.1000 3.1200
    endloop
endfacet
facet normal 0.0000 -9.4800 0.0000
    outer loop
        vertex 0.0000 -0.1000 3.1200
        vertex -6.3200 -0.1000 3.1200
        vertex -6.0800 -0.1000 2.8800
    endloop
endfacet
facet normal 0.0000 -9.0000 0.0000
    outer loop
        vertex 0.0000 -0.1000 3.1200
        vertex 0.0800 -0.1000 2.8800
        vertex 6.0800 -0.1000 2.8800
    endloop
endfacet
facet normal 0.0000 -9.4800 0.0000
    outer loop
        vertex 6.0800 -0.1000 2.8800
        vertex 6.3200 -0.1000 3.1200
        vertex 0.0000 -0.1000 3.1200
    endloop
endfacet
facet normal 0.0000 -3.1200 0.0000
    outer loop
        vertex -0.0800 -0.1000 -2.8800
        vertex 0.0800 -0.1000 2.8800
        vertex 0.0000 -0.1000 3.1200
    endloop
endfacet
facet normal 0.0000 -2.8800 0.0000
    outer loop
        vertex 0.0000 -0.1000 3.1200
        vertex -0.0800 -0.1000 2.8800
        vertex -0.0800 -0.1000 -2.8800
    endloop
endfacet
facet normal 0.0000 -3.1200 0.0000
    outer loop
        vertex 0.0800 -0.1000 2.8800
        vertex -0.0800 -0.1000 -2.8800
        vertex 0.0000 -0.1000 -3.1200
    endloop
endfacet
facet normal 0.0000 -2.8800 0.0000
    outer loop
        vertex 0.0000 -0.1000 -3.1200
        vertex 0.0800 -0.1000 -2.8800
        vertex 0.0800 -0.1000 2.8800
    endloop
endfacet
facet normal 0.0000 -9.0000 0.0000
    outer loop
        vertex 6.0800 -0.1000 -2.8800
        vertex 0.0800 -0.1000 -2.8800
        vertex 0.0000 -0.1000 -3.1200
    endloop
endfacet
facet normal 0.0000 -9.4800 0.0000
    outer loop
        vertex 0.0000 -0.1000 -3.1200
        vertex 6.3200 -0.1000 -3.1200
        vertex 6.0800 -0.1000 -2.8800
    endloop
endfacet
facet normal 0.0000 -9.3600 0.0000
    outer loop
        vertex 6.3200 -0.1000 -3.1200
        vertex 6.3200 -0.1000 3.1200
        vertex 6.0800 -0.1000 2.8800
    endloop
endfacet
facet normal 0.0000 -8.6400 0.0000
    outer loop
        vertex 6.0800 -0.1000 2.8800
        vertex 6.0800 -0.1000 -2.8800
        vertex 6.3200 -0.1000 -3.1200
    endloop
endfacet
facet normal 0.0000 -9.3600 0.0000
    outer loop
        vertex -6.0800 -0.1000 2.8800
        vertex -6.3200 -0.1000 3.1200
        vertex -6.3200 -0.1000 -3.1200
    endloop
endfacet
facet normal 0.0000 -8.6400 0.0000
    outer loop
        vertex -6.3200 -0.1000 -3.1200
        vertex -6.0800 -0.1000 -2.8800
        vertex -6.0800 -0.1000 2.8800
    endloop
endfacet
facet normal 0.0000 -9.0000 0.0000
    outer loop
        vertex -0.0800 -0.1000 -2.8800
        vertex -6.0800 -0.1000 -2.8800
        vertex -6.3200 -0.1000 -3.1200
    endloop
endfacet
facet normal 0.0000 -9.4800 0.0000
    outer loop
        vertex -6.3200 -0.1000 -3.1200
        vertex 0.0000 -0.1000 -3.1200
        vertex -0.0800 -0.1000 -2.8800
    endloop
endfacet
facet normal 0.0000 -1.4000 0.0000
    outer loop
        vertex 5.2400 -0.1000 1.9200
        vertex 5.2400 -0.1000 1.5200
        vertex 5.8000 -0.1000 2.0800
    endloop
endfacet
facet normal 0.0000 -1.6000 0.0000
    outer loop
        vertex 4.4400 -0.1000 2.2400
        vertex 4.4400 -0.1000 1.9200
        vertex 5.2400 -0.1000 1.9200
    endloop
endfacet
facet normal 0.0000 -1.6000 0.0000
    outer loop
        vertex 5.2400 -0.1000 1.9200
        vertex 5.2400 -0.1000 2.2400
        vertex 4.4400 -0.1000 2.2400
    endloop
endfacet
facet normal 0.0000 -1.6000 0.0000
    outer loop
        vertex -4.4400 -0.1000 2.2400
        vertex -5.2400 -0.1000 2.2400
        vertex -5.2400 -0.1000 1.9200
    endloop
endfacet
facet normal 0.0000 -1.6000 0.0000
    outer loop
        vertex -5.2400 -0.1000 1.9200
        vertex -4.4400 -0.1000 1.9200
        vertex -4.4400 -0.1000 2.2400
    endloop
endfacet
facet normal 0.0000 -1.4000 0.0000
    outer loop
        vertex -5.8000 -0.1000 2.0800
        vertex -5.2400 -0.1000 1.5200
        vertex -5.2400 -0.1000 1.9200
    endloop
endfacet
facet normal 0.0000 -1.4000 0.0000
    outer loop
        vertex -5.2400 -0.1000 2.2400
        vertex -5.2400 -0.1000 2.6400
        vertex -5.8000 -0.1000 2.0800
    endloop
endfacet
facet normal 0.0000 -1.1200 0.0000
    outer loop
        vertex -5.8000 -0.1000 2.0800
        vertex -5.2400 -0.1000 1.9200
        vertex -5.2400 -0.1000 2.2400
    endloop
endfacet
facet normal 0.0000 -1.4000 0.0000
    outer loop
        vertex 5.2400 -0.1000 2.2400
        vertex 5.8000 -0.1000 2.0800
        vertex 5.2400 -0.1000 2.6400
    endloop
endfacet
facet normal 0.0000 -1.1200 0.0000
    outer loop
        vertex 5.2400 -0.1000 2.2400
        vertex 5.2400 -0.1000 1.9200
        vertex 5.8000 -0.1000 2.0800
    endloop
endfacet
facet normal 0.0000 -0.1493 0.0000
    outer loop
        vertex 1.8260 -0.1000 -0.7300
        vertex 1.9308 -0.1000 -0.7384
        vertex 1.8096 -0.1000 -0.5008
    endloop
endfacet
facet normal 0.0000 -0.2290 0.0000
    outer loop
        vertex 1.8096 -0.1000 -0.5008
        vertex 1.6400 -0.1000 -0.3648
        vertex 1.8260 -0.1000 -0.7300
    endloop
endfacet
facet normal 0.0000 -0.6131 0.0000
    outer loop
        vertex 4.1524 -0.1000 -0.8676
        vertex 4.0800 -0.1000 -0.8000
        vertex 3.4000 -0.1000 -1.5200
    endloop
endfacet
facet normal 0.0000 -0.6131 0.0000
    outer loop
        vertex -2.0876 -0.1000 -0.8676
        vertex -2.1600 -0.1000 -0.8000
        vertex -2.8400 -0.1000 -1.5200
    endloop
endfacet
facet normal 0.0000 -1.9083 0.0000
    outer loop
        vertex 4.1524 -0.1000 -0.8676
        vertex 3.4000 -0.1000 -1.5200
        vertex 3.8680 -0.1000 -1.5200
    endloop
endfacet
facet normal 0.0000 -0.5938 0.0000
    outer loop
        vertex 3.8680 -0.1000 -1.5200
        vertex 4.2560 -0.1000 -0.9640
        vertex 4.1524 -0.1000 -0.8676
    endloop
endfacet
facet normal 0.0000 -1.9083 0.0000
    outer loop
        vertex -2.0876 -0.1000 -0.8676
        vertex -2.8400 -0.1000 -1.5200
        vertex -2.3720 -0.1000 -1.5200
    endloop
endfacet
facet normal 0.0000 -0.5938 0.0000
    outer loop
        vertex -2.3720 -0.1000 -1.5200
        vertex -1.9840 -0.1000 -0.9640
        vertex -2.0876 -0.1000 -0.8676
    endloop
endfacet
facet normal 0.0000 -0.4151 0.0000
    outer loop
        vertex 4.3280 -0.1000 -1.0320
        vertex 4.2560 -0.1000 -0.9640
        vertex 3.8680 -0.1000 -1.5200
    endloop
endfacet
facet normal 0.0000 -0.4151 0.0000
    outer loop
        vertex -1.9120 -0.1000 -1.0320
        vertex -1.9840 -0.1000 -0.9640
        vertex -2.3720 -0.1000 -1.5200
    endloop
endfacet
facet normal 0.0000 -1.2500 0.0000
    outer loop
        vertex 3.4000 -0.1000 -1.5200
        vertex 3.2000 -0.1000 -1.5200
        vertex 3.2000 -0.1000 -2.5200
    endloop
endfacet
facet normal 0.0000 -1.2500 0.0000
    outer loop
        vertex -2.8400 -0.1000 -1.5200
        vertex -3.0400 -0.1000 -1.5200
        vertex -3.0400 -0.1000 -2.5200
    endloop
endfacet
facet normal 0.0000 -2.9250 0.0000
    outer loop
        vertex 3.8680 -0.1000 -1.5200
        vertex 3.4000 -0.1000 -1.5200
        vertex 3.2000 -0.1000 -2.5200
    endloop
endfacet
facet normal 0.0000 -2.9250 0.0000
    outer loop
        vertex -2.3720 -0.1000 -1.5200
        vertex -2.8400 -0.1000 -1.5200
        vertex -3.0400 -0.1000 -2.5200
    endloop
endfacet
facet normal 0.0000 -6.0750 0.0000
    outer loop
        vertex 4.8400 -0.1000 -1.5200
        vertex 3.8680 -0.1000 -1.5200
        vertex 3.2000 -0.1000 -2.5200
    endloop
endfacet
facet normal 0.0000 -15.0000 0.0000
    outer loop
        vertex 3.2000 -0.1000 -2.5200
        vertex 5.6000 -0.1000 -2.5200
        vertex 4.8400 -0.1000 -1.5200
    endloop
endfacet
facet normal 0.0000 -6.0750 0.0000
    outer loop
        vertex -1.4000 -0.1000 -1.5200
        vertex -2.3720 -0.1000 -1.5200
        vertex -3.0400 -0.1000 -2.5200
    endloop
endfacet
facet normal 0.0000 -15.0000 0.0000
    outer loop
        vertex -3.0400 -0.1000 -2.5200
        vertex -0.6400 -0.1000 -2.5200
        vertex -1.4000 -0.1000 -1.5200
    endloop
endfacet
facet normal 0.0000 -2.5000 0.0000
    outer loop
        vertex 5.2400 -0.1000 -1.5200
        vertex 4.8400 -0.1000 -1.5200
        vertex 5.6000 -0.1000 -2.5200
    endloop
endfacet
facet normal 0.0000 -2.5000 0.0000
    outer loop
        vertex -1.0000 -0.1000 -1.5200
        vertex -1.4000 -0.1000 -1.5200
        vertex -0.6400 -0.1000 -2.5200
    endloop
endfacet
facet normal 0.0000 -2.2500 0.0000
    outer loop
        vertex 5.2400 -0.1000 -1.5200
        vertex 5.6000 -0.1000 -2.5200
        vertex 5.6000 -0.1000 -1.5200
    endloop
endfacet
facet normal 0.0000 -2.2500 0.0000
    outer loop
        vertex -1.0000 -0.1000 -1.5200
        vertex -0.6400 -0.1000 -2.5200
        vertex -0.6400 -0.1000 -1.5200
    endloop
endfacet
facet normal 0.0000 -0.0623 0.0000
    outer loop
        vertex 0.6948 -0.1000 -0.7424
        vertex 0.7388 -0.1000 -0.7384
        vertex 0.8600 -0.1000 -0.5008
    endloop
endfacet
facet normal 0.0000 -0.1817 0.0000
    outer loop
        vertex 0.8600 -0.1000 -0.5008
        vertex 0.8600 -0.1000 -0.3248
        vertex 0.6948 -0.1000 -0.7424
    endloop
endfacet
facet normal 0.0000 -0.1107 0.0000
    outer loop
        vertex 1.9308 -0.1000 -0.7384
        vertex 1.9748 -0.1000 -0.7424
        vertex 1.8096 -0.1000 -0.3248
    endloop
endfacet
facet normal 0.0000 -0.1333 0.0000
    outer loop
        vertex 1.8096 -0.1000 -0.3248
        vertex 1.8096 -0.1000 -0.5008
        vertex 1.9308 -0.1000 -0.7384
    endloop
endfacet
facet normal 0.0000 -0.9181 0.0000
    outer loop
        vertex 1.0296 -0.1000 -0.3648
        vertex 1.3348 -0.1000 -0.6892
        vertex 1.8260 -0.1000 -0.7300
    endloop
endfacet
facet normal 0.0000 -1.3932 0.0000
    outer loop
        vertex 1.8260 -0.1000 -0.7300
        vertex 1.6400 -0.1000 -0.3648
        vertex 1.0296 -0.1000 -0.3648
    endloop
endfacet
facet normal 0.0000 -0.4998 0.0000
    outer loop
        vertex 1.9748 -0.1000 -0.7424
        vertex 1.8020 -0.1000 -0.8888
        vertex 1.7604 -0.1000 -1.3868
    endloop
endfacet
facet normal 0.0000 -0.6605 0.0000
    outer loop
        vertex 1.7604 -0.1000 -1.3868
        vertex 1.9200 -0.1000 -1.4000
        vertex 1.9748 -0.1000 -0.7424
    endloop
endfacet
facet normal 0.0000 -0.0446 0.0000
    outer loop
        vertex 1.9308 -0.1000 -0.7384
        vertex 1.8020 -0.1000 -0.8888
        vertex 1.9748 -0.1000 -0.7424
    endloop
endfacet
facet normal 0.0000 -0.1053 0.0000
    outer loop
        vertex 1.8260 -0.1000 -0.7300
        vertex 1.8020 -0.1000 -0.8888
        vertex 1.9308 -0.1000 -0.7384
    endloop
endfacet
facet normal 0.0000 -1.0737 0.0000
    outer loop
        vertex 1.3348 -0.1000 -0.6892
        vertex 1.0296 -0.1000 -0.3648
        vertex 0.8436 -0.1000 -0.7300
    endloop
endfacet
facet normal 0.0000 -0.1493 0.0000
    outer loop
        vertex 0.8600 -0.1000 -0.5008
        vertex 0.7388 -0.1000 -0.7384
        vertex 0.8436 -0.1000 -0.7300
    endloop
endfacet
facet normal 0.0000 -0.2290 0.0000
    outer loop
        vertex 0.8436 -0.1000 -0.7300
        vertex 1.0296 -0.1000 -0.3648
        vertex 0.8600 -0.1000 -0.5008
    endloop
endfacet
facet normal 0.0000 -0.6601 0.0000
    outer loop
        vertex 0.8676 -0.1000 -0.8888
        vertex 0.6948 -0.1000 -0.7424
        vertex 0.7496 -0.1000 -1.4000
    endloop
endfacet
facet normal 0.0000 -0.5002 0.0000
    outer loop
        vertex 0.7496 -0.1000 -1.4000
        vertex 0.9092 -0.1000 -1.3868
        vertex 0.8676 -0.1000 -0.8888
    endloop
endfacet
facet normal 0.0000 -0.0446 0.0000
    outer loop
        vertex 0.7388 -0.1000 -0.7384
        vertex 0.6948 -0.1000 -0.7424
        vertex 0.8676 -0.1000 -0.8888
    endloop
endfacet
facet normal 0.0000 -0.1053 0.0000
    outer loop
        vertex 0.8436 -0.1000 -0.7300
        vertex 0.7388 -0.1000 -0.7384
        vertex 0.8676 -0.1000 -0.8888
    endloop
endfacet
facet normal 0.0000 -2.6494 0.0000
    outer loop
        vertex 0.9092 -0.1000 -1.3868
        vertex 1.7604 -0.1000 -1.3868
        vertex 1.8020 -0.1000 -0.8888
    endloop
endfacet
facet normal 0.0000 -1.6707 0.0000
    outer loop
        vertex 1.8020 -0.1000 -0.8888
        vertex 1.3348 -0.1000 -0.8500
        vertex 0.9092 -0.1000 -1.3868
    endloop
endfacet
facet normal 0.0000 -1.4642 0.0000
    outer loop
        vertex 0.9092 -0.1000 -1.3868
        vertex 1.3348 -0.1000 -0.8500
        vertex 0.8676 -0.1000 -0.8888
    endloop
endfacet
facet normal 0.0000 -0.4937 0.0000
    outer loop
        vertex 1.8260 -0.1000 -0.7300
        vertex 1.3348 -0.1000 -0.6892
        vertex 1.3348 -0.1000 -0.8500
    endloop
endfacet
facet normal 0.0000 -0.4695 0.0000
    outer loop
        vertex 1.3348 -0.1000 -0.8500
        vertex 1.8020 -0.1000 -0.8888
        vertex 1.8260 -0.1000 -0.7300
    endloop
endfacet
facet normal 0.0000 -0.4936 0.0000
    outer loop
        vertex 1.3348 -0.1000 -0.6892
        vertex 0.8436 -0.1000 -0.7300
        vertex 0.8676 -0.1000 -0.8888
    endloop
endfacet
facet normal 0.0000 -0.4695 0.0000
    outer loop
        vertex 0.8676 -0.1000 -0.8888
        vertex 1.3348 -0.1000 -0.8500
        vertex 1.3348 -0.1000 -0.6892
    endloop
endfacet
facet normal 0.0000 -0.4758 0.0000
    outer loop
        vertex 4.1524 -0.1000 -0.8676
        vertex 4.2560 -0.1000 -0.9640
        vertex 4.6244 -0.1000 -0.5720
    endloop
endfacet
facet normal 0.0000 -0.5097 0.0000
    outer loop
        vertex 4.6244 -0.1000 -0.5720
        vertex 4.5548 -0.1000 -0.4428
        vertex 4.1524 -0.1000 -0.8676
    endloop
endfacet
facet normal 0.0000 -0.4758 0.0000
    outer loop
        vertex -2.0876 -0.1000 -0.8676
        vertex -1.9840 -0.1000 -0.9640
        vertex -1.6156 -0.1000 -0.5720
    endloop
endfacet
facet normal 0.0000 -0.5097 0.0000
    outer loop
        vertex -1.6156 -0.1000 -0.5720
        vertex -1.6852 -0.1000 -0.4428
        vertex -2.0876 -0.1000 -0.8676
    endloop
endfacet
facet normal 0.0000 -1.6220 0.0000
    outer loop
        vertex 4.8400 -0.1000 -1.5200
        vertex 5.2400 -0.1000 -1.5200
        vertex 5.2400 -0.1000 -0.8712
    endloop
endfacet
facet normal 0.0000 -1.3700 0.0000
    outer loop
        vertex 5.2400 -0.1000 -0.8712
        vertex 4.8400 -0.1000 -0.9720
        vertex 4.8400 -0.1000 -1.5200
    endloop
endfacet
facet normal 0.0000 -1.6220 0.0000
    outer loop
        vertex -1.4000 -0.1000 -1.5200
        vertex -1.0000 -0.1000 -1.5200
        vertex -1.0000 -0.1000 -0.8712
    endloop
endfacet
facet normal 0.0000 -1.3700 0.0000
    outer loop
        vertex -1.0000 -0.1000 -0.8712
        vertex -1.4000 -0.1000 -0.9720
        vertex -1.4000 -0.1000 -1.5200
    endloop
endfacet
facet normal 0.0000 -0.2732 0.0000
    outer loop
        vertex 1.3968 -0.1000 0.0880
        vertex 1.6400 -0.1000 -0.3648
        vertex 1.8096 -0.1000 -0.5008
    endloop
endfacet
facet normal 0.0000 -0.4541 0.0000
    outer loop
        vertex 1.8096 -0.1000 -0.5008
        vertex 1.8096 -0.1000 -0.3248
        vertex 1.3968 -0.1000 0.0880
    endloop
endfacet
facet normal 0.0000 -0.2732 0.0000
    outer loop
        vertex -4.8432 -0.1000 0.0880
        vertex -4.6000 -0.1000 -0.3648
        vertex -4.4304 -0.1000 -0.5008
    endloop
endfacet
facet normal 0.0000 -0.4541 0.0000
    outer loop
        vertex -4.4304 -0.1000 -0.5008
        vertex -4.4304 -0.1000 -0.3248
        vertex -4.8432 -0.1000 0.0880
    endloop
endfacet
facet normal 0.0000 -1.1358 0.0000
    outer loop
        vertex 4.6244 -0.1000 -0.5720
        vertex 4.8400 -0.1000 -0.9720
        vertex 5.2400 -0.1000 -0.8712
    endloop
endfacet
facet normal 0.0000 -1.1358 0.0000
    outer loop
        vertex -1.6156 -0.1000 -0.5720
        vertex -1.4000 -0.1000 -0.9720
        vertex -1.0000 -0.1000 -0.8712
    endloop
endfacet
facet normal 0.0000 -0.3669 0.0000
    outer loop
        vertex 4.5548 -0.1000 -0.4428
        vertex 4.6244 -0.1000 -0.5720
        vertex 5.2400 -0.1000 -0.8712
    endloop
endfacet
facet normal 0.0000 -0.3669 0.0000
    outer loop
        vertex -1.6852 -0.1000 -0.4428
        vertex -1.6156 -0.1000 -0.5720
        vertex -1.0000 -0.1000 -0.8712
    endloop
endfacet
facet normal 0.0000 -0.7433 0.0000
    outer loop
        vertex 4.4140 -0.1000 -0.1812
        vertex 4.5548 -0.1000 -0.4428
        vertex 5.2400 -0.1000 -0.8712
    endloop
endfacet
facet normal 0.0000 -0.7433 0.0000
    outer loop
        vertex -1.8260 -0.1000 -0.1812
        vertex -1.6852 -0.1000 -0.4428
        vertex -1.0000 -0.1000 -0.8712
    endloop
endfacet
facet normal 0.0000 -0.9890 0.0000
    outer loop
        vertex 4.2436 -0.1000 0.9780
        vertex 4.2264 -0.1000 0.1664
        vertex 4.4140 -0.1000 -0.1812
    endloop
endfacet
facet normal 0.0000 -5.2495 0.0000
    outer loop
        vertex 4.4140 -0.1000 -0.1812
        vertex 5.2400 -0.1000 -0.8712
        vertex 4.2436 -0.1000 0.9780
    endloop
endfacet
facet normal 0.0000 -0.9890 0.0000
    outer loop
        vertex -1.9964 -0.1000 0.9780
        vertex -2.0136 -0.1000 0.1664
        vertex -1.8260 -0.1000 -0.1812
    endloop
endfacet
facet normal 0.0000 -5.2495 0.0000
    outer loop
        vertex -1.8260 -0.1000 -0.1812
        vertex -1.0000 -0.1000 -0.8712
        vertex -1.9964 -0.1000 0.9780
    endloop
endfacet
facet normal 0.0000 -2.3470 0.0000
    outer loop
        vertex 3.2540 -0.1000 -0.0336
        vertex 4.4140 -0.1000 -0.1812
        vertex 4.2264 -0.1000 0.1664
    endloop
endfacet
facet normal 0.0000 -0.8531 0.0000
    outer loop
        vertex 4.2264 -0.1000 0.1664
        vertex 3.2600 -0.1000 0.1080
        vertex 3.2540 -0.1000 -0.0336
    endloop
endfacet
facet normal 0.0000 -2.3470 0.0000
    outer loop
        vertex -2.9860 -0.1000 -0.0336
        vertex -1.8260 -0.1000 -0.1812
        vertex -2.0136 -0.1000 0.1664
    endloop
endfacet
facet normal 0.0000 -0.8531 0.0000
    outer loop
        vertex -2.0136 -0.1000 0.1664
        vertex -2.9800 -0.1000 0.1080
        vertex -2.9860 -0.1000 -0.0336
    endloop
endfacet
facet normal 0.0000 -0.5954 0.0000
    outer loop
        vertex 3.2636 -0.1000 0.2068
        vertex 3.2600 -0.1000 0.1080
        vertex 4.2264 -0.1000 0.1664
    endloop
endfacet
facet normal 0.0000 -0.5954 0.0000
    outer loop
        vertex -2.9764 -0.1000 0.2068
        vertex -2.9800 -0.1000 0.1080
        vertex -2.0136 -0.1000 0.1664
    endloop
endfacet
facet normal 0.0000 -0.7225 0.0000
    outer loop
        vertex 3.2540 -0.1000 -0.0336
        vertex 3.2504 -0.1000 -0.1328
        vertex 4.4140 -0.1000 -0.1812
    endloop
endfacet
facet normal 0.0000 -0.7225 0.0000
    outer loop
        vertex -2.9860 -0.1000 -0.0336
        vertex -2.9896 -0.1000 -0.1328
        vertex -1.8260 -0.1000 -0.1812
    endloop
endfacet
facet normal 0.0000 -0.7111 0.0000
    outer loop
        vertex 2.5476 -0.1000 0.1368
        vertex 2.4404 -0.1000 0.0016
        vertex 3.2540 -0.1000 -0.0336
    endloop
endfacet
facet normal 0.0000 -0.6316 0.0000
    outer loop
        vertex 3.2540 -0.1000 -0.0336
        vertex 3.2600 -0.1000 0.1080
        vertex 2.5476 -0.1000 0.1368
    endloop
endfacet
facet normal 0.0000 -0.7111 0.0000
    outer loop
        vertex -3.6924 -0.1000 0.1368
        vertex -3.7996 -0.1000 0.0016
        vertex -2.9860 -0.1000 -0.0336
    endloop
endfacet
facet normal 0.0000 -0.6316 0.0000
    outer loop
        vertex -2.9860 -0.1000 -0.0336
        vertex -2.9800 -0.1000 0.1080
        vertex -3.6924 -0.1000 0.1368
    endloop
endfacet
facet normal 0.0000 -0.3419 0.0000
    outer loop
        vertex 2.4648 -0.1000 0.4112
        vertex 2.3288 -0.1000 0.3700
        vertex 2.4404 -0.1000 0.0016
    endloop
endfacet
facet normal 0.0000 -0.2538 0.0000
    outer loop
        vertex 2.4404 -0.1000 0.0016
        vertex 2.5476 -0.1000 0.1368
        vertex 2.4648 -0.1000 0.4112
    endloop
endfacet
facet normal 0.0000 -0.3419 0.0000
    outer loop
        vertex -3.7752 -0.1000 0.4112
        vertex -3.9112 -0.1000 0.3700
        vertex -3.7996 -0.1000 0.0016
    endloop
endfacet
facet normal 0.0000 -0.2538 0.0000
    outer loop
        vertex -3.7996 -0.1000 0.0016
        vertex -3.6924 -0.1000 0.1368
        vertex -3.7752 -0.1000 0.4112
    endloop
endfacet
facet normal 0.0000 -3.6528 0.0000
    outer loop
        vertex 2.5600 -0.1000 0.4400
        vertex 4.0156 -0.1000 0.5580
        vertex 4.2436 -0.1000 0.9780
    endloop
endfacet
facet normal 0.0000 -4.4127 0.0000
    outer loop
        vertex 4.2436 -0.1000 0.9780
        vertex 2.4844 -0.1000 0.8352
        vertex 2.5600 -0.1000 0.4400
    endloop
endfacet
facet normal 0.0000 -3.6528 0.0000
    outer loop
        vertex -3.6800 -0.1000 0.4400
        vertex -2.2244 -0.1000 0.5580
        vertex -1.9964 -0.1000 0.9780
    endloop
endfacet
facet normal 0.0000 -4.4127 0.0000
    outer loop
        vertex -1.9964 -0.1000 0.9780
        vertex -3.7556 -0.1000 0.8352
        vertex -3.6800 -0.1000 0.4400
    endloop
endfacet
facet normal 0.0000 -1.1114 0.0000
    outer loop
        vertex 4.2436 -0.1000 0.9780
        vertex 4.0156 -0.1000 0.5580
        vertex 4.2264 -0.1000 0.1664
    endloop
endfacet
facet normal 0.0000 -1.1114 0.0000
    outer loop
        vertex -1.9964 -0.1000 0.9780
        vertex -2.2244 -0.1000 0.5580
        vertex -2.0136 -0.1000 0.1664
    endloop
endfacet
facet normal 0.0000 -0.2488 0.0000
    outer loop
        vertex 2.4844 -0.1000 0.8352
        vertex 2.4648 -0.1000 0.4112
        vertex 2.5600 -0.1000 0.4400
    endloop
endfacet
facet normal 0.0000 -0.2488 0.0000
    outer loop
        vertex -3.7556 -0.1000 0.8352
        vertex -3.7752 -0.1000 0.4112
        vertex -3.6800 -0.1000 0.4400
    endloop
endfacet
facet normal 0.0000 -0.3554 0.0000
    outer loop
        vertex 2.4648 -0.1000 0.4112
        vertex 2.4844 -0.1000 0.8352
        vertex 2.3288 -0.1000 0.3700
    endloop
endfacet
facet normal 0.0000 -0.3554 0.0000
    outer loop
        vertex -3.7752 -0.1000 0.4112
        vertex -3.7556 -0.1000 0.8352
        vertex -3.9112 -0.1000 0.3700
    endloop
endfacet
facet normal 0.0000 -2.4355 0.0000
    outer loop
        vertex 1.3968 -0.1000 0.0880
        vertex 2.3288 -0.1000 0.3700
        vertex 2.4844 -0.1000 0.8352
    endloop
endfacet
facet normal 0.0000 -2.4355 0.0000
    outer loop
        vertex -4.8432 -0.1000 0.0880
        vertex -3.9112 -0.1000 0.3700
        vertex -3.7556 -0.1000 0.8352
    endloop
endfacet
facet normal 0.0000 -0.4706 0.0000
    outer loop
        vertex 1.0296 -0.1000 -0.3648
        vertex 1.2192 -0.1000 0.0344
        vertex 0.8600 -0.1000 -0.3248
    endloop
endfacet
facet normal 0.0000 -0.1866 0.0000
    outer loop
        vertex 0.8600 -0.1000 -0.3248
        vertex 0.8600 -0.1000 -0.5008
        vertex 1.0296 -0.1000 -0.3648
    endloop
endfacet
facet normal 0.0000 -0.4706 0.0000
    outer loop
        vertex -5.2104 -0.1000 -0.3648
        vertex -5.0208 -0.1000 0.0344
        vertex -5.3800 -0.1000 -0.3248
    endloop
endfacet
facet normal 0.0000 -0.1866 0.0000
    outer loop
        vertex -5.3800 -0.1000 -0.3248
        vertex -5.3800 -0.1000 -0.5008
        vertex -5.2104 -0.1000 -0.3648
    endloop
endfacet
facet normal 0.0000 -0.0702 0.0000
    outer loop
        vertex 1.2728 -0.1000 0.0880
        vertex 1.2192 -0.1000 0.0344
        vertex 1.0296 -0.1000 -0.3648
    endloop
endfacet
facet normal 0.0000 -0.0702 0.0000
    outer loop
        vertex -4.9672 -0.1000 0.0880
        vertex -5.0208 -0.1000 0.0344
        vertex -5.2104 -0.1000 -0.3648
    endloop
endfacet
facet normal 0.0000 -0.3509 0.0000
    outer loop
        vertex 1.6400 -0.1000 -0.3648
        vertex 1.3968 -0.1000 0.0880
        vertex 1.2728 -0.1000 0.0880
    endloop
endfacet
facet normal 0.0000 -1.7274 0.0000
    outer loop
        vertex 1.2728 -0.1000 0.0880
        vertex 1.0296 -0.1000 -0.3648
        vertex 1.6400 -0.1000 -0.3648
    endloop
endfacet
facet normal 0.0000 -0.3509 0.0000
    outer loop
        vertex -4.6000 -0.1000 -0.3648
        vertex -4.8432 -0.1000 0.0880
        vertex -4.9672 -0.1000 0.0880
    endloop
endfacet
facet normal 0.0000 -1.7274 0.0000
    outer loop
        vertex -4.9672 -0.1000 0.0880
        vertex -5.2104 -0.1000 -0.3648
        vertex -4.6000 -0.1000 -0.3648
    endloop
endfacet
facet normal 0.0000 -0.1820 0.0000
    outer loop
        vertex 1.0340 -0.1000 0.3964
        vertex 1.1496 -0.1000 0.0132
        vertex 1.2192 -0.1000 0.0344
    endloop
endfacet
facet normal 0.0000 -0.1833 0.0000
    outer loop
        vertex 1.2192 -0.1000 0.0344
        vertex 1.2728 -0.1000 0.0880
        vertex 1.0340 -0.1000 0.3964
    endloop
endfacet
facet normal 0.0000 -0.1820 0.0000
    outer loop
        vertex -5.2060 -0.1000 0.3964
        vertex -5.0904 -0.1000 0.0132
        vertex -5.0208 -0.1000 0.0344
    endloop
endfacet
facet normal 0.0000 -0.1833 0.0000
    outer loop
        vertex -5.0208 -0.1000 0.0344
        vertex -4.9672 -0.1000 0.0880
        vertex -5.2060 -0.1000 0.3964
    endloop
endfacet
facet normal 0.0000 -0.2390 0.0000
    outer loop
        vertex 1.0340 -0.1000 0.3964
        vertex 1.2728 -0.1000 0.0880
        vertex 1.3968 -0.1000 0.0880
    endloop
endfacet
facet normal 0.0000 -3.7906 0.0000
    outer loop
        vertex 1.3968 -0.1000 0.0880
        vertex 2.4844 -0.1000 0.8352
        vertex 1.0340 -0.1000 0.3964
    endloop
endfacet
facet normal 0.0000 -0.2390 0.0000
    outer loop
        vertex -5.2060 -0.1000 0.3964
        vertex -4.9672 -0.1000 0.0880
        vertex -4.8432 -0.1000 0.0880
    endloop
endfacet
facet normal 0.0000 -3.7906 0.0000
    outer loop
        vertex -4.8432 -0.1000 0.0880
        vertex -3.7556 -0.1000 0.8352
        vertex -5.2060 -0.1000 0.3964
    endloop
endfacet
facet normal 0.0000 -0.1488 0.0000
    outer loop
        vertex -4.3092 -0.1000 -0.7384
        vertex -4.4304 -0.1000 -0.5008
        vertex -4.6000 -0.1000 -0.3648
    endloop
endfacet
facet normal 0.0000 -0.2294 0.0000
    outer loop
        vertex -4.6000 -0.1000 -0.3648
        vertex -4.4140 -0.1000 -0.7300
        vertex -4.3092 -0.1000 -0.7384
    endloop
endfacet
facet normal 0.0000 -0.2290 0.0000
    outer loop
        vertex -5.3964 -0.1000 -0.7300
        vertex -5.2104 -0.1000 -0.3648
        vertex -5.3800 -0.1000 -0.5008
    endloop
endfacet
facet normal 0.0000 -0.1493 0.0000
    outer loop
        vertex -5.3800 -0.1000 -0.5008
        vertex -5.5012 -0.1000 -0.7384
        vertex -5.3964 -0.1000 -0.7300
    endloop
endfacet
facet normal 0.0000 -0.9600 0.0000
    outer loop
        vertex 2.7200 -0.1000 -2.2000
        vertex 2.2400 -0.1000 -2.3200
        vertex 2.2400 -0.1000 -2.6400
    endloop
endfacet
facet normal 0.0000 -0.8400 0.0000
    outer loop
        vertex 2.7200 -0.1000 -2.2000
        vertex 2.2400 -0.1000 -2.0400
        vertex 2.2400 -0.1000 -2.3200
    endloop
endfacet
facet normal 0.0000 -0.9600 0.0000
    outer loop
        vertex 2.2400 -0.1000 -2.0400
        vertex 2.7200 -0.1000 -2.2000
        vertex 2.2400 -0.1000 -1.7200
    endloop
endfacet
facet normal 0.0000 -1.1200 0.0000
    outer loop
        vertex 1.6000 -0.1000 -2.0400
        vertex 1.6000 -0.1000 -2.3200
        vertex 2.2400 -0.1000 -2.3200
    endloop
endfacet
facet normal 0.0000 -1.1200 0.0000
    outer loop
        vertex 2.2400 -0.1000 -2.3200
        vertex 2.2400 -0.1000 -2.0400
        vertex 1.6000 -0.1000 -2.0400
    endloop
endfacet
facet normal 0.0000 -1.1200 0.0000
    outer loop
        vertex 1.3200 -0.1000 -2.0400
        vertex 0.6800 -0.1000 -2.0400
        vertex 0.6800 -0.1000 -2.3200
    endloop
endfacet
facet normal 0.0000 -1.1200 0.0000
    outer loop
        vertex 0.6800 -0.1000 -2.3200
        vertex 1.3200 -0.1000 -2.3200
        vertex 1.3200 -0.1000 -2.0400
    endloop
endfacet
facet normal 0.0000 -0.8400 0.0000
    outer loop
        vertex 0.6800 -0.1000 -2.3200
        vertex 0.6800 -0.1000 -2.0400
        vertex 0.2000 -0.1000 -2.2000
    endloop
endfacet
facet normal 0.0000 -0.9600 0.0000
    outer loop
        vertex 0.6800 -0.1000 -2.0400
        vertex 0.6800 -0.1000 -1.7200
        vertex 0.2000 -0.1000 -2.2000
    endloop
endfacet
facet normal 0.0000 -0.9600 0.0000
    outer loop
        vertex 0.6800 -0.1000 -2.3200
        vertex 0.2000 -0.1000 -2.2000
        vertex 0.6800 -0.1000 -2.6400
    endloop
endfacet
facet normal 0.0000 -1.1200 0.0000
    outer loop
        vertex -3.3600 -0.1000 -2.0400
        vertex -4.0000 -0.1000 -2.0400
        vertex -4.0000 -0.1000 -2.3200
    endloop
endfacet
facet normal 0.0000 -1.1200 0.0000
    outer loop
        vertex -4.0000 -0.1000 -2.3200
        vertex -3.3600 -0.1000 -2.3200
        vertex -3.3600 -0.1000 -2.0400
    endloop
endfacet
facet normal 0.0000 -0.8400 0.0000
    outer loop
        vertex -4.4800 -0.1000 -2.2000
        vertex -4.0000 -0.1000 -2.3200
        vertex -4.0000 -0.1000 -2.0400
    endloop
endfacet
facet normal 0.0000 -0.9600 0.0000
    outer loop
        vertex -4.4800 -0.1000 -2.2000
        vertex -4.0000 -0.1000 -2.0400
        vertex -4.0000 -0.1000 -1.7200
    endloop
endfacet
facet normal 0.0000 -0.9600 0.0000
    outer loop
        vertex -4.0000 -0.1000 -2.6400
        vertex -4.0000 -0.1000 -2.3200
        vertex -4.4800 -0.1000 -2.2000
    endloop
endfacet
facet normal 0.0000 -0.9600 0.0000
    outer loop
        vertex -4.7600 -0.1000 -2.2000
        vertex -5.2400 -0.1000 -2.3200
        vertex -5.2400 -0.1000 -2.6400
    endloop
endfacet
facet normal 0.0000 -0.8400 0.0000
    outer loop
        vertex -5.2400 -0.1000 -2.3200
        vertex -4.7600 -0.1000 -2.2000
        vertex -5.2400 -0.1000 -2.0400
    endloop
endfacet
facet normal 0.0000 -0.9600 0.0000
    outer loop
        vertex -5.2400 -0.1000 -1.7200
        vertex -5.2400 -0.1000 -2.0400
        vertex -4.7600 -0.1000 -2.2000
    endloop
endfacet
facet normal 0.0000 -1.1200 0.0000
    outer loop
        vertex -5.8800 -0.1000 -2.0400
        vertex -5.8800 -0.1000 -2.3200
        vertex -5.2400 -0.1000 -2.3200
    endloop
endfacet
facet normal 0.0000 -1.1200 0.0000
    outer loop
        vertex -5.2400 -0.1000 -2.3200
        vertex -5.2400 -0.1000 -2.0400
        vertex -5.8800 -0.1000 -2.0400
    endloop
endfacet
facet normal 0.0000 -1.3891 0.0000
    outer loop
        vertex 4.8400 -0.1000 -0.9720
        vertex 4.3280 -0.1000 -1.0320
        vertex 3.8680 -0.1000 -1.5200
    endloop
endfacet
facet normal 0.0000 -3.3291 0.0000
    outer loop
        vertex 3.8680 -0.1000 -1.5200
        vertex 4.8400 -0.1000 -1.5200
        vertex 4.8400 -0.1000 -0.9720
    endloop
endfacet
facet normal 0.0000 -0.2446 0.0000
    outer loop
        vertex 4.2560 -0.1000 -0.9640
        vertex 4.3280 -0.1000 -1.0320
        vertex 4.8400 -0.1000 -0.9720
    endloop
endfacet
facet normal 0.0000 -1.4492 0.0000
    outer loop
        vertex 4.8400 -0.1000 -0.9720
        vertex 4.6244 -0.1000 -0.5720
        vertex 4.2560 -0.1000 -0.9640
    endloop
endfacet
facet normal 0.0000 -3.7180 0.0000
    outer loop
        vertex 4.2264 -0.1000 0.1664
        vertex 4.0156 -0.1000 0.5580
        vertex 2.5600 -0.1000 0.4400
    endloop
endfacet
facet normal 0.0000 -1.2256 0.0000
    outer loop
        vertex 2.5600 -0.1000 0.4400
        vertex 3.2636 -0.1000 0.2068
        vertex 4.2264 -0.1000 0.1664
    endloop
endfacet
facet normal 0.0000 -0.2654 0.0000
    outer loop
        vertex 3.2636 -0.1000 0.2068
        vertex 2.5600 -0.1000 0.4400
        vertex 2.4648 -0.1000 0.4112
    endloop
endfacet
facet normal 0.0000 -0.4979 0.0000
    outer loop
        vertex 2.4648 -0.1000 0.4112
        vertex 3.2600 -0.1000 0.1080
        vertex 3.2636 -0.1000 0.2068
    endloop
endfacet
facet normal 0.0000 -1.2069 0.0000
    outer loop
        vertex 2.5476 -0.1000 0.1368
        vertex 3.2600 -0.1000 0.1080
        vertex 2.4648 -0.1000 0.4112
    endloop
endfacet
facet normal 0.0000 -1.7536 0.0000
    outer loop
        vertex -1.4000 -0.1000 -1.5200
        vertex -1.4000 -0.1000 -0.9720
        vertex -1.9120 -0.1000 -1.0320
    endloop
endfacet
facet normal 0.0000 -2.9646 0.0000
    outer loop
        vertex -1.9120 -0.1000 -1.0320
        vertex -2.3720 -0.1000 -1.5200
        vertex -1.4000 -0.1000 -1.5200
    endloop
endfacet
facet normal 0.0000 -0.3330 0.0000
    outer loop
        vertex -1.6156 -0.1000 -0.5720
        vertex -1.9840 -0.1000 -0.9640
        vertex -1.9120 -0.1000 -1.0320
    endloop
endfacet
facet normal 0.0000 -1.3609 0.0000
    outer loop
        vertex -1.9120 -0.1000 -1.0320
        vertex -1.4000 -0.1000 -0.9720
        vertex -1.6156 -0.1000 -0.5720
    endloop
endfacet
facet normal 0.0000 -2.6404 0.0000
    outer loop
        vertex -2.2244 -0.1000 0.5580
        vertex -3.6800 -0.1000 0.4400
        vertex -2.9764 -0.1000 0.2068
    endloop
endfacet
facet normal 0.0000 -2.3032 0.0000
    outer loop
        vertex -2.9764 -0.1000 0.2068
        vertex -2.0136 -0.1000 0.1664
        vertex -2.2244 -0.1000 0.5580
    endloop
endfacet
facet normal 0.0000 -0.4979 0.0000
    outer loop
        vertex -3.7752 -0.1000 0.4112
        vertex -2.9800 -0.1000 0.1080
        vertex -2.9764 -0.1000 0.2068
    endloop
endfacet
facet normal 0.0000 -0.2654 0.0000
    outer loop
        vertex -2.9764 -0.1000 0.2068
        vertex -3.6800 -0.1000 0.4400
        vertex -3.7752 -0.1000 0.4112
    endloop
endfacet
facet normal 0.0000 -1.2069 0.0000
    outer loop
        vertex -3.6924 -0.1000 0.1368
        vertex -2.9800 -0.1000 0.1080
        vertex -3.7752 -0.1000 0.4112
    endloop
endfacet
facet normal 0.0000 -0.1087 0.0000
    outer loop
        vertex 1.1496 -0.1000 0.0132
        vertex 0.8600 -0.1000 -0.3248
        vertex 1.2192 -0.1000 0.0344
    endloop
endfacet
facet normal 0.0000 -0.9378 0.0000
    outer loop
        vertex 0.8600 -0.1000 -0.3248
        vertex 1.1496 -0.1000 0.0132
        vertex 1.0340 -0.1000 0.3964
    endloop
endfacet
facet normal 0.0000 -0.2905 0.0000
    outer loop
        vertex 0.6948 -0.1000 -0.7424
        vertex 0.8600 -0.1000 -0.3248
        vertex 1.0340 -0.1000 0.3964
    endloop
endfacet
facet normal 0.0000 -12.0553 0.0000
    outer loop
        vertex 1.0340 -0.1000 0.3964
        vertex 0.0800 -0.1000 2.8800
        vertex 0.6948 -0.1000 -0.7424
    endloop
endfacet
facet normal 0.0000 -4.3200 0.0000
    outer loop
        vertex 0.0800 -0.1000 2.8800
        vertex 0.0800 -0.1000 -2.8800
        vertex 0.2000 -0.1000 -2.2000
    endloop
endfacet
facet normal 0.0000 -16.8031 0.0000
    outer loop
        vertex 0.0800 -0.1000 2.8800
        vertex 0.2000 -0.1000 -2.2000
        vertex 0.6948 -0.1000 -0.7424
    endloop
endfacet
facet normal 0.0000 -0.3957 0.0000
    outer loop
        vertex 0.6800 -0.1000 -1.7200
        vertex 0.7496 -0.1000 -1.4000
        vertex 0.6948 -0.1000 -0.7424
    endloop
endfacet
facet normal 0.0000 -2.8884 0.0000
    outer loop
        vertex 0.6948 -0.1000 -0.7424
        vertex 0.2000 -0.1000 -2.2000
        vertex 0.6800 -0.1000 -1.7200
    endloop
endfacet
facet normal 0.0000 -2.3400 0.0000
    outer loop
        vertex 6.0800 -0.1000 -2.8800
        vertex 2.2400 -0.1000 -2.6400
        vertex 0.6800 -0.1000 -2.6400
    endloop
endfacet
facet normal 0.0000 -9.0000 0.0000
    outer loop
        vertex 0.6800 -0.1000 -2.6400
        vertex 0.0800 -0.1000 -2.8800
        vertex 6.0800 -0.1000 -2.8800
    endloop
endfacet
facet normal 0.0000 -2.3700 0.0000
    outer loop
        vertex 0.2000 -0.1000 -2.2000
        vertex 0.0800 -0.1000 -2.8800
        vertex 0.6800 -0.1000 -2.6400
    endloop
endfacet
facet normal 0.0000 -4.3200 0.0000
    outer loop
        vertex 3.2000 -0.1000 -2.5200
        vertex 2.2400 -0.1000 -2.6400
        vertex 6.0800 -0.1000 -2.8800
    endloop
endfacet
facet normal 0.0000 -5.4000 0.0000
    outer loop
        vertex 6.0800 -0.1000 -2.8800
        vertex 5.6000 -0.1000 -2.5200
        vertex 3.2000 -0.1000 -2.5200
    endloop
endfacet
facet normal 0.0000 -1.2800 0.0000
    outer loop
        vertex 0.6800 -0.1000 -2.3200
        vertex 0.6800 -0.1000 -2.6400
        vertex 1.3200 -0.1000 -2.3200
    endloop
endfacet
facet normal 0.0000 -3.1200 0.0000
    outer loop
        vertex 1.3200 -0.1000 -2.3200
        vertex 0.6800 -0.1000 -2.6400
        vertex 2.2400 -0.1000 -2.6400
    endloop
endfacet
facet normal 0.0000 -0.5600 0.0000
    outer loop
        vertex 2.2400 -0.1000 -2.6400
        vertex 1.6000 -0.1000 -2.3200
        vertex 1.3200 -0.1000 -2.3200
    endloop
endfacet
facet normal 0.0000 -1.2800 0.0000
    outer loop
        vertex 2.2400 -0.1000 -2.3200
        vertex 1.6000 -0.1000 -2.3200
        vertex 2.2400 -0.1000 -2.6400
    endloop
endfacet
facet normal 0.0000 -0.4900 0.0000
    outer loop
        vertex 1.6000 -0.1000 -2.0400
        vertex 1.3200 -0.1000 -2.0400
        vertex 1.3200 -0.1000 -2.3200
    endloop
endfacet
facet normal 0.0000 -0.4900 0.0000
    outer loop
        vertex 1.3200 -0.1000 -2.3200
        vertex 1.6000 -0.1000 -2.3200
        vertex 1.6000 -0.1000 -2.0400
    endloop
endfacet
facet normal 0.0000 -1.2800 0.0000
    outer loop
        vertex 0.6800 -0.1000 -2.0400
        vertex 1.3200 -0.1000 -2.0400
        vertex 0.6800 -0.1000 -1.7200
    endloop
endfacet
facet normal 0.0000 -3.1200 0.0000
    outer loop
        vertex 1.6000 -0.1000 -2.0400
        vertex 2.2400 -0.1000 -1.7200
        vertex 0.6800 -0.1000 -1.7200
    endloop
endfacet
facet normal 0.0000 -0.5600 0.0000
    outer loop
        vertex 0.6800 -0.1000 -1.7200
        vertex 1.3200 -0.1000 -2.0400
        vertex 1.6000 -0.1000 -2.0400
    endloop
endfacet
facet normal 0.0000 -1.2800 0.0000
    outer loop
        vertex 2.2400 -0.1000 -2.0400
        vertex 2.2400 -0.1000 -1.7200
        vertex 1.6000 -0.1000 -2.0400
    endloop
endfacet
facet normal 0.0000 -0.3135 0.0000
    outer loop
        vertex 0.6800 -0.1000 -1.7200
        vertex 0.9092 -0.1000 -1.3868
        vertex 0.7496 -0.1000 -1.4000
    endloop
endfacet
facet normal 0.0000 -3.2487 0.0000
    outer loop
        vertex 0.6800 -0.1000 -1.7200
        vertex 2.2400 -0.1000 -1.7200
        vertex 1.7604 -0.1000 -1.3868
    endloop
endfacet
facet normal 0.0000 -1.7726 0.0000
    outer loop
        vertex 1.7604 -0.1000 -1.3868
        vertex 0.9092 -0.1000 -1.3868
        vertex 0.6800 -0.1000 -1.7200
    endloop
endfacet
facet normal 0.0000 -0.2928 0.0000
    outer loop
        vertex 1.9200 -0.1000 -1.4000
        vertex 1.7604 -0.1000 -1.3868
        vertex 2.2400 -0.1000 -1.7200
    endloop
endfacet
facet normal 0.0000 -2.2800 0.0000
    outer loop
        vertex 2.7200 -0.1000 -2.2000
        vertex 2.2400 -0.1000 -2.6400
        vertex 3.2000 -0.1000 -2.5200
    endloop
endfacet
facet normal 0.0000 -3.0000 0.0000
    outer loop
        vertex 3.2000 -0.1000 -1.5200
        vertex 2.7200 -0.1000 -2.2000
        vertex 3.2000 -0.1000 -2.5200
    endloop
endfacet
facet normal 0.0000 -3.4800 0.0000
    outer loop
        vertex 2.2400 -0.1000 -1.7200
        vertex 2.7200 -0.1000 -2.2000
        vertex 3.2000 -0.1000 -1.5200
    endloop
endfacet
facet normal 0.0000 -5.3019 0.0000
    outer loop
        vertex 3.2000 -0.1000 -1.5200
        vertex 1.9748 -0.1000 -0.7424
        vertex 1.9200 -0.1000 -1.4000
    endloop
endfacet
facet normal 0.0000 -2.3200 0.0000
    outer loop
        vertex 1.9200 -0.1000 -1.4000
        vertex 2.2400 -0.1000 -1.7200
        vertex 3.2000 -0.1000 -1.5200
    endloop
endfacet
facet normal 0.0000 -2.9169 0.0000
    outer loop
        vertex 3.4000 -0.1000 -1.5200
        vertex 1.8096 -0.1000 -0.3248
        vertex 1.9748 -0.1000 -0.7424
    endloop
endfacet
facet normal 0.0000 -0.9720 0.0000
    outer loop
        vertex 1.9748 -0.1000 -0.7424
        vertex 3.2000 -0.1000 -1.5200
        vertex 3.4000 -0.1000 -1.5200
    endloop
endfacet
facet normal 0.0000 -7.0037 0.0000
    outer loop
        vertex 4.0800 -0.1000 -0.8000
        vertex 3.2504 -0.1000 -0.1328
        vertex 1.8096 -0.1000 -0.3248
    endloop
endfacet
facet normal 0.0000 -12.2364 0.0000
    outer loop
        vertex 1.8096 -0.1000 -0.3248
        vertex 3.4000 -0.1000 -1.5200
        vertex 4.0800 -0.1000 -0.8000
    endloop
endfacet
facet normal 0.0000 -1.7985 0.0000
    outer loop
        vertex 3.2540 -0.1000 -0.0336
        vertex 2.4404 -0.1000 0.0016
        vertex 1.8096 -0.1000 -0.3248
    endloop
endfacet
facet normal 0.0000 -0.8890 0.0000
    outer loop
        vertex 1.8096 -0.1000 -0.3248
        vertex 3.2504 -0.1000 -0.1328
        vertex 3.2540 -0.1000 -0.0336
    endloop
endfacet
facet normal 0.0000 -2.3426 0.0000
    outer loop
        vertex 2.4404 -0.1000 0.0016
        vertex 2.3288 -0.1000 0.3700
        vertex 1.3968 -0.1000 0.0880
    endloop
endfacet
facet normal 0.0000 -2.4696 0.0000
    outer loop
        vertex 1.3968 -0.1000 0.0880
        vertex 1.8096 -0.1000 -0.3248
        vertex 2.4404 -0.1000 0.0016
    endloop
endfacet
facet normal 0.0000 -1.0906 0.0000
    outer loop
        vertex 4.5548 -0.1000 -0.4428
        vertex 4.4140 -0.1000 -0.1812
        vertex 4.0800 -0.1000 -0.8000
    endloop
endfacet
facet normal 0.0000 -0.3622 0.0000
    outer loop
        vertex 4.0800 -0.1000 -0.8000
        vertex 4.1524 -0.1000 -0.8676
        vertex 4.5548 -0.1000 -0.4428
    endloop
endfacet
facet normal 0.0000 -4.6013 0.0000
    outer loop
        vertex 3.2504 -0.1000 -0.1328
        vertex 4.0800 -0.1000 -0.8000
        vertex 4.4140 -0.1000 -0.1812
    endloop
endfacet
facet normal 0.0000 -33.9935 0.0000
    outer loop
        vertex -1.9964 -0.1000 0.9780
        vertex -1.0000 -0.1000 -0.8712
        vertex -0.0800 -0.1000 2.8800
    endloop
endfacet
facet normal 0.0000 -12.1708 0.0000
    outer loop
        vertex -0.6400 -0.1000 -1.5200
        vertex -0.0800 -0.1000 2.8800
        vertex -1.0000 -0.1000 -0.8712
    endloop
endfacet
facet normal 0.0000 -1.4598 0.0000
    outer loop
        vertex -1.0000 -0.1000 -0.8712
        vertex -1.0000 -0.1000 -1.5200
        vertex -0.6400 -0.1000 -1.5200
    endloop
endfacet
facet normal 0.0000 -3.5000 0.0000
    outer loop
        vertex -0.0800 -0.1000 2.8800
        vertex -0.6400 -0.1000 -1.5200
        vertex -0.6400 -0.1000 -2.5200
    endloop
endfacet
facet normal 0.0000 -20.1600 0.0000
    outer loop
        vertex -0.6400 -0.1000 -2.5200
        vertex -0.0800 -0.1000 -2.8800
        vertex -0.0800 -0.1000 2.8800
    endloop
endfacet
facet normal 0.0000 -1.8600 0.0000
    outer loop
        vertex -0.0800 -0.1000 -2.8800
        vertex -4.0000 -0.1000 -2.6400
        vertex -5.2400 -0.1000 -2.6400
    endloop
endfacet
facet normal 0.0000 -9.0000 0.0000
    outer loop
        vertex -5.2400 -0.1000 -2.6400
        vertex -6.0800 -0.1000 -2.8800
        vertex -0.0800 -0.1000 -2.8800
    endloop
endfacet
facet normal 0.0000 -4.3800 0.0000
    outer loop
        vertex -3.0400 -0.1000 -2.5200
        vertex -4.0000 -0.1000 -2.6400
        vertex -0.0800 -0.1000 -2.8800
    endloop
endfacet
facet normal 0.0000 -5.4000 0.0000
    outer loop
        vertex -0.0800 -0.1000 -2.8800
        vertex -0.6400 -0.1000 -2.5200
        vertex -3.0400 -0.1000 -2.5200
    endloop
endfacet
facet normal 0.0000 -1.9200 0.0000
    outer loop
        vertex -4.0000 -0.1000 -2.3200
        vertex -4.0000 -0.1000 -2.6400
        vertex -3.0400 -0.1000 -2.5200
    endloop
endfacet
facet normal 0.0000 -0.8000 0.0000
    outer loop
        vertex -3.0400 -0.1000 -2.5200
        vertex -3.3600 -0.1000 -2.3200
        vertex -4.0000 -0.1000 -2.3200
    endloop
endfacet
facet normal 0.0000 -2.0000 0.0000
    outer loop
        vertex -3.3600 -0.1000 -2.3200
        vertex -3.0400 -0.1000 -2.5200
        vertex -3.0400 -0.1000 -1.5200
    endloop
endfacet
facet normal 0.0000 -0.5600 0.0000
    outer loop
        vertex -3.0400 -0.1000 -1.5200
        vertex -3.3600 -0.1000 -2.0400
        vertex -3.3600 -0.1000 -2.3200
    endloop
endfacet
facet normal 0.0000 -1.2800 0.0000
    outer loop
        vertex -4.0000 -0.1000 -1.7200
        vertex -4.0000 -0.1000 -2.0400
        vertex -3.3600 -0.1000 -2.0400
    endloop
endfacet
facet normal 0.0000 -2.7200 0.0000
    outer loop
        vertex -3.3600 -0.1000 -2.0400
        vertex -3.0400 -0.1000 -1.5200
        vertex -4.0000 -0.1000 -1.7200
    endloop
endfacet
facet normal 0.0000 -3.4100 0.0000
    outer loop
        vertex -5.2400 -0.1000 -2.6400
        vertex -4.0000 -0.1000 -2.6400
        vertex -4.4800 -0.1000 -2.2000
    endloop
endfacet
facet normal 0.0000 -0.7700 0.0000
    outer loop
        vertex -4.4800 -0.1000 -2.2000
        vertex -4.7600 -0.1000 -2.2000
        vertex -5.2400 -0.1000 -2.6400
    endloop
endfacet
facet normal 0.0000 -0.8400 0.0000
    outer loop
        vertex -4.7600 -0.1000 -2.2000
        vertex -4.4800 -0.1000 -2.2000
        vertex -4.0000 -0.1000 -1.7200
    endloop
endfacet
facet normal 0.0000 -3.7200 0.0000
    outer loop
        vertex -4.0000 -0.1000 -1.7200
        vertex -5.2400 -0.1000 -1.7200
        vertex -4.7600 -0.1000 -2.2000
    endloop
endfacet
facet normal 0.0000 -2.6400 0.0000
    outer loop
        vertex -5.8800 -0.1000 -2.3200
        vertex -6.0800 -0.1000 -2.8800
        vertex -5.2400 -0.1000 -2.6400
    endloop
endfacet
facet normal 0.0000 -1.2800 0.0000
    outer loop
        vertex -5.2400 -0.1000 -2.6400
        vertex -5.2400 -0.1000 -2.3200
        vertex -5.8800 -0.1000 -2.3200
    endloop
endfacet
facet normal 0.0000 -1.2800 0.0000
    outer loop
        vertex -5.2400 -0.1000 -2.0400
        vertex -5.2400 -0.1000 -1.7200
        vertex -5.8800 -0.1000 -2.0400
    endloop
endfacet
facet normal 0.0000 -0.1087 0.0000
    outer loop
        vertex -5.0208 -0.1000 0.0344
        vertex -5.0904 -0.1000 0.0132
        vertex -5.3800 -0.1000 -0.3248
    endloop
endfacet
facet normal 0.0000 -0.9378 0.0000
    outer loop
        vertex -5.0904 -0.1000 0.0132
        vertex -5.2060 -0.1000 0.3964
        vertex -5.3800 -0.1000 -0.3248
    endloop
endfacet
facet normal 0.0000 -4.1743 0.0000
    outer loop
        vertex -3.7996 -0.1000 0.0016
        vertex -4.3092 -0.1000 -0.7384
        vertex -2.9896 -0.1000 -0.1328
    endloop
endfacet
facet normal 0.0000 -0.5052 0.0000
    outer loop
        vertex -2.9896 -0.1000 -0.1328
        vertex -2.9860 -0.1000 -0.0336
        vertex -3.7996 -0.1000 0.0016
    endloop
endfacet
facet normal 0.0000 -1.3173 0.0000
    outer loop
        vertex -4.4304 -0.1000 -0.5008
        vertex -4.3092 -0.1000 -0.7384
        vertex -3.7996 -0.1000 0.0016
    endloop
endfacet
facet normal 0.0000 -0.6939 0.0000
    outer loop
        vertex -3.7996 -0.1000 0.0016
        vertex -4.4304 -0.1000 -0.3248
        vertex -4.4304 -0.1000 -0.5008
    endloop
endfacet
facet normal 0.0000 -1.6801 0.0000
    outer loop
        vertex -4.4304 -0.1000 -0.3248
        vertex -3.7996 -0.1000 0.0016
        vertex -3.9112 -0.1000 0.3700
    endloop
endfacet
facet normal 0.0000 -3.1321 0.0000
    outer loop
        vertex -3.9112 -0.1000 0.3700
        vertex -4.8432 -0.1000 0.0880
        vertex -4.4304 -0.1000 -0.3248
    endloop
endfacet
facet normal 0.0000 -1.0317 0.0000
    outer loop
        vertex -2.0876 -0.1000 -0.8676
        vertex -1.6852 -0.1000 -0.4428
        vertex -1.8260 -0.1000 -0.1812
    endloop
endfacet
facet normal 0.0000 -0.4211 0.0000
    outer loop
        vertex -1.8260 -0.1000 -0.1812
        vertex -2.1600 -0.1000 -0.8000
        vertex -2.0876 -0.1000 -0.8676
    endloop
endfacet
facet normal 0.0000 -1.9004 0.0000
    outer loop
        vertex -2.1600 -0.1000 -0.8000
        vertex -1.8260 -0.1000 -0.1812
        vertex -3.0400 -0.1000 -1.5200
    endloop
endfacet
facet normal 0.0000 -0.9000 0.0000
    outer loop
        vertex -3.0400 -0.1000 -1.5200
        vertex -2.8400 -0.1000 -1.5200
        vertex -2.1600 -0.1000 -0.8000
    endloop
endfacet
facet normal 0.0000 -0.5002 0.0000
    outer loop
        vertex -5.0972 -0.1000 -1.3428
        vertex -4.9760 -0.1000 -1.2380
        vertex -5.3020 -0.1000 -0.8596
    endloop
endfacet
facet normal 0.0000 -0.6610 0.0000
    outer loop
        vertex -5.3020 -0.1000 -0.8596
        vertex -5.5280 -0.1000 -0.8428
        vertex -5.0972 -0.1000 -1.3428
    endloop
endfacet
facet normal 0.0000 -0.6610 0.0000
    outer loop
        vertex -4.7132 -0.1000 -1.3428
        vertex -4.2824 -0.1000 -0.8428
        vertex -4.5084 -0.1000 -0.8596
    endloop
endfacet
facet normal 0.0000 -0.5002 0.0000
    outer loop
        vertex -4.5084 -0.1000 -0.8596
        vertex -4.8344 -0.1000 -1.2380
        vertex -4.7132 -0.1000 -1.3428
    endloop
endfacet
facet normal 0.0000 -0.1731 0.0000
    outer loop
        vertex -5.3020 -0.1000 -0.8596
        vertex -5.3964 -0.1000 -0.7300
        vertex -5.5280 -0.1000 -0.8428
    endloop
endfacet
facet normal 0.0000 -0.4866 0.0000
    outer loop
        vertex -4.9236 -0.1000 -0.5332
        vertex -5.0280 -0.1000 -0.4120
        vertex -5.3964 -0.1000 -0.7300
    endloop
endfacet
facet normal 0.0000 -0.4991 0.0000
    outer loop
        vertex -5.3964 -0.1000 -0.7300
        vertex -5.3020 -0.1000 -0.8596
        vertex -4.9236 -0.1000 -0.5332
    endloop
endfacet
facet normal 0.0000 -0.1731 0.0000
    outer loop
        vertex -4.4140 -0.1000 -0.7300
        vertex -4.5084 -0.1000 -0.8596
        vertex -4.2824 -0.1000 -0.8428
    endloop
endfacet
facet normal 0.0000 -0.4866 0.0000
    outer loop
        vertex -4.4140 -0.1000 -0.7300
        vertex -4.7824 -0.1000 -0.4120
        vertex -4.8868 -0.1000 -0.5332
    endloop
endfacet
facet normal 0.0000 -0.4991 0.0000
    outer loop
        vertex -4.8868 -0.1000 -0.5332
        vertex -4.5084 -0.1000 -0.8596
        vertex -4.4140 -0.1000 -0.7300
    endloop
endfacet
facet normal 0.0000 -0.0670 0.0000
    outer loop
        vertex -4.4140 -0.1000 -0.7300
        vertex -4.2824 -0.1000 -0.8428
        vertex -4.3092 -0.1000 -0.7384
    endloop
endfacet
facet normal 0.0000 -0.4712 0.0000
    outer loop
        vertex -4.6000 -0.1000 -0.3648
        vertex -4.7824 -0.1000 -0.4120
        vertex -4.4140 -0.1000 -0.7300
    endloop
endfacet
facet normal 0.0000 -0.0725 0.0000
    outer loop
        vertex -5.2104 -0.1000 -0.3648
        vertex -5.0280 -0.1000 -0.4120
        vertex -4.7824 -0.1000 -0.4120
    endloop
endfacet
facet normal 0.0000 -0.1801 0.0000
    outer loop
        vertex -4.7824 -0.1000 -0.4120
        vertex -4.6000 -0.1000 -0.3648
        vertex -5.2104 -0.1000 -0.3648
    endloop
endfacet
facet normal 0.0000 -0.0279 0.0000
    outer loop
        vertex -4.9236 -0.1000 -0.5332
        vertex -4.8868 -0.1000 -0.5332
        vertex -4.7824 -0.1000 -0.4120
    endloop
endfacet
facet normal 0.0000 -0.1860 0.0000
    outer loop
        vertex -4.7824 -0.1000 -0.4120
        vertex -5.0280 -0.1000 -0.4120
        vertex -4.9236 -0.1000 -0.5332
    endloop
endfacet
facet normal 0.0000 -0.4712 0.0000
    outer loop
        vertex -5.2104 -0.1000 -0.3648
        vertex -5.3964 -0.1000 -0.7300
        vertex -5.0280 -0.1000 -0.4120
    endloop
endfacet
facet normal 0.0000 -0.3349 0.0000
    outer loop
        vertex -4.9760 -0.1000 -1.2380
        vertex -4.8344 -0.1000 -1.2380
        vertex -4.5084 -0.1000 -0.8596
    endloop
endfacet
facet normal 0.0000 -1.8769 0.0000
    outer loop
        vertex -4.5084 -0.1000 -0.8596
        vertex -5.3020 -0.1000 -0.8596
        vertex -4.9760 -0.1000 -1.2380
    endloop
endfacet
facet normal 0.0000 -1.6189 0.0000
    outer loop
        vertex -5.3020 -0.1000 -0.8596
        vertex -4.5084 -0.1000 -0.8596
        vertex -4.8868 -0.1000 -0.5332
    endloop
endfacet
facet normal 0.0000 -0.0751 0.0000
    outer loop
        vertex -4.8868 -0.1000 -0.5332
        vertex -4.9236 -0.1000 -0.5332
        vertex -5.3020 -0.1000 -0.8596
    endloop
endfacet
facet normal 0.0000 -0.2515 0.0000
    outer loop
        vertex -5.0972 -0.1000 -1.3428
        vertex -4.7132 -0.1000 -1.3428
        vertex -4.8344 -0.1000 -1.2380
    endloop
endfacet
facet normal 0.0000 -0.0927 0.0000
    outer loop
        vertex -4.8344 -0.1000 -1.2380
        vertex -4.9760 -0.1000 -1.2380
        vertex -5.0972 -0.1000 -1.3428
    endloop
endfacet
facet normal 0.0000 -0.9053 0.0000
    outer loop
        vertex -4.7132 -0.1000 -1.3428
        vertex -5.0972 -0.1000 -1.3428
        vertex -5.2400 -0.1000 -1.7200
    endloop
endfacet
facet normal 0.0000 -2.9233 0.0000
    outer loop
        vertex -5.2400 -0.1000 -1.7200
        vertex -4.0000 -0.1000 -1.7200
        vertex -4.7132 -0.1000 -1.3428
    endloop
endfacet
facet normal 0.0000 -4.0848 0.0000
    outer loop
        vertex -5.5280 -0.1000 -0.8428
        vertex -5.8800 -0.1000 -2.0400
        vertex -5.2400 -0.1000 -1.7200
    endloop
endfacet
facet normal 0.0000 -1.4619 0.0000
    outer loop
        vertex -5.2400 -0.1000 -1.7200
        vertex -5.0972 -0.1000 -1.3428
        vertex -5.5280 -0.1000 -0.8428
    endloop
endfacet
facet normal 0.0000 -5.6162 0.0000
    outer loop
        vertex -4.0000 -0.1000 -1.7200
        vertex -3.0400 -0.1000 -1.5200
        vertex -4.2824 -0.1000 -0.8428
    endloop
endfacet
facet normal 0.0000 -3.2444 0.0000
    outer loop
        vertex -4.2824 -0.1000 -0.8428
        vertex -4.7132 -0.1000 -1.3428
        vertex -4.0000 -0.1000 -1.7200
    endloop
endfacet
facet normal 0.0000 -0.0670 0.0000
    outer loop
        vertex -5.5012 -0.1000 -0.7384
        vertex -5.5280 -0.1000 -0.8428
        vertex -5.3964 -0.1000 -0.7300
    endloop
endfacet
facet normal 0.0000 -11.2502 0.0000
    outer loop
        vertex -3.0400 -0.1000 -1.5200
        vertex -2.9896 -0.1000 -0.1328
        vertex -4.3092 -0.1000 -0.7384
    endloop
endfacet
facet normal 0.0000 -0.6972 0.0000
    outer loop
        vertex -4.3092 -0.1000 -0.7384
        vertex -4.2824 -0.1000 -0.8428
        vertex -3.0400 -0.1000 -1.5200
    endloop
endfacet
facet normal 0.0000 -10.1037 0.0000
    outer loop
        vertex -2.9896 -0.1000 -0.1328
        vertex -3.0400 -0.1000 -1.5200
        vertex -1.8260 -0.1000 -0.1812
    endloop
endfacet
facet normal 0.0000 -0.3500 0.0000
    outer loop
        vertex -5.8800 -0.1000 -2.3200
        vertex -5.8800 -0.1000 -2.0400
        vertex -6.0800 -0.1000 2.8800
    endloop
endfacet
facet normal 0.0000 -7.2000 0.0000
    outer loop
        vertex -6.0800 -0.1000 2.8800
        vertex -6.0800 -0.1000 -2.8800
        vertex -5.8800 -0.1000 -2.3200
    endloop
endfacet
facet normal 0.0000 -0.0291 0.0000
    outer loop
        vertex -5.8800 -0.1000 -2.0400
        vertex -5.5280 -0.1000 -0.8428
        vertex -5.5012 -0.1000 -0.7384
    endloop
endfacet
facet normal 0.0000 -9.1033 0.0000
    outer loop
        vertex -5.5012 -0.1000 -0.7384
        vertex -5.8000 -0.1000 2.0800
        vertex -5.8800 -0.1000 -2.0400
    endloop
endfacet
facet normal 0.0000 -7.6100 0.0000
    outer loop
        vertex -6.0800 -0.1000 2.8800
        vertex -5.8800 -0.1000 -2.0400
        vertex -5.8000 -0.1000 2.0800
    endloop
endfacet
facet normal 0.0000 -1.3752 0.0000
    outer loop
        vertex -5.3800 -0.1000 -0.3248
        vertex -5.2060 -0.1000 0.3964
        vertex -5.2400 -0.1000 1.5200
    endloop
endfacet
facet normal 0.0000 -6.9468 0.0000
    outer loop
        vertex -5.2400 -0.1000 1.5200
        vertex -5.8000 -0.1000 2.0800
        vertex -5.3800 -0.1000 -0.3248
    endloop
endfacet
facet normal 0.0000 -2.5787 0.0000
    outer loop
        vertex -5.8000 -0.1000 2.0800
        vertex -5.5012 -0.1000 -0.7384
        vertex -5.3800 -0.1000 -0.5008
    endloop
endfacet
facet normal 0.0000 -0.4620 0.0000
    outer loop
        vertex -5.3800 -0.1000 -0.5008
        vertex -5.3800 -0.1000 -0.3248
        vertex -5.8000 -0.1000 2.0800
    endloop
endfacet
facet normal 0.0000 -13.9047 0.0000
    outer loop
        vertex -5.2060 -0.1000 0.3964
        vertex -3.7556 -0.1000 0.8352
        vertex -5.2400 -0.1000 1.9200
    endloop
endfacet
facet normal 0.0000 -0.0850 0.0000
    outer loop
        vertex -5.2400 -0.1000 1.9200
        vertex -5.2400 -0.1000 1.5200
        vertex -5.2060 -0.1000 0.3964
    endloop
endfacet
facet normal 0.0000 -5.4240 0.0000
    outer loop
        vertex -4.4400 -0.1000 1.9200
        vertex -5.2400 -0.1000 1.9200
        vertex -3.7556 -0.1000 0.8352
    endloop
endfacet
facet normal 0.0000 -12.5382 0.0000
    outer loop
        vertex -3.7556 -0.1000 0.8352
        vertex -1.9964 -0.1000 0.9780
        vertex -4.4400 -0.1000 1.9200
    endloop
endfacet
facet normal 0.0000 -8.7200 0.0000
    outer loop
        vertex -0.0800 -0.1000 2.8800
        vertex -4.4400 -0.1000 2.2400
        vertex -4.4400 -0.1000 1.9200
    endloop
endfacet
facet normal 0.0000 -40.3311 0.0000
    outer loop
        vertex -4.4400 -0.1000 1.9200
        vertex -1.9964 -0.1000 0.9780
        vertex -0.0800 -0.1000 2.8800
    endloop
endfacet
facet normal 0.0000 -14.1000 0.0000
    outer loop
        vertex -5.2400 -0.1000 2.6400
        vertex -4.4400 -0.1000 2.2400
        vertex -0.0800 -0.1000 2.8800
    endloop
endfacet
facet normal 0.0000 -9.0000 0.0000
    outer loop
        vertex -0.0800 -0.1000 2.8800
        vertex -6.0800 -0.1000 2.8800
        vertex -5.2400 -0.1000 2.6400
    endloop
endfacet
facet normal 0.0000 -2.0000 0.0000
    outer loop
        vertex -5.2400 -0.1000 2.6400
        vertex -5.2400 -0.1000 2.2400
        vertex -4.4400 -0.1000 2.2400
    endloop
endfacet
facet normal 0.0000 -3.7800 0.0000
    outer loop
        vertex -6.0800 -0.1000 2.8800
        vertex -5.8000 -0.1000 2.0800
        vertex -5.2400 -0.1000 2.6400
    endloop
endfacet
facet normal 0.0000 -9.0000 0.0000
    outer loop
        vertex 0.0800 -0.1000 2.8800
        vertex 5.2400 -0.1000 2.6400
        vertex 6.0800 -0.1000 2.8800
    endloop
endfacet
facet normal 0.0000 -3.2000 0.0000
    outer loop
        vertex 0.0800 -0.1000 2.8800
        vertex 4.4400 -0.1000 2.2400
        vertex 5.2400 -0.1000 2.2400
    endloop
endfacet
facet normal 0.0000 -12.9000 0.0000
    outer loop
        vertex 5.2400 -0.1000 2.2400
        vertex 5.2400 -0.1000 2.6400
        vertex 0.0800 -0.1000 2.8800
    endloop
endfacet
facet normal 0.0000 -46.1032 0.0000
    outer loop
        vertex 2.4844 -0.1000 0.8352
        vertex 4.4400 -0.1000 2.2400
        vertex 0.0800 -0.1000 2.8800
    endloop
endfacet
facet normal 0.0000 -25.1302 0.0000
    outer loop
        vertex 0.0800 -0.1000 2.8800
        vertex 1.0340 -0.1000 0.3964
        vertex 2.4844 -0.1000 0.8352
    endloop
endfacet
facet normal 0.0000 -0.3928 0.0000
    outer loop
        vertex 4.2436 -0.1000 0.9780
        vertex 4.4400 -0.1000 1.9200
        vertex 4.4400 -0.1000 2.2400
    endloop
endfacet
facet normal 0.0000 -13.7004 0.0000
    outer loop
        vertex 4.4400 -0.1000 2.2400
        vertex 2.4844 -0.1000 0.8352
        vertex 4.2436 -0.1000 0.9780
    endloop
endfacet
facet normal 0.0000 -2.0000 0.0000
    outer loop
        vertex 5.2400 -0.1000 1.5200
        vertex 5.2400 -0.1000 1.9200
        vertex 4.4400 -0.1000 1.9200
    endloop
endfacet
facet normal 0.0000 -5.2010 0.0000
    outer loop
        vertex 4.4400 -0.1000 1.9200
        vertex 4.2436 -0.1000 0.9780
        vertex 5.2400 -0.1000 1.5200
    endloop
endfacet
facet normal 0.0000 -14.8912 0.0000
    outer loop
        vertex 4.2436 -0.1000 0.9780
        vertex 5.2400 -0.1000 -0.8712
        vertex 5.2400 -0.1000 1.5200
    endloop
endfacet
facet normal 0.0000 -8.3692 0.0000
    outer loop
        vertex 5.2400 -0.1000 -0.8712
        vertex 5.8000 -0.1000 2.0800
        vertex 5.2400 -0.1000 1.5200
    endloop
endfacet
facet normal 0.0000 -1.4598 0.0000
    outer loop
        vertex 5.2400 -0.1000 -0.8712
        vertex 5.2400 -0.1000 -1.5200
        vertex 5.6000 -0.1000 -1.5200
    endloop
endfacet
facet normal 0.0000 -8.9110 0.0000
    outer loop
        vertex 5.6000 -0.1000 -1.5200
        vertex 5.8000 -0.1000 2.0800
        vertex 5.2400 -0.1000 -0.8712
    endloop
endfacet
facet normal 0.0000 -5.3000 0.0000
    outer loop
        vertex 5.8000 -0.1000 2.0800
        vertex 5.6000 -0.1000 -1.5200
        vertex 6.0800 -0.1000 2.8800
    endloop
endfacet
facet normal 0.0000 -17.2800 0.0000
    outer loop
        vertex 6.0800 -0.1000 -2.8800
        vertex 6.0800 -0.1000 2.8800
        vertex 5.6000 -0.1000 -1.5200
    endloop
endfacet
facet normal 0.0000 -3.0000 0.0000
    outer loop
        vertex 5.6000 -0.1000 -1.5200
        vertex 5.6000 -0.1000 -2.5200
        vertex 6.0800 -0.1000 -2.8800
    endloop
endfacet
facet normal 0.0000 -3.7800 0.0000
    outer loop
        vertex 6.0800 -0.1000 2.8800
        vertex 5.2400 -0.1000 2.6400
        vertex 5.8000 -0.1000 2.0800
    endloop
endfacet
endsolid GiantLegoRocks
