solid GiantLegoRocks
facet normal 0.0000 0.7500 0.0000
    outer loop
        vertex 7.6000 0.0000 4.4000
        vertex 7.6000 0.0000 -4.4000
        vertex -7.6000 0.0000 -4.4000
    endloop
endfacet
facet normal 0.0000 0.7500 0.0000
    outer loop
        vertex -7.6000 0.0000 -4.4000
        vertex -7.6000 0.0000 4.4000
        vertex 7.6000 0.0000 4.4000
    endloop
endfacet
facet normal 0.0000 -0.2500 22.0000
    outer loop
        vertex -7.6000 -0.1000 4.4000
        vertex 7.6000 -0.1000 4.4000
        vertex 7.6000 0.0000 4.4000
    endloop
endfacet
facet normal 0.0000 -0.2500 22.0000
    outer loop
        vertex 7.6000 0.0000 4.4000
        vertex -7.6000 0.0000 4.4000
        vertex -7.6000 -0.1000 4.4000
    endloop
endfacet
facet normal -38.0000 -0.2500 0.0000
    outer loop
        vertex -7.6000 -0.1000 -4.4000
        vertex -7.6000 -0.1000 4.4000
        vertex -7.6000 0.0000 4.4000
    endloop
endfacet
facet normal -38.0000 -0.2500 0.0000
    outer loop
        vertex -7.6000 0.0000 4.4000
        vertex -7.6000 0.0000 -4.4000
        vertex -7.6000 -0.1000 -4.4000
    endloop
endfacet
facet normal 0.0000 -0.2500 -22.0000
    outer loop
        vertex 7.6000 -0.1000 -4.4000
        vertex -7.6000 -0.1000 -4.4000
        vertex -7.6000 0.0000 -4.4000
    endloop
endfacet
facet normal 0.0000 -0.2500 -22.0000
    outer loop
        vertex -7.6000 0.0000 -4.4000
        vertex 7.6000 0.0000 -4.4000
        vertex 7.6000 -0.1000 -4.4000
    endloop
endfacet
facet normal 38.0000 -0.2500 0.0000
    outer loop
        vertex 7.6000 -0.1000 4.4000
        vertex 7.6000 -0.1000 -4.4000
        vertex 7.6000 0.0000 -4.4000
    endloop
endfacet
facet normal 38.0000 -0.2500 0.0000
    outer loop
        vertex 7.6000 0.0000 -4.4000
        vertex 7.6000 0.0000 4.4000
        vertex 7.6000 -0.1000 4.4000
    endloop
endfacet
facet normal 0.0000 -34.5600 0.0000
    outer loop
        vertex 6.0000 -0.1000 2.2000
        vertex 6.2400 -0.1000 3.4800
        vertex 1.9200 -0.1000 3.4800
    endloop
endfacet
facet normal 0.0000 -23.6800 0.0000
    outer loop
        vertex 1.9200 -0.1000 3.4800
        vertex 3.0400 -0.1000 2.2000
        vertex 6.0000 -0.1000 2.2000
    endloop
endfacet
facet normal 0.0000 -6.2800 0.0000
    outer loop
        vertex 2.9200 -0.1000 1.4400
        vertex 3.0400 -0.1000 2.2000
        vertex 1.9200 -0.1000 3.4800
    endloop
endfacet
facet normal 0.0000 -29.8900 0.0000
    outer loop
        vertex 1.9200 -0.1000 3.4800
        vertex 1.3600 -0.1000 -0.1600
        vertex 2.9200 -0.1000 1.4400
    endloop
endfacet
facet normal 0.0000 -6.8800 0.0000
    outer loop
        vertex 2.9200 -0.1000 1.4400
        vertex 1.3600 -0.1000 -0.1600
        vertex 2.3600 -0.1000 0.1600
    endloop
endfacet
facet normal 0.0000 -6.4400 0.0000
    outer loop
        vertex 2.3600 -0.1000 0.1600
        vertex 3.7600 -0.1000 1.5200
        vertex 2.9200 -0.1000 1.4400
    endloop
endfacet
facet normal 0.0000 -6.7700 0.0000
    outer loop
        vertex 3.7600 -0.1000 1.5200
        vertex 2.3600 -0.1000 0.1600
        vertex 3.2800 -0.1000 0.2800
    endloop
endfacet
facet normal 0.0000 -6.7500 0.0000
    outer loop
        vertex 3.2800 -0.1000 0.2800
        vertex 4.6000 -0.1000 1.4400
        vertex 3.7600 -0.1000 1.5200
    endloop
endfacet
facet normal 0.0000 -6.2100 0.0000
    outer loop
        vertex 4.6000 -0.1000 1.4400
        vertex 3.2800 -0.1000 0.2800
        vertex 4.0000 -0.1000 0.1600
    endloop
endfacet
facet normal 0.0000 -7.4300 0.0000
    outer loop
        vertex 4.0000 -0.1000 0.1600
        vertex 5.3600 -0.1000 1.0800
        vertex 4.6000 -0.1000 1.4400
    endloop
endfacet
facet normal 0.0000 -4.9100 0.0000
    outer loop
        vertex 5.3600 -0.1000 1.0800
        vertex 4.0000 -0.1000 0.1600
        vertex 4.4400 -0.1000 -0.1200
    endloop
endfacet
facet normal 0.0000 -7.2600 0.0000
    outer loop
        vertex 4.4400 -0.1000 -0.1200
        vertex 5.9600 -0.1000 0.6000
        vertex 5.3600 -0.1000 1.0800
    endloop
endfacet
facet normal 0.0000 -5.2600 0.0000
    outer loop
        vertex 5.9600 -0.1000 0.6000
        vertex 4.4400 -0.1000 -0.1200
        vertex 4.6800 -0.1000 -0.5600
    endloop
endfacet
facet normal 0.0000 -8.0200 0.0000
    outer loop
        vertex 4.6800 -0.1000 -0.5600
        vertex 6.3600 -0.1000 -0.0400
        vertex 5.9600 -0.1000 0.6000
    endloop
endfacet
facet normal 0.0000 -4.0400 0.0000
    outer loop
        vertex 6.3600 -0.1000 -0.0400
        vertex 4.6800 -0.1000 -0.5600
        vertex 4.7600 -0.1000 -0.9200
    endloop
endfacet
facet normal 0.0000 -8.2600 0.0000
    outer loop
        vertex 4.7600 -0.1000 -0.9200
        vertex 6.4800 -0.1000 -0.8000
        vertex 6.3600 -0.1000 -0.0400
    endloop
endfacet
facet normal 0.0000 -4.6400 0.0000
    outer loop
        vertex 6.4800 -0.1000 -0.8000
        vertex 4.7600 -0.1000 -0.9200
        vertex 4.6400 -0.1000 -1.3600
    endloop
endfacet
facet normal 0.0000 -8.7800 0.0000
    outer loop
        vertex 4.6400 -0.1000 -1.3600
        vertex 6.3600 -0.1000 -1.6000
        vertex 6.4800 -0.1000 -0.8000
    endloop
endfacet
facet normal 0.0000 -8.4000 0.0000
    outer loop
        vertex 5.9200 -0.1000 -2.3200
        vertex 6.3600 -0.1000 -1.6000
        vertex 4.6400 -0.1000 -1.3600
    endloop
endfacet
facet normal 0.0000 -5.1200 0.0000
    outer loop
        vertex 4.6400 -0.1000 -1.3600
        vertex 4.3200 -0.1000 -1.7600
        vertex 5.9200 -0.1000 -2.3200
    endloop
endfacet
facet normal 0.0000 -8.2400 0.0000
    outer loop
        vertex 5.2800 -0.1000 -2.9200
        vertex 5.9200 -0.1000 -2.3200
        vertex 4.3200 -0.1000 -1.7600
    endloop
endfacet
facet normal 0.0000 -4.9200 0.0000
    outer loop
        vertex 4.3200 -0.1000 -1.7600
        vertex 3.8400 -0.1000 -2.0000
        vertex 5.2800 -0.1000 -2.9200
    endloop
endfacet
facet normal 0.0000 -7.8400 0.0000
    outer loop
        vertex 4.4800 -0.1000 -3.2800
        vertex 5.2800 -0.1000 -2.9200
        vertex 3.8400 -0.1000 -2.0000
    endloop
endfacet
facet normal 0.0000 -6.7200 0.0000
    outer loop
        vertex 3.8400 -0.1000 -2.0000
        vertex 3.0400 -0.1000 -2.0800
        vertex 4.4800 -0.1000 -3.2800
    endloop
endfacet
facet normal 0.0000 -8.6400 0.0000
    outer loop
        vertex 3.5200 -0.1000 -3.4400
        vertex 4.4800 -0.1000 -3.2800
        vertex 3.0400 -0.1000 -2.0800
    endloop
endfacet
facet normal 0.0000 -7.4800 0.0000
    outer loop
        vertex 3.0400 -0.1000 -2.0800
        vertex 2.6400 -0.1000 -3.4400
        vertex 3.5200 -0.1000 -3.4400
    endloop
endfacet
facet normal 0.0000 -5.8800 0.0000
    outer loop
        vertex 2.6400 -0.1000 -3.4400
        vertex 3.0400 -0.1000 -2.0800
        vertex 2.3600 -0.1000 -2.0400
    endloop
endfacet
facet normal 0.0000 -6.0900 0.0000
    outer loop
        vertex 2.3600 -0.1000 -2.0400
        vertex 1.9200 -0.1000 -3.3200
        vertex 2.6400 -0.1000 -3.4400
    endloop
endfacet
facet normal 0.0000 -5.0300 0.0000
    outer loop
        vertex 1.9200 -0.1000 -3.3200
        vertex 2.3600 -0.1000 -2.0400
        vertex 1.8000 -0.1000 -1.8400
    endloop
endfacet
facet normal 0.0000 -6.0800 0.0000
    outer loop
        vertex 1.8000 -0.1000 -1.8400
        vertex 1.2400 -0.1000 -3.0400
        vertex 1.9200 -0.1000 -3.3200
    endloop
endfacet
facet normal 0.0000 -5.1600 0.0000
    outer loop
        vertex 1.2800 -0.1000 -1.4800
        vertex 1.2400 -0.1000 -3.0400
        vertex 1.8000 -0.1000 -1.8400
    endloop
endfacet
facet normal 0.0000 -87.4000 0.0000
    outer loop
        vertex 6.2400 -0.1000 3.4800
        vertex 7.6000 -0.1000 4.4000
        vertex -7.6000 -0.1000 4.4000
    endloop
endfacet
facet normal 0.0000 -24.8400 0.0000
    outer loop
        vertex -7.6000 -0.1000 4.4000
        vertex 1.9200 -0.1000 3.4800
        vertex 6.2400 -0.1000 3.4800
    endloop
endfacet
facet normal 0.0000 -9.5000 0.0000
    outer loop
        vertex 7.6000 -0.1000 4.4000
        vertex 6.2400 -0.1000 3.4800
        vertex 6.0000 -0.1000 2.2000
    endloop
endfacet
facet normal 0.0000 -15.4500 0.0000
    outer loop
        vertex 6.0000 -0.1000 2.2000
        vertex 5.9600 -0.1000 0.6000
        vertex 7.6000 -0.1000 4.4000
    endloop
endfacet
facet normal 0.0000 -6.1200 0.0000
    outer loop
        vertex 6.0000 -0.1000 2.2000
        vertex 5.3600 -0.1000 1.0800
        vertex 5.9600 -0.1000 0.6000
    endloop
endfacet
facet normal 0.0000 -6.7600 0.0000
    outer loop
        vertex 4.6000 -0.1000 1.4400
        vertex 5.3600 -0.1000 1.0800
        vertex 6.0000 -0.1000 2.2000
    endloop
endfacet
facet normal 0.0000 -14.0600 0.0000
    outer loop
        vertex 6.0000 -0.1000 2.2000
        vertex 3.0400 -0.1000 2.2000
        vertex 4.6000 -0.1000 1.4400
    endloop
endfacet
facet normal 0.0000 -3.2100 0.0000
    outer loop
        vertex 3.0400 -0.1000 2.2000
        vertex 3.7600 -0.1000 1.5200
        vertex 4.6000 -0.1000 1.4400
    endloop
endfacet
facet normal 0.0000 -3.9300 0.0000
    outer loop
        vertex 3.0400 -0.1000 2.2000
        vertex 2.9200 -0.1000 1.4400
        vertex 3.7600 -0.1000 1.5200
    endloop
endfacet
facet normal 0.0000 -16.0600 0.0000
    outer loop
        vertex 7.6000 -0.1000 4.4000
        vertex 5.9600 -0.1000 0.6000
        vertex 6.3600 -0.1000 -0.0400
    endloop
endfacet
facet normal 0.0000 -9.2200 0.0000
    outer loop
        vertex 7.6000 -0.1000 4.4000
        vertex 6.3600 -0.1000 -0.0400
        vertex 6.4800 -0.1000 -0.8000
    endloop
endfacet
facet normal 0.0000 -61.6000 0.0000
    outer loop
        vertex 6.4800 -0.1000 -0.8000
        vertex 7.6000 -0.1000 -4.4000
        vertex 7.6000 -0.1000 4.4000
    endloop
endfacet
facet normal 0.0000 -8.3000 0.0000
    outer loop
        vertex 6.4800 -0.1000 -0.8000
        vertex 6.3600 -0.1000 -1.6000
        vertex 7.6000 -0.1000 -4.4000
    endloop
endfacet
facet normal 0.0000 -13.2800 0.0000
    outer loop
        vertex 6.3600 -0.1000 -1.6000
        vertex 5.9200 -0.1000 -2.3200
        vertex 7.6000 -0.1000 -4.4000
    endloop
endfacet
facet normal 0.0000 -14.6200 0.0000
    outer loop
        vertex 5.9200 -0.1000 -2.3200
        vertex 5.2800 -0.1000 -2.9200
        vertex 7.6000 -0.1000 -4.4000
    endloop
endfacet
facet normal 0.0000 -12.6200 0.0000
    outer loop
        vertex 5.2800 -0.1000 -2.9200
        vertex 4.4800 -0.1000 -3.2800
        vertex 7.6000 -0.1000 -4.4000
    endloop
endfacet
facet normal 0.0000 -9.8400 0.0000
    outer loop
        vertex 4.4800 -0.1000 -3.2800
        vertex 3.5200 -0.1000 -3.4400
        vertex 7.6000 -0.1000 -4.4000
    endloop
endfacet
facet normal 0.0000 -91.2000 0.0000
    outer loop
        vertex -7.6000 -0.1000 -4.4000
        vertex 7.6000 -0.1000 -4.4000
        vertex 3.5200 -0.1000 -3.4400
    endloop
endfacet
facet normal 0.0000 -5.2800 0.0000
    outer loop
        vertex 3.5200 -0.1000 -3.4400
        vertex 2.6400 -0.1000 -3.4400
        vertex -7.6000 -0.1000 -4.4000
    endloop
endfacet
facet normal 0.0000 -12.0000 0.0000
    outer loop
        vertex 1.9200 -0.1000 -3.3200
        vertex -7.6000 -0.1000 -4.4000
        vertex 2.6400 -0.1000 -3.4400
    endloop
endfacet
facet normal 0.0000 -21.2500 0.0000
    outer loop
        vertex 1.2400 -0.1000 -3.0400
        vertex -7.6000 -0.1000 -4.4000
        vertex 1.9200 -0.1000 -3.3200
    endloop
endfacet
facet normal 0.0000 -85.8500 0.0000
    outer loop
        vertex 1.2800 -0.1000 -1.4800
        vertex -7.6000 -0.1000 -4.4000
        vertex 1.2400 -0.1000 -3.0400
    endloop
endfacet
facet normal 0.0000 -71.8000 0.0000
    outer loop
        vertex 1.3600 -0.1000 -0.1600
        vertex -7.6000 -0.1000 -4.4000
        vertex 1.2800 -0.1000 -1.4800
    endloop
endfacet
facet normal 0.0000 -8.0900 0.0000
    outer loop
        vertex 1.2800 -0.1000 -1.4800
        vertex 2.3600 -0.1000 0.1600
        vertex 1.3600 -0.1000 -0.1600
    endloop
endfacet
facet normal 0.0000 -7.7600 0.0000
    outer loop
        vertex 2.3600 -0.1000 0.1600
        vertex 1.2800 -0.1000 -1.4800
        vertex 1.8000 -0.1000 -1.8400
    endloop
endfacet
facet normal 0.0000 -11.0800 0.0000
    outer loop
        vertex 1.8000 -0.1000 -1.8400
        vertex 3.2800 -0.1000 0.2800
        vertex 2.3600 -0.1000 0.1600
    endloop
endfacet
facet normal 0.0000 -9.2700 0.0000
    outer loop
        vertex 3.2800 -0.1000 0.2800
        vertex 1.8000 -0.1000 -1.8400
        vertex 2.3600 -0.1000 -2.0400
    endloop
endfacet
facet normal 0.0000 -11.1300 0.0000
    outer loop
        vertex 2.3600 -0.1000 -2.0400
        vertex 4.0000 -0.1000 0.1600
        vertex 3.2800 -0.1000 0.2800
    endloop
endfacet
facet normal 0.0000 -9.7600 0.0000
    outer loop
        vertex 4.0000 -0.1000 0.1600
        vertex 2.3600 -0.1000 -2.0400
        vertex 3.0400 -0.1000 -2.0800
    endloop
endfacet
facet normal 0.0000 -7.8400 0.0000
    outer loop
        vertex 3.0400 -0.1000 -2.0800
        vertex 4.4400 -0.1000 -0.1200
        vertex 4.0000 -0.1000 0.1600
    endloop
endfacet
facet normal 0.0000 -9.1000 0.0000
    outer loop
        vertex 4.4400 -0.1000 -0.1200
        vertex 3.0400 -0.1000 -2.0800
        vertex 3.8400 -0.1000 -2.0000
    endloop
endfacet
facet normal 0.0000 -4.4700 0.0000
    outer loop
        vertex 3.8400 -0.1000 -2.0000
        vertex 4.6800 -0.1000 -0.5600
        vertex 4.4400 -0.1000 -0.1200
    endloop
endfacet
facet normal 0.0000 -3.0600 0.0000
    outer loop
        vertex 4.6800 -0.1000 -0.5600
        vertex 3.8400 -0.1000 -2.0000
        vertex 4.3200 -0.1000 -1.7600
    endloop
endfacet
facet normal 0.0000 -1.4100 0.0000
    outer loop
        vertex 4.3200 -0.1000 -1.7600
        vertex 4.7600 -0.1000 -0.9200
        vertex 4.6800 -0.1000 -0.5600
    endloop
endfacet
facet normal 0.0000 -0.5800 0.0000
    outer loop
        vertex 4.7600 -0.1000 -0.9200
        vertex 4.3200 -0.1000 -1.7600
        vertex 4.6400 -0.1000 -1.3600
    endloop
endfacet
facet normal 0.0000 -492.8000 0.0000
    outer loop
        vertex -7.6000 -0.1000 4.4000
        vertex -7.6000 -0.1000 -4.4000
        vertex 1.3600 -0.1000 -0.1600
    endloop
endfacet
facet normal 0.0000 -219.8000 0.0000
    outer loop
        vertex 1.3600 -0.1000 -0.1600
        vertex 1.9200 -0.1000 3.4800
        vertex -7.6000 -0.1000 4.4000
    endloop
endfacet
endsolid GiantLegoRocks
