solid GiantLegoRocks
facet normal 0.0000 0.7500 0.0000
    outer loop
        vertex 12.8000 0.0000 6.8000
        vertex 12.8000 0.0000 -6.8000
        vertex -12.8000 0.0000 -6.8000
    endloop
endfacet
facet normal 0.0000 0.7500 0.0000
    outer loop
        vertex -12.8000 0.0000 -6.8000
        vertex -12.8000 0.0000 6.8000
        vertex 12.8000 0.0000 6.8000
    endloop
endfacet
facet normal 0.0000 -0.2500 34.0000
    outer loop
        vertex -12.8000 -0.1000 6.8000
        vertex 12.8000 -0.1000 6.8000
        vertex 12.8000 0.0000 6.8000
    endloop
endfacet
facet normal 0.0000 -0.2500 34.0000
    outer loop
        vertex 12.8000 0.0000 6.8000
        vertex -12.8000 0.0000 6.8000
        vertex -12.8000 -0.1000 6.8000
    endloop
endfacet
facet normal -64.0000 -0.2500 0.0000
    outer loop
        vertex -12.8000 -0.1000 -6.8000
        vertex -12.8000 -0.1000 6.8000
        vertex -12.8000 0.0000 6.8000
    endloop
endfacet
facet normal -64.0000 -0.2500 0.0000
    outer loop
        vertex -12.8000 0.0000 6.8000
        vertex -12.8000 0.0000 -6.8000
        vertex -12.8000 -0.1000 -6.8000
    endloop
endfacet
facet normal 0.0000 -0.2500 -34.0000
    outer loop
        vertex 12.8000 -0.1000 -6.8000
        vertex -12.8000 -0.1000 -6.8000
        vertex -12.8000 0.0000 -6.8000
    endloop
endfacet
facet normal 0.0000 -0.2500 -34.0000
    outer loop
        vertex -12.8000 0.0000 -6.8000
        vertex 12.8000 0.0000 -6.8000
        vertex 12.8000 -0.1000 -6.8000
    endloop
endfacet
facet normal 64.0000 -0.2500 0.0000
    outer loop
        vertex 12.8000 -0.1000 6.8000
        vertex 12.8000 -0.1000 -6.8000
        vertex 12.8000 0.0000 -6.8000
    endloop
endfacet
facet normal 64.0000 -0.2500 0.0000
    outer loop
        vertex 12.8000 0.0000 -6.8000
        vertex 12.8000 0.0000 6.8000
        vertex 12.8000 -0.1000 6.8000
    endloop
endfacet
facet normal 0.0000 0.2742 0.0000
    outer loop
        vertex -8.4120 -0.1000 2.7640
        vertex -8.1240 -0.1000 2.7680
        vertex -7.8120 -0.1000 2.6200
    endloop
endfacet
facet normal 0.0000 0.6816 0.0000
    outer loop
        vertex -7.8120 -0.1000 2.6200
        vertex -8.6360 -0.1000 2.6360
        vertex -8.4120 -0.1000 2.7640
    endloop
endfacet
facet normal 0.0000 1.3408 0.0000
    outer loop
        vertex -8.6360 -0.1000 2.6360
        vertex -7.8120 -0.1000 2.6200
        vertex -7.6240 -0.1000 2.3560
    endloop
endfacet
facet normal 0.0000 1.9886 0.0000
    outer loop
        vertex -7.6240 -0.1000 2.3560
        vertex -8.8760 -0.1000 2.3880
        vertex -8.6360 -0.1000 2.6360
    endloop
endfacet
facet normal 0.0000 2.1581 0.0000
    outer loop
        vertex -8.8760 -0.1000 2.3880
        vertex -7.6240 -0.1000 2.3560
        vertex -7.6160 -0.1000 2.0800
    endloop
endfacet
facet normal 0.0000 2.5249 0.0000
    outer loop
        vertex -7.6160 -0.1000 2.0800
        vertex -8.9440 -0.1000 2.0840
        vertex -8.8760 -0.1000 2.3880
    endloop
endfacet
facet normal 0.0000 4.6405 0.0000
    outer loop
        vertex -8.9440 -0.1000 2.0840
        vertex -7.6160 -0.1000 2.0800
        vertex -8.6440 -0.1000 1.5240
    endloop
endfacet
facet normal 0.0000 0.3245 0.0000
    outer loop
        vertex -8.6440 -0.1000 1.5240
        vertex -8.8760 -0.1000 1.7840
        vertex -8.9440 -0.1000 2.0840
    endloop
endfacet
facet normal 0.0000 0.9360 0.0000
    outer loop
        vertex -8.6440 -0.1000 1.5240
        vertex -7.6160 -0.1000 2.0800
        vertex -7.4280 -0.1000 2.0360
    endloop
endfacet
facet normal 0.0000 1.8160 0.0000
    outer loop
        vertex -7.4280 -0.1000 2.0360
        vertex -8.3520 -0.1000 1.4080
        vertex -8.6440 -0.1000 1.5240
    endloop
endfacet
facet normal 0.0000 0.1930 0.0000
    outer loop
        vertex -7.4280 -0.1000 2.0360
        vertex -7.2680 -0.1000 2.1360
        vertex -6.9400 -0.1000 2.1480
    endloop
endfacet
facet normal 0.0000 0.5936 0.0000
    outer loop
        vertex -6.9400 -0.1000 2.1480
        vertex -6.5800 -0.1000 2.0360
        vertex -7.4280 -0.1000 2.0360
    endloop
endfacet
facet normal 0.0000 1.2720 0.0000
    outer loop
        vertex -7.4280 -0.1000 2.0360
        vertex -6.5800 -0.1000 2.0360
        vertex -6.2480 -0.1000 1.7960
    endloop
endfacet
facet normal 0.0000 7.0230 0.0000
    outer loop
        vertex -6.2480 -0.1000 1.7960
        vertex -8.2160 -0.1000 1.2440
        vertex -7.4280 -0.1000 2.0360
    endloop
endfacet
facet normal 0.0000 5.1300 0.0000
    outer loop
        vertex -8.2160 -0.1000 1.2440
        vertex -6.2480 -0.1000 1.7960
        vertex -6.0160 -0.1000 1.4440
    endloop
endfacet
facet normal 0.0000 1.5000 0.0000
    outer loop
        vertex -6.0160 -0.1000 1.4440
        vertex -8.2920 -0.1000 1.1280
        vertex -8.2160 -0.1000 1.2440
    endloop
endfacet
facet normal 0.0000 6.3048 0.0000
    outer loop
        vertex -8.2920 -0.1000 1.1280
        vertex -6.0160 -0.1000 1.4440
        vertex -5.9640 -0.1000 1.0080
    endloop
endfacet
facet normal 0.0000 3.4458 0.0000
    outer loop
        vertex -5.9640 -0.1000 1.0080
        vertex -8.3080 -0.1000 0.8920
        vertex -8.2920 -0.1000 1.1280
    endloop
endfacet
facet normal 0.0000 7.2084 0.0000
    outer loop
        vertex -8.3080 -0.1000 0.8920
        vertex -5.9640 -0.1000 1.0080
        vertex -6.0440 -0.1000 0.5120
    endloop
endfacet
facet normal 0.0000 0.4939 0.0000
    outer loop
        vertex -6.0440 -0.1000 0.5120
        vertex -7.9440 -0.1000 0.7960
        vertex -8.3080 -0.1000 0.8920
    endloop
endfacet
facet normal 0.0000 3.5779 0.0000
    outer loop
        vertex -7.9440 -0.1000 0.7960
        vertex -6.0440 -0.1000 0.5120
        vertex -6.2400 -0.1000 0.2400
    endloop
endfacet
facet normal 0.0000 1.0651 0.0000
    outer loop
        vertex -6.2400 -0.1000 0.2400
        vertex -7.5640 -0.1000 0.5720
        vertex -7.9440 -0.1000 0.7960
    endloop
endfacet
facet normal 0.0000 2.3682 0.0000
    outer loop
        vertex -7.5640 -0.1000 0.5720
        vertex -6.2400 -0.1000 0.2400
        vertex -6.4880 -0.1000 0.0160
    endloop
endfacet
facet normal 0.0000 1.9775 0.0000
    outer loop
        vertex -6.4880 -0.1000 0.0160
        vertex -7.3280 -0.1000 0.1560
        vertex -7.5640 -0.1000 0.5720
    endloop
endfacet
facet normal 0.0000 1.0920 0.0000
    outer loop
        vertex -7.3280 -0.1000 -0.0520
        vertex -7.3280 -0.1000 0.1560
        vertex -6.4880 -0.1000 0.0160
    endloop
endfacet
facet normal 0.0000 0.9600 0.0000
    outer loop
        vertex -6.4880 -0.1000 0.0160
        vertex -6.8480 -0.1000 -0.1960
        vertex -7.3280 -0.1000 -0.0520
    endloop
endfacet
facet normal 0.0000 0.2232 0.0000
    outer loop
        vertex -7.3280 -0.1000 -0.0520
        vertex -6.8480 -0.1000 -0.1960
        vertex -7.0960 -0.1000 -0.1960
    endloop
endfacet
facet normal 0.0000 0.4352 0.0000
    outer loop
        vertex -9.1640 -0.1000 -1.3800
        vertex -8.8320 -0.1000 -1.4800
        vertex -8.6120 -0.1000 -1.7560
    endloop
endfacet
facet normal 0.0000 1.1860 0.0000
    outer loop
        vertex -8.6120 -0.1000 -1.7560
        vertex -9.5160 -0.1000 -1.4840
        vertex -9.1640 -0.1000 -1.3800
    endloop
endfacet
facet normal 0.0000 0.9852 0.0000
    outer loop
        vertex -9.5160 -0.1000 -1.4840
        vertex -8.6120 -0.1000 -1.7560
        vertex -8.5800 -0.1000 -1.9400
    endloop
endfacet
facet normal 0.0000 2.1588 0.0000
    outer loop
        vertex -8.5800 -0.1000 -1.9400
        vertex -9.7480 -0.1000 -1.7400
        vertex -9.5160 -0.1000 -1.4840
    endloop
endfacet
facet normal 0.0000 1.9130 0.0000
    outer loop
        vertex -9.7480 -0.1000 -1.7400
        vertex -8.5800 -0.1000 -1.9400
        vertex -8.5920 -0.1000 -2.2000
    endloop
endfacet
facet normal 0.0000 1.9876 0.0000
    outer loop
        vertex -8.5920 -0.1000 -2.2000
        vertex -9.7960 -0.1000 -1.9960
        vertex -9.7480 -0.1000 -1.7400
    endloop
endfacet
facet normal 0.0000 2.3360 0.0000
    outer loop
        vertex -9.7960 -0.1000 -1.9960
        vertex -8.5920 -0.1000 -2.2000
        vertex -8.7480 -0.1000 -2.4840
    endloop
endfacet
facet normal 0.0000 1.5060 0.0000
    outer loop
        vertex -8.7480 -0.1000 -2.4840
        vertex -9.7400 -0.1000 -2.2520
        vertex -9.7960 -0.1000 -1.9960
    endloop
endfacet
facet normal 0.0000 1.2048 0.0000
    outer loop
        vertex -9.5960 -0.1000 -2.4800
        vertex -9.7400 -0.1000 -2.2520
        vertex -8.7480 -0.1000 -2.4840
    endloop
endfacet
facet normal 0.0000 0.7711 0.0000
    outer loop
        vertex -8.7480 -0.1000 -2.4840
        vertex -9.0640 -0.1000 -2.6280
        vertex -9.5960 -0.1000 -2.4800
    endloop
endfacet
facet normal 0.0000 0.1880 0.0000
    outer loop
        vertex -9.5960 -0.1000 -2.4800
        vertex -9.0640 -0.1000 -2.6280
        vertex -9.2960 -0.1000 -2.6200
    endloop
endfacet
facet normal 0.0000 4.9784 0.0000
    outer loop
        vertex -10.5000 -0.1000 3.9200
        vertex -9.2680 -0.1000 0.3280
        vertex -9.3800 -0.1000 0.0080
    endloop
endfacet
facet normal 0.0000 23.1800 0.0000
    outer loop
        vertex -9.3800 -0.1000 0.0080
        vertex -10.0200 -0.1000 -1.0680
        vertex -10.5000 -0.1000 3.9200
    endloop
endfacet
facet normal 0.0000 4.8356 0.0000
    outer loop
        vertex -10.5000 -0.1000 3.9200
        vertex -10.3040 -0.1000 4.3520
        vertex -9.2680 -0.1000 2.6880
    endloop
endfacet
facet normal 0.0000 18.1720 0.0000
    outer loop
        vertex -9.2680 -0.1000 2.6880
        vertex -9.2680 -0.1000 0.3280
        vertex -10.5000 -0.1000 3.9200
    endloop
endfacet
facet normal 0.0000 4.0625 0.0000
    outer loop
        vertex -10.3040 -0.1000 4.3520
        vertex -10.0840 -0.1000 4.6440
        vertex -9.1840 -0.1000 2.8840
    endloop
endfacet
facet normal 0.0000 2.1427 0.0000
    outer loop
        vertex -9.1840 -0.1000 2.8840
        vertex -9.2680 -0.1000 2.6880
        vertex -10.3040 -0.1000 4.3520
    endloop
endfacet
facet normal 0.0000 6.2588 0.0000
    outer loop
        vertex -10.0840 -0.1000 4.6440
        vertex -9.6400 -0.1000 4.9280
        vertex -8.9280 -0.1000 3.1280
    endloop
endfacet
facet normal 0.0000 4.1885 0.0000
    outer loop
        vertex -8.9280 -0.1000 3.1280
        vertex -9.1840 -0.1000 2.8840
        vertex -10.0840 -0.1000 4.6440
    endloop
endfacet
facet normal 0.0000 3.8966 0.0000
    outer loop
        vertex -9.6400 -0.1000 4.9280
        vertex -9.3320 -0.1000 5.0320
        vertex -8.6680 -0.1000 3.2320
    endloop
endfacet
facet normal 0.0000 3.3878 0.0000
    outer loop
        vertex -8.6680 -0.1000 3.2320
        vertex -8.9280 -0.1000 3.1280
        vertex -9.6400 -0.1000 4.9280
    endloop
endfacet
facet normal 0.0000 0.9008 0.0000
    outer loop
        vertex -5.9800 -0.1000 2.1120
        vertex -5.2760 -0.1000 2.6360
        vertex -5.4040 -0.1000 2.3360
    endloop
endfacet
facet normal 0.0000 0.2552 0.0000
    outer loop
        vertex -5.4040 -0.1000 2.3360
        vertex -5.6640 -0.1000 2.1640
        vertex -5.9800 -0.1000 2.1120
    endloop
endfacet
facet normal 0.0000 1.9425 0.0000
    outer loop
        vertex -6.3120 -0.1000 2.1960
        vertex -5.2760 -0.1000 2.9360
        vertex -5.2760 -0.1000 2.6360
    endloop
endfacet
facet normal 0.0000 1.4569 0.0000
    outer loop
        vertex -5.2760 -0.1000 2.6360
        vertex -5.9800 -0.1000 2.1120
        vertex -6.3120 -0.1000 2.1960
    endloop
endfacet
facet normal 0.0000 3.3114 0.0000
    outer loop
        vertex -6.5440 -0.1000 2.3960
        vertex -5.4400 -0.1000 3.2840
        vertex -5.2760 -0.1000 2.9360
    endloop
endfacet
facet normal 0.0000 2.3680 0.0000
    outer loop
        vertex -5.2760 -0.1000 2.9360
        vertex -6.3120 -0.1000 2.1960
        vertex -6.5440 -0.1000 2.3960
    endloop
endfacet
facet normal 0.0000 2.5399 0.0000
    outer loop
        vertex -6.6720 -0.1000 2.6240
        vertex -5.6600 -0.1000 3.4960
        vertex -5.4400 -0.1000 3.2840
    endloop
endfacet
facet normal 0.0000 2.2836 0.0000
    outer loop
        vertex -5.4400 -0.1000 3.2840
        vertex -6.5440 -0.1000 2.3960
        vertex -6.6720 -0.1000 2.6240
    endloop
endfacet
facet normal 0.0000 1.2800 0.0000
    outer loop
        vertex -6.6840 -0.1000 2.9000
        vertex -5.6600 -0.1000 3.6960
        vertex -5.6600 -0.1000 3.4960
    endloop
endfacet
facet normal 0.0000 1.8111 0.0000
    outer loop
        vertex -5.6600 -0.1000 3.4960
        vertex -6.6720 -0.1000 2.6240
        vertex -6.6840 -0.1000 2.9000
    endloop
endfacet
facet normal 0.0000 7.8162 0.0000
    outer loop
        vertex -7.8280 -0.1000 3.2320
        vertex -5.6600 -0.1000 3.6960
        vertex -6.6840 -0.1000 2.9000
    endloop
endfacet
facet normal 0.0000 2.3738 0.0000
    outer loop
        vertex -6.6840 -0.1000 2.9000
        vertex -7.8280 -0.1000 2.9000
        vertex -7.8280 -0.1000 3.2320
    endloop
endfacet
facet normal 0.0000 2.6888 0.0000
    outer loop
        vertex -8.6680 -0.1000 3.2320
        vertex -5.5240 -0.1000 3.8600
        vertex -5.6600 -0.1000 3.6960
    endloop
endfacet
facet normal 0.0000 2.4360 0.0000
    outer loop
        vertex -5.6600 -0.1000 3.6960
        vertex -7.8280 -0.1000 3.2320
        vertex -8.6680 -0.1000 3.2320
    endloop
endfacet
facet normal 0.0000 105.2163 0.0000
    outer loop
        vertex -9.3320 -0.1000 5.0320
        vertex 5.0320 -0.1000 5.0320
        vertex -1.7280 -0.1000 3.8600
    endloop
endfacet
facet normal 0.0000 2.9593 0.0000
    outer loop
        vertex -1.7280 -0.1000 3.8600
        vertex -2.1320 -0.1000 3.8600
        vertex -9.3320 -0.1000 5.0320
    endloop
endfacet
facet normal 0.0000 4.9174 0.0000
    outer loop
        vertex -1.2920 -0.1000 3.7280
        vertex 5.0320 -0.1000 4.1920
        vertex 4.6560 -0.1000 4.0400
    endloop
endfacet
facet normal 0.0000 10.9472 0.0000
    outer loop
        vertex 4.6560 -0.1000 4.0400
        vertex -1.0160 -0.1000 3.4480
        vertex -1.2920 -0.1000 3.7280
    endloop
endfacet
facet normal 0.0000 1.3564 0.0000
    outer loop
        vertex -12.8000 -0.1000 6.8000
        vertex -11.1600 -0.1000 6.1480
        vertex -11.3520 -0.1000 6.0920
    endloop
endfacet
facet normal 0.0000 104.3200 0.0000
    outer loop
        vertex -12.8000 -0.1000 6.8000
        vertex 12.8000 -0.1000 6.8000
        vertex 11.6400 -0.1000 6.1480
    endloop
endfacet
facet normal 0.0000 92.9100 0.0000
    outer loop
        vertex 11.6400 -0.1000 6.1480
        vertex -11.1600 -0.1000 6.1480
        vertex -12.8000 -0.1000 6.8000
    endloop
endfacet
facet normal 0.0000 1.9530 0.0000
    outer loop
        vertex 12.8000 -0.1000 6.8000
        vertex 11.9200 -0.1000 6.0360
        vertex 11.6400 -0.1000 6.1480
    endloop
endfacet
facet normal 0.0000 52.3600 0.0000
    outer loop
        vertex 12.1840 -0.1000 5.6040
        vertex 12.8000 -0.1000 6.8000
        vertex 12.8000 -0.1000 -6.8000
    endloop
endfacet
facet normal 0.0000 42.5810 0.0000
    outer loop
        vertex 12.8000 -0.1000 -6.8000
        vertex 12.1840 -0.1000 -5.4560
        vertex 12.1840 -0.1000 5.6040
    endloop
endfacet
facet normal 0.0000 1.5316 0.0000
    outer loop
        vertex 12.1840 -0.1000 -5.4560
        vertex 12.8000 -0.1000 -6.8000
        vertex 12.1080 -0.1000 -5.6880
    endloop
endfacet
facet normal 0.0000 128.6400 0.0000
    outer loop
        vertex 12.8000 -0.1000 -6.8000
        vertex -12.8000 -0.1000 -6.8000
        vertex -11.1920 -0.1000 -5.9960
    endloop
endfacet
facet normal 0.0000 114.7308 0.0000
    outer loop
        vertex -11.1920 -0.1000 -5.9960
        vertex 11.6400 -0.1000 -5.9960
        vertex 12.8000 -0.1000 -6.8000
    endloop
endfacet
facet normal 0.0000 1.8291 0.0000
    outer loop
        vertex -11.4200 -0.1000 -5.9280
        vertex -11.1920 -0.1000 -5.9960
        vertex -12.8000 -0.1000 -6.8000
    endloop
endfacet
facet normal 0.0000 98.2600 0.0000
    outer loop
        vertex -12.8000 -0.1000 -6.8000
        vertex -12.8000 -0.1000 6.8000
        vertex -11.6440 -0.1000 5.7240
    endloop
endfacet
facet normal 0.0000 80.5732 0.0000
    outer loop
        vertex -11.6440 -0.1000 5.7240
        vertex -11.6440 -0.1000 -5.4280
        vertex -12.8000 -0.1000 -6.8000
    endloop
endfacet
facet normal 0.0000 1.5908 0.0000
    outer loop
        vertex -11.6440 -0.1000 5.7240
        vertex -11.5120 -0.1000 5.9720
        vertex -11.0520 -0.1000 4.9080
    endloop
endfacet
facet normal 0.0000 1.5032 0.0000
    outer loop
        vertex -11.0520 -0.1000 4.9080
        vertex -11.1320 -0.1000 4.6120
        vertex -11.6440 -0.1000 5.7240
    endloop
endfacet
facet normal 0.0000 1.3150 0.0000
    outer loop
        vertex -11.5120 -0.1000 5.9720
        vertex -11.3520 -0.1000 6.0920
        vertex -10.8200 -0.1000 5.1760
    endloop
endfacet
facet normal 0.0000 2.3133 0.0000
    outer loop
        vertex -10.8200 -0.1000 5.1760
        vertex -11.0520 -0.1000 4.9080
        vertex -11.5120 -0.1000 5.9720
    endloop
endfacet
facet normal 0.0000 1.3256 0.0000
    outer loop
        vertex -11.3520 -0.1000 6.0920
        vertex -11.1600 -0.1000 6.1480
        vertex -10.4720 -0.1000 5.2440
    endloop
endfacet
facet normal 0.0000 2.2184 0.0000
    outer loop
        vertex -10.4720 -0.1000 5.2440
        vertex -10.8200 -0.1000 5.1760
        vertex -11.3520 -0.1000 6.0920
    endloop
endfacet
facet normal 0.0000 128.8200 0.0000
    outer loop
        vertex -11.1600 -0.1000 6.1480
        vertex 11.6400 -0.1000 6.1480
        vertex 10.8000 -0.1000 5.2440
    endloop
endfacet
facet normal 0.0000 120.1868 0.0000
    outer loop
        vertex 10.8000 -0.1000 5.2440
        vertex -10.4720 -0.1000 5.2440
        vertex -11.1600 -0.1000 6.1480
    endloop
endfacet
facet normal 0.0000 2.1700 0.0000
    outer loop
        vertex 10.8000 -0.1000 5.2440
        vertex 11.6400 -0.1000 6.1480
        vertex 11.9200 -0.1000 6.0360
    endloop
endfacet
facet normal 0.0000 1.6974 0.0000
    outer loop
        vertex 11.9200 -0.1000 6.0360
        vertex 11.0920 -0.1000 5.2080
        vertex 10.8000 -0.1000 5.2440
    endloop
endfacet
facet normal 0.0000 1.8009 0.0000
    outer loop
        vertex 11.0920 -0.1000 5.2080
        vertex 11.9200 -0.1000 6.0360
        vertex 12.1000 -0.1000 5.8680
    endloop
endfacet
facet normal 0.0000 1.4499 0.0000
    outer loop
        vertex 12.1000 -0.1000 5.8680
        vertex 11.2480 -0.1000 5.0800
        vertex 11.0920 -0.1000 5.2080
    endloop
endfacet
facet normal 0.0000 1.8195 0.0000
    outer loop
        vertex 11.2480 -0.1000 5.0800
        vertex 12.1000 -0.1000 5.8680
        vertex 12.1840 -0.1000 5.6040
    endloop
endfacet
facet normal 0.0000 1.4479 0.0000
    outer loop
        vertex 12.1840 -0.1000 5.6040
        vertex 11.3400 -0.1000 4.8840
        vertex 11.2480 -0.1000 5.0800
    endloop
endfacet
facet normal 0.0000 10.8413 0.0000
    outer loop
        vertex 11.3400 -0.1000 4.8840
        vertex 12.1840 -0.1000 5.6040
        vertex 11.6720 -0.1000 3.1120
    endloop
endfacet
facet normal 0.0000 2.5564 0.0000
    outer loop
        vertex 11.6720 -0.1000 3.1120
        vertex 11.3400 -0.1000 3.6520
        vertex 11.3400 -0.1000 4.8840
    endloop
endfacet
facet normal 0.0000 35.3920 0.0000
    outer loop
        vertex 11.6720 -0.1000 3.1120
        vertex 12.1840 -0.1000 5.6040
        vertex 12.1840 -0.1000 -5.4560
    endloop
endfacet
facet normal 0.0000 25.7920 0.0000
    outer loop
        vertex 12.1840 -0.1000 -5.4560
        vertex 11.6720 -0.1000 -4.9480
        vertex 11.6720 -0.1000 3.1120
    endloop
endfacet
facet normal 0.0000 1.3671 0.0000
    outer loop
        vertex 11.5720 -0.1000 -5.2760
        vertex 11.6720 -0.1000 -4.9480
        vertex 12.1840 -0.1000 -5.4560
    endloop
endfacet
facet normal 0.0000 0.9729 0.0000
    outer loop
        vertex 12.1840 -0.1000 -5.4560
        vertex 12.1080 -0.1000 -5.6880
        vertex 11.5720 -0.1000 -5.2760
    endloop
endfacet
facet normal 0.0000 1.3097 0.0000
    outer loop
        vertex 11.5720 -0.1000 -5.2760
        vertex 12.1080 -0.1000 -5.6880
        vertex 11.8960 -0.1000 -5.9160
    endloop
endfacet
facet normal 0.0000 1.3569 0.0000
    outer loop
        vertex 11.8960 -0.1000 -5.9160
        vertex 11.3320 -0.1000 -5.4720
        vertex 11.5720 -0.1000 -5.2760
    endloop
endfacet
facet normal 0.0000 0.8451 0.0000
    outer loop
        vertex 11.1240 -0.1000 -5.5480
        vertex 11.3320 -0.1000 -5.4720
        vertex 11.8960 -0.1000 -5.9160
    endloop
endfacet
facet normal 0.0000 0.9748 0.0000
    outer loop
        vertex 11.8960 -0.1000 -5.9160
        vertex 11.6400 -0.1000 -5.9960
        vertex 11.1240 -0.1000 -5.5480
    endloop
endfacet
facet normal 0.0000 63.9296 0.0000
    outer loop
        vertex 11.6400 -0.1000 -5.9960
        vertex -11.1920 -0.1000 -5.9960
        vertex -10.1720 -0.1000 -5.5480
    endloop
endfacet
facet normal 0.0000 59.6288 0.0000
    outer loop
        vertex -10.1720 -0.1000 -5.5480
        vertex 11.1240 -0.1000 -5.5480
        vertex 11.6400 -0.1000 -5.9960
    endloop
endfacet
facet normal 0.0000 0.9975 0.0000
    outer loop
        vertex -11.4200 -0.1000 -5.9280
        vertex -10.5920 -0.1000 -5.5480
        vertex -10.1720 -0.1000 -5.5480
    endloop
endfacet
facet normal 0.0000 1.0719 0.0000
    outer loop
        vertex -10.1720 -0.1000 -5.5480
        vertex -11.1920 -0.1000 -5.9960
        vertex -11.4200 -0.1000 -5.9280
    endloop
endfacet
facet normal 0.0000 0.7371 0.0000
    outer loop
        vertex -11.5720 -0.1000 -5.7720
        vertex -10.8560 -0.1000 -5.4880
        vertex -10.5920 -0.1000 -5.5480
    endloop
endfacet
facet normal 0.0000 1.1683 0.0000
    outer loop
        vertex -10.5920 -0.1000 -5.5480
        vertex -11.4200 -0.1000 -5.9280
        vertex -11.5720 -0.1000 -5.7720
    endloop
endfacet
facet normal 0.0000 0.8888 0.0000
    outer loop
        vertex -11.6440 -0.1000 -5.4280
        vertex -11.0600 -0.1000 -5.2920
        vertex -10.8560 -0.1000 -5.4880
    endloop
endfacet
facet normal 0.0000 1.6672 0.0000
    outer loop
        vertex -10.8560 -0.1000 -5.4880
        vertex -11.5720 -0.1000 -5.7720
        vertex -11.6440 -0.1000 -5.4280
    endloop
endfacet
facet normal 0.0000 0.9956 0.0000
    outer loop
        vertex -11.1320 -0.1000 -5.0360
        vertex -11.0600 -0.1000 -5.2920
        vertex -11.6440 -0.1000 -5.4280
    endloop
endfacet
facet normal 0.0000 30.8736 0.0000
    outer loop
        vertex -11.6440 -0.1000 5.7240
        vertex -11.1320 -0.1000 4.6120
        vertex -11.1320 -0.1000 -5.0360
    endloop
endfacet
facet normal 0.0000 35.6864 0.0000
    outer loop
        vertex -11.1320 -0.1000 -5.0360
        vertex -11.6440 -0.1000 -5.4280
        vertex -11.6440 -0.1000 5.7240
    endloop
endfacet
facet normal 0.0000 0.4646 0.0000
    outer loop
        vertex 11.0720 -0.1000 3.8640
        vertex 11.3400 -0.1000 3.6520
        vertex 11.6720 -0.1000 3.1120
    endloop
endfacet
facet normal 0.0000 1.8424 0.0000
    outer loop
        vertex 11.6720 -0.1000 3.1120
        vertex 11.2800 -0.1000 3.1120
        vertex 11.0720 -0.1000 3.8640
    endloop
endfacet
facet normal 0.0000 0.4272 0.0000
    outer loop
        vertex 10.0720 -0.1000 4.3680
        vertex 10.6600 -0.1000 4.1400
        vertex 11.0720 -0.1000 3.8640
    endloop
endfacet
facet normal 0.0000 4.0448 0.0000
    outer loop
        vertex 11.0720 -0.1000 3.8640
        vertex 11.2800 -0.1000 3.1120
        vertex 10.0720 -0.1000 4.3680
    endloop
endfacet
facet normal 0.0000 6.9564 0.0000
    outer loop
        vertex 5.0320 -0.1000 4.3680
        vertex 5.0320 -0.1000 4.1920
        vertex -1.2920 -0.1000 3.7280
    endloop
endfacet
facet normal 0.0000 6.9613 0.0000
    outer loop
        vertex -1.2920 -0.1000 3.7280
        vertex -1.7280 -0.1000 3.8600
        vertex 5.0320 -0.1000 4.3680
    endloop
endfacet
facet normal 0.0000 28.0540 0.0000
    outer loop
        vertex 5.0320 -0.1000 5.0320
        vertex 5.0320 -0.1000 4.3680
        vertex -1.7280 -0.1000 3.8600
    endloop
endfacet
facet normal 0.0000 5.5440 0.0000
    outer loop
        vertex 5.0320 -0.1000 4.1920
        vertex 5.0320 -0.1000 4.3680
        vertex 10.0720 -0.1000 4.3680
    endloop
endfacet
facet normal 0.0000 40.8928 0.0000
    outer loop
        vertex 10.0720 -0.1000 4.3680
        vertex 11.2800 -0.1000 3.1120
        vertex 5.0320 -0.1000 4.1920
    endloop
endfacet
facet normal 0.0000 28.1160 0.0000
    outer loop
        vertex 5.0320 -0.1000 4.1920
        vertex 11.2800 -0.1000 3.1120
        vertex 11.2800 -0.1000 2.3920
    endloop
endfacet
facet normal 0.0000 10.1656 0.0000
    outer loop
        vertex 11.2800 -0.1000 2.3920
        vertex 4.6560 -0.1000 4.0400
        vertex 5.0320 -0.1000 4.1920
    endloop
endfacet
facet normal 0.0000 19.8956 0.0000
    outer loop
        vertex 4.6560 -0.1000 4.0400
        vertex 11.2800 -0.1000 2.3920
        vertex 10.9240 -0.1000 2.0000
    endloop
endfacet
facet normal 0.0000 13.3475 0.0000
    outer loop
        vertex 10.9240 -0.1000 2.0000
        vertex 4.4080 -0.1000 3.7800
        vertex 4.6560 -0.1000 4.0400
    endloop
endfacet
facet normal 0.0000 30.3090 0.0000
    outer loop
        vertex 4.4080 -0.1000 3.7800
        vertex 10.9240 -0.1000 2.0000
        vertex 10.3960 -0.1000 1.4000
    endloop
endfacet
facet normal 0.0000 14.9893 0.0000
    outer loop
        vertex 10.3960 -0.1000 1.4000
        vertex 4.2960 -0.1000 3.4240
        vertex 4.4080 -0.1000 3.7800
    endloop
endfacet
facet normal 0.0000 0.3948 0.0000
    outer loop
        vertex 4.2960 -0.1000 3.4240
        vertex 4.2960 -0.1000 3.0480
        vertex 4.1280 -0.1000 3.0480
    endloop
endfacet
facet normal 0.0000 12.5084 0.0000
    outer loop
        vertex 4.1280 -0.1000 3.0480
        vertex -1.0160 -0.1000 3.4480
        vertex 4.2960 -0.1000 3.4240
    endloop
endfacet
facet normal 0.0000 14.3350 0.0000
    outer loop
        vertex 4.2960 -0.1000 3.4240
        vertex 10.3960 -0.1000 1.4000
        vertex 4.2960 -0.1000 3.0480
    endloop
endfacet
facet normal 0.0000 1.7304 0.0000
    outer loop
        vertex 4.1280 -0.1000 3.0480
        vertex 4.2960 -0.1000 3.0480
        vertex 10.3960 -0.1000 1.4000
    endloop
endfacet
facet normal 0.0000 301.0117 0.0000
    outer loop
        vertex 10.3960 -0.1000 1.4000
        vertex 1.3600 -0.1000 -3.9080
        vertex 4.1280 -0.1000 3.0480
    endloop
endfacet
facet normal 0.0000 387.8770 0.0000
    outer loop
        vertex -7.6080 -0.1000 -4.0240
        vertex 4.1280 -0.1000 3.0480
        vertex 1.3600 -0.1000 -3.9080
    endloop
endfacet
facet normal 0.0000 18.1350 0.0000
    outer loop
        vertex 1.3600 -0.1000 -3.9080
        vertex 1.0160 -0.1000 -4.2360
        vertex -7.6080 -0.1000 -4.0240
    endloop
endfacet
facet normal 0.0000 22.4682 0.0000
    outer loop
        vertex -7.6080 -0.1000 -4.0240
        vertex 1.0160 -0.1000 -4.2360
        vertex 0.6560 -0.1000 -4.6440
    endloop
endfacet
facet normal 0.0000 29.9835 0.0000
    outer loop
        vertex 0.6560 -0.1000 -4.6440
        vertex -8.1480 -0.1000 -4.5640
        vertex -7.6080 -0.1000 -4.0240
    endloop
endfacet
facet normal 0.0000 28.2488 0.0000
    outer loop
        vertex -8.1480 -0.1000 -4.5640
        vertex 0.6560 -0.1000 -4.6440
        vertex 0.5040 -0.1000 -5.1560
    endloop
endfacet
facet normal 0.0000 33.3444 0.0000
    outer loop
        vertex 0.5040 -0.1000 -5.1560
        vertex -8.5080 -0.1000 -5.1560
        vertex -8.1480 -0.1000 -4.5640
    endloop
endfacet
facet normal 0.0000 5.4498 0.0000
    outer loop
        vertex 10.9080 -0.1000 0.4560
        vertex 11.2800 -0.1000 0.8600
        vertex 11.2800 -0.1000 -1.4840
    endloop
endfacet
facet normal 0.0000 4.8997 0.0000
    outer loop
        vertex 11.2800 -0.1000 -1.4840
        vertex 10.9480 -0.1000 -1.8600
        vertex 10.9080 -0.1000 0.4560
    endloop
endfacet
facet normal 0.0000 8.8020 0.0000
    outer loop
        vertex 10.3080 -0.1000 -0.0120
        vertex 10.9080 -0.1000 0.4560
        vertex 10.9480 -0.1000 -1.8600
    endloop
endfacet
facet normal 0.0000 6.4402 0.0000
    outer loop
        vertex 10.9480 -0.1000 -1.8600
        vertex 10.5040 -0.1000 -2.1880
        vertex 10.3080 -0.1000 -0.0120
    endloop
endfacet
facet normal 0.0000 107.4846 0.0000
    outer loop
        vertex 2.7960 -0.1000 -4.3560
        vertex 10.3080 -0.1000 -0.0120
        vertex 10.5040 -0.1000 -2.1880
    endloop
endfacet
facet normal 0.0000 55.4947 0.0000
    outer loop
        vertex 10.5040 -0.1000 -2.1880
        vertex 6.7920 -0.1000 -4.3840
        vertex 2.7960 -0.1000 -4.3560
    endloop
endfacet
facet normal 0.0000 9.0778 0.0000
    outer loop
        vertex 2.7960 -0.1000 -4.3560
        vertex 6.7920 -0.1000 -4.3840
        vertex 6.2960 -0.1000 -4.7440
    endloop
endfacet
facet normal 0.0000 4.7628 0.0000
    outer loop
        vertex 6.2960 -0.1000 -4.7440
        vertex 2.6000 -0.1000 -4.5520
        vertex 2.7960 -0.1000 -4.3560
    endloop
endfacet
facet normal 0.0000 4.2300 0.0000
    outer loop
        vertex 2.5400 -0.1000 -4.7320
        vertex 2.6000 -0.1000 -4.5520
        vertex 6.2960 -0.1000 -4.7440
    endloop
endfacet
facet normal 0.0000 9.6909 0.0000
    outer loop
        vertex 6.2960 -0.1000 -4.7440
        vertex 6.0400 -0.1000 -5.1560
        vertex 2.5400 -0.1000 -4.7320
    endloop
endfacet
facet normal 0.0000 9.3492 0.0000
    outer loop
        vertex 2.5400 -0.1000 -4.7320
        vertex 6.0400 -0.1000 -5.1560
        vertex 2.5120 -0.1000 -5.1560
    endloop
endfacet
facet normal 0.0000 9.3800 0.0000
    outer loop
        vertex -1.0160 -0.1000 3.4480
        vertex 4.1280 -0.1000 3.0480
        vertex 0.3760 -0.1000 3.0480
    endloop
endfacet
facet normal 0.0000 3.1600 0.0000
    outer loop
        vertex -1.0160 -0.1000 3.4480
        vertex 0.3760 -0.1000 3.0480
        vertex -0.8880 -0.1000 3.0480
    endloop
endfacet
facet normal 0.0000 0.5175 0.0000
    outer loop
        vertex -1.0360 -0.1000 2.8000
        vertex -0.8880 -0.1000 3.0480
        vertex -0.9480 -0.1000 2.3880
    endloop
endfacet
facet normal 0.0000 0.0916 0.0000
    outer loop
        vertex -0.9480 -0.1000 2.3880
        vertex -1.0280 -0.1000 2.5960
        vertex -1.0360 -0.1000 2.8000
    endloop
endfacet
facet normal 0.0000 5.2140 0.0000
    outer loop
        vertex -0.8880 -0.1000 3.0480
        vertex 0.3760 -0.1000 3.0480
        vertex 0.3760 -0.1000 2.3880
    endloop
endfacet
facet normal 0.0000 5.4615 0.0000
    outer loop
        vertex 0.3760 -0.1000 2.3880
        vertex -0.9480 -0.1000 2.3880
        vertex -0.8880 -0.1000 3.0480
    endloop
endfacet
facet normal 0.0000 15.5566 0.0000
    outer loop
        vertex -10.5000 -0.1000 3.9200
        vertex -10.0200 -0.1000 -1.0680
        vertex -10.4120 -0.1000 -2.1800
    endloop
endfacet
facet normal 0.0000 3.3550 0.0000
    outer loop
        vertex -10.4120 -0.1000 -2.1800
        vertex -10.5000 -0.1000 -2.1800
        vertex -10.5000 -0.1000 3.9200
    endloop
endfacet
facet normal 0.0000 2.7244 0.0000
    outer loop
        vertex -10.0200 -0.1000 -1.0680
        vertex -10.0200 -0.1000 -2.1800
        vertex -10.4120 -0.1000 -2.1800
    endloop
endfacet
facet normal 0.0000 0.9782 0.0000
    outer loop
        vertex -9.2600 -0.1000 -0.7760
        vertex -9.4840 -0.1000 -1.0680
        vertex -10.0200 -0.1000 -1.0680
    endloop
endfacet
facet normal 0.0000 1.3020 0.0000
    outer loop
        vertex -10.0200 -0.1000 -1.0680
        vertex -9.3800 -0.1000 -0.5480
        vertex -9.2600 -0.1000 -0.7760
    endloop
endfacet
facet normal 0.0000 0.5177 0.0000
    outer loop
        vertex -9.4840 -0.1000 -1.0680
        vertex -9.2600 -0.1000 -0.7760
        vertex -9.0960 -0.1000 -0.9320
    endloop
endfacet
facet normal 0.0000 0.3298 0.0000
    outer loop
        vertex -9.0960 -0.1000 -0.9320
        vertex -9.0960 -0.1000 -1.0680
        vertex -9.4840 -0.1000 -1.0680
    endloop
endfacet
facet normal 0.0000 0.6368 0.0000
    outer loop
        vertex -10.0200 -0.1000 -1.0680
        vertex -9.7480 -0.1000 -1.7400
        vertex -9.7960 -0.1000 -1.9960
    endloop
endfacet
facet normal 0.0000 1.5568 0.0000
    outer loop
        vertex -9.7960 -0.1000 -1.9960
        vertex -10.0200 -0.1000 -2.1800
        vertex -10.0200 -0.1000 -1.0680
    endloop
endfacet
facet normal 0.0000 0.4228 0.0000
    outer loop
        vertex -9.7960 -0.1000 -1.9960
        vertex -9.7400 -0.1000 -2.2520
        vertex -10.0200 -0.1000 -2.1800
    endloop
endfacet
facet normal 0.0000 0.1764 0.0000
    outer loop
        vertex -10.4120 -0.1000 -2.1800
        vertex -10.0200 -0.1000 -2.1800
        vertex -9.7400 -0.1000 -2.2520
    endloop
endfacet
facet normal 0.0000 2.6544 0.0000
    outer loop
        vertex -9.7400 -0.1000 -2.2520
        vertex -10.4120 -0.1000 -2.8120
        vertex -10.4120 -0.1000 -2.1800
    endloop
endfacet
facet normal 0.0000 2.3520 0.0000
    outer loop
        vertex -9.7400 -0.1000 -2.2520
        vertex -9.7400 -0.1000 -2.8120
        vertex -10.4120 -0.1000 -2.8120
    endloop
endfacet
facet normal 0.0000 0.9082 0.0000
    outer loop
        vertex -8.4880 -0.1000 -1.5480
        vertex -8.1320 -0.1000 -1.5400
        vertex -7.7680 -0.1000 -1.9400
    endloop
endfacet
facet normal 0.0000 1.9894 0.0000
    outer loop
        vertex -7.7680 -0.1000 -1.9400
        vertex -8.5800 -0.1000 -1.9400
        vertex -8.4880 -0.1000 -1.5480
    endloop
endfacet
facet normal 0.0000 1.4378 0.0000
    outer loop
        vertex -7.7680 -0.1000 -1.3080
        vertex -7.7680 -0.1000 -1.9400
        vertex -8.1320 -0.1000 -1.5400
    endloop
endfacet
facet normal 0.0000 0.1885 0.0000
    outer loop
        vertex -8.2920 -0.1000 1.1280
        vertex -8.3520 -0.1000 1.4080
        vertex -8.2400 -0.1000 1.3880
    endloop
endfacet
facet normal 0.0000 0.0858 0.0000
    outer loop
        vertex -8.2400 -0.1000 1.3880
        vertex -8.2160 -0.1000 1.2440
        vertex -8.2920 -0.1000 1.1280
    endloop
endfacet
facet normal 0.0000 1.0202 0.0000
    outer loop
        vertex -8.7120 -0.1000 0.9920
        vertex -8.6440 -0.1000 1.5240
        vertex -8.3520 -0.1000 1.4080
    endloop
endfacet
facet normal 0.0000 0.7860 0.0000
    outer loop
        vertex -8.3520 -0.1000 1.4080
        vertex -8.2920 -0.1000 1.1280
        vertex -8.7120 -0.1000 0.9920
    endloop
endfacet
facet normal 0.0000 0.8819 0.0000
    outer loop
        vertex -8.8760 -0.1000 1.7840
        vertex -8.6440 -0.1000 1.5240
        vertex -8.7120 -0.1000 0.9920
    endloop
endfacet
facet normal 0.0000 1.7078 0.0000
    outer loop
        vertex -8.7120 -0.1000 0.9920
        vertex -9.0040 -0.1000 0.7360
        vertex -8.8760 -0.1000 1.7840
    endloop
endfacet
facet normal 0.0000 1.4028 0.0000
    outer loop
        vertex -8.8760 -0.1000 1.7840
        vertex -9.0040 -0.1000 0.7360
        vertex -9.2680 -0.1000 0.3280
    endloop
endfacet
facet normal 0.0000 5.7820 0.0000
    outer loop
        vertex -9.2680 -0.1000 0.3280
        vertex -9.2680 -0.1000 2.6880
        vertex -8.8760 -0.1000 1.7840
    endloop
endfacet
facet normal 0.0000 0.3508 0.0000
    outer loop
        vertex -9.2680 -0.1000 2.6880
        vertex -8.9440 -0.1000 2.0840
        vertex -8.8760 -0.1000 1.7840
    endloop
endfacet
facet normal 0.0000 0.6377 0.0000
    outer loop
        vertex -9.2680 -0.1000 2.6880
        vertex -9.1840 -0.1000 2.8840
        vertex -8.8760 -0.1000 2.3880
    endloop
endfacet
facet normal 0.0000 0.8723 0.0000
    outer loop
        vertex -8.8760 -0.1000 2.3880
        vertex -8.9440 -0.1000 2.0840
        vertex -9.2680 -0.1000 2.6880
    endloop
endfacet
facet normal 0.0000 1.2325 0.0000
    outer loop
        vertex -9.1840 -0.1000 2.8840
        vertex -8.9280 -0.1000 3.1280
        vertex -8.6360 -0.1000 2.6360
    endloop
endfacet
facet normal 0.0000 1.2214 0.0000
    outer loop
        vertex -8.6360 -0.1000 2.6360
        vertex -8.8760 -0.1000 2.3880
        vertex -9.1840 -0.1000 2.8840
    endloop
endfacet
facet normal 0.0000 0.9269 0.0000
    outer loop
        vertex -8.9280 -0.1000 3.1280
        vertex -8.6680 -0.1000 3.2320
        vertex -8.4120 -0.1000 2.7640
    endloop
endfacet
facet normal 0.0000 0.9224 0.0000
    outer loop
        vertex -8.4120 -0.1000 2.7640
        vertex -8.6360 -0.1000 2.6360
        vertex -8.9280 -0.1000 3.1280
    endloop
endfacet
facet normal 0.0000 2.4360 0.0000
    outer loop
        vertex -8.6680 -0.1000 3.2320
        vertex -7.8280 -0.1000 3.2320
        vertex -8.1240 -0.1000 2.7680
    endloop
endfacet
facet normal 0.0000 0.8488 0.0000
    outer loop
        vertex -8.1240 -0.1000 2.7680
        vertex -8.4120 -0.1000 2.7640
        vertex -8.6680 -0.1000 3.2320
    endloop
endfacet
facet normal 0.0000 2.4939 0.0000
    outer loop
        vertex -8.1240 -0.1000 2.7680
        vertex -6.6840 -0.1000 2.9000
        vertex -6.6720 -0.1000 2.6240
    endloop
endfacet
facet normal 0.0000 1.0623 0.0000
    outer loop
        vertex -6.6720 -0.1000 2.6240
        vertex -7.8120 -0.1000 2.6200
        vertex -8.1240 -0.1000 2.7680
    endloop
endfacet
facet normal 0.0000 1.6277 0.0000
    outer loop
        vertex -7.8120 -0.1000 2.6200
        vertex -6.6720 -0.1000 2.6240
        vertex -6.5440 -0.1000 2.3960
    endloop
endfacet
facet normal 0.0000 1.8290 0.0000
    outer loop
        vertex -6.5440 -0.1000 2.3960
        vertex -7.6240 -0.1000 2.3560
        vertex -7.8120 -0.1000 2.6200
    endloop
endfacet
facet normal 0.0000 0.4425 0.0000
    outer loop
        vertex -7.6240 -0.1000 2.3560
        vertex -7.2680 -0.1000 2.1360
        vertex -7.4280 -0.1000 2.0360
    endloop
endfacet
facet normal 0.0000 0.3221 0.0000
    outer loop
        vertex -7.4280 -0.1000 2.0360
        vertex -7.6160 -0.1000 2.0800
        vertex -7.6240 -0.1000 2.3560
    endloop
endfacet
facet normal 0.0000 1.5750 0.0000
    outer loop
        vertex -7.6240 -0.1000 2.3560
        vertex -6.5440 -0.1000 2.3960
        vertex -6.9400 -0.1000 2.1480
    endloop
endfacet
facet normal 0.0000 0.4777 0.0000
    outer loop
        vertex -6.9400 -0.1000 2.1480
        vertex -7.2680 -0.1000 2.1360
        vertex -7.6240 -0.1000 2.3560
    endloop
endfacet
facet normal 0.0000 0.8546 0.0000
    outer loop
        vertex -6.9400 -0.1000 2.1480
        vertex -6.5440 -0.1000 2.3960
        vertex -6.3120 -0.1000 2.1960
    endloop
endfacet
facet normal 0.0000 0.5476 0.0000
    outer loop
        vertex -6.3120 -0.1000 2.1960
        vertex -6.5800 -0.1000 2.0360
        vertex -6.9400 -0.1000 2.1480
    endloop
endfacet
facet normal 0.0000 0.4727 0.0000
    outer loop
        vertex -6.5800 -0.1000 2.0360
        vertex -6.3120 -0.1000 2.1960
        vertex -5.9800 -0.1000 2.1120
    endloop
endfacet
facet normal 0.0000 1.0577 0.0000
    outer loop
        vertex -5.9800 -0.1000 2.1120
        vertex -6.2480 -0.1000 1.7960
        vertex -6.5800 -0.1000 2.0360
    endloop
endfacet
facet normal 0.0000 1.3076 0.0000
    outer loop
        vertex -5.9800 -0.1000 2.1120
        vertex -5.6640 -0.1000 2.1640
        vertex -6.0160 -0.1000 1.4440
    endloop
endfacet
facet normal 0.0000 1.0478 0.0000
    outer loop
        vertex -6.0160 -0.1000 1.4440
        vertex -6.2480 -0.1000 1.7960
        vertex -5.9800 -0.1000 2.1120
    endloop
endfacet
facet normal 0.0000 2.0452 0.0000
    outer loop
        vertex -6.0160 -0.1000 1.4440
        vertex -5.6640 -0.1000 2.1640
        vertex -5.3640 -0.1000 1.8480
    endloop
endfacet
facet normal 0.0000 1.9080 0.0000
    outer loop
        vertex -5.3640 -0.1000 1.8480
        vertex -5.9640 -0.1000 1.0080
        vertex -6.0160 -0.1000 1.4440
    endloop
endfacet
facet normal 0.0000 4.9650 0.0000
    outer loop
        vertex -5.9640 -0.1000 1.0080
        vertex -5.3640 -0.1000 1.8480
        vertex -5.3640 -0.1000 0.5240
    endloop
endfacet
facet normal 0.0000 2.1020 0.0000
    outer loop
        vertex -5.3640 -0.1000 0.5240
        vertex -6.0440 -0.1000 0.5120
        vertex -5.9640 -0.1000 1.0080
    endloop
endfacet
facet normal 0.0000 3.7501 0.0000
    outer loop
        vertex -5.6640 -0.1000 2.1640
        vertex -3.0200 -0.1000 2.0760
        vertex -2.9880 -0.1000 1.8480
    endloop
endfacet
facet normal 0.0000 4.6926 0.0000
    outer loop
        vertex -2.9880 -0.1000 1.8480
        vertex -5.3640 -0.1000 1.8480
        vertex -5.6640 -0.1000 2.1640
    endloop
endfacet
facet normal 0.0000 5.3359 0.0000
    outer loop
        vertex -5.4040 -0.1000 2.3360
        vertex -3.1840 -0.1000 2.4520
        vertex -3.0200 -0.1000 2.0760
    endloop
endfacet
facet normal 0.0000 2.9853 0.0000
    outer loop
        vertex -3.0200 -0.1000 2.0760
        vertex -5.6640 -0.1000 2.1640
        vertex -5.4040 -0.1000 2.3360
    endloop
endfacet
facet normal 0.0000 5.5438 0.0000
    outer loop
        vertex -5.2760 -0.1000 2.6360
        vertex -3.1840 -0.1000 2.8760
        vertex -3.1840 -0.1000 2.4520
    endloop
endfacet
facet normal 0.0000 4.0697 0.0000
    outer loop
        vertex -3.1840 -0.1000 2.4520
        vertex -5.4040 -0.1000 2.3360
        vertex -5.2760 -0.1000 2.6360
    endloop
endfacet
facet normal 0.0000 4.8000 0.0000
    outer loop
        vertex -5.2760 -0.1000 2.9360
        vertex -2.9360 -0.1000 3.2360
        vertex -3.1840 -0.1000 2.8760
    endloop
endfacet
facet normal 0.0000 3.9225 0.0000
    outer loop
        vertex -3.1840 -0.1000 2.8760
        vertex -5.2760 -0.1000 2.6360
        vertex -5.2760 -0.1000 2.9360
    endloop
endfacet
facet normal 0.0000 4.6114 0.0000
    outer loop
        vertex -5.4400 -0.1000 3.2840
        vertex -2.3800 -0.1000 3.5200
        vertex -2.9360 -0.1000 3.2360
    endloop
endfacet
facet normal 0.0000 5.3970 0.0000
    outer loop
        vertex -2.9360 -0.1000 3.2360
        vertex -5.2760 -0.1000 2.9360
        vertex -5.4400 -0.1000 3.2840
    endloop
endfacet
facet normal 0.0000 0.1700 0.0000
    outer loop
        vertex -5.6600 -0.1000 3.4960
        vertex -5.6600 -0.1000 3.6960
        vertex -5.5240 -0.1000 3.8600
    endloop
endfacet
facet normal 0.0000 0.6807 0.0000
    outer loop
        vertex -5.5240 -0.1000 3.8600
        vertex -5.4400 -0.1000 3.2840
        vertex -5.6600 -0.1000 3.4960
    endloop
endfacet
facet normal 0.0000 7.2080 0.0000
    outer loop
        vertex -5.5240 -0.1000 3.8600
        vertex -2.1320 -0.1000 3.8600
        vertex -2.3800 -0.1000 3.5200
    endloop
endfacet
facet normal 0.0000 11.1399 0.0000
    outer loop
        vertex -2.3800 -0.1000 3.5200
        vertex -5.4400 -0.1000 3.2840
        vertex -5.5240 -0.1000 3.8600
    endloop
endfacet
facet normal 0.0000 2.2308 0.0000
    outer loop
        vertex 11.2800 -0.1000 -1.4840
        vertex 11.2800 -0.1000 -4.9160
        vertex 11.1760 -0.1000 -5.0960
    endloop
endfacet
facet normal 0.0000 7.2505 0.0000
    outer loop
        vertex 11.1760 -0.1000 -5.0960
        vertex 10.9480 -0.1000 -1.8600
        vertex 11.2800 -0.1000 -1.4840
    endloop
endfacet
facet normal 0.0000 76.6888 0.0000
    outer loop
        vertex 6.7920 -0.1000 -4.3840
        vertex 10.5040 -0.1000 -2.1880
        vertex 11.1760 -0.1000 -5.0960
    endloop
endfacet
facet normal 0.0000 2.7832 0.0000
    outer loop
        vertex 11.1760 -0.1000 -5.0960
        vertex 10.9200 -0.1000 -5.1560
        vertex 6.7920 -0.1000 -4.3840
    endloop
endfacet
facet normal 0.0000 23.5460 0.0000
    outer loop
        vertex 6.7920 -0.1000 -4.3840
        vertex 10.9200 -0.1000 -5.1560
        vertex 6.0400 -0.1000 -5.1560
    endloop
endfacet
facet normal 0.0000 0.7012 0.0000
    outer loop
        vertex 6.0400 -0.1000 -5.1560
        vertex 6.2960 -0.1000 -4.7440
        vertex 6.7920 -0.1000 -4.3840
    endloop
endfacet
facet normal 0.0000 5.0970 0.0000
    outer loop
        vertex 10.3960 -0.1000 1.4000
        vertex 10.9240 -0.1000 2.0000
        vertex 11.2800 -0.1000 0.8600
    endloop
endfacet
facet normal 0.0000 3.4876 0.0000
    outer loop
        vertex 11.2800 -0.1000 0.8600
        vertex 10.9080 -0.1000 0.4560
        vertex 10.3960 -0.1000 1.4000
    endloop
endfacet
facet normal 0.0000 3.4087 0.0000
    outer loop
        vertex 11.2800 -0.1000 2.3920
        vertex 11.2800 -0.1000 0.8600
        vertex 10.9240 -0.1000 2.0000
    endloop
endfacet
facet normal 0.0000 5.0376 0.0000
    outer loop
        vertex 10.3960 -0.1000 1.4000
        vertex 10.9080 -0.1000 0.4560
        vertex 10.3080 -0.1000 -0.0120
    endloop
endfacet
facet normal 0.0000 76.8233 0.0000
    outer loop
        vertex 10.3080 -0.1000 -0.0120
        vertex 1.3600 -0.1000 -3.9080
        vertex 10.3960 -0.1000 1.4000
    endloop
endfacet
facet normal 0.0000 60.0210 0.0000
    outer loop
        vertex 10.3080 -0.1000 -0.0120
        vertex 2.7960 -0.1000 -4.3560
        vertex 1.3600 -0.1000 -3.9080
    endloop
endfacet
facet normal 0.0000 2.3079 0.0000
    outer loop
        vertex 1.3600 -0.1000 -3.9080
        vertex 2.7960 -0.1000 -4.3560
        vertex 2.6000 -0.1000 -4.5520
    endloop
endfacet
facet normal 0.0000 3.9266 0.0000
    outer loop
        vertex 2.6000 -0.1000 -4.5520
        vertex 1.0160 -0.1000 -4.2360
        vertex 1.3600 -0.1000 -3.9080
    endloop
endfacet
facet normal 0.0000 1.9005 0.0000
    outer loop
        vertex 1.0160 -0.1000 -4.2360
        vertex 2.6000 -0.1000 -4.5520
        vertex 2.5400 -0.1000 -4.7320
    endloop
endfacet
facet normal 0.0000 5.0022 0.0000
    outer loop
        vertex 2.5400 -0.1000 -4.7320
        vertex 0.6560 -0.1000 -4.6440
        vertex 1.0160 -0.1000 -4.2360
    endloop
endfacet
facet normal 0.0000 5.0080 0.0000
    outer loop
        vertex 0.6560 -0.1000 -4.6440
        vertex 2.5400 -0.1000 -4.7320
        vertex 2.5120 -0.1000 -5.1560
    endloop
endfacet
facet normal 0.0000 6.4256 0.0000
    outer loop
        vertex 2.5120 -0.1000 -5.1560
        vertex 0.5040 -0.1000 -5.1560
        vertex 0.6560 -0.1000 -4.6440
    endloop
endfacet
facet normal 0.0000 2.0636 0.0000
    outer loop
        vertex 11.3400 -0.1000 4.8840
        vertex 11.3400 -0.1000 3.6520
        vertex 11.0720 -0.1000 3.8640
    endloop
endfacet
facet normal 0.0000 1.2608 0.0000
    outer loop
        vertex 10.6600 -0.1000 4.1400
        vertex 11.2480 -0.1000 5.0800
        vertex 11.3400 -0.1000 4.8840
    endloop
endfacet
facet normal 0.0000 3.0888 0.0000
    outer loop
        vertex 11.3400 -0.1000 4.8840
        vertex 11.0720 -0.1000 3.8640
        vertex 10.6600 -0.1000 4.1400
    endloop
endfacet
facet normal 0.0000 1.6350 0.0000
    outer loop
        vertex 10.0720 -0.1000 4.3680
        vertex 11.0920 -0.1000 5.2080
        vertex 11.2480 -0.1000 5.0800
    endloop
endfacet
facet normal 0.0000 4.2924 0.0000
    outer loop
        vertex 11.2480 -0.1000 5.0800
        vertex 10.6600 -0.1000 4.1400
        vertex 10.0720 -0.1000 4.3680
    endloop
endfacet
facet normal 0.0000 1.7625 0.0000
    outer loop
        vertex 10.8000 -0.1000 5.2440
        vertex 11.0920 -0.1000 5.2080
        vertex 10.0720 -0.1000 4.3680
    endloop
endfacet
facet normal 0.0000 27.5940 0.0000
    outer loop
        vertex 10.0720 -0.1000 4.3680
        vertex 5.0320 -0.1000 4.3680
        vertex 10.8000 -0.1000 5.2440
    endloop
endfacet
facet normal 0.0000 23.9372 0.0000
    outer loop
        vertex 10.8000 -0.1000 5.2440
        vertex 5.0320 -0.1000 4.3680
        vertex 5.0320 -0.1000 5.0320
    endloop
endfacet
facet normal 0.0000 28.1854 0.0000
    outer loop
        vertex -9.3320 -0.1000 5.0320
        vertex -10.4720 -0.1000 5.2440
        vertex 10.8000 -0.1000 5.2440
    endloop
endfacet
facet normal 0.0000 19.0323 0.0000
    outer loop
        vertex 10.8000 -0.1000 5.2440
        vertex 5.0320 -0.1000 5.0320
        vertex -9.3320 -0.1000 5.0320
    endloop
endfacet
facet normal 0.0000 0.9456 0.0000
    outer loop
        vertex -10.8200 -0.1000 5.1760
        vertex -10.4720 -0.1000 5.2440
        vertex -9.3320 -0.1000 5.0320
    endloop
endfacet
facet normal 0.0000 1.2444 0.0000
    outer loop
        vertex -9.3320 -0.1000 5.0320
        vertex -9.6400 -0.1000 4.9280
        vertex -10.8200 -0.1000 5.1760
    endloop
endfacet
facet normal 0.0000 2.7827 0.0000
    outer loop
        vertex -10.8200 -0.1000 5.1760
        vertex -9.6400 -0.1000 4.9280
        vertex -10.0840 -0.1000 4.6440
    endloop
endfacet
facet normal 0.0000 2.0042 0.0000
    outer loop
        vertex -10.0840 -0.1000 4.6440
        vertex -11.0520 -0.1000 4.9080
        vertex -10.8200 -0.1000 5.1760
    endloop
endfacet
facet normal 0.0000 2.1296 0.0000
    outer loop
        vertex -11.0520 -0.1000 4.9080
        vertex -10.0840 -0.1000 4.6440
        vertex -10.3040 -0.1000 4.3520
    endloop
endfacet
facet normal 0.0000 1.6618 0.0000
    outer loop
        vertex -10.3040 -0.1000 4.3520
        vertex -11.1320 -0.1000 4.6120
        vertex -11.0520 -0.1000 4.9080
    endloop
endfacet
facet normal 0.0000 2.5541 0.0000
    outer loop
        vertex -11.1320 -0.1000 4.6120
        vertex -10.3040 -0.1000 4.3520
        vertex -10.5000 -0.1000 3.9200
    endloop
endfacet
facet normal 0.0000 38.1096 0.0000
    outer loop
        vertex -11.1320 -0.1000 -5.0360
        vertex -11.1320 -0.1000 4.6120
        vertex -10.5000 -0.1000 3.9200
    endloop
endfacet
facet normal 0.0000 24.0950 0.0000
    outer loop
        vertex -10.5000 -0.1000 3.9200
        vertex -10.5000 -0.1000 -2.1800
        vertex -11.1320 -0.1000 -5.0360
    endloop
endfacet
facet normal 0.0000 1.5708 0.0000
    outer loop
        vertex -11.1320 -0.1000 -5.0360
        vertex -10.5000 -0.1000 -2.1800
        vertex -10.4120 -0.1000 -2.1800
    endloop
endfacet
facet normal 0.0000 2.4372 0.0000
    outer loop
        vertex -10.4120 -0.1000 -2.1800
        vertex -11.0600 -0.1000 -5.2920
        vertex -11.1320 -0.1000 -5.0360
    endloop
endfacet
facet normal 0.0000 2.5596 0.0000
    outer loop
        vertex -11.0600 -0.1000 -5.2920
        vertex -10.4120 -0.1000 -2.1800
        vertex -10.4120 -0.1000 -2.8120
    endloop
endfacet
facet normal 0.0000 3.9558 0.0000
    outer loop
        vertex -10.4120 -0.1000 -2.8120
        vertex -10.8560 -0.1000 -5.4880
        vertex -11.0600 -0.1000 -5.2920
    endloop
endfacet
facet normal 0.0000 11.4912 0.0000
    outer loop
        vertex -10.4120 -0.1000 -2.8120
        vertex -9.7400 -0.1000 -2.8120
        vertex -10.5920 -0.1000 -5.5480
    endloop
endfacet
facet normal 0.0000 4.5819 0.0000
    outer loop
        vertex -10.5920 -0.1000 -5.5480
        vertex -10.8560 -0.1000 -5.4880
        vertex -10.4120 -0.1000 -2.8120
    endloop
endfacet
facet normal 0.0000 5.9862 0.0000
    outer loop
        vertex -10.1720 -0.1000 -5.1560
        vertex -9.7400 -0.1000 -2.8120
        vertex -9.2960 -0.1000 -2.6200
    endloop
endfacet
facet normal 0.0000 26.3744 0.0000
    outer loop
        vertex -9.2960 -0.1000 -2.6200
        vertex -8.5080 -0.1000 -5.1560
        vertex -10.1720 -0.1000 -5.1560
    endloop
endfacet
facet normal 0.0000 2.7614 0.0000
    outer loop
        vertex -9.2960 -0.1000 -2.6200
        vertex -9.0640 -0.1000 -2.6280
        vertex -8.1480 -0.1000 -4.5640
    endloop
endfacet
facet normal 0.0000 8.6216 0.0000
    outer loop
        vertex -8.1480 -0.1000 -4.5640
        vertex -8.5080 -0.1000 -5.1560
        vertex -9.2960 -0.1000 -2.6200
    endloop
endfacet
facet normal 0.0000 4.0675 0.0000
    outer loop
        vertex -9.0640 -0.1000 -2.6280
        vertex -8.7480 -0.1000 -2.4840
        vertex -7.6080 -0.1000 -4.0240
    endloop
endfacet
facet normal 0.0000 9.6255 0.0000
    outer loop
        vertex -7.6080 -0.1000 -4.0240
        vertex -8.1480 -0.1000 -4.5640
        vertex -9.0640 -0.1000 -2.6280
    endloop
endfacet
facet normal 0.0000 32.1688 0.0000
    outer loop
        vertex -7.7680 -0.1000 -1.9400
        vertex -7.7680 -0.1000 -1.3080
        vertex 0.3760 -0.1000 2.3880
    endloop
endfacet
facet normal 0.0000 67.8976 0.0000
    outer loop
        vertex 0.3760 -0.1000 2.3880
        vertex 4.1280 -0.1000 3.0480
        vertex -7.7680 -0.1000 -1.9400
    endloop
endfacet
facet normal 0.0000 15.4770 0.0000
    outer loop
        vertex 4.1280 -0.1000 3.0480
        vertex 0.3760 -0.1000 2.3880
        vertex 0.3760 -0.1000 3.0480
    endloop
endfacet
facet normal 0.0000 7.3121 0.0000
    outer loop
        vertex -7.7680 -0.1000 -1.3080
        vertex -5.3640 -0.1000 0.5240
        vertex -2.9880 -0.1000 1.8480
    endloop
endfacet
facet normal 0.0000 50.2224 0.0000
    outer loop
        vertex -2.9880 -0.1000 1.8480
        vertex 0.3760 -0.1000 2.3880
        vertex -7.7680 -0.1000 -1.3080
    endloop
endfacet
facet normal 0.0000 3.0150 0.0000
    outer loop
        vertex -2.9880 -0.1000 1.8480
        vertex -3.0200 -0.1000 2.0760
        vertex -0.9480 -0.1000 2.3880
    endloop
endfacet
facet normal 0.0000 4.4685 0.0000
    outer loop
        vertex -0.9480 -0.1000 2.3880
        vertex 0.3760 -0.1000 2.3880
        vertex -2.9880 -0.1000 1.8480
    endloop
endfacet
facet normal 0.0000 2.8748 0.0000
    outer loop
        vertex -3.1840 -0.1000 2.4520
        vertex -1.0280 -0.1000 2.5960
        vertex -0.9480 -0.1000 2.3880
    endloop
endfacet
facet normal 0.0000 5.1890 0.0000
    outer loop
        vertex -0.9480 -0.1000 2.3880
        vertex -3.0200 -0.1000 2.0760
        vertex -3.1840 -0.1000 2.4520
    endloop
endfacet
facet normal 0.0000 2.7349 0.0000
    outer loop
        vertex -3.1840 -0.1000 2.8760
        vertex -1.0360 -0.1000 2.8000
        vertex -1.0280 -0.1000 2.5960
    endloop
endfacet
facet normal 0.0000 5.7134 0.0000
    outer loop
        vertex -1.0280 -0.1000 2.5960
        vertex -3.1840 -0.1000 2.4520
        vertex -3.1840 -0.1000 2.8760
    endloop
endfacet
facet normal 0.0000 4.8994 0.0000
    outer loop
        vertex -3.1840 -0.1000 2.8760
        vertex -2.9360 -0.1000 3.2360
        vertex -0.8880 -0.1000 3.0480
    endloop
endfacet
facet normal 0.0000 3.3997 0.0000
    outer loop
        vertex -0.8880 -0.1000 3.0480
        vertex -1.0360 -0.1000 2.8000
        vertex -3.1840 -0.1000 2.8760
    endloop
endfacet
facet normal 0.0000 2.6713 0.0000
    outer loop
        vertex -2.9360 -0.1000 3.2360
        vertex -2.3800 -0.1000 3.5200
        vertex -1.0160 -0.1000 3.4480
    endloop
endfacet
facet normal 0.0000 4.9696 0.0000
    outer loop
        vertex -1.0160 -0.1000 3.4480
        vertex -0.8880 -0.1000 3.0480
        vertex -2.9360 -0.1000 3.2360
    endloop
endfacet
facet normal 0.0000 1.4644 0.0000
    outer loop
        vertex -2.3800 -0.1000 3.5200
        vertex -1.7280 -0.1000 3.8600
        vertex -1.2920 -0.1000 3.7280
    endloop
endfacet
facet normal 0.0000 2.2628 0.0000
    outer loop
        vertex -1.2920 -0.1000 3.7280
        vertex -1.0160 -0.1000 3.4480
        vertex -2.3800 -0.1000 3.5200
    endloop
endfacet
facet normal 0.0000 0.8585 0.0000
    outer loop
        vertex -1.7280 -0.1000 3.8600
        vertex -2.3800 -0.1000 3.5200
        vertex -2.1320 -0.1000 3.8600
    endloop
endfacet
facet normal 0.0000 19.6614 0.0000
    outer loop
        vertex -2.9880 -0.1000 1.8480
        vertex -5.3640 -0.1000 0.5240
        vertex -5.3640 -0.1000 1.8480
    endloop
endfacet
facet normal 0.0000 1.1413 0.0000
    outer loop
        vertex -5.3640 -0.1000 0.5240
        vertex -6.2400 -0.1000 0.2400
        vertex -6.0440 -0.1000 0.5120
    endloop
endfacet
facet normal 0.0000 0.2602 0.0000
    outer loop
        vertex -7.7680 -0.1000 -1.3080
        vertex -6.4880 -0.1000 0.0160
        vertex -6.2400 -0.1000 0.2400
    endloop
endfacet
facet normal 0.0000 5.7631 0.0000
    outer loop
        vertex -6.2400 -0.1000 0.2400
        vertex -5.3640 -0.1000 0.5240
        vertex -7.7680 -0.1000 -1.3080
    endloop
endfacet
facet normal 0.0000 1.3227 0.0000
    outer loop
        vertex -8.1320 -0.1000 -1.5400
        vertex -6.8480 -0.1000 -0.1960
        vertex -6.4880 -0.1000 0.0160
    endloop
endfacet
facet normal 0.0000 1.1561 0.0000
    outer loop
        vertex -6.4880 -0.1000 0.0160
        vertex -7.7680 -0.1000 -1.3080
        vertex -8.1320 -0.1000 -1.5400
    endloop
endfacet
facet normal 0.0000 2.0956 0.0000
    outer loop
        vertex -8.4880 -0.1000 -1.5480
        vertex -7.0960 -0.1000 -0.1960
        vertex -6.8480 -0.1000 -0.1960
    endloop
endfacet
facet normal 0.0000 2.9262 0.0000
    outer loop
        vertex -6.8480 -0.1000 -0.1960
        vertex -8.1320 -0.1000 -1.5400
        vertex -8.4880 -0.1000 -1.5480
    endloop
endfacet
facet normal 0.0000 3.4242 0.0000
    outer loop
        vertex -8.8320 -0.1000 -1.4800
        vertex -7.3280 -0.1000 -0.0520
        vertex -7.0960 -0.1000 -0.1960
    endloop
endfacet
facet normal 0.0000 3.4984 0.0000
    outer loop
        vertex -7.0960 -0.1000 -0.1960
        vertex -8.4880 -0.1000 -1.5480
        vertex -8.8320 -0.1000 -1.4800
    endloop
endfacet
facet normal 0.0000 2.3868 0.0000
    outer loop
        vertex -9.1640 -0.1000 -1.3800
        vertex -7.3280 -0.1000 0.1560
        vertex -7.3280 -0.1000 -0.0520
    endloop
endfacet
facet normal 0.0000 3.9031 0.0000
    outer loop
        vertex -7.3280 -0.1000 -0.0520
        vertex -8.8320 -0.1000 -1.4800
        vertex -9.1640 -0.1000 -1.3800
    endloop
endfacet
facet normal 0.0000 0.7566 0.0000
    outer loop
        vertex -9.4840 -0.1000 -1.0680
        vertex -9.0960 -0.1000 -1.0680
        vertex -9.1640 -0.1000 -1.3800
    endloop
endfacet
facet normal 0.0000 0.1180 0.0000
    outer loop
        vertex -9.1640 -0.1000 -1.3800
        vertex -9.3640 -0.1000 -1.2440
        vertex -9.4840 -0.1000 -1.0680
    endloop
endfacet
facet normal 0.0000 2.2904 0.0000
    outer loop
        vertex -9.1640 -0.1000 -1.3800
        vertex -9.0960 -0.1000 -1.0680
        vertex -7.5640 -0.1000 0.5720
    endloop
endfacet
facet normal 0.0000 7.0392 0.0000
    outer loop
        vertex -7.5640 -0.1000 0.5720
        vertex -7.3280 -0.1000 0.1560
        vertex -9.1640 -0.1000 -1.3800
    endloop
endfacet
facet normal 0.0000 5.7168 0.0000
    outer loop
        vertex -9.0960 -0.1000 -0.9320
        vertex -7.9440 -0.1000 0.7960
        vertex -7.5640 -0.1000 0.5720
    endloop
endfacet
facet normal 0.0000 1.3022 0.0000
    outer loop
        vertex -7.5640 -0.1000 0.5720
        vertex -9.0960 -0.1000 -1.0680
        vertex -9.0960 -0.1000 -0.9320
    endloop
endfacet
facet normal 0.0000 4.3659 0.0000
    outer loop
        vertex -9.2600 -0.1000 -0.7760
        vertex -8.3080 -0.1000 0.8920
        vertex -7.9440 -0.1000 0.7960
    endloop
endfacet
facet normal 0.0000 2.8944 0.0000
    outer loop
        vertex -7.9440 -0.1000 0.7960
        vertex -9.0960 -0.1000 -0.9320
        vertex -9.2600 -0.1000 -0.7760
    endloop
endfacet
facet normal 0.0000 1.4372 0.0000
    outer loop
        vertex -9.3800 -0.1000 -0.5480
        vertex -8.2920 -0.1000 1.1280
        vertex -8.3080 -0.1000 0.8920
    endloop
endfacet
facet normal 0.0000 2.6076 0.0000
    outer loop
        vertex -8.3080 -0.1000 0.8920
        vertex -9.2600 -0.1000 -0.7760
        vertex -9.3800 -0.1000 -0.5480
    endloop
endfacet
facet normal 0.0000 2.3213 0.0000
    outer loop
        vertex -9.3800 -0.1000 -0.5480
        vertex -9.3800 -0.1000 0.0080
        vertex -8.7120 -0.1000 0.9920
    endloop
endfacet
facet normal 0.0000 3.4747 0.0000
    outer loop
        vertex -8.7120 -0.1000 0.9920
        vertex -8.2920 -0.1000 1.1280
        vertex -9.3800 -0.1000 -0.5480
    endloop
endfacet
facet normal 0.0000 0.2424 0.0000
    outer loop
        vertex -9.3800 -0.1000 0.0080
        vertex -9.2680 -0.1000 0.3280
        vertex -9.0040 -0.1000 0.7360
    endloop
endfacet
facet normal 0.0000 0.7270 0.0000
    outer loop
        vertex -9.0040 -0.1000 0.7360
        vertex -8.7120 -0.1000 0.9920
        vertex -9.3800 -0.1000 0.0080
    endloop
endfacet
facet normal 0.0000 1.7640 0.0000
    outer loop
        vertex 11.6720 -0.1000 3.1120
        vertex 11.2800 -0.1000 2.3920
        vertex 11.2800 -0.1000 3.1120
    endloop
endfacet
facet normal 0.0000 3.7534 0.0000
    outer loop
        vertex 11.2800 -0.1000 0.8600
        vertex 11.2800 -0.1000 2.3920
        vertex 11.6720 -0.1000 3.1120
    endloop
endfacet
facet normal 0.0000 19.7470 0.0000
    outer loop
        vertex 11.6720 -0.1000 3.1120
        vertex 11.6720 -0.1000 -4.9480
        vertex 11.2800 -0.1000 0.8600
    endloop
endfacet
facet normal 0.0000 5.7428 0.0000
    outer loop
        vertex 11.2800 -0.1000 0.8600
        vertex 11.6720 -0.1000 -4.9480
        vertex 11.2800 -0.1000 -1.4840
    endloop
endfacet
facet normal 0.0000 8.4084 0.0000
    outer loop
        vertex 11.2800 -0.1000 -1.4840
        vertex 11.6720 -0.1000 -4.9480
        vertex 11.2800 -0.1000 -4.9160
    endloop
endfacet
facet normal 0.0000 0.4618 0.0000
    outer loop
        vertex 11.1760 -0.1000 -5.0960
        vertex 11.2800 -0.1000 -4.9160
        vertex 11.6720 -0.1000 -4.9480
    endloop
endfacet
facet normal 0.0000 0.9243 0.0000
    outer loop
        vertex 11.6720 -0.1000 -4.9480
        vertex 11.5720 -0.1000 -5.2760
        vertex 11.1760 -0.1000 -5.0960
    endloop
endfacet
facet normal 0.0000 0.4365 0.0000
    outer loop
        vertex 10.9200 -0.1000 -5.1560
        vertex 11.1760 -0.1000 -5.0960
        vertex 11.5720 -0.1000 -5.2760
    endloop
endfacet
facet normal 0.0000 0.9787 0.0000
    outer loop
        vertex 11.5720 -0.1000 -5.2760
        vertex 11.3320 -0.1000 -5.4720
        vertex 10.9200 -0.1000 -5.1560
    endloop
endfacet
facet normal 0.0000 0.6065 0.0000
    outer loop
        vertex 10.9200 -0.1000 -5.1560
        vertex 11.3320 -0.1000 -5.4720
        vertex 11.1240 -0.1000 -5.5480
    endloop
endfacet
facet normal 0.0000 11.9560 0.0000
    outer loop
        vertex 11.1240 -0.1000 -5.5480
        vertex 6.0400 -0.1000 -5.1560
        vertex 10.9200 -0.1000 -5.1560
    endloop
endfacet
facet normal 0.0000 8.6436 0.0000
    outer loop
        vertex 2.5120 -0.1000 -5.1560
        vertex 6.0400 -0.1000 -5.1560
        vertex 11.1240 -0.1000 -5.5480
    endloop
endfacet
facet normal 0.0000 52.1752 0.0000
    outer loop
        vertex 11.1240 -0.1000 -5.5480
        vertex -10.1720 -0.1000 -5.5480
        vertex 2.5120 -0.1000 -5.1560
    endloop
endfacet
facet normal 0.0000 4.9196 0.0000
    outer loop
        vertex 2.5120 -0.1000 -5.1560
        vertex -10.1720 -0.1000 -5.5480
        vertex 0.5040 -0.1000 -5.1560
    endloop
endfacet
facet normal 0.0000 22.0794 0.0000
    outer loop
        vertex 0.5040 -0.1000 -5.1560
        vertex -10.1720 -0.1000 -5.5480
        vertex -8.5080 -0.1000 -5.1560
    endloop
endfacet
facet normal 0.0000 4.0768 0.0000
    outer loop
        vertex -8.5080 -0.1000 -5.1560
        vertex -10.1720 -0.1000 -5.5480
        vertex -10.1720 -0.1000 -5.1560
    endloop
endfacet
facet normal 0.0000 0.5551 0.0000
    outer loop
        vertex -7.4280 -0.1000 2.0360
        vertex -8.2400 -0.1000 1.3880
        vertex -8.3520 -0.1000 1.4080
    endloop
endfacet
facet normal 0.0000 0.8280 0.0000
    outer loop
        vertex -7.4280 -0.1000 2.0360
        vertex -8.2160 -0.1000 1.2440
        vertex -8.2400 -0.1000 1.3880
    endloop
endfacet
facet normal 0.0000 2.2240 0.0000
    outer loop
        vertex -9.3800 -0.1000 0.0080
        vertex -9.3800 -0.1000 -0.5480
        vertex -10.0200 -0.1000 -1.0680
    endloop
endfacet
facet normal 0.0000 24.8464 0.0000
    outer loop
        vertex -9.3320 -0.1000 5.0320
        vertex -2.1320 -0.1000 3.8600
        vertex -5.5240 -0.1000 3.8600
    endloop
endfacet
facet normal 0.0000 37.9762 0.0000
    outer loop
        vertex -9.3320 -0.1000 5.0320
        vertex -5.5240 -0.1000 3.8600
        vertex -8.6680 -0.1000 3.2320
    endloop
endfacet
facet normal 0.0000 8.2994 0.0000
    outer loop
        vertex 4.6560 -0.1000 4.0400
        vertex 4.4080 -0.1000 3.7800
        vertex -1.0160 -0.1000 3.4480
    endloop
endfacet
facet normal 0.0000 11.8360 0.0000
    outer loop
        vertex 4.4080 -0.1000 3.7800
        vertex 4.2960 -0.1000 3.4240
        vertex -1.0160 -0.1000 3.4480
    endloop
endfacet
facet normal 0.0000 2.6795 0.0000
    outer loop
        vertex -12.8000 -0.1000 6.8000
        vertex -11.5120 -0.1000 5.9720
        vertex -11.6440 -0.1000 5.7240
    endloop
endfacet
facet normal 0.0000 1.7940 0.0000
    outer loop
        vertex -12.8000 -0.1000 6.8000
        vertex -11.3520 -0.1000 6.0920
        vertex -11.5120 -0.1000 5.9720
    endloop
endfacet
facet normal 0.0000 1.7835 0.0000
    outer loop
        vertex 12.8000 -0.1000 6.8000
        vertex 12.1000 -0.1000 5.8680
        vertex 11.9200 -0.1000 6.0360
    endloop
endfacet
facet normal 0.0000 1.6443 0.0000
    outer loop
        vertex 12.8000 -0.1000 6.8000
        vertex 12.1840 -0.1000 5.6040
        vertex 12.1000 -0.1000 5.8680
    endloop
endfacet
facet normal 0.0000 1.8664 0.0000
    outer loop
        vertex 11.8960 -0.1000 -5.9160
        vertex 12.8000 -0.1000 -6.8000
        vertex 11.6400 -0.1000 -5.9960
    endloop
endfacet
facet normal 0.0000 2.4595 0.0000
    outer loop
        vertex 12.1080 -0.1000 -5.6880
        vertex 12.8000 -0.1000 -6.8000
        vertex 11.8960 -0.1000 -5.9160
    endloop
endfacet
facet normal 0.0000 3.1028 0.0000
    outer loop
        vertex -11.6440 -0.1000 -5.4280
        vertex -11.5720 -0.1000 -5.7720
        vertex -12.8000 -0.1000 -6.8000
    endloop
endfacet
facet normal 0.0000 2.1739 0.0000
    outer loop
        vertex -11.5720 -0.1000 -5.7720
        vertex -11.4200 -0.1000 -5.9280
        vertex -12.8000 -0.1000 -6.8000
    endloop
endfacet
facet normal 0.0000 1.4096 0.0000
    outer loop
        vertex -9.5160 -0.1000 -1.4840
        vertex -9.7480 -0.1000 -1.7400
        vertex -10.0200 -0.1000 -1.0680
    endloop
endfacet
facet normal 0.0000 1.1512 0.0000
    outer loop
        vertex -10.0200 -0.1000 -1.0680
        vertex -9.3640 -0.1000 -1.2440
        vertex -9.5160 -0.1000 -1.4840
    endloop
endfacet
facet normal 0.0000 0.4292 0.0000
    outer loop
        vertex -9.3640 -0.1000 -1.2440
        vertex -9.1640 -0.1000 -1.3800
        vertex -9.5160 -0.1000 -1.4840
    endloop
endfacet
facet normal 0.0000 0.5896 0.0000
    outer loop
        vertex -9.4840 -0.1000 -1.0680
        vertex -9.3640 -0.1000 -1.2440
        vertex -10.0200 -0.1000 -1.0680
    endloop
endfacet
facet normal 0.0000 0.4999 0.0000
    outer loop
        vertex -8.8320 -0.1000 -1.4800
        vertex -8.4880 -0.1000 -1.5480
        vertex -8.6120 -0.1000 -1.7560
    endloop
endfacet
facet normal 0.0000 0.1842 0.0000
    outer loop
        vertex -8.4880 -0.1000 -1.5480
        vertex -8.5800 -0.1000 -1.9400
        vertex -8.6120 -0.1000 -1.7560
    endloop
endfacet
facet normal 0.0000 5.0946 0.0000
    outer loop
        vertex -9.7400 -0.1000 -2.8120
        vertex -10.1720 -0.1000 -5.1560
        vertex -10.5920 -0.1000 -5.5480
    endloop
endfacet
facet normal 0.0000 1.0290 0.0000
    outer loop
        vertex -10.1720 -0.1000 -5.1560
        vertex -10.1720 -0.1000 -5.5480
        vertex -10.5920 -0.1000 -5.5480
    endloop
endfacet
facet normal 0.0000 0.5040 0.0000
    outer loop
        vertex -9.7400 -0.1000 -2.2520
        vertex -9.5960 -0.1000 -2.4800
        vertex -9.7400 -0.1000 -2.8120
    endloop
endfacet
facet normal 0.0000 0.7485 0.0000
    outer loop
        vertex -9.5960 -0.1000 -2.4800
        vertex -9.2960 -0.1000 -2.6200
        vertex -9.7400 -0.1000 -2.8120
    endloop
endfacet
facet normal 0.0000 3.5250 0.0000
    outer loop
        vertex -8.5920 -0.1000 -2.2000
        vertex -7.6080 -0.1000 -4.0240
        vertex -8.7480 -0.1000 -2.4840
    endloop
endfacet
facet normal 0.0000 1.7358 0.0000
    outer loop
        vertex -7.6080 -0.1000 -4.0240
        vertex -8.5920 -0.1000 -2.2000
        vertex -8.5800 -0.1000 -1.9400
    endloop
endfacet
facet normal 0.0000 10.5763 0.0000
    outer loop
        vertex -8.5800 -0.1000 -1.9400
        vertex -7.7680 -0.1000 -1.9400
        vertex -7.6080 -0.1000 -4.0240
    endloop
endfacet
facet normal 0.0000 159.9334 0.0000
    outer loop
        vertex 4.1280 -0.1000 3.0480
        vertex -7.6080 -0.1000 -4.0240
        vertex -7.7680 -0.1000 -1.9400
    endloop
endfacet
facet normal 0.0000 0.6142 0.0000
    outer loop
        vertex -7.8280 -0.1000 3.2320
        vertex -7.8280 -0.1000 2.9000
        vertex -8.1240 -0.1000 2.7680
    endloop
endfacet
facet normal 0.0000 0.9438 0.0000
    outer loop
        vertex -6.6840 -0.1000 2.9000
        vertex -8.1240 -0.1000 2.7680
        vertex -7.8280 -0.1000 2.9000
    endloop
endfacet
facet normal 0.0000 9.4473 0.0000
    outer loop
        vertex 10.9480 -0.1000 -1.8600
        vertex 11.1760 -0.1000 -5.0960
        vertex 10.5040 -0.1000 -2.1880
    endloop
endfacet
endsolid GiantLegoRocks
