solid GiantLegoRocks
facet normal 0.0000 0.7500 0.0000
    outer loop
        vertex 5.0000 0.0000 5.0000
        vertex 5.0000 0.0000 -5.0000
        vertex -5.0000 0.0000 -5.0000
    endloop
endfacet
facet normal 0.0000 0.7500 0.0000
    outer loop
        vertex -5.0000 0.0000 -5.0000
        vertex -5.0000 0.0000 5.0000
        vertex 5.0000 0.0000 5.0000
    endloop
endfacet
facet normal 0.0000 -0.2500 25.0000
    outer loop
        vertex -5.0000 -0.1000 5.0000
        vertex 5.0000 -0.1000 5.0000
        vertex 5.0000 0.0000 5.0000
    endloop
endfacet
facet normal 0.0000 -0.2500 25.0000
    outer loop
        vertex 5.0000 0.0000 5.0000
        vertex -5.0000 0.0000 5.0000
        vertex -5.0000 -0.1000 5.0000
    endloop
endfacet
facet normal -25.0000 -0.2500 0.0000
    outer loop
        vertex -5.0000 -0.1000 -5.0000
        vertex -5.0000 -0.1000 5.0000
        vertex -5.0000 0.0000 5.0000
    endloop
endfacet
facet normal -25.0000 -0.2500 0.0000
    outer loop
        vertex -5.0000 0.0000 5.0000
        vertex -5.0000 0.0000 -5.0000
        vertex -5.0000 -0.1000 -5.0000
    endloop
endfacet
facet normal 0.0000 -0.2500 -25.0000
    outer loop
        vertex 5.0000 -0.1000 -5.0000
        vertex -5.0000 -0.1000 -5.0000
        vertex -5.0000 0.0000 -5.0000
    endloop
endfacet
facet normal 0.0000 -0.2500 -25.0000
    outer loop
        vertex -5.0000 0.0000 -5.0000
        vertex 5.0000 0.0000 -5.0000
        vertex 5.0000 -0.1000 -5.0000
    endloop
endfacet
facet normal 25.0000 -0.2500 0.0000
    outer loop
        vertex 5.0000 -0.1000 5.0000
        vertex 5.0000 -0.1000 -5.0000
        vertex 5.0000 0.0000 -5.0000
    endloop
endfacet
facet normal 25.0000 -0.2500 0.0000
    outer loop
        vertex 5.0000 0.0000 -5.0000
        vertex 5.0000 0.0000 5.0000
        vertex 5.0000 -0.1000 5.0000
    endloop
endfacet
facet normal 0.0000 -2.2598 0.0000
    outer loop
        vertex -3.2222 -0.1000 -0.4243
        vertex -3.1393 -0.1000 -0.8413
        vertex -2.9565 -0.1000 -0.2460
    endloop
endfacet
facet normal 0.0000 -0.6253 0.0000
    outer loop
        vertex -2.0950 -0.1000 -1.3785
        vertex -1.7200 -0.1000 -1.1043
        vertex -1.6575 -0.1000 -0.9960
    endloop
endfacet
facet normal 0.0000 -12.4796 0.0000
    outer loop
        vertex -2.2980 -0.1000 2.2980
        vertex -2.5785 -0.1000 1.9785
        vertex -0.7323 -0.1000 1.3565
    endloop
endfacet
facet normal 0.0000 -6.0490 0.0000
    outer loop
        vertex 1.7903 -0.1000 -1.7743
        vertex 2.8145 -0.1000 -1.6250
        vertex 3.0025 -0.1000 -1.2438
    endloop
endfacet
facet normal 0.0000 -1.5358 0.0000
    outer loop
        vertex 0.4243 -0.1000 3.2222
        vertex 0.8855 -0.1000 2.9340
        vertex 0.8323 -0.1000 3.1415
    endloop
endfacet
facet normal 0.0000 -1.5362 0.0000
    outer loop
        vertex 2.0980 -0.1000 2.2340
        vertex 2.5785 -0.1000 1.9785
        vertex 2.3045 -0.1000 2.2915
    endloop
endfacet
facet normal 0.0000 -28.7144 0.0000
    outer loop
        vertex -2.2927 -0.1000 0.5040
        vertex -1.1325 -0.1000 -0.0867
        vertex -0.6208 -0.1000 1.1860
    endloop
endfacet
facet normal 0.0000 -28.7100 0.0000
    outer loop
        vertex 0.4913 -0.1000 -1.0243
        vertex 1.5828 -0.1000 -1.7335
        vertex 1.3375 -0.1000 0.0555
    endloop
endfacet
facet normal 0.0000 -2.6243 0.0000
    outer loop
        vertex -2.2950 -0.1000 -1.7250
        vertex -2.5785 -0.1000 -1.9785
        vertex -2.3228 -0.1000 -2.2733
    endloop
endfacet
facet normal 0.0000 -1.1783 0.0000
    outer loop
        vertex -2.3228 -0.1000 -2.2733
        vertex -2.2067 -0.1000 -2.0722
        vertex -2.2950 -0.1000 -1.7250
    endloop
endfacet
facet normal 0.0000 -4.6503 0.0000
    outer loop
        vertex -1.8907 -0.1000 -3.5250
        vertex -1.3408 -0.1000 -2.5723
        vertex -1.5573 -0.1000 -2.4473
    endloop
endfacet
facet normal 0.0000 -4.6503 0.0000
    outer loop
        vertex -1.5573 -0.1000 -2.4473
        vertex -2.1073 -0.1000 -3.4000
        vertex -1.8907 -0.1000 -3.5250
    endloop
endfacet
facet normal 0.0000 -1.1782 0.0000
    outer loop
        vertex -0.3465 -0.1000 -2.8500
        vertex -0.6913 -0.1000 -2.9473
        vertex -0.8073 -0.1000 -3.1483
    endloop
endfacet
facet normal 0.0000 -2.6232 0.0000
    outer loop
        vertex -0.8073 -0.1000 -3.1483
        vertex -0.4243 -0.1000 -3.2222
        vertex -0.3465 -0.1000 -2.8500
    endloop
endfacet
facet normal 0.0000 -3.3291 0.0000
    outer loop
        vertex -2.2950 -0.1000 -1.7250
        vertex -2.2067 -0.1000 -2.0722
        vertex -1.5573 -0.1000 -2.4473
    endloop
endfacet
facet normal 0.0000 -4.7144 0.0000
    outer loop
        vertex -1.5573 -0.1000 -2.4473
        vertex -1.3533 -0.1000 -2.2688
        vertex -2.2950 -0.1000 -1.7250
    endloop
endfacet
facet normal 0.0000 -1.2763 0.0000
    outer loop
        vertex -1.3533 -0.1000 -2.2688
        vertex -1.5573 -0.1000 -2.4473
        vertex -1.3408 -0.1000 -2.5723
    endloop
endfacet
facet normal 0.0000 -0.5581 0.0000
    outer loop
        vertex -1.3408 -0.1000 -2.5723
        vertex -1.2882 -0.1000 -2.3062
        vertex -1.3533 -0.1000 -2.2688
    endloop
endfacet
facet normal 0.0000 -4.7148 0.0000
    outer loop
        vertex -0.3465 -0.1000 -2.8500
        vertex -1.2882 -0.1000 -2.3062
        vertex -1.3408 -0.1000 -2.5723
    endloop
endfacet
facet normal 0.0000 -3.3291 0.0000
    outer loop
        vertex -1.3408 -0.1000 -2.5723
        vertex -0.6913 -0.1000 -2.9473
        vertex -0.3465 -0.1000 -2.8500
    endloop
endfacet
facet normal 0.0000 -0.6265 0.0000
    outer loop
        vertex -3.1393 -0.1000 -0.8413
        vertex -3.0025 -0.1000 -1.2438
        vertex -2.8145 -0.1000 -1.6250
    endloop
endfacet
facet normal 0.0000 -10.5533 0.0000
    outer loop
        vertex -2.8145 -0.1000 -1.6250
        vertex -2.0950 -0.1000 -1.3785
        vertex -3.1393 -0.1000 -0.8413
    endloop
endfacet
facet normal 0.0000 -1.0105 0.0000
    outer loop
        vertex -2.5785 -0.1000 -1.9785
        vertex -2.2950 -0.1000 -1.7250
        vertex -2.0950 -0.1000 -1.3785
    endloop
endfacet
facet normal 0.0000 -5.2503 0.0000
    outer loop
        vertex -2.0950 -0.1000 -1.3785
        vertex -2.8145 -0.1000 -1.6250
        vertex -2.5785 -0.1000 -1.9785
    endloop
endfacet
facet normal 0.0000 -0.7304 0.0000
    outer loop
        vertex -1.1533 -0.1000 -1.9223
        vertex -1.3533 -0.1000 -2.2688
        vertex -1.2882 -0.1000 -2.3062
    endloop
endfacet
facet normal 0.0000 -0.7304 0.0000
    outer loop
        vertex -1.2882 -0.1000 -2.3062
        vertex -1.0883 -0.1000 -1.9598
        vertex -1.1533 -0.1000 -1.9223
    endloop
endfacet
facet normal 0.0000 -0.7941 0.0000
    outer loop
        vertex -0.9485 -0.1000 -1.8578
        vertex -1.1345 -0.1000 -1.7503
        vertex -1.1533 -0.1000 -1.9223
    endloop
endfacet
facet normal 0.0000 -0.4399 0.0000
    outer loop
        vertex -1.1533 -0.1000 -1.9223
        vertex -1.0883 -0.1000 -1.9598
        vertex -0.9485 -0.1000 -1.8578
    endloop
endfacet
facet normal 0.0000 -3.8578 0.0000
    outer loop
        vertex -3.2222 -0.1000 -0.4243
        vertex -2.9565 -0.1000 -0.2460
        vertex -3.2222 -0.1000 0.4243
    endloop
endfacet
facet normal 0.0000 -0.6267 0.0000
    outer loop
        vertex -3.2222 -0.1000 0.4243
        vertex -3.2500 -0.1000 0.0000
        vertex -3.2222 -0.1000 -0.4243
    endloop
endfacet
facet normal 0.0000 -10.4016 0.0000
    outer loop
        vertex -3.1393 -0.1000 -0.8413
        vertex -2.0950 -0.1000 -1.3785
        vertex -1.6575 -0.1000 -0.9960
    endloop
endfacet
facet normal 0.0000 -14.8147 0.0000
    outer loop
        vertex -1.6575 -0.1000 -0.9960
        vertex -2.9565 -0.1000 -0.2460
        vertex -3.1393 -0.1000 -0.8413
    endloop
endfacet
facet normal 0.0000 -5.2522 0.0000
    outer loop
        vertex -0.4243 -0.1000 -3.2222
        vertex 0.0000 -0.1000 -3.2500
        vertex -0.1465 -0.1000 -2.5035
    endloop
endfacet
facet normal 0.0000 -1.0102 0.0000
    outer loop
        vertex -0.1465 -0.1000 -2.5035
        vertex -0.3465 -0.1000 -2.8500
        vertex -0.4243 -0.1000 -3.2222
    endloop
endfacet
facet normal 0.0000 -0.6283 0.0000
    outer loop
        vertex 0.0000 -0.1000 -3.2500
        vertex 0.4243 -0.1000 -3.2222
        vertex 0.8413 -0.1000 -3.1393
    endloop
endfacet
facet normal 0.0000 -10.5575 0.0000
    outer loop
        vertex 0.8413 -0.1000 -3.1393
        vertex -0.1465 -0.1000 -2.5035
        vertex 0.0000 -0.1000 -3.2500
    endloop
endfacet
facet normal 0.0000 -3.2499 0.0000
    outer loop
        vertex 1.2652 -0.1000 -2.6835
        vertex -0.0338 -0.1000 -1.9335
        vertex -0.0963 -0.1000 -2.0417
    endloop
endfacet
facet normal 0.0000 -10.8247 0.0000
    outer loop
        vertex -0.0963 -0.1000 -2.0417
        vertex -0.1465 -0.1000 -2.5035
        vertex 1.2652 -0.1000 -2.6835
    endloop
endfacet
facet normal 0.0000 -12.0415 0.0000
    outer loop
        vertex -2.9565 -0.1000 -0.2460
        vertex -2.4315 -0.1000 0.6633
        vertex -3.1393 -0.1000 0.8413
    endloop
endfacet
facet normal 0.0000 -2.9132 0.0000
    outer loop
        vertex -3.1393 -0.1000 0.8413
        vertex -3.2222 -0.1000 0.4243
        vertex -2.9565 -0.1000 -0.2460
    endloop
endfacet
facet normal 0.0000 -6.5054 0.0000
    outer loop
        vertex -0.1465 -0.1000 -2.5035
        vertex 0.8413 -0.1000 -3.1393
        vertex 1.2438 -0.1000 -3.0025
    endloop
endfacet
facet normal 0.0000 -7.5175 0.0000
    outer loop
        vertex 1.2438 -0.1000 -3.0025
        vertex 1.2652 -0.1000 -2.6835
        vertex -0.1465 -0.1000 -2.5035
    endloop
endfacet
facet normal 0.0000 -10.0501 0.0000
    outer loop
        vertex -3.1393 -0.1000 0.8413
        vertex -2.4315 -0.1000 0.6633
        vertex -2.8145 -0.1000 1.6250
    endloop
endfacet
facet normal 0.0000 -0.6265 0.0000
    outer loop
        vertex -2.8145 -0.1000 1.6250
        vertex -3.0025 -0.1000 1.2438
        vertex -3.1393 -0.1000 0.8413
    endloop
endfacet
facet normal 0.0000 -0.6263 0.0000
    outer loop
        vertex 1.2438 -0.1000 -3.0025
        vertex 1.6250 -0.1000 -2.8145
        vertex 1.9785 -0.1000 -2.5785
    endloop
endfacet
facet normal 0.0000 -3.8543 0.0000
    outer loop
        vertex 1.9785 -0.1000 -2.5785
        vertex 1.2652 -0.1000 -2.6835
        vertex 1.2438 -0.1000 -3.0025
    endloop
endfacet
facet normal 0.0000 -2.9143 0.0000
    outer loop
        vertex 1.2652 -0.1000 -2.6835
        vertex 1.9785 -0.1000 -2.5785
        vertex 2.2980 -0.1000 -2.2980
    endloop
endfacet
facet normal 0.0000 -12.0362 0.0000
    outer loop
        vertex 2.2980 -0.1000 -2.2980
        vertex 1.7903 -0.1000 -1.7743
        vertex 1.2652 -0.1000 -2.6835
    endloop
endfacet
facet normal 0.0000 -30.6463 0.0000
    outer loop
        vertex -2.8145 -0.1000 1.6250
        vertex -2.4315 -0.1000 0.6633
        vertex -0.7323 -0.1000 1.3565
    endloop
endfacet
facet normal 0.0000 -13.0411 0.0000
    outer loop
        vertex -0.7323 -0.1000 1.3565
        vertex -2.5785 -0.1000 1.9785
        vertex -2.8145 -0.1000 1.6250
    endloop
endfacet
facet normal 0.0000 -0.6301 0.0000
    outer loop
        vertex -1.6250 -0.1000 2.8145
        vertex -1.9785 -0.1000 2.5785
        vertex -2.2980 -0.1000 2.2980
    endloop
endfacet
facet normal 0.0000 -23.3274 0.0000
    outer loop
        vertex -2.2980 -0.1000 2.2980
        vertex -0.7323 -0.1000 1.3565
        vertex -1.6250 -0.1000 2.8145
    endloop
endfacet
facet normal 0.0000 -0.6301 0.0000
    outer loop
        vertex 2.2980 -0.1000 -2.2980
        vertex 2.5785 -0.1000 -1.9785
        vertex 2.8145 -0.1000 -1.6250
    endloop
endfacet
facet normal 0.0000 -10.0457 0.0000
    outer loop
        vertex 2.8145 -0.1000 -1.6250
        vertex 1.7903 -0.1000 -1.7743
        vertex 2.2980 -0.1000 -2.2980
    endloop
endfacet
facet normal 0.0000 -0.6265 0.0000
    outer loop
        vertex -0.8413 -0.1000 3.1393
        vertex -1.2438 -0.1000 3.0025
        vertex -1.6250 -0.1000 2.8145
    endloop
endfacet
facet normal 0.0000 -23.1720 0.0000
    outer loop
        vertex -1.6250 -0.1000 2.8145
        vertex -0.7323 -0.1000 1.3565
        vertex -0.8413 -0.1000 3.1393
    endloop
endfacet
facet normal 0.0000 -6.8962 0.0000
    outer loop
        vertex 1.7903 -0.1000 -1.7743
        vertex 3.0025 -0.1000 -1.2438
        vertex 3.1393 -0.1000 -0.8413
    endloop
endfacet
facet normal 0.0000 -43.2159 0.0000
    outer loop
        vertex 3.1393 -0.1000 -0.8413
        vertex 1.5410 -0.1000 0.0440
        vertex 1.7903 -0.1000 -1.7743
    endloop
endfacet
facet normal 0.0000 -0.6283 0.0000
    outer loop
        vertex 3.1393 -0.1000 -0.8413
        vertex 3.2222 -0.1000 -0.4243
        vertex 3.2500 -0.1000 0.0000
    endloop
endfacet
facet normal 0.0000 -23.3311 0.0000
    outer loop
        vertex 3.2500 -0.1000 0.0000
        vertex 1.5410 -0.1000 0.0440
        vertex 3.1393 -0.1000 -0.8413
    endloop
endfacet
facet normal 0.0000 -24.4390 0.0000
    outer loop
        vertex -0.8413 -0.1000 3.1393
        vertex -0.7323 -0.1000 1.3565
        vertex 0.0000 -0.1000 3.2500
    endloop
endfacet
facet normal 0.0000 -0.6283 0.0000
    outer loop
        vertex 0.0000 -0.1000 3.2500
        vertex -0.4243 -0.1000 3.2222
        vertex -0.8413 -0.1000 3.1393
    endloop
endfacet
facet normal 0.0000 -19.3530 0.0000
    outer loop
        vertex -0.7323 -0.1000 1.3565
        vertex 0.8855 -0.1000 2.9340
        vertex 0.4243 -0.1000 3.2222
    endloop
endfacet
facet normal 0.0000 -13.4282 0.0000
    outer loop
        vertex 0.4243 -0.1000 3.2222
        vertex 0.0000 -0.1000 3.2500
        vertex -0.7323 -0.1000 1.3565
    endloop
endfacet
facet normal 0.0000 -0.6283 0.0000
    outer loop
        vertex 3.2500 -0.1000 0.0000
        vertex 3.2222 -0.1000 0.4243
        vertex 3.1393 -0.1000 0.8413
    endloop
endfacet
facet normal 0.0000 -23.1752 0.0000
    outer loop
        vertex 3.1393 -0.1000 0.8413
        vertex 1.5410 -0.1000 0.0440
        vertex 3.2500 -0.1000 0.0000
    endloop
endfacet
facet normal 0.0000 -24.4346 0.0000
    outer loop
        vertex 2.8145 -0.1000 1.6250
        vertex 1.5410 -0.1000 0.0440
        vertex 3.1393 -0.1000 0.8413
    endloop
endfacet
facet normal 0.0000 -0.6265 0.0000
    outer loop
        vertex 3.1393 -0.1000 0.8413
        vertex 3.0025 -0.1000 1.2438
        vertex 2.8145 -0.1000 1.6250
    endloop
endfacet
facet normal 0.0000 -19.3637 0.0000
    outer loop
        vertex 2.5785 -0.1000 1.9785
        vertex 2.0980 -0.1000 2.2340
        vertex 1.5410 -0.1000 0.0440
    endloop
endfacet
facet normal 0.0000 -13.4228 0.0000
    outer loop
        vertex 1.5410 -0.1000 0.0440
        vertex 2.8145 -0.1000 1.6250
        vertex 2.5785 -0.1000 1.9785
    endloop
endfacet
facet normal 0.0000 -2.1009 0.0000
    outer loop
        vertex 1.4730 -0.1000 3.9515
        vertex 1.2183 -0.1000 3.8100
        vertex 0.8323 -0.1000 3.1415
    endloop
endfacet
facet normal 0.0000 -3.0674 0.0000
    outer loop
        vertex 0.8323 -0.1000 3.1415
        vertex 0.8855 -0.1000 2.9340
        vertex 1.4730 -0.1000 3.9515
    endloop
endfacet
facet normal 0.0000 -3.0713 0.0000
    outer loop
        vertex 2.6855 -0.1000 3.2515
        vertex 2.0980 -0.1000 2.2340
        vertex 2.3045 -0.1000 2.2915
    endloop
endfacet
facet normal 0.0000 -2.1038 0.0000
    outer loop
        vertex 2.3045 -0.1000 2.2915
        vertex 2.6905 -0.1000 2.9600
        vertex 2.6855 -0.1000 3.2515
    endloop
endfacet
facet normal 0.0000 -72.2503 0.0000
    outer loop
        vertex 0.1123 -0.1000 -0.8055
        vertex 2.3622 -0.1000 3.0918
        vertex 1.4963 -0.1000 3.5918
    endloop
endfacet
facet normal 0.0000 -72.2503 0.0000
    outer loop
        vertex 1.4963 -0.1000 3.5918
        vertex -0.7538 -0.1000 -0.3055
        vertex 0.1123 -0.1000 -0.8055
    endloop
endfacet
facet normal 0.0000 -13.7685 0.0000
    outer loop
        vertex -2.5835 -0.1000 0.0005
        vertex -1.4575 -0.1000 -0.6495
        vertex -1.1325 -0.1000 -0.0867
    endloop
endfacet
facet normal 0.0000 -12.3451 0.0000
    outer loop
        vertex -1.1325 -0.1000 -0.0867
        vertex -2.2927 -0.1000 0.5040
        vertex -2.5835 -0.1000 0.0005
    endloop
endfacet
facet normal 0.0000 -16.7853 0.0000
    outer loop
        vertex 0.7147 -0.1000 2.4880
        vertex -0.6208 -0.1000 1.1860
        vertex -1.1325 -0.1000 -0.0867
    endloop
endfacet
facet normal 0.0000 -16.0116 0.0000
    outer loop
        vertex -1.1325 -0.1000 -0.0867
        vertex -0.8620 -0.1000 -0.2430
        vertex 0.7147 -0.1000 2.4880
    endloop
endfacet
facet normal 0.0000 -13.7663 0.0000
    outer loop
        vertex 0.4913 -0.1000 -1.0243
        vertex 0.1663 -0.1000 -1.5870
        vertex 1.2920 -0.1000 -2.2370
    endloop
endfacet
facet normal 0.0000 -12.3426 0.0000
    outer loop
        vertex 1.2920 -0.1000 -2.2370
        vertex 1.5828 -0.1000 -1.7335
        vertex 0.4913 -0.1000 -1.0243
    endloop
endfacet
facet normal 0.0000 -16.0226 0.0000
    outer loop
        vertex 1.7973 -0.1000 1.8630
        vertex 0.2205 -0.1000 -0.8680
        vertex 0.4913 -0.1000 -1.0243
    endloop
endfacet
facet normal 0.0000 -16.7809 0.0000
    outer loop
        vertex 0.4913 -0.1000 -1.0243
        vertex 1.3375 -0.1000 0.0555
        vertex 1.7973 -0.1000 1.8630
    endloop
endfacet
facet normal 0.0000 -10.5366 0.0000
    outer loop
        vertex -1.6118 -0.1000 -1.1668
        vertex -1.0815 -0.1000 -1.4730
        vertex -0.5565 -0.1000 -0.5637
    endloop
endfacet
facet normal 0.0000 -10.5366 0.0000
    outer loop
        vertex -0.5565 -0.1000 -0.5637
        vertex -1.0868 -0.1000 -0.2575
        vertex -1.6118 -0.1000 -1.1668
    endloop
endfacet
facet normal 0.0000 -10.5402 0.0000
    outer loop
        vertex -0.2045 -0.1000 -1.9793
        vertex 0.3205 -0.1000 -1.0700
        vertex -0.2100 -0.1000 -0.7638
    endloop
endfacet
facet normal 0.0000 -10.5402 0.0000
    outer loop
        vertex -0.2100 -0.1000 -0.7638
        vertex -0.7350 -0.1000 -1.6730
        vertex -0.2045 -0.1000 -1.9793
    endloop
endfacet
facet normal 0.0000 -6.6786 0.0000
    outer loop
        vertex 2.5048 -0.1000 3.3560
        vertex 2.6968 -0.1000 4.1688
        vertex 2.2618 -0.1000 4.4200
    endloop
endfacet
facet normal 0.0000 -12.8242 0.0000
    outer loop
        vertex 2.2618 -0.1000 4.4200
        vertex 1.6540 -0.1000 3.8470
        vertex 2.5048 -0.1000 3.3560
    endloop
endfacet
facet normal 0.0000 -0.3522 0.0000
    outer loop
        vertex -1.0115 -0.1000 -1.6770
        vertex -0.9465 -0.1000 -1.7145
        vertex -0.8715 -0.1000 -1.6595
    endloop
endfacet
facet normal 0.0000 -0.4544 0.0000
    outer loop
        vertex -0.8715 -0.1000 -1.6595
        vertex -1.0015 -0.1000 -1.5845
        vertex -1.0115 -0.1000 -1.6770
    endloop
endfacet
facet normal 0.0000 -2.9071 0.0000
    outer loop
        vertex -0.8715 -0.1000 -1.6595
        vertex -0.3182 -0.1000 -0.7013
        vertex -0.4483 -0.1000 -0.6262
    endloop
endfacet
facet normal 0.0000 -2.9071 0.0000
    outer loop
        vertex -0.4483 -0.1000 -0.6262
        vertex -1.0015 -0.1000 -1.5845
        vertex -0.8715 -0.1000 -1.6595
    endloop
endfacet
facet normal 0.0000 -2.4420 0.0000
    outer loop
        vertex -4.0000 -0.1000 0.0000
        vertex -4.0000 -0.1000 -4.0000
        vertex -3.9657 -0.1000 -0.5220
    endloop
endfacet
facet normal 0.0000 -6.2074 0.0000
    outer loop
        vertex -3.9657 -0.1000 -0.5220
        vertex -4.0000 -0.1000 -4.0000
        vertex -3.8638 -0.1000 -1.0353
    endloop
endfacet
facet normal 0.0000 -2.4420 0.0000
    outer loop
        vertex -0.5220 -0.1000 -3.9657
        vertex -4.0000 -0.1000 -4.0000
        vertex 0.0000 -0.1000 -4.0000
    endloop
endfacet
facet normal 0.0000 -6.2074 0.0000
    outer loop
        vertex -1.0353 -0.1000 -3.8638
        vertex -4.0000 -0.1000 -4.0000
        vertex -0.5220 -0.1000 -3.9657
    endloop
endfacet
facet normal 0.0000 -9.3113 0.0000
    outer loop
        vertex -1.5308 -0.1000 -3.6955
        vertex -4.0000 -0.1000 -4.0000
        vertex -1.0353 -0.1000 -3.8638
    endloop
endfacet
facet normal 0.0000 -8.7400 0.0000
    outer loop
        vertex -1.8907 -0.1000 -3.5250
        vertex -4.0000 -0.1000 -4.0000
        vertex -1.5308 -0.1000 -3.6955
    endloop
endfacet
facet normal 0.0000 -10.2557 0.0000
    outer loop
        vertex -2.4350 -0.1000 -3.1735
        vertex -4.0000 -0.1000 -4.0000
        vertex -2.1073 -0.1000 -3.4000
    endloop
endfacet
facet normal 0.0000 -6.1139 0.0000
    outer loop
        vertex -2.1073 -0.1000 -3.4000
        vertex -4.0000 -0.1000 -4.0000
        vertex -1.8907 -0.1000 -3.5250
    endloop
endfacet
facet normal 0.0000 -14.0924 0.0000
    outer loop
        vertex -2.8285 -0.1000 -2.8285
        vertex -4.0000 -0.1000 -4.0000
        vertex -2.4350 -0.1000 -3.1735
    endloop
endfacet
facet normal 0.0000 -14.0924 0.0000
    outer loop
        vertex -3.1735 -0.1000 -2.4350
        vertex -4.0000 -0.1000 -4.0000
        vertex -2.8285 -0.1000 -2.8285
    endloop
endfacet
facet normal 0.0000 -13.2766 0.0000
    outer loop
        vertex -3.4640 -0.1000 -2.0000
        vertex -4.0000 -0.1000 -4.0000
        vertex -3.1735 -0.1000 -2.4350
    endloop
endfacet
facet normal 0.0000 -11.6823 0.0000
    outer loop
        vertex -3.6955 -0.1000 -1.5308
        vertex -4.0000 -0.1000 -4.0000
        vertex -3.4640 -0.1000 -2.0000
    endloop
endfacet
facet normal 0.0000 -9.3113 0.0000
    outer loop
        vertex -3.8638 -0.1000 -1.0353
        vertex -4.0000 -0.1000 -4.0000
        vertex -3.6955 -0.1000 -1.5308
    endloop
endfacet
facet normal 0.0000 -2.4420 0.0000
    outer loop
        vertex 4.0000 -0.1000 0.0000
        vertex 3.9657 -0.1000 -0.5220
        vertex 4.0000 -0.1000 -4.0000
    endloop
endfacet
facet normal 0.0000 -6.2074 0.0000
    outer loop
        vertex 3.9657 -0.1000 -0.5220
        vertex 3.8638 -0.1000 -1.0353
        vertex 4.0000 -0.1000 -4.0000
    endloop
endfacet
facet normal 0.0000 -9.3113 0.0000
    outer loop
        vertex 3.8638 -0.1000 -1.0353
        vertex 3.6955 -0.1000 -1.5308
        vertex 4.0000 -0.1000 -4.0000
    endloop
endfacet
facet normal 0.0000 -11.6823 0.0000
    outer loop
        vertex 3.6955 -0.1000 -1.5308
        vertex 3.4640 -0.1000 -2.0000
        vertex 4.0000 -0.1000 -4.0000
    endloop
endfacet
facet normal 0.0000 -2.4420 0.0000
    outer loop
        vertex 0.5220 -0.1000 -3.9657
        vertex 0.0000 -0.1000 -4.0000
        vertex 4.0000 -0.1000 -4.0000
    endloop
endfacet
facet normal 0.0000 -6.2074 0.0000
    outer loop
        vertex 1.0353 -0.1000 -3.8638
        vertex 0.5220 -0.1000 -3.9657
        vertex 4.0000 -0.1000 -4.0000
    endloop
endfacet
facet normal 0.0000 -9.3113 0.0000
    outer loop
        vertex 1.5308 -0.1000 -3.6955
        vertex 1.0353 -0.1000 -3.8638
        vertex 4.0000 -0.1000 -4.0000
    endloop
endfacet
facet normal 0.0000 -11.6823 0.0000
    outer loop
        vertex 2.0000 -0.1000 -3.4640
        vertex 1.5308 -0.1000 -3.6955
        vertex 4.0000 -0.1000 -4.0000
    endloop
endfacet
facet normal 0.0000 -13.2766 0.0000
    outer loop
        vertex 2.4350 -0.1000 -3.1735
        vertex 2.0000 -0.1000 -3.4640
        vertex 4.0000 -0.1000 -4.0000
    endloop
endfacet
facet normal 0.0000 -14.0924 0.0000
    outer loop
        vertex 2.8285 -0.1000 -2.8285
        vertex 2.4350 -0.1000 -3.1735
        vertex 4.0000 -0.1000 -4.0000
    endloop
endfacet
facet normal 0.0000 -14.0924 0.0000
    outer loop
        vertex 3.1735 -0.1000 -2.4350
        vertex 2.8285 -0.1000 -2.8285
        vertex 4.0000 -0.1000 -4.0000
    endloop
endfacet
facet normal 0.0000 -13.2766 0.0000
    outer loop
        vertex 3.4640 -0.1000 -2.0000
        vertex 3.1735 -0.1000 -2.4350
        vertex 4.0000 -0.1000 -4.0000
    endloop
endfacet
facet normal 0.0000 -0.8834 0.0000
    outer loop
        vertex 1.4730 -0.1000 3.9515
        vertex 1.0353 -0.1000 3.8638
        vertex 1.2183 -0.1000 3.8100
    endloop
endfacet
facet normal 0.0000 -8.0170 0.0000
    outer loop
        vertex -4.0000 -0.1000 4.6675
        vertex -0.5220 -0.1000 3.9657
        vertex 0.0000 -0.1000 4.0000
    endloop
endfacet
facet normal 0.0000 -11.6889 0.0000
    outer loop
        vertex -4.0000 -0.1000 4.6675
        vertex -1.0353 -0.1000 3.8638
        vertex -0.5220 -0.1000 3.9657
    endloop
endfacet
facet normal 0.0000 -14.6032 0.0000
    outer loop
        vertex -4.0000 -0.1000 4.6675
        vertex -1.5308 -0.1000 3.6955
        vertex -1.0353 -0.1000 3.8638
    endloop
endfacet
facet normal 0.0000 -16.6939 0.0000
    outer loop
        vertex -4.0000 -0.1000 4.6675
        vertex -2.0000 -0.1000 3.4640
        vertex -1.5308 -0.1000 3.6955
    endloop
endfacet
facet normal 0.0000 -17.9224 0.0000
    outer loop
        vertex -4.0000 -0.1000 4.6675
        vertex -2.4350 -0.1000 3.1735
        vertex -2.0000 -0.1000 3.4640
    endloop
endfacet
facet normal 0.0000 -18.2950 0.0000
    outer loop
        vertex -4.0000 -0.1000 4.6675
        vertex -2.8285 -0.1000 2.8285
        vertex -2.4350 -0.1000 3.1735
    endloop
endfacet
facet normal 0.0000 -17.7770 0.0000
    outer loop
        vertex -4.0000 -0.1000 4.6675
        vertex -3.1735 -0.1000 2.4350
        vertex -2.8285 -0.1000 2.8285
    endloop
endfacet
facet normal 0.0000 -16.3791 0.0000
    outer loop
        vertex -4.0000 -0.1000 4.6675
        vertex -3.4640 -0.1000 2.0000
        vertex -3.1735 -0.1000 2.4350
    endloop
endfacet
facet normal 0.0000 -2.8078 0.0000
    outer loop
        vertex -4.0000 -0.1000 4.6675
        vertex -4.0000 -0.1000 0.0000
        vertex -3.9657 -0.1000 0.5220
    endloop
endfacet
facet normal 0.0000 -7.2967 0.0000
    outer loop
        vertex -4.0000 -0.1000 4.6675
        vertex -3.9657 -0.1000 0.5220
        vertex -3.8638 -0.1000 1.0353
    endloop
endfacet
facet normal 0.0000 -11.1082 0.0000
    outer loop
        vertex -4.0000 -0.1000 4.6675
        vertex -3.8638 -0.1000 1.0353
        vertex -3.6955 -0.1000 1.5308
    endloop
endfacet
facet normal 0.0000 -14.1547 0.0000
    outer loop
        vertex -4.0000 -0.1000 4.6675
        vertex -3.6955 -0.1000 1.5308
        vertex -3.4640 -0.1000 2.0000
    endloop
endfacet
facet normal 0.0000 -11.5588 0.0000
    outer loop
        vertex 4.0000 -0.1000 4.6675
        vertex 2.2330 -0.1000 4.6675
        vertex 2.9258 -0.1000 4.2675
    endloop
endfacet
facet normal 0.0000 -2.8078 0.0000
    outer loop
        vertex 4.0000 -0.1000 4.6675
        vertex 3.9657 -0.1000 0.5220
        vertex 4.0000 -0.1000 0.0000
    endloop
endfacet
facet normal 0.0000 -7.2967 0.0000
    outer loop
        vertex 4.0000 -0.1000 4.6675
        vertex 3.8638 -0.1000 1.0353
        vertex 3.9657 -0.1000 0.5220
    endloop
endfacet
facet normal 0.0000 -11.1082 0.0000
    outer loop
        vertex 4.0000 -0.1000 4.6675
        vertex 3.6955 -0.1000 1.5308
        vertex 3.8638 -0.1000 1.0353
    endloop
endfacet
facet normal 0.0000 -14.1547 0.0000
    outer loop
        vertex 4.0000 -0.1000 4.6675
        vertex 3.4640 -0.1000 2.0000
        vertex 3.6955 -0.1000 1.5308
    endloop
endfacet
facet normal 0.0000 -16.3791 0.0000
    outer loop
        vertex 4.0000 -0.1000 4.6675
        vertex 3.1735 -0.1000 2.4350
        vertex 3.4640 -0.1000 2.0000
    endloop
endfacet
facet normal 0.0000 -1.6850 0.0000
    outer loop
        vertex 0.5220 -0.1000 3.9657
        vertex 1.0353 -0.1000 3.8638
        vertex 1.4730 -0.1000 3.9515
    endloop
endfacet
facet normal 0.0000 -11.3179 0.0000
    outer loop
        vertex 1.4730 -0.1000 3.9515
        vertex 2.2330 -0.1000 4.6675
        vertex 0.5220 -0.1000 3.9657
    endloop
endfacet
facet normal 0.0000 -7.0486 0.0000
    outer loop
        vertex 0.0000 -0.1000 4.0000
        vertex 0.5220 -0.1000 3.9657
        vertex 2.2330 -0.1000 4.6675
    endloop
endfacet
facet normal 0.0000 -66.8184 0.0000
    outer loop
        vertex 2.2330 -0.1000 4.6675
        vertex -4.0000 -0.1000 4.6675
        vertex 0.0000 -0.1000 4.0000
    endloop
endfacet
facet normal 0.0000 -0.8831 0.0000
    outer loop
        vertex 2.6855 -0.1000 3.2515
        vertex 2.6905 -0.1000 2.9600
        vertex 2.8285 -0.1000 2.8285
    endloop
endfacet
facet normal 0.0000 -4.2006 0.0000
    outer loop
        vertex 2.8285 -0.1000 2.8285
        vertex 2.9258 -0.1000 4.2675
        vertex 2.6855 -0.1000 3.2515
    endloop
endfacet
facet normal 0.0000 -24.3611 0.0000
    outer loop
        vertex 4.0000 -0.1000 4.6675
        vertex 2.9258 -0.1000 4.2675
        vertex 2.8285 -0.1000 2.8285
    endloop
endfacet
facet normal 0.0000 -17.7770 0.0000
    outer loop
        vertex 2.8285 -0.1000 2.8285
        vertex 3.1735 -0.1000 2.4350
        vertex 4.0000 -0.1000 4.6675
    endloop
endfacet
facet normal 0.0000 -62.5000 0.0000
    outer loop
        vertex 0.0000 -0.1000 -4.0000
        vertex -5.0000 -0.1000 -5.0000
        vertex 5.0000 -0.1000 -5.0000
    endloop
endfacet
facet normal 0.0000 -62.5000 0.0000
    outer loop
        vertex -4.0000 -0.1000 0.0000
        vertex -5.0000 -0.1000 5.0000
        vertex -5.0000 -0.1000 -5.0000
    endloop
endfacet
facet normal 0.0000 -25.0000 0.0000
    outer loop
        vertex -4.0000 -0.1000 0.0000
        vertex -5.0000 -0.1000 -5.0000
        vertex -4.0000 -0.1000 -4.0000
    endloop
endfacet
facet normal 0.0000 -29.1719 0.0000
    outer loop
        vertex -4.0000 -0.1000 0.0000
        vertex -4.0000 -0.1000 4.6675
        vertex -5.0000 -0.1000 5.0000
    endloop
endfacet
facet normal 0.0000 -12.9530 0.0000
    outer loop
        vertex -4.0000 -0.1000 4.6675
        vertex 2.2330 -0.1000 4.6675
        vertex -5.0000 -0.1000 5.0000
    endloop
endfacet
facet normal 0.0000 -20.7813 0.0000
    outer loop
        vertex -5.0000 -0.1000 5.0000
        vertex 2.2330 -0.1000 4.6675
        vertex 5.0000 -0.1000 5.0000
    endloop
endfacet
facet normal 0.0000 -3.6720 0.0000
    outer loop
        vertex 5.0000 -0.1000 5.0000
        vertex 2.2330 -0.1000 4.6675
        vertex 4.0000 -0.1000 4.6675
    endloop
endfacet
facet normal 0.0000 -25.0000 0.0000
    outer loop
        vertex 0.0000 -0.1000 -4.0000
        vertex -4.0000 -0.1000 -4.0000
        vertex -5.0000 -0.1000 -5.0000
    endloop
endfacet
facet normal 0.0000 -25.0000 0.0000
    outer loop
        vertex 4.0000 -0.1000 -4.0000
        vertex 0.0000 -0.1000 -4.0000
        vertex 5.0000 -0.1000 -5.0000
    endloop
endfacet
facet normal 0.0000 -62.5000 0.0000
    outer loop
        vertex 4.0000 -0.1000 0.0000
        vertex 5.0000 -0.1000 -5.0000
        vertex 5.0000 -0.1000 5.0000
    endloop
endfacet
facet normal 0.0000 -29.1719 0.0000
    outer loop
        vertex 4.0000 -0.1000 0.0000
        vertex 5.0000 -0.1000 5.0000
        vertex 4.0000 -0.1000 4.6675
    endloop
endfacet
facet normal 0.0000 -25.0000 0.0000
    outer loop
        vertex 4.0000 -0.1000 0.0000
        vertex 4.0000 -0.1000 -4.0000
        vertex 5.0000 -0.1000 -5.0000
    endloop
endfacet
facet normal 0.0000 -1.1000 0.0000
    outer loop
        vertex -1.7200 -0.1000 -1.1043
        vertex -2.0950 -0.1000 -1.3785
        vertex -1.6118 -0.1000 -1.1668
    endloop
endfacet
facet normal 0.0000 -0.5000 0.0000
    outer loop
        vertex -1.7200 -0.1000 -1.1043
        vertex -1.6118 -0.1000 -1.1668
        vertex -1.6575 -0.1000 -0.9960
    endloop
endfacet
facet normal 0.0000 -2.8619 0.0000
    outer loop
        vertex -1.6118 -0.1000 -1.1668
        vertex -1.1345 -0.1000 -1.7503
        vertex -1.0815 -0.1000 -1.4730
    endloop
endfacet
facet normal 0.0000 -2.8643 0.0000
    outer loop
        vertex -0.7350 -0.1000 -1.6730
        vertex -0.9485 -0.1000 -1.8578
        vertex -0.2045 -0.1000 -1.9793
    endloop
endfacet
facet normal 0.0000 -1.1000 0.0000
    outer loop
        vertex -0.2045 -0.1000 -1.9793
        vertex -0.1465 -0.1000 -2.5035
        vertex -0.0963 -0.1000 -2.0417
    endloop
endfacet
facet normal 0.0000 -0.5000 0.0000
    outer loop
        vertex -0.2045 -0.1000 -1.9793
        vertex -0.0963 -0.1000 -2.0417
        vertex -0.0338 -0.1000 -1.9335
    endloop
endfacet
facet normal 0.0000 -1.5498 0.0000
    outer loop
        vertex -1.4575 -0.1000 -0.6495
        vertex -1.0868 -0.1000 -0.2575
        vertex -1.1325 -0.1000 -0.0867
    endloop
endfacet
facet normal 0.0000 -0.8746 0.0000
    outer loop
        vertex -1.1325 -0.1000 -0.0867
        vertex -1.0868 -0.1000 -0.2575
        vertex -0.8620 -0.1000 -0.2430
    endloop
endfacet
facet normal 0.0000 -0.4999 0.0000
    outer loop
        vertex -0.3182 -0.1000 -0.7013
        vertex -0.2100 -0.1000 -0.7638
        vertex 0.1123 -0.1000 -0.8055
    endloop
endfacet
facet normal 0.0000 -0.5498 0.0000
    outer loop
        vertex -0.4483 -0.1000 -0.6262
        vertex -0.3182 -0.1000 -0.7013
        vertex 0.1123 -0.1000 -0.8055
    endloop
endfacet
facet normal 0.0000 -0.8751 0.0000
    outer loop
        vertex 0.2205 -0.1000 -0.8680
        vertex 0.3205 -0.1000 -1.0700
        vertex 0.4913 -0.1000 -1.0243
    endloop
endfacet
facet normal 0.0000 -1.5495 0.0000
    outer loop
        vertex 0.3205 -0.1000 -1.0700
        vertex 0.1663 -0.1000 -1.5870
        vertex 0.4913 -0.1000 -1.0243
    endloop
endfacet
facet normal 0.0000 -1.2530 0.0000
    outer loop
        vertex 1.4730 -0.1000 3.9515
        vertex 1.4963 -0.1000 3.5918
        vertex 1.6540 -0.1000 3.8470
    endloop
endfacet
facet normal 0.0000 -1.2525 0.0000
    outer loop
        vertex 2.5048 -0.1000 3.3560
        vertex 2.3622 -0.1000 3.0918
        vertex 2.6855 -0.1000 3.2515
    endloop
endfacet
facet normal 0.0000 -7.2111 0.0000
    outer loop
        vertex -2.2950 -0.1000 -1.7250
        vertex -1.3533 -0.1000 -2.2688
        vertex -1.1533 -0.1000 -1.9223
    endloop
endfacet
facet normal 0.0000 -7.2111 0.0000
    outer loop
        vertex -1.1533 -0.1000 -1.9223
        vertex -2.0950 -0.1000 -1.3785
        vertex -2.2950 -0.1000 -1.7250
    endloop
endfacet
facet normal 0.0000 -1.7384 0.0000
    outer loop
        vertex -1.1533 -0.1000 -1.9223
        vertex -1.1345 -0.1000 -1.7503
        vertex -1.6118 -0.1000 -1.1668
    endloop
endfacet
facet normal 0.0000 -7.6449 0.0000
    outer loop
        vertex -1.6118 -0.1000 -1.1668
        vertex -2.0950 -0.1000 -1.3785
        vertex -1.1533 -0.1000 -1.9223
    endloop
endfacet
facet normal 0.0000 -0.4002 0.0000
    outer loop
        vertex -0.9485 -0.1000 -1.8578
        vertex -0.9465 -0.1000 -1.7145
        vertex -1.0115 -0.1000 -1.6770
    endloop
endfacet
facet normal 0.0000 -0.6796 0.0000
    outer loop
        vertex -1.0115 -0.1000 -1.6770
        vertex -1.1345 -0.1000 -1.7503
        vertex -0.9485 -0.1000 -1.8578
    endloop
endfacet
facet normal 0.0000 -7.2111 0.0000
    outer loop
        vertex -1.2882 -0.1000 -2.3062
        vertex -0.3465 -0.1000 -2.8500
        vertex -0.1465 -0.1000 -2.5035
    endloop
endfacet
facet normal 0.0000 -7.2111 0.0000
    outer loop
        vertex -0.1465 -0.1000 -2.5035
        vertex -1.0883 -0.1000 -1.9598
        vertex -1.2882 -0.1000 -2.3062
    endloop
endfacet
facet normal 0.0000 -0.3862 0.0000
    outer loop
        vertex -1.0115 -0.1000 -1.6770
        vertex -1.0015 -0.1000 -1.5845
        vertex -1.0815 -0.1000 -1.4730
    endloop
endfacet
facet normal 0.0000 -0.7335 0.0000
    outer loop
        vertex -1.0815 -0.1000 -1.4730
        vertex -1.1345 -0.1000 -1.7503
        vertex -1.0115 -0.1000 -1.6770
    endloop
endfacet
facet normal 0.0000 -0.7334 0.0000
    outer loop
        vertex -0.9465 -0.1000 -1.7145
        vertex -0.9485 -0.1000 -1.8578
        vertex -0.7350 -0.1000 -1.6730
    endloop
endfacet
facet normal 0.0000 -0.3863 0.0000
    outer loop
        vertex -0.7350 -0.1000 -1.6730
        vertex -0.8715 -0.1000 -1.6595
        vertex -0.9465 -0.1000 -1.7145
    endloop
endfacet
facet normal 0.0000 -7.6448 0.0000
    outer loop
        vertex -1.0883 -0.1000 -1.9598
        vertex -0.1465 -0.1000 -2.5035
        vertex -0.2045 -0.1000 -1.9793
    endloop
endfacet
facet normal 0.0000 -1.7359 0.0000
    outer loop
        vertex -0.2045 -0.1000 -1.9793
        vertex -0.9485 -0.1000 -1.8578
        vertex -1.0883 -0.1000 -1.9598
    endloop
endfacet
facet normal 0.0000 -9.8517 0.0000
    outer loop
        vertex -2.9565 -0.1000 -0.2460
        vertex -1.6575 -0.1000 -0.9960
        vertex -1.4575 -0.1000 -0.6495
    endloop
endfacet
facet normal 0.0000 -8.5701 0.0000
    outer loop
        vertex -1.4575 -0.1000 -0.6495
        vertex -2.5835 -0.1000 0.0005
        vertex -2.9565 -0.1000 -0.2460
    endloop
endfacet
facet normal 0.0000 -3.6062 0.0000
    outer loop
        vertex -2.2927 -0.1000 0.5040
        vertex -2.4315 -0.1000 0.6633
        vertex -2.9565 -0.1000 -0.2460
    endloop
endfacet
facet normal 0.0000 -2.1082 0.0000
    outer loop
        vertex -2.9565 -0.1000 -0.2460
        vertex -2.5835 -0.1000 0.0005
        vertex -2.2927 -0.1000 0.5040
    endloop
endfacet
facet normal 0.0000 -2.3498 0.0000
    outer loop
        vertex 0.3205 -0.1000 -1.0700
        vertex -0.2045 -0.1000 -1.9793
        vertex -0.0338 -0.1000 -1.9335
    endloop
endfacet
facet normal 0.0000 -1.0492 0.0000
    outer loop
        vertex -0.0338 -0.1000 -1.9335
        vertex 0.1663 -0.1000 -1.5870
        vertex 0.3205 -0.1000 -1.0700
    endloop
endfacet
facet normal 0.0000 -2.4629 0.0000
    outer loop
        vertex -1.0015 -0.1000 -1.5845
        vertex -0.4483 -0.1000 -0.6262
        vertex -0.5565 -0.1000 -0.5637
    endloop
endfacet
facet normal 0.0000 -2.3504 0.0000
    outer loop
        vertex -0.5565 -0.1000 -0.5637
        vertex -1.0815 -0.1000 -1.4730
        vertex -1.0015 -0.1000 -1.5845
    endloop
endfacet
facet normal 0.0000 -0.5000 0.0000
    outer loop
        vertex -0.5565 -0.1000 -0.5637
        vertex -0.7538 -0.1000 -0.3055
        vertex -0.8620 -0.1000 -0.2430
    endloop
endfacet
facet normal 0.0000 -1.4743 0.0000
    outer loop
        vertex -0.8620 -0.1000 -0.2430
        vertex -1.0868 -0.1000 -0.2575
        vertex -0.5565 -0.1000 -0.5637
    endloop
endfacet
facet normal 0.0000 -2.2503 0.0000
    outer loop
        vertex 0.1123 -0.1000 -0.8055
        vertex -0.7538 -0.1000 -0.3055
        vertex -0.5565 -0.1000 -0.5637
    endloop
endfacet
facet normal 0.0000 -0.5000 0.0000
    outer loop
        vertex -0.5565 -0.1000 -0.5637
        vertex -0.4483 -0.1000 -0.6262
        vertex 0.1123 -0.1000 -0.8055
    endloop
endfacet
facet normal 0.0000 -0.4999 0.0000
    outer loop
        vertex 0.2205 -0.1000 -0.8680
        vertex 0.1123 -0.1000 -0.8055
        vertex -0.2100 -0.1000 -0.7638
    endloop
endfacet
facet normal 0.0000 -1.4746 0.0000
    outer loop
        vertex -0.2100 -0.1000 -0.7638
        vertex 0.3205 -0.1000 -1.0700
        vertex 0.2205 -0.1000 -0.8680
    endloop
endfacet
facet normal 0.0000 -2.1116 0.0000
    outer loop
        vertex 1.5828 -0.1000 -1.7335
        vertex 1.2920 -0.1000 -2.2370
        vertex 1.2652 -0.1000 -2.6835
    endloop
endfacet
facet normal 0.0000 -3.6110 0.0000
    outer loop
        vertex 1.2652 -0.1000 -2.6835
        vertex 1.7903 -0.1000 -1.7743
        vertex 1.5828 -0.1000 -1.7335
    endloop
endfacet
facet normal 0.0000 -6.1223 0.0000
    outer loop
        vertex -0.6208 -0.1000 1.1860
        vertex -0.7323 -0.1000 1.3565
        vertex -2.4315 -0.1000 0.6633
    endloop
endfacet
facet normal 0.0000 -6.0243 0.0000
    outer loop
        vertex -2.4315 -0.1000 0.6633
        vertex -2.2927 -0.1000 0.5040
        vertex -0.6208 -0.1000 1.1860
    endloop
endfacet
facet normal 0.0000 -6.1244 0.0000
    outer loop
        vertex 1.7903 -0.1000 -1.7743
        vertex 1.5410 -0.1000 0.0440
        vertex 1.3375 -0.1000 0.0555
    endloop
endfacet
facet normal 0.0000 -6.0296 0.0000
    outer loop
        vertex 1.3375 -0.1000 0.0555
        vertex 1.5828 -0.1000 -1.7335
        vertex 1.7903 -0.1000 -1.7743
    endloop
endfacet
facet normal 0.0000 -7.4775 0.0000
    outer loop
        vertex 0.8855 -0.1000 2.9340
        vertex -0.7323 -0.1000 1.3565
        vertex -0.6208 -0.1000 1.1860
    endloop
endfacet
facet normal 0.0000 -6.2231 0.0000
    outer loop
        vertex -0.6208 -0.1000 1.1860
        vertex 0.7147 -0.1000 2.4880
        vertex 0.8855 -0.1000 2.9340
    endloop
endfacet
facet normal 0.0000 -6.2186 0.0000
    outer loop
        vertex 2.0980 -0.1000 2.2340
        vertex 1.7973 -0.1000 1.8630
        vertex 1.3375 -0.1000 0.0555
    endloop
endfacet
facet normal 0.0000 -7.4831 0.0000
    outer loop
        vertex 1.3375 -0.1000 0.0555
        vertex 1.5410 -0.1000 0.0440
        vertex 2.0980 -0.1000 2.2340
    endloop
endfacet
facet normal 0.0000 -5.1589 0.0000
    outer loop
        vertex 0.7147 -0.1000 2.4880
        vertex 1.4963 -0.1000 3.5918
        vertex 1.4730 -0.1000 3.9515
    endloop
endfacet
facet normal 0.0000 -1.6626 0.0000
    outer loop
        vertex 1.4730 -0.1000 3.9515
        vertex 0.8855 -0.1000 2.9340
        vertex 0.7147 -0.1000 2.4880
    endloop
endfacet
facet normal 0.0000 -4.9665 0.0000
    outer loop
        vertex 2.3622 -0.1000 3.0918
        vertex 2.5048 -0.1000 3.3560
        vertex 1.6540 -0.1000 3.8470
    endloop
endfacet
facet normal 0.0000 -5.0487 0.0000
    outer loop
        vertex 1.6540 -0.1000 3.8470
        vertex 1.4963 -0.1000 3.5918
        vertex 2.3622 -0.1000 3.0918
    endloop
endfacet
facet normal 0.0000 -1.6588 0.0000
    outer loop
        vertex 1.7973 -0.1000 1.8630
        vertex 2.0980 -0.1000 2.2340
        vertex 2.6855 -0.1000 3.2515
    endloop
endfacet
facet normal 0.0000 -5.1610 0.0000
    outer loop
        vertex 2.6855 -0.1000 3.2515
        vertex 2.3622 -0.1000 3.0918
        vertex 1.7973 -0.1000 1.8630
    endloop
endfacet
facet normal 0.0000 -2.8093 0.0000
    outer loop
        vertex 2.9258 -0.1000 4.2675
        vertex 2.2330 -0.1000 4.6675
        vertex 2.2618 -0.1000 4.4200
    endloop
endfacet
facet normal 0.0000 -1.8579 0.0000
    outer loop
        vertex 2.2618 -0.1000 4.4200
        vertex 2.6968 -0.1000 4.1688
        vertex 2.9258 -0.1000 4.2675
    endloop
endfacet
facet normal 0.0000 -2.9203 0.0000
    outer loop
        vertex 1.6540 -0.1000 3.8470
        vertex 2.2618 -0.1000 4.4200
        vertex 2.2330 -0.1000 4.6675
    endloop
endfacet
facet normal 0.0000 -3.5943 0.0000
    outer loop
        vertex 2.2330 -0.1000 4.6675
        vertex 1.4730 -0.1000 3.9515
        vertex 1.6540 -0.1000 3.8470
    endloop
endfacet
facet normal 0.0000 -3.5900 0.0000
    outer loop
        vertex 2.5048 -0.1000 3.3560
        vertex 2.6855 -0.1000 3.2515
        vertex 2.9258 -0.1000 4.2675
    endloop
endfacet
facet normal 0.0000 -2.9246 0.0000
    outer loop
        vertex 2.9258 -0.1000 4.2675
        vertex 2.6968 -0.1000 4.1688
        vertex 2.5048 -0.1000 3.3560
    endloop
endfacet
facet normal 0.0000 -9.8517 0.0000
    outer loop
        vertex 0.1663 -0.1000 -1.5870
        vertex -0.0338 -0.1000 -1.9335
        vertex 1.2652 -0.1000 -2.6835
    endloop
endfacet
facet normal 0.0000 -8.5706 0.0000
    outer loop
        vertex 1.2652 -0.1000 -2.6835
        vertex 1.2920 -0.1000 -2.2370
        vertex 0.1663 -0.1000 -1.5870
    endloop
endfacet
facet normal 0.0000 -6.5568 0.0000
    outer loop
        vertex 0.7147 -0.1000 2.4880
        vertex -0.8620 -0.1000 -0.2430
        vertex -0.7538 -0.1000 -0.3055
    endloop
endfacet
facet normal 0.0000 -9.2462 0.0000
    outer loop
        vertex -0.7538 -0.1000 -0.3055
        vertex 1.4963 -0.1000 3.5918
        vertex 0.7147 -0.1000 2.4880
    endloop
endfacet
facet normal 0.0000 -9.2500 0.0000
    outer loop
        vertex 2.3622 -0.1000 3.0918
        vertex 0.1123 -0.1000 -0.8055
        vertex 0.2205 -0.1000 -0.8680
    endloop
endfacet
facet normal 0.0000 -6.5607 0.0000
    outer loop
        vertex 0.2205 -0.1000 -0.8680
        vertex 1.7973 -0.1000 1.8630
        vertex 2.3622 -0.1000 3.0918
    endloop
endfacet
facet normal 0.0000 -2.3499 0.0000
    outer loop
        vertex -1.6575 -0.1000 -0.9960
        vertex -1.6118 -0.1000 -1.1668
        vertex -1.0868 -0.1000 -0.2575
    endloop
endfacet
facet normal 0.0000 -1.0510 0.0000
    outer loop
        vertex -1.0868 -0.1000 -0.2575
        vertex -1.4575 -0.1000 -0.6495
        vertex -1.6575 -0.1000 -0.9960
    endloop
endfacet
facet normal 0.0000 -2.4629 0.0000
    outer loop
        vertex -0.2100 -0.1000 -0.7638
        vertex -0.3182 -0.1000 -0.7013
        vertex -0.8715 -0.1000 -1.6595
    endloop
endfacet
facet normal 0.0000 -2.3492 0.0000
    outer loop
        vertex -0.8715 -0.1000 -1.6595
        vertex -0.7350 -0.1000 -1.6730
        vertex -0.2100 -0.1000 -0.7638
    endloop
endfacet
facet normal 0.0000 -3.0348 0.0000
    outer loop
        vertex -2.2067 -0.1000 -2.0722
        vertex -2.3228 -0.1000 -2.2733
        vertex -1.5573 -0.1000 -2.4473
    endloop
endfacet
facet normal 0.0000 -7.2394 0.0000
    outer loop
        vertex -1.5573 -0.1000 -2.4473
        vertex -2.4350 -0.1000 -3.1735
        vertex -2.1073 -0.1000 -3.4000
    endloop
endfacet
facet normal 0.0000 -2.5393 0.0000
    outer loop
        vertex 1.0353 -0.1000 3.8638
        vertex 0.8323 -0.1000 3.1415
        vertex 1.2183 -0.1000 3.8100
    endloop
endfacet
facet normal 0.0000 -6.5160 0.0000
    outer loop
        vertex -2.5785 -0.1000 -1.9785
        vertex -3.1735 -0.1000 -2.4350
        vertex -2.8285 -0.1000 -2.8285
    endloop
endfacet
facet normal 0.0000 -4.9072 0.0000
    outer loop
        vertex -2.8285 -0.1000 -2.8285
        vertex -2.3228 -0.1000 -2.2733
        vertex -2.5785 -0.1000 -1.9785
    endloop
endfacet
facet normal 0.0000 -8.4587 0.0000
    outer loop
        vertex -1.5573 -0.1000 -2.4473
        vertex -2.3228 -0.1000 -2.2733
        vertex -2.8285 -0.1000 -2.8285
    endloop
endfacet
facet normal 0.0000 -9.6677 0.0000
    outer loop
        vertex -2.8285 -0.1000 -2.8285
        vertex -2.4350 -0.1000 -3.1735
        vertex -1.5573 -0.1000 -2.4473
    endloop
endfacet
facet normal 0.0000 -6.5130 0.0000
    outer loop
        vertex -3.4640 -0.1000 -2.0000
        vertex -3.1735 -0.1000 -2.4350
        vertex -2.5785 -0.1000 -1.9785
    endloop
endfacet
facet normal 0.0000 -5.3396 0.0000
    outer loop
        vertex -2.5785 -0.1000 -1.9785
        vertex -2.8145 -0.1000 -1.6250
        vertex -3.4640 -0.1000 -2.0000
    endloop
endfacet
facet normal 0.0000 -5.3406 0.0000
    outer loop
        vertex -2.8145 -0.1000 -1.6250
        vertex -3.0025 -0.1000 -1.2438
        vertex -3.6955 -0.1000 -1.5308
    endloop
endfacet
facet normal 0.0000 -6.5154 0.0000
    outer loop
        vertex -3.6955 -0.1000 -1.5308
        vertex -3.4640 -0.1000 -2.0000
        vertex -2.8145 -0.1000 -1.6250
    endloop
endfacet
facet normal 0.0000 -6.5167 0.0000
    outer loop
        vertex -3.8638 -0.1000 -1.0353
        vertex -3.6955 -0.1000 -1.5308
        vertex -3.0025 -0.1000 -1.2438
    endloop
endfacet
facet normal 0.0000 -5.3403 0.0000
    outer loop
        vertex -3.0025 -0.1000 -1.2438
        vertex -3.1393 -0.1000 -0.8413
        vertex -3.8638 -0.1000 -1.0353
    endloop
endfacet
facet normal 0.0000 -5.3404 0.0000
    outer loop
        vertex -3.1393 -0.1000 -0.8413
        vertex -3.2222 -0.1000 -0.4243
        vertex -3.9657 -0.1000 -0.5220
    endloop
endfacet
facet normal 0.0000 -6.5162 0.0000
    outer loop
        vertex -3.9657 -0.1000 -0.5220
        vertex -3.8638 -0.1000 -1.0353
        vertex -3.1393 -0.1000 -0.8413
    endloop
endfacet
facet normal 0.0000 -6.5133 0.0000
    outer loop
        vertex -3.2222 -0.1000 0.4243
        vertex -3.9657 -0.1000 0.5220
        vertex -4.0000 -0.1000 0.0000
    endloop
endfacet
facet normal 0.0000 -5.3410 0.0000
    outer loop
        vertex -4.0000 -0.1000 0.0000
        vertex -3.2500 -0.1000 0.0000
        vertex -3.2222 -0.1000 0.4243
    endloop
endfacet
facet normal 0.0000 -5.3403 0.0000
    outer loop
        vertex -3.9657 -0.1000 -0.5220
        vertex -3.2222 -0.1000 -0.4243
        vertex -3.2500 -0.1000 0.0000
    endloop
endfacet
facet normal 0.0000 -6.5140 0.0000
    outer loop
        vertex -3.2500 -0.1000 0.0000
        vertex -4.0000 -0.1000 0.0000
        vertex -3.9657 -0.1000 -0.5220
    endloop
endfacet
facet normal 0.0000 -6.5152 0.0000
    outer loop
        vertex -3.8638 -0.1000 1.0353
        vertex -3.9657 -0.1000 0.5220
        vertex -3.2222 -0.1000 0.4243
    endloop
endfacet
facet normal 0.0000 -5.3415 0.0000
    outer loop
        vertex -3.2222 -0.1000 0.4243
        vertex -3.1393 -0.1000 0.8413
        vertex -3.8638 -0.1000 1.0353
    endloop
endfacet
facet normal 0.0000 -5.3409 0.0000
    outer loop
        vertex -3.1393 -0.1000 0.8413
        vertex -3.0025 -0.1000 1.2438
        vertex -3.6955 -0.1000 1.5308
    endloop
endfacet
facet normal 0.0000 -6.5161 0.0000
    outer loop
        vertex -3.6955 -0.1000 1.5308
        vertex -3.8638 -0.1000 1.0353
        vertex -3.1393 -0.1000 0.8413
    endloop
endfacet
facet normal 0.0000 -5.3406 0.0000
    outer loop
        vertex -3.6955 -0.1000 1.5308
        vertex -3.0025 -0.1000 1.2438
        vertex -2.8145 -0.1000 1.6250
    endloop
endfacet
facet normal 0.0000 -6.5154 0.0000
    outer loop
        vertex -2.8145 -0.1000 1.6250
        vertex -3.4640 -0.1000 2.0000
        vertex -3.6955 -0.1000 1.5308
    endloop
endfacet
facet normal 0.0000 -5.3391 0.0000
    outer loop
        vertex -2.8145 -0.1000 1.6250
        vertex -2.5785 -0.1000 1.9785
        vertex -3.1735 -0.1000 2.4350
    endloop
endfacet
facet normal 0.0000 -6.5135 0.0000
    outer loop
        vertex -3.1735 -0.1000 2.4350
        vertex -3.4640 -0.1000 2.0000
        vertex -2.8145 -0.1000 1.6250
    endloop
endfacet
facet normal 0.0000 -5.3428 0.0000
    outer loop
        vertex -2.5785 -0.1000 1.9785
        vertex -2.2980 -0.1000 2.2980
        vertex -2.8285 -0.1000 2.8285
    endloop
endfacet
facet normal 0.0000 -6.5160 0.0000
    outer loop
        vertex -2.8285 -0.1000 2.8285
        vertex -3.1735 -0.1000 2.4350
        vertex -2.5785 -0.1000 1.9785
    endloop
endfacet
facet normal 0.0000 -6.5160 0.0000
    outer loop
        vertex -1.9785 -0.1000 2.5785
        vertex -2.4350 -0.1000 3.1735
        vertex -2.8285 -0.1000 2.8285
    endloop
endfacet
facet normal 0.0000 -5.3428 0.0000
    outer loop
        vertex -2.8285 -0.1000 2.8285
        vertex -2.2980 -0.1000 2.2980
        vertex -1.9785 -0.1000 2.5785
    endloop
endfacet
facet normal 0.0000 -5.3396 0.0000
    outer loop
        vertex -1.9785 -0.1000 2.5785
        vertex -1.6250 -0.1000 2.8145
        vertex -2.0000 -0.1000 3.4640
    endloop
endfacet
facet normal 0.0000 -6.5130 0.0000
    outer loop
        vertex -2.0000 -0.1000 3.4640
        vertex -2.4350 -0.1000 3.1735
        vertex -1.9785 -0.1000 2.5785
    endloop
endfacet
facet normal 0.0000 -6.5161 0.0000
    outer loop
        vertex -1.2438 -0.1000 3.0025
        vertex -1.5308 -0.1000 3.6955
        vertex -2.0000 -0.1000 3.4640
    endloop
endfacet
facet normal 0.0000 -5.3400 0.0000
    outer loop
        vertex -2.0000 -0.1000 3.4640
        vertex -1.6250 -0.1000 2.8145
        vertex -1.2438 -0.1000 3.0025
    endloop
endfacet
facet normal 0.0000 -6.5161 0.0000
    outer loop
        vertex -0.8413 -0.1000 3.1393
        vertex -1.0353 -0.1000 3.8638
        vertex -1.5308 -0.1000 3.6955
    endloop
endfacet
facet normal 0.0000 -5.3409 0.0000
    outer loop
        vertex -1.5308 -0.1000 3.6955
        vertex -1.2438 -0.1000 3.0025
        vertex -0.8413 -0.1000 3.1393
    endloop
endfacet
facet normal 0.0000 -6.5152 0.0000
    outer loop
        vertex -0.4243 -0.1000 3.2222
        vertex -0.5220 -0.1000 3.9657
        vertex -1.0353 -0.1000 3.8638
    endloop
endfacet
facet normal 0.0000 -5.3415 0.0000
    outer loop
        vertex -1.0353 -0.1000 3.8638
        vertex -0.8413 -0.1000 3.1393
        vertex -0.4243 -0.1000 3.2222
    endloop
endfacet
facet normal 0.0000 -5.3403 0.0000
    outer loop
        vertex -0.5220 -0.1000 3.9657
        vertex -0.4243 -0.1000 3.2222
        vertex 0.0000 -0.1000 3.2500
    endloop
endfacet
facet normal 0.0000 -6.5140 0.0000
    outer loop
        vertex 0.0000 -0.1000 3.2500
        vertex 0.0000 -0.1000 4.0000
        vertex -0.5220 -0.1000 3.9657
    endloop
endfacet
facet normal 0.0000 -6.5140 0.0000
    outer loop
        vertex 0.5220 -0.1000 3.9657
        vertex 0.0000 -0.1000 4.0000
        vertex 0.0000 -0.1000 3.2500
    endloop
endfacet
facet normal 0.0000 -5.3403 0.0000
    outer loop
        vertex 0.0000 -0.1000 3.2500
        vertex 0.4243 -0.1000 3.2222
        vertex 0.5220 -0.1000 3.9657
    endloop
endfacet
facet normal 0.0000 -6.5152 0.0000
    outer loop
        vertex 1.0353 -0.1000 3.8638
        vertex 0.5220 -0.1000 3.9657
        vertex 0.4243 -0.1000 3.2222
    endloop
endfacet
facet normal 0.0000 -5.2271 0.0000
    outer loop
        vertex 0.4243 -0.1000 3.2222
        vertex 0.8323 -0.1000 3.1415
        vertex 1.0353 -0.1000 3.8638
    endloop
endfacet
facet normal 0.0000 -4.9219 0.0000
    outer loop
        vertex -0.8073 -0.1000 -3.1483
        vertex -0.5220 -0.1000 -3.9657
        vertex -0.4243 -0.1000 -3.2222
    endloop
endfacet
facet normal 0.0000 -3.0348 0.0000
    outer loop
        vertex -1.3408 -0.1000 -2.5723
        vertex -0.8073 -0.1000 -3.1483
        vertex -0.6913 -0.1000 -2.9473
    endloop
endfacet
facet normal 0.0000 -2.5382 0.0000
    outer loop
        vertex 2.6905 -0.1000 2.9600
        vertex 2.3045 -0.1000 2.2915
        vertex 2.8285 -0.1000 2.8285
    endloop
endfacet
facet normal 0.0000 -12.2110 0.0000
    outer loop
        vertex -0.5220 -0.1000 -3.9657
        vertex -0.8073 -0.1000 -3.1483
        vertex -1.5308 -0.1000 -3.6955
    endloop
endfacet
facet normal 0.0000 -0.8230 0.0000
    outer loop
        vertex -1.5308 -0.1000 -3.6955
        vertex -1.0353 -0.1000 -3.8638
        vertex -0.5220 -0.1000 -3.9657
    endloop
endfacet
facet normal 0.0000 -5.3759 0.0000
    outer loop
        vertex -1.8907 -0.1000 -3.5250
        vertex -1.5308 -0.1000 -3.6955
        vertex -0.8073 -0.1000 -3.1483
    endloop
endfacet
facet normal 0.0000 -13.4515 0.0000
    outer loop
        vertex -0.8073 -0.1000 -3.1483
        vertex -1.3408 -0.1000 -2.5723
        vertex -1.8907 -0.1000 -3.5250
    endloop
endfacet
facet normal 0.0000 -5.3410 0.0000
    outer loop
        vertex 0.4243 -0.1000 -3.2222
        vertex 0.0000 -0.1000 -3.2500
        vertex 0.0000 -0.1000 -4.0000
    endloop
endfacet
facet normal 0.0000 -6.5133 0.0000
    outer loop
        vertex 0.0000 -0.1000 -4.0000
        vertex 0.5220 -0.1000 -3.9657
        vertex 0.4243 -0.1000 -3.2222
    endloop
endfacet
facet normal 0.0000 -6.5140 0.0000
    outer loop
        vertex -0.5220 -0.1000 -3.9657
        vertex 0.0000 -0.1000 -4.0000
        vertex 0.0000 -0.1000 -3.2500
    endloop
endfacet
facet normal 0.0000 -5.3403 0.0000
    outer loop
        vertex 0.0000 -0.1000 -3.2500
        vertex -0.4243 -0.1000 -3.2222
        vertex -0.5220 -0.1000 -3.9657
    endloop
endfacet
facet normal 0.0000 -5.3404 0.0000
    outer loop
        vertex 0.8413 -0.1000 -3.1393
        vertex 0.4243 -0.1000 -3.2222
        vertex 0.5220 -0.1000 -3.9657
    endloop
endfacet
facet normal 0.0000 -6.5162 0.0000
    outer loop
        vertex 0.5220 -0.1000 -3.9657
        vertex 1.0353 -0.1000 -3.8638
        vertex 0.8413 -0.1000 -3.1393
    endloop
endfacet
facet normal 0.0000 -5.3409 0.0000
    outer loop
        vertex 1.5308 -0.1000 -3.6955
        vertex 1.2438 -0.1000 -3.0025
        vertex 0.8413 -0.1000 -3.1393
    endloop
endfacet
facet normal 0.0000 -6.5161 0.0000
    outer loop
        vertex 0.8413 -0.1000 -3.1393
        vertex 1.0353 -0.1000 -3.8638
        vertex 1.5308 -0.1000 -3.6955
    endloop
endfacet
facet normal 0.0000 -5.3400 0.0000
    outer loop
        vertex 2.0000 -0.1000 -3.4640
        vertex 1.6250 -0.1000 -2.8145
        vertex 1.2438 -0.1000 -3.0025
    endloop
endfacet
facet normal 0.0000 -6.5161 0.0000
    outer loop
        vertex 1.2438 -0.1000 -3.0025
        vertex 1.5308 -0.1000 -3.6955
        vertex 2.0000 -0.1000 -3.4640
    endloop
endfacet
facet normal 0.0000 -5.3391 0.0000
    outer loop
        vertex 2.4350 -0.1000 -3.1735
        vertex 1.9785 -0.1000 -2.5785
        vertex 1.6250 -0.1000 -2.8145
    endloop
endfacet
facet normal 0.0000 -6.5135 0.0000
    outer loop
        vertex 1.6250 -0.1000 -2.8145
        vertex 2.0000 -0.1000 -3.4640
        vertex 2.4350 -0.1000 -3.1735
    endloop
endfacet
facet normal 0.0000 -5.3428 0.0000
    outer loop
        vertex 2.8285 -0.1000 -2.8285
        vertex 2.2980 -0.1000 -2.2980
        vertex 1.9785 -0.1000 -2.5785
    endloop
endfacet
facet normal 0.0000 -6.5160 0.0000
    outer loop
        vertex 1.9785 -0.1000 -2.5785
        vertex 2.4350 -0.1000 -3.1735
        vertex 2.8285 -0.1000 -2.8285
    endloop
endfacet
facet normal 0.0000 -6.5160 0.0000
    outer loop
        vertex 2.8285 -0.1000 -2.8285
        vertex 3.1735 -0.1000 -2.4350
        vertex 2.5785 -0.1000 -1.9785
    endloop
endfacet
facet normal 0.0000 -5.3428 0.0000
    outer loop
        vertex 2.5785 -0.1000 -1.9785
        vertex 2.2980 -0.1000 -2.2980
        vertex 2.8285 -0.1000 -2.8285
    endloop
endfacet
facet normal 0.0000 -6.5130 0.0000
    outer loop
        vertex 2.5785 -0.1000 -1.9785
        vertex 3.1735 -0.1000 -2.4350
        vertex 3.4640 -0.1000 -2.0000
    endloop
endfacet
facet normal 0.0000 -5.3396 0.0000
    outer loop
        vertex 3.4640 -0.1000 -2.0000
        vertex 2.8145 -0.1000 -1.6250
        vertex 2.5785 -0.1000 -1.9785
    endloop
endfacet
facet normal 0.0000 -6.5161 0.0000
    outer loop
        vertex 3.4640 -0.1000 -2.0000
        vertex 3.6955 -0.1000 -1.5308
        vertex 3.0025 -0.1000 -1.2438
    endloop
endfacet
facet normal 0.0000 -5.3400 0.0000
    outer loop
        vertex 3.0025 -0.1000 -1.2438
        vertex 2.8145 -0.1000 -1.6250
        vertex 3.4640 -0.1000 -2.0000
    endloop
endfacet
facet normal 0.0000 -5.3403 0.0000
    outer loop
        vertex 3.8638 -0.1000 -1.0353
        vertex 3.1393 -0.1000 -0.8413
        vertex 3.0025 -0.1000 -1.2438
    endloop
endfacet
facet normal 0.0000 -6.5167 0.0000
    outer loop
        vertex 3.0025 -0.1000 -1.2438
        vertex 3.6955 -0.1000 -1.5308
        vertex 3.8638 -0.1000 -1.0353
    endloop
endfacet
facet normal 0.0000 -6.5162 0.0000
    outer loop
        vertex 3.1393 -0.1000 -0.8413
        vertex 3.8638 -0.1000 -1.0353
        vertex 3.9657 -0.1000 -0.5220
    endloop
endfacet
facet normal 0.0000 -5.3404 0.0000
    outer loop
        vertex 3.9657 -0.1000 -0.5220
        vertex 3.2222 -0.1000 -0.4243
        vertex 3.1393 -0.1000 -0.8413
    endloop
endfacet
facet normal 0.0000 -5.3403 0.0000
    outer loop
        vertex 3.2500 -0.1000 0.0000
        vertex 3.2222 -0.1000 -0.4243
        vertex 3.9657 -0.1000 -0.5220
    endloop
endfacet
facet normal 0.0000 -6.5140 0.0000
    outer loop
        vertex 3.9657 -0.1000 -0.5220
        vertex 4.0000 -0.1000 0.0000
        vertex 3.2500 -0.1000 0.0000
    endloop
endfacet
facet normal 0.0000 -6.5133 0.0000
    outer loop
        vertex 4.0000 -0.1000 0.0000
        vertex 3.9657 -0.1000 0.5220
        vertex 3.2222 -0.1000 0.4243
    endloop
endfacet
facet normal 0.0000 -5.3410 0.0000
    outer loop
        vertex 3.2222 -0.1000 0.4243
        vertex 3.2500 -0.1000 0.0000
        vertex 4.0000 -0.1000 0.0000
    endloop
endfacet
facet normal 0.0000 -5.3404 0.0000
    outer loop
        vertex 3.1393 -0.1000 0.8413
        vertex 3.2222 -0.1000 0.4243
        vertex 3.9657 -0.1000 0.5220
    endloop
endfacet
facet normal 0.0000 -6.5162 0.0000
    outer loop
        vertex 3.9657 -0.1000 0.5220
        vertex 3.8638 -0.1000 1.0353
        vertex 3.1393 -0.1000 0.8413
    endloop
endfacet
facet normal 0.0000 -5.3403 0.0000
    outer loop
        vertex 3.0025 -0.1000 1.2438
        vertex 3.1393 -0.1000 0.8413
        vertex 3.8638 -0.1000 1.0353
    endloop
endfacet
facet normal 0.0000 -6.5167 0.0000
    outer loop
        vertex 3.8638 -0.1000 1.0353
        vertex 3.6955 -0.1000 1.5308
        vertex 3.0025 -0.1000 1.2438
    endloop
endfacet
facet normal 0.0000 -6.5161 0.0000
    outer loop
        vertex 3.0025 -0.1000 1.2438
        vertex 3.6955 -0.1000 1.5308
        vertex 3.4640 -0.1000 2.0000
    endloop
endfacet
facet normal 0.0000 -5.3400 0.0000
    outer loop
        vertex 3.4640 -0.1000 2.0000
        vertex 2.8145 -0.1000 1.6250
        vertex 3.0025 -0.1000 1.2438
    endloop
endfacet
facet normal 0.0000 -5.2284 0.0000
    outer loop
        vertex 2.8285 -0.1000 2.8285
        vertex 2.3045 -0.1000 2.2915
        vertex 2.5785 -0.1000 1.9785
    endloop
endfacet
facet normal 0.0000 -6.5160 0.0000
    outer loop
        vertex 2.5785 -0.1000 1.9785
        vertex 3.1735 -0.1000 2.4350
        vertex 2.8285 -0.1000 2.8285
    endloop
endfacet
facet normal 0.0000 -6.5130 0.0000
    outer loop
        vertex 3.4640 -0.1000 2.0000
        vertex 3.1735 -0.1000 2.4350
        vertex 2.5785 -0.1000 1.9785
    endloop
endfacet
facet normal 0.0000 -5.3396 0.0000
    outer loop
        vertex 2.5785 -0.1000 1.9785
        vertex 2.8145 -0.1000 1.6250
        vertex 3.4640 -0.1000 2.0000
    endloop
endfacet
endsolid GiantLegoRocks
