solid GiantLegoRocks
facet normal 0.0000 136.5000 0.0000
    outer loop
        vertex -2.4000 0.0000 -1.1000
        vertex -7.6000 0.0000 -1.1000
        vertex -7.6000 0.0000 3.1000
    endloop
endfacet
facet normal 0.0000 136.5000 0.0000
    outer loop
        vertex 7.6000 0.0000 3.1000
        vertex 7.6000 0.0000 -1.1000
        vertex 2.4000 0.0000 -1.1000
    endloop
endfacet
facet normal 0.0000 32.5000 0.0000
    outer loop
        vertex 1.3000 0.0000 -3.1000
        vertex -1.3000 0.0000 -3.1000
        vertex -2.4000 0.0000 -1.1000
    endloop
endfacet
facet normal 0.0000 60.0000 0.0000
    outer loop
        vertex -2.4000 0.0000 -1.1000
        vertex 2.4000 0.0000 -1.1000
        vertex 1.3000 0.0000 -3.1000
    endloop
endfacet
facet normal 0.0000 399.0000 0.0000
    outer loop
        vertex -2.4000 0.0000 -1.1000
        vertex -7.6000 0.0000 3.1000
        vertex 7.6000 0.0000 3.1000
    endloop
endfacet
facet normal 0.0000 126.0000 0.0000
    outer loop
        vertex 7.6000 0.0000 3.1000
        vertex 2.4000 0.0000 -1.1000
        vertex -2.4000 0.0000 -1.1000
    endloop
endfacet
facet normal -2.6250 0.0000 0.0000
    outer loop
        vertex -7.6000 -0.1000 3.1000
        vertex -7.6000 0.0000 3.1000
        vertex -7.6000 0.0000 -1.1000
    endloop
endfacet
facet normal -2.6250 0.0000 0.0000
    outer loop
        vertex -7.6000 0.0000 -1.1000
        vertex -7.6000 -0.1000 -1.1000
        vertex -7.6000 -0.1000 3.1000
    endloop
endfacet
facet normal 0.0000 0.0000 9.5000
    outer loop
        vertex -7.6000 0.0000 3.1000
        vertex -7.6000 -0.1000 3.1000
        vertex 7.6000 -0.1000 3.1000
    endloop
endfacet
facet normal 0.0000 0.0000 9.5000
    outer loop
        vertex 7.6000 -0.1000 3.1000
        vertex 7.6000 0.0000 3.1000
        vertex -7.6000 0.0000 3.1000
    endloop
endfacet
facet normal 0.0000 0.0000 -3.2500
    outer loop
        vertex -2.4000 0.0000 -1.1000
        vertex -2.4000 -0.1000 -1.1000
        vertex -7.6000 -0.1000 -1.1000
    endloop
endfacet
facet normal 0.0000 0.0000 -3.2500
    outer loop
        vertex -7.6000 -0.1000 -1.1000
        vertex -7.6000 0.0000 -1.1000
        vertex -2.4000 0.0000 -1.1000
    endloop
endfacet
facet normal 2.6250 0.0000 0.0000
    outer loop
        vertex 7.6000 0.0000 3.1000
        vertex 7.6000 -0.1000 3.1000
        vertex 7.6000 -0.1000 -1.1000
    endloop
endfacet
facet normal 2.6250 0.0000 0.0000
    outer loop
        vertex 7.6000 -0.1000 -1.1000
        vertex 7.6000 0.0000 -1.1000
        vertex 7.6000 0.0000 3.1000
    endloop
endfacet
facet normal -1.2500 0.0000 -0.6875
    outer loop
        vertex -2.4000 -0.1000 -1.1000
        vertex -2.4000 0.0000 -1.1000
        vertex -1.3000 0.0000 -3.1000
    endloop
endfacet
facet normal -1.2500 0.0000 -0.6875
    outer loop
        vertex -1.3000 0.0000 -3.1000
        vertex -1.3000 -0.1000 -3.1000
        vertex -2.4000 -0.1000 -1.1000
    endloop
endfacet
facet normal 0.0000 0.0000 -3.2500
    outer loop
        vertex 7.6000 0.0000 -1.1000
        vertex 7.6000 -0.1000 -1.1000
        vertex 2.4000 -0.1000 -1.1000
    endloop
endfacet
facet normal 0.0000 0.0000 -3.2500
    outer loop
        vertex 2.4000 -0.1000 -1.1000
        vertex 2.4000 0.0000 -1.1000
        vertex 7.6000 0.0000 -1.1000
    endloop
endfacet
facet normal 0.0000 0.0000 -1.6250
    outer loop
        vertex -1.3000 -0.1000 -3.1000
        vertex -1.3000 0.0000 -3.1000
        vertex 1.3000 0.0000 -3.1000
    endloop
endfacet
facet normal 0.0000 0.0000 -1.6250
    outer loop
        vertex 1.3000 0.0000 -3.1000
        vertex 1.3000 -0.1000 -3.1000
        vertex -1.3000 -0.1000 -3.1000
    endloop
endfacet
facet normal 1.2500 0.0000 -0.6875
    outer loop
        vertex 2.4000 0.0000 -1.1000
        vertex 2.4000 -0.1000 -1.1000
        vertex 1.3000 -0.1000 -3.1000
    endloop
endfacet
facet normal 1.2500 0.0000 -0.6875
    outer loop
        vertex 1.3000 -0.1000 -3.1000
        vertex 1.3000 0.0000 -3.1000
        vertex 2.4000 0.0000 -1.1000
    endloop
endfacet
facet normal 0.0000 -1.4500 0.0000
    outer loop
        vertex -7.0200 -0.1000 0.8000
        vertex -7.0200 -0.1000 1.2000
        vertex -7.6000 -0.1000 3.1000
    endloop
endfacet
facet normal 0.0000 -5.3650 0.0000
    outer loop
        vertex -7.6000 -0.1000 3.1000
        vertex -7.0200 -0.1000 1.2000
        vertex -7.0200 -0.1000 2.6800
    endloop
endfacet
facet normal 0.0000 -14.0700 0.0000
    outer loop
        vertex -7.6000 -0.1000 3.1000
        vertex -7.0200 -0.1000 2.6800
        vertex -1.6600 -0.1000 2.6800
    endloop
endfacet
facet normal 0.0000 -67.2300 0.0000
    outer loop
        vertex -1.6600 -0.1000 2.6800
        vertex 0.0000 -0.1000 -0.5600
        vertex 1.6600 -0.1000 2.6800
    endloop
endfacet
facet normal 0.0000 -14.0700 0.0000
    outer loop
        vertex 1.6600 -0.1000 2.6800
        vertex 7.0200 -0.1000 2.6800
        vertex 7.6000 -0.1000 3.1000
    endloop
endfacet
facet normal 0.0000 -15.2250 0.0000
    outer loop
        vertex -7.6000 -0.1000 3.1000
        vertex -7.6000 -0.1000 -1.1000
        vertex -7.0200 -0.1000 -0.6800
    endloop
endfacet
facet normal 0.0000 -5.3650 0.0000
    outer loop
        vertex -7.0200 -0.1000 -0.6800
        vertex -7.0200 -0.1000 0.8000
        vertex -7.6000 -0.1000 3.1000
    endloop
endfacet
facet normal 0.0000 -6.9575 0.0000
    outer loop
        vertex -2.0744 -0.1000 -0.6800
        vertex -2.4000 -0.1000 -1.1000
        vertex -1.3000 -0.1000 -3.1000
    endloop
endfacet
facet normal 0.0000 -11.3498 0.0000
    outer loop
        vertex -1.3000 -0.1000 -3.1000
        vertex -0.7800 -0.1000 -2.3800
        vertex -2.0744 -0.1000 -0.6800
    endloop
endfacet
facet normal 0.0000 -7.0200 0.0000
    outer loop
        vertex 1.3000 -0.1000 -3.1000
        vertex 0.7800 -0.1000 -2.3800
        vertex -0.7800 -0.1000 -2.3800
    endloop
endfacet
facet normal 0.0000 -11.7000 0.0000
    outer loop
        vertex -0.7800 -0.1000 -2.3800
        vertex -1.3000 -0.1000 -3.1000
        vertex 1.3000 -0.1000 -3.1000
    endloop
endfacet
facet normal 0.0000 -6.9575 0.0000
    outer loop
        vertex 1.3000 -0.1000 -3.1000
        vertex 2.4000 -0.1000 -1.1000
        vertex 2.0744 -0.1000 -0.6800
    endloop
endfacet
facet normal 0.0000 -11.3498 0.0000
    outer loop
        vertex 2.0744 -0.1000 -0.6800
        vertex 0.7800 -0.1000 -2.3800
        vertex 1.3000 -0.1000 -3.1000
    endloop
endfacet
facet normal 0.0000 -0.7178 0.0000
    outer loop
        vertex 7.0200 -0.1000 1.2000
        vertex 6.9424 -0.1000 0.8000
        vertex 6.9424 -0.1000 -0.6800
    endloop
endfacet
facet normal 0.0000 -7.9305 0.0000
    outer loop
        vertex 6.9424 -0.1000 -0.6800
        vertex 7.6000 -0.1000 -1.1000
        vertex 7.0200 -0.1000 1.2000
    endloop
endfacet
facet normal 0.0000 -5.3650 0.0000
    outer loop
        vertex 7.0200 -0.1000 2.6800
        vertex 7.0200 -0.1000 1.2000
        vertex 7.6000 -0.1000 -1.1000
    endloop
endfacet
facet normal 0.0000 -15.2250 0.0000
    outer loop
        vertex 7.6000 -0.1000 -1.1000
        vertex 7.6000 -0.1000 3.1000
        vertex 7.0200 -0.1000 2.6800
    endloop
endfacet
facet normal 0.0000 -8.7150 0.0000
    outer loop
        vertex -7.6000 -0.1000 3.1000
        vertex -1.6600 -0.1000 2.6800
        vertex 1.6600 -0.1000 2.6800
    endloop
endfacet
facet normal 0.0000 -39.9000 0.0000
    outer loop
        vertex 1.6600 -0.1000 2.6800
        vertex 7.6000 -0.1000 3.1000
        vertex -7.6000 -0.1000 3.1000
    endloop
endfacet
facet normal 0.0000 -13.6500 0.0000
    outer loop
        vertex -7.6000 -0.1000 -1.1000
        vertex -2.4000 -0.1000 -1.1000
        vertex -2.0744 -0.1000 -0.6800
    endloop
endfacet
facet normal 0.0000 -12.9822 0.0000
    outer loop
        vertex -2.0744 -0.1000 -0.6800
        vertex -7.0200 -0.1000 -0.6800
        vertex -7.6000 -0.1000 -1.1000
    endloop
endfacet
facet normal 0.0000 -12.7785 0.0000
    outer loop
        vertex 7.6000 -0.1000 -1.1000
        vertex 6.9424 -0.1000 -0.6800
        vertex 2.0744 -0.1000 -0.6800
    endloop
endfacet
facet normal 0.0000 -13.6500 0.0000
    outer loop
        vertex 2.0744 -0.1000 -0.6800
        vertex 2.4000 -0.1000 -1.1000
        vertex 7.6000 -0.1000 -1.1000
    endloop
endfacet
facet normal 0.0000 -11.1380 0.0000
    outer loop
        vertex 6.9424 -0.1000 0.8000
        vertex 7.0200 -0.1000 1.2000
        vertex 2.5648 -0.1000 1.2000
    endloop
endfacet
facet normal 0.0000 -10.3250 0.0000
    outer loop
        vertex 2.5648 -0.1000 1.2000
        vertex 2.8124 -0.1000 0.8000
        vertex 6.9424 -0.1000 0.8000
    endloop
endfacet
facet normal 0.0000 -10.0020 0.0000
    outer loop
        vertex 2.8124 -0.1000 0.8000
        vertex 2.5648 -0.1000 1.2000
        vertex 0.7800 -0.1000 -2.3800
    endloop
endfacet
facet normal 0.0000 -4.1319 0.0000
    outer loop
        vertex 0.7800 -0.1000 -2.3800
        vertex 2.0744 -0.1000 -0.6800
        vertex 2.8124 -0.1000 0.8000
    endloop
endfacet
facet normal 0.0000 -4.1319 0.0000
    outer loop
        vertex -2.8124 -0.1000 0.8000
        vertex -2.0744 -0.1000 -0.6800
        vertex -0.7800 -0.1000 -2.3800
    endloop
endfacet
facet normal 0.0000 -10.0020 0.0000
    outer loop
        vertex -0.7800 -0.1000 -2.3800
        vertex -2.5648 -0.1000 1.2000
        vertex -2.8124 -0.1000 0.8000
    endloop
endfacet
facet normal 0.0000 -10.5190 0.0000
    outer loop
        vertex -7.0200 -0.1000 0.8000
        vertex -2.8124 -0.1000 0.8000
        vertex -2.5648 -0.1000 1.2000
    endloop
endfacet
facet normal 0.0000 -11.1380 0.0000
    outer loop
        vertex -2.5648 -0.1000 1.2000
        vertex -7.0200 -0.1000 1.2000
        vertex -7.0200 -0.1000 0.8000
    endloop
endfacet
facet normal 0.0000 -34.6775 0.0000
    outer loop
        vertex -0.7800 -0.1000 -2.3800
        vertex 0.0000 -0.1000 -0.5600
        vertex -1.6600 -0.1000 2.6800
    endloop
endfacet
facet normal 0.0000 -36.7543 0.0000
    outer loop
        vertex -1.6600 -0.1000 2.6800
        vertex -2.5648 -0.1000 1.2000
        vertex -0.7800 -0.1000 -2.3800
    endloop
endfacet
facet normal 0.0000 -41.2106 0.0000
    outer loop
        vertex -7.0200 -0.1000 1.2000
        vertex -2.5648 -0.1000 1.2000
        vertex -1.6600 -0.1000 2.6800
    endloop
endfacet
facet normal 0.0000 -49.5800 0.0000
    outer loop
        vertex -1.6600 -0.1000 2.6800
        vertex -7.0200 -0.1000 2.6800
        vertex -7.0200 -0.1000 1.2000
    endloop
endfacet
facet normal 0.0000 -34.9050 0.0000
    outer loop
        vertex -0.7800 -0.1000 -2.3800
        vertex 0.7800 -0.1000 -2.3800
        vertex 2.5648 -0.1000 1.2000
    endloop
endfacet
facet normal 0.0000 -20.5946 0.0000
    outer loop
        vertex 2.5648 -0.1000 1.2000
        vertex 0.0000 -0.1000 -0.5600
        vertex -0.7800 -0.1000 -2.3800
    endloop
endfacet
facet normal 0.0000 -33.6772 0.0000
    outer loop
        vertex 0.0000 -0.1000 -0.5600
        vertex 2.5648 -0.1000 1.2000
        vertex 1.6600 -0.1000 2.6800
    endloop
endfacet
facet normal 0.0000 -49.5800 0.0000
    outer loop
        vertex 7.0200 -0.1000 1.2000
        vertex 7.0200 -0.1000 2.6800
        vertex 1.6600 -0.1000 2.6800
    endloop
endfacet
facet normal 0.0000 -41.2106 0.0000
    outer loop
        vertex 1.6600 -0.1000 2.6800
        vertex 2.5648 -0.1000 1.2000
        vertex 7.0200 -0.1000 1.2000
    endloop
endfacet
facet normal 0.0000 -38.9203 0.0000
    outer loop
        vertex -2.0744 -0.1000 -0.6800
        vertex -2.8124 -0.1000 0.8000
        vertex -7.0200 -0.1000 0.8000
    endloop
endfacet
facet normal 0.0000 -45.7468 0.0000
    outer loop
        vertex -7.0200 -0.1000 0.8000
        vertex -7.0200 -0.1000 -0.6800
        vertex -2.0744 -0.1000 -0.6800
    endloop
endfacet
facet normal 0.0000 -45.0290 0.0000
    outer loop
        vertex 2.0744 -0.1000 -0.6800
        vertex 6.9424 -0.1000 -0.6800
        vertex 6.9424 -0.1000 0.8000
    endloop
endfacet
facet normal 0.0000 -38.2025 0.0000
    outer loop
        vertex 6.9424 -0.1000 0.8000
        vertex 2.8124 -0.1000 0.8000
        vertex 2.0744 -0.1000 -0.6800
    endloop
endfacet
endsolid GiantLegoRocks
