solid GiantLegoRocks
facet normal 0.0000 0.7500 0.0000
    outer loop
        vertex 10.0000 0.0000 4.8000
        vertex 10.0000 0.0000 -4.8000
        vertex -10.0000 0.0000 -4.8000
    endloop
endfacet
facet normal 0.0000 0.7500 0.0000
    outer loop
        vertex -10.0000 0.0000 -4.8000
        vertex -10.0000 0.0000 4.8000
        vertex 10.0000 0.0000 4.8000
    endloop
endfacet
facet normal 0.0000 -0.2500 24.0000
    outer loop
        vertex -10.0000 -0.1000 4.8000
        vertex 10.0000 -0.1000 4.8000
        vertex 10.0000 0.0000 4.8000
    endloop
endfacet
facet normal 0.0000 -0.2500 24.0000
    outer loop
        vertex 10.0000 0.0000 4.8000
        vertex -10.0000 0.0000 4.8000
        vertex -10.0000 -0.1000 4.8000
    endloop
endfacet
facet normal -50.0000 -0.2500 0.0000
    outer loop
        vertex -10.0000 -0.1000 -4.8000
        vertex -10.0000 -0.1000 4.8000
        vertex -10.0000 0.0000 4.8000
    endloop
endfacet
facet normal -50.0000 -0.2500 0.0000
    outer loop
        vertex -10.0000 0.0000 4.8000
        vertex -10.0000 0.0000 -4.8000
        vertex -10.0000 -0.1000 -4.8000
    endloop
endfacet
facet normal 0.0000 -0.2500 -24.0000
    outer loop
        vertex 10.0000 -0.1000 -4.8000
        vertex -10.0000 -0.1000 -4.8000
        vertex -10.0000 0.0000 -4.8000
    endloop
endfacet
facet normal 0.0000 -0.2500 -24.0000
    outer loop
        vertex -10.0000 0.0000 -4.8000
        vertex 10.0000 0.0000 -4.8000
        vertex 10.0000 -0.1000 -4.8000
    endloop
endfacet
facet normal 50.0000 -0.2500 0.0000
    outer loop
        vertex 10.0000 -0.1000 4.8000
        vertex 10.0000 -0.1000 -4.8000
        vertex 10.0000 0.0000 -4.8000
    endloop
endfacet
facet normal 50.0000 -0.2500 0.0000
    outer loop
        vertex 10.0000 0.0000 -4.8000
        vertex 10.0000 0.0000 4.8000
        vertex 10.0000 -0.1000 4.8000
    endloop
endfacet
facet normal 0.0000 -0.2586 0.0000
    outer loop
        vertex 3.5200 -0.1000 -3.5200
        vertex 0.4594 -0.1000 -3.4897
        vertex 0.0000 -0.1000 -3.5200
    endloop
endfacet
facet normal 0.0000 -0.2733 0.0000
    outer loop
        vertex 3.5200 -0.1000 -3.5200
        vertex 0.9110 -0.1000 -3.4000
        vertex 0.4594 -0.1000 -3.4897
    endloop
endfacet
facet normal 0.0000 -0.2854 0.0000
    outer loop
        vertex 3.5200 -0.1000 -3.5200
        vertex 1.3471 -0.1000 -3.2521
        vertex 0.9110 -0.1000 -3.4000
    endloop
endfacet
facet normal 0.0000 -0.2947 0.0000
    outer loop
        vertex 3.5200 -0.1000 -3.5200
        vertex 1.7600 -0.1000 -3.0483
        vertex 1.3471 -0.1000 -3.2521
    endloop
endfacet
facet normal 0.0000 -0.3009 0.0000
    outer loop
        vertex 3.5200 -0.1000 -3.5200
        vertex 2.1430 -0.1000 -2.7928
        vertex 1.7600 -0.1000 -3.0483
    endloop
endfacet
facet normal 0.0000 -0.3041 0.0000
    outer loop
        vertex 3.5200 -0.1000 -3.5200
        vertex 2.4890 -0.1000 -2.4890
        vertex 2.1430 -0.1000 -2.7928
    endloop
endfacet
facet normal 0.0000 -0.3041 0.0000
    outer loop
        vertex 3.5200 -0.1000 -3.5200
        vertex 2.7928 -0.1000 -2.1430
        vertex 2.4890 -0.1000 -2.4890
    endloop
endfacet
facet normal 0.0000 -0.3009 0.0000
    outer loop
        vertex 3.5200 -0.1000 -3.5200
        vertex 3.0483 -0.1000 -1.7600
        vertex 2.7928 -0.1000 -2.1430
    endloop
endfacet
facet normal 0.0000 -0.2947 0.0000
    outer loop
        vertex 3.5200 -0.1000 -3.5200
        vertex 3.2521 -0.1000 -1.3471
        vertex 3.0483 -0.1000 -1.7600
    endloop
endfacet
facet normal 0.0000 -0.2414 0.0000
    outer loop
        vertex -3.5200 -0.1000 -3.5200
        vertex 0.0000 -0.1000 -3.5200
        vertex -0.4594 -0.1000 -3.4897
    endloop
endfacet
facet normal 0.0000 -0.2267 0.0000
    outer loop
        vertex -3.5200 -0.1000 -3.5200
        vertex -0.4594 -0.1000 -3.4897
        vertex -0.9110 -0.1000 -3.4000
    endloop
endfacet
facet normal 0.0000 -0.2146 0.0000
    outer loop
        vertex -3.5200 -0.1000 -3.5200
        vertex -0.9110 -0.1000 -3.4000
        vertex -1.3471 -0.1000 -3.2521
    endloop
endfacet
facet normal 0.0000 -0.2053 0.0000
    outer loop
        vertex -3.5200 -0.1000 -3.5200
        vertex -1.3471 -0.1000 -3.2521
        vertex -1.7600 -0.1000 -3.0483
    endloop
endfacet
facet normal 0.0000 -0.1991 0.0000
    outer loop
        vertex -3.5200 -0.1000 -3.5200
        vertex -1.7600 -0.1000 -3.0483
        vertex -2.1430 -0.1000 -2.7928
    endloop
endfacet
facet normal 0.0000 -0.1959 0.0000
    outer loop
        vertex -3.5200 -0.1000 -3.5200
        vertex -2.1430 -0.1000 -2.7928
        vertex -2.4890 -0.1000 -2.4890
    endloop
endfacet
facet normal 0.0000 -0.1959 0.0000
    outer loop
        vertex -3.5200 -0.1000 -3.5200
        vertex -2.4890 -0.1000 -2.4890
        vertex -2.7928 -0.1000 -2.1430
    endloop
endfacet
facet normal 0.0000 -0.1991 0.0000
    outer loop
        vertex -3.5200 -0.1000 -3.5200
        vertex -2.7928 -0.1000 -2.1430
        vertex -3.0483 -0.1000 -1.7600
    endloop
endfacet
facet normal 0.0000 -0.2053 0.0000
    outer loop
        vertex -3.5200 -0.1000 -3.5200
        vertex -3.0483 -0.1000 -1.7600
        vertex -3.2521 -0.1000 -1.3471
    endloop
endfacet
facet normal 0.0000 -0.2414 0.0000
    outer loop
        vertex 3.5200 -0.1000 3.5200
        vertex 0.0000 -0.1000 3.5200
        vertex 0.4594 -0.1000 3.4897
    endloop
endfacet
facet normal 0.0000 -0.2267 0.0000
    outer loop
        vertex 3.5200 -0.1000 3.5200
        vertex 0.4594 -0.1000 3.4897
        vertex 0.9110 -0.1000 3.4000
    endloop
endfacet
facet normal 0.0000 -0.2146 0.0000
    outer loop
        vertex 3.5200 -0.1000 3.5200
        vertex 0.9110 -0.1000 3.4000
        vertex 1.3471 -0.1000 3.2521
    endloop
endfacet
facet normal 0.0000 -0.2053 0.0000
    outer loop
        vertex 3.5200 -0.1000 3.5200
        vertex 1.3471 -0.1000 3.2521
        vertex 1.7600 -0.1000 3.0483
    endloop
endfacet
facet normal 0.0000 -0.1991 0.0000
    outer loop
        vertex 3.5200 -0.1000 3.5200
        vertex 1.7600 -0.1000 3.0483
        vertex 2.1430 -0.1000 2.7928
    endloop
endfacet
facet normal 0.0000 -0.1959 0.0000
    outer loop
        vertex 3.5200 -0.1000 3.5200
        vertex 2.1430 -0.1000 2.7928
        vertex 2.4890 -0.1000 2.4890
    endloop
endfacet
facet normal 0.0000 -0.1959 0.0000
    outer loop
        vertex 3.5200 -0.1000 3.5200
        vertex 2.4890 -0.1000 2.4890
        vertex 2.7928 -0.1000 2.1430
    endloop
endfacet
facet normal 0.0000 -0.1991 0.0000
    outer loop
        vertex 3.5200 -0.1000 3.5200
        vertex 2.7928 -0.1000 2.1430
        vertex 3.0483 -0.1000 1.7600
    endloop
endfacet
facet normal 0.0000 -0.2053 0.0000
    outer loop
        vertex 3.5200 -0.1000 3.5200
        vertex 3.0483 -0.1000 1.7600
        vertex 3.2521 -0.1000 1.3471
    endloop
endfacet
facet normal 0.0000 -0.2586 0.0000
    outer loop
        vertex -3.5200 -0.1000 3.5200
        vertex -0.4594 -0.1000 3.4897
        vertex 0.0000 -0.1000 3.5200
    endloop
endfacet
facet normal 0.0000 -0.2733 0.0000
    outer loop
        vertex -3.5200 -0.1000 3.5200
        vertex -0.9110 -0.1000 3.4000
        vertex -0.4594 -0.1000 3.4897
    endloop
endfacet
facet normal 0.0000 -0.2854 0.0000
    outer loop
        vertex -3.5200 -0.1000 3.5200
        vertex -1.3471 -0.1000 3.2521
        vertex -0.9110 -0.1000 3.4000
    endloop
endfacet
facet normal 0.0000 -0.2947 0.0000
    outer loop
        vertex -3.5200 -0.1000 3.5200
        vertex -1.7600 -0.1000 3.0483
        vertex -1.3471 -0.1000 3.2521
    endloop
endfacet
facet normal 0.0000 -0.3009 0.0000
    outer loop
        vertex -3.5200 -0.1000 3.5200
        vertex -2.1430 -0.1000 2.7928
        vertex -1.7600 -0.1000 3.0483
    endloop
endfacet
facet normal 0.0000 -0.3041 0.0000
    outer loop
        vertex -3.5200 -0.1000 3.5200
        vertex -2.4890 -0.1000 2.4890
        vertex -2.1430 -0.1000 2.7928
    endloop
endfacet
facet normal 0.0000 -0.3041 0.0000
    outer loop
        vertex -3.5200 -0.1000 3.5200
        vertex -2.7928 -0.1000 2.1430
        vertex -2.4890 -0.1000 2.4890
    endloop
endfacet
facet normal 0.0000 -0.3009 0.0000
    outer loop
        vertex -3.5200 -0.1000 3.5200
        vertex -3.0483 -0.1000 1.7600
        vertex -2.7928 -0.1000 2.1430
    endloop
endfacet
facet normal 0.0000 -0.2947 0.0000
    outer loop
        vertex -3.5200 -0.1000 3.5200
        vertex -3.2521 -0.1000 1.3471
        vertex -3.0483 -0.1000 1.7600
    endloop
endfacet
facet normal 0.0000 -14.8500 0.0000
    outer loop
        vertex 8.8000 -0.1000 -3.5200
        vertex 8.8000 -0.1000 0.0000
        vertex 5.5880 -0.1000 -3.5200
    endloop
endfacet
facet normal 0.0000 -14.8500 0.0000
    outer loop
        vertex 5.5880 -0.1000 3.5200
        vertex 8.8000 -0.1000 0.0000
        vertex 8.8000 -0.1000 3.5200
    endloop
endfacet
facet normal 0.0000 -14.8500 0.0000
    outer loop
        vertex -5.5880 -0.1000 -3.5200
        vertex -8.8000 -0.1000 0.0000
        vertex -8.8000 -0.1000 -3.5200
    endloop
endfacet
facet normal 0.0000 -14.8500 0.0000
    outer loop
        vertex -8.8000 -0.1000 3.5200
        vertex -8.8000 -0.1000 0.0000
        vertex -5.5880 -0.1000 3.5200
    endloop
endfacet
facet normal 0.0000 -0.3719 0.0000
    outer loop
        vertex 0.0000 -0.1000 1.9800
        vertex 1.9800 -0.1000 0.0000
        vertex 1.9630 -0.1000 0.2584
    endloop
endfacet
facet normal 0.0000 -0.3549 0.0000
    outer loop
        vertex 1.9630 -0.1000 0.2584
        vertex 0.2584 -0.1000 1.9630
        vertex 0.0000 -0.1000 1.9800
    endloop
endfacet
facet normal 0.0000 -0.3385 0.0000
    outer loop
        vertex 0.2584 -0.1000 1.9630
        vertex 1.9630 -0.1000 0.2584
        vertex 1.9125 -0.1000 0.5124
    endloop
endfacet
facet normal 0.0000 -0.3227 0.0000
    outer loop
        vertex 1.9125 -0.1000 0.5124
        vertex 0.5124 -0.1000 1.9125
        vertex 0.2584 -0.1000 1.9630
    endloop
endfacet
facet normal 0.0000 -0.3079 0.0000
    outer loop
        vertex 0.5124 -0.1000 1.9125
        vertex 1.9125 -0.1000 0.5124
        vertex 1.8293 -0.1000 0.7577
    endloop
endfacet
facet normal 0.0000 -0.2943 0.0000
    outer loop
        vertex 1.8293 -0.1000 0.7577
        vertex 0.7577 -0.1000 1.8293
        vertex 0.5124 -0.1000 1.9125
    endloop
endfacet
facet normal 0.0000 -0.2821 0.0000
    outer loop
        vertex 0.7577 -0.1000 1.8293
        vertex 1.8293 -0.1000 0.7577
        vertex 1.7147 -0.1000 0.9900
    endloop
endfacet
facet normal 0.0000 -0.2717 0.0000
    outer loop
        vertex 1.7147 -0.1000 0.9900
        vertex 0.9900 -0.1000 1.7147
        vertex 0.7577 -0.1000 1.8293
    endloop
endfacet
facet normal 0.0000 -0.2632 0.0000
    outer loop
        vertex 0.9900 -0.1000 1.7147
        vertex 1.7147 -0.1000 0.9900
        vertex 1.5709 -0.1000 1.2054
    endloop
endfacet
facet normal 0.0000 -0.2567 0.0000
    outer loop
        vertex 1.5709 -0.1000 1.2054
        vertex 1.2054 -0.1000 1.5709
        vertex 0.9900 -0.1000 1.7147
    endloop
endfacet
facet normal 0.0000 -0.2522 0.0000
    outer loop
        vertex 1.2054 -0.1000 1.5709
        vertex 1.5709 -0.1000 1.2054
        vertex 1.4001 -0.1000 1.4001
    endloop
endfacet
facet normal 0.0000 -0.1281 0.0000
    outer loop
        vertex 0.0000 -0.1000 -1.9800
        vertex 1.9630 -0.1000 -0.2584
        vertex 1.9800 -0.1000 0.0000
    endloop
endfacet
facet normal 0.0000 -0.1451 0.0000
    outer loop
        vertex 1.9630 -0.1000 -0.2584
        vertex 0.0000 -0.1000 -1.9800
        vertex 0.2584 -0.1000 -1.9630
    endloop
endfacet
facet normal 0.0000 -0.1615 0.0000
    outer loop
        vertex 0.2584 -0.1000 -1.9630
        vertex 1.9125 -0.1000 -0.5124
        vertex 1.9630 -0.1000 -0.2584
    endloop
endfacet
facet normal 0.0000 -0.1773 0.0000
    outer loop
        vertex 1.9125 -0.1000 -0.5124
        vertex 0.2584 -0.1000 -1.9630
        vertex 0.5124 -0.1000 -1.9125
    endloop
endfacet
facet normal 0.0000 -0.1921 0.0000
    outer loop
        vertex 0.5124 -0.1000 -1.9125
        vertex 1.8293 -0.1000 -0.7577
        vertex 1.9125 -0.1000 -0.5124
    endloop
endfacet
facet normal 0.0000 -0.2057 0.0000
    outer loop
        vertex 1.8293 -0.1000 -0.7577
        vertex 0.5124 -0.1000 -1.9125
        vertex 0.7577 -0.1000 -1.8293
    endloop
endfacet
facet normal 0.0000 -0.2179 0.0000
    outer loop
        vertex 0.7577 -0.1000 -1.8293
        vertex 1.7147 -0.1000 -0.9900
        vertex 1.8293 -0.1000 -0.7577
    endloop
endfacet
facet normal 0.0000 -0.2283 0.0000
    outer loop
        vertex 1.7147 -0.1000 -0.9900
        vertex 0.7577 -0.1000 -1.8293
        vertex 0.9900 -0.1000 -1.7147
    endloop
endfacet
facet normal 0.0000 -0.2368 0.0000
    outer loop
        vertex 0.9900 -0.1000 -1.7147
        vertex 1.5709 -0.1000 -1.2054
        vertex 1.7147 -0.1000 -0.9900
    endloop
endfacet
facet normal 0.0000 -0.2433 0.0000
    outer loop
        vertex 1.5709 -0.1000 -1.2054
        vertex 0.9900 -0.1000 -1.7147
        vertex 1.2054 -0.1000 -1.5709
    endloop
endfacet
facet normal 0.0000 -0.2478 0.0000
    outer loop
        vertex 1.2054 -0.1000 -1.5709
        vertex 1.4001 -0.1000 -1.4001
        vertex 1.5709 -0.1000 -1.2054
    endloop
endfacet
facet normal 0.0000 -0.1281 0.0000
    outer loop
        vertex 0.0000 -0.1000 1.9800
        vertex -1.9630 -0.1000 0.2584
        vertex -1.9800 -0.1000 0.0000
    endloop
endfacet
facet normal 0.0000 -0.1451 0.0000
    outer loop
        vertex -1.9630 -0.1000 0.2584
        vertex 0.0000 -0.1000 1.9800
        vertex -0.2584 -0.1000 1.9630
    endloop
endfacet
facet normal 0.0000 -0.1615 0.0000
    outer loop
        vertex -0.2584 -0.1000 1.9630
        vertex -1.9125 -0.1000 0.5124
        vertex -1.9630 -0.1000 0.2584
    endloop
endfacet
facet normal 0.0000 -0.1773 0.0000
    outer loop
        vertex -1.9125 -0.1000 0.5124
        vertex -0.2584 -0.1000 1.9630
        vertex -0.5124 -0.1000 1.9125
    endloop
endfacet
facet normal 0.0000 -0.1921 0.0000
    outer loop
        vertex -0.5124 -0.1000 1.9125
        vertex -1.8293 -0.1000 0.7577
        vertex -1.9125 -0.1000 0.5124
    endloop
endfacet
facet normal 0.0000 -0.2057 0.0000
    outer loop
        vertex -1.8293 -0.1000 0.7577
        vertex -0.5124 -0.1000 1.9125
        vertex -0.7577 -0.1000 1.8293
    endloop
endfacet
facet normal 0.0000 -0.2179 0.0000
    outer loop
        vertex -0.7577 -0.1000 1.8293
        vertex -1.7147 -0.1000 0.9900
        vertex -1.8293 -0.1000 0.7577
    endloop
endfacet
facet normal 0.0000 -0.2283 0.0000
    outer loop
        vertex -1.7147 -0.1000 0.9900
        vertex -0.7577 -0.1000 1.8293
        vertex -0.9900 -0.1000 1.7147
    endloop
endfacet
facet normal 0.0000 -0.2368 0.0000
    outer loop
        vertex -0.9900 -0.1000 1.7147
        vertex -1.5709 -0.1000 1.2054
        vertex -1.7147 -0.1000 0.9900
    endloop
endfacet
facet normal 0.0000 -0.2433 0.0000
    outer loop
        vertex -1.5709 -0.1000 1.2054
        vertex -0.9900 -0.1000 1.7147
        vertex -1.2054 -0.1000 1.5709
    endloop
endfacet
facet normal 0.0000 -0.2478 0.0000
    outer loop
        vertex -1.2054 -0.1000 1.5709
        vertex -1.4001 -0.1000 1.4001
        vertex -1.5709 -0.1000 1.2054
    endloop
endfacet
facet normal 0.0000 -0.3719 0.0000
    outer loop
        vertex 0.0000 -0.1000 -1.9800
        vertex -1.9800 -0.1000 0.0000
        vertex -1.9630 -0.1000 -0.2584
    endloop
endfacet
facet normal 0.0000 -0.3549 0.0000
    outer loop
        vertex -1.9630 -0.1000 -0.2584
        vertex -0.2584 -0.1000 -1.9630
        vertex 0.0000 -0.1000 -1.9800
    endloop
endfacet
facet normal 0.0000 -0.3385 0.0000
    outer loop
        vertex -0.2584 -0.1000 -1.9630
        vertex -1.9630 -0.1000 -0.2584
        vertex -1.9125 -0.1000 -0.5124
    endloop
endfacet
facet normal 0.0000 -0.3227 0.0000
    outer loop
        vertex -1.9125 -0.1000 -0.5124
        vertex -0.5124 -0.1000 -1.9125
        vertex -0.2584 -0.1000 -1.9630
    endloop
endfacet
facet normal 0.0000 -0.3079 0.0000
    outer loop
        vertex -0.5124 -0.1000 -1.9125
        vertex -1.9125 -0.1000 -0.5124
        vertex -1.8293 -0.1000 -0.7577
    endloop
endfacet
facet normal 0.0000 -0.2943 0.0000
    outer loop
        vertex -1.8293 -0.1000 -0.7577
        vertex -0.7577 -0.1000 -1.8293
        vertex -0.5124 -0.1000 -1.9125
    endloop
endfacet
facet normal 0.0000 -0.2821 0.0000
    outer loop
        vertex -0.7577 -0.1000 -1.8293
        vertex -1.8293 -0.1000 -0.7577
        vertex -1.7147 -0.1000 -0.9900
    endloop
endfacet
facet normal 0.0000 -0.2717 0.0000
    outer loop
        vertex -1.7147 -0.1000 -0.9900
        vertex -0.9900 -0.1000 -1.7147
        vertex -0.7577 -0.1000 -1.8293
    endloop
endfacet
facet normal 0.0000 -0.2632 0.0000
    outer loop
        vertex -0.9900 -0.1000 -1.7147
        vertex -1.7147 -0.1000 -0.9900
        vertex -1.5709 -0.1000 -1.2054
    endloop
endfacet
facet normal 0.0000 -0.2567 0.0000
    outer loop
        vertex -1.5709 -0.1000 -1.2054
        vertex -1.2054 -0.1000 -1.5709
        vertex -0.9900 -0.1000 -1.7147
    endloop
endfacet
facet normal 0.0000 -0.2522 0.0000
    outer loop
        vertex -1.2054 -0.1000 -1.5709
        vertex -1.5709 -0.1000 -1.2054
        vertex -1.4001 -0.1000 -1.4001
    endloop
endfacet
facet normal 0.0000 -0.2414 0.0000
    outer loop
        vertex 0.6979 -0.1000 -0.0919
        vertex 0.7040 -0.1000 -0.7040
        vertex 0.7040 -0.1000 0.0000
    endloop
endfacet
facet normal 0.0000 -0.2267 0.0000
    outer loop
        vertex 0.6800 -0.1000 -0.1822
        vertex 0.7040 -0.1000 -0.7040
        vertex 0.6979 -0.1000 -0.0919
    endloop
endfacet
facet normal 0.0000 -0.2146 0.0000
    outer loop
        vertex 0.6504 -0.1000 -0.2694
        vertex 0.7040 -0.1000 -0.7040
        vertex 0.6800 -0.1000 -0.1822
    endloop
endfacet
facet normal 0.0000 -0.2053 0.0000
    outer loop
        vertex 0.6097 -0.1000 -0.3520
        vertex 0.7040 -0.1000 -0.7040
        vertex 0.6504 -0.1000 -0.2694
    endloop
endfacet
facet normal 0.0000 -0.1991 0.0000
    outer loop
        vertex 0.5586 -0.1000 -0.4286
        vertex 0.7040 -0.1000 -0.7040
        vertex 0.6097 -0.1000 -0.3520
    endloop
endfacet
facet normal 0.0000 -0.1959 0.0000
    outer loop
        vertex 0.4978 -0.1000 -0.4978
        vertex 0.7040 -0.1000 -0.7040
        vertex 0.5586 -0.1000 -0.4286
    endloop
endfacet
facet normal 0.0000 -0.1959 0.0000
    outer loop
        vertex 0.4286 -0.1000 -0.5586
        vertex 0.7040 -0.1000 -0.7040
        vertex 0.4978 -0.1000 -0.4978
    endloop
endfacet
facet normal 0.0000 -0.1991 0.0000
    outer loop
        vertex 0.3520 -0.1000 -0.6097
        vertex 0.7040 -0.1000 -0.7040
        vertex 0.4286 -0.1000 -0.5586
    endloop
endfacet
facet normal 0.0000 -0.2053 0.0000
    outer loop
        vertex 0.2694 -0.1000 -0.6504
        vertex 0.7040 -0.1000 -0.7040
        vertex 0.3520 -0.1000 -0.6097
    endloop
endfacet
facet normal 0.0000 -0.2146 0.0000
    outer loop
        vertex 0.1822 -0.1000 -0.6800
        vertex 0.7040 -0.1000 -0.7040
        vertex 0.2694 -0.1000 -0.6504
    endloop
endfacet
facet normal 0.0000 -0.2267 0.0000
    outer loop
        vertex 0.0919 -0.1000 -0.6979
        vertex 0.7040 -0.1000 -0.7040
        vertex 0.1822 -0.1000 -0.6800
    endloop
endfacet
facet normal 0.0000 -0.2414 0.0000
    outer loop
        vertex 0.0000 -0.1000 -0.7040
        vertex 0.7040 -0.1000 -0.7040
        vertex 0.0919 -0.1000 -0.6979
    endloop
endfacet
facet normal 0.0000 -0.2414 0.0000
    outer loop
        vertex -0.0919 -0.1000 -0.6979
        vertex -0.7040 -0.1000 -0.7040
        vertex 0.0000 -0.1000 -0.7040
    endloop
endfacet
facet normal 0.0000 -0.2267 0.0000
    outer loop
        vertex -0.1822 -0.1000 -0.6800
        vertex -0.7040 -0.1000 -0.7040
        vertex -0.0919 -0.1000 -0.6979
    endloop
endfacet
facet normal 0.0000 -0.2146 0.0000
    outer loop
        vertex -0.2694 -0.1000 -0.6504
        vertex -0.7040 -0.1000 -0.7040
        vertex -0.1822 -0.1000 -0.6800
    endloop
endfacet
facet normal 0.0000 -0.2053 0.0000
    outer loop
        vertex -0.3520 -0.1000 -0.6097
        vertex -0.7040 -0.1000 -0.7040
        vertex -0.2694 -0.1000 -0.6504
    endloop
endfacet
facet normal 0.0000 -0.1991 0.0000
    outer loop
        vertex -0.4286 -0.1000 -0.5586
        vertex -0.7040 -0.1000 -0.7040
        vertex -0.3520 -0.1000 -0.6097
    endloop
endfacet
facet normal 0.0000 -0.1959 0.0000
    outer loop
        vertex -0.4978 -0.1000 -0.4978
        vertex -0.7040 -0.1000 -0.7040
        vertex -0.4286 -0.1000 -0.5586
    endloop
endfacet
facet normal 0.0000 -0.1959 0.0000
    outer loop
        vertex -0.5586 -0.1000 -0.4286
        vertex -0.7040 -0.1000 -0.7040
        vertex -0.4978 -0.1000 -0.4978
    endloop
endfacet
facet normal 0.0000 -0.1991 0.0000
    outer loop
        vertex -0.6097 -0.1000 -0.3520
        vertex -0.7040 -0.1000 -0.7040
        vertex -0.5586 -0.1000 -0.4286
    endloop
endfacet
facet normal 0.0000 -0.2053 0.0000
    outer loop
        vertex -0.6504 -0.1000 -0.2694
        vertex -0.7040 -0.1000 -0.7040
        vertex -0.6097 -0.1000 -0.3520
    endloop
endfacet
facet normal 0.0000 -0.2146 0.0000
    outer loop
        vertex -0.6800 -0.1000 -0.1822
        vertex -0.7040 -0.1000 -0.7040
        vertex -0.6504 -0.1000 -0.2694
    endloop
endfacet
facet normal 0.0000 -0.2267 0.0000
    outer loop
        vertex -0.6979 -0.1000 -0.0919
        vertex -0.7040 -0.1000 -0.7040
        vertex -0.6800 -0.1000 -0.1822
    endloop
endfacet
facet normal 0.0000 -0.2414 0.0000
    outer loop
        vertex -0.7040 -0.1000 0.0000
        vertex -0.7040 -0.1000 -0.7040
        vertex -0.6979 -0.1000 -0.0919
    endloop
endfacet
facet normal 0.0000 -0.2414 0.0000
    outer loop
        vertex -0.6979 -0.1000 0.0919
        vertex -0.7040 -0.1000 0.7040
        vertex -0.7040 -0.1000 0.0000
    endloop
endfacet
facet normal 0.0000 -0.2267 0.0000
    outer loop
        vertex -0.6800 -0.1000 0.1822
        vertex -0.7040 -0.1000 0.7040
        vertex -0.6979 -0.1000 0.0919
    endloop
endfacet
facet normal 0.0000 -0.2146 0.0000
    outer loop
        vertex -0.6504 -0.1000 0.2694
        vertex -0.7040 -0.1000 0.7040
        vertex -0.6800 -0.1000 0.1822
    endloop
endfacet
facet normal 0.0000 -0.2053 0.0000
    outer loop
        vertex -0.6097 -0.1000 0.3520
        vertex -0.7040 -0.1000 0.7040
        vertex -0.6504 -0.1000 0.2694
    endloop
endfacet
facet normal 0.0000 -0.1991 0.0000
    outer loop
        vertex -0.5586 -0.1000 0.4286
        vertex -0.7040 -0.1000 0.7040
        vertex -0.6097 -0.1000 0.3520
    endloop
endfacet
facet normal 0.0000 -0.1959 0.0000
    outer loop
        vertex -0.4978 -0.1000 0.4978
        vertex -0.7040 -0.1000 0.7040
        vertex -0.5586 -0.1000 0.4286
    endloop
endfacet
facet normal 0.0000 -0.1959 0.0000
    outer loop
        vertex -0.4286 -0.1000 0.5586
        vertex -0.7040 -0.1000 0.7040
        vertex -0.4978 -0.1000 0.4978
    endloop
endfacet
facet normal 0.0000 -0.1991 0.0000
    outer loop
        vertex -0.3520 -0.1000 0.6097
        vertex -0.7040 -0.1000 0.7040
        vertex -0.4286 -0.1000 0.5586
    endloop
endfacet
facet normal 0.0000 -0.2053 0.0000
    outer loop
        vertex -0.2694 -0.1000 0.6504
        vertex -0.7040 -0.1000 0.7040
        vertex -0.3520 -0.1000 0.6097
    endloop
endfacet
facet normal 0.0000 -0.2146 0.0000
    outer loop
        vertex -0.1822 -0.1000 0.6800
        vertex -0.7040 -0.1000 0.7040
        vertex -0.2694 -0.1000 0.6504
    endloop
endfacet
facet normal 0.0000 -0.2267 0.0000
    outer loop
        vertex -0.0919 -0.1000 0.6979
        vertex -0.7040 -0.1000 0.7040
        vertex -0.1822 -0.1000 0.6800
    endloop
endfacet
facet normal 0.0000 -0.2414 0.0000
    outer loop
        vertex 0.0000 -0.1000 0.7040
        vertex -0.7040 -0.1000 0.7040
        vertex -0.0919 -0.1000 0.6979
    endloop
endfacet
facet normal 0.0000 -0.2414 0.0000
    outer loop
        vertex 0.0919 -0.1000 0.6979
        vertex 0.7040 -0.1000 0.7040
        vertex 0.0000 -0.1000 0.7040
    endloop
endfacet
facet normal 0.0000 -0.2267 0.0000
    outer loop
        vertex 0.1822 -0.1000 0.6800
        vertex 0.7040 -0.1000 0.7040
        vertex 0.0919 -0.1000 0.6979
    endloop
endfacet
facet normal 0.0000 -0.2146 0.0000
    outer loop
        vertex 0.2694 -0.1000 0.6504
        vertex 0.7040 -0.1000 0.7040
        vertex 0.1822 -0.1000 0.6800
    endloop
endfacet
facet normal 0.0000 -0.2053 0.0000
    outer loop
        vertex 0.3520 -0.1000 0.6097
        vertex 0.7040 -0.1000 0.7040
        vertex 0.2694 -0.1000 0.6504
    endloop
endfacet
facet normal 0.0000 -0.1991 0.0000
    outer loop
        vertex 0.4286 -0.1000 0.5586
        vertex 0.7040 -0.1000 0.7040
        vertex 0.3520 -0.1000 0.6097
    endloop
endfacet
facet normal 0.0000 -0.1959 0.0000
    outer loop
        vertex 0.4978 -0.1000 0.4978
        vertex 0.7040 -0.1000 0.7040
        vertex 0.4286 -0.1000 0.5586
    endloop
endfacet
facet normal 0.0000 -0.1959 0.0000
    outer loop
        vertex 0.5586 -0.1000 0.4286
        vertex 0.7040 -0.1000 0.7040
        vertex 0.4978 -0.1000 0.4978
    endloop
endfacet
facet normal 0.0000 -0.1991 0.0000
    outer loop
        vertex 0.6097 -0.1000 0.3520
        vertex 0.7040 -0.1000 0.7040
        vertex 0.5586 -0.1000 0.4286
    endloop
endfacet
facet normal 0.0000 -0.2053 0.0000
    outer loop
        vertex 0.6504 -0.1000 0.2694
        vertex 0.7040 -0.1000 0.7040
        vertex 0.6097 -0.1000 0.3520
    endloop
endfacet
facet normal 0.0000 -0.2146 0.0000
    outer loop
        vertex 0.6800 -0.1000 0.1822
        vertex 0.7040 -0.1000 0.7040
        vertex 0.6504 -0.1000 0.2694
    endloop
endfacet
facet normal 0.0000 -0.2267 0.0000
    outer loop
        vertex 0.6979 -0.1000 0.0919
        vertex 0.7040 -0.1000 0.7040
        vertex 0.6800 -0.1000 0.1822
    endloop
endfacet
facet normal 0.0000 -0.2414 0.0000
    outer loop
        vertex 0.7040 -0.1000 0.0000
        vertex 0.7040 -0.1000 0.7040
        vertex 0.6979 -0.1000 0.0919
    endloop
endfacet
facet normal 0.0000 -2.5700 0.0000
    outer loop
        vertex 0.0000 -0.1000 1.9800
        vertex -0.7040 -0.1000 0.7040
        vertex 0.7040 -0.1000 0.7040
    endloop
endfacet
facet normal 0.0000 -1.7125 0.0000
    outer loop
        vertex 0.0000 -0.1000 1.9800
        vertex 0.7040 -0.1000 0.7040
        vertex 1.9800 -0.1000 0.0000
    endloop
endfacet
facet normal 0.0000 -2.5700 0.0000
    outer loop
        vertex 1.9800 -0.1000 0.0000
        vertex 0.7040 -0.1000 0.7040
        vertex 0.7040 -0.1000 -0.7040
    endloop
endfacet
facet normal 0.0000 -1.7125 0.0000
    outer loop
        vertex 1.9800 -0.1000 0.0000
        vertex 0.7040 -0.1000 -0.7040
        vertex 0.0000 -0.1000 -1.9800
    endloop
endfacet
facet normal 0.0000 -2.5700 0.0000
    outer loop
        vertex -1.9800 -0.1000 0.0000
        vertex -0.7040 -0.1000 -0.7040
        vertex -0.7040 -0.1000 0.7040
    endloop
endfacet
facet normal 0.0000 -2.5700 0.0000
    outer loop
        vertex 0.7040 -0.1000 -0.7040
        vertex -0.7040 -0.1000 -0.7040
        vertex 0.0000 -0.1000 -1.9800
    endloop
endfacet
facet normal 0.0000 -1.7125 0.0000
    outer loop
        vertex -0.7040 -0.1000 -0.7040
        vertex -1.9800 -0.1000 0.0000
        vertex 0.0000 -0.1000 -1.9800
    endloop
endfacet
facet normal 0.0000 -1.7125 0.0000
    outer loop
        vertex -0.7040 -0.1000 0.7040
        vertex 0.0000 -0.1000 1.9800
        vertex -1.9800 -0.1000 0.0000
    endloop
endfacet
facet normal 0.0000 -1.9459 0.0000
    outer loop
        vertex 3.2521 -0.1000 1.3471
        vertex 3.4144 -0.1000 0.8360
        vertex 5.9840 -0.1000 0.8360
    endloop
endfacet
facet normal 0.0000 -8.0922 0.0000
    outer loop
        vertex 5.9840 -0.1000 0.8360
        vertex 3.5200 -0.1000 3.5200
        vertex 3.2521 -0.1000 1.3471
    endloop
endfacet
facet normal 0.0000 -8.0922 0.0000
    outer loop
        vertex 3.2521 -0.1000 -1.3471
        vertex 3.5200 -0.1000 -3.5200
        vertex 5.9840 -0.1000 -0.8360
    endloop
endfacet
facet normal 0.0000 -1.9459 0.0000
    outer loop
        vertex 5.9840 -0.1000 -0.8360
        vertex 3.4144 -0.1000 -0.8360
        vertex 3.2521 -0.1000 -1.3471
    endloop
endfacet
facet normal 0.0000 -8.0922 0.0000
    outer loop
        vertex -3.2521 -0.1000 1.3471
        vertex -3.5200 -0.1000 3.5200
        vertex -5.9840 -0.1000 0.8360
    endloop
endfacet
facet normal 0.0000 -1.9459 0.0000
    outer loop
        vertex -5.9840 -0.1000 0.8360
        vertex -3.4144 -0.1000 0.8360
        vertex -3.2521 -0.1000 1.3471
    endloop
endfacet
facet normal 0.0000 -8.0922 0.0000
    outer loop
        vertex -5.9840 -0.1000 -0.8360
        vertex -3.5200 -0.1000 -3.5200
        vertex -3.2521 -0.1000 -1.3471
    endloop
endfacet
facet normal 0.0000 -1.9459 0.0000
    outer loop
        vertex -3.2521 -0.1000 -1.3471
        vertex -3.4144 -0.1000 -0.8360
        vertex -5.9840 -0.1000 -0.8360
    endloop
endfacet
facet normal 0.0000 -0.2522 0.0000
    outer loop
        vertex 0.0000 -0.1000 -3.5200
        vertex 0.4594 -0.1000 -3.4897
        vertex 0.9110 -0.1000 -3.4000
    endloop
endfacet
facet normal 0.0000 -0.2566 0.0000
    outer loop
        vertex 0.0000 -0.1000 -3.5200
        vertex 0.9110 -0.1000 -3.4000
        vertex 1.3471 -0.1000 -3.2521
    endloop
endfacet
facet normal 0.0000 -0.2632 0.0000
    outer loop
        vertex 0.0000 -0.1000 -3.5200
        vertex 1.3471 -0.1000 -3.2521
        vertex 1.7600 -0.1000 -3.0483
    endloop
endfacet
facet normal 0.0000 -0.2717 0.0000
    outer loop
        vertex 0.0000 -0.1000 -3.5200
        vertex 1.7600 -0.1000 -3.0483
        vertex 2.1430 -0.1000 -2.7928
    endloop
endfacet
facet normal 0.0000 -0.2822 0.0000
    outer loop
        vertex 0.0000 -0.1000 -3.5200
        vertex 2.1430 -0.1000 -2.7928
        vertex 2.4890 -0.1000 -2.4890
    endloop
endfacet
facet normal 0.0000 -0.2942 0.0000
    outer loop
        vertex 0.0000 -0.1000 -3.5200
        vertex 2.4890 -0.1000 -2.4890
        vertex 2.7928 -0.1000 -2.1430
    endloop
endfacet
facet normal 0.0000 -0.3079 0.0000
    outer loop
        vertex 0.0000 -0.1000 -3.5200
        vertex 2.7928 -0.1000 -2.1430
        vertex 3.0483 -0.1000 -1.7600
    endloop
endfacet
facet normal 0.0000 -0.3226 0.0000
    outer loop
        vertex 0.0000 -0.1000 -3.5200
        vertex 3.0483 -0.1000 -1.7600
        vertex 3.2521 -0.1000 -1.3471
    endloop
endfacet
facet normal 0.0000 -0.2478 0.0000
    outer loop
        vertex 0.0000 -0.1000 -3.5200
        vertex -0.9110 -0.1000 -3.4000
        vertex -0.4594 -0.1000 -3.4897
    endloop
endfacet
facet normal 0.0000 -0.2434 0.0000
    outer loop
        vertex 0.0000 -0.1000 -3.5200
        vertex -1.3471 -0.1000 -3.2521
        vertex -0.9110 -0.1000 -3.4000
    endloop
endfacet
facet normal 0.0000 -0.2368 0.0000
    outer loop
        vertex 0.0000 -0.1000 -3.5200
        vertex -1.7600 -0.1000 -3.0483
        vertex -1.3471 -0.1000 -3.2521
    endloop
endfacet
facet normal 0.0000 -0.2283 0.0000
    outer loop
        vertex 0.0000 -0.1000 -3.5200
        vertex -2.1430 -0.1000 -2.7928
        vertex -1.7600 -0.1000 -3.0483
    endloop
endfacet
facet normal 0.0000 -0.2178 0.0000
    outer loop
        vertex 0.0000 -0.1000 -3.5200
        vertex -2.4890 -0.1000 -2.4890
        vertex -2.1430 -0.1000 -2.7928
    endloop
endfacet
facet normal 0.0000 -0.2058 0.0000
    outer loop
        vertex 0.0000 -0.1000 -3.5200
        vertex -2.7928 -0.1000 -2.1430
        vertex -2.4890 -0.1000 -2.4890
    endloop
endfacet
facet normal 0.0000 -0.1921 0.0000
    outer loop
        vertex 0.0000 -0.1000 -3.5200
        vertex -3.0483 -0.1000 -1.7600
        vertex -2.7928 -0.1000 -2.1430
    endloop
endfacet
facet normal 0.0000 -0.1774 0.0000
    outer loop
        vertex 0.0000 -0.1000 -3.5200
        vertex -3.2521 -0.1000 -1.3471
        vertex -3.0483 -0.1000 -1.7600
    endloop
endfacet
facet normal 0.0000 -0.2478 0.0000
    outer loop
        vertex 0.0000 -0.1000 3.5200
        vertex 0.9110 -0.1000 3.4000
        vertex 0.4594 -0.1000 3.4897
    endloop
endfacet
facet normal 0.0000 -0.2434 0.0000
    outer loop
        vertex 0.0000 -0.1000 3.5200
        vertex 1.3471 -0.1000 3.2521
        vertex 0.9110 -0.1000 3.4000
    endloop
endfacet
facet normal 0.0000 -0.2368 0.0000
    outer loop
        vertex 0.0000 -0.1000 3.5200
        vertex 1.7600 -0.1000 3.0483
        vertex 1.3471 -0.1000 3.2521
    endloop
endfacet
facet normal 0.0000 -0.2283 0.0000
    outer loop
        vertex 0.0000 -0.1000 3.5200
        vertex 2.1430 -0.1000 2.7928
        vertex 1.7600 -0.1000 3.0483
    endloop
endfacet
facet normal 0.0000 -0.2178 0.0000
    outer loop
        vertex 0.0000 -0.1000 3.5200
        vertex 2.4890 -0.1000 2.4890
        vertex 2.1430 -0.1000 2.7928
    endloop
endfacet
facet normal 0.0000 -0.2058 0.0000
    outer loop
        vertex 0.0000 -0.1000 3.5200
        vertex 2.7928 -0.1000 2.1430
        vertex 2.4890 -0.1000 2.4890
    endloop
endfacet
facet normal 0.0000 -0.1921 0.0000
    outer loop
        vertex 0.0000 -0.1000 3.5200
        vertex 3.0483 -0.1000 1.7600
        vertex 2.7928 -0.1000 2.1430
    endloop
endfacet
facet normal 0.0000 -0.1774 0.0000
    outer loop
        vertex 0.0000 -0.1000 3.5200
        vertex 3.2521 -0.1000 1.3471
        vertex 3.0483 -0.1000 1.7600
    endloop
endfacet
facet normal 0.0000 -0.2522 0.0000
    outer loop
        vertex 0.0000 -0.1000 3.5200
        vertex -0.4594 -0.1000 3.4897
        vertex -0.9110 -0.1000 3.4000
    endloop
endfacet
facet normal 0.0000 -0.2566 0.0000
    outer loop
        vertex 0.0000 -0.1000 3.5200
        vertex -0.9110 -0.1000 3.4000
        vertex -1.3471 -0.1000 3.2521
    endloop
endfacet
facet normal 0.0000 -0.2632 0.0000
    outer loop
        vertex 0.0000 -0.1000 3.5200
        vertex -1.3471 -0.1000 3.2521
        vertex -1.7600 -0.1000 3.0483
    endloop
endfacet
facet normal 0.0000 -0.2717 0.0000
    outer loop
        vertex 0.0000 -0.1000 3.5200
        vertex -1.7600 -0.1000 3.0483
        vertex -2.1430 -0.1000 2.7928
    endloop
endfacet
facet normal 0.0000 -0.2822 0.0000
    outer loop
        vertex 0.0000 -0.1000 3.5200
        vertex -2.1430 -0.1000 2.7928
        vertex -2.4890 -0.1000 2.4890
    endloop
endfacet
facet normal 0.0000 -0.2942 0.0000
    outer loop
        vertex 0.0000 -0.1000 3.5200
        vertex -2.4890 -0.1000 2.4890
        vertex -2.7928 -0.1000 2.1430
    endloop
endfacet
facet normal 0.0000 -0.3079 0.0000
    outer loop
        vertex 0.0000 -0.1000 3.5200
        vertex -2.7928 -0.1000 2.1430
        vertex -3.0483 -0.1000 1.7600
    endloop
endfacet
facet normal 0.0000 -0.3226 0.0000
    outer loop
        vertex 0.0000 -0.1000 3.5200
        vertex -3.0483 -0.1000 1.7600
        vertex -3.2521 -0.1000 1.3471
    endloop
endfacet
facet normal 0.0000 -0.2586 0.0000
    outer loop
        vertex 1.9630 -0.1000 0.2584
        vertex 1.9800 -0.1000 0.0000
        vertex 1.9800 -0.1000 1.9800
    endloop
endfacet
facet normal 0.0000 -0.2733 0.0000
    outer loop
        vertex 1.9125 -0.1000 0.5124
        vertex 1.9630 -0.1000 0.2584
        vertex 1.9800 -0.1000 1.9800
    endloop
endfacet
facet normal 0.0000 -0.2854 0.0000
    outer loop
        vertex 1.8293 -0.1000 0.7577
        vertex 1.9125 -0.1000 0.5124
        vertex 1.9800 -0.1000 1.9800
    endloop
endfacet
facet normal 0.0000 -0.2947 0.0000
    outer loop
        vertex 1.7147 -0.1000 0.9900
        vertex 1.8293 -0.1000 0.7577
        vertex 1.9800 -0.1000 1.9800
    endloop
endfacet
facet normal 0.0000 -0.3009 0.0000
    outer loop
        vertex 1.5709 -0.1000 1.2054
        vertex 1.7147 -0.1000 0.9900
        vertex 1.9800 -0.1000 1.9800
    endloop
endfacet
facet normal 0.0000 -0.3041 0.0000
    outer loop
        vertex 1.4001 -0.1000 1.4001
        vertex 1.5709 -0.1000 1.2054
        vertex 1.9800 -0.1000 1.9800
    endloop
endfacet
facet normal 0.0000 -0.3041 0.0000
    outer loop
        vertex 1.2054 -0.1000 1.5709
        vertex 1.4001 -0.1000 1.4001
        vertex 1.9800 -0.1000 1.9800
    endloop
endfacet
facet normal 0.0000 -0.3009 0.0000
    outer loop
        vertex 0.9900 -0.1000 1.7147
        vertex 1.2054 -0.1000 1.5709
        vertex 1.9800 -0.1000 1.9800
    endloop
endfacet
facet normal 0.0000 -0.2947 0.0000
    outer loop
        vertex 0.7577 -0.1000 1.8293
        vertex 0.9900 -0.1000 1.7147
        vertex 1.9800 -0.1000 1.9800
    endloop
endfacet
facet normal 0.0000 -0.2854 0.0000
    outer loop
        vertex 0.5124 -0.1000 1.9125
        vertex 0.7577 -0.1000 1.8293
        vertex 1.9800 -0.1000 1.9800
    endloop
endfacet
facet normal 0.0000 -0.2733 0.0000
    outer loop
        vertex 0.2584 -0.1000 1.9630
        vertex 0.5124 -0.1000 1.9125
        vertex 1.9800 -0.1000 1.9800
    endloop
endfacet
facet normal 0.0000 -0.2586 0.0000
    outer loop
        vertex 0.0000 -0.1000 1.9800
        vertex 0.2584 -0.1000 1.9630
        vertex 1.9800 -0.1000 1.9800
    endloop
endfacet
facet normal 0.0000 -0.2586 0.0000
    outer loop
        vertex -0.2584 -0.1000 1.9630
        vertex 0.0000 -0.1000 1.9800
        vertex -1.9800 -0.1000 1.9800
    endloop
endfacet
facet normal 0.0000 -0.2733 0.0000
    outer loop
        vertex -0.5124 -0.1000 1.9125
        vertex -0.2584 -0.1000 1.9630
        vertex -1.9800 -0.1000 1.9800
    endloop
endfacet
facet normal 0.0000 -0.2854 0.0000
    outer loop
        vertex -0.7577 -0.1000 1.8293
        vertex -0.5124 -0.1000 1.9125
        vertex -1.9800 -0.1000 1.9800
    endloop
endfacet
facet normal 0.0000 -0.2947 0.0000
    outer loop
        vertex -0.9900 -0.1000 1.7147
        vertex -0.7577 -0.1000 1.8293
        vertex -1.9800 -0.1000 1.9800
    endloop
endfacet
facet normal 0.0000 -0.3009 0.0000
    outer loop
        vertex -1.2054 -0.1000 1.5709
        vertex -0.9900 -0.1000 1.7147
        vertex -1.9800 -0.1000 1.9800
    endloop
endfacet
facet normal 0.0000 -0.3041 0.0000
    outer loop
        vertex -1.4001 -0.1000 1.4001
        vertex -1.2054 -0.1000 1.5709
        vertex -1.9800 -0.1000 1.9800
    endloop
endfacet
facet normal 0.0000 -0.3041 0.0000
    outer loop
        vertex -1.5709 -0.1000 1.2054
        vertex -1.4001 -0.1000 1.4001
        vertex -1.9800 -0.1000 1.9800
    endloop
endfacet
facet normal 0.0000 -0.3009 0.0000
    outer loop
        vertex -1.7147 -0.1000 0.9900
        vertex -1.5709 -0.1000 1.2054
        vertex -1.9800 -0.1000 1.9800
    endloop
endfacet
facet normal 0.0000 -0.2947 0.0000
    outer loop
        vertex -1.8293 -0.1000 0.7577
        vertex -1.7147 -0.1000 0.9900
        vertex -1.9800 -0.1000 1.9800
    endloop
endfacet
facet normal 0.0000 -0.2854 0.0000
    outer loop
        vertex -1.9125 -0.1000 0.5124
        vertex -1.8293 -0.1000 0.7577
        vertex -1.9800 -0.1000 1.9800
    endloop
endfacet
facet normal 0.0000 -0.2733 0.0000
    outer loop
        vertex -1.9630 -0.1000 0.2584
        vertex -1.9125 -0.1000 0.5124
        vertex -1.9800 -0.1000 1.9800
    endloop
endfacet
facet normal 0.0000 -0.2586 0.0000
    outer loop
        vertex -1.9800 -0.1000 0.0000
        vertex -1.9630 -0.1000 0.2584
        vertex -1.9800 -0.1000 1.9800
    endloop
endfacet
facet normal 0.0000 -0.2586 0.0000
    outer loop
        vertex -1.9630 -0.1000 -0.2584
        vertex -1.9800 -0.1000 0.0000
        vertex -1.9800 -0.1000 -1.9800
    endloop
endfacet
facet normal 0.0000 -0.2733 0.0000
    outer loop
        vertex -1.9125 -0.1000 -0.5124
        vertex -1.9630 -0.1000 -0.2584
        vertex -1.9800 -0.1000 -1.9800
    endloop
endfacet
facet normal 0.0000 -0.2854 0.0000
    outer loop
        vertex -1.8293 -0.1000 -0.7577
        vertex -1.9125 -0.1000 -0.5124
        vertex -1.9800 -0.1000 -1.9800
    endloop
endfacet
facet normal 0.0000 -0.2947 0.0000
    outer loop
        vertex -1.7147 -0.1000 -0.9900
        vertex -1.8293 -0.1000 -0.7577
        vertex -1.9800 -0.1000 -1.9800
    endloop
endfacet
facet normal 0.0000 -0.3009 0.0000
    outer loop
        vertex -1.5709 -0.1000 -1.2054
        vertex -1.7147 -0.1000 -0.9900
        vertex -1.9800 -0.1000 -1.9800
    endloop
endfacet
facet normal 0.0000 -0.3041 0.0000
    outer loop
        vertex -1.4001 -0.1000 -1.4001
        vertex -1.5709 -0.1000 -1.2054
        vertex -1.9800 -0.1000 -1.9800
    endloop
endfacet
facet normal 0.0000 -0.3041 0.0000
    outer loop
        vertex -1.2054 -0.1000 -1.5709
        vertex -1.4001 -0.1000 -1.4001
        vertex -1.9800 -0.1000 -1.9800
    endloop
endfacet
facet normal 0.0000 -0.3009 0.0000
    outer loop
        vertex -0.9900 -0.1000 -1.7147
        vertex -1.2054 -0.1000 -1.5709
        vertex -1.9800 -0.1000 -1.9800
    endloop
endfacet
facet normal 0.0000 -0.2947 0.0000
    outer loop
        vertex -0.7577 -0.1000 -1.8293
        vertex -0.9900 -0.1000 -1.7147
        vertex -1.9800 -0.1000 -1.9800
    endloop
endfacet
facet normal 0.0000 -0.2854 0.0000
    outer loop
        vertex -0.5124 -0.1000 -1.9125
        vertex -0.7577 -0.1000 -1.8293
        vertex -1.9800 -0.1000 -1.9800
    endloop
endfacet
facet normal 0.0000 -0.2733 0.0000
    outer loop
        vertex -0.2584 -0.1000 -1.9630
        vertex -0.5124 -0.1000 -1.9125
        vertex -1.9800 -0.1000 -1.9800
    endloop
endfacet
facet normal 0.0000 -0.2586 0.0000
    outer loop
        vertex 0.0000 -0.1000 -1.9800
        vertex -0.2584 -0.1000 -1.9630
        vertex -1.9800 -0.1000 -1.9800
    endloop
endfacet
facet normal 0.0000 -0.2586 0.0000
    outer loop
        vertex 0.2584 -0.1000 -1.9630
        vertex 0.0000 -0.1000 -1.9800
        vertex 1.9800 -0.1000 -1.9800
    endloop
endfacet
facet normal 0.0000 -0.2733 0.0000
    outer loop
        vertex 0.5124 -0.1000 -1.9125
        vertex 0.2584 -0.1000 -1.9630
        vertex 1.9800 -0.1000 -1.9800
    endloop
endfacet
facet normal 0.0000 -0.2854 0.0000
    outer loop
        vertex 0.7577 -0.1000 -1.8293
        vertex 0.5124 -0.1000 -1.9125
        vertex 1.9800 -0.1000 -1.9800
    endloop
endfacet
facet normal 0.0000 -0.2947 0.0000
    outer loop
        vertex 0.9900 -0.1000 -1.7147
        vertex 0.7577 -0.1000 -1.8293
        vertex 1.9800 -0.1000 -1.9800
    endloop
endfacet
facet normal 0.0000 -0.3009 0.0000
    outer loop
        vertex 1.2054 -0.1000 -1.5709
        vertex 0.9900 -0.1000 -1.7147
        vertex 1.9800 -0.1000 -1.9800
    endloop
endfacet
facet normal 0.0000 -0.3041 0.0000
    outer loop
        vertex 1.4001 -0.1000 -1.4001
        vertex 1.2054 -0.1000 -1.5709
        vertex 1.9800 -0.1000 -1.9800
    endloop
endfacet
facet normal 0.0000 -0.3041 0.0000
    outer loop
        vertex 1.5709 -0.1000 -1.2054
        vertex 1.4001 -0.1000 -1.4001
        vertex 1.9800 -0.1000 -1.9800
    endloop
endfacet
facet normal 0.0000 -0.3009 0.0000
    outer loop
        vertex 1.7147 -0.1000 -0.9900
        vertex 1.5709 -0.1000 -1.2054
        vertex 1.9800 -0.1000 -1.9800
    endloop
endfacet
facet normal 0.0000 -0.2947 0.0000
    outer loop
        vertex 1.8293 -0.1000 -0.7577
        vertex 1.7147 -0.1000 -0.9900
        vertex 1.9800 -0.1000 -1.9800
    endloop
endfacet
facet normal 0.0000 -0.2854 0.0000
    outer loop
        vertex 1.9125 -0.1000 -0.5124
        vertex 1.8293 -0.1000 -0.7577
        vertex 1.9800 -0.1000 -1.9800
    endloop
endfacet
facet normal 0.0000 -0.2733 0.0000
    outer loop
        vertex 1.9630 -0.1000 -0.2584
        vertex 1.9125 -0.1000 -0.5124
        vertex 1.9800 -0.1000 -1.9800
    endloop
endfacet
facet normal 0.0000 -0.2586 0.0000
    outer loop
        vertex 1.9800 -0.1000 0.0000
        vertex 1.9630 -0.1000 -0.2584
        vertex 1.9800 -0.1000 -1.9800
    endloop
endfacet
facet normal 0.0000 -0.1195 0.0000
    outer loop
        vertex 0.0000 -0.1000 0.0000
        vertex 0.6979 -0.1000 -0.0919
        vertex 0.7040 -0.1000 0.0000
    endloop
endfacet
facet normal 0.0000 -0.1195 0.0000
    outer loop
        vertex 0.0000 -0.1000 0.0000
        vertex 0.6800 -0.1000 -0.1822
        vertex 0.6979 -0.1000 -0.0919
    endloop
endfacet
facet normal 0.0000 -0.1195 0.0000
    outer loop
        vertex 0.0000 -0.1000 0.0000
        vertex 0.6504 -0.1000 -0.2694
        vertex 0.6800 -0.1000 -0.1822
    endloop
endfacet
facet normal 0.0000 -0.1195 0.0000
    outer loop
        vertex 0.0000 -0.1000 0.0000
        vertex 0.6097 -0.1000 -0.3520
        vertex 0.6504 -0.1000 -0.2694
    endloop
endfacet
facet normal 0.0000 -0.1195 0.0000
    outer loop
        vertex 0.0000 -0.1000 0.0000
        vertex 0.5586 -0.1000 -0.4286
        vertex 0.6097 -0.1000 -0.3520
    endloop
endfacet
facet normal 0.0000 -0.1195 0.0000
    outer loop
        vertex 0.0000 -0.1000 0.0000
        vertex 0.4978 -0.1000 -0.4978
        vertex 0.5586 -0.1000 -0.4286
    endloop
endfacet
facet normal 0.0000 -0.1195 0.0000
    outer loop
        vertex 0.0000 -0.1000 0.0000
        vertex 0.4286 -0.1000 -0.5586
        vertex 0.4978 -0.1000 -0.4978
    endloop
endfacet
facet normal 0.0000 -0.1195 0.0000
    outer loop
        vertex 0.0000 -0.1000 0.0000
        vertex 0.3520 -0.1000 -0.6097
        vertex 0.4286 -0.1000 -0.5586
    endloop
endfacet
facet normal 0.0000 -0.1195 0.0000
    outer loop
        vertex 0.0000 -0.1000 0.0000
        vertex 0.2694 -0.1000 -0.6504
        vertex 0.3520 -0.1000 -0.6097
    endloop
endfacet
facet normal 0.0000 -0.1195 0.0000
    outer loop
        vertex 0.0000 -0.1000 0.0000
        vertex 0.1822 -0.1000 -0.6800
        vertex 0.2694 -0.1000 -0.6504
    endloop
endfacet
facet normal 0.0000 -0.1195 0.0000
    outer loop
        vertex 0.0000 -0.1000 0.0000
        vertex 0.0919 -0.1000 -0.6979
        vertex 0.1822 -0.1000 -0.6800
    endloop
endfacet
facet normal 0.0000 -0.1195 0.0000
    outer loop
        vertex 0.0000 -0.1000 0.0000
        vertex 0.0000 -0.1000 -0.7040
        vertex 0.0919 -0.1000 -0.6979
    endloop
endfacet
facet normal 0.0000 -0.1195 0.0000
    outer loop
        vertex 0.0000 -0.1000 0.0000
        vertex -0.0919 -0.1000 -0.6979
        vertex 0.0000 -0.1000 -0.7040
    endloop
endfacet
facet normal 0.0000 -0.1195 0.0000
    outer loop
        vertex 0.0000 -0.1000 0.0000
        vertex -0.1822 -0.1000 -0.6800
        vertex -0.0919 -0.1000 -0.6979
    endloop
endfacet
facet normal 0.0000 -0.1195 0.0000
    outer loop
        vertex 0.0000 -0.1000 0.0000
        vertex -0.2694 -0.1000 -0.6504
        vertex -0.1822 -0.1000 -0.6800
    endloop
endfacet
facet normal 0.0000 -0.1195 0.0000
    outer loop
        vertex 0.0000 -0.1000 0.0000
        vertex -0.3520 -0.1000 -0.6097
        vertex -0.2694 -0.1000 -0.6504
    endloop
endfacet
facet normal 0.0000 -0.1195 0.0000
    outer loop
        vertex 0.0000 -0.1000 0.0000
        vertex -0.4286 -0.1000 -0.5586
        vertex -0.3520 -0.1000 -0.6097
    endloop
endfacet
facet normal 0.0000 -0.1195 0.0000
    outer loop
        vertex 0.0000 -0.1000 0.0000
        vertex -0.4978 -0.1000 -0.4978
        vertex -0.4286 -0.1000 -0.5586
    endloop
endfacet
facet normal 0.0000 -0.1195 0.0000
    outer loop
        vertex 0.0000 -0.1000 0.0000
        vertex -0.5586 -0.1000 -0.4286
        vertex -0.4978 -0.1000 -0.4978
    endloop
endfacet
facet normal 0.0000 -0.1195 0.0000
    outer loop
        vertex 0.0000 -0.1000 0.0000
        vertex -0.6097 -0.1000 -0.3520
        vertex -0.5586 -0.1000 -0.4286
    endloop
endfacet
facet normal 0.0000 -0.1195 0.0000
    outer loop
        vertex 0.0000 -0.1000 0.0000
        vertex -0.6504 -0.1000 -0.2694
        vertex -0.6097 -0.1000 -0.3520
    endloop
endfacet
facet normal 0.0000 -0.1195 0.0000
    outer loop
        vertex 0.0000 -0.1000 0.0000
        vertex -0.6800 -0.1000 -0.1822
        vertex -0.6504 -0.1000 -0.2694
    endloop
endfacet
facet normal 0.0000 -0.1195 0.0000
    outer loop
        vertex 0.0000 -0.1000 0.0000
        vertex -0.6979 -0.1000 -0.0919
        vertex -0.6800 -0.1000 -0.1822
    endloop
endfacet
facet normal 0.0000 -0.1195 0.0000
    outer loop
        vertex 0.0000 -0.1000 0.0000
        vertex -0.7040 -0.1000 0.0000
        vertex -0.6979 -0.1000 -0.0919
    endloop
endfacet
facet normal 0.0000 -0.1195 0.0000
    outer loop
        vertex 0.0000 -0.1000 0.0000
        vertex -0.6979 -0.1000 0.0919
        vertex -0.7040 -0.1000 0.0000
    endloop
endfacet
facet normal 0.0000 -0.1195 0.0000
    outer loop
        vertex 0.0000 -0.1000 0.0000
        vertex -0.6800 -0.1000 0.1822
        vertex -0.6979 -0.1000 0.0919
    endloop
endfacet
facet normal 0.0000 -0.1195 0.0000
    outer loop
        vertex 0.0000 -0.1000 0.0000
        vertex -0.6504 -0.1000 0.2694
        vertex -0.6800 -0.1000 0.1822
    endloop
endfacet
facet normal 0.0000 -0.1195 0.0000
    outer loop
        vertex 0.0000 -0.1000 0.0000
        vertex -0.6097 -0.1000 0.3520
        vertex -0.6504 -0.1000 0.2694
    endloop
endfacet
facet normal 0.0000 -0.1195 0.0000
    outer loop
        vertex 0.0000 -0.1000 0.0000
        vertex -0.5586 -0.1000 0.4286
        vertex -0.6097 -0.1000 0.3520
    endloop
endfacet
facet normal 0.0000 -0.1195 0.0000
    outer loop
        vertex 0.0000 -0.1000 0.0000
        vertex -0.4978 -0.1000 0.4978
        vertex -0.5586 -0.1000 0.4286
    endloop
endfacet
facet normal 0.0000 -0.1195 0.0000
    outer loop
        vertex 0.0000 -0.1000 0.0000
        vertex -0.4286 -0.1000 0.5586
        vertex -0.4978 -0.1000 0.4978
    endloop
endfacet
facet normal 0.0000 -0.1195 0.0000
    outer loop
        vertex 0.0000 -0.1000 0.0000
        vertex -0.3520 -0.1000 0.6097
        vertex -0.4286 -0.1000 0.5586
    endloop
endfacet
facet normal 0.0000 -0.1195 0.0000
    outer loop
        vertex 0.0000 -0.1000 0.0000
        vertex -0.2694 -0.1000 0.6504
        vertex -0.3520 -0.1000 0.6097
    endloop
endfacet
facet normal 0.0000 -0.1195 0.0000
    outer loop
        vertex 0.0000 -0.1000 0.0000
        vertex -0.1822 -0.1000 0.6800
        vertex -0.2694 -0.1000 0.6504
    endloop
endfacet
facet normal 0.0000 -0.1195 0.0000
    outer loop
        vertex 0.0000 -0.1000 0.0000
        vertex -0.0919 -0.1000 0.6979
        vertex -0.1822 -0.1000 0.6800
    endloop
endfacet
facet normal 0.0000 -0.1195 0.0000
    outer loop
        vertex 0.0000 -0.1000 0.0000
        vertex 0.0000 -0.1000 0.7040
        vertex -0.0919 -0.1000 0.6979
    endloop
endfacet
facet normal 0.0000 -0.1195 0.0000
    outer loop
        vertex 0.0000 -0.1000 0.0000
        vertex 0.0919 -0.1000 0.6979
        vertex 0.0000 -0.1000 0.7040
    endloop
endfacet
facet normal 0.0000 -0.1195 0.0000
    outer loop
        vertex 0.0000 -0.1000 0.0000
        vertex 0.1822 -0.1000 0.6800
        vertex 0.0919 -0.1000 0.6979
    endloop
endfacet
facet normal 0.0000 -0.1195 0.0000
    outer loop
        vertex 0.0000 -0.1000 0.0000
        vertex 0.2694 -0.1000 0.6504
        vertex 0.1822 -0.1000 0.6800
    endloop
endfacet
facet normal 0.0000 -0.1195 0.0000
    outer loop
        vertex 0.0000 -0.1000 0.0000
        vertex 0.3520 -0.1000 0.6097
        vertex 0.2694 -0.1000 0.6504
    endloop
endfacet
facet normal 0.0000 -0.1195 0.0000
    outer loop
        vertex 0.0000 -0.1000 0.0000
        vertex 0.4286 -0.1000 0.5586
        vertex 0.3520 -0.1000 0.6097
    endloop
endfacet
facet normal 0.0000 -0.1195 0.0000
    outer loop
        vertex 0.0000 -0.1000 0.0000
        vertex 0.4978 -0.1000 0.4978
        vertex 0.4286 -0.1000 0.5586
    endloop
endfacet
facet normal 0.0000 -0.1195 0.0000
    outer loop
        vertex 0.0000 -0.1000 0.0000
        vertex 0.5586 -0.1000 0.4286
        vertex 0.4978 -0.1000 0.4978
    endloop
endfacet
facet normal 0.0000 -0.1195 0.0000
    outer loop
        vertex 0.0000 -0.1000 0.0000
        vertex 0.6097 -0.1000 0.3520
        vertex 0.5586 -0.1000 0.4286
    endloop
endfacet
facet normal 0.0000 -0.1195 0.0000
    outer loop
        vertex 0.0000 -0.1000 0.0000
        vertex 0.6504 -0.1000 0.2694
        vertex 0.6097 -0.1000 0.3520
    endloop
endfacet
facet normal 0.0000 -0.1195 0.0000
    outer loop
        vertex 0.0000 -0.1000 0.0000
        vertex 0.6800 -0.1000 0.1822
        vertex 0.6504 -0.1000 0.2694
    endloop
endfacet
facet normal 0.0000 -0.1195 0.0000
    outer loop
        vertex 0.0000 -0.1000 0.0000
        vertex 0.6979 -0.1000 0.0919
        vertex 0.6800 -0.1000 0.1822
    endloop
endfacet
facet normal 0.0000 -0.1195 0.0000
    outer loop
        vertex 0.0000 -0.1000 0.0000
        vertex 0.7040 -0.1000 0.0000
        vertex 0.6979 -0.1000 0.0919
    endloop
endfacet
facet normal 0.0000 -8.1250 0.0000
    outer loop
        vertex 1.9800 -0.1000 1.9800
        vertex 0.0000 -0.1000 3.5200
        vertex -1.9800 -0.1000 1.9800
    endloop
endfacet
facet normal 0.0000 -1.1616 0.0000
    outer loop
        vertex 0.0000 -0.1000 3.5200
        vertex 1.9800 -0.1000 1.9800
        vertex 3.2521 -0.1000 1.3471
    endloop
endfacet
facet normal 0.0000 -3.3470 0.0000
    outer loop
        vertex 3.4144 -0.1000 -0.8360
        vertex 3.4144 -0.1000 0.8360
        vertex 1.9800 -0.1000 1.9800
    endloop
endfacet
facet normal 0.0000 -7.5850 0.0000
    outer loop
        vertex 1.9800 -0.1000 1.9800
        vertex 1.9800 -0.1000 -1.9800
        vertex 3.4144 -0.1000 -0.8360
    endloop
endfacet
facet normal 0.0000 -1.1616 0.0000
    outer loop
        vertex -1.9800 -0.1000 1.9800
        vertex 0.0000 -0.1000 3.5200
        vertex -3.2521 -0.1000 1.3471
    endloop
endfacet
facet normal 0.0000 -1.1616 0.0000
    outer loop
        vertex 3.2521 -0.1000 -1.3471
        vertex 1.9800 -0.1000 -1.9800
        vertex 0.0000 -0.1000 -3.5200
    endloop
endfacet
facet normal 0.0000 -8.1250 0.0000
    outer loop
        vertex 0.0000 -0.1000 -3.5200
        vertex 1.9800 -0.1000 -1.9800
        vertex -1.9800 -0.1000 -1.9800
    endloop
endfacet
facet normal 0.0000 -1.1616 0.0000
    outer loop
        vertex -1.9800 -0.1000 -1.9800
        vertex -3.2521 -0.1000 -1.3471
        vertex 0.0000 -0.1000 -3.5200
    endloop
endfacet
facet normal 0.0000 -7.5850 0.0000
    outer loop
        vertex -3.4144 -0.1000 -0.8360
        vertex -1.9800 -0.1000 -1.9800
        vertex -1.9800 -0.1000 1.9800
    endloop
endfacet
facet normal 0.0000 -3.3470 0.0000
    outer loop
        vertex -1.9800 -0.1000 1.9800
        vertex -3.4144 -0.1000 0.8360
        vertex -3.4144 -0.1000 -0.8360
    endloop
endfacet
facet normal 0.0000 -7.4175 0.0000
    outer loop
        vertex -5.9840 -0.1000 0.8360
        vertex -3.5200 -0.1000 3.5200
        vertex -5.5880 -0.1000 3.5200
    endloop
endfacet
facet normal 0.0000 -9.5825 0.0000
    outer loop
        vertex -5.5880 -0.1000 3.5200
        vertex -8.8000 -0.1000 0.0000
        vertex -5.9840 -0.1000 0.8360
    endloop
endfacet
facet normal 0.0000 -9.6500 0.0000
    outer loop
        vertex -8.8000 -0.1000 0.0000
        vertex -5.5880 -0.1000 -3.5200
        vertex -3.5200 -0.1000 -3.5200
    endloop
endfacet
facet normal 0.0000 -7.3500 0.0000
    outer loop
        vertex -3.5200 -0.1000 -3.5200
        vertex -5.9840 -0.1000 -0.8360
        vertex -8.8000 -0.1000 0.0000
    endloop
endfacet
facet normal 0.0000 -5.7980 0.0000
    outer loop
        vertex -3.4144 -0.1000 0.8360
        vertex -5.9840 -0.1000 0.8360
        vertex -5.9840 -0.1000 -0.8360
    endloop
endfacet
facet normal 0.0000 -5.7980 0.0000
    outer loop
        vertex -5.9840 -0.1000 -0.8360
        vertex -3.4144 -0.1000 -0.8360
        vertex -3.4144 -0.1000 0.8360
    endloop
endfacet
facet normal 0.0000 -6.3300 0.0000
    outer loop
        vertex -5.9840 -0.1000 -0.8360
        vertex -5.9840 -0.1000 0.8360
        vertex -8.8000 -0.1000 0.0000
    endloop
endfacet
facet normal 0.0000 -6.3300 0.0000
    outer loop
        vertex 5.9840 -0.1000 0.8360
        vertex 5.9840 -0.1000 -0.8360
        vertex 8.8000 -0.1000 0.0000
    endloop
endfacet
facet normal 0.0000 -7.4175 0.0000
    outer loop
        vertex 5.5880 -0.1000 3.5200
        vertex 3.5200 -0.1000 3.5200
        vertex 5.9840 -0.1000 0.8360
    endloop
endfacet
facet normal 0.0000 -9.5825 0.0000
    outer loop
        vertex 5.9840 -0.1000 0.8360
        vertex 8.8000 -0.1000 0.0000
        vertex 5.5880 -0.1000 3.5200
    endloop
endfacet
facet normal 0.0000 -7.3500 0.0000
    outer loop
        vertex 8.8000 -0.1000 0.0000
        vertex 5.9840 -0.1000 -0.8360
        vertex 3.5200 -0.1000 -3.5200
    endloop
endfacet
facet normal 0.0000 -9.6500 0.0000
    outer loop
        vertex 3.5200 -0.1000 -3.5200
        vertex 5.5880 -0.1000 -3.5200
        vertex 8.8000 -0.1000 0.0000
    endloop
endfacet
facet normal 0.0000 -5.7980 0.0000
    outer loop
        vertex 5.9840 -0.1000 0.8360
        vertex 3.4144 -0.1000 0.8360
        vertex 3.4144 -0.1000 -0.8360
    endloop
endfacet
facet normal 0.0000 -5.7980 0.0000
    outer loop
        vertex 3.4144 -0.1000 -0.8360
        vertex 5.9840 -0.1000 -0.8360
        vertex 5.9840 -0.1000 0.8360
    endloop
endfacet
facet normal 0.0000 -0.9570 0.0000
    outer loop
        vertex 3.2521 -0.1000 1.3471
        vertex 1.9800 -0.1000 1.9800
        vertex 3.4144 -0.1000 0.8360
    endloop
endfacet
facet normal 0.0000 -0.9570 0.0000
    outer loop
        vertex -1.9800 -0.1000 -1.9800
        vertex -3.4144 -0.1000 -0.8360
        vertex -3.2521 -0.1000 -1.3471
    endloop
endfacet
facet normal 0.0000 -0.9570 0.0000
    outer loop
        vertex -3.4144 -0.1000 0.8360
        vertex -1.9800 -0.1000 1.9800
        vertex -3.2521 -0.1000 1.3471
    endloop
endfacet
facet normal 0.0000 -0.9570 0.0000
    outer loop
        vertex 3.4144 -0.1000 -0.8360
        vertex 1.9800 -0.1000 -1.9800
        vertex 3.2521 -0.1000 -1.3471
    endloop
endfacet
facet normal 0.0000 -26.4000 0.0000
    outer loop
        vertex -10.0000 -0.1000 -4.8000
        vertex -8.8000 -0.1000 -3.5200
        vertex -8.8000 -0.1000 0.0000
    endloop
endfacet
facet normal 0.0000 -26.4000 0.0000
    outer loop
        vertex -8.8000 -0.1000 0.0000
        vertex -8.8000 -0.1000 3.5200
        vertex -10.0000 -0.1000 4.8000
    endloop
endfacet
facet normal 0.0000 -72.0000 0.0000
    outer loop
        vertex -10.0000 -0.1000 4.8000
        vertex -10.0000 -0.1000 -4.8000
        vertex -8.8000 -0.1000 0.0000
    endloop
endfacet
facet normal 0.0000 -25.6960 0.0000
    outer loop
        vertex -10.0000 -0.1000 4.8000
        vertex -8.8000 -0.1000 3.5200
        vertex -5.5880 -0.1000 3.5200
    endloop
endfacet
facet normal 0.0000 -16.5440 0.0000
    outer loop
        vertex -10.0000 -0.1000 4.8000
        vertex -5.5880 -0.1000 3.5200
        vertex -3.5200 -0.1000 3.5200
    endloop
endfacet
facet normal 0.0000 -28.1600 0.0000
    outer loop
        vertex -3.5200 -0.1000 3.5200
        vertex 0.0000 -0.1000 3.5200
        vertex 10.0000 -0.1000 4.8000
    endloop
endfacet
facet normal 0.0000 -160.0000 0.0000
    outer loop
        vertex 10.0000 -0.1000 4.8000
        vertex -10.0000 -0.1000 4.8000
        vertex -3.5200 -0.1000 3.5200
    endloop
endfacet
facet normal 0.0000 -28.1600 0.0000
    outer loop
        vertex 10.0000 -0.1000 4.8000
        vertex 0.0000 -0.1000 3.5200
        vertex 3.5200 -0.1000 3.5200
    endloop
endfacet
facet normal 0.0000 -16.5440 0.0000
    outer loop
        vertex 10.0000 -0.1000 4.8000
        vertex 3.5200 -0.1000 3.5200
        vertex 5.5880 -0.1000 3.5200
    endloop
endfacet
facet normal 0.0000 -25.6960 0.0000
    outer loop
        vertex 10.0000 -0.1000 4.8000
        vertex 5.5880 -0.1000 3.5200
        vertex 8.8000 -0.1000 3.5200
    endloop
endfacet
facet normal 0.0000 -26.4000 0.0000
    outer loop
        vertex 8.8000 -0.1000 3.5200
        vertex 8.8000 -0.1000 0.0000
        vertex 10.0000 -0.1000 -4.8000
    endloop
endfacet
facet normal 0.0000 -72.0000 0.0000
    outer loop
        vertex 10.0000 -0.1000 -4.8000
        vertex 10.0000 -0.1000 4.8000
        vertex 8.8000 -0.1000 3.5200
    endloop
endfacet
facet normal 0.0000 -26.4000 0.0000
    outer loop
        vertex 10.0000 -0.1000 -4.8000
        vertex 8.8000 -0.1000 0.0000
        vertex 8.8000 -0.1000 -3.5200
    endloop
endfacet
facet normal 0.0000 -25.6960 0.0000
    outer loop
        vertex 8.8000 -0.1000 -3.5200
        vertex 5.5880 -0.1000 -3.5200
        vertex 10.0000 -0.1000 -4.8000
    endloop
endfacet
facet normal 0.0000 -16.5440 0.0000
    outer loop
        vertex 10.0000 -0.1000 -4.8000
        vertex 5.5880 -0.1000 -3.5200
        vertex 3.5200 -0.1000 -3.5200
    endloop
endfacet
facet normal 0.0000 -28.1600 0.0000
    outer loop
        vertex 10.0000 -0.1000 -4.8000
        vertex 3.5200 -0.1000 -3.5200
        vertex 0.0000 -0.1000 -3.5200
    endloop
endfacet
facet normal 0.0000 -28.1600 0.0000
    outer loop
        vertex 10.0000 -0.1000 -4.8000
        vertex 0.0000 -0.1000 -3.5200
        vertex -3.5200 -0.1000 -3.5200
    endloop
endfacet
facet normal 0.0000 -160.0000 0.0000
    outer loop
        vertex -3.5200 -0.1000 -3.5200
        vertex -10.0000 -0.1000 -4.8000
        vertex 10.0000 -0.1000 -4.8000
    endloop
endfacet
facet normal 0.0000 -16.5440 0.0000
    outer loop
        vertex -10.0000 -0.1000 -4.8000
        vertex -3.5200 -0.1000 -3.5200
        vertex -5.5880 -0.1000 -3.5200
    endloop
endfacet
facet normal 0.0000 -25.6960 0.0000
    outer loop
        vertex -10.0000 -0.1000 -4.8000
        vertex -5.5880 -0.1000 -3.5200
        vertex -8.8000 -0.1000 -3.5200
    endloop
endfacet
endsolid GiantLegoRocks
