solid GiantLegoRocks
facet normal 0.0000 0.7500 0.0000
    outer loop
        vertex 15.6000 0.0000 4.4000
        vertex 15.6000 0.0000 -4.4000
        vertex -15.6000 0.0000 -4.4000
    endloop
endfacet
facet normal 0.0000 0.7500 0.0000
    outer loop
        vertex -15.6000 0.0000 -4.4000
        vertex -15.6000 0.0000 4.4000
        vertex 15.6000 0.0000 4.4000
    endloop
endfacet
facet normal 0.0000 -0.2500 22.0000
    outer loop
        vertex -15.6000 -0.1000 4.4000
        vertex 15.6000 -0.1000 4.4000
        vertex 15.6000 0.0000 4.4000
    endloop
endfacet
facet normal 0.0000 -0.2500 22.0000
    outer loop
        vertex 15.6000 0.0000 4.4000
        vertex -15.6000 0.0000 4.4000
        vertex -15.6000 -0.1000 4.4000
    endloop
endfacet
facet normal -78.0000 -0.2500 0.0000
    outer loop
        vertex -15.6000 -0.1000 -4.4000
        vertex -15.6000 -0.1000 4.4000
        vertex -15.6000 0.0000 4.4000
    endloop
endfacet
facet normal -78.0000 -0.2500 0.0000
    outer loop
        vertex -15.6000 0.0000 4.4000
        vertex -15.6000 0.0000 -4.4000
        vertex -15.6000 -0.1000 -4.4000
    endloop
endfacet
facet normal 0.0000 -0.2500 -22.0000
    outer loop
        vertex 15.6000 -0.1000 -4.4000
        vertex -15.6000 -0.1000 -4.4000
        vertex -15.6000 0.0000 -4.4000
    endloop
endfacet
facet normal 0.0000 -0.2500 -22.0000
    outer loop
        vertex -15.6000 0.0000 -4.4000
        vertex 15.6000 0.0000 -4.4000
        vertex 15.6000 -0.1000 -4.4000
    endloop
endfacet
facet normal 78.0000 -0.2500 0.0000
    outer loop
        vertex 15.6000 -0.1000 4.4000
        vertex 15.6000 -0.1000 -4.4000
        vertex 15.6000 0.0000 -4.4000
    endloop
endfacet
facet normal 78.0000 -0.2500 0.0000
    outer loop
        vertex 15.6000 0.0000 -4.4000
        vertex 15.6000 0.0000 4.4000
        vertex 15.6000 -0.1000 4.4000
    endloop
endfacet
facet normal 0.0000 -0.1960 0.0000
    outer loop
        vertex -9.8280 -0.1000 -2.6520
        vertex -10.0240 -0.1000 -2.6520
        vertex -10.0240 -0.1000 -2.8120
    endloop
endfacet
facet normal 0.0000 -0.2993 0.0000
    outer loop
        vertex -9.4160 -0.1000 -2.5600
        vertex -9.8280 -0.1000 -2.6520
        vertex -10.0240 -0.1000 -2.8120
    endloop
endfacet
facet normal 0.0000 -2.9762 0.0000
    outer loop
        vertex -10.0240 -0.1000 -2.8120
        vertex -7.5360 -0.1000 -2.5640
        vertex -9.4160 -0.1000 -2.5600
    endloop
endfacet
facet normal 0.0000 -5.3105 0.0000
    outer loop
        vertex -9.2360 -0.1000 -2.3520
        vertex -7.7280 -0.1000 -2.3680
        vertex -7.7800 -0.1000 -1.8040
    endloop
endfacet
facet normal 0.0000 -4.8224 0.0000
    outer loop
        vertex -7.7800 -0.1000 -1.8040
        vertex -9.1880 -0.1000 -1.8040
        vertex -9.2360 -0.1000 -2.3520
    endloop
endfacet
facet normal 0.0000 -39.9520 0.0000
    outer loop
        vertex -9.1880 -0.1000 2.7360
        vertex -9.1880 -0.1000 -1.8040
        vertex -7.7800 -0.1000 -1.8040
    endloop
endfacet
facet normal 0.0000 -39.9520 0.0000
    outer loop
        vertex -7.7800 -0.1000 -1.8040
        vertex -7.7800 -0.1000 2.7360
        vertex -9.1880 -0.1000 2.7360
    endloop
endfacet
facet normal 0.0000 -1.9784 0.0000
    outer loop
        vertex -7.7280 -0.1000 -2.3680
        vertex -9.2360 -0.1000 -2.3520
        vertex -9.4160 -0.1000 -2.5600
    endloop
endfacet
facet normal 0.0000 -2.2982 0.0000
    outer loop
        vertex -9.4160 -0.1000 -2.5600
        vertex -7.5360 -0.1000 -2.5640
        vertex -7.7280 -0.1000 -2.3680
    endloop
endfacet
facet normal 0.0000 -0.5904 0.0000
    outer loop
        vertex -11.1200 -0.1000 1.4800
        vertex -10.9560 -0.1000 1.4800
        vertex -10.7880 -0.1000 2.0560
    endloop
endfacet
facet normal 0.0000 -3.3034 0.0000
    outer loop
        vertex -10.7880 -0.1000 2.0560
        vertex -11.1200 -0.1000 3.0720
        vertex -11.1200 -0.1000 1.4800
    endloop
endfacet
facet normal 0.0000 -2.8439 0.0000
    outer loop
        vertex -11.1200 -0.1000 3.0720
        vertex -10.7880 -0.1000 2.0560
        vertex -10.4800 -0.1000 2.4840
    endloop
endfacet
facet normal 0.0000 -2.0456 0.0000
    outer loop
        vertex -11.1200 -0.1000 3.0720
        vertex -10.4800 -0.1000 2.4840
        vertex -10.1280 -0.1000 2.6720
    endloop
endfacet
facet normal 0.0000 -0.8988 0.0000
    outer loop
        vertex -11.1200 -0.1000 3.0720
        vertex -9.6160 -0.1000 2.7360
        vertex -9.1880 -0.1000 2.7360
    endloop
endfacet
facet normal 0.0000 -1.6768 0.0000
    outer loop
        vertex -11.1200 -0.1000 3.0720
        vertex -10.1280 -0.1000 2.6720
        vertex -9.6160 -0.1000 2.7360
    endloop
endfacet
facet normal 0.0000 -2.9568 0.0000
    outer loop
        vertex -11.1200 -0.1000 3.0720
        vertex -9.1880 -0.1000 2.7360
        vertex -7.7800 -0.1000 2.7360
    endloop
endfacet
facet normal 0.0000 -11.0964 0.0000
    outer loop
        vertex -7.7800 -0.1000 2.7360
        vertex -5.8360 -0.1000 3.0720
        vertex -11.1200 -0.1000 3.0720
    endloop
endfacet
facet normal 0.0000 -0.2922 0.0000
    outer loop
        vertex -6.9400 -0.1000 -2.8120
        vertex -7.1360 -0.1000 -2.6520
        vertex -7.5360 -0.1000 -2.5640
    endloop
endfacet
facet normal 0.0000 -4.7802 0.0000
    outer loop
        vertex -7.5360 -0.1000 -2.5640
        vertex -10.0240 -0.1000 -2.8120
        vertex -6.9400 -0.1000 -2.8120
    endloop
endfacet
facet normal 0.0000 -0.1960 0.0000
    outer loop
        vertex -6.9400 -0.1000 -2.6520
        vertex -7.1360 -0.1000 -2.6520
        vertex -6.9400 -0.1000 -2.8120
    endloop
endfacet
facet normal 0.0000 -0.4641 0.0000
    outer loop
        vertex -6.1360 -0.1000 1.9560
        vertex -5.9920 -0.1000 1.4800
        vertex -5.8360 -0.1000 1.4800
    endloop
endfacet
facet normal 0.0000 -2.9850 0.0000
    outer loop
        vertex -5.8360 -0.1000 1.4800
        vertex -5.8360 -0.1000 3.0720
        vertex -6.1360 -0.1000 1.9560
    endloop
endfacet
facet normal 0.0000 -0.9408 0.0000
    outer loop
        vertex -5.8360 -0.1000 3.0720
        vertex -6.9920 -0.1000 2.7160
        vertex -6.7640 -0.1000 2.6560
    endloop
endfacet
facet normal 0.0000 -0.9240 0.0000
    outer loop
        vertex -5.8360 -0.1000 3.0720
        vertex -7.7800 -0.1000 2.7360
        vertex -7.3400 -0.1000 2.7360
    endloop
endfacet
facet normal 0.0000 -0.9188 0.0000
    outer loop
        vertex -5.8360 -0.1000 3.0720
        vertex -7.3400 -0.1000 2.7360
        vertex -6.9920 -0.1000 2.7160
    endloop
endfacet
facet normal 0.0000 -1.7364 0.0000
    outer loop
        vertex -5.8360 -0.1000 3.0720
        vertex -6.3000 -0.1000 2.2720
        vertex -6.1360 -0.1000 1.9560
    endloop
endfacet
facet normal 0.0000 -1.6608 0.0000
    outer loop
        vertex -5.8360 -0.1000 3.0720
        vertex -6.7640 -0.1000 2.6560
        vertex -6.5000 -0.1000 2.4880
    endloop
endfacet
facet normal 0.0000 -1.6264 0.0000
    outer loop
        vertex -5.8360 -0.1000 3.0720
        vertex -6.5000 -0.1000 2.4880
        vertex -6.3000 -0.1000 2.2720
    endloop
endfacet
facet normal 0.0000 -0.3900 0.0000
    outer loop
        vertex -5.3320 -0.1000 -2.5000
        vertex -5.7320 -0.1000 -2.6560
        vertex -5.7320 -0.1000 -2.8120
    endloop
endfacet
facet normal 0.0000 -2.7800 0.0000
    outer loop
        vertex -5.7320 -0.1000 -2.8120
        vertex -3.9320 -0.1000 -2.5200
        vertex -5.3320 -0.1000 -2.5000
    endloop
endfacet
facet normal 0.0000 -4.3166 0.0000
    outer loop
        vertex -4.0040 -0.1000 -2.3200
        vertex -5.2440 -0.1000 -1.9680
        vertex -5.3320 -0.1000 -2.5000
    endloop
endfacet
facet normal 0.0000 -1.7410 0.0000
    outer loop
        vertex -5.3320 -0.1000 -2.5000
        vertex -3.9320 -0.1000 -2.5200
        vertex -4.0040 -0.1000 -2.3200
    endloop
endfacet
facet normal 0.0000 -2.8148 0.0000
    outer loop
        vertex -4.0320 -0.1000 1.2480
        vertex -5.2720 -0.1000 0.7520
        vertex -5.2440 -0.1000 0.4000
    endloop
endfacet
facet normal 0.0000 -24.3612 0.0000
    outer loop
        vertex -5.2440 -0.1000 0.4000
        vertex -4.0320 -0.1000 -1.9680
        vertex -4.0320 -0.1000 1.2480
    endloop
endfacet
facet normal 0.0000 -0.3977 0.0000
    outer loop
        vertex -5.7320 -0.1000 1.2480
        vertex -5.7320 -0.1000 1.0840
        vertex -5.3440 -0.1000 0.9480
    endloop
endfacet
facet normal 0.0000 -3.1875 0.0000
    outer loop
        vertex -5.3440 -0.1000 0.9480
        vertex -4.0320 -0.1000 1.2480
        vertex -5.7320 -0.1000 1.2480
    endloop
endfacet
facet normal 0.0000 -1.7422 0.0000
    outer loop
        vertex -4.0320 -0.1000 1.2480
        vertex -5.3440 -0.1000 0.9480
        vertex -5.2720 -0.1000 0.7520
    endloop
endfacet
facet normal 0.0000 -1.1641 0.0000
    outer loop
        vertex -5.3080 -0.1000 2.5400
        vertex -5.1120 -0.1000 2.0680
        vertex -4.6360 -0.1000 1.8720
    endloop
endfacet
facet normal 0.0000 -5.6112 0.0000
    outer loop
        vertex -4.6360 -0.1000 1.8720
        vertex -3.9640 -0.1000 2.5400
        vertex -5.3080 -0.1000 2.5400
    endloop
endfacet
facet normal 0.0000 -17.9376 0.0000
    outer loop
        vertex -4.0320 -0.1000 -1.9680
        vertex -5.2440 -0.1000 0.4000
        vertex -5.2440 -0.1000 -1.9680
    endloop
endfacet
facet normal 0.0000 -2.6664 0.0000
    outer loop
        vertex -5.2440 -0.1000 -1.9680
        vertex -4.0040 -0.1000 -2.3200
        vertex -4.0320 -0.1000 -1.9680
    endloop
endfacet
facet normal 0.0000 -0.3822 0.0000
    outer loop
        vertex -3.5400 -0.1000 -2.8120
        vertex -3.5400 -0.1000 -2.6560
        vertex -3.9320 -0.1000 -2.5200
    endloop
endfacet
facet normal 0.0000 -4.0004 0.0000
    outer loop
        vertex -3.9320 -0.1000 -2.5200
        vertex -5.7320 -0.1000 -2.8120
        vertex -3.5400 -0.1000 -2.8120
    endloop
endfacet
facet normal 0.0000 -1.1765 0.0000
    outer loop
        vertex -4.6360 -0.1000 3.2116
        vertex -5.1120 -0.1000 3.0160
        vertex -5.3080 -0.1000 2.5400
    endloop
endfacet
facet normal 0.0000 -2.8195 0.0000
    outer loop
        vertex -5.3080 -0.1000 2.5400
        vertex -4.1600 -0.1000 3.0160
        vertex -4.6360 -0.1000 3.2116
    endloop
endfacet
facet normal 0.0000 -3.9984 0.0000
    outer loop
        vertex -4.1600 -0.1000 3.0160
        vertex -5.3080 -0.1000 2.5400
        vertex -3.9640 -0.1000 2.5400
    endloop
endfacet
facet normal 0.0000 -1.1474 0.0000
    outer loop
        vertex -3.9640 -0.1000 2.5400
        vertex -4.6360 -0.1000 1.8720
        vertex -4.1640 -0.1000 2.0680
    endloop
endfacet
facet normal 0.0000 -4.0850 0.0000
    outer loop
        vertex -2.1520 -0.1000 -1.2760
        vertex -3.4520 -0.1000 -1.3960
        vertex -3.2920 -0.1000 -1.8840
    endloop
endfacet
facet normal 0.0000 -4.1401 0.0000
    outer loop
        vertex -3.2920 -0.1000 -1.8840
        vertex -3.0200 -0.1000 -2.3200
        vertex -2.1520 -0.1000 -1.2760
    endloop
endfacet
facet normal 0.0000 -4.2163 0.0000
    outer loop
        vertex -2.2880 -0.1000 -0.7400
        vertex -3.5080 -0.1000 -0.8480
        vertex -3.4520 -0.1000 -1.3960
    endloop
endfacet
facet normal 0.0000 -4.4570 0.0000
    outer loop
        vertex -3.4520 -0.1000 -1.3960
        vertex -2.1520 -0.1000 -1.2760
        vertex -2.2880 -0.1000 -0.7400
    endloop
endfacet
facet normal 0.0000 -4.0542 0.0000
    outer loop
        vertex -2.4520 -0.1000 -2.7800
        vertex -1.7240 -0.1000 -2.9320
        vertex -1.6520 -0.1000 -2.0560
    endloop
endfacet
facet normal 0.0000 -2.9051 0.0000
    outer loop
        vertex -1.6520 -0.1000 -2.0560
        vertex -1.9360 -0.1000 -1.7320
        vertex -2.4520 -0.1000 -2.7800
    endloop
endfacet
facet normal 0.0000 -3.8832 0.0000
    outer loop
        vertex -1.9360 -0.1000 -1.7320
        vertex -2.1520 -0.1000 -1.2760
        vertex -3.0200 -0.1000 -2.3200
    endloop
endfacet
facet normal 0.0000 -5.2039 0.0000
    outer loop
        vertex -3.0200 -0.1000 -2.3200
        vertex -2.4520 -0.1000 -2.7800
        vertex -1.9360 -0.1000 -1.7320
    endloop
endfacet
facet normal 0.0000 -1.4865 0.0000
    outer loop
        vertex -1.3920 -0.1000 -2.1960
        vertex -1.6520 -0.1000 -2.0560
        vertex -1.7240 -0.1000 -2.9320
    endloop
endfacet
facet normal 0.0000 -2.0200 0.0000
    outer loop
        vertex -1.7240 -0.1000 -2.9320
        vertex -1.2560 -0.1000 -2.8680
        vertex -1.3920 -0.1000 -2.1960
    endloop
endfacet
facet normal 0.0000 -3.6776 0.0000
    outer loop
        vertex -3.3960 -0.1000 -0.0720
        vertex -2.2880 -0.1000 -0.7400
        vertex -2.3360 -0.1000 -0.1800
    endloop
endfacet
facet normal 0.0000 -4.7291 0.0000
    outer loop
        vertex -2.3360 -0.1000 -0.1800
        vertex -3.0640 -0.1000 0.6080
        vertex -3.3960 -0.1000 -0.0720
    endloop
endfacet
facet normal 0.0000 -2.5476 0.0000
    outer loop
        vertex -2.2800 -0.1000 0.4200
        vertex -2.6640 -0.1000 1.0320
        vertex -3.0640 -0.1000 0.6080
    endloop
endfacet
facet normal 0.0000 -3.0058 0.0000
    outer loop
        vertex -3.0640 -0.1000 0.6080
        vertex -2.3360 -0.1000 -0.1800
        vertex -2.2800 -0.1000 0.4200
    endloop
endfacet
facet normal 0.0000 -5.8414 0.0000
    outer loop
        vertex -3.3960 -0.1000 -0.0720
        vertex -3.5080 -0.1000 -0.8480
        vertex -2.2880 -0.1000 -0.7400
    endloop
endfacet
facet normal 0.0000 -1.4538 0.0000
    outer loop
        vertex -2.1720 -0.1000 1.2840
        vertex -2.6640 -0.1000 1.0320
        vertex -2.1080 -0.1000 0.8440
    endloop
endfacet
facet normal 0.0000 -1.0670 0.0000
    outer loop
        vertex -2.1080 -0.1000 0.8440
        vertex -1.7520 -0.1000 1.0640
        vertex -2.1720 -0.1000 1.2840
    endloop
endfacet
facet normal 0.0000 -1.0180 0.0000
    outer loop
        vertex -1.5920 -0.1000 1.3680
        vertex -2.1720 -0.1000 1.2840
        vertex -1.7520 -0.1000 1.0640
    endloop
endfacet
facet normal 0.0000 -0.5488 0.0000
    outer loop
        vertex -1.7520 -0.1000 1.0640
        vertex -1.5200 -0.1000 0.9560
        vertex -1.5920 -0.1000 1.3680
    endloop
endfacet
facet normal 0.0000 -1.6755 0.0000
    outer loop
        vertex -2.6640 -0.1000 1.0320
        vertex -2.2800 -0.1000 0.4200
        vertex -2.1080 -0.1000 0.8440
    endloop
endfacet
facet normal 0.0000 -1.5258 0.0000
    outer loop
        vertex -1.2560 -0.1000 -2.8680
        vertex -0.8120 -0.1000 -2.6720
        vertex -1.0880 -0.1000 -2.2440
    endloop
endfacet
facet normal 0.0000 -1.2360 0.0000
    outer loop
        vertex -1.0880 -0.1000 -2.2440
        vertex -1.3920 -0.1000 -2.1960
        vertex -1.2560 -0.1000 -2.8680
    endloop
endfacet
facet normal 0.0000 -1.2532 0.0000
    outer loop
        vertex -0.6840 -0.1000 -2.1440
        vertex -1.0880 -0.1000 -2.2440
        vertex -0.8120 -0.1000 -2.6720
    endloop
endfacet
facet normal 0.0000 -1.0280 0.0000
    outer loop
        vertex -0.8120 -0.1000 -2.6720
        vertex -0.4200 -0.1000 -2.3400
        vertex -0.6840 -0.1000 -2.1440
    endloop
endfacet
facet normal 0.0000 -0.4924 0.0000
    outer loop
        vertex -0.4760 -0.1000 -2.0000
        vertex -0.6840 -0.1000 -2.1440
        vertex -0.4200 -0.1000 -2.3400
    endloop
endfacet
facet normal 0.0000 -0.8452 0.0000
    outer loop
        vertex -0.4200 -0.1000 -2.3400
        vertex -0.1000 -0.1000 -1.8680
        vertex -0.4760 -0.1000 -2.0000
    endloop
endfacet
facet normal 0.0000 -0.3566 0.0000
    outer loop
        vertex -0.2360 -0.1000 -1.7640
        vertex -0.4760 -0.1000 -2.0000
        vertex -0.1000 -0.1000 -1.8680
    endloop
endfacet
facet normal 0.0000 -2.5360 0.0000
    outer loop
        vertex -1.3920 -0.1000 0.5720
        vertex -1.3240 -0.1000 0.2040
        vertex -0.3160 -0.1000 0.7160
    endloop
endfacet
facet normal 0.0000 -2.5080 0.0000
    outer loop
        vertex -0.3160 -0.1000 0.7160
        vertex -0.5920 -0.1000 1.0520
        vertex -1.3920 -0.1000 0.5720
    endloop
endfacet
facet normal 0.0000 -1.4464 0.0000
    outer loop
        vertex -1.0280 -0.1000 1.2880
        vertex -1.5200 -0.1000 0.9560
        vertex -1.3920 -0.1000 0.5720
    endloop
endfacet
facet normal 0.0000 -2.4880 0.0000
    outer loop
        vertex -1.3920 -0.1000 0.5720
        vertex -0.5920 -0.1000 1.0520
        vertex -1.0280 -0.1000 1.2880
    endloop
endfacet
facet normal 0.0000 -1.4163 0.0000
    outer loop
        vertex -1.5920 -0.1000 1.3680
        vertex -1.5200 -0.1000 0.9560
        vertex -1.0280 -0.1000 1.2880
    endloop
endfacet
facet normal 0.0000 -0.4686 0.0000
    outer loop
        vertex -1.3240 -0.1000 0.2040
        vertex -1.1880 -0.1000 -0.0280
        vertex -0.7640 -0.1000 -0.2000
    endloop
endfacet
facet normal 0.0000 -3.2776 0.0000
    outer loop
        vertex -0.7640 -0.1000 -0.2000
        vertex -0.2200 -0.1000 0.3440
        vertex -1.3240 -0.1000 0.2040
    endloop
endfacet
facet normal 0.0000 -0.8296 0.0000
    outer loop
        vertex -0.2200 -0.1000 0.3440
        vertex -0.7640 -0.1000 -0.2000
        vertex -0.3720 -0.1000 -0.0520
    endloop
endfacet
facet normal 0.0000 -2.6508 0.0000
    outer loop
        vertex -0.3160 -0.1000 0.7160
        vertex -1.3240 -0.1000 0.2040
        vertex -0.2200 -0.1000 0.3440
    endloop
endfacet
facet normal 0.0000 -0.3588 0.0000
    outer loop
        vertex 0.3600 -0.1000 -2.4880
        vertex -0.0080 -0.1000 -2.6560
        vertex -0.0080 -0.1000 -2.8120
    endloop
endfacet
facet normal 0.0000 -2.8324 0.0000
    outer loop
        vertex -0.0080 -0.1000 -2.8120
        vertex 1.7360 -0.1000 -2.5080
        vertex 0.3600 -0.1000 -2.4880
    endloop
endfacet
facet normal 0.0000 -1.4457 0.0000
    outer loop
        vertex 0.4120 -0.1000 -2.3040
        vertex 0.3600 -0.1000 -2.4880
        vertex 1.6680 -0.1000 -2.3080
    endloop
endfacet
facet normal 0.0000 -2.9511 0.0000
    outer loop
        vertex 1.6680 -0.1000 -2.3080
        vertex 1.6480 -0.1000 -1.9320
        vertex 0.4120 -0.1000 -2.3040
    endloop
endfacet
facet normal 0.0000 -2.8272 0.0000
    outer loop
        vertex 0.4320 -0.1000 -1.9320
        vertex 0.4120 -0.1000 -2.3040
        vertex 1.6480 -0.1000 -1.9320
    endloop
endfacet
facet normal 0.0000 -5.5632 0.0000
    outer loop
        vertex 1.6480 -0.1000 -1.9320
        vertex 1.6480 -0.1000 -1.2000
        vertex 0.4320 -0.1000 -1.9320
    endloop
endfacet
facet normal 0.0000 -0.3432 0.0000
    outer loop
        vertex 2.0880 -0.1000 -2.8120
        vertex 2.0880 -0.1000 -2.6560
        vertex 1.7360 -0.1000 -2.5080
    endloop
endfacet
facet normal 0.0000 -3.9824 0.0000
    outer loop
        vertex 1.7360 -0.1000 -2.5080
        vertex -0.0080 -0.1000 -2.8120
        vertex 2.0880 -0.1000 -2.8120
    endloop
endfacet
facet normal 0.0000 -1.7115 0.0000
    outer loop
        vertex 1.6680 -0.1000 -2.3080
        vertex 0.3600 -0.1000 -2.4880
        vertex 1.7360 -0.1000 -2.5080
    endloop
endfacet
facet normal 0.0000 -2.9372 0.0000
    outer loop
        vertex 1.6480 -0.1000 3.0720
        vertex 0.4120 -0.1000 2.5640
        vertex 0.4320 -0.1000 2.1920
    endloop
endfacet
facet normal 0.0000 -29.3968 0.0000
    outer loop
        vertex 0.4320 -0.1000 2.1920
        vertex 1.6480 -0.1000 -0.7960
        vertex 1.6480 -0.1000 3.0720
    endloop
endfacet
facet normal 0.0000 -0.3560 0.0000
    outer loop
        vertex -0.0080 -0.1000 3.0720
        vertex -0.0080 -0.1000 2.9120
        vertex 0.3480 -0.1000 2.7640
    endloop
endfacet
facet normal 0.0000 -3.1878 0.0000
    outer loop
        vertex 0.3480 -0.1000 2.7640
        vertex 1.6480 -0.1000 3.0720
        vertex -0.0080 -0.1000 3.0720
    endloop
endfacet
facet normal 0.0000 -1.7482 0.0000
    outer loop
        vertex 1.6480 -0.1000 3.0720
        vertex 0.3480 -0.1000 2.7640
        vertex 0.4120 -0.1000 2.5640
    endloop
endfacet
facet normal 0.0000 -0.6565 0.0000
    outer loop
        vertex 1.6480 -0.1000 -0.7960
        vertex 1.6480 -0.1000 -1.2000
        vertex 1.9080 -0.1000 -0.9440
    endloop
endfacet
facet normal 0.0000 -2.0567 0.0000
    outer loop
        vertex 1.9080 -0.1000 -0.9440
        vertex 2.7120 -0.1000 -0.1360
        vertex 1.6480 -0.1000 -0.7960
    endloop
endfacet
facet normal 0.0000 -31.3424 0.0000
    outer loop
        vertex 1.6480 -0.1000 -0.7960
        vertex 0.4320 -0.1000 2.1920
        vertex 0.4320 -0.1000 -1.9320
    endloop
endfacet
facet normal 0.0000 -3.0704 0.0000
    outer loop
        vertex 0.4320 -0.1000 -1.9320
        vertex 1.6480 -0.1000 -1.2000
        vertex 1.6480 -0.1000 -0.7960
    endloop
endfacet
facet normal 0.0000 -0.1950 0.0000
    outer loop
        vertex 2.8280 -0.1000 -2.6040
        vertex 2.6280 -0.1000 -2.6560
        vertex 2.6280 -0.1000 -2.8120
    endloop
endfacet
facet normal 0.0000 -1.8362 0.0000
    outer loop
        vertex 2.6280 -0.1000 -2.8120
        vertex 4.3520 -0.1000 -2.4880
        vertex 2.8280 -0.1000 -2.6040
    endloop
endfacet
facet normal 0.0000 -1.0585 0.0000
    outer loop
        vertex 2.8920 -0.1000 -2.4880
        vertex 2.8280 -0.1000 -2.6040
        vertex 4.3520 -0.1000 -2.4880
    endloop
endfacet
facet normal 0.0000 -2.6280 0.0000
    outer loop
        vertex 4.3520 -0.1000 -2.4880
        vertex 4.1240 -0.1000 -2.2000
        vertex 2.8920 -0.1000 -2.4880
    endloop
endfacet
facet normal 0.0000 -2.8466 0.0000
    outer loop
        vertex 3.6640 -0.1000 -1.5360
        vertex 2.7120 -0.1000 -2.1200
        vertex 2.8920 -0.1000 -2.4880
    endloop
endfacet
facet normal 0.0000 -5.9408 0.0000
    outer loop
        vertex 2.8920 -0.1000 -2.4880
        vertex 4.1240 -0.1000 -2.2000
        vertex 3.6640 -0.1000 -1.5360
    endloop
endfacet
facet normal 0.0000 -9.9318 0.0000
    outer loop
        vertex 1.9080 -0.1000 -0.9440
        vertex 2.7120 -0.1000 -2.1200
        vertex 3.6640 -0.1000 -1.5360
    endloop
endfacet
facet normal 0.0000 -11.8426 0.0000
    outer loop
        vertex 3.6640 -0.1000 -1.5360
        vertex 2.7120 -0.1000 -0.1360
        vertex 1.9080 -0.1000 -0.9440
    endloop
endfacet
facet normal 0.0000 -0.3627 0.0000
    outer loop
        vertex 4.7240 -0.1000 -2.8120
        vertex 4.7240 -0.1000 -2.6560
        vertex 4.3520 -0.1000 -2.4880
    endloop
endfacet
facet normal 0.0000 -4.2444 0.0000
    outer loop
        vertex 4.3520 -0.1000 -2.4880
        vertex 2.6280 -0.1000 -2.8120
        vertex 4.7240 -0.1000 -2.8120
    endloop
endfacet
facet normal 0.0000 -1.0560 0.0000
    outer loop
        vertex 3.1520 -0.1000 0.2960
        vertex 2.9520 -0.1000 0.5360
        vertex 2.5880 -0.1000 0.1280
    endloop
endfacet
facet normal 0.0000 -1.0608 0.0000
    outer loop
        vertex 2.5880 -0.1000 0.1280
        vertex 2.7120 -0.1000 -0.1360
        vertex 3.1520 -0.1000 0.2960
    endloop
endfacet
facet normal 0.0000 -2.2671 0.0000
    outer loop
        vertex 2.5880 -0.1000 0.1280
        vertex 1.6480 -0.1000 -0.7960
        vertex 2.7120 -0.1000 -0.1360
    endloop
endfacet
facet normal 0.0000 -0.3813 0.0000
    outer loop
        vertex 2.5560 -0.1000 1.2480
        vertex 2.5560 -0.1000 1.0840
        vertex 2.9280 -0.1000 0.9720
    endloop
endfacet
facet normal 0.0000 -1.6857 0.0000
    outer loop
        vertex 2.9280 -0.1000 0.9720
        vertex 3.9160 -0.1000 0.9640
        vertex 2.5560 -0.1000 1.2480
    endloop
endfacet
facet normal 0.0000 -1.7832 0.0000
    outer loop
        vertex 3.1520 -0.1000 0.2960
        vertex 3.6280 -0.1000 0.7400
        vertex 3.0240 -0.1000 0.7760
    endloop
endfacet
facet normal 0.0000 -0.4080 0.0000
    outer loop
        vertex 3.0240 -0.1000 0.7760
        vertex 2.9520 -0.1000 0.5360
        vertex 3.1520 -0.1000 0.2960
    endloop
endfacet
facet normal 0.0000 -1.3976 0.0000
    outer loop
        vertex 3.6280 -0.1000 0.7400
        vertex 3.9160 -0.1000 0.9640
        vertex 2.9280 -0.1000 0.9720
    endloop
endfacet
facet normal 0.0000 -0.7183 0.0000
    outer loop
        vertex 2.9280 -0.1000 0.9720
        vertex 3.0240 -0.1000 0.7760
        vertex 3.6280 -0.1000 0.7400
    endloop
endfacet
facet normal 0.0000 -0.4674 0.0000
    outer loop
        vertex 3.9160 -0.1000 0.9640
        vertex 4.3720 -0.1000 1.0840
        vertex 4.3720 -0.1000 1.2480
    endloop
endfacet
facet normal 0.0000 -3.2234 0.0000
    outer loop
        vertex 4.3720 -0.1000 1.2480
        vertex 2.5560 -0.1000 1.2480
        vertex 3.9160 -0.1000 0.9640
    endloop
endfacet
facet normal 0.0000 -5.1510 0.0000
    outer loop
        vertex 4.6800 -0.1000 -1.6120
        vertex 4.9600 -0.1000 -2.2400
        vertex 5.8800 -0.1000 -1.3600
    endloop
endfacet
facet normal 0.0000 -5.8812 0.0000
    outer loop
        vertex 5.8800 -0.1000 -1.3600
        vertex 4.5840 -0.1000 -0.8480
        vertex 4.6800 -0.1000 -1.6120
    endloop
endfacet
facet normal 0.0000 -3.6674 0.0000
    outer loop
        vertex 4.9600 -0.1000 -2.2400
        vertex 5.3160 -0.1000 -2.6240
        vertex 6.1840 -0.1000 -1.9120
    endloop
endfacet
facet normal 0.0000 -4.8460 0.0000
    outer loop
        vertex 6.1840 -0.1000 -1.9120
        vertex 5.8800 -0.1000 -1.3600
        vertex 4.9600 -0.1000 -2.2400
    endloop
endfacet
facet normal 0.0000 -2.6356 0.0000
    outer loop
        vertex 5.7720 -0.1000 -2.8560
        vertex 6.5120 -0.1000 -2.1840
        vertex 6.1840 -0.1000 -1.9120
    endloop
endfacet
facet normal 0.0000 -3.2878 0.0000
    outer loop
        vertex 6.1840 -0.1000 -1.9120
        vertex 5.3160 -0.1000 -2.6240
        vertex 5.7720 -0.1000 -2.8560
    endloop
endfacet
facet normal 0.0000 -5.4548 0.0000
    outer loop
        vertex 4.5840 -0.1000 -0.8480
        vertex 5.8800 -0.1000 -1.3600
        vertex 5.7520 -0.1000 -0.6360
    endloop
endfacet
facet normal 0.0000 -4.4996 0.0000
    outer loop
        vertex 5.7520 -0.1000 -0.6360
        vertex 4.6480 -0.1000 -0.2200
        vertex 4.5840 -0.1000 -0.8480
    endloop
endfacet
facet normal 0.0000 -2.1240 0.0000
    outer loop
        vertex 6.9120 -0.1000 -0.3480
        vertex 5.7320 -0.1000 -0.3480
        vertex 5.7520 -0.1000 -0.6360
    endloop
endfacet
facet normal 0.0000 -4.0104 0.0000
    outer loop
        vertex 5.7520 -0.1000 -0.6360
        vertex 7.9800 -0.1000 -0.6360
        vertex 6.9120 -0.1000 -0.3480
    endloop
endfacet
facet normal 0.0000 -2.5410 0.0000
    outer loop
        vertex 5.1360 -0.1000 0.7680
        vertex 4.8280 -0.1000 0.3200
        vertex 5.7960 -0.1000 0.4080
    endloop
endfacet
facet normal 0.0000 -2.3130 0.0000
    outer loop
        vertex 5.7960 -0.1000 0.4080
        vertex 5.9880 -0.1000 0.8640
        vertex 5.1360 -0.1000 0.7680
    endloop
endfacet
facet normal 0.0000 -2.0280 0.0000
    outer loop
        vertex 5.7320 -0.1000 1.2160
        vertex 5.1360 -0.1000 0.7680
        vertex 5.9880 -0.1000 0.8640
    endloop
endfacet
facet normal 0.0000 -1.1616 0.0000
    outer loop
        vertex 5.9880 -0.1000 0.8640
        vertex 6.3560 -0.1000 1.0840
        vertex 5.7320 -0.1000 1.2160
    endloop
endfacet
facet normal 0.0000 -3.6315 0.0000
    outer loop
        vertex 5.7320 -0.1000 -0.1960
        vertex 4.8280 -0.1000 0.3200
        vertex 4.6480 -0.1000 -0.2200
    endloop
endfacet
facet normal 0.0000 -1.0298 0.0000
    outer loop
        vertex 4.6480 -0.1000 -0.2200
        vertex 5.7320 -0.1000 -0.3480
        vertex 5.7320 -0.1000 -0.1960
    endloop
endfacet
facet normal 0.0000 -3.6190 0.0000
    outer loop
        vertex 5.7960 -0.1000 0.4080
        vertex 4.8280 -0.1000 0.3200
        vertex 5.7320 -0.1000 -0.1960
    endloop
endfacet
facet normal 0.0000 -1.9352 0.0000
    outer loop
        vertex 4.6480 -0.1000 -0.2200
        vertex 5.7520 -0.1000 -0.6360
        vertex 5.7320 -0.1000 -0.3480
    endloop
endfacet
facet normal 0.0000 -1.1604 0.0000
    outer loop
        vertex 6.4200 -0.1000 1.3680
        vertex 5.7320 -0.1000 1.2160
        vertex 6.3560 -0.1000 1.0840
    endloop
endfacet
facet normal 0.0000 -2.6699 0.0000
    outer loop
        vertex 6.5120 -0.1000 -2.1840
        vertex 5.7720 -0.1000 -2.8560
        vertex 6.3240 -0.1000 -2.9320
    endloop
endfacet
facet normal 0.0000 -2.2389 0.0000
    outer loop
        vertex 6.3240 -0.1000 -2.9320
        vertex 6.8200 -0.1000 -2.8640
        vertex 6.5120 -0.1000 -2.1840
    endloop
endfacet
facet normal 0.0000 -1.4723 0.0000
    outer loop
        vertex 6.8200 -0.1000 -2.8640
        vertex 7.2480 -0.1000 -2.6520
        vertex 6.9040 -0.1000 -2.2720
    endloop
endfacet
facet normal 0.0000 -1.4966 0.0000
    outer loop
        vertex 6.9040 -0.1000 -2.2720
        vertex 6.5120 -0.1000 -2.1840
        vertex 6.8200 -0.1000 -2.8640
    endloop
endfacet
facet normal 0.0000 -1.4306 0.0000
    outer loop
        vertex 7.3760 -0.1000 -2.1280
        vertex 6.9040 -0.1000 -2.2720
        vertex 7.2480 -0.1000 -2.6520
    endloop
endfacet
facet normal 0.0000 -0.9568 0.0000
    outer loop
        vertex 7.2480 -0.1000 -2.6520
        vertex 7.6320 -0.1000 -2.2760
        vertex 7.3760 -0.1000 -2.1280
    endloop
endfacet
facet normal 0.0000 -0.5299 0.0000
    outer loop
        vertex 7.5960 -0.1000 -1.9240
        vertex 7.3760 -0.1000 -2.1280
        vertex 7.6320 -0.1000 -2.2760
    endloop
endfacet
facet normal 0.0000 -0.8952 0.0000
    outer loop
        vertex 7.6320 -0.1000 -2.2760
        vertex 7.9800 -0.1000 -1.7000
        vertex 7.5960 -0.1000 -1.9240
    endloop
endfacet
facet normal 0.0000 -0.4376 0.0000
    outer loop
        vertex 7.8320 -0.1000 -1.6040
        vertex 7.5960 -0.1000 -1.9240
        vertex 7.9800 -0.1000 -1.7000
    endloop
endfacet
facet normal 0.0000 -3.7252 0.0000
    outer loop
        vertex 6.8920 -0.1000 0.2440
        vertex 6.9120 -0.1000 -0.3480
        vertex 7.9080 -0.1000 -0.0280
    endloop
endfacet
facet normal 0.0000 -2.9030 0.0000
    outer loop
        vertex 7.9080 -0.1000 -0.0280
        vertex 7.7480 -0.1000 0.4720
        vertex 6.8920 -0.1000 0.2440
    endloop
endfacet
facet normal 0.0000 -1.1520 0.0000
    outer loop
        vertex 6.6000 -0.1000 1.0080
        vertex 6.9960 -0.1000 1.2400
        vertex 6.4200 -0.1000 1.3680
    endloop
endfacet
facet normal 0.0000 -0.4635 0.0000
    outer loop
        vertex 6.4200 -0.1000 1.3680
        vertex 6.3560 -0.1000 1.0840
        vertex 6.6000 -0.1000 1.0080
    endloop
endfacet
facet normal 0.0000 -1.3223 0.0000
    outer loop
        vertex 6.9960 -0.1000 1.2400
        vertex 6.6000 -0.1000 1.0080
        vertex 6.8360 -0.1000 0.6120
    endloop
endfacet
facet normal 0.0000 -2.3228 0.0000
    outer loop
        vertex 6.8360 -0.1000 0.6120
        vertex 7.4920 -0.1000 0.8640
        vertex 6.9960 -0.1000 1.2400
    endloop
endfacet
facet normal 0.0000 -1.5970 0.0000
    outer loop
        vertex 7.4920 -0.1000 0.8640
        vertex 6.8360 -0.1000 0.6120
        vertex 6.8920 -0.1000 0.2440
    endloop
endfacet
facet normal 0.0000 -2.4620 0.0000
    outer loop
        vertex 6.8920 -0.1000 0.2440
        vertex 7.7480 -0.1000 0.4720
        vertex 7.4920 -0.1000 0.8640
    endloop
endfacet
facet normal 0.0000 -3.9288 0.0000
    outer loop
        vertex 7.9080 -0.1000 -0.0280
        vertex 6.9120 -0.1000 -0.3480
        vertex 7.9800 -0.1000 -0.6360
    endloop
endfacet
facet normal 0.0000 -3.9590 0.0000
    outer loop
        vertex 8.4800 -0.1000 -1.3760
        vertex 8.4920 -0.1000 -1.9000
        vertex 9.6960 -0.1000 -1.6880
    endloop
endfacet
facet normal 0.0000 -19.0304 0.0000
    outer loop
        vertex 9.6960 -0.1000 -1.6880
        vertex 9.6960 -0.1000 0.8160
        vertex 8.4800 -0.1000 -1.3760
    endloop
endfacet
facet normal 0.0000 -2.0532 0.0000
    outer loop
        vertex 9.7280 -0.1000 -2.1400
        vertex 8.4920 -0.1000 -1.9000
        vertex 8.5240 -0.1000 -2.1720
    endloop
endfacet
facet normal 0.0000 -1.9211 0.0000
    outer loop
        vertex 8.5240 -0.1000 -2.1720
        vertex 8.6480 -0.1000 -2.4240
        vertex 9.7280 -0.1000 -2.1400
    endloop
endfacet
facet normal 0.0000 -1.8112 0.0000
    outer loop
        vertex 8.8640 -0.1000 -2.6520
        vertex 9.1600 -0.1000 -2.8120
        vertex 9.7280 -0.1000 -2.1400
    endloop
endfacet
facet normal 0.0000 -1.9224 0.0000
    outer loop
        vertex 9.7280 -0.1000 -2.1400
        vertex 8.6480 -0.1000 -2.4240
        vertex 8.8640 -0.1000 -2.6520
    endloop
endfacet
facet normal 0.0000 -16.6592 0.0000
    outer loop
        vertex 8.4800 -0.1000 0.8160
        vertex 8.4800 -0.1000 -1.3760
        vertex 9.6960 -0.1000 0.8160
    endloop
endfacet
facet normal 0.0000 -3.2832 0.0000
    outer loop
        vertex 9.6960 -0.1000 0.8160
        vertex 9.6960 -0.1000 1.2480
        vertex 8.4800 -0.1000 0.8160
    endloop
endfacet
facet normal 0.0000 -1.7856 0.0000
    outer loop
        vertex 8.4800 -0.1000 0.8160
        vertex 8.4560 -0.1000 1.3640
        vertex 7.9520 -0.1000 0.9680
    endloop
endfacet
facet normal 0.0000 -0.5016 0.0000
    outer loop
        vertex 7.9520 -0.1000 0.9680
        vertex 7.9520 -0.1000 0.8160
        vertex 8.4800 -0.1000 0.8160
    endloop
endfacet
facet normal 0.0000 -3.5343 0.0000
    outer loop
        vertex 9.6960 -0.1000 1.2480
        vertex 8.8840 -0.1000 1.7800
        vertex 8.4560 -0.1000 1.3640
    endloop
endfacet
facet normal 0.0000 -4.2296 0.0000
    outer loop
        vertex 8.4560 -0.1000 1.3640
        vertex 8.4800 -0.1000 0.8160
        vertex 9.6960 -0.1000 1.2480
    endloop
endfacet
facet normal 0.0000 -3.4776 0.0000
    outer loop
        vertex 9.2400 -0.1000 2.2320
        vertex 8.8840 -0.1000 1.7800
        vertex 9.6960 -0.1000 1.2480
    endloop
endfacet
facet normal 0.0000 -4.2294 0.0000
    outer loop
        vertex 9.6960 -0.1000 1.2480
        vertex 9.6960 -0.1000 2.7320
        vertex 9.2400 -0.1000 2.2320
    endloop
endfacet
facet normal 0.0000 -0.4500 0.0000
    outer loop
        vertex 9.6960 -0.1000 2.7320
        vertex 9.5520 -0.1000 2.7320
        vertex 9.2400 -0.1000 2.2320
    endloop
endfacet
facet normal 0.0000 -1.6940 0.0000
    outer loop
        vertex 9.7280 -0.1000 -2.1400
        vertex 9.1600 -0.1000 -2.8120
        vertex 9.5160 -0.1000 -2.8680
    endloop
endfacet
facet normal 0.0000 -0.7451 0.0000
    outer loop
        vertex 9.5160 -0.1000 -2.8680
        vertex 9.8440 -0.1000 -2.3040
        vertex 9.7280 -0.1000 -2.1400
    endloop
endfacet
facet normal 0.0000 -0.3876 0.0000
    outer loop
        vertex 9.9960 -0.1000 -2.7760
        vertex 9.9960 -0.1000 -2.3680
        vertex 9.8440 -0.1000 -2.3040
    endloop
endfacet
facet normal 0.0000 -1.5034 0.0000
    outer loop
        vertex 9.8440 -0.1000 -2.3040
        vertex 9.5160 -0.1000 -2.8680
        vertex 9.9960 -0.1000 -2.7760
    endloop
endfacet
facet normal 0.0000 -0.4741 0.0000
    outer loop
        vertex 10.3760 -0.1000 -2.4960
        vertex 10.2680 -0.1000 -2.2600
        vertex 9.9960 -0.1000 -2.3680
    endloop
endfacet
facet normal 0.0000 -0.9690 0.0000
    outer loop
        vertex 9.9960 -0.1000 -2.3680
        vertex 9.9960 -0.1000 -2.7760
        vertex 10.3760 -0.1000 -2.4960
    endloop
endfacet
facet normal 0.0000 -0.7294 0.0000
    outer loop
        vertex 10.2680 -0.1000 -2.2600
        vertex 10.3760 -0.1000 -2.4960
        vertex 10.6600 -0.1000 -2.0360
    endloop
endfacet
facet normal 0.0000 -0.4200 0.0000
    outer loop
        vertex 10.6600 -0.1000 -2.0360
        vertex 10.5280 -0.1000 -1.9400
        vertex 10.2680 -0.1000 -2.2600
    endloop
endfacet
facet normal 0.0000 -2.6028 0.0000
    outer loop
        vertex 9.6960 -0.1000 1.2480
        vertex 9.6960 -0.1000 0.8160
        vertex 10.6600 -0.1000 0.8160
    endloop
endfacet
facet normal 0.0000 -2.6028 0.0000
    outer loop
        vertex 10.6600 -0.1000 0.8160
        vertex 10.6600 -0.1000 1.2480
        vertex 9.6960 -0.1000 1.2480
    endloop
endfacet
facet normal 0.0000 -3.4437 0.0000
    outer loop
        vertex 9.6960 -0.1000 -1.6880
        vertex 8.4920 -0.1000 -1.9000
        vertex 9.7280 -0.1000 -2.1400
    endloop
endfacet
facet normal 0.0000 -129.4800 0.0000
    outer loop
        vertex -5.8360 -0.1000 3.0720
        vertex 0.0000 -0.1000 4.4000
        vertex -15.6000 -0.1000 4.4000
    endloop
endfacet
facet normal 0.0000 -43.8572 0.0000
    outer loop
        vertex -15.6000 -0.1000 4.4000
        vertex -11.1200 -0.1000 3.0720
        vertex -5.8360 -0.1000 3.0720
    endloop
endfacet
facet normal 0.0000 -44.5760 0.0000
    outer loop
        vertex -11.1200 -0.1000 1.4800
        vertex -11.1200 -0.1000 3.0720
        vertex -15.6000 -0.1000 4.4000
    endloop
endfacet
facet normal 0.0000 -246.4000 0.0000
    outer loop
        vertex -15.6000 -0.1000 4.4000
        vertex -15.6000 -0.1000 -4.4000
        vertex -11.1200 -0.1000 1.4800
    endloop
endfacet
facet normal 0.0000 -6.0270 0.0000
    outer loop
        vertex -10.9560 -0.1000 1.4800
        vertex -11.1200 -0.1000 1.4800
        vertex -15.6000 -0.1000 -4.4000
    endloop
endfacet
facet normal 0.0000 -154.1823 0.0000
    outer loop
        vertex -15.6000 -0.1000 -4.4000
        vertex -10.0240 -0.1000 -2.6520
        vertex -10.9560 -0.1000 1.4800
    endloop
endfacet
facet normal 0.0000 -7.6938 0.0000
    outer loop
        vertex -10.7880 -0.1000 2.0560
        vertex -10.9560 -0.1000 1.4800
        vertex -10.0240 -0.1000 -2.6520
    endloop
endfacet
facet normal 0.0000 -5.7673 0.0000
    outer loop
        vertex -10.0240 -0.1000 -2.6520
        vertex -9.8280 -0.1000 -2.6520
        vertex -10.7880 -0.1000 2.0560
    endloop
endfacet
facet normal 0.0000 -11.6309 0.0000
    outer loop
        vertex -10.4800 -0.1000 2.4840
        vertex -10.7880 -0.1000 2.0560
        vertex -9.8280 -0.1000 -2.6520
    endloop
endfacet
facet normal 0.0000 -13.6001 0.0000
    outer loop
        vertex -9.8280 -0.1000 -2.6520
        vertex -9.4160 -0.1000 -2.5600
        vertex -10.4800 -0.1000 2.4840
    endloop
endfacet
facet normal 0.0000 -12.3470 0.0000
    outer loop
        vertex -10.1280 -0.1000 2.6720
        vertex -10.4800 -0.1000 2.4840
        vertex -9.4160 -0.1000 -2.5600
    endloop
endfacet
facet normal 0.0000 -6.8116 0.0000
    outer loop
        vertex -9.4160 -0.1000 -2.5600
        vertex -9.2360 -0.1000 -2.3520
        vertex -10.1280 -0.1000 2.6720
    endloop
endfacet
facet normal 0.0000 -16.4336 0.0000
    outer loop
        vertex -9.6160 -0.1000 2.7360
        vertex -10.1280 -0.1000 2.6720
        vertex -9.2360 -0.1000 -2.3520
    endloop
endfacet
facet normal 0.0000 -2.8279 0.0000
    outer loop
        vertex -9.2360 -0.1000 -2.3520
        vertex -9.1880 -0.1000 -1.8040
        vertex -9.6160 -0.1000 2.7360
    endloop
endfacet
facet normal 0.0000 -12.1445 0.0000
    outer loop
        vertex -9.1880 -0.1000 2.7360
        vertex -9.6160 -0.1000 2.7360
        vertex -9.1880 -0.1000 -1.8040
    endloop
endfacet
facet normal 0.0000 -5.5760 0.0000
    outer loop
        vertex -10.0240 -0.1000 -2.6520
        vertex -15.6000 -0.1000 -4.4000
        vertex -10.0240 -0.1000 -2.8120
    endloop
endfacet
facet normal 0.0000 -30.6087 0.0000
    outer loop
        vertex -6.9400 -0.1000 -2.8120
        vertex -10.0240 -0.1000 -2.8120
        vertex -15.6000 -0.1000 -4.4000
    endloop
endfacet
facet normal 0.0000 -11.9894 0.0000
    outer loop
        vertex -5.7320 -0.1000 -2.8120
        vertex -6.9400 -0.1000 -2.8120
        vertex -15.6000 -0.1000 -4.4000
    endloop
endfacet
facet normal 0.0000 -154.8300 0.0000
    outer loop
        vertex -15.6000 -0.1000 -4.4000
        vertex 0.0000 -0.1000 -4.4000
        vertex -5.7320 -0.1000 -2.8120
    endloop
endfacet
facet normal 0.0000 -21.7556 0.0000
    outer loop
        vertex -3.5400 -0.1000 -2.8120
        vertex -5.7320 -0.1000 -2.8120
        vertex 0.0000 -0.1000 -4.4000
    endloop
endfacet
facet normal 0.0000 -11.5064 0.0000
    outer loop
        vertex -2.4520 -0.1000 -2.7800
        vertex -3.5400 -0.1000 -2.8120
        vertex 0.0000 -0.1000 -4.4000
    endloop
endfacet
facet normal 0.0000 -5.0416 0.0000
    outer loop
        vertex 0.0000 -0.1000 -4.4000
        vertex -1.7240 -0.1000 -2.9320
        vertex -2.4520 -0.1000 -2.7800
    endloop
endfacet
facet normal 0.0000 -4.9835 0.0000
    outer loop
        vertex -1.2560 -0.1000 -2.8680
        vertex -1.7240 -0.1000 -2.9320
        vertex 0.0000 -0.1000 -4.4000
    endloop
endfacet
facet normal 0.0000 -12.3892 0.0000
    outer loop
        vertex 0.0000 -0.1000 -4.4000
        vertex -0.0080 -0.1000 -2.8120
        vertex -1.2560 -0.1000 -2.8680
    endloop
endfacet
facet normal 0.0000 -20.8028 0.0000
    outer loop
        vertex 2.0880 -0.1000 -2.8120
        vertex -0.0080 -0.1000 -2.8120
        vertex 0.0000 -0.1000 -4.4000
    endloop
endfacet
facet normal 0.0000 -5.3595 0.0000
    outer loop
        vertex 2.6280 -0.1000 -2.8120
        vertex 2.0880 -0.1000 -2.8120
        vertex 0.0000 -0.1000 -4.4000
    endloop
endfacet
facet normal 0.0000 -0.5265 0.0000
    outer loop
        vertex 2.0880 -0.1000 -2.6560
        vertex 2.0880 -0.1000 -2.8120
        vertex 2.6280 -0.1000 -2.8120
    endloop
endfacet
facet normal 0.0000 -0.5265 0.0000
    outer loop
        vertex 2.6280 -0.1000 -2.8120
        vertex 2.6280 -0.1000 -2.6560
        vertex 2.0880 -0.1000 -2.6560
    endloop
endfacet
facet normal 0.0000 -0.4995 0.0000
    outer loop
        vertex 1.7360 -0.1000 -2.5080
        vertex 2.0880 -0.1000 -2.6560
        vertex 2.6280 -0.1000 -2.6560
    endloop
endfacet
facet normal 0.0000 -0.4749 0.0000
    outer loop
        vertex 2.6280 -0.1000 -2.6560
        vertex 2.8280 -0.1000 -2.6040
        vertex 1.7360 -0.1000 -2.5080
    endloop
endfacet
facet normal 0.0000 -0.8301 0.0000
    outer loop
        vertex 1.7360 -0.1000 -2.5080
        vertex 2.8280 -0.1000 -2.6040
        vertex 2.8920 -0.1000 -2.4880
    endloop
endfacet
facet normal 0.0000 -1.4535 0.0000
    outer loop
        vertex 2.8920 -0.1000 -2.4880
        vertex 1.6680 -0.1000 -2.3080
        vertex 1.7360 -0.1000 -2.5080
    endloop
endfacet
facet normal 0.0000 -2.6127 0.0000
    outer loop
        vertex 1.6680 -0.1000 -2.3080
        vertex 2.8920 -0.1000 -2.4880
        vertex 2.7120 -0.1000 -2.1200
    endloop
endfacet
facet normal 0.0000 -2.4769 0.0000
    outer loop
        vertex 2.7120 -0.1000 -2.1200
        vertex 1.6480 -0.1000 -1.9320
        vertex 1.6680 -0.1000 -2.3080
    endloop
endfacet
facet normal 0.0000 -4.8678 0.0000
    outer loop
        vertex 1.6480 -0.1000 -1.2000
        vertex 1.6480 -0.1000 -1.9320
        vertex 2.7120 -0.1000 -2.1200
    endloop
endfacet
facet normal 0.0000 -3.1974 0.0000
    outer loop
        vertex 2.7120 -0.1000 -2.1200
        vertex 1.9080 -0.1000 -0.9440
        vertex 1.6480 -0.1000 -1.2000
    endloop
endfacet
facet normal 0.0000 -20.8028 0.0000
    outer loop
        vertex 4.7240 -0.1000 -2.8120
        vertex 2.6280 -0.1000 -2.8120
        vertex 0.0000 -0.1000 -4.4000
    endloop
endfacet
facet normal 0.0000 -11.7005 0.0000
    outer loop
        vertex 0.0000 -0.1000 -4.4000
        vertex 5.7720 -0.1000 -2.8560
        vertex 4.7240 -0.1000 -2.8120
    endloop
endfacet
facet normal 0.0000 -8.0685 0.0000
    outer loop
        vertex 6.3240 -0.1000 -2.9320
        vertex 5.7720 -0.1000 -2.8560
        vertex 0.0000 -0.1000 -4.4000
    endloop
endfacet
facet normal 0.0000 -143.1300 0.0000
    outer loop
        vertex 0.0000 -0.1000 -4.4000
        vertex 15.6000 -0.1000 -4.4000
        vertex 6.3240 -0.1000 -2.9320
    endloop
endfacet
facet normal 0.0000 -8.4931 0.0000
    outer loop
        vertex 6.8200 -0.1000 -2.8640
        vertex 6.3240 -0.1000 -2.9320
        vertex 15.6000 -0.1000 -4.4000
    endloop
endfacet
facet normal 0.0000 -25.3175 0.0000
    outer loop
        vertex 15.6000 -0.1000 -4.4000
        vertex 9.1600 -0.1000 -2.8120
        vertex 6.8200 -0.1000 -2.8640
    endloop
endfacet
facet normal 0.0000 -1.2793 0.0000
    outer loop
        vertex 9.1600 -0.1000 -2.8120
        vertex 15.6000 -0.1000 -4.4000
        vertex 9.5160 -0.1000 -2.8680
    endloop
endfacet
facet normal 0.0000 -8.0943 0.0000
    outer loop
        vertex 9.9960 -0.1000 -2.7760
        vertex 9.5160 -0.1000 -2.8680
        vertex 15.6000 -0.1000 -4.4000
    endloop
endfacet
facet normal 0.0000 -13.6640 0.0000
    outer loop
        vertex 10.3760 -0.1000 -2.4960
        vertex 9.9960 -0.1000 -2.7760
        vertex 15.6000 -0.1000 -4.4000
    endloop
endfacet
facet normal 0.0000 -18.3986 0.0000
    outer loop
        vertex 10.6600 -0.1000 -2.0360
        vertex 10.3760 -0.1000 -2.4960
        vertex 15.6000 -0.1000 -4.4000
    endloop
endfacet
facet normal 0.0000 -88.0555 0.0000
    outer loop
        vertex 10.6600 -0.1000 -2.0360
        vertex 15.6000 -0.1000 -4.4000
        vertex 10.6600 -0.1000 0.8160
    endloop
endfacet
facet normal 0.0000 -2.3529 0.0000
    outer loop
        vertex 10.6600 -0.1000 0.8160
        vertex 10.5280 -0.1000 -1.9400
        vertex 10.6600 -0.1000 -2.0360
    endloop
endfacet
facet normal 0.0000 -16.6049 0.0000
    outer loop
        vertex 10.5280 -0.1000 -1.9400
        vertex 10.6600 -0.1000 0.8160
        vertex 9.6960 -0.1000 0.8160
    endloop
endfacet
facet normal 0.0000 -13.0208 0.0000
    outer loop
        vertex 9.6960 -0.1000 0.8160
        vertex 9.6960 -0.1000 -1.6880
        vertex 10.5280 -0.1000 -1.9400
    endloop
endfacet
facet normal 0.0000 -2.0735 0.0000
    outer loop
        vertex 10.2680 -0.1000 -2.2600
        vertex 10.5280 -0.1000 -1.9400
        vertex 9.6960 -0.1000 -1.6880
    endloop
endfacet
facet normal 0.0000 -1.5015 0.0000
    outer loop
        vertex 9.6960 -0.1000 -1.6880
        vertex 9.7280 -0.1000 -2.1400
        vertex 10.2680 -0.1000 -2.2600
    endloop
endfacet
facet normal 0.0000 -0.4665 0.0000
    outer loop
        vertex 10.2680 -0.1000 -2.2600
        vertex 9.7280 -0.1000 -2.1400
        vertex 9.8440 -0.1000 -2.3040
    endloop
endfacet
facet normal 0.0000 -0.2114 0.0000
    outer loop
        vertex 9.8440 -0.1000 -2.3040
        vertex 9.9960 -0.1000 -2.3680
        vertex 10.2680 -0.1000 -2.2600
    endloop
endfacet
facet normal 0.0000 -271.7000 0.0000
    outer loop
        vertex 10.6600 -0.1000 0.8160
        vertex 15.6000 -0.1000 -4.4000
        vertex 15.6000 -0.1000 4.4000
    endloop
endfacet
facet normal 0.0000 -13.3380 0.0000
    outer loop
        vertex 15.6000 -0.1000 4.4000
        vertex 10.6600 -0.1000 1.2480
        vertex 10.6600 -0.1000 0.8160
    endloop
endfacet
facet normal 0.0000 -18.9908 0.0000
    outer loop
        vertex 9.6960 -0.1000 1.2480
        vertex 10.6600 -0.1000 1.2480
        vertex 15.6000 -0.1000 4.4000
    endloop
endfacet
facet normal 0.0000 -54.7596 0.0000
    outer loop
        vertex 15.6000 -0.1000 4.4000
        vertex 9.6960 -0.1000 2.7320
        vertex 9.6960 -0.1000 1.2480
    endloop
endfacet
facet normal 0.0000 -1.5012 0.0000
    outer loop
        vertex 9.5520 -0.1000 2.7320
        vertex 9.6960 -0.1000 2.7320
        vertex 15.6000 -0.1000 4.4000
    endloop
endfacet
facet normal 0.0000 -162.6300 0.0000
    outer loop
        vertex 15.6000 -0.1000 4.4000
        vertex 0.0000 -0.1000 4.4000
        vertex 9.5520 -0.1000 2.7320
    endloop
endfacet
facet normal 0.0000 -62.1012 0.0000
    outer loop
        vertex 9.5520 -0.1000 2.7320
        vertex 0.0000 -0.1000 4.4000
        vertex 1.6480 -0.1000 3.0720
    endloop
endfacet
facet normal 0.0000 -25.3630 0.0000
    outer loop
        vertex 1.6480 -0.1000 3.0720
        vertex 9.2400 -0.1000 2.2320
        vertex 9.5520 -0.1000 2.7320
    endloop
endfacet
facet normal 0.0000 -23.3164 0.0000
    outer loop
        vertex 8.8840 -0.1000 1.7800
        vertex 9.2400 -0.1000 2.2320
        vertex 1.6480 -0.1000 3.0720
    endloop
endfacet
facet normal 0.0000 -22.2697 0.0000
    outer loop
        vertex 1.6480 -0.1000 3.0720
        vertex 8.4560 -0.1000 1.3640
        vertex 8.8840 -0.1000 1.7800
    endloop
endfacet
facet normal 0.0000 -22.2300 0.0000
    outer loop
        vertex 7.9520 -0.1000 0.9680
        vertex 8.4560 -0.1000 1.3640
        vertex 1.6480 -0.1000 3.0720
    endloop
endfacet
facet normal 0.0000 -1.8546 0.0000
    outer loop
        vertex 1.6480 -0.1000 3.0720
        vertex 6.9960 -0.1000 1.2400
        vertex 7.9520 -0.1000 0.9680
    endloop
endfacet
facet normal 0.0000 -1.4034 0.0000
    outer loop
        vertex 7.9520 -0.1000 0.9680
        vertex 6.9960 -0.1000 1.2400
        vertex 7.4920 -0.1000 0.8640
    endloop
endfacet
facet normal 0.0000 -0.4370 0.0000
    outer loop
        vertex 7.4920 -0.1000 0.8640
        vertex 7.9520 -0.1000 0.8160
        vertex 7.9520 -0.1000 0.9680
    endloop
endfacet
facet normal 0.0000 -1.0502 0.0000
    outer loop
        vertex 7.4920 -0.1000 0.8640
        vertex 7.7480 -0.1000 0.4720
        vertex 7.9520 -0.1000 0.8160
    endloop
endfacet
facet normal 0.0000 -1.1352 0.0000
    outer loop
        vertex 8.4800 -0.1000 0.8160
        vertex 7.9520 -0.1000 0.8160
        vertex 7.7480 -0.1000 0.4720
    endloop
endfacet
facet normal 0.0000 -2.6315 0.0000
    outer loop
        vertex 7.7480 -0.1000 0.4720
        vertex 7.9080 -0.1000 -0.0280
        vertex 8.4800 -0.1000 0.8160
    endloop
endfacet
facet normal 0.0000 -7.8364 0.0000
    outer loop
        vertex 8.4800 -0.1000 -1.3760
        vertex 8.4800 -0.1000 0.8160
        vertex 7.9080 -0.1000 -0.0280
    endloop
endfacet
facet normal 0.0000 -1.5670 0.0000
    outer loop
        vertex 7.9080 -0.1000 -0.0280
        vertex 7.9800 -0.1000 -0.6360
        vertex 8.4800 -0.1000 -1.3760
    endloop
endfacet
facet normal 0.0000 -3.3250 0.0000
    outer loop
        vertex 7.9800 -0.1000 -1.7000
        vertex 8.4800 -0.1000 -1.3760
        vertex 7.9800 -0.1000 -0.6360
    endloop
endfacet
facet normal 0.0000 -0.9842 0.0000
    outer loop
        vertex 7.9800 -0.1000 -0.6360
        vertex 7.8320 -0.1000 -1.6040
        vertex 7.9800 -0.1000 -1.7000
    endloop
endfacet
facet normal 0.0000 -13.4794 0.0000
    outer loop
        vertex 7.8320 -0.1000 -1.6040
        vertex 7.9800 -0.1000 -0.6360
        vertex 5.7520 -0.1000 -0.6360
    endloop
endfacet
facet normal 0.0000 -5.5878 0.0000
    outer loop
        vertex 5.7520 -0.1000 -0.6360
        vertex 7.5960 -0.1000 -1.9240
        vertex 7.8320 -0.1000 -1.6040
    endloop
endfacet
facet normal 0.0000 -7.3137 0.0000
    outer loop
        vertex 7.5960 -0.1000 -1.9240
        vertex 5.7520 -0.1000 -0.6360
        vertex 5.8800 -0.1000 -1.3600
    endloop
endfacet
facet normal 0.0000 -2.9634 0.0000
    outer loop
        vertex 5.8800 -0.1000 -1.3600
        vertex 7.3760 -0.1000 -2.1280
        vertex 7.5960 -0.1000 -1.9240
    endloop
endfacet
facet normal 0.0000 -3.7020 0.0000
    outer loop
        vertex 7.3760 -0.1000 -2.1280
        vertex 5.8800 -0.1000 -1.3600
        vertex 6.1840 -0.1000 -1.9120
    endloop
endfacet
facet normal 0.0000 -1.7100 0.0000
    outer loop
        vertex 6.1840 -0.1000 -1.9120
        vertex 6.9040 -0.1000 -2.2720
        vertex 7.3760 -0.1000 -2.1280
    endloop
endfacet
facet normal 0.0000 -0.4860 0.0000
    outer loop
        vertex 6.1840 -0.1000 -1.9120
        vertex 6.5120 -0.1000 -2.1840
        vertex 6.9040 -0.1000 -2.2720
    endloop
endfacet
facet normal 0.0000 -1.6618 0.0000
    outer loop
        vertex 8.4920 -0.1000 -1.9000
        vertex 8.4800 -0.1000 -1.3760
        vertex 7.9800 -0.1000 -1.7000
    endloop
endfacet
facet normal 0.0000 -2.2782 0.0000
    outer loop
        vertex 7.9800 -0.1000 -1.7000
        vertex 7.6320 -0.1000 -2.2760
        vertex 8.4920 -0.1000 -1.9000
    endloop
endfacet
facet normal 0.0000 -1.5372 0.0000
    outer loop
        vertex 8.5240 -0.1000 -2.1720
        vertex 8.4920 -0.1000 -1.9000
        vertex 7.6320 -0.1000 -2.2760
    endloop
endfacet
facet normal 0.0000 -1.8466 0.0000
    outer loop
        vertex 7.6320 -0.1000 -2.2760
        vertex 7.2480 -0.1000 -2.6520
        vertex 8.5240 -0.1000 -2.1720
    endloop
endfacet
facet normal 0.0000 -2.3817 0.0000
    outer loop
        vertex 8.5240 -0.1000 -2.1720
        vertex 7.2480 -0.1000 -2.6520
        vertex 8.6480 -0.1000 -2.4240
    endloop
endfacet
facet normal 0.0000 -2.3028 0.0000
    outer loop
        vertex 8.8640 -0.1000 -2.6520
        vertex 8.6480 -0.1000 -2.4240
        vertex 7.2480 -0.1000 -2.6520
    endloop
endfacet
facet normal 0.0000 -2.1412 0.0000
    outer loop
        vertex 7.2480 -0.1000 -2.6520
        vertex 6.8200 -0.1000 -2.8640
        vertex 8.8640 -0.1000 -2.6520
    endloop
endfacet
facet normal 0.0000 -2.4362 0.0000
    outer loop
        vertex 8.8640 -0.1000 -2.6520
        vertex 6.8200 -0.1000 -2.8640
        vertex 9.1600 -0.1000 -2.8120
    endloop
endfacet
facet normal 0.0000 -0.5103 0.0000
    outer loop
        vertex 6.6000 -0.1000 1.0080
        vertex 6.3560 -0.1000 1.0840
        vertex 5.9880 -0.1000 0.8640
    endloop
endfacet
facet normal 0.0000 -1.7271 0.0000
    outer loop
        vertex 5.9880 -0.1000 0.8640
        vertex 6.8360 -0.1000 0.6120
        vertex 6.6000 -0.1000 1.0080
    endloop
endfacet
facet normal 0.0000 -2.7192 0.0000
    outer loop
        vertex 6.8360 -0.1000 0.6120
        vertex 5.9880 -0.1000 0.8640
        vertex 5.7960 -0.1000 0.4080
    endloop
endfacet
facet normal 0.0000 -2.4634 0.0000
    outer loop
        vertex 5.7960 -0.1000 0.4080
        vertex 6.8920 -0.1000 0.2440
        vertex 6.8360 -0.1000 0.6120
    endloop
endfacet
facet normal 0.0000 -4.2030 0.0000
    outer loop
        vertex 6.8920 -0.1000 0.2440
        vertex 5.7960 -0.1000 0.4080
        vertex 5.7320 -0.1000 -0.1960
    endloop
endfacet
facet normal 0.0000 -4.3470 0.0000
    outer loop
        vertex 5.7320 -0.1000 -0.1960
        vertex 6.9120 -0.1000 -0.3480
        vertex 6.8920 -0.1000 0.2440
    endloop
endfacet
facet normal 0.0000 -1.1210 0.0000
    outer loop
        vertex 5.7320 -0.1000 -0.1960
        vertex 5.7320 -0.1000 -0.3480
        vertex 6.9120 -0.1000 -0.3480
    endloop
endfacet
facet normal 0.0000 -2.3168 0.0000
    outer loop
        vertex 1.6480 -0.1000 3.0720
        vertex 6.4200 -0.1000 1.3680
        vertex 6.9960 -0.1000 1.2400
    endloop
endfacet
facet normal 0.0000 -11.8606 0.0000
    outer loop
        vertex 5.7320 -0.1000 1.2160
        vertex 6.4200 -0.1000 1.3680
        vertex 1.6480 -0.1000 3.0720
    endloop
endfacet
facet normal 0.0000 -14.9592 0.0000
    outer loop
        vertex 1.6480 -0.1000 3.0720
        vertex 4.3720 -0.1000 1.2480
        vertex 5.7320 -0.1000 1.2160
    endloop
endfacet
facet normal 0.0000 -3.9272 0.0000
    outer loop
        vertex 5.1360 -0.1000 0.7680
        vertex 5.7320 -0.1000 1.2160
        vertex 4.3720 -0.1000 1.2480
    endloop
endfacet
facet normal 0.0000 -0.7831 0.0000
    outer loop
        vertex 4.3720 -0.1000 1.2480
        vertex 4.3720 -0.1000 1.0840
        vertex 5.1360 -0.1000 0.7680
    endloop
endfacet
facet normal 0.0000 -2.7475 0.0000
    outer loop
        vertex 4.8280 -0.1000 0.3200
        vertex 5.1360 -0.1000 0.7680
        vertex 4.3720 -0.1000 1.0840
    endloop
endfacet
facet normal 0.0000 -2.5194 0.0000
    outer loop
        vertex 4.3720 -0.1000 1.0840
        vertex 3.9160 -0.1000 0.9640
        vertex 4.8280 -0.1000 0.3200
    endloop
endfacet
facet normal 0.0000 -3.8025 0.0000
    outer loop
        vertex 4.6480 -0.1000 -0.2200
        vertex 4.8280 -0.1000 0.3200
        vertex 3.9160 -0.1000 0.9640
    endloop
endfacet
facet normal 0.0000 -3.1560 0.0000
    outer loop
        vertex 3.9160 -0.1000 0.9640
        vertex 3.6280 -0.1000 0.7400
        vertex 4.6480 -0.1000 -0.2200
    endloop
endfacet
facet normal 0.0000 -4.3875 0.0000
    outer loop
        vertex 4.5840 -0.1000 -0.8480
        vertex 4.6480 -0.1000 -0.2200
        vertex 3.6280 -0.1000 0.7400
    endloop
endfacet
facet normal 0.0000 -7.3772 0.0000
    outer loop
        vertex 3.6280 -0.1000 0.7400
        vertex 3.1520 -0.1000 0.2960
        vertex 4.5840 -0.1000 -0.8480
    endloop
endfacet
facet normal 0.0000 -6.1514 0.0000
    outer loop
        vertex 4.6800 -0.1000 -1.6120
        vertex 4.5840 -0.1000 -0.8480
        vertex 3.1520 -0.1000 0.2960
    endloop
endfacet
facet normal 0.0000 -9.3726 0.0000
    outer loop
        vertex 3.1520 -0.1000 0.2960
        vertex 2.7120 -0.1000 -0.1360
        vertex 4.6800 -0.1000 -1.6120
    endloop
endfacet
facet normal 0.0000 -8.4378 0.0000
    outer loop
        vertex 4.6800 -0.1000 -1.6120
        vertex 2.7120 -0.1000 -0.1360
        vertex 3.6640 -0.1000 -1.5360
    endloop
endfacet
facet normal 0.0000 -3.8548 0.0000
    outer loop
        vertex 3.6640 -0.1000 -1.5360
        vertex 4.9600 -0.1000 -2.2400
        vertex 4.6800 -0.1000 -1.6120
    endloop
endfacet
facet normal 0.0000 -3.3544 0.0000
    outer loop
        vertex 4.9600 -0.1000 -2.2400
        vertex 3.6640 -0.1000 -1.5360
        vertex 4.1240 -0.1000 -2.2000
    endloop
endfacet
facet normal 0.0000 -1.4478 0.0000
    outer loop
        vertex 4.1240 -0.1000 -2.2000
        vertex 4.3520 -0.1000 -2.4880
        vertex 4.9600 -0.1000 -2.2400
    endloop
endfacet
facet normal 0.0000 -2.0110 0.0000
    outer loop
        vertex 5.3160 -0.1000 -2.6240
        vertex 4.9600 -0.1000 -2.2400
        vertex 4.3520 -0.1000 -2.4880
    endloop
endfacet
facet normal 0.0000 -0.6960 0.0000
    outer loop
        vertex 4.3520 -0.1000 -2.4880
        vertex 4.7240 -0.1000 -2.6560
        vertex 5.3160 -0.1000 -2.6240
    endloop
endfacet
facet normal 0.0000 -0.9496 0.0000
    outer loop
        vertex 5.7720 -0.1000 -2.8560
        vertex 5.3160 -0.1000 -2.6240
        vertex 4.7240 -0.1000 -2.6560
    endloop
endfacet
facet normal 0.0000 -1.0218 0.0000
    outer loop
        vertex 4.7240 -0.1000 -2.6560
        vertex 4.7240 -0.1000 -2.8120
        vertex 5.7720 -0.1000 -2.8560
    endloop
endfacet
facet normal 0.0000 -20.7024 0.0000
    outer loop
        vertex 1.6480 -0.1000 3.0720
        vertex 2.5560 -0.1000 1.2480
        vertex 4.3720 -0.1000 1.2480
    endloop
endfacet
facet normal 0.0000 -0.9307 0.0000
    outer loop
        vertex 2.5560 -0.1000 1.0840
        vertex 2.5560 -0.1000 1.2480
        vertex 1.6480 -0.1000 3.0720
    endloop
endfacet
facet normal 0.0000 -21.9509 0.0000
    outer loop
        vertex 1.6480 -0.1000 3.0720
        vertex 1.6480 -0.1000 -0.7960
        vertex 2.5560 -0.1000 1.0840
    endloop
endfacet
facet normal 0.0000 -5.8013 0.0000
    outer loop
        vertex 2.5560 -0.1000 1.0840
        vertex 1.6480 -0.1000 -0.7960
        vertex 2.5880 -0.1000 0.1280
    endloop
endfacet
facet normal 0.0000 -2.2003 0.0000
    outer loop
        vertex 2.5880 -0.1000 0.1280
        vertex 2.9280 -0.1000 0.9720
        vertex 2.5560 -0.1000 1.0840
    endloop
endfacet
facet normal 0.0000 -1.0531 0.0000
    outer loop
        vertex 2.9280 -0.1000 0.9720
        vertex 2.5880 -0.1000 0.1280
        vertex 2.9520 -0.1000 0.5360
    endloop
endfacet
facet normal 0.0000 -0.2322 0.0000
    outer loop
        vertex 2.9520 -0.1000 0.5360
        vertex 3.0240 -0.1000 0.7760
        vertex 2.9280 -0.1000 0.9720
    endloop
endfacet
facet normal 0.0000 -13.7448 0.0000
    outer loop
        vertex 0.0000 -0.1000 4.4000
        vertex -0.0080 -0.1000 3.0720
        vertex 1.6480 -0.1000 3.0720
    endloop
endfacet
facet normal 0.0000 -34.4588 0.0000
    outer loop
        vertex -4.1600 -0.1000 3.0160
        vertex -0.0080 -0.1000 3.0720
        vertex 0.0000 -0.1000 4.4000
    endloop
endfacet
facet normal 0.0000 -9.2030 0.0000
    outer loop
        vertex 0.0000 -0.1000 4.4000
        vertex -4.6360 -0.1000 3.2116
        vertex -4.1600 -0.1000 3.0160
    endloop
endfacet
facet normal 0.0000 -4.8681 0.0000
    outer loop
        vertex 0.0000 -0.1000 4.4000
        vertex -5.8360 -0.1000 3.0720
        vertex -4.6360 -0.1000 3.2116
    endloop
endfacet
facet normal 0.0000 -1.0517 0.0000
    outer loop
        vertex -4.6360 -0.1000 3.2116
        vertex -5.8360 -0.1000 3.0720
        vertex -5.1120 -0.1000 3.0160
    endloop
endfacet
facet normal 0.0000 -2.2225 0.0000
    outer loop
        vertex -5.3080 -0.1000 2.5400
        vertex -5.1120 -0.1000 3.0160
        vertex -5.8360 -0.1000 3.0720
    endloop
endfacet
facet normal 0.0000 -5.2536 0.0000
    outer loop
        vertex -5.8360 -0.1000 3.0720
        vertex -5.8360 -0.1000 1.4800
        vertex -5.3080 -0.1000 2.5400
    endloop
endfacet
facet normal 0.0000 -2.8561 0.0000
    outer loop
        vertex -5.1120 -0.1000 2.0680
        vertex -5.3080 -0.1000 2.5400
        vertex -5.8360 -0.1000 1.4800
    endloop
endfacet
facet normal 0.0000 -1.4320 0.0000
    outer loop
        vertex -5.8360 -0.1000 1.4800
        vertex -5.7320 -0.1000 1.2480
        vertex -5.1120 -0.1000 2.0680
    endloop
endfacet
facet normal 0.0000 -3.1990 0.0000
    outer loop
        vertex -4.6360 -0.1000 1.8720
        vertex -5.1120 -0.1000 2.0680
        vertex -5.7320 -0.1000 1.2480
    endloop
endfacet
facet normal 0.0000 -6.6300 0.0000
    outer loop
        vertex -5.7320 -0.1000 1.2480
        vertex -4.0320 -0.1000 1.2480
        vertex -4.6360 -0.1000 1.8720
    endloop
endfacet
facet normal 0.0000 -2.5807 0.0000
    outer loop
        vertex -4.1640 -0.1000 2.0680
        vertex -4.6360 -0.1000 1.8720
        vertex -4.0320 -0.1000 1.2480
    endloop
endfacet
facet normal 0.0000 -6.8328 0.0000
    outer loop
        vertex -4.0320 -0.1000 1.2480
        vertex -2.6640 -0.1000 1.0320
        vertex -4.1640 -0.1000 2.0680
    endloop
endfacet
facet normal 0.0000 -5.7200 0.0000
    outer loop
        vertex -3.9640 -0.1000 2.5400
        vertex -4.1640 -0.1000 2.0680
        vertex -2.6640 -0.1000 1.0320
    endloop
endfacet
facet normal 0.0000 -6.6846 0.0000
    outer loop
        vertex -2.6640 -0.1000 1.0320
        vertex -2.1720 -0.1000 1.2840
        vertex -3.9640 -0.1000 2.5400
    endloop
endfacet
facet normal 0.0000 -5.4938 0.0000
    outer loop
        vertex -3.9640 -0.1000 2.5400
        vertex -2.1720 -0.1000 1.2840
        vertex -1.5920 -0.1000 1.3680
    endloop
endfacet
facet normal 0.0000 -5.6210 0.0000
    outer loop
        vertex -1.5920 -0.1000 1.3680
        vertex -4.1600 -0.1000 3.0160
        vertex -3.9640 -0.1000 2.5400
    endloop
endfacet
facet normal 0.0000 -43.6644 0.0000
    outer loop
        vertex -0.0080 -0.1000 3.0720
        vertex -4.1600 -0.1000 3.0160
        vertex -1.5920 -0.1000 1.3680
    endloop
endfacet
facet normal 0.0000 -1.5840 0.0000
    outer loop
        vertex -1.5920 -0.1000 1.3680
        vertex -0.0080 -0.1000 2.9120
        vertex -0.0080 -0.1000 3.0720
    endloop
endfacet
facet normal 0.0000 -6.2346 0.0000
    outer loop
        vertex -0.0080 -0.1000 2.9120
        vertex -1.5920 -0.1000 1.3680
        vertex -1.0280 -0.1000 1.2880
    endloop
endfacet
facet normal 0.0000 -4.5569 0.0000
    outer loop
        vertex -1.0280 -0.1000 1.2880
        vertex 0.3480 -0.1000 2.7640
        vertex -0.0080 -0.1000 2.9120
    endloop
endfacet
facet normal 0.0000 -6.0517 0.0000
    outer loop
        vertex 0.3480 -0.1000 2.7640
        vertex -1.0280 -0.1000 1.2880
        vertex -0.5920 -0.1000 1.0520
    endloop
endfacet
facet normal 0.0000 -1.8598 0.0000
    outer loop
        vertex -0.5920 -0.1000 1.0520
        vertex 0.4120 -0.1000 2.5640
        vertex 0.3480 -0.1000 2.7640
    endloop
endfacet
facet normal 0.0000 -4.7166 0.0000
    outer loop
        vertex 0.4120 -0.1000 2.5640
        vertex -0.5920 -0.1000 1.0520
        vertex -0.3160 -0.1000 0.7160
    endloop
endfacet
facet normal 0.0000 -1.9236 0.0000
    outer loop
        vertex -0.3160 -0.1000 0.7160
        vertex 0.4320 -0.1000 2.1920
        vertex 0.4120 -0.1000 2.5640
    endloop
endfacet
facet normal 0.0000 -2.6247 0.0000
    outer loop
        vertex 0.4320 -0.1000 2.1920
        vertex -0.3160 -0.1000 0.7160
        vertex -0.2200 -0.1000 0.3440
    endloop
endfacet
facet normal 0.0000 -16.8053 0.0000
    outer loop
        vertex -0.2200 -0.1000 0.3440
        vertex 0.4320 -0.1000 -1.9320
        vertex 0.4320 -0.1000 2.1920
    endloop
endfacet
facet normal 0.0000 -7.3069 0.0000
    outer loop
        vertex -0.1000 -0.1000 -1.8680
        vertex 0.4320 -0.1000 -1.9320
        vertex -0.2200 -0.1000 0.3440
    endloop
endfacet
facet normal 0.0000 -2.3984 0.0000
    outer loop
        vertex -0.2200 -0.1000 0.3440
        vertex -0.3720 -0.1000 -0.0520
        vertex -0.1000 -0.1000 -1.8680
    endloop
endfacet
facet normal 0.0000 -1.3668 0.0000
    outer loop
        vertex -0.2360 -0.1000 -1.7640
        vertex -0.1000 -0.1000 -1.8680
        vertex -0.3720 -0.1000 -0.0520
    endloop
endfacet
facet normal 0.0000 -4.3202 0.0000
    outer loop
        vertex -0.3720 -0.1000 -0.0520
        vertex -0.7640 -0.1000 -0.2000
        vertex -0.2360 -0.1000 -1.7640
    endloop
endfacet
facet normal 0.0000 -3.1248 0.0000
    outer loop
        vertex -0.4760 -0.1000 -2.0000
        vertex -0.2360 -0.1000 -1.7640
        vertex -0.7640 -0.1000 -0.2000
    endloop
endfacet
facet normal 0.0000 -4.4604 0.0000
    outer loop
        vertex -0.7640 -0.1000 -0.2000
        vertex -1.1880 -0.1000 -0.0280
        vertex -0.4760 -0.1000 -2.0000
    endloop
endfacet
facet normal 0.0000 -3.2044 0.0000
    outer loop
        vertex -0.6840 -0.1000 -2.1440
        vertex -0.4760 -0.1000 -2.0000
        vertex -1.1880 -0.1000 -0.0280
    endloop
endfacet
facet normal 0.0000 -5.6579 0.0000
    outer loop
        vertex -1.1880 -0.1000 -0.0280
        vertex -1.0880 -0.1000 -2.2440
        vertex -0.6840 -0.1000 -2.1440
    endloop
endfacet
facet normal 0.0000 -4.1804 0.0000
    outer loop
        vertex -1.3920 -0.1000 -2.1960
        vertex -1.0880 -0.1000 -2.2440
        vertex -1.1880 -0.1000 -0.0280
    endloop
endfacet
facet normal 0.0000 -3.7015 0.0000
    outer loop
        vertex -1.1880 -0.1000 -0.0280
        vertex -1.6520 -0.1000 -2.0560
        vertex -1.3920 -0.1000 -2.1960
    endloop
endfacet
facet normal 0.0000 -1.2449 0.0000
    outer loop
        vertex 0.4120 -0.1000 -2.3040
        vertex 0.4320 -0.1000 -1.9320
        vertex -0.1000 -0.1000 -1.8680
    endloop
endfacet
facet normal 0.0000 -2.3824 0.0000
    outer loop
        vertex -0.1000 -0.1000 -1.8680
        vertex -0.4200 -0.1000 -2.3400
        vertex 0.4120 -0.1000 -2.3040
    endloop
endfacet
facet normal 0.0000 -0.9451 0.0000
    outer loop
        vertex 0.3600 -0.1000 -2.4880
        vertex 0.4120 -0.1000 -2.3040
        vertex -0.4200 -0.1000 -2.3400
    endloop
endfacet
facet normal 0.0000 -1.1594 0.0000
    outer loop
        vertex -0.4200 -0.1000 -2.3400
        vertex -0.0080 -0.1000 -2.6560
        vertex 0.3600 -0.1000 -2.4880
    endloop
endfacet
facet normal 0.0000 -1.6291 0.0000
    outer loop
        vertex -0.0080 -0.1000 -2.6560
        vertex -0.4200 -0.1000 -2.3400
        vertex -0.8120 -0.1000 -2.6720
    endloop
endfacet
facet normal 0.0000 -0.7839 0.0000
    outer loop
        vertex -0.8120 -0.1000 -2.6720
        vertex -0.0080 -0.1000 -2.8120
        vertex -0.0080 -0.1000 -2.6560
    endloop
endfacet
facet normal 0.0000 -1.3734 0.0000
    outer loop
        vertex -0.8120 -0.1000 -2.6720
        vertex -1.2560 -0.1000 -2.8680
        vertex -0.0080 -0.1000 -2.8120
    endloop
endfacet
facet normal 0.0000 -2.3966 0.0000
    outer loop
        vertex -1.6520 -0.1000 -2.0560
        vertex -1.1880 -0.1000 -0.0280
        vertex -1.3240 -0.1000 0.2040
    endloop
endfacet
facet normal 0.0000 -4.6757 0.0000
    outer loop
        vertex -1.3240 -0.1000 0.2040
        vertex -1.9360 -0.1000 -1.7320
        vertex -1.6520 -0.1000 -2.0560
    endloop
endfacet
facet normal 0.0000 -4.3578 0.0000
    outer loop
        vertex -2.1520 -0.1000 -1.2760
        vertex -1.9360 -0.1000 -1.7320
        vertex -1.3240 -0.1000 0.2040
    endloop
endfacet
facet normal 0.0000 -4.0318 0.0000
    outer loop
        vertex -1.3240 -0.1000 0.2040
        vertex -2.2880 -0.1000 -0.7400
        vertex -2.1520 -0.1000 -1.2760
    endloop
endfacet
facet normal 0.0000 -2.6184 0.0000
    outer loop
        vertex -2.2880 -0.1000 -0.7400
        vertex -1.3240 -0.1000 0.2040
        vertex -1.3920 -0.1000 0.5720
    endloop
endfacet
facet normal 0.0000 -3.5296 0.0000
    outer loop
        vertex -1.3920 -0.1000 0.5720
        vertex -2.3360 -0.1000 -0.1800
        vertex -2.2880 -0.1000 -0.7400
    endloop
endfacet
facet normal 0.0000 -3.2768 0.0000
    outer loop
        vertex -2.2800 -0.1000 0.4200
        vertex -2.3360 -0.1000 -0.1800
        vertex -1.3920 -0.1000 0.5720
    endloop
endfacet
facet normal 0.0000 -2.2528 0.0000
    outer loop
        vertex -1.3920 -0.1000 0.5720
        vertex -1.5200 -0.1000 0.9560
        vertex -2.2800 -0.1000 0.4200
    endloop
endfacet
facet normal 0.0000 -1.4378 0.0000
    outer loop
        vertex -2.1080 -0.1000 0.8440
        vertex -2.2800 -0.1000 0.4200
        vertex -1.5200 -0.1000 0.9560
    endloop
endfacet
facet normal 0.0000 -0.5593 0.0000
    outer loop
        vertex -1.5200 -0.1000 0.9560
        vertex -1.7520 -0.1000 1.0640
        vertex -2.1080 -0.1000 0.8440
    endloop
endfacet
facet normal 0.0000 -4.1652 0.0000
    outer loop
        vertex -4.0320 -0.1000 1.2480
        vertex -3.0640 -0.1000 0.6080
        vertex -2.6640 -0.1000 1.0320
    endloop
endfacet
facet normal 0.0000 -5.4420 0.0000
    outer loop
        vertex -4.0320 -0.1000 1.2480
        vertex -3.3960 -0.1000 -0.0720
        vertex -3.0640 -0.1000 0.6080
    endloop
endfacet
facet normal 0.0000 -4.0086 0.0000
    outer loop
        vertex -3.5080 -0.1000 -0.8480
        vertex -3.3960 -0.1000 -0.0720
        vertex -4.0320 -0.1000 1.2480
    endloop
endfacet
facet normal 0.0000 -10.5324 0.0000
    outer loop
        vertex -4.0320 -0.1000 1.2480
        vertex -4.0320 -0.1000 -1.9680
        vertex -3.5080 -0.1000 -0.8480
    endloop
endfacet
facet normal 0.0000 -2.1867 0.0000
    outer loop
        vertex -3.4520 -0.1000 -1.3960
        vertex -3.5080 -0.1000 -0.8480
        vertex -4.0320 -0.1000 -1.9680
    endloop
endfacet
facet normal 0.0000 -1.3761 0.0000
    outer loop
        vertex -4.0320 -0.1000 -1.9680
        vertex -4.0040 -0.1000 -2.3200
        vertex -3.4520 -0.1000 -1.3960
    endloop
endfacet
facet normal 0.0000 -2.6076 0.0000
    outer loop
        vertex -3.2920 -0.1000 -1.8840
        vertex -3.4520 -0.1000 -1.3960
        vertex -4.0040 -0.1000 -2.3200
    endloop
endfacet
facet normal 0.0000 -1.0862 0.0000
    outer loop
        vertex -4.0040 -0.1000 -2.3200
        vertex -3.9320 -0.1000 -2.5200
        vertex -3.2920 -0.1000 -1.8840
    endloop
endfacet
facet normal 0.0000 -2.8252 0.0000
    outer loop
        vertex -3.0200 -0.1000 -2.3200
        vertex -3.2920 -0.1000 -1.8840
        vertex -3.9320 -0.1000 -2.5200
    endloop
endfacet
facet normal 0.0000 -1.2652 0.0000
    outer loop
        vertex -3.9320 -0.1000 -2.5200
        vertex -3.5400 -0.1000 -2.6560
        vertex -3.0200 -0.1000 -2.3200
    endloop
endfacet
facet normal 0.0000 -2.6878 0.0000
    outer loop
        vertex -2.4520 -0.1000 -2.7800
        vertex -3.0200 -0.1000 -2.3200
        vertex -3.5400 -0.1000 -2.6560
    endloop
endfacet
facet normal 0.0000 -1.0608 0.0000
    outer loop
        vertex -3.5400 -0.1000 -2.6560
        vertex -3.5400 -0.1000 -2.8120
        vertex -2.4520 -0.1000 -2.7800
    endloop
endfacet
facet normal 0.0000 -0.2262 0.0000
    outer loop
        vertex -5.7320 -0.1000 1.2480
        vertex -5.8360 -0.1000 1.4800
        vertex -5.9920 -0.1000 1.4800
    endloop
endfacet
facet normal 0.0000 -0.2665 0.0000
    outer loop
        vertex -5.9920 -0.1000 1.4800
        vertex -5.7320 -0.1000 1.0840
        vertex -5.7320 -0.1000 1.2480
    endloop
endfacet
facet normal 0.0000 -9.7618 0.0000
    outer loop
        vertex -7.7800 -0.1000 -1.8040
        vertex -5.7320 -0.1000 1.0840
        vertex -5.9920 -0.1000 1.4800
    endloop
endfacet
facet normal 0.0000 -50.7345 0.0000
    outer loop
        vertex -5.9920 -0.1000 1.4800
        vertex -7.7800 -0.1000 2.7360
        vertex -7.7800 -0.1000 -1.8040
    endloop
endfacet
facet normal 0.0000 -4.1889 0.0000
    outer loop
        vertex -7.7800 -0.1000 2.7360
        vertex -5.9920 -0.1000 1.4800
        vertex -6.1360 -0.1000 1.9560
    endloop
endfacet
facet normal 0.0000 -2.1450 0.0000
    outer loop
        vertex -6.1360 -0.1000 1.9560
        vertex -7.3400 -0.1000 2.7360
        vertex -7.7800 -0.1000 2.7360
    endloop
endfacet
facet normal 0.0000 -1.5784 0.0000
    outer loop
        vertex -7.3400 -0.1000 2.7360
        vertex -6.1360 -0.1000 1.9560
        vertex -6.3000 -0.1000 2.2720
    endloop
endfacet
facet normal 0.0000 -0.8792 0.0000
    outer loop
        vertex -6.3000 -0.1000 2.2720
        vertex -6.9920 -0.1000 2.7160
        vertex -7.3400 -0.1000 2.7360
    endloop
endfacet
facet normal 0.0000 -0.3792 0.0000
    outer loop
        vertex -6.9920 -0.1000 2.7160
        vertex -6.3000 -0.1000 2.2720
        vertex -6.5000 -0.1000 2.4880
    endloop
endfacet
facet normal 0.0000 -0.1404 0.0000
    outer loop
        vertex -6.5000 -0.1000 2.4880
        vertex -6.7640 -0.1000 2.6560
        vertex -6.9920 -0.1000 2.7160
    endloop
endfacet
facet normal 0.0000 -8.7442 0.0000
    outer loop
        vertex -5.3440 -0.1000 0.9480
        vertex -5.7320 -0.1000 1.0840
        vertex -7.7800 -0.1000 -1.8040
    endloop
endfacet
facet normal 0.0000 -9.4813 0.0000
    outer loop
        vertex -7.7800 -0.1000 -1.8040
        vertex -7.7280 -0.1000 -2.3680
        vertex -5.3440 -0.1000 0.9480
    endloop
endfacet
facet normal 0.0000 -4.4126 0.0000
    outer loop
        vertex -5.2720 -0.1000 0.7520
        vertex -5.3440 -0.1000 0.9480
        vertex -7.7280 -0.1000 -2.3680
    endloop
endfacet
facet normal 0.0000 -6.7526 0.0000
    outer loop
        vertex -7.7280 -0.1000 -2.3680
        vertex -7.5360 -0.1000 -2.5640
        vertex -5.2720 -0.1000 0.7520
    endloop
endfacet
facet normal 0.0000 -5.5611 0.0000
    outer loop
        vertex -5.2440 -0.1000 0.4000
        vertex -5.2720 -0.1000 0.7520
        vertex -7.5360 -0.1000 -2.5640
    endloop
endfacet
facet normal 0.0000 -8.6706 0.0000
    outer loop
        vertex -7.5360 -0.1000 -2.5640
        vertex -7.1360 -0.1000 -2.6520
        vertex -5.2440 -0.1000 0.4000
    endloop
endfacet
facet normal 0.0000 -28.0016 0.0000
    outer loop
        vertex -5.2440 -0.1000 -1.9680
        vertex -5.2440 -0.1000 0.4000
        vertex -7.1360 -0.1000 -2.6520
    endloop
endfacet
facet normal 0.0000 -0.8379 0.0000
    outer loop
        vertex -7.1360 -0.1000 -2.6520
        vertex -6.9400 -0.1000 -2.6520
        vertex -5.2440 -0.1000 -1.9680
    endloop
endfacet
facet normal 0.0000 -5.2630 0.0000
    outer loop
        vertex -5.3320 -0.1000 -2.5000
        vertex -5.2440 -0.1000 -1.9680
        vertex -6.9400 -0.1000 -2.6520
    endloop
endfacet
facet normal 0.0000 -1.1878 0.0000
    outer loop
        vertex -6.9400 -0.1000 -2.6520
        vertex -5.7320 -0.1000 -2.6560
        vertex -5.3320 -0.1000 -2.5000
    endloop
endfacet
facet normal 0.0000 -1.2080 0.0000
    outer loop
        vertex -5.7320 -0.1000 -2.6560
        vertex -6.9400 -0.1000 -2.6520
        vertex -6.9400 -0.1000 -2.8120
    endloop
endfacet
facet normal 0.0000 -1.1778 0.0000
    outer loop
        vertex -6.9400 -0.1000 -2.8120
        vertex -5.7320 -0.1000 -2.8120
        vertex -5.7320 -0.1000 -2.6560
    endloop
endfacet
endsolid GiantLegoRocks
