solid GiantLegoRocks
facet normal 0.0000 0.7500 0.0000
    outer loop
        vertex 16.0000 0.0000 1.6000
        vertex 16.0000 0.0000 -1.6000
        vertex -16.0000 0.0000 -1.6000
    endloop
endfacet
facet normal 0.0000 0.7500 0.0000
    outer loop
        vertex -16.0000 0.0000 -1.6000
        vertex -16.0000 0.0000 1.6000
        vertex 16.0000 0.0000 1.6000
    endloop
endfacet
facet normal 0.0000 -0.2500 8.0000
    outer loop
        vertex -16.0000 -0.1000 1.6000
        vertex 16.0000 -0.1000 1.6000
        vertex 16.0000 0.0000 1.6000
    endloop
endfacet
facet normal 0.0000 -0.2500 8.0000
    outer loop
        vertex 16.0000 0.0000 1.6000
        vertex -16.0000 0.0000 1.6000
        vertex -16.0000 -0.1000 1.6000
    endloop
endfacet
facet normal -80.0000 -0.2500 0.0000
    outer loop
        vertex -16.0000 -0.1000 -1.6000
        vertex -16.0000 -0.1000 1.6000
        vertex -16.0000 0.0000 1.6000
    endloop
endfacet
facet normal -80.0000 -0.2500 0.0000
    outer loop
        vertex -16.0000 0.0000 1.6000
        vertex -16.0000 0.0000 -1.6000
        vertex -16.0000 -0.1000 -1.6000
    endloop
endfacet
facet normal 0.0000 -0.2500 -8.0000
    outer loop
        vertex 16.0000 -0.1000 -1.6000
        vertex -16.0000 -0.1000 -1.6000
        vertex -16.0000 0.0000 -1.6000
    endloop
endfacet
facet normal 0.0000 -0.2500 -8.0000
    outer loop
        vertex -16.0000 0.0000 -1.6000
        vertex 16.0000 0.0000 -1.6000
        vertex 16.0000 -0.1000 -1.6000
    endloop
endfacet
facet normal 80.0000 -0.2500 0.0000
    outer loop
        vertex 16.0000 -0.1000 1.6000
        vertex 16.0000 -0.1000 -1.6000
        vertex 16.0000 0.0000 -1.6000
    endloop
endfacet
facet normal 80.0000 -0.2500 0.0000
    outer loop
        vertex 16.0000 0.0000 -1.6000
        vertex 16.0000 0.0000 1.6000
        vertex 16.0000 -0.1000 1.6000
    endloop
endfacet
facet normal 0.0000 -640.0000 0.0000
    outer loop
        vertex -16.0000 -0.1000 1.6000
        vertex -16.0000 -0.1000 -1.6000
        vertex 16.0000 -0.1000 -1.6000
    endloop
endfacet
facet normal 0.0000 -640.0000 0.0000
    outer loop
        vertex 16.0000 -0.1000 -1.6000
        vertex 16.0000 -0.1000 1.6000
        vertex -16.0000 -0.1000 1.6000
    endloop
endfacet
endsolid GiantLegoRocks
