solid GiantLegoRocks
facet normal 0.0000 800.0000 2720.0000
    outer loop
        vertex -8.0000 27.2000 -12.0000
        vertex -8.0000 0.0000 -4.0000
        vertex 8.0000 0.0000 -4.0000
    endloop
endfacet
facet normal 0.0000 800.0000 2720.0000
    outer loop
        vertex 8.0000 0.0000 -4.0000
        vertex 8.0000 27.2000 -12.0000
        vertex -8.0000 27.2000 -12.0000
    endloop
endfacet
facet normal 0.0000 9.7200 -2.8350
    outer loop
        vertex 8.1000 27.1720 -12.0960
        vertex -8.1000 27.1720 -12.0960
        vertex -8.0000 27.2000 -12.0000
    endloop
endfacet
facet normal 0.0000 9.6000 -2.8000
    outer loop
        vertex -8.0000 27.2000 -12.0000
        vertex 8.0000 27.2000 -12.0000
        vertex 8.1000 27.1720 -12.0960
    endloop
endfacet
facet normal 0.0000 -10.4400 0.0000
    outer loop
        vertex 8.0000 0.0000 -4.0000
        vertex -8.0000 0.0000 -4.0000
        vertex -8.1000 0.0000 -4.1044
    endloop
endfacet
facet normal 0.0000 -10.5705 0.0000
    outer loop
        vertex -8.1000 0.0000 -4.1044
        vertex 8.1000 0.0000 -4.1044
        vertex 8.0000 0.0000 -4.0000
    endloop
endfacet
facet normal 0.0000 -237.4110 -807.1650
    outer loop
        vertex -8.1000 27.1720 -12.0960
        vertex 8.1000 27.1720 -12.0960
        vertex 8.1000 19.2000 -9.7512
    endloop
endfacet
facet normal 0.0000 -237.4110 -807.1650
    outer loop
        vertex 8.1000 19.2000 -9.7512
        vertex -8.1000 19.2000 -9.7512
        vertex -8.1000 27.1720 -12.0960
    endloop
endfacet
facet normal 0.0000 -476.4825 -1620.0000
    outer loop
        vertex -8.1000 19.2000 -9.7512
        vertex 8.1000 19.2000 -9.7512
        vertex 8.1000 3.2000 -5.0452
    endloop
endfacet
facet normal 0.0000 -476.4825 -1620.0000
    outer loop
        vertex 8.1000 3.2000 -5.0452
        vertex -8.1000 3.2000 -5.0452
        vertex -8.1000 19.2000 -9.7512
    endloop
endfacet
facet normal 0.0000 -95.2560 -324.0000
    outer loop
        vertex -8.1000 3.2000 -5.0452
        vertex 8.1000 3.2000 -5.0452
        vertex 8.1000 0.0000 -4.1044
    endloop
endfacet
facet normal 0.0000 -95.2560 -324.0000
    outer loop
        vertex 8.1000 0.0000 -4.1044
        vertex -8.1000 0.0000 -4.1044
        vertex -8.1000 3.2000 -5.0452
    endloop
endfacet
facet normal -2720.0000 0.0000 0.0000
    outer loop
        vertex 8.0000 27.2000 4.0000
        vertex 8.0000 27.2000 -12.0000
        vertex 8.0000 0.0000 -4.0000
    endloop
endfacet
facet normal -1040.0000 0.0000 0.0000
    outer loop
        vertex 8.0000 0.0000 -4.0000
        vertex 8.0000 6.4000 4.0000
        vertex 8.0000 27.2000 4.0000
    endloop
endfacet
facet normal -640.0000 0.0000 0.0000
    outer loop
        vertex 8.0000 6.4000 4.0000
        vertex 8.0000 0.0000 -4.0000
        vertex 8.0000 0.0000 12.0000
    endloop
endfacet
facet normal -320.0000 0.0000 0.0000
    outer loop
        vertex 8.0000 0.0000 12.0000
        vertex 8.0000 6.4000 12.0000
        vertex 8.0000 6.4000 4.0000
    endloop
endfacet
facet normal 0.0000 10.0000 0.0000
    outer loop
        vertex 8.0000 27.2000 4.0000
        vertex 8.1000 27.2000 4.0000
        vertex 8.1000 27.2000 -12.0000
    endloop
endfacet
facet normal 0.0000 10.0000 0.0000
    outer loop
        vertex 8.1000 27.2000 -12.0000
        vertex 8.0000 27.2000 -12.0000
        vertex 8.0000 27.2000 4.0000
    endloop
endfacet
facet normal 0.0000 0.0000 13.0000
    outer loop
        vertex 8.1000 27.2000 4.0000
        vertex 8.0000 27.2000 4.0000
        vertex 8.0000 6.4000 4.0000
    endloop
endfacet
facet normal 0.0000 0.0000 13.0000
    outer loop
        vertex 8.0000 6.4000 4.0000
        vertex 8.1000 6.4000 4.0000
        vertex 8.1000 27.2000 4.0000
    endloop
endfacet
facet normal 0.0000 5.0000 0.0000
    outer loop
        vertex 8.1000 6.4000 4.0000
        vertex 8.0000 6.4000 4.0000
        vertex 8.0000 6.4000 12.0000
    endloop
endfacet
facet normal 0.0000 5.0000 0.0000
    outer loop
        vertex 8.0000 6.4000 12.0000
        vertex 8.1000 6.4000 12.0000
        vertex 8.1000 6.4000 4.0000
    endloop
endfacet
facet normal 0.0000 0.0000 4.0000
    outer loop
        vertex 8.1000 6.4000 12.0000
        vertex 8.0000 6.4000 12.0000
        vertex 8.0000 0.0000 12.0000
    endloop
endfacet
facet normal 0.0000 0.0000 4.0000
    outer loop
        vertex 8.0000 0.0000 12.0000
        vertex 8.1000 0.0000 12.0000
        vertex 8.1000 6.4000 12.0000
    endloop
endfacet
facet normal 0.0000 -10.0652 0.0000
    outer loop
        vertex 8.0000 0.0000 -4.0000
        vertex 8.1000 0.0000 -4.1044
        vertex 8.1000 0.0000 12.0000
    endloop
endfacet
facet normal 0.0000 -10.0000 0.0000
    outer loop
        vertex 8.1000 0.0000 12.0000
        vertex 8.0000 0.0000 12.0000
        vertex 8.0000 0.0000 -4.0000
    endloop
endfacet
facet normal 0.0000 0.0600 -0.0175
    outer loop
        vertex 8.0000 27.2000 -12.0000
        vertex 8.1000 27.2000 -12.0000
        vertex 8.1000 27.1720 -12.0960
    endloop
endfacet
facet normal 800.0000 0.0000 0.0000
    outer loop
        vertex 8.1000 27.2000 -12.0000
        vertex 8.1000 27.2000 4.0000
        vertex 8.1000 19.2000 4.0000
    endloop
endfacet
facet normal 687.5600 0.0000 0.0000
    outer loop
        vertex 8.1000 19.2000 4.0000
        vertex 8.1000 19.2000 -9.7512
        vertex 8.1000 27.2000 -12.0000
    endloop
endfacet
facet normal 160.0000 0.0000 0.0000
    outer loop
        vertex 8.1000 6.4000 4.0000
        vertex 8.1000 6.4000 12.0000
        vertex 8.1000 3.2000 12.0000
    endloop
endfacet
facet normal 340.9040 0.0000 0.0000
    outer loop
        vertex 8.1000 3.2000 12.0000
        vertex 8.1000 3.2000 -5.0452
        vertex 8.1000 6.4000 4.0000
    endloop
endfacet
facet normal 340.9040 0.0000 0.0000
    outer loop
        vertex 8.1000 3.2000 -5.0452
        vertex 8.1000 3.2000 12.0000
        vertex 8.1000 0.0000 12.0000
    endloop
endfacet
facet normal 322.0880 0.0000 0.0000
    outer loop
        vertex 8.1000 0.0000 12.0000
        vertex 8.1000 0.0000 -4.1044
        vertex 8.1000 3.2000 -5.0452
    endloop
endfacet
facet normal 5.1935 0.0000 0.0000
    outer loop
        vertex 8.1000 27.1720 -12.0960
        vertex 8.1000 27.2000 -12.0000
        vertex 8.1000 19.2000 -9.7512
    endloop
endfacet
facet normal 0.2172 0.0000 0.0000
    outer loop
        vertex 8.1000 13.2452 -4.6704
        vertex 8.1000 13.6924 -4.4712
        vertex 8.1000 14.1016 -4.2112
    endloop
endfacet
facet normal 15.3876 0.0000 0.0000
    outer loop
        vertex 8.1000 14.1016 -4.2112
        vertex 8.1000 12.6364 -2.1220
        vertex 8.1000 13.2452 -4.6704
    endloop
endfacet
facet normal 6.2948 0.0000 0.0000
    outer loop
        vertex 8.1000 14.4728 -3.8896
        vertex 8.1000 14.7416 -3.5572
        vertex 8.1000 13.0488 -1.9036
    endloop
endfacet
facet normal 7.7920 0.0000 0.0000
    outer loop
        vertex 8.1000 12.6364 -2.1220
        vertex 8.1000 14.1016 -4.2112
        vertex 8.1000 14.4728 -3.8896
    endloop
endfacet
facet normal 7.0627 0.0000 0.0000
    outer loop
        vertex 8.1000 14.4728 -3.8896
        vertex 8.1000 13.0488 -1.9036
        vertex 8.1000 12.6364 -2.1220
    endloop
endfacet
facet normal 13.5524 0.0000 0.0000
    outer loop
        vertex 8.1000 15.1328 -2.6584
        vertex 8.1000 13.0488 -1.9036
        vertex 8.1000 14.7416 -3.5572
    endloop
endfacet
facet normal 0.2324 0.0000 0.0000
    outer loop
        vertex 8.1000 14.7416 -3.5572
        vertex 8.1000 14.9616 -3.1468
        vertex 8.1000 15.1328 -2.6584
    endloop
endfacet
facet normal 9.5912 0.0000 0.0000
    outer loop
        vertex 8.1000 12.6364 -2.1220
        vertex 8.1000 12.0712 -2.2520
        vertex 8.1000 12.7596 -4.8088
    endloop
endfacet
facet normal 8.2610 0.0000 0.0000
    outer loop
        vertex 8.1000 12.7596 -4.8088
        vertex 8.1000 13.2452 -4.6704
        vertex 8.1000 12.6364 -2.1220
    endloop
endfacet
facet normal 8.6976 0.0000 0.0000
    outer loop
        vertex 8.1000 12.2360 -4.8856
        vertex 8.1000 12.7596 -4.8088
        vertex 8.1000 12.0712 -2.2520
    endloop
endfacet
facet normal 7.9083 0.0000 0.0000
    outer loop
        vertex 8.1000 13.3512 -1.5776
        vertex 8.1000 15.2552 -2.0916
        vertex 8.1000 15.3284 -1.4468
    endloop
endfacet
facet normal 4.8838 0.0000 0.0000
    outer loop
        vertex 8.1000 15.3284 -1.4468
        vertex 8.1000 13.5324 -1.1704
        vertex 8.1000 13.3512 -1.5776
    endloop
endfacet
facet normal 9.5399 0.0000 0.0000
    outer loop
        vertex 8.1000 8.8448 -1.7876
        vertex 8.1000 11.1568 -2.4600
        vertex 8.1000 11.3528 -1.8568
    endloop
endfacet
facet normal 5.2466 0.0000 0.0000
    outer loop
        vertex 8.1000 11.3528 -1.8568
        vertex 8.1000 9.0156 -1.4576
        vertex 8.1000 8.8448 -1.7876
    endloop
endfacet
facet normal 0.1831 0.0000 0.0000
    outer loop
        vertex 8.1000 10.7004 -3.4152
        vertex 8.1000 10.9392 -2.9796
        vertex 8.1000 11.1568 -2.4600
    endloop
endfacet
facet normal 15.7207 0.0000 0.0000
    outer loop
        vertex 8.1000 11.1568 -2.4600
        vertex 8.1000 8.8448 -1.7876
        vertex 8.1000 10.7004 -3.4152
    endloop
endfacet
facet normal 7.9600 0.0000 0.0000
    outer loop
        vertex 8.1000 13.0488 -1.9036
        vertex 8.1000 15.1328 -2.6584
        vertex 8.1000 15.2552 -2.0916
    endloop
endfacet
facet normal 4.8509 0.0000 0.0000
    outer loop
        vertex 8.1000 15.2552 -2.0916
        vertex 8.1000 13.3512 -1.5776
        vertex 8.1000 13.0488 -1.9036
    endloop
endfacet
facet normal 0.3220 0.0000 0.0000
    outer loop
        vertex 8.1000 8.7100 -4.5496
        vertex 8.1000 9.2124 -4.5008
        vertex 8.1000 9.6680 -4.3540
    endloop
endfacet
facet normal 15.6365 0.0000 0.0000
    outer loop
        vertex 8.1000 9.6680 -4.3540
        vertex 8.1000 8.4596 -1.9892
        vertex 8.1000 8.7100 -4.5496
    endloop
endfacet
facet normal 7.1572 0.0000 0.0000
    outer loop
        vertex 8.1000 8.4596 -1.9892
        vertex 8.1000 8.2584 -4.5052
        vertex 8.1000 8.7100 -4.5496
    endloop
endfacet
facet normal 0.2543 0.0000 0.0000
    outer loop
        vertex 8.1000 7.4056 -4.1496
        vertex 8.1000 7.8236 -4.3716
        vertex 8.1000 8.2584 -4.5052
    endloop
endfacet
facet normal 13.8574 0.0000 0.0000
    outer loop
        vertex 8.1000 8.2584 -4.5052
        vertex 8.1000 8.4596 -1.9892
        vertex 8.1000 7.4056 -4.1496
    endloop
endfacet
facet normal 7.1917 0.0000 0.0000
    outer loop
        vertex 8.1000 7.4056 -4.1496
        vertex 8.1000 8.4596 -1.9892
        vertex 8.1000 7.0252 -3.8376
    endloop
endfacet
facet normal 6.8273 0.0000 0.0000
    outer loop
        vertex 8.1000 8.2108 -1.9200
        vertex 8.1000 6.7036 -3.4364
        vertex 8.1000 7.0252 -3.8376
    endloop
endfacet
facet normal 3.4946 0.0000 0.0000
    outer loop
        vertex 8.1000 7.0252 -3.8376
        vertex 8.1000 8.4596 -1.9892
        vertex 8.1000 8.2108 -1.9200
    endloop
endfacet
facet normal 7.9614 0.0000 0.0000
    outer loop
        vertex 8.1000 8.6520 -1.9412
        vertex 8.1000 10.0772 -4.1096
        vertex 8.1000 10.4396 -3.7672
    endloop
endfacet
facet normal 3.9164 0.0000 0.0000
    outer loop
        vertex 8.1000 10.4396 -3.7672
        vertex 8.1000 8.8448 -1.7876
        vertex 8.1000 8.6520 -1.9412
    endloop
endfacet
facet normal 7.7227 0.0000 0.0000
    outer loop
        vertex 8.1000 9.6680 -4.3540
        vertex 8.1000 10.0772 -4.1096
        vertex 8.1000 8.6520 -1.9412
    endloop
endfacet
facet normal 3.2062 0.0000 0.0000
    outer loop
        vertex 8.1000 8.6520 -1.9412
        vertex 8.1000 8.4596 -1.9892
        vertex 8.1000 9.6680 -4.3540
    endloop
endfacet
facet normal 9.1154 0.0000 0.0000
    outer loop
        vertex 8.1000 11.5276 -1.1704
        vertex 8.1000 9.1748 -0.8588
        vertex 8.1000 9.0156 -1.4576
    endloop
endfacet
facet normal 10.4627 0.0000 0.0000
    outer loop
        vertex 8.1000 9.0156 -1.4576
        vertex 8.1000 11.3528 -1.8568
        vertex 8.1000 11.5276 -1.1704
    endloop
endfacet
facet normal 5.3296 0.0000 0.0000
    outer loop
        vertex 8.1000 7.9616 -1.7448
        vertex 8.1000 6.2864 -2.5064
        vertex 8.1000 6.4400 -2.9456
    endloop
endfacet
facet normal 7.2305 0.0000 0.0000
    outer loop
        vertex 8.1000 7.8256 -0.4944
        vertex 8.1000 6.0884 -0.7424
        vertex 8.1000 6.1104 -1.4052
    endloop
endfacet
facet normal 5.2171 0.0000 0.0000
    outer loop
        vertex 8.1000 6.1104 -1.4052
        vertex 8.1000 7.7568 -1.0176
        vertex 8.1000 7.8256 -0.4944
    endloop
endfacet
facet normal 6.3031 0.0000 0.0000
    outer loop
        vertex 8.1000 6.1104 -1.4052
        vertex 8.1000 6.1764 -1.9928
        vertex 8.1000 7.8240 -1.3812
    endloop
endfacet
facet normal 3.9042 0.0000 0.0000
    outer loop
        vertex 8.1000 7.8240 -1.3812
        vertex 8.1000 7.7568 -1.0176
        vertex 8.1000 6.1104 -1.4052
    endloop
endfacet
facet normal 4.4619 0.0000 0.0000
    outer loop
        vertex 8.1000 6.2864 -2.5064
        vertex 8.1000 7.9616 -1.7448
        vertex 8.1000 7.8240 -1.3812
    endloop
endfacet
facet normal 5.7093 0.0000 0.0000
    outer loop
        vertex 8.1000 7.8240 -1.3812
        vertex 8.1000 6.1764 -1.9928
        vertex 8.1000 6.2864 -2.5064
    endloop
endfacet
facet normal 3.5364 0.0000 0.0000
    outer loop
        vertex 8.1000 8.2108 -1.9200
        vertex 8.1000 7.9616 -1.7448
        vertex 8.1000 6.4400 -2.9456
    endloop
endfacet
facet normal 7.1216 0.0000 0.0000
    outer loop
        vertex 8.1000 6.4400 -2.9456
        vertex 8.1000 6.7036 -3.4364
        vertex 8.1000 8.2108 -1.9200
    endloop
endfacet
facet normal 6.7353 0.0000 0.0000
    outer loop
        vertex 8.1000 10.4396 -3.7672
        vertex 8.1000 10.7004 -3.4152
        vertex 8.1000 8.8448 -1.7876
    endloop
endfacet
facet normal 4.4655 0.0000 0.0000
    outer loop
        vertex 8.1000 13.3148 0.2324
        vertex 8.1000 13.5232 -0.1568
        vertex 8.1000 15.3292 -0.1012
    endloop
endfacet
facet normal 6.9943 0.0000 0.0000
    outer loop
        vertex 8.1000 15.3292 -0.1012
        vertex 8.1000 15.2588 0.4660
        vertex 8.1000 13.3148 0.2324
    endloop
endfacet
facet normal 7.0381 0.0000 0.0000
    outer loop
        vertex 8.1000 15.3528 -0.7240
        vertex 8.1000 15.3292 -0.1012
        vertex 8.1000 13.5232 -0.1568
    endloop
endfacet
facet normal 5.7498 0.0000 0.0000
    outer loop
        vertex 8.1000 13.5232 -0.1568
        vertex 8.1000 13.5928 -0.6812
        vertex 8.1000 15.3528 -0.7240
    endloop
endfacet
facet normal 8.1043 0.0000 0.0000
    outer loop
        vertex 8.1000 14.6872 1.9612
        vertex 8.1000 14.3196 2.4052
        vertex 8.1000 12.9924 0.4808
    endloop
endfacet
facet normal 5.6142 0.0000 0.0000
    outer loop
        vertex 8.1000 12.9924 0.4808
        vertex 8.1000 13.3148 0.2324
        vertex 8.1000 14.6872 1.9612
    endloop
endfacet
facet normal 7.8872 0.0000 0.0000
    outer loop
        vertex 8.1000 11.3696 3.0828
        vertex 8.1000 10.9588 2.8844
        vertex 8.1000 12.3584 0.4884
    endloop
endfacet
facet normal 5.4531 0.0000 0.0000
    outer loop
        vertex 8.1000 12.3584 0.4884
        vertex 8.1000 12.6700 0.5532
        vertex 8.1000 11.3696 3.0828
    endloop
endfacet
facet normal 6.3876 0.0000 0.0000
    outer loop
        vertex 8.1000 13.3148 0.2324
        vertex 8.1000 15.2588 0.4660
        vertex 8.1000 15.1412 0.9776
    endloop
endfacet
facet normal 9.9109 0.0000 0.0000
    outer loop
        vertex 8.1000 9.1748 -0.8588
        vertex 8.1000 11.5276 -1.1704
        vertex 8.1000 11.6936 -0.5184
    endloop
endfacet
facet normal 10.4532 0.0000 0.0000
    outer loop
        vertex 8.1000 11.6936 -0.5184
        vertex 8.1000 9.3316 -0.1736
        vertex 8.1000 9.1748 -0.8588
    endloop
endfacet
facet normal 0.2834 0.0000 0.0000
    outer loop
        vertex 8.1000 15.1412 0.9776
        vertex 8.1000 14.9772 1.4328
        vertex 8.1000 14.6872 1.9612
    endloop
endfacet
facet normal 13.3423 0.0000 0.0000
    outer loop
        vertex 8.1000 14.6872 1.9612
        vertex 8.1000 13.3148 0.2324
        vertex 8.1000 15.1412 0.9776
    endloop
endfacet
facet normal 8.3457 0.0000 0.0000
    outer loop
        vertex 8.1000 12.9924 0.4808
        vertex 8.1000 14.3196 2.4052
        vertex 8.1000 13.8740 2.7652
    endloop
endfacet
facet normal 5.0020 0.0000 0.0000
    outer loop
        vertex 8.1000 13.8740 2.7652
        vertex 8.1000 12.6700 0.5532
        vertex 8.1000 12.9924 0.4808
    endloop
endfacet
facet normal 8.9051 0.0000 0.0000
    outer loop
        vertex 8.1000 13.3740 3.0300
        vertex 8.1000 12.6700 0.5532
        vertex 8.1000 13.8740 2.7652
    endloop
endfacet
facet normal 17.7874 0.0000 0.0000
    outer loop
        vertex 8.1000 12.2852 3.2420
        vertex 8.1000 12.6700 0.5532
        vertex 8.1000 13.3740 3.0300
    endloop
endfacet
facet normal 0.3789 0.0000 0.0000
    outer loop
        vertex 8.1000 13.3740 3.0300
        vertex 8.1000 12.8444 3.1888
        vertex 8.1000 12.2852 3.2420
    endloop
endfacet
facet normal 0.2419 0.0000 0.0000
    outer loop
        vertex 8.1000 12.2852 3.2420
        vertex 8.1000 11.8120 3.2020
        vertex 8.1000 11.3696 3.0828
    endloop
endfacet
facet normal 15.7695 0.0000 0.0000
    outer loop
        vertex 8.1000 11.3696 3.0828
        vertex 8.1000 12.6700 0.5532
        vertex 8.1000 12.2852 3.2420
    endloop
endfacet
facet normal 8.0964 0.0000 0.0000
    outer loop
        vertex 8.1000 12.3584 0.4884
        vertex 8.1000 10.9588 2.8844
        vertex 8.1000 10.5852 2.5984
    endloop
endfacet
facet normal 6.7823 0.0000 0.0000
    outer loop
        vertex 8.1000 10.5852 2.5984
        vertex 8.1000 12.0468 0.2472
        vertex 8.1000 12.3584 0.4884
    endloop
endfacet
facet normal 7.6298 0.0000 0.0000
    outer loop
        vertex 8.1000 11.6936 -0.5184
        vertex 8.1000 11.8668 -0.0460
        vertex 8.1000 9.6472 0.9484
    endloop
endfacet
facet normal 8.1029 0.0000 0.0000
    outer loop
        vertex 8.1000 9.6472 0.9484
        vertex 8.1000 9.4888 0.4284
        vertex 8.1000 11.6936 -0.5184
    endloop
endfacet
facet normal 9.2258 0.0000 0.0000
    outer loop
        vertex 8.1000 9.3316 -0.1736
        vertex 8.1000 11.6936 -0.5184
        vertex 8.1000 9.4888 0.4284
    endloop
endfacet
facet normal 13.3393 0.0000 0.0000
    outer loop
        vertex 8.1000 6.0884 -0.7424
        vertex 8.1000 7.8256 -0.4944
        vertex 8.1000 6.1908 0.5008
    endloop
endfacet
facet normal 0.2196 0.0000 0.0000
    outer loop
        vertex 8.1000 6.1908 0.5008
        vertex 8.1000 6.1140 -0.0884
        vertex 8.1000 6.0884 -0.7424
    endloop
endfacet
facet normal 5.6971 0.0000 0.0000
    outer loop
        vertex 8.1000 7.8256 -0.4944
        vertex 8.1000 8.0320 -0.0976
        vertex 8.1000 6.3184 1.0244
    endloop
endfacet
facet normal 6.1436 0.0000 0.0000
    outer loop
        vertex 8.1000 6.3184 1.0244
        vertex 8.1000 6.1908 0.5008
        vertex 8.1000 7.8256 -0.4944
    endloop
endfacet
facet normal 6.1138 0.0000 0.0000
    outer loop
        vertex 8.1000 9.8060 1.3864
        vertex 8.1000 12.0468 0.2472
        vertex 8.1000 9.9660 1.7416
    endloop
endfacet
facet normal 0.2977 0.0000 0.0000
    outer loop
        vertex 8.1000 10.5852 2.5984
        vertex 8.1000 10.2544 2.2176
        vertex 8.1000 9.9660 1.7416
    endloop
endfacet
facet normal 16.9260 0.0000 0.0000
    outer loop
        vertex 8.1000 9.9660 1.7416
        vertex 8.1000 12.0468 0.2472
        vertex 8.1000 10.5852 2.5984
    endloop
endfacet
facet normal 7.2648 0.0000 0.0000
    outer loop
        vertex 8.1000 12.0468 0.2472
        vertex 8.1000 9.8060 1.3864
        vertex 8.1000 9.6472 0.9484
    endloop
endfacet
facet normal 5.1861 0.0000 0.0000
    outer loop
        vertex 8.1000 9.6472 0.9484
        vertex 8.1000 11.8668 -0.0460
        vertex 8.1000 12.0468 0.2472
    endloop
endfacet
facet normal 10.7186 0.0000 0.0000
    outer loop
        vertex 8.1000 8.1096 2.8172
        vertex 8.1000 8.9120 0.3392
        vertex 8.1000 8.7592 2.9484
    endloop
endfacet
facet normal 6.8787 0.0000 0.0000
    outer loop
        vertex 8.1000 8.3892 0.1780
        vertex 8.1000 6.4972 1.4828
        vertex 8.1000 6.3184 1.0244
    endloop
endfacet
facet normal 5.4565 0.0000 0.0000
    outer loop
        vertex 8.1000 6.3184 1.0244
        vertex 8.1000 8.0320 -0.0976
        vertex 8.1000 8.3892 0.1780
    endloop
endfacet
facet normal 14.3047 0.0000 0.0000
    outer loop
        vertex 8.1000 6.4972 1.4828
        vertex 8.1000 8.3892 0.1780
        vertex 8.1000 7.0936 2.2812
    endloop
endfacet
facet normal 0.3180 0.0000 0.0000
    outer loop
        vertex 8.1000 7.0936 2.2812
        vertex 8.1000 6.7272 1.8760
        vertex 8.1000 6.4972 1.4828
    endloop
endfacet
facet normal 8.5966 0.0000 0.0000
    outer loop
        vertex 8.1000 7.0936 2.2812
        vertex 8.1000 8.3892 0.1780
        vertex 8.1000 7.5544 2.5948
    endloop
endfacet
facet normal 8.9053 0.0000 0.0000
    outer loop
        vertex 8.1000 8.3892 0.1780
        vertex 8.1000 8.9120 0.3392
        vertex 8.1000 8.1096 2.8172
    endloop
endfacet
facet normal 9.5467 0.0000 0.0000
    outer loop
        vertex 8.1000 8.1096 2.8172
        vertex 8.1000 7.5544 2.5948
        vertex 8.1000 8.3892 0.1780
    endloop
endfacet
facet normal 7.9573 0.0000 0.0000
    outer loop
        vertex 8.1000 15.3284 -1.4468
        vertex 8.1000 15.3528 -0.7240
        vertex 8.1000 13.5928 -0.6812
    endloop
endfacet
facet normal 5.5956 0.0000 0.0000
    outer loop
        vertex 8.1000 13.5928 -0.6812
        vertex 8.1000 13.5324 -1.1704
        vertex 8.1000 15.3284 -1.4468
    endloop
endfacet
facet normal 22.4534 0.0000 0.0000
    outer loop
        vertex 8.1000 19.2000 -9.7512
        vertex 8.1000 14.1016 -4.2112
        vertex 8.1000 13.6924 -4.4712
    endloop
endfacet
facet normal 23.1006 0.0000 0.0000
    outer loop
        vertex 8.1000 14.1016 -4.2112
        vertex 8.1000 19.2000 -9.7512
        vertex 8.1000 14.4728 -3.8896
    endloop
endfacet
facet normal 19.6682 0.0000 0.0000
    outer loop
        vertex 8.1000 14.7416 -3.5572
        vertex 8.1000 14.4728 -3.8896
        vertex 8.1000 19.2000 -9.7512
    endloop
endfacet
facet normal 19.9525 0.0000 0.0000
    outer loop
        vertex 8.1000 14.9616 -3.1468
        vertex 8.1000 14.7416 -3.5572
        vertex 8.1000 19.2000 -9.7512
    endloop
endfacet
facet normal 20.0044 0.0000 0.0000
    outer loop
        vertex 8.1000 19.2000 -9.7512
        vertex 8.1000 15.1328 -2.6584
        vertex 8.1000 14.9616 -3.1468
    endloop
endfacet
facet normal 23.7615 0.0000 0.0000
    outer loop
        vertex 8.1000 10.7004 -3.4152
        vertex 8.1000 12.2360 -4.8856
        vertex 8.1000 12.0712 -2.2520
    endloop
endfacet
facet normal 1.9959 0.0000 0.0000
    outer loop
        vertex 8.1000 12.0712 -2.2520
        vertex 8.1000 10.9392 -2.9796
        vertex 8.1000 10.7004 -3.4152
    endloop
endfacet
facet normal 19.2654 0.0000 0.0000
    outer loop
        vertex 8.1000 12.7596 -4.8088
        vertex 8.1000 12.2360 -4.8856
        vertex 8.1000 19.2000 -9.7512
    endloop
endfacet
facet normal 21.6146 0.0000 0.0000
    outer loop
        vertex 8.1000 13.6924 -4.4712
        vertex 8.1000 13.2452 -4.6704
        vertex 8.1000 19.2000 -9.7512
    endloop
endfacet
facet normal 20.5711 0.0000 0.0000
    outer loop
        vertex 8.1000 12.7596 -4.8088
        vertex 8.1000 19.2000 -9.7512
        vertex 8.1000 13.2452 -4.6704
    endloop
endfacet
facet normal 211.6229 0.0000 0.0000
    outer loop
        vertex 8.1000 8.7100 -4.5496
        vertex 8.1000 3.2000 -5.0452
        vertex 8.1000 19.2000 -9.7512
    endloop
endfacet
facet normal 92.6013 0.0000 0.0000
    outer loop
        vertex 8.1000 19.2000 -9.7512
        vertex 8.1000 12.2360 -4.8856
        vertex 8.1000 8.7100 -4.5496
    endloop
endfacet
facet normal 19.8340 0.0000 0.0000
    outer loop
        vertex 8.1000 15.2552 -2.0916
        vertex 8.1000 15.1328 -2.6584
        vertex 8.1000 19.2000 -9.7512
    endloop
endfacet
facet normal 19.4018 0.0000 0.0000
    outer loop
        vertex 8.1000 15.2552 -2.0916
        vertex 8.1000 19.2000 -9.7512
        vertex 8.1000 15.3284 -1.4468
    endloop
endfacet
facet normal 3.1925 0.0000 0.0000
    outer loop
        vertex 8.1000 11.3528 -1.8568
        vertex 8.1000 11.1568 -2.4600
        vertex 8.1000 12.0712 -2.2520
    endloop
endfacet
facet normal 2.6866 0.0000 0.0000
    outer loop
        vertex 8.1000 11.1568 -2.4600
        vertex 8.1000 10.9392 -2.9796
        vertex 8.1000 12.0712 -2.2520
    endloop
endfacet
facet normal 5.7964 0.0000 0.0000
    outer loop
        vertex 8.1000 12.6364 -2.1220
        vertex 8.1000 11.5276 -1.1704
        vertex 8.1000 11.3528 -1.8568
    endloop
endfacet
facet normal 1.9797 0.0000 0.0000
    outer loop
        vertex 8.1000 11.3528 -1.8568
        vertex 8.1000 12.0712 -2.2520
        vertex 8.1000 12.6364 -2.1220
    endloop
endfacet
facet normal 0.4275 0.0000 0.0000
    outer loop
        vertex 8.1000 12.6364 -2.1220
        vertex 8.1000 13.0488 -1.9036
        vertex 8.1000 13.3512 -1.5776
    endloop
endfacet
facet normal 8.0240 0.0000 0.0000
    outer loop
        vertex 8.1000 13.3512 -1.5776
        vertex 8.1000 11.5276 -1.1704
        vertex 8.1000 12.6364 -2.1220
    endloop
endfacet
facet normal 16.6593 0.0000 0.0000
    outer loop
        vertex 8.1000 19.2000 4.0000
        vertex 8.1000 15.3528 -0.7240
        vertex 8.1000 15.3284 -1.4468
    endloop
endfacet
facet normal 332.7447 0.0000 0.0000
    outer loop
        vertex 8.1000 15.3284 -1.4468
        vertex 8.1000 19.2000 -9.7512
        vertex 8.1000 19.2000 4.0000
    endloop
endfacet
facet normal 5.2822 0.0000 0.0000
    outer loop
        vertex 8.1000 10.0772 -4.1096
        vertex 8.1000 9.6680 -4.3540
        vertex 8.1000 12.2360 -4.8856
    endloop
endfacet
facet normal 6.3775 0.0000 0.0000
    outer loop
        vertex 8.1000 10.4396 -3.7672
        vertex 8.1000 10.0772 -4.1096
        vertex 8.1000 12.2360 -4.8856
    endloop
endfacet
facet normal 3.8699 0.0000 0.0000
    outer loop
        vertex 8.1000 9.2124 -4.5008
        vertex 8.1000 12.2360 -4.8856
        vertex 8.1000 9.6680 -4.3540
    endloop
endfacet
facet normal 5.6912 0.0000 0.0000
    outer loop
        vertex 8.1000 3.2000 -5.0452
        vertex 8.1000 8.2584 -4.5052
        vertex 8.1000 7.8236 -4.3716
    endloop
endfacet
facet normal 2.9279 0.0000 0.0000
    outer loop
        vertex 8.1000 8.2584 -4.5052
        vertex 8.1000 3.2000 -5.0452
        vertex 8.1000 8.7100 -4.5496
    endloop
endfacet
facet normal 8.1750 0.0000 0.0000
    outer loop
        vertex 8.1000 3.2000 -5.0452
        vertex 8.1000 7.8236 -4.3716
        vertex 8.1000 7.4056 -4.1496
    endloop
endfacet
facet normal 12.0190 0.0000 0.0000
    outer loop
        vertex 8.1000 7.0252 -3.8376
        vertex 8.1000 6.7036 -3.4364
        vertex 8.1000 3.2000 -5.0452
    endloop
endfacet
facet normal 10.3302 0.0000 0.0000
    outer loop
        vertex 8.1000 7.4056 -4.1496
        vertex 8.1000 7.0252 -3.8376
        vertex 8.1000 3.2000 -5.0452
    endloop
endfacet
facet normal 13.3978 0.0000 0.0000
    outer loop
        vertex 8.1000 3.2000 -5.0452
        vertex 8.1000 6.7036 -3.4364
        vertex 8.1000 6.4400 -2.9456
    endloop
endfacet
facet normal 2.1305 0.0000 0.0000
    outer loop
        vertex 8.1000 8.7100 -4.5496
        vertex 8.1000 12.2360 -4.8856
        vertex 8.1000 9.2124 -4.5008
    endloop
endfacet
facet normal 1.1663 0.0000 0.0000
    outer loop
        vertex 8.1000 8.2108 -1.9200
        vertex 8.1000 8.8448 -1.7876
        vertex 8.1000 9.0156 -1.4576
    endloop
endfacet
facet normal 1.6014 0.0000 0.0000
    outer loop
        vertex 8.1000 9.0156 -1.4576
        vertex 8.1000 7.9616 -1.7448
        vertex 8.1000 8.2108 -1.9200
    endloop
endfacet
facet normal 0.4801 0.0000 0.0000
    outer loop
        vertex 8.1000 8.8448 -1.7876
        vertex 8.1000 8.2108 -1.9200
        vertex 8.1000 8.4596 -1.9892
    endloop
endfacet
facet normal 0.1269 0.0000 0.0000
    outer loop
        vertex 8.1000 8.4596 -1.9892
        vertex 8.1000 8.6520 -1.9412
        vertex 8.1000 8.8448 -1.7876
    endloop
endfacet
facet normal 11.6528 0.0000 0.0000
    outer loop
        vertex 8.1000 6.2864 -2.5064
        vertex 8.1000 6.1764 -1.9928
        vertex 8.1000 3.2000 -5.0452
    endloop
endfacet
facet normal 10.9094 0.0000 0.0000
    outer loop
        vertex 8.1000 6.4400 -2.9456
        vertex 8.1000 6.2864 -2.5064
        vertex 8.1000 3.2000 -5.0452
    endloop
endfacet
facet normal 2.6422 0.0000 0.0000
    outer loop
        vertex 8.1000 7.8240 -1.3812
        vertex 8.1000 7.9616 -1.7448
        vertex 8.1000 9.0156 -1.4576
    endloop
endfacet
facet normal 3.2891 0.0000 0.0000
    outer loop
        vertex 8.1000 9.1748 -0.8588
        vertex 8.1000 7.7568 -1.0176
        vertex 8.1000 7.8240 -1.3812
    endloop
endfacet
facet normal 4.5356 0.0000 0.0000
    outer loop
        vertex 8.1000 7.8240 -1.3812
        vertex 8.1000 9.0156 -1.4576
        vertex 8.1000 9.1748 -0.8588
    endloop
endfacet
facet normal 12.1899 0.0000 0.0000
    outer loop
        vertex 8.1000 6.1764 -1.9928
        vertex 8.1000 6.1104 -1.4052
        vertex 8.1000 3.2000 -5.0452
    endloop
endfacet
facet normal 5.7751 0.0000 0.0000
    outer loop
        vertex 8.1000 10.4396 -3.7672
        vertex 8.1000 12.2360 -4.8856
        vertex 8.1000 10.7004 -3.4152
    endloop
endfacet
facet normal 12.5568 0.0000 0.0000
    outer loop
        vertex 8.1000 3.2000 -5.0452
        vertex 8.1000 6.1104 -1.4052
        vertex 8.1000 6.0884 -0.7424
    endloop
endfacet
facet normal 5.1022 0.0000 0.0000
    outer loop
        vertex 8.1000 11.5276 -1.1704
        vertex 8.1000 13.3512 -1.5776
        vertex 8.1000 13.5324 -1.1704
    endloop
endfacet
facet normal 8.1696 0.0000 0.0000
    outer loop
        vertex 8.1000 13.5324 -1.1704
        vertex 8.1000 11.6936 -0.5184
        vertex 8.1000 11.5276 -1.1704
    endloop
endfacet
facet normal 6.1348 0.0000 0.0000
    outer loop
        vertex 8.1000 11.8668 -0.0460
        vertex 8.1000 11.6936 -0.5184
        vertex 8.1000 13.5324 -1.1704
    endloop
endfacet
facet normal 5.5170 0.0000 0.0000
    outer loop
        vertex 8.1000 13.5324 -1.1704
        vertex 8.1000 13.5928 -0.6812
        vertex 8.1000 11.8668 -0.0460
    endloop
endfacet
facet normal 15.5265 0.0000 0.0000
    outer loop
        vertex 8.1000 15.2588 0.4660
        vertex 8.1000 15.3292 -0.1012
        vertex 8.1000 19.2000 4.0000
    endloop
endfacet
facet normal 15.1995 0.0000 0.0000
    outer loop
        vertex 8.1000 15.1412 0.9776
        vertex 8.1000 15.2588 0.4660
        vertex 8.1000 19.2000 4.0000
    endloop
endfacet
facet normal 15.6720 0.0000 0.0000
    outer loop
        vertex 8.1000 15.3528 -0.7240
        vertex 8.1000 19.2000 4.0000
        vertex 8.1000 15.3292 -0.1012
    endloop
endfacet
facet normal 0.5137 0.0000 0.0000
    outer loop
        vertex 8.1000 13.5928 -0.6812
        vertex 8.1000 13.5232 -0.1568
        vertex 8.1000 13.3148 0.2324
    endloop
endfacet
facet normal 8.7518 0.0000 0.0000
    outer loop
        vertex 8.1000 13.3148 0.2324
        vertex 8.1000 11.8668 -0.0460
        vertex 8.1000 13.5928 -0.6812
    endloop
endfacet
facet normal 3.9809 0.0000 0.0000
    outer loop
        vertex 8.1000 11.8668 -0.0460
        vertex 8.1000 13.3148 0.2324
        vertex 8.1000 12.3584 0.4884
    endloop
endfacet
facet normal 0.2997 0.0000 0.0000
    outer loop
        vertex 8.1000 12.3584 0.4884
        vertex 8.1000 12.0468 0.2472
        vertex 8.1000 11.8668 -0.0460
    endloop
endfacet
facet normal 0.8859 0.0000 0.0000
    outer loop
        vertex 8.1000 12.6700 0.5532
        vertex 8.1000 12.3584 0.4884
        vertex 8.1000 13.3148 0.2324
    endloop
endfacet
facet normal 0.3546 0.0000 0.0000
    outer loop
        vertex 8.1000 13.3148 0.2324
        vertex 8.1000 12.9924 0.4808
        vertex 8.1000 12.6700 0.5532
    endloop
endfacet
facet normal 18.5988 0.0000 0.0000
    outer loop
        vertex 8.1000 14.6872 1.9612
        vertex 8.1000 14.9772 1.4328
        vertex 8.1000 19.2000 4.0000
    endloop
endfacet
facet normal 15.4224 0.0000 0.0000
    outer loop
        vertex 8.1000 14.3196 2.4052
        vertex 8.1000 19.2000 4.0000
        vertex 8.1000 13.8740 2.7652
    endloop
endfacet
facet normal 17.2072 0.0000 0.0000
    outer loop
        vertex 8.1000 19.2000 4.0000
        vertex 8.1000 14.3196 2.4052
        vertex 8.1000 14.6872 1.9612
    endloop
endfacet
facet normal 12.6733 0.0000 0.0000
    outer loop
        vertex 8.1000 13.8740 2.7652
        vertex 8.1000 19.2000 4.0000
        vertex 8.1000 13.3740 3.0300
    endloop
endfacet
facet normal 14.6452 0.0000 0.0000
    outer loop
        vertex 8.1000 14.9772 1.4328
        vertex 8.1000 15.1412 0.9776
        vertex 8.1000 19.2000 4.0000
    endloop
endfacet
facet normal 2.8918 0.0000 0.0000
    outer loop
        vertex 8.1000 10.9588 2.8844
        vertex 8.1000 11.3696 3.0828
        vertex 8.1000 8.7592 2.9484
    endloop
endfacet
facet normal 3.7131 0.0000 0.0000
    outer loop
        vertex 8.1000 6.4000 4.0000
        vertex 8.1000 11.8120 3.2020
        vertex 8.1000 12.2852 3.2420
    endloop
endfacet
facet normal 8.9930 0.0000 0.0000
    outer loop
        vertex 8.1000 13.3740 3.0300
        vertex 8.1000 19.2000 4.0000
        vertex 8.1000 12.8444 3.1888
    endloop
endfacet
facet normal 64.8960 0.0000 0.0000
    outer loop
        vertex 8.1000 12.8444 3.1888
        vertex 8.1000 19.2000 4.0000
        vertex 8.1000 6.4000 4.0000
    endloop
endfacet
facet normal 0.6924 0.0000 0.0000
    outer loop
        vertex 8.1000 6.4000 4.0000
        vertex 8.1000 12.2852 3.2420
        vertex 8.1000 12.8444 3.1888
    endloop
endfacet
facet normal 0.2897 0.0000 0.0000
    outer loop
        vertex 8.1000 9.4888 0.4284
        vertex 8.1000 8.9120 0.3392
        vertex 8.1000 8.3892 0.1780
    endloop
endfacet
facet normal 3.8912 0.0000 0.0000
    outer loop
        vertex 8.1000 8.3892 0.1780
        vertex 8.1000 9.3316 -0.1736
        vertex 8.1000 9.4888 0.4284
    endloop
endfacet
facet normal 7.8804 0.0000 0.0000
    outer loop
        vertex 8.1000 7.7568 -1.0176
        vertex 8.1000 9.1748 -0.8588
        vertex 8.1000 8.0320 -0.0976
    endloop
endfacet
facet normal 0.5043 0.0000 0.0000
    outer loop
        vertex 8.1000 8.0320 -0.0976
        vertex 8.1000 7.8256 -0.4944
        vertex 8.1000 7.7568 -1.0176
    endloop
endfacet
facet normal 2.1060 0.0000 0.0000
    outer loop
        vertex 8.1000 6.1908 0.5008
        vertex 8.1000 6.3184 1.0244
        vertex 8.1000 6.4000 4.0000
    endloop
endfacet
facet normal 58.1574 0.0000 0.0000
    outer loop
        vertex 8.1000 6.4000 4.0000
        vertex 8.1000 3.2000 -5.0452
        vertex 8.1000 6.1908 0.5008
    endloop
endfacet
facet normal 8.3515 0.0000 0.0000
    outer loop
        vertex 8.1000 3.2000 -5.0452
        vertex 8.1000 6.1140 -0.0884
        vertex 8.1000 6.1908 0.5008
    endloop
endfacet
facet normal 4.8660 0.0000 0.0000
    outer loop
        vertex 8.1000 9.4888 0.4284
        vertex 8.1000 9.6472 0.9484
        vertex 8.1000 8.7592 2.9484
    endloop
endfacet
facet normal 9.4914 0.0000 0.0000
    outer loop
        vertex 8.1000 8.7592 2.9484
        vertex 8.1000 8.9120 0.3392
        vertex 8.1000 9.4888 0.4284
    endloop
endfacet
facet normal 5.6400 0.0000 0.0000
    outer loop
        vertex 8.1000 8.0320 -0.0976
        vertex 8.1000 9.1748 -0.8588
        vertex 8.1000 9.3316 -0.1736
    endloop
endfacet
facet normal 2.4082 0.0000 0.0000
    outer loop
        vertex 8.1000 9.3316 -0.1736
        vertex 8.1000 8.3892 0.1780
        vertex 8.1000 8.0320 -0.0976
    endloop
endfacet
facet normal 3.8859 0.0000 0.0000
    outer loop
        vertex 8.1000 9.8060 1.3864
        vertex 8.1000 9.9660 1.7416
        vertex 8.1000 8.7592 2.9484
    endloop
endfacet
facet normal 5.0695 0.0000 0.0000
    outer loop
        vertex 8.1000 10.2544 2.2176
        vertex 8.1000 10.5852 2.5984
        vertex 8.1000 8.7592 2.9484
    endloop
endfacet
facet normal 4.0812 0.0000 0.0000
    outer loop
        vertex 8.1000 10.5852 2.5984
        vertex 8.1000 10.9588 2.8844
        vertex 8.1000 8.7592 2.9484
    endloop
endfacet
facet normal 5.7655 0.0000 0.0000
    outer loop
        vertex 8.1000 10.2544 2.2176
        vertex 8.1000 8.7592 2.9484
        vertex 8.1000 9.9660 1.7416
    endloop
endfacet
facet normal 5.6926 0.0000 0.0000
    outer loop
        vertex 8.1000 6.7272 1.8760
        vertex 8.1000 7.0936 2.2812
        vertex 8.1000 6.4000 4.0000
    endloop
endfacet
facet normal 3.8573 0.0000 0.0000
    outer loop
        vertex 8.1000 6.4972 1.4828
        vertex 8.1000 6.7272 1.8760
        vertex 8.1000 6.4000 4.0000
    endloop
endfacet
facet normal 6.4807 0.0000 0.0000
    outer loop
        vertex 8.1000 7.5544 2.5948
        vertex 8.1000 8.1096 2.8172
        vertex 8.1000 6.4000 4.0000
    endloop
endfacet
facet normal 6.2040 0.0000 0.0000
    outer loop
        vertex 8.1000 6.4000 4.0000
        vertex 8.1000 8.1096 2.8172
        vertex 8.1000 8.7592 2.9484
    endloop
endfacet
facet normal 6.3096 0.0000 0.0000
    outer loop
        vertex 8.1000 7.5544 2.5948
        vertex 8.1000 6.4000 4.0000
        vertex 8.1000 7.0936 2.2812
    endloop
endfacet
facet normal 3.0914 0.0000 0.0000
    outer loop
        vertex 8.1000 6.4972 1.4828
        vertex 8.1000 6.4000 4.0000
        vertex 8.1000 6.3184 1.0244
    endloop
endfacet
facet normal 6.2384 0.0000 0.0000
    outer loop
        vertex 8.1000 11.3696 3.0828
        vertex 8.1000 11.8120 3.2020
        vertex 8.1000 6.4000 4.0000
    endloop
endfacet
facet normal 19.1386 0.0000 0.0000
    outer loop
        vertex 8.1000 6.4000 4.0000
        vertex 8.1000 8.7592 2.9484
        vertex 8.1000 11.3696 3.0828
    endloop
endfacet
facet normal 4.4159 0.0000 0.0000
    outer loop
        vertex 8.1000 9.6472 0.9484
        vertex 8.1000 9.8060 1.3864
        vertex 8.1000 8.7592 2.9484
    endloop
endfacet
facet normal 11.1179 0.0000 0.0000
    outer loop
        vertex 8.1000 3.2000 -5.0452
        vertex 8.1000 6.0884 -0.7424
        vertex 8.1000 6.1140 -0.0884
    endloop
endfacet
facet normal 2080.0000 0.0000 0.0000
    outer loop
        vertex -8.0000 27.2000 -12.0000
        vertex -8.0000 27.2000 4.0000
        vertex -8.0000 6.4000 4.0000
    endloop
endfacet
facet normal 1680.0000 0.0000 0.0000
    outer loop
        vertex -8.0000 6.4000 4.0000
        vertex -8.0000 0.0000 -4.0000
        vertex -8.0000 27.2000 -12.0000
    endloop
endfacet
facet normal 320.0000 0.0000 0.0000
    outer loop
        vertex -8.0000 0.0000 -4.0000
        vertex -8.0000 6.4000 4.0000
        vertex -8.0000 6.4000 12.0000
    endloop
endfacet
facet normal 640.0000 0.0000 0.0000
    outer loop
        vertex -8.0000 6.4000 12.0000
        vertex -8.0000 0.0000 12.0000
        vertex -8.0000 0.0000 -4.0000
    endloop
endfacet
facet normal 0.0000 10.0000 0.0000
    outer loop
        vertex -8.0000 27.2000 4.0000
        vertex -8.0000 27.2000 -12.0000
        vertex -8.1000 27.2000 -12.0000
    endloop
endfacet
facet normal 0.0000 10.0000 0.0000
    outer loop
        vertex -8.1000 27.2000 -12.0000
        vertex -8.1000 27.2000 4.0000
        vertex -8.0000 27.2000 4.0000
    endloop
endfacet
facet normal 0.0000 0.0000 13.0000
    outer loop
        vertex -8.0000 27.2000 4.0000
        vertex -8.1000 27.2000 4.0000
        vertex -8.1000 6.4000 4.0000
    endloop
endfacet
facet normal 0.0000 0.0000 13.0000
    outer loop
        vertex -8.1000 6.4000 4.0000
        vertex -8.0000 6.4000 4.0000
        vertex -8.0000 27.2000 4.0000
    endloop
endfacet
facet normal 0.0000 5.0000 0.0000
    outer loop
        vertex -8.0000 6.4000 4.0000
        vertex -8.1000 6.4000 4.0000
        vertex -8.1000 6.4000 12.0000
    endloop
endfacet
facet normal 0.0000 5.0000 0.0000
    outer loop
        vertex -8.1000 6.4000 12.0000
        vertex -8.0000 6.4000 12.0000
        vertex -8.0000 6.4000 4.0000
    endloop
endfacet
facet normal 0.0000 0.0000 4.0000
    outer loop
        vertex -8.0000 6.4000 12.0000
        vertex -8.1000 6.4000 12.0000
        vertex -8.1000 0.0000 12.0000
    endloop
endfacet
facet normal 0.0000 0.0000 4.0000
    outer loop
        vertex -8.1000 0.0000 12.0000
        vertex -8.0000 0.0000 12.0000
        vertex -8.0000 6.4000 12.0000
    endloop
endfacet
facet normal 0.0000 -10.0000 0.0000
    outer loop
        vertex -8.1000 0.0000 -4.1044
        vertex -8.0000 0.0000 -4.0000
        vertex -8.0000 0.0000 12.0000
    endloop
endfacet
facet normal 0.0000 -10.0652 0.0000
    outer loop
        vertex -8.0000 0.0000 12.0000
        vertex -8.1000 0.0000 12.0000
        vertex -8.1000 0.0000 -4.1044
    endloop
endfacet
facet normal 0.0000 0.0600 -0.0175
    outer loop
        vertex -8.1000 27.1720 -12.0960
        vertex -8.1000 27.2000 -12.0000
        vertex -8.0000 27.2000 -12.0000
    endloop
endfacet
facet normal -800.0000 0.0000 0.0000
    outer loop
        vertex -8.1000 27.2000 4.0000
        vertex -8.1000 27.2000 -12.0000
        vertex -8.1000 19.2000 -9.7512
    endloop
endfacet
facet normal -687.5600 0.0000 0.0000
    outer loop
        vertex -8.1000 19.2000 -9.7512
        vertex -8.1000 19.2000 4.0000
        vertex -8.1000 27.2000 4.0000
    endloop
endfacet
facet normal -160.0000 0.0000 0.0000
    outer loop
        vertex -8.1000 6.4000 12.0000
        vertex -8.1000 6.4000 4.0000
        vertex -8.1000 3.2000 -5.0452
    endloop
endfacet
facet normal -340.9040 0.0000 0.0000
    outer loop
        vertex -8.1000 3.2000 -5.0452
        vertex -8.1000 3.2000 12.0000
        vertex -8.1000 6.4000 12.0000
    endloop
endfacet
facet normal -340.9040 0.0000 0.0000
    outer loop
        vertex -8.1000 3.2000 12.0000
        vertex -8.1000 3.2000 -5.0452
        vertex -8.1000 0.0000 -4.1044
    endloop
endfacet
facet normal -322.0880 0.0000 0.0000
    outer loop
        vertex -8.1000 0.0000 -4.1044
        vertex -8.1000 0.0000 12.0000
        vertex -8.1000 3.2000 12.0000
    endloop
endfacet
facet normal -5.1935 0.0000 0.0000
    outer loop
        vertex -8.1000 27.2000 -12.0000
        vertex -8.1000 27.1720 -12.0960
        vertex -8.1000 19.2000 -9.7512
    endloop
endfacet
facet normal -7.7241 0.0000 0.0000
    outer loop
        vertex -8.1000 14.1016 2.6112
        vertex -8.1000 12.6364 0.5220
        vertex -8.1000 13.6924 2.8712
    endloop
endfacet
facet normal -7.7920 0.0000 0.0000
    outer loop
        vertex -8.1000 12.6364 0.5220
        vertex -8.1000 14.1016 2.6112
        vertex -8.1000 14.4728 2.2896
    endloop
endfacet
facet normal -7.0627 0.0000 0.0000
    outer loop
        vertex -8.1000 14.4728 2.2896
        vertex -8.1000 13.0488 0.3036
        vertex -8.1000 12.6364 0.5220
    endloop
endfacet
facet normal -0.2324 0.0000 0.0000
    outer loop
        vertex -8.1000 14.4728 2.2896
        vertex -8.1000 14.7416 1.9572
        vertex -8.1000 14.9616 1.5468
    endloop
endfacet
facet normal -12.6782 0.0000 0.0000
    outer loop
        vertex -8.1000 14.9616 1.5468
        vertex -8.1000 13.0488 0.3036
        vertex -8.1000 14.4728 2.2896
    endloop
endfacet
facet normal -8.2211 0.0000 0.0000
    outer loop
        vertex -8.1000 12.0712 0.6520
        vertex -8.1000 13.2452 3.0704
        vertex -8.1000 13.6924 2.8712
    endloop
endfacet
facet normal -9.1565 0.0000 0.0000
    outer loop
        vertex -8.1000 13.6924 2.8712
        vertex -8.1000 12.6364 0.5220
        vertex -8.1000 12.0712 0.6520
    endloop
endfacet
facet normal -16.8331 0.0000 0.0000
    outer loop
        vertex -8.1000 13.2452 3.0704
        vertex -8.1000 12.0712 0.6520
        vertex -8.1000 12.2360 3.2856
    endloop
endfacet
facet normal -0.2198 0.0000 0.0000
    outer loop
        vertex -8.1000 12.2360 3.2856
        vertex -8.1000 12.7596 3.2088
        vertex -8.1000 13.2452 3.0704
    endloop
endfacet
facet normal -6.2470 0.0000 0.0000
    outer loop
        vertex -8.1000 13.3512 -0.0224
        vertex -8.1000 13.0488 0.3036
        vertex -8.1000 14.9616 1.5468
    endloop
endfacet
facet normal -6.5948 0.0000 0.0000
    outer loop
        vertex -8.1000 14.9616 1.5468
        vertex -8.1000 15.1328 1.0584
        vertex -8.1000 13.3512 -0.0224
    endloop
endfacet
facet normal -4.8838 0.0000 0.0000
    outer loop
        vertex -8.1000 15.3284 -0.1532
        vertex -8.1000 13.5324 -0.4296
        vertex -8.1000 13.3512 -0.0224
    endloop
endfacet
facet normal -7.9083 0.0000 0.0000
    outer loop
        vertex -8.1000 13.3512 -0.0224
        vertex -8.1000 15.2552 0.4916
        vertex -8.1000 15.3284 -0.1532
    endloop
endfacet
facet normal -9.5399 0.0000 0.0000
    outer loop
        vertex -8.1000 8.8448 0.1876
        vertex -8.1000 11.1568 0.8600
        vertex -8.1000 11.3528 0.2568
    endloop
endfacet
facet normal -5.2466 0.0000 0.0000
    outer loop
        vertex -8.1000 11.3528 0.2568
        vertex -8.1000 9.0156 -0.1424
        vertex -8.1000 8.8448 0.1876
    endloop
endfacet
facet normal -0.1831 0.0000 0.0000
    outer loop
        vertex -8.1000 10.7004 1.8152
        vertex -8.1000 10.9392 1.3796
        vertex -8.1000 11.1568 0.8600
    endloop
endfacet
facet normal -15.7207 0.0000 0.0000
    outer loop
        vertex -8.1000 11.1568 0.8600
        vertex -8.1000 8.8448 0.1876
        vertex -8.1000 10.7004 1.8152
    endloop
endfacet
facet normal -7.1381 0.0000 0.0000
    outer loop
        vertex -8.1000 13.3512 -0.0224
        vertex -8.1000 15.1328 1.0584
        vertex -8.1000 15.2552 0.4916
    endloop
endfacet
facet normal -10.4627 0.0000 0.0000
    outer loop
        vertex -8.1000 9.0156 -0.1424
        vertex -8.1000 11.3528 0.2568
        vertex -8.1000 11.5276 -0.4296
    endloop
endfacet
facet normal -9.1154 0.0000 0.0000
    outer loop
        vertex -8.1000 11.5276 -0.4296
        vertex -8.1000 9.1748 -0.7412
        vertex -8.1000 9.0156 -0.1424
    endloop
endfacet
facet normal -0.2772 0.0000 0.0000
    outer loop
        vertex -8.1000 8.2584 2.9052
        vertex -8.1000 8.7100 2.9496
        vertex -8.1000 9.2124 2.9008
    endloop
endfacet
facet normal -14.9961 0.0000 0.0000
    outer loop
        vertex -8.1000 9.2124 2.9008
        vertex -8.1000 8.4596 0.3892
        vertex -8.1000 8.2584 2.9052
    endloop
endfacet
facet normal -7.8425 0.0000 0.0000
    outer loop
        vertex -8.1000 9.6680 2.7540
        vertex -8.1000 8.4596 0.3892
        vertex -8.1000 9.2124 2.9008
    endloop
endfacet
facet normal -7.0052 0.0000 0.0000
    outer loop
        vertex -8.1000 7.8236 2.7716
        vertex -8.1000 8.2584 2.9052
        vertex -8.1000 8.4596 0.3892
    endloop
endfacet
facet normal -14.0108 0.0000 0.0000
    outer loop
        vertex -8.1000 7.8236 2.7716
        vertex -8.1000 8.4596 0.3892
        vertex -8.1000 7.0252 2.2376
    endloop
endfacet
facet normal -0.2873 0.0000 0.0000
    outer loop
        vertex -8.1000 7.0252 2.2376
        vertex -8.1000 7.4056 2.5496
        vertex -8.1000 7.8236 2.7716
    endloop
endfacet
facet normal -6.8273 0.0000 0.0000
    outer loop
        vertex -8.1000 8.2108 0.3200
        vertex -8.1000 6.7036 1.8364
        vertex -8.1000 7.0252 2.2376
    endloop
endfacet
facet normal -3.4946 0.0000 0.0000
    outer loop
        vertex -8.1000 7.0252 2.2376
        vertex -8.1000 8.4596 0.3892
        vertex -8.1000 8.2108 0.3200
    endloop
endfacet
facet normal -7.9614 0.0000 0.0000
    outer loop
        vertex -8.1000 8.6520 0.3412
        vertex -8.1000 10.0772 2.5096
        vertex -8.1000 10.4396 2.1672
    endloop
endfacet
facet normal -3.9164 0.0000 0.0000
    outer loop
        vertex -8.1000 10.4396 2.1672
        vertex -8.1000 8.8448 0.1876
        vertex -8.1000 8.6520 0.3412
    endloop
endfacet
facet normal -7.7227 0.0000 0.0000
    outer loop
        vertex -8.1000 9.6680 2.7540
        vertex -8.1000 10.0772 2.5096
        vertex -8.1000 8.6520 0.3412
    endloop
endfacet
facet normal -3.2062 0.0000 0.0000
    outer loop
        vertex -8.1000 8.6520 0.3412
        vertex -8.1000 8.4596 0.3892
        vertex -8.1000 9.6680 2.7540
    endloop
endfacet
facet normal -5.3296 0.0000 0.0000
    outer loop
        vertex -8.1000 7.9616 0.1448
        vertex -8.1000 6.2864 0.9064
        vertex -8.1000 6.4400 1.3456
    endloop
endfacet
facet normal -7.2305 0.0000 0.0000
    outer loop
        vertex -8.1000 7.8256 -1.1056
        vertex -8.1000 6.0884 -0.8576
        vertex -8.1000 6.1104 -0.1948
    endloop
endfacet
facet normal -5.2171 0.0000 0.0000
    outer loop
        vertex -8.1000 6.1104 -0.1948
        vertex -8.1000 7.7568 -0.5824
        vertex -8.1000 7.8256 -1.1056
    endloop
endfacet
facet normal -6.3031 0.0000 0.0000
    outer loop
        vertex -8.1000 6.1104 -0.1948
        vertex -8.1000 6.1764 0.3928
        vertex -8.1000 7.8240 -0.2188
    endloop
endfacet
facet normal -3.9042 0.0000 0.0000
    outer loop
        vertex -8.1000 7.8240 -0.2188
        vertex -8.1000 7.7568 -0.5824
        vertex -8.1000 6.1104 -0.1948
    endloop
endfacet
facet normal -4.4619 0.0000 0.0000
    outer loop
        vertex -8.1000 6.2864 0.9064
        vertex -8.1000 7.9616 0.1448
        vertex -8.1000 7.8240 -0.2188
    endloop
endfacet
facet normal -5.7093 0.0000 0.0000
    outer loop
        vertex -8.1000 7.8240 -0.2188
        vertex -8.1000 6.1764 0.3928
        vertex -8.1000 6.2864 0.9064
    endloop
endfacet
facet normal -3.5364 0.0000 0.0000
    outer loop
        vertex -8.1000 8.2108 0.3200
        vertex -8.1000 7.9616 0.1448
        vertex -8.1000 6.4400 1.3456
    endloop
endfacet
facet normal -7.1216 0.0000 0.0000
    outer loop
        vertex -8.1000 6.4400 1.3456
        vertex -8.1000 6.7036 1.8364
        vertex -8.1000 8.2108 0.3200
    endloop
endfacet
facet normal -6.7353 0.0000 0.0000
    outer loop
        vertex -8.1000 10.4396 2.1672
        vertex -8.1000 10.7004 1.8152
        vertex -8.1000 8.8448 0.1876
    endloop
endfacet
facet normal -4.4655 0.0000 0.0000
    outer loop
        vertex -8.1000 13.3148 -1.8324
        vertex -8.1000 13.5232 -1.4432
        vertex -8.1000 15.3292 -1.4988
    endloop
endfacet
facet normal -6.9943 0.0000 0.0000
    outer loop
        vertex -8.1000 15.3292 -1.4988
        vertex -8.1000 15.2588 -2.0660
        vertex -8.1000 13.3148 -1.8324
    endloop
endfacet
facet normal -7.0381 0.0000 0.0000
    outer loop
        vertex -8.1000 15.3528 -0.8760
        vertex -8.1000 15.3292 -1.4988
        vertex -8.1000 13.5232 -1.4432
    endloop
endfacet
facet normal -5.7498 0.0000 0.0000
    outer loop
        vertex -8.1000 13.5232 -1.4432
        vertex -8.1000 13.5928 -0.9188
        vertex -8.1000 15.3528 -0.8760
    endloop
endfacet
facet normal -8.1043 0.0000 0.0000
    outer loop
        vertex -8.1000 14.6872 -3.5612
        vertex -8.1000 14.3196 -4.0052
        vertex -8.1000 12.9924 -2.0808
    endloop
endfacet
facet normal -5.6142 0.0000 0.0000
    outer loop
        vertex -8.1000 12.9924 -2.0808
        vertex -8.1000 13.3148 -1.8324
        vertex -8.1000 14.6872 -3.5612
    endloop
endfacet
facet normal -7.8872 0.0000 0.0000
    outer loop
        vertex -8.1000 11.3696 -4.6828
        vertex -8.1000 10.9588 -4.4844
        vertex -8.1000 12.3584 -2.0884
    endloop
endfacet
facet normal -5.4531 0.0000 0.0000
    outer loop
        vertex -8.1000 12.3584 -2.0884
        vertex -8.1000 12.6700 -2.1532
        vertex -8.1000 11.3696 -4.6828
    endloop
endfacet
facet normal -6.3876 0.0000 0.0000
    outer loop
        vertex -8.1000 13.3148 -1.8324
        vertex -8.1000 15.2588 -2.0660
        vertex -8.1000 15.1412 -2.5776
    endloop
endfacet
facet normal -9.9109 0.0000 0.0000
    outer loop
        vertex -8.1000 9.1748 -0.7412
        vertex -8.1000 11.5276 -0.4296
        vertex -8.1000 11.6936 -1.0816
    endloop
endfacet
facet normal -10.4532 0.0000 0.0000
    outer loop
        vertex -8.1000 11.6936 -1.0816
        vertex -8.1000 9.3316 -1.4264
        vertex -8.1000 9.1748 -0.7412
    endloop
endfacet
facet normal -0.2834 0.0000 0.0000
    outer loop
        vertex -8.1000 15.1412 -2.5776
        vertex -8.1000 14.9772 -3.0328
        vertex -8.1000 14.6872 -3.5612
    endloop
endfacet
facet normal -13.3423 0.0000 0.0000
    outer loop
        vertex -8.1000 14.6872 -3.5612
        vertex -8.1000 13.3148 -1.8324
        vertex -8.1000 15.1412 -2.5776
    endloop
endfacet
facet normal -8.3457 0.0000 0.0000
    outer loop
        vertex -8.1000 12.9924 -2.0808
        vertex -8.1000 14.3196 -4.0052
        vertex -8.1000 13.8740 -4.3652
    endloop
endfacet
facet normal -5.0020 0.0000 0.0000
    outer loop
        vertex -8.1000 13.8740 -4.3652
        vertex -8.1000 12.6700 -2.1532
        vertex -8.1000 12.9924 -2.0808
    endloop
endfacet
facet normal -0.3802 0.0000 0.0000
    outer loop
        vertex -8.1000 13.8740 -4.3652
        vertex -8.1000 13.3740 -4.6300
        vertex -8.1000 12.8444 -4.7888
    endloop
endfacet
facet normal -17.4218 0.0000 0.0000
    outer loop
        vertex -8.1000 12.8444 -4.7888
        vertex -8.1000 12.6700 -2.1532
        vertex -8.1000 13.8740 -4.3652
    endloop
endfacet
facet normal -17.0206 0.0000 0.0000
    outer loop
        vertex -8.1000 11.8120 -4.8020
        vertex -8.1000 12.6700 -2.1532
        vertex -8.1000 12.8444 -4.7888
    endloop
endfacet
facet normal -0.2971 0.0000 0.0000
    outer loop
        vertex -8.1000 12.8444 -4.7888
        vertex -8.1000 12.2852 -4.8420
        vertex -8.1000 11.8120 -4.8020
    endloop
endfacet
facet normal -7.9631 0.0000 0.0000
    outer loop
        vertex -8.1000 11.3696 -4.6828
        vertex -8.1000 12.6700 -2.1532
        vertex -8.1000 11.8120 -4.8020
    endloop
endfacet
facet normal -8.0964 0.0000 0.0000
    outer loop
        vertex -8.1000 12.3584 -2.0884
        vertex -8.1000 10.9588 -4.4844
        vertex -8.1000 10.5852 -4.1984
    endloop
endfacet
facet normal -6.7823 0.0000 0.0000
    outer loop
        vertex -8.1000 10.5852 -4.1984
        vertex -8.1000 12.0468 -1.8472
        vertex -8.1000 12.3584 -2.0884
    endloop
endfacet
facet normal -7.6298 0.0000 0.0000
    outer loop
        vertex -8.1000 11.6936 -1.0816
        vertex -8.1000 11.8668 -1.5540
        vertex -8.1000 9.6472 -2.5484
    endloop
endfacet
facet normal -8.1029 0.0000 0.0000
    outer loop
        vertex -8.1000 9.6472 -2.5484
        vertex -8.1000 9.4888 -2.0284
        vertex -8.1000 11.6936 -1.0816
    endloop
endfacet
facet normal -9.2258 0.0000 0.0000
    outer loop
        vertex -8.1000 9.3316 -1.4264
        vertex -8.1000 11.6936 -1.0816
        vertex -8.1000 9.4888 -2.0284
    endloop
endfacet
facet normal -0.2196 0.0000 0.0000
    outer loop
        vertex -8.1000 6.1908 -2.1008
        vertex -8.1000 6.1140 -1.5116
        vertex -8.1000 6.0884 -0.8576
    endloop
endfacet
facet normal -13.3393 0.0000 0.0000
    outer loop
        vertex -8.1000 6.0884 -0.8576
        vertex -8.1000 7.8256 -1.1056
        vertex -8.1000 6.1908 -2.1008
    endloop
endfacet
facet normal -5.6971 0.0000 0.0000
    outer loop
        vertex -8.1000 7.8256 -1.1056
        vertex -8.1000 8.0320 -1.5024
        vertex -8.1000 6.3184 -2.6244
    endloop
endfacet
facet normal -6.1436 0.0000 0.0000
    outer loop
        vertex -8.1000 6.3184 -2.6244
        vertex -8.1000 6.1908 -2.1008
        vertex -8.1000 7.8256 -1.1056
    endloop
endfacet
facet normal -6.1138 0.0000 0.0000
    outer loop
        vertex -8.1000 9.8060 -2.9864
        vertex -8.1000 12.0468 -1.8472
        vertex -8.1000 9.9660 -3.3416
    endloop
endfacet
facet normal -0.2977 0.0000 0.0000
    outer loop
        vertex -8.1000 10.5852 -4.1984
        vertex -8.1000 10.2544 -3.8176
        vertex -8.1000 9.9660 -3.3416
    endloop
endfacet
facet normal -16.9260 0.0000 0.0000
    outer loop
        vertex -8.1000 9.9660 -3.3416
        vertex -8.1000 12.0468 -1.8472
        vertex -8.1000 10.5852 -4.1984
    endloop
endfacet
facet normal -7.2648 0.0000 0.0000
    outer loop
        vertex -8.1000 12.0468 -1.8472
        vertex -8.1000 9.8060 -2.9864
        vertex -8.1000 9.6472 -2.5484
    endloop
endfacet
facet normal -5.1861 0.0000 0.0000
    outer loop
        vertex -8.1000 9.6472 -2.5484
        vertex -8.1000 11.8668 -1.5540
        vertex -8.1000 12.0468 -1.8472
    endloop
endfacet
facet normal -10.7186 0.0000 0.0000
    outer loop
        vertex -8.1000 8.1096 -4.4172
        vertex -8.1000 8.9120 -1.9392
        vertex -8.1000 8.7592 -4.5484
    endloop
endfacet
facet normal -0.3180 0.0000 0.0000
    outer loop
        vertex -8.1000 7.0936 -3.8812
        vertex -8.1000 6.7272 -3.4760
        vertex -8.1000 6.4972 -3.0828
    endloop
endfacet
facet normal -14.3047 0.0000 0.0000
    outer loop
        vertex -8.1000 6.4972 -3.0828
        vertex -8.1000 8.3892 -1.7780
        vertex -8.1000 7.0936 -3.8812
    endloop
endfacet
facet normal -6.8787 0.0000 0.0000
    outer loop
        vertex -8.1000 8.3892 -1.7780
        vertex -8.1000 6.4972 -3.0828
        vertex -8.1000 6.3184 -2.6244
    endloop
endfacet
facet normal -5.4565 0.0000 0.0000
    outer loop
        vertex -8.1000 6.3184 -2.6244
        vertex -8.1000 8.0320 -1.5024
        vertex -8.1000 8.3892 -1.7780
    endloop
endfacet
facet normal -8.5966 0.0000 0.0000
    outer loop
        vertex -8.1000 7.0936 -3.8812
        vertex -8.1000 8.3892 -1.7780
        vertex -8.1000 7.5544 -4.1948
    endloop
endfacet
facet normal -8.9053 0.0000 0.0000
    outer loop
        vertex -8.1000 8.3892 -1.7780
        vertex -8.1000 8.9120 -1.9392
        vertex -8.1000 8.1096 -4.4172
    endloop
endfacet
facet normal -9.5467 0.0000 0.0000
    outer loop
        vertex -8.1000 8.1096 -4.4172
        vertex -8.1000 7.5544 -4.1948
        vertex -8.1000 8.3892 -1.7780
    endloop
endfacet
facet normal -7.9573 0.0000 0.0000
    outer loop
        vertex -8.1000 15.3284 -0.1532
        vertex -8.1000 15.3528 -0.8760
        vertex -8.1000 13.5928 -0.9188
    endloop
endfacet
facet normal -5.5956 0.0000 0.0000
    outer loop
        vertex -8.1000 13.5928 -0.9188
        vertex -8.1000 13.5324 -0.4296
        vertex -8.1000 15.3284 -0.1532
    endloop
endfacet
facet normal -11.8368 0.0000 0.0000
    outer loop
        vertex -8.1000 19.2000 4.0000
        vertex -8.1000 14.1016 2.6112
        vertex -8.1000 13.6924 2.8712
    endloop
endfacet
facet normal -13.4698 0.0000 0.0000
    outer loop
        vertex -8.1000 14.1016 2.6112
        vertex -8.1000 19.2000 4.0000
        vertex -8.1000 14.4728 2.2896
    endloop
endfacet
facet normal -12.6942 0.0000 0.0000
    outer loop
        vertex -8.1000 14.7416 1.9572
        vertex -8.1000 14.4728 2.2896
        vertex -8.1000 19.2000 4.0000
    endloop
endfacet
facet normal -14.2446 0.0000 0.0000
    outer loop
        vertex -8.1000 14.9616 1.5468
        vertex -8.1000 14.7416 1.9572
        vertex -8.1000 19.2000 4.0000
    endloop
endfacet
facet normal -15.5626 0.0000 0.0000
    outer loop
        vertex -8.1000 19.2000 4.0000
        vertex -8.1000 15.1328 1.0584
        vertex -8.1000 14.9616 1.5468
    endloop
endfacet
facet normal -23.7615 0.0000 0.0000
    outer loop
        vertex -8.1000 10.7004 1.8152
        vertex -8.1000 12.2360 3.2856
        vertex -8.1000 12.0712 0.6520
    endloop
endfacet
facet normal -1.9959 0.0000 0.0000
    outer loop
        vertex -8.1000 12.0712 0.6520
        vertex -8.1000 10.9392 1.3796
        vertex -8.1000 10.7004 1.8152
    endloop
endfacet
facet normal -5.6806 0.0000 0.0000
    outer loop
        vertex -8.1000 12.7596 3.2088
        vertex -8.1000 12.2360 3.2856
        vertex -8.1000 19.2000 4.0000
    endloop
endfacet
facet normal -10.0120 0.0000 0.0000
    outer loop
        vertex -8.1000 13.6924 2.8712
        vertex -8.1000 13.2452 3.0704
        vertex -8.1000 19.2000 4.0000
    endloop
endfacet
facet normal -7.9722 0.0000 0.0000
    outer loop
        vertex -8.1000 12.7596 3.2088
        vertex -8.1000 19.2000 4.0000
        vertex -8.1000 13.2452 3.0704
    endloop
endfacet
facet normal -57.1520 0.0000 0.0000
    outer loop
        vertex -8.1000 19.2000 4.0000
        vertex -8.1000 12.2360 3.2856
        vertex -8.1000 6.4000 4.0000
    endloop
endfacet
facet normal -16.6584 0.0000 0.0000
    outer loop
        vertex -8.1000 15.2552 0.4916
        vertex -8.1000 15.1328 1.0584
        vertex -8.1000 19.2000 4.0000
    endloop
endfacet
facet normal -17.5026 0.0000 0.0000
    outer loop
        vertex -8.1000 15.2552 0.4916
        vertex -8.1000 19.2000 4.0000
        vertex -8.1000 15.3284 -0.1532
    endloop
endfacet
facet normal -3.1925 0.0000 0.0000
    outer loop
        vertex -8.1000 11.3528 0.2568
        vertex -8.1000 11.1568 0.8600
        vertex -8.1000 12.0712 0.6520
    endloop
endfacet
facet normal -2.6866 0.0000 0.0000
    outer loop
        vertex -8.1000 11.1568 0.8600
        vertex -8.1000 10.9392 1.3796
        vertex -8.1000 12.0712 0.6520
    endloop
endfacet
facet normal -5.7964 0.0000 0.0000
    outer loop
        vertex -8.1000 12.6364 0.5220
        vertex -8.1000 11.5276 -0.4296
        vertex -8.1000 11.3528 0.2568
    endloop
endfacet
facet normal -1.9797 0.0000 0.0000
    outer loop
        vertex -8.1000 11.3528 0.2568
        vertex -8.1000 12.0712 0.6520
        vertex -8.1000 12.6364 0.5220
    endloop
endfacet
facet normal -8.0240 0.0000 0.0000
    outer loop
        vertex -8.1000 13.3512 -0.0224
        vertex -8.1000 11.5276 -0.4296
        vertex -8.1000 12.6364 0.5220
    endloop
endfacet
facet normal -0.4275 0.0000 0.0000
    outer loop
        vertex -8.1000 12.6364 0.5220
        vertex -8.1000 13.0488 0.3036
        vertex -8.1000 13.3512 -0.0224
    endloop
endfacet
facet normal -16.0263 0.0000 0.0000
    outer loop
        vertex -8.1000 19.2000 -9.7512
        vertex -8.1000 15.3528 -0.8760
        vertex -8.1000 15.3284 -0.1532
    endloop
endfacet
facet normal -332.7447 0.0000 0.0000
    outer loop
        vertex -8.1000 15.3284 -0.1532
        vertex -8.1000 19.2000 4.0000
        vertex -8.1000 19.2000 -9.7512
    endloop
endfacet
facet normal -2.5937 0.0000 0.0000
    outer loop
        vertex -8.1000 9.2124 2.9008
        vertex -8.1000 8.7100 2.9496
        vertex -8.1000 6.4000 4.0000
    endloop
endfacet
facet normal -27.5360 0.0000 0.0000
    outer loop
        vertex -8.1000 6.4000 4.0000
        vertex -8.1000 12.2360 3.2856
        vertex -8.1000 9.2124 2.9008
    endloop
endfacet
facet normal -5.2822 0.0000 0.0000
    outer loop
        vertex -8.1000 10.0772 2.5096
        vertex -8.1000 9.6680 2.7540
        vertex -8.1000 12.2360 3.2856
    endloop
endfacet
facet normal -6.3775 0.0000 0.0000
    outer loop
        vertex -8.1000 10.4396 2.1672
        vertex -8.1000 10.0772 2.5096
        vertex -8.1000 12.2360 3.2856
    endloop
endfacet
facet normal -3.8699 0.0000 0.0000
    outer loop
        vertex -8.1000 9.2124 2.9008
        vertex -8.1000 12.2360 3.2856
        vertex -8.1000 9.6680 2.7540
    endloop
endfacet
facet normal -4.5269 0.0000 0.0000
    outer loop
        vertex -8.1000 6.4000 4.0000
        vertex -8.1000 8.2584 2.9052
        vertex -8.1000 7.8236 2.7716
    endloop
endfacet
facet normal -3.6058 0.0000 0.0000
    outer loop
        vertex -8.1000 8.2584 2.9052
        vertex -8.1000 6.4000 4.0000
        vertex -8.1000 8.7100 2.9496
    endloop
endfacet
facet normal -5.1844 0.0000 0.0000
    outer loop
        vertex -8.1000 6.4000 4.0000
        vertex -8.1000 7.8236 2.7716
        vertex -8.1000 7.4056 2.5496
    endloop
endfacet
facet normal -5.1101 0.0000 0.0000
    outer loop
        vertex -8.1000 7.0252 2.2376
        vertex -8.1000 6.7036 1.8364
        vertex -8.1000 6.4000 4.0000
    endloop
endfacet
facet normal -5.4092 0.0000 0.0000
    outer loop
        vertex -8.1000 7.4056 2.5496
        vertex -8.1000 7.0252 2.2376
        vertex -8.1000 6.4000 4.0000
    endloop
endfacet
facet normal -4.4958 0.0000 0.0000
    outer loop
        vertex -8.1000 6.4000 4.0000
        vertex -8.1000 6.7036 1.8364
        vertex -8.1000 6.4400 1.3456
    endloop
endfacet
facet normal -1.1663 0.0000 0.0000
    outer loop
        vertex -8.1000 8.2108 0.3200
        vertex -8.1000 8.8448 0.1876
        vertex -8.1000 9.0156 -0.1424
    endloop
endfacet
facet normal -1.6014 0.0000 0.0000
    outer loop
        vertex -8.1000 9.0156 -0.1424
        vertex -8.1000 7.9616 0.1448
        vertex -8.1000 8.2108 0.3200
    endloop
endfacet
facet normal -0.4801 0.0000 0.0000
    outer loop
        vertex -8.1000 8.8448 0.1876
        vertex -8.1000 8.2108 0.3200
        vertex -8.1000 8.4596 0.3892
    endloop
endfacet
facet normal -0.1269 0.0000 0.0000
    outer loop
        vertex -8.1000 8.4596 0.3892
        vertex -8.1000 8.6520 0.3412
        vertex -8.1000 8.8448 0.1876
    endloop
endfacet
facet normal -5.8156 0.0000 0.0000
    outer loop
        vertex -8.1000 6.2864 0.9064
        vertex -8.1000 6.1764 0.3928
        vertex -8.1000 3.2000 -5.0452
    endloop
endfacet
facet normal -2.6422 0.0000 0.0000
    outer loop
        vertex -8.1000 7.8240 -0.2188
        vertex -8.1000 7.9616 0.1448
        vertex -8.1000 9.0156 -0.1424
    endloop
endfacet
facet normal -3.2891 0.0000 0.0000
    outer loop
        vertex -8.1000 9.1748 -0.7412
        vertex -8.1000 7.7568 -0.5824
        vertex -8.1000 7.8240 -0.2188
    endloop
endfacet
facet normal -4.5356 0.0000 0.0000
    outer loop
        vertex -8.1000 7.8240 -0.2188
        vertex -8.1000 9.0156 -0.1424
        vertex -8.1000 9.1748 -0.7412
    endloop
endfacet
facet normal -8.6877 0.0000 0.0000
    outer loop
        vertex -8.1000 6.1764 0.3928
        vertex -8.1000 6.1104 -0.1948
        vertex -8.1000 3.2000 -5.0452
    endloop
endfacet
facet normal -5.7751 0.0000 0.0000
    outer loop
        vertex -8.1000 10.4396 2.1672
        vertex -8.1000 12.2360 3.2856
        vertex -8.1000 10.7004 1.8152
    endloop
endfacet
facet normal -11.3894 0.0000 0.0000
    outer loop
        vertex -8.1000 6.1104 -0.1948
        vertex -8.1000 6.0884 -0.8576
        vertex -8.1000 3.2000 -5.0452
    endloop
endfacet
facet normal -5.1022 0.0000 0.0000
    outer loop
        vertex -8.1000 11.5276 -0.4296
        vertex -8.1000 13.3512 -0.0224
        vertex -8.1000 13.5324 -0.4296
    endloop
endfacet
facet normal -8.1696 0.0000 0.0000
    outer loop
        vertex -8.1000 13.5324 -0.4296
        vertex -8.1000 11.6936 -1.0816
        vertex -8.1000 11.5276 -0.4296
    endloop
endfacet
facet normal -6.1348 0.0000 0.0000
    outer loop
        vertex -8.1000 11.8668 -1.5540
        vertex -8.1000 11.6936 -1.0816
        vertex -8.1000 13.5324 -0.4296
    endloop
endfacet
facet normal -5.5170 0.0000 0.0000
    outer loop
        vertex -8.1000 13.5324 -0.4296
        vertex -8.1000 13.5928 -0.9188
        vertex -8.1000 11.8668 -1.5540
    endloop
endfacet
facet normal -17.3530 0.0000 0.0000
    outer loop
        vertex -8.1000 15.2588 -2.0660
        vertex -8.1000 15.3292 -1.4988
        vertex -8.1000 19.2000 -9.7512
    endloop
endfacet
facet normal -18.2506 0.0000 0.0000
    outer loop
        vertex -8.1000 15.1412 -2.5776
        vertex -8.1000 15.2588 -2.0660
        vertex -8.1000 19.2000 -9.7512
    endloop
endfacet
facet normal -16.2843 0.0000 0.0000
    outer loop
        vertex -8.1000 15.3528 -0.8760
        vertex -8.1000 19.2000 -9.7512
        vertex -8.1000 15.3292 -1.4988
    endloop
endfacet
facet normal -0.5137 0.0000 0.0000
    outer loop
        vertex -8.1000 13.5928 -0.9188
        vertex -8.1000 13.5232 -1.4432
        vertex -8.1000 13.3148 -1.8324
    endloop
endfacet
facet normal -8.7518 0.0000 0.0000
    outer loop
        vertex -8.1000 13.3148 -1.8324
        vertex -8.1000 11.8668 -1.5540
        vertex -8.1000 13.5928 -0.9188
    endloop
endfacet
facet normal -3.9809 0.0000 0.0000
    outer loop
        vertex -8.1000 11.8668 -1.5540
        vertex -8.1000 13.3148 -1.8324
        vertex -8.1000 12.3584 -2.0884
    endloop
endfacet
facet normal -0.2997 0.0000 0.0000
    outer loop
        vertex -8.1000 12.3584 -2.0884
        vertex -8.1000 12.0468 -1.8472
        vertex -8.1000 11.8668 -1.5540
    endloop
endfacet
facet normal -0.8859 0.0000 0.0000
    outer loop
        vertex -8.1000 12.6700 -2.1532
        vertex -8.1000 12.3584 -2.0884
        vertex -8.1000 13.3148 -1.8324
    endloop
endfacet
facet normal -0.3546 0.0000 0.0000
    outer loop
        vertex -8.1000 13.3148 -1.8324
        vertex -8.1000 12.9924 -2.0808
        vertex -8.1000 12.6700 -2.1532
    endloop
endfacet
facet normal -26.1229 0.0000 0.0000
    outer loop
        vertex -8.1000 14.6872 -3.5612
        vertex -8.1000 14.9772 -3.0328
        vertex -8.1000 19.2000 -9.7512
    endloop
endfacet
facet normal -26.9835 0.0000 0.0000
    outer loop
        vertex -8.1000 14.3196 -4.0052
        vertex -8.1000 19.2000 -9.7512
        vertex -8.1000 13.8740 -4.3652
    endloop
endfacet
facet normal -26.7445 0.0000 0.0000
    outer loop
        vertex -8.1000 19.2000 -9.7512
        vertex -8.1000 14.3196 -4.0052
        vertex -8.1000 14.6872 -3.5612
    endloop
endfacet
facet normal -25.6458 0.0000 0.0000
    outer loop
        vertex -8.1000 13.8740 -4.3652
        vertex -8.1000 19.2000 -9.7512
        vertex -8.1000 13.3740 -4.6300
    endloop
endfacet
facet normal -18.9002 0.0000 0.0000
    outer loop
        vertex -8.1000 14.9772 -3.0328
        vertex -8.1000 15.1412 -2.5776
        vertex -8.1000 19.2000 -9.7512
    endloop
endfacet
facet normal -2.8918 0.0000 0.0000
    outer loop
        vertex -8.1000 10.9588 -4.4844
        vertex -8.1000 11.3696 -4.6828
        vertex -8.1000 8.7592 -4.5484
    endloop
endfacet
facet normal -19.4568 0.0000 0.0000
    outer loop
        vertex -8.1000 12.2852 -4.8420
        vertex -8.1000 12.8444 -4.7888
        vertex -8.1000 19.2000 -9.7512
    endloop
endfacet
facet normal -22.7335 0.0000 0.0000
    outer loop
        vertex -8.1000 13.3740 -4.6300
        vertex -8.1000 19.2000 -9.7512
        vertex -8.1000 12.8444 -4.7888
    endloop
endfacet
facet normal -12.7903 0.0000 0.0000
    outer loop
        vertex -8.1000 11.8120 -4.8020
        vertex -8.1000 12.2852 -4.8420
        vertex -8.1000 19.2000 -9.7512
    endloop
endfacet
facet normal -277.6204 0.0000 0.0000
    outer loop
        vertex -8.1000 19.2000 -9.7512
        vertex -8.1000 3.2000 -5.0452
        vertex -8.1000 11.8120 -4.8020
    endloop
endfacet
facet normal -1.7863 0.0000 0.0000
    outer loop
        vertex -8.1000 8.9120 -1.9392
        vertex -8.1000 9.4888 -2.0284
        vertex -8.1000 9.6472 -2.5484
    endloop
endfacet
facet normal -3.8912 0.0000 0.0000
    outer loop
        vertex -8.1000 8.3892 -1.7780
        vertex -8.1000 9.3316 -1.4264
        vertex -8.1000 9.4888 -2.0284
    endloop
endfacet
facet normal -0.2897 0.0000 0.0000
    outer loop
        vertex -8.1000 9.4888 -2.0284
        vertex -8.1000 8.9120 -1.9392
        vertex -8.1000 8.3892 -1.7780
    endloop
endfacet
facet normal -7.8804 0.0000 0.0000
    outer loop
        vertex -8.1000 7.7568 -0.5824
        vertex -8.1000 9.1748 -0.7412
        vertex -8.1000 8.0320 -1.5024
    endloop
endfacet
facet normal -0.5043 0.0000 0.0000
    outer loop
        vertex -8.1000 8.0320 -1.5024
        vertex -8.1000 7.8256 -1.1056
        vertex -8.1000 7.7568 -0.5824
    endloop
endfacet
facet normal -12.1356 0.0000 0.0000
    outer loop
        vertex -8.1000 6.1908 -2.1008
        vertex -8.1000 6.3184 -2.6244
        vertex -8.1000 3.2000 -5.0452
    endloop
endfacet
facet normal -12.4269 0.0000 0.0000
    outer loop
        vertex -8.1000 6.1140 -1.5116
        vertex -8.1000 6.1908 -2.1008
        vertex -8.1000 3.2000 -5.0452
    endloop
endfacet
facet normal -12.4764 0.0000 0.0000
    outer loop
        vertex -8.1000 6.0884 -0.8576
        vertex -8.1000 6.1140 -1.5116
        vertex -8.1000 3.2000 -5.0452
    endloop
endfacet
facet normal -5.6400 0.0000 0.0000
    outer loop
        vertex -8.1000 8.0320 -1.5024
        vertex -8.1000 9.1748 -0.7412
        vertex -8.1000 9.3316 -1.4264
    endloop
endfacet
facet normal -2.4082 0.0000 0.0000
    outer loop
        vertex -8.1000 9.3316 -1.4264
        vertex -8.1000 8.3892 -1.7780
        vertex -8.1000 8.0320 -1.5024
    endloop
endfacet
facet normal -3.8859 0.0000 0.0000
    outer loop
        vertex -8.1000 9.8060 -2.9864
        vertex -8.1000 9.9660 -3.3416
        vertex -8.1000 8.7592 -4.5484
    endloop
endfacet
facet normal -5.0695 0.0000 0.0000
    outer loop
        vertex -8.1000 10.2544 -3.8176
        vertex -8.1000 10.5852 -4.1984
        vertex -8.1000 8.7592 -4.5484
    endloop
endfacet
facet normal -4.0812 0.0000 0.0000
    outer loop
        vertex -8.1000 10.5852 -4.1984
        vertex -8.1000 10.9588 -4.4844
        vertex -8.1000 8.7592 -4.5484
    endloop
endfacet
facet normal -5.7655 0.0000 0.0000
    outer loop
        vertex -8.1000 10.2544 -3.8176
        vertex -8.1000 8.7592 -4.5484
        vertex -8.1000 9.9660 -3.3416
    endloop
endfacet
facet normal -12.5261 0.0000 0.0000
    outer loop
        vertex -8.1000 6.7272 -3.4760
        vertex -8.1000 7.0936 -3.8812
        vertex -8.1000 3.2000 -5.0452
    endloop
endfacet
facet normal -10.9238 0.0000 0.0000
    outer loop
        vertex -8.1000 6.4972 -3.0828
        vertex -8.1000 6.7272 -3.4760
        vertex -8.1000 3.2000 -5.0452
    endloop
endfacet
facet normal -9.0035 0.0000 0.0000
    outer loop
        vertex -8.1000 7.5544 -4.1948
        vertex -8.1000 8.1096 -4.4172
        vertex -8.1000 3.2000 -5.0452
    endloop
endfacet
facet normal -6.5756 0.0000 0.0000
    outer loop
        vertex -8.1000 3.2000 -5.0452
        vertex -8.1000 8.1096 -4.4172
        vertex -8.1000 8.7592 -4.5484
    endloop
endfacet
facet normal -10.9838 0.0000 0.0000
    outer loop
        vertex -8.1000 7.5544 -4.1948
        vertex -8.1000 3.2000 -5.0452
        vertex -8.1000 7.0936 -3.8812
    endloop
endfacet
facet normal -11.6395 0.0000 0.0000
    outer loop
        vertex -8.1000 6.4972 -3.0828
        vertex -8.1000 3.2000 -5.0452
        vertex -8.1000 6.3184 -2.6244
    endloop
endfacet
facet normal -7.0884 0.0000 0.0000
    outer loop
        vertex -8.1000 11.3696 -4.6828
        vertex -8.1000 11.8120 -4.8020
        vertex -8.1000 3.2000 -5.0452
    endloop
endfacet
facet normal -12.7750 0.0000 0.0000
    outer loop
        vertex -8.1000 3.2000 -5.0452
        vertex -8.1000 8.7592 -4.5484
        vertex -8.1000 11.3696 -4.6828
    endloop
endfacet
facet normal -1.4080 0.0000 0.0000
    outer loop
        vertex -8.1000 8.9120 -1.9392
        vertex -8.1000 9.6472 -2.5484
        vertex -8.1000 9.8060 -2.9864
    endloop
endfacet
facet normal -15.5790 0.0000 0.0000
    outer loop
        vertex -8.1000 9.8060 -2.9864
        vertex -8.1000 8.7592 -4.5484
        vertex -8.1000 8.9120 -1.9392
    endloop
endfacet
facet normal -55.4499 0.0000 0.0000
    outer loop
        vertex -8.1000 6.2864 0.9064
        vertex -8.1000 3.2000 -5.0452
        vertex -8.1000 6.4000 4.0000
    endloop
endfacet
facet normal -2.6580 0.0000 0.0000
    outer loop
        vertex -8.1000 6.4000 4.0000
        vertex -8.1000 6.4400 1.3456
        vertex -8.1000 6.2864 0.9064
    endloop
endfacet
endsolid GiantLegoRocks
