solid GiantLegoRocks
facet normal 0.0000 0.7500 0.0000
    outer loop
        vertex 11.6000 0.0000 4.4000
        vertex 11.6000 0.0000 -4.4000
        vertex -11.6000 0.0000 -4.4000
    endloop
endfacet
facet normal 0.0000 0.7500 0.0000
    outer loop
        vertex -11.6000 0.0000 -4.4000
        vertex -11.6000 0.0000 4.4000
        vertex 11.6000 0.0000 4.4000
    endloop
endfacet
facet normal 0.0000 -0.2500 22.0000
    outer loop
        vertex -11.6000 -0.1000 4.4000
        vertex 11.6000 -0.1000 4.4000
        vertex 11.6000 0.0000 4.4000
    endloop
endfacet
facet normal 0.0000 -0.2500 22.0000
    outer loop
        vertex 11.6000 0.0000 4.4000
        vertex -11.6000 0.0000 4.4000
        vertex -11.6000 -0.1000 4.4000
    endloop
endfacet
facet normal -58.0000 -0.2500 0.0000
    outer loop
        vertex -11.6000 -0.1000 -4.4000
        vertex -11.6000 -0.1000 4.4000
        vertex -11.6000 0.0000 4.4000
    endloop
endfacet
facet normal -58.0000 -0.2500 0.0000
    outer loop
        vertex -11.6000 0.0000 4.4000
        vertex -11.6000 0.0000 -4.4000
        vertex -11.6000 -0.1000 -4.4000
    endloop
endfacet
facet normal 0.0000 -0.2500 -22.0000
    outer loop
        vertex 11.6000 -0.1000 -4.4000
        vertex -11.6000 -0.1000 -4.4000
        vertex -11.6000 0.0000 -4.4000
    endloop
endfacet
facet normal 0.0000 -0.2500 -22.0000
    outer loop
        vertex -11.6000 0.0000 -4.4000
        vertex 11.6000 0.0000 -4.4000
        vertex 11.6000 -0.1000 -4.4000
    endloop
endfacet
facet normal 58.0000 -0.2500 0.0000
    outer loop
        vertex 11.6000 -0.1000 4.4000
        vertex 11.6000 -0.1000 -4.4000
        vertex 11.6000 0.0000 -4.4000
    endloop
endfacet
facet normal 58.0000 -0.2500 0.0000
    outer loop
        vertex 11.6000 0.0000 -4.4000
        vertex 11.6000 0.0000 4.4000
        vertex 11.6000 -0.1000 4.4000
    endloop
endfacet
facet normal 0.0000 -10.1202 0.0000
    outer loop
        vertex -7.3480 -0.1000 -3.0000
        vertex -6.1360 -0.1000 -3.0000
        vertex -6.1360 -0.1000 -1.6640
    endloop
endfacet
facet normal 0.0000 -10.1202 0.0000
    outer loop
        vertex -6.1360 -0.1000 -1.6640
        vertex -7.3480 -0.1000 -1.6640
        vertex -7.3480 -0.1000 -3.0000
    endloop
endfacet
facet normal 0.0000 -4.4100 0.0000
    outer loop
        vertex -6.1360 -0.1000 -0.6840
        vertex -6.1360 -0.1000 -1.6640
        vertex -5.4160 -0.1000 -1.6640
    endloop
endfacet
facet normal 0.0000 -4.4100 0.0000
    outer loop
        vertex -5.4160 -0.1000 -1.6640
        vertex -5.4160 -0.1000 -0.6840
        vertex -6.1360 -0.1000 -0.6840
    endloop
endfacet
facet normal 0.0000 -16.7771 0.0000
    outer loop
        vertex -8.9920 -0.1000 -0.7080
        vertex -7.3240 -0.1000 1.9280
        vertex -7.6640 -0.1000 3.0000
    endloop
endfacet
facet normal 0.0000 -23.0586 0.0000
    outer loop
        vertex -7.6640 -0.1000 3.0000
        vertex -9.9440 -0.1000 -0.5880
        vertex -8.9920 -0.1000 -0.7080
    endloop
endfacet
facet normal 0.0000 -10.2376 0.0000
    outer loop
        vertex -6.1360 -0.1000 3.0000
        vertex -7.6640 -0.1000 3.0000
        vertex -7.3240 -0.1000 1.9280
    endloop
endfacet
facet normal 0.0000 -27.3537 0.0000
    outer loop
        vertex -7.3240 -0.1000 1.9280
        vertex -6.1360 -0.1000 -0.6840
        vertex -6.1360 -0.1000 3.0000
    endloop
endfacet
facet normal 0.0000 -6.4022 0.0000
    outer loop
        vertex -9.9440 -0.1000 -0.5880
        vertex -9.9440 -0.1000 -1.6640
        vertex -8.9920 -0.1000 -0.7080
    endloop
endfacet
facet normal 0.0000 -9.9663 0.0000
    outer loop
        vertex -7.3240 -0.1000 -0.7080
        vertex -8.9920 -0.1000 -0.7080
        vertex -9.9440 -0.1000 -1.6640
    endloop
endfacet
facet normal 0.0000 -15.5111 0.0000
    outer loop
        vertex -9.9440 -0.1000 -1.6640
        vertex -7.3480 -0.1000 -1.6640
        vertex -7.3240 -0.1000 -0.7080
    endloop
endfacet
facet normal 0.0000 -19.5723 0.0000
    outer loop
        vertex -7.3240 -0.1000 1.9280
        vertex -7.3240 -0.1000 -0.7080
        vertex -6.1360 -0.1000 -0.6840
    endloop
endfacet
facet normal 0.0000 -7.4235 0.0000
    outer loop
        vertex -7.3480 -0.1000 -1.6640
        vertex -6.1360 -0.1000 -1.6640
        vertex -6.1360 -0.1000 -0.6840
    endloop
endfacet
facet normal 0.0000 -7.0947 0.0000
    outer loop
        vertex -6.1360 -0.1000 -0.6840
        vertex -7.3240 -0.1000 -0.7080
        vertex -7.3480 -0.1000 -1.6640
    endloop
endfacet
facet normal 0.0000 -5.3773 0.0000
    outer loop
        vertex -1.2680 -0.1000 -2.5800
        vertex -2.1600 -0.1000 -1.9160
        vertex -2.0640 -0.1000 -2.9520
    endloop
endfacet
facet normal 0.0000 -0.3278 0.0000
    outer loop
        vertex -2.0640 -0.1000 -2.9520
        vertex -1.6320 -0.1000 -2.8160
        vertex -1.2680 -0.1000 -2.5800
    endloop
endfacet
facet normal 0.0000 -5.3944 0.0000
    outer loop
        vertex -2.0720 -0.1000 2.9520
        vertex -2.1600 -0.1000 1.9040
        vertex -1.2800 -0.1000 2.5760
    endloop
endfacet
facet normal 0.0000 -0.3024 0.0000
    outer loop
        vertex -1.2800 -0.1000 2.5760
        vertex -1.6400 -0.1000 2.8080
        vertex -2.0720 -0.1000 2.9520
    endloop
endfacet
facet normal 0.0000 -3.0860 0.0000
    outer loop
        vertex -0.9800 -0.1000 2.2440
        vertex -1.2800 -0.1000 2.5760
        vertex -2.1600 -0.1000 1.9040
    endloop
endfacet
facet normal 0.0000 -3.3090 0.0000
    outer loop
        vertex -2.1600 -0.1000 1.9040
        vertex -1.8800 -0.1000 1.5360
        vertex -0.9800 -0.1000 2.2440
    endloop
endfacet
facet normal 0.0000 -9.9358 0.0000
    outer loop
        vertex -4.5360 -0.1000 1.3160
        vertex -4.6600 -0.1000 0.0000
        vertex -3.4520 -0.1000 0.0000
    endloop
endfacet
facet normal 0.0000 -6.5736 0.0000
    outer loop
        vertex -3.4520 -0.1000 0.0000
        vertex -3.4040 -0.1000 0.9120
        vertex -4.5360 -0.1000 1.3160
    endloop
endfacet
facet normal 0.0000 -6.6658 0.0000
    outer loop
        vertex -4.6600 -0.1000 0.0000
        vertex -4.5800 -0.1000 -0.9080
        vertex -3.4040 -0.1000 -0.9240
    endloop
endfacet
facet normal 0.0000 -6.9762 0.0000
    outer loop
        vertex -3.4040 -0.1000 -0.9240
        vertex -3.4520 -0.1000 0.0000
        vertex -4.6600 -0.1000 0.0000
    endloop
endfacet
facet normal 0.0000 -3.0546 0.0000
    outer loop
        vertex -2.9720 -0.1000 1.9040
        vertex -3.8520 -0.1000 2.5800
        vertex -4.1480 -0.1000 2.2520
    endloop
endfacet
facet normal 0.0000 -3.3042 0.0000
    outer loop
        vertex -4.1480 -0.1000 2.2520
        vertex -3.2476 -0.1000 1.5360
        vertex -2.9720 -0.1000 1.9040
    endloop
endfacet
facet normal 0.0000 -3.3838 0.0000
    outer loop
        vertex -3.2476 -0.1000 1.5360
        vertex -4.1480 -0.1000 2.2520
        vertex -4.3760 -0.1000 1.8320
    endloop
endfacet
facet normal 0.0000 -4.6901 0.0000
    outer loop
        vertex -4.3760 -0.1000 1.8320
        vertex -3.4040 -0.1000 0.9120
        vertex -3.2476 -0.1000 1.5360
    endloop
endfacet
facet normal 0.0000 -3.0347 0.0000
    outer loop
        vertex -2.1600 -0.1000 -1.9160
        vertex -1.2680 -0.1000 -2.5800
        vertex -0.9720 -0.1000 -2.2560
    endloop
endfacet
facet normal 0.0000 -3.3274 0.0000
    outer loop
        vertex -0.9720 -0.1000 -2.2560
        vertex -1.8800 -0.1000 -1.5480
        vertex -2.1600 -0.1000 -1.9160
    endloop
endfacet
facet normal 0.0000 -4.0547 0.0000
    outer loop
        vertex -4.3760 -0.1000 1.8320
        vertex -4.5360 -0.1000 1.3160
        vertex -3.4040 -0.1000 0.9120
    endloop
endfacet
facet normal 0.0000 -0.2901 0.0000
    outer loop
        vertex -0.5840 -0.1000 1.3040
        vertex -0.7520 -0.1000 1.8200
        vertex -0.9800 -0.1000 2.2440
    endloop
endfacet
facet normal 0.0000 -7.0398 0.0000
    outer loop
        vertex -0.9800 -0.1000 2.2440
        vertex -1.8800 -0.1000 1.5360
        vertex -0.5840 -0.1000 1.3040
    endloop
endfacet
facet normal 0.0000 -3.2316 0.0000
    outer loop
        vertex -2.9720 -0.1000 -1.9160
        vertex -3.2476 -0.1000 -1.5560
        vertex -4.1480 -0.1000 -2.2560
    endloop
endfacet
facet normal 0.0000 -3.0104 0.0000
    outer loop
        vertex -4.1480 -0.1000 -2.2560
        vertex -3.8520 -0.1000 -2.5800
        vertex -2.9720 -0.1000 -1.9160
    endloop
endfacet
facet normal 0.0000 -3.2527 0.0000
    outer loop
        vertex -4.5800 -0.1000 -0.9080
        vertex -4.5360 -0.1000 -1.3200
        vertex -3.2476 -0.1000 -1.5560
    endloop
endfacet
facet normal 0.0000 -4.6296 0.0000
    outer loop
        vertex -3.2476 -0.1000 -1.5560
        vertex -3.4040 -0.1000 -0.9240
        vertex -4.5800 -0.1000 -0.9080
    endloop
endfacet
facet normal 0.0000 -0.3153 0.0000
    outer loop
        vertex -4.5360 -0.1000 -1.3200
        vertex -4.3760 -0.1000 -1.8360
        vertex -4.1480 -0.1000 -2.2560
    endloop
endfacet
facet normal 0.0000 -6.9648 0.0000
    outer loop
        vertex -4.1480 -0.1000 -2.2560
        vertex -3.2476 -0.1000 -1.5560
        vertex -4.5360 -0.1000 -1.3200
    endloop
endfacet
facet normal 0.0000 -3.9991 0.0000
    outer loop
        vertex -0.4600 -0.1000 -0.0120
        vertex -1.7160 -0.1000 -0.9200
        vertex -1.8800 -0.1000 -1.5480
    endloop
endfacet
facet normal 0.0000 -10.4891 0.0000
    outer loop
        vertex -1.8800 -0.1000 -1.5480
        vertex -0.5840 -0.1000 -1.3280
        vertex -0.4600 -0.1000 -0.0120
    endloop
endfacet
facet normal 0.0000 -0.3039 0.0000
    outer loop
        vertex -0.9720 -0.1000 -2.2560
        vertex -0.7440 -0.1000 -1.8360
        vertex -0.5840 -0.1000 -1.3280
    endloop
endfacet
facet normal 0.0000 -6.9833 0.0000
    outer loop
        vertex -0.5840 -0.1000 -1.3280
        vertex -1.8800 -0.1000 -1.5480
        vertex -0.9720 -0.1000 -2.2560
    endloop
endfacet
facet normal 0.0000 -5.3922 0.0000
    outer loop
        vertex -3.8520 -0.1000 2.5800
        vertex -2.9720 -0.1000 1.9040
        vertex -3.0600 -0.1000 2.9520
    endloop
endfacet
facet normal 0.0000 -0.3219 0.0000
    outer loop
        vertex -3.0600 -0.1000 2.9520
        vertex -3.4880 -0.1000 2.8160
        vertex -3.8520 -0.1000 2.5800
    endloop
endfacet
facet normal 0.0000 -4.5618 0.0000
    outer loop
        vertex -1.8800 -0.1000 1.5360
        vertex -1.7160 -0.1000 0.9120
        vertex -0.5400 -0.1000 0.8880
    endloop
endfacet
facet normal 0.0000 -3.3058 0.0000
    outer loop
        vertex -0.5400 -0.1000 0.8880
        vertex -0.5840 -0.1000 1.3040
        vertex -1.8800 -0.1000 1.5360
    endloop
endfacet
facet normal 0.0000 -0.2964 0.0000
    outer loop
        vertex -2.0720 -0.1000 2.9520
        vertex -2.5600 -0.1000 3.0000
        vertex -3.0600 -0.1000 2.9520
    endloop
endfacet
facet normal 0.0000 -5.7304 0.0000
    outer loop
        vertex -3.0600 -0.1000 2.9520
        vertex -2.5600 -0.1000 2.0240
        vertex -2.0720 -0.1000 2.9520
    endloop
endfacet
facet normal 0.0000 -6.9496 0.0000
    outer loop
        vertex -1.6680 -0.1000 0.0000
        vertex -1.7160 -0.1000 -0.9200
        vertex -0.4600 -0.1000 -0.0120
    endloop
endfacet
facet normal 0.0000 -6.8820 0.0000
    outer loop
        vertex -1.7160 -0.1000 0.9120
        vertex -1.6680 -0.1000 0.0000
        vertex -0.4600 -0.1000 -0.0120
    endloop
endfacet
facet normal 0.0000 -6.6030 0.0000
    outer loop
        vertex -0.4600 -0.1000 -0.0120
        vertex -0.5400 -0.1000 0.8880
        vertex -1.7160 -0.1000 0.9120
    endloop
endfacet
facet normal 0.0000 -2.7646 0.0000
    outer loop
        vertex -3.0600 -0.1000 2.9520
        vertex -2.9720 -0.1000 1.9040
        vertex -2.5600 -0.1000 2.0240
    endloop
endfacet
facet normal 0.0000 -0.9502 0.0000
    outer loop
        vertex -3.8520 -0.1000 -2.5800
        vertex -3.4880 -0.1000 -2.8160
        vertex -2.5600 -0.1000 -3.0000
    endloop
endfacet
facet normal 0.0000 -7.6718 0.0000
    outer loop
        vertex -2.5600 -0.1000 -3.0000
        vertex -2.9720 -0.1000 -1.9160
        vertex -3.8520 -0.1000 -2.5800
    endloop
endfacet
facet normal 0.0000 -2.6860 0.0000
    outer loop
        vertex -2.0720 -0.1000 2.9520
        vertex -2.5600 -0.1000 2.0240
        vertex -2.1600 -0.1000 1.9040
    endloop
endfacet
facet normal 0.0000 -3.4840 0.0000
    outer loop
        vertex -2.9720 -0.1000 -1.9160
        vertex -2.5600 -0.1000 -3.0000
        vertex -2.0640 -0.1000 -2.9520
    endloop
endfacet
facet normal 0.0000 -1.9867 0.0000
    outer loop
        vertex -2.0640 -0.1000 -2.9520
        vertex -2.5600 -0.1000 -2.0360
        vertex -2.9720 -0.1000 -1.9160
    endloop
endfacet
facet normal 0.0000 -2.6620 0.0000
    outer loop
        vertex -2.1600 -0.1000 -1.9160
        vertex -2.5600 -0.1000 -2.0360
        vertex -2.0640 -0.1000 -2.9520
    endloop
endfacet
facet normal 0.0000 -4.9887 0.0000
    outer loop
        vertex 6.7640 -0.1000 -2.8800
        vertex 7.5920 -0.1000 -3.0000
        vertex 7.5920 -0.1000 -2.0360
    endloop
endfacet
facet normal 0.0000 -2.1255 0.0000
    outer loop
        vertex 7.5920 -0.1000 -2.0360
        vertex 7.2440 -0.1000 -1.9800
        vertex 6.7640 -0.1000 -2.8800
    endloop
endfacet
facet normal 0.0000 -2.3700 0.0000
    outer loop
        vertex 6.8160 -0.1000 0.7760
        vertex 7.1520 -0.1000 0.0240
        vertex 7.6080 -0.1000 0.1320
    endloop
endfacet
facet normal 0.0000 -3.0432 0.0000
    outer loop
        vertex 7.6080 -0.1000 0.1320
        vertex 7.2720 -0.1000 1.0200
        vertex 6.8160 -0.1000 0.7760
    endloop
endfacet
facet normal 0.0000 -2.9358 0.0000
    outer loop
        vertex 8.3360 -0.1000 -0.1560
        vertex 8.5320 -0.1000 -0.4920
        vertex 9.6920 -0.1000 -0.0840
    endloop
endfacet
facet normal 0.0000 -5.5737 0.0000
    outer loop
        vertex 9.6920 -0.1000 -0.0840
        vertex 9.2840 -0.1000 0.5520
        vertex 8.3360 -0.1000 -0.1560
    endloop
endfacet
facet normal 0.0000 -3.3924 0.0000
    outer loop
        vertex 9.6920 -0.1000 -0.0840
        vertex 8.5320 -0.1000 -0.4920
        vertex 8.6000 -0.1000 -0.9360
    endloop
endfacet
facet normal 0.0000 -6.1842 0.0000
    outer loop
        vertex 8.6000 -0.1000 -0.9360
        vertex 9.8280 -0.1000 -0.8840
        vertex 9.6920 -0.1000 -0.0840
    endloop
endfacet
facet normal 0.0000 -6.5424 0.0000
    outer loop
        vertex 8.5320 -0.1000 -1.4120
        vertex 9.6800 -0.1000 -1.7520
        vertex 9.8280 -0.1000 -0.8840
    endloop
endfacet
facet normal 0.0000 -3.6312 0.0000
    outer loop
        vertex 9.8280 -0.1000 -0.8840
        vertex 8.6000 -0.1000 -0.9360
        vertex 8.5320 -0.1000 -1.4120
    endloop
endfacet
facet normal 0.0000 -2.1576 0.0000
    outer loop
        vertex 7.2720 -0.1000 1.0200
        vertex 7.6080 -0.1000 0.1320
        vertex 8.0240 -0.1000 0.0600
    endloop
endfacet
facet normal 0.0000 -3.7600 0.0000
    outer loop
        vertex 8.0240 -0.1000 0.0600
        vertex 7.8360 -0.1000 1.1000
        vertex 7.2720 -0.1000 1.0200
    endloop
endfacet
facet normal 0.0000 -16.6260 0.0000
    outer loop
        vertex 6.1200 -0.1000 3.0000
        vertex 6.9680 -0.1000 1.9800
        vertex 9.5760 -0.1000 1.9800
    endloop
endfacet
facet normal 0.0000 -22.0320 0.0000
    outer loop
        vertex 9.5760 -0.1000 1.9800
        vertex 9.5760 -0.1000 3.0000
        vertex 6.1200 -0.1000 3.0000
    endloop
endfacet
facet normal 0.0000 -2.5578 0.0000
    outer loop
        vertex 8.9000 -0.1000 -2.6760
        vertex 8.3400 -0.1000 -1.7520
        vertex 8.0280 -0.1000 -1.9680
    endloop
endfacet
facet normal 0.0000 -2.6802 0.0000
    outer loop
        vertex 8.0280 -0.1000 -1.9680
        vertex 8.5160 -0.1000 -2.8560
        vertex 8.9000 -0.1000 -2.6760
    endloop
endfacet
facet normal 0.0000 -5.5671 0.0000
    outer loop
        vertex 7.5920 -0.1000 -2.0360
        vertex 7.5920 -0.1000 -3.0000
        vertex 8.5160 -0.1000 -2.8560
    endloop
endfacet
facet normal 0.0000 -2.6272 0.0000
    outer loop
        vertex 8.5160 -0.1000 -2.8560
        vertex 8.0280 -0.1000 -1.9680
        vertex 7.5920 -0.1000 -2.0360
    endloop
endfacet
facet normal 0.0000 -2.1962 0.0000
    outer loop
        vertex 6.9720 -0.1000 -1.8240
        vertex 6.7880 -0.1000 -1.5680
        vertex 5.7000 -0.1000 -1.9640
    endloop
endfacet
facet normal 0.0000 -4.8513 0.0000
    outer loop
        vertex 5.7000 -0.1000 -1.9640
        vertex 6.1200 -0.1000 -2.5280
        vertex 6.9720 -0.1000 -1.8240
    endloop
endfacet
facet normal 0.0000 -5.4750 0.0000
    outer loop
        vertex 5.5320 -0.1000 -1.2200
        vertex 5.7000 -0.1000 -1.9640
        vertex 6.7880 -0.1000 -1.5680
    endloop
endfacet
facet normal 0.0000 -2.5578 0.0000
    outer loop
        vertex 6.7880 -0.1000 -1.5680
        vertex 6.7080 -0.1000 -1.2200
        vertex 5.5320 -0.1000 -1.2200
    endloop
endfacet
facet normal 0.0000 -19.5183 0.0000
    outer loop
        vertex 6.9680 -0.1000 1.9800
        vertex 6.1200 -0.1000 3.0000
        vertex 5.7320 -0.1000 -0.2160
    endloop
endfacet
facet normal 0.0000 -7.2147 0.0000
    outer loop
        vertex 5.7320 -0.1000 -0.2160
        vertex 6.8160 -0.1000 0.7760
        vertex 6.9680 -0.1000 1.9800
    endloop
endfacet
facet normal 0.0000 -5.1687 0.0000
    outer loop
        vertex 9.2840 -0.1000 0.5520
        vertex 8.6480 -0.1000 0.9600
        vertex 8.0240 -0.1000 0.0600
    endloop
endfacet
facet normal 0.0000 -2.6604 0.0000
    outer loop
        vertex 8.0240 -0.1000 0.0600
        vertex 8.3360 -0.1000 -0.1560
        vertex 9.2840 -0.1000 0.5520
    endloop
endfacet
facet normal 0.0000 -5.1135 0.0000
    outer loop
        vertex 7.8360 -0.1000 1.1000
        vertex 8.0240 -0.1000 0.0600
        vertex 8.6480 -0.1000 0.9600
    endloop
endfacet
facet normal 0.0000 -2.2295 0.0000
    outer loop
        vertex 5.7320 -0.1000 -0.2160
        vertex 6.8160 -0.1000 -0.2840
        vertex 7.1520 -0.1000 0.0240
    endloop
endfacet
facet normal 0.0000 -7.1780 0.0000
    outer loop
        vertex 7.1520 -0.1000 0.0240
        vertex 6.8160 -0.1000 0.7760
        vertex 5.7320 -0.1000 -0.2160
    endloop
endfacet
facet normal 0.0000 -5.3928 0.0000
    outer loop
        vertex 9.4920 -0.1000 -2.1120
        vertex 8.3400 -0.1000 -1.7520
        vertex 8.9000 -0.1000 -2.6760
    endloop
endfacet
facet normal 0.0000 -0.2238 0.0000
    outer loop
        vertex 8.9000 -0.1000 -2.6760
        vertex 9.2280 -0.1000 -2.4240
        vertex 9.4920 -0.1000 -2.1120
    endloop
endfacet
facet normal 0.0000 -4.6785 0.0000
    outer loop
        vertex 6.1200 -0.1000 -2.5280
        vertex 6.7640 -0.1000 -2.8800
        vertex 7.2440 -0.1000 -1.9800
    endloop
endfacet
facet normal 0.0000 -2.0275 0.0000
    outer loop
        vertex 7.2440 -0.1000 -1.9800
        vertex 6.9720 -0.1000 -1.8240
        vertex 6.1200 -0.1000 -2.5280
    endloop
endfacet
facet normal 0.0000 -2.8475 0.0000
    outer loop
        vertex 9.6800 -0.1000 -1.7520
        vertex 8.5320 -0.1000 -1.4120
        vertex 8.3400 -0.1000 -1.7520
    endloop
endfacet
facet normal 0.0000 -3.0150 0.0000
    outer loop
        vertex 8.3400 -0.1000 -1.7520
        vertex 9.4920 -0.1000 -2.1120
        vertex 9.6800 -0.1000 -1.7520
    endloop
endfacet
facet normal 0.0000 -0.8289 0.0000
    outer loop
        vertex 0.8240 -0.1000 -1.6380
        vertex 0.5660 -0.1000 -2.2560
        vertex 0.4700 -0.1000 -3.0000
    endloop
endfacet
facet normal 0.0000 -10.3077 0.0000
    outer loop
        vertex 0.4700 -0.1000 -3.0000
        vertex 1.9460 -0.1000 -1.9800
        vertex 0.8240 -0.1000 -1.6380
    endloop
endfacet
facet normal 0.0000 -5.7159 0.0000
    outer loop
        vertex 2.3900 -0.1000 -0.2700
        vertex 3.3260 -0.1000 -0.8820
        vertex 4.0220 -0.1000 -0.3600
    endloop
endfacet
facet normal 0.0000 -7.7553 0.0000
    outer loop
        vertex 4.0220 -0.1000 -0.3600
        vertex 3.2300 -0.1000 0.4440
        vertex 2.3900 -0.1000 -0.2700
    endloop
endfacet
facet normal 0.0000 -2.7837 0.0000
    outer loop
        vertex 1.7960 -0.1000 2.8620
        vertex 1.4300 -0.1000 2.6820
        vertex 1.9280 -0.1000 1.7100
    endloop
endfacet
facet normal 0.0000 -2.2950 0.0000
    outer loop
        vertex 1.9280 -0.1000 1.7100
        vertex 2.2220 -0.1000 1.9260
        vertex 1.7960 -0.1000 2.8620
    endloop
endfacet
facet normal 0.0000 -4.7106 0.0000
    outer loop
        vertex 4.0220 -0.1000 -0.3600
        vertex 4.4420 -0.1000 0.1080
        vertex 3.4400 -0.1000 0.7860
    endloop
endfacet
facet normal 0.0000 -2.7482 0.0000
    outer loop
        vertex 3.4400 -0.1000 0.7860
        vertex 3.2300 -0.1000 0.4440
        vertex 4.0220 -0.1000 -0.3600
    endloop
endfacet
facet normal 0.0000 -2.4818 0.0000
    outer loop
        vertex 3.2720 -0.1000 1.7640
        vertex 3.4520 -0.1000 1.4820
        vertex 4.5920 -0.1000 1.9020
    endloop
endfacet
facet normal 0.0000 -5.2081 0.0000
    outer loop
        vertex 4.5920 -0.1000 1.9020
        vertex 4.1780 -0.1000 2.4900
        vertex 3.2720 -0.1000 1.7640
    endloop
endfacet
facet normal 0.0000 -6.3675 0.0000
    outer loop
        vertex 2.0000 -0.1000 -0.5100
        vertex 1.2860 -0.1000 -1.0800
        vertex 1.9460 -0.1000 -1.9800
    endloop
endfacet
facet normal 0.0000 -2.4264 0.0000
    outer loop
        vertex 1.9460 -0.1000 -1.9800
        vertex 2.2220 -0.1000 -1.6560
        vertex 2.0000 -0.1000 -0.5100
    endloop
endfacet
facet normal 0.0000 -3.9213 0.0000
    outer loop
        vertex 3.4400 -0.1000 0.7860
        vertex 4.4420 -0.1000 0.1080
        vertex 4.6580 -0.1000 0.5880
    endloop
endfacet
facet normal 0.0000 -4.3826 0.0000
    outer loop
        vertex 4.6580 -0.1000 0.5880
        vertex 4.7300 -0.1000 1.1520
        vertex 3.4400 -0.1000 0.7860
    endloop
endfacet
facet normal 0.0000 -2.5927 0.0000
    outer loop
        vertex 3.5120 -0.1000 1.1280
        vertex 3.4400 -0.1000 0.7860
        vertex 4.7300 -0.1000 1.1520
    endloop
endfacet
facet normal 0.0000 -5.7301 0.0000
    outer loop
        vertex 4.7300 -0.1000 1.1520
        vertex 4.5920 -0.1000 1.9020
        vertex 3.5120 -0.1000 1.1280
    endloop
endfacet
facet normal 0.0000 -2.6797 0.0000
    outer loop
        vertex 4.5920 -0.1000 1.9020
        vertex 3.4520 -0.1000 1.4820
        vertex 3.5120 -0.1000 1.1280
    endloop
endfacet
facet normal 0.0000 -5.5690 0.0000
    outer loop
        vertex 2.6180 -0.1000 1.9980
        vertex 2.6960 -0.1000 3.0000
        vertex 1.7960 -0.1000 2.8620
    endloop
endfacet
facet normal 0.0000 -2.5083 0.0000
    outer loop
        vertex 1.7960 -0.1000 2.8620
        vertex 2.2220 -0.1000 1.9260
        vertex 2.6180 -0.1000 1.9980
    endloop
endfacet
facet normal 0.0000 -3.1264 0.0000
    outer loop
        vertex 2.3900 -0.1000 -0.2700
        vertex 2.0000 -0.1000 -0.5100
        vertex 2.2220 -0.1000 -1.6560
    endloop
endfacet
facet normal 0.0000 -4.9329 0.0000
    outer loop
        vertex 2.2220 -0.1000 -1.6560
        vertex 2.8460 -0.1000 -1.2060
        vertex 2.3900 -0.1000 -0.2700
    endloop
endfacet
facet normal 0.0000 -26.7368 0.0000
    outer loop
        vertex 1.9460 -0.1000 -1.9800
        vertex 0.4700 -0.1000 -3.0000
        vertex 4.6640 -0.1000 -3.0000
    endloop
endfacet
facet normal 0.0000 -17.3272 0.0000
    outer loop
        vertex 4.6640 -0.1000 -3.0000
        vertex 4.6640 -0.1000 -1.9800
        vertex 1.9460 -0.1000 -1.9800
    endloop
endfacet
facet normal 0.0000 -3.7314 0.0000
    outer loop
        vertex 2.3900 -0.1000 -0.2700
        vertex 2.8460 -0.1000 -1.2060
        vertex 3.3260 -0.1000 -0.8820
    endloop
endfacet
facet normal 0.0000 -6.2174 0.0000
    outer loop
        vertex 0.7160 -0.1000 1.7640
        vertex 0.5780 -0.1000 0.8580
        vertex 1.6760 -0.1000 0.8580
    endloop
endfacet
facet normal 0.0000 -3.3977 0.0000
    outer loop
        vertex 1.6760 -0.1000 0.8580
        vertex 1.7420 -0.1000 1.3620
        vertex 0.7160 -0.1000 1.7640
    endloop
endfacet
facet normal 0.0000 -2.8312 0.0000
    outer loop
        vertex 1.9280 -0.1000 1.7100
        vertex 0.8900 -0.1000 2.1300
        vertex 0.7160 -0.1000 1.7640
    endloop
endfacet
facet normal 0.0000 -2.6989 0.0000
    outer loop
        vertex 0.7160 -0.1000 1.7640
        vertex 1.7420 -0.1000 1.3620
        vertex 1.9280 -0.1000 1.7100
    endloop
endfacet
facet normal 0.0000 -2.3787 0.0000
    outer loop
        vertex 2.6180 -0.1000 1.9980
        vertex 2.9900 -0.1000 1.9380
        vertex 3.5300 -0.1000 2.8740
    endloop
endfacet
facet normal 0.0000 -5.2843 0.0000
    outer loop
        vertex 3.5300 -0.1000 2.8740
        vertex 2.6960 -0.1000 3.0000
        vertex 2.6180 -0.1000 1.9980
    endloop
endfacet
facet normal 0.0000 -5.0868 0.0000
    outer loop
        vertex 4.1780 -0.1000 2.4900
        vertex 3.5300 -0.1000 2.8740
        vertex 2.9900 -0.1000 1.9380
    endloop
endfacet
facet normal 0.0000 -2.2648 0.0000
    outer loop
        vertex 2.9900 -0.1000 1.9380
        vertex 3.2720 -0.1000 1.7640
        vertex 4.1780 -0.1000 2.4900
    endloop
endfacet
facet normal 0.0000 -4.9986 0.0000
    outer loop
        vertex 0.8900 -0.1000 2.1300
        vertex 1.9280 -0.1000 1.7100
        vertex 1.4300 -0.1000 2.6820
    endloop
endfacet
facet normal 0.0000 -0.2047 0.0000
    outer loop
        vertex 1.4300 -0.1000 2.6820
        vertex 1.1300 -0.1000 2.4360
        vertex 0.8900 -0.1000 2.1300
    endloop
endfacet
facet normal 0.0000 -4.9005 0.0000
    outer loop
        vertex 1.2860 -0.1000 -1.0800
        vertex 0.8240 -0.1000 -1.6380
        vertex 1.9460 -0.1000 -1.9800
    endloop
endfacet
facet normal 0.0000 -101.5000 0.0000
    outer loop
        vertex -6.1360 -0.1000 3.0000
        vertex 0.0000 -0.1000 4.4000
        vertex -11.6000 -0.1000 4.4000
    endloop
endfacet
facet normal 0.0000 -13.3700 0.0000
    outer loop
        vertex -11.6000 -0.1000 4.4000
        vertex -7.6640 -0.1000 3.0000
        vertex -6.1360 -0.1000 3.0000
    endloop
endfacet
facet normal 0.0000 -108.2148 0.0000
    outer loop
        vertex -11.6000 -0.1000 4.4000
        vertex -9.9440 -0.1000 -0.5880
        vertex -7.6640 -0.1000 3.0000
    endloop
endfacet
facet normal 0.0000 -91.0800 0.0000
    outer loop
        vertex -9.9440 -0.1000 -0.5880
        vertex -11.6000 -0.1000 4.4000
        vertex -11.6000 -0.1000 -4.4000
    endloop
endfacet
facet normal 0.0000 -11.1366 0.0000
    outer loop
        vertex -11.6000 -0.1000 -4.4000
        vertex -9.9440 -0.1000 -1.6640
        vertex -9.9440 -0.1000 -0.5880
    endloop
endfacet
facet normal 0.0000 -44.3916 0.0000
    outer loop
        vertex -7.3480 -0.1000 -1.6640
        vertex -9.9440 -0.1000 -1.6640
        vertex -11.6000 -0.1000 -4.4000
    endloop
endfacet
facet normal 0.0000 -35.5042 0.0000
    outer loop
        vertex -11.6000 -0.1000 -4.4000
        vertex -7.3480 -0.1000 -3.0000
        vertex -7.3480 -0.1000 -1.6640
    endloop
endfacet
facet normal 0.0000 -10.6050 0.0000
    outer loop
        vertex -6.1360 -0.1000 -3.0000
        vertex -7.3480 -0.1000 -3.0000
        vertex -11.6000 -0.1000 -4.4000
    endloop
endfacet
facet normal 0.0000 -101.5000 0.0000
    outer loop
        vertex -11.6000 -0.1000 -4.4000
        vertex 0.0000 -0.1000 -4.4000
        vertex -6.1360 -0.1000 -3.0000
    endloop
endfacet
facet normal 0.0000 -31.2900 0.0000
    outer loop
        vertex -6.1360 -0.1000 -3.0000
        vertex 0.0000 -0.1000 -4.4000
        vertex -2.5600 -0.1000 -3.0000
    endloop
endfacet
facet normal 0.0000 -4.1124 0.0000
    outer loop
        vertex -2.5600 -0.1000 -3.0000
        vertex -3.4880 -0.1000 -2.8160
        vertex -6.1360 -0.1000 -3.0000
    endloop
endfacet
facet normal 0.0000 -5.1080 0.0000
    outer loop
        vertex -2.0640 -0.1000 -2.9520
        vertex -2.5600 -0.1000 -3.0000
        vertex 0.0000 -0.1000 -4.4000
    endloop
endfacet
facet normal 0.0000 -5.6640 0.0000
    outer loop
        vertex -1.6320 -0.1000 -2.8160
        vertex -2.0640 -0.1000 -2.9520
        vertex 0.0000 -0.1000 -4.4000
    endloop
endfacet
facet normal 0.0000 -6.0108 0.0000
    outer loop
        vertex -1.2680 -0.1000 -2.5800
        vertex -1.6320 -0.1000 -2.8160
        vertex 0.0000 -0.1000 -4.4000
    endloop
endfacet
facet normal 0.0000 -5.9347 0.0000
    outer loop
        vertex -0.9720 -0.1000 -2.2560
        vertex -1.2680 -0.1000 -2.5800
        vertex 0.0000 -0.1000 -4.4000
    endloop
endfacet
facet normal 0.0000 -5.6067 0.0000
    outer loop
        vertex -0.7440 -0.1000 -1.8360
        vertex -0.9720 -0.1000 -2.2560
        vertex 0.0000 -0.1000 -4.4000
    endloop
endfacet
facet normal 0.0000 -4.9262 0.0000
    outer loop
        vertex -0.5840 -0.1000 -1.3280
        vertex -0.7440 -0.1000 -1.8360
        vertex 0.0000 -0.1000 -4.4000
    endloop
endfacet
facet normal 0.0000 -14.1340 0.0000
    outer loop
        vertex 0.0000 -0.1000 -4.4000
        vertex 0.4700 -0.1000 -3.0000
        vertex -0.5840 -0.1000 -1.3280
    endloop
endfacet
facet normal 0.0000 -12.9390 0.0000
    outer loop
        vertex 7.5920 -0.1000 -3.0000
        vertex 6.7640 -0.1000 -2.8800
        vertex 0.0000 -0.1000 -4.4000
    endloop
endfacet
facet normal 0.0000 -101.5000 0.0000
    outer loop
        vertex 0.0000 -0.1000 -4.4000
        vertex 11.6000 -0.1000 -4.4000
        vertex 7.5920 -0.1000 -3.0000
    endloop
endfacet
facet normal 0.0000 -11.6922 0.0000
    outer loop
        vertex 8.5160 -0.1000 -2.8560
        vertex 7.5920 -0.1000 -3.0000
        vertex 11.6000 -0.1000 -4.4000
    endloop
endfacet
facet normal 0.0000 -7.1751 0.0000
    outer loop
        vertex 8.9000 -0.1000 -2.6760
        vertex 8.5160 -0.1000 -2.8560
        vertex 11.6000 -0.1000 -4.4000
    endloop
endfacet
facet normal 0.0000 -7.7867 0.0000
    outer loop
        vertex 9.2280 -0.1000 -2.4240
        vertex 8.9000 -0.1000 -2.6760
        vertex 11.6000 -0.1000 -4.4000
    endloop
endfacet
facet normal 0.0000 -7.8858 0.0000
    outer loop
        vertex 9.4920 -0.1000 -2.1120
        vertex 9.2280 -0.1000 -2.4240
        vertex 11.6000 -0.1000 -4.4000
    endloop
endfacet
facet normal 0.0000 -7.4314 0.0000
    outer loop
        vertex 9.6800 -0.1000 -1.7520
        vertex 9.4920 -0.1000 -2.1120
        vertex 11.6000 -0.1000 -4.4000
    endloop
endfacet
facet normal 0.0000 -12.8654 0.0000
    outer loop
        vertex 9.8280 -0.1000 -0.8840
        vertex 9.6800 -0.1000 -1.7520
        vertex 11.6000 -0.1000 -4.4000
    endloop
endfacet
facet normal 0.0000 -5.8714 0.0000
    outer loop
        vertex 9.6920 -0.1000 -0.0840
        vertex 9.8280 -0.1000 -0.8840
        vertex 11.6000 -0.1000 -4.4000
    endloop
endfacet
facet normal 0.0000 -21.4841 0.0000
    outer loop
        vertex 11.6000 -0.1000 -4.4000
        vertex 9.5760 -0.1000 1.9800
        vertex 9.6920 -0.1000 -0.0840
    endloop
endfacet
facet normal 0.0000 -4.8021 0.0000
    outer loop
        vertex 9.5760 -0.1000 1.9800
        vertex 9.2840 -0.1000 0.5520
        vertex 9.6920 -0.1000 -0.0840
    endloop
endfacet
facet normal 0.0000 -6.4209 0.0000
    outer loop
        vertex 9.5760 -0.1000 1.9800
        vertex 8.6480 -0.1000 0.9600
        vertex 9.2840 -0.1000 0.5520
    endloop
endfacet
facet normal 0.0000 -5.9885 0.0000
    outer loop
        vertex 7.8360 -0.1000 1.1000
        vertex 8.6480 -0.1000 0.9600
        vertex 9.5760 -0.1000 1.9800
    endloop
endfacet
facet normal 0.0000 -14.3440 0.0000
    outer loop
        vertex 9.5760 -0.1000 1.9800
        vertex 6.9680 -0.1000 1.9800
        vertex 7.8360 -0.1000 1.1000
    endloop
endfacet
facet normal 0.0000 -3.5360 0.0000
    outer loop
        vertex 6.9680 -0.1000 1.9800
        vertex 7.2720 -0.1000 1.0200
        vertex 7.8360 -0.1000 1.1000
    endloop
endfacet
facet normal 0.0000 -3.1996 0.0000
    outer loop
        vertex 6.9680 -0.1000 1.9800
        vertex 6.8160 -0.1000 0.7760
        vertex 7.2720 -0.1000 1.0200
    endloop
endfacet
facet normal 0.0000 -111.3200 0.0000
    outer loop
        vertex 9.5760 -0.1000 1.9800
        vertex 11.6000 -0.1000 -4.4000
        vertex 11.6000 -0.1000 4.4000
    endloop
endfacet
facet normal 0.0000 -12.9030 0.0000
    outer loop
        vertex 11.6000 -0.1000 4.4000
        vertex 9.5760 -0.1000 3.0000
        vertex 9.5760 -0.1000 1.9800
    endloop
endfacet
facet normal 0.0000 -30.2400 0.0000
    outer loop
        vertex 6.1200 -0.1000 3.0000
        vertex 9.5760 -0.1000 3.0000
        vertex 11.6000 -0.1000 4.4000
    endloop
endfacet
facet normal 0.0000 -101.5000 0.0000
    outer loop
        vertex 11.6000 -0.1000 4.4000
        vertex 0.0000 -0.1000 4.4000
        vertex 6.1200 -0.1000 3.0000
    endloop
endfacet
facet normal 0.0000 -6.8871 0.0000
    outer loop
        vertex 6.8160 -0.1000 -0.2840
        vertex 5.7320 -0.1000 -0.2160
        vertex 5.5320 -0.1000 -1.2200
    endloop
endfacet
facet normal 0.0000 -6.8796 0.0000
    outer loop
        vertex 5.5320 -0.1000 -1.2200
        vertex 6.7080 -0.1000 -1.2200
        vertex 6.8160 -0.1000 -0.2840
    endloop
endfacet
facet normal 0.0000 -1.7577 0.0000
    outer loop
        vertex 7.1520 -0.1000 0.0240
        vertex 6.8160 -0.1000 -0.2840
        vertex 6.7080 -0.1000 -1.2200
    endloop
endfacet
facet normal 0.0000 -1.5877 0.0000
    outer loop
        vertex 6.7080 -0.1000 -1.2200
        vertex 6.7880 -0.1000 -1.5680
        vertex 7.1520 -0.1000 0.0240
    endloop
endfacet
facet normal 0.0000 -4.2915 0.0000
    outer loop
        vertex 7.6080 -0.1000 0.1320
        vertex 7.1520 -0.1000 0.0240
        vertex 6.7880 -0.1000 -1.5680
    endloop
endfacet
facet normal 0.0000 -3.2670 0.0000
    outer loop
        vertex 6.7880 -0.1000 -1.5680
        vertex 6.9720 -0.1000 -1.8240
        vertex 7.6080 -0.1000 0.1320
    endloop
endfacet
facet normal 0.0000 -5.3718 0.0000
    outer loop
        vertex 8.0240 -0.1000 0.0600
        vertex 7.6080 -0.1000 0.1320
        vertex 6.9720 -0.1000 -1.8240
    endloop
endfacet
facet normal 0.0000 -4.2285 0.0000
    outer loop
        vertex 6.9720 -0.1000 -1.8240
        vertex 7.2440 -0.1000 -1.9800
        vertex 8.0240 -0.1000 0.0600
    endloop
endfacet
facet normal 0.0000 -5.0310 0.0000
    outer loop
        vertex 8.3360 -0.1000 -0.1560
        vertex 8.0240 -0.1000 0.0600
        vertex 7.2440 -0.1000 -1.9800
    endloop
endfacet
facet normal 0.0000 -4.3494 0.0000
    outer loop
        vertex 7.2440 -0.1000 -1.9800
        vertex 7.5920 -0.1000 -2.0360
        vertex 8.3360 -0.1000 -0.1560
    endloop
endfacet
facet normal 0.0000 -3.8654 0.0000
    outer loop
        vertex 8.5320 -0.1000 -0.4920
        vertex 8.3360 -0.1000 -0.1560
        vertex 7.5920 -0.1000 -2.0360
    endloop
endfacet
facet normal 0.0000 -3.8079 0.0000
    outer loop
        vertex 7.5920 -0.1000 -2.0360
        vertex 8.0280 -0.1000 -1.9680
        vertex 8.5320 -0.1000 -0.4920
    endloop
endfacet
facet normal 0.0000 -2.0259 0.0000
    outer loop
        vertex 8.6000 -0.1000 -0.9360
        vertex 8.5320 -0.1000 -0.4920
        vertex 8.0280 -0.1000 -1.9680
    endloop
endfacet
facet normal 0.0000 -1.2402 0.0000
    outer loop
        vertex 8.0280 -0.1000 -1.9680
        vertex 8.3400 -0.1000 -1.7520
        vertex 8.6000 -0.1000 -0.9360
    endloop
endfacet
facet normal 0.0000 -0.4267 0.0000
    outer loop
        vertex 8.6000 -0.1000 -0.9360
        vertex 8.3400 -0.1000 -1.7520
        vertex 8.5320 -0.1000 -1.4120
    endloop
endfacet
facet normal 0.0000 -5.6693 0.0000
    outer loop
        vertex 0.0000 -0.1000 4.4000
        vertex -0.9800 -0.1000 2.2440
        vertex -0.7520 -0.1000 1.8200
    endloop
endfacet
facet normal 0.0000 -23.9347 0.0000
    outer loop
        vertex -0.7520 -0.1000 1.8200
        vertex 0.7160 -0.1000 1.7640
        vertex 0.0000 -0.1000 4.4000
    endloop
endfacet
facet normal 0.0000 -6.0760 0.0000
    outer loop
        vertex 0.0000 -0.1000 4.4000
        vertex -1.2800 -0.1000 2.5760
        vertex -0.9800 -0.1000 2.2440
    endloop
endfacet
facet normal 0.0000 -5.9600 0.0000
    outer loop
        vertex 0.0000 -0.1000 4.4000
        vertex -1.6400 -0.1000 2.8080
        vertex -1.2800 -0.1000 2.5760
    endloop
endfacet
facet normal 0.0000 -5.7744 0.0000
    outer loop
        vertex 0.0000 -0.1000 4.4000
        vertex -2.0720 -0.1000 2.9520
        vertex -1.6400 -0.1000 2.8080
    endloop
endfacet
facet normal 0.0000 -5.0380 0.0000
    outer loop
        vertex 0.0000 -0.1000 4.4000
        vertex -2.5600 -0.1000 3.0000
        vertex -2.0720 -0.1000 2.9520
    endloop
endfacet
facet normal 0.0000 -3.6070 0.0000
    outer loop
        vertex -3.0600 -0.1000 2.9520
        vertex -2.5600 -0.1000 3.0000
        vertex 0.0000 -0.1000 4.4000
    endloop
endfacet
facet normal 0.0000 -28.7558 0.0000
    outer loop
        vertex 0.0000 -0.1000 4.4000
        vertex -6.1360 -0.1000 3.0000
        vertex -3.0600 -0.1000 2.9520
    endloop
endfacet
facet normal 0.0000 -2.7430 0.0000
    outer loop
        vertex -6.1360 -0.1000 3.0000
        vertex -3.4880 -0.1000 2.8160
        vertex -3.0600 -0.1000 2.9520
    endloop
endfacet
facet normal 0.0000 -4.3244 0.0000
    outer loop
        vertex -6.1360 -0.1000 3.0000
        vertex -3.8520 -0.1000 2.5800
        vertex -3.4880 -0.1000 2.8160
    endloop
endfacet
facet normal 0.0000 -5.4592 0.0000
    outer loop
        vertex -6.1360 -0.1000 3.0000
        vertex -4.1480 -0.1000 2.2520
        vertex -3.8520 -0.1000 2.5800
    endloop
endfacet
facet normal 0.0000 -6.2844 0.0000
    outer loop
        vertex -6.1360 -0.1000 3.0000
        vertex -4.3760 -0.1000 1.8320
        vertex -4.1480 -0.1000 2.2520
    endloop
endfacet
facet normal 0.0000 -6.8440 0.0000
    outer loop
        vertex -6.1360 -0.1000 3.0000
        vertex -4.5360 -0.1000 1.3160
        vertex -4.3760 -0.1000 1.8320
    endloop
endfacet
facet normal 0.0000 -14.4651 0.0000
    outer loop
        vertex -4.6600 -0.1000 0.0000
        vertex -4.5360 -0.1000 1.3160
        vertex -6.1360 -0.1000 3.0000
    endloop
endfacet
facet normal 0.0000 -33.9849 0.0000
    outer loop
        vertex -6.1360 -0.1000 3.0000
        vertex -6.1360 -0.1000 -0.6840
        vertex -4.6600 -0.1000 0.0000
    endloop
endfacet
facet normal 0.0000 -3.0780 0.0000
    outer loop
        vertex -4.6600 -0.1000 0.0000
        vertex -6.1360 -0.1000 -0.6840
        vertex -5.4160 -0.1000 -0.6840
    endloop
endfacet
facet normal 0.0000 -4.6323 0.0000
    outer loop
        vertex -4.6600 -0.1000 0.0000
        vertex -5.4160 -0.1000 -0.6840
        vertex -4.5800 -0.1000 -0.9080
    endloop
endfacet
facet normal 0.0000 -2.0911 0.0000
    outer loop
        vertex -4.5360 -0.1000 -1.3200
        vertex -4.5800 -0.1000 -0.9080
        vertex -5.4160 -0.1000 -0.6840
    endloop
endfacet
facet normal 0.0000 -5.3900 0.0000
    outer loop
        vertex -5.4160 -0.1000 -0.6840
        vertex -5.4160 -0.1000 -1.6640
        vertex -4.5360 -0.1000 -1.3200
    endloop
endfacet
facet normal 0.0000 -3.1820 0.0000
    outer loop
        vertex -4.3760 -0.1000 -1.8360
        vertex -4.5360 -0.1000 -1.3200
        vertex -5.4160 -0.1000 -1.6640
    endloop
endfacet
facet normal 0.0000 -9.4580 0.0000
    outer loop
        vertex -5.4160 -0.1000 -1.6640
        vertex -6.1360 -0.1000 -3.0000
        vertex -4.3760 -0.1000 -1.8360
    endloop
endfacet
facet normal 0.0000 -6.0120 0.0000
    outer loop
        vertex -5.4160 -0.1000 -1.6640
        vertex -6.1360 -0.1000 -1.6640
        vertex -6.1360 -0.1000 -3.0000
    endloop
endfacet
facet normal 0.0000 -6.2787 0.0000
    outer loop
        vertex -4.3760 -0.1000 -1.8360
        vertex -6.1360 -0.1000 -3.0000
        vertex -4.1480 -0.1000 -2.2560
    endloop
endfacet
facet normal 0.0000 -5.4021 0.0000
    outer loop
        vertex -4.1480 -0.1000 -2.2560
        vertex -6.1360 -0.1000 -3.0000
        vertex -3.8520 -0.1000 -2.5800
    endloop
endfacet
facet normal 0.0000 -4.3244 0.0000
    outer loop
        vertex -3.8520 -0.1000 -2.5800
        vertex -6.1360 -0.1000 -3.0000
        vertex -3.4880 -0.1000 -2.8160
    endloop
endfacet
facet normal 0.0000 -0.6090 0.0000
    outer loop
        vertex -2.1600 -0.1000 1.9040
        vertex -2.5600 -0.1000 2.0240
        vertex -2.9720 -0.1000 1.9040
    endloop
endfacet
facet normal 0.0000 -1.8676 0.0000
    outer loop
        vertex -2.9720 -0.1000 1.9040
        vertex -3.2476 -0.1000 1.5360
        vertex -2.1600 -0.1000 1.9040
    endloop
endfacet
facet normal 0.0000 -3.1455 0.0000
    outer loop
        vertex -1.8800 -0.1000 1.5360
        vertex -2.1600 -0.1000 1.9040
        vertex -3.2476 -0.1000 1.5360
    endloop
endfacet
facet normal 0.0000 -5.3336 0.0000
    outer loop
        vertex -3.2476 -0.1000 1.5360
        vertex -3.4040 -0.1000 0.9120
        vertex -1.8800 -0.1000 1.5360
    endloop
endfacet
facet normal 0.0000 -6.5832 0.0000
    outer loop
        vertex -1.7160 -0.1000 0.9120
        vertex -1.8800 -0.1000 1.5360
        vertex -3.4040 -0.1000 0.9120
    endloop
endfacet
facet normal 0.0000 -9.6216 0.0000
    outer loop
        vertex -3.4040 -0.1000 0.9120
        vertex -3.4520 -0.1000 0.0000
        vertex -1.7160 -0.1000 0.9120
    endloop
endfacet
facet normal 0.0000 -10.1688 0.0000
    outer loop
        vertex -1.6680 -0.1000 0.0000
        vertex -1.7160 -0.1000 0.9120
        vertex -3.4520 -0.1000 0.0000
    endloop
endfacet
facet normal 0.0000 -10.3026 0.0000
    outer loop
        vertex -3.4520 -0.1000 0.0000
        vertex -3.4040 -0.1000 -0.9240
        vertex -1.6680 -0.1000 0.0000
    endloop
endfacet
facet normal 0.0000 -9.7048 0.0000
    outer loop
        vertex -1.7160 -0.1000 -0.9200
        vertex -1.6680 -0.1000 0.0000
        vertex -3.4040 -0.1000 -0.9240
    endloop
endfacet
facet normal 0.0000 -6.6715 0.0000
    outer loop
        vertex -3.4040 -0.1000 -0.9240
        vertex -3.2476 -0.1000 -1.5560
        vertex -1.7160 -0.1000 -0.9200
    endloop
endfacet
facet normal 0.0000 -5.3596 0.0000
    outer loop
        vertex -1.8800 -0.1000 -1.5480
        vertex -1.7160 -0.1000 -0.9200
        vertex -3.2476 -0.1000 -1.5560
    endloop
endfacet
facet normal 0.0000 -3.0909 0.0000
    outer loop
        vertex -3.2476 -0.1000 -1.5560
        vertex -2.9720 -0.1000 -1.9160
        vertex -1.8800 -0.1000 -1.5480
    endloop
endfacet
facet normal 0.0000 -1.8676 0.0000
    outer loop
        vertex -2.1600 -0.1000 -1.9160
        vertex -1.8800 -0.1000 -1.5480
        vertex -2.9720 -0.1000 -1.9160
    endloop
endfacet
facet normal 0.0000 -0.6090 0.0000
    outer loop
        vertex -2.9720 -0.1000 -1.9160
        vertex -2.5600 -0.1000 -2.0360
        vertex -2.1600 -0.1000 -1.9160
    endloop
endfacet
facet normal 0.0000 -27.4803 0.0000
    outer loop
        vertex -7.3240 -0.1000 1.9280
        vertex -8.9920 -0.1000 -0.7080
        vertex -7.3240 -0.1000 -0.7080
    endloop
endfacet
facet normal 0.0000 -29.9600 0.0000
    outer loop
        vertex 6.1200 -0.1000 3.0000
        vertex 0.0000 -0.1000 4.4000
        vertex 2.6960 -0.1000 3.0000
    endloop
endfacet
facet normal 0.0000 -2.6964 0.0000
    outer loop
        vertex 2.6960 -0.1000 3.0000
        vertex 3.5300 -0.1000 2.8740
        vertex 6.1200 -0.1000 3.0000
    endloop
endfacet
facet normal 0.0000 -10.2003 0.0000
    outer loop
        vertex 0.0000 -0.1000 4.4000
        vertex 1.7960 -0.1000 2.8620
        vertex 2.6960 -0.1000 3.0000
    endloop
endfacet
facet normal 0.0000 -5.5387 0.0000
    outer loop
        vertex 0.0000 -0.1000 4.4000
        vertex 1.4300 -0.1000 2.6820
        vertex 1.7960 -0.1000 2.8620
    endloop
endfacet
facet normal 0.0000 -5.4199 0.0000
    outer loop
        vertex 0.0000 -0.1000 4.4000
        vertex 1.1300 -0.1000 2.4360
        vertex 1.4300 -0.1000 2.6820
    endloop
endfacet
facet normal 0.0000 -5.1071 0.0000
    outer loop
        vertex 0.0000 -0.1000 4.4000
        vertex 0.8900 -0.1000 2.1300
        vertex 1.1300 -0.1000 2.4360
    endloop
endfacet
facet normal 0.0000 -4.5045 0.0000
    outer loop
        vertex 0.0000 -0.1000 4.4000
        vertex 0.7160 -0.1000 1.7640
        vertex 0.8900 -0.1000 2.1300
    endloop
endfacet
facet normal 0.0000 -4.6755 0.0000
    outer loop
        vertex 0.7160 -0.1000 1.7640
        vertex -0.7520 -0.1000 1.8200
        vertex -0.5840 -0.1000 1.3040
    endloop
endfacet
facet normal 0.0000 -6.9645 0.0000
    outer loop
        vertex -0.5840 -0.1000 1.3040
        vertex 0.5780 -0.1000 0.8580
        vertex 0.7160 -0.1000 1.7640
    endloop
endfacet
facet normal 0.0000 -2.8985 0.0000
    outer loop
        vertex -0.5840 -0.1000 1.3040
        vertex -0.5400 -0.1000 0.8880
        vertex 0.5780 -0.1000 0.8580
    endloop
endfacet
facet normal 0.0000 -6.2737 0.0000
    outer loop
        vertex 0.5780 -0.1000 0.8580
        vertex -0.5400 -0.1000 0.8880
        vertex -0.4600 -0.1000 -0.0120
    endloop
endfacet
facet normal 0.0000 -17.5304 0.0000
    outer loop
        vertex -0.4600 -0.1000 -0.0120
        vertex 0.8240 -0.1000 -1.6380
        vertex 0.5780 -0.1000 0.8580
    endloop
endfacet
facet normal 0.0000 -8.0651 0.0000
    outer loop
        vertex 0.5780 -0.1000 0.8580
        vertex 0.8240 -0.1000 -1.6380
        vertex 1.2860 -0.1000 -1.0800
    endloop
endfacet
facet normal 0.0000 -13.2995 0.0000
    outer loop
        vertex 1.2860 -0.1000 -1.0800
        vertex 1.6760 -0.1000 0.8580
        vertex 0.5780 -0.1000 0.8580
    endloop
endfacet
facet normal 0.0000 -7.2590 0.0000
    outer loop
        vertex 1.6760 -0.1000 0.8580
        vertex 1.2860 -0.1000 -1.0800
        vertex 2.0000 -0.1000 -0.5100
    endloop
endfacet
facet normal 0.0000 -3.8205 0.0000
    outer loop
        vertex 1.6760 -0.1000 0.8580
        vertex 2.0000 -0.1000 -0.5100
        vertex 2.3900 -0.1000 -0.2700
    endloop
endfacet
facet normal 0.0000 -2.7144 0.0000
    outer loop
        vertex 2.3900 -0.1000 -0.2700
        vertex 1.7420 -0.1000 1.3620
        vertex 1.6760 -0.1000 0.8580
    endloop
endfacet
facet normal 0.0000 -11.4597 0.0000
    outer loop
        vertex 1.7420 -0.1000 1.3620
        vertex 2.3900 -0.1000 -0.2700
        vertex 3.2300 -0.1000 0.4440
    endloop
endfacet
facet normal 0.0000 -4.3036 0.0000
    outer loop
        vertex 3.2300 -0.1000 0.4440
        vertex 1.9280 -0.1000 1.7100
        vertex 1.7420 -0.1000 1.3620
    endloop
endfacet
facet normal 0.0000 -4.4446 0.0000
    outer loop
        vertex 1.9280 -0.1000 1.7100
        vertex 3.2300 -0.1000 0.4440
        vertex 3.4400 -0.1000 0.7860
    endloop
endfacet
facet normal 0.0000 -3.7390 0.0000
    outer loop
        vertex 3.4400 -0.1000 0.7860
        vertex 2.2220 -0.1000 1.9260
        vertex 1.9280 -0.1000 1.7100
    endloop
endfacet
facet normal 0.0000 -3.1165 0.0000
    outer loop
        vertex 2.2220 -0.1000 1.9260
        vertex 3.4400 -0.1000 0.7860
        vertex 3.5120 -0.1000 1.1280
    endloop
endfacet
facet normal 0.0000 -2.5556 0.0000
    outer loop
        vertex 3.5120 -0.1000 1.1280
        vertex 2.6180 -0.1000 1.9980
        vertex 2.2220 -0.1000 1.9260
    endloop
endfacet
facet normal 0.0000 -1.6517 0.0000
    outer loop
        vertex 2.6180 -0.1000 1.9980
        vertex 3.5120 -0.1000 1.1280
        vertex 3.4520 -0.1000 1.4820
    endloop
endfacet
facet normal 0.0000 -0.8869 0.0000
    outer loop
        vertex 3.4520 -0.1000 1.4820
        vertex 2.9900 -0.1000 1.9380
        vertex 2.6180 -0.1000 1.9980
    endloop
endfacet
facet normal 0.0000 -0.3013 0.0000
    outer loop
        vertex 2.9900 -0.1000 1.9380
        vertex 3.4520 -0.1000 1.4820
        vertex 3.2720 -0.1000 1.7640
    endloop
endfacet
facet normal 0.0000 -11.8210 0.0000
    outer loop
        vertex 0.8240 -0.1000 -1.6380
        vertex -0.4600 -0.1000 -0.0120
        vertex -0.5840 -0.1000 -1.3280
    endloop
endfacet
facet normal 0.0000 -5.9383 0.0000
    outer loop
        vertex -0.5840 -0.1000 -1.3280
        vertex 0.5660 -0.1000 -2.2560
        vertex 0.8240 -0.1000 -1.6380
    endloop
endfacet
facet normal 0.0000 -5.9043 0.0000
    outer loop
        vertex -0.5840 -0.1000 -1.3280
        vertex 0.4700 -0.1000 -3.0000
        vertex 0.5660 -0.1000 -2.2560
    endloop
endfacet
facet normal 0.0000 -36.6975 0.0000
    outer loop
        vertex 4.6640 -0.1000 -3.0000
        vertex 0.4700 -0.1000 -3.0000
        vertex 0.0000 -0.1000 -4.4000
    endloop
endfacet
facet normal 0.0000 -14.8770 0.0000
    outer loop
        vertex 6.7640 -0.1000 -2.8800
        vertex 4.6640 -0.1000 -3.0000
        vertex 0.0000 -0.1000 -4.4000
    endloop
endfacet
facet normal 0.0000 -5.1030 0.0000
    outer loop
        vertex 6.1200 -0.1000 -2.5280
        vertex 4.6640 -0.1000 -3.0000
        vertex 6.7640 -0.1000 -2.8800
    endloop
endfacet
facet normal 0.0000 -6.3714 0.0000
    outer loop
        vertex 4.6640 -0.1000 -3.0000
        vertex 6.1200 -0.1000 -2.5280
        vertex 5.7000 -0.1000 -1.9640
    endloop
endfacet
facet normal 0.0000 -6.6045 0.0000
    outer loop
        vertex 5.7000 -0.1000 -1.9640
        vertex 4.6640 -0.1000 -1.9800
        vertex 4.6640 -0.1000 -3.0000
    endloop
endfacet
facet normal 0.0000 -4.8342 0.0000
    outer loop
        vertex 4.6640 -0.1000 -1.9800
        vertex 5.7000 -0.1000 -1.9640
        vertex 5.5320 -0.1000 -1.2200
    endloop
endfacet
facet normal 0.0000 -11.8380 0.0000
    outer loop
        vertex 5.5320 -0.1000 -1.2200
        vertex 4.0220 -0.1000 -0.3600
        vertex 4.6640 -0.1000 -1.9800
    endloop
endfacet
facet normal 0.0000 -9.1415 0.0000
    outer loop
        vertex 4.0220 -0.1000 -0.3600
        vertex 3.3260 -0.1000 -0.8820
        vertex 4.6640 -0.1000 -1.9800
    endloop
endfacet
facet normal 0.0000 -6.0034 0.0000
    outer loop
        vertex 4.6640 -0.1000 -1.9800
        vertex 3.3260 -0.1000 -0.8820
        vertex 2.8460 -0.1000 -1.2060
    endloop
endfacet
facet normal 0.0000 -8.1317 0.0000
    outer loop
        vertex 2.8460 -0.1000 -1.2060
        vertex 2.2220 -0.1000 -1.6560
        vertex 4.6640 -0.1000 -1.9800
    endloop
endfacet
facet normal 0.0000 -5.5040 0.0000
    outer loop
        vertex 2.2220 -0.1000 -1.6560
        vertex 1.9460 -0.1000 -1.9800
        vertex 4.6640 -0.1000 -1.9800
    endloop
endfacet
facet normal 0.0000 -10.5503 0.0000
    outer loop
        vertex 4.0220 -0.1000 -0.3600
        vertex 5.5320 -0.1000 -1.2200
        vertex 5.7320 -0.1000 -0.2160
    endloop
endfacet
facet normal 0.0000 -4.6238 0.0000
    outer loop
        vertex 5.7320 -0.1000 -0.2160
        vertex 4.4420 -0.1000 0.1080
        vertex 4.0220 -0.1000 -0.3600
    endloop
endfacet
facet normal 0.0000 -4.3074 0.0000
    outer loop
        vertex 4.6580 -0.1000 0.5880
        vertex 4.4420 -0.1000 0.1080
        vertex 5.7320 -0.1000 -0.2160
    endloop
endfacet
facet normal 0.0000 -4.1476 0.0000
    outer loop
        vertex 4.7300 -0.1000 1.1520
        vertex 4.6580 -0.1000 0.5880
        vertex 5.7320 -0.1000 -0.2160
    endloop
endfacet
facet normal 0.0000 -23.4576 0.0000
    outer loop
        vertex 5.7320 -0.1000 -0.2160
        vertex 6.1200 -0.1000 3.0000
        vertex 4.7300 -0.1000 1.1520
    endloop
endfacet
facet normal 0.0000 -8.1095 0.0000
    outer loop
        vertex 6.1200 -0.1000 3.0000
        vertex 4.5920 -0.1000 1.9020
        vertex 4.7300 -0.1000 1.1520
    endloop
endfacet
facet normal 0.0000 -8.4565 0.0000
    outer loop
        vertex 6.1200 -0.1000 3.0000
        vertex 4.1780 -0.1000 2.4900
        vertex 4.5920 -0.1000 1.9020
    endloop
endfacet
facet normal 0.0000 -6.7263 0.0000
    outer loop
        vertex 6.1200 -0.1000 3.0000
        vertex 3.5300 -0.1000 2.8740
        vertex 4.1780 -0.1000 2.4900
    endloop
endfacet
endsolid GiantLegoRocks
