solid GiantLegoRocks
facet normal 0.0000 0.7500 0.0000
    outer loop
        vertex 11.6000 0.0000 2.8000
        vertex 11.6000 0.0000 -2.8000
        vertex -11.6000 0.0000 -2.8000
    endloop
endfacet
facet normal 0.0000 0.7500 0.0000
    outer loop
        vertex -11.6000 0.0000 -2.8000
        vertex -11.6000 0.0000 2.8000
        vertex 11.6000 0.0000 2.8000
    endloop
endfacet
facet normal 0.0000 -0.2500 14.0000
    outer loop
        vertex -11.6000 -0.1000 2.8000
        vertex 11.6000 -0.1000 2.8000
        vertex 11.6000 0.0000 2.8000
    endloop
endfacet
facet normal 0.0000 -0.2500 14.0000
    outer loop
        vertex 11.6000 0.0000 2.8000
        vertex -11.6000 0.0000 2.8000
        vertex -11.6000 -0.1000 2.8000
    endloop
endfacet
facet normal -58.0000 -0.2500 0.0000
    outer loop
        vertex -11.6000 -0.1000 -2.8000
        vertex -11.6000 -0.1000 2.8000
        vertex -11.6000 0.0000 2.8000
    endloop
endfacet
facet normal -58.0000 -0.2500 0.0000
    outer loop
        vertex -11.6000 0.0000 2.8000
        vertex -11.6000 0.0000 -2.8000
        vertex -11.6000 -0.1000 -2.8000
    endloop
endfacet
facet normal 0.0000 -0.2500 -14.0000
    outer loop
        vertex 11.6000 -0.1000 -2.8000
        vertex -11.6000 -0.1000 -2.8000
        vertex -11.6000 0.0000 -2.8000
    endloop
endfacet
facet normal 0.0000 -0.2500 -14.0000
    outer loop
        vertex -11.6000 0.0000 -2.8000
        vertex 11.6000 0.0000 -2.8000
        vertex 11.6000 -0.1000 -2.8000
    endloop
endfacet
facet normal 58.0000 -0.2500 0.0000
    outer loop
        vertex 11.6000 -0.1000 2.8000
        vertex 11.6000 -0.1000 -2.8000
        vertex 11.6000 0.0000 -2.8000
    endloop
endfacet
facet normal 58.0000 -0.2500 0.0000
    outer loop
        vertex 11.6000 0.0000 -2.8000
        vertex 11.6000 0.0000 2.8000
        vertex 11.6000 -0.1000 2.8000
    endloop
endfacet
facet normal 0.0000 -53.3735 0.0000
    outer loop
        vertex 9.1000 -0.1000 -1.2600
        vertex 11.6000 -0.1000 2.8000
        vertex 9.0040 -0.1000 2.0000
    endloop
endfacet
facet normal 0.0000 -0.4176 0.0000
    outer loop
        vertex 9.0040 -0.1000 2.0000
        vertex 9.0040 -0.1000 1.3040
        vertex 9.1000 -0.1000 -1.2600
    endloop
endfacet
facet normal 0.0000 -56.8000 0.0000
    outer loop
        vertex -9.3280 -0.1000 -2.0000
        vertex -9.3280 -0.1000 2.0000
        vertex -11.6000 -0.1000 2.8000
    endloop
endfacet
facet normal 0.0000 -79.5200 0.0000
    outer loop
        vertex -11.6000 -0.1000 2.8000
        vertex -11.6000 -0.1000 -2.8000
        vertex -9.3280 -0.1000 -2.0000
    endloop
endfacet
facet normal 0.0000 -58.0000 0.0000
    outer loop
        vertex 0.0000 -0.1000 -2.8000
        vertex 11.6000 -0.1000 -2.8000
        vertex 9.1000 -0.1000 -2.0000
    endloop
endfacet
facet normal 0.0000 -15.0000 0.0000
    outer loop
        vertex 9.1000 -0.1000 -2.0000
        vertex 6.1000 -0.1000 -2.0000
        vertex 0.0000 -0.1000 -2.8000
    endloop
endfacet
facet normal 0.0000 -11.5625 0.0000
    outer loop
        vertex 9.1000 -0.1000 -1.2600
        vertex 9.1000 -0.1000 -2.0000
        vertex 11.6000 -0.1000 -2.8000
    endloop
endfacet
facet normal 0.0000 -87.5000 0.0000
    outer loop
        vertex 11.6000 -0.1000 -2.8000
        vertex 11.6000 -0.1000 2.8000
        vertex 9.1000 -0.1000 -1.2600
    endloop
endfacet
facet normal 0.0000 -4.0800 0.0000
    outer loop
        vertex 0.0000 -0.1000 2.8000
        vertex 0.9920 -0.1000 2.0000
        vertex 1.8080 -0.1000 2.0000
    endloop
endfacet
facet normal 0.0000 -11.5400 0.0000
    outer loop
        vertex 0.0000 -0.1000 2.8000
        vertex 1.8080 -0.1000 2.0000
        vertex 4.1160 -0.1000 2.0000
    endloop
endfacet
facet normal 0.0000 -9.9200 0.0000
    outer loop
        vertex 0.0000 -0.1000 2.8000
        vertex 4.1160 -0.1000 2.0000
        vertex 6.1000 -0.1000 2.0000
    endloop
endfacet
facet normal 0.0000 -58.0000 0.0000
    outer loop
        vertex 9.0040 -0.1000 2.0000
        vertex 11.6000 -0.1000 2.8000
        vertex 0.0000 -0.1000 2.8000
    endloop
endfacet
facet normal 0.0000 -14.5200 0.0000
    outer loop
        vertex 0.0000 -0.1000 2.8000
        vertex 6.1000 -0.1000 2.0000
        vertex 9.0040 -0.1000 2.0000
    endloop
endfacet
facet normal 0.0000 -1.0200 0.0000
    outer loop
        vertex 0.7880 -0.1000 -2.0000
        vertex 0.0000 -0.1000 -2.8000
        vertex 0.9920 -0.1000 -2.0000
    endloop
endfacet
facet normal 0.0000 -4.0800 0.0000
    outer loop
        vertex 0.9920 -0.1000 -2.0000
        vertex 0.0000 -0.1000 -2.8000
        vertex 1.8080 -0.1000 -2.0000
    endloop
endfacet
facet normal 0.0000 -11.2000 0.0000
    outer loop
        vertex 1.8080 -0.1000 -2.0000
        vertex 0.0000 -0.1000 -2.8000
        vertex 4.0480 -0.1000 -2.0000
    endloop
endfacet
facet normal 0.0000 -10.2600 0.0000
    outer loop
        vertex 4.0480 -0.1000 -2.0000
        vertex 0.0000 -0.1000 -2.8000
        vertex 6.1000 -0.1000 -2.0000
    endloop
endfacet
facet normal 0.0000 -13.8800 0.0000
    outer loop
        vertex 0.0000 -0.1000 -2.8000
        vertex 0.7880 -0.1000 -2.0000
        vertex -1.9880 -0.1000 -2.0000
    endloop
endfacet
facet normal 0.0000 -11.0600 0.0000
    outer loop
        vertex 0.0000 -0.1000 -2.8000
        vertex -1.9880 -0.1000 -2.0000
        vertex -4.2000 -0.1000 -2.0000
    endloop
endfacet
facet normal 0.0000 -4.1000 0.0000
    outer loop
        vertex -9.3280 -0.1000 -2.0000
        vertex -11.6000 -0.1000 -2.8000
        vertex -8.5080 -0.1000 -2.0000
    endloop
endfacet
facet normal 0.0000 -11.7200 0.0000
    outer loop
        vertex -8.5080 -0.1000 -2.0000
        vertex -11.6000 -0.1000 -2.8000
        vertex -6.1640 -0.1000 -2.0000
    endloop
endfacet
facet normal 0.0000 -9.8200 0.0000
    outer loop
        vertex -4.2000 -0.1000 -2.0000
        vertex -6.1640 -0.1000 -2.0000
        vertex -11.6000 -0.1000 -2.8000
    endloop
endfacet
facet normal 0.0000 -58.0000 0.0000
    outer loop
        vertex -11.6000 -0.1000 -2.8000
        vertex 0.0000 -0.1000 -2.8000
        vertex -4.2000 -0.1000 -2.0000
    endloop
endfacet
facet normal 0.0000 -10.8000 0.0000
    outer loop
        vertex 0.9920 -0.1000 2.0000
        vertex 0.0000 -0.1000 2.8000
        vertex -1.1680 -0.1000 2.0000
    endloop
endfacet
facet normal 0.0000 -4.1000 0.0000
    outer loop
        vertex -1.1680 -0.1000 2.0000
        vertex 0.0000 -0.1000 2.8000
        vertex -1.9880 -0.1000 2.0000
    endloop
endfacet
facet normal 0.0000 -11.0600 0.0000
    outer loop
        vertex -1.9880 -0.1000 2.0000
        vertex 0.0000 -0.1000 2.8000
        vertex -4.2000 -0.1000 2.0000
    endloop
endfacet
facet normal 0.0000 -9.8200 0.0000
    outer loop
        vertex -11.6000 -0.1000 2.8000
        vertex -6.1640 -0.1000 2.0000
        vertex -4.2000 -0.1000 2.0000
    endloop
endfacet
facet normal 0.0000 -58.0000 0.0000
    outer loop
        vertex -4.2000 -0.1000 2.0000
        vertex 0.0000 -0.1000 2.8000
        vertex -11.6000 -0.1000 2.8000
    endloop
endfacet
facet normal 0.0000 -6.9200 0.0000
    outer loop
        vertex -6.1640 -0.1000 2.0000
        vertex -11.6000 -0.1000 2.8000
        vertex -7.5480 -0.1000 2.0000
    endloop
endfacet
facet normal 0.0000 -8.9000 0.0000
    outer loop
        vertex -7.5480 -0.1000 2.0000
        vertex -11.6000 -0.1000 2.8000
        vertex -9.3280 -0.1000 2.0000
    endloop
endfacet
facet normal 0.0000 -5.7511 0.0000
    outer loop
        vertex -8.5000 -0.1000 1.3040
        vertex -8.5000 -0.1000 0.1480
        vertex -7.7040 -0.1000 0.1480
    endloop
endfacet
facet normal 0.0000 -6.0690 0.0000
    outer loop
        vertex -7.7040 -0.1000 0.1480
        vertex -7.6600 -0.1000 1.3040
        vertex -8.5000 -0.1000 1.3040
    endloop
endfacet
facet normal 0.0000 -0.1296 0.0000
    outer loop
        vertex -7.1240 -0.1000 0.9800
        vertex -7.2320 -0.1000 1.1600
        vertex -7.4120 -0.1000 1.2680
    endloop
endfacet
facet normal 0.0000 -0.1413 0.0000
    outer loop
        vertex -7.4200 -0.1000 0.1840
        vertex -7.2320 -0.1000 0.2880
        vertex -7.1240 -0.1000 0.4680
    endloop
endfacet
facet normal 0.0000 -0.4375 0.0000
    outer loop
        vertex -7.7040 -0.1000 0.1480
        vertex -7.4200 -0.1000 0.1840
        vertex -7.1240 -0.1000 0.4680
    endloop
endfacet
facet normal 0.0000 -0.8850 0.0000
    outer loop
        vertex -7.1240 -0.1000 0.4680
        vertex -7.0880 -0.1000 0.7320
        vertex -7.7040 -0.1000 0.1480
    endloop
endfacet
facet normal 0.0000 -0.7579 0.0000
    outer loop
        vertex -7.4120 -0.1000 1.2680
        vertex -7.6600 -0.1000 1.3040
        vertex -7.0880 -0.1000 0.7320
    endloop
endfacet
facet normal 0.0000 -0.3816 0.0000
    outer loop
        vertex -7.0880 -0.1000 0.7320
        vertex -7.1240 -0.1000 0.9800
        vertex -7.4120 -0.1000 1.2680
    endloop
endfacet
facet normal 0.0000 -4.2900 0.0000
    outer loop
        vertex -7.7040 -0.1000 0.1480
        vertex -7.0880 -0.1000 0.7320
        vertex -7.6600 -0.1000 1.3040
    endloop
endfacet
facet normal 0.0000 -1.5620 0.0000
    outer loop
        vertex -6.1640 -0.1000 2.0000
        vertex -6.5920 -0.1000 1.6720
        vertex -6.3520 -0.1000 1.2720
    endloop
endfacet
facet normal 0.0000 -0.6920 0.0000
    outer loop
        vertex -6.1640 -0.1000 2.0000
        vertex -7.5480 -0.1000 2.0000
        vertex -6.9920 -0.1000 1.9200
    endloop
endfacet
facet normal 0.0000 -1.4834 0.0000
    outer loop
        vertex -6.1640 -0.1000 2.0000
        vertex -6.9920 -0.1000 1.9200
        vertex -6.5920 -0.1000 1.6720
    endloop
endfacet
facet normal 0.0000 -1.0220 0.0000
    outer loop
        vertex -6.1640 -0.1000 2.0000
        vertex -6.3520 -0.1000 1.2720
        vertex -6.2720 -0.1000 0.7120
    endloop
endfacet
facet normal 0.0000 -5.3427 0.0000
    outer loop
        vertex -6.1640 -0.1000 -2.0000
        vertex -6.9720 -0.1000 -0.4920
        vertex -7.4960 -0.1000 -0.5720
    endloop
endfacet
facet normal 0.0000 -4.8918 0.0000
    outer loop
        vertex -6.1640 -0.1000 -2.0000
        vertex -6.5880 -0.1000 -0.2400
        vertex -6.9720 -0.1000 -0.4920
    endloop
endfacet
facet normal 0.0000 -1.6554 0.0000
    outer loop
        vertex -6.1640 -0.1000 -2.0000
        vertex -6.2720 -0.1000 0.7120
        vertex -6.3480 -0.1000 0.1680
    endloop
endfacet
facet normal 0.0000 -20.9202 0.0000
    outer loop
        vertex -8.5080 -0.1000 -0.5720
        vertex -8.5080 -0.1000 -2.0000
        vertex -6.1640 -0.1000 -2.0000
    endloop
endfacet
facet normal 0.0000 -9.0321 0.0000
    outer loop
        vertex -6.1640 -0.1000 -2.0000
        vertex -7.4960 -0.1000 -0.5720
        vertex -8.5080 -0.1000 -0.5720
    endloop
endfacet
facet normal 0.0000 -3.7212 0.0000
    outer loop
        vertex -6.1640 -0.1000 -2.0000
        vertex -6.3480 -0.1000 0.1680
        vertex -6.5880 -0.1000 -0.2400
    endloop
endfacet
facet normal 0.0000 -1.8089 0.0000
    outer loop
        vertex -6.1640 -0.1000 -2.0000
        vertex -5.2880 -0.1000 -1.6960
        vertex -5.5600 -0.1000 -1.4600
    endloop
endfacet
facet normal 0.0000 -1.8802 0.0000
    outer loop
        vertex -1.9880 -0.1000 2.0000
        vertex -4.2000 -0.1000 2.0000
        vertex -3.4440 -0.1000 1.8640
    endloop
endfacet
facet normal 0.0000 -1.7974 0.0000
    outer loop
        vertex -1.9880 -0.1000 2.0000
        vertex -3.4440 -0.1000 1.8640
        vertex -3.1280 -0.1000 1.6960
    endloop
endfacet
facet normal 0.0000 -4.6953 0.0000
    outer loop
        vertex -1.9880 -0.1000 2.0000
        vertex -2.8520 -0.1000 1.4600
        vertex -2.4720 -0.1000 0.8280
    endloop
endfacet
facet normal 0.0000 -2.2059 0.0000
    outer loop
        vertex -1.9880 -0.1000 2.0000
        vertex -3.1280 -0.1000 1.6960
        vertex -2.8520 -0.1000 1.4600
    endloop
endfacet
facet normal 0.0000 -1.5202 0.0000
    outer loop
        vertex -6.1640 -0.1000 2.0000
        vertex -5.2880 -0.1000 1.6960
        vertex -4.9720 -0.1000 1.8640
    endloop
endfacet
facet normal 0.0000 -1.7974 0.0000
    outer loop
        vertex -1.9880 -0.1000 -2.0000
        vertex -3.1280 -0.1000 -1.6960
        vertex -3.4440 -0.1000 -1.8640
    endloop
endfacet
facet normal 0.0000 -4.7169 0.0000
    outer loop
        vertex -1.9880 -0.1000 -2.0000
        vertex -2.4720 -0.1000 -0.8240
        vertex -2.8520 -0.1000 -1.4600
    endloop
endfacet
facet normal 0.0000 -3.4334 0.0000
    outer loop
        vertex -1.9880 -0.1000 -2.0000
        vertex -2.3440 -0.1000 0.0000
        vertex -2.4720 -0.1000 -0.8240
    endloop
endfacet
facet normal 0.0000 -1.8802 0.0000
    outer loop
        vertex -1.9880 -0.1000 -2.0000
        vertex -3.4440 -0.1000 -1.8640
        vertex -4.2000 -0.1000 -2.0000
    endloop
endfacet
facet normal 0.0000 -1.5202 0.0000
    outer loop
        vertex -6.1640 -0.1000 -2.0000
        vertex -4.9720 -0.1000 -1.8640
        vertex -5.2880 -0.1000 -1.6960
    endloop
endfacet
facet normal 0.0000 -2.2059 0.0000
    outer loop
        vertex -1.9880 -0.1000 -2.0000
        vertex -2.8520 -0.1000 -1.4600
        vertex -3.1280 -0.1000 -1.6960
    endloop
endfacet
facet normal 0.0000 -1.6694 0.0000
    outer loop
        vertex -6.1640 -0.1000 2.0000
        vertex -4.9720 -0.1000 1.8640
        vertex -4.2000 -0.1000 2.0000
    endloop
endfacet
facet normal 0.0000 -0.5323 0.0000
    outer loop
        vertex -4.6520 -0.1000 1.2360
        vertex -4.9840 -0.1000 0.9800
        vertex -5.1960 -0.1000 0.5600
    endloop
endfacet
facet normal 0.0000 -1.6105 0.0000
    outer loop
        vertex -5.1960 -0.1000 0.5600
        vertex -4.2000 -0.1000 1.3240
        vertex -4.6520 -0.1000 1.2360
    endloop
endfacet
facet normal 0.0000 -1.6105 0.0000
    outer loop
        vertex -4.6520 -0.1000 -1.2280
        vertex -4.2000 -0.1000 -1.3160
        vertex -5.1960 -0.1000 -0.5520
    endloop
endfacet
facet normal 0.0000 -0.5187 0.0000
    outer loop
        vertex -5.1960 -0.1000 -0.5520
        vertex -4.9840 -0.1000 -0.9680
        vertex -4.6520 -0.1000 -1.2280
    endloop
endfacet
facet normal 0.0000 -1.6694 0.0000
    outer loop
        vertex -6.1640 -0.1000 -2.0000
        vertex -4.2000 -0.1000 -2.0000
        vertex -4.9720 -0.1000 -1.8640
    endloop
endfacet
facet normal 0.0000 -2.1089 0.0000
    outer loop
        vertex -6.1640 -0.1000 2.0000
        vertex -6.0560 -0.1000 0.0000
        vertex -5.9320 -0.1000 0.8280
    endloop
endfacet
facet normal 0.0000 -2.1062 0.0000
    outer loop
        vertex -6.1640 -0.1000 -2.0000
        vertex -5.9320 -0.1000 -0.8240
        vertex -6.0560 -0.1000 0.0000
    endloop
endfacet
facet normal 0.0000 -1.5554 0.0000
    outer loop
        vertex -3.7600 -0.1000 1.2360
        vertex -4.2000 -0.1000 1.3240
        vertex -3.2080 -0.1000 0.5600
    endloop
endfacet
facet normal 0.0000 -0.5364 0.0000
    outer loop
        vertex -3.2080 -0.1000 0.5600
        vertex -3.4240 -0.1000 0.9800
        vertex -3.7600 -0.1000 1.2360
    endloop
endfacet
facet normal 0.0000 -3.6413 0.0000
    outer loop
        vertex -6.1640 -0.1000 2.0000
        vertex -5.9320 -0.1000 0.8280
        vertex -5.5600 -0.1000 1.4600
    endloop
endfacet
facet normal 0.0000 -3.1613 0.0000
    outer loop
        vertex -4.2000 -0.1000 1.3240
        vertex -5.1960 -0.1000 0.5600
        vertex -5.2640 -0.1000 0.0000
    endloop
endfacet
facet normal 0.0000 -13.2894 0.0000
    outer loop
        vertex -5.2640 -0.1000 0.0000
        vertex -3.2080 -0.1000 0.5600
        vertex -4.2000 -0.1000 1.3240
    endloop
endfacet
facet normal 0.0000 -0.5226 0.0000
    outer loop
        vertex -3.7600 -0.1000 -1.2280
        vertex -3.4240 -0.1000 -0.9680
        vertex -3.2080 -0.1000 -0.5520
    endloop
endfacet
facet normal 0.0000 -1.5554 0.0000
    outer loop
        vertex -3.2080 -0.1000 -0.5520
        vertex -4.2000 -0.1000 -1.3160
        vertex -3.7600 -0.1000 -1.2280
    endloop
endfacet
facet normal 0.0000 -3.6564 0.0000
    outer loop
        vertex -6.1640 -0.1000 -2.0000
        vertex -5.5600 -0.1000 -1.4600
        vertex -5.9320 -0.1000 -0.8240
    endloop
endfacet
facet normal 0.0000 -9.4927 0.0000
    outer loop
        vertex -5.1960 -0.1000 -0.5520
        vertex -4.2000 -0.1000 -1.3160
        vertex -3.2080 -0.1000 -0.5520
    endloop
endfacet
facet normal 0.0000 -1.8089 0.0000
    outer loop
        vertex -6.1640 -0.1000 2.0000
        vertex -5.5600 -0.1000 1.4600
        vertex -5.2880 -0.1000 1.6960
    endloop
endfacet
facet normal 0.0000 -6.8586 0.0000
    outer loop
        vertex -5.1960 -0.1000 -0.5520
        vertex -3.2080 -0.1000 -0.5520
        vertex -3.1360 -0.1000 0.0000
    endloop
endfacet
facet normal 0.0000 -7.3416 0.0000
    outer loop
        vertex -3.1360 -0.1000 0.0000
        vertex -5.2640 -0.1000 0.0000
        vertex -5.1960 -0.1000 -0.5520
    endloop
endfacet
facet normal 0.0000 -7.4480 0.0000
    outer loop
        vertex -5.2640 -0.1000 0.0000
        vertex -3.1360 -0.1000 0.0000
        vertex -3.2080 -0.1000 0.5600
    endloop
endfacet
facet normal 0.0000 -39.8535 0.0000
    outer loop
        vertex -1.1680 -0.1000 2.0000
        vertex -1.1680 -0.1000 -1.2600
        vertex 0.7880 -0.1000 -1.2600
    endloop
endfacet
facet normal 0.0000 -44.0100 0.0000
    outer loop
        vertex 0.7880 -0.1000 -1.2600
        vertex 0.9920 -0.1000 2.0000
        vertex -1.1680 -0.1000 2.0000
    endloop
endfacet
facet normal 0.0000 -1.1055 0.0000
    outer loop
        vertex 4.9560 -0.1000 0.6480
        vertex 4.4400 -0.1000 1.2640
        vertex 4.1160 -0.1000 1.3080
    endloop
endfacet
facet normal 0.0000 -2.3322 0.0000
    outer loop
        vertex 1.8080 -0.1000 2.0000
        vertex 2.5360 -0.1000 1.2000
        vertex 2.7440 -0.1000 1.4840
    endloop
endfacet
facet normal 0.0000 -0.5508 0.0000
    outer loop
        vertex 3.3360 -0.1000 0.9720
        vertex 3.1320 -0.1000 0.5640
        vertex 3.0680 -0.1000 0.0040
    endloop
endfacet
facet normal 0.0000 -10.3437 0.0000
    outer loop
        vertex 3.0680 -0.1000 0.0040
        vertex 4.9560 -0.1000 0.6480
        vertex 3.3360 -0.1000 0.9720
    endloop
endfacet
facet normal 0.0000 -0.5703 0.0000
    outer loop
        vertex 4.6920 -0.1000 1.1400
        vertex 4.4400 -0.1000 1.2640
        vertex 4.9560 -0.1000 0.6480
    endloop
endfacet
facet normal 0.0000 -0.1857 0.0000
    outer loop
        vertex 4.9560 -0.1000 0.6480
        vertex 4.8640 -0.1000 0.9320
        vertex 4.6920 -0.1000 1.1400
    endloop
endfacet
facet normal 0.0000 -2.2036 0.0000
    outer loop
        vertex 1.8080 -0.1000 -2.0000
        vertex 2.9960 -0.1000 -1.7040
        vertex 2.7360 -0.1000 -1.4720
    endloop
endfacet
facet normal 0.0000 -4.6166 0.0000
    outer loop
        vertex 3.1320 -0.1000 -0.5440
        vertex 3.3320 -0.1000 -0.9520
        vertex 4.9640 -0.1000 -0.5880
    endloop
endfacet
facet normal 0.0000 -6.7240 0.0000
    outer loop
        vertex 4.9560 -0.1000 0.6480
        vertex 3.0680 -0.1000 0.0040
        vertex 3.1320 -0.1000 -0.5440
    endloop
endfacet
facet normal 0.0000 -14.1500 0.0000
    outer loop
        vertex 3.1320 -0.1000 -0.5440
        vertex 4.9640 -0.1000 -0.5880
        vertex 4.9560 -0.1000 0.6480
    endloop
endfacet
facet normal 0.0000 -2.1981 0.0000
    outer loop
        vertex 1.8080 -0.1000 2.0000
        vertex 2.7440 -0.1000 1.4840
        vertex 3.0120 -0.1000 1.7120
    endloop
endfacet
facet normal 0.0000 -0.8883 0.0000
    outer loop
        vertex 3.3320 -0.1000 -0.9520
        vertex 4.0880 -0.1000 -1.2880
        vertex 4.4120 -0.1000 -1.2440
    endloop
endfacet
facet normal 0.0000 -5.4354 0.0000
    outer loop
        vertex 4.4120 -0.1000 -1.2440
        vertex 4.9640 -0.1000 -0.5880
        vertex 3.3320 -0.1000 -0.9520
    endloop
endfacet
facet normal 0.0000 -0.1965 0.0000
    outer loop
        vertex 4.6720 -0.1000 -1.1080
        vertex 4.8560 -0.1000 -0.8880
        vertex 4.9640 -0.1000 -0.5880
    endloop
endfacet
facet normal 0.0000 -0.5968 0.0000
    outer loop
        vertex 4.9640 -0.1000 -0.5880
        vertex 4.4120 -0.1000 -1.2440
        vertex 4.6720 -0.1000 -1.1080
    endloop
endfacet
facet normal 0.0000 -1.7801 0.0000
    outer loop
        vertex 1.8080 -0.1000 -2.0000
        vertex 3.3000 -0.1000 -1.8680
        vertex 2.9960 -0.1000 -1.7040
    endloop
endfacet
facet normal 0.0000 -1.0912 0.0000
    outer loop
        vertex 6.1000 -0.1000 2.0000
        vertex 4.1160 -0.1000 2.0000
        vertex 4.7640 -0.1000 1.9120
    endloop
endfacet
facet normal 0.0000 -1.7728 0.0000
    outer loop
        vertex 1.8080 -0.1000 2.0000
        vertex 3.0120 -0.1000 1.7120
        vertex 3.3280 -0.1000 1.8720
    endloop
endfacet
facet normal 0.0000 -2.9579 0.0000
    outer loop
        vertex 6.1000 -0.1000 2.0000
        vertex 5.2640 -0.1000 1.6480
        vertex 5.5920 -0.1000 1.2200
    endloop
endfacet
facet normal 0.0000 -2.4794 0.0000
    outer loop
        vertex 6.1000 -0.1000 2.0000
        vertex 4.7640 -0.1000 1.9120
        vertex 5.2640 -0.1000 1.6480
    endloop
endfacet
facet normal 0.0000 -2.4986 0.0000
    outer loop
        vertex 6.1000 -0.1000 2.0000
        vertex 5.5920 -0.1000 1.2200
        vertex 5.7320 -0.1000 0.6480
    endloop
endfacet
facet normal 0.0000 -5.9946 0.0000
    outer loop
        vertex 5.7320 -0.1000 -0.5880
        vertex 5.7320 -0.1000 0.6480
        vertex 4.9560 -0.1000 0.6480
    endloop
endfacet
facet normal 0.0000 -5.9328 0.0000
    outer loop
        vertex 4.9560 -0.1000 0.6480
        vertex 4.9640 -0.1000 -0.5880
        vertex 5.7320 -0.1000 -0.5880
    endloop
endfacet
facet normal 0.0000 -3.2640 0.0000
    outer loop
        vertex 6.1000 -0.1000 -2.0000
        vertex 5.5880 -0.1000 -1.1680
        vertex 5.2360 -0.1000 -1.6160
    endloop
endfacet
facet normal 0.0000 -2.6048 0.0000
    outer loop
        vertex 6.1000 -0.1000 -2.0000
        vertex 5.7320 -0.1000 -0.5880
        vertex 5.5880 -0.1000 -1.1680
    endloop
endfacet
facet normal 0.0000 -2.8128 0.0000
    outer loop
        vertex 6.1000 -0.1000 -2.0000
        vertex 5.2360 -0.1000 -1.6160
        vertex 4.7120 -0.1000 -1.9040
    endloop
endfacet
facet normal 0.0000 -1.2312 0.0000
    outer loop
        vertex 6.1000 -0.1000 -2.0000
        vertex 4.7120 -0.1000 -1.9040
        vertex 4.0480 -0.1000 -2.0000
    endloop
endfacet
facet normal 0.0000 -1.8480 0.0000
    outer loop
        vertex 1.8080 -0.1000 -2.0000
        vertex 4.0480 -0.1000 -2.0000
        vertex 3.3000 -0.1000 -1.8680
    endloop
endfacet
facet normal 0.0000 -0.5187 0.0000
    outer loop
        vertex 3.3320 -0.1000 -0.9520
        vertex 3.6520 -0.1000 -1.2040
        vertex 4.0880 -0.1000 -1.2880
    endloop
endfacet
facet normal 0.0000 -1.8464 0.0000
    outer loop
        vertex 1.8080 -0.1000 2.0000
        vertex 3.3280 -0.1000 1.8720
        vertex 4.1160 -0.1000 2.0000
    endloop
endfacet
facet normal 0.0000 -2.3055 0.0000
    outer loop
        vertex 4.9560 -0.1000 0.6480
        vertex 4.1160 -0.1000 1.3080
        vertex 3.6640 -0.1000 1.2240
    endloop
endfacet
facet normal 0.0000 -3.2157 0.0000
    outer loop
        vertex 3.6640 -0.1000 1.2240
        vertex 3.3360 -0.1000 0.9720
        vertex 4.9560 -0.1000 0.6480
    endloop
endfacet
facet normal 0.0000 -3.8794 0.0000
    outer loop
        vertex 1.8080 -0.1000 -2.0000
        vertex 2.3840 -0.1000 -0.8400
        vertex 2.2680 -0.1000 0.0040
    endloop
endfacet
facet normal 0.0000 -0.9465 0.0000
    outer loop
        vertex 1.8080 -0.1000 -2.0000
        vertex 2.2680 -0.1000 0.0040
        vertex 2.3880 -0.1000 0.8560
    endloop
endfacet
facet normal 0.0000 -14.5000 0.0000
    outer loop
        vertex 2.3880 -0.1000 0.8560
        vertex 1.8080 -0.1000 2.0000
        vertex 1.8080 -0.1000 -2.0000
    endloop
endfacet
facet normal 0.0000 -2.3052 0.0000
    outer loop
        vertex 1.8080 -0.1000 2.0000
        vertex 2.3880 -0.1000 0.8560
        vertex 2.5360 -0.1000 1.2000
    endloop
endfacet
facet normal 0.0000 -4.8272 0.0000
    outer loop
        vertex 1.8080 -0.1000 -2.0000
        vertex 2.7360 -0.1000 -1.4720
        vertex 2.3840 -0.1000 -0.8400
    endloop
endfacet
facet normal 0.0000 -3.8085 0.0000
    outer loop
        vertex 8.8240 -0.1000 -0.2360
        vertex 9.1000 -0.1000 -1.2600
        vertex 9.0040 -0.1000 1.3040
    endloop
endfacet
facet normal 0.0000 -0.7740 0.0000
    outer loop
        vertex 9.0040 -0.1000 1.3040
        vertex 8.8240 -0.1000 0.4520
        vertex 8.8240 -0.1000 -0.2360
    endloop
endfacet
facet normal 0.0000 -10.1814 0.0000
    outer loop
        vertex 6.9120 -0.1000 0.4520
        vertex 8.8240 -0.1000 0.4520
        vertex 9.0040 -0.1000 1.3040
    endloop
endfacet
facet normal 0.0000 -11.1399 0.0000
    outer loop
        vertex 9.0040 -0.1000 1.3040
        vertex 6.9120 -0.1000 1.3040
        vertex 6.9120 -0.1000 0.4520
    endloop
endfacet
facet normal 0.0000 -12.2368 0.0000
    outer loop
        vertex 9.1000 -0.1000 -1.2600
        vertex 8.8240 -0.1000 -0.2360
        vertex 6.9120 -0.1000 -0.2360
    endloop
endfacet
facet normal 0.0000 -14.0032 0.0000
    outer loop
        vertex 6.9120 -0.1000 -0.2360
        vertex 6.9120 -0.1000 -1.2600
        vertex 9.1000 -0.1000 -1.2600
    endloop
endfacet
facet normal 0.0000 -5.1000 0.0000
    outer loop
        vertex 0.7880 -0.1000 -2.0000
        vertex 0.9920 -0.1000 -2.0000
        vertex 0.9920 -0.1000 2.0000
    endloop
endfacet
facet normal 0.0000 -0.9435 0.0000
    outer loop
        vertex 0.9920 -0.1000 2.0000
        vertex 0.7880 -0.1000 -1.2600
        vertex 0.7880 -0.1000 -2.0000
    endloop
endfacet
facet normal 0.0000 -2.2194 0.0000
    outer loop
        vertex -6.0560 -0.1000 0.0000
        vertex -6.1640 -0.1000 2.0000
        vertex -6.2720 -0.1000 0.7120
    endloop
endfacet
facet normal 0.0000 -3.1806 0.0000
    outer loop
        vertex -6.2720 -0.1000 0.7120
        vertex -6.1640 -0.1000 -2.0000
        vertex -6.0560 -0.1000 0.0000
    endloop
endfacet
facet normal 0.0000 -0.2423 0.0000
    outer loop
        vertex -2.4720 -0.1000 0.8280
        vertex -2.3440 -0.1000 0.0000
        vertex -1.9880 -0.1000 -2.0000
    endloop
endfacet
facet normal 0.0000 -12.1000 0.0000
    outer loop
        vertex -1.9880 -0.1000 -2.0000
        vertex -1.9880 -0.1000 2.0000
        vertex -2.4720 -0.1000 0.8280
    endloop
endfacet
facet normal 0.0000 -2.8428 0.0000
    outer loop
        vertex 6.1000 -0.1000 2.0000
        vertex 5.7320 -0.1000 0.6480
        vertex 5.7320 -0.1000 -0.5880
    endloop
endfacet
facet normal 0.0000 -9.2000 0.0000
    outer loop
        vertex 5.7320 -0.1000 -0.5880
        vertex 6.1000 -0.1000 -2.0000
        vertex 6.1000 -0.1000 2.0000
    endloop
endfacet
facet normal 0.0000 -7.7430 0.0000
    outer loop
        vertex -7.5480 -0.1000 2.0000
        vertex -9.3280 -0.1000 2.0000
        vertex -8.5000 -0.1000 1.3040
    endloop
endfacet
facet normal 0.0000 -3.6540 0.0000
    outer loop
        vertex -8.5000 -0.1000 1.3040
        vertex -7.6600 -0.1000 1.3040
        vertex -7.5480 -0.1000 2.0000
    endloop
endfacet
facet normal 0.0000 -4.5540 0.0000
    outer loop
        vertex -8.5000 -0.1000 0.1480
        vertex -8.5080 -0.1000 -0.5720
        vertex -7.4960 -0.1000 -0.5720
    endloop
endfacet
facet normal 0.0000 -3.5820 0.0000
    outer loop
        vertex -7.4960 -0.1000 -0.5720
        vertex -7.7040 -0.1000 0.1480
        vertex -8.5000 -0.1000 0.1480
    endloop
endfacet
facet normal 0.0000 -1.3248 0.0000
    outer loop
        vertex -7.7040 -0.1000 0.1480
        vertex -7.4960 -0.1000 -0.5720
        vertex -7.4200 -0.1000 0.1840
    endloop
endfacet
facet normal 0.0000 -1.1051 0.0000
    outer loop
        vertex -7.6600 -0.1000 1.3040
        vertex -7.4120 -0.1000 1.2680
        vertex -6.9920 -0.1000 1.9200
    endloop
endfacet
facet normal 0.0000 -2.4746 0.0000
    outer loop
        vertex -6.9920 -0.1000 1.9200
        vertex -7.5480 -0.1000 2.0000
        vertex -7.6600 -0.1000 1.3040
    endloop
endfacet
facet normal 0.0000 -2.6845 0.0000
    outer loop
        vertex -7.4960 -0.1000 -0.5720
        vertex -6.9720 -0.1000 -0.4920
        vertex -7.2320 -0.1000 0.2880
    endloop
endfacet
facet normal 0.0000 -0.8389 0.0000
    outer loop
        vertex -7.2320 -0.1000 0.2880
        vertex -7.4200 -0.1000 0.1840
        vertex -7.4960 -0.1000 -0.5720
    endloop
endfacet
facet normal 0.0000 -1.0080 0.0000
    outer loop
        vertex -7.4120 -0.1000 1.2680
        vertex -7.2320 -0.1000 1.1600
        vertex -6.5920 -0.1000 1.6720
    endloop
endfacet
facet normal 0.0000 -2.2810 0.0000
    outer loop
        vertex -6.5920 -0.1000 1.6720
        vertex -6.9920 -0.1000 1.9200
        vertex -7.4120 -0.1000 1.2680
    endloop
endfacet
facet normal 0.0000 -2.3680 0.0000
    outer loop
        vertex -6.3520 -0.1000 1.2720
        vertex -6.5920 -0.1000 1.6720
        vertex -7.2320 -0.1000 1.1600
    endloop
endfacet
facet normal 0.0000 -1.0656 0.0000
    outer loop
        vertex -7.2320 -0.1000 1.1600
        vertex -7.1240 -0.1000 0.9800
        vertex -6.3520 -0.1000 1.2720
    endloop
endfacet
facet normal 0.0000 -2.5434 0.0000
    outer loop
        vertex -6.9720 -0.1000 -0.4920
        vertex -6.5880 -0.1000 -0.2400
        vertex -7.1240 -0.1000 0.4680
    endloop
endfacet
facet normal 0.0000 -0.8190 0.0000
    outer loop
        vertex -7.1240 -0.1000 0.4680
        vertex -7.2320 -0.1000 0.2880
        vertex -6.9720 -0.1000 -0.4920
    endloop
endfacet
facet normal 0.0000 -4.5875 0.0000
    outer loop
        vertex -6.2720 -0.1000 0.7120
        vertex -7.1240 -0.1000 0.4680
        vertex -6.5880 -0.1000 -0.2400
    endloop
endfacet
facet normal 0.0000 -0.6222 0.0000
    outer loop
        vertex -6.5880 -0.1000 -0.2400
        vertex -6.3480 -0.1000 0.1680
        vertex -6.2720 -0.1000 0.7120
    endloop
endfacet
facet normal 0.0000 -1.2623 0.0000
    outer loop
        vertex -6.3520 -0.1000 1.2720
        vertex -7.1240 -0.1000 0.9800
        vertex -7.0880 -0.1000 0.7320
    endloop
endfacet
facet normal 0.0000 -2.8460 0.0000
    outer loop
        vertex -7.0880 -0.1000 0.7320
        vertex -6.2720 -0.1000 0.7120
        vertex -6.3520 -0.1000 1.2720
    endloop
endfacet
facet normal 0.0000 -1.3509 0.0000
    outer loop
        vertex -7.1240 -0.1000 0.4680
        vertex -6.2720 -0.1000 0.7120
        vertex -7.0880 -0.1000 0.7320
    endloop
endfacet
facet normal 0.0000 -7.3185 0.0000
    outer loop
        vertex -8.5080 -0.1000 -0.5720
        vertex -9.3280 -0.1000 -2.0000
        vertex -8.5080 -0.1000 -2.0000
    endloop
endfacet
facet normal 0.0000 -5.9823 0.0000
    outer loop
        vertex -8.5000 -0.1000 1.3040
        vertex -9.3280 -0.1000 2.0000
        vertex -8.5000 -0.1000 0.1480
    endloop
endfacet
facet normal 0.0000 -3.8186 0.0000
    outer loop
        vertex -8.5080 -0.1000 -0.5720
        vertex -8.5000 -0.1000 0.1480
        vertex -9.3280 -0.1000 2.0000
    endloop
endfacet
facet normal 0.0000 -20.5000 0.0000
    outer loop
        vertex -9.3280 -0.1000 2.0000
        vertex -9.3280 -0.1000 -2.0000
        vertex -8.5080 -0.1000 -0.5720
    endloop
endfacet
facet normal 0.0000 -1.7249 0.0000
    outer loop
        vertex -3.4240 -0.1000 0.9800
        vertex -3.1280 -0.1000 1.6960
        vertex -3.4440 -0.1000 1.8640
    endloop
endfacet
facet normal 0.0000 -1.8244 0.0000
    outer loop
        vertex -3.4440 -0.1000 1.8640
        vertex -3.7600 -0.1000 1.2360
        vertex -3.4240 -0.1000 0.9800
    endloop
endfacet
facet normal 0.0000 -1.7486 0.0000
    outer loop
        vertex -3.4440 -0.1000 -1.8640
        vertex -3.1280 -0.1000 -1.6960
        vertex -3.4240 -0.1000 -0.9680
    endloop
endfacet
facet normal 0.0000 -1.8491 0.0000
    outer loop
        vertex -3.4240 -0.1000 -0.9680
        vertex -3.7600 -0.1000 -1.2280
        vertex -3.4440 -0.1000 -1.8640
    endloop
endfacet
facet normal 0.0000 -0.5297 0.0000
    outer loop
        vertex -2.4720 -0.1000 0.8280
        vertex -2.8520 -0.1000 1.4600
        vertex -3.1280 -0.1000 1.6960
    endloop
endfacet
facet normal 0.0000 -4.5414 0.0000
    outer loop
        vertex -3.1280 -0.1000 1.6960
        vertex -3.4240 -0.1000 0.9800
        vertex -2.4720 -0.1000 0.8280
    endloop
endfacet
facet normal 0.0000 -4.0986 0.0000
    outer loop
        vertex -5.9320 -0.1000 0.8280
        vertex -6.0560 -0.1000 0.0000
        vertex -5.2640 -0.1000 0.0000
    endloop
endfacet
facet normal 0.0000 -2.6899 0.0000
    outer loop
        vertex -5.2640 -0.1000 0.0000
        vertex -5.1960 -0.1000 0.5600
        vertex -5.9320 -0.1000 0.8280
    endloop
endfacet
facet normal 0.0000 -4.5980 0.0000
    outer loop
        vertex -2.4720 -0.1000 -0.8240
        vertex -3.4240 -0.1000 -0.9680
        vertex -3.1280 -0.1000 -1.6960
    endloop
endfacet
facet normal 0.0000 -0.5366 0.0000
    outer loop
        vertex -3.1280 -0.1000 -1.6960
        vertex -2.8520 -0.1000 -1.4600
        vertex -2.4720 -0.1000 -0.8240
    endloop
endfacet
facet normal 0.0000 -2.6548 0.0000
    outer loop
        vertex -5.9320 -0.1000 -0.8240
        vertex -5.1960 -0.1000 -0.5520
        vertex -5.2640 -0.1000 0.0000
    endloop
endfacet
facet normal 0.0000 -4.0788 0.0000
    outer loop
        vertex -5.2640 -0.1000 0.0000
        vertex -6.0560 -0.1000 0.0000
        vertex -5.9320 -0.1000 -0.8240
    endloop
endfacet
facet normal 0.0000 -3.5303 0.0000
    outer loop
        vertex -5.5600 -0.1000 1.4600
        vertex -5.9320 -0.1000 0.8280
        vertex -5.1960 -0.1000 0.5600
    endloop
endfacet
facet normal 0.0000 -2.1480 0.0000
    outer loop
        vertex -5.1960 -0.1000 0.5600
        vertex -4.9840 -0.1000 0.9800
        vertex -5.5600 -0.1000 1.4600
    endloop
endfacet
facet normal 0.0000 -3.5580 0.0000
    outer loop
        vertex -5.1960 -0.1000 -0.5520
        vertex -5.9320 -0.1000 -0.8240
        vertex -5.5600 -0.1000 -1.4600
    endloop
endfacet
facet normal 0.0000 -2.1495 0.0000
    outer loop
        vertex -5.5600 -0.1000 -1.4600
        vertex -4.9840 -0.1000 -0.9680
        vertex -5.1960 -0.1000 -0.5520
    endloop
endfacet
facet normal 0.0000 -1.9569 0.0000
    outer loop
        vertex -4.6520 -0.1000 -1.2280
        vertex -4.9840 -0.1000 -0.9680
        vertex -5.5600 -0.1000 -1.4600
    endloop
endfacet
facet normal 0.0000 -1.7337 0.0000
    outer loop
        vertex -5.5600 -0.1000 -1.4600
        vertex -5.2880 -0.1000 -1.6960
        vertex -4.6520 -0.1000 -1.2280
    endloop
endfacet
facet normal 0.0000 -2.7324 0.0000
    outer loop
        vertex -3.2080 -0.1000 -0.5520
        vertex -2.3440 -0.1000 0.0000
        vertex -3.1360 -0.1000 0.0000
    endloop
endfacet
facet normal 0.0000 -1.5120 0.0000
    outer loop
        vertex -3.4240 -0.1000 0.9800
        vertex -3.2080 -0.1000 0.5600
        vertex -2.3440 -0.1000 0.0000
    endloop
endfacet
facet normal 0.0000 -4.8050 0.0000
    outer loop
        vertex -2.3440 -0.1000 0.0000
        vertex -2.4720 -0.1000 0.8280
        vertex -3.4240 -0.1000 0.9800
    endloop
endfacet
facet normal 0.0000 -4.7876 0.0000
    outer loop
        vertex -3.4240 -0.1000 -0.9680
        vertex -2.4720 -0.1000 -0.8240
        vertex -2.3440 -0.1000 0.0000
    endloop
endfacet
facet normal 0.0000 -1.5012 0.0000
    outer loop
        vertex -2.3440 -0.1000 0.0000
        vertex -3.2080 -0.1000 -0.5520
        vertex -3.4240 -0.1000 -0.9680
    endloop
endfacet
facet normal 0.0000 -2.7720 0.0000
    outer loop
        vertex -3.1360 -0.1000 0.0000
        vertex -2.3440 -0.1000 0.0000
        vertex -3.2080 -0.1000 0.5600
    endloop
endfacet
facet normal 0.0000 -0.5420 0.0000
    outer loop
        vertex -4.2000 -0.1000 2.0000
        vertex -4.9720 -0.1000 1.8640
        vertex -5.2880 -0.1000 1.6960
    endloop
endfacet
facet normal 0.0000 -4.3364 0.0000
    outer loop
        vertex -5.2880 -0.1000 1.6960
        vertex -4.6520 -0.1000 1.2360
        vertex -4.2000 -0.1000 2.0000
    endloop
endfacet
facet normal 0.0000 -1.9176 0.0000
    outer loop
        vertex -5.5600 -0.1000 1.4600
        vertex -4.9840 -0.1000 0.9800
        vertex -4.6520 -0.1000 1.2360
    endloop
endfacet
facet normal 0.0000 -1.7201 0.0000
    outer loop
        vertex -4.6520 -0.1000 1.2360
        vertex -5.2880 -0.1000 1.6960
        vertex -5.5600 -0.1000 1.4600
    endloop
endfacet
facet normal 0.0000 -1.9097 0.0000
    outer loop
        vertex -4.2000 -0.1000 1.3240
        vertex -4.2000 -0.1000 2.0000
        vertex -4.6520 -0.1000 1.2360
    endloop
endfacet
facet normal 0.0000 -1.9323 0.0000
    outer loop
        vertex -4.6520 -0.1000 -1.2280
        vertex -4.2000 -0.1000 -2.0000
        vertex -4.2000 -0.1000 -1.3160
    endloop
endfacet
facet normal 0.0000 -0.5420 0.0000
    outer loop
        vertex -5.2880 -0.1000 -1.6960
        vertex -4.9720 -0.1000 -1.8640
        vertex -4.2000 -0.1000 -2.0000
    endloop
endfacet
facet normal 0.0000 -4.3908 0.0000
    outer loop
        vertex -4.2000 -0.1000 -2.0000
        vertex -4.6520 -0.1000 -1.2280
        vertex -5.2880 -0.1000 -1.6960
    endloop
endfacet
facet normal 0.0000 -1.9008 0.0000
    outer loop
        vertex -4.2000 -0.1000 1.3240
        vertex -3.7600 -0.1000 1.2360
        vertex -3.4440 -0.1000 1.8640
    endloop
endfacet
facet normal 0.0000 -3.1941 0.0000
    outer loop
        vertex -3.4440 -0.1000 1.8640
        vertex -4.2000 -0.1000 2.0000
        vertex -4.2000 -0.1000 1.3240
    endloop
endfacet
facet normal 0.0000 -3.2319 0.0000
    outer loop
        vertex -4.2000 -0.1000 -1.3160
        vertex -4.2000 -0.1000 -2.0000
        vertex -3.4440 -0.1000 -1.8640
    endloop
endfacet
facet normal 0.0000 -1.9228 0.0000
    outer loop
        vertex -3.4440 -0.1000 -1.8640
        vertex -3.7600 -0.1000 -1.2280
        vertex -4.2000 -0.1000 -1.3160
    endloop
endfacet
facet normal 0.0000 -20.5000 0.0000
    outer loop
        vertex -1.1680 -0.1000 2.0000
        vertex -1.9880 -0.1000 2.0000
        vertex -1.9880 -0.1000 -2.0000
    endloop
endfacet
facet normal 0.0000 -16.7075 0.0000
    outer loop
        vertex -1.9880 -0.1000 -2.0000
        vertex -1.1680 -0.1000 -1.2600
        vertex -1.1680 -0.1000 2.0000
    endloop
endfacet
facet normal 0.0000 -9.0465 0.0000
    outer loop
        vertex 0.7880 -0.1000 -1.2600
        vertex -1.1680 -0.1000 -1.2600
        vertex -1.9880 -0.1000 -2.0000
    endloop
endfacet
facet normal 0.0000 -12.8390 0.0000
    outer loop
        vertex -1.9880 -0.1000 -2.0000
        vertex 0.7880 -0.1000 -2.0000
        vertex 0.7880 -0.1000 -1.2600
    endloop
endfacet
facet normal 0.0000 -20.4000 0.0000
    outer loop
        vertex 0.9920 -0.1000 -2.0000
        vertex 1.8080 -0.1000 -2.0000
        vertex 1.8080 -0.1000 2.0000
    endloop
endfacet
facet normal 0.0000 -20.4000 0.0000
    outer loop
        vertex 1.8080 -0.1000 2.0000
        vertex 0.9920 -0.1000 2.0000
        vertex 0.9920 -0.1000 -2.0000
    endloop
endfacet
facet normal 0.0000 -2.7015 0.0000
    outer loop
        vertex 4.4120 -0.1000 -1.2440
        vertex 4.7120 -0.1000 -1.9040
        vertex 5.2360 -0.1000 -1.6160
    endloop
endfacet
facet normal 0.0000 -1.3049 0.0000
    outer loop
        vertex 5.2360 -0.1000 -1.6160
        vertex 4.6720 -0.1000 -1.1080
        vertex 4.4120 -0.1000 -1.2440
    endloop
endfacet
facet normal 0.0000 -4.2200 0.0000
    outer loop
        vertex 3.0680 -0.1000 0.0040
        vertex 2.2680 -0.1000 0.0040
        vertex 2.3840 -0.1000 -0.8400
    endloop
endfacet
facet normal 0.0000 -2.6803 0.0000
    outer loop
        vertex 2.3840 -0.1000 -0.8400
        vertex 3.1320 -0.1000 -0.5440
        vertex 3.0680 -0.1000 0.0040
    endloop
endfacet
facet normal 0.0000 -1.2434 0.0000
    outer loop
        vertex 4.4400 -0.1000 1.2640
        vertex 4.6920 -0.1000 1.1400
        vertex 5.2640 -0.1000 1.6480
    endloop
endfacet
facet normal 0.0000 -2.5596 0.0000
    outer loop
        vertex 5.2640 -0.1000 1.6480
        vertex 4.7640 -0.1000 1.9120
        vertex 4.4400 -0.1000 1.2640
    endloop
endfacet
facet normal 0.0000 -2.5715 0.0000
    outer loop
        vertex 5.5920 -0.1000 1.2200
        vertex 5.2640 -0.1000 1.6480
        vertex 4.6920 -0.1000 1.1400
    endloop
endfacet
facet normal 0.0000 -1.2560 0.0000
    outer loop
        vertex 4.6920 -0.1000 1.1400
        vertex 4.8640 -0.1000 0.9320
        vertex 5.5920 -0.1000 1.2200
    endloop
endfacet
facet normal 0.0000 -4.2600 0.0000
    outer loop
        vertex 2.3880 -0.1000 0.8560
        vertex 2.2680 -0.1000 0.0040
        vertex 3.0680 -0.1000 0.0040
    endloop
endfacet
facet normal 0.0000 -2.7208 0.0000
    outer loop
        vertex 3.0680 -0.1000 0.0040
        vertex 3.1320 -0.1000 0.5640
        vertex 2.3880 -0.1000 0.8560
    endloop
endfacet
facet normal 0.0000 -1.4400 0.0000
    outer loop
        vertex 5.7320 -0.1000 -0.5880
        vertex 4.9640 -0.1000 -0.5880
        vertex 4.8560 -0.1000 -0.8880
    endloop
endfacet
facet normal 0.0000 -2.9055 0.0000
    outer loop
        vertex 4.8560 -0.1000 -0.8880
        vertex 5.5880 -0.1000 -1.1680
        vertex 5.7320 -0.1000 -0.5880
    endloop
endfacet
facet normal 0.0000 -2.6968 0.0000
    outer loop
        vertex 4.6720 -0.1000 -1.1080
        vertex 5.2360 -0.1000 -1.6160
        vertex 5.5880 -0.1000 -1.1680
    endloop
endfacet
facet normal 0.0000 -1.3285 0.0000
    outer loop
        vertex 5.5880 -0.1000 -1.1680
        vertex 4.8560 -0.1000 -0.8880
        vertex 4.6720 -0.1000 -1.1080
    endloop
endfacet
facet normal 0.0000 -1.3774 0.0000
    outer loop
        vertex 4.8640 -0.1000 0.9320
        vertex 4.9560 -0.1000 0.6480
        vertex 5.7320 -0.1000 0.6480
    endloop
endfacet
facet normal 0.0000 -2.8546 0.0000
    outer loop
        vertex 5.7320 -0.1000 0.6480
        vertex 5.5920 -0.1000 1.2200
        vertex 4.8640 -0.1000 0.9320
    endloop
endfacet
facet normal 0.0000 -1.9787 0.0000
    outer loop
        vertex 3.6520 -0.1000 -1.2040
        vertex 3.3320 -0.1000 -0.9520
        vertex 2.7360 -0.1000 -1.4720
    endloop
endfacet
facet normal 0.0000 -1.7637 0.0000
    outer loop
        vertex 2.7360 -0.1000 -1.4720
        vertex 2.9960 -0.1000 -1.7040
        vertex 3.6520 -0.1000 -1.2040
    endloop
endfacet
facet normal 0.0000 -2.1698 0.0000
    outer loop
        vertex 2.7360 -0.1000 -1.4720
        vertex 3.3320 -0.1000 -0.9520
        vertex 3.1320 -0.1000 -0.5440
    endloop
endfacet
facet normal 0.0000 -3.6058 0.0000
    outer loop
        vertex 3.1320 -0.1000 -0.5440
        vertex 2.3840 -0.1000 -0.8400
        vertex 2.7360 -0.1000 -1.4720
    endloop
endfacet
facet normal 0.0000 -2.2695 0.0000
    outer loop
        vertex 2.3880 -0.1000 0.8560
        vertex 3.1320 -0.1000 0.5640
        vertex 3.3360 -0.1000 0.9720
    endloop
endfacet
facet normal 0.0000 -1.9309 0.0000
    outer loop
        vertex 3.3360 -0.1000 0.9720
        vertex 2.5360 -0.1000 1.2000
        vertex 2.3880 -0.1000 0.8560
    endloop
endfacet
facet normal 0.0000 -3.2383 0.0000
    outer loop
        vertex 2.5360 -0.1000 1.2000
        vertex 3.3360 -0.1000 0.9720
        vertex 3.0120 -0.1000 1.7120
    endloop
endfacet
facet normal 0.0000 -0.1793 0.0000
    outer loop
        vertex 3.0120 -0.1000 1.7120
        vertex 2.7440 -0.1000 1.4840
        vertex 2.5360 -0.1000 1.2000
    endloop
endfacet
facet normal 0.0000 -1.8576 0.0000
    outer loop
        vertex 3.3360 -0.1000 0.9720
        vertex 3.6640 -0.1000 1.2240
        vertex 3.3280 -0.1000 1.8720
    endloop
endfacet
facet normal 0.0000 -1.7855 0.0000
    outer loop
        vertex 3.3280 -0.1000 1.8720
        vertex 3.0120 -0.1000 1.7120
        vertex 3.3360 -0.1000 0.9720
    endloop
endfacet
facet normal 0.0000 -0.5159 0.0000
    outer loop
        vertex 2.9960 -0.1000 -1.7040
        vertex 3.3000 -0.1000 -1.8680
        vertex 4.0480 -0.1000 -2.0000
    endloop
endfacet
facet normal 0.0000 -4.5011 0.0000
    outer loop
        vertex 4.0480 -0.1000 -2.0000
        vertex 3.6520 -0.1000 -1.2040
        vertex 2.9960 -0.1000 -1.7040
    endloop
endfacet
facet normal 0.0000 -1.9612 0.0000
    outer loop
        vertex 4.0480 -0.1000 -2.0000
        vertex 4.0880 -0.1000 -1.2880
        vertex 3.6520 -0.1000 -1.2040
    endloop
endfacet
facet normal 0.0000 -2.0070 0.0000
    outer loop
        vertex 3.3280 -0.1000 1.8720
        vertex 3.6640 -0.1000 1.2240
        vertex 4.1160 -0.1000 1.3080
    endloop
endfacet
facet normal 0.0000 -3.4081 0.0000
    outer loop
        vertex 4.1160 -0.1000 1.3080
        vertex 4.1160 -0.1000 2.0000
        vertex 3.3280 -0.1000 1.8720
    endloop
endfacet
facet normal 0.0000 -2.8026 0.0000
    outer loop
        vertex 4.7640 -0.1000 1.9120
        vertex 4.1160 -0.1000 2.0000
        vertex 4.1160 -0.1000 1.3080
    endloop
endfacet
facet normal 0.0000 -1.4013 0.0000
    outer loop
        vertex 4.1160 -0.1000 1.3080
        vertex 4.4400 -0.1000 1.2640
        vertex 4.7640 -0.1000 1.9120
    endloop
endfacet
facet normal 0.0000 -2.9308 0.0000
    outer loop
        vertex 4.0880 -0.1000 -1.2880
        vertex 4.0480 -0.1000 -2.0000
        vertex 4.7120 -0.1000 -1.9040
    endloop
endfacet
facet normal 0.0000 -1.4190 0.0000
    outer loop
        vertex 4.7120 -0.1000 -1.9040
        vertex 4.4120 -0.1000 -1.2440
        vertex 4.0880 -0.1000 -1.2880
    endloop
endfacet
facet normal 0.0000 -9.1002 0.0000
    outer loop
        vertex 6.9120 -0.1000 1.3040
        vertex 9.0040 -0.1000 1.3040
        vertex 9.0040 -0.1000 2.0000
    endloop
endfacet
facet normal 0.0000 -12.6324 0.0000
    outer loop
        vertex 9.0040 -0.1000 2.0000
        vertex 6.1000 -0.1000 2.0000
        vertex 6.9120 -0.1000 1.3040
    endloop
endfacet
facet normal 0.0000 -10.1195 0.0000
    outer loop
        vertex 9.1000 -0.1000 -1.2600
        vertex 6.9120 -0.1000 -1.2600
        vertex 6.1000 -0.1000 -2.0000
    endloop
endfacet
facet normal 0.0000 -13.8750 0.0000
    outer loop
        vertex 6.1000 -0.1000 -2.0000
        vertex 9.1000 -0.1000 -2.0000
        vertex 9.1000 -0.1000 -1.2600
    endloop
endfacet
facet normal 0.0000 -4.3239 0.0000
    outer loop
        vertex 6.1000 -0.1000 2.0000
        vertex 6.9120 -0.1000 0.4520
        vertex 6.9120 -0.1000 1.3040
    endloop
endfacet
facet normal 0.0000 -20.3000 0.0000
    outer loop
        vertex 6.9120 -0.1000 0.4520
        vertex 6.1000 -0.1000 2.0000
        vertex 6.1000 -0.1000 -2.0000
    endloop
endfacet
facet normal 0.0000 -3.4916 0.0000
    outer loop
        vertex 6.1000 -0.1000 -2.0000
        vertex 6.9120 -0.1000 -0.2360
        vertex 6.9120 -0.1000 0.4520
    endloop
endfacet
facet normal 0.0000 -5.1968 0.0000
    outer loop
        vertex 6.1000 -0.1000 -2.0000
        vertex 6.9120 -0.1000 -1.2600
        vertex 6.9120 -0.1000 -0.2360
    endloop
endfacet
facet normal 0.0000 -8.2216 0.0000
    outer loop
        vertex 6.9120 -0.1000 0.4520
        vertex 6.9120 -0.1000 -0.2360
        vertex 8.8240 -0.1000 -0.2360
    endloop
endfacet
facet normal 0.0000 -8.2216 0.0000
    outer loop
        vertex 8.8240 -0.1000 -0.2360
        vertex 8.8240 -0.1000 0.4520
        vertex 6.9120 -0.1000 0.4520
    endloop
endfacet
endsolid GiantLegoRocks
