solid GiantLegoRocks
facet normal 0.0000 0.7500 0.0000
    outer loop
        vertex 15.6000 0.0000 4.4000
        vertex 15.6000 0.0000 -4.4000
        vertex -15.6000 0.0000 -4.4000
    endloop
endfacet
facet normal 0.0000 0.7500 0.0000
    outer loop
        vertex -15.6000 0.0000 -4.4000
        vertex -15.6000 0.0000 4.4000
        vertex 15.6000 0.0000 4.4000
    endloop
endfacet
facet normal 0.0000 -0.2500 22.0000
    outer loop
        vertex -15.6000 -0.1000 4.4000
        vertex 15.6000 -0.1000 4.4000
        vertex 15.6000 0.0000 4.4000
    endloop
endfacet
facet normal 0.0000 -0.2500 22.0000
    outer loop
        vertex 15.6000 0.0000 4.4000
        vertex -15.6000 0.0000 4.4000
        vertex -15.6000 -0.1000 4.4000
    endloop
endfacet
facet normal -78.0000 -0.2500 0.0000
    outer loop
        vertex -15.6000 -0.1000 -4.4000
        vertex -15.6000 -0.1000 4.4000
        vertex -15.6000 0.0000 4.4000
    endloop
endfacet
facet normal -78.0000 -0.2500 0.0000
    outer loop
        vertex -15.6000 0.0000 4.4000
        vertex -15.6000 0.0000 -4.4000
        vertex -15.6000 -0.1000 -4.4000
    endloop
endfacet
facet normal 0.0000 -0.2500 -22.0000
    outer loop
        vertex 15.6000 -0.1000 -4.4000
        vertex -15.6000 -0.1000 -4.4000
        vertex -15.6000 0.0000 -4.4000
    endloop
endfacet
facet normal 0.0000 -0.2500 -22.0000
    outer loop
        vertex -15.6000 0.0000 -4.4000
        vertex 15.6000 0.0000 -4.4000
        vertex 15.6000 -0.1000 -4.4000
    endloop
endfacet
facet normal 78.0000 -0.2500 0.0000
    outer loop
        vertex 15.6000 -0.1000 4.4000
        vertex 15.6000 -0.1000 -4.4000
        vertex 15.6000 0.0000 -4.4000
    endloop
endfacet
facet normal 78.0000 -0.2500 0.0000
    outer loop
        vertex 15.6000 0.0000 -4.4000
        vertex 15.6000 0.0000 4.4000
        vertex 15.6000 -0.1000 4.4000
    endloop
endfacet
facet normal 0.0000 -121.0000 0.0000
    outer loop
        vertex 0.1600 -0.1000 1.0400
        vertex 0.1600 -0.1000 -3.3600
        vertex 4.5600 -0.1000 -1.6800
    endloop
endfacet
facet normal 0.0000 -114.4000 0.0000
    outer loop
        vertex 4.5600 -0.1000 -1.6800
        vertex 4.5600 -0.1000 2.4800
        vertex 0.1600 -0.1000 1.0400
    endloop
endfacet
facet normal 0.0000 -56.1600 0.0000
    outer loop
        vertex 0.0000 -0.1000 1.3600
        vertex 4.3200 -0.1000 2.7200
        vertex 0.0000 -0.1000 3.4400
    endloop
endfacet
facet normal 0.0000 -56.1600 0.0000
    outer loop
        vertex 0.0000 -0.1000 3.4400
        vertex -4.3200 -0.1000 2.7200
        vertex 0.0000 -0.1000 1.3600
    endloop
endfacet
facet normal 0.0000 -7.5600 0.0000
    outer loop
        vertex 0.0000 -0.1000 3.7200
        vertex 0.0000 -0.1000 3.4400
        vertex 4.3200 -0.1000 2.7200
    endloop
endfacet
facet normal 0.0000 -6.4900 0.0000
    outer loop
        vertex 4.3200 -0.1000 2.7200
        vertex 4.8400 -0.1000 2.8400
        vertex 0.0000 -0.1000 3.7200
    endloop
endfacet
facet normal 0.0000 -0.9600 0.0000
    outer loop
        vertex 4.5600 -0.1000 2.4800
        vertex 4.8400 -0.1000 2.8400
        vertex 4.3200 -0.1000 2.7200
    endloop
endfacet
facet normal 0.0000 -8.5200 0.0000
    outer loop
        vertex 4.3200 -0.1000 2.7200
        vertex 0.0000 -0.1000 1.3600
        vertex 4.5600 -0.1000 2.4800
    endloop
endfacet
facet normal 0.0000 -10.2400 0.0000
    outer loop
        vertex 0.1600 -0.1000 1.0400
        vertex 4.5600 -0.1000 2.4800
        vertex 0.0000 -0.1000 1.3600
    endloop
endfacet
facet normal 0.0000 -0.6400 0.0000
    outer loop
        vertex 0.0000 -0.1000 1.3600
        vertex -0.1600 -0.1000 1.0400
        vertex 0.1600 -0.1000 1.0400
    endloop
endfacet
facet normal 0.0000 -7.2800 0.0000
    outer loop
        vertex 4.8400 -0.1000 2.8400
        vertex 4.5600 -0.1000 2.4800
        vertex 4.5600 -0.1000 -1.6800
    endloop
endfacet
facet normal 0.0000 -8.2600 0.0000
    outer loop
        vertex 4.5600 -0.1000 -1.6800
        vertex 4.8400 -0.1000 -1.8800
        vertex 4.8400 -0.1000 2.8400
    endloop
endfacet
facet normal 0.0000 -8.4400 0.0000
    outer loop
        vertex 4.8400 -0.1000 -1.8800
        vertex 4.5600 -0.1000 -1.6800
        vertex 0.1600 -0.1000 -3.3600
    endloop
endfacet
facet normal 0.0000 -9.0500 0.0000
    outer loop
        vertex 0.1600 -0.1000 -3.3600
        vertex 0.0000 -0.1000 -3.7200
        vertex 4.8400 -0.1000 -1.8800
    endloop
endfacet
facet normal 0.0000 -81.0000 0.0000
    outer loop
        vertex 10.6000 -0.1000 1.8000
        vertex 7.0000 -0.1000 1.8000
        vertex 7.0000 -0.1000 -1.8000
    endloop
endfacet
facet normal 0.0000 -81.0000 0.0000
    outer loop
        vertex 7.0000 -0.1000 -1.8000
        vertex 10.6000 -0.1000 -1.8000
        vertex 10.6000 -0.1000 1.8000
    endloop
endfacet
facet normal 0.0000 -5.0000 0.0000
    outer loop
        vertex 10.6000 -0.1000 2.2000
        vertex 10.6000 -0.1000 1.8000
        vertex 12.6000 -0.1000 0.0000
    endloop
endfacet
facet normal 0.0000 -45.0000 0.0000
    outer loop
        vertex 10.6000 -0.1000 1.8000
        vertex 10.6000 -0.1000 -1.8000
        vertex 12.6000 -0.1000 0.0000
    endloop
endfacet
facet normal 0.0000 -5.0000 0.0000
    outer loop
        vertex 12.6000 -0.1000 0.0000
        vertex 10.6000 -0.1000 -1.8000
        vertex 10.6000 -0.1000 -2.2000
    endloop
endfacet
facet normal 0.0000 -13.5000 0.0000
    outer loop
        vertex 6.4000 -0.1000 2.4000
        vertex 7.0000 -0.1000 1.8000
        vertex 10.6000 -0.1000 1.8000
    endloop
endfacet
facet normal 0.0000 -13.5000 0.0000
    outer loop
        vertex 10.6000 -0.1000 1.8000
        vertex 10.0000 -0.1000 2.4000
        vertex 6.4000 -0.1000 2.4000
    endloop
endfacet
facet normal 0.0000 -1.5000 0.0000
    outer loop
        vertex 10.0000 -0.1000 2.4000
        vertex 10.6000 -0.1000 1.8000
        vertex 10.6000 -0.1000 2.2000
    endloop
endfacet
facet normal 0.0000 -5.2500 0.0000
    outer loop
        vertex 10.6000 -0.1000 2.2000
        vertex 10.0000 -0.1000 3.8000
        vertex 10.0000 -0.1000 2.4000
    endloop
endfacet
facet normal 0.0000 -19.7500 0.0000
    outer loop
        vertex 13.4000 -0.1000 0.0000
        vertex 10.0000 -0.1000 3.8000
        vertex 10.6000 -0.1000 2.2000
    endloop
endfacet
facet normal 0.0000 -11.0000 0.0000
    outer loop
        vertex 10.6000 -0.1000 2.2000
        vertex 12.6000 -0.1000 0.0000
        vertex 13.4000 -0.1000 0.0000
    endloop
endfacet
facet normal 0.0000 -11.0000 0.0000
    outer loop
        vertex 13.4000 -0.1000 0.0000
        vertex 12.6000 -0.1000 0.0000
        vertex 10.6000 -0.1000 -2.2000
    endloop
endfacet
facet normal 0.0000 -19.7500 0.0000
    outer loop
        vertex 10.6000 -0.1000 -2.2000
        vertex 10.0000 -0.1000 -3.8000
        vertex 13.4000 -0.1000 0.0000
    endloop
endfacet
facet normal 0.0000 -5.2500 0.0000
    outer loop
        vertex 10.0000 -0.1000 -2.4000
        vertex 10.0000 -0.1000 -3.8000
        vertex 10.6000 -0.1000 -2.2000
    endloop
endfacet
facet normal 0.0000 -1.5000 0.0000
    outer loop
        vertex 10.6000 -0.1000 -2.2000
        vertex 10.6000 -0.1000 -1.8000
        vertex 10.0000 -0.1000 -2.4000
    endloop
endfacet
facet normal 0.0000 -13.5000 0.0000
    outer loop
        vertex 10.0000 -0.1000 -2.4000
        vertex 10.6000 -0.1000 -1.8000
        vertex 7.0000 -0.1000 -1.8000
    endloop
endfacet
facet normal 0.0000 -13.5000 0.0000
    outer loop
        vertex 7.0000 -0.1000 -1.8000
        vertex 6.4000 -0.1000 -2.4000
        vertex 10.0000 -0.1000 -2.4000
    endloop
endfacet
facet normal 0.0000 -13.5000 0.0000
    outer loop
        vertex 6.4000 -0.1000 -2.4000
        vertex 7.0000 -0.1000 -1.8000
        vertex 7.0000 -0.1000 1.8000
    endloop
endfacet
facet normal 0.0000 -18.0000 0.0000
    outer loop
        vertex 7.0000 -0.1000 1.8000
        vertex 6.4000 -0.1000 2.4000
        vertex 6.4000 -0.1000 -2.4000
    endloop
endfacet
facet normal 0.0000 -121.0000 0.0000
    outer loop
        vertex -4.5600 -0.1000 -1.6800
        vertex -0.1600 -0.1000 -3.3600
        vertex -0.1600 -0.1000 1.0400
    endloop
endfacet
facet normal 0.0000 -114.4000 0.0000
    outer loop
        vertex -0.1600 -0.1000 1.0400
        vertex -4.5600 -0.1000 2.4800
        vertex -4.5600 -0.1000 -1.6800
    endloop
endfacet
facet normal 0.0000 -7.5600 0.0000
    outer loop
        vertex -4.3200 -0.1000 2.7200
        vertex 0.0000 -0.1000 3.4400
        vertex 0.0000 -0.1000 3.7200
    endloop
endfacet
facet normal 0.0000 -6.4900 0.0000
    outer loop
        vertex 0.0000 -0.1000 3.7200
        vertex -4.8400 -0.1000 2.8400
        vertex -4.3200 -0.1000 2.7200
    endloop
endfacet
facet normal 0.0000 -0.9600 0.0000
    outer loop
        vertex -4.3200 -0.1000 2.7200
        vertex -4.8400 -0.1000 2.8400
        vertex -4.5600 -0.1000 2.4800
    endloop
endfacet
facet normal 0.0000 -8.5200 0.0000
    outer loop
        vertex -4.5600 -0.1000 2.4800
        vertex 0.0000 -0.1000 1.3600
        vertex -4.3200 -0.1000 2.7200
    endloop
endfacet
facet normal 0.0000 -10.2400 0.0000
    outer loop
        vertex -4.5600 -0.1000 2.4800
        vertex -0.1600 -0.1000 1.0400
        vertex 0.0000 -0.1000 1.3600
    endloop
endfacet
facet normal 0.0000 -7.2800 0.0000
    outer loop
        vertex -4.5600 -0.1000 -1.6800
        vertex -4.5600 -0.1000 2.4800
        vertex -4.8400 -0.1000 2.8400
    endloop
endfacet
facet normal 0.0000 -8.2600 0.0000
    outer loop
        vertex -4.8400 -0.1000 2.8400
        vertex -4.8400 -0.1000 -1.8800
        vertex -4.5600 -0.1000 -1.6800
    endloop
endfacet
facet normal 0.0000 -8.4400 0.0000
    outer loop
        vertex -0.1600 -0.1000 -3.3600
        vertex -4.5600 -0.1000 -1.6800
        vertex -4.8400 -0.1000 -1.8800
    endloop
endfacet
facet normal 0.0000 -9.0500 0.0000
    outer loop
        vertex -4.8400 -0.1000 -1.8800
        vertex 0.0000 -0.1000 -3.7200
        vertex -0.1600 -0.1000 -3.3600
    endloop
endfacet
facet normal 0.0000 -81.0000 0.0000
    outer loop
        vertex -7.0000 -0.1000 -1.8000
        vertex -7.0000 -0.1000 1.8000
        vertex -10.6000 -0.1000 1.8000
    endloop
endfacet
facet normal 0.0000 -81.0000 0.0000
    outer loop
        vertex -10.6000 -0.1000 1.8000
        vertex -10.6000 -0.1000 -1.8000
        vertex -7.0000 -0.1000 -1.8000
    endloop
endfacet
facet normal 0.0000 -5.0000 0.0000
    outer loop
        vertex -10.6000 -0.1000 2.2000
        vertex -12.6000 -0.1000 0.0000
        vertex -10.6000 -0.1000 1.8000
    endloop
endfacet
facet normal 0.0000 -45.0000 0.0000
    outer loop
        vertex -10.6000 -0.1000 1.8000
        vertex -12.6000 -0.1000 0.0000
        vertex -10.6000 -0.1000 -1.8000
    endloop
endfacet
facet normal 0.0000 -5.0000 0.0000
    outer loop
        vertex -12.6000 -0.1000 0.0000
        vertex -10.6000 -0.1000 -2.2000
        vertex -10.6000 -0.1000 -1.8000
    endloop
endfacet
facet normal 0.0000 -13.5000 0.0000
    outer loop
        vertex -10.6000 -0.1000 1.8000
        vertex -7.0000 -0.1000 1.8000
        vertex -6.4000 -0.1000 2.4000
    endloop
endfacet
facet normal 0.0000 -13.5000 0.0000
    outer loop
        vertex -6.4000 -0.1000 2.4000
        vertex -10.0000 -0.1000 2.4000
        vertex -10.6000 -0.1000 1.8000
    endloop
endfacet
facet normal 0.0000 -1.5000 0.0000
    outer loop
        vertex -10.6000 -0.1000 2.2000
        vertex -10.6000 -0.1000 1.8000
        vertex -10.0000 -0.1000 2.4000
    endloop
endfacet
facet normal 0.0000 -5.2500 0.0000
    outer loop
        vertex -10.0000 -0.1000 2.4000
        vertex -10.0000 -0.1000 3.8000
        vertex -10.6000 -0.1000 2.2000
    endloop
endfacet
facet normal 0.0000 -19.7500 0.0000
    outer loop
        vertex -10.6000 -0.1000 2.2000
        vertex -10.0000 -0.1000 3.8000
        vertex -13.4000 -0.1000 0.0000
    endloop
endfacet
facet normal 0.0000 -11.0000 0.0000
    outer loop
        vertex -13.4000 -0.1000 0.0000
        vertex -12.6000 -0.1000 0.0000
        vertex -10.6000 -0.1000 2.2000
    endloop
endfacet
facet normal 0.0000 -11.0000 0.0000
    outer loop
        vertex -10.6000 -0.1000 -2.2000
        vertex -12.6000 -0.1000 0.0000
        vertex -13.4000 -0.1000 0.0000
    endloop
endfacet
facet normal 0.0000 -19.7500 0.0000
    outer loop
        vertex -13.4000 -0.1000 0.0000
        vertex -10.0000 -0.1000 -3.8000
        vertex -10.6000 -0.1000 -2.2000
    endloop
endfacet
facet normal 0.0000 -5.2500 0.0000
    outer loop
        vertex -10.6000 -0.1000 -2.2000
        vertex -10.0000 -0.1000 -3.8000
        vertex -10.0000 -0.1000 -2.4000
    endloop
endfacet
facet normal 0.0000 -1.5000 0.0000
    outer loop
        vertex -10.0000 -0.1000 -2.4000
        vertex -10.6000 -0.1000 -1.8000
        vertex -10.6000 -0.1000 -2.2000
    endloop
endfacet
facet normal 0.0000 -13.5000 0.0000
    outer loop
        vertex -7.0000 -0.1000 -1.8000
        vertex -10.6000 -0.1000 -1.8000
        vertex -10.0000 -0.1000 -2.4000
    endloop
endfacet
facet normal 0.0000 -13.5000 0.0000
    outer loop
        vertex -10.0000 -0.1000 -2.4000
        vertex -6.4000 -0.1000 -2.4000
        vertex -7.0000 -0.1000 -1.8000
    endloop
endfacet
facet normal 0.0000 -13.5000 0.0000
    outer loop
        vertex -7.0000 -0.1000 1.8000
        vertex -7.0000 -0.1000 -1.8000
        vertex -6.4000 -0.1000 -2.4000
    endloop
endfacet
facet normal 0.0000 -18.0000 0.0000
    outer loop
        vertex -6.4000 -0.1000 -2.4000
        vertex -6.4000 -0.1000 2.4000
        vertex -7.0000 -0.1000 1.8000
    endloop
endfacet
facet normal 0.0000 -8.8000 0.0000
    outer loop
        vertex 0.1600 -0.1000 1.0400
        vertex -0.1600 -0.1000 1.0400
        vertex -0.1600 -0.1000 -3.3600
    endloop
endfacet
facet normal 0.0000 -8.8000 0.0000
    outer loop
        vertex -0.1600 -0.1000 -3.3600
        vertex 0.1600 -0.1000 -3.3600
        vertex 0.1600 -0.1000 1.0400
    endloop
endfacet
facet normal 0.0000 -0.7200 0.0000
    outer loop
        vertex 0.1600 -0.1000 -3.3600
        vertex -0.1600 -0.1000 -3.3600
        vertex 0.0000 -0.1000 -3.7200
    endloop
endfacet
facet normal 0.0000 -132.6000 0.0000
    outer loop
        vertex 0.0000 -0.1000 3.7200
        vertex 15.6000 -0.1000 4.4000
        vertex -15.6000 -0.1000 4.4000
    endloop
endfacet
facet normal 0.0000 -34.7000 0.0000
    outer loop
        vertex -15.6000 -0.1000 4.4000
        vertex -10.0000 -0.1000 3.8000
        vertex 0.0000 -0.1000 3.7200
    endloop
endfacet
facet normal 0.0000 -145.7500 0.0000
    outer loop
        vertex -15.6000 -0.1000 4.4000
        vertex -13.4000 -0.1000 0.0000
        vertex -10.0000 -0.1000 3.8000
    endloop
endfacet
facet normal 0.0000 -121.0000 0.0000
    outer loop
        vertex -15.6000 -0.1000 4.4000
        vertex -15.6000 -0.1000 -4.4000
        vertex -13.4000 -0.1000 0.0000
    endloop
endfacet
facet normal 0.0000 -145.7500 0.0000
    outer loop
        vertex -13.4000 -0.1000 0.0000
        vertex -15.6000 -0.1000 -4.4000
        vertex -10.0000 -0.1000 -3.8000
    endloop
endfacet
facet normal 0.0000 -34.7000 0.0000
    outer loop
        vertex 0.0000 -0.1000 -3.7200
        vertex -10.0000 -0.1000 -3.8000
        vertex -15.6000 -0.1000 -4.4000
    endloop
endfacet
facet normal 0.0000 -132.6000 0.0000
    outer loop
        vertex -15.6000 -0.1000 -4.4000
        vertex 15.6000 -0.1000 -4.4000
        vertex 0.0000 -0.1000 -3.7200
    endloop
endfacet
facet normal 0.0000 -87.5000 0.0000
    outer loop
        vertex -10.0000 -0.1000 -2.4000
        vertex -10.0000 -0.1000 -3.8000
        vertex 0.0000 -0.1000 -3.7200
    endloop
endfacet
facet normal 0.0000 -29.7000 0.0000
    outer loop
        vertex 0.0000 -0.1000 -3.7200
        vertex -6.4000 -0.1000 -2.4000
        vertex -10.0000 -0.1000 -2.4000
    endloop
endfacet
facet normal 0.0000 -33.6700 0.0000
    outer loop
        vertex -4.8400 -0.1000 -1.8800
        vertex -6.4000 -0.1000 -2.4000
        vertex 0.0000 -0.1000 -3.7200
    endloop
endfacet
facet normal 0.0000 -46.8000 0.0000
    outer loop
        vertex -6.4000 -0.1000 2.4000
        vertex -6.4000 -0.1000 -2.4000
        vertex -4.8400 -0.1000 -1.8800
    endloop
endfacet
facet normal 0.0000 -46.0200 0.0000
    outer loop
        vertex -4.8400 -0.1000 -1.8800
        vertex -4.8400 -0.1000 2.8400
        vertex -6.4000 -0.1000 2.4000
    endloop
endfacet
facet normal 0.0000 -9.9000 0.0000
    outer loop
        vertex -10.0000 -0.1000 2.4000
        vertex -6.4000 -0.1000 2.4000
        vertex -4.8400 -0.1000 2.8400
    endloop
endfacet
facet normal 0.0000 -45.1500 0.0000
    outer loop
        vertex -4.8400 -0.1000 2.8400
        vertex -10.0000 -0.1000 3.8000
        vertex -10.0000 -0.1000 2.4000
    endloop
endfacet
facet normal 0.0000 -57.4200 0.0000
    outer loop
        vertex -10.0000 -0.1000 3.8000
        vertex -4.8400 -0.1000 2.8400
        vertex 0.0000 -0.1000 3.7200
    endloop
endfacet
facet normal 0.0000 -34.7000 0.0000
    outer loop
        vertex 0.0000 -0.1000 -3.7200
        vertex 15.6000 -0.1000 -4.4000
        vertex 10.0000 -0.1000 -3.8000
    endloop
endfacet
facet normal 0.0000 -145.7500 0.0000
    outer loop
        vertex 13.4000 -0.1000 0.0000
        vertex 10.0000 -0.1000 -3.8000
        vertex 15.6000 -0.1000 -4.4000
    endloop
endfacet
facet normal 0.0000 -121.0000 0.0000
    outer loop
        vertex 15.6000 -0.1000 4.4000
        vertex 13.4000 -0.1000 0.0000
        vertex 15.6000 -0.1000 -4.4000
    endloop
endfacet
facet normal 0.0000 -145.7500 0.0000
    outer loop
        vertex 15.6000 -0.1000 4.4000
        vertex 10.0000 -0.1000 3.8000
        vertex 13.4000 -0.1000 0.0000
    endloop
endfacet
facet normal 0.0000 -34.7000 0.0000
    outer loop
        vertex 15.6000 -0.1000 4.4000
        vertex 0.0000 -0.1000 3.7200
        vertex 10.0000 -0.1000 3.8000
    endloop
endfacet
facet normal 0.0000 -57.4200 0.0000
    outer loop
        vertex 10.0000 -0.1000 3.8000
        vertex 0.0000 -0.1000 3.7200
        vertex 4.8400 -0.1000 2.8400
    endloop
endfacet
facet normal 0.0000 -45.1500 0.0000
    outer loop
        vertex 4.8400 -0.1000 2.8400
        vertex 10.0000 -0.1000 2.4000
        vertex 10.0000 -0.1000 3.8000
    endloop
endfacet
facet normal 0.0000 -9.9000 0.0000
    outer loop
        vertex 4.8400 -0.1000 2.8400
        vertex 6.4000 -0.1000 2.4000
        vertex 10.0000 -0.1000 2.4000
    endloop
endfacet
facet normal 0.0000 -46.0200 0.0000
    outer loop
        vertex 6.4000 -0.1000 2.4000
        vertex 4.8400 -0.1000 2.8400
        vertex 4.8400 -0.1000 -1.8800
    endloop
endfacet
facet normal 0.0000 -46.8000 0.0000
    outer loop
        vertex 4.8400 -0.1000 -1.8800
        vertex 6.4000 -0.1000 -2.4000
        vertex 6.4000 -0.1000 2.4000
    endloop
endfacet
facet normal 0.0000 -33.6700 0.0000
    outer loop
        vertex 4.8400 -0.1000 -1.8800
        vertex 0.0000 -0.1000 -3.7200
        vertex 6.4000 -0.1000 -2.4000
    endloop
endfacet
facet normal 0.0000 -29.7000 0.0000
    outer loop
        vertex 10.0000 -0.1000 -2.4000
        vertex 6.4000 -0.1000 -2.4000
        vertex 0.0000 -0.1000 -3.7200
    endloop
endfacet
facet normal 0.0000 -87.5000 0.0000
    outer loop
        vertex 0.0000 -0.1000 -3.7200
        vertex 10.0000 -0.1000 -3.8000
        vertex 10.0000 -0.1000 -2.4000
    endloop
endfacet
endsolid GiantLegoRocks
