solid GiantLegoRocks
facet normal 0.0000 0.7500 0.0000
    outer loop
        vertex 15.6000 0.0000 2.8000
        vertex 15.6000 0.0000 -2.8000
        vertex -15.6000 0.0000 -2.8000
    endloop
endfacet
facet normal 0.0000 0.7500 0.0000
    outer loop
        vertex -15.6000 0.0000 -2.8000
        vertex -15.6000 0.0000 2.8000
        vertex 15.6000 0.0000 2.8000
    endloop
endfacet
facet normal 0.0000 -0.2500 14.0000
    outer loop
        vertex -15.6000 -0.1000 2.8000
        vertex 15.6000 -0.1000 2.8000
        vertex 15.6000 0.0000 2.8000
    endloop
endfacet
facet normal 0.0000 -0.2500 14.0000
    outer loop
        vertex 15.6000 0.0000 2.8000
        vertex -15.6000 0.0000 2.8000
        vertex -15.6000 -0.1000 2.8000
    endloop
endfacet
facet normal -78.0000 -0.2500 0.0000
    outer loop
        vertex -15.6000 -0.1000 -2.8000
        vertex -15.6000 -0.1000 2.8000
        vertex -15.6000 0.0000 2.8000
    endloop
endfacet
facet normal -78.0000 -0.2500 0.0000
    outer loop
        vertex -15.6000 0.0000 2.8000
        vertex -15.6000 0.0000 -2.8000
        vertex -15.6000 -0.1000 -2.8000
    endloop
endfacet
facet normal 0.0000 -0.2500 -14.0000
    outer loop
        vertex 15.6000 -0.1000 -2.8000
        vertex -15.6000 -0.1000 -2.8000
        vertex -15.6000 0.0000 -2.8000
    endloop
endfacet
facet normal 0.0000 -0.2500 -14.0000
    outer loop
        vertex -15.6000 0.0000 -2.8000
        vertex 15.6000 0.0000 -2.8000
        vertex 15.6000 -0.1000 -2.8000
    endloop
endfacet
facet normal 78.0000 -0.2500 0.0000
    outer loop
        vertex 15.6000 -0.1000 2.8000
        vertex 15.6000 -0.1000 -2.8000
        vertex 15.6000 0.0000 -2.8000
    endloop
endfacet
facet normal 78.0000 -0.2500 0.0000
    outer loop
        vertex 15.6000 0.0000 -2.8000
        vertex 15.6000 0.0000 2.8000
        vertex 15.6000 -0.1000 2.8000
    endloop
endfacet
facet normal 0.0000 -140.0000 0.0000
    outer loop
        vertex -2.8000 -0.1000 -2.8000
        vertex 2.8000 -0.1000 2.8000
        vertex -1.2000 -0.1000 2.8000
    endloop
endfacet
facet normal 0.0000 -140.0000 0.0000
    outer loop
        vertex -1.2000 -0.1000 2.8000
        vertex -6.8000 -0.1000 -2.8000
        vertex -2.8000 -0.1000 -2.8000
    endloop
endfacet
facet normal 0.0000 -140.0000 0.0000
    outer loop
        vertex -6.8000 -0.1000 -2.8000
        vertex -1.2000 -0.1000 2.8000
        vertex -5.2000 -0.1000 2.8000
    endloop
endfacet
facet normal 0.0000 -140.0000 0.0000
    outer loop
        vertex -5.2000 -0.1000 2.8000
        vertex -10.8000 -0.1000 -2.8000
        vertex -6.8000 -0.1000 -2.8000
    endloop
endfacet
facet normal 0.0000 -140.0000 0.0000
    outer loop
        vertex -10.8000 -0.1000 -2.8000
        vertex -5.2000 -0.1000 2.8000
        vertex -9.2000 -0.1000 2.8000
    endloop
endfacet
facet normal 0.0000 -140.0000 0.0000
    outer loop
        vertex -9.2000 -0.1000 2.8000
        vertex -14.8000 -0.1000 -2.8000
        vertex -10.8000 -0.1000 -2.8000
    endloop
endfacet
facet normal 0.0000 -48.0000 0.0000
    outer loop
        vertex -13.2000 -0.1000 2.8000
        vertex -15.6000 -0.1000 0.4000
        vertex -15.6000 -0.1000 -2.8000
    endloop
endfacet
facet normal 0.0000 -28.0000 0.0000
    outer loop
        vertex -15.6000 -0.1000 -2.8000
        vertex -14.8000 -0.1000 -2.8000
        vertex -13.2000 -0.1000 2.8000
    endloop
endfacet
facet normal 0.0000 -36.0000 0.0000
    outer loop
        vertex -13.2000 -0.1000 2.8000
        vertex -15.6000 -0.1000 2.8000
        vertex -15.6000 -0.1000 0.4000
    endloop
endfacet
facet normal 0.0000 -140.0000 0.0000
    outer loop
        vertex 2.8000 -0.1000 2.8000
        vertex -2.8000 -0.1000 -2.8000
        vertex 1.2000 -0.1000 -2.8000
    endloop
endfacet
facet normal 0.0000 -140.0000 0.0000
    outer loop
        vertex 1.2000 -0.1000 -2.8000
        vertex 6.8000 -0.1000 2.8000
        vertex 2.8000 -0.1000 2.8000
    endloop
endfacet
facet normal 0.0000 -140.0000 0.0000
    outer loop
        vertex 6.8000 -0.1000 2.8000
        vertex 1.2000 -0.1000 -2.8000
        vertex 5.2000 -0.1000 -2.8000
    endloop
endfacet
facet normal 0.0000 -140.0000 0.0000
    outer loop
        vertex 5.2000 -0.1000 -2.8000
        vertex 10.8000 -0.1000 2.8000
        vertex 6.8000 -0.1000 2.8000
    endloop
endfacet
facet normal 0.0000 -140.0000 0.0000
    outer loop
        vertex 10.8000 -0.1000 2.8000
        vertex 5.2000 -0.1000 -2.8000
        vertex 9.2000 -0.1000 -2.8000
    endloop
endfacet
facet normal 0.0000 -140.0000 0.0000
    outer loop
        vertex 9.2000 -0.1000 -2.8000
        vertex 14.8000 -0.1000 2.8000
        vertex 10.8000 -0.1000 2.8000
    endloop
endfacet
facet normal 0.0000 -140.0000 0.0000
    outer loop
        vertex 14.8000 -0.1000 2.8000
        vertex 9.2000 -0.1000 -2.8000
        vertex 13.2000 -0.1000 -2.8000
    endloop
endfacet
facet normal 0.0000 -28.0000 0.0000
    outer loop
        vertex 13.2000 -0.1000 -2.8000
        vertex 15.6000 -0.1000 2.8000
        vertex 14.8000 -0.1000 2.8000
    endloop
endfacet
facet normal 0.0000 -48.0000 0.0000
    outer loop
        vertex 15.6000 -0.1000 2.8000
        vertex 13.2000 -0.1000 -2.8000
        vertex 15.6000 -0.1000 -0.4000
    endloop
endfacet
facet normal 0.0000 -36.0000 0.0000
    outer loop
        vertex 15.6000 -0.1000 -0.4000
        vertex 13.2000 -0.1000 -2.8000
        vertex 15.6000 -0.1000 -2.8000
    endloop
endfacet
facet normal 0.0000 -140.0000 0.0000
    outer loop
        vertex -9.2000 -0.1000 2.8000
        vertex -13.2000 -0.1000 2.8000
        vertex -14.8000 -0.1000 -2.8000
    endloop
endfacet
endsolid GiantLegoRocks
