solid GiantLegoRocks
facet normal 0.0000 0.7500 0.0000
    outer loop
        vertex 23.6000 0.0000 4.4000
        vertex 23.6000 0.0000 -4.4000
        vertex -23.6000 0.0000 -4.4000
    endloop
endfacet
facet normal 0.0000 0.7500 0.0000
    outer loop
        vertex -23.6000 0.0000 -4.4000
        vertex -23.6000 0.0000 4.4000
        vertex 23.6000 0.0000 4.4000
    endloop
endfacet
facet normal 0.0000 -0.2500 22.0000
    outer loop
        vertex -23.6000 -0.1000 4.4000
        vertex 23.6000 -0.1000 4.4000
        vertex 23.6000 0.0000 4.4000
    endloop
endfacet
facet normal 0.0000 -0.2500 22.0000
    outer loop
        vertex 23.6000 0.0000 4.4000
        vertex -23.6000 0.0000 4.4000
        vertex -23.6000 -0.1000 4.4000
    endloop
endfacet
facet normal -118.0000 -0.2500 0.0000
    outer loop
        vertex -23.6000 -0.1000 -4.4000
        vertex -23.6000 -0.1000 4.4000
        vertex -23.6000 0.0000 4.4000
    endloop
endfacet
facet normal -118.0000 -0.2500 0.0000
    outer loop
        vertex -23.6000 0.0000 4.4000
        vertex -23.6000 0.0000 -4.4000
        vertex -23.6000 -0.1000 -4.4000
    endloop
endfacet
facet normal 0.0000 -0.2500 -22.0000
    outer loop
        vertex 23.6000 -0.1000 -4.4000
        vertex -23.6000 -0.1000 -4.4000
        vertex -23.6000 0.0000 -4.4000
    endloop
endfacet
facet normal 0.0000 -0.2500 -22.0000
    outer loop
        vertex -23.6000 0.0000 -4.4000
        vertex 23.6000 0.0000 -4.4000
        vertex 23.6000 -0.1000 -4.4000
    endloop
endfacet
facet normal 118.0000 -0.2500 0.0000
    outer loop
        vertex 23.6000 -0.1000 4.4000
        vertex 23.6000 -0.1000 -4.4000
        vertex 23.6000 0.0000 -4.4000
    endloop
endfacet
facet normal 118.0000 -0.2500 0.0000
    outer loop
        vertex 23.6000 0.0000 -4.4000
        vertex 23.6000 0.0000 4.4000
        vertex 23.6000 -0.1000 4.4000
    endloop
endfacet
facet normal 0.0000 -49.2000 0.0000
    outer loop
        vertex -19.5360 -0.1000 2.4000
        vertex -21.1760 -0.1000 2.4000
        vertex -21.1760 -0.1000 -2.4000
    endloop
endfacet
facet normal 0.0000 -40.0980 0.0000
    outer loop
        vertex -21.1760 -0.1000 -2.4000
        vertex -19.5360 -0.1000 -1.5120
        vertex -19.5360 -0.1000 2.4000
    endloop
endfacet
facet normal 0.0000 -21.7116 0.0000
    outer loop
        vertex -15.6240 -0.1000 -1.5120
        vertex -19.5360 -0.1000 -1.5120
        vertex -21.1760 -0.1000 -2.4000
    endloop
endfacet
facet normal 0.0000 -30.8136 0.0000
    outer loop
        vertex -21.1760 -0.1000 -2.4000
        vertex -15.6240 -0.1000 -2.4000
        vertex -15.6240 -0.1000 -1.5120
    endloop
endfacet
facet normal 0.0000 -49.2000 0.0000
    outer loop
        vertex -11.9360 -0.1000 2.4000
        vertex -13.5760 -0.1000 2.4000
        vertex -13.5760 -0.1000 -2.4000
    endloop
endfacet
facet normal 0.0000 -40.0980 0.0000
    outer loop
        vertex -13.5760 -0.1000 -2.4000
        vertex -11.9360 -0.1000 -1.5120
        vertex -11.9360 -0.1000 2.4000
    endloop
endfacet
facet normal 0.0000 -21.7116 0.0000
    outer loop
        vertex -8.0240 -0.1000 -1.5120
        vertex -11.9360 -0.1000 -1.5120
        vertex -13.5760 -0.1000 -2.4000
    endloop
endfacet
facet normal 0.0000 -30.8136 0.0000
    outer loop
        vertex -13.5760 -0.1000 -2.4000
        vertex -8.0240 -0.1000 -2.4000
        vertex -8.0240 -0.1000 -1.5120
    endloop
endfacet
facet normal 0.0000 -49.2000 0.0000
    outer loop
        vertex 17.2640 -0.1000 2.4000
        vertex 15.6240 -0.1000 2.4000
        vertex 15.6240 -0.1000 -2.4000
    endloop
endfacet
facet normal 0.0000 -40.0980 0.0000
    outer loop
        vertex 15.6240 -0.1000 -2.4000
        vertex 17.2640 -0.1000 -1.5120
        vertex 17.2640 -0.1000 2.4000
    endloop
endfacet
facet normal 0.0000 -21.7116 0.0000
    outer loop
        vertex 21.1760 -0.1000 -1.5120
        vertex 17.2640 -0.1000 -1.5120
        vertex 15.6240 -0.1000 -2.4000
    endloop
endfacet
facet normal 0.0000 -30.8136 0.0000
    outer loop
        vertex 15.6240 -0.1000 -2.4000
        vertex 21.1760 -0.1000 -2.4000
        vertex 21.1760 -0.1000 -1.5120
    endloop
endfacet
facet normal 0.0000 -8.0093 0.0000
    outer loop
        vertex 1.6880 -0.1000 0.4608
        vertex -0.3200 -0.1000 0.4272
        vertex 0.5280 -0.1000 -0.1968
    endloop
endfacet
facet normal 0.0000 -35.0107 0.0000
    outer loop
        vertex 0.5280 -0.1000 -0.1968
        vertex 5.1600 -0.1000 -2.4000
        vertex 1.6880 -0.1000 0.4608
    endloop
endfacet
facet normal 0.0000 -27.7603 0.0000
    outer loop
        vertex 0.5280 -0.1000 -0.1968
        vertex 3.1440 -0.1000 -2.4000
        vertex 5.1600 -0.1000 -2.4000
    endloop
endfacet
facet normal 0.0000 -23.6683 0.0000
    outer loop
        vertex -0.3200 -0.1000 0.4272
        vertex 1.6880 -0.1000 0.4608
        vertex 4.8720 -0.1000 2.4000
    endloop
endfacet
facet normal 0.0000 -25.3505 0.0000
    outer loop
        vertex 4.8720 -0.1000 2.4000
        vertex 2.8160 -0.1000 2.4000
        vertex -0.3200 -0.1000 0.4272
    endloop
endfacet
facet normal 0.0000 -20.2212 0.0000
    outer loop
        vertex -0.3200 -0.1000 0.4272
        vertex -0.3200 -0.1000 2.4000
        vertex -1.9600 -0.1000 2.4000
    endloop
endfacet
facet normal 0.0000 -49.2000 0.0000
    outer loop
        vertex -1.9600 -0.1000 2.4000
        vertex -1.9600 -0.1000 -2.4000
        vertex -0.3200 -0.1000 0.4272
    endloop
endfacet
facet normal 0.0000 -11.6604 0.0000
    outer loop
        vertex -0.3200 -0.1000 0.4272
        vertex -1.9600 -0.1000 -2.4000
        vertex -0.3200 -0.1000 -0.7104
    endloop
endfacet
facet normal 0.0000 -17.3184 0.0000
    outer loop
        vertex -0.3200 -0.1000 -0.7104
        vertex -1.9600 -0.1000 -2.4000
        vertex -0.3200 -0.1000 -2.4000
    endloop
endfacet
facet normal 0.0000 -6.0293 0.0000
    outer loop
        vertex -0.3200 -0.1000 0.4272
        vertex -0.3200 -0.1000 -0.7104
        vertex 0.5280 -0.1000 -0.1968
    endloop
endfacet
facet normal 0.0000 -18.5832 0.0000
    outer loop
        vertex 10.9040 -0.1000 2.4000
        vertex 7.3440 -0.1000 2.4000
        vertex 9.0000 -0.1000 1.5648
    endloop
endfacet
facet normal 0.0000 -8.7696 0.0000
    outer loop
        vertex 9.0000 -0.1000 1.5648
        vertex 10.6800 -0.1000 1.5648
        vertex 10.9040 -0.1000 2.4000
    endloop
endfacet
facet normal 0.0000 -10.9296 0.0000
    outer loop
        vertex 9.0000 -0.1000 0.1776
        vertex 8.9840 -0.1000 -0.6864
        vertex 11.0080 -0.1000 -0.6864
    endloop
endfacet
facet normal 0.0000 -8.5968 0.0000
    outer loop
        vertex 11.0080 -0.1000 -0.6864
        vertex 10.5920 -0.1000 0.1776
        vertex 9.0000 -0.1000 0.1776
    endloop
endfacet
facet normal 0.0000 -3.1795 0.0000
    outer loop
        vertex 11.1600 -0.1000 0.2208
        vertex 10.5920 -0.1000 0.1776
        vertex 11.0080 -0.1000 -0.6864
    endloop
endfacet
facet normal 0.0000 -2.6522 0.0000
    outer loop
        vertex 10.6800 -0.1000 1.5648
        vertex 11.1760 -0.1000 1.5216
        vertex 12.0160 -0.1000 2.3040
    endloop
endfacet
facet normal 0.0000 -5.9390 0.0000
    outer loop
        vertex 12.0160 -0.1000 2.3040
        vertex 10.9040 -0.1000 2.4000
        vertex 10.6800 -0.1000 1.5648
    endloop
endfacet
facet normal 0.0000 -6.4428 0.0000
    outer loop
        vertex 11.0080 -0.1000 -0.6864
        vertex 12.0560 -0.1000 -0.5904
        vertex 11.5360 -0.1000 0.3456
    endloop
endfacet
facet normal 0.0000 -2.0134 0.0000
    outer loop
        vertex 11.5360 -0.1000 0.3456
        vertex 11.1600 -0.1000 0.2208
        vertex 11.0080 -0.1000 -0.6864
    endloop
endfacet
facet normal 0.0000 -2.4192 0.0000
    outer loop
        vertex 11.1760 -0.1000 1.5216
        vertex 11.5360 -0.1000 1.3920
        vertex 12.8160 -0.1000 2.0064
    endloop
endfacet
facet normal 0.0000 -5.4744 0.0000
    outer loop
        vertex 12.8160 -0.1000 2.0064
        vertex 12.0160 -0.1000 2.3040
        vertex 11.1760 -0.1000 1.5216
    endloop
endfacet
facet normal 0.0000 -5.6832 0.0000
    outer loop
        vertex 13.2960 -0.1000 1.5264
        vertex 12.8160 -0.1000 2.0064
        vertex 11.5360 -0.1000 1.3920
    endloop
endfacet
facet normal 0.0000 -2.5574 0.0000
    outer loop
        vertex 11.5360 -0.1000 1.3920
        vertex 11.7520 -0.1000 1.1760
        vertex 13.2960 -0.1000 1.5264
    endloop
endfacet
facet normal 0.0000 -6.1042 0.0000
    outer loop
        vertex 12.0560 -0.1000 -0.5904
        vertex 12.8240 -0.1000 -0.2880
        vertex 11.7520 -0.1000 0.5616
    endloop
endfacet
facet normal 0.0000 -1.9656 0.0000
    outer loop
        vertex 11.7520 -0.1000 0.5616
        vertex 11.5360 -0.1000 0.3456
        vertex 12.0560 -0.1000 -0.5904
    endloop
endfacet
facet normal 0.0000 -11.0100 0.0000
    outer loop
        vertex 13.4560 -0.1000 0.8544
        vertex 11.7520 -0.1000 0.5616
        vertex 12.8240 -0.1000 -0.2880
    endloop
endfacet
facet normal 0.0000 -1.4933 0.0000
    outer loop
        vertex 12.8240 -0.1000 -0.2880
        vertex 13.3040 -0.1000 0.2016
        vertex 13.4560 -0.1000 0.8544
    endloop
endfacet
facet normal 0.0000 -3.0295 0.0000
    outer loop
        vertex 13.2960 -0.1000 1.5264
        vertex 11.7520 -0.1000 1.1760
        vertex 11.8240 -0.1000 0.8784
    endloop
endfacet
facet normal 0.0000 -6.8304 0.0000
    outer loop
        vertex 11.8240 -0.1000 0.8784
        vertex 13.4560 -0.1000 0.8544
        vertex 13.2960 -0.1000 1.5264
    endloop
endfacet
facet normal 0.0000 -3.2422 0.0000
    outer loop
        vertex 11.8240 -0.1000 0.8784
        vertex 11.7520 -0.1000 0.5616
        vertex 13.4560 -0.1000 0.8544
    endloop
endfacet
facet normal 0.0000 -17.5644 0.0000
    outer loop
        vertex 7.3440 -0.1000 -2.4000
        vertex 8.9840 -0.1000 -2.4000
        vertex 8.9840 -0.1000 -0.6864
    endloop
endfacet
facet normal 0.0000 -49.2000 0.0000
    outer loop
        vertex 8.9840 -0.1000 -0.6864
        vertex 7.3440 -0.1000 2.4000
        vertex 7.3440 -0.1000 -2.4000
    endloop
endfacet
facet normal 0.0000 -14.3575 0.0000
    outer loop
        vertex 9.0000 -0.1000 0.1776
        vertex 9.0000 -0.1000 1.5648
        vertex 7.3440 -0.1000 2.4000
    endloop
endfacet
facet normal 0.0000 -9.1646 0.0000
    outer loop
        vertex 7.3440 -0.1000 2.4000
        vertex 8.9840 -0.1000 -0.6864
        vertex 9.0000 -0.1000 0.1776
    endloop
endfacet
facet normal 0.0000 -10.0000 0.0000
    outer loop
        vertex -4.8000 -0.1000 0.8000
        vertex -6.8000 -0.1000 0.8000
        vertex -6.8000 -0.1000 0.0000
    endloop
endfacet
facet normal 0.0000 -10.0000 0.0000
    outer loop
        vertex -6.8000 -0.1000 0.0000
        vertex -4.8000 -0.1000 0.0000
        vertex -4.8000 -0.1000 0.8000
    endloop
endfacet
facet normal 0.0000 -95.6484 0.0000
    outer loop
        vertex -19.5360 -0.1000 2.4000
        vertex -19.5360 -0.1000 -1.5120
        vertex -15.6240 -0.1000 -1.5120
    endloop
endfacet
facet normal 0.0000 -145.7220 0.0000
    outer loop
        vertex -15.6240 -0.1000 -1.5120
        vertex -13.5760 -0.1000 2.4000
        vertex -19.5360 -0.1000 2.4000
    endloop
endfacet
facet normal 0.0000 -95.6484 0.0000
    outer loop
        vertex -11.9360 -0.1000 2.4000
        vertex -11.9360 -0.1000 -1.5120
        vertex -8.0240 -0.1000 -1.5120
    endloop
endfacet
facet normal 0.0000 -66.8952 0.0000
    outer loop
        vertex -8.0240 -0.1000 -1.5120
        vertex -6.8000 -0.1000 0.0000
        vertex -11.9360 -0.1000 2.4000
    endloop
endfacet
facet normal 0.0000 -95.6484 0.0000
    outer loop
        vertex 17.2640 -0.1000 2.4000
        vertex 17.2640 -0.1000 -1.5120
        vertex 21.1760 -0.1000 -1.5120
    endloop
endfacet
facet normal 0.0000 -203.8152 0.0000
    outer loop
        vertex 21.1760 -0.1000 -1.5120
        vertex 23.6000 -0.1000 4.4000
        vertex 17.2640 -0.1000 2.4000
    endloop
endfacet
facet normal 0.0000 -36.5798 0.0000
    outer loop
        vertex -0.3200 -0.1000 -0.7104
        vertex -0.3200 -0.1000 -2.4000
        vertex 3.1440 -0.1000 -2.4000
    endloop
endfacet
facet normal 0.0000 -20.0743 0.0000
    outer loop
        vertex 3.1440 -0.1000 -2.4000
        vertex 0.5280 -0.1000 -0.1968
        vertex -0.3200 -0.1000 -0.7104
    endloop
endfacet
facet normal 0.0000 -99.0106 0.0000
    outer loop
        vertex 4.8720 -0.1000 2.4000
        vertex 1.6880 -0.1000 0.4608
        vertex 5.1600 -0.1000 -2.4000
    endloop
endfacet
facet normal 0.0000 -65.5200 0.0000
    outer loop
        vertex 5.1600 -0.1000 -2.4000
        vertex 7.3440 -0.1000 -2.4000
        vertex 4.8720 -0.1000 2.4000
    endloop
endfacet
facet normal 0.0000 -38.6669 0.0000
    outer loop
        vertex -0.3200 -0.1000 2.4000
        vertex -0.3200 -0.1000 0.4272
        vertex 2.8160 -0.1000 2.4000
    endloop
endfacet
facet normal 0.0000 -39.2000 0.0000
    outer loop
        vertex 2.8160 -0.1000 2.4000
        vertex 0.0000 -0.1000 4.4000
        vertex -0.3200 -0.1000 2.4000
    endloop
endfacet
facet normal 0.0000 -13.8026 0.0000
    outer loop
        vertex 9.0000 -0.1000 1.5648
        vertex 9.0000 -0.1000 0.1776
        vertex 10.5920 -0.1000 0.1776
    endloop
endfacet
facet normal 0.0000 -14.5656 0.0000
    outer loop
        vertex 10.5920 -0.1000 0.1776
        vertex 10.6800 -0.1000 1.5648
        vertex 9.0000 -0.1000 1.5648
    endloop
endfacet
facet normal 0.0000 -0.3110 0.0000
    outer loop
        vertex 11.7520 -0.1000 1.1760
        vertex 11.5360 -0.1000 1.3920
        vertex 11.1760 -0.1000 1.5216
    endloop
endfacet
facet normal 0.0000 -0.9158 0.0000
    outer loop
        vertex 11.1760 -0.1000 1.5216
        vertex 11.8240 -0.1000 0.8784
        vertex 11.7520 -0.1000 1.1760
    endloop
endfacet
facet normal 0.0000 -0.3391 0.0000
    outer loop
        vertex 11.1600 -0.1000 0.2208
        vertex 11.5360 -0.1000 0.3456
        vertex 11.7520 -0.1000 0.5616
    endloop
endfacet
facet normal 0.0000 -1.0500 0.0000
    outer loop
        vertex 11.7520 -0.1000 0.5616
        vertex 10.5920 -0.1000 0.1776
        vertex 11.1600 -0.1000 0.2208
    endloop
endfacet
facet normal 0.0000 -2.1240 0.0000
    outer loop
        vertex 10.5920 -0.1000 0.1776
        vertex 11.7520 -0.1000 0.5616
        vertex 11.8240 -0.1000 0.8784
    endloop
endfacet
facet normal 0.0000 -10.2960 0.0000
    outer loop
        vertex 11.8240 -0.1000 0.8784
        vertex 10.6800 -0.1000 1.5648
        vertex 10.5920 -0.1000 0.1776
    endloop
endfacet
facet normal 0.0000 -1.8190 0.0000
    outer loop
        vertex 10.6800 -0.1000 1.5648
        vertex 11.8240 -0.1000 0.8784
        vertex 11.1760 -0.1000 1.5216
    endloop
endfacet
facet normal 0.0000 -295.0000 0.0000
    outer loop
        vertex -13.5760 -0.1000 2.4000
        vertex 0.0000 -0.1000 4.4000
        vertex -23.6000 -0.1000 4.4000
    endloop
endfacet
facet normal 0.0000 -74.5000 0.0000
    outer loop
        vertex -23.6000 -0.1000 4.4000
        vertex -19.5360 -0.1000 2.4000
        vertex -13.5760 -0.1000 2.4000
    endloop
endfacet
facet normal 0.0000 -20.5000 0.0000
    outer loop
        vertex -23.6000 -0.1000 4.4000
        vertex -21.1760 -0.1000 2.4000
        vertex -19.5360 -0.1000 2.4000
    endloop
endfacet
facet normal 0.0000 -72.7200 0.0000
    outer loop
        vertex -21.1760 -0.1000 -2.4000
        vertex -21.1760 -0.1000 2.4000
        vertex -23.6000 -0.1000 4.4000
    endloop
endfacet
facet normal 0.0000 -133.3200 0.0000
    outer loop
        vertex -23.6000 -0.1000 4.4000
        vertex -23.6000 -0.1000 -4.4000
        vertex -21.1760 -0.1000 -2.4000
    endloop
endfacet
facet normal 0.0000 -69.4000 0.0000
    outer loop
        vertex -15.6240 -0.1000 -2.4000
        vertex -21.1760 -0.1000 -2.4000
        vertex -23.6000 -0.1000 -4.4000
    endloop
endfacet
facet normal 0.0000 -25.6000 0.0000
    outer loop
        vertex -13.5760 -0.1000 -2.4000
        vertex -15.6240 -0.1000 -2.4000
        vertex -23.6000 -0.1000 -4.4000
    endloop
endfacet
facet normal 0.0000 -295.0000 0.0000
    outer loop
        vertex -23.6000 -0.1000 -4.4000
        vertex 0.0000 -0.1000 -4.4000
        vertex -13.5760 -0.1000 -2.4000
    endloop
endfacet
facet normal 0.0000 -11.3664 0.0000
    outer loop
        vertex -15.6240 -0.1000 -1.5120
        vertex -15.6240 -0.1000 -2.4000
        vertex -13.5760 -0.1000 -2.4000
    endloop
endfacet
facet normal 0.0000 -61.4400 0.0000
    outer loop
        vertex -13.5760 -0.1000 -2.4000
        vertex -13.5760 -0.1000 2.4000
        vertex -15.6240 -0.1000 -1.5120
    endloop
endfacet
facet normal 0.0000 -69.4000 0.0000
    outer loop
        vertex -8.0240 -0.1000 -2.4000
        vertex -13.5760 -0.1000 -2.4000
        vertex 0.0000 -0.1000 -4.4000
    endloop
endfacet
facet normal 0.0000 -75.8000 0.0000
    outer loop
        vertex -8.0240 -0.1000 -2.4000
        vertex 0.0000 -0.1000 -4.4000
        vertex -1.9600 -0.1000 -2.4000
    endloop
endfacet
facet normal 0.0000 -90.9600 0.0000
    outer loop
        vertex -1.9600 -0.1000 -2.4000
        vertex -4.8000 -0.1000 0.0000
        vertex -8.0240 -0.1000 -2.4000
    endloop
endfacet
facet normal 0.0000 -20.5000 0.0000
    outer loop
        vertex -0.3200 -0.1000 -2.4000
        vertex -1.9600 -0.1000 -2.4000
        vertex 0.0000 -0.1000 -4.4000
    endloop
endfacet
facet normal 0.0000 -43.3000 0.0000
    outer loop
        vertex 3.1440 -0.1000 -2.4000
        vertex -0.3200 -0.1000 -2.4000
        vertex 0.0000 -0.1000 -4.4000
    endloop
endfacet
facet normal 0.0000 -25.2000 0.0000
    outer loop
        vertex 5.1600 -0.1000 -2.4000
        vertex 3.1440 -0.1000 -2.4000
        vertex 0.0000 -0.1000 -4.4000
    endloop
endfacet
facet normal 0.0000 -27.3000 0.0000
    outer loop
        vertex 7.3440 -0.1000 -2.4000
        vertex 5.1600 -0.1000 -2.4000
        vertex 0.0000 -0.1000 -4.4000
    endloop
endfacet
facet normal 0.0000 -20.5000 0.0000
    outer loop
        vertex 8.9840 -0.1000 -2.4000
        vertex 7.3440 -0.1000 -2.4000
        vertex 0.0000 -0.1000 -4.4000
    endloop
endfacet
facet normal 0.0000 -83.0000 0.0000
    outer loop
        vertex 15.6240 -0.1000 -2.4000
        vertex 8.9840 -0.1000 -2.4000
        vertex 0.0000 -0.1000 -4.4000
    endloop
endfacet
facet normal 0.0000 -295.0000 0.0000
    outer loop
        vertex 0.0000 -0.1000 -4.4000
        vertex 23.6000 -0.1000 -4.4000
        vertex 15.6240 -0.1000 -2.4000
    endloop
endfacet
facet normal 0.0000 -69.4000 0.0000
    outer loop
        vertex 21.1760 -0.1000 -2.4000
        vertex 15.6240 -0.1000 -2.4000
        vertex 23.6000 -0.1000 -4.4000
    endloop
endfacet
facet normal 0.0000 -13.4532 0.0000
    outer loop
        vertex 21.1760 -0.1000 -1.5120
        vertex 21.1760 -0.1000 -2.4000
        vertex 23.6000 -0.1000 -4.4000
    endloop
endfacet
facet normal 0.0000 -133.3200 0.0000
    outer loop
        vertex 23.6000 -0.1000 -4.4000
        vertex 23.6000 -0.1000 4.4000
        vertex 21.1760 -0.1000 -1.5120
    endloop
endfacet
facet normal 0.0000 -20.5000 0.0000
    outer loop
        vertex 23.6000 -0.1000 4.4000
        vertex 15.6240 -0.1000 2.4000
        vertex 17.2640 -0.1000 2.4000
    endloop
endfacet
facet normal 0.0000 -59.0000 0.0000
    outer loop
        vertex 15.6240 -0.1000 2.4000
        vertex 23.6000 -0.1000 4.4000
        vertex 10.9040 -0.1000 2.4000
    endloop
endfacet
facet normal 0.0000 -2.8320 0.0000
    outer loop
        vertex 10.9040 -0.1000 2.4000
        vertex 12.0160 -0.1000 2.3040
        vertex 15.6240 -0.1000 2.4000
    endloop
endfacet
facet normal 0.0000 -7.1909 0.0000
    outer loop
        vertex 15.6240 -0.1000 2.4000
        vertex 12.0160 -0.1000 2.3040
        vertex 12.8160 -0.1000 2.0064
    endloop
endfacet
facet normal 0.0000 -9.6048 0.0000
    outer loop
        vertex 15.6240 -0.1000 2.4000
        vertex 12.8160 -0.1000 2.0064
        vertex 13.2960 -0.1000 1.5264
    endloop
endfacet
facet normal 0.0000 -10.6512 0.0000
    outer loop
        vertex 15.6240 -0.1000 2.4000
        vertex 13.2960 -0.1000 1.5264
        vertex 13.4560 -0.1000 0.8544
    endloop
endfacet
facet normal 0.0000 -65.0400 0.0000
    outer loop
        vertex 13.4560 -0.1000 0.8544
        vertex 15.6240 -0.1000 -2.4000
        vertex 15.6240 -0.1000 2.4000
    endloop
endfacet
facet normal 0.0000 -11.9371 0.0000
    outer loop
        vertex 13.4560 -0.1000 0.8544
        vertex 13.3040 -0.1000 0.2016
        vertex 15.6240 -0.1000 -2.4000
    endloop
endfacet
facet normal 0.0000 -14.9040 0.0000
    outer loop
        vertex 13.3040 -0.1000 0.2016
        vertex 12.8240 -0.1000 -0.2880
        vertex 15.6240 -0.1000 -2.4000
    endloop
endfacet
facet normal 0.0000 -15.4296 0.0000
    outer loop
        vertex 12.8240 -0.1000 -0.2880
        vertex 12.0560 -0.1000 -0.5904
        vertex 15.6240 -0.1000 -2.4000
    endloop
endfacet
facet normal 0.0000 -13.9937 0.0000
    outer loop
        vertex 12.0560 -0.1000 -0.5904
        vertex 11.0080 -0.1000 -0.6864
        vertex 15.6240 -0.1000 -2.4000
    endloop
endfacet
facet normal 0.0000 -21.6770 0.0000
    outer loop
        vertex 15.6240 -0.1000 -2.4000
        vertex 11.0080 -0.1000 -0.6864
        vertex 8.9840 -0.1000 -0.6864
    endloop
endfacet
facet normal 0.0000 -71.1144 0.0000
    outer loop
        vertex 8.9840 -0.1000 -0.6864
        vertex 8.9840 -0.1000 -2.4000
        vertex 15.6240 -0.1000 -2.4000
    endloop
endfacet
facet normal 0.0000 -295.0000 0.0000
    outer loop
        vertex 10.9040 -0.1000 2.4000
        vertex 23.6000 -0.1000 4.4000
        vertex 0.0000 -0.1000 4.4000
    endloop
endfacet
facet normal 0.0000 -44.5000 0.0000
    outer loop
        vertex 0.0000 -0.1000 4.4000
        vertex 7.3440 -0.1000 2.4000
        vertex 10.9040 -0.1000 2.4000
    endloop
endfacet
facet normal 0.0000 -30.9000 0.0000
    outer loop
        vertex 0.0000 -0.1000 4.4000
        vertex 4.8720 -0.1000 2.4000
        vertex 7.3440 -0.1000 2.4000
    endloop
endfacet
facet normal 0.0000 -74.1600 0.0000
    outer loop
        vertex 7.3440 -0.1000 2.4000
        vertex 4.8720 -0.1000 2.4000
        vertex 7.3440 -0.1000 -2.4000
    endloop
endfacet
facet normal 0.0000 -25.7000 0.0000
    outer loop
        vertex 0.0000 -0.1000 4.4000
        vertex 2.8160 -0.1000 2.4000
        vertex 4.8720 -0.1000 2.4000
    endloop
endfacet
facet normal 0.0000 -20.5000 0.0000
    outer loop
        vertex 0.0000 -0.1000 4.4000
        vertex -1.9600 -0.1000 2.4000
        vertex -0.3200 -0.1000 2.4000
    endloop
endfacet
facet normal 0.0000 -124.7000 0.0000
    outer loop
        vertex -1.9600 -0.1000 2.4000
        vertex 0.0000 -0.1000 4.4000
        vertex -11.9360 -0.1000 2.4000
    endloop
endfacet
facet normal 0.0000 -99.7600 0.0000
    outer loop
        vertex -11.9360 -0.1000 2.4000
        vertex -6.8000 -0.1000 0.8000
        vertex -1.9600 -0.1000 2.4000
    endloop
endfacet
facet normal 0.0000 -20.5000 0.0000
    outer loop
        vertex 0.0000 -0.1000 4.4000
        vertex -13.5760 -0.1000 2.4000
        vertex -11.9360 -0.1000 2.4000
    endloop
endfacet
facet normal 0.0000 -20.0000 0.0000
    outer loop
        vertex -1.9600 -0.1000 2.4000
        vertex -6.8000 -0.1000 0.8000
        vertex -4.8000 -0.1000 0.8000
    endloop
endfacet
facet normal 0.0000 -14.2000 0.0000
    outer loop
        vertex -1.9600 -0.1000 2.4000
        vertex -4.8000 -0.1000 0.8000
        vertex -4.8000 -0.1000 0.0000
    endloop
endfacet
facet normal 0.0000 -85.2000 0.0000
    outer loop
        vertex -4.8000 -0.1000 0.0000
        vertex -1.9600 -0.1000 -2.4000
        vertex -1.9600 -0.1000 2.4000
    endloop
endfacet
facet normal 0.0000 -17.8932 0.0000
    outer loop
        vertex -8.0240 -0.1000 -1.5120
        vertex -8.0240 -0.1000 -2.4000
        vertex -4.8000 -0.1000 0.0000
    endloop
endfacet
facet normal 0.0000 -18.9000 0.0000
    outer loop
        vertex -4.8000 -0.1000 0.0000
        vertex -6.8000 -0.1000 0.0000
        vertex -8.0240 -0.1000 -1.5120
    endloop
endfacet
facet normal 0.0000 -25.6800 0.0000
    outer loop
        vertex -11.9360 -0.1000 2.4000
        vertex -6.8000 -0.1000 0.0000
        vertex -6.8000 -0.1000 0.8000
    endloop
endfacet
endsolid GiantLegoRocks
