solid GiantLegoRocks
facet normal 0.0000 3416.0000 0.0000
    outer loop
        vertex 56.8000 0.0000 -5.6000
        vertex 8.0000 0.0000 -5.6000
        vertex 8.0000 0.0000 5.6000
    endloop
endfacet
facet normal 0.0000 3976.0000 0.0000
    outer loop
        vertex 8.0000 0.0000 5.6000
        vertex 64.8000 0.0000 5.6000
        vertex 56.8000 0.0000 -5.6000
    endloop
endfacet
facet normal 0.0000 96.0000 0.0000
    outer loop
        vertex -65.6000 0.0000 4.8000
        vertex -64.8000 0.0000 5.6000
        vertex -56.8000 0.0000 -5.6000
    endloop
endfacet
facet normal 0.0000 88.0000 0.0000
    outer loop
        vertex -56.8000 0.0000 -5.6000
        vertex -65.6000 0.0000 3.2000
        vertex -65.6000 0.0000 4.8000
    endloop
endfacet
facet normal 0.0000 3976.0000 0.0000
    outer loop
        vertex -56.8000 0.0000 -5.6000
        vertex -64.8000 0.0000 5.6000
        vertex -8.0000 0.0000 5.6000
    endloop
endfacet
facet normal 0.0000 3416.0000 0.0000
    outer loop
        vertex -8.0000 0.0000 5.6000
        vertex -8.0000 0.0000 -5.6000
        vertex -56.8000 0.0000 -5.6000
    endloop
endfacet
facet normal 0.0000 102.8382 0.0000
    outer loop
        vertex -8.0000 0.0000 5.6000
        vertex -6.7880 0.0000 6.7880
        vertex -6.7880 0.0000 -6.7880
    endloop
endfacet
facet normal 0.0000 84.8400 0.0000
    outer loop
        vertex -6.7880 0.0000 -6.7880
        vertex -8.0000 0.0000 -5.6000
        vertex -8.0000 0.0000 5.6000
    endloop
endfacet
facet normal 0.0000 96.0000 0.0000
    outer loop
        vertex 56.8000 0.0000 -5.6000
        vertex 64.8000 0.0000 5.6000
        vertex 65.6000 0.0000 4.8000
    endloop
endfacet
facet normal 0.0000 88.0000 0.0000
    outer loop
        vertex 65.6000 0.0000 4.8000
        vertex 65.6000 0.0000 3.2000
        vertex 56.8000 0.0000 -5.6000
    endloop
endfacet
facet normal 0.0000 84.8400 0.0000
    outer loop
        vertex 6.7880 0.0000 6.7880
        vertex 8.0000 0.0000 5.6000
        vertex 8.0000 0.0000 -5.6000
    endloop
endfacet
facet normal 0.0000 102.8382 0.0000
    outer loop
        vertex 8.0000 0.0000 -5.6000
        vertex 6.7880 0.0000 -6.7880
        vertex 6.7880 0.0000 6.7880
    endloop
endfacet
facet normal 0.0000 264.3926 0.0000
    outer loop
        vertex -6.7880 0.0000 -6.7880
        vertex -6.7880 0.0000 6.7880
        vertex -3.6720 0.0000 8.8680
    endloop
endfacet
facet normal 0.0000 345.4086 0.0000
    outer loop
        vertex -3.6720 0.0000 8.8680
        vertex -3.6720 0.0000 -8.8680
        vertex -6.7880 0.0000 -6.7880
    endloop
endfacet
facet normal 0.0000 440.6400 0.0000
    outer loop
        vertex 0.0000 0.0000 9.6000
        vertex 0.0000 0.0000 -9.6000
        vertex -3.6720 0.0000 -8.8680
    endloop
endfacet
facet normal 0.0000 407.0412 0.0000
    outer loop
        vertex -3.6720 0.0000 -8.8680
        vertex -3.6720 0.0000 8.8680
        vertex 0.0000 0.0000 9.6000
    endloop
endfacet
facet normal 0.0000 407.0412 0.0000
    outer loop
        vertex 3.6720 0.0000 8.8680
        vertex 3.6720 0.0000 -8.8680
        vertex 0.0000 0.0000 -9.6000
    endloop
endfacet
facet normal 0.0000 440.6400 0.0000
    outer loop
        vertex 0.0000 0.0000 -9.6000
        vertex 0.0000 0.0000 9.6000
        vertex 3.6720 0.0000 8.8680
    endloop
endfacet
facet normal 0.0000 345.4086 0.0000
    outer loop
        vertex 3.6720 0.0000 -8.8680
        vertex 3.6720 0.0000 8.8680
        vertex 6.7880 0.0000 6.7880
    endloop
endfacet
facet normal 0.0000 264.3926 0.0000
    outer loop
        vertex 6.7880 0.0000 6.7880
        vertex 6.7880 0.0000 -6.7880
        vertex 3.6720 0.0000 -8.8680
    endloop
endfacet
facet normal 0.0000 -0.2517 0.0000
    outer loop
        vertex 8.0000 -0.1000 0.0000
        vertex 8.0000 -0.1000 1.5912
        vertex 7.9312 -0.1000 1.0440
    endloop
endfacet
facet normal 0.0000 -0.2528 0.0000
    outer loop
        vertex 7.9312 -0.1000 1.0440
        vertex 8.0000 -0.1000 1.5912
        vertex 7.7272 -0.1000 2.0704
    endloop
endfacet
facet normal 0.0000 -0.2517 0.0000
    outer loop
        vertex 7.3912 -0.1000 3.0616
        vertex 7.7272 -0.1000 2.0704
        vertex 8.0000 -0.1000 1.5912
    endloop
endfacet
facet normal 0.0000 -0.2517 0.0000
    outer loop
        vertex 7.3912 -0.1000 3.0616
        vertex 6.7824 -0.1000 4.5320
        vertex 6.9280 -0.1000 4.0000
    endloop
endfacet
facet normal 0.0000 -0.2528 0.0000
    outer loop
        vertex 6.9280 -0.1000 4.0000
        vertex 6.7824 -0.1000 4.5320
        vertex 6.3472 -0.1000 4.8704
    endloop
endfacet
facet normal 0.0000 -0.2517 0.0000
    outer loop
        vertex 5.6568 -0.1000 5.6568
        vertex 6.3472 -0.1000 4.8704
        vertex 6.7824 -0.1000 4.5320
    endloop
endfacet
facet normal 0.0000 -0.2517 0.0000
    outer loop
        vertex 5.6568 -0.1000 5.6568
        vertex 4.5320 -0.1000 6.7824
        vertex 4.8704 -0.1000 6.3472
    endloop
endfacet
facet normal 0.0000 -0.2528 0.0000
    outer loop
        vertex 4.8704 -0.1000 6.3472
        vertex 4.5320 -0.1000 6.7824
        vertex 4.0000 -0.1000 6.9280
    endloop
endfacet
facet normal 0.0000 -0.2517 0.0000
    outer loop
        vertex 3.0616 -0.1000 7.3912
        vertex 4.0000 -0.1000 6.9280
        vertex 4.5320 -0.1000 6.7824
    endloop
endfacet
facet normal 0.0000 -0.2517 0.0000
    outer loop
        vertex 3.0616 -0.1000 7.3912
        vertex 1.5912 -0.1000 8.0000
        vertex 2.0704 -0.1000 7.7272
    endloop
endfacet
facet normal 0.0000 -0.2528 0.0000
    outer loop
        vertex 2.0704 -0.1000 7.7272
        vertex 1.5912 -0.1000 8.0000
        vertex 1.0440 -0.1000 7.9312
    endloop
endfacet
facet normal 0.0000 -0.2517 0.0000
    outer loop
        vertex 0.0000 -0.1000 8.0000
        vertex 1.0440 -0.1000 7.9312
        vertex 1.5912 -0.1000 8.0000
    endloop
endfacet
facet normal 0.0000 -0.2517 0.0000
    outer loop
        vertex 0.0000 -0.1000 8.0000
        vertex -1.5912 -0.1000 8.0000
        vertex -1.0440 -0.1000 7.9312
    endloop
endfacet
facet normal 0.0000 -0.2528 0.0000
    outer loop
        vertex -1.0440 -0.1000 7.9312
        vertex -1.5912 -0.1000 8.0000
        vertex -2.0704 -0.1000 7.7272
    endloop
endfacet
facet normal 0.0000 -0.2517 0.0000
    outer loop
        vertex -3.0616 -0.1000 7.3912
        vertex -2.0704 -0.1000 7.7272
        vertex -1.5912 -0.1000 8.0000
    endloop
endfacet
facet normal 0.0000 -0.2517 0.0000
    outer loop
        vertex -3.0616 -0.1000 7.3912
        vertex -4.5320 -0.1000 6.7824
        vertex -4.0000 -0.1000 6.9280
    endloop
endfacet
facet normal 0.0000 -0.2528 0.0000
    outer loop
        vertex -4.0000 -0.1000 6.9280
        vertex -4.5320 -0.1000 6.7824
        vertex -4.8704 -0.1000 6.3472
    endloop
endfacet
facet normal 0.0000 -0.2517 0.0000
    outer loop
        vertex -5.6568 -0.1000 5.6568
        vertex -4.8704 -0.1000 6.3472
        vertex -4.5320 -0.1000 6.7824
    endloop
endfacet
facet normal 0.0000 -0.2517 0.0000
    outer loop
        vertex -5.6568 -0.1000 5.6568
        vertex -6.7824 -0.1000 4.5320
        vertex -6.3472 -0.1000 4.8704
    endloop
endfacet
facet normal 0.0000 -0.2528 0.0000
    outer loop
        vertex -6.3472 -0.1000 4.8704
        vertex -6.7824 -0.1000 4.5320
        vertex -6.9280 -0.1000 4.0000
    endloop
endfacet
facet normal 0.0000 -0.2517 0.0000
    outer loop
        vertex -7.3912 -0.1000 3.0616
        vertex -6.9280 -0.1000 4.0000
        vertex -6.7824 -0.1000 4.5320
    endloop
endfacet
facet normal 0.0000 -0.2517 0.0000
    outer loop
        vertex -7.3912 -0.1000 3.0616
        vertex -8.0000 -0.1000 1.5912
        vertex -7.7272 -0.1000 2.0704
    endloop
endfacet
facet normal 0.0000 -0.2528 0.0000
    outer loop
        vertex -7.7272 -0.1000 2.0704
        vertex -8.0000 -0.1000 1.5912
        vertex -7.9312 -0.1000 1.0440
    endloop
endfacet
facet normal 0.0000 -0.2517 0.0000
    outer loop
        vertex -8.0000 -0.1000 0.0000
        vertex -7.9312 -0.1000 1.0440
        vertex -8.0000 -0.1000 1.5912
    endloop
endfacet
facet normal 0.0000 -0.2517 0.0000
    outer loop
        vertex -8.0000 -0.1000 0.0000
        vertex -8.0000 -0.1000 -1.5912
        vertex -7.9312 -0.1000 -1.0440
    endloop
endfacet
facet normal 0.0000 -0.2528 0.0000
    outer loop
        vertex -7.9312 -0.1000 -1.0440
        vertex -8.0000 -0.1000 -1.5912
        vertex -7.7272 -0.1000 -2.0704
    endloop
endfacet
facet normal 0.0000 -0.2517 0.0000
    outer loop
        vertex -7.3912 -0.1000 -3.0616
        vertex -7.7272 -0.1000 -2.0704
        vertex -8.0000 -0.1000 -1.5912
    endloop
endfacet
facet normal 0.0000 -0.2517 0.0000
    outer loop
        vertex -7.3912 -0.1000 -3.0616
        vertex -6.7824 -0.1000 -4.5320
        vertex -6.9280 -0.1000 -4.0000
    endloop
endfacet
facet normal 0.0000 -0.2528 0.0000
    outer loop
        vertex -6.9280 -0.1000 -4.0000
        vertex -6.7824 -0.1000 -4.5320
        vertex -6.3472 -0.1000 -4.8704
    endloop
endfacet
facet normal 0.0000 -0.2517 0.0000
    outer loop
        vertex -5.6568 -0.1000 -5.6568
        vertex -6.3472 -0.1000 -4.8704
        vertex -6.7824 -0.1000 -4.5320
    endloop
endfacet
facet normal 0.0000 -0.2517 0.0000
    outer loop
        vertex -5.6568 -0.1000 -5.6568
        vertex -4.5320 -0.1000 -6.7824
        vertex -4.8704 -0.1000 -6.3472
    endloop
endfacet
facet normal 0.0000 -0.2528 0.0000
    outer loop
        vertex -4.8704 -0.1000 -6.3472
        vertex -4.5320 -0.1000 -6.7824
        vertex -4.0000 -0.1000 -6.9280
    endloop
endfacet
facet normal 0.0000 -0.2517 0.0000
    outer loop
        vertex -3.0616 -0.1000 -7.3912
        vertex -4.0000 -0.1000 -6.9280
        vertex -4.5320 -0.1000 -6.7824
    endloop
endfacet
facet normal 0.0000 -0.2517 0.0000
    outer loop
        vertex -3.0616 -0.1000 -7.3912
        vertex -1.5912 -0.1000 -8.0000
        vertex -2.0704 -0.1000 -7.7272
    endloop
endfacet
facet normal 0.0000 -0.2528 0.0000
    outer loop
        vertex -2.0704 -0.1000 -7.7272
        vertex -1.5912 -0.1000 -8.0000
        vertex -1.0440 -0.1000 -7.9312
    endloop
endfacet
facet normal 0.0000 -0.2517 0.0000
    outer loop
        vertex 0.0000 -0.1000 -8.0000
        vertex -1.0440 -0.1000 -7.9312
        vertex -1.5912 -0.1000 -8.0000
    endloop
endfacet
facet normal 0.0000 -0.2517 0.0000
    outer loop
        vertex 0.0000 -0.1000 -8.0000
        vertex 1.5912 -0.1000 -8.0000
        vertex 1.0440 -0.1000 -7.9312
    endloop
endfacet
facet normal 0.0000 -0.2528 0.0000
    outer loop
        vertex 1.0440 -0.1000 -7.9312
        vertex 1.5912 -0.1000 -8.0000
        vertex 2.0704 -0.1000 -7.7272
    endloop
endfacet
facet normal 0.0000 -0.2517 0.0000
    outer loop
        vertex 3.0616 -0.1000 -7.3912
        vertex 2.0704 -0.1000 -7.7272
        vertex 1.5912 -0.1000 -8.0000
    endloop
endfacet
facet normal 0.0000 -0.2517 0.0000
    outer loop
        vertex 3.0616 -0.1000 -7.3912
        vertex 4.5320 -0.1000 -6.7824
        vertex 4.0000 -0.1000 -6.9280
    endloop
endfacet
facet normal 0.0000 -0.2528 0.0000
    outer loop
        vertex 4.0000 -0.1000 -6.9280
        vertex 4.5320 -0.1000 -6.7824
        vertex 4.8704 -0.1000 -6.3472
    endloop
endfacet
facet normal 0.0000 -0.2517 0.0000
    outer loop
        vertex 5.6568 -0.1000 -5.6568
        vertex 4.8704 -0.1000 -6.3472
        vertex 4.5320 -0.1000 -6.7824
    endloop
endfacet
facet normal 0.0000 -0.2517 0.0000
    outer loop
        vertex 5.6568 -0.1000 -5.6568
        vertex 6.7824 -0.1000 -4.5320
        vertex 6.3472 -0.1000 -4.8704
    endloop
endfacet
facet normal 0.0000 -0.2528 0.0000
    outer loop
        vertex 6.3472 -0.1000 -4.8704
        vertex 6.7824 -0.1000 -4.5320
        vertex 6.9280 -0.1000 -4.0000
    endloop
endfacet
facet normal 0.0000 -0.2517 0.0000
    outer loop
        vertex 7.3912 -0.1000 -3.0616
        vertex 6.9280 -0.1000 -4.0000
        vertex 6.7824 -0.1000 -4.5320
    endloop
endfacet
facet normal 0.0000 -0.2517 0.0000
    outer loop
        vertex 7.3912 -0.1000 -3.0616
        vertex 8.0000 -0.1000 -1.5912
        vertex 7.7272 -0.1000 -2.0704
    endloop
endfacet
facet normal 0.0000 -0.2528 0.0000
    outer loop
        vertex 7.7272 -0.1000 -2.0704
        vertex 8.0000 -0.1000 -1.5912
        vertex 7.9312 -0.1000 -1.0440
    endloop
endfacet
facet normal 0.0000 -0.2517 0.0000
    outer loop
        vertex 8.0000 -0.1000 0.0000
        vertex 7.9312 -0.1000 -1.0440
        vertex 8.0000 -0.1000 -1.5912
    endloop
endfacet
facet normal 0.0000 -0.3719 0.0000
    outer loop
        vertex 0.0000 -0.1000 5.6000
        vertex 5.6000 -0.1000 0.0000
        vertex 5.5518 -0.1000 0.7308
    endloop
endfacet
facet normal 0.0000 -0.3549 0.0000
    outer loop
        vertex 5.5518 -0.1000 0.7308
        vertex 0.7308 -0.1000 5.5518
        vertex 0.0000 -0.1000 5.6000
    endloop
endfacet
facet normal 0.0000 -0.3385 0.0000
    outer loop
        vertex 0.7308 -0.1000 5.5518
        vertex 5.5518 -0.1000 0.7308
        vertex 5.4090 -0.1000 1.4493
    endloop
endfacet
facet normal 0.0000 -0.3227 0.0000
    outer loop
        vertex 5.4090 -0.1000 1.4493
        vertex 1.4493 -0.1000 5.4090
        vertex 0.7308 -0.1000 5.5518
    endloop
endfacet
facet normal 0.0000 -0.3079 0.0000
    outer loop
        vertex 1.4493 -0.1000 5.4090
        vertex 5.4090 -0.1000 1.4493
        vertex 5.1738 -0.1000 2.1431
    endloop
endfacet
facet normal 0.0000 -0.2943 0.0000
    outer loop
        vertex 5.1738 -0.1000 2.1431
        vertex 2.1431 -0.1000 5.1738
        vertex 1.4493 -0.1000 5.4090
    endloop
endfacet
facet normal 0.0000 -0.2821 0.0000
    outer loop
        vertex 2.1431 -0.1000 5.1738
        vertex 5.1738 -0.1000 2.1431
        vertex 4.8496 -0.1000 2.8000
    endloop
endfacet
facet normal 0.0000 -0.2717 0.0000
    outer loop
        vertex 4.8496 -0.1000 2.8000
        vertex 2.8000 -0.1000 4.8496
        vertex 2.1431 -0.1000 5.1738
    endloop
endfacet
facet normal 0.0000 -0.2632 0.0000
    outer loop
        vertex 2.8000 -0.1000 4.8496
        vertex 4.8496 -0.1000 2.8000
        vertex 4.4430 -0.1000 3.4093
    endloop
endfacet
facet normal 0.0000 -0.2567 0.0000
    outer loop
        vertex 4.4430 -0.1000 3.4093
        vertex 3.4093 -0.1000 4.4430
        vertex 2.8000 -0.1000 4.8496
    endloop
endfacet
facet normal 0.0000 -0.2522 0.0000
    outer loop
        vertex 3.4093 -0.1000 4.4430
        vertex 4.4430 -0.1000 3.4093
        vertex 3.9598 -0.1000 3.9598
    endloop
endfacet
facet normal 0.0000 -0.3719 0.0000
    outer loop
        vertex -5.6000 -0.1000 0.0000
        vertex 0.0000 -0.1000 5.6000
        vertex -0.7308 -0.1000 5.5518
    endloop
endfacet
facet normal 0.0000 -0.3549 0.0000
    outer loop
        vertex -0.7308 -0.1000 5.5518
        vertex -5.5518 -0.1000 0.7308
        vertex -5.6000 -0.1000 0.0000
    endloop
endfacet
facet normal 0.0000 -0.3385 0.0000
    outer loop
        vertex -5.5518 -0.1000 0.7308
        vertex -0.7308 -0.1000 5.5518
        vertex -1.4493 -0.1000 5.4090
    endloop
endfacet
facet normal 0.0000 -0.3227 0.0000
    outer loop
        vertex -1.4493 -0.1000 5.4090
        vertex -5.4090 -0.1000 1.4493
        vertex -5.5518 -0.1000 0.7308
    endloop
endfacet
facet normal 0.0000 -0.3079 0.0000
    outer loop
        vertex -5.4090 -0.1000 1.4493
        vertex -1.4493 -0.1000 5.4090
        vertex -2.1431 -0.1000 5.1738
    endloop
endfacet
facet normal 0.0000 -0.2943 0.0000
    outer loop
        vertex -2.1431 -0.1000 5.1738
        vertex -5.1738 -0.1000 2.1431
        vertex -5.4090 -0.1000 1.4493
    endloop
endfacet
facet normal 0.0000 -0.2821 0.0000
    outer loop
        vertex -5.1738 -0.1000 2.1431
        vertex -2.1431 -0.1000 5.1738
        vertex -2.8000 -0.1000 4.8496
    endloop
endfacet
facet normal 0.0000 -0.2717 0.0000
    outer loop
        vertex -2.8000 -0.1000 4.8496
        vertex -4.8496 -0.1000 2.8000
        vertex -5.1738 -0.1000 2.1431
    endloop
endfacet
facet normal 0.0000 -0.2632 0.0000
    outer loop
        vertex -4.8496 -0.1000 2.8000
        vertex -2.8000 -0.1000 4.8496
        vertex -3.4093 -0.1000 4.4430
    endloop
endfacet
facet normal 0.0000 -0.2567 0.0000
    outer loop
        vertex -3.4093 -0.1000 4.4430
        vertex -4.4430 -0.1000 3.4093
        vertex -4.8496 -0.1000 2.8000
    endloop
endfacet
facet normal 0.0000 -0.2522 0.0000
    outer loop
        vertex -4.4430 -0.1000 3.4093
        vertex -3.4093 -0.1000 4.4430
        vertex -3.9598 -0.1000 3.9598
    endloop
endfacet
facet normal 0.0000 -0.3719 0.0000
    outer loop
        vertex 0.0000 -0.1000 -5.6000
        vertex -5.6000 -0.1000 0.0000
        vertex -5.5518 -0.1000 -0.7308
    endloop
endfacet
facet normal 0.0000 -0.3549 0.0000
    outer loop
        vertex -5.5518 -0.1000 -0.7308
        vertex -0.7308 -0.1000 -5.5518
        vertex 0.0000 -0.1000 -5.6000
    endloop
endfacet
facet normal 0.0000 -0.3385 0.0000
    outer loop
        vertex -0.7308 -0.1000 -5.5518
        vertex -5.5518 -0.1000 -0.7308
        vertex -5.4090 -0.1000 -1.4493
    endloop
endfacet
facet normal 0.0000 -0.3227 0.0000
    outer loop
        vertex -5.4090 -0.1000 -1.4493
        vertex -1.4493 -0.1000 -5.4090
        vertex -0.7308 -0.1000 -5.5518
    endloop
endfacet
facet normal 0.0000 -0.3079 0.0000
    outer loop
        vertex -1.4493 -0.1000 -5.4090
        vertex -5.4090 -0.1000 -1.4493
        vertex -5.1738 -0.1000 -2.1431
    endloop
endfacet
facet normal 0.0000 -0.2943 0.0000
    outer loop
        vertex -5.1738 -0.1000 -2.1431
        vertex -2.1431 -0.1000 -5.1738
        vertex -1.4493 -0.1000 -5.4090
    endloop
endfacet
facet normal 0.0000 -0.2821 0.0000
    outer loop
        vertex -2.1431 -0.1000 -5.1738
        vertex -5.1738 -0.1000 -2.1431
        vertex -4.8496 -0.1000 -2.8000
    endloop
endfacet
facet normal 0.0000 -0.2717 0.0000
    outer loop
        vertex -4.8496 -0.1000 -2.8000
        vertex -2.8000 -0.1000 -4.8496
        vertex -2.1431 -0.1000 -5.1738
    endloop
endfacet
facet normal 0.0000 -0.2632 0.0000
    outer loop
        vertex -2.8000 -0.1000 -4.8496
        vertex -4.8496 -0.1000 -2.8000
        vertex -4.4430 -0.1000 -3.4093
    endloop
endfacet
facet normal 0.0000 -0.2567 0.0000
    outer loop
        vertex -4.4430 -0.1000 -3.4093
        vertex -3.4093 -0.1000 -4.4430
        vertex -2.8000 -0.1000 -4.8496
    endloop
endfacet
facet normal 0.0000 -0.2522 0.0000
    outer loop
        vertex -3.4093 -0.1000 -4.4430
        vertex -4.4430 -0.1000 -3.4093
        vertex -3.9598 -0.1000 -3.9598
    endloop
endfacet
facet normal 0.0000 -0.3719 0.0000
    outer loop
        vertex 5.6000 -0.1000 0.0000
        vertex 0.0000 -0.1000 -5.6000
        vertex 0.7308 -0.1000 -5.5518
    endloop
endfacet
facet normal 0.0000 -0.3549 0.0000
    outer loop
        vertex 0.7308 -0.1000 -5.5518
        vertex 5.5518 -0.1000 -0.7308
        vertex 5.6000 -0.1000 0.0000
    endloop
endfacet
facet normal 0.0000 -0.3385 0.0000
    outer loop
        vertex 5.5518 -0.1000 -0.7308
        vertex 0.7308 -0.1000 -5.5518
        vertex 1.4493 -0.1000 -5.4090
    endloop
endfacet
facet normal 0.0000 -0.3227 0.0000
    outer loop
        vertex 1.4493 -0.1000 -5.4090
        vertex 5.4090 -0.1000 -1.4493
        vertex 5.5518 -0.1000 -0.7308
    endloop
endfacet
facet normal 0.0000 -0.3079 0.0000
    outer loop
        vertex 5.4090 -0.1000 -1.4493
        vertex 1.4493 -0.1000 -5.4090
        vertex 2.1431 -0.1000 -5.1738
    endloop
endfacet
facet normal 0.0000 -0.2943 0.0000
    outer loop
        vertex 2.1431 -0.1000 -5.1738
        vertex 5.1738 -0.1000 -2.1431
        vertex 5.4090 -0.1000 -1.4493
    endloop
endfacet
facet normal 0.0000 -0.2821 0.0000
    outer loop
        vertex 5.1738 -0.1000 -2.1431
        vertex 2.1431 -0.1000 -5.1738
        vertex 2.8000 -0.1000 -4.8496
    endloop
endfacet
facet normal 0.0000 -0.2717 0.0000
    outer loop
        vertex 2.8000 -0.1000 -4.8496
        vertex 4.8496 -0.1000 -2.8000
        vertex 5.1738 -0.1000 -2.1431
    endloop
endfacet
facet normal 0.0000 -0.2632 0.0000
    outer loop
        vertex 4.8496 -0.1000 -2.8000
        vertex 2.8000 -0.1000 -4.8496
        vertex 3.4093 -0.1000 -4.4430
    endloop
endfacet
facet normal 0.0000 -0.2567 0.0000
    outer loop
        vertex 3.4093 -0.1000 -4.4430
        vertex 4.4430 -0.1000 -3.4093
        vertex 4.8496 -0.1000 -2.8000
    endloop
endfacet
facet normal 0.0000 -0.2522 0.0000
    outer loop
        vertex 4.4430 -0.1000 -3.4093
        vertex 3.4093 -0.1000 -4.4430
        vertex 3.9598 -0.1000 -3.9598
    endloop
endfacet
facet normal 0.0000 -0.2586 0.0000
    outer loop
        vertex 5.5518 -0.1000 0.7308
        vertex 5.6000 -0.1000 0.0000
        vertex 5.6000 -0.1000 5.6000
    endloop
endfacet
facet normal 0.0000 -0.2733 0.0000
    outer loop
        vertex 5.4090 -0.1000 1.4493
        vertex 5.5518 -0.1000 0.7308
        vertex 5.6000 -0.1000 5.6000
    endloop
endfacet
facet normal 0.0000 -0.2854 0.0000
    outer loop
        vertex 5.1738 -0.1000 2.1431
        vertex 5.4090 -0.1000 1.4493
        vertex 5.6000 -0.1000 5.6000
    endloop
endfacet
facet normal 0.0000 -0.2947 0.0000
    outer loop
        vertex 4.8496 -0.1000 2.8000
        vertex 5.1738 -0.1000 2.1431
        vertex 5.6000 -0.1000 5.6000
    endloop
endfacet
facet normal 0.0000 -0.3009 0.0000
    outer loop
        vertex 4.4430 -0.1000 3.4093
        vertex 4.8496 -0.1000 2.8000
        vertex 5.6000 -0.1000 5.6000
    endloop
endfacet
facet normal 0.0000 -0.3041 0.0000
    outer loop
        vertex 3.9598 -0.1000 3.9598
        vertex 4.4430 -0.1000 3.4093
        vertex 5.6000 -0.1000 5.6000
    endloop
endfacet
facet normal 0.0000 -0.3041 0.0000
    outer loop
        vertex 3.4093 -0.1000 4.4430
        vertex 3.9598 -0.1000 3.9598
        vertex 5.6000 -0.1000 5.6000
    endloop
endfacet
facet normal 0.0000 -0.3009 0.0000
    outer loop
        vertex 2.8000 -0.1000 4.8496
        vertex 3.4093 -0.1000 4.4430
        vertex 5.6000 -0.1000 5.6000
    endloop
endfacet
facet normal 0.0000 -0.2947 0.0000
    outer loop
        vertex 2.1431 -0.1000 5.1738
        vertex 2.8000 -0.1000 4.8496
        vertex 5.6000 -0.1000 5.6000
    endloop
endfacet
facet normal 0.0000 -0.2854 0.0000
    outer loop
        vertex 1.4493 -0.1000 5.4090
        vertex 2.1431 -0.1000 5.1738
        vertex 5.6000 -0.1000 5.6000
    endloop
endfacet
facet normal 0.0000 -0.2733 0.0000
    outer loop
        vertex 0.7308 -0.1000 5.5518
        vertex 1.4493 -0.1000 5.4090
        vertex 5.6000 -0.1000 5.6000
    endloop
endfacet
facet normal 0.0000 -0.2586 0.0000
    outer loop
        vertex 0.0000 -0.1000 5.6000
        vertex 0.7308 -0.1000 5.5518
        vertex 5.6000 -0.1000 5.6000
    endloop
endfacet
facet normal 0.0000 -0.2586 0.0000
    outer loop
        vertex -0.7308 -0.1000 5.5518
        vertex 0.0000 -0.1000 5.6000
        vertex -5.6000 -0.1000 5.6000
    endloop
endfacet
facet normal 0.0000 -0.2733 0.0000
    outer loop
        vertex -1.4493 -0.1000 5.4090
        vertex -0.7308 -0.1000 5.5518
        vertex -5.6000 -0.1000 5.6000
    endloop
endfacet
facet normal 0.0000 -0.2854 0.0000
    outer loop
        vertex -2.1431 -0.1000 5.1738
        vertex -1.4493 -0.1000 5.4090
        vertex -5.6000 -0.1000 5.6000
    endloop
endfacet
facet normal 0.0000 -0.2947 0.0000
    outer loop
        vertex -2.8000 -0.1000 4.8496
        vertex -2.1431 -0.1000 5.1738
        vertex -5.6000 -0.1000 5.6000
    endloop
endfacet
facet normal 0.0000 -0.3009 0.0000
    outer loop
        vertex -3.4093 -0.1000 4.4430
        vertex -2.8000 -0.1000 4.8496
        vertex -5.6000 -0.1000 5.6000
    endloop
endfacet
facet normal 0.0000 -0.3041 0.0000
    outer loop
        vertex -3.9598 -0.1000 3.9598
        vertex -3.4093 -0.1000 4.4430
        vertex -5.6000 -0.1000 5.6000
    endloop
endfacet
facet normal 0.0000 -0.3041 0.0000
    outer loop
        vertex -4.4430 -0.1000 3.4093
        vertex -3.9598 -0.1000 3.9598
        vertex -5.6000 -0.1000 5.6000
    endloop
endfacet
facet normal 0.0000 -0.3009 0.0000
    outer loop
        vertex -4.8496 -0.1000 2.8000
        vertex -4.4430 -0.1000 3.4093
        vertex -5.6000 -0.1000 5.6000
    endloop
endfacet
facet normal 0.0000 -0.2947 0.0000
    outer loop
        vertex -5.1738 -0.1000 2.1431
        vertex -4.8496 -0.1000 2.8000
        vertex -5.6000 -0.1000 5.6000
    endloop
endfacet
facet normal 0.0000 -0.2854 0.0000
    outer loop
        vertex -5.4090 -0.1000 1.4493
        vertex -5.1738 -0.1000 2.1431
        vertex -5.6000 -0.1000 5.6000
    endloop
endfacet
facet normal 0.0000 -0.2733 0.0000
    outer loop
        vertex -5.5518 -0.1000 0.7308
        vertex -5.4090 -0.1000 1.4493
        vertex -5.6000 -0.1000 5.6000
    endloop
endfacet
facet normal 0.0000 -0.2586 0.0000
    outer loop
        vertex -5.6000 -0.1000 0.0000
        vertex -5.5518 -0.1000 0.7308
        vertex -5.6000 -0.1000 5.6000
    endloop
endfacet
facet normal 0.0000 -0.2586 0.0000
    outer loop
        vertex -5.5518 -0.1000 -0.7308
        vertex -5.6000 -0.1000 0.0000
        vertex -5.6000 -0.1000 -5.6000
    endloop
endfacet
facet normal 0.0000 -0.2733 0.0000
    outer loop
        vertex -5.4090 -0.1000 -1.4493
        vertex -5.5518 -0.1000 -0.7308
        vertex -5.6000 -0.1000 -5.6000
    endloop
endfacet
facet normal 0.0000 -0.2854 0.0000
    outer loop
        vertex -5.1738 -0.1000 -2.1431
        vertex -5.4090 -0.1000 -1.4493
        vertex -5.6000 -0.1000 -5.6000
    endloop
endfacet
facet normal 0.0000 -0.2947 0.0000
    outer loop
        vertex -4.8496 -0.1000 -2.8000
        vertex -5.1738 -0.1000 -2.1431
        vertex -5.6000 -0.1000 -5.6000
    endloop
endfacet
facet normal 0.0000 -0.3009 0.0000
    outer loop
        vertex -4.4430 -0.1000 -3.4093
        vertex -4.8496 -0.1000 -2.8000
        vertex -5.6000 -0.1000 -5.6000
    endloop
endfacet
facet normal 0.0000 -0.3041 0.0000
    outer loop
        vertex -3.9598 -0.1000 -3.9598
        vertex -4.4430 -0.1000 -3.4093
        vertex -5.6000 -0.1000 -5.6000
    endloop
endfacet
facet normal 0.0000 -0.3041 0.0000
    outer loop
        vertex -3.4093 -0.1000 -4.4430
        vertex -3.9598 -0.1000 -3.9598
        vertex -5.6000 -0.1000 -5.6000
    endloop
endfacet
facet normal 0.0000 -0.3009 0.0000
    outer loop
        vertex -2.8000 -0.1000 -4.8496
        vertex -3.4093 -0.1000 -4.4430
        vertex -5.6000 -0.1000 -5.6000
    endloop
endfacet
facet normal 0.0000 -0.2947 0.0000
    outer loop
        vertex -2.1431 -0.1000 -5.1738
        vertex -2.8000 -0.1000 -4.8496
        vertex -5.6000 -0.1000 -5.6000
    endloop
endfacet
facet normal 0.0000 -0.2854 0.0000
    outer loop
        vertex -1.4493 -0.1000 -5.4090
        vertex -2.1431 -0.1000 -5.1738
        vertex -5.6000 -0.1000 -5.6000
    endloop
endfacet
facet normal 0.0000 -0.2733 0.0000
    outer loop
        vertex -0.7308 -0.1000 -5.5518
        vertex -1.4493 -0.1000 -5.4090
        vertex -5.6000 -0.1000 -5.6000
    endloop
endfacet
facet normal 0.0000 -0.2586 0.0000
    outer loop
        vertex 0.0000 -0.1000 -5.6000
        vertex -0.7308 -0.1000 -5.5518
        vertex -5.6000 -0.1000 -5.6000
    endloop
endfacet
facet normal 0.0000 -0.2586 0.0000
    outer loop
        vertex 0.7308 -0.1000 -5.5518
        vertex 0.0000 -0.1000 -5.6000
        vertex 5.6000 -0.1000 -5.6000
    endloop
endfacet
facet normal 0.0000 -0.2733 0.0000
    outer loop
        vertex 1.4493 -0.1000 -5.4090
        vertex 0.7308 -0.1000 -5.5518
        vertex 5.6000 -0.1000 -5.6000
    endloop
endfacet
facet normal 0.0000 -0.2854 0.0000
    outer loop
        vertex 2.1431 -0.1000 -5.1738
        vertex 1.4493 -0.1000 -5.4090
        vertex 5.6000 -0.1000 -5.6000
    endloop
endfacet
facet normal 0.0000 -0.2947 0.0000
    outer loop
        vertex 2.8000 -0.1000 -4.8496
        vertex 2.1431 -0.1000 -5.1738
        vertex 5.6000 -0.1000 -5.6000
    endloop
endfacet
facet normal 0.0000 -0.3009 0.0000
    outer loop
        vertex 3.4093 -0.1000 -4.4430
        vertex 2.8000 -0.1000 -4.8496
        vertex 5.6000 -0.1000 -5.6000
    endloop
endfacet
facet normal 0.0000 -0.3041 0.0000
    outer loop
        vertex 3.9598 -0.1000 -3.9598
        vertex 3.4093 -0.1000 -4.4430
        vertex 5.6000 -0.1000 -5.6000
    endloop
endfacet
facet normal 0.0000 -0.3041 0.0000
    outer loop
        vertex 4.4430 -0.1000 -3.4093
        vertex 3.9598 -0.1000 -3.9598
        vertex 5.6000 -0.1000 -5.6000
    endloop
endfacet
facet normal 0.0000 -0.3009 0.0000
    outer loop
        vertex 4.8496 -0.1000 -2.8000
        vertex 4.4430 -0.1000 -3.4093
        vertex 5.6000 -0.1000 -5.6000
    endloop
endfacet
facet normal 0.0000 -0.2947 0.0000
    outer loop
        vertex 5.1738 -0.1000 -2.1431
        vertex 4.8496 -0.1000 -2.8000
        vertex 5.6000 -0.1000 -5.6000
    endloop
endfacet
facet normal 0.0000 -0.2854 0.0000
    outer loop
        vertex 5.4090 -0.1000 -1.4493
        vertex 5.1738 -0.1000 -2.1431
        vertex 5.6000 -0.1000 -5.6000
    endloop
endfacet
facet normal 0.0000 -0.2733 0.0000
    outer loop
        vertex 5.5518 -0.1000 -0.7308
        vertex 5.4090 -0.1000 -1.4493
        vertex 5.6000 -0.1000 -5.6000
    endloop
endfacet
facet normal 0.0000 -0.2586 0.0000
    outer loop
        vertex 5.6000 -0.1000 0.0000
        vertex 5.5518 -0.1000 -0.7308
        vertex 5.6000 -0.1000 -5.6000
    endloop
endfacet
facet normal 0.0000 -0.2821 0.0000
    outer loop
        vertex 5.6568 -0.1000 5.6568
        vertex 8.0000 -0.1000 0.0000
        vertex 7.9312 -0.1000 1.0440
    endloop
endfacet
facet normal 0.0000 -0.2718 0.0000
    outer loop
        vertex 7.9312 -0.1000 1.0440
        vertex 6.3472 -0.1000 4.8704
        vertex 5.6568 -0.1000 5.6568
    endloop
endfacet
facet normal 0.0000 -0.2632 0.0000
    outer loop
        vertex 6.3472 -0.1000 4.8704
        vertex 7.9312 -0.1000 1.0440
        vertex 7.7272 -0.1000 2.0704
    endloop
endfacet
facet normal 0.0000 -0.2566 0.0000
    outer loop
        vertex 7.7272 -0.1000 2.0704
        vertex 6.9280 -0.1000 4.0000
        vertex 6.3472 -0.1000 4.8704
    endloop
endfacet
facet normal 0.0000 -0.2522 0.0000
    outer loop
        vertex 6.9280 -0.1000 4.0000
        vertex 7.7272 -0.1000 2.0704
        vertex 7.3912 -0.1000 3.0616
    endloop
endfacet
facet normal 0.0000 -0.2821 0.0000
    outer loop
        vertex -5.6568 -0.1000 5.6568
        vertex 0.0000 -0.1000 8.0000
        vertex -1.0440 -0.1000 7.9312
    endloop
endfacet
facet normal 0.0000 -0.2718 0.0000
    outer loop
        vertex -1.0440 -0.1000 7.9312
        vertex -4.8704 -0.1000 6.3472
        vertex -5.6568 -0.1000 5.6568
    endloop
endfacet
facet normal 0.0000 -0.2632 0.0000
    outer loop
        vertex -4.8704 -0.1000 6.3472
        vertex -1.0440 -0.1000 7.9312
        vertex -2.0704 -0.1000 7.7272
    endloop
endfacet
facet normal 0.0000 -0.2566 0.0000
    outer loop
        vertex -2.0704 -0.1000 7.7272
        vertex -4.0000 -0.1000 6.9280
        vertex -4.8704 -0.1000 6.3472
    endloop
endfacet
facet normal 0.0000 -0.2522 0.0000
    outer loop
        vertex -4.0000 -0.1000 6.9280
        vertex -2.0704 -0.1000 7.7272
        vertex -3.0616 -0.1000 7.3912
    endloop
endfacet
facet normal 0.0000 -0.2821 0.0000
    outer loop
        vertex -5.6568 -0.1000 -5.6568
        vertex -8.0000 -0.1000 0.0000
        vertex -7.9312 -0.1000 -1.0440
    endloop
endfacet
facet normal 0.0000 -0.2718 0.0000
    outer loop
        vertex -7.9312 -0.1000 -1.0440
        vertex -6.3472 -0.1000 -4.8704
        vertex -5.6568 -0.1000 -5.6568
    endloop
endfacet
facet normal 0.0000 -0.2632 0.0000
    outer loop
        vertex -6.3472 -0.1000 -4.8704
        vertex -7.9312 -0.1000 -1.0440
        vertex -7.7272 -0.1000 -2.0704
    endloop
endfacet
facet normal 0.0000 -0.2566 0.0000
    outer loop
        vertex -7.7272 -0.1000 -2.0704
        vertex -6.9280 -0.1000 -4.0000
        vertex -6.3472 -0.1000 -4.8704
    endloop
endfacet
facet normal 0.0000 -0.2522 0.0000
    outer loop
        vertex -6.9280 -0.1000 -4.0000
        vertex -7.7272 -0.1000 -2.0704
        vertex -7.3912 -0.1000 -3.0616
    endloop
endfacet
facet normal 0.0000 -0.2821 0.0000
    outer loop
        vertex 5.6568 -0.1000 -5.6568
        vertex 0.0000 -0.1000 -8.0000
        vertex 1.0440 -0.1000 -7.9312
    endloop
endfacet
facet normal 0.0000 -0.2718 0.0000
    outer loop
        vertex 1.0440 -0.1000 -7.9312
        vertex 4.8704 -0.1000 -6.3472
        vertex 5.6568 -0.1000 -5.6568
    endloop
endfacet
facet normal 0.0000 -0.2632 0.0000
    outer loop
        vertex 4.8704 -0.1000 -6.3472
        vertex 1.0440 -0.1000 -7.9312
        vertex 2.0704 -0.1000 -7.7272
    endloop
endfacet
facet normal 0.0000 -0.2566 0.0000
    outer loop
        vertex 2.0704 -0.1000 -7.7272
        vertex 4.0000 -0.1000 -6.9280
        vertex 4.8704 -0.1000 -6.3472
    endloop
endfacet
facet normal 0.0000 -0.2522 0.0000
    outer loop
        vertex 4.0000 -0.1000 -6.9280
        vertex 2.0704 -0.1000 -7.7272
        vertex 3.0616 -0.1000 -7.3912
    endloop
endfacet
facet normal 0.0000 -0.2179 0.0000
    outer loop
        vertex -5.6568 -0.1000 5.6568
        vertex -7.9312 -0.1000 1.0440
        vertex -8.0000 -0.1000 0.0000
    endloop
endfacet
facet normal 0.0000 -0.2282 0.0000
    outer loop
        vertex -7.9312 -0.1000 1.0440
        vertex -5.6568 -0.1000 5.6568
        vertex -6.3472 -0.1000 4.8704
    endloop
endfacet
facet normal 0.0000 -0.2368 0.0000
    outer loop
        vertex -6.3472 -0.1000 4.8704
        vertex -7.7272 -0.1000 2.0704
        vertex -7.9312 -0.1000 1.0440
    endloop
endfacet
facet normal 0.0000 -0.2434 0.0000
    outer loop
        vertex -7.7272 -0.1000 2.0704
        vertex -6.3472 -0.1000 4.8704
        vertex -6.9280 -0.1000 4.0000
    endloop
endfacet
facet normal 0.0000 -0.2478 0.0000
    outer loop
        vertex -6.9280 -0.1000 4.0000
        vertex -7.3912 -0.1000 3.0616
        vertex -7.7272 -0.1000 2.0704
    endloop
endfacet
facet normal 0.0000 -0.2179 0.0000
    outer loop
        vertex 5.6568 -0.1000 -5.6568
        vertex 7.9312 -0.1000 -1.0440
        vertex 8.0000 -0.1000 0.0000
    endloop
endfacet
facet normal 0.0000 -0.2282 0.0000
    outer loop
        vertex 7.9312 -0.1000 -1.0440
        vertex 5.6568 -0.1000 -5.6568
        vertex 6.3472 -0.1000 -4.8704
    endloop
endfacet
facet normal 0.0000 -0.2368 0.0000
    outer loop
        vertex 6.3472 -0.1000 -4.8704
        vertex 7.7272 -0.1000 -2.0704
        vertex 7.9312 -0.1000 -1.0440
    endloop
endfacet
facet normal 0.0000 -0.2434 0.0000
    outer loop
        vertex 7.7272 -0.1000 -2.0704
        vertex 6.3472 -0.1000 -4.8704
        vertex 6.9280 -0.1000 -4.0000
    endloop
endfacet
facet normal 0.0000 -0.2478 0.0000
    outer loop
        vertex 6.9280 -0.1000 -4.0000
        vertex 7.3912 -0.1000 -3.0616
        vertex 7.7272 -0.1000 -2.0704
    endloop
endfacet
facet normal 0.0000 -0.2179 0.0000
    outer loop
        vertex 5.6568 -0.1000 5.6568
        vertex 1.0440 -0.1000 7.9312
        vertex 0.0000 -0.1000 8.0000
    endloop
endfacet
facet normal 0.0000 -0.2282 0.0000
    outer loop
        vertex 1.0440 -0.1000 7.9312
        vertex 5.6568 -0.1000 5.6568
        vertex 4.8704 -0.1000 6.3472
    endloop
endfacet
facet normal 0.0000 -0.2368 0.0000
    outer loop
        vertex 4.8704 -0.1000 6.3472
        vertex 2.0704 -0.1000 7.7272
        vertex 1.0440 -0.1000 7.9312
    endloop
endfacet
facet normal 0.0000 -0.2434 0.0000
    outer loop
        vertex 2.0704 -0.1000 7.7272
        vertex 4.8704 -0.1000 6.3472
        vertex 4.0000 -0.1000 6.9280
    endloop
endfacet
facet normal 0.0000 -0.2478 0.0000
    outer loop
        vertex 4.0000 -0.1000 6.9280
        vertex 3.0616 -0.1000 7.3912
        vertex 2.0704 -0.1000 7.7272
    endloop
endfacet
facet normal 0.0000 -0.2179 0.0000
    outer loop
        vertex -5.6568 -0.1000 -5.6568
        vertex -1.0440 -0.1000 -7.9312
        vertex 0.0000 -0.1000 -8.0000
    endloop
endfacet
facet normal 0.0000 -0.2282 0.0000
    outer loop
        vertex -1.0440 -0.1000 -7.9312
        vertex -5.6568 -0.1000 -5.6568
        vertex -4.8704 -0.1000 -6.3472
    endloop
endfacet
facet normal 0.0000 -0.2368 0.0000
    outer loop
        vertex -4.8704 -0.1000 -6.3472
        vertex -2.0704 -0.1000 -7.7272
        vertex -1.0440 -0.1000 -7.9312
    endloop
endfacet
facet normal 0.0000 -0.2434 0.0000
    outer loop
        vertex -2.0704 -0.1000 -7.7272
        vertex -4.8704 -0.1000 -6.3472
        vertex -4.0000 -0.1000 -6.9280
    endloop
endfacet
facet normal 0.0000 -0.2478 0.0000
    outer loop
        vertex -4.0000 -0.1000 -6.9280
        vertex -3.0616 -0.1000 -7.3912
        vertex -2.0704 -0.1000 -7.7272
    endloop
endfacet
facet normal 0.0000 -21.2800 0.0000
    outer loop
        vertex 0.0800 -0.1000 -0.8000
        vertex 0.0800 -0.1000 2.2400
        vertex -1.0400 -0.1000 2.2400
    endloop
endfacet
facet normal 0.0000 -28.0000 0.0000
    outer loop
        vertex -1.0400 -0.1000 2.2400
        vertex -1.0400 -0.1000 -1.7600
        vertex 0.0800 -0.1000 -0.8000
    endloop
endfacet
facet normal 0.0000 -15.8400 0.0000
    outer loop
        vertex 0.0800 -0.1000 -0.8000
        vertex -1.0400 -0.1000 -1.7600
        vertex 1.6000 -0.1000 -1.7600
    endloop
endfacet
facet normal 0.0000 -9.1200 0.0000
    outer loop
        vertex 1.6000 -0.1000 -1.7600
        vertex 1.6000 -0.1000 -0.8000
        vertex 0.0800 -0.1000 -0.8000
    endloop
endfacet
facet normal 0.0000 -20.7200 0.0000
    outer loop
        vertex 0.0000 -0.1000 5.2000
        vertex -1.0400 -0.1000 2.2400
        vertex 0.0800 -0.1000 2.2400
    endloop
endfacet
facet normal 0.0000 -62.4000 0.0000
    outer loop
        vertex 0.0000 -0.1000 5.2000
        vertex -5.2000 -0.1000 0.0000
        vertex -1.0400 -0.1000 2.2400
    endloop
endfacet
facet normal 0.0000 -104.0000 0.0000
    outer loop
        vertex -1.0400 -0.1000 2.2400
        vertex -5.2000 -0.1000 0.0000
        vertex -1.0400 -0.1000 -1.7600
    endloop
endfacet
facet normal 0.0000 -78.0000 0.0000
    outer loop
        vertex -5.2000 -0.1000 0.0000
        vertex 0.0000 -0.1000 -5.2000
        vertex -1.0400 -0.1000 -1.7600
    endloop
endfacet
facet normal 0.0000 -56.7600 0.0000
    outer loop
        vertex 1.6000 -0.1000 -1.7600
        vertex -1.0400 -0.1000 -1.7600
        vertex 0.0000 -0.1000 -5.2000
    endloop
endfacet
facet normal 0.0000 -59.8000 0.0000
    outer loop
        vertex 5.2000 -0.1000 0.0000
        vertex 1.6000 -0.1000 -1.7600
        vertex 0.0000 -0.1000 -5.2000
    endloop
endfacet
facet normal 0.0000 -21.6000 0.0000
    outer loop
        vertex 5.2000 -0.1000 0.0000
        vertex 1.6000 -0.1000 -0.8000
        vertex 1.6000 -0.1000 -1.7600
    endloop
endfacet
facet normal 0.0000 -76.0000 0.0000
    outer loop
        vertex 1.6000 -0.1000 -0.8000
        vertex 5.2000 -0.1000 0.0000
        vertex 0.0800 -0.1000 2.2400
    endloop
endfacet
facet normal 0.0000 -28.8800 0.0000
    outer loop
        vertex 0.0800 -0.1000 2.2400
        vertex 0.0800 -0.1000 -0.8000
        vertex 1.6000 -0.1000 -0.8000
    endloop
endfacet
facet normal 0.0000 -93.6000 0.0000
    outer loop
        vertex 0.0000 -0.1000 5.2000
        vertex 0.0800 -0.1000 2.2400
        vertex 5.2000 -0.1000 0.0000
    endloop
endfacet
facet normal 0.0000 -13.0000 0.0000
    outer loop
        vertex -5.2000 -0.1000 0.0000
        vertex 0.0000 -0.1000 5.2000
        vertex 0.0000 -0.1000 5.6000
    endloop
endfacet
facet normal 0.0000 -14.0000 0.0000
    outer loop
        vertex 0.0000 -0.1000 5.6000
        vertex -5.6000 -0.1000 0.0000
        vertex -5.2000 -0.1000 0.0000
    endloop
endfacet
facet normal 0.0000 -13.0000 0.0000
    outer loop
        vertex 0.0000 -0.1000 -5.2000
        vertex -5.2000 -0.1000 0.0000
        vertex -5.6000 -0.1000 0.0000
    endloop
endfacet
facet normal 0.0000 -14.0000 0.0000
    outer loop
        vertex -5.6000 -0.1000 0.0000
        vertex 0.0000 -0.1000 -5.6000
        vertex 0.0000 -0.1000 -5.2000
    endloop
endfacet
facet normal 0.0000 -13.0000 0.0000
    outer loop
        vertex 5.2000 -0.1000 0.0000
        vertex 0.0000 -0.1000 -5.2000
        vertex 0.0000 -0.1000 -5.6000
    endloop
endfacet
facet normal 0.0000 -14.0000 0.0000
    outer loop
        vertex 0.0000 -0.1000 -5.6000
        vertex 5.6000 -0.1000 0.0000
        vertex 5.2000 -0.1000 0.0000
    endloop
endfacet
facet normal 0.0000 -13.0000 0.0000
    outer loop
        vertex 0.0000 -0.1000 5.2000
        vertex 5.2000 -0.1000 0.0000
        vertex 5.6000 -0.1000 0.0000
    endloop
endfacet
facet normal 0.0000 -14.0000 0.0000
    outer loop
        vertex 5.6000 -0.1000 0.0000
        vertex 0.0000 -0.1000 5.6000
        vertex 0.0000 -0.1000 5.2000
    endloop
endfacet
facet normal 0.0000 -84.8520 0.0000
    outer loop
        vertex 0.0000 -0.1000 5.6000
        vertex 0.0000 -0.1000 8.0000
        vertex -5.6568 -0.1000 5.6568
    endloop
endfacet
facet normal 0.0000 -1.9880 0.0000
    outer loop
        vertex -5.6568 -0.1000 5.6568
        vertex -5.6000 -0.1000 5.6000
        vertex 0.0000 -0.1000 5.6000
    endloop
endfacet
facet normal 0.0000 -1.9880 0.0000
    outer loop
        vertex -5.6000 -0.1000 0.0000
        vertex -5.6000 -0.1000 5.6000
        vertex -5.6568 -0.1000 5.6568
    endloop
endfacet
facet normal 0.0000 -84.8520 0.0000
    outer loop
        vertex -5.6568 -0.1000 5.6568
        vertex -8.0000 -0.1000 0.0000
        vertex -5.6000 -0.1000 0.0000
    endloop
endfacet
facet normal 0.0000 -1.9880 0.0000
    outer loop
        vertex -5.6568 -0.1000 -5.6568
        vertex -5.6000 -0.1000 -5.6000
        vertex -5.6000 -0.1000 0.0000
    endloop
endfacet
facet normal 0.0000 -84.8520 0.0000
    outer loop
        vertex -5.6000 -0.1000 0.0000
        vertex -8.0000 -0.1000 0.0000
        vertex -5.6568 -0.1000 -5.6568
    endloop
endfacet
facet normal 0.0000 -1.9880 0.0000
    outer loop
        vertex 0.0000 -0.1000 -5.6000
        vertex -5.6000 -0.1000 -5.6000
        vertex -5.6568 -0.1000 -5.6568
    endloop
endfacet
facet normal 0.0000 -84.8520 0.0000
    outer loop
        vertex -5.6568 -0.1000 -5.6568
        vertex 0.0000 -0.1000 -8.0000
        vertex 0.0000 -0.1000 -5.6000
    endloop
endfacet
facet normal 0.0000 -84.8520 0.0000
    outer loop
        vertex 0.0000 -0.1000 -5.6000
        vertex 0.0000 -0.1000 -8.0000
        vertex 5.6568 -0.1000 -5.6568
    endloop
endfacet
facet normal 0.0000 -1.9880 0.0000
    outer loop
        vertex 5.6568 -0.1000 -5.6568
        vertex 5.6000 -0.1000 -5.6000
        vertex 0.0000 -0.1000 -5.6000
    endloop
endfacet
facet normal 0.0000 -2.8400 0.0000
    outer loop
        vertex 5.6000 -0.1000 -5.6000
        vertex 5.6568 -0.1000 -5.6568
        vertex 8.0000 -0.1000 0.0000
    endloop
endfacet
facet normal 0.0000 -84.0000 0.0000
    outer loop
        vertex 8.0000 -0.1000 0.0000
        vertex 5.6000 -0.1000 0.0000
        vertex 5.6000 -0.1000 -5.6000
    endloop
endfacet
facet normal 0.0000 -84.8520 0.0000
    outer loop
        vertex 5.6000 -0.1000 0.0000
        vertex 8.0000 -0.1000 0.0000
        vertex 5.6568 -0.1000 5.6568
    endloop
endfacet
facet normal 0.0000 -1.9880 0.0000
    outer loop
        vertex 5.6568 -0.1000 5.6568
        vertex 5.6000 -0.1000 5.6000
        vertex 5.6000 -0.1000 0.0000
    endloop
endfacet
facet normal 0.0000 -1.9880 0.0000
    outer loop
        vertex 0.0000 -0.1000 5.6000
        vertex 5.6000 -0.1000 5.6000
        vertex 5.6568 -0.1000 5.6568
    endloop
endfacet
facet normal 0.0000 -84.8520 0.0000
    outer loop
        vertex 5.6568 -0.1000 5.6568
        vertex 0.0000 -0.1000 8.0000
        vertex 0.0000 -0.1000 5.6000
    endloop
endfacet
facet normal 0.0000 -488.0000 0.0000
    outer loop
        vertex -59.2000 -0.1000 -0.8000
        vertex -10.4000 -0.1000 -0.8000
        vertex -10.4000 -0.1000 0.8000
    endloop
endfacet
facet normal 0.0000 -504.0000 0.0000
    outer loop
        vertex -10.4000 -0.1000 0.8000
        vertex -60.8000 -0.1000 0.8000
        vertex -59.2000 -0.1000 -0.8000
    endloop
endfacet
facet normal 0.0000 -520.0000 0.0000
    outer loop
        vertex -62.4000 -0.1000 2.4000
        vertex -10.4000 -0.1000 2.4000
        vertex -10.4000 -0.1000 4.0000
    endloop
endfacet
facet normal 0.0000 -536.0000 0.0000
    outer loop
        vertex -10.4000 -0.1000 4.0000
        vertex -64.0000 -0.1000 4.0000
        vertex -62.4000 -0.1000 2.4000
    endloop
endfacet
facet normal 0.0000 -472.0000 0.0000
    outer loop
        vertex -10.4000 -0.1000 -4.0000
        vertex -10.4000 -0.1000 -2.4000
        vertex -57.6000 -0.1000 -2.4000
    endloop
endfacet
facet normal 0.0000 -456.0000 0.0000
    outer loop
        vertex -57.6000 -0.1000 -2.4000
        vertex -56.0000 -0.1000 -4.0000
        vertex -10.4000 -0.1000 -4.0000
    endloop
endfacet
facet normal 0.0000 -488.0000 0.0000
    outer loop
        vertex 10.4000 -0.1000 0.8000
        vertex 10.4000 -0.1000 -0.8000
        vertex 59.2000 -0.1000 -0.8000
    endloop
endfacet
facet normal 0.0000 -504.0000 0.0000
    outer loop
        vertex 59.2000 -0.1000 -0.8000
        vertex 60.8000 -0.1000 0.8000
        vertex 10.4000 -0.1000 0.8000
    endloop
endfacet
facet normal 0.0000 -520.0000 0.0000
    outer loop
        vertex 10.4000 -0.1000 4.0000
        vertex 10.4000 -0.1000 2.4000
        vertex 62.4000 -0.1000 2.4000
    endloop
endfacet
facet normal 0.0000 -536.0000 0.0000
    outer loop
        vertex 62.4000 -0.1000 2.4000
        vertex 64.0000 -0.1000 4.0000
        vertex 10.4000 -0.1000 4.0000
    endloop
endfacet
facet normal 0.0000 -472.0000 0.0000
    outer loop
        vertex 57.6000 -0.1000 -2.4000
        vertex 10.4000 -0.1000 -2.4000
        vertex 10.4000 -0.1000 -4.0000
    endloop
endfacet
facet normal 0.0000 -456.0000 0.0000
    outer loop
        vertex 10.4000 -0.1000 -4.0000
        vertex 56.0000 -0.1000 -4.0000
        vertex 57.6000 -0.1000 -2.4000
    endloop
endfacet
facet normal 0.0000 -15.9120 0.0000
    outer loop
        vertex -1.5912 -0.1000 8.0000
        vertex 0.0000 -0.1000 8.0000
        vertex 0.0000 -0.1000 9.6000
    endloop
endfacet
facet normal 0.0000 -29.4403 0.0000
    outer loop
        vertex 0.0000 -0.1000 9.6000
        vertex -3.6720 -0.1000 8.8680
        vertex -1.5912 -0.1000 8.0000
    endloop
endfacet
facet normal 0.0000 -15.8944 0.0000
    outer loop
        vertex -3.6720 -0.1000 8.8680
        vertex -3.0616 -0.1000 7.3912
        vertex -1.5912 -0.1000 8.0000
    endloop
endfacet
facet normal 0.0000 -15.8944 0.0000
    outer loop
        vertex -4.5320 -0.1000 6.7824
        vertex -3.0616 -0.1000 7.3912
        vertex -3.6720 -0.1000 8.8680
    endloop
endfacet
facet normal 0.0000 -29.4371 0.0000
    outer loop
        vertex -3.6720 -0.1000 8.8680
        vertex -6.7880 -0.1000 6.7880
        vertex -4.5320 -0.1000 6.7824
    endloop
endfacet
facet normal 0.0000 -15.9103 0.0000
    outer loop
        vertex -6.7880 -0.1000 6.7880
        vertex -5.6568 -0.1000 5.6568
        vertex -4.5320 -0.1000 6.7824
    endloop
endfacet
facet normal 0.0000 -17.1308 0.0000
    outer loop
        vertex -6.7880 -0.1000 6.7880
        vertex -8.0000 -0.1000 5.6000
        vertex -6.7824 -0.1000 4.5320
    endloop
endfacet
facet normal 0.0000 -15.9103 0.0000
    outer loop
        vertex -6.7824 -0.1000 4.5320
        vertex -5.6568 -0.1000 5.6568
        vertex -6.7880 -0.1000 6.7880
    endloop
endfacet
facet normal 0.0000 -28.1960 0.0000
    outer loop
        vertex -10.4000 -0.1000 4.0000
        vertex -6.7824 -0.1000 4.5320
        vertex -8.0000 -0.1000 5.6000
    endloop
endfacet
facet normal 0.0000 -536.0000 0.0000
    outer loop
        vertex -8.0000 -0.1000 5.6000
        vertex -64.0000 -0.1000 4.0000
        vertex -10.4000 -0.1000 4.0000
    endloop
endfacet
facet normal 0.0000 -568.0000 0.0000
    outer loop
        vertex -64.0000 -0.1000 4.0000
        vertex -8.0000 -0.1000 5.6000
        vertex -64.8000 -0.1000 5.6000
    endloop
endfacet
facet normal 0.0000 -12.0000 0.0000
    outer loop
        vertex -64.8000 -0.1000 5.6000
        vertex -65.6000 -0.1000 4.8000
        vertex -64.0000 -0.1000 4.0000
    endloop
endfacet
facet normal 0.0000 -24.0000 0.0000
    outer loop
        vertex -65.6000 -0.1000 3.2000
        vertex -62.4000 -0.1000 2.4000
        vertex -64.0000 -0.1000 4.0000
    endloop
endfacet
facet normal 0.0000 -16.0000 0.0000
    outer loop
        vertex -64.0000 -0.1000 4.0000
        vertex -65.6000 -0.1000 4.8000
        vertex -65.6000 -0.1000 3.2000
    endloop
endfacet
facet normal 0.0000 -24.0000 0.0000
    outer loop
        vertex -65.6000 -0.1000 3.2000
        vertex -60.8000 -0.1000 0.8000
        vertex -62.4000 -0.1000 2.4000
    endloop
endfacet
facet normal 0.0000 -24.0000 0.0000
    outer loop
        vertex -59.2000 -0.1000 -0.8000
        vertex -60.8000 -0.1000 0.8000
        vertex -65.6000 -0.1000 3.2000
    endloop
endfacet
facet normal 0.0000 -132.0000 0.0000
    outer loop
        vertex -65.6000 -0.1000 3.2000
        vertex -56.8000 -0.1000 -5.6000
        vertex -59.2000 -0.1000 -0.8000
    endloop
endfacet
facet normal 0.0000 -24.0000 0.0000
    outer loop
        vertex -59.2000 -0.1000 -0.8000
        vertex -56.8000 -0.1000 -5.6000
        vertex -57.6000 -0.1000 -2.4000
    endloop
endfacet
facet normal 0.0000 -24.0000 0.0000
    outer loop
        vertex -57.6000 -0.1000 -2.4000
        vertex -56.8000 -0.1000 -5.6000
        vertex -56.0000 -0.1000 -4.0000
    endloop
endfacet
facet normal 0.0000 -456.0000 0.0000
    outer loop
        vertex -10.4000 -0.1000 -4.0000
        vertex -56.0000 -0.1000 -4.0000
        vertex -56.8000 -0.1000 -5.6000
    endloop
endfacet
facet normal 0.0000 -488.0000 0.0000
    outer loop
        vertex -56.8000 -0.1000 -5.6000
        vertex -8.0000 -0.1000 -5.6000
        vertex -10.4000 -0.1000 -4.0000
    endloop
endfacet
facet normal 0.0000 -17.1308 0.0000
    outer loop
        vertex -8.0000 -0.1000 -5.6000
        vertex -6.7880 -0.1000 -6.7880
        vertex -6.7824 -0.1000 -4.5320
    endloop
endfacet
facet normal 0.0000 -15.2535 0.0000
    outer loop
        vertex -6.7824 -0.1000 -4.5320
        vertex -7.3912 -0.1000 -3.0616
        vertex -8.0000 -0.1000 -5.6000
    endloop
endfacet
facet normal 0.0000 -29.4371 0.0000
    outer loop
        vertex -4.5320 -0.1000 -6.7824
        vertex -6.7880 -0.1000 -6.7880
        vertex -3.6720 -0.1000 -8.8680
    endloop
endfacet
facet normal 0.0000 -15.8944 0.0000
    outer loop
        vertex -3.6720 -0.1000 -8.8680
        vertex -3.0616 -0.1000 -7.3912
        vertex -4.5320 -0.1000 -6.7824
    endloop
endfacet
facet normal 0.0000 -15.8944 0.0000
    outer loop
        vertex -1.5912 -0.1000 -8.0000
        vertex -3.0616 -0.1000 -7.3912
        vertex -3.6720 -0.1000 -8.8680
    endloop
endfacet
facet normal 0.0000 -29.4403 0.0000
    outer loop
        vertex -3.6720 -0.1000 -8.8680
        vertex 0.0000 -0.1000 -9.6000
        vertex -1.5912 -0.1000 -8.0000
    endloop
endfacet
facet normal 0.0000 -15.9120 0.0000
    outer loop
        vertex 0.0000 -0.1000 -8.0000
        vertex -1.5912 -0.1000 -8.0000
        vertex 0.0000 -0.1000 -9.6000
    endloop
endfacet
facet normal 0.0000 -31.2215 0.0000
    outer loop
        vertex -7.3912 -0.1000 3.0616
        vertex -6.7824 -0.1000 4.5320
        vertex -10.4000 -0.1000 4.0000
    endloop
endfacet
facet normal 0.0000 -30.0880 0.0000
    outer loop
        vertex -10.4000 -0.1000 4.0000
        vertex -10.4000 -0.1000 2.4000
        vertex -7.3912 -0.1000 3.0616
    endloop
endfacet
facet normal 0.0000 -25.1335 0.0000
    outer loop
        vertex -8.0000 -0.1000 1.5912
        vertex -7.3912 -0.1000 3.0616
        vertex -10.4000 -0.1000 2.4000
    endloop
endfacet
facet normal 0.0000 -24.0000 0.0000
    outer loop
        vertex -10.4000 -0.1000 2.4000
        vertex -10.4000 -0.1000 0.8000
        vertex -8.0000 -0.1000 1.5912
    endloop
endfacet
facet normal 0.0000 -504.0000 0.0000
    outer loop
        vertex -60.8000 -0.1000 0.8000
        vertex -10.4000 -0.1000 0.8000
        vertex -10.4000 -0.1000 2.4000
    endloop
endfacet
facet normal 0.0000 -520.0000 0.0000
    outer loop
        vertex -10.4000 -0.1000 2.4000
        vertex -62.4000 -0.1000 2.4000
        vertex -60.8000 -0.1000 0.8000
    endloop
endfacet
facet normal 0.0000 -23.8680 0.0000
    outer loop
        vertex -8.0000 -0.1000 0.0000
        vertex -8.0000 -0.1000 1.5912
        vertex -10.4000 -0.1000 0.8000
    endloop
endfacet
facet normal 0.0000 -24.0000 0.0000
    outer loop
        vertex -10.4000 -0.1000 0.8000
        vertex -10.4000 -0.1000 -0.8000
        vertex -8.0000 -0.1000 0.0000
    endloop
endfacet
facet normal 0.0000 -23.8680 0.0000
    outer loop
        vertex -8.0000 -0.1000 -1.5912
        vertex -8.0000 -0.1000 0.0000
        vertex -10.4000 -0.1000 -0.8000
    endloop
endfacet
facet normal 0.0000 -24.0000 0.0000
    outer loop
        vertex -10.4000 -0.1000 -0.8000
        vertex -10.4000 -0.1000 -2.4000
        vertex -8.0000 -0.1000 -1.5912
    endloop
endfacet
facet normal 0.0000 -472.0000 0.0000
    outer loop
        vertex -57.6000 -0.1000 -2.4000
        vertex -10.4000 -0.1000 -2.4000
        vertex -10.4000 -0.1000 -0.8000
    endloop
endfacet
facet normal 0.0000 -488.0000 0.0000
    outer loop
        vertex -10.4000 -0.1000 -0.8000
        vertex -59.2000 -0.1000 -0.8000
        vertex -57.6000 -0.1000 -2.4000
    endloop
endfacet
facet normal 0.0000 -25.1335 0.0000
    outer loop
        vertex -7.3912 -0.1000 -3.0616
        vertex -8.0000 -0.1000 -1.5912
        vertex -10.4000 -0.1000 -2.4000
    endloop
endfacet
facet normal 0.0000 -30.0880 0.0000
    outer loop
        vertex -10.4000 -0.1000 -2.4000
        vertex -10.4000 -0.1000 -4.0000
        vertex -7.3912 -0.1000 -3.0616
    endloop
endfacet
facet normal 0.0000 -44.1640 0.0000
    outer loop
        vertex -7.3912 -0.1000 -3.0616
        vertex -10.4000 -0.1000 -4.0000
        vertex -8.0000 -0.1000 -5.6000
    endloop
endfacet
facet normal 0.0000 -568.0000 0.0000
    outer loop
        vertex 64.8000 -0.1000 5.6000
        vertex 8.0000 -0.1000 5.6000
        vertex 64.0000 -0.1000 4.0000
    endloop
endfacet
facet normal 0.0000 -12.0000 0.0000
    outer loop
        vertex 64.0000 -0.1000 4.0000
        vertex 65.6000 -0.1000 4.8000
        vertex 64.8000 -0.1000 5.6000
    endloop
endfacet
facet normal 0.0000 -536.0000 0.0000
    outer loop
        vertex 10.4000 -0.1000 4.0000
        vertex 64.0000 -0.1000 4.0000
        vertex 8.0000 -0.1000 5.6000
    endloop
endfacet
facet normal 0.0000 -28.1960 0.0000
    outer loop
        vertex 8.0000 -0.1000 5.6000
        vertex 6.7824 -0.1000 4.5320
        vertex 10.4000 -0.1000 4.0000
    endloop
endfacet
facet normal 0.0000 -24.0000 0.0000
    outer loop
        vertex 64.0000 -0.1000 4.0000
        vertex 62.4000 -0.1000 2.4000
        vertex 65.6000 -0.1000 3.2000
    endloop
endfacet
facet normal 0.0000 -16.0000 0.0000
    outer loop
        vertex 65.6000 -0.1000 3.2000
        vertex 65.6000 -0.1000 4.8000
        vertex 64.0000 -0.1000 4.0000
    endloop
endfacet
facet normal 0.0000 -17.1308 0.0000
    outer loop
        vertex 6.7824 -0.1000 4.5320
        vertex 8.0000 -0.1000 5.6000
        vertex 6.7880 -0.1000 6.7880
    endloop
endfacet
facet normal 0.0000 -15.9103 0.0000
    outer loop
        vertex 6.7880 -0.1000 6.7880
        vertex 5.6568 -0.1000 5.6568
        vertex 6.7824 -0.1000 4.5320
    endloop
endfacet
facet normal 0.0000 -31.2215 0.0000
    outer loop
        vertex 10.4000 -0.1000 4.0000
        vertex 6.7824 -0.1000 4.5320
        vertex 7.3912 -0.1000 3.0616
    endloop
endfacet
facet normal 0.0000 -30.0880 0.0000
    outer loop
        vertex 7.3912 -0.1000 3.0616
        vertex 10.4000 -0.1000 2.4000
        vertex 10.4000 -0.1000 4.0000
    endloop
endfacet
facet normal 0.0000 -24.0000 0.0000
    outer loop
        vertex 65.6000 -0.1000 3.2000
        vertex 62.4000 -0.1000 2.4000
        vertex 60.8000 -0.1000 0.8000
    endloop
endfacet
facet normal 0.0000 -520.0000 0.0000
    outer loop
        vertex 60.8000 -0.1000 0.8000
        vertex 62.4000 -0.1000 2.4000
        vertex 10.4000 -0.1000 2.4000
    endloop
endfacet
facet normal 0.0000 -504.0000 0.0000
    outer loop
        vertex 10.4000 -0.1000 2.4000
        vertex 10.4000 -0.1000 0.8000
        vertex 60.8000 -0.1000 0.8000
    endloop
endfacet
facet normal 0.0000 -24.0000 0.0000
    outer loop
        vertex 65.6000 -0.1000 3.2000
        vertex 60.8000 -0.1000 0.8000
        vertex 59.2000 -0.1000 -0.8000
    endloop
endfacet
facet normal 0.0000 -132.0000 0.0000
    outer loop
        vertex 59.2000 -0.1000 -0.8000
        vertex 56.8000 -0.1000 -5.6000
        vertex 65.6000 -0.1000 3.2000
    endloop
endfacet
facet normal 0.0000 -29.4371 0.0000
    outer loop
        vertex 6.7880 -0.1000 6.7880
        vertex 3.6720 -0.1000 8.8680
        vertex 4.5320 -0.1000 6.7824
    endloop
endfacet
facet normal 0.0000 -15.9103 0.0000
    outer loop
        vertex 4.5320 -0.1000 6.7824
        vertex 5.6568 -0.1000 5.6568
        vertex 6.7880 -0.1000 6.7880
    endloop
endfacet
facet normal 0.0000 -25.1335 0.0000
    outer loop
        vertex 10.4000 -0.1000 2.4000
        vertex 7.3912 -0.1000 3.0616
        vertex 8.0000 -0.1000 1.5912
    endloop
endfacet
facet normal 0.0000 -24.0000 0.0000
    outer loop
        vertex 8.0000 -0.1000 1.5912
        vertex 10.4000 -0.1000 0.8000
        vertex 10.4000 -0.1000 2.4000
    endloop
endfacet
facet normal 0.0000 -24.0000 0.0000
    outer loop
        vertex 59.2000 -0.1000 -0.8000
        vertex 57.6000 -0.1000 -2.4000
        vertex 56.8000 -0.1000 -5.6000
    endloop
endfacet
facet normal 0.0000 -488.0000 0.0000
    outer loop
        vertex 57.6000 -0.1000 -2.4000
        vertex 59.2000 -0.1000 -0.8000
        vertex 10.4000 -0.1000 -0.8000
    endloop
endfacet
facet normal 0.0000 -472.0000 0.0000
    outer loop
        vertex 10.4000 -0.1000 -0.8000
        vertex 10.4000 -0.1000 -2.4000
        vertex 57.6000 -0.1000 -2.4000
    endloop
endfacet
facet normal 0.0000 -24.0000 0.0000
    outer loop
        vertex 57.6000 -0.1000 -2.4000
        vertex 56.0000 -0.1000 -4.0000
        vertex 56.8000 -0.1000 -5.6000
    endloop
endfacet
facet normal 0.0000 -456.0000 0.0000
    outer loop
        vertex 56.8000 -0.1000 -5.6000
        vertex 56.0000 -0.1000 -4.0000
        vertex 10.4000 -0.1000 -4.0000
    endloop
endfacet
facet normal 0.0000 -488.0000 0.0000
    outer loop
        vertex 10.4000 -0.1000 -4.0000
        vertex 8.0000 -0.1000 -5.6000
        vertex 56.8000 -0.1000 -5.6000
    endloop
endfacet
facet normal 0.0000 -15.8944 0.0000
    outer loop
        vertex 3.6720 -0.1000 8.8680
        vertex 3.0616 -0.1000 7.3912
        vertex 4.5320 -0.1000 6.7824
    endloop
endfacet
facet normal 0.0000 -29.4403 0.0000
    outer loop
        vertex 3.6720 -0.1000 8.8680
        vertex 0.0000 -0.1000 9.6000
        vertex 1.5912 -0.1000 8.0000
    endloop
endfacet
facet normal 0.0000 -15.8944 0.0000
    outer loop
        vertex 1.5912 -0.1000 8.0000
        vertex 3.0616 -0.1000 7.3912
        vertex 3.6720 -0.1000 8.8680
    endloop
endfacet
facet normal 0.0000 -23.8680 0.0000
    outer loop
        vertex 10.4000 -0.1000 0.8000
        vertex 8.0000 -0.1000 1.5912
        vertex 8.0000 -0.1000 0.0000
    endloop
endfacet
facet normal 0.0000 -24.0000 0.0000
    outer loop
        vertex 8.0000 -0.1000 0.0000
        vertex 10.4000 -0.1000 -0.8000
        vertex 10.4000 -0.1000 0.8000
    endloop
endfacet
facet normal 0.0000 -23.8680 0.0000
    outer loop
        vertex 10.4000 -0.1000 -0.8000
        vertex 8.0000 -0.1000 0.0000
        vertex 8.0000 -0.1000 -1.5912
    endloop
endfacet
facet normal 0.0000 -24.0000 0.0000
    outer loop
        vertex 8.0000 -0.1000 -1.5912
        vertex 10.4000 -0.1000 -2.4000
        vertex 10.4000 -0.1000 -0.8000
    endloop
endfacet
facet normal 0.0000 -30.0880 0.0000
    outer loop
        vertex 10.4000 -0.1000 -4.0000
        vertex 10.4000 -0.1000 -2.4000
        vertex 7.3912 -0.1000 -3.0616
    endloop
endfacet
facet normal 0.0000 -44.1640 0.0000
    outer loop
        vertex 7.3912 -0.1000 -3.0616
        vertex 8.0000 -0.1000 -5.6000
        vertex 10.4000 -0.1000 -4.0000
    endloop
endfacet
facet normal 0.0000 -17.1308 0.0000
    outer loop
        vertex 6.7824 -0.1000 -4.5320
        vertex 6.7880 -0.1000 -6.7880
        vertex 8.0000 -0.1000 -5.6000
    endloop
endfacet
facet normal 0.0000 -15.2535 0.0000
    outer loop
        vertex 8.0000 -0.1000 -5.6000
        vertex 7.3912 -0.1000 -3.0616
        vertex 6.7824 -0.1000 -4.5320
    endloop
endfacet
facet normal 0.0000 -15.9120 0.0000
    outer loop
        vertex 0.0000 -0.1000 9.6000
        vertex 0.0000 -0.1000 8.0000
        vertex 1.5912 -0.1000 8.0000
    endloop
endfacet
facet normal 0.0000 -25.1335 0.0000
    outer loop
        vertex 8.0000 -0.1000 -1.5912
        vertex 7.3912 -0.1000 -3.0616
        vertex 10.4000 -0.1000 -2.4000
    endloop
endfacet
facet normal 0.0000 -15.9103 0.0000
    outer loop
        vertex 6.7824 -0.1000 -4.5320
        vertex 5.6568 -0.1000 -5.6568
        vertex 6.7880 -0.1000 -6.7880
    endloop
endfacet
facet normal 0.0000 -15.9103 0.0000
    outer loop
        vertex 6.7880 -0.1000 -6.7880
        vertex 5.6568 -0.1000 -5.6568
        vertex 4.5320 -0.1000 -6.7824
    endloop
endfacet
facet normal 0.0000 -29.4371 0.0000
    outer loop
        vertex 4.5320 -0.1000 -6.7824
        vertex 3.6720 -0.1000 -8.8680
        vertex 6.7880 -0.1000 -6.7880
    endloop
endfacet
facet normal 0.0000 -15.8944 0.0000
    outer loop
        vertex 4.5320 -0.1000 -6.7824
        vertex 3.0616 -0.1000 -7.3912
        vertex 3.6720 -0.1000 -8.8680
    endloop
endfacet
facet normal 0.0000 -15.8944 0.0000
    outer loop
        vertex 3.6720 -0.1000 -8.8680
        vertex 3.0616 -0.1000 -7.3912
        vertex 1.5912 -0.1000 -8.0000
    endloop
endfacet
facet normal 0.0000 -29.4403 0.0000
    outer loop
        vertex 1.5912 -0.1000 -8.0000
        vertex 0.0000 -0.1000 -9.6000
        vertex 3.6720 -0.1000 -8.8680
    endloop
endfacet
facet normal 0.0000 -15.9120 0.0000
    outer loop
        vertex 1.5912 -0.1000 -8.0000
        vertex 0.0000 -0.1000 -8.0000
        vertex 0.0000 -0.1000 -9.6000
    endloop
endfacet
facet normal 0.0000 -15.9103 0.0000
    outer loop
        vertex -6.7824 -0.1000 -4.5320
        vertex -6.7880 -0.1000 -6.7880
        vertex -5.6568 -0.1000 -5.6568
    endloop
endfacet
facet normal 0.0000 -15.9103 0.0000
    outer loop
        vertex -5.6568 -0.1000 -5.6568
        vertex -6.7880 -0.1000 -6.7880
        vertex -4.5320 -0.1000 -6.7824
    endloop
endfacet
facet normal 0.7425 0.0000 0.7575
    outer loop
        vertex 8.0000 -0.1000 5.6000
        vertex 8.0000 0.0000 5.6000
        vertex 6.7880 0.0000 6.7880
    endloop
endfacet
facet normal 0.7425 0.0000 0.7575
    outer loop
        vertex 6.7880 0.0000 6.7880
        vertex 6.7880 -0.1000 6.7880
        vertex 8.0000 -0.1000 5.6000
    endloop
endfacet
facet normal 0.0000 0.0000 35.5000
    outer loop
        vertex 64.8000 -0.1000 5.6000
        vertex 64.8000 0.0000 5.6000
        vertex 8.0000 0.0000 5.6000
    endloop
endfacet
facet normal 0.0000 0.0000 35.5000
    outer loop
        vertex 8.0000 0.0000 5.6000
        vertex 8.0000 -0.1000 5.6000
        vertex 64.8000 -0.1000 5.6000
    endloop
endfacet
facet normal 0.5000 0.0000 0.5000
    outer loop
        vertex 65.6000 -0.1000 4.8000
        vertex 65.6000 0.0000 4.8000
        vertex 64.8000 0.0000 5.6000
    endloop
endfacet
facet normal 0.5000 0.0000 0.5000
    outer loop
        vertex 64.8000 0.0000 5.6000
        vertex 64.8000 -0.1000 5.6000
        vertex 65.6000 -0.1000 4.8000
    endloop
endfacet
facet normal 1.0000 0.0000 0.0000
    outer loop
        vertex 65.6000 -0.1000 3.2000
        vertex 65.6000 0.0000 3.2000
        vertex 65.6000 0.0000 4.8000
    endloop
endfacet
facet normal 1.0000 0.0000 0.0000
    outer loop
        vertex 65.6000 0.0000 4.8000
        vertex 65.6000 -0.1000 4.8000
        vertex 65.6000 -0.1000 3.2000
    endloop
endfacet
facet normal 5.5000 0.0000 -5.5000
    outer loop
        vertex 56.8000 -0.1000 -5.6000
        vertex 56.8000 0.0000 -5.6000
        vertex 65.6000 0.0000 3.2000
    endloop
endfacet
facet normal 5.5000 0.0000 -5.5000
    outer loop
        vertex 65.6000 0.0000 3.2000
        vertex 65.6000 -0.1000 3.2000
        vertex 56.8000 -0.1000 -5.6000
    endloop
endfacet
facet normal 0.0000 0.0000 -30.5000
    outer loop
        vertex 8.0000 -0.1000 -5.6000
        vertex 8.0000 0.0000 -5.6000
        vertex 56.8000 0.0000 -5.6000
    endloop
endfacet
facet normal 0.0000 0.0000 -30.5000
    outer loop
        vertex 56.8000 0.0000 -5.6000
        vertex 56.8000 -0.1000 -5.6000
        vertex 8.0000 -0.1000 -5.6000
    endloop
endfacet
facet normal 0.7425 0.0000 -0.7575
    outer loop
        vertex 6.7880 -0.1000 -6.7880
        vertex 6.7880 0.0000 -6.7880
        vertex 8.0000 0.0000 -5.6000
    endloop
endfacet
facet normal 0.7425 0.0000 -0.7575
    outer loop
        vertex 8.0000 0.0000 -5.6000
        vertex 8.0000 -0.1000 -5.6000
        vertex 6.7880 -0.1000 -6.7880
    endloop
endfacet
facet normal 1.3000 0.0000 -1.9475
    outer loop
        vertex 3.6720 -0.1000 -8.8680
        vertex 3.6720 0.0000 -8.8680
        vertex 6.7880 0.0000 -6.7880
    endloop
endfacet
facet normal 1.3000 0.0000 -1.9475
    outer loop
        vertex 6.7880 0.0000 -6.7880
        vertex 6.7880 -0.1000 -6.7880
        vertex 3.6720 -0.1000 -8.8680
    endloop
endfacet
facet normal 0.4575 0.0000 -2.2950
    outer loop
        vertex 0.0000 -0.1000 -9.6000
        vertex 0.0000 0.0000 -9.6000
        vertex 3.6720 0.0000 -8.8680
    endloop
endfacet
facet normal 0.4575 0.0000 -2.2950
    outer loop
        vertex 3.6720 0.0000 -8.8680
        vertex 3.6720 -0.1000 -8.8680
        vertex 0.0000 -0.1000 -9.6000
    endloop
endfacet
facet normal -0.4575 0.0000 -2.2950
    outer loop
        vertex -3.6720 -0.1000 -8.8680
        vertex -3.6720 0.0000 -8.8680
        vertex 0.0000 0.0000 -9.6000
    endloop
endfacet
facet normal -0.4575 0.0000 -2.2950
    outer loop
        vertex 0.0000 0.0000 -9.6000
        vertex 0.0000 -0.1000 -9.6000
        vertex -3.6720 -0.1000 -8.8680
    endloop
endfacet
facet normal -1.3000 0.0000 -1.9475
    outer loop
        vertex -6.7880 -0.1000 -6.7880
        vertex -6.7880 0.0000 -6.7880
        vertex -3.6720 0.0000 -8.8680
    endloop
endfacet
facet normal -1.3000 0.0000 -1.9475
    outer loop
        vertex -3.6720 0.0000 -8.8680
        vertex -3.6720 -0.1000 -8.8680
        vertex -6.7880 -0.1000 -6.7880
    endloop
endfacet
facet normal -0.7425 0.0000 -0.7575
    outer loop
        vertex -8.0000 -0.1000 -5.6000
        vertex -8.0000 0.0000 -5.6000
        vertex -6.7880 0.0000 -6.7880
    endloop
endfacet
facet normal -0.7425 0.0000 -0.7575
    outer loop
        vertex -6.7880 0.0000 -6.7880
        vertex -6.7880 -0.1000 -6.7880
        vertex -8.0000 -0.1000 -5.6000
    endloop
endfacet
facet normal 0.0000 0.0000 -30.5000
    outer loop
        vertex -56.8000 -0.1000 -5.6000
        vertex -56.8000 0.0000 -5.6000
        vertex -8.0000 0.0000 -5.6000
    endloop
endfacet
facet normal 0.0000 0.0000 -30.5000
    outer loop
        vertex -8.0000 0.0000 -5.6000
        vertex -8.0000 -0.1000 -5.6000
        vertex -56.8000 -0.1000 -5.6000
    endloop
endfacet
facet normal -5.5000 0.0000 -5.5000
    outer loop
        vertex -65.6000 -0.1000 3.2000
        vertex -65.6000 0.0000 3.2000
        vertex -56.8000 0.0000 -5.6000
    endloop
endfacet
facet normal -5.5000 0.0000 -5.5000
    outer loop
        vertex -56.8000 0.0000 -5.6000
        vertex -56.8000 -0.1000 -5.6000
        vertex -65.6000 -0.1000 3.2000
    endloop
endfacet
facet normal -1.0000 0.0000 0.0000
    outer loop
        vertex -65.6000 -0.1000 4.8000
        vertex -65.6000 0.0000 4.8000
        vertex -65.6000 0.0000 3.2000
    endloop
endfacet
facet normal -1.0000 0.0000 0.0000
    outer loop
        vertex -65.6000 0.0000 3.2000
        vertex -65.6000 -0.1000 3.2000
        vertex -65.6000 -0.1000 4.8000
    endloop
endfacet
facet normal -0.5000 0.0000 0.5000
    outer loop
        vertex -64.8000 -0.1000 5.6000
        vertex -64.8000 0.0000 5.6000
        vertex -65.6000 0.0000 4.8000
    endloop
endfacet
facet normal -0.5000 0.0000 0.5000
    outer loop
        vertex -65.6000 0.0000 4.8000
        vertex -65.6000 -0.1000 4.8000
        vertex -64.8000 -0.1000 5.6000
    endloop
endfacet
facet normal 0.0000 0.0000 35.5000
    outer loop
        vertex -8.0000 -0.1000 5.6000
        vertex -8.0000 0.0000 5.6000
        vertex -64.8000 0.0000 5.6000
    endloop
endfacet
facet normal 0.0000 0.0000 35.5000
    outer loop
        vertex -64.8000 0.0000 5.6000
        vertex -64.8000 -0.1000 5.6000
        vertex -8.0000 -0.1000 5.6000
    endloop
endfacet
facet normal -0.7425 0.0000 0.7575
    outer loop
        vertex -6.7880 -0.1000 6.7880
        vertex -6.7880 0.0000 6.7880
        vertex -8.0000 0.0000 5.6000
    endloop
endfacet
facet normal -0.7425 0.0000 0.7575
    outer loop
        vertex -8.0000 0.0000 5.6000
        vertex -8.0000 -0.1000 5.6000
        vertex -6.7880 -0.1000 6.7880
    endloop
endfacet
facet normal -1.3000 0.0000 1.9475
    outer loop
        vertex -3.6720 -0.1000 8.8680
        vertex -3.6720 0.0000 8.8680
        vertex -6.7880 0.0000 6.7880
    endloop
endfacet
facet normal -1.3000 0.0000 1.9475
    outer loop
        vertex -6.7880 0.0000 6.7880
        vertex -6.7880 -0.1000 6.7880
        vertex -3.6720 -0.1000 8.8680
    endloop
endfacet
facet normal -0.4575 0.0000 2.2950
    outer loop
        vertex 0.0000 -0.1000 9.6000
        vertex 0.0000 0.0000 9.6000
        vertex -3.6720 0.0000 8.8680
    endloop
endfacet
facet normal -0.4575 0.0000 2.2950
    outer loop
        vertex -3.6720 0.0000 8.8680
        vertex -3.6720 -0.1000 8.8680
        vertex 0.0000 -0.1000 9.6000
    endloop
endfacet
facet normal 0.4575 0.0000 2.2950
    outer loop
        vertex 3.6720 -0.1000 8.8680
        vertex 3.6720 0.0000 8.8680
        vertex 0.0000 0.0000 9.6000
    endloop
endfacet
facet normal 0.4575 0.0000 2.2950
    outer loop
        vertex 0.0000 0.0000 9.6000
        vertex 0.0000 -0.1000 9.6000
        vertex 3.6720 -0.1000 8.8680
    endloop
endfacet
facet normal 1.3000 0.0000 1.9475
    outer loop
        vertex 6.7880 -0.1000 6.7880
        vertex 6.7880 0.0000 6.7880
        vertex 3.6720 0.0000 8.8680
    endloop
endfacet
facet normal 1.3000 0.0000 1.9475
    outer loop
        vertex 3.6720 0.0000 8.8680
        vertex 3.6720 -0.1000 8.8680
        vertex 6.7880 -0.1000 6.7880
    endloop
endfacet
endsolid GiantLegoRocks
