solid GiantLegoRocks
facet normal -284.5873 -62.9954 91.9101
    outer loop
        vertex 38.6248 -44.7324 -108.3246
        vertex 40.9727 -44.7313 -101.0537
        vertex 40.0708 -38.4685 -99.5540
    endloop
endfacet
facet normal -327.4548 -72.4843 105.7545
    outer loop
        vertex 40.0708 -38.4685 -99.5540
        vertex 37.3692 -38.4698 -107.9200
        vertex 38.6248 -44.7324 -108.3246
    endloop
endfacet
facet normal -290.2530 -56.8573 62.8681
    outer loop
        vertex 40.9727 -44.7313 -101.0538
        vertex 42.5995 -44.8750 -93.6729
        vertex 41.4498 -38.5903 -93.2971
    endloop
endfacet
facet normal -246.0623 -48.2008 53.2965
    outer loop
        vertex 41.4498 -38.5903 -93.2971
        vertex 40.0707 -38.4685 -99.5543
        vertex 40.9727 -44.7313 -101.0538
    endloop
endfacet
facet normal 0.8925 -4.6556 -0.2879
    outer loop
        vertex 40.9727 -44.7313 -101.0538
        vertex 41.0679 -44.7114 -101.0794
        vertex 42.6955 -44.8562 -93.6937
    endloop
endfacet
facet normal 0.8488 -4.6394 -0.2774
    outer loop
        vertex 42.6955 -44.8562 -93.6937
        vertex 42.5995 -44.8750 -93.6729
        vertex 40.9727 -44.7313 -101.0538
    endloop
endfacet
facet normal 0.9023 -4.7024 -0.2907
    outer loop
        vertex 41.0679 -44.7114 -101.0794
        vertex 40.9727 -44.7313 -101.0537
        vertex 38.6248 -44.7324 -108.3246
    endloop
endfacet
facet normal 0.9373 -4.6757 -0.3026
    outer loop
        vertex 38.6248 -44.7324 -108.3246
        vertex 38.7179 -44.7117 -108.3547
        vertex 41.0679 -44.7114 -101.0794
    endloop
endfacet
facet normal -1.2292 -0.0006 -3.8064
    outer loop
        vertex 37.4623 -38.4492 -107.9501
        vertex 38.7179 -44.7117 -108.3547
        vertex 38.6248 -44.7324 -108.3246
    endloop
endfacet
facet normal -1.2292 -0.0006 -3.8064
    outer loop
        vertex 38.6248 -44.7324 -108.3246
        vertex 37.3692 -38.4698 -107.9200
        vertex 37.4623 -38.4492 -107.9501
    endloop
endfacet
facet normal -1.0326 5.3764 0.3332
    outer loop
        vertex 40.0708 -38.4685 -99.5540
        vertex 40.1653 -38.4488 -99.5796
        vertex 37.4623 -38.4492 -107.9501
    endloop
endfacet
facet normal -1.0780 5.3766 0.3473
    outer loop
        vertex 37.4623 -38.4492 -107.9501
        vertex 37.3692 -38.4698 -107.9200
        vertex 40.0708 -38.4685 -99.5540
    endloop
endfacet
facet normal -0.7199 3.9361 0.2359
    outer loop
        vertex 41.4498 -38.5903 -93.2971
        vertex 41.5458 -38.5715 -93.3179
        vertex 40.1653 -38.4488 -99.5796
    endloop
endfacet
facet normal -0.7504 3.9175 0.2417
    outer loop
        vertex 40.1653 -38.4488 -99.5796
        vertex 40.0707 -38.4685 -99.5543
        vertex 41.4498 -38.5903 -93.2971
    endloop
endfacet
facet normal 0.8609 -0.0761 3.9056
    outer loop
        vertex 42.6955 -44.8562 -93.6937
        vertex 41.5458 -38.5715 -93.3179
        vertex 41.4498 -38.5903 -93.2971
    endloop
endfacet
facet normal 0.8609 -0.0761 3.9055
    outer loop
        vertex 41.4498 -38.5903 -93.2971
        vertex 42.5995 -44.8750 -93.6729
        vertex 42.6955 -44.8562 -93.6937
    endloop
endfacet
facet normal 3.4064 0.7540 -1.1001
    outer loop
        vertex 38.7360 -39.8969 -104.9985
        vertex 38.9597 -39.8968 -104.3057
        vertex 39.1174 -40.6836 -104.3566
    endloop
endfacet
facet normal 3.4064 0.7540 -1.1001
    outer loop
        vertex 39.1174 -40.6836 -104.3566
        vertex 38.8937 -40.6837 -105.0493
        vertex 38.7360 -39.8969 -104.9985
    endloop
endfacet
facet normal 1.4683 0.3250 -0.4742
    outer loop
        vertex 39.2320 -41.2550 -104.3935
        vertex 39.1174 -40.6836 -104.3566
        vertex 39.2502 -40.6835 -103.9455
    endloop
endfacet
facet normal 1.4683 0.3250 -0.4742
    outer loop
        vertex 39.2502 -40.6835 -103.9455
        vertex 39.3648 -41.2550 -103.9824
        vertex 39.2320 -41.2550 -104.3935
    endloop
endfacet
facet normal 5.6756 1.2563 -1.8330
    outer loop
        vertex 38.7023 -41.2435 -106.0257
        vertex 39.3208 -42.7895 -105.1701
        vertex 39.3833 -43.4197 -105.4088
    endloop
endfacet
facet normal 7.7371 1.7126 -2.4988
    outer loop
        vertex 39.3833 -43.4197 -105.4088
        vertex 38.5407 -41.3141 -106.5746
        vertex 38.7023 -41.2435 -106.0257
    endloop
endfacet
facet normal 3.4481 0.7633 -1.1136
    outer loop
        vertex 39.6660 -43.4195 -104.5333
        vertex 39.3833 -43.4197 -105.4088
        vertex 39.3208 -42.7895 -105.1701
    endloop
endfacet
facet normal 9.1659 2.0289 -2.9602
    outer loop
        vertex 39.3208 -42.7895 -105.1701
        vertex 39.2320 -41.2550 -104.3935
        vertex 39.6660 -43.4195 -104.5333
    endloop
endfacet
facet normal 2.1438 0.4745 -0.6924
    outer loop
        vertex 38.5407 -41.3141 -106.5746
        vertex 38.4143 -40.6839 -106.5338
        vertex 38.7023 -41.2435 -106.0257
    endloop
endfacet
facet normal 3.3423 0.7398 -1.0794
    outer loop
        vertex 39.0109 -41.2434 -105.0703
        vertex 38.7023 -41.2435 -106.0257
        vertex 38.4143 -40.6839 -106.5338
    endloop
endfacet
facet normal 5.1931 1.1495 -1.6772
    outer loop
        vertex 38.4143 -40.6839 -106.5338
        vertex 38.8937 -40.6837 -105.0493
        vertex 39.0109 -41.2434 -105.0703
    endloop
endfacet
facet normal 6.5471 1.4492 -2.1144
    outer loop
        vertex 39.3208 -42.7895 -105.1701
        vertex 39.0109 -41.2434 -105.0703
        vertex 39.2320 -41.2550 -104.3935
    endloop
endfacet
facet normal 2.4743 0.5477 -0.7991
    outer loop
        vertex 38.8937 -40.6837 -105.0493
        vertex 39.1174 -40.6836 -104.3566
        vertex 39.2320 -41.2550 -104.3935
    endloop
endfacet
facet normal 2.3691 0.5244 -0.7651
    outer loop
        vertex 39.2320 -41.2550 -104.3935
        vertex 39.0109 -41.2434 -105.0703
        vertex 38.8937 -40.6837 -105.0493
    endloop
endfacet
facet normal 1.8161 0.4020 -0.5865
    outer loop
        vertex 39.9089 -40.1430 -101.5354
        vertex 39.8227 -40.5345 -102.0707
        vertex 39.7175 -39.9239 -101.9780
    endloop
endfacet
facet normal 0.1032 0.0228 -0.0333
    outer loop
        vertex 39.7175 -39.9239 -101.9780
        vertex 39.8139 -40.0064 -101.7359
        vertex 39.9089 -40.1430 -101.5354
    endloop
endfacet
facet normal 1.8199 0.4028 -0.5877
    outer loop
        vertex 40.4115 -43.3918 -102.2058
        vertex 40.2716 -42.7734 -102.2153
        vertex 40.5130 -43.1682 -101.7384
    endloop
endfacet
facet normal 0.1018 0.0225 -0.0329
    outer loop
        vertex 40.5130 -43.1682 -101.7384
        vertex 40.4742 -43.3057 -101.9528
        vertex 40.4115 -43.3918 -102.2058
    endloop
endfacet
facet normal 1.0239 0.2266 -0.3307
    outer loop
        vertex 40.5299 -42.9768 -101.5547
        vertex 40.5130 -43.1682 -101.7384
        vertex 40.2716 -42.7734 -102.2153
    endloop
endfacet
facet normal 1.1099 0.2457 -0.3584
    outer loop
        vertex 40.2716 -42.7734 -102.2153
        vertex 40.2800 -42.5581 -102.0416
        vertex 40.5299 -42.9768 -101.5547
    endloop
endfacet
facet normal 3.3203 0.7350 -1.0723
    outer loop
        vertex 39.7637 -42.4291 -103.5520
        vertex 39.5870 -41.6581 -103.5707
        vertex 39.8094 -41.6580 -102.8817
    endloop
endfacet
facet normal 2.2261 0.4928 -0.7190
    outer loop
        vertex 39.8094 -41.6580 -102.8817
        vertex 39.9268 -42.1942 -102.8859
        vertex 39.7637 -42.4291 -103.5520
    endloop
endfacet
facet normal 2.2382 0.4954 -0.7228
    outer loop
        vertex 39.5870 -41.6581 -103.5707
        vertex 39.4950 -41.1257 -103.4906
        vertex 39.7102 -41.1139 -102.8161
    endloop
endfacet
facet normal 2.3427 0.5186 -0.7566
    outer loop
        vertex 39.7102 -41.1139 -102.8161
        vertex 39.8094 -41.6580 -102.8817
        vertex 39.5870 -41.6581 -103.5707
    endloop
endfacet
facet normal 1.0202 0.2258 -0.3295
    outer loop
        vertex 40.1216 -42.7734 -102.6797
        vertex 40.0394 -43.1728 -103.2080
        vertex 39.9469 -42.9810 -103.3630
    endloop
endfacet
facet normal 1.1037 0.2443 -0.3565
    outer loop
        vertex 39.9469 -42.9810 -103.3630
        vertex 40.0280 -42.5582 -102.8219
        vertex 40.1216 -42.7734 -102.6797
    endloop
endfacet
facet normal 1.1339 0.2510 -0.3662
    outer loop
        vertex 40.0280 -42.5582 -102.8219
        vertex 39.9469 -42.9810 -103.3630
        vertex 39.8556 -42.7344 -103.4765
    endloop
endfacet
facet normal 1.5599 0.3453 -0.5038
    outer loop
        vertex 39.8556 -42.7344 -103.4765
        vertex 39.9268 -42.1942 -102.8859
        vertex 40.0280 -42.5582 -102.8219
    endloop
endfacet
facet normal 1.0211 0.2260 -0.3298
    outer loop
        vertex 39.8227 -40.5345 -102.0707
        vertex 39.9089 -40.1430 -101.5354
        vertex 40.0015 -40.3348 -101.3803
    endloop
endfacet
facet normal 1.1111 0.2459 -0.3588
    outer loop
        vertex 40.0015 -40.3348 -101.3803
        vertex 39.9175 -40.7498 -101.9247
        vertex 39.8227 -40.5345 -102.0707
    endloop
endfacet
facet normal 1.3817 0.3059 -0.4462
    outer loop
        vertex 39.8556 -42.7344 -103.4765
        vertex 39.7637 -42.4291 -103.5520
        vertex 39.9268 -42.1942 -102.8859
    endloop
endfacet
facet normal 0.0920 0.0204 -0.0297
    outer loop
        vertex 40.4923 -42.4210 -101.2904
        vertex 40.5215 -42.7263 -101.4091
        vertex 40.5299 -42.9768 -101.5547
    endloop
endfacet
facet normal 2.3829 0.5275 -0.7696
    outer loop
        vertex 40.5299 -42.9768 -101.5547
        vertex 40.2800 -42.5581 -102.0416
        vertex 40.4923 -42.4210 -101.2904
    endloop
endfacet
facet normal 1.0797 0.2390 -0.3487
    outer loop
        vertex 39.6727 -40.5346 -102.5351
        vertex 39.6647 -40.7460 -102.7048
        vertex 39.4164 -40.3350 -103.1921
    endloop
endfacet
facet normal 1.0120 0.2240 -0.3268
    outer loop
        vertex 39.4164 -40.3350 -103.1921
        vertex 39.4320 -40.1432 -103.0123
        vertex 39.6727 -40.5346 -102.5351
    endloop
endfacet
facet normal 1.1005 0.2436 -0.3554
    outer loop
        vertex 39.4950 -41.1257 -103.4906
        vertex 39.4537 -40.8831 -103.4521
        vertex 39.6647 -40.7460 -102.7048
    endloop
endfacet
facet normal 1.5429 0.3415 -0.4983
    outer loop
        vertex 39.6647 -40.7460 -102.7048
        vertex 39.7102 -41.1139 -102.8161
        vertex 39.4950 -41.1257 -103.4906
    endloop
endfacet
facet normal 0.0971 0.0215 -0.0314
    outer loop
        vertex 39.4537 -40.8831 -103.4521
        vertex 39.4240 -40.5817 -103.3375
        vertex 39.4164 -40.3350 -103.1921
    endloop
endfacet
facet normal 2.3368 0.5173 -0.7547
    outer loop
        vertex 39.4164 -40.3350 -103.1921
        vertex 39.6647 -40.7460 -102.7048
        vertex 39.4537 -40.8831 -103.4521
    endloop
endfacet
facet normal 1.3504 0.2989 -0.4361
    outer loop
        vertex 40.3598 -41.6499 -101.1721
        vertex 40.0207 -41.1177 -101.8572
        vertex 39.9175 -40.7498 -101.9247
    endloop
endfacet
facet normal 3.5218 0.7796 -1.1374
    outer loop
        vertex 39.9175 -40.7498 -101.9247
        vertex 40.1831 -40.8788 -101.1908
        vertex 40.3598 -41.6499 -101.1721
    endloop
endfacet
facet normal 0.0939 0.0208 -0.0303
    outer loop
        vertex 40.0015 -40.3348 -101.3803
        vertex 40.0927 -40.5813 -101.2668
        vertex 40.1831 -40.8788 -101.1908
    endloop
endfacet
facet normal 2.3426 0.5186 -0.7566
    outer loop
        vertex 40.1831 -40.8788 -101.1908
        vertex 39.9175 -40.7498 -101.9247
        vertex 40.0015 -40.3348 -101.3803
    endloop
endfacet
facet normal 1.8186 0.4026 -0.5873
    outer loop
        vertex 40.0394 -43.1728 -103.2080
        vertex 40.1216 -42.7734 -102.6797
        vertex 40.2296 -43.3919 -102.7691
    endloop
endfacet
facet normal 0.1010 0.0224 -0.0326
    outer loop
        vertex 40.2296 -43.3919 -102.7691
        vertex 40.1345 -43.3097 -103.0075
        vertex 40.0394 -43.1728 -103.2080
    endloop
endfacet
facet normal 1.5239 0.3373 -0.4921
    outer loop
        vertex 40.2800 -42.5581 -102.0416
        vertex 40.2365 -42.1940 -101.9267
        vertex 40.4510 -42.1783 -101.2519
    endloop
endfacet
facet normal 1.1062 0.2449 -0.3573
    outer loop
        vertex 40.4510 -42.1783 -101.2519
        vertex 40.4923 -42.4210 -101.2904
        vertex 40.2800 -42.5581 -102.0416
    endloop
endfacet
facet normal 0.0965 0.0214 -0.0312
    outer loop
        vertex 40.4115 -43.3918 -102.2058
        vertex 40.3273 -43.4192 -102.4854
        vertex 40.2296 -43.3919 -102.7691
    endloop
endfacet
facet normal 1.9294 0.4271 -0.6231
    outer loop
        vertex 40.2296 -43.3919 -102.7691
        vertex 40.2119 -42.8439 -102.4483
        vertex 40.4115 -43.3918 -102.2058
    endloop
endfacet
facet normal 2.3274 0.5152 -0.7516
    outer loop
        vertex 40.1389 -41.6578 -101.8616
        vertex 40.0207 -41.1177 -101.8572
        vertex 40.3598 -41.6499 -101.1721
    endloop
endfacet
facet normal 2.3075 0.5108 -0.7452
    outer loop
        vertex 40.2365 -42.1940 -101.9267
        vertex 40.1389 -41.6578 -101.8616
        vertex 40.3598 -41.6499 -101.1721
    endloop
endfacet
facet normal 2.2206 0.4915 -0.7171
    outer loop
        vertex 40.3598 -41.6499 -101.1721
        vertex 40.4510 -42.1783 -101.2519
        vertex 40.2365 -42.1940 -101.9267
    endloop
endfacet
facet normal 0.9340 0.2067 -0.3016
    outer loop
        vertex 40.2296 -43.3919 -102.7691
        vertex 40.1216 -42.7734 -102.6797
        vertex 40.2119 -42.8439 -102.4483
    endloop
endfacet
facet normal 0.3078 0.0681 -0.0994
    outer loop
        vertex 39.4320 -40.1432 -103.0123
        vertex 39.4722 -40.0066 -102.7941
        vertex 39.6210 -39.8965 -102.2579
    endloop
endfacet
facet normal 2.5808 0.5713 -0.8335
    outer loop
        vertex 39.6210 -39.8965 -102.2579
        vertex 39.6727 -40.5346 -102.5351
        vertex 39.4320 -40.1432 -103.0123
    endloop
endfacet
facet normal 0.9045 0.2002 -0.2921
    outer loop
        vertex 40.4115 -43.3918 -102.2058
        vertex 40.2119 -42.8439 -102.4483
        vertex 40.2716 -42.7734 -102.2153
    endloop
endfacet
facet normal 1.1636 0.2576 -0.3758
    outer loop
        vertex 39.6727 -40.5346 -102.5351
        vertex 39.6210 -39.8965 -102.2579
        vertex 39.7175 -39.9239 -101.9780
    endloop
endfacet
facet normal 0.6727 0.1489 -0.2172
    outer loop
        vertex 39.7175 -39.9239 -101.9780
        vertex 39.7348 -40.4641 -102.2945
        vertex 39.6727 -40.5346 -102.5351
    endloop
endfacet
facet normal 0.8950 0.1981 -0.2891
    outer loop
        vertex 39.8227 -40.5345 -102.0707
        vertex 39.7348 -40.4641 -102.2945
        vertex 39.7175 -39.9239 -101.9780
    endloop
endfacet
facet normal 1.8722 0.3667 -0.4055
    outer loop
        vertex 41.3956 -40.2316 -95.5130
        vertex 41.3521 -40.6142 -96.0598
        vertex 41.2520 -40.0025 -95.9685
    endloop
endfacet
facet normal 0.1064 0.0208 -0.0230
    outer loop
        vertex 41.2520 -40.0025 -95.9685
        vertex 41.3231 -40.0903 -95.7196
        vertex 41.3956 -40.2316 -95.5130
    endloop
endfacet
facet normal 1.8761 0.3675 -0.4063
    outer loop
        vertex 41.8878 -43.4825 -96.1805
        vertex 41.7631 -42.8609 -96.1942
        vertex 41.9492 -43.2673 -95.7023
    endloop
endfacet
facet normal 0.1050 0.0206 -0.0227
    outer loop
        vertex 41.9492 -43.2673 -95.7023
        vertex 41.9280 -43.4011 -95.9215
        vertex 41.8878 -43.4825 -96.1805
    endloop
endfacet
facet normal 1.0554 0.2067 -0.2286
    outer loop
        vertex 41.9528 -43.0787 -95.5151
        vertex 41.9492 -43.2673 -95.7023
        vertex 41.7631 -42.8609 -96.1942
    endloop
endfacet
facet normal 1.1441 0.2241 -0.2478
    outer loop
        vertex 41.7631 -42.8609 -96.1942
        vertex 41.7597 -42.6481 -96.0172
        vertex 41.9528 -43.0787 -95.5151
    endloop
endfacet
facet normal 3.4227 0.6705 -0.7413
    outer loop
        vertex 41.3925 -42.4881 -97.5678
        vertex 41.2355 -41.7130 -97.5918
        vertex 41.3913 -41.7267 -96.8849
    endloop
endfacet
facet normal 2.2948 0.4495 -0.4970
    outer loop
        vertex 41.3913 -41.7267 -96.8849
        vertex 41.4966 -42.2655 -96.8858
        vertex 41.3925 -42.4881 -97.5678
    endloop
endfacet
facet normal 2.3072 0.4520 -0.4997
    outer loop
        vertex 41.2355 -41.7130 -97.5918
        vertex 41.1481 -41.1797 -97.5130
        vertex 41.2983 -41.1813 -96.8210
    endloop
endfacet
facet normal 2.4150 0.4731 -0.5231
    outer loop
        vertex 41.2983 -41.1813 -96.8210
        vertex 41.3913 -41.7267 -96.8849
        vertex 41.2355 -41.7130 -97.5918
    endloop
endfacet
facet normal 1.0517 0.2060 -0.2278
    outer loop
        vertex 41.6581 -42.8517 -96.6706
        vertex 41.6177 -43.2423 -97.2101
        vertex 41.5446 -43.0465 -97.3704
    endloop
endfacet
facet normal 1.1378 0.2229 -0.2464
    outer loop
        vertex 41.5446 -43.0465 -97.3704
        vertex 41.5833 -42.6325 -96.8178
        vertex 41.6581 -42.8517 -96.6706
    endloop
endfacet
facet normal 1.1689 0.2290 -0.2532
    outer loop
        vertex 41.5833 -42.6325 -96.8178
        vertex 41.5446 -43.0465 -97.3704
        vertex 41.4701 -42.7964 -97.4884
    endloop
endfacet
facet normal 1.6080 0.3150 -0.3483
    outer loop
        vertex 41.4701 -42.7964 -97.4884
        vertex 41.4966 -42.2655 -96.8858
        vertex 41.5833 -42.6325 -96.8178
    endloop
endfacet
facet normal 1.0526 0.2062 -0.2280
    outer loop
        vertex 41.3521 -40.6142 -96.0598
        vertex 41.3956 -40.2316 -95.5130
        vertex 41.4687 -40.4274 -95.3526
    endloop
endfacet
facet normal 1.1454 0.2243 -0.2481
    outer loop
        vertex 41.4687 -40.4274 -95.3526
        vertex 41.4277 -40.8334 -95.9087
        vertex 41.3521 -40.6142 -96.0598
    endloop
endfacet
facet normal 1.4243 0.2790 -0.3085
    outer loop
        vertex 41.4701 -42.7964 -97.4884
        vertex 41.3925 -42.4881 -97.5678
        vertex 41.4966 -42.2655 -96.8858
    endloop
endfacet
facet normal 0.0948 0.0186 -0.0205
    outer loop
        vertex 41.9024 -42.5255 -95.2474
        vertex 41.9361 -42.8299 -95.3673
        vertex 41.9528 -43.0787 -95.5151
    endloop
endfacet
facet normal 2.4564 0.4812 -0.5321
    outer loop
        vertex 41.9528 -43.0787 -95.5151
        vertex 41.7597 -42.6481 -96.0172
        vertex 41.9024 -42.5255 -95.2474
    endloop
endfacet
facet normal 1.1130 0.2180 -0.2411
    outer loop
        vertex 41.2470 -40.6049 -96.5363
        vertex 41.2506 -40.8139 -96.7091
        vertex 41.0589 -40.3912 -97.2117
    endloop
endfacet
facet normal 1.0432 0.2044 -0.2260
    outer loop
        vertex 41.0589 -40.3912 -97.2117
        vertex 41.0616 -40.2021 -97.0283
        vertex 41.2470 -40.6049 -96.5363
    endloop
endfacet
facet normal 1.1344 0.2222 -0.2457
    outer loop
        vertex 41.1481 -41.1797 -97.5130
        vertex 41.1087 -40.9366 -97.4750
        vertex 41.2506 -40.8139 -96.7091
    endloop
endfacet
facet normal 1.5904 0.3116 -0.3445
    outer loop
        vertex 41.2506 -40.8139 -96.7091
        vertex 41.2983 -41.1813 -96.8210
        vertex 41.1481 -41.1797 -97.5130
    endloop
endfacet
facet normal 0.1001 0.0196 -0.0217
    outer loop
        vertex 41.1087 -40.9366 -97.4750
        vertex 41.0749 -40.6360 -97.3593
        vertex 41.0589 -40.3912 -97.2117
    endloop
endfacet
facet normal 2.4089 0.4719 -0.5218
    outer loop
        vertex 41.0589 -40.3912 -97.2117
        vertex 41.2506 -40.8139 -96.7091
        vertex 41.1087 -40.9366 -97.4750
    endloop
endfacet
facet normal 1.3921 0.2727 -0.3015
    outer loop
        vertex 41.7764 -41.7530 -95.1308
        vertex 41.5160 -41.2044 -95.8370
        vertex 41.4277 -40.8334 -95.9087
    endloop
endfacet
facet normal 3.6305 0.7112 -0.7864
    outer loop
        vertex 41.4277 -40.8334 -95.9087
        vertex 41.6193 -40.9778 -95.1549
        vertex 41.7764 -41.7530 -95.1308
    endloop
endfacet
facet normal 0.0969 0.0190 -0.0210
    outer loop
        vertex 41.4687 -40.4274 -95.3526
        vertex 41.5432 -40.6774 -95.2347
        vertex 41.6193 -40.9778 -95.1549
    endloop
endfacet
facet normal 2.4149 0.4730 -0.5231
    outer loop
        vertex 41.6193 -40.9778 -95.1549
        vertex 41.4277 -40.8334 -95.9087
        vertex 41.4687 -40.4274 -95.3526
    endloop
endfacet
facet normal 1.8747 0.3672 -0.4061
    outer loop
        vertex 41.6177 -43.2423 -97.2101
        vertex 41.6581 -42.8517 -96.6706
        vertex 41.7604 -43.4713 -96.7585
    endloop
endfacet
facet normal 0.1041 0.0204 -0.0226
    outer loop
        vertex 41.7604 -43.4713 -96.7585
        vertex 41.6902 -43.3839 -97.0035
        vertex 41.6177 -43.2423 -97.2101
    endloop
endfacet
facet normal 1.5709 0.3077 -0.3402
    outer loop
        vertex 41.7597 -42.6481 -96.0172
        vertex 41.7136 -42.2846 -95.9016
        vertex 41.8630 -42.2824 -95.2094
    endloop
endfacet
facet normal 1.1403 0.2234 -0.2470
    outer loop
        vertex 41.8630 -42.2824 -95.2094
        vertex 41.9024 -42.5255 -95.2474
        vertex 41.7597 -42.6481 -96.0172
    endloop
endfacet
facet normal 0.0994 0.0195 -0.0215
    outer loop
        vertex 41.8878 -43.4825 -96.1805
        vertex 41.8300 -43.5045 -96.4672
        vertex 41.7604 -43.4713 -96.7585
    endloop
endfacet
facet normal 1.9889 0.3896 -0.4308
    outer loop
        vertex 41.7604 -43.4713 -96.7585
        vertex 41.7244 -42.9271 -96.4327
        vertex 41.8878 -43.4825 -96.1805
    endloop
endfacet
facet normal 2.3992 0.4700 -0.5197
    outer loop
        vertex 41.6220 -41.7471 -95.8382
        vertex 41.5160 -41.2044 -95.8370
        vertex 41.7764 -41.7530 -95.1308
    endloop
endfacet
facet normal 2.3788 0.4660 -0.5152
    outer loop
        vertex 41.7136 -42.2846 -95.9016
        vertex 41.6220 -41.7471 -95.8382
        vertex 41.7764 -41.7530 -95.1308
    endloop
endfacet
facet normal 2.2891 0.4484 -0.4958
    outer loop
        vertex 41.7764 -41.7530 -95.1308
        vertex 41.8630 -42.2824 -95.2094
        vertex 41.7136 -42.2846 -95.9016
    endloop
endfacet
facet normal 0.9628 0.1886 -0.2085
    outer loop
        vertex 41.7604 -43.4713 -96.7585
        vertex 41.6581 -42.8517 -96.6706
        vertex 41.7244 -42.9271 -96.4327
    endloop
endfacet
facet normal 0.3173 0.0622 -0.0687
    outer loop
        vertex 41.0616 -40.2021 -97.0283
        vertex 41.0838 -40.0692 -96.8053
        vertex 41.1833 -39.9693 -96.2559
    endloop
endfacet
facet normal 2.6605 0.5211 -0.5763
    outer loop
        vertex 41.1833 -39.9693 -96.2559
        vertex 41.2470 -40.6049 -96.5363
        vertex 41.0616 -40.2021 -97.0283
    endloop
endfacet
facet normal 0.9325 0.1827 -0.2020
    outer loop
        vertex 41.8878 -43.4825 -96.1805
        vertex 41.7244 -42.9271 -96.4327
        vertex 41.7631 -42.8609 -96.1942
    endloop
endfacet
facet normal 1.1995 0.2350 -0.2598
    outer loop
        vertex 41.2470 -40.6049 -96.5363
        vertex 41.1833 -39.9693 -96.2559
        vertex 41.2520 -40.0025 -95.9685
    endloop
endfacet
facet normal 0.6935 0.1358 -0.1502
    outer loop
        vertex 41.2520 -40.0025 -95.9685
        vertex 41.2875 -40.5389 -96.2899
        vertex 41.2470 -40.6049 -96.5363
    endloop
endfacet
facet normal 0.9227 0.1807 -0.1998
    outer loop
        vertex 41.3521 -40.6142 -96.0598
        vertex 41.2875 -40.5389 -96.2899
        vertex 41.2520 -40.0025 -95.9685
    endloop
endfacet
facet normal 1.7555 0.3888 -0.5664
    outer loop
        vertex 40.3739 -39.8971 -99.9263
        vertex 40.3883 -40.6947 -100.4291
        vertex 40.2682 -40.3347 -100.5543
    endloop
endfacet
facet normal 1.7887 0.3960 -0.5770
    outer loop
        vertex 40.2682 -40.3347 -100.5543
        vertex 40.1631 -39.8963 -100.5792
        vertex 40.3739 -39.8971 -99.9263
    endloop
endfacet
facet normal 1.9567 0.3833 -0.4238
    outer loop
        vertex 40.7704 -41.5134 -99.5584
        vertex 40.8256 -41.1666 -98.9902
        vertex 40.9711 -41.4809 -98.6023
    endloop
endfacet
facet normal 2.6868 0.5263 -0.5819
    outer loop
        vertex 40.9711 -41.4809 -98.6023
        vertex 40.9565 -41.9472 -99.0916
        vertex 40.7704 -41.5134 -99.5584
    endloop
endfacet
facet normal 0.9434 0.1848 -0.2043
    outer loop
        vertex 41.0307 -43.3527 -100.0202
        vertex 40.9648 -43.2425 -100.2248
        vertex 40.9243 -42.6786 -99.9017
    endloop
endfacet
facet normal 0.7879 0.1543 -0.1707
    outer loop
        vertex 40.9243 -42.6786 -99.9017
        vertex 40.9852 -42.8077 -99.7374
        vertex 41.0307 -43.3527 -100.0202
    endloop
endfacet
facet normal 1.6247 0.3183 -0.3519
    outer loop
        vertex 40.9711 -41.4809 -98.6023
        vertex 41.0757 -41.7607 -98.3727
        vertex 41.0198 -42.1499 -98.9825
    endloop
endfacet
facet normal 0.9377 0.1837 -0.2031
    outer loop
        vertex 41.0198 -42.1499 -98.9825
        vertex 40.9565 -41.9472 -99.0916
        vertex 40.9711 -41.4809 -98.6023
    endloop
endfacet
facet normal 0.8691 0.1703 -0.1882
    outer loop
        vertex 41.1040 -42.7254 -99.1147
        vertex 41.0963 -42.5586 -98.9991
        vertex 41.2888 -42.8190 -98.3461
    endloop
endfacet
facet normal 1.8106 0.3547 -0.3922
    outer loop
        vertex 41.2888 -42.8190 -98.3461
        vertex 41.2994 -43.1639 -98.6091
        vertex 41.1040 -42.7254 -99.1147
    endloop
endfacet
facet normal 2.3023 0.4507 -0.4879
    outer loop
        vertex 40.6945 -41.3715 -99.7806
        vertex 40.5379 -41.0217 -100.1963
        vertex 40.5288 -40.5028 -99.7599
    endloop
endfacet
facet normal 0.8321 0.1630 -0.1802
    outer loop
        vertex 40.5288 -40.5028 -99.7599
        vertex 40.5993 -40.6984 -99.6113
        vertex 40.6945 -41.3715 -99.7806
    endloop
endfacet
facet normal 1.3598 0.2664 -0.2945
    outer loop
        vertex 41.0198 -42.1499 -98.9825
        vertex 41.0757 -41.7607 -98.3727
        vertex 41.1558 -42.0460 -98.2608
    endloop
endfacet
facet normal 1.5248 0.2987 -0.3303
    outer loop
        vertex 41.1558 -42.0460 -98.2608
        vertex 41.2264 -42.3807 -98.2378
        vertex 41.0198 -42.1499 -98.9825
    endloop
endfacet
facet normal 0.8917 0.1747 -0.1931
    outer loop
        vertex 41.0660 -42.3511 -98.9515
        vertex 41.0198 -42.1499 -98.9825
        vertex 41.2264 -42.3807 -98.2378
    endloop
endfacet
facet normal 1.9755 0.3870 -0.4279
    outer loop
        vertex 41.2264 -42.3807 -98.2378
        vertex 41.2888 -42.8190 -98.3461
        vertex 41.0660 -42.3511 -98.9515
    endloop
endfacet
facet normal 0.9244 0.1811 -0.2002
    outer loop
        vertex 41.2888 -42.8190 -98.3461
        vertex 41.0963 -42.5586 -98.9991
        vertex 41.0660 -42.3511 -98.9515
    endloop
endfacet
facet normal 1.9216 0.3764 -0.4162
    outer loop
        vertex 41.0447 -42.8554 -99.5057
        vertex 41.1620 -43.4455 -99.4979
        vertex 41.0307 -43.3527 -100.0202
    endloop
endfacet
facet normal 0.8739 0.1712 -0.1893
    outer loop
        vertex 41.0307 -43.3527 -100.0202
        vertex 40.9852 -42.8077 -99.7374
        vertex 41.0447 -42.8554 -99.5057
    endloop
endfacet
facet normal 1.0850 0.2125 -0.2350
    outer loop
        vertex 40.7704 -41.5134 -99.5584
        vertex 40.6945 -41.3715 -99.7806
        vertex 40.5993 -40.6984 -99.6113
    endloop
endfacet
facet normal 1.7006 0.3331 -0.3683
    outer loop
        vertex 40.5993 -40.6984 -99.6113
        vertex 40.7284 -40.9687 -99.2599
        vertex 40.7704 -41.5134 -99.5584
    endloop
endfacet
facet normal 6.0000 1.1778 -1.2995
    outer loop
        vertex 40.3739 -39.8971 -99.9263
        vertex 40.8800 -40.5338 -98.1664
        vertex 40.5288 -40.5028 -99.7599
    endloop
endfacet
facet normal 2.1919 0.4321 -0.4680
    outer loop
        vertex 40.3739 -39.8971 -99.9263
        vertex 40.5288 -40.5028 -99.7599
        vertex 40.5379 -41.0217 -100.1963
    endloop
endfacet
facet normal 6.7534 1.3229 -1.4637
    outer loop
        vertex 40.3739 -39.8971 -99.9263
        vertex 40.7701 -39.9328 -98.1305
        vertex 40.8800 -40.5338 -98.1664
    endloop
endfacet
facet normal 1.2874 0.2522 -0.2788
    outer loop
        vertex 40.7704 -41.5134 -99.5584
        vertex 40.7284 -40.9687 -99.2599
        vertex 40.8256 -41.1666 -98.9902
    endloop
endfacet
facet normal 0.6562 0.1470 -0.2111
    outer loop
        vertex 40.7789 -42.6994 -100.5978
        vertex 40.6371 -42.1625 -100.6647
        vertex 40.7003 -42.1634 -100.4690
    endloop
endfacet
facet normal 1.5116 0.3006 -0.3281
    outer loop
        vertex 40.7789 -42.6994 -100.5978
        vertex 40.7003 -42.1634 -100.4690
        vertex 40.7996 -42.1730 -100.0201
    endloop
endfacet
facet normal 1.1370 0.2229 -0.2439
    outer loop
        vertex 40.7996 -42.1730 -100.0201
        vertex 40.8621 -42.4683 -99.9986
        vertex 40.7789 -42.6994 -100.5978
    endloop
endfacet
facet normal 0.9448 0.1800 -0.2027
    outer loop
        vertex 40.9243 -42.6786 -99.9017
        vertex 40.8362 -42.9143 -100.5219
        vertex 40.7789 -42.6994 -100.5978
    endloop
endfacet
facet normal 0.9275 0.1825 -0.1992
    outer loop
        vertex 40.7789 -42.6994 -100.5978
        vertex 40.8621 -42.4683 -99.9986
        vertex 40.9243 -42.6786 -99.9017
    endloop
endfacet
facet normal 0.8225 0.1611 -0.1782
    outer loop
        vertex 41.0447 -42.8554 -99.5057
        vertex 41.0865 -42.8243 -99.2848
        vertex 41.2568 -43.3804 -99.0014
    endloop
endfacet
facet normal 1.8343 0.3593 -0.3973
    outer loop
        vertex 41.2568 -43.3804 -99.0014
        vertex 41.1620 -43.4455 -99.4979
        vertex 41.0447 -42.8554 -99.5057
    endloop
endfacet
facet normal 1.7467 0.3422 -0.3783
    outer loop
        vertex 41.2994 -43.1639 -98.6091
        vertex 41.2568 -43.3804 -99.0014
        vertex 41.0865 -42.8243 -99.2848
    endloop
endfacet
facet normal 0.7789 0.1526 -0.1687
    outer loop
        vertex 41.0865 -42.8243 -99.2848
        vertex 41.1040 -42.7254 -99.1147
        vertex 41.2994 -43.1639 -98.6091
    endloop
endfacet
facet normal 1.7099 0.3350 -0.3704
    outer loop
        vertex 40.8362 -42.9143 -100.5219
        vertex 40.9243 -42.6786 -99.9017
        vertex 40.9648 -43.2425 -100.2248
    endloop
endfacet
facet normal 0.0665 0.0130 -0.0144
    outer loop
        vertex 40.9648 -43.2425 -100.2248
        vertex 40.8995 -43.0938 -100.3919
        vertex 40.8362 -42.9143 -100.5219
    endloop
endfacet
facet normal 2.1878 0.4911 -0.7163
    outer loop
        vertex 40.5379 -41.0217 -100.1963
        vertex 40.3883 -40.6947 -100.4291
        vertex 40.3739 -39.8971 -99.9263
    endloop
endfacet
facet normal 2.0509 0.4548 -0.6623
    outer loop
        vertex 41.0679 -44.7114 -101.0794
        vertex 40.2296 -43.3919 -102.7691
        vertex 40.3273 -43.4192 -102.4854
    endloop
endfacet
facet normal 2.4996 0.5542 -0.8073
    outer loop
        vertex 41.0679 -44.7114 -101.0794
        vertex 40.3273 -43.4192 -102.4854
        vertex 40.4115 -43.3918 -102.2058
    endloop
endfacet
facet normal 60.0043 13.2992 -19.3829
    outer loop
        vertex 41.0679 -44.7114 -101.0794
        vertex 38.7179 -44.7117 -108.3547
        vertex 40.2296 -43.3919 -102.7691
    endloop
endfacet
facet normal 4.8340 1.0700 -1.5612
    outer loop
        vertex 40.1345 -43.3097 -103.0075
        vertex 40.2296 -43.3919 -102.7691
        vertex 38.7179 -44.7117 -108.3547
    endloop
endfacet
facet normal 9.7003 2.1473 -3.1328
    outer loop
        vertex 38.7179 -44.7117 -108.3547
        vertex 39.6660 -43.4195 -104.5333
        vertex 40.1345 -43.3097 -103.0075
    endloop
endfacet
facet normal 7.0676 1.5645 -2.2825
    outer loop
        vertex 38.7179 -44.7117 -108.3547
        vertex 39.3833 -43.4197 -105.4088
        vertex 39.6660 -43.4195 -104.5333
    endloop
endfacet
facet normal 48.1821 10.6654 -15.5608
    outer loop
        vertex 38.7179 -44.7117 -108.3547
        vertex 38.5407 -41.3141 -106.5746
        vertex 39.3833 -43.4197 -105.4088
    endloop
endfacet
facet normal 61.0847 13.5215 -19.7278
    outer loop
        vertex 38.5407 -41.3141 -106.5746
        vertex 38.7179 -44.7117 -108.3547
        vertex 37.4623 -38.4492 -107.9501
    endloop
endfacet
facet normal 6.1467 1.3606 -1.9852
    outer loop
        vertex 37.4623 -38.4492 -107.9501
        vertex 38.4143 -40.6839 -106.5338
        vertex 38.5407 -41.3141 -106.5746
    endloop
endfacet
facet normal 20.7362 4.5901 -6.6969
    outer loop
        vertex 38.8937 -40.6837 -105.0493
        vertex 38.4143 -40.6839 -106.5338
        vertex 37.4623 -38.4492 -107.9501
    endloop
endfacet
facet normal 14.9732 3.3144 -4.8358
    outer loop
        vertex 37.4623 -38.4492 -107.9501
        vertex 38.7360 -39.8969 -104.9985
        vertex 38.8937 -40.6837 -105.0493
    endloop
endfacet
facet normal 6.2705 1.3881 -2.0251
    outer loop
        vertex 38.9597 -39.8968 -104.3057
        vertex 38.7360 -39.8969 -104.9985
        vertex 37.4623 -38.4492 -107.9501
    endloop
endfacet
facet normal 11.1775 2.4742 -3.6099
    outer loop
        vertex 38.9597 -39.8968 -104.3057
        vertex 37.4623 -38.4492 -107.9501
        vertex 39.4722 -40.0066 -102.7941
    endloop
endfacet
facet normal 1.4406 0.3189 -0.4653
    outer loop
        vertex 39.4722 -40.0066 -102.7941
        vertex 39.4320 -40.1432 -103.0123
        vertex 38.9597 -39.8968 -104.3057
    endloop
endfacet
facet normal 1.8277 0.4046 -0.5903
    outer loop
        vertex 38.9597 -39.8968 -104.3057
        vertex 39.4320 -40.1432 -103.0123
        vertex 39.4164 -40.3350 -103.1921
    endloop
endfacet
facet normal 4.4886 0.9936 -1.4496
    outer loop
        vertex 39.4164 -40.3350 -103.1921
        vertex 39.2502 -40.6835 -103.9455
        vertex 38.9597 -39.8968 -104.3057
    endloop
endfacet
facet normal 2.0214 0.4474 -0.6528
    outer loop
        vertex 39.2502 -40.6835 -103.9455
        vertex 39.1174 -40.6836 -104.3566
        vertex 38.9597 -39.8968 -104.3057
    endloop
endfacet
facet normal 0.8446 0.1870 -0.2728
    outer loop
        vertex 39.2502 -40.6835 -103.9455
        vertex 39.4164 -40.3350 -103.1921
        vertex 39.4240 -40.5817 -103.3375
    endloop
endfacet
facet normal 1.0723 0.2374 -0.3463
    outer loop
        vertex 39.2502 -40.6835 -103.9455
        vertex 39.4240 -40.5817 -103.3375
        vertex 39.4537 -40.8831 -103.4521
    endloop
endfacet
facet normal 1.8081 0.4002 -0.5840
    outer loop
        vertex 39.4537 -40.8831 -103.4521
        vertex 39.3648 -41.2550 -103.9824
        vertex 39.2502 -40.6835 -103.9455
    endloop
endfacet
facet normal 0.7148 0.1582 -0.2308
    outer loop
        vertex 39.3648 -41.2550 -103.9824
        vertex 39.4537 -40.8831 -103.4521
        vertex 39.4950 -41.1257 -103.4906
    endloop
endfacet
facet normal 1.5714 0.3479 -0.5075
    outer loop
        vertex 39.4950 -41.1257 -103.4906
        vertex 39.5870 -41.6581 -103.5707
        vertex 39.3648 -41.2550 -103.9824
    endloop
endfacet
facet normal 1.9369 0.4287 -0.6256
    outer loop
        vertex 39.3648 -41.2550 -103.9824
        vertex 39.5870 -41.6581 -103.5707
        vertex 39.7637 -42.4291 -103.5520
    endloop
endfacet
facet normal 3.0170 0.6678 -0.9744
    outer loop
        vertex 39.7637 -42.4291 -103.5520
        vertex 39.2320 -41.2550 -104.3935
        vertex 39.3648 -41.2550 -103.9824
    endloop
endfacet
facet normal 12.4100 2.7470 -4.0079
    outer loop
        vertex 39.6660 -43.4195 -104.5333
        vertex 39.2320 -41.2550 -104.3935
        vertex 39.7637 -42.4291 -103.5520
    endloop
endfacet
facet normal 2.3394 0.5179 -0.7555
    outer loop
        vertex 39.7637 -42.4291 -103.5520
        vertex 39.8556 -42.7344 -103.4765
        vertex 39.6660 -43.4195 -104.5333
    endloop
endfacet
facet normal 2.1145 0.4681 -0.6829
    outer loop
        vertex 39.6660 -43.4195 -104.5333
        vertex 39.8556 -42.7344 -103.4765
        vertex 39.9469 -42.9810 -103.3630
    endloop
endfacet
facet normal 1.8277 0.4046 -0.5903
    outer loop
        vertex 39.6660 -43.4195 -104.5333
        vertex 39.9469 -42.9810 -103.3630
        vertex 40.0394 -43.1728 -103.2080
    endloop
endfacet
facet normal 1.4438 0.3196 -0.4663
    outer loop
        vertex 39.6660 -43.4195 -104.5333
        vertex 40.0394 -43.1728 -103.2080
        vertex 40.1345 -43.3097 -103.0075
    endloop
endfacet
facet normal 9.2321 2.0436 -2.9816
    outer loop
        vertex 39.3208 -42.7895 -105.1701
        vertex 38.7023 -41.2435 -106.0257
        vertex 39.0109 -41.2434 -105.0703
    endloop
endfacet
facet normal 2.9907 0.6624 -0.9658
    outer loop
        vertex 39.7175 -39.9239 -101.9780
        vertex 39.6210 -39.8965 -102.2579
        vertex 40.1653 -38.4488 -99.5796
    endloop
endfacet
facet normal 56.9444 11.1553 -12.3363
    outer loop
        vertex 40.1653 -38.4488 -99.5796
        vertex 41.5458 -38.5715 -93.3179
        vertex 40.3739 -39.8971 -99.9263
    endloop
endfacet
facet normal 81.4903 18.0467 -26.3156
    outer loop
        vertex 39.4722 -40.0066 -102.7941
        vertex 37.4623 -38.4492 -107.9501
        vertex 40.1653 -38.4488 -99.5796
    endloop
endfacet
facet normal 3.0093 0.6670 -0.9721
    outer loop
        vertex 40.1653 -38.4488 -99.5796
        vertex 39.6210 -39.8965 -102.2579
        vertex 39.4722 -40.0066 -102.7941
    endloop
endfacet
facet normal 12.4815 2.7651 -4.0311
    outer loop
        vertex 40.1631 -39.8963 -100.5792
        vertex 39.7175 -39.9239 -101.9780
        vertex 40.1653 -38.4488 -99.5796
    endloop
endfacet
facet normal 0.7634 0.1690 -0.2466
    outer loop
        vertex 40.1631 -39.8963 -100.5792
        vertex 39.8139 -40.0064 -101.7359
        vertex 39.7175 -39.9239 -101.9780
    endloop
endfacet
facet normal 1.1253 0.2491 -0.3634
    outer loop
        vertex 39.9089 -40.1430 -101.5354
        vertex 39.8139 -40.0064 -101.7359
        vertex 40.1631 -39.8963 -100.5792
    endloop
endfacet
facet normal 2.6581 0.5884 -0.8585
    outer loop
        vertex 40.1631 -39.8963 -100.5792
        vertex 40.2682 -40.3347 -100.5543
        vertex 39.9089 -40.1430 -101.5354
    endloop
endfacet
facet normal 0.9901 0.2192 -0.3198
    outer loop
        vertex 40.2682 -40.3347 -100.5543
        vertex 40.0015 -40.3348 -101.3803
        vertex 39.9089 -40.1430 -101.5354
    endloop
endfacet
facet normal 1.2730 0.2818 -0.4111
    outer loop
        vertex 40.0927 -40.5813 -101.2668
        vertex 40.0015 -40.3348 -101.3803
        vertex 40.2682 -40.3347 -100.5543
    endloop
endfacet
facet normal 1.7965 0.3977 -0.5802
    outer loop
        vertex 40.2682 -40.3347 -100.5543
        vertex 40.3883 -40.6947 -100.4291
        vertex 40.0927 -40.5813 -101.2668
    endloop
endfacet
facet normal 1.5036 0.3328 -0.4856
    outer loop
        vertex 40.1831 -40.8788 -101.1908
        vertex 40.0927 -40.5813 -101.2668
        vertex 40.3883 -40.6947 -100.4291
    endloop
endfacet
facet normal 1.8243 0.4136 -0.5915
    outer loop
        vertex 40.3883 -40.6947 -100.4291
        vertex 40.5379 -41.0217 -100.1963
        vertex 40.1831 -40.8788 -101.1908
    endloop
endfacet
facet normal 4.7762 1.0570 -1.5524
    outer loop
        vertex 40.3598 -41.6499 -101.1721
        vertex 40.1831 -40.8788 -101.1908
        vertex 40.5379 -41.0217 -100.1963
    endloop
endfacet
facet normal 5.1190 1.1266 -1.6598
    outer loop
        vertex 40.5379 -41.0217 -100.1963
        vertex 40.6371 -42.1625 -100.6647
        vertex 40.3598 -41.6499 -101.1721
    endloop
endfacet
facet normal 3.2200 0.6249 -0.6994
    outer loop
        vertex 40.7996 -42.1730 -100.0201
        vertex 40.7003 -42.1634 -100.4690
        vertex 40.5379 -41.0217 -100.1963
    endloop
endfacet
facet normal 2.6062 0.5075 -0.5545
    outer loop
        vertex 40.5379 -41.0217 -100.1963
        vertex 40.6945 -41.3715 -99.7806
        vertex 40.7996 -42.1730 -100.0201
    endloop
endfacet
facet normal 1.3980 0.3062 -0.4497
    outer loop
        vertex 40.7003 -42.1634 -100.4690
        vertex 40.6371 -42.1625 -100.6647
        vertex 40.5379 -41.0217 -100.1963
    endloop
endfacet
facet normal 0.5495 0.1076 -0.1190
    outer loop
        vertex 40.8621 -42.4683 -99.9986
        vertex 40.7996 -42.1730 -100.0201
        vertex 40.6945 -41.3715 -99.7806
    endloop
endfacet
facet normal 1.7168 0.3363 -0.3719
    outer loop
        vertex 40.6945 -41.3715 -99.7806
        vertex 40.7704 -41.5134 -99.5584
        vertex 40.8621 -42.4683 -99.9986
    endloop
endfacet
facet normal 1.1571 0.2267 -0.2506
    outer loop
        vertex 40.9243 -42.6786 -99.9017
        vertex 40.8621 -42.4683 -99.9986
        vertex 40.7704 -41.5134 -99.5584
    endloop
endfacet
facet normal 4.3300 0.8482 -0.9379
    outer loop
        vertex 40.7704 -41.5134 -99.5584
        vertex 40.9565 -41.9472 -99.0916
        vertex 40.9243 -42.6786 -99.9017
    endloop
endfacet
facet normal 1.4045 0.2751 -0.3042
    outer loop
        vertex 40.9852 -42.8077 -99.7374
        vertex 40.9243 -42.6786 -99.9017
        vertex 40.9565 -41.9472 -99.0916
    endloop
endfacet
facet normal 1.4047 0.2752 -0.3043
    outer loop
        vertex 40.9565 -41.9472 -99.0916
        vertex 41.0198 -42.1499 -98.9825
        vertex 40.9852 -42.8077 -99.7374
    endloop
endfacet
facet normal 1.1781 0.2308 -0.2552
    outer loop
        vertex 41.0447 -42.8554 -99.5057
        vertex 40.9852 -42.8077 -99.7374
        vertex 41.0198 -42.1499 -98.9825
    endloop
endfacet
facet normal 0.7943 0.1556 -0.1721
    outer loop
        vertex 41.0198 -42.1499 -98.9825
        vertex 41.0660 -42.3511 -98.9515
        vertex 41.0447 -42.8554 -99.5057
    endloop
endfacet
facet normal 0.5884 0.1153 -0.1275
    outer loop
        vertex 41.0865 -42.8243 -99.2848
        vertex 41.0447 -42.8554 -99.5057
        vertex 41.0660 -42.3511 -98.9515
    endloop
endfacet
facet normal 0.2914 0.0571 -0.0631
    outer loop
        vertex 41.0660 -42.3511 -98.9515
        vertex 41.0963 -42.5586 -98.9991
        vertex 41.0865 -42.8243 -99.2848
    endloop
endfacet
facet normal 0.1060 0.0208 -0.0230
    outer loop
        vertex 41.0865 -42.8243 -99.2848
        vertex 41.0963 -42.5586 -98.9991
        vertex 41.1040 -42.7254 -99.1147
    endloop
endfacet
facet normal 1.9314 0.4275 -0.6238
    outer loop
        vertex 40.4510 -42.1783 -101.2519
        vertex 40.3598 -41.6499 -101.1721
        vertex 40.6371 -42.1625 -100.6647
    endloop
endfacet
facet normal 0.8868 0.1963 -0.2864
    outer loop
        vertex 40.4923 -42.4210 -101.2904
        vertex 40.4510 -42.1783 -101.2519
        vertex 40.6371 -42.1625 -100.6647
    endloop
endfacet
facet normal 2.2075 0.4939 -0.7151
    outer loop
        vertex 40.6371 -42.1625 -100.6647
        vertex 40.7789 -42.6994 -100.5978
        vertex 40.4923 -42.4210 -101.2904
    endloop
endfacet
facet normal 1.5282 0.3393 -0.4961
    outer loop
        vertex 40.5215 -42.7263 -101.4091
        vertex 40.4923 -42.4210 -101.2904
        vertex 40.7789 -42.6994 -100.5978
    endloop
endfacet
facet normal 1.6018 0.3095 -0.3317
    outer loop
        vertex 40.7789 -42.6994 -100.5978
        vertex 40.8362 -42.9143 -100.5219
        vertex 41.0679 -44.7114 -101.0794
    endloop
endfacet
facet normal 10.1216 2.2402 -3.2856
    outer loop
        vertex 41.0679 -44.7114 -101.0794
        vertex 40.5215 -42.7263 -101.4091
        vertex 40.7789 -42.6994 -100.5978
    endloop
endfacet
facet normal 2.0859 0.4090 -0.4513
    outer loop
        vertex 40.8362 -42.9143 -100.5219
        vertex 40.8995 -43.0938 -100.3919
        vertex 41.0679 -44.7114 -101.0794
    endloop
endfacet
facet normal 2.3228 0.5146 -0.7509
    outer loop
        vertex 41.0679 -44.7114 -101.0794
        vertex 40.5299 -42.9768 -101.5547
        vertex 40.5215 -42.7263 -101.4091
    endloop
endfacet
facet normal 2.3282 0.4566 -0.5039
    outer loop
        vertex 40.8995 -43.0938 -100.3919
        vertex 40.9648 -43.2425 -100.2248
        vertex 41.0679 -44.7114 -101.0794
    endloop
endfacet
facet normal 2.5598 0.5672 -0.8273
    outer loop
        vertex 41.0679 -44.7114 -101.0794
        vertex 40.5130 -43.1682 -101.7384
        vertex 40.5299 -42.9768 -101.5547
    endloop
endfacet
facet normal 2.4663 0.4837 -0.5339
    outer loop
        vertex 40.9648 -43.2425 -100.2248
        vertex 41.0307 -43.3527 -100.0202
        vertex 41.0679 -44.7114 -101.0794
    endloop
endfacet
facet normal 2.6341 0.5837 -0.8511
    outer loop
        vertex 41.0679 -44.7114 -101.0794
        vertex 40.4742 -43.3057 -101.9528
        vertex 40.5130 -43.1682 -101.7384
    endloop
endfacet
facet normal 5.0495 0.9907 -1.0934
    outer loop
        vertex 41.0307 -43.3527 -100.0202
        vertex 41.1620 -43.4455 -99.4979
        vertex 41.0679 -44.7114 -101.0794
    endloop
endfacet
facet normal 59.8694 11.7448 -12.9634
    outer loop
        vertex 41.1620 -43.4455 -99.4979
        vertex 42.6955 -44.8562 -93.6937
        vertex 41.0679 -44.7114 -101.0794
    endloop
endfacet
facet normal 2.6930 0.5969 -0.8700
    outer loop
        vertex 41.0679 -44.7114 -101.0794
        vertex 40.4115 -43.3918 -102.2058
        vertex 40.4742 -43.3057 -101.9528
    endloop
endfacet
facet normal 0.2045 0.0453 -0.0660
    outer loop
        vertex 40.2716 -42.7734 -102.2153
        vertex 40.2119 -42.8439 -102.4483
        vertex 40.1216 -42.7734 -102.6797
    endloop
endfacet
facet normal 0.6248 0.1383 -0.2018
    outer loop
        vertex 40.1216 -42.7734 -102.6797
        vertex 40.0280 -42.5582 -102.8219
        vertex 40.2716 -42.7734 -102.2153
    endloop
endfacet
facet normal 1.0499 0.2324 -0.3391
    outer loop
        vertex 40.2800 -42.5581 -102.0416
        vertex 40.2716 -42.7734 -102.2153
        vertex 40.0280 -42.5582 -102.8219
    endloop
endfacet
facet normal 1.7753 0.3930 -0.5733
    outer loop
        vertex 40.0280 -42.5582 -102.8219
        vertex 39.9268 -42.1942 -102.8859
        vertex 40.2800 -42.5581 -102.0416
    endloop
endfacet
facet normal 2.1823 0.4831 -0.7048
    outer loop
        vertex 40.2365 -42.1940 -101.9267
        vertex 40.2800 -42.5581 -102.0416
        vertex 39.9268 -42.1942 -102.8859
    endloop
endfacet
facet normal 3.2148 0.7116 -1.0382
    outer loop
        vertex 39.9268 -42.1942 -102.8859
        vertex 39.8094 -41.6580 -102.8817
        vertex 40.2365 -42.1940 -101.9267
    endloop
endfacet
facet normal 3.4189 0.7568 -1.1042
    outer loop
        vertex 40.1389 -41.6578 -101.8616
        vertex 40.2365 -42.1940 -101.9267
        vertex 39.8094 -41.6580 -102.8817
    endloop
endfacet
facet normal 3.4688 0.7678 -1.1203
    outer loop
        vertex 39.8094 -41.6580 -102.8817
        vertex 39.7102 -41.1139 -102.8161
        vertex 40.1389 -41.6578 -101.8616
    endloop
endfacet
facet normal 3.2375 0.7166 -1.0456
    outer loop
        vertex 40.0207 -41.1177 -101.8572
        vertex 40.1389 -41.6578 -101.8616
        vertex 39.7102 -41.1139 -102.8161
    endloop
endfacet
facet normal 2.2079 0.4887 -0.7131
    outer loop
        vertex 39.7102 -41.1139 -102.8161
        vertex 39.6647 -40.7460 -102.7048
        vertex 40.0207 -41.1177 -101.8572
    endloop
endfacet
facet normal 1.7921 0.3967 -0.5788
    outer loop
        vertex 39.9175 -40.7498 -101.9247
        vertex 40.0207 -41.1177 -101.8572
        vertex 39.6647 -40.7460 -102.7048
    endloop
endfacet
facet normal 1.0346 0.2290 -0.3341
    outer loop
        vertex 39.6647 -40.7460 -102.7048
        vertex 39.6727 -40.5346 -102.5351
        vertex 39.9175 -40.7498 -101.9247
    endloop
endfacet
facet normal 0.6248 0.1383 -0.2018
    outer loop
        vertex 39.8227 -40.5345 -102.0707
        vertex 39.9175 -40.7498 -101.9247
        vertex 39.6727 -40.5346 -102.5351
    endloop
endfacet
facet normal 0.2045 0.0453 -0.0660
    outer loop
        vertex 39.6727 -40.5346 -102.5351
        vertex 39.7348 -40.4641 -102.2945
        vertex 39.8227 -40.5345 -102.0707
    endloop
endfacet
facet normal 5.9115 1.3080 -1.9069
    outer loop
        vertex 40.3739 -39.8971 -99.9263
        vertex 40.1631 -39.8963 -100.5792
        vertex 40.1653 -38.4488 -99.5796
    endloop
endfacet
facet normal 16.3550 3.2113 -3.5446
    outer loop
        vertex 40.7701 -39.9328 -98.1305
        vertex 40.3739 -39.8971 -99.9263
        vertex 41.5458 -38.5715 -93.3179
    endloop
endfacet
facet normal 15.3750 3.0117 -3.3302
    outer loop
        vertex 41.0838 -40.0692 -96.8053
        vertex 40.7701 -39.9328 -98.1305
        vertex 41.5458 -38.5715 -93.3179
    endloop
endfacet
facet normal 2.9677 0.5814 -0.6428
    outer loop
        vertex 41.5458 -38.5715 -93.3179
        vertex 41.1833 -39.9693 -96.2559
        vertex 41.0838 -40.0692 -96.8053
    endloop
endfacet
facet normal 3.1187 0.6109 -0.6755
    outer loop
        vertex 41.2520 -40.0025 -95.9685
        vertex 41.1833 -39.9693 -96.2559
        vertex 41.5458 -38.5715 -93.3179
    endloop
endfacet
facet normal 3.6809 0.7210 -0.7972
    outer loop
        vertex 41.3231 -40.0903 -95.7196
        vertex 41.2520 -40.0025 -95.9685
        vertex 41.5458 -38.5715 -93.3179
    endloop
endfacet
facet normal 4.0817 0.7996 -0.8841
    outer loop
        vertex 41.3956 -40.2316 -95.5130
        vertex 41.3231 -40.0903 -95.7196
        vertex 41.5458 -38.5715 -93.3179
    endloop
endfacet
facet normal 4.3499 0.8521 -0.9422
    outer loop
        vertex 41.4687 -40.4274 -95.3526
        vertex 41.3956 -40.2316 -95.5130
        vertex 41.5458 -38.5715 -93.3179
    endloop
endfacet
facet normal 4.5484 0.8910 -0.9852
    outer loop
        vertex 41.5432 -40.6774 -95.2347
        vertex 41.4687 -40.4274 -95.3526
        vertex 41.5458 -38.5715 -93.3179
    endloop
endfacet
facet normal 4.6491 0.9107 -1.0070
    outer loop
        vertex 41.6193 -40.9778 -95.1549
        vertex 41.5432 -40.6774 -95.2347
        vertex 41.5458 -38.5715 -93.3179
    endloop
endfacet
facet normal 9.2611 1.8141 -2.0059
    outer loop
        vertex 41.7764 -41.7530 -95.1308
        vertex 41.6193 -40.9778 -95.1549
        vertex 41.5458 -38.5715 -93.3179
    endloop
endfacet
facet normal 63.7376 12.4854 -13.8054
    outer loop
        vertex 41.5458 -38.5715 -93.3179
        vertex 42.6955 -44.8562 -93.6937
        vertex 41.7764 -41.7530 -95.1308
    endloop
endfacet
facet normal 6.2787 1.2299 -1.3599
    outer loop
        vertex 42.6955 -44.8562 -93.6937
        vertex 41.8630 -42.2824 -95.2094
        vertex 41.7764 -41.7530 -95.1308
    endloop
endfacet
facet normal 2.9139 0.5708 -0.6312
    outer loop
        vertex 42.6955 -44.8562 -93.6937
        vertex 41.9024 -42.5255 -95.2474
        vertex 41.8630 -42.2824 -95.2094
    endloop
endfacet
facet normal 4.7020 0.9211 -1.0184
    outer loop
        vertex 42.6955 -44.8562 -93.6937
        vertex 41.9361 -42.8299 -95.3673
        vertex 41.9024 -42.5255 -95.2474
    endloop
endfacet
facet normal 4.4745 0.8765 -0.9692
    outer loop
        vertex 42.6955 -44.8562 -93.6937
        vertex 41.9528 -43.0787 -95.5151
        vertex 41.9361 -42.8299 -95.3673
    endloop
endfacet
facet normal 4.2276 0.8281 -0.9157
    outer loop
        vertex 42.6955 -44.8562 -93.6937
        vertex 41.9492 -43.2673 -95.7023
        vertex 41.9528 -43.0787 -95.5151
    endloop
endfacet
facet normal 3.8555 0.7552 -0.8351
    outer loop
        vertex 42.6955 -44.8562 -93.6937
        vertex 41.9280 -43.4011 -95.9215
        vertex 41.9492 -43.2673 -95.7023
    endloop
endfacet
facet normal 3.4901 0.6837 -0.7559
    outer loop
        vertex 42.6955 -44.8562 -93.6937
        vertex 41.8878 -43.4825 -96.1805
        vertex 41.9280 -43.4011 -95.9215
    endloop
endfacet
facet normal 2.8029 0.5490 -0.6071
    outer loop
        vertex 42.6955 -44.8562 -93.6937
        vertex 41.8300 -43.5045 -96.4672
        vertex 41.8878 -43.4825 -96.1805
    endloop
endfacet
facet normal 1.8853 0.3693 -0.4083
    outer loop
        vertex 41.7604 -43.4713 -96.7585
        vertex 41.8300 -43.5045 -96.4672
        vertex 42.6955 -44.8562 -93.6937
    endloop
endfacet
facet normal 17.6733 3.4619 -3.8280
    outer loop
        vertex 42.6955 -44.8562 -93.6937
        vertex 41.2568 -43.3804 -99.0014
        vertex 41.7604 -43.4713 -96.7585
    endloop
endfacet
facet normal 6.7379 1.3199 -1.4594
    outer loop
        vertex 42.6955 -44.8562 -93.6937
        vertex 41.1620 -43.4455 -99.4979
        vertex 41.2568 -43.3804 -99.0014
    endloop
endfacet
facet normal 1.0854 0.2126 -0.2351
    outer loop
        vertex 41.7604 -43.4713 -96.7585
        vertex 41.2568 -43.3804 -99.0014
        vertex 41.6902 -43.3839 -97.0035
    endloop
endfacet
facet normal 1.7643 0.3456 -0.3821
    outer loop
        vertex 41.6177 -43.2423 -97.2101
        vertex 41.6902 -43.3839 -97.0035
        vertex 41.2568 -43.3804 -99.0014
    endloop
endfacet
facet normal 2.0853 0.4085 -0.4517
    outer loop
        vertex 41.2568 -43.3804 -99.0014
        vertex 41.2994 -43.1639 -98.6091
        vertex 41.6177 -43.2423 -97.2101
    endloop
endfacet
facet normal 1.6337 0.3200 -0.3538
    outer loop
        vertex 41.5446 -43.0465 -97.3704
        vertex 41.6177 -43.2423 -97.2101
        vertex 41.2994 -43.1639 -98.6091
    endloop
endfacet
facet normal 2.4768 0.4852 -0.5365
    outer loop
        vertex 41.2994 -43.1639 -98.6091
        vertex 41.2888 -42.8190 -98.3461
        vertex 41.5446 -43.0465 -97.3704
    endloop
endfacet
facet normal 1.3570 0.2658 -0.2939
    outer loop
        vertex 41.4701 -42.7964 -97.4884
        vertex 41.5446 -43.0465 -97.3704
        vertex 41.2888 -42.8190 -98.3461
    endloop
endfacet
facet normal 2.3343 0.4573 -0.5056
    outer loop
        vertex 41.2888 -42.8190 -98.3461
        vertex 41.2264 -42.3807 -98.2378
        vertex 41.4701 -42.7964 -97.4884
    endloop
endfacet
facet normal 1.2377 0.2425 -0.2681
    outer loop
        vertex 41.3925 -42.4881 -97.5678
        vertex 41.4701 -42.7964 -97.4884
        vertex 41.2264 -42.3807 -98.2378
    endloop
endfacet
facet normal 1.3862 0.2715 -0.3003
    outer loop
        vertex 41.2264 -42.3807 -98.2378
        vertex 41.1558 -42.0460 -98.2608
        vertex 41.3925 -42.4881 -97.5678
    endloop
endfacet
facet normal 3.2911 0.6447 -0.7129
    outer loop
        vertex 41.2355 -41.7130 -97.5918
        vertex 41.3925 -42.4881 -97.5678
        vertex 41.1558 -42.0460 -98.2608
    endloop
endfacet
facet normal 1.4261 0.2793 -0.3089
    outer loop
        vertex 41.1558 -42.0460 -98.2608
        vertex 41.0757 -41.7607 -98.3727
        vertex 41.2355 -41.7130 -97.5918
    endloop
endfacet
facet normal 2.5795 0.5053 -0.5587
    outer loop
        vertex 41.1481 -41.1797 -97.5130
        vertex 41.2355 -41.7130 -97.5918
        vertex 41.0757 -41.7607 -98.3727
    endloop
endfacet
facet normal 2.3370 0.4578 -0.5062
    outer loop
        vertex 41.0757 -41.7607 -98.3727
        vertex 40.9711 -41.4809 -98.6023
        vertex 41.1481 -41.1797 -97.5130
    endloop
endfacet
facet normal 1.5834 0.3102 -0.3430
    outer loop
        vertex 41.1087 -40.9366 -97.4750
        vertex 41.1481 -41.1797 -97.5130
        vertex 40.9711 -41.4809 -98.6023
    endloop
endfacet
facet normal 5.1904 1.0168 -1.1242
    outer loop
        vertex 40.9711 -41.4809 -98.6023
        vertex 40.8800 -40.5338 -98.1664
        vertex 41.1087 -40.9366 -97.4750
    endloop
endfacet
facet normal 3.1521 0.6175 -0.6828
    outer loop
        vertex 40.9711 -41.4809 -98.6023
        vertex 40.8256 -41.1666 -98.9902
        vertex 40.8800 -40.5338 -98.1664
    endloop
endfacet
facet normal 2.0858 0.4086 -0.4518
    outer loop
        vertex 40.8800 -40.5338 -98.1664
        vertex 40.8256 -41.1666 -98.9902
        vertex 40.7284 -40.9687 -99.2599
    endloop
endfacet
facet normal 2.8024 0.5490 -0.6070
    outer loop
        vertex 40.7284 -40.9687 -99.2599
        vertex 40.5993 -40.6984 -99.6113
        vertex 40.8800 -40.5338 -98.1664
    endloop
endfacet
facet normal 1.9191 0.3759 -0.4157
    outer loop
        vertex 40.5993 -40.6984 -99.6113
        vertex 40.5288 -40.5028 -99.7599
        vertex 40.8800 -40.5338 -98.1664
    endloop
endfacet
facet normal 1.5902 0.3115 -0.3444
    outer loop
        vertex 41.0749 -40.6360 -97.3593
        vertex 41.1087 -40.9366 -97.4750
        vertex 40.8800 -40.5338 -98.1664
    endloop
endfacet
facet normal 3.0548 0.5984 -0.6617
    outer loop
        vertex 40.8800 -40.5338 -98.1664
        vertex 40.7701 -39.9328 -98.1305
        vertex 41.0749 -40.6360 -97.3593
    endloop
endfacet
facet normal 1.8290 0.3583 -0.3961
    outer loop
        vertex 41.0749 -40.6360 -97.3593
        vertex 40.7701 -39.9328 -98.1305
        vertex 41.0589 -40.3912 -97.2117
    endloop
endfacet
facet normal 1.6113 0.3156 -0.3490
    outer loop
        vertex 41.0589 -40.3912 -97.2117
        vertex 40.7701 -39.9328 -98.1305
        vertex 41.0616 -40.2021 -97.0283
    endloop
endfacet
facet normal 1.2907 0.2528 -0.2796
    outer loop
        vertex 41.0616 -40.2021 -97.0283
        vertex 40.7701 -39.9328 -98.1305
        vertex 41.0838 -40.0692 -96.8053
    endloop
endfacet
facet normal 0.2108 0.0413 -0.0457
    outer loop
        vertex 41.7631 -42.8609 -96.1942
        vertex 41.7244 -42.9271 -96.4327
        vertex 41.6581 -42.8517 -96.6706
    endloop
endfacet
facet normal 0.6441 0.1262 -0.1395
    outer loop
        vertex 41.6581 -42.8517 -96.6706
        vertex 41.5833 -42.6325 -96.8178
        vertex 41.7631 -42.8609 -96.1942
    endloop
endfacet
facet normal 1.0823 0.2120 -0.2344
    outer loop
        vertex 41.7597 -42.6481 -96.0172
        vertex 41.7631 -42.8609 -96.1942
        vertex 41.5833 -42.6325 -96.8178
    endloop
endfacet
facet normal 1.8301 0.3585 -0.3964
    outer loop
        vertex 41.5833 -42.6325 -96.8178
        vertex 41.4966 -42.2655 -96.8858
        vertex 41.7597 -42.6481 -96.0172
    endloop
endfacet
facet normal 2.2496 0.4407 -0.4873
    outer loop
        vertex 41.7136 -42.2846 -95.9016
        vertex 41.7597 -42.6481 -96.0172
        vertex 41.4966 -42.2655 -96.8858
    endloop
endfacet
facet normal 3.3140 0.6492 -0.7178
    outer loop
        vertex 41.4966 -42.2655 -96.8858
        vertex 41.3913 -41.7267 -96.8849
        vertex 41.7136 -42.2846 -95.9016
    endloop
endfacet
facet normal 3.5244 0.6904 -0.7634
    outer loop
        vertex 41.6220 -41.7471 -95.8382
        vertex 41.7136 -42.2846 -95.9016
        vertex 41.3913 -41.7267 -96.8849
    endloop
endfacet
facet normal 3.5759 0.7005 -0.7745
    outer loop
        vertex 41.3913 -41.7267 -96.8849
        vertex 41.2983 -41.1813 -96.8210
        vertex 41.6220 -41.7471 -95.8382
    endloop
endfacet
facet normal 3.3374 0.6538 -0.7229
    outer loop
        vertex 41.5160 -41.2044 -95.8370
        vertex 41.6220 -41.7471 -95.8382
        vertex 41.2983 -41.1813 -96.8210
    endloop
endfacet
facet normal 2.2760 0.4459 -0.4930
    outer loop
        vertex 41.2983 -41.1813 -96.8210
        vertex 41.2506 -40.8139 -96.7091
        vertex 41.5160 -41.2044 -95.8370
    endloop
endfacet
facet normal 1.8474 0.3619 -0.4002
    outer loop
        vertex 41.4277 -40.8334 -95.9087
        vertex 41.5160 -41.2044 -95.8370
        vertex 41.2506 -40.8139 -96.7091
    endloop
endfacet
facet normal 1.0666 0.2089 -0.2310
    outer loop
        vertex 41.2506 -40.8139 -96.7091
        vertex 41.2470 -40.6049 -96.5363
        vertex 41.4277 -40.8334 -95.9087
    endloop
endfacet
facet normal 0.6441 0.1262 -0.1395
    outer loop
        vertex 41.3521 -40.6142 -96.0598
        vertex 41.4277 -40.8334 -95.9087
        vertex 41.2470 -40.6049 -96.5363
    endloop
endfacet
facet normal 0.2108 0.0413 -0.0457
    outer loop
        vertex 41.2470 -40.6049 -96.5363
        vertex 41.2875 -40.5389 -96.2899
        vertex 41.3521 -40.6142 -96.0598
    endloop
endfacet
endsolid GiantLegoRocks
