solid GiantLegoRocks
facet normal 290.2589 -56.8567 62.8411
    outer loop
        vertex -41.4498 -38.5903 -93.2971
        vertex -42.5995 -44.8750 -93.6729
        vertex -40.9734 -44.7311 -101.0539
    endloop
endfacet
facet normal 246.1116 -48.0783 53.1797
    outer loop
        vertex -40.9734 -44.7311 -101.0539
        vertex -40.0737 -38.4679 -99.5549
        vertex -41.4498 -38.5903 -93.2971
    endloop
endfacet
facet normal 284.6009 -62.8843 91.9435
    outer loop
        vertex -40.0737 -38.4679 -99.5549
        vertex -40.9734 -44.7311 -101.0539
        vertex -38.6248 -44.7324 -108.3246
    endloop
endfacet
facet normal 327.4159 -72.4843 105.8753
    outer loop
        vertex -38.6248 -44.7324 -108.3246
        vertex -37.3692 -38.4698 -107.9200
        vertex -40.0737 -38.4679 -99.5549
    endloop
endfacet
facet normal -0.8867 -4.6234 -0.2860
    outer loop
        vertex -42.6955 -44.8562 -93.6937
        vertex -41.0679 -44.7114 -101.0794
        vertex -40.9734 -44.7311 -101.0539
    endloop
endfacet
facet normal -0.8488 -4.6394 -0.2774
    outer loop
        vertex -40.9734 -44.7311 -101.0539
        vertex -42.5995 -44.8750 -93.6729
        vertex -42.6955 -44.8562 -93.6937
    endloop
endfacet
facet normal -0.8958 -4.6701 -0.2886
    outer loop
        vertex -38.6248 -44.7324 -108.3246
        vertex -40.9734 -44.7311 -101.0539
        vertex -41.0679 -44.7114 -101.0794
    endloop
endfacet
facet normal -0.9373 -4.6757 -0.3026
    outer loop
        vertex -41.0679 -44.7114 -101.0794
        vertex -38.7179 -44.7117 -108.3547
        vertex -38.6248 -44.7324 -108.3246
    endloop
endfacet
facet normal -0.8609 -0.0761 3.9055
    outer loop
        vertex -41.5458 -38.5715 -93.3179
        vertex -42.6955 -44.8562 -93.6937
        vertex -42.5995 -44.8750 -93.6729
    endloop
endfacet
facet normal -0.8609 -0.0761 3.9056
    outer loop
        vertex -42.5995 -44.8750 -93.6729
        vertex -41.4498 -38.5903 -93.2971
        vertex -41.5458 -38.5715 -93.3179
    endloop
endfacet
facet normal 1.0311 5.3764 0.3327
    outer loop
        vertex -37.4623 -38.4492 -107.9501
        vertex -40.1683 -38.4482 -99.5804
        vertex -40.0737 -38.4679 -99.5549
    endloop
endfacet
facet normal 1.0780 5.3766 0.3473
    outer loop
        vertex -40.0737 -38.4679 -99.5549
        vertex -37.3692 -38.4698 -107.9200
        vertex -37.4623 -38.4492 -107.9501
    endloop
endfacet
facet normal 0.7513 3.9169 0.2419
    outer loop
        vertex -41.4498 -38.5903 -93.2971
        vertex -40.0737 -38.4679 -99.5549
        vertex -40.1683 -38.4482 -99.5804
    endloop
endfacet
facet normal 0.7200 3.9362 0.2359
    outer loop
        vertex -40.1683 -38.4482 -99.5804
        vertex -41.5458 -38.5715 -93.3179
        vertex -41.4498 -38.5903 -93.2971
    endloop
endfacet
facet normal 1.2292 -0.0006 -3.8064
    outer loop
        vertex -38.7179 -44.7117 -108.3547
        vertex -37.4623 -38.4492 -107.9501
        vertex -37.3692 -38.4698 -107.9200
    endloop
endfacet
facet normal 1.2292 -0.0006 -3.8064
    outer loop
        vertex -37.3692 -38.4698 -107.9200
        vertex -38.6248 -44.7324 -108.3246
        vertex -38.7179 -44.7117 -108.3547
    endloop
endfacet
facet normal -3.5115 0.6879 -0.7606
    outer loop
        vertex -41.1230 -39.9640 -96.5292
        vertex -40.9664 -39.9502 -97.2400
        vertex -41.1108 -40.7397 -97.2873
    endloop
endfacet
facet normal -3.5115 0.6879 -0.7606
    outer loop
        vertex -41.1108 -40.7397 -97.2873
        vertex -41.2675 -40.7535 -96.5764
        vertex -41.1230 -39.9640 -96.5292
    endloop
endfacet
facet normal -1.5136 0.2965 -0.3278
    outer loop
        vertex -41.2157 -41.3132 -97.3215
        vertex -41.1108 -40.7397 -97.2873
        vertex -41.0178 -40.7315 -97.7090
    endloop
endfacet
facet normal -1.5136 0.2965 -0.3278
    outer loop
        vertex -41.0178 -40.7315 -97.7090
        vertex -41.1227 -41.3050 -97.7433
        vertex -41.2157 -41.3132 -97.3215
    endloop
endfacet
facet normal -5.8507 1.1461 -1.2672
    outer loop
        vertex -41.5828 -41.3340 -95.6454
        vertex -41.6506 -42.8665 -96.7184
        vertex -41.8111 -43.5028 -96.5532
    endloop
endfacet
facet normal -7.9759 1.5624 -1.7275
    outer loop
        vertex -41.8111 -43.5028 -96.5532
        vertex -41.7189 -41.4156 -95.0911
        vertex -41.5828 -41.3340 -95.6454
    endloop
endfacet
facet normal -3.5545 0.6963 -0.7699
    outer loop
        vertex -41.6131 -43.4853 -97.4514
        vertex -41.8111 -43.5028 -96.5532
        vertex -41.6506 -42.8665 -96.7184
    endloop
endfacet
facet normal -9.4487 1.8509 -2.0466
    outer loop
        vertex -41.6506 -42.8665 -96.7184
        vertex -41.2157 -41.3132 -97.3215
        vertex -41.6131 -43.4853 -97.4514
    endloop
endfacet
facet normal -2.2100 0.4329 -0.4787
    outer loop
        vertex -41.7189 -41.4156 -95.0911
        vertex -41.6032 -40.7832 -95.0533
        vertex -41.5828 -41.3340 -95.6454
    endloop
endfacet
facet normal -3.4454 0.6749 -0.7463
    outer loop
        vertex -41.3668 -41.3149 -96.6257
        vertex -41.5828 -41.3340 -95.6454
        vertex -41.6032 -40.7832 -95.0533
    endloop
endfacet
facet normal -5.3534 1.0487 -1.1595
    outer loop
        vertex -41.6032 -40.7832 -95.0533
        vertex -41.2675 -40.7535 -96.5764
        vertex -41.3668 -41.3149 -96.6257
    endloop
endfacet
facet normal -6.7491 1.3221 -1.4618
    outer loop
        vertex -41.6506 -42.8665 -96.7184
        vertex -41.3668 -41.3149 -96.6257
        vertex -41.2157 -41.3132 -97.3215
    endloop
endfacet
facet normal -2.5507 0.4997 -0.5525
    outer loop
        vertex -41.2675 -40.7535 -96.5764
        vertex -41.1108 -40.7397 -97.2873
        vertex -41.2157 -41.3132 -97.3215
    endloop
endfacet
facet normal -2.4422 0.4784 -0.5290
    outer loop
        vertex -41.2157 -41.3132 -97.3215
        vertex -41.3668 -41.3149 -96.6257
        vertex -41.2675 -40.7535 -96.5764
    endloop
endfacet
facet normal -1.2314 0.2415 -0.2575
    outer loop
        vertex -40.5687 -40.5449 -99.6138
        vertex -40.4446 -39.9311 -99.6319
        vertex -40.3907 -39.9965 -99.9509
    endloop
endfacet
facet normal -0.0375 0.0111 -0.0151
    outer loop
        vertex -40.3907 -39.9965 -99.9509
        vertex -40.3662 -40.1428 -100.1194
        vertex -40.3505 -40.3346 -100.2992
    endloop
endfacet
facet normal -1.8761 0.3675 -0.4063
    outer loop
        vertex -41.0821 -43.4113 -99.8361
        vertex -40.9797 -42.7917 -99.7482
        vertex -40.9386 -43.1780 -100.2874
    endloop
endfacet
facet normal -0.1050 0.0206 -0.0227
    outer loop
        vertex -40.9386 -43.1780 -100.2874
        vertex -41.0103 -43.3200 -100.0848
        vertex -41.0821 -43.4113 -99.8361
    endloop
endfacet
facet normal -1.0555 0.2068 -0.2286
    outer loop
        vertex -40.8647 -42.9825 -100.4517
        vertex -40.9386 -43.1780 -100.2874
        vertex -40.9797 -42.7917 -99.7482
    endloop
endfacet
facet normal -1.1441 0.2241 -0.2478
    outer loop
        vertex -40.9797 -42.7917 -99.7482
        vertex -40.9041 -42.5725 -99.8993
        vertex -40.8647 -42.9825 -100.4517
    endloop
endfacet
facet normal -3.4227 0.6705 -0.7414
    outer loop
        vertex -41.2238 -42.4732 -98.3332
        vertex -41.0978 -41.7008 -98.2167
        vertex -40.9419 -41.6870 -98.9236
    endloop
endfacet
facet normal -2.2949 0.4495 -0.4971
    outer loop
        vertex -40.9419 -41.6870 -98.9236
        vertex -41.0335 -42.2245 -98.9870
        vertex -41.2238 -42.4732 -98.3332
    endloop
endfacet
facet normal -2.3072 0.4520 -0.4997
    outer loop
        vertex -41.0978 -41.7008 -98.2167
        vertex -40.9897 -41.1657 -98.2316
        vertex -40.8352 -41.1404 -98.9222
    endloop
endfacet
facet normal -2.4150 0.4731 -0.5231
    outer loop
        vertex -40.8352 -41.1404 -98.9222
        vertex -40.9419 -41.6870 -98.9236
        vertex -41.0978 -41.7008 -98.2167
    endloop
endfacet
facet normal -1.0517 0.2060 -0.2278
    outer loop
        vertex -41.0848 -42.8010 -99.2717
        vertex -41.2717 -43.2117 -98.7801
        vertex -41.2743 -43.0226 -98.5968
    endloop
endfacet
facet normal -1.1378 0.2229 -0.2464
    outer loop
        vertex -41.2743 -43.0226 -98.5968
        vertex -41.0805 -42.5881 -99.0987
        vertex -41.0848 -42.8010 -99.2717
    endloop
endfacet
facet normal -1.1689 0.2290 -0.2532
    outer loop
        vertex -41.0805 -42.5881 -99.0987
        vertex -41.2743 -43.0226 -98.5968
        vertex -41.2583 -42.7777 -98.4492
    endloop
endfacet
facet normal -1.6080 0.3150 -0.3483
    outer loop
        vertex -41.2583 -42.7777 -98.4492
        vertex -41.0335 -42.2245 -98.9870
        vertex -41.0805 -42.5881 -99.0987
    endloop
endfacet
facet normal -0.6356 0.1447 -0.2137
    outer loop
        vertex -40.3907 -39.9965 -99.9509
        vertex -40.3505 -40.3346 -100.2992
        vertex -40.3871 -40.8787 -100.5590
    endloop
endfacet
facet normal -1.0550 0.2040 -0.2253
    outer loop
        vertex -40.5721 -40.7578 -99.7908
        vertex -40.5687 -40.5449 -99.6138
        vertex -40.3907 -39.9965 -99.9509
    endloop
endfacet
facet normal -1.4243 0.2790 -0.3085
    outer loop
        vertex -41.2583 -42.7777 -98.4492
        vertex -41.2238 -42.4732 -98.3332
        vertex -41.0335 -42.2245 -98.9870
    endloop
endfacet
facet normal -1.2891 0.2481 -0.2759
    outer loop
        vertex -40.7821 -42.7215 -100.6031
        vertex -40.8647 -42.9825 -100.4517
        vertex -40.9041 -42.5725 -99.8993
    endloop
endfacet
facet normal -1.6819 0.3301 -0.3614
    outer loop
        vertex -40.7821 -42.7215 -100.6031
        vertex -40.9041 -42.5725 -99.8993
        vertex -40.8166 -42.2054 -99.9712
    endloop
endfacet
facet normal -1.1130 0.2180 -0.2411
    outer loop
        vertex -40.6737 -40.5542 -99.1374
        vertex -40.7478 -40.7695 -98.9899
        vertex -40.7886 -40.3673 -98.4380
    endloop
endfacet
facet normal -1.0432 0.2044 -0.2260
    outer loop
        vertex -40.7886 -40.3673 -98.4380
        vertex -40.7155 -40.1715 -98.5983
        vertex -40.6737 -40.5542 -99.1374
    endloop
endfacet
facet normal -1.1344 0.2222 -0.2457
    outer loop
        vertex -40.9897 -41.1657 -98.2316
        vertex -40.9400 -40.9217 -98.2405
        vertex -40.7478 -40.7695 -98.9899
    endloop
endfacet
facet normal -1.5905 0.3116 -0.3445
    outer loop
        vertex -40.7478 -40.7695 -98.9899
        vertex -40.8352 -41.1404 -98.9222
        vertex -40.9897 -41.1657 -98.2316
    endloop
endfacet
facet normal -0.1001 0.0196 -0.0217
    outer loop
        vertex -40.9400 -40.9217 -98.2405
        vertex -40.8631 -40.6173 -98.3200
        vertex -40.7886 -40.3673 -98.4380
    endloop
endfacet
facet normal -2.4089 0.4719 -0.5217
    outer loop
        vertex -40.7886 -40.3673 -98.4380
        vertex -40.7478 -40.7695 -98.9899
        vertex -40.9400 -40.9217 -98.2405
    endloop
endfacet
facet normal -0.9188 0.1782 -0.1935
    outer loop
        vertex -40.6190 -41.1252 -99.9066
        vertex -40.5721 -40.7578 -99.7908
        vertex -40.3907 -39.9965 -99.9509
    endloop
endfacet
facet normal -5.6316 1.2515 -1.8492
    outer loop
        vertex -40.3907 -39.9965 -99.9509
        vertex -40.5196 -41.6498 -100.6773
        vertex -40.7821 -42.7215 -100.6031
    endloop
endfacet
facet normal -0.0940 0.0208 -0.0303
    outer loop
        vertex -40.3505 -40.3346 -100.2992
        vertex -40.3582 -40.5812 -100.4446
        vertex -40.3871 -40.8787 -100.5590
    endloop
endfacet
facet normal -2.2778 0.5061 -0.7476
    outer loop
        vertex -40.3907 -39.9965 -99.9509
        vertex -40.3871 -40.8787 -100.5590
        vertex -40.5196 -41.6498 -100.6773
    endloop
endfacet
facet normal -1.8747 0.3672 -0.4060
    outer loop
        vertex -41.2717 -43.2117 -98.7801
        vertex -41.0848 -42.8010 -99.2717
        vertex -41.2095 -43.4226 -99.2580
    endloop
endfacet
facet normal -0.1042 0.0204 -0.0226
    outer loop
        vertex -41.2095 -43.4226 -99.2580
        vertex -41.2495 -43.3450 -99.0032
        vertex -41.2717 -43.2117 -98.7801
    endloop
endfacet
facet normal -2.1248 0.4162 -0.4559
    outer loop
        vertex -40.7821 -42.7215 -100.6031
        vertex -40.8166 -42.2054 -99.9712
        vertex -40.7112 -41.6666 -99.9702
    endloop
endfacet
facet normal -0.0707 0.0156 -0.0248
    outer loop
        vertex -40.6403 -42.1782 -100.6657
        vertex -40.6963 -42.4209 -100.6586
        vertex -40.7821 -42.7215 -100.6031
    endloop
endfacet
facet normal -0.0994 0.0195 -0.0215
    outer loop
        vertex -41.0821 -43.4113 -99.8361
        vertex -41.1499 -43.4444 -99.5526
        vertex -41.2095 -43.4226 -99.2580
    endloop
endfacet
facet normal -1.9889 0.3896 -0.4308
    outer loop
        vertex -41.2095 -43.4226 -99.2580
        vertex -41.0443 -42.8670 -99.5181
        vertex -41.0821 -43.4113 -99.8361
    endloop
endfacet
facet normal -5.3558 1.0390 -1.1269
    outer loop
        vertex -40.7821 -42.7215 -100.6031
        vertex -40.6190 -41.1252 -99.9066
        vertex -40.3907 -39.9965 -99.9509
    endloop
endfacet
facet normal -1.7220 0.3368 -0.3686
    outer loop
        vertex -40.7821 -42.7215 -100.6031
        vertex -40.7112 -41.6666 -99.9702
        vertex -40.6190 -41.1252 -99.9066
    endloop
endfacet
facet normal -0.1676 0.0370 -0.0585
    outer loop
        vertex -40.5196 -41.6498 -100.6773
        vertex -40.6403 -42.1782 -100.6657
        vertex -40.7821 -42.7215 -100.6031
    endloop
endfacet
facet normal -0.9628 0.1886 -0.2085
    outer loop
        vertex -41.2095 -43.4226 -99.2580
        vertex -41.0848 -42.8010 -99.2717
        vertex -41.0443 -42.8670 -99.5181
    endloop
endfacet
facet normal -0.3173 0.0622 -0.0687
    outer loop
        vertex -40.7155 -40.1715 -98.5983
        vertex -40.6431 -40.0302 -98.8049
        vertex -40.5032 -39.9093 -99.3412
    endloop
endfacet
facet normal -2.6605 0.5212 -0.5763
    outer loop
        vertex -40.5032 -39.9093 -99.3412
        vertex -40.6737 -40.5542 -99.1374
        vertex -40.7155 -40.1715 -98.5983
    endloop
endfacet
facet normal -0.9325 0.1827 -0.2020
    outer loop
        vertex -41.0821 -43.4113 -99.8361
        vertex -41.0443 -42.8670 -99.5181
        vertex -40.9797 -42.7917 -99.7482
    endloop
endfacet
facet normal -1.1995 0.2350 -0.2598
    outer loop
        vertex -40.6737 -40.5542 -99.1374
        vertex -40.5032 -39.9093 -99.3412
        vertex -40.4446 -39.9311 -99.6319
    endloop
endfacet
facet normal -0.6934 0.1358 -0.1502
    outer loop
        vertex -40.4446 -39.9311 -99.6319
        vertex -40.6074 -40.4788 -99.3753
        vertex -40.6737 -40.5542 -99.1374
    endloop
endfacet
facet normal -0.9227 0.1807 -0.1998
    outer loop
        vertex -40.5687 -40.5449 -99.6138
        vertex -40.6074 -40.4788 -99.3753
        vertex -40.4446 -39.9311 -99.6319
    endloop
endfacet
facet normal -1.8162 0.4020 -0.5866
    outer loop
        vertex -38.4609 -40.1437 -106.0193
        vertex -38.7041 -40.5350 -105.5346
        vertex -38.5645 -39.9244 -105.5484
    endloop
endfacet
facet normal -0.1032 0.0228 -0.0333
    outer loop
        vertex -38.5645 -39.9244 -105.5484
        vertex -38.5011 -40.0070 -105.8012
        vertex -38.4609 -40.1437 -106.0193
    endloop
endfacet
facet normal -1.8199 0.4028 -0.5878
    outer loop
        vertex -39.2610 -43.3923 -105.7686
        vertex -39.1530 -42.7739 -105.6792
        vertex -39.0699 -43.1689 -106.2072
    endloop
endfacet
facet normal -0.1018 0.0225 -0.0329
    outer loop
        vertex -39.0699 -43.1689 -106.2072
        vertex -39.1638 -43.3062 -106.0105
        vertex -39.2610 -43.3923 -105.7686
    endloop
endfacet
facet normal -1.0238 0.2266 -0.3307
    outer loop
        vertex -38.9762 -42.9775 -106.3661
        vertex -39.0699 -43.1689 -106.2072
        vertex -39.1530 -42.7739 -105.6792
    endloop
endfacet
facet normal -1.1099 0.2457 -0.3584
    outer loop
        vertex -39.1530 -42.7739 -105.6792
        vertex -39.0582 -42.5586 -105.8252
        vertex -38.9762 -42.9775 -106.3661
    endloop
endfacet
facet normal -3.3203 0.7350 -1.0723
    outer loop
        vertex -39.5228 -42.4292 -104.2980
        vertex -39.3903 -41.6581 -104.1797
        vertex -39.1678 -41.6583 -104.8687
    endloop
endfacet
facet normal -2.2261 0.4928 -0.7190
    outer loop
        vertex -39.1678 -41.6583 -104.8687
        vertex -39.2655 -42.1945 -104.9338
        vertex -39.5228 -42.4292 -104.2980
    endloop
endfacet
facet normal -2.2381 0.4954 -0.7228
    outer loop
        vertex -39.3903 -41.6581 -104.1797
        vertex -39.2688 -41.1258 -104.1910
        vertex -39.0489 -41.1142 -104.8640
    endloop
endfacet
facet normal -2.3427 0.5186 -0.7566
    outer loop
        vertex -39.0489 -41.1142 -104.8640
        vertex -39.1678 -41.6583 -104.8687
        vertex -39.3903 -41.6581 -104.1797
    endloop
endfacet
facet normal -1.0202 0.2258 -0.3295
    outer loop
        vertex -39.3030 -42.7738 -105.2148
        vertex -39.5453 -43.1730 -104.7381
        vertex -39.5609 -42.9812 -104.5583
    endloop
endfacet
facet normal -1.1037 0.2443 -0.3565
    outer loop
        vertex -39.5609 -42.9812 -104.5583
        vertex -39.3102 -42.5585 -105.0448
        vertex -39.3030 -42.7738 -105.2148
    endloop
endfacet
facet normal -1.1339 0.2510 -0.3662
    outer loop
        vertex -39.3102 -42.5585 -105.0448
        vertex -39.5609 -42.9812 -104.5583
        vertex -39.5532 -42.7346 -104.4129
    endloop
endfacet
facet normal -1.5599 0.3453 -0.5038
    outer loop
        vertex -39.5532 -42.7346 -104.4129
        vertex -39.2655 -42.1945 -104.9338
        vertex -39.3102 -42.5585 -105.0448
    endloop
endfacet
facet normal -1.0211 0.2260 -0.3298
    outer loop
        vertex -38.7041 -40.5350 -105.5346
        vertex -38.4609 -40.1437 -106.0193
        vertex -38.4453 -40.3355 -106.1992
    endloop
endfacet
facet normal -1.1111 0.2459 -0.3588
    outer loop
        vertex -38.4453 -40.3355 -106.1992
        vertex -38.6956 -40.7503 -105.7083
        vertex -38.7041 -40.5350 -105.5346
    endloop
endfacet
facet normal -1.3817 0.3058 -0.4462
    outer loop
        vertex -39.5532 -42.7346 -104.4129
        vertex -39.5228 -42.4292 -104.2980
        vertex -39.2655 -42.1945 -104.9338
    endloop
endfacet
facet normal -0.0920 0.0204 -0.0297
    outer loop
        vertex -38.7910 -42.4217 -106.5586
        vertex -38.8842 -42.7270 -106.4793
        vertex -38.9762 -42.9775 -106.3661
    endloop
endfacet
facet normal -2.3829 0.5275 -0.7696
    outer loop
        vertex -38.9762 -42.9775 -106.3661
        vertex -39.0582 -42.5586 -105.8252
        vertex -38.7910 -42.4217 -106.5586
    endloop
endfacet
facet normal -1.0797 0.2390 -0.3487
    outer loop
        vertex -38.8541 -40.5349 -105.0702
        vertex -38.9468 -40.7463 -104.9278
        vertex -39.0304 -40.3352 -104.3874
    endloop
endfacet
facet normal -1.0120 0.2240 -0.3268
    outer loop
        vertex -39.0304 -40.3352 -104.3874
        vertex -38.9379 -40.1435 -104.5424
        vertex -38.8541 -40.5349 -105.0702
    endloop
endfacet
facet normal -1.1005 0.2436 -0.3554
    outer loop
        vertex -39.2688 -41.1258 -104.1910
        vertex -39.2128 -40.8832 -104.1982
        vertex -38.9468 -40.7463 -104.9278
    endloop
endfacet
facet normal -1.5429 0.3415 -0.4983
    outer loop
        vertex -38.9468 -40.7463 -104.9278
        vertex -39.0489 -41.1142 -104.8640
        vertex -39.2688 -41.1258 -104.1910
    endloop
endfacet
facet normal -0.0971 0.0215 -0.0314
    outer loop
        vertex -39.2128 -40.8832 -104.1982
        vertex -39.1216 -40.5818 -104.2739
        vertex -39.0304 -40.3352 -104.3874
    endloop
endfacet
facet normal -2.3368 0.5173 -0.7547
    outer loop
        vertex -39.0304 -40.3352 -104.3874
        vertex -38.9468 -40.7463 -104.9278
        vertex -39.2128 -40.8832 -104.1982
    endloop
endfacet
facet normal -1.3504 0.2989 -0.4361
    outer loop
        vertex -38.6143 -41.6507 -106.5773
        vertex -38.7399 -41.1182 -105.8235
        vertex -38.6956 -40.7503 -105.7083
    endloop
endfacet
facet normal -3.5218 0.7796 -1.1374
    outer loop
        vertex -38.6956 -40.7503 -105.7083
        vertex -38.4818 -40.8796 -106.4589
        vertex -38.6143 -41.6507 -106.5773
    endloop
endfacet
facet normal -0.0940 0.0208 -0.0303
    outer loop
        vertex -38.4453 -40.3355 -106.1992
        vertex -38.4529 -40.5821 -106.3446
        vertex -38.4818 -40.8796 -106.4589
    endloop
endfacet
facet normal -2.3426 0.5186 -0.7566
    outer loop
        vertex -38.4818 -40.8796 -106.4589
        vertex -38.6956 -40.7503 -105.7083
        vertex -38.4453 -40.3355 -106.1992
    endloop
endfacet
facet normal -1.8186 0.4026 -0.5873
    outer loop
        vertex -39.5453 -43.1730 -104.7381
        vertex -39.3030 -42.7738 -105.2148
        vertex -39.4429 -43.3922 -105.2053
    endloop
endfacet
facet normal -0.1010 0.0224 -0.0326
    outer loop
        vertex -39.4429 -43.3922 -105.2053
        vertex -39.5051 -43.3100 -104.9563
        vertex -39.5453 -43.1730 -104.7381
    endloop
endfacet
facet normal -1.5239 0.3373 -0.4921
    outer loop
        vertex -39.0582 -42.5586 -105.8252
        vertex -38.9557 -42.1946 -105.8930
        vertex -38.7350 -42.1791 -106.5657
    endloop
endfacet
facet normal -1.1062 0.2449 -0.3573
    outer loop
        vertex -38.7350 -42.1791 -106.5657
        vertex -38.7910 -42.4217 -106.5586
        vertex -39.0582 -42.5586 -105.8252
    endloop
endfacet
facet normal -0.0965 0.0214 -0.0312
    outer loop
        vertex -39.2610 -43.3923 -105.7686
        vertex -39.3562 -43.4197 -105.4925
        vertex -39.4429 -43.3922 -105.2053
    endloop
endfacet
facet normal -1.9294 0.4271 -0.6231
    outer loop
        vertex -39.4429 -43.3922 -105.2053
        vertex -39.2409 -42.8443 -105.4554
        vertex -39.2610 -43.3923 -105.7686
    endloop
endfacet
facet normal -2.3274 0.5152 -0.7516
    outer loop
        vertex -38.8384 -41.6584 -105.8888
        vertex -38.7399 -41.1182 -105.8235
        vertex -38.6143 -41.6507 -106.5773
    endloop
endfacet
facet normal -2.3075 0.5108 -0.7452
    outer loop
        vertex -38.9557 -42.1946 -105.8930
        vertex -38.8384 -41.6584 -105.8888
        vertex -38.6143 -41.6507 -106.5773
    endloop
endfacet
facet normal -2.2206 0.4915 -0.7172
    outer loop
        vertex -38.6143 -41.6507 -106.5773
        vertex -38.7350 -42.1791 -106.5657
        vertex -38.9557 -42.1946 -105.8930
    endloop
endfacet
facet normal -0.9340 0.2067 -0.3016
    outer loop
        vertex -39.4429 -43.3922 -105.2053
        vertex -39.3030 -42.7738 -105.2148
        vertex -39.2409 -42.8443 -105.4554
    endloop
endfacet
facet normal -0.3078 0.0681 -0.0994
    outer loop
        vertex -38.9379 -40.1435 -104.5424
        vertex -38.8429 -40.0069 -104.7430
        vertex -38.6499 -39.8970 -105.2650
    endloop
endfacet
facet normal -2.5808 0.5713 -0.8335
    outer loop
        vertex -38.6499 -39.8970 -105.2650
        vertex -38.8541 -40.5349 -105.0702
        vertex -38.9379 -40.1435 -104.5424
    endloop
endfacet
facet normal -0.9045 0.2002 -0.2921
    outer loop
        vertex -39.2610 -43.3923 -105.7686
        vertex -39.2409 -42.8443 -105.4554
        vertex -39.1530 -42.7739 -105.6792
    endloop
endfacet
facet normal -1.1636 0.2576 -0.3758
    outer loop
        vertex -38.8541 -40.5349 -105.0702
        vertex -38.6499 -39.8970 -105.2650
        vertex -38.5645 -39.9244 -105.5484
    endloop
endfacet
facet normal -0.6727 0.1489 -0.2172
    outer loop
        vertex -38.5645 -39.9244 -105.5484
        vertex -38.7637 -40.4645 -105.3016
        vertex -38.8541 -40.5349 -105.0702
    endloop
endfacet
facet normal -0.8950 0.1981 -0.2891
    outer loop
        vertex -38.7041 -40.5350 -105.5346
        vertex -38.7637 -40.4645 -105.3016
        vertex -38.5645 -39.9244 -105.5484
    endloop
endfacet
facet normal -0.2868 0.0635 -0.0926
    outer loop
        vertex -40.1081 -40.6949 -101.2969
        vertex -40.0838 -40.3347 -101.1252
        vertex -40.0131 -39.8964 -101.0436
    endloop
endfacet
facet normal -3.4430 0.7621 -1.1119
    outer loop
        vertex -40.0131 -39.8964 -101.0436
        vertex -39.8615 -40.4953 -101.9235
        vertex -40.1081 -40.6949 -101.2969
    endloop
endfacet
facet normal -1.8981 0.4202 -0.6130
    outer loop
        vertex -39.9801 -41.4974 -102.2433
        vertex -39.7366 -41.1413 -102.7532
        vertex -39.6700 -41.4466 -103.1688
    endloop
endfacet
facet normal -2.6063 0.5769 -0.8417
    outer loop
        vertex -39.6700 -41.4466 -103.1688
        vertex -39.9100 -41.9202 -102.7502
        vertex -39.9801 -41.4974 -102.2433
    endloop
endfacet
facet normal -0.9152 0.2026 -0.2956
    outer loop
        vertex -40.4596 -43.3370 -102.0195
        vertex -40.5047 -43.2313 -101.8072
        vertex -40.3000 -42.6638 -102.0522
    endloop
endfacet
facet normal -0.7643 0.1692 -0.2468
    outer loop
        vertex -40.3000 -42.6638 -102.0522
        vertex -40.2710 -42.7890 -102.2278
        vertex -40.4596 -43.3370 -102.0195
    endloop
endfacet
facet normal -1.5761 0.3489 -0.5090
    outer loop
        vertex -39.6700 -41.4466 -103.1688
        vertex -39.6475 -41.7207 -103.4263
        vertex -39.9119 -42.1198 -102.8811
    endloop
endfacet
facet normal -0.9097 0.2014 -0.2938
    outer loop
        vertex -39.9119 -42.1198 -102.8811
        vertex -39.9100 -41.9202 -102.7502
        vertex -39.6700 -41.4466 -103.1688
    endloop
endfacet
facet normal -0.8431 0.1866 -0.2723
    outer loop
        vertex -40.0580 -42.6952 -102.8231
        vertex -39.9910 -42.5269 -102.9150
        vertex -39.8303 -42.7736 -103.5818
    endloop
endfacet
facet normal -1.7564 0.3888 -0.5672
    outer loop
        vertex -39.8303 -42.7736 -103.5818
        vertex -39.9763 -43.1219 -103.3683
        vertex -40.0580 -42.6952 -102.8231
    endloop
endfacet
facet normal -2.1399 0.4737 -0.6911
    outer loop
        vertex -40.0251 -41.3604 -102.0099
        vertex -40.0893 -41.0237 -101.5804
        vertex -39.8615 -40.4953 -101.9235
    endloop
endfacet
facet normal -0.8072 0.1787 -0.2607
    outer loop
        vertex -39.8615 -40.4953 -101.9235
        vertex -39.8496 -40.6871 -102.0920
        vertex -40.0251 -41.3604 -102.0099
    endloop
endfacet
facet normal -1.3191 0.2920 -0.4260
    outer loop
        vertex -39.9119 -42.1198 -102.8811
        vertex -39.6475 -41.7207 -103.4263
        vertex -39.6634 -42.0025 -103.5701
    endloop
endfacet
facet normal -1.4792 0.3274 -0.4777
    outer loop
        vertex -39.6634 -42.0025 -103.5701
        vertex -39.7166 -42.3352 -103.6335
        vertex -39.9119 -42.1198 -102.8811
    endloop
endfacet
facet normal -0.8650 0.1915 -0.2793
    outer loop
        vertex -39.9384 -42.3194 -102.9359
        vertex -39.9119 -42.1198 -102.8811
        vertex -39.7166 -42.3352 -103.6335
    endloop
endfacet
facet normal -1.9164 0.4242 -0.6189
    outer loop
        vertex -39.7166 -42.3352 -103.6335
        vertex -39.8303 -42.7736 -103.5818
        vertex -39.9384 -42.3194 -102.9359
    endloop
endfacet
facet normal -0.8967 0.1985 -0.2896
    outer loop
        vertex -39.8303 -42.7736 -103.5818
        vertex -39.9910 -42.5269 -102.9150
        vertex -39.9384 -42.3194 -102.9359
    endloop
endfacet
facet normal -1.8641 0.4126 -0.6020
    outer loop
        vertex -40.2059 -42.8321 -102.4589
        vertex -40.3101 -43.4192 -102.5387
        vertex -40.4596 -43.3370 -102.0195
    endloop
endfacet
facet normal -0.8477 0.1877 -0.2738
    outer loop
        vertex -40.4596 -43.3370 -102.0195
        vertex -40.2710 -42.7890 -102.2278
        vertex -40.2059 -42.8321 -102.4589
    endloop
endfacet
facet normal -1.0525 0.2330 -0.3399
    outer loop
        vertex -39.9801 -41.4974 -102.2433
        vertex -40.0251 -41.3604 -102.0099
        vertex -39.8496 -40.6871 -102.0920
    endloop
endfacet
facet normal -1.6497 0.3652 -0.5328
    outer loop
        vertex -39.8496 -40.6871 -102.0920
        vertex -39.7866 -40.9494 -102.4667
        vertex -39.9801 -41.4974 -102.2433
    endloop
endfacet
facet normal -8.9613 1.9836 -2.8941
    outer loop
        vertex -39.8615 -40.4953 -101.9235
        vertex -40.0131 -39.8964 -101.0436
        vertex -39.2400 -39.8967 -103.4379
    endloop
endfacet
facet normal -5.8127 1.2867 -1.8773
    outer loop
        vertex -39.2400 -39.8967 -103.4379
        vertex -39.3600 -40.4956 -103.4766
        vertex -39.8615 -40.4953 -101.9235
    endloop
endfacet
facet normal -1.2489 0.2764 -0.4033
    outer loop
        vertex -39.9801 -41.4974 -102.2433
        vertex -39.7866 -40.9494 -102.4667
        vertex -39.7366 -41.1413 -102.7532
    endloop
endfacet
facet normal -2.0769 0.4597 -0.6707
    outer loop
        vertex -40.5300 -42.6950 -101.3614
        vertex -40.4478 -42.1626 -101.2509
        vertex -40.2462 -42.1627 -101.8752
    endloop
endfacet
facet normal -1.1323 0.2506 -0.3657
    outer loop
        vertex -40.2462 -42.1627 -101.8752
        vertex -40.2928 -42.4563 -101.9322
        vertex -40.5300 -42.6950 -101.3614
    endloop
endfacet
facet normal -0.9522 0.2108 -0.3075
    outer loop
        vertex -40.3000 -42.6638 -102.0522
        vertex -40.5400 -42.9103 -101.4781
        vertex -40.5300 -42.6950 -101.3614
    endloop
endfacet
facet normal -0.9191 0.2034 -0.2968
    outer loop
        vertex -40.5300 -42.6950 -101.3614
        vertex -40.2928 -42.4563 -101.9322
        vertex -40.3000 -42.6638 -102.0522
    endloop
endfacet
facet normal -0.7979 0.1766 -0.2577
    outer loop
        vertex -40.2059 -42.8321 -102.4589
        vertex -40.1300 -42.7969 -102.6698
        vertex -40.1403 -43.3449 -103.0135
    endloop
endfacet
facet normal -1.7794 0.3939 -0.5747
    outer loop
        vertex -40.1403 -43.3449 -103.0135
        vertex -40.3101 -43.4192 -102.5387
        vertex -40.2059 -42.8321 -102.4589
    endloop
endfacet
facet normal -1.6945 0.3751 -0.5472
    outer loop
        vertex -39.9763 -43.1219 -103.3683
        vertex -40.1403 -43.3449 -103.0135
        vertex -40.1300 -42.7969 -102.6698
    endloop
endfacet
facet normal -0.7556 0.1672 -0.2440
    outer loop
        vertex -40.1300 -42.7969 -102.6698
        vertex -40.0580 -42.6952 -102.8231
        vertex -39.9763 -43.1219 -103.3683
    endloop
endfacet
facet normal -1.6587 0.3672 -0.5357
    outer loop
        vertex -40.5400 -42.9103 -101.4781
        vertex -40.3000 -42.6638 -102.0522
        vertex -40.5047 -43.2313 -101.8072
    endloop
endfacet
facet normal -0.0645 0.0143 -0.0208
    outer loop
        vertex -40.5047 -43.2313 -101.8072
        vertex -40.5310 -43.0864 -101.6265
        vertex -40.5400 -42.9103 -101.4781
    endloop
endfacet
facet normal -1.6413 0.3633 -0.5301
    outer loop
        vertex -40.0893 -41.0237 -101.5804
        vertex -40.1081 -40.6949 -101.2969
        vertex -39.8615 -40.4953 -101.9235
    endloop
endfacet
facet normal -2.1247 0.4171 -0.4603
    outer loop
        vertex -41.0679 -44.7114 -101.0794
        vertex -41.2095 -43.4226 -99.2580
        vertex -41.1499 -43.4444 -99.5526
    endloop
endfacet
facet normal -2.5601 0.5023 -0.5544
    outer loop
        vertex -41.0679 -44.7114 -101.0794
        vertex -41.1499 -43.4444 -99.5526
        vertex -41.0821 -43.4113 -99.8361
    endloop
endfacet
facet normal -61.1415 11.9931 -13.2389
    outer loop
        vertex -41.0679 -44.7114 -101.0794
        vertex -42.6955 -44.8562 -93.6937
        vertex -41.2095 -43.4226 -99.2580
    endloop
endfacet
facet normal -4.9831 0.9763 -1.0793
    outer loop
        vertex -41.2495 -43.3450 -99.0032
        vertex -41.2095 -43.4226 -99.2580
        vertex -42.6955 -44.8562 -93.6937
    endloop
endfacet
facet normal -9.9997 1.9588 -2.1659
    outer loop
        vertex -42.6955 -44.8562 -93.6937
        vertex -41.6131 -43.4853 -97.4514
        vertex -41.2495 -43.3450 -99.0032
    endloop
endfacet
facet normal -7.2857 1.4272 -1.5781
    outer loop
        vertex -42.6955 -44.8562 -93.6937
        vertex -41.8111 -43.5028 -96.5532
        vertex -41.6131 -43.4853 -97.4514
    endloop
endfacet
facet normal -49.6689 9.7295 -10.7582
    outer loop
        vertex -42.6955 -44.8562 -93.6937
        vertex -41.7189 -41.4156 -95.0911
        vertex -41.8111 -43.5028 -96.5532
    endloop
endfacet
facet normal -62.9696 12.3350 -13.6390
    outer loop
        vertex -41.7189 -41.4156 -95.0911
        vertex -42.6955 -44.8562 -93.6937
        vertex -41.5458 -38.5715 -93.3179
    endloop
endfacet
facet normal -6.3364 1.2412 -1.3724
    outer loop
        vertex -41.5458 -38.5715 -93.3179
        vertex -41.6032 -40.7832 -95.0533
        vertex -41.7189 -41.4156 -95.0911
    endloop
endfacet
facet normal -21.3761 4.1874 -4.6300
    outer loop
        vertex -41.2675 -40.7535 -96.5764
        vertex -41.6032 -40.7832 -95.0533
        vertex -41.5458 -38.5715 -93.3179
    endloop
endfacet
facet normal -15.4352 3.0236 -3.3433
    outer loop
        vertex -41.5458 -38.5715 -93.3179
        vertex -41.1230 -39.9640 -96.5292
        vertex -41.2675 -40.7535 -96.5764
    endloop
endfacet
facet normal -6.4640 1.2662 -1.4001
    outer loop
        vertex -40.9664 -39.9502 -97.2400
        vertex -41.1230 -39.9640 -96.5292
        vertex -41.5458 -38.5715 -93.3179
    endloop
endfacet
facet normal -11.5223 2.2571 -2.4957
    outer loop
        vertex -40.9664 -39.9502 -97.2400
        vertex -41.5458 -38.5715 -93.3179
        vertex -40.6431 -40.0302 -98.8049
    endloop
endfacet
facet normal -1.4850 0.2909 -0.3217
    outer loop
        vertex -40.6431 -40.0302 -98.8049
        vertex -40.7155 -40.1715 -98.5983
        vertex -40.9664 -39.9502 -97.2400
    endloop
endfacet
facet normal -1.8841 0.3691 -0.4081
    outer loop
        vertex -40.9664 -39.9502 -97.2400
        vertex -40.7155 -40.1715 -98.5983
        vertex -40.7886 -40.3673 -98.4380
    endloop
endfacet
facet normal -4.6271 0.9064 -1.0022
    outer loop
        vertex -40.7886 -40.3673 -98.4380
        vertex -41.0178 -40.7315 -97.7090
        vertex -40.9664 -39.9502 -97.2400
    endloop
endfacet
facet normal -2.0838 0.4082 -0.4513
    outer loop
        vertex -41.0178 -40.7315 -97.7090
        vertex -41.1108 -40.7397 -97.2873
        vertex -40.9664 -39.9502 -97.2400
    endloop
endfacet
facet normal -0.8706 0.1706 -0.1886
    outer loop
        vertex -41.0178 -40.7315 -97.7090
        vertex -40.7886 -40.3673 -98.4380
        vertex -40.8631 -40.6173 -98.3200
    endloop
endfacet
facet normal -1.1054 0.2165 -0.2394
    outer loop
        vertex -41.0178 -40.7315 -97.7090
        vertex -40.8631 -40.6173 -98.3200
        vertex -40.9400 -40.9217 -98.2405
    endloop
endfacet
facet normal -1.8639 0.3651 -0.4037
    outer loop
        vertex -40.9400 -40.9217 -98.2405
        vertex -41.1227 -41.3050 -97.7433
        vertex -41.0178 -40.7315 -97.7090
    endloop
endfacet
facet normal -0.7368 0.1443 -0.1596
    outer loop
        vertex -41.1227 -41.3050 -97.7433
        vertex -40.9400 -40.9217 -98.2405
        vertex -40.9897 -41.1657 -98.2316
    endloop
endfacet
facet normal -1.6199 0.3173 -0.3509
    outer loop
        vertex -40.9897 -41.1657 -98.2316
        vertex -41.0978 -41.7008 -98.2167
        vertex -41.1227 -41.3050 -97.7433
    endloop
endfacet
facet normal -1.9967 0.3911 -0.4325
    outer loop
        vertex -41.1227 -41.3050 -97.7433
        vertex -41.0978 -41.7008 -98.2167
        vertex -41.2238 -42.4732 -98.3332
    endloop
endfacet
facet normal -3.1101 0.6092 -0.6737
    outer loop
        vertex -41.2238 -42.4732 -98.3332
        vertex -41.2157 -41.3132 -97.3215
        vertex -41.1227 -41.3050 -97.7433
    endloop
endfacet
facet normal -12.7930 2.5060 -2.7709
    outer loop
        vertex -41.6131 -43.4853 -97.4514
        vertex -41.2157 -41.3132 -97.3215
        vertex -41.2238 -42.4732 -98.3332
    endloop
endfacet
facet normal -2.4116 0.4724 -0.5223
    outer loop
        vertex -41.2238 -42.4732 -98.3332
        vertex -41.2583 -42.7777 -98.4492
        vertex -41.6131 -43.4853 -97.4514
    endloop
endfacet
facet normal -2.1797 0.4270 -0.4721
    outer loop
        vertex -41.6131 -43.4853 -97.4514
        vertex -41.2583 -42.7777 -98.4492
        vertex -41.2743 -43.0226 -98.5968
    endloop
endfacet
facet normal -1.8841 0.3691 -0.4081
    outer loop
        vertex -41.6131 -43.4853 -97.4514
        vertex -41.2743 -43.0226 -98.5968
        vertex -41.2717 -43.2117 -98.7801
    endloop
endfacet
facet normal -1.4884 0.2915 -0.3224
    outer loop
        vertex -41.6131 -43.4853 -97.4514
        vertex -41.2717 -43.2117 -98.7801
        vertex -41.2495 -43.3450 -99.0032
    endloop
endfacet
facet normal -9.5170 1.8643 -2.0614
    outer loop
        vertex -41.6506 -42.8665 -96.7184
        vertex -41.5828 -41.3340 -95.6454
        vertex -41.3668 -41.3149 -96.6257
    endloop
endfacet
facet normal -2.6868 0.5208 -0.5815
    outer loop
        vertex -40.4446 -39.9311 -99.6319
        vertex -40.5032 -39.9093 -99.3412
        vertex -40.1683 -38.4482 -99.5804
    endloop
endfacet
facet normal -80.9931 17.9012 -26.1879
    outer loop
        vertex -40.1683 -38.4482 -99.5804
        vertex -37.4623 -38.4492 -107.9501
        vertex -40.3907 -39.9965 -99.9509
    endloop
endfacet
facet normal -61.3231 11.9078 -13.2546
    outer loop
        vertex -40.6431 -40.0302 -98.8049
        vertex -41.5458 -38.5715 -93.3179
        vertex -40.1683 -38.4482 -99.5804
    endloop
endfacet
facet normal -4.7163 0.9136 -1.0239
    outer loop
        vertex -40.1683 -38.4482 -99.5804
        vertex -40.5032 -39.9093 -99.3412
        vertex -40.6431 -40.0302 -98.8049
    endloop
endfacet
facet normal -5.5595 1.1232 -1.8180
    outer loop
        vertex -37.4623 -38.4492 -107.9501
        vertex -40.0131 -39.8964 -101.0436
        vertex -40.3907 -39.9965 -99.9509
    endloop
endfacet
facet normal -2.9362 0.5683 -0.6124
    outer loop
        vertex -40.3907 -39.9965 -99.9509
        vertex -40.4446 -39.9311 -99.6319
        vertex -40.1683 -38.4482 -99.5804
    endloop
endfacet
facet normal -1.1044 0.2301 -0.3605
    outer loop
        vertex -40.3662 -40.1428 -100.1194
        vertex -40.3907 -39.9965 -99.9509
        vertex -40.0131 -39.8964 -101.0436
    endloop
endfacet
facet normal -2.6581 0.5884 -0.8585
    outer loop
        vertex -40.0131 -39.8964 -101.0436
        vertex -40.0838 -40.3347 -101.1252
        vertex -40.3662 -40.1428 -100.1194
    endloop
endfacet
facet normal -0.9901 0.2192 -0.3198
    outer loop
        vertex -40.0838 -40.3347 -101.1252
        vertex -40.3505 -40.3346 -100.2992
        vertex -40.3662 -40.1428 -100.1194
    endloop
endfacet
facet normal -1.2730 0.2818 -0.4111
    outer loop
        vertex -40.3582 -40.5812 -100.4446
        vertex -40.3505 -40.3346 -100.2992
        vertex -40.0838 -40.3347 -101.1252
    endloop
endfacet
facet normal -1.7965 0.3977 -0.5802
    outer loop
        vertex -40.0838 -40.3347 -101.1252
        vertex -40.1081 -40.6949 -101.2969
        vertex -40.3582 -40.5812 -100.4446
    endloop
endfacet
facet normal -1.5036 0.3328 -0.4856
    outer loop
        vertex -40.3871 -40.8787 -100.5590
        vertex -40.3582 -40.5812 -100.4446
        vertex -40.1081 -40.6949 -101.2969
    endloop
endfacet
facet normal -1.8424 0.4078 -0.5950
    outer loop
        vertex -40.1081 -40.6949 -101.2969
        vertex -40.0893 -41.0237 -101.5804
        vertex -40.3871 -40.8787 -100.5590
    endloop
endfacet
facet normal -4.8156 1.0660 -1.5553
    outer loop
        vertex -40.5196 -41.6498 -100.6773
        vertex -40.3871 -40.8787 -100.5590
        vertex -40.0893 -41.0237 -101.5804
    endloop
endfacet
facet normal -5.1396 1.1377 -1.6599
    outer loop
        vertex -40.0893 -41.0237 -101.5804
        vertex -40.4478 -42.1626 -101.2509
        vertex -40.5196 -41.6498 -100.6773
    endloop
endfacet
facet normal -4.4439 0.9837 -1.4352
    outer loop
        vertex -40.2462 -42.1627 -101.8752
        vertex -40.4478 -42.1626 -101.2509
        vertex -40.0893 -41.0237 -101.5804
    endloop
endfacet
facet normal -2.4368 0.5394 -0.7870
    outer loop
        vertex -40.0893 -41.0237 -101.5804
        vertex -40.0251 -41.3604 -102.0099
        vertex -40.2462 -42.1627 -101.8752
    endloop
endfacet
facet normal -0.5331 0.1180 -0.1721
    outer loop
        vertex -40.2928 -42.4563 -101.9322
        vertex -40.2462 -42.1627 -101.8752
        vertex -40.0251 -41.3604 -102.0099
    endloop
endfacet
facet normal -1.6654 0.3687 -0.5379
    outer loop
        vertex -40.0251 -41.3604 -102.0099
        vertex -39.9801 -41.4974 -102.2433
        vertex -40.2928 -42.4563 -101.9322
    endloop
endfacet
facet normal -1.1225 0.2485 -0.3625
    outer loop
        vertex -40.3000 -42.6638 -102.0522
        vertex -40.2928 -42.4563 -101.9322
        vertex -39.9801 -41.4974 -102.2433
    endloop
endfacet
facet normal -4.2003 0.9298 -1.3565
    outer loop
        vertex -39.9801 -41.4974 -102.2433
        vertex -39.9100 -41.9202 -102.7502
        vertex -40.3000 -42.6638 -102.0522
    endloop
endfacet
facet normal -1.3625 0.3016 -0.4400
    outer loop
        vertex -40.2710 -42.7890 -102.2278
        vertex -40.3000 -42.6638 -102.0522
        vertex -39.9100 -41.9202 -102.7502
    endloop
endfacet
facet normal -1.3627 0.3016 -0.4401
    outer loop
        vertex -39.9100 -41.9202 -102.7502
        vertex -39.9119 -42.1198 -102.8811
        vertex -40.2710 -42.7890 -102.2278
    endloop
endfacet
facet normal -1.1428 0.2530 -0.3691
    outer loop
        vertex -40.2059 -42.8321 -102.4589
        vertex -40.2710 -42.7890 -102.2278
        vertex -39.9119 -42.1198 -102.8811
    endloop
endfacet
facet normal -0.7705 0.1706 -0.2489
    outer loop
        vertex -39.9119 -42.1198 -102.8811
        vertex -39.9384 -42.3194 -102.9359
        vertex -40.2059 -42.8321 -102.4589
    endloop
endfacet
facet normal -0.5708 0.1264 -0.1843
    outer loop
        vertex -40.1300 -42.7969 -102.6698
        vertex -40.2059 -42.8321 -102.4589
        vertex -39.9384 -42.3194 -102.9359
    endloop
endfacet
facet normal -0.2827 0.0626 -0.0913
    outer loop
        vertex -39.9384 -42.3194 -102.9359
        vertex -39.9910 -42.5269 -102.9150
        vertex -40.1300 -42.7969 -102.6698
    endloop
endfacet
facet normal -0.1028 0.0228 -0.0332
    outer loop
        vertex -40.1300 -42.7969 -102.6698
        vertex -39.9910 -42.5269 -102.9150
        vertex -40.0580 -42.6952 -102.8231
    endloop
endfacet
facet normal -1.9314 0.4275 -0.6238
    outer loop
        vertex -40.6403 -42.1782 -100.6657
        vertex -40.5196 -41.6498 -100.6773
        vertex -40.4478 -42.1626 -101.2509
    endloop
endfacet
facet normal -0.8869 0.1963 -0.2864
    outer loop
        vertex -40.6963 -42.4209 -100.6586
        vertex -40.6403 -42.1782 -100.6657
        vertex -40.4478 -42.1626 -101.2509
    endloop
endfacet
facet normal -2.1491 0.4757 -0.6941
    outer loop
        vertex -40.4478 -42.1626 -101.2509
        vertex -40.5300 -42.6950 -101.3614
        vertex -40.6963 -42.4209 -100.6586
    endloop
endfacet
facet normal -1.4157 0.3192 -0.4595
    outer loop
        vertex -40.7821 -42.7215 -100.6031
        vertex -40.6963 -42.4209 -100.6586
        vertex -40.5300 -42.6950 -101.3614
    endloop
endfacet
facet normal -1.0397 0.2311 -0.3376
    outer loop
        vertex -40.5300 -42.6950 -101.3614
        vertex -40.5400 -42.9103 -101.4781
        vertex -40.7821 -42.7215 -100.6031
    endloop
endfacet
facet normal -0.7883 0.1757 -0.2560
    outer loop
        vertex -40.7821 -42.7215 -100.6031
        vertex -40.5400 -42.9103 -101.4781
        vertex -40.5310 -43.0864 -101.6265
    endloop
endfacet
facet normal -11.6420 2.5756 -3.7745
    outer loop
        vertex -40.7821 -42.7215 -100.6031
        vertex -40.5310 -43.0864 -101.6265
        vertex -41.0679 -44.7114 -101.0794
    endloop
endfacet
facet normal -2.6604 0.5165 -0.5616
    outer loop
        vertex -41.0679 -44.7114 -101.0794
        vertex -40.8647 -42.9825 -100.4517
        vertex -40.7821 -42.7215 -100.6031
    endloop
endfacet
facet normal -2.3300 0.5163 -0.7529
    outer loop
        vertex -40.5310 -43.0864 -101.6265
        vertex -40.5047 -43.2313 -101.8072
        vertex -41.0679 -44.7114 -101.0794
    endloop
endfacet
facet normal -2.5420 0.4984 -0.5500
    outer loop
        vertex -41.0679 -44.7114 -101.0794
        vertex -40.9386 -43.1780 -100.2874
        vertex -40.8647 -42.9825 -100.4517
    endloop
endfacet
facet normal -2.4456 0.5420 -0.7901
    outer loop
        vertex -40.5047 -43.2313 -101.8072
        vertex -40.4596 -43.3370 -102.0195
        vertex -41.0679 -44.7114 -101.0794
    endloop
endfacet
facet normal -2.6450 0.5187 -0.5725
    outer loop
        vertex -41.0679 -44.7114 -101.0794
        vertex -41.0103 -43.3200 -100.0848
        vertex -40.9386 -43.1780 -100.2874
    endloop
endfacet
facet normal -4.9434 1.0958 -1.5968
    outer loop
        vertex -40.4596 -43.3370 -102.0195
        vertex -40.3101 -43.4192 -102.5387
        vertex -41.0679 -44.7114 -101.0794
    endloop
endfacet
facet normal -2.7307 0.5357 -0.5912
    outer loop
        vertex -41.0679 -44.7114 -101.0794
        vertex -41.0821 -43.4113 -99.8361
        vertex -41.0103 -43.3200 -100.0848
    endloop
endfacet
facet normal -58.7596 13.0245 -18.9809
    outer loop
        vertex -40.3101 -43.4192 -102.5387
        vertex -38.7179 -44.7117 -108.3547
        vertex -41.0679 -44.7114 -101.0794
    endloop
endfacet
facet normal -0.2108 0.0413 -0.0457
    outer loop
        vertex -40.9797 -42.7917 -99.7482
        vertex -41.0443 -42.8670 -99.5181
        vertex -41.0848 -42.8010 -99.2717
    endloop
endfacet
facet normal -0.6441 0.1262 -0.1395
    outer loop
        vertex -41.0848 -42.8010 -99.2717
        vertex -41.0805 -42.5881 -99.0987
        vertex -40.9797 -42.7917 -99.7482
    endloop
endfacet
facet normal -1.0823 0.2120 -0.2344
    outer loop
        vertex -40.9041 -42.5725 -99.8993
        vertex -40.9797 -42.7917 -99.7482
        vertex -41.0805 -42.5881 -99.0987
    endloop
endfacet
facet normal -1.8301 0.3585 -0.3964
    outer loop
        vertex -41.0805 -42.5881 -99.0987
        vertex -41.0335 -42.2245 -98.9870
        vertex -40.9041 -42.5725 -99.8993
    endloop
endfacet
facet normal -2.2496 0.4407 -0.4873
    outer loop
        vertex -40.8166 -42.2054 -99.9712
        vertex -40.9041 -42.5725 -99.8993
        vertex -41.0335 -42.2245 -98.9870
    endloop
endfacet
facet normal -3.3140 0.6492 -0.7178
    outer loop
        vertex -41.0335 -42.2245 -98.9870
        vertex -40.9419 -41.6870 -98.9236
        vertex -40.8166 -42.2054 -99.9712
    endloop
endfacet
facet normal -3.5244 0.6904 -0.7634
    outer loop
        vertex -40.7112 -41.6666 -99.9702
        vertex -40.8166 -42.2054 -99.9712
        vertex -40.9419 -41.6870 -98.9236
    endloop
endfacet
facet normal -3.5758 0.7004 -0.7745
    outer loop
        vertex -40.9419 -41.6870 -98.9236
        vertex -40.8352 -41.1404 -98.9222
        vertex -40.7112 -41.6666 -99.9702
    endloop
endfacet
facet normal -3.3374 0.6538 -0.7229
    outer loop
        vertex -40.6190 -41.1252 -99.9066
        vertex -40.7112 -41.6666 -99.9702
        vertex -40.8352 -41.1404 -98.9222
    endloop
endfacet
facet normal -2.2760 0.4458 -0.4930
    outer loop
        vertex -40.8352 -41.1404 -98.9222
        vertex -40.7478 -40.7695 -98.9899
        vertex -40.6190 -41.1252 -99.9066
    endloop
endfacet
facet normal -1.8474 0.3619 -0.4001
    outer loop
        vertex -40.5721 -40.7578 -99.7908
        vertex -40.6190 -41.1252 -99.9066
        vertex -40.7478 -40.7695 -98.9899
    endloop
endfacet
facet normal -1.0666 0.2089 -0.2310
    outer loop
        vertex -40.7478 -40.7695 -98.9899
        vertex -40.6737 -40.5542 -99.1374
        vertex -40.5721 -40.7578 -99.7908
    endloop
endfacet
facet normal -0.6441 0.1262 -0.1395
    outer loop
        vertex -40.5687 -40.5449 -99.6138
        vertex -40.5721 -40.7578 -99.7908
        vertex -40.6737 -40.5542 -99.1374
    endloop
endfacet
facet normal -0.2108 0.0413 -0.0457
    outer loop
        vertex -40.6737 -40.5542 -99.1374
        vertex -40.6074 -40.4788 -99.3753
        vertex -40.5687 -40.5449 -99.6138
    endloop
endfacet
facet normal -21.6711 4.7972 -6.9989
    outer loop
        vertex -39.2400 -39.8967 -103.4379
        vertex -40.0131 -39.8964 -101.0436
        vertex -37.4623 -38.4492 -107.9501
    endloop
endfacet
facet normal -14.9146 3.3014 -4.8168
    outer loop
        vertex -38.8429 -40.0069 -104.7430
        vertex -39.2400 -39.8967 -103.4379
        vertex -37.4623 -38.4492 -107.9501
    endloop
endfacet
facet normal -2.8789 0.6373 -0.9297
    outer loop
        vertex -37.4623 -38.4492 -107.9501
        vertex -38.6499 -39.8970 -105.2650
        vertex -38.8429 -40.0069 -104.7430
    endloop
endfacet
facet normal -3.0253 0.6697 -0.9771
    outer loop
        vertex -38.5645 -39.9244 -105.5484
        vertex -38.6499 -39.8970 -105.2650
        vertex -37.4623 -38.4492 -107.9501
    endloop
endfacet
facet normal -3.5707 0.7904 -1.1532
    outer loop
        vertex -38.5011 -40.0070 -105.8012
        vertex -38.5645 -39.9244 -105.5484
        vertex -37.4623 -38.4492 -107.9501
    endloop
endfacet
facet normal -3.9594 0.8764 -1.2788
    outer loop
        vertex -38.4609 -40.1437 -106.0193
        vertex -38.5011 -40.0070 -105.8012
        vertex -37.4623 -38.4492 -107.9501
    endloop
endfacet
facet normal -4.2197 0.9340 -1.3628
    outer loop
        vertex -38.4453 -40.3355 -106.1992
        vertex -38.4609 -40.1437 -106.0193
        vertex -37.4623 -38.4492 -107.9501
    endloop
endfacet
facet normal -4.4123 0.9767 -1.4250
    outer loop
        vertex -38.4529 -40.5821 -106.3446
        vertex -38.4453 -40.3355 -106.1992
        vertex -37.4623 -38.4492 -107.9501
    endloop
endfacet
facet normal -4.5100 0.9983 -1.4565
    outer loop
        vertex -38.4818 -40.8796 -106.4589
        vertex -38.4529 -40.5821 -106.3446
        vertex -37.4623 -38.4492 -107.9501
    endloop
endfacet
facet normal -8.9838 1.9886 -2.9014
    outer loop
        vertex -38.6143 -41.6507 -106.5773
        vertex -38.4818 -40.8796 -106.4589
        vertex -37.4623 -38.4492 -107.9501
    endloop
endfacet
facet normal -61.8296 13.6864 -19.9685
    outer loop
        vertex -37.4623 -38.4492 -107.9501
        vertex -38.7179 -44.7117 -108.3547
        vertex -38.6143 -41.6507 -106.5773
    endloop
endfacet
facet normal -6.0907 1.3482 -1.9670
    outer loop
        vertex -38.7179 -44.7117 -108.3547
        vertex -38.7350 -42.1791 -106.5657
        vertex -38.6143 -41.6507 -106.5773
    endloop
endfacet
facet normal -2.8267 0.6257 -0.9129
    outer loop
        vertex -38.7179 -44.7117 -108.3547
        vertex -38.7910 -42.4217 -106.5586
        vertex -38.7350 -42.1791 -106.5657
    endloop
endfacet
facet normal -4.5612 1.0097 -1.4731
    outer loop
        vertex -38.7179 -44.7117 -108.3547
        vertex -38.8842 -42.7270 -106.4793
        vertex -38.7910 -42.4217 -106.5586
    endloop
endfacet
facet normal -4.3406 0.9608 -1.4018
    outer loop
        vertex -38.7179 -44.7117 -108.3547
        vertex -38.9762 -42.9775 -106.3661
        vertex -38.8842 -42.7270 -106.4793
    endloop
endfacet
facet normal -4.1011 0.9078 -1.3245
    outer loop
        vertex -38.7179 -44.7117 -108.3547
        vertex -39.0699 -43.1689 -106.2072
        vertex -38.9762 -42.9775 -106.3661
    endloop
endfacet
facet normal -3.7401 0.8279 -1.2079
    outer loop
        vertex -38.7179 -44.7117 -108.3547
        vertex -39.1638 -43.3062 -106.0105
        vertex -39.0699 -43.1689 -106.2072
    endloop
endfacet
facet normal -3.3856 0.7494 -1.0934
    outer loop
        vertex -38.7179 -44.7117 -108.3547
        vertex -39.2610 -43.3923 -105.7686
        vertex -39.1638 -43.3062 -106.0105
    endloop
endfacet
facet normal -2.7191 0.6019 -0.8782
    outer loop
        vertex -38.7179 -44.7117 -108.3547
        vertex -39.3562 -43.4197 -105.4925
        vertex -39.2610 -43.3923 -105.7686
    endloop
endfacet
facet normal -1.8289 0.4048 -0.5906
    outer loop
        vertex -39.4429 -43.3922 -105.2053
        vertex -39.3562 -43.4197 -105.4925
        vertex -38.7179 -44.7117 -108.3547
    endloop
endfacet
facet normal -17.1442 3.7950 -5.5369
    outer loop
        vertex -38.7179 -44.7117 -108.3547
        vertex -40.1403 -43.3449 -103.0135
        vertex -39.4429 -43.3922 -105.2053
    endloop
endfacet
facet normal -6.5362 1.4468 -2.1109
    outer loop
        vertex -38.7179 -44.7117 -108.3547
        vertex -40.3101 -43.4192 -102.5387
        vertex -40.1403 -43.3449 -103.0135
    endloop
endfacet
facet normal -1.0529 0.2331 -0.3400
    outer loop
        vertex -39.4429 -43.3922 -105.2053
        vertex -40.1403 -43.3449 -103.0135
        vertex -39.5051 -43.3100 -104.9563
    endloop
endfacet
facet normal -1.7115 0.3788 -0.5528
    outer loop
        vertex -39.5453 -43.1730 -104.7381
        vertex -39.5051 -43.3100 -104.9563
        vertex -40.1403 -43.3449 -103.0135
    endloop
endfacet
facet normal -2.0229 0.4478 -0.6533
    outer loop
        vertex -40.1403 -43.3449 -103.0135
        vertex -39.9763 -43.1219 -103.3683
        vertex -39.5453 -43.1730 -104.7381
    endloop
endfacet
facet normal -1.5848 0.3508 -0.5118
    outer loop
        vertex -39.5609 -42.9812 -104.5583
        vertex -39.5453 -43.1730 -104.7381
        vertex -39.9763 -43.1219 -103.3683
    endloop
endfacet
facet normal -2.4027 0.5318 -0.7760
    outer loop
        vertex -39.9763 -43.1219 -103.3683
        vertex -39.8303 -42.7736 -103.5818
        vertex -39.5609 -42.9812 -104.5583
    endloop
endfacet
facet normal -1.3164 0.2914 -0.4251
    outer loop
        vertex -39.5532 -42.7346 -104.4129
        vertex -39.5609 -42.9812 -104.5583
        vertex -39.8303 -42.7736 -103.5818
    endloop
endfacet
facet normal -2.2644 0.5012 -0.7313
    outer loop
        vertex -39.8303 -42.7736 -103.5818
        vertex -39.7166 -42.3352 -103.6335
        vertex -39.5532 -42.7346 -104.4129
    endloop
endfacet
facet normal -1.2006 0.2658 -0.3878
    outer loop
        vertex -39.5228 -42.4292 -104.2980
        vertex -39.5532 -42.7346 -104.4129
        vertex -39.7166 -42.3352 -103.6335
    endloop
endfacet
facet normal -1.3447 0.2977 -0.4343
    outer loop
        vertex -39.7166 -42.3352 -103.6335
        vertex -39.6634 -42.0025 -103.5701
        vertex -39.5228 -42.4292 -104.2980
    endloop
endfacet
facet normal -3.1926 0.7067 -1.0311
    outer loop
        vertex -39.3903 -41.6581 -104.1797
        vertex -39.5228 -42.4292 -104.2980
        vertex -39.6634 -42.0025 -103.5701
    endloop
endfacet
facet normal -1.3834 0.3062 -0.4468
    outer loop
        vertex -39.6634 -42.0025 -103.5701
        vertex -39.6475 -41.7207 -103.4263
        vertex -39.3903 -41.6581 -104.1797
    endloop
endfacet
facet normal -2.5022 0.5539 -0.8081
    outer loop
        vertex -39.2688 -41.1258 -104.1910
        vertex -39.3903 -41.6581 -104.1797
        vertex -39.6475 -41.7207 -103.4263
    endloop
endfacet
facet normal -2.2670 0.5018 -0.7322
    outer loop
        vertex -39.6475 -41.7207 -103.4263
        vertex -39.6700 -41.4466 -103.1688
        vertex -39.2688 -41.1258 -104.1910
    endloop
endfacet
facet normal -1.5361 0.3400 -0.4961
    outer loop
        vertex -39.2128 -40.8832 -104.1982
        vertex -39.2688 -41.1258 -104.1910
        vertex -39.6700 -41.4466 -103.1688
    endloop
endfacet
facet normal -5.0350 1.1145 -1.6261
    outer loop
        vertex -39.6700 -41.4466 -103.1688
        vertex -39.3600 -40.4956 -103.4766
        vertex -39.2128 -40.8832 -104.1982
    endloop
endfacet
facet normal -3.0578 0.6769 -0.9875
    outer loop
        vertex -39.6700 -41.4466 -103.1688
        vertex -39.7366 -41.1413 -102.7532
        vertex -39.3600 -40.4956 -103.4766
    endloop
endfacet
facet normal -2.0233 0.4479 -0.6535
    outer loop
        vertex -39.3600 -40.4956 -103.4766
        vertex -39.7366 -41.1413 -102.7532
        vertex -39.7866 -40.9494 -102.4667
    endloop
endfacet
facet normal -2.7186 0.6018 -0.8780
    outer loop
        vertex -39.7866 -40.9494 -102.4667
        vertex -39.8496 -40.6871 -102.0920
        vertex -39.3600 -40.4956 -103.4766
    endloop
endfacet
facet normal -1.8616 0.4121 -0.6012
    outer loop
        vertex -39.8496 -40.6871 -102.0920
        vertex -39.8615 -40.4953 -101.9235
        vertex -39.3600 -40.4956 -103.4766
    endloop
endfacet
facet normal -1.5426 0.3415 -0.4982
    outer loop
        vertex -39.1216 -40.5818 -104.2739
        vertex -39.2128 -40.8832 -104.1982
        vertex -39.3600 -40.4956 -103.4766
    endloop
endfacet
facet normal -2.9633 0.6560 -0.9571
    outer loop
        vertex -39.3600 -40.4956 -103.4766
        vertex -39.2400 -39.8967 -103.4379
        vertex -39.1216 -40.5818 -104.2739
    endloop
endfacet
facet normal -1.7743 0.3927 -0.5730
    outer loop
        vertex -39.1216 -40.5818 -104.2739
        vertex -39.2400 -39.8967 -103.4379
        vertex -39.0304 -40.3352 -104.3874
    endloop
endfacet
facet normal -1.5631 0.3460 -0.5048
    outer loop
        vertex -39.0304 -40.3352 -104.3874
        vertex -39.2400 -39.8967 -103.4379
        vertex -38.9379 -40.1435 -104.5424
    endloop
endfacet
facet normal -1.2521 0.2772 -0.4044
    outer loop
        vertex -38.9379 -40.1435 -104.5424
        vertex -39.2400 -39.8967 -103.4379
        vertex -38.8429 -40.0069 -104.7430
    endloop
endfacet
facet normal -0.2045 0.0453 -0.0660
    outer loop
        vertex -39.1530 -42.7739 -105.6792
        vertex -39.2409 -42.8443 -105.4554
        vertex -39.3030 -42.7738 -105.2148
    endloop
endfacet
facet normal -0.6248 0.1383 -0.2018
    outer loop
        vertex -39.3030 -42.7738 -105.2148
        vertex -39.3102 -42.5585 -105.0448
        vertex -39.1530 -42.7739 -105.6792
    endloop
endfacet
facet normal -1.0499 0.2324 -0.3391
    outer loop
        vertex -39.0582 -42.5586 -105.8252
        vertex -39.1530 -42.7739 -105.6792
        vertex -39.3102 -42.5585 -105.0448
    endloop
endfacet
facet normal -1.7753 0.3930 -0.5733
    outer loop
        vertex -39.3102 -42.5585 -105.0448
        vertex -39.2655 -42.1945 -104.9338
        vertex -39.0582 -42.5586 -105.8252
    endloop
endfacet
facet normal -2.1823 0.4831 -0.7048
    outer loop
        vertex -38.9557 -42.1946 -105.8930
        vertex -39.0582 -42.5586 -105.8252
        vertex -39.2655 -42.1945 -104.9338
    endloop
endfacet
facet normal -3.2148 0.7116 -1.0382
    outer loop
        vertex -39.2655 -42.1945 -104.9338
        vertex -39.1678 -41.6583 -104.8687
        vertex -38.9557 -42.1946 -105.8930
    endloop
endfacet
facet normal -3.4189 0.7568 -1.1042
    outer loop
        vertex -38.8384 -41.6584 -105.8888
        vertex -38.9557 -42.1946 -105.8930
        vertex -39.1678 -41.6583 -104.8687
    endloop
endfacet
facet normal -3.4688 0.7678 -1.1203
    outer loop
        vertex -39.1678 -41.6583 -104.8687
        vertex -39.0489 -41.1142 -104.8640
        vertex -38.8384 -41.6584 -105.8888
    endloop
endfacet
facet normal -3.2375 0.7166 -1.0456
    outer loop
        vertex -38.7399 -41.1182 -105.8235
        vertex -38.8384 -41.6584 -105.8888
        vertex -39.0489 -41.1142 -104.8640
    endloop
endfacet
facet normal -2.2079 0.4887 -0.7131
    outer loop
        vertex -39.0489 -41.1142 -104.8640
        vertex -38.9468 -40.7463 -104.9278
        vertex -38.7399 -41.1182 -105.8235
    endloop
endfacet
facet normal -1.7921 0.3967 -0.5788
    outer loop
        vertex -38.6956 -40.7503 -105.7083
        vertex -38.7399 -41.1182 -105.8235
        vertex -38.9468 -40.7463 -104.9278
    endloop
endfacet
facet normal -1.0346 0.2290 -0.3341
    outer loop
        vertex -38.9468 -40.7463 -104.9278
        vertex -38.8541 -40.5349 -105.0702
        vertex -38.6956 -40.7503 -105.7083
    endloop
endfacet
facet normal -0.6248 0.1383 -0.2018
    outer loop
        vertex -38.7041 -40.5350 -105.5346
        vertex -38.6956 -40.7503 -105.7083
        vertex -38.8541 -40.5349 -105.0702
    endloop
endfacet
facet normal -0.2045 0.0453 -0.0660
    outer loop
        vertex -38.8541 -40.5349 -105.0702
        vertex -38.7637 -40.4645 -105.3016
        vertex -38.7041 -40.5350 -105.5346
    endloop
endfacet
endsolid GiantLegoRocks
