solid GiantLegoRocks
facet normal 0.0000 0.7500 0.0000
    outer loop
        vertex 9.2000 0.0000 6.4000
        vertex 9.2000 0.0000 -6.4000
        vertex -9.2000 0.0000 -6.4000
    endloop
endfacet
facet normal 0.0000 0.7500 0.0000
    outer loop
        vertex -9.2000 0.0000 -6.4000
        vertex -9.2000 0.0000 6.4000
        vertex 9.2000 0.0000 6.4000
    endloop
endfacet
facet normal 0.0000 -0.2500 32.0000
    outer loop
        vertex -9.2000 -0.1000 6.4000
        vertex 9.2000 -0.1000 6.4000
        vertex 9.2000 0.0000 6.4000
    endloop
endfacet
facet normal 0.0000 -0.2500 32.0000
    outer loop
        vertex 9.2000 0.0000 6.4000
        vertex -9.2000 0.0000 6.4000
        vertex -9.2000 -0.1000 6.4000
    endloop
endfacet
facet normal -46.0000 -0.2500 0.0000
    outer loop
        vertex -9.2000 -0.1000 -6.4000
        vertex -9.2000 -0.1000 6.4000
        vertex -9.2000 0.0000 6.4000
    endloop
endfacet
facet normal -46.0000 -0.2500 0.0000
    outer loop
        vertex -9.2000 0.0000 6.4000
        vertex -9.2000 0.0000 -6.4000
        vertex -9.2000 -0.1000 -6.4000
    endloop
endfacet
facet normal 0.0000 -0.2500 -32.0000
    outer loop
        vertex 9.2000 -0.1000 -6.4000
        vertex -9.2000 -0.1000 -6.4000
        vertex -9.2000 0.0000 -6.4000
    endloop
endfacet
facet normal 0.0000 -0.2500 -32.0000
    outer loop
        vertex -9.2000 0.0000 -6.4000
        vertex 9.2000 0.0000 -6.4000
        vertex 9.2000 -0.1000 -6.4000
    endloop
endfacet
facet normal 46.0000 -0.2500 0.0000
    outer loop
        vertex 9.2000 -0.1000 6.4000
        vertex 9.2000 -0.1000 -6.4000
        vertex 9.2000 0.0000 -6.4000
    endloop
endfacet
facet normal 46.0000 -0.2500 0.0000
    outer loop
        vertex 9.2000 0.0000 -6.4000
        vertex 9.2000 0.0000 6.4000
        vertex 9.2000 -0.1000 6.4000
    endloop
endfacet
facet normal 0.0000 -18.2752 0.0000
    outer loop
        vertex -7.0480 -0.1000 -3.6200
        vertex -4.6256 -0.1000 -2.3636
        vertex -7.4596 -0.1000 -2.6264
    endloop
endfacet
facet normal 0.0000 -0.2374 0.0000
    outer loop
        vertex -7.4596 -0.1000 -2.6264
        vertex -7.2864 -0.1000 -3.1368
        vertex -7.0480 -0.1000 -3.6200
    endloop
endfacet
facet normal 0.0000 -18.2752 0.0000
    outer loop
        vertex -7.4596 -0.1000 -0.4936
        vertex -4.6256 -0.1000 -0.7564
        vertex -7.0480 -0.1000 0.5000
    endloop
endfacet
facet normal 0.0000 -0.2374 0.0000
    outer loop
        vertex -7.0480 -0.1000 0.5000
        vertex -7.2864 -0.1000 0.0168
        vertex -7.4596 -0.1000 -0.4936
    endloop
endfacet
facet normal 0.0000 -9.6768 0.0000
    outer loop
        vertex -7.5644 -0.1000 -1.0224
        vertex -7.6000 -0.1000 -1.5600
        vertex -4.7200 -0.1000 -1.5600
    endloop
endfacet
facet normal 0.0000 -7.3623 0.0000
    outer loop
        vertex -4.7200 -0.1000 -1.5600
        vertex -4.6960 -0.1000 -1.1504
        vertex -7.5644 -0.1000 -1.0224
    endloop
endfacet
facet normal 0.0000 -7.3623 0.0000
    outer loop
        vertex -7.5644 -0.1000 -2.0976
        vertex -4.6960 -0.1000 -1.9696
        vertex -4.7200 -0.1000 -1.5600
    endloop
endfacet
facet normal 0.0000 -9.6768 0.0000
    outer loop
        vertex -4.7200 -0.1000 -1.5600
        vertex -7.6000 -0.1000 -1.5600
        vertex -7.5644 -0.1000 -2.0976
    endloop
endfacet
facet normal 0.0000 -7.1198 0.0000
    outer loop
        vertex -7.5644 -0.1000 -1.0224
        vertex -4.6960 -0.1000 -1.1504
        vertex -4.6256 -0.1000 -0.7564
    endloop
endfacet
facet normal 0.0000 -9.5385 0.0000
    outer loop
        vertex -4.6256 -0.1000 -0.7564
        vertex -7.4596 -0.1000 -0.4936
        vertex -7.5644 -0.1000 -1.0224
    endloop
endfacet
facet normal 0.0000 -7.1198 0.0000
    outer loop
        vertex -4.6256 -0.1000 -2.3636
        vertex -4.6960 -0.1000 -1.9696
        vertex -7.5644 -0.1000 -2.0976
    endloop
endfacet
facet normal 0.0000 -9.5385 0.0000
    outer loop
        vertex -7.5644 -0.1000 -2.0976
        vertex -7.4596 -0.1000 -2.6264
        vertex -4.6256 -0.1000 -2.3636
    endloop
endfacet
facet normal 0.0000 -9.1382 0.0000
    outer loop
        vertex -6.7488 -0.1000 0.9484
        vertex -7.0480 -0.1000 0.5000
        vertex -4.6256 -0.1000 -0.7564
    endloop
endfacet
facet normal 0.0000 -6.0386 0.0000
    outer loop
        vertex -4.6256 -0.1000 -0.7564
        vertex -4.5112 -0.1000 -0.3932
        vertex -6.7488 -0.1000 0.9484
    endloop
endfacet
facet normal 0.0000 -6.0386 0.0000
    outer loop
        vertex -6.7488 -0.1000 -4.0684
        vertex -4.5112 -0.1000 -2.7268
        vertex -4.6256 -0.1000 -2.3636
    endloop
endfacet
facet normal 0.0000 -9.1382 0.0000
    outer loop
        vertex -4.6256 -0.1000 -2.3636
        vertex -7.0480 -0.1000 -3.6200
        vertex -6.7488 -0.1000 -4.0684
    endloop
endfacet
facet normal 0.0000 -5.7419 0.0000
    outer loop
        vertex -6.7488 -0.1000 0.9484
        vertex -4.5112 -0.1000 -0.3932
        vertex -4.3568 -0.1000 -0.0752
    endloop
endfacet
facet normal 0.0000 -8.3267 0.0000
    outer loop
        vertex -4.3568 -0.1000 -0.0752
        vertex -6.3932 -0.1000 1.3532
        vertex -6.7488 -0.1000 0.9484
    endloop
endfacet
facet normal 0.0000 -8.3267 0.0000
    outer loop
        vertex -6.7488 -0.1000 -4.0684
        vertex -6.3932 -0.1000 -4.4732
        vertex -4.3568 -0.1000 -3.0448
    endloop
endfacet
facet normal 0.0000 -5.7419 0.0000
    outer loop
        vertex -4.3568 -0.1000 -3.0448
        vertex -4.5112 -0.1000 -2.7268
        vertex -6.7488 -0.1000 -4.0684
    endloop
endfacet
facet normal 0.0000 -4.7598 0.0000
    outer loop
        vertex -5.9884 -0.1000 -4.8288
        vertex -4.1688 -0.1000 -3.3060
        vertex -4.3568 -0.1000 -3.0448
    endloop
endfacet
facet normal 0.0000 -8.1398 0.0000
    outer loop
        vertex -4.3568 -0.1000 -3.0448
        vertex -6.3932 -0.1000 -4.4732
        vertex -5.9884 -0.1000 -4.8288
    endloop
endfacet
facet normal 0.0000 -8.1398 0.0000
    outer loop
        vertex -5.9884 -0.1000 1.7088
        vertex -6.3932 -0.1000 1.3532
        vertex -4.3568 -0.1000 -0.0752
    endloop
endfacet
facet normal 0.0000 -4.7598 0.0000
    outer loop
        vertex -4.3568 -0.1000 -0.0752
        vertex -4.1688 -0.1000 0.1860
        vertex -5.9884 -0.1000 1.7088
    endloop
endfacet
facet normal 0.0000 -7.5275 0.0000
    outer loop
        vertex -5.9884 -0.1000 -4.8288
        vertex -5.5400 -0.1000 -5.1280
        vertex -3.9544 -0.1000 -3.5000
    endloop
endfacet
facet normal 0.0000 -4.2468 0.0000
    outer loop
        vertex -3.9544 -0.1000 -3.5000
        vertex -4.1688 -0.1000 -3.3060
        vertex -5.9884 -0.1000 -4.8288
    endloop
endfacet
facet normal 0.0000 -4.2468 0.0000
    outer loop
        vertex -5.9884 -0.1000 1.7088
        vertex -4.1688 -0.1000 0.1860
        vertex -3.9544 -0.1000 0.3800
    endloop
endfacet
facet normal 0.0000 -7.5275 0.0000
    outer loop
        vertex -3.9544 -0.1000 0.3800
        vertex -5.5400 -0.1000 2.0080
        vertex -5.9884 -0.1000 1.7088
    endloop
endfacet
facet normal 0.0000 -14.1888 0.0000
    outer loop
        vertex -5.5400 -0.1000 2.0080
        vertex -3.9544 -0.1000 0.3800
        vertex -4.5464 -0.1000 2.4196
    endloop
endfacet
facet normal 0.0000 -0.2374 0.0000
    outer loop
        vertex -4.5464 -0.1000 2.4196
        vertex -5.0568 -0.1000 2.2464
        vertex -5.5400 -0.1000 2.0080
    endloop
endfacet
facet normal 0.0000 -14.1888 0.0000
    outer loop
        vertex -4.5464 -0.1000 -5.5396
        vertex -3.9544 -0.1000 -3.5000
        vertex -5.5400 -0.1000 -5.1280
    endloop
endfacet
facet normal 0.0000 -0.2374 0.0000
    outer loop
        vertex -5.5400 -0.1000 -5.1280
        vertex -5.0568 -0.1000 -5.3664
        vertex -4.5464 -0.1000 -5.5396
    endloop
endfacet
facet normal 0.0000 -3.1620 0.0000
    outer loop
        vertex -4.0176 -0.1000 -5.6444
        vertex -3.7220 -0.1000 -3.6196
        vertex -3.9544 -0.1000 -3.5000
    endloop
endfacet
facet normal 0.0000 -7.1286 0.0000
    outer loop
        vertex -3.9544 -0.1000 -3.5000
        vertex -4.5464 -0.1000 -5.5396
        vertex -4.0176 -0.1000 -5.6444
    endloop
endfacet
facet normal 0.0000 -7.1286 0.0000
    outer loop
        vertex -4.0176 -0.1000 2.5244
        vertex -4.5464 -0.1000 2.4196
        vertex -3.9544 -0.1000 0.3800
    endloop
endfacet
facet normal 0.0000 -3.1620 0.0000
    outer loop
        vertex -3.9544 -0.1000 0.3800
        vertex -3.7220 -0.1000 0.4996
        vertex -4.0176 -0.1000 2.5244
    endloop
endfacet
facet normal 0.0000 -3.1371 0.0000
    outer loop
        vertex -4.0176 -0.1000 2.5244
        vertex -3.7220 -0.1000 0.4996
        vertex -3.4800 -0.1000 0.5400
    endloop
endfacet
facet normal 0.0000 -6.7872 0.0000
    outer loop
        vertex -3.4800 -0.1000 0.5400
        vertex -3.4800 -0.1000 2.5600
        vertex -4.0176 -0.1000 2.5244
    endloop
endfacet
facet normal 0.0000 -3.1371 0.0000
    outer loop
        vertex -3.4800 -0.1000 -3.6600
        vertex -3.7220 -0.1000 -3.6196
        vertex -4.0176 -0.1000 -5.6444
    endloop
endfacet
facet normal 0.0000 -6.7872 0.0000
    outer loop
        vertex -4.0176 -0.1000 -5.6444
        vertex -3.4800 -0.1000 -5.6800
        vertex -3.4800 -0.1000 -3.6600
    endloop
endfacet
facet normal 0.0000 -3.1371 0.0000
    outer loop
        vertex -3.4800 -0.1000 0.5400
        vertex -3.2380 -0.1000 0.4996
        vertex -2.9424 -0.1000 2.5244
    endloop
endfacet
facet normal 0.0000 -6.7872 0.0000
    outer loop
        vertex -2.9424 -0.1000 2.5244
        vertex -3.4800 -0.1000 2.5600
        vertex -3.4800 -0.1000 0.5400
    endloop
endfacet
facet normal 0.0000 -3.1371 0.0000
    outer loop
        vertex -2.9424 -0.1000 -5.6444
        vertex -3.2380 -0.1000 -3.6196
        vertex -3.4800 -0.1000 -3.6600
    endloop
endfacet
facet normal 0.0000 -6.7872 0.0000
    outer loop
        vertex -3.4800 -0.1000 -3.6600
        vertex -3.4800 -0.1000 -5.6800
        vertex -2.9424 -0.1000 -5.6444
    endloop
endfacet
facet normal 0.0000 -3.1620 0.0000
    outer loop
        vertex -2.9424 -0.1000 2.5244
        vertex -3.2380 -0.1000 0.4996
        vertex -3.0056 -0.1000 0.3800
    endloop
endfacet
facet normal 0.0000 -7.1286 0.0000
    outer loop
        vertex -3.0056 -0.1000 0.3800
        vertex -2.4136 -0.1000 2.4196
        vertex -2.9424 -0.1000 2.5244
    endloop
endfacet
facet normal 0.0000 -3.1620 0.0000
    outer loop
        vertex -3.0056 -0.1000 -3.5000
        vertex -3.2380 -0.1000 -3.6196
        vertex -2.9424 -0.1000 -5.6444
    endloop
endfacet
facet normal 0.0000 -7.1286 0.0000
    outer loop
        vertex -2.9424 -0.1000 -5.6444
        vertex -2.4136 -0.1000 -5.5396
        vertex -3.0056 -0.1000 -3.5000
    endloop
endfacet
facet normal 0.0000 -14.1888 0.0000
    outer loop
        vertex -1.4200 -0.1000 -5.1280
        vertex -3.0056 -0.1000 -3.5000
        vertex -2.4136 -0.1000 -5.5396
    endloop
endfacet
facet normal 0.0000 -0.2374 0.0000
    outer loop
        vertex -2.4136 -0.1000 -5.5396
        vertex -1.9032 -0.1000 -5.3664
        vertex -1.4200 -0.1000 -5.1280
    endloop
endfacet
facet normal 0.0000 -14.1888 0.0000
    outer loop
        vertex -2.4136 -0.1000 2.4196
        vertex -3.0056 -0.1000 0.3800
        vertex -1.4200 -0.1000 2.0080
    endloop
endfacet
facet normal 0.0000 -0.2374 0.0000
    outer loop
        vertex -1.4200 -0.1000 2.0080
        vertex -1.9032 -0.1000 2.2464
        vertex -2.4136 -0.1000 2.4196
    endloop
endfacet
facet normal 0.0000 -4.2468 0.0000
    outer loop
        vertex -0.9716 -0.1000 -4.8288
        vertex -2.7912 -0.1000 -3.3060
        vertex -3.0056 -0.1000 -3.5000
    endloop
endfacet
facet normal 0.0000 -7.5275 0.0000
    outer loop
        vertex -3.0056 -0.1000 -3.5000
        vertex -1.4200 -0.1000 -5.1280
        vertex -0.9716 -0.1000 -4.8288
    endloop
endfacet
facet normal 0.0000 -7.5275 0.0000
    outer loop
        vertex -0.9716 -0.1000 1.7088
        vertex -1.4200 -0.1000 2.0080
        vertex -3.0056 -0.1000 0.3800
    endloop
endfacet
facet normal 0.0000 -4.2468 0.0000
    outer loop
        vertex -3.0056 -0.1000 0.3800
        vertex -2.7912 -0.1000 0.1860
        vertex -0.9716 -0.1000 1.7088
    endloop
endfacet
facet normal 0.0000 -8.1398 0.0000
    outer loop
        vertex -0.9716 -0.1000 -4.8288
        vertex -0.5668 -0.1000 -4.4732
        vertex -2.6032 -0.1000 -3.0448
    endloop
endfacet
facet normal 0.0000 -4.7598 0.0000
    outer loop
        vertex -2.6032 -0.1000 -3.0448
        vertex -2.7912 -0.1000 -3.3060
        vertex -0.9716 -0.1000 -4.8288
    endloop
endfacet
facet normal 0.0000 -4.7598 0.0000
    outer loop
        vertex -0.9716 -0.1000 1.7088
        vertex -2.7912 -0.1000 0.1860
        vertex -2.6032 -0.1000 -0.0752
    endloop
endfacet
facet normal 0.0000 -8.1398 0.0000
    outer loop
        vertex -2.6032 -0.1000 -0.0752
        vertex -0.5668 -0.1000 1.3532
        vertex -0.9716 -0.1000 1.7088
    endloop
endfacet
facet normal 0.0000 -5.7419 0.0000
    outer loop
        vertex -0.2112 -0.1000 -4.0684
        vertex -2.4488 -0.1000 -2.7268
        vertex -2.6032 -0.1000 -3.0448
    endloop
endfacet
facet normal 0.0000 -8.3267 0.0000
    outer loop
        vertex -2.6032 -0.1000 -3.0448
        vertex -0.5668 -0.1000 -4.4732
        vertex -0.2112 -0.1000 -4.0684
    endloop
endfacet
facet normal 0.0000 -8.3267 0.0000
    outer loop
        vertex -0.2112 -0.1000 0.9484
        vertex -0.5668 -0.1000 1.3532
        vertex -2.6032 -0.1000 -0.0752
    endloop
endfacet
facet normal 0.0000 -5.7419 0.0000
    outer loop
        vertex -2.6032 -0.1000 -0.0752
        vertex -2.4488 -0.1000 -0.3932
        vertex -0.2112 -0.1000 0.9484
    endloop
endfacet
facet normal 0.0000 -9.1382 0.0000
    outer loop
        vertex -0.2112 -0.1000 -4.0684
        vertex 0.0880 -0.1000 -3.6200
        vertex -2.3344 -0.1000 -2.3636
    endloop
endfacet
facet normal 0.0000 -6.0386 0.0000
    outer loop
        vertex -2.3344 -0.1000 -2.3636
        vertex -2.4488 -0.1000 -2.7268
        vertex -0.2112 -0.1000 -4.0684
    endloop
endfacet
facet normal 0.0000 -6.0386 0.0000
    outer loop
        vertex -0.2112 -0.1000 0.9484
        vertex -2.4488 -0.1000 -0.3932
        vertex -2.3344 -0.1000 -0.7564
    endloop
endfacet
facet normal 0.0000 -9.1382 0.0000
    outer loop
        vertex -2.3344 -0.1000 -0.7564
        vertex 0.0880 -0.1000 0.5000
        vertex -0.2112 -0.1000 0.9484
    endloop
endfacet
facet normal 0.0000 -7.1198 0.0000
    outer loop
        vertex -2.3344 -0.1000 -0.7564
        vertex -2.2640 -0.1000 -1.1504
        vertex 0.6044 -0.1000 -1.0224
    endloop
endfacet
facet normal 0.0000 -9.5385 0.0000
    outer loop
        vertex 0.6044 -0.1000 -1.0224
        vertex 0.4996 -0.1000 -0.4936
        vertex -2.3344 -0.1000 -0.7564
    endloop
endfacet
facet normal 0.0000 -7.1198 0.0000
    outer loop
        vertex 0.6044 -0.1000 -2.0976
        vertex -2.2640 -0.1000 -1.9696
        vertex -2.3344 -0.1000 -2.3636
    endloop
endfacet
facet normal 0.0000 -9.5385 0.0000
    outer loop
        vertex -2.3344 -0.1000 -2.3636
        vertex 0.4996 -0.1000 -2.6264
        vertex 0.6044 -0.1000 -2.0976
    endloop
endfacet
facet normal 0.0000 -7.3623 0.0000
    outer loop
        vertex -2.2400 -0.1000 -1.5600
        vertex -2.2640 -0.1000 -1.9696
        vertex 0.6044 -0.1000 -2.0976
    endloop
endfacet
facet normal 0.0000 -9.6768 0.0000
    outer loop
        vertex 0.6044 -0.1000 -2.0976
        vertex 0.6400 -0.1000 -1.5600
        vertex -2.2400 -0.1000 -1.5600
    endloop
endfacet
facet normal 0.0000 -7.3623 0.0000
    outer loop
        vertex 0.6044 -0.1000 -1.0224
        vertex -2.2640 -0.1000 -1.1504
        vertex -2.2400 -0.1000 -1.5600
    endloop
endfacet
facet normal 0.0000 -9.6768 0.0000
    outer loop
        vertex -2.2400 -0.1000 -1.5600
        vertex 0.6400 -0.1000 -1.5600
        vertex 0.6044 -0.1000 -1.0224
    endloop
endfacet
facet normal 0.0000 -18.2752 0.0000
    outer loop
        vertex 0.4996 -0.1000 -2.6264
        vertex -2.3344 -0.1000 -2.3636
        vertex 0.0880 -0.1000 -3.6200
    endloop
endfacet
facet normal 0.0000 -0.2374 0.0000
    outer loop
        vertex 0.0880 -0.1000 -3.6200
        vertex 0.3264 -0.1000 -3.1368
        vertex 0.4996 -0.1000 -2.6264
    endloop
endfacet
facet normal 0.0000 -18.2752 0.0000
    outer loop
        vertex 0.0880 -0.1000 0.5000
        vertex -2.3344 -0.1000 -0.7564
        vertex 0.4996 -0.1000 -0.4936
    endloop
endfacet
facet normal 0.0000 -0.2374 0.0000
    outer loop
        vertex 0.4996 -0.1000 -0.4936
        vertex 0.3264 -0.1000 0.0168
        vertex 0.0880 -0.1000 0.5000
    endloop
endfacet
facet normal 0.0000 -68.2500 0.3750
    outer loop
        vertex 3.9200 -0.1000 -5.2000
        vertex 0.9200 -0.0800 -1.5600
        vertex 0.9200 -0.1000 -5.2000
    endloop
endfacet
facet normal -0.9350 -72.0000 -0.3750
    outer loop
        vertex 0.9200 -0.1000 2.2800
        vertex 0.9200 -0.0800 -1.5600
        vertex 3.9200 -0.1000 -5.2000
    endloop
endfacet
facet normal 0.0000 -140.2500 0.0000
    outer loop
        vertex 3.9200 -0.1000 -5.2000
        vertex 3.9200 -0.1000 2.2800
        vertex 0.9200 -0.1000 2.2800
    endloop
endfacet
facet normal 0.0000 -195.0000 0.0000
    outer loop
        vertex 4.6000 -0.1000 -5.2000
        vertex 7.6000 -0.1000 -5.2000
        vertex 7.6000 -0.1000 5.2000
    endloop
endfacet
facet normal 0.0000 -195.0000 0.0000
    outer loop
        vertex 7.6000 -0.1000 5.2000
        vertex 4.6000 -0.1000 5.2000
        vertex 4.6000 -0.1000 -5.2000
    endloop
endfacet
facet normal -0.4079 -57.8864 0.2392
    outer loop
        vertex -9.2000 -0.0800 -1.5600
        vertex -9.2000 -0.1000 -6.4000
        vertex -7.2864 -0.1000 -3.1368
    endloop
endfacet
facet normal -0.0638 -4.3975 -0.0216
    outer loop
        vertex -7.2864 -0.1000 -3.1368
        vertex -7.4596 -0.1000 -2.6264
        vertex -9.2000 -0.0800 -1.5600
    endloop
endfacet
facet normal -0.7979 -95.2016 -0.2392
    outer loop
        vertex -7.2864 -0.1000 0.0168
        vertex -9.2000 -0.1000 6.4000
        vertex -9.2000 -0.0800 -1.5600
    endloop
endfacet
facet normal -0.0638 -4.3975 0.0216
    outer loop
        vertex -9.2000 -0.0800 -1.5600
        vertex -7.4596 -0.1000 -0.4936
        vertex -7.2864 -0.1000 0.0168
    endloop
endfacet
facet normal -0.0672 -5.3760 -0.0044
    outer loop
        vertex -9.2000 -0.0800 -1.5600
        vertex -7.5644 -0.1000 -2.0976
        vertex -7.6000 -0.1000 -1.5600
    endloop
endfacet
facet normal -0.0672 -5.3760 0.0044
    outer loop
        vertex -9.2000 -0.0800 -1.5600
        vertex -7.6000 -0.1000 -1.5600
        vertex -7.5644 -0.1000 -1.0224
    endloop
endfacet
facet normal -0.0661 -5.0535 0.0131
    outer loop
        vertex -9.2000 -0.0800 -1.5600
        vertex -7.5644 -0.1000 -1.0224
        vertex -7.4596 -0.1000 -0.4936
    endloop
endfacet
facet normal -0.0661 -5.0535 -0.0131
    outer loop
        vertex -9.2000 -0.0800 -1.5600
        vertex -7.4596 -0.1000 -2.6264
        vertex -7.5644 -0.1000 -2.0976
    endloop
endfacet
facet normal 0.0000 -15.2900 0.0000
    outer loop
        vertex -9.2000 -0.1000 6.4000
        vertex -7.2864 -0.1000 0.0168
        vertex -7.0480 -0.1000 0.5000
    endloop
endfacet
facet normal 0.0000 -10.6412 0.0000
    outer loop
        vertex -9.2000 -0.1000 -6.4000
        vertex -7.0480 -0.1000 -3.6200
        vertex -7.2864 -0.1000 -3.1368
    endloop
endfacet
facet normal 0.0000 -11.2296 0.0000
    outer loop
        vertex -9.2000 -0.1000 -6.4000
        vertex -6.7488 -0.1000 -4.0684
        vertex -7.0480 -0.1000 -3.6200
    endloop
endfacet
facet normal 0.0000 -17.0640 0.0000
    outer loop
        vertex -9.2000 -0.1000 6.4000
        vertex -7.0480 -0.1000 0.5000
        vertex -6.7488 -0.1000 0.9484
    endloop
endfacet
facet normal 0.0000 -18.3177 0.0000
    outer loop
        vertex -9.2000 -0.1000 6.4000
        vertex -6.7488 -0.1000 0.9484
        vertex -6.3932 -0.1000 1.3532
    endloop
endfacet
facet normal 0.0000 -11.3835 0.0000
    outer loop
        vertex -6.3932 -0.1000 -4.4732
        vertex -6.7488 -0.1000 -4.0684
        vertex -9.2000 -0.1000 -6.4000
    endloop
endfacet
facet normal 0.0000 -19.0065 0.0000
    outer loop
        vertex -9.2000 -0.1000 6.4000
        vertex -6.3932 -0.1000 1.3532
        vertex -5.9884 -0.1000 1.7088
    endloop
endfacet
facet normal 0.0000 -11.1129 0.0000
    outer loop
        vertex -9.2000 -0.1000 -6.4000
        vertex -5.9884 -0.1000 -4.8288
        vertex -6.3932 -0.1000 -4.4732
    endloop
endfacet
facet normal 0.0000 -19.1528 0.0000
    outer loop
        vertex -9.2000 -0.1000 6.4000
        vertex -5.9884 -0.1000 1.7088
        vertex -5.5400 -0.1000 2.0080
    endloop
endfacet
facet normal 0.0000 -10.4090 0.0000
    outer loop
        vertex -9.2000 -0.1000 -6.4000
        vertex -5.5400 -0.1000 -5.1280
        vertex -5.9884 -0.1000 -4.8288
    endloop
endfacet
facet normal 0.0000 -9.2948 0.0000
    outer loop
        vertex -9.2000 -0.1000 -6.4000
        vertex -5.0568 -0.1000 -5.3664
        vertex -5.5400 -0.1000 -5.1280
    endloop
endfacet
facet normal 0.0000 -7.7822 0.0000
    outer loop
        vertex -9.2000 -0.1000 -6.4000
        vertex -4.5464 -0.1000 -5.5396
        vertex -5.0568 -0.1000 -5.3664
    endloop
endfacet
facet normal 0.0000 -5.8917 0.0000
    outer loop
        vertex -9.2000 -0.1000 -6.4000
        vertex -4.0176 -0.1000 -5.6444
        vertex -4.5464 -0.1000 -5.5396
    endloop
endfacet
facet normal 0.0000 -18.7172 0.0000
    outer loop
        vertex -9.2000 -0.1000 6.4000
        vertex -5.5400 -0.1000 2.0080
        vertex -5.0568 -0.1000 2.2464
    endloop
endfacet
facet normal 0.5192 -148.4912 0.5179
    outer loop
        vertex -5.0568 -0.1000 2.2464
        vertex -3.4800 -0.0800 6.4000
        vertex -9.2000 -0.1000 6.4000
    endloop
endfacet
facet normal -0.0216 -11.5431 0.0638
    outer loop
        vertex -3.4800 -0.0800 6.4000
        vertex -5.0568 -0.1000 2.2464
        vertex -4.5464 -0.1000 2.4196
    endloop
endfacet
facet normal 0.0000 -43.4470 0.0000
    outer loop
        vertex -4.0176 -0.1000 -5.6444
        vertex -9.2000 -0.1000 -6.4000
        vertex 0.0000 -0.1000 -6.4000
    endloop
endfacet
facet normal 0.0000 -1.6449 0.0000
    outer loop
        vertex 0.0000 -0.1000 -6.4000
        vertex -3.4800 -0.1000 -5.6800
        vertex -4.0176 -0.1000 -5.6444
    endloop
endfacet
facet normal -0.0131 -12.4567 0.0661
    outer loop
        vertex -3.4800 -0.0800 6.4000
        vertex -4.5464 -0.1000 2.4196
        vertex -4.0176 -0.1000 2.5244
    endloop
endfacet
facet normal -0.0045 -12.9024 0.0672
    outer loop
        vertex -3.4800 -0.0800 6.4000
        vertex -4.0176 -0.1000 2.5244
        vertex -3.4800 -0.1000 2.5600
    endloop
endfacet
facet normal 0.0000 -0.1222 0.0000
    outer loop
        vertex -3.2380 -0.1000 0.4996
        vertex -3.4800 -0.1000 0.5400
        vertex -3.7220 -0.1000 0.4996
    endloop
endfacet
facet normal 0.0000 -0.3618 0.0000
    outer loop
        vertex -3.7220 -0.1000 0.4996
        vertex -3.9544 -0.1000 0.3800
        vertex -3.2380 -0.1000 0.4996
    endloop
endfacet
facet normal 0.0000 -0.7092 0.0000
    outer loop
        vertex -3.0056 -0.1000 0.3800
        vertex -3.2380 -0.1000 0.4996
        vertex -3.9544 -0.1000 0.3800
    endloop
endfacet
facet normal 0.0000 -1.1504 0.0000
    outer loop
        vertex -3.9544 -0.1000 0.3800
        vertex -4.1688 -0.1000 0.1860
        vertex -3.0056 -0.1000 0.3800
    endloop
endfacet
facet normal 0.0000 -1.6703 0.0000
    outer loop
        vertex -2.7912 -0.1000 0.1860
        vertex -3.0056 -0.1000 0.3800
        vertex -4.1688 -0.1000 0.1860
    endloop
endfacet
facet normal 0.0000 -2.2489 0.0000
    outer loop
        vertex -4.1688 -0.1000 0.1860
        vertex -4.3568 -0.1000 -0.0752
        vertex -2.7912 -0.1000 0.1860
    endloop
endfacet
facet normal 0.0000 -2.8628 0.0000
    outer loop
        vertex -2.6032 -0.1000 -0.0752
        vertex -2.7912 -0.1000 0.1860
        vertex -4.3568 -0.1000 -0.0752
    endloop
endfacet
facet normal 0.0000 -3.4853 0.0000
    outer loop
        vertex -4.3568 -0.1000 -0.0752
        vertex -4.5112 -0.1000 -0.3932
        vertex -2.6032 -0.1000 -0.0752
    endloop
endfacet
facet normal 0.0000 -4.0990 0.0000
    outer loop
        vertex -2.4488 -0.1000 -0.3932
        vertex -2.6032 -0.1000 -0.0752
        vertex -4.5112 -0.1000 -0.3932
    endloop
endfacet
facet normal 0.0000 -4.6816 0.0000
    outer loop
        vertex -4.5112 -0.1000 -0.3932
        vertex -4.6256 -0.1000 -0.7564
        vertex -2.4488 -0.1000 -0.3932
    endloop
endfacet
facet normal 0.0000 -5.2010 0.0000
    outer loop
        vertex -2.3344 -0.1000 -0.7564
        vertex -2.4488 -0.1000 -0.3932
        vertex -4.6256 -0.1000 -0.7564
    endloop
endfacet
facet normal 0.0000 -5.6421 0.0000
    outer loop
        vertex -4.6256 -0.1000 -0.7564
        vertex -4.6960 -0.1000 -1.1504
        vertex -2.3344 -0.1000 -0.7564
    endloop
endfacet
facet normal 0.0000 -5.9888 0.0000
    outer loop
        vertex -2.2640 -0.1000 -1.1504
        vertex -2.3344 -0.1000 -0.7564
        vertex -4.6960 -0.1000 -1.1504
    endloop
endfacet
facet normal 0.0000 -6.2259 0.0000
    outer loop
        vertex -4.6960 -0.1000 -1.1504
        vertex -4.7200 -0.1000 -1.5600
        vertex -2.2640 -0.1000 -1.1504
    endloop
endfacet
facet normal 0.0000 -6.3488 0.0000
    outer loop
        vertex -2.2400 -0.1000 -1.5600
        vertex -2.2640 -0.1000 -1.1504
        vertex -4.7200 -0.1000 -1.5600
    endloop
endfacet
facet normal 0.0000 -6.3488 0.0000
    outer loop
        vertex -4.7200 -0.1000 -1.5600
        vertex -4.6960 -0.1000 -1.9696
        vertex -2.2400 -0.1000 -1.5600
    endloop
endfacet
facet normal 0.0000 -6.2259 0.0000
    outer loop
        vertex -2.2640 -0.1000 -1.9696
        vertex -2.2400 -0.1000 -1.5600
        vertex -4.6960 -0.1000 -1.9696
    endloop
endfacet
facet normal 0.0000 -5.9888 0.0000
    outer loop
        vertex -4.6960 -0.1000 -1.9696
        vertex -4.6256 -0.1000 -2.3636
        vertex -2.2640 -0.1000 -1.9696
    endloop
endfacet
facet normal 0.0000 -5.6421 0.0000
    outer loop
        vertex -2.3344 -0.1000 -2.3636
        vertex -2.2640 -0.1000 -1.9696
        vertex -4.6256 -0.1000 -2.3636
    endloop
endfacet
facet normal 0.0000 -5.2010 0.0000
    outer loop
        vertex -4.6256 -0.1000 -2.3636
        vertex -4.5112 -0.1000 -2.7268
        vertex -2.3344 -0.1000 -2.3636
    endloop
endfacet
facet normal 0.0000 -4.6816 0.0000
    outer loop
        vertex -2.4488 -0.1000 -2.7268
        vertex -2.3344 -0.1000 -2.3636
        vertex -4.5112 -0.1000 -2.7268
    endloop
endfacet
facet normal 0.0000 -4.0990 0.0000
    outer loop
        vertex -4.5112 -0.1000 -2.7268
        vertex -4.3568 -0.1000 -3.0448
        vertex -2.4488 -0.1000 -2.7268
    endloop
endfacet
facet normal 0.0000 -3.4853 0.0000
    outer loop
        vertex -2.6032 -0.1000 -3.0448
        vertex -2.4488 -0.1000 -2.7268
        vertex -4.3568 -0.1000 -3.0448
    endloop
endfacet
facet normal 0.0000 -2.8628 0.0000
    outer loop
        vertex -4.3568 -0.1000 -3.0448
        vertex -4.1688 -0.1000 -3.3060
        vertex -2.6032 -0.1000 -3.0448
    endloop
endfacet
facet normal 0.0000 -2.2489 0.0000
    outer loop
        vertex -2.7912 -0.1000 -3.3060
        vertex -2.6032 -0.1000 -3.0448
        vertex -4.1688 -0.1000 -3.3060
    endloop
endfacet
facet normal 0.0000 -1.6703 0.0000
    outer loop
        vertex -4.1688 -0.1000 -3.3060
        vertex -3.9544 -0.1000 -3.5000
        vertex -2.7912 -0.1000 -3.3060
    endloop
endfacet
facet normal 0.0000 -1.1504 0.0000
    outer loop
        vertex -3.0056 -0.1000 -3.5000
        vertex -2.7912 -0.1000 -3.3060
        vertex -3.9544 -0.1000 -3.5000
    endloop
endfacet
facet normal 0.0000 -0.7092 0.0000
    outer loop
        vertex -3.9544 -0.1000 -3.5000
        vertex -3.7220 -0.1000 -3.6196
        vertex -3.0056 -0.1000 -3.5000
    endloop
endfacet
facet normal 0.0000 -0.3618 0.0000
    outer loop
        vertex -3.2380 -0.1000 -3.6196
        vertex -3.0056 -0.1000 -3.5000
        vertex -3.7220 -0.1000 -3.6196
    endloop
endfacet
facet normal 0.0000 -0.1222 0.0000
    outer loop
        vertex -3.7220 -0.1000 -3.6196
        vertex -3.4800 -0.1000 -3.6600
        vertex -3.2380 -0.1000 -3.6196
    endloop
endfacet
facet normal 0.0045 -12.9024 0.0672
    outer loop
        vertex -3.4800 -0.0800 6.4000
        vertex -3.4800 -0.1000 2.5600
        vertex -2.9424 -0.1000 2.5244
    endloop
endfacet
facet normal 0.0131 -12.4567 0.0661
    outer loop
        vertex -3.4800 -0.0800 6.4000
        vertex -2.9424 -0.1000 2.5244
        vertex -2.4136 -0.1000 2.4196
    endloop
endfacet
facet normal 0.0000 -3.1935 0.0000
    outer loop
        vertex 0.0000 -0.1000 -6.4000
        vertex -2.9424 -0.1000 -5.6444
        vertex -3.4800 -0.1000 -5.6800
    endloop
endfacet
facet normal 0.0000 -4.4245 0.0000
    outer loop
        vertex 0.0000 -0.1000 -6.4000
        vertex -2.4136 -0.1000 -5.5396
        vertex -2.9424 -0.1000 -5.6444
    endloop
endfacet
facet normal 0.0000 -5.3574 0.0000
    outer loop
        vertex 0.0000 -0.1000 -6.4000
        vertex -1.9032 -0.1000 -5.3664
        vertex -2.4136 -0.1000 -5.5396
    endloop
endfacet
facet normal 0.0000 -5.9572 0.0000
    outer loop
        vertex 0.0000 -0.1000 -6.4000
        vertex -1.4200 -0.1000 -5.1280
        vertex -1.9032 -0.1000 -5.3664
    endloop
endfacet
facet normal 0.0216 -11.5431 0.0638
    outer loop
        vertex -3.4800 -0.0800 6.4000
        vertex -2.4136 -0.1000 2.4196
        vertex -1.9032 -0.1000 2.2464
    endloop
endfacet
facet normal -0.3692 -197.9308 0.8129
    outer loop
        vertex -1.9032 -0.1000 2.2464
        vertex 4.6000 -0.1000 5.2000
        vertex -3.4800 -0.0800 6.4000
    endloop
endfacet
facet normal 0.0000 -6.2202 0.0000
    outer loop
        vertex 0.0000 -0.1000 -6.4000
        vertex -0.9716 -0.1000 -4.8288
        vertex -1.4200 -0.1000 -5.1280
    endloop
endfacet
facet normal 0.0000 -5.1381 0.0000
    outer loop
        vertex 0.9200 -0.1000 2.2800
        vertex -1.4200 -0.1000 2.0080
        vertex -0.9716 -0.1000 1.7088
    endloop
endfacet
facet normal 0.0000 -5.6492 0.0000
    outer loop
        vertex 0.9200 -0.1000 2.2800
        vertex -0.9716 -0.1000 1.7088
        vertex -0.5668 -0.1000 1.3532
    endloop
endfacet
facet normal 0.0000 -16.3214 0.0000
    outer loop
        vertex -0.9716 -0.1000 -4.8288
        vertex 0.0000 -0.1000 -6.4000
        vertex 0.9200 -0.1000 -5.2000
    endloop
endfacet
facet normal 0.0000 -5.1432 0.0000
    outer loop
        vertex 0.9200 -0.1000 -5.2000
        vertex -0.5668 -0.1000 -4.4732
        vertex -0.9716 -0.1000 -4.8288
    endloop
endfacet
facet normal 0.0000 -5.8214 0.0000
    outer loop
        vertex 0.9200 -0.1000 2.2800
        vertex -0.5668 -0.1000 1.3532
        vertex -0.2112 -0.1000 0.9484
    endloop
endfacet
facet normal 0.0000 -5.3769 0.0000
    outer loop
        vertex 0.9200 -0.1000 -5.2000
        vertex -0.2112 -0.1000 -4.0684
        vertex -0.5668 -0.1000 -4.4732
    endloop
endfacet
facet normal 0.0000 -5.2863 0.0000
    outer loop
        vertex 0.9200 -0.1000 -5.2000
        vertex 0.0880 -0.1000 -3.6200
        vertex -0.2112 -0.1000 -4.0684
    endloop
endfacet
facet normal 0.0000 -5.6603 0.0000
    outer loop
        vertex 0.9200 -0.1000 2.2800
        vertex -0.2112 -0.1000 0.9484
        vertex 0.0880 -0.1000 0.5000
    endloop
endfacet
facet normal 0.0000 -4.8668 0.0000
    outer loop
        vertex 0.9200 -0.1000 -5.2000
        vertex 0.3264 -0.1000 -3.1368
        vertex 0.0880 -0.1000 -3.6200
    endloop
endfacet
facet normal 0.0000 -5.1648 0.0000
    outer loop
        vertex 0.9200 -0.1000 2.2800
        vertex 0.0880 -0.1000 0.5000
        vertex 0.3264 -0.1000 0.0168
    endloop
endfacet
facet normal 0.0000 -50.7506 0.0000
    outer loop
        vertex 0.9200 -0.1000 2.2800
        vertex 4.6000 -0.1000 5.2000
        vertex -1.9032 -0.1000 2.2464
    endloop
endfacet
facet normal 0.0000 -4.3080 0.0000
    outer loop
        vertex -1.9032 -0.1000 2.2464
        vertex -1.4200 -0.1000 2.0080
        vertex 0.9200 -0.1000 2.2800
    endloop
endfacet
facet normal 0.0000 -4.3435 0.0000
    outer loop
        vertex 0.9200 -0.1000 2.2800
        vertex 0.3264 -0.1000 0.0168
        vertex 0.4996 -0.1000 -0.4936
    endloop
endfacet
facet normal 0.0000 -4.1270 0.0000
    outer loop
        vertex 0.9200 -0.1000 -5.2000
        vertex 0.4996 -0.1000 -2.6264
        vertex 0.3264 -0.1000 -3.1368
    endloop
endfacet
facet normal 0.0661 -0.6909 -0.0131
    outer loop
        vertex 0.9200 -0.0800 -1.5600
        vertex 0.6044 -0.1000 -2.0976
        vertex 0.4996 -0.1000 -2.6264
    endloop
endfacet
facet normal 0.0661 -0.6909 0.0131
    outer loop
        vertex 0.9200 -0.0800 -1.5600
        vertex 0.4996 -0.1000 -0.4936
        vertex 0.6044 -0.1000 -1.0224
    endloop
endfacet
facet normal 0.0672 -0.9408 0.0045
    outer loop
        vertex 0.9200 -0.0800 -1.5600
        vertex 0.6044 -0.1000 -1.0224
        vertex 0.6400 -0.1000 -1.5600
    endloop
endfacet
facet normal 0.0672 -0.9408 -0.0045
    outer loop
        vertex 0.9200 -0.0800 -1.5600
        vertex 0.6400 -0.1000 -1.5600
        vertex 0.6044 -0.1000 -2.0976
    endloop
endfacet
facet normal 0.3217 -9.5641 0.0525
    outer loop
        vertex 0.9200 -0.0800 -1.5600
        vertex 0.4996 -0.1000 -2.6264
        vertex 0.9200 -0.1000 -5.2000
    endloop
endfacet
facet normal 0.3467 -10.0896 -0.0525
    outer loop
        vertex 0.9200 -0.1000 2.2800
        vertex 0.4996 -0.1000 -0.4936
        vertex 0.9200 -0.0800 -1.5600
    endloop
endfacet
facet normal 0.0000 -22.5000 0.0000
    outer loop
        vertex 3.9200 -0.1000 -5.2000
        vertex 0.9200 -0.1000 -5.2000
        vertex 0.0000 -0.1000 -6.4000
    endloop
endfacet
facet normal 0.0000 -54.7500 0.0000
    outer loop
        vertex 4.6000 -0.1000 5.2000
        vertex 0.9200 -0.1000 2.2800
        vertex 3.9200 -0.1000 2.2800
    endloop
endfacet
facet normal 0.0000 -44.2000 0.0000
    outer loop
        vertex 4.6000 -0.1000 -5.2000
        vertex 4.6000 -0.1000 5.2000
        vertex 3.9200 -0.1000 2.2800
    endloop
endfacet
facet normal 0.0000 -31.7900 0.0000
    outer loop
        vertex 3.9200 -0.1000 2.2800
        vertex 3.9200 -0.1000 -5.2000
        vertex 4.6000 -0.1000 -5.2000
    endloop
endfacet
facet normal 0.0000 -69.0000 0.0000
    outer loop
        vertex 0.0000 -0.1000 -6.4000
        vertex 9.2000 -0.1000 -6.4000
        vertex 4.6000 -0.1000 -5.2000
    endloop
endfacet
facet normal 0.0000 -5.1000 0.0000
    outer loop
        vertex 4.6000 -0.1000 -5.2000
        vertex 3.9200 -0.1000 -5.2000
        vertex 0.0000 -0.1000 -6.4000
    endloop
endfacet
facet normal 0.0000 -22.5000 0.3750
    outer loop
        vertex -3.4800 -0.0800 6.4000
        vertex 4.6000 -0.1000 5.2000
        vertex 7.6000 -0.1000 5.2000
    endloop
endfacet
facet normal -0.1500 -95.1000 0.2000
    outer loop
        vertex 7.6000 -0.1000 5.2000
        vertex 9.2000 -0.1000 6.4000
        vertex -3.4800 -0.0800 6.4000
    endloop
endfacet
facet normal 0.0000 -22.5000 0.0000
    outer loop
        vertex 4.6000 -0.1000 -5.2000
        vertex 9.2000 -0.1000 -6.4000
        vertex 7.6000 -0.1000 -5.2000
    endloop
endfacet
facet normal 0.0000 -104.0000 0.0000
    outer loop
        vertex 7.6000 -0.1000 5.2000
        vertex 7.6000 -0.1000 -5.2000
        vertex 9.2000 -0.1000 -6.4000
    endloop
endfacet
facet normal 0.0000 -128.0000 0.0000
    outer loop
        vertex 9.2000 -0.1000 -6.4000
        vertex 9.2000 -0.1000 6.4000
        vertex 7.6000 -0.1000 5.2000
    endloop
endfacet
endsolid GiantLegoRocks
