solid GiantLegoRocks
facet normal 0.0000 -13.1876 0.0000
    outer loop
        vertex -0.9928 -0.1200 2.3666
        vertex 0.0000 -0.1200 2.5618
        vertex -1.7904 -0.1200 4.3352
    endloop
endfacet
facet normal 0.0000 -5.0259 0.0000
    outer loop
        vertex -1.7904 -0.1200 4.3352
        vertex -2.1496 -0.1200 4.2136
        vertex -0.9928 -0.1200 2.3666
    endloop
endfacet
facet normal 0.0000 -13.7669 0.0000
    outer loop
        vertex -1.8328 -0.1200 1.8038
        vertex -0.9928 -0.1200 2.3666
        vertex -2.1496 -0.1200 4.2136
    endloop
endfacet
facet normal 0.0000 -23.1355 0.0000
    outer loop
        vertex -2.1496 -0.1200 4.2136
        vertex -3.5072 -0.1200 2.8560
        vertex -1.8328 -0.1200 1.8038
    endloop
endfacet
facet normal 0.0000 -12.4923 0.0000
    outer loop
        vertex -2.3957 -0.1200 0.9638
        vertex -1.8328 -0.1200 1.8038
        vertex -3.5072 -0.1200 2.8560
    endloop
endfacet
facet normal 0.0000 -18.1289 0.0000
    outer loop
        vertex -3.5072 -0.1200 2.8560
        vertex -4.2426 -0.1200 1.4983
        vertex -2.3957 -0.1200 0.9638
    endloop
endfacet
facet normal 0.0000 -12.1124 0.0000
    outer loop
        vertex -2.5908 -0.1200 -0.0290
        vertex -2.3957 -0.1200 0.9638
        vertex -4.2426 -0.1200 1.4983
    endloop
endfacet
facet normal 0.0000 -18.5341 0.0000
    outer loop
        vertex -4.2426 -0.1200 1.4983
        vertex -4.4406 -0.1200 -0.1139
        vertex -2.5908 -0.1200 -0.0290
    endloop
endfacet
facet normal 0.0000 -11.5810 0.0000
    outer loop
        vertex -2.3957 -0.1200 -1.0218
        vertex -2.5908 -0.1200 -0.0290
        vertex -4.4406 -0.1200 -0.1139
    endloop
endfacet
facet normal 0.0000 -19.3233 0.0000
    outer loop
        vertex -4.4406 -0.1200 -0.1139
        vertex -3.9598 -0.1200 -1.8392
        vertex -2.3957 -0.1200 -1.0218
    endloop
endfacet
facet normal 0.0000 -11.0876 0.0000
    outer loop
        vertex -1.8328 -0.1200 -1.8618
        vertex -2.3957 -0.1200 -1.0218
        vertex -3.9598 -0.1200 -1.8392
    endloop
endfacet
facet normal 0.0000 -17.5400 0.0000
    outer loop
        vertex -3.9598 -0.1200 -1.8392
        vertex -3.0264 -0.1200 -3.1686
        vertex -1.8328 -0.1200 -1.8618
    endloop
endfacet
facet normal 0.0000 -11.0601 0.0000
    outer loop
        vertex -0.9928 -0.1200 -2.4247
        vertex -1.8328 -0.1200 -1.8618
        vertex -3.0264 -0.1200 -3.1686
    endloop
endfacet
facet normal 0.0000 -22.4628 0.0000
    outer loop
        vertex -3.0264 -0.1200 -3.1686
        vertex -1.4425 -0.1200 -4.3565
        vertex -0.9928 -0.1200 -2.4247
    endloop
endfacet
facet normal 0.0000 -12.5349 0.0000
    outer loop
        vertex 0.0000 -0.1200 -2.6199
        vertex -0.9928 -0.1200 -2.4247
        vertex -1.4425 -0.1200 -4.3565
    endloop
endfacet
facet normal 0.0000 -23.2696 0.0000
    outer loop
        vertex -1.4425 -0.1200 -4.3565
        vertex 0.3960 -0.1200 -4.7242
        vertex 0.0000 -0.1200 -2.6199
    endloop
endfacet
facet normal 0.0000 -13.5400 0.0000
    outer loop
        vertex 0.9928 -0.1200 -2.4247
        vertex 0.0000 -0.1200 -2.6199
        vertex 0.3960 -0.1200 -4.7242
    endloop
endfacet
facet normal 0.0000 -37.6686 0.0000
    outer loop
        vertex 0.3960 -0.1200 -4.7242
        vertex 3.0830 -0.1200 -4.4697
        vertex 0.9928 -0.1200 -2.4247
    endloop
endfacet
facet normal 0.0000 -18.0905 0.0000
    outer loop
        vertex 1.8328 -0.1200 -1.8618
        vertex 0.9928 -0.1200 -2.4247
        vertex 3.0830 -0.1200 -4.4697
    endloop
endfacet
facet normal 0.0000 -47.9572 0.0000
    outer loop
        vertex 3.0830 -0.1200 -4.4697
        vertex 5.7282 -0.1200 -3.8498
        vertex 1.8328 -0.1200 -1.8618
    endloop
endfacet
facet normal 0.0000 -27.4449 0.0000
    outer loop
        vertex 2.3957 -0.1200 -1.0218
        vertex 1.8328 -0.1200 -1.8618
        vertex 5.7282 -0.1200 -3.8498
    endloop
endfacet
facet normal 0.0000 -29.9422 0.0000
    outer loop
        vertex 5.7282 -0.1200 -3.8498
        vertex 5.3962 -0.1200 -2.1305
        vertex 2.3957 -0.1200 -1.0218
    endloop
endfacet
facet normal 0.0000 -33.9915 0.0000
    outer loop
        vertex 2.3957 -0.1200 -1.0218
        vertex 5.3962 -0.1200 -2.1305
        vertex 5.0038 -0.1200 -0.1730
    endloop
endfacet
facet normal 0.0000 -15.1474 0.0000
    outer loop
        vertex 5.0038 -0.1200 -0.1730
        vertex 2.5908 -0.1200 -0.0290
        vertex 2.3957 -0.1200 -1.0218
    endloop
endfacet
facet normal -16.1132 -27.3243 -3.2299
    outer loop
        vertex 5.3962 -0.1200 -2.1305
        vertex 7.3844 -1.4370 -0.9074
        vertex 5.0038 -0.1200 -0.1730
    endloop
endfacet
facet normal -19.7196 -30.5875 -9.0679
    outer loop
        vertex 6.2876 -1.4397 1.4868
        vertex 5.0038 -0.1200 -0.1730
        vertex 7.3844 -1.4370 -0.9074
    endloop
endfacet
facet normal -83.5061 -55.1574 -38.3165
    outer loop
        vertex 6.2876 -1.4397 1.4868
        vertex 7.3844 -1.4370 -0.9074
        vertex 10.7750 -7.0183 -0.2626
    endloop
endfacet
facet normal -87.7986 -52.8499 -56.6858
    outer loop
        vertex 4.6500 -1.4251 4.0095
        vertex 6.2876 -1.4397 1.4868
        vertex 10.7750 -7.0183 -0.2626
    endloop
endfacet
facet normal -81.8925 -49.3951 -52.7412
    outer loop
        vertex 10.7750 -7.0183 -0.2626
        vertex 9.2550 -7.0079 2.0880
        vertex 4.6500 -1.4251 4.0095
    endloop
endfacet
facet normal -94.7298 -47.6606 -88.5446
    outer loop
        vertex 9.2550 -7.0079 2.0880
        vertex 6.7090 -6.9979 4.8063
        vertex 4.6500 -1.4251 4.0095
    endloop
endfacet
facet normal -68.5285 -37.7201 -86.7281
    outer loop
        vertex 2.0541 -1.1386 5.9361
        vertex 4.6500 -1.4251 4.0095
        vertex 6.7090 -6.9979 4.8063
    endloop
endfacet
facet normal -66.5016 -33.9242 -98.0633
    outer loop
        vertex 6.7090 -6.9979 4.8063
        vertex 4.0243 -6.9892 6.6240
        vertex 2.0541 -1.1386 5.9361
    endloop
endfacet
facet normal -28.0159 -20.0330 -90.1441
    outer loop
        vertex 1.5579 -6.9857 7.3897
        vertex 2.0541 -1.1386 5.9361
        vertex 4.0243 -6.9892 6.6240
    endloop
endfacet
facet normal -10.9272 -17.6035 -74.5384
    outer loop
        vertex 0.0260 -1.0026 6.2013
        vertex 2.0541 -1.1386 5.9361
        vertex 1.5579 -6.9857 7.3897
    endloop
endfacet
facet normal -1.3520 -12.0586 -58.9654
    outer loop
        vertex 1.5579 -6.9857 7.3897
        vertex 0.0012 -7.0645 7.4415
        vertex 0.0260 -1.0026 6.2013
    endloop
endfacet
facet normal 2.5889 -12.0833 -59.0074
    outer loop
        vertex 0.0012 -7.0645 7.4415
        vertex -1.5566 -7.1457 7.3898
        vertex 0.0260 -1.0026 6.2013
    endloop
endfacet
facet normal 12.2004 -18.0164 -76.8757
    outer loop
        vertex -2.0540 -1.3045 5.9419
        vertex 0.0260 -1.0026 6.2013
        vertex -1.5566 -7.1457 7.3898
    endloop
endfacet
facet normal 27.9908 -19.9502 -90.1027
    outer loop
        vertex -2.0540 -1.3045 5.9419
        vertex -1.5566 -7.1457 7.3898
        vertex -4.0243 -7.1492 6.6240
    endloop
endfacet
facet normal 66.4345 -33.8272 -97.9646
    outer loop
        vertex -2.0540 -1.3045 5.9419
        vertex -4.0243 -7.1492 6.6240
        vertex -6.7090 -7.1579 4.8063
    endloop
endfacet
facet normal 68.5958 -37.7100 -86.8106
    outer loop
        vertex -6.7090 -7.1579 4.8063
        vertex -4.6524 -1.5880 4.0119
        vertex -2.0540 -1.3045 5.9419
    endloop
endfacet
facet normal 15.9282 -30.1421 -17.0162
    outer loop
        vertex -2.2677 -0.2800 3.9272
        vertex -2.0540 -1.3045 5.9419
        vertex -4.6524 -1.5880 4.0119
    endloop
endfacet
facet normal 14.9007 -28.0194 -13.1650
    outer loop
        vertex -4.6524 -1.5880 4.0119
        vertex -3.8781 -0.2800 2.1044
        vertex -2.2677 -0.2800 3.9272
    endloop
endfacet
facet normal 0.0000 -26.3258 0.0000
    outer loop
        vertex -2.2677 -0.2800 3.9272
        vertex -3.8781 -0.2800 2.1044
        vertex -1.8328 -0.2800 1.8038
    endloop
endfacet
facet normal 0.0000 -35.2191 0.0000
    outer loop
        vertex -1.8328 -0.2800 1.8038
        vertex 0.2273 -0.2800 4.7027
        vertex -2.2677 -0.2800 3.9272
    endloop
endfacet
facet normal 1.0951 -11.6542 -3.5229
    outer loop
        vertex -0.2492 -0.5059 5.3020
        vertex -2.2677 -0.2800 3.9272
        vertex 0.2273 -0.2800 4.7027
    endloop
endfacet
facet normal 0.0000 -7.9738 0.0000
    outer loop
        vertex 0.2273 -0.2800 4.7027
        vertex -1.8328 -0.2800 1.8038
        vertex -0.9928 -0.2800 2.3666
    endloop
endfacet
facet normal 0.0000 -14.6396 0.0000
    outer loop
        vertex -0.9928 -0.2800 2.3666
        vertex 1.0380 -0.2800 4.3352
        vertex 0.2273 -0.2800 4.7027
    endloop
endfacet
facet normal 0.0000 -9.7376 0.0000
    outer loop
        vertex 1.0380 -0.2800 4.3352
        vertex -0.9928 -0.2800 2.3666
        vertex 0.0000 -0.2800 2.5618
    endloop
endfacet
facet normal 0.0000 -8.3392 0.0000
    outer loop
        vertex 0.0000 -0.2800 2.5618
        vertex 1.7904 -0.2800 4.3352
        vertex 1.0380 -0.2800 4.3352
    endloop
endfacet
facet normal 0.0000 -13.1876 0.0000
    outer loop
        vertex 1.7904 -0.2800 4.3352
        vertex 0.0000 -0.2800 2.5618
        vertex 0.9928 -0.2800 2.3666
    endloop
endfacet
facet normal 0.0000 -5.0259 0.0000
    outer loop
        vertex 0.9928 -0.2800 2.3666
        vertex 2.1496 -0.2800 4.2136
        vertex 1.7904 -0.2800 4.3352
    endloop
endfacet
facet normal 0.0000 -13.7669 0.0000
    outer loop
        vertex 2.1496 -0.2800 4.2136
        vertex 0.9928 -0.2800 2.3666
        vertex 1.8328 -0.2800 1.8038
    endloop
endfacet
facet normal 0.0000 -23.1355 0.0000
    outer loop
        vertex 1.8328 -0.2800 1.8038
        vertex 3.5072 -0.2800 2.8560
        vertex 2.1496 -0.2800 4.2136
    endloop
endfacet
facet normal 0.0000 -12.4923 0.0000
    outer loop
        vertex 3.5072 -0.2800 2.8560
        vertex 1.8328 -0.2800 1.8038
        vertex 2.3957 -0.2800 0.9638
    endloop
endfacet
facet normal 0.0000 -18.1289 0.0000
    outer loop
        vertex 2.3957 -0.2800 0.9638
        vertex 4.2426 -0.2800 1.4983
        vertex 3.5072 -0.2800 2.8560
    endloop
endfacet
facet normal 0.0000 -12.1124 0.0000
    outer loop
        vertex 4.2426 -0.2800 1.4983
        vertex 2.3957 -0.2800 0.9638
        vertex 2.5908 -0.2800 -0.0290
    endloop
endfacet
facet normal 0.0000 -18.5341 0.0000
    outer loop
        vertex 2.5908 -0.2800 -0.0290
        vertex 4.4406 -0.2800 -0.1139
        vertex 4.2426 -0.2800 1.4983
    endloop
endfacet
facet normal 0.0000 -11.5810 0.0000
    outer loop
        vertex 4.4406 -0.2800 -0.1139
        vertex 2.5908 -0.2800 -0.0290
        vertex 2.3957 -0.2800 -1.0218
    endloop
endfacet
facet normal 0.0000 -19.3233 0.0000
    outer loop
        vertex 2.3957 -0.2800 -1.0218
        vertex 3.9598 -0.2800 -1.8392
        vertex 4.4406 -0.2800 -0.1139
    endloop
endfacet
facet normal 0.0000 -11.0876 0.0000
    outer loop
        vertex 3.9598 -0.2800 -1.8392
        vertex 2.3957 -0.2800 -1.0218
        vertex 1.8328 -0.2800 -1.8618
    endloop
endfacet
facet normal 0.0000 -17.5400 0.0000
    outer loop
        vertex 1.8328 -0.2800 -1.8618
        vertex 3.0264 -0.2800 -3.1686
        vertex 3.9598 -0.2800 -1.8392
    endloop
endfacet
facet normal 0.0000 -11.0601 0.0000
    outer loop
        vertex 3.0264 -0.2800 -3.1686
        vertex 1.8328 -0.2800 -1.8618
        vertex 0.9928 -0.2800 -2.4247
    endloop
endfacet
facet normal 0.0000 -22.4628 0.0000
    outer loop
        vertex 0.9928 -0.2800 -2.4247
        vertex 1.4425 -0.2800 -4.3565
        vertex 3.0264 -0.2800 -3.1686
    endloop
endfacet
facet normal 0.0000 -12.5349 0.0000
    outer loop
        vertex 1.4425 -0.2800 -4.3565
        vertex 0.9928 -0.2800 -2.4247
        vertex 0.0000 -0.2800 -2.6199
    endloop
endfacet
facet normal 0.0000 -23.2696 0.0000
    outer loop
        vertex 0.0000 -0.2800 -2.6199
        vertex -0.3960 -0.2800 -4.7242
        vertex 1.4425 -0.2800 -4.3565
    endloop
endfacet
facet normal 0.0000 -13.5400 0.0000
    outer loop
        vertex -0.3960 -0.2800 -4.7242
        vertex 0.0000 -0.2800 -2.6199
        vertex -0.9928 -0.2800 -2.4247
    endloop
endfacet
facet normal 0.0000 -37.6686 0.0000
    outer loop
        vertex -0.9928 -0.2800 -2.4247
        vertex -3.0830 -0.2800 -4.4697
        vertex -0.3960 -0.2800 -4.7242
    endloop
endfacet
facet normal 0.0000 -18.0905 0.0000
    outer loop
        vertex -3.0830 -0.2800 -4.4697
        vertex -0.9928 -0.2800 -2.4247
        vertex -1.8328 -0.2800 -1.8618
    endloop
endfacet
facet normal 0.0000 -47.9572 0.0000
    outer loop
        vertex -1.8328 -0.2800 -1.8618
        vertex -5.7282 -0.2800 -3.8498
        vertex -3.0830 -0.2800 -4.4697
    endloop
endfacet
facet normal 0.0000 -27.4449 0.0000
    outer loop
        vertex -5.7282 -0.2800 -3.8498
        vertex -1.8328 -0.2800 -1.8618
        vertex -2.3957 -0.2800 -1.0218
    endloop
endfacet
facet normal 0.0000 -29.9329 0.0000
    outer loop
        vertex -2.3957 -0.2800 -1.0218
        vertex -5.3965 -0.2800 -2.1312
        vertex -5.7282 -0.2800 -3.8498
    endloop
endfacet
facet normal 0.0000 -32.5207 0.0000
    outer loop
        vertex -4.8912 -0.2800 -0.2105
        vertex -5.3965 -0.2800 -2.1312
        vertex -2.3957 -0.2800 -1.0218
    endloop
endfacet
facet normal 0.0000 -14.4947 0.0000
    outer loop
        vertex -2.3957 -0.2800 -1.0218
        vertex -2.5908 -0.2800 -0.0290
        vertex -4.8912 -0.2800 -0.2105
    endloop
endfacet
facet normal 15.8141 -27.7338 -4.1601
    outer loop
        vertex -7.3849 -1.5973 -0.9077
        vertex -5.3965 -0.2800 -2.1312
        vertex -4.8912 -0.2800 -0.2105
    endloop
endfacet
facet normal 19.7403 -32.5601 -9.0837
    outer loop
        vertex -4.8912 -0.2800 -0.2105
        vertex -6.2904 -1.6020 1.4875
        vertex -7.3849 -1.5973 -0.9077
    endloop
endfacet
facet normal 83.5267 -55.1624 -38.2743
    outer loop
        vertex -7.3849 -1.5973 -0.9077
        vertex -6.2904 -1.6020 1.4875
        vertex -10.7750 -7.1783 -0.2626
    endloop
endfacet
facet normal 38.8988 -25.2256 -13.8119
    outer loop
        vertex -7.3849 -1.5973 -0.9077
        vertex -10.7750 -7.1783 -0.2626
        vertex -11.1739 -7.1830 -1.3772
    endloop
endfacet
facet normal 38.4510 -25.0515 -12.2695
    outer loop
        vertex -11.1739 -7.1830 -1.3772
        vertex -11.3006 -6.8516 -2.4508
        vertex -7.3849 -1.5973 -0.9077
    endloop
endfacet
facet normal 26.8501 -17.2196 -9.4998
    outer loop
        vertex -7.3849 -1.5973 -0.9077
        vertex -11.3006 -6.8516 -2.4508
        vertex -10.9040 -5.9313 -2.9981
    endloop
endfacet
facet normal 63.9470 -40.8111 -23.0386
    outer loop
        vertex -10.9040 -5.9313 -2.9981
        vertex -8.2464 -1.6108 -3.2750
        vertex -7.3849 -1.5973 -0.9077
    endloop
endfacet
facet normal 87.8266 -52.8393 -56.6948
    outer loop
        vertex -10.7750 -7.1783 -0.2626
        vertex -6.2904 -1.6020 1.4875
        vertex -4.6524 -1.5880 4.0119
    endloop
endfacet
facet normal 81.8500 -49.3374 -52.7140
    outer loop
        vertex -4.6524 -1.5880 4.0119
        vertex -9.2550 -7.1679 2.0880
        vertex -10.7750 -7.1783 -0.2626
    endloop
endfacet
facet normal 19.1270 -30.9955 -8.3709
    outer loop
        vertex -6.2904 -1.6020 1.4875
        vertex -4.8912 -0.2800 -0.2105
        vertex -3.8781 -0.2800 2.1044
    endloop
endfacet
facet normal 0.0000 -32.1339 0.0000
    outer loop
        vertex -3.8781 -0.2800 2.1044
        vertex -4.8912 -0.2800 -0.2105
        vertex -2.5908 -0.2800 -0.0290
    endloop
endfacet
facet normal 0.0000 -10.5899 0.0000
    outer loop
        vertex -2.5908 -0.2800 -0.0290
        vertex -2.3957 -0.2800 0.9638
        vertex -3.8781 -0.2800 2.1044
    endloop
endfacet
facet normal 19.5935 -36.0067 -6.9253
    outer loop
        vertex -5.3965 -0.2800 -2.1312
        vertex -7.3849 -1.5973 -0.9077
        vertex -8.2464 -1.6108 -3.2750
    endloop
endfacet
facet normal 14.2945 -28.2399 -2.7587
    outer loop
        vertex -8.2464 -1.6108 -3.2750
        vertex -5.7282 -0.2800 -3.8498
        vertex -5.3965 -0.2800 -2.1312
    endloop
endfacet
facet normal 0.0000 -11.7958 0.0000
    outer loop
        vertex -2.3957 -0.2800 0.9638
        vertex -1.8328 -0.2800 1.8038
        vertex -3.8781 -0.2800 2.1044
    endloop
endfacet
facet normal 20.8039 -31.7443 -13.3229
    outer loop
        vertex -3.8781 -0.2800 2.1044
        vertex -4.6524 -1.5880 4.0119
        vertex -6.2904 -1.6020 1.4875
    endloop
endfacet
facet normal 5.9580 -23.5812 -12.6226
    outer loop
        vertex -2.2677 -0.2800 3.9272
        vertex -0.2492 -0.5059 5.3020
        vertex -2.0540 -1.3045 5.9419
    endloop
endfacet
facet normal 1.5583 -6.8398 -4.1401
    outer loop
        vertex -0.3036 -0.8970 5.9276
        vertex -2.0540 -1.3045 5.9419
        vertex -0.2492 -0.5059 5.3020
    endloop
endfacet
facet normal 94.6807 -47.5822 -88.4989
    outer loop
        vertex -6.7090 -7.1579 4.8063
        vertex -9.2550 -7.1679 2.0880
        vertex -4.6524 -1.5880 4.0119
    endloop
endfacet
facet normal 0.6875 -3.0236 -1.9947
    outer loop
        vertex -2.0540 -1.3045 5.9419
        vertex -0.3036 -0.8970 5.9276
        vertex 0.0260 -1.0026 6.2013
    endloop
endfacet
facet normal -0.6331 -2.1301 -3.7490
    outer loop
        vertex 0.2067 -0.7190 6.0096
        vertex 2.0541 -1.1386 5.9361
        vertex 0.0260 -1.0026 6.2013
    endloop
endfacet
facet normal -1.9053 -7.5753 -4.6370
    outer loop
        vertex 2.0541 -1.1386 5.9361
        vertex 0.2067 -0.7190 6.0096
        vertex 0.3263 -0.3445 5.3488
    endloop
endfacet
facet normal -5.3298 -21.2861 -13.1000
    outer loop
        vertex 0.3263 -0.3445 5.3488
        vertex 2.4773 -0.1200 4.1088
        vertex 2.0541 -1.1386 5.9361
    endloop
endfacet
facet normal -0.8436 -12.9665 -3.8112
    outer loop
        vertex 2.4773 -0.1200 4.1088
        vertex 0.3263 -0.3445 5.3488
        vertex -0.2264 -0.1187 4.7029
    endloop
endfacet
facet normal -0.0184 -41.3433 0.0052
    outer loop
        vertex 2.4773 -0.1200 4.1088
        vertex -0.2264 -0.1187 4.7029
        vertex 1.8328 -0.1200 1.8038
    endloop
endfacet
facet normal 0.0000 -30.5109 0.0000
    outer loop
        vertex 1.8328 -0.1200 1.8038
        vertex 4.0861 -0.1200 2.2880
        vertex 2.4773 -0.1200 4.1088
    endloop
endfacet
facet normal -14.8519 -23.7272 -13.1233
    outer loop
        vertex 4.0861 -0.1200 2.2880
        vertex 4.6500 -1.4251 4.0095
        vertex 2.4773 -0.1200 4.1088
    endloop
endfacet
facet normal 0.0000 -13.5337 0.0000
    outer loop
        vertex 1.8328 -0.1200 1.8038
        vertex 2.3957 -0.1200 0.9638
        vertex 4.0861 -0.1200 2.2880
    endloop
endfacet
facet normal 0.0000 -12.1045 0.0000
    outer loop
        vertex 4.0861 -0.1200 2.2880
        vertex 2.3957 -0.1200 0.9638
        vertex 2.5908 -0.1200 -0.0290
    endloop
endfacet
facet normal 0.0000 -36.2889 0.0000
    outer loop
        vertex 2.5908 -0.1200 -0.0290
        vertex 5.0038 -0.1200 -0.1730
        vertex 4.0861 -0.1200 2.2880
    endloop
endfacet
facet normal 0.0045 -7.9776 0.0067
    outer loop
        vertex 0.9928 -0.1200 2.3666
        vertex 1.8328 -0.1200 1.8038
        vertex -0.2264 -0.1187 4.7029
    endloop
endfacet
facet normal 0.0157 -14.6520 0.0162
    outer loop
        vertex -0.2264 -0.1187 4.7029
        vertex -1.0380 -0.1200 4.3352
        vertex 0.9928 -0.1200 2.3666
    endloop
endfacet
facet normal 0.0000 -9.7376 0.0000
    outer loop
        vertex 0.0000 -0.1200 2.5618
        vertex 0.9928 -0.1200 2.3666
        vertex -1.0380 -0.1200 4.3352
    endloop
endfacet
facet normal 0.0000 -8.3392 0.0000
    outer loop
        vertex -1.0380 -0.1200 4.3352
        vertex -1.7904 -0.1200 4.3352
        vertex 0.0000 -0.1200 2.5618
    endloop
endfacet
facet normal -15.5372 -24.5514 -17.2840
    outer loop
        vertex 2.0541 -1.1386 5.9361
        vertex 2.4773 -0.1200 4.1088
        vertex 4.6500 -1.4251 4.0095
    endloop
endfacet
facet normal -20.7345 -26.5098 -13.3059
    outer loop
        vertex 4.6500 -1.4251 4.0095
        vertex 4.0861 -0.1200 2.2880
        vertex 6.2876 -1.4397 1.4868
    endloop
endfacet
facet normal -38.9010 -25.2285 -13.8127
    outer loop
        vertex 10.7750 -7.0183 -0.2626
        vertex 7.3844 -1.4370 -0.9074
        vertex 11.1739 -7.0230 -1.3772
    endloop
endfacet
facet normal -38.4537 -25.0547 -12.2708
    outer loop
        vertex 11.3006 -6.6916 -2.4508
        vertex 11.1739 -7.0230 -1.3772
        vertex 7.3844 -1.4370 -0.9074
    endloop
endfacet
facet normal -26.8528 -17.2220 -9.5020
    outer loop
        vertex 10.9040 -5.7713 -2.9981
        vertex 11.3006 -6.6916 -2.4508
        vertex 7.3844 -1.4370 -0.9074
    endloop
endfacet
facet normal -63.9551 -40.8166 -23.0474
    outer loop
        vertex 7.3844 -1.4370 -0.9074
        vertex 8.2464 -1.4508 -3.2750
        vertex 10.9040 -5.7713 -2.9981
    endloop
endfacet
facet normal -20.2983 -29.2654 -7.5690
    outer loop
        vertex 5.0038 -0.1200 -0.1730
        vertex 6.2876 -1.4397 1.4868
        vertex 4.0861 -0.1200 2.2880
    endloop
endfacet
facet normal -19.5935 -36.0089 -6.9239
    outer loop
        vertex 7.3844 -1.4370 -0.9074
        vertex 5.3962 -0.1200 -2.1305
        vertex 8.2464 -1.4508 -3.2750
    endloop
endfacet
facet normal -14.3004 -28.2524 -2.7614
    outer loop
        vertex 5.7282 -0.1200 -3.8498
        vertex 8.2464 -1.4508 -3.2750
        vertex 5.3962 -0.1200 -2.1305
    endloop
endfacet
facet normal 0.1464 0.0000 -0.7446
    outer loop
        vertex -0.9928 0.0000 2.3666
        vertex 0.0000 0.0000 2.5618
        vertex 0.0000 -0.1200 2.5618
    endloop
endfacet
facet normal 0.1464 0.0000 -0.7446
    outer loop
        vertex 0.0000 -0.1200 2.5618
        vertex -0.9928 -0.1200 2.3666
        vertex -0.9928 0.0000 2.3666
    endloop
endfacet
facet normal -0.1464 0.0000 -0.7446
    outer loop
        vertex 0.0000 0.0000 2.5618
        vertex 0.9928 0.0000 2.3666
        vertex 0.9928 -0.1200 2.3666
    endloop
endfacet
facet normal -0.1464 0.0000 -0.7446
    outer loop
        vertex 0.9928 -0.1200 2.3666
        vertex 0.0000 -0.1200 2.5618
        vertex 0.0000 0.0000 2.5618
    endloop
endfacet
facet normal -0.4221 0.0000 -0.6301
    outer loop
        vertex 0.9928 0.0000 2.3666
        vertex 1.8328 0.0000 1.8038
        vertex 1.8328 -0.1200 1.8038
    endloop
endfacet
facet normal -0.4221 0.0000 -0.6301
    outer loop
        vertex 1.8328 -0.1200 1.8038
        vertex 0.9928 -0.1200 2.3666
        vertex 0.9928 0.0000 2.3666
    endloop
endfacet
facet normal -0.6300 0.0000 -0.4221
    outer loop
        vertex 1.8328 0.0000 1.8038
        vertex 2.3957 0.0000 0.9638
        vertex 2.3957 -0.1200 0.9638
    endloop
endfacet
facet normal -0.6300 0.0000 -0.4221
    outer loop
        vertex 2.3957 -0.1200 0.9638
        vertex 1.8328 -0.1200 1.8038
        vertex 1.8328 0.0000 1.8038
    endloop
endfacet
facet normal -0.7446 0.0000 -0.1464
    outer loop
        vertex 2.3957 0.0000 0.9638
        vertex 2.5908 0.0000 -0.0290
        vertex 2.5908 -0.1200 -0.0290
    endloop
endfacet
facet normal -0.7446 0.0000 -0.1464
    outer loop
        vertex 2.5908 -0.1200 -0.0290
        vertex 2.3957 -0.1200 0.9638
        vertex 2.3957 0.0000 0.9638
    endloop
endfacet
facet normal -0.7446 0.0000 0.1464
    outer loop
        vertex 2.5908 0.0000 -0.0290
        vertex 2.3957 0.0000 -1.0218
        vertex 2.3957 -0.1200 -1.0218
    endloop
endfacet
facet normal -0.7446 0.0000 0.1464
    outer loop
        vertex 2.3957 -0.1200 -1.0218
        vertex 2.5908 -0.1200 -0.0290
        vertex 2.5908 0.0000 -0.0290
    endloop
endfacet
facet normal -0.6300 0.0000 0.4221
    outer loop
        vertex 2.3957 0.0000 -1.0218
        vertex 1.8328 0.0000 -1.8618
        vertex 1.8328 -0.1200 -1.8618
    endloop
endfacet
facet normal -0.6300 0.0000 0.4221
    outer loop
        vertex 1.8328 -0.1200 -1.8618
        vertex 2.3957 -0.1200 -1.0218
        vertex 2.3957 0.0000 -1.0218
    endloop
endfacet
facet normal -0.4222 0.0000 0.6301
    outer loop
        vertex 1.8328 0.0000 -1.8618
        vertex 0.9928 0.0000 -2.4247
        vertex 0.9928 -0.1200 -2.4247
    endloop
endfacet
facet normal -0.4222 0.0000 0.6301
    outer loop
        vertex 0.9928 -0.1200 -2.4247
        vertex 1.8328 -0.1200 -1.8618
        vertex 1.8328 0.0000 -1.8618
    endloop
endfacet
facet normal -0.1464 0.0000 0.7446
    outer loop
        vertex 0.9928 0.0000 -2.4247
        vertex 0.0000 0.0000 -2.6199
        vertex 0.0000 -0.1200 -2.6199
    endloop
endfacet
facet normal -0.1464 0.0000 0.7446
    outer loop
        vertex 0.0000 -0.1200 -2.6199
        vertex 0.9928 -0.1200 -2.4247
        vertex 0.9928 0.0000 -2.4247
    endloop
endfacet
facet normal 0.1464 0.0000 0.7446
    outer loop
        vertex 0.0000 0.0000 -2.6199
        vertex -0.9928 0.0000 -2.4247
        vertex -0.9928 -0.1200 -2.4247
    endloop
endfacet
facet normal 0.1464 0.0000 0.7446
    outer loop
        vertex -0.9928 -0.1200 -2.4247
        vertex 0.0000 -0.1200 -2.6199
        vertex 0.0000 0.0000 -2.6199
    endloop
endfacet
facet normal 0.4222 0.0000 0.6301
    outer loop
        vertex -0.9928 0.0000 -2.4247
        vertex -1.8328 0.0000 -1.8618
        vertex -1.8328 -0.1200 -1.8618
    endloop
endfacet
facet normal 0.4222 0.0000 0.6301
    outer loop
        vertex -1.8328 -0.1200 -1.8618
        vertex -0.9928 -0.1200 -2.4247
        vertex -0.9928 0.0000 -2.4247
    endloop
endfacet
facet normal 0.6300 0.0000 0.4221
    outer loop
        vertex -1.8328 0.0000 -1.8618
        vertex -2.3957 0.0000 -1.0218
        vertex -2.3957 -0.1200 -1.0218
    endloop
endfacet
facet normal 0.6300 0.0000 0.4221
    outer loop
        vertex -2.3957 -0.1200 -1.0218
        vertex -1.8328 -0.1200 -1.8618
        vertex -1.8328 0.0000 -1.8618
    endloop
endfacet
facet normal 0.7446 0.0000 0.1464
    outer loop
        vertex -2.3957 0.0000 -1.0218
        vertex -2.5908 0.0000 -0.0290
        vertex -2.5908 -0.1200 -0.0290
    endloop
endfacet
facet normal 0.7446 0.0000 0.1464
    outer loop
        vertex -2.5908 -0.1200 -0.0290
        vertex -2.3957 -0.1200 -1.0218
        vertex -2.3957 0.0000 -1.0218
    endloop
endfacet
facet normal 0.7446 0.0000 -0.1464
    outer loop
        vertex -2.5908 0.0000 -0.0290
        vertex -2.3957 0.0000 0.9638
        vertex -2.3957 -0.1200 0.9638
    endloop
endfacet
facet normal 0.7446 0.0000 -0.1464
    outer loop
        vertex -2.3957 -0.1200 0.9638
        vertex -2.5908 -0.1200 -0.0290
        vertex -2.5908 0.0000 -0.0290
    endloop
endfacet
facet normal 0.6300 0.0000 -0.4221
    outer loop
        vertex -2.3957 0.0000 0.9638
        vertex -1.8328 0.0000 1.8038
        vertex -1.8328 -0.1200 1.8038
    endloop
endfacet
facet normal 0.6300 0.0000 -0.4221
    outer loop
        vertex -1.8328 -0.1200 1.8038
        vertex -2.3957 -0.1200 0.9638
        vertex -2.3957 0.0000 0.9638
    endloop
endfacet
facet normal 0.4221 0.0000 -0.6301
    outer loop
        vertex -1.8328 0.0000 1.8038
        vertex -0.9928 0.0000 2.3666
        vertex -0.9928 -0.1200 2.3666
    endloop
endfacet
facet normal 0.4221 0.0000 -0.6301
    outer loop
        vertex -0.9928 -0.1200 2.3666
        vertex -1.8328 -0.1200 1.8038
        vertex -1.8328 0.0000 1.8038
    endloop
endfacet
facet normal -0.0912 0.0000 0.2694
    outer loop
        vertex -1.7904 0.0000 4.3352
        vertex -2.1496 0.0000 4.2136
        vertex -2.1496 -0.1200 4.2136
    endloop
endfacet
facet normal -0.0912 0.0000 0.2694
    outer loop
        vertex -2.1496 -0.1200 4.2136
        vertex -1.7904 -0.1200 4.3352
        vertex -1.7904 0.0000 4.3352
    endloop
endfacet
facet normal -1.0182 0.0000 1.0182
    outer loop
        vertex -2.1496 0.0000 4.2136
        vertex -3.5072 0.0000 2.8560
        vertex -3.5072 -0.1200 2.8560
    endloop
endfacet
facet normal -1.0182 0.0000 1.0182
    outer loop
        vertex -3.5072 -0.1200 2.8560
        vertex -2.1496 -0.1200 4.2136
        vertex -2.1496 0.0000 4.2136
    endloop
endfacet
facet normal -1.0182 0.0000 0.5515
    outer loop
        vertex -3.5072 0.0000 2.8560
        vertex -4.2426 0.0000 1.4983
        vertex -4.2426 -0.1200 1.4983
    endloop
endfacet
facet normal -1.0182 0.0000 0.5515
    outer loop
        vertex -4.2426 -0.1200 1.4983
        vertex -3.5072 -0.1200 2.8560
        vertex -3.5072 0.0000 2.8560
    endloop
endfacet
facet normal -1.2091 0.0000 0.1485
    outer loop
        vertex -4.2426 0.0000 1.4983
        vertex -4.4406 0.0000 -0.1139
        vertex -4.4406 -0.1200 -0.1139
    endloop
endfacet
facet normal -1.2091 0.0000 0.1485
    outer loop
        vertex -4.4406 -0.1200 -0.1139
        vertex -4.2426 -0.1200 1.4983
        vertex -4.2426 0.0000 1.4983
    endloop
endfacet
facet normal -1.2940 0.0000 -0.3606
    outer loop
        vertex -4.4406 0.0000 -0.1139
        vertex -3.9598 0.0000 -1.8392
        vertex -3.9598 -0.1200 -1.8392
    endloop
endfacet
facet normal -1.2940 0.0000 -0.3606
    outer loop
        vertex -3.9598 -0.1200 -1.8392
        vertex -4.4406 -0.1200 -0.1139
        vertex -4.4406 0.0000 -0.1139
    endloop
endfacet
facet normal -0.9970 0.0000 -0.7000
    outer loop
        vertex -3.9598 0.0000 -1.8392
        vertex -3.0264 0.0000 -3.1686
        vertex -3.0264 -0.1200 -3.1686
    endloop
endfacet
facet normal -0.9970 0.0000 -0.7000
    outer loop
        vertex -3.0264 -0.1200 -3.1686
        vertex -3.9598 -0.1200 -1.8392
        vertex -3.9598 0.0000 -1.8392
    endloop
endfacet
facet normal -0.8909 0.0000 -1.1879
    outer loop
        vertex -3.0264 0.0000 -3.1686
        vertex -1.4425 0.0000 -4.3565
        vertex -1.4425 -0.1200 -4.3565
    endloop
endfacet
facet normal -0.8909 0.0000 -1.1879
    outer loop
        vertex -1.4425 -0.1200 -4.3565
        vertex -3.0264 -0.1200 -3.1686
        vertex -3.0264 0.0000 -3.1686
    endloop
endfacet
facet normal -0.2758 0.0000 -1.3788
    outer loop
        vertex -1.4425 0.0000 -4.3565
        vertex 0.3960 0.0000 -4.7242
        vertex 0.3960 -0.1200 -4.7242
    endloop
endfacet
facet normal -0.2758 0.0000 -1.3788
    outer loop
        vertex 0.3960 -0.1200 -4.7242
        vertex -1.4425 -0.1200 -4.3565
        vertex -1.4425 0.0000 -4.3565
    endloop
endfacet
facet normal 0.1909 0.0000 -2.0153
    outer loop
        vertex 0.3960 0.0000 -4.7242
        vertex 3.0830 0.0000 -4.4697
        vertex 3.0830 -0.1200 -4.4697
    endloop
endfacet
facet normal 0.1909 0.0000 -2.0153
    outer loop
        vertex 3.0830 -0.1200 -4.4697
        vertex 0.3960 -0.1200 -4.7242
        vertex 0.3960 0.0000 -4.7242
    endloop
endfacet
facet normal 0.4667 -0.0120 -1.9940
    outer loop
        vertex 3.0830 0.0000 -4.4697
        vertex 5.7417 0.0000 -3.8474
        vertex 5.7282 -0.1200 -3.8498
    endloop
endfacet
facet normal 0.4649 0.0000 -1.9839
    outer loop
        vertex 5.7282 -0.1200 -3.8498
        vertex 3.0830 -0.1200 -4.4697
        vertex 3.0830 0.0000 -4.4697
    endloop
endfacet
facet normal 0.5200 0.0893 -2.0489
    outer loop
        vertex 5.7417 0.0000 -3.8474
        vertex 8.3156 -1.3600 -3.2534
        vertex 8.2464 -1.4508 -3.2750
    endloop
endfacet
facet normal 0.4515 -0.0102 -2.0011
    outer loop
        vertex 5.7417 0.0000 -3.8474
        vertex 8.2464 -1.4508 -3.2750
        vertex 5.7282 -0.1200 -3.8498
    endloop
endfacet
facet normal 1.0486 0.4027 -3.6720
    outer loop
        vertex 8.3156 -1.3600 -3.2534
        vertex 11.0007 -5.7092 -2.9637
        vertex 10.9040 -5.7713 -2.9981
    endloop
endfacet
facet normal 0.7382 0.2377 -3.3768
    outer loop
        vertex 8.3156 -1.3600 -3.2534
        vertex 10.9040 -5.7713 -2.9981
        vertex 8.2464 -1.4508 -3.2750
    endloop
endfacet
facet normal 0.4017 -0.2494 -0.7127
    outer loop
        vertex 11.0007 -5.7092 -2.9637
        vertex 11.3975 -6.6289 -2.4181
        vertex 11.3006 -6.6916 -2.4508
    endloop
endfacet
facet normal 0.4105 -0.2456 -0.7105
    outer loop
        vertex 11.3006 -6.6916 -2.4508
        vertex 10.9040 -5.7713 -2.9981
        vertex 11.0007 -5.7092 -2.9637
    endloop
endfacet
facet normal 0.4903 -0.6751 -0.1503
    outer loop
        vertex 11.3975 -6.6289 -2.4181
        vertex 11.2706 -6.9600 -1.3446
        vertex 11.1739 -7.0230 -1.3772
    endloop
endfacet
facet normal 0.4885 -0.6762 -0.1511
    outer loop
        vertex 11.1739 -7.0230 -1.3772
        vertex 11.3006 -6.6916 -2.4508
        vertex 11.3975 -6.6289 -2.4181
    endloop
endfacet
facet normal 0.4117 -0.7746 0.1469
    outer loop
        vertex 11.2706 -6.9600 -1.3446
        vertex 10.8675 -6.9600 -0.2143
        vertex 10.7750 -7.0183 -0.2626
    endloop
endfacet
facet normal 0.4379 -0.7555 0.1599
    outer loop
        vertex 11.2706 -6.9600 -1.3446
        vertex 10.7750 -7.0183 -0.2626
        vertex 11.1739 -7.0230 -1.3772
    endloop
endfacet
facet normal 0.7097 -1.9189 0.4572
    outer loop
        vertex 10.8675 -6.9600 -0.2143
        vertex 9.3411 -6.9600 2.1554
        vertex 9.2550 -7.0079 2.0880
    endloop
endfacet
facet normal 0.8531 -1.8167 0.5597
    outer loop
        vertex 10.8675 -6.9600 -0.2143
        vertex 9.2550 -7.0079 2.0880
        vertex 10.7750 -7.0183 -0.2626
    endloop
endfacet
facet normal 0.6482 -2.6340 0.6060
    outer loop
        vertex 9.3411 -6.9600 2.1554
        vertex 6.7815 -6.9600 4.8935
        vertex 6.7090 -6.9979 4.8063
    endloop
endfacet
facet normal 0.8099 -2.5363 0.7679
    outer loop
        vertex 9.3411 -6.9600 2.1554
        vertex 6.7090 -6.9979 4.8063
        vertex 9.2550 -7.0079 2.0880
    endloop
endfacet
facet normal 0.3347 -2.3262 0.4941
    outer loop
        vertex 6.7815 -6.9600 4.8935
        vertex 4.0741 -6.9600 6.7277
        vertex 4.0243 -6.9892 6.6240
    endloop
endfacet
facet normal 0.4256 -2.2854 0.6395
    outer loop
        vertex 6.7815 -6.9600 4.8935
        vertex 4.0243 -6.9892 6.6240
        vertex 6.7090 -6.9979 4.8063
    endloop
endfacet
facet normal 0.1249 -1.8855 0.4015
    outer loop
        vertex 4.0741 -6.9600 6.7277
        vertex 1.5767 -6.9600 7.5047
        vertex 1.5579 -6.9857 7.3897
    endloop
endfacet
facet normal 0.1375 -1.8376 0.4512
    outer loop
        vertex 4.0741 -6.9600 6.7277
        vertex 1.5579 -6.9857 7.3897
        vertex 4.0243 -6.9892 6.6240
    endloop
endfacet
facet normal 0.0670 -1.1561 0.2419
    outer loop
        vertex 1.5767 -6.9600 7.5047
        vertex 0.0000 -7.0400 7.5589
        vertex 0.0012 -7.0645 7.4415
    endloop
endfacet
facet normal 0.0649 -1.1245 0.2410
    outer loop
        vertex 0.0012 -7.0645 7.4415
        vertex 1.5579 -6.9857 7.3897
        vertex 1.5767 -6.9600 7.5047
    endloop
endfacet
facet normal 0.0487 -1.1389 0.2631
    outer loop
        vertex 0.0000 -7.0400 7.5589
        vertex -1.5767 -7.1200 7.5047
        vertex -1.5566 -7.1457 7.3898
    endloop
endfacet
facet normal 0.0516 -1.1430 0.2390
    outer loop
        vertex 0.0000 -7.0400 7.5589
        vertex -1.5566 -7.1457 7.3898
        vertex 0.0012 -7.0645 7.4415
    endloop
endfacet
facet normal -0.1418 -1.8612 0.4558
    outer loop
        vertex -1.5767 -7.1200 7.5047
        vertex -4.0741 -7.1200 6.7277
        vertex -4.0243 -7.1492 6.6240
    endloop
endfacet
facet normal -0.1204 -1.8682 0.3965
    outer loop
        vertex -1.5767 -7.1200 7.5047
        vertex -4.0243 -7.1492 6.6240
        vertex -1.5566 -7.1457 7.3898
    endloop
endfacet
facet normal -0.4343 -2.3053 0.6410
    outer loop
        vertex -4.0741 -7.1200 6.7277
        vertex -6.7815 -7.1200 4.8935
        vertex -6.7090 -7.1579 4.8063
    endloop
endfacet
facet normal -0.3261 -2.3063 0.4927
    outer loop
        vertex -4.0741 -7.1200 6.7277
        vertex -6.7090 -7.1579 4.8063
        vertex -4.0243 -7.1492 6.6240
    endloop
endfacet
facet normal -0.8201 -2.5526 0.7666
    outer loop
        vertex -6.7815 -7.1200 4.8935
        vertex -9.3411 -7.1200 2.1554
        vertex -9.2550 -7.1679 2.0880
    endloop
endfacet
facet normal -0.6381 -2.6176 0.6073
    outer loop
        vertex -6.7815 -7.1200 4.8935
        vertex -9.2550 -7.1679 2.0880
        vertex -6.7090 -7.1579 4.8063
    endloop
endfacet
facet normal -0.8632 -1.8297 0.5560
    outer loop
        vertex -9.3411 -7.1200 2.1554
        vertex -10.8675 -7.1200 -0.2143
        vertex -10.7750 -7.1783 -0.2626
    endloop
endfacet
facet normal -0.6996 -1.9059 0.4608
    outer loop
        vertex -9.3411 -7.1200 2.1554
        vertex -10.7750 -7.1783 -0.2626
        vertex -9.2550 -7.1679 2.0880
    endloop
endfacet
facet normal -0.4450 -0.7659 0.1587
    outer loop
        vertex -10.8675 -7.1200 -0.2143
        vertex -11.2706 -7.1200 -1.3446
        vertex -11.1739 -7.1830 -1.3772
    endloop
endfacet
facet normal -0.4046 -0.7643 0.1480
    outer loop
        vertex -10.8675 -7.1200 -0.2143
        vertex -11.1739 -7.1830 -1.3772
        vertex -10.7750 -7.1783 -0.2626
    endloop
endfacet
facet normal -0.4885 -0.6762 -0.1508
    outer loop
        vertex -11.2706 -7.1200 -1.3446
        vertex -11.3975 -6.7889 -2.4181
        vertex -11.3006 -6.8516 -2.4508
    endloop
endfacet
facet normal -0.4904 -0.6751 -0.1505
    outer loop
        vertex -11.3006 -6.8516 -2.4508
        vertex -11.1739 -7.1830 -1.3772
        vertex -11.2706 -7.1200 -1.3446
    endloop
endfacet
facet normal -0.4096 -0.2445 -0.7101
    outer loop
        vertex -11.3975 -6.7889 -2.4181
        vertex -11.0007 -5.8692 -2.9637
        vertex -10.9040 -5.9313 -2.9981
    endloop
endfacet
facet normal -0.4025 -0.2505 -0.7130
    outer loop
        vertex -10.9040 -5.9313 -2.9981
        vertex -11.3006 -6.8516 -2.4508
        vertex -11.3975 -6.7889 -2.4181
    endloop
endfacet
facet normal -0.7494 0.2358 -3.4049
    outer loop
        vertex -11.0007 -5.8692 -2.9637
        vertex -8.3156 -1.5200 -3.2534
        vertex -8.2464 -1.6108 -3.2750
    endloop
endfacet
facet normal -1.0374 0.4046 -3.6440
    outer loop
        vertex -11.0007 -5.8692 -2.9637
        vertex -8.2464 -1.6108 -3.2750
        vertex -10.9040 -5.9313 -2.9981
    endloop
endfacet
facet normal -0.4662 -0.0109 -2.0453
    outer loop
        vertex -8.3156 -1.5200 -3.2534
        vertex -5.7417 -0.1600 -3.8474
        vertex -5.7282 -0.2800 -3.8498
    endloop
endfacet
facet normal -0.5052 0.0901 -2.0046
    outer loop
        vertex -8.3156 -1.5200 -3.2534
        vertex -5.7282 -0.2800 -3.8498
        vertex -8.2464 -1.6108 -3.2750
    endloop
endfacet
facet normal -0.4667 0.0000 -1.9940
    outer loop
        vertex -5.7417 -0.1600 -3.8474
        vertex -3.0830 -0.1600 -4.4697
        vertex -3.0830 -0.2800 -4.4697
    endloop
endfacet
facet normal -0.4649 -0.0120 -1.9839
    outer loop
        vertex -3.0830 -0.2800 -4.4697
        vertex -5.7282 -0.2800 -3.8498
        vertex -5.7417 -0.1600 -3.8474
    endloop
endfacet
facet normal -0.1909 0.0000 -2.0153
    outer loop
        vertex -3.0830 -0.1600 -4.4697
        vertex -0.3960 -0.1600 -4.7242
        vertex -0.3960 -0.2800 -4.7242
    endloop
endfacet
facet normal -0.1909 0.0000 -2.0153
    outer loop
        vertex -0.3960 -0.2800 -4.7242
        vertex -3.0830 -0.2800 -4.4697
        vertex -3.0830 -0.1600 -4.4697
    endloop
endfacet
facet normal 0.2758 0.0000 -1.3788
    outer loop
        vertex -0.3960 -0.1600 -4.7242
        vertex 1.4425 -0.1600 -4.3565
        vertex 1.4425 -0.2800 -4.3565
    endloop
endfacet
facet normal 0.2758 0.0000 -1.3788
    outer loop
        vertex 1.4425 -0.2800 -4.3565
        vertex -0.3960 -0.2800 -4.7242
        vertex -0.3960 -0.1600 -4.7242
    endloop
endfacet
facet normal 0.8909 0.0000 -1.1879
    outer loop
        vertex 1.4425 -0.1600 -4.3565
        vertex 3.0264 -0.1600 -3.1686
        vertex 3.0264 -0.2800 -3.1686
    endloop
endfacet
facet normal 0.8909 0.0000 -1.1879
    outer loop
        vertex 3.0264 -0.2800 -3.1686
        vertex 1.4425 -0.2800 -4.3565
        vertex 1.4425 -0.1600 -4.3565
    endloop
endfacet
facet normal 0.9970 0.0000 -0.7000
    outer loop
        vertex 3.0264 -0.1600 -3.1686
        vertex 3.9598 -0.1600 -1.8392
        vertex 3.9598 -0.2800 -1.8392
    endloop
endfacet
facet normal 0.9970 0.0000 -0.7000
    outer loop
        vertex 3.9598 -0.2800 -1.8392
        vertex 3.0264 -0.2800 -3.1686
        vertex 3.0264 -0.1600 -3.1686
    endloop
endfacet
facet normal 1.2940 0.0000 -0.3606
    outer loop
        vertex 3.9598 -0.1600 -1.8392
        vertex 4.4406 -0.1600 -0.1139
        vertex 4.4406 -0.2800 -0.1139
    endloop
endfacet
facet normal 1.2940 0.0000 -0.3606
    outer loop
        vertex 4.4406 -0.2800 -0.1139
        vertex 3.9598 -0.2800 -1.8392
        vertex 3.9598 -0.1600 -1.8392
    endloop
endfacet
facet normal 1.2091 0.0000 0.1485
    outer loop
        vertex 4.4406 -0.1600 -0.1139
        vertex 4.2426 -0.1600 1.4983
        vertex 4.2426 -0.2800 1.4983
    endloop
endfacet
facet normal 1.2091 0.0000 0.1485
    outer loop
        vertex 4.2426 -0.2800 1.4983
        vertex 4.4406 -0.2800 -0.1139
        vertex 4.4406 -0.1600 -0.1139
    endloop
endfacet
facet normal 1.0182 0.0000 0.5515
    outer loop
        vertex 4.2426 -0.1600 1.4983
        vertex 3.5072 -0.1600 2.8560
        vertex 3.5072 -0.2800 2.8560
    endloop
endfacet
facet normal 1.0182 0.0000 0.5515
    outer loop
        vertex 3.5072 -0.2800 2.8560
        vertex 4.2426 -0.2800 1.4983
        vertex 4.2426 -0.1600 1.4983
    endloop
endfacet
facet normal 1.0182 0.0000 1.0182
    outer loop
        vertex 3.5072 -0.1600 2.8560
        vertex 2.1496 -0.1600 4.2136
        vertex 2.1496 -0.2800 4.2136
    endloop
endfacet
facet normal 1.0182 0.0000 1.0182
    outer loop
        vertex 2.1496 -0.2800 4.2136
        vertex 3.5072 -0.2800 2.8560
        vertex 3.5072 -0.1600 2.8560
    endloop
endfacet
facet normal 0.0912 0.0000 0.2694
    outer loop
        vertex 2.1496 -0.1600 4.2136
        vertex 1.7904 -0.1600 4.3352
        vertex 1.7904 -0.2800 4.3352
    endloop
endfacet
facet normal 0.0912 0.0000 0.2694
    outer loop
        vertex 1.7904 -0.2800 4.3352
        vertex 2.1496 -0.2800 4.2136
        vertex 2.1496 -0.1600 4.2136
    endloop
endfacet
facet normal 0.0000 0.0000 0.5643
    outer loop
        vertex 1.7904 -0.1600 4.3352
        vertex 1.0380 -0.1600 4.3352
        vertex 1.0380 -0.2800 4.3352
    endloop
endfacet
facet normal 0.0000 0.0000 0.5643
    outer loop
        vertex 1.0380 -0.2800 4.3352
        vertex 1.7904 -0.2800 4.3352
        vertex 1.7904 -0.1600 4.3352
    endloop
endfacet
facet normal 0.2821 -0.0380 0.6100
    outer loop
        vertex 1.0380 -0.1600 4.3352
        vertex 0.2247 -0.1600 4.7114
        vertex 0.2273 -0.2800 4.7027
    endloop
endfacet
facet normal 0.2756 0.0000 0.6081
    outer loop
        vertex 1.0380 -0.1600 4.3352
        vertex 0.2273 -0.2800 4.7027
        vertex 1.0380 -0.2800 4.3352
    endloop
endfacet
facet normal 0.5002 -0.0745 0.3578
    outer loop
        vertex 0.2247 -0.1600 4.7114
        vertex -0.2696 -0.4000 5.3525
        vertex -0.2492 -0.5059 5.3020
    endloop
endfacet
facet normal 0.4617 -0.0161 0.3611
    outer loop
        vertex 0.2247 -0.1600 4.7114
        vertex -0.2492 -0.5059 5.3020
        vertex 0.2273 -0.2800 4.7027
    endloop
endfacet
facet normal 0.5549 0.0687 0.0922
    outer loop
        vertex -0.2696 -0.4000 5.3525
        vertex -0.3266 -0.8000 5.9940
        vertex -0.3036 -0.8970 5.9276
    endloop
endfacet
facet normal 0.5377 0.0624 0.0858
    outer loop
        vertex -0.3036 -0.8970 5.9276
        vertex -0.2492 -0.5059 5.3020
        vertex -0.2696 -0.4000 5.3525
    endloop
endfacet
facet normal 0.1904 0.2373 -0.0921
    outer loop
        vertex -0.3266 -0.8000 5.9940
        vertex 0.0246 -0.9600 6.3081
        vertex 0.0260 -1.0026 6.2013
    endloop
endfacet
facet normal 0.2097 0.1762 -0.1846
    outer loop
        vertex -0.3266 -0.8000 5.9940
        vertex 0.0260 -1.0026 6.2013
        vertex -0.3036 -0.8970 5.9276
    endloop
endfacet
facet normal -0.2719 0.1346 -0.0572
    outer loop
        vertex 0.0246 -0.9600 6.3081
        vertex 0.2284 -0.6400 6.0923
        vertex 0.2067 -0.7190 6.0096
    endloop
endfacet
facet normal -0.2404 0.1189 -0.0507
    outer loop
        vertex 0.2067 -0.7190 6.0096
        vertex 0.0260 -1.0026 6.2013
        vertex 0.0246 -0.9600 6.3081
    endloop
endfacet
facet normal -0.5833 0.1227 -0.0280
    outer loop
        vertex 0.2284 -0.6400 6.0923
        vertex 0.3457 -0.2400 5.4016
        vertex 0.3263 -0.3445 5.3488
    endloop
endfacet
facet normal -0.5196 0.1513 -0.0083
    outer loop
        vertex 0.2284 -0.6400 6.0923
        vertex 0.3263 -0.3445 5.3488
        vertex 0.2067 -0.7190 6.0096
    endloop
endfacet
facet normal -0.5249 -0.0228 0.4259
    outer loop
        vertex 0.3457 -0.2400 5.4016
        vertex -0.2247 0.0000 4.7114
        vertex -0.2264 -0.1187 4.7029
    endloop
endfacet
facet normal -0.4965 -0.1041 0.3885
    outer loop
        vertex 0.3457 -0.2400 5.4016
        vertex -0.2264 -0.1187 4.7029
        vertex 0.3263 -0.3445 5.3488
    endloop
endfacet
facet normal -0.2821 0.0000 0.6100
    outer loop
        vertex -0.2247 0.0000 4.7114
        vertex -1.0380 0.0000 4.3352
        vertex -1.0380 -0.1200 4.3352
    endloop
endfacet
facet normal -0.2727 -0.0392 0.6022
    outer loop
        vertex -0.2247 0.0000 4.7114
        vertex -1.0380 -0.1200 4.3352
        vertex -0.2264 -0.1187 4.7029
    endloop
endfacet
facet normal 0.0000 0.0000 0.5643
    outer loop
        vertex -1.0380 0.0000 4.3352
        vertex -1.7904 0.0000 4.3352
        vertex -1.7904 -0.1200 4.3352
    endloop
endfacet
facet normal 0.0000 0.0000 0.5643
    outer loop
        vertex -1.7904 -0.1200 4.3352
        vertex -1.0380 -0.1200 4.3352
        vertex -1.0380 0.0000 4.3352
    endloop
endfacet
facet normal 0.4221 0.0000 -0.6301
    outer loop
        vertex -1.8328 -0.1600 1.8038
        vertex -0.9928 -0.1600 2.3666
        vertex -0.9928 -0.2800 2.3666
    endloop
endfacet
facet normal 0.4221 0.0000 -0.6301
    outer loop
        vertex -0.9928 -0.2800 2.3666
        vertex -1.8328 -0.2800 1.8038
        vertex -1.8328 -0.1600 1.8038
    endloop
endfacet
facet normal 0.1464 0.0000 -0.7446
    outer loop
        vertex -0.9928 -0.1600 2.3666
        vertex 0.0000 -0.1600 2.5618
        vertex 0.0000 -0.2800 2.5618
    endloop
endfacet
facet normal 0.1464 0.0000 -0.7446
    outer loop
        vertex 0.0000 -0.2800 2.5618
        vertex -0.9928 -0.2800 2.3666
        vertex -0.9928 -0.1600 2.3666
    endloop
endfacet
facet normal -0.1464 0.0000 -0.7446
    outer loop
        vertex 0.0000 -0.1600 2.5618
        vertex 0.9928 -0.1600 2.3666
        vertex 0.9928 -0.2800 2.3666
    endloop
endfacet
facet normal -0.1464 0.0000 -0.7446
    outer loop
        vertex 0.9928 -0.2800 2.3666
        vertex 0.0000 -0.2800 2.5618
        vertex 0.0000 -0.1600 2.5618
    endloop
endfacet
facet normal -0.4221 0.0000 -0.6301
    outer loop
        vertex 0.9928 -0.1600 2.3666
        vertex 1.8328 -0.1600 1.8038
        vertex 1.8328 -0.2800 1.8038
    endloop
endfacet
facet normal -0.4221 0.0000 -0.6301
    outer loop
        vertex 1.8328 -0.2800 1.8038
        vertex 0.9928 -0.2800 2.3666
        vertex 0.9928 -0.1600 2.3666
    endloop
endfacet
facet normal -0.6300 0.0000 -0.4221
    outer loop
        vertex 1.8328 -0.1600 1.8038
        vertex 2.3957 -0.1600 0.9638
        vertex 2.3957 -0.2800 0.9638
    endloop
endfacet
facet normal -0.6300 0.0000 -0.4221
    outer loop
        vertex 2.3957 -0.2800 0.9638
        vertex 1.8328 -0.2800 1.8038
        vertex 1.8328 -0.1600 1.8038
    endloop
endfacet
facet normal -0.7446 0.0000 -0.1464
    outer loop
        vertex 2.3957 -0.1600 0.9638
        vertex 2.5908 -0.1600 -0.0290
        vertex 2.5908 -0.2800 -0.0290
    endloop
endfacet
facet normal -0.7446 0.0000 -0.1464
    outer loop
        vertex 2.5908 -0.2800 -0.0290
        vertex 2.3957 -0.2800 0.9638
        vertex 2.3957 -0.1600 0.9638
    endloop
endfacet
facet normal -0.7446 0.0000 0.1464
    outer loop
        vertex 2.5908 -0.1600 -0.0290
        vertex 2.3957 -0.1600 -1.0218
        vertex 2.3957 -0.2800 -1.0218
    endloop
endfacet
facet normal -0.7446 0.0000 0.1464
    outer loop
        vertex 2.3957 -0.2800 -1.0218
        vertex 2.5908 -0.2800 -0.0290
        vertex 2.5908 -0.1600 -0.0290
    endloop
endfacet
facet normal -0.6300 0.0000 0.4221
    outer loop
        vertex 2.3957 -0.1600 -1.0218
        vertex 1.8328 -0.1600 -1.8618
        vertex 1.8328 -0.2800 -1.8618
    endloop
endfacet
facet normal -0.6300 0.0000 0.4221
    outer loop
        vertex 1.8328 -0.2800 -1.8618
        vertex 2.3957 -0.2800 -1.0218
        vertex 2.3957 -0.1600 -1.0218
    endloop
endfacet
facet normal -0.4222 0.0000 0.6301
    outer loop
        vertex 1.8328 -0.1600 -1.8618
        vertex 0.9928 -0.1600 -2.4247
        vertex 0.9928 -0.2800 -2.4247
    endloop
endfacet
facet normal -0.4222 0.0000 0.6301
    outer loop
        vertex 0.9928 -0.2800 -2.4247
        vertex 1.8328 -0.2800 -1.8618
        vertex 1.8328 -0.1600 -1.8618
    endloop
endfacet
facet normal -0.1464 0.0000 0.7446
    outer loop
        vertex 0.9928 -0.1600 -2.4247
        vertex 0.0000 -0.1600 -2.6199
        vertex 0.0000 -0.2800 -2.6199
    endloop
endfacet
facet normal -0.1464 0.0000 0.7446
    outer loop
        vertex 0.0000 -0.2800 -2.6199
        vertex 0.9928 -0.2800 -2.4247
        vertex 0.9928 -0.1600 -2.4247
    endloop
endfacet
facet normal 0.1464 0.0000 0.7446
    outer loop
        vertex 0.0000 -0.1600 -2.6199
        vertex -0.9928 -0.1600 -2.4247
        vertex -0.9928 -0.2800 -2.4247
    endloop
endfacet
facet normal 0.1464 0.0000 0.7446
    outer loop
        vertex -0.9928 -0.2800 -2.4247
        vertex 0.0000 -0.2800 -2.6199
        vertex 0.0000 -0.1600 -2.6199
    endloop
endfacet
facet normal 0.4222 0.0000 0.6301
    outer loop
        vertex -0.9928 -0.1600 -2.4247
        vertex -1.8328 -0.1600 -1.8618
        vertex -1.8328 -0.2800 -1.8618
    endloop
endfacet
facet normal 0.4222 0.0000 0.6301
    outer loop
        vertex -1.8328 -0.2800 -1.8618
        vertex -0.9928 -0.2800 -2.4247
        vertex -0.9928 -0.1600 -2.4247
    endloop
endfacet
facet normal 0.6300 0.0000 0.4221
    outer loop
        vertex -1.8328 -0.1600 -1.8618
        vertex -2.3957 -0.1600 -1.0218
        vertex -2.3957 -0.2800 -1.0218
    endloop
endfacet
facet normal 0.6300 0.0000 0.4221
    outer loop
        vertex -2.3957 -0.2800 -1.0218
        vertex -1.8328 -0.2800 -1.8618
        vertex -1.8328 -0.1600 -1.8618
    endloop
endfacet
facet normal 0.7446 0.0000 0.1464
    outer loop
        vertex -2.3957 -0.1600 -1.0218
        vertex -2.5908 -0.1600 -0.0290
        vertex -2.5908 -0.2800 -0.0290
    endloop
endfacet
facet normal 0.7446 0.0000 0.1464
    outer loop
        vertex -2.5908 -0.2800 -0.0290
        vertex -2.3957 -0.2800 -1.0218
        vertex -2.3957 -0.1600 -1.0218
    endloop
endfacet
facet normal 0.7446 0.0000 -0.1464
    outer loop
        vertex -2.5908 -0.1600 -0.0290
        vertex -2.3957 -0.1600 0.9638
        vertex -2.3957 -0.2800 0.9638
    endloop
endfacet
facet normal 0.7446 0.0000 -0.1464
    outer loop
        vertex -2.3957 -0.2800 0.9638
        vertex -2.5908 -0.2800 -0.0290
        vertex -2.5908 -0.1600 -0.0290
    endloop
endfacet
facet normal 0.6300 0.0000 -0.4221
    outer loop
        vertex -2.3957 -0.1600 0.9638
        vertex -1.8328 -0.1600 1.8038
        vertex -1.8328 -0.2800 1.8038
    endloop
endfacet
facet normal 0.6300 0.0000 -0.4221
    outer loop
        vertex -1.8328 -0.2800 1.8038
        vertex -2.3957 -0.2800 0.9638
        vertex -2.3957 -0.1600 0.9638
    endloop
endfacet
facet normal 0.0000 8.3392 0.0000
    outer loop
        vertex 0.0000 0.0000 2.5618
        vertex -1.7904 0.0000 4.3352
        vertex -1.0380 0.0000 4.3352
    endloop
endfacet
facet normal 0.0000 9.7376 0.0000
    outer loop
        vertex -1.0380 0.0000 4.3352
        vertex 0.9928 0.0000 2.3666
        vertex 0.0000 0.0000 2.5618
    endloop
endfacet
facet normal 14.6652 28.9093 2.6445
    outer loop
        vertex 5.7417 0.0000 -3.8474
        vertex 5.4306 0.0000 -2.1221
        vertex 8.3156 -1.3600 -3.2534
    endloop
endfacet
facet normal 0.0000 15.3317 0.0000
    outer loop
        vertex 5.0357 0.0000 -0.1619
        vertex 2.3957 0.0000 -1.0218
        vertex 2.5908 0.0000 -0.0290
    endloop
endfacet
facet normal 0.0000 36.9322 0.0000
    outer loop
        vertex 2.5908 0.0000 -0.0290
        vertex 4.1138 0.0000 2.3052
        vertex 5.0357 0.0000 -0.1619
    endloop
endfacet
facet normal 20.1950 36.8396 7.2124
    outer loop
        vertex 7.4670 -1.3600 -0.8776
        vertex 8.3156 -1.3600 -3.2534
        vertex 5.4306 0.0000 -2.1221
    endloop
endfacet
facet normal 20.9702 30.2101 7.8363
    outer loop
        vertex 5.0357 0.0000 -0.1619
        vertex 4.1138 0.0000 2.3052
        vertex 6.3640 -1.3600 1.5266
    endloop
endfacet
facet normal 64.5824 41.4093 23.0649
    outer loop
        vertex 11.0007 -5.7092 -2.9637
        vertex 8.3156 -1.3600 -3.2534
        vertex 7.4670 -1.3600 -0.8776
    endloop
endfacet
facet normal 26.8212 17.2220 9.5275
    outer loop
        vertex 7.4670 -1.3600 -0.8776
        vertex 11.3975 -6.6289 -2.4181
        vertex 11.0007 -5.7092 -2.9637
    endloop
endfacet
facet normal 38.5409 25.1510 12.3100
    outer loop
        vertex 11.3975 -6.6289 -2.4181
        vertex 7.4670 -1.3600 -0.8776
        vertex 11.2706 -6.9600 -1.3446
    endloop
endfacet
facet normal 39.5584 25.6919 14.1106
    outer loop
        vertex 10.8675 -6.9600 -0.2143
        vertex 11.2706 -6.9600 -1.3446
        vertex 7.4670 -1.3600 -0.8776
    endloop
endfacet
facet normal 21.6376 27.8177 13.9441
    outer loop
        vertex 4.7235 -1.3600 4.0722
        vertex 6.3640 -1.3600 1.5266
        vertex 4.1138 0.0000 2.3052
    endloop
endfacet
facet normal 16.4635 25.9267 18.4704
    outer loop
        vertex 2.0930 -1.0800 6.0238
        vertex 4.7235 -1.3600 4.0722
        vertex 2.5016 0.0000 4.1437
    endloop
endfacet
facet normal 0.0000 14.7818 0.0000
    outer loop
        vertex 0.9928 0.0000 2.3666
        vertex -1.0380 0.0000 4.3352
        vertex -0.2247 0.0000 4.7114
    endloop
endfacet
facet normal 0.0000 8.0285 0.0000
    outer loop
        vertex -0.2247 0.0000 4.7114
        vertex 1.8328 0.0000 1.8038
        vertex 0.9928 0.0000 2.3666
    endloop
endfacet
facet normal 0.0000 12.2969 0.0000
    outer loop
        vertex 2.3957 0.0000 0.9638
        vertex 4.1138 0.0000 2.3052
        vertex 2.5908 0.0000 -0.0290
    endloop
endfacet
facet normal 0.0000 13.7392 0.0000
    outer loop
        vertex 4.1138 0.0000 2.3052
        vertex 2.3957 0.0000 0.9638
        vertex 1.8328 0.0000 1.8038
    endloop
endfacet
facet normal 0.0000 31.2611 0.0000
    outer loop
        vertex 1.8328 0.0000 1.8038
        vertex 2.5016 0.0000 4.1437
        vertex 4.1138 0.0000 2.3052
    endloop
endfacet
facet normal 15.6271 24.8107 13.7037
    outer loop
        vertex 4.1138 0.0000 2.3052
        vertex 2.5016 0.0000 4.1437
        vertex 4.7235 -1.3600 4.0722
    endloop
endfacet
facet normal 0.0000 42.2420 0.0000
    outer loop
        vertex -0.2247 0.0000 4.7114
        vertex 2.5016 0.0000 4.1437
        vertex 1.8328 0.0000 1.8038
    endloop
endfacet
facet normal 0.8516 13.7842 4.0894
    outer loop
        vertex 2.5016 0.0000 4.1437
        vertex -0.2247 0.0000 4.7114
        vertex 0.3457 -0.2400 5.4016
    endloop
endfacet
facet normal 5.6708 22.1210 13.9391
    outer loop
        vertex 2.0930 -1.0800 6.0238
        vertex 2.5016 0.0000 4.1437
        vertex 0.3457 -0.2400 5.4016
    endloop
endfacet
facet normal 2.0706 7.9990 4.9842
    outer loop
        vertex 0.3457 -0.2400 5.4016
        vertex 0.2284 -0.6400 6.0923
        vertex 2.0930 -1.0800 6.0238
    endloop
endfacet
facet normal 0.7304 2.4277 4.2898
    outer loop
        vertex 0.2284 -0.6400 6.0923
        vertex 0.0246 -0.9600 6.3081
        vertex 2.0930 -1.0800 6.0238
    endloop
endfacet
facet normal -0.8339 3.5329 2.7322
    outer loop
        vertex -2.0930 -1.2400 6.0238
        vertex 0.0246 -0.9600 6.3081
        vertex -0.3266 -0.8000 5.9940
    endloop
endfacet
facet normal -95.8328 48.3570 89.5860
    outer loop
        vertex -6.7815 -7.1200 4.8935
        vertex -4.7235 -1.5200 4.0722
        vertex -9.3411 -7.1200 2.1554
    endloop
endfacet
facet normal -1.6897 7.0718 4.2591
    outer loop
        vertex -0.3266 -0.8000 5.9940
        vertex -0.2696 -0.4000 5.3525
        vertex -2.0930 -1.2400 6.0238
    endloop
endfacet
facet normal -6.3086 24.3618 13.3477
    outer loop
        vertex -2.2910 -0.1600 3.9590
        vertex -2.0930 -1.2400 6.0238
        vertex -0.2696 -0.4000 5.3525
    endloop
endfacet
facet normal -21.6376 33.0602 13.9441
    outer loop
        vertex -3.9032 -0.1600 2.1206
        vertex -6.3640 -1.5200 1.5266
        vertex -4.7235 -1.5200 4.0722
    endloop
endfacet
facet normal 0.0000 11.9844 0.0000
    outer loop
        vertex -1.8328 -0.1600 1.8038
        vertex -2.3957 -0.1600 0.9638
        vertex -3.9032 -0.1600 2.1206
    endloop
endfacet
facet normal 0.0000 26.9817 0.0000
    outer loop
        vertex -3.9032 -0.1600 2.1206
        vertex -2.2910 -0.1600 3.9590
        vertex -1.8328 -0.1600 1.8038
    endloop
endfacet
facet normal -14.6652 28.9093 2.6445
    outer loop
        vertex -8.3156 -1.5200 -3.2534
        vertex -5.4306 -0.1600 -2.1221
        vertex -5.7417 -0.1600 -3.8474
    endloop
endfacet
facet normal 0.0000 14.6680 0.0000
    outer loop
        vertex -2.5908 -0.1600 -0.0290
        vertex -2.3957 -0.1600 -1.0218
        vertex -4.9215 -0.1600 -0.1987
    endloop
endfacet
facet normal 0.0000 32.7039 0.0000
    outer loop
        vertex -4.9215 -0.1600 -0.1987
        vertex -3.9032 -0.1600 2.1206
        vertex -2.5908 -0.1600 -0.0290
    endloop
endfacet
facet normal -20.1950 36.8396 7.2124
    outer loop
        vertex -5.4306 -0.1600 -2.1221
        vertex -8.3156 -1.5200 -3.2534
        vertex -7.4670 -1.5200 -0.8776
    endloop
endfacet
facet normal 0.0000 10.7654 0.0000
    outer loop
        vertex -2.5908 -0.1600 -0.0290
        vertex -3.9032 -0.1600 2.1206
        vertex -2.3957 -0.1600 0.9638
    endloop
endfacet
facet normal -19.7139 31.8894 8.6550
    outer loop
        vertex -6.3640 -1.5200 1.5266
        vertex -3.9032 -0.1600 2.1206
        vertex -4.9215 -0.1600 -0.1987
    endloop
endfacet
facet normal -82.9402 50.1038 53.4240
    outer loop
        vertex -10.8675 -7.1200 -0.2143
        vertex -9.3411 -7.1200 2.1554
        vertex -4.7235 -1.5200 4.0722
    endloop
endfacet
facet normal -89.0960 53.8014 57.4168
    outer loop
        vertex -4.7235 -1.5200 4.0722
        vertex -6.3640 -1.5200 1.5266
        vertex -10.8675 -7.1200 -0.2143
    endloop
endfacet
facet normal -64.5824 41.4093 23.0649
    outer loop
        vertex -7.4670 -1.5200 -0.8776
        vertex -8.3156 -1.5200 -3.2534
        vertex -11.0007 -5.8692 -2.9637
    endloop
endfacet
facet normal -26.8212 17.2220 9.5275
    outer loop
        vertex -11.0007 -5.8692 -2.9637
        vertex -11.3975 -6.7889 -2.4181
        vertex -7.4670 -1.5200 -0.8776
    endloop
endfacet
facet normal -38.5409 25.1510 12.3100
    outer loop
        vertex -11.2706 -7.1200 -1.3446
        vertex -7.4670 -1.5200 -0.8776
        vertex -11.3975 -6.7889 -2.4181
    endloop
endfacet
facet normal -39.5584 25.6919 14.1106
    outer loop
        vertex -7.4670 -1.5200 -0.8776
        vertex -11.2706 -7.1200 -1.3446
        vertex -10.8675 -7.1200 -0.2143
    endloop
endfacet
facet normal -84.1456 55.6676 38.6078
    outer loop
        vertex -7.4670 -1.5200 -0.8776
        vertex -10.8675 -7.1200 -0.2143
        vertex -6.3640 -1.5200 1.5266
    endloop
endfacet
facet normal -20.4354 33.5695 9.3762
    outer loop
        vertex -4.9215 -0.1600 -0.1987
        vertex -7.4670 -1.5200 -0.8776
        vertex -6.3640 -1.5200 1.5266
    endloop
endfacet
facet normal -16.3486 28.4401 4.3275
    outer loop
        vertex -7.4670 -1.5200 -0.8776
        vertex -4.9215 -0.1600 -0.1987
        vertex -5.4306 -0.1600 -2.1221
    endloop
endfacet
facet normal 0.0000 32.9817 0.0000
    outer loop
        vertex -5.4306 -0.1600 -2.1221
        vertex -4.9215 -0.1600 -0.1987
        vertex -2.3957 -0.1600 -1.0218
    endloop
endfacet
facet normal 0.0000 30.5868 0.0000
    outer loop
        vertex -2.3957 -0.1600 -1.0218
        vertex -5.7417 -0.1600 -3.8474
        vertex -5.4306 -0.1600 -2.1221
    endloop
endfacet
facet normal 0.0000 27.5073 0.0000
    outer loop
        vertex -5.7417 -0.1600 -3.8474
        vertex -2.3957 -0.1600 -1.0218
        vertex -1.8328 -0.1600 -1.8618
    endloop
endfacet
facet normal 0.0000 48.1967 0.0000
    outer loop
        vertex -1.8328 -0.1600 -1.8618
        vertex -3.0830 -0.1600 -4.4697
        vertex -5.7417 -0.1600 -3.8474
    endloop
endfacet
facet normal 0.0000 18.0905 0.0000
    outer loop
        vertex -3.0830 -0.1600 -4.4697
        vertex -1.8328 -0.1600 -1.8618
        vertex -0.9928 -0.1600 -2.4247
    endloop
endfacet
facet normal 0.0000 37.6686 0.0000
    outer loop
        vertex -0.9928 -0.1600 -2.4247
        vertex -0.3960 -0.1600 -4.7242
        vertex -3.0830 -0.1600 -4.4697
    endloop
endfacet
facet normal 0.0000 13.5400 0.0000
    outer loop
        vertex -0.3960 -0.1600 -4.7242
        vertex -0.9928 -0.1600 -2.4247
        vertex 0.0000 -0.1600 -2.6199
    endloop
endfacet
facet normal 0.0000 23.2696 0.0000
    outer loop
        vertex 0.0000 -0.1600 -2.6199
        vertex 1.4425 -0.1600 -4.3565
        vertex -0.3960 -0.1600 -4.7242
    endloop
endfacet
facet normal 0.0000 12.5349 0.0000
    outer loop
        vertex 1.4425 -0.1600 -4.3565
        vertex 0.0000 -0.1600 -2.6199
        vertex 0.9928 -0.1600 -2.4247
    endloop
endfacet
facet normal 0.0000 22.4628 0.0000
    outer loop
        vertex 0.9928 -0.1600 -2.4247
        vertex 3.0264 -0.1600 -3.1686
        vertex 1.4425 -0.1600 -4.3565
    endloop
endfacet
facet normal 0.0000 11.0601 0.0000
    outer loop
        vertex 3.0264 -0.1600 -3.1686
        vertex 0.9928 -0.1600 -2.4247
        vertex 1.8328 -0.1600 -1.8618
    endloop
endfacet
facet normal 0.0000 17.5400 0.0000
    outer loop
        vertex 1.8328 -0.1600 -1.8618
        vertex 3.9598 -0.1600 -1.8392
        vertex 3.0264 -0.1600 -3.1686
    endloop
endfacet
facet normal 0.0000 11.0876 0.0000
    outer loop
        vertex 3.9598 -0.1600 -1.8392
        vertex 1.8328 -0.1600 -1.8618
        vertex 2.3957 -0.1600 -1.0218
    endloop
endfacet
facet normal 0.0000 19.3233 0.0000
    outer loop
        vertex 2.3957 -0.1600 -1.0218
        vertex 4.4406 -0.1600 -0.1139
        vertex 3.9598 -0.1600 -1.8392
    endloop
endfacet
facet normal 0.0000 11.5810 0.0000
    outer loop
        vertex 4.4406 -0.1600 -0.1139
        vertex 2.3957 -0.1600 -1.0218
        vertex 2.5908 -0.1600 -0.0290
    endloop
endfacet
facet normal 0.0000 18.5341 0.0000
    outer loop
        vertex 2.5908 -0.1600 -0.0290
        vertex 4.2426 -0.1600 1.4983
        vertex 4.4406 -0.1600 -0.1139
    endloop
endfacet
facet normal 0.0000 12.1124 0.0000
    outer loop
        vertex 4.2426 -0.1600 1.4983
        vertex 2.5908 -0.1600 -0.0290
        vertex 2.3957 -0.1600 0.9638
    endloop
endfacet
facet normal 0.0000 18.1289 0.0000
    outer loop
        vertex 2.3957 -0.1600 0.9638
        vertex 3.5072 -0.1600 2.8560
        vertex 4.2426 -0.1600 1.4983
    endloop
endfacet
facet normal 0.0000 12.4923 0.0000
    outer loop
        vertex 3.5072 -0.1600 2.8560
        vertex 2.3957 -0.1600 0.9638
        vertex 1.8328 -0.1600 1.8038
    endloop
endfacet
facet normal 0.0000 23.1355 0.0000
    outer loop
        vertex 1.8328 -0.1600 1.8038
        vertex 2.1496 -0.1600 4.2136
        vertex 3.5072 -0.1600 2.8560
    endloop
endfacet
facet normal 0.0000 13.7669 0.0000
    outer loop
        vertex 2.1496 -0.1600 4.2136
        vertex 1.8328 -0.1600 1.8038
        vertex 0.9928 -0.1600 2.3666
    endloop
endfacet
facet normal 0.0000 5.0259 0.0000
    outer loop
        vertex 0.9928 -0.1600 2.3666
        vertex 1.7904 -0.1600 4.3352
        vertex 2.1496 -0.1600 4.2136
    endloop
endfacet
facet normal 0.0000 13.1876 0.0000
    outer loop
        vertex 1.7904 -0.1600 4.3352
        vertex 0.9928 -0.1600 2.3666
        vertex 0.0000 -0.1600 2.5618
    endloop
endfacet
facet normal 0.0000 8.3392 0.0000
    outer loop
        vertex 0.0000 -0.1600 2.5618
        vertex 1.0380 -0.1600 4.3352
        vertex 1.7904 -0.1600 4.3352
    endloop
endfacet
facet normal 0.0000 9.7376 0.0000
    outer loop
        vertex 1.0380 -0.1600 4.3352
        vertex 0.0000 -0.1600 2.5618
        vertex -0.9928 -0.1600 2.3666
    endloop
endfacet
facet normal 0.0000 14.7818 0.0000
    outer loop
        vertex -0.9928 -0.1600 2.3666
        vertex 0.2247 -0.1600 4.7114
        vertex 1.0380 -0.1600 4.3352
    endloop
endfacet
facet normal 0.0000 8.0285 0.0000
    outer loop
        vertex 0.2247 -0.1600 4.7114
        vertex -0.9928 -0.1600 2.3666
        vertex -1.8328 -0.1600 1.8038
    endloop
endfacet
facet normal 0.0000 36.0419 0.0000
    outer loop
        vertex -1.8328 -0.1600 1.8038
        vertex -2.2910 -0.1600 3.9590
        vertex 0.2247 -0.1600 4.7114
    endloop
endfacet
facet normal -1.1285 12.4041 3.7736
    outer loop
        vertex -0.2696 -0.4000 5.3525
        vertex 0.2247 -0.1600 4.7114
        vertex -2.2910 -0.1600 3.9590
    endloop
endfacet
facet normal -15.6271 29.0902 13.7037
    outer loop
        vertex -4.7235 -1.5200 4.0722
        vertex -2.2910 -0.1600 3.9590
        vertex -3.9032 -0.1600 2.1206
    endloop
endfacet
facet normal -16.7866 31.5301 18.1020
    outer loop
        vertex -2.2910 -0.1600 3.9590
        vertex -4.7235 -1.5200 4.0722
        vertex -2.0930 -1.2400 6.0238
    endloop
endfacet
facet normal -69.7432 38.6045 88.4639
    outer loop
        vertex -6.7815 -7.1200 4.8935
        vertex -2.0930 -1.2400 6.0238
        vertex -4.7235 -1.5200 4.0722
    endloop
endfacet
facet normal -67.4083 34.6218 99.4970
    outer loop
        vertex -2.0930 -1.2400 6.0238
        vertex -6.7815 -7.1200 4.8935
        vertex -4.0741 -7.1200 6.7277
    endloop
endfacet
facet normal -28.5533 20.6072 91.7795
    outer loop
        vertex -2.0930 -1.2400 6.0238
        vertex -4.0741 -7.1200 6.7277
        vertex -1.5767 -7.1200 7.5047
    endloop
endfacet
facet normal -13.0388 18.6820 78.7254
    outer loop
        vertex -2.0930 -1.2400 6.0238
        vertex -1.5767 -7.1200 7.5047
        vertex 0.0246 -0.9600 6.3081
    endloop
endfacet
facet normal -2.6850 12.3340 59.9016
    outer loop
        vertex 0.0000 -7.0400 7.5589
        vertex 0.0246 -0.9600 6.3081
        vertex -1.5767 -7.1200 7.5047
    endloop
endfacet
facet normal 1.4342 12.3174 59.9016
    outer loop
        vertex 1.5767 -6.9600 7.5047
        vertex 0.0246 -0.9600 6.3081
        vertex 0.0000 -7.0400 7.5589
    endloop
endfacet
facet normal 11.5580 18.2274 76.4039
    outer loop
        vertex 0.0246 -0.9600 6.3081
        vertex 1.5767 -6.9600 7.5047
        vertex 2.0930 -1.0800 6.0238
    endloop
endfacet
facet normal 28.5533 20.6072 91.7794
    outer loop
        vertex 1.5767 -6.9600 7.5047
        vertex 4.0741 -6.9600 6.7277
        vertex 2.0930 -1.0800 6.0238
    endloop
endfacet
facet normal 67.4083 34.6218 99.4970
    outer loop
        vertex 6.7815 -6.9600 4.8935
        vertex 2.0930 -1.0800 6.0238
        vertex 4.0741 -6.9600 6.7277
    endloop
endfacet
facet normal 69.7432 38.6045 88.4639
    outer loop
        vertex 2.0930 -1.0800 6.0238
        vertex 6.7815 -6.9600 4.8935
        vertex 4.7235 -1.3600 4.0722
    endloop
endfacet
facet normal 95.8328 48.3570 89.5860
    outer loop
        vertex 9.3411 -6.9600 2.1554
        vertex 4.7235 -1.3600 4.0722
        vertex 6.7815 -6.9600 4.8935
    endloop
endfacet
facet normal 82.9402 50.1038 53.4240
    outer loop
        vertex 4.7235 -1.3600 4.0722
        vertex 9.3411 -6.9600 2.1554
        vertex 10.8675 -6.9600 -0.2143
    endloop
endfacet
facet normal 89.0960 53.8014 57.4168
    outer loop
        vertex 10.8675 -6.9600 -0.2143
        vertex 6.3640 -1.3600 1.5266
        vertex 4.7235 -1.3600 4.0722
    endloop
endfacet
facet normal 84.1456 55.6676 38.6078
    outer loop
        vertex 6.3640 -1.3600 1.5266
        vertex 10.8675 -6.9600 -0.2143
        vertex 7.4670 -1.3600 -0.8776
    endloop
endfacet
facet normal 20.4354 31.5995 9.3762
    outer loop
        vertex 6.3640 -1.3600 1.5266
        vertex 7.4670 -1.3600 -0.8776
        vertex 5.0357 0.0000 -0.1619
    endloop
endfacet
facet normal 16.6617 28.0207 3.3568
    outer loop
        vertex 5.4306 0.0000 -2.1221
        vertex 5.0357 0.0000 -0.1619
        vertex 7.4670 -1.3600 -0.8776
    endloop
endfacet
facet normal 0.0000 34.4658 0.0000
    outer loop
        vertex 2.3957 0.0000 -1.0218
        vertex 5.0357 0.0000 -0.1619
        vertex 5.4306 0.0000 -2.1221
    endloop
endfacet
facet normal 0.0000 30.5868 0.0000
    outer loop
        vertex 5.4306 0.0000 -2.1221
        vertex 5.7417 0.0000 -3.8474
        vertex 2.3957 0.0000 -1.0218
    endloop
endfacet
facet normal 0.0000 27.5073 0.0000
    outer loop
        vertex 1.8328 0.0000 -1.8618
        vertex 2.3957 0.0000 -1.0218
        vertex 5.7417 0.0000 -3.8474
    endloop
endfacet
facet normal 0.0000 48.1967 0.0000
    outer loop
        vertex 5.7417 0.0000 -3.8474
        vertex 3.0830 0.0000 -4.4697
        vertex 1.8328 0.0000 -1.8618
    endloop
endfacet
facet normal 0.0000 18.0905 0.0000
    outer loop
        vertex 0.9928 0.0000 -2.4247
        vertex 1.8328 0.0000 -1.8618
        vertex 3.0830 0.0000 -4.4697
    endloop
endfacet
facet normal 0.0000 37.6686 0.0000
    outer loop
        vertex 3.0830 0.0000 -4.4697
        vertex 0.3960 0.0000 -4.7242
        vertex 0.9928 0.0000 -2.4247
    endloop
endfacet
facet normal 0.0000 13.5400 0.0000
    outer loop
        vertex 0.0000 0.0000 -2.6199
        vertex 0.9928 0.0000 -2.4247
        vertex 0.3960 0.0000 -4.7242
    endloop
endfacet
facet normal 0.0000 23.2696 0.0000
    outer loop
        vertex 0.3960 0.0000 -4.7242
        vertex -1.4425 0.0000 -4.3565
        vertex 0.0000 0.0000 -2.6199
    endloop
endfacet
facet normal 0.0000 12.5349 0.0000
    outer loop
        vertex -0.9928 0.0000 -2.4247
        vertex 0.0000 0.0000 -2.6199
        vertex -1.4425 0.0000 -4.3565
    endloop
endfacet
facet normal 0.0000 22.4628 0.0000
    outer loop
        vertex -1.4425 0.0000 -4.3565
        vertex -3.0264 0.0000 -3.1686
        vertex -0.9928 0.0000 -2.4247
    endloop
endfacet
facet normal 0.0000 11.0601 0.0000
    outer loop
        vertex -1.8328 0.0000 -1.8618
        vertex -0.9928 0.0000 -2.4247
        vertex -3.0264 0.0000 -3.1686
    endloop
endfacet
facet normal 0.0000 17.5400 0.0000
    outer loop
        vertex -3.0264 0.0000 -3.1686
        vertex -3.9598 0.0000 -1.8392
        vertex -1.8328 0.0000 -1.8618
    endloop
endfacet
facet normal 0.0000 11.0876 0.0000
    outer loop
        vertex -2.3957 0.0000 -1.0218
        vertex -1.8328 0.0000 -1.8618
        vertex -3.9598 0.0000 -1.8392
    endloop
endfacet
facet normal 0.0000 19.3233 0.0000
    outer loop
        vertex -3.9598 0.0000 -1.8392
        vertex -4.4406 0.0000 -0.1139
        vertex -2.3957 0.0000 -1.0218
    endloop
endfacet
facet normal 0.0000 11.5810 0.0000
    outer loop
        vertex -2.5908 0.0000 -0.0290
        vertex -2.3957 0.0000 -1.0218
        vertex -4.4406 0.0000 -0.1139
    endloop
endfacet
facet normal 0.0000 18.5341 0.0000
    outer loop
        vertex -4.4406 0.0000 -0.1139
        vertex -4.2426 0.0000 1.4983
        vertex -2.5908 0.0000 -0.0290
    endloop
endfacet
facet normal 0.0000 12.1124 0.0000
    outer loop
        vertex -2.3957 0.0000 0.9638
        vertex -2.5908 0.0000 -0.0290
        vertex -4.2426 0.0000 1.4983
    endloop
endfacet
facet normal 0.0000 18.1289 0.0000
    outer loop
        vertex -4.2426 0.0000 1.4983
        vertex -3.5072 0.0000 2.8560
        vertex -2.3957 0.0000 0.9638
    endloop
endfacet
facet normal 0.0000 12.4923 0.0000
    outer loop
        vertex -1.8328 0.0000 1.8038
        vertex -2.3957 0.0000 0.9638
        vertex -3.5072 0.0000 2.8560
    endloop
endfacet
facet normal 0.0000 23.1355 0.0000
    outer loop
        vertex -3.5072 0.0000 2.8560
        vertex -2.1496 0.0000 4.2136
        vertex -1.8328 0.0000 1.8038
    endloop
endfacet
facet normal 0.0000 13.7669 0.0000
    outer loop
        vertex -0.9928 0.0000 2.3666
        vertex -1.8328 0.0000 1.8038
        vertex -2.1496 0.0000 4.2136
    endloop
endfacet
facet normal 0.0000 5.0259 0.0000
    outer loop
        vertex -2.1496 0.0000 4.2136
        vertex -1.7904 0.0000 4.3352
        vertex -0.9928 0.0000 2.3666
    endloop
endfacet
facet normal 0.0000 13.1876 0.0000
    outer loop
        vertex -0.9928 0.0000 2.3666
        vertex -1.7904 0.0000 4.3352
        vertex 0.0000 0.0000 2.5618
    endloop
endfacet
endsolid GiantLegoRocks
