solid GiantLegoRocks
facet normal 0.0000 0.0000 20.0000
    outer loop
        vertex -8.0000 2.8000 4.0000
        vertex -8.0000 0.0000 4.0000
        vertex 8.0000 0.0000 4.0000
    endloop
endfacet
facet normal 0.0000 0.0000 20.0000
    outer loop
        vertex 8.0000 0.0000 4.0000
        vertex 8.0000 2.8000 4.0000
        vertex -8.0000 2.8000 4.0000
    endloop
endfacet
facet normal -40.0000 0.0000 0.0000
    outer loop
        vertex -8.0000 2.8000 -4.0000
        vertex -8.0000 0.0000 -4.0000
        vertex -8.0000 0.0000 4.0000
    endloop
endfacet
facet normal -40.0000 0.0000 0.0000
    outer loop
        vertex -8.0000 0.0000 4.0000
        vertex -8.0000 2.8000 4.0000
        vertex -8.0000 2.8000 -4.0000
    endloop
endfacet
facet normal 0.0000 0.0000 -20.0000
    outer loop
        vertex 8.0000 2.8000 -4.0000
        vertex 8.0000 0.0000 -4.0000
        vertex -8.0000 0.0000 -4.0000
    endloop
endfacet
facet normal 0.0000 0.0000 -20.0000
    outer loop
        vertex -8.0000 0.0000 -4.0000
        vertex -8.0000 2.8000 -4.0000
        vertex 8.0000 2.8000 -4.0000
    endloop
endfacet
facet normal 40.0000 0.0000 0.0000
    outer loop
        vertex 8.0000 2.8000 4.0000
        vertex 8.0000 0.0000 4.0000
        vertex 8.0000 0.0000 -4.0000
    endloop
endfacet
facet normal 40.0000 0.0000 0.0000
    outer loop
        vertex 8.0000 0.0000 -4.0000
        vertex 8.0000 2.8000 -4.0000
        vertex 8.0000 2.8000 4.0000
    endloop
endfacet
facet normal 0.0000 7.0000 18.0000
    outer loop
        vertex -7.6000 3.2000 3.6000
        vertex -7.6000 2.8000 3.6000
        vertex 7.6000 2.8000 3.6000
    endloop
endfacet
facet normal 0.0000 7.0000 18.0000
    outer loop
        vertex 7.6000 2.8000 3.6000
        vertex 7.6000 3.2000 3.6000
        vertex -7.6000 3.2000 3.6000
    endloop
endfacet
facet normal -38.0000 7.0000 0.0000
    outer loop
        vertex -7.6000 3.2000 -3.6000
        vertex -7.6000 2.8000 -3.6000
        vertex -7.6000 2.8000 3.6000
    endloop
endfacet
facet normal -38.0000 7.0000 0.0000
    outer loop
        vertex -7.6000 2.8000 3.6000
        vertex -7.6000 3.2000 3.6000
        vertex -7.6000 3.2000 -3.6000
    endloop
endfacet
facet normal 0.0000 7.0000 -18.0000
    outer loop
        vertex 7.6000 3.2000 -3.6000
        vertex 7.6000 2.8000 -3.6000
        vertex -7.6000 2.8000 -3.6000
    endloop
endfacet
facet normal 0.0000 7.0000 -18.0000
    outer loop
        vertex -7.6000 2.8000 -3.6000
        vertex -7.6000 3.2000 -3.6000
        vertex 7.6000 3.2000 -3.6000
    endloop
endfacet
facet normal 38.0000 7.0000 0.0000
    outer loop
        vertex 7.6000 3.2000 3.6000
        vertex 7.6000 2.8000 3.6000
        vertex 7.6000 2.8000 -3.6000
    endloop
endfacet
facet normal 38.0000 7.0000 0.0000
    outer loop
        vertex 7.6000 2.8000 -3.6000
        vertex 7.6000 3.2000 -3.6000
        vertex 7.6000 3.2000 3.6000
    endloop
endfacet
facet normal 0.0000 -8.0000 0.0000
    outer loop
        vertex -6.4000 1.6000 2.4000
        vertex 6.4000 1.6000 2.4000
        vertex 6.4000 1.6000 -2.4000
    endloop
endfacet
facet normal 0.0000 -8.0000 0.0000
    outer loop
        vertex 6.4000 1.6000 -2.4000
        vertex -6.4000 1.6000 -2.4000
        vertex -6.4000 1.6000 2.4000
    endloop
endfacet
facet normal 0.0000 8.0000 12.0000
    outer loop
        vertex -6.4000 1.6000 2.4000
        vertex -6.4000 3.2000 2.4000
        vertex 6.4000 3.2000 2.4000
    endloop
endfacet
facet normal 0.0000 8.0000 12.0000
    outer loop
        vertex 6.4000 3.2000 2.4000
        vertex 6.4000 1.6000 2.4000
        vertex -6.4000 1.6000 2.4000
    endloop
endfacet
facet normal -32.0000 8.0000 0.0000
    outer loop
        vertex -6.4000 1.6000 -2.4000
        vertex -6.4000 3.2000 -2.4000
        vertex -6.4000 3.2000 2.4000
    endloop
endfacet
facet normal -32.0000 8.0000 0.0000
    outer loop
        vertex -6.4000 3.2000 2.4000
        vertex -6.4000 1.6000 2.4000
        vertex -6.4000 1.6000 -2.4000
    endloop
endfacet
facet normal 0.0000 8.0000 -12.0000
    outer loop
        vertex 6.4000 1.6000 -2.4000
        vertex 6.4000 3.2000 -2.4000
        vertex -6.4000 3.2000 -2.4000
    endloop
endfacet
facet normal 0.0000 8.0000 -12.0000
    outer loop
        vertex -6.4000 3.2000 -2.4000
        vertex -6.4000 1.6000 -2.4000
        vertex 6.4000 1.6000 -2.4000
    endloop
endfacet
facet normal 32.0000 8.0000 0.0000
    outer loop
        vertex 6.4000 1.6000 2.4000
        vertex 6.4000 3.2000 2.4000
        vertex 6.4000 3.2000 -2.4000
    endloop
endfacet
facet normal 32.0000 8.0000 0.0000
    outer loop
        vertex 6.4000 3.2000 -2.4000
        vertex 6.4000 1.6000 -2.4000
        vertex 6.4000 1.6000 2.4000
    endloop
endfacet
facet normal 0.0000 36.0000 0.0000
    outer loop
        vertex -7.6000 3.2000 3.6000
        vertex -6.4000 3.2000 2.4000
        vertex -6.4000 3.2000 -2.4000
    endloop
endfacet
facet normal 0.0000 54.0000 0.0000
    outer loop
        vertex -6.4000 3.2000 -2.4000
        vertex -7.6000 3.2000 -3.6000
        vertex -7.6000 3.2000 3.6000
    endloop
endfacet
facet normal 0.0000 36.0000 0.0000
    outer loop
        vertex 7.6000 3.2000 -3.6000
        vertex 6.4000 3.2000 -2.4000
        vertex 6.4000 3.2000 2.4000
    endloop
endfacet
facet normal 0.0000 54.0000 0.0000
    outer loop
        vertex 6.4000 3.2000 2.4000
        vertex 7.6000 3.2000 3.6000
        vertex 7.6000 3.2000 -3.6000
    endloop
endfacet
facet normal 0.0000 96.0000 0.0000
    outer loop
        vertex 7.6000 3.2000 3.6000
        vertex 6.4000 3.2000 2.4000
        vertex -6.4000 3.2000 2.4000
    endloop
endfacet
facet normal 0.0000 114.0000 0.0000
    outer loop
        vertex -6.4000 3.2000 2.4000
        vertex -7.6000 3.2000 3.6000
        vertex 7.6000 3.2000 3.6000
    endloop
endfacet
facet normal 0.0000 96.0000 0.0000
    outer loop
        vertex -7.6000 3.2000 -3.6000
        vertex -6.4000 3.2000 -2.4000
        vertex 6.4000 3.2000 -2.4000
    endloop
endfacet
facet normal 0.0000 114.0000 0.0000
    outer loop
        vertex 6.4000 3.2000 -2.4000
        vertex 7.6000 3.2000 -3.6000
        vertex -7.6000 3.2000 -3.6000
    endloop
endfacet
facet normal 0.0000 18.0000 0.0000
    outer loop
        vertex -8.0000 2.8000 4.0000
        vertex -7.6000 2.8000 3.6000
        vertex -7.6000 2.8000 -3.6000
    endloop
endfacet
facet normal 0.0000 20.0000 0.0000
    outer loop
        vertex -7.6000 2.8000 -3.6000
        vertex -8.0000 2.8000 -4.0000
        vertex -8.0000 2.8000 4.0000
    endloop
endfacet
facet normal 0.0000 18.0000 0.0000
    outer loop
        vertex 8.0000 2.8000 -4.0000
        vertex 7.6000 2.8000 -3.6000
        vertex 7.6000 2.8000 3.6000
    endloop
endfacet
facet normal 0.0000 20.0000 0.0000
    outer loop
        vertex 7.6000 2.8000 3.6000
        vertex 8.0000 2.8000 4.0000
        vertex 8.0000 2.8000 -4.0000
    endloop
endfacet
facet normal 0.0000 38.0000 0.0000
    outer loop
        vertex 8.0000 2.8000 4.0000
        vertex 7.6000 2.8000 3.6000
        vertex -7.6000 2.8000 3.6000
    endloop
endfacet
facet normal 0.0000 40.0000 0.0000
    outer loop
        vertex -7.6000 2.8000 3.6000
        vertex -8.0000 2.8000 4.0000
        vertex 8.0000 2.8000 4.0000
    endloop
endfacet
facet normal 0.0000 38.0000 0.0000
    outer loop
        vertex -8.0000 2.8000 -4.0000
        vertex -7.6000 2.8000 -3.6000
        vertex 7.6000 2.8000 -3.6000
    endloop
endfacet
facet normal 0.0000 40.0000 0.0000
    outer loop
        vertex 7.6000 2.8000 -3.6000
        vertex 8.0000 2.8000 -4.0000
        vertex -8.0000 2.8000 -4.0000
    endloop
endfacet
facet normal 0.0000 -0.3456 0.0000
    outer loop
        vertex -7.5720 0.0000 0.0880
        vertex -7.6800 0.0000 0.0520
        vertex -7.6800 0.0000 -0.4600
    endloop
endfacet
facet normal 0.0000 -0.8147 0.0000
    outer loop
        vertex -7.6800 0.0000 -0.4600
        vertex -7.4240 0.0000 -0.3680
        vertex -7.5720 0.0000 0.0880
    endloop
endfacet
facet normal 0.0000 -1.6149 0.0000
    outer loop
        vertex -7.0560 0.0000 0.2440
        vertex -7.5720 0.0000 0.0880
        vertex -7.4240 0.0000 -0.3680
    endloop
endfacet
facet normal 0.0000 -1.5415 0.0000
    outer loop
        vertex -7.4240 0.0000 -0.3680
        vertex -6.9320 0.0000 -0.2200
        vertex -7.0560 0.0000 0.2440
    endloop
endfacet
facet normal 0.0000 -1.5956 0.0000
    outer loop
        vertex -6.5400 0.0000 0.3720
        vertex -7.0560 0.0000 0.2440
        vertex -6.9320 0.0000 -0.2200
    endloop
endfacet
facet normal 0.0000 -1.5166 0.0000
    outer loop
        vertex -6.9320 0.0000 -0.2200
        vertex -6.4400 0.0000 -0.0960
        vertex -6.5400 0.0000 0.3720
    endloop
endfacet
facet normal 0.0000 -1.5743 0.0000
    outer loop
        vertex -6.0240 0.0000 0.4760
        vertex -6.5400 0.0000 0.3720
        vertex -6.4400 0.0000 -0.0960
    endloop
endfacet
facet normal 0.0000 -1.5093 0.0000
    outer loop
        vertex -6.4400 0.0000 -0.0960
        vertex -5.9480 0.0000 0.0000
        vertex -6.0240 0.0000 0.4760
    endloop
endfacet
facet normal 0.0000 -1.5593 0.0000
    outer loop
        vertex -5.5120 0.0000 0.5520
        vertex -6.0240 0.0000 0.4760
        vertex -5.9480 0.0000 0.0000
    endloop
endfacet
facet normal 0.0000 -1.5012 0.0000
    outer loop
        vertex -5.9480 0.0000 0.0000
        vertex -5.4560 0.0000 0.0720
        vertex -5.5120 0.0000 0.5520
    endloop
endfacet
facet normal 0.0000 -1.5648 0.0000
    outer loop
        vertex -4.9960 0.0000 0.6000
        vertex -5.5120 0.0000 0.5520
        vertex -5.4560 0.0000 0.0720
    endloop
endfacet
facet normal 0.0000 -1.4724 0.0000
    outer loop
        vertex -5.4560 0.0000 0.0720
        vertex -4.9680 0.0000 0.1200
        vertex -4.9960 0.0000 0.6000
    endloop
endfacet
facet normal 0.0000 -1.5402 0.0000
    outer loop
        vertex -4.4840 0.0000 0.6240
        vertex -4.9960 0.0000 0.6000
        vertex -4.9680 0.0000 0.1200
    endloop
endfacet
facet normal 0.0000 -1.4893 0.0000
    outer loop
        vertex -4.9680 0.0000 0.1200
        vertex -4.4760 0.0000 0.1400
        vertex -4.4840 0.0000 0.6240
    endloop
endfacet
facet normal 0.0000 -1.5486 0.0000
    outer loop
        vertex -3.9720 0.0000 0.6200
        vertex -4.4840 0.0000 0.6240
        vertex -4.4760 0.0000 0.1400
    endloop
endfacet
facet normal 0.0000 -1.4760 0.0000
    outer loop
        vertex -4.4760 0.0000 0.1400
        vertex -3.9840 0.0000 0.1400
        vertex -3.9720 0.0000 0.6200
    endloop
endfacet
facet normal 0.0000 -1.5504 0.0000
    outer loop
        vertex -3.4560 0.0000 0.5880
        vertex -3.9720 0.0000 0.6200
        vertex -3.9840 0.0000 0.1400
    endloop
endfacet
facet normal 0.0000 -1.4720 0.0000
    outer loop
        vertex -3.9840 0.0000 0.1400
        vertex -3.4960 0.0000 0.1080
        vertex -3.4560 0.0000 0.5880
    endloop
endfacet
facet normal 0.0000 -1.5380 0.0000
    outer loop
        vertex -2.9480 0.0000 0.5320
        vertex -3.4560 0.0000 0.5880
        vertex -3.4960 0.0000 0.1080
    endloop
endfacet
facet normal 0.0000 -1.4713 0.0000
    outer loop
        vertex -3.4960 0.0000 0.1080
        vertex -3.0080 0.0000 0.0560
        vertex -2.9480 0.0000 0.5320
    endloop
endfacet
facet normal 0.0000 -1.5547 0.0000
    outer loop
        vertex -2.4360 0.0000 0.4480
        vertex -2.9480 0.0000 0.5320
        vertex -3.0080 0.0000 0.0560
    endloop
endfacet
facet normal 0.0000 -1.4816 0.0000
    outer loop
        vertex -3.0080 0.0000 0.0560
        vertex -2.5200 0.0000 -0.0240
        vertex -2.4360 0.0000 0.4480
    endloop
endfacet
facet normal 0.0000 -1.5553 0.0000
    outer loop
        vertex -1.9280 0.0000 0.3400
        vertex -2.4360 0.0000 0.4480
        vertex -2.5200 0.0000 -0.0240
    endloop
endfacet
facet normal 0.0000 -1.4950 0.0000
    outer loop
        vertex -2.5200 0.0000 -0.0240
        vertex -2.0320 0.0000 -0.1280
        vertex -1.9280 0.0000 0.3400
    endloop
endfacet
facet normal 0.0000 -1.5860 0.0000
    outer loop
        vertex -1.4160 0.0000 0.2040
        vertex -1.9280 0.0000 0.3400
        vertex -2.0320 0.0000 -0.1280
    endloop
endfacet
facet normal 0.0000 -1.5125 0.0000
    outer loop
        vertex -2.0320 0.0000 -0.1280
        vertex -1.5480 0.0000 -0.2600
        vertex -1.4160 0.0000 0.2040
    endloop
endfacet
facet normal 0.0000 -1.5969 0.0000
    outer loop
        vertex -0.9120 0.0000 0.0400
        vertex -1.4160 0.0000 0.2040
        vertex -1.5480 0.0000 -0.2600
    endloop
endfacet
facet normal 0.0000 -1.5276 0.0000
    outer loop
        vertex -1.5480 0.0000 -0.2600
        vertex -1.0640 0.0000 -0.4160
        vertex -0.9120 0.0000 0.0400
    endloop
endfacet
facet normal 0.0000 -1.6264 0.0000
    outer loop
        vertex -0.4040 0.0000 -0.1480
        vertex -0.9120 0.0000 0.0400
        vertex -1.0640 0.0000 -0.4160
    endloop
endfacet
facet normal 0.0000 -1.5532 0.0000
    outer loop
        vertex -1.0640 0.0000 -0.4160
        vertex -0.5800 0.0000 -0.5960
        vertex -0.4040 0.0000 -0.1480
    endloop
endfacet
facet normal 0.0000 -0.5384 0.0000
    outer loop
        vertex -0.2400 0.0000 -0.2200
        vertex -0.4040 0.0000 -0.1480
        vertex -0.5800 0.0000 -0.5960
    endloop
endfacet
facet normal 0.0000 -1.1050 0.0000
    outer loop
        vertex -0.5800 0.0000 -0.5960
        vertex -0.2400 0.0000 -0.7400
        vertex -0.2400 0.0000 -0.2200
    endloop
endfacet
facet normal 0.0000 -8.8200 0.0000
    outer loop
        vertex 0.2400 0.0000 -0.7400
        vertex -0.2400 0.0000 -0.7400
        vertex -0.2400 0.0000 -3.6800
    endloop
endfacet
facet normal 0.0000 -8.8200 0.0000
    outer loop
        vertex -0.2400 0.0000 -3.6800
        vertex 0.2400 0.0000 -3.6800
        vertex 0.2400 0.0000 -0.7400
    endloop
endfacet
facet normal 0.0000 -1.5600 0.0000
    outer loop
        vertex 0.2400 0.0000 -0.2200
        vertex -0.2400 0.0000 -0.2200
        vertex -0.2400 0.0000 -0.7400
    endloop
endfacet
facet normal 0.0000 -1.5600 0.0000
    outer loop
        vertex -0.2400 0.0000 -0.7400
        vertex 0.2400 0.0000 -0.7400
        vertex 0.2400 0.0000 -0.2200
    endloop
endfacet
facet normal 0.0000 -11.7000 0.0000
    outer loop
        vertex 0.2400 0.0000 3.6800
        vertex -0.2400 0.0000 3.6800
        vertex -0.2400 0.0000 -0.2200
    endloop
endfacet
facet normal 0.0000 -11.7000 0.0000
    outer loop
        vertex -0.2400 0.0000 -0.2200
        vertex 0.2400 0.0000 -0.2200
        vertex 0.2400 0.0000 3.6800
    endloop
endfacet
facet normal 0.0000 -0.5384 0.0000
    outer loop
        vertex 0.5800 0.0000 -0.5960
        vertex 0.4040 0.0000 -0.1480
        vertex 0.2400 0.0000 -0.2200
    endloop
endfacet
facet normal 0.0000 -1.1050 0.0000
    outer loop
        vertex 0.2400 0.0000 -0.2200
        vertex 0.2400 0.0000 -0.7400
        vertex 0.5800 0.0000 -0.5960
    endloop
endfacet
facet normal 0.0000 -1.6264 0.0000
    outer loop
        vertex 1.0640 0.0000 -0.4160
        vertex 0.9120 0.0000 0.0400
        vertex 0.4040 0.0000 -0.1480
    endloop
endfacet
facet normal 0.0000 -1.5532 0.0000
    outer loop
        vertex 0.4040 0.0000 -0.1480
        vertex 0.5800 0.0000 -0.5960
        vertex 1.0640 0.0000 -0.4160
    endloop
endfacet
facet normal 0.0000 -1.5969 0.0000
    outer loop
        vertex 1.5480 0.0000 -0.2600
        vertex 1.4160 0.0000 0.2040
        vertex 0.9120 0.0000 0.0400
    endloop
endfacet
facet normal 0.0000 -1.5276 0.0000
    outer loop
        vertex 0.9120 0.0000 0.0400
        vertex 1.0640 0.0000 -0.4160
        vertex 1.5480 0.0000 -0.2600
    endloop
endfacet
facet normal 0.0000 -1.5860 0.0000
    outer loop
        vertex 2.0320 0.0000 -0.1280
        vertex 1.9280 0.0000 0.3400
        vertex 1.4160 0.0000 0.2040
    endloop
endfacet
facet normal 0.0000 -1.5125 0.0000
    outer loop
        vertex 1.4160 0.0000 0.2040
        vertex 1.5480 0.0000 -0.2600
        vertex 2.0320 0.0000 -0.1280
    endloop
endfacet
facet normal 0.0000 -1.5553 0.0000
    outer loop
        vertex 2.5200 0.0000 -0.0240
        vertex 2.4360 0.0000 0.4480
        vertex 1.9280 0.0000 0.3400
    endloop
endfacet
facet normal 0.0000 -1.4950 0.0000
    outer loop
        vertex 1.9280 0.0000 0.3400
        vertex 2.0320 0.0000 -0.1280
        vertex 2.5200 0.0000 -0.0240
    endloop
endfacet
facet normal 0.0000 -1.5547 0.0000
    outer loop
        vertex 3.0080 0.0000 0.0560
        vertex 2.9480 0.0000 0.5320
        vertex 2.4360 0.0000 0.4480
    endloop
endfacet
facet normal 0.0000 -1.4816 0.0000
    outer loop
        vertex 2.4360 0.0000 0.4480
        vertex 2.5200 0.0000 -0.0240
        vertex 3.0080 0.0000 0.0560
    endloop
endfacet
facet normal 0.0000 -1.5380 0.0000
    outer loop
        vertex 3.4960 0.0000 0.1080
        vertex 3.4560 0.0000 0.5880
        vertex 2.9480 0.0000 0.5320
    endloop
endfacet
facet normal 0.0000 -1.4713 0.0000
    outer loop
        vertex 2.9480 0.0000 0.5320
        vertex 3.0080 0.0000 0.0560
        vertex 3.4960 0.0000 0.1080
    endloop
endfacet
facet normal 0.0000 -1.5504 0.0000
    outer loop
        vertex 3.9840 0.0000 0.1400
        vertex 3.9720 0.0000 0.6200
        vertex 3.4560 0.0000 0.5880
    endloop
endfacet
facet normal 0.0000 -1.4720 0.0000
    outer loop
        vertex 3.4560 0.0000 0.5880
        vertex 3.4960 0.0000 0.1080
        vertex 3.9840 0.0000 0.1400
    endloop
endfacet
facet normal 0.0000 -1.5486 0.0000
    outer loop
        vertex 4.4760 0.0000 0.1400
        vertex 4.4840 0.0000 0.6240
        vertex 3.9720 0.0000 0.6200
    endloop
endfacet
facet normal 0.0000 -1.4760 0.0000
    outer loop
        vertex 3.9720 0.0000 0.6200
        vertex 3.9840 0.0000 0.1400
        vertex 4.4760 0.0000 0.1400
    endloop
endfacet
facet normal 0.0000 -1.5402 0.0000
    outer loop
        vertex 4.9680 0.0000 0.1200
        vertex 4.9960 0.0000 0.6000
        vertex 4.4840 0.0000 0.6240
    endloop
endfacet
facet normal 0.0000 -1.4893 0.0000
    outer loop
        vertex 4.4840 0.0000 0.6240
        vertex 4.4760 0.0000 0.1400
        vertex 4.9680 0.0000 0.1200
    endloop
endfacet
facet normal 0.0000 -1.5648 0.0000
    outer loop
        vertex 5.4560 0.0000 0.0720
        vertex 5.5120 0.0000 0.5520
        vertex 4.9960 0.0000 0.6000
    endloop
endfacet
facet normal 0.0000 -1.4724 0.0000
    outer loop
        vertex 4.9960 0.0000 0.6000
        vertex 4.9680 0.0000 0.1200
        vertex 5.4560 0.0000 0.0720
    endloop
endfacet
facet normal 0.0000 -1.5593 0.0000
    outer loop
        vertex 5.9480 0.0000 0.0000
        vertex 6.0240 0.0000 0.4760
        vertex 5.5120 0.0000 0.5520
    endloop
endfacet
facet normal 0.0000 -1.5012 0.0000
    outer loop
        vertex 5.5120 0.0000 0.5520
        vertex 5.4560 0.0000 0.0720
        vertex 5.9480 0.0000 0.0000
    endloop
endfacet
facet normal 0.0000 -1.5743 0.0000
    outer loop
        vertex 6.4400 0.0000 -0.0960
        vertex 6.5400 0.0000 0.3720
        vertex 6.0240 0.0000 0.4760
    endloop
endfacet
facet normal 0.0000 -1.5093 0.0000
    outer loop
        vertex 6.0240 0.0000 0.4760
        vertex 5.9480 0.0000 0.0000
        vertex 6.4400 0.0000 -0.0960
    endloop
endfacet
facet normal 0.0000 -1.5956 0.0000
    outer loop
        vertex 6.9320 0.0000 -0.2200
        vertex 7.0560 0.0000 0.2440
        vertex 6.5400 0.0000 0.3720
    endloop
endfacet
facet normal 0.0000 -1.5166 0.0000
    outer loop
        vertex 6.5400 0.0000 0.3720
        vertex 6.4400 0.0000 -0.0960
        vertex 6.9320 0.0000 -0.2200
    endloop
endfacet
facet normal 0.0000 -1.6149 0.0000
    outer loop
        vertex 7.4240 0.0000 -0.3680
        vertex 7.5720 0.0000 0.0880
        vertex 7.0560 0.0000 0.2440
    endloop
endfacet
facet normal 0.0000 -1.5415 0.0000
    outer loop
        vertex 7.0560 0.0000 0.2440
        vertex 6.9320 0.0000 -0.2200
        vertex 7.4240 0.0000 -0.3680
    endloop
endfacet
facet normal 0.0000 -0.3456 0.0000
    outer loop
        vertex 7.6800 0.0000 -0.4600
        vertex 7.6800 0.0000 0.0520
        vertex 7.5720 0.0000 0.0880
    endloop
endfacet
facet normal 0.0000 -0.8147 0.0000
    outer loop
        vertex 7.5720 0.0000 0.0880
        vertex 7.4240 0.0000 -0.3680
        vertex 7.6800 0.0000 -0.4600
    endloop
endfacet
facet normal 0.0000 -16.0000 0.0000
    outer loop
        vertex -7.6800 0.0000 0.0520
        vertex -8.0000 0.0000 4.0000
        vertex -8.0000 0.0000 -4.0000
    endloop
endfacet
facet normal 0.0000 -1.0240 0.0000
    outer loop
        vertex -8.0000 0.0000 -4.0000
        vertex -7.6800 0.0000 -0.4600
        vertex -7.6800 0.0000 0.0520
    endloop
endfacet
facet normal 0.0000 -2.7369 0.0000
    outer loop
        vertex -8.0000 0.0000 4.0000
        vertex -7.6800 0.0000 0.0520
        vertex -7.5720 0.0000 0.0880
    endloop
endfacet
facet normal 0.0000 -13.0335 0.0000
    outer loop
        vertex -8.0000 0.0000 4.0000
        vertex -7.5720 0.0000 0.0880
        vertex -7.0560 0.0000 0.2440
    endloop
endfacet
facet normal 0.0000 -5.4800 0.0000
    outer loop
        vertex -7.4240 0.0000 -0.3680
        vertex -7.6800 0.0000 -0.4600
        vertex -8.0000 0.0000 -4.0000
    endloop
endfacet
facet normal 0.0000 -10.6356 0.0000
    outer loop
        vertex -8.0000 0.0000 -4.0000
        vertex -6.9320 0.0000 -0.2200
        vertex -7.4240 0.0000 -0.3680
    endloop
endfacet
facet normal 0.0000 -12.8683 0.0000
    outer loop
        vertex -8.0000 0.0000 4.0000
        vertex -7.0560 0.0000 0.2440
        vertex -6.5400 0.0000 0.3720
    endloop
endfacet
facet normal 0.0000 -12.6493 0.0000
    outer loop
        vertex -8.0000 0.0000 4.0000
        vertex -6.5400 0.0000 0.3720
        vertex -6.0240 0.0000 0.4760
    endloop
endfacet
facet normal 0.0000 -10.7958 0.0000
    outer loop
        vertex -6.4400 0.0000 -0.0960
        vertex -6.9320 0.0000 -0.2200
        vertex -8.0000 0.0000 -4.0000
    endloop
endfacet
facet normal 0.0000 -11.0688 0.0000
    outer loop
        vertex -8.0000 0.0000 -4.0000
        vertex -5.9480 0.0000 0.0000
        vertex -6.4400 0.0000 -0.0960
    endloop
endfacet
facet normal 0.0000 -12.2154 0.0000
    outer loop
        vertex -8.0000 0.0000 4.0000
        vertex -6.0240 0.0000 0.4760
        vertex -5.5120 0.0000 0.5520
    endloop
endfacet
facet normal 0.0000 -11.8662 0.0000
    outer loop
        vertex -8.0000 0.0000 4.0000
        vertex -5.5120 0.0000 0.5520
        vertex -4.9960 0.0000 0.6000
    endloop
endfacet
facet normal 0.0000 -11.3766 0.0000
    outer loop
        vertex -5.4560 0.0000 0.0720
        vertex -5.9480 0.0000 0.0000
        vertex -8.0000 0.0000 -4.0000
    endloop
endfacet
facet normal 0.0000 -11.6564 0.0000
    outer loop
        vertex -8.0000 0.0000 -4.0000
        vertex -4.9680 0.0000 0.1200
        vertex -5.4560 0.0000 0.0720
    endloop
endfacet
facet normal 0.0000 -11.3306 0.0000
    outer loop
        vertex -8.0000 0.0000 4.0000
        vertex -4.9960 0.0000 0.6000
        vertex -4.4840 0.0000 0.6240
    endloop
endfacet
facet normal 0.0000 -12.2900 0.0000
    outer loop
        vertex -4.4760 0.0000 0.1400
        vertex -4.9680 0.0000 0.1200
        vertex -8.0000 0.0000 -4.0000
    endloop
endfacet
facet normal 0.0000 -12.7305 0.0000
    outer loop
        vertex -8.0000 0.0000 -4.0000
        vertex -3.9840 0.0000 0.1400
        vertex -4.4760 0.0000 0.1400
    endloop
endfacet
facet normal 0.0000 -6.2475 0.0000
    outer loop
        vertex -0.5800 0.0000 -0.5960
        vertex -0.2400 0.0000 -3.6800
        vertex -0.2400 0.0000 -0.7400
    endloop
endfacet
facet normal 0.0000 -9.0702 0.0000
    outer loop
        vertex -1.0640 0.0000 -0.4160
        vertex -1.5480 0.0000 -0.2600
        vertex -0.2400 0.0000 -3.6800
    endloop
endfacet
facet normal 0.0000 -8.9466 0.0000
    outer loop
        vertex -0.2400 0.0000 -3.6800
        vertex -0.5800 0.0000 -0.5960
        vertex -1.0640 0.0000 -0.4160
    endloop
endfacet
facet normal 0.0000 -9.6688 0.0000
    outer loop
        vertex -2.0320 0.0000 -0.1280
        vertex -2.5200 0.0000 -0.0240
        vertex -0.2400 0.0000 -3.6800
    endloop
endfacet
facet normal 0.0000 -9.2664 0.0000
    outer loop
        vertex -0.2400 0.0000 -3.6800
        vertex -1.5480 0.0000 -0.2600
        vertex -2.0320 0.0000 -0.1280
    endloop
endfacet
facet normal 0.0000 -10.4952 0.0000
    outer loop
        vertex -3.0080 0.0000 0.0560
        vertex -3.4960 0.0000 0.1080
        vertex -0.2400 0.0000 -3.6800
    endloop
endfacet
facet normal 0.0000 -10.0108 0.0000
    outer loop
        vertex -0.2400 0.0000 -3.6800
        vertex -2.5200 0.0000 -0.0240
        vertex -3.0080 0.0000 0.0560
    endloop
endfacet
facet normal 0.0000 -192.7580 0.0000
    outer loop
        vertex -3.9840 0.0000 0.1400
        vertex -8.0000 0.0000 -4.0000
        vertex -0.2400 0.0000 -3.6800
    endloop
endfacet
facet normal 0.0000 -10.9022 0.0000
    outer loop
        vertex -0.2400 0.0000 -3.6800
        vertex -3.4960 0.0000 0.1080
        vertex -3.9840 0.0000 0.1400
    endloop
endfacet
facet normal 0.0000 -10.9427 0.0000
    outer loop
        vertex -0.2400 0.0000 3.6800
        vertex -3.4560 0.0000 0.5880
        vertex -2.9480 0.0000 0.5320
    endloop
endfacet
facet normal 0.0000 -11.4953 0.0000
    outer loop
        vertex -0.2400 0.0000 3.6800
        vertex -2.9480 0.0000 0.5320
        vertex -2.4360 0.0000 0.4480
    endloop
endfacet
facet normal 0.0000 -11.7439 0.0000
    outer loop
        vertex -0.2400 0.0000 3.6800
        vertex -2.4360 0.0000 0.4480
        vertex -1.9280 0.0000 0.3400
    endloop
endfacet
facet normal 0.0000 -3.9975 0.0000
    outer loop
        vertex -0.2400 0.0000 3.6800
        vertex -0.4040 0.0000 -0.1480
        vertex -0.2400 0.0000 -0.2200
    endloop
endfacet
facet normal 0.0000 -12.3466 0.0000
    outer loop
        vertex -0.2400 0.0000 3.6800
        vertex -0.9120 0.0000 0.0400
        vertex -0.4040 0.0000 -0.1480
    endloop
endfacet
facet normal 0.0000 -12.1548 0.0000
    outer loop
        vertex -0.2400 0.0000 3.6800
        vertex -1.4160 0.0000 0.2040
        vertex -0.9120 0.0000 0.0400
    endloop
endfacet
facet normal 0.0000 -12.1228 0.0000
    outer loop
        vertex -0.2400 0.0000 3.6800
        vertex -1.9280 0.0000 0.3400
        vertex -1.4160 0.0000 0.2040
    endloop
endfacet
facet normal 0.0000 -10.6149 0.0000
    outer loop
        vertex -0.2400 0.0000 3.6800
        vertex -3.9720 0.0000 0.6200
        vertex -3.4560 0.0000 0.5880
    endloop
endfacet
facet normal 0.0000 -10.7153 0.0000
    outer loop
        vertex -8.0000 0.0000 4.0000
        vertex -4.4840 0.0000 0.6240
        vertex -3.9720 0.0000 0.6200
    endloop
endfacet
facet normal 0.0000 -155.8740 0.0000
    outer loop
        vertex -3.9720 0.0000 0.6200
        vertex -0.2400 0.0000 3.6800
        vertex -8.0000 0.0000 4.0000
    endloop
endfacet
facet normal 0.0000 -3.9975 0.0000
    outer loop
        vertex 0.2400 0.0000 3.6800
        vertex 0.2400 0.0000 -0.2200
        vertex 0.4040 0.0000 -0.1480
    endloop
endfacet
facet normal 0.0000 -6.2475 0.0000
    outer loop
        vertex 0.5800 0.0000 -0.5960
        vertex 0.2400 0.0000 -0.7400
        vertex 0.2400 0.0000 -3.6800
    endloop
endfacet
facet normal 0.0000 -12.3466 0.0000
    outer loop
        vertex 0.2400 0.0000 3.6800
        vertex 0.4040 0.0000 -0.1480
        vertex 0.9120 0.0000 0.0400
    endloop
endfacet
facet normal 0.0000 -12.1548 0.0000
    outer loop
        vertex 0.2400 0.0000 3.6800
        vertex 0.9120 0.0000 0.0400
        vertex 1.4160 0.0000 0.2040
    endloop
endfacet
facet normal 0.0000 -9.0702 0.0000
    outer loop
        vertex 0.2400 0.0000 -3.6800
        vertex 1.5480 0.0000 -0.2600
        vertex 1.0640 0.0000 -0.4160
    endloop
endfacet
facet normal 0.0000 -8.9466 0.0000
    outer loop
        vertex 1.0640 0.0000 -0.4160
        vertex 0.5800 0.0000 -0.5960
        vertex 0.2400 0.0000 -3.6800
    endloop
endfacet
facet normal 0.0000 -12.1228 0.0000
    outer loop
        vertex 0.2400 0.0000 3.6800
        vertex 1.4160 0.0000 0.2040
        vertex 1.9280 0.0000 0.3400
    endloop
endfacet
facet normal 0.0000 -11.7439 0.0000
    outer loop
        vertex 0.2400 0.0000 3.6800
        vertex 1.9280 0.0000 0.3400
        vertex 2.4360 0.0000 0.4480
    endloop
endfacet
facet normal 0.0000 -9.6688 0.0000
    outer loop
        vertex 0.2400 0.0000 -3.6800
        vertex 2.5200 0.0000 -0.0240
        vertex 2.0320 0.0000 -0.1280
    endloop
endfacet
facet normal 0.0000 -9.2664 0.0000
    outer loop
        vertex 2.0320 0.0000 -0.1280
        vertex 1.5480 0.0000 -0.2600
        vertex 0.2400 0.0000 -3.6800
    endloop
endfacet
facet normal 0.0000 -11.4953 0.0000
    outer loop
        vertex 0.2400 0.0000 3.6800
        vertex 2.4360 0.0000 0.4480
        vertex 2.9480 0.0000 0.5320
    endloop
endfacet
facet normal 0.0000 -10.9427 0.0000
    outer loop
        vertex 0.2400 0.0000 3.6800
        vertex 2.9480 0.0000 0.5320
        vertex 3.4560 0.0000 0.5880
    endloop
endfacet
facet normal 0.0000 -10.4952 0.0000
    outer loop
        vertex 0.2400 0.0000 -3.6800
        vertex 3.4960 0.0000 0.1080
        vertex 3.0080 0.0000 0.0560
    endloop
endfacet
facet normal 0.0000 -10.0108 0.0000
    outer loop
        vertex 3.0080 0.0000 0.0560
        vertex 2.5200 0.0000 -0.0240
        vertex 0.2400 0.0000 -3.6800
    endloop
endfacet
facet normal 0.0000 -10.6149 0.0000
    outer loop
        vertex 0.2400 0.0000 3.6800
        vertex 3.4560 0.0000 0.5880
        vertex 3.9720 0.0000 0.6200
    endloop
endfacet
facet normal 0.0000 -0.9600 0.0000
    outer loop
        vertex 0.2400 0.0000 -3.6800
        vertex -0.2400 0.0000 -3.6800
        vertex -8.0000 0.0000 -4.0000
    endloop
endfacet
facet normal 0.0000 -32.0000 0.0000
    outer loop
        vertex -8.0000 0.0000 -4.0000
        vertex 8.0000 0.0000 -4.0000
        vertex 0.2400 0.0000 -3.6800
    endloop
endfacet
facet normal 0.0000 -5.4800 0.0000
    outer loop
        vertex 8.0000 0.0000 -4.0000
        vertex 7.6800 0.0000 -0.4600
        vertex 7.4240 0.0000 -0.3680
    endloop
endfacet
facet normal 0.0000 -10.6356 0.0000
    outer loop
        vertex 7.4240 0.0000 -0.3680
        vertex 6.9320 0.0000 -0.2200
        vertex 8.0000 0.0000 -4.0000
    endloop
endfacet
facet normal 0.0000 -10.7958 0.0000
    outer loop
        vertex 8.0000 0.0000 -4.0000
        vertex 6.9320 0.0000 -0.2200
        vertex 6.4400 0.0000 -0.0960
    endloop
endfacet
facet normal 0.0000 -11.0688 0.0000
    outer loop
        vertex 6.4400 0.0000 -0.0960
        vertex 5.9480 0.0000 0.0000
        vertex 8.0000 0.0000 -4.0000
    endloop
endfacet
facet normal 0.0000 -11.3766 0.0000
    outer loop
        vertex 8.0000 0.0000 -4.0000
        vertex 5.9480 0.0000 0.0000
        vertex 5.4560 0.0000 0.0720
    endloop
endfacet
facet normal 0.0000 -11.6564 0.0000
    outer loop
        vertex 5.4560 0.0000 0.0720
        vertex 4.9680 0.0000 0.1200
        vertex 8.0000 0.0000 -4.0000
    endloop
endfacet
facet normal 0.0000 -192.7580 0.0000
    outer loop
        vertex 0.2400 0.0000 -3.6800
        vertex 8.0000 0.0000 -4.0000
        vertex 3.9840 0.0000 0.1400
    endloop
endfacet
facet normal 0.0000 -10.9022 0.0000
    outer loop
        vertex 3.9840 0.0000 0.1400
        vertex 3.4960 0.0000 0.1080
        vertex 0.2400 0.0000 -3.6800
    endloop
endfacet
facet normal 0.0000 -12.2900 0.0000
    outer loop
        vertex 8.0000 0.0000 -4.0000
        vertex 4.9680 0.0000 0.1200
        vertex 4.4760 0.0000 0.1400
    endloop
endfacet
facet normal 0.0000 -12.7305 0.0000
    outer loop
        vertex 4.4760 0.0000 0.1400
        vertex 3.9840 0.0000 0.1400
        vertex 8.0000 0.0000 -4.0000
    endloop
endfacet
facet normal 0.0000 -2.7369 0.0000
    outer loop
        vertex 8.0000 0.0000 4.0000
        vertex 7.5720 0.0000 0.0880
        vertex 7.6800 0.0000 0.0520
    endloop
endfacet
facet normal 0.0000 -16.0000 0.0000
    outer loop
        vertex 8.0000 0.0000 -4.0000
        vertex 8.0000 0.0000 4.0000
        vertex 7.6800 0.0000 0.0520
    endloop
endfacet
facet normal 0.0000 -1.0240 0.0000
    outer loop
        vertex 7.6800 0.0000 0.0520
        vertex 7.6800 0.0000 -0.4600
        vertex 8.0000 0.0000 -4.0000
    endloop
endfacet
facet normal 0.0000 -0.9600 0.0000
    outer loop
        vertex -8.0000 0.0000 4.0000
        vertex -0.2400 0.0000 3.6800
        vertex 0.2400 0.0000 3.6800
    endloop
endfacet
facet normal 0.0000 -32.0000 0.0000
    outer loop
        vertex 0.2400 0.0000 3.6800
        vertex 8.0000 0.0000 4.0000
        vertex -8.0000 0.0000 4.0000
    endloop
endfacet
facet normal 0.0000 -13.0335 0.0000
    outer loop
        vertex 8.0000 0.0000 4.0000
        vertex 7.0560 0.0000 0.2440
        vertex 7.5720 0.0000 0.0880
    endloop
endfacet
facet normal 0.0000 -11.8662 0.0000
    outer loop
        vertex 8.0000 0.0000 4.0000
        vertex 4.9960 0.0000 0.6000
        vertex 5.5120 0.0000 0.5520
    endloop
endfacet
facet normal 0.0000 -11.3306 0.0000
    outer loop
        vertex 8.0000 0.0000 4.0000
        vertex 4.4840 0.0000 0.6240
        vertex 4.9960 0.0000 0.6000
    endloop
endfacet
facet normal 0.0000 -10.7153 0.0000
    outer loop
        vertex 3.9720 0.0000 0.6200
        vertex 4.4840 0.0000 0.6240
        vertex 8.0000 0.0000 4.0000
    endloop
endfacet
facet normal 0.0000 -155.8740 0.0000
    outer loop
        vertex 8.0000 0.0000 4.0000
        vertex 0.2400 0.0000 3.6800
        vertex 3.9720 0.0000 0.6200
    endloop
endfacet
facet normal 0.0000 -12.8683 0.0000
    outer loop
        vertex 8.0000 0.0000 4.0000
        vertex 6.5400 0.0000 0.3720
        vertex 7.0560 0.0000 0.2440
    endloop
endfacet
facet normal 0.0000 -12.6493 0.0000
    outer loop
        vertex 8.0000 0.0000 4.0000
        vertex 6.0240 0.0000 0.4760
        vertex 6.5400 0.0000 0.3720
    endloop
endfacet
facet normal 0.0000 -12.2154 0.0000
    outer loop
        vertex 8.0000 0.0000 4.0000
        vertex 5.5120 0.0000 0.5520
        vertex 6.0240 0.0000 0.4760
    endloop
endfacet
endsolid GiantLegoRocks
