solid GiantLegoRocks
facet normal 0.0000 0.0000 20.0000
    outer loop
        vertex -8.0000 2.8000 4.0000
        vertex -8.0000 0.0000 4.0000
        vertex 8.0000 0.0000 4.0000
    endloop
endfacet
facet normal 0.0000 0.0000 20.0000
    outer loop
        vertex 8.0000 0.0000 4.0000
        vertex 8.0000 2.8000 4.0000
        vertex -8.0000 2.8000 4.0000
    endloop
endfacet
facet normal -40.0000 0.0000 0.0000
    outer loop
        vertex -8.0000 2.8000 -4.0000
        vertex -8.0000 0.0000 -4.0000
        vertex -8.0000 0.0000 4.0000
    endloop
endfacet
facet normal -40.0000 0.0000 0.0000
    outer loop
        vertex -8.0000 0.0000 4.0000
        vertex -8.0000 2.8000 4.0000
        vertex -8.0000 2.8000 -4.0000
    endloop
endfacet
facet normal 0.0000 0.0000 -20.0000
    outer loop
        vertex 8.0000 2.8000 -4.0000
        vertex 8.0000 0.0000 -4.0000
        vertex -8.0000 0.0000 -4.0000
    endloop
endfacet
facet normal 0.0000 0.0000 -20.0000
    outer loop
        vertex -8.0000 0.0000 -4.0000
        vertex -8.0000 2.8000 -4.0000
        vertex 8.0000 2.8000 -4.0000
    endloop
endfacet
facet normal 40.0000 0.0000 0.0000
    outer loop
        vertex 8.0000 2.8000 4.0000
        vertex 8.0000 0.0000 4.0000
        vertex 8.0000 0.0000 -4.0000
    endloop
endfacet
facet normal 40.0000 0.0000 0.0000
    outer loop
        vertex 8.0000 0.0000 -4.0000
        vertex 8.0000 2.8000 -4.0000
        vertex 8.0000 2.8000 4.0000
    endloop
endfacet
facet normal 0.0000 7.0000 18.0000
    outer loop
        vertex -7.6000 3.2000 3.6000
        vertex -7.6000 2.8000 3.6000
        vertex 7.6000 2.8000 3.6000
    endloop
endfacet
facet normal 0.0000 7.0000 18.0000
    outer loop
        vertex 7.6000 2.8000 3.6000
        vertex 7.6000 3.2000 3.6000
        vertex -7.6000 3.2000 3.6000
    endloop
endfacet
facet normal -38.0000 7.0000 0.0000
    outer loop
        vertex -7.6000 3.2000 -3.6000
        vertex -7.6000 2.8000 -3.6000
        vertex -7.6000 2.8000 3.6000
    endloop
endfacet
facet normal -38.0000 7.0000 0.0000
    outer loop
        vertex -7.6000 2.8000 3.6000
        vertex -7.6000 3.2000 3.6000
        vertex -7.6000 3.2000 -3.6000
    endloop
endfacet
facet normal 0.0000 7.0000 -18.0000
    outer loop
        vertex 7.6000 3.2000 -3.6000
        vertex 7.6000 2.8000 -3.6000
        vertex -7.6000 2.8000 -3.6000
    endloop
endfacet
facet normal 0.0000 7.0000 -18.0000
    outer loop
        vertex -7.6000 2.8000 -3.6000
        vertex -7.6000 3.2000 -3.6000
        vertex 7.6000 3.2000 -3.6000
    endloop
endfacet
facet normal 38.0000 7.0000 0.0000
    outer loop
        vertex 7.6000 3.2000 3.6000
        vertex 7.6000 2.8000 3.6000
        vertex 7.6000 2.8000 -3.6000
    endloop
endfacet
facet normal 38.0000 7.0000 0.0000
    outer loop
        vertex 7.6000 2.8000 -3.6000
        vertex 7.6000 3.2000 -3.6000
        vertex 7.6000 3.2000 3.6000
    endloop
endfacet
facet normal 0.0000 -8.0000 0.0000
    outer loop
        vertex -6.4000 1.6000 2.4000
        vertex 6.4000 1.6000 2.4000
        vertex 6.4000 1.6000 -2.4000
    endloop
endfacet
facet normal 0.0000 -8.0000 0.0000
    outer loop
        vertex 6.4000 1.6000 -2.4000
        vertex -6.4000 1.6000 -2.4000
        vertex -6.4000 1.6000 2.4000
    endloop
endfacet
facet normal 0.0000 8.0000 12.0000
    outer loop
        vertex -6.4000 1.6000 2.4000
        vertex -6.4000 3.2000 2.4000
        vertex 6.4000 3.2000 2.4000
    endloop
endfacet
facet normal 0.0000 8.0000 12.0000
    outer loop
        vertex 6.4000 3.2000 2.4000
        vertex 6.4000 1.6000 2.4000
        vertex -6.4000 1.6000 2.4000
    endloop
endfacet
facet normal -32.0000 8.0000 0.0000
    outer loop
        vertex -6.4000 1.6000 -2.4000
        vertex -6.4000 3.2000 -2.4000
        vertex -6.4000 3.2000 2.4000
    endloop
endfacet
facet normal -32.0000 8.0000 0.0000
    outer loop
        vertex -6.4000 3.2000 2.4000
        vertex -6.4000 1.6000 2.4000
        vertex -6.4000 1.6000 -2.4000
    endloop
endfacet
facet normal 0.0000 8.0000 -12.0000
    outer loop
        vertex 6.4000 1.6000 -2.4000
        vertex 6.4000 3.2000 -2.4000
        vertex -6.4000 3.2000 -2.4000
    endloop
endfacet
facet normal 0.0000 8.0000 -12.0000
    outer loop
        vertex -6.4000 3.2000 -2.4000
        vertex -6.4000 1.6000 -2.4000
        vertex 6.4000 1.6000 -2.4000
    endloop
endfacet
facet normal 32.0000 8.0000 0.0000
    outer loop
        vertex 6.4000 1.6000 2.4000
        vertex 6.4000 3.2000 2.4000
        vertex 6.4000 3.2000 -2.4000
    endloop
endfacet
facet normal 32.0000 8.0000 0.0000
    outer loop
        vertex 6.4000 3.2000 -2.4000
        vertex 6.4000 1.6000 -2.4000
        vertex 6.4000 1.6000 2.4000
    endloop
endfacet
facet normal 0.0000 36.0000 0.0000
    outer loop
        vertex -7.6000 3.2000 3.6000
        vertex -6.4000 3.2000 2.4000
        vertex -6.4000 3.2000 -2.4000
    endloop
endfacet
facet normal 0.0000 54.0000 0.0000
    outer loop
        vertex -6.4000 3.2000 -2.4000
        vertex -7.6000 3.2000 -3.6000
        vertex -7.6000 3.2000 3.6000
    endloop
endfacet
facet normal 0.0000 36.0000 0.0000
    outer loop
        vertex 7.6000 3.2000 -3.6000
        vertex 6.4000 3.2000 -2.4000
        vertex 6.4000 3.2000 2.4000
    endloop
endfacet
facet normal 0.0000 54.0000 0.0000
    outer loop
        vertex 6.4000 3.2000 2.4000
        vertex 7.6000 3.2000 3.6000
        vertex 7.6000 3.2000 -3.6000
    endloop
endfacet
facet normal 0.0000 96.0000 0.0000
    outer loop
        vertex 7.6000 3.2000 3.6000
        vertex 6.4000 3.2000 2.4000
        vertex -6.4000 3.2000 2.4000
    endloop
endfacet
facet normal 0.0000 114.0000 0.0000
    outer loop
        vertex -6.4000 3.2000 2.4000
        vertex -7.6000 3.2000 3.6000
        vertex 7.6000 3.2000 3.6000
    endloop
endfacet
facet normal 0.0000 96.0000 0.0000
    outer loop
        vertex -7.6000 3.2000 -3.6000
        vertex -6.4000 3.2000 -2.4000
        vertex 6.4000 3.2000 -2.4000
    endloop
endfacet
facet normal 0.0000 114.0000 0.0000
    outer loop
        vertex 6.4000 3.2000 -2.4000
        vertex 7.6000 3.2000 -3.6000
        vertex -7.6000 3.2000 -3.6000
    endloop
endfacet
facet normal 0.0000 18.0000 0.0000
    outer loop
        vertex -8.0000 2.8000 4.0000
        vertex -7.6000 2.8000 3.6000
        vertex -7.6000 2.8000 -3.6000
    endloop
endfacet
facet normal 0.0000 20.0000 0.0000
    outer loop
        vertex -7.6000 2.8000 -3.6000
        vertex -8.0000 2.8000 -4.0000
        vertex -8.0000 2.8000 4.0000
    endloop
endfacet
facet normal 0.0000 18.0000 0.0000
    outer loop
        vertex 8.0000 2.8000 -4.0000
        vertex 7.6000 2.8000 -3.6000
        vertex 7.6000 2.8000 3.6000
    endloop
endfacet
facet normal 0.0000 20.0000 0.0000
    outer loop
        vertex 7.6000 2.8000 3.6000
        vertex 8.0000 2.8000 4.0000
        vertex 8.0000 2.8000 -4.0000
    endloop
endfacet
facet normal 0.0000 38.0000 0.0000
    outer loop
        vertex 8.0000 2.8000 4.0000
        vertex 7.6000 2.8000 3.6000
        vertex -7.6000 2.8000 3.6000
    endloop
endfacet
facet normal 0.0000 40.0000 0.0000
    outer loop
        vertex -7.6000 2.8000 3.6000
        vertex -8.0000 2.8000 4.0000
        vertex 8.0000 2.8000 4.0000
    endloop
endfacet
facet normal 0.0000 38.0000 0.0000
    outer loop
        vertex -8.0000 2.8000 -4.0000
        vertex -7.6000 2.8000 -3.6000
        vertex 7.6000 2.8000 -3.6000
    endloop
endfacet
facet normal 0.0000 40.0000 0.0000
    outer loop
        vertex 7.6000 2.8000 -3.6000
        vertex 8.0000 2.8000 -4.0000
        vertex -8.0000 2.8000 -4.0000
    endloop
endfacet
facet normal 0.0000 -0.5907 0.0000
    outer loop
        vertex -7.5600 0.0000 3.4760
        vertex -7.5880 0.0000 3.2640
        vertex -7.2040 0.0000 2.7960
    endloop
endfacet
facet normal 0.0000 -0.6065 0.0000
    outer loop
        vertex -7.2040 0.0000 2.7960
        vertex -7.3440 0.0000 3.3360
        vertex -7.5600 0.0000 3.4760
    endloop
endfacet
facet normal 0.0000 -1.5095 0.0000
    outer loop
        vertex -6.7360 0.0000 2.7160
        vertex -7.3440 0.0000 3.3360
        vertex -7.2040 0.0000 2.7960
    endloop
endfacet
facet normal 0.0000 -1.9218 0.0000
    outer loop
        vertex -7.2040 0.0000 2.7960
        vertex -6.5080 0.0000 2.0200
        vertex -6.7360 0.0000 2.7160
    endloop
endfacet
facet normal 0.0000 -1.5963 0.0000
    outer loop
        vertex -6.2000 0.0000 2.2000
        vertex -6.7360 0.0000 2.7160
        vertex -6.5080 0.0000 2.0200
    endloop
endfacet
facet normal 0.0000 -2.6436 0.0000
    outer loop
        vertex -6.5080 0.0000 2.0200
        vertex -5.6160 0.0000 1.1680
        vertex -6.2000 0.0000 2.2000
    endloop
endfacet
facet normal 0.0000 -3.2476 0.0000
    outer loop
        vertex -5.2800 0.0000 1.4640
        vertex -6.2000 0.0000 2.2000
        vertex -5.6160 0.0000 1.1680
    endloop
endfacet
facet normal 0.0000 -3.7654 0.0000
    outer loop
        vertex -5.6160 0.0000 1.1680
        vertex -4.5160 0.0000 0.3440
        vertex -5.2800 0.0000 1.4640
    endloop
endfacet
facet normal 0.0000 -3.5822 0.0000
    outer loop
        vertex -4.2280 0.0000 0.6720
        vertex -5.2800 0.0000 1.4640
        vertex -4.5160 0.0000 0.3440
    endloop
endfacet
facet normal 0.0000 -3.1166 0.0000
    outer loop
        vertex -4.5160 0.0000 0.3440
        vertex -3.5120 0.0000 -0.2440
        vertex -4.2280 0.0000 0.6720
    endloop
endfacet
facet normal 0.0000 -3.0208 0.0000
    outer loop
        vertex -4.2280 0.0000 0.6720
        vertex -3.5120 0.0000 -0.2440
        vertex -3.2720 0.0000 0.1240
    endloop
endfacet
facet normal 0.0000 -2.6392 0.0000
    outer loop
        vertex -2.3880 0.0000 -0.2800
        vertex -3.2720 0.0000 0.1240
        vertex -3.5120 0.0000 -0.2440
    endloop
endfacet
facet normal 0.0000 -2.1649 0.0000
    outer loop
        vertex -3.5120 0.0000 -0.2440
        vertex -2.7680 0.0000 -0.5760
        vertex -2.3880 0.0000 -0.2800
    endloop
endfacet
facet normal 0.0000 -2.0182 0.0000
    outer loop
        vertex -2.3880 0.0000 -0.2800
        vertex -2.7680 0.0000 -0.5760
        vertex -2.0160 0.0000 -0.8400
    endloop
endfacet
facet normal 0.0000 -1.8733 0.0000
    outer loop
        vertex -2.0160 0.0000 -0.8400
        vertex -1.6960 0.0000 -0.5160
        vertex -2.3880 0.0000 -0.2800
    endloop
endfacet
facet normal 0.0000 -1.8755 0.0000
    outer loop
        vertex -1.6960 0.0000 -0.5160
        vertex -2.0160 0.0000 -0.8400
        vertex -1.2360 0.0000 -0.9880
    endloop
endfacet
facet normal 0.0000 -1.7318 0.0000
    outer loop
        vertex -1.2360 0.0000 -0.9880
        vertex -0.9920 0.0000 -0.6360
        vertex -1.6960 0.0000 -0.5160
    endloop
endfacet
facet normal 0.0000 -1.8604 0.0000
    outer loop
        vertex -0.9920 0.0000 -0.6360
        vertex -1.2360 0.0000 -0.9880
        vertex -0.4680 0.0000 -1.1000
    endloop
endfacet
facet normal 0.0000 -1.8305 0.0000
    outer loop
        vertex -0.4680 0.0000 -1.1000
        vertex -0.2840 0.0000 -0.7040
        vertex -0.9920 0.0000 -0.6360
    endloop
endfacet
facet normal 0.0000 -1.7898 0.0000
    outer loop
        vertex -0.2840 0.0000 -0.7040
        vertex -0.4680 0.0000 -1.1000
        vertex 0.2440 0.0000 -1.1240
    endloop
endfacet
facet normal 0.0000 -1.9881 0.0000
    outer loop
        vertex 0.2440 0.0000 -1.1240
        vertex 0.4080 0.0000 -0.6520
        vertex -0.2840 0.0000 -0.7040
    endloop
endfacet
facet normal 0.0000 -2.2544 0.0000
    outer loop
        vertex 0.4080 0.0000 -0.6520
        vertex 0.2440 0.0000 -1.1240
        vertex 1.0360 0.0000 -1.0440
    endloop
endfacet
facet normal 0.0000 -2.5604 0.0000
    outer loop
        vertex 1.0360 0.0000 -1.0440
        vertex 1.2480 0.0000 -0.5240
        vertex 0.4080 0.0000 -0.6520
    endloop
endfacet
facet normal 0.0000 -2.8983 0.0000
    outer loop
        vertex 1.2480 0.0000 -0.5240
        vertex 1.0360 0.0000 -1.0440
        vertex 2.0240 0.0000 -0.8080
    endloop
endfacet
facet normal 0.0000 -2.5040 0.0000
    outer loop
        vertex 2.0240 0.0000 -0.8080
        vertex 1.9920 0.0000 -0.2800
        vertex 1.2480 0.0000 -0.5240
    endloop
endfacet
facet normal 0.0000 -2.8872 0.0000
    outer loop
        vertex 1.9920 0.0000 -0.2800
        vertex 2.0240 0.0000 -0.8080
        vertex 2.8800 0.0000 -0.4960
    endloop
endfacet
facet normal 0.0000 -3.4656 0.0000
    outer loop
        vertex 2.8800 0.0000 -0.4960
        vertex 2.9640 0.0000 0.1080
        vertex 1.9920 0.0000 -0.2800
    endloop
endfacet
facet normal 0.0000 -3.7725 0.0000
    outer loop
        vertex 2.9640 0.0000 0.1080
        vertex 2.8800 0.0000 -0.4960
        vertex 3.9600 0.0000 0.0840
    endloop
endfacet
facet normal 0.0000 -3.0216 0.0000
    outer loop
        vertex 3.9600 0.0000 0.0840
        vertex 3.8520 0.0000 0.5720
        vertex 2.9640 0.0000 0.1080
    endloop
endfacet
facet normal 0.0000 -3.2557 0.0000
    outer loop
        vertex 3.8520 0.0000 0.5720
        vertex 3.9600 0.0000 0.0840
        vertex 4.8920 0.0000 0.6960
    endloop
endfacet
facet normal 0.0000 -2.9029 0.0000
    outer loop
        vertex 4.8920 0.0000 0.6960
        vertex 4.7360 0.0000 1.1240
        vertex 3.8520 0.0000 0.5720
    endloop
endfacet
facet normal 0.0000 -2.1702 0.0000
    outer loop
        vertex 4.7360 0.0000 1.1240
        vertex 4.8920 0.0000 0.6960
        vertex 5.5400 0.0000 1.1440
    endloop
endfacet
facet normal 0.0000 -2.6607 0.0000
    outer loop
        vertex 5.5400 0.0000 1.1440
        vertex 5.4800 0.0000 1.6720
        vertex 4.7360 0.0000 1.1240
    endloop
endfacet
facet normal 0.0000 -2.5560 0.0000
    outer loop
        vertex 5.4800 0.0000 1.6720
        vertex 5.5400 0.0000 1.1440
        vertex 6.2400 0.0000 1.8000
    endloop
endfacet
facet normal 0.0000 -1.9108 0.0000
    outer loop
        vertex 6.2400 0.0000 1.8000
        vertex 6.0840 0.0000 2.1760
        vertex 5.4800 0.0000 1.6720
    endloop
endfacet
facet normal 0.0000 -1.7157 0.0000
    outer loop
        vertex 6.0840 0.0000 2.1760
        vertex 6.2400 0.0000 1.8000
        vertex 6.7560 0.0000 2.3160
    endloop
endfacet
facet normal 0.0000 -1.6212 0.0000
    outer loop
        vertex 6.7560 0.0000 2.3160
        vertex 6.6120 0.0000 2.6720
        vertex 6.0840 0.0000 2.1760
    endloop
endfacet
facet normal 0.0000 -1.6254 0.0000
    outer loop
        vertex 6.6120 0.0000 2.6720
        vertex 6.7560 0.0000 2.3160
        vertex 7.2600 0.0000 2.8760
    endloop
endfacet
facet normal 0.0000 -1.6053 0.0000
    outer loop
        vertex 7.2600 0.0000 2.8760
        vertex 7.2080 0.0000 3.2560
        vertex 6.6120 0.0000 2.6720
    endloop
endfacet
facet normal 0.0000 -0.5116 0.0000
    outer loop
        vertex 7.2080 0.0000 3.2560
        vertex 7.2600 0.0000 2.8760
        vertex 7.4360 0.0000 3.1640
    endloop
endfacet
facet normal 0.0000 -0.2617 0.0000
    outer loop
        vertex 7.4360 0.0000 3.1640
        vertex 7.3360 0.0000 3.3880
        vertex 7.2080 0.0000 3.2560
    endloop
endfacet
facet normal 0.0000 -0.1323 0.0000
    outer loop
        vertex 7.3360 0.0000 3.3880
        vertex 7.4360 0.0000 3.1640
        vertex 7.4680 0.0000 3.3040
    endloop
endfacet
facet normal 0.0000 -0.0684 0.0000
    outer loop
        vertex 7.4680 0.0000 3.3040
        vertex 7.4600 0.0000 3.3920
        vertex 7.3360 0.0000 3.3880
    endloop
endfacet
facet normal 0.0000 -0.0292 0.0000
    outer loop
        vertex 7.4080 0.0000 3.4280
        vertex 7.3360 0.0000 3.3880
        vertex 7.4600 0.0000 3.3920
    endloop
endfacet
facet normal 0.0000 -0.0564 0.0000
    outer loop
        vertex -7.5600 0.0000 3.4760
        vertex -7.3440 0.0000 3.3360
        vertex -7.4400 0.0000 3.4400
    endloop
endfacet
facet normal 0.0000 -0.0602 0.0000
    outer loop
        vertex -7.5600 0.0000 3.4760
        vertex -7.6160 0.0000 3.3960
        vertex -7.5880 0.0000 3.2640
    endloop
endfacet
facet normal 0.0000 -0.8961 0.0000
    outer loop
        vertex -0.0480 0.0000 0.5160
        vertex -1.2400 0.0000 0.6320
        vertex -1.2840 0.0000 0.5160
    endloop
endfacet
facet normal 0.0000 -0.8961 0.0000
    outer loop
        vertex -1.2840 0.0000 0.5160
        vertex -1.2400 0.0000 0.4000
        vertex -0.0480 0.0000 0.5160
    endloop
endfacet
facet normal 0.0000 -0.9214 0.0000
    outer loop
        vertex -0.0480 0.0000 0.5160
        vertex -1.2400 0.0000 0.4000
        vertex -1.1200 0.0000 0.2880
    endloop
endfacet
facet normal 0.0000 -1.7486 0.0000
    outer loop
        vertex -1.1200 0.0000 0.2880
        vertex -0.6640 0.0000 0.1240
        vertex -0.0480 0.0000 0.5160
    endloop
endfacet
facet normal 0.0000 -0.9100 0.0000
    outer loop
        vertex -0.0480 0.0000 0.5160
        vertex -0.6640 0.0000 0.1240
        vertex -0.3680 0.0000 0.0760
    endloop
endfacet
facet normal 0.0000 -0.9120 0.0000
    outer loop
        vertex -0.3680 0.0000 0.0760
        vertex -0.0480 0.0000 0.0600
        vertex -0.0480 0.0000 0.5160
    endloop
endfacet
facet normal 0.0000 -0.9120 0.0000
    outer loop
        vertex -0.0480 0.0000 0.5160
        vertex -0.0480 0.0000 0.0600
        vertex 0.2720 0.0000 0.0760
    endloop
endfacet
facet normal 0.0000 -0.9100 0.0000
    outer loop
        vertex 0.2720 0.0000 0.0760
        vertex 0.5680 0.0000 0.1240
        vertex -0.0480 0.0000 0.5160
    endloop
endfacet
facet normal 0.0000 -1.3188 0.0000
    outer loop
        vertex -0.0480 0.0000 0.5160
        vertex 0.5680 0.0000 0.1240
        vertex 0.9240 0.0000 0.2400
    endloop
endfacet
facet normal 0.0000 -1.3515 0.0000
    outer loop
        vertex 0.9240 0.0000 0.2400
        vertex 1.1440 0.0000 0.4000
        vertex -0.0480 0.0000 0.5160
    endloop
endfacet
facet normal 0.0000 -0.8961 0.0000
    outer loop
        vertex -0.0480 0.0000 0.5160
        vertex 1.1440 0.0000 0.4000
        vertex 1.1880 0.0000 0.5160
    endloop
endfacet
facet normal 0.0000 -0.8961 0.0000
    outer loop
        vertex 1.1880 0.0000 0.5160
        vertex 1.1440 0.0000 0.6320
        vertex -0.0480 0.0000 0.5160
    endloop
endfacet
facet normal 0.0000 -0.9214 0.0000
    outer loop
        vertex -0.0480 0.0000 0.5160
        vertex 1.1440 0.0000 0.6320
        vertex 1.0240 0.0000 0.7440
    endloop
endfacet
facet normal 0.0000 -1.3250 0.0000
    outer loop
        vertex 1.0240 0.0000 0.7440
        vertex 0.6960 0.0000 0.8720
        vertex -0.0480 0.0000 0.5160
    endloop
endfacet
facet normal 0.0000 -1.3340 0.0000
    outer loop
        vertex -0.0480 0.0000 0.5160
        vertex 0.6960 0.0000 0.8720
        vertex 0.2720 0.0000 0.9560
    endloop
endfacet
facet normal 0.0000 -0.9120 0.0000
    outer loop
        vertex 0.2720 0.0000 0.9560
        vertex -0.0480 0.0000 0.9720
        vertex -0.0480 0.0000 0.5160
    endloop
endfacet
facet normal 0.0000 -0.9120 0.0000
    outer loop
        vertex -0.0480 0.0000 0.5160
        vertex -0.0480 0.0000 0.9720
        vertex -0.3680 0.0000 0.9560
    endloop
endfacet
facet normal 0.0000 -1.3340 0.0000
    outer loop
        vertex -0.3680 0.0000 0.9560
        vertex -0.7920 0.0000 0.8720
        vertex -0.0480 0.0000 0.5160
    endloop
endfacet
facet normal 0.0000 -1.3250 0.0000
    outer loop
        vertex -0.0480 0.0000 0.5160
        vertex -0.7920 0.0000 0.8720
        vertex -1.1200 0.0000 0.7440
    endloop
endfacet
facet normal 0.0000 -0.9214 0.0000
    outer loop
        vertex -1.1200 0.0000 0.7440
        vertex -1.2400 0.0000 0.6320
        vertex -0.0480 0.0000 0.5160
    endloop
endfacet
facet normal 0.0000 -0.5032 0.0000
    outer loop
        vertex -0.4400 0.0000 1.2040
        vertex -0.3680 0.0000 0.9560
        vertex -0.0480 0.0000 0.9720
    endloop
endfacet
facet normal 0.0000 -0.6272 0.0000
    outer loop
        vertex -0.0480 0.0000 0.9720
        vertex -0.0480 0.0000 1.2280
        vertex -0.4400 0.0000 1.2040
    endloop
endfacet
facet normal 0.0000 -0.5120 0.0000
    outer loop
        vertex -0.0480 0.0000 1.2280
        vertex -0.0480 0.0000 0.9720
        vertex 0.2720 0.0000 0.9560
    endloop
endfacet
facet normal 0.0000 -0.6184 0.0000
    outer loop
        vertex 0.2720 0.0000 0.9560
        vertex 0.3440 0.0000 1.2040
        vertex -0.0480 0.0000 1.2280
    endloop
endfacet
facet normal 0.0000 -0.6950 0.0000
    outer loop
        vertex 0.3440 0.0000 1.2040
        vertex 0.2720 0.0000 0.9560
        vertex 0.6960 0.0000 0.8720
    endloop
endfacet
facet normal 0.0000 -0.7881 0.0000
    outer loop
        vertex 0.6960 0.0000 0.8720
        vertex 0.8680 0.0000 1.0680
        vertex 0.3440 0.0000 1.2040
    endloop
endfacet
facet normal 0.0000 -0.5394 0.0000
    outer loop
        vertex 0.8680 0.0000 1.0680
        vertex 0.6960 0.0000 0.8720
        vertex 1.0240 0.0000 0.7440
    endloop
endfacet
facet normal 0.0000 -0.5952 0.0000
    outer loop
        vertex 1.0240 0.0000 0.7440
        vertex 1.2640 0.0000 0.8560
        vertex 0.8680 0.0000 1.0680
    endloop
endfacet
facet normal 0.0000 -0.2520 0.0000
    outer loop
        vertex 1.2640 0.0000 0.8560
        vertex 1.0240 0.0000 0.7440
        vertex 1.1440 0.0000 0.6320
    endloop
endfacet
facet normal 0.0000 -0.3448 0.0000
    outer loop
        vertex 1.1440 0.0000 0.6320
        vertex 1.4160 0.0000 0.6800
        vertex 1.2640 0.0000 0.8560
    endloop
endfacet
facet normal 0.0000 -0.2104 0.0000
    outer loop
        vertex 1.4160 0.0000 0.6800
        vertex 1.1440 0.0000 0.6320
        vertex 1.1880 0.0000 0.5160
    endloop
endfacet
facet normal 0.0000 -0.3269 0.0000
    outer loop
        vertex 1.1880 0.0000 0.5160
        vertex 1.4680 0.0000 0.4880
        vertex 1.4160 0.0000 0.6800
    endloop
endfacet
facet normal 0.0000 -0.2258 0.0000
    outer loop
        vertex 1.1880 0.0000 0.5160
        vertex 1.1440 0.0000 0.4000
        vertex 1.4160 0.0000 0.2960
    endloop
endfacet
facet normal 0.0000 -0.3451 0.0000
    outer loop
        vertex 1.4160 0.0000 0.2960
        vertex 1.4680 0.0000 0.4880
        vertex 1.1880 0.0000 0.5160
    endloop
endfacet
facet normal 0.0000 -0.7881 0.0000
    outer loop
        vertex -0.4400 0.0000 1.2040
        vertex -0.9640 0.0000 1.0680
        vertex -0.7920 0.0000 0.8720
    endloop
endfacet
facet normal 0.0000 -0.6950 0.0000
    outer loop
        vertex -0.7920 0.0000 0.8720
        vertex -0.3680 0.0000 0.9560
        vertex -0.4400 0.0000 1.2040
    endloop
endfacet
facet normal 0.0000 -0.4950 0.0000
    outer loop
        vertex 1.1440 0.0000 0.4000
        vertex 0.9240 0.0000 0.2400
        vertex 1.1440 0.0000 0.0400
    endloop
endfacet
facet normal 0.0000 -0.6120 0.0000
    outer loop
        vertex 1.1440 0.0000 0.0400
        vertex 1.4160 0.0000 0.2960
        vertex 1.1440 0.0000 0.4000
    endloop
endfacet
facet normal 0.0000 -0.7156 0.0000
    outer loop
        vertex 0.9240 0.0000 0.2400
        vertex 0.5680 0.0000 0.1240
        vertex 0.7080 0.0000 -0.1520
    endloop
endfacet
facet normal 0.0000 -0.8090 0.0000
    outer loop
        vertex 0.7080 0.0000 -0.1520
        vertex 1.1440 0.0000 0.0400
        vertex 0.9240 0.0000 0.2400
    endloop
endfacet
facet normal 0.0000 -0.5840 0.0000
    outer loop
        vertex 0.5680 0.0000 0.1240
        vertex 0.2720 0.0000 0.0760
        vertex 0.3440 0.0000 -0.2280
    endloop
endfacet
facet normal 0.0000 -0.6944 0.0000
    outer loop
        vertex 0.3440 0.0000 -0.2280
        vertex 0.7080 0.0000 -0.1520
        vertex 0.5680 0.0000 0.1240
    endloop
endfacet
facet normal 0.0000 -0.7644 0.0000
    outer loop
        vertex -0.0480 0.0000 0.0600
        vertex -0.0480 0.0000 -0.2520
        vertex 0.3440 0.0000 -0.2280
    endloop
endfacet
facet normal 0.0000 -0.6152 0.0000
    outer loop
        vertex 0.3440 0.0000 -0.2280
        vertex 0.2720 0.0000 0.0760
        vertex -0.0480 0.0000 0.0600
    endloop
endfacet
facet normal 0.0000 -0.7556 0.0000
    outer loop
        vertex -0.3680 0.0000 0.0760
        vertex -0.4400 0.0000 -0.2280
        vertex -0.0480 0.0000 -0.2520
    endloop
endfacet
facet normal 0.0000 -0.6240 0.0000
    outer loop
        vertex -0.0480 0.0000 -0.2520
        vertex -0.0480 0.0000 0.0600
        vertex -0.3680 0.0000 0.0760
    endloop
endfacet
facet normal 0.0000 -0.9624 0.0000
    outer loop
        vertex -0.6640 0.0000 0.1240
        vertex -0.9640 0.0000 -0.0920
        vertex -0.4400 0.0000 -0.2280
    endloop
endfacet
facet normal 0.0000 -0.5840 0.0000
    outer loop
        vertex -0.4400 0.0000 -0.2280
        vertex -0.3680 0.0000 0.0760
        vertex -0.6640 0.0000 0.1240
    endloop
endfacet
facet normal 0.0000 -0.7338 0.0000
    outer loop
        vertex -1.1200 0.0000 0.2880
        vertex -1.3600 0.0000 0.1200
        vertex -0.9640 0.0000 -0.0920
    endloop
endfacet
facet normal 0.0000 -0.9231 0.0000
    outer loop
        vertex -0.9640 0.0000 -0.0920
        vertex -0.6640 0.0000 0.1240
        vertex -1.1200 0.0000 0.2880
    endloop
endfacet
facet normal 0.0000 -0.3980 0.0000
    outer loop
        vertex -1.2400 0.0000 0.4000
        vertex -1.5120 0.0000 0.2960
        vertex -1.3600 0.0000 0.1200
    endloop
endfacet
facet normal 0.0000 -0.2940 0.0000
    outer loop
        vertex -1.3600 0.0000 0.1200
        vertex -1.1200 0.0000 0.2880
        vertex -1.2400 0.0000 0.4000
    endloop
endfacet
facet normal 0.0000 -0.3602 0.0000
    outer loop
        vertex -1.5640 0.0000 0.4880
        vertex -1.5120 0.0000 0.2960
        vertex -1.2400 0.0000 0.4000
    endloop
endfacet
facet normal 0.0000 -0.2107 0.0000
    outer loop
        vertex -1.2400 0.0000 0.4000
        vertex -1.2840 0.0000 0.5160
        vertex -1.5640 0.0000 0.4880
    endloop
endfacet
facet normal 0.0000 -0.3269 0.0000
    outer loop
        vertex -1.5120 0.0000 0.6800
        vertex -1.5640 0.0000 0.4880
        vertex -1.2840 0.0000 0.5160
    endloop
endfacet
facet normal 0.0000 -0.2104 0.0000
    outer loop
        vertex -1.2840 0.0000 0.5160
        vertex -1.2400 0.0000 0.6320
        vertex -1.5120 0.0000 0.6800
    endloop
endfacet
facet normal 0.0000 -0.3448 0.0000
    outer loop
        vertex -1.3600 0.0000 0.8560
        vertex -1.5120 0.0000 0.6800
        vertex -1.2400 0.0000 0.6320
    endloop
endfacet
facet normal 0.0000 -0.2520 0.0000
    outer loop
        vertex -1.2400 0.0000 0.6320
        vertex -1.1200 0.0000 0.7440
        vertex -1.3600 0.0000 0.8560
    endloop
endfacet
facet normal 0.0000 -0.5952 0.0000
    outer loop
        vertex -0.9640 0.0000 1.0680
        vertex -1.3600 0.0000 0.8560
        vertex -1.1200 0.0000 0.7440
    endloop
endfacet
facet normal 0.0000 -0.5394 0.0000
    outer loop
        vertex -1.1200 0.0000 0.7440
        vertex -0.7920 0.0000 0.8720
        vertex -0.9640 0.0000 1.0680
    endloop
endfacet
facet normal 0.0000 -1.1428 0.0000
    outer loop
        vertex -0.0480 0.0000 -0.2520
        vertex -0.4400 0.0000 -0.2280
        vertex -0.2840 0.0000 -0.7040
    endloop
endfacet
facet normal 0.0000 -1.8782 0.0000
    outer loop
        vertex -0.2840 0.0000 -0.7040
        vertex 0.4080 0.0000 -0.6520
        vertex -0.0480 0.0000 -0.2520
    endloop
endfacet
facet normal 0.0000 -1.0484 0.0000
    outer loop
        vertex 0.3440 0.0000 -0.2280
        vertex -0.0480 0.0000 -0.2520
        vertex 0.4080 0.0000 -0.6520
    endloop
endfacet
facet normal 0.0000 -0.9950 0.0000
    outer loop
        vertex 0.7080 0.0000 -0.1520
        vertex 0.3440 0.0000 -0.2280
        vertex 0.4080 0.0000 -0.6520
    endloop
endfacet
facet normal 0.0000 -2.3850 0.0000
    outer loop
        vertex 0.4080 0.0000 -0.6520
        vertex 1.2480 0.0000 -0.5240
        vertex 0.7080 0.0000 -0.1520
    endloop
endfacet
facet normal 0.0000 -1.6617 0.0000
    outer loop
        vertex 1.1440 0.0000 0.0400
        vertex 0.7080 0.0000 -0.1520
        vertex 1.2480 0.0000 -0.5240
    endloop
endfacet
facet normal 0.0000 -2.7812 0.0000
    outer loop
        vertex 1.2480 0.0000 -0.5240
        vertex 1.9920 0.0000 -0.2800
        vertex 1.1440 0.0000 0.0400
    endloop
endfacet
facet normal 0.0000 -1.9008 0.0000
    outer loop
        vertex 1.4160 0.0000 0.2960
        vertex 1.1440 0.0000 0.0400
        vertex 1.9920 0.0000 -0.2800
    endloop
endfacet
facet normal 0.0000 -4.8960 0.0000
    outer loop
        vertex 1.9920 0.0000 -0.2800
        vertex 2.9640 0.0000 0.1080
        vertex 1.4160 0.0000 0.2960
    endloop
endfacet
facet normal 0.0000 -1.9187 0.0000
    outer loop
        vertex 1.4680 0.0000 0.4880
        vertex 1.4160 0.0000 0.2960
        vertex 2.9640 0.0000 0.1080
    endloop
endfacet
facet normal 0.0000 -6.4474 0.0000
    outer loop
        vertex 2.9640 0.0000 0.1080
        vertex 3.8520 0.0000 0.5720
        vertex 1.4680 0.0000 0.4880
    endloop
endfacet
facet normal 0.0000 -2.8881 0.0000
    outer loop
        vertex 1.4160 0.0000 0.6800
        vertex 1.4680 0.0000 0.4880
        vertex 3.8520 0.0000 0.5720
    endloop
endfacet
facet normal 0.0000 -2.5770 0.0000
    outer loop
        vertex 1.2640 0.0000 0.8560
        vertex 1.4160 0.0000 0.6800
        vertex 3.8520 0.0000 0.5720
    endloop
endfacet
facet normal 0.0000 -10.4977 0.0000
    outer loop
        vertex 3.8520 0.0000 0.5720
        vertex 4.7360 0.0000 1.1240
        vertex 1.2640 0.0000 0.8560
    endloop
endfacet
facet normal 0.0000 -5.2637 0.0000
    outer loop
        vertex 0.8680 0.0000 1.0680
        vertex 1.2640 0.0000 0.8560
        vertex 4.7360 0.0000 1.1240
    endloop
endfacet
facet normal 0.0000 -12.9875 0.0000
    outer loop
        vertex 4.7360 0.0000 1.1240
        vertex 5.4800 0.0000 1.6720
        vertex 0.8680 0.0000 1.0680
    endloop
endfacet
facet normal 0.0000 -12.2477 0.0000
    outer loop
        vertex 0.8680 0.0000 1.0680
        vertex 5.4800 0.0000 1.6720
        vertex 6.0840 0.0000 2.1760
    endloop
endfacet
facet normal 0.0000 -12.5132 0.0000
    outer loop
        vertex 6.0840 0.0000 2.1760
        vertex 6.6120 0.0000 2.6720
        vertex 0.8680 0.0000 1.0680
    endloop
endfacet
facet normal 0.0000 -14.9907 0.0000
    outer loop
        vertex 0.8680 0.0000 1.0680
        vertex 6.6120 0.0000 2.6720
        vertex 7.2080 0.0000 3.2560
    endloop
endfacet
facet normal 0.0000 -12.5547 0.0000
    outer loop
        vertex 7.2080 0.0000 3.2560
        vertex 0.3440 0.0000 1.2040
        vertex 0.8680 0.0000 1.0680
    endloop
endfacet
facet normal 0.0000 -6.0570 0.0000
    outer loop
        vertex -0.0480 0.0000 1.2280
        vertex 0.3440 0.0000 1.2040
        vertex 7.2080 0.0000 3.2560
    endloop
endfacet
facet normal 0.0000 -188.0746 0.0000
    outer loop
        vertex 7.2080 0.0000 3.2560
        vertex -7.3440 0.0000 3.3360
        vertex -0.0480 0.0000 1.2280
    endloop
endfacet
facet normal 0.0000 -20.2616 0.0000
    outer loop
        vertex -0.0480 0.0000 1.2280
        vertex -7.3440 0.0000 3.3360
        vertex -6.7360 0.0000 2.7160
    endloop
endfacet
facet normal 0.0000 -4.6488 0.0000
    outer loop
        vertex -6.7360 0.0000 2.7160
        vertex -0.4400 0.0000 1.2040
        vertex -0.0480 0.0000 1.2280
    endloop
endfacet
facet normal 0.0000 -10.3034 0.0000
    outer loop
        vertex -6.7360 0.0000 2.7160
        vertex -0.9640 0.0000 1.0680
        vertex -0.4400 0.0000 1.2040
    endloop
endfacet
facet normal 0.0000 -11.7267 0.0000
    outer loop
        vertex -1.3600 0.0000 0.8560
        vertex -0.9640 0.0000 1.0680
        vertex -6.7360 0.0000 2.7160
    endloop
endfacet
facet normal 0.0000 -11.1066 0.0000
    outer loop
        vertex -6.7360 0.0000 2.7160
        vertex -6.2000 0.0000 2.2000
        vertex -1.3600 0.0000 0.8560
    endloop
endfacet
facet normal 0.0000 -14.5360 0.0000
    outer loop
        vertex -1.3600 0.0000 0.8560
        vertex -6.2000 0.0000 2.2000
        vertex -5.2800 0.0000 1.4640
    endloop
endfacet
facet normal 0.0000 -15.4064 0.0000
    outer loop
        vertex -5.2800 0.0000 1.4640
        vertex -4.2280 0.0000 0.6720
        vertex -1.3600 0.0000 0.8560
    endloop
endfacet
facet normal 0.0000 -2.9800 0.0000
    outer loop
        vertex -1.3600 0.0000 0.8560
        vertex -4.2280 0.0000 0.6720
        vertex -1.5120 0.0000 0.6800
    endloop
endfacet
facet normal 0.0000 -3.2566 0.0000
    outer loop
        vertex -1.5120 0.0000 0.6800
        vertex -4.2280 0.0000 0.6720
        vertex -1.5640 0.0000 0.4880
    endloop
endfacet
facet normal 0.0000 -3.1370 0.0000
    outer loop
        vertex -1.5120 0.0000 0.2960
        vertex -1.5640 0.0000 0.4880
        vertex -4.2280 0.0000 0.6720
    endloop
endfacet
facet normal 0.0000 -7.0557 0.0000
    outer loop
        vertex -4.2280 0.0000 0.6720
        vertex -3.2720 0.0000 0.1240
        vertex -1.5120 0.0000 0.2960
    endloop
endfacet
facet normal 0.0000 -2.0994 0.0000
    outer loop
        vertex -1.3600 0.0000 0.1200
        vertex -1.5120 0.0000 0.2960
        vertex -3.2720 0.0000 0.1240
    endloop
endfacet
facet normal 0.0000 -4.8057 0.0000
    outer loop
        vertex -3.2720 0.0000 0.1240
        vertex -2.3880 0.0000 -0.2800
        vertex -1.3600 0.0000 0.1200
    endloop
endfacet
facet normal 0.0000 -3.2463 0.0000
    outer loop
        vertex -1.3600 0.0000 0.1200
        vertex -2.3880 0.0000 -0.2800
        vertex -1.6960 0.0000 -0.5160
    endloop
endfacet
facet normal 0.0000 -2.0193 0.0000
    outer loop
        vertex -1.6960 0.0000 -0.5160
        vertex -0.9640 0.0000 -0.0920
        vertex -1.3600 0.0000 0.1200
    endloop
endfacet
facet normal 0.0000 -2.4146 0.0000
    outer loop
        vertex -0.9640 0.0000 -0.0920
        vertex -1.6960 0.0000 -0.5160
        vertex -0.9920 0.0000 -0.6360
    endloop
endfacet
facet normal 0.0000 -1.8054 0.0000
    outer loop
        vertex -0.9920 0.0000 -0.6360
        vertex -0.4400 0.0000 -0.2280
        vertex -0.9640 0.0000 -0.0920
    endloop
endfacet
facet normal 0.0000 -2.0400 0.0000
    outer loop
        vertex -0.4400 0.0000 -0.2280
        vertex -0.9920 0.0000 -0.6360
        vertex -0.2840 0.0000 -0.7040
    endloop
endfacet
facet normal 0.0000 -0.4034 0.0000
    outer loop
        vertex -8.0000 0.0000 4.0000
        vertex -7.6160 0.0000 3.3960
        vertex -7.5600 0.0000 3.4760
    endloop
endfacet
facet normal 0.0000 -0.2940 0.0000
    outer loop
        vertex -8.0000 0.0000 4.0000
        vertex -7.5600 0.0000 3.4760
        vertex -7.4400 0.0000 3.4400
    endloop
endfacet
facet normal 0.0000 -51.5340 0.0000
    outer loop
        vertex -7.4400 0.0000 3.4400
        vertex 7.3360 0.0000 3.3880
        vertex -8.0000 0.0000 4.0000
    endloop
endfacet
facet normal 0.0000 -0.3191 0.0000
    outer loop
        vertex 8.0000 0.0000 4.0000
        vertex 7.4080 0.0000 3.4280
        vertex 7.4600 0.0000 3.3920
    endloop
endfacet
facet normal 0.0000 -0.3274 0.0000
    outer loop
        vertex 8.0000 0.0000 4.0000
        vertex 7.4600 0.0000 3.3920
        vertex 7.4680 0.0000 3.3040
    endloop
endfacet
facet normal 0.0000 -0.3263 0.0000
    outer loop
        vertex 8.0000 0.0000 4.0000
        vertex 7.4680 0.0000 3.3040
        vertex 7.4360 0.0000 3.1640
    endloop
endfacet
facet normal 0.0000 -28.2000 0.0000
    outer loop
        vertex 7.4360 0.0000 3.1640
        vertex 8.0000 0.0000 -4.0000
        vertex 8.0000 0.0000 4.0000
    endloop
endfacet
facet normal 0.0000 -8.8956 0.0000
    outer loop
        vertex 7.4360 0.0000 3.1640
        vertex 7.2600 0.0000 2.8760
        vertex 8.0000 0.0000 -4.0000
    endloop
endfacet
facet normal 0.0000 -24.2494 0.0000
    outer loop
        vertex 7.2600 0.0000 2.8760
        vertex 6.7560 0.0000 2.3160
        vertex 8.0000 0.0000 -4.0000
    endloop
endfacet
facet normal 0.0000 -24.3810 0.0000
    outer loop
        vertex 6.7560 0.0000 2.3160
        vertex 6.2400 0.0000 1.8000
        vertex 8.0000 0.0000 -4.0000
    endloop
endfacet
facet normal 0.0000 -32.5910 0.0000
    outer loop
        vertex 6.2400 0.0000 1.8000
        vertex 5.5400 0.0000 1.1440
        vertex 8.0000 0.0000 -4.0000
    endloop
endfacet
facet normal 0.0000 -27.7212 0.0000
    outer loop
        vertex 5.5400 0.0000 1.1440
        vertex 4.8920 0.0000 0.6960
        vertex 8.0000 0.0000 -4.0000
    endloop
endfacet
facet normal 0.0000 -39.2423 0.0000
    outer loop
        vertex 4.8920 0.0000 0.6960
        vertex 3.9600 0.0000 0.0840
        vertex 8.0000 0.0000 -4.0000
    endloop
endfacet
facet normal 0.0000 -42.2120 0.0000
    outer loop
        vertex 3.9600 0.0000 0.0840
        vertex 2.8800 0.0000 -0.4960
        vertex 8.0000 0.0000 -4.0000
    endloop
endfacet
facet normal 0.0000 -28.7304 0.0000
    outer loop
        vertex 2.8800 0.0000 -0.4960
        vertex 2.0240 0.0000 -0.8080
        vertex 8.0000 0.0000 -4.0000
    endloop
endfacet
facet normal 0.0000 -28.5252 0.0000
    outer loop
        vertex 2.0240 0.0000 -0.8080
        vertex 1.0360 0.0000 -1.0440
        vertex 8.0000 0.0000 -4.0000
    endloop
endfacet
facet normal 0.0000 -18.1142 0.0000
    outer loop
        vertex 8.0000 0.0000 -4.0000
        vertex 1.0360 0.0000 -1.0440
        vertex 0.2440 0.0000 -1.1240
    endloop
endfacet
facet normal 0.0000 -287.6000 0.0000
    outer loop
        vertex 0.2440 0.0000 -1.1240
        vertex -8.0000 0.0000 -4.0000
        vertex 8.0000 0.0000 -4.0000
    endloop
endfacet
facet normal 0.0000 -14.0348 0.0000
    outer loop
        vertex -0.4680 0.0000 -1.1000
        vertex -8.0000 0.0000 -4.0000
        vertex 0.2440 0.0000 -1.1240
    endloop
endfacet
facet normal 0.0000 -19.1924 0.0000
    outer loop
        vertex -1.2360 0.0000 -0.9880
        vertex -8.0000 0.0000 -4.0000
        vertex -0.4680 0.0000 -1.1000
    endloop
endfacet
facet normal 0.0000 -20.9402 0.0000
    outer loop
        vertex -2.0160 0.0000 -0.8400
        vertex -8.0000 0.0000 -4.0000
        vertex -1.2360 0.0000 -0.9880
    endloop
endfacet
facet normal 0.0000 -24.7256 0.0000
    outer loop
        vertex -2.7680 0.0000 -0.5760
        vertex -8.0000 0.0000 -4.0000
        vertex -2.0160 0.0000 -0.8400
    endloop
endfacet
facet normal 0.0000 -26.7780 0.0000
    outer loop
        vertex -3.5120 0.0000 -0.2440
        vertex -8.0000 0.0000 -4.0000
        vertex -2.7680 0.0000 -0.5760
    endloop
endfacet
facet normal 0.0000 -40.0623 0.0000
    outer loop
        vertex -4.5160 0.0000 0.3440
        vertex -8.0000 0.0000 -4.0000
        vertex -3.5120 0.0000 -0.2440
    endloop
endfacet
facet normal 0.0000 -47.8076 0.0000
    outer loop
        vertex -5.6160 0.0000 1.1680
        vertex -8.0000 0.0000 -4.0000
        vertex -4.5160 0.0000 0.3440
    endloop
endfacet
facet normal 0.0000 -41.5064 0.0000
    outer loop
        vertex -6.5080 0.0000 2.0200
        vertex -8.0000 0.0000 -4.0000
        vertex -5.6160 0.0000 1.1680
    endloop
endfacet
facet normal 0.0000 -33.4232 0.0000
    outer loop
        vertex -7.2040 0.0000 2.7960
        vertex -8.0000 0.0000 -4.0000
        vertex -6.5080 0.0000 2.0200
    endloop
endfacet
facet normal 0.0000 -18.6387 0.0000
    outer loop
        vertex -7.5880 0.0000 3.2640
        vertex -8.0000 0.0000 -4.0000
        vertex -7.2040 0.0000 2.7960
    endloop
endfacet
facet normal 0.0000 -1.6111 0.0000
    outer loop
        vertex -8.0000 0.0000 -4.0000
        vertex -7.5880 0.0000 3.2640
        vertex -7.6160 0.0000 3.3960
    endloop
endfacet
facet normal 0.0000 -19.2000 0.0000
    outer loop
        vertex -7.6160 0.0000 3.3960
        vertex -8.0000 0.0000 4.0000
        vertex -8.0000 0.0000 -4.0000
    endloop
endfacet
facet normal 0.0000 -0.1094 0.0000
    outer loop
        vertex 7.3360 0.0000 3.3880
        vertex 7.4080 0.0000 3.4280
        vertex 8.0000 0.0000 4.0000
    endloop
endfacet
facet normal 0.0000 -61.2000 0.0000
    outer loop
        vertex 8.0000 0.0000 4.0000
        vertex -8.0000 0.0000 4.0000
        vertex 7.3360 0.0000 3.3880
    endloop
endfacet
facet normal 0.0000 -9.4108 0.0000
    outer loop
        vertex -7.4400 0.0000 3.4400
        vertex -7.3440 0.0000 3.3360
        vertex 7.2080 0.0000 3.2560
    endloop
endfacet
facet normal 0.0000 -12.2318 0.0000
    outer loop
        vertex 7.2080 0.0000 3.2560
        vertex 7.3360 0.0000 3.3880
        vertex -7.4400 0.0000 3.4400
    endloop
endfacet
endsolid GiantLegoRocks
