solid GiantLegoRocks
facet normal 0.0000 0.0000 20.0000
    outer loop
        vertex -8.0000 2.8000 4.0000
        vertex -8.0000 0.0000 4.0000
        vertex 8.0000 0.0000 4.0000
    endloop
endfacet
facet normal 0.0000 0.0000 20.0000
    outer loop
        vertex 8.0000 0.0000 4.0000
        vertex 8.0000 2.8000 4.0000
        vertex -8.0000 2.8000 4.0000
    endloop
endfacet
facet normal -40.0000 0.0000 0.0000
    outer loop
        vertex -8.0000 2.8000 -4.0000
        vertex -8.0000 0.0000 -4.0000
        vertex -8.0000 0.0000 4.0000
    endloop
endfacet
facet normal -40.0000 0.0000 0.0000
    outer loop
        vertex -8.0000 0.0000 4.0000
        vertex -8.0000 2.8000 4.0000
        vertex -8.0000 2.8000 -4.0000
    endloop
endfacet
facet normal 0.0000 0.0000 -20.0000
    outer loop
        vertex 8.0000 2.8000 -4.0000
        vertex 8.0000 0.0000 -4.0000
        vertex -8.0000 0.0000 -4.0000
    endloop
endfacet
facet normal 0.0000 0.0000 -20.0000
    outer loop
        vertex -8.0000 0.0000 -4.0000
        vertex -8.0000 2.8000 -4.0000
        vertex 8.0000 2.8000 -4.0000
    endloop
endfacet
facet normal 40.0000 0.0000 0.0000
    outer loop
        vertex 8.0000 2.8000 4.0000
        vertex 8.0000 0.0000 4.0000
        vertex 8.0000 0.0000 -4.0000
    endloop
endfacet
facet normal 40.0000 0.0000 0.0000
    outer loop
        vertex 8.0000 0.0000 -4.0000
        vertex 8.0000 2.8000 -4.0000
        vertex 8.0000 2.8000 4.0000
    endloop
endfacet
facet normal 0.0000 7.0000 18.0000
    outer loop
        vertex -7.6000 3.2000 3.6000
        vertex -7.6000 2.8000 3.6000
        vertex 7.6000 2.8000 3.6000
    endloop
endfacet
facet normal 0.0000 7.0000 18.0000
    outer loop
        vertex 7.6000 2.8000 3.6000
        vertex 7.6000 3.2000 3.6000
        vertex -7.6000 3.2000 3.6000
    endloop
endfacet
facet normal -38.0000 7.0000 0.0000
    outer loop
        vertex -7.6000 3.2000 -3.6000
        vertex -7.6000 2.8000 -3.6000
        vertex -7.6000 2.8000 3.6000
    endloop
endfacet
facet normal -38.0000 7.0000 0.0000
    outer loop
        vertex -7.6000 2.8000 3.6000
        vertex -7.6000 3.2000 3.6000
        vertex -7.6000 3.2000 -3.6000
    endloop
endfacet
facet normal 0.0000 7.0000 -18.0000
    outer loop
        vertex 7.6000 3.2000 -3.6000
        vertex 7.6000 2.8000 -3.6000
        vertex -7.6000 2.8000 -3.6000
    endloop
endfacet
facet normal 0.0000 7.0000 -18.0000
    outer loop
        vertex -7.6000 2.8000 -3.6000
        vertex -7.6000 3.2000 -3.6000
        vertex 7.6000 3.2000 -3.6000
    endloop
endfacet
facet normal 38.0000 7.0000 0.0000
    outer loop
        vertex 7.6000 3.2000 3.6000
        vertex 7.6000 2.8000 3.6000
        vertex 7.6000 2.8000 -3.6000
    endloop
endfacet
facet normal 38.0000 7.0000 0.0000
    outer loop
        vertex 7.6000 2.8000 -3.6000
        vertex 7.6000 3.2000 -3.6000
        vertex 7.6000 3.2000 3.6000
    endloop
endfacet
facet normal 0.0000 -8.0000 0.0000
    outer loop
        vertex -6.4000 1.6000 2.4000
        vertex 6.4000 1.6000 2.4000
        vertex 6.4000 1.6000 -2.4000
    endloop
endfacet
facet normal 0.0000 -8.0000 0.0000
    outer loop
        vertex 6.4000 1.6000 -2.4000
        vertex -6.4000 1.6000 -2.4000
        vertex -6.4000 1.6000 2.4000
    endloop
endfacet
facet normal 0.0000 8.0000 12.0000
    outer loop
        vertex -6.4000 1.6000 2.4000
        vertex -6.4000 3.2000 2.4000
        vertex 6.4000 3.2000 2.4000
    endloop
endfacet
facet normal 0.0000 8.0000 12.0000
    outer loop
        vertex 6.4000 3.2000 2.4000
        vertex 6.4000 1.6000 2.4000
        vertex -6.4000 1.6000 2.4000
    endloop
endfacet
facet normal -32.0000 8.0000 0.0000
    outer loop
        vertex -6.4000 1.6000 -2.4000
        vertex -6.4000 3.2000 -2.4000
        vertex -6.4000 3.2000 2.4000
    endloop
endfacet
facet normal -32.0000 8.0000 0.0000
    outer loop
        vertex -6.4000 3.2000 2.4000
        vertex -6.4000 1.6000 2.4000
        vertex -6.4000 1.6000 -2.4000
    endloop
endfacet
facet normal 0.0000 8.0000 -12.0000
    outer loop
        vertex 6.4000 1.6000 -2.4000
        vertex 6.4000 3.2000 -2.4000
        vertex -6.4000 3.2000 -2.4000
    endloop
endfacet
facet normal 0.0000 8.0000 -12.0000
    outer loop
        vertex -6.4000 3.2000 -2.4000
        vertex -6.4000 1.6000 -2.4000
        vertex 6.4000 1.6000 -2.4000
    endloop
endfacet
facet normal 32.0000 8.0000 0.0000
    outer loop
        vertex 6.4000 1.6000 2.4000
        vertex 6.4000 3.2000 2.4000
        vertex 6.4000 3.2000 -2.4000
    endloop
endfacet
facet normal 32.0000 8.0000 0.0000
    outer loop
        vertex 6.4000 3.2000 -2.4000
        vertex 6.4000 1.6000 -2.4000
        vertex 6.4000 1.6000 2.4000
    endloop
endfacet
facet normal 0.0000 36.0000 0.0000
    outer loop
        vertex -7.6000 3.2000 3.6000
        vertex -6.4000 3.2000 2.4000
        vertex -6.4000 3.2000 -2.4000
    endloop
endfacet
facet normal 0.0000 54.0000 0.0000
    outer loop
        vertex -6.4000 3.2000 -2.4000
        vertex -7.6000 3.2000 -3.6000
        vertex -7.6000 3.2000 3.6000
    endloop
endfacet
facet normal 0.0000 36.0000 0.0000
    outer loop
        vertex 7.6000 3.2000 -3.6000
        vertex 6.4000 3.2000 -2.4000
        vertex 6.4000 3.2000 2.4000
    endloop
endfacet
facet normal 0.0000 54.0000 0.0000
    outer loop
        vertex 6.4000 3.2000 2.4000
        vertex 7.6000 3.2000 3.6000
        vertex 7.6000 3.2000 -3.6000
    endloop
endfacet
facet normal 0.0000 96.0000 0.0000
    outer loop
        vertex 7.6000 3.2000 3.6000
        vertex 6.4000 3.2000 2.4000
        vertex -6.4000 3.2000 2.4000
    endloop
endfacet
facet normal 0.0000 114.0000 0.0000
    outer loop
        vertex -6.4000 3.2000 2.4000
        vertex -7.6000 3.2000 3.6000
        vertex 7.6000 3.2000 3.6000
    endloop
endfacet
facet normal 0.0000 96.0000 0.0000
    outer loop
        vertex -7.6000 3.2000 -3.6000
        vertex -6.4000 3.2000 -2.4000
        vertex 6.4000 3.2000 -2.4000
    endloop
endfacet
facet normal 0.0000 114.0000 0.0000
    outer loop
        vertex 6.4000 3.2000 -2.4000
        vertex 7.6000 3.2000 -3.6000
        vertex -7.6000 3.2000 -3.6000
    endloop
endfacet
facet normal 0.0000 18.0000 0.0000
    outer loop
        vertex -8.0000 2.8000 4.0000
        vertex -7.6000 2.8000 3.6000
        vertex -7.6000 2.8000 -3.6000
    endloop
endfacet
facet normal 0.0000 20.0000 0.0000
    outer loop
        vertex -7.6000 2.8000 -3.6000
        vertex -8.0000 2.8000 -4.0000
        vertex -8.0000 2.8000 4.0000
    endloop
endfacet
facet normal 0.0000 18.0000 0.0000
    outer loop
        vertex 8.0000 2.8000 -4.0000
        vertex 7.6000 2.8000 -3.6000
        vertex 7.6000 2.8000 3.6000
    endloop
endfacet
facet normal 0.0000 20.0000 0.0000
    outer loop
        vertex 7.6000 2.8000 3.6000
        vertex 8.0000 2.8000 4.0000
        vertex 8.0000 2.8000 -4.0000
    endloop
endfacet
facet normal 0.0000 38.0000 0.0000
    outer loop
        vertex 8.0000 2.8000 4.0000
        vertex 7.6000 2.8000 3.6000
        vertex -7.6000 2.8000 3.6000
    endloop
endfacet
facet normal 0.0000 40.0000 0.0000
    outer loop
        vertex -7.6000 2.8000 3.6000
        vertex -8.0000 2.8000 4.0000
        vertex 8.0000 2.8000 4.0000
    endloop
endfacet
facet normal 0.0000 38.0000 0.0000
    outer loop
        vertex -8.0000 2.8000 -4.0000
        vertex -7.6000 2.8000 -3.6000
        vertex 7.6000 2.8000 -3.6000
    endloop
endfacet
facet normal 0.0000 40.0000 0.0000
    outer loop
        vertex 7.6000 2.8000 -3.6000
        vertex 8.0000 2.8000 -4.0000
        vertex -8.0000 2.8000 -4.0000
    endloop
endfacet
facet normal 0.0000 -0.3619 0.0000
    outer loop
        vertex -5.1296 0.0000 3.8880
        vertex -5.2768 0.0000 3.6284
        vertex -5.0000 0.0000 3.7232
    endloop
endfacet
facet normal 0.0000 -0.0265 0.0000
    outer loop
        vertex -5.0000 0.0000 3.7232
        vertex -5.0488 0.0000 3.8180
        vertex -5.1296 0.0000 3.8880
    endloop
endfacet
facet normal 0.0000 -1.0001 0.0000
    outer loop
        vertex 7.1068 0.0000 2.6720
        vertex 7.0720 0.0000 2.4972
        vertex 7.5760 0.0000 0.4308
    endloop
endfacet
facet normal 0.0000 -9.2430 0.0000
    outer loop
        vertex 7.5760 0.0000 0.4308
        vertex 7.5692 0.0000 3.6152
        vertex 7.1068 0.0000 2.6720
    endloop
endfacet
facet normal 0.0000 -7.6800 0.0000
    outer loop
        vertex 5.2616 0.0000 3.9232
        vertex 8.0000 0.0000 4.0000
        vertex -8.0000 0.0000 4.0000
    endloop
endfacet
facet normal 0.0000 -5.0364 0.0000
    outer loop
        vertex -8.0000 0.0000 4.0000
        vertex -5.2308 0.0000 3.9232
        vertex 5.2616 0.0000 3.9232
    endloop
endfacet
facet normal 0.0000 -0.7986 0.0000
    outer loop
        vertex -5.2768 0.0000 -3.6308
        vertex -5.0000 0.0000 3.2616
        vertex -5.0000 0.0000 3.7232
    endloop
endfacet
facet normal 0.0000 -12.5584 0.0000
    outer loop
        vertex -5.0000 0.0000 3.7232
        vertex -5.2768 0.0000 3.6284
        vertex -5.2768 0.0000 -3.6308
    endloop
endfacet
facet normal 0.0000 -2.2117 0.0000
    outer loop
        vertex -5.0000 0.0000 3.7232
        vertex 0.0000 0.0000 1.2616
        vertex -5.0488 0.0000 3.8180
    endloop
endfacet
facet normal 0.0000 -14.4250 0.0000
    outer loop
        vertex -5.0000 0.0000 3.2616
        vertex 0.0000 0.0000 1.2616
        vertex -5.0000 0.0000 3.7232
    endloop
endfacet
facet normal 0.0000 -0.3699 0.0000
    outer loop
        vertex 7.8216 0.0000 -3.7952
        vertex 7.5848 0.0000 -3.6308
        vertex 7.6460 0.0000 -3.9232
    endloop
endfacet
facet normal 0.0000 -0.0285 0.0000
    outer loop
        vertex 7.6460 0.0000 -3.9232
        vertex 7.7464 0.0000 -3.8760
        vertex 7.8216 0.0000 -3.7952
    endloop
endfacet
facet normal 0.0000 -0.9179 0.0000
    outer loop
        vertex -5.1296 0.0000 3.8880
        vertex -5.0488 0.0000 3.8180
        vertex 0.0000 0.0000 1.2616
    endloop
endfacet
facet normal 0.0000 -165.1892 0.0000
    outer loop
        vertex 0.0000 0.0000 1.2616
        vertex 5.0548 0.0000 3.8260
        vertex -5.1296 0.0000 3.8880
    endloop
endfacet
facet normal 0.0000 -14.4250 0.0000
    outer loop
        vertex 5.0000 0.0000 3.2616
        vertex 5.0000 0.0000 3.7232
        vertex 0.0000 0.0000 1.2616
    endloop
endfacet
facet normal 0.0000 -2.3694 0.0000
    outer loop
        vertex 5.0000 0.0000 3.7232
        vertex 5.0548 0.0000 3.8260
        vertex 0.0000 0.0000 1.2616
    endloop
endfacet
facet normal 0.0000 -0.2627 0.0000
    outer loop
        vertex 5.5384 0.0000 3.6176
        vertex 5.2616 0.0000 3.9232
        vertex 5.1476 0.0000 3.8972
    endloop
endfacet
facet normal 0.0000 -0.4837 0.0000
    outer loop
        vertex 5.1476 0.0000 3.8972
        vertex 5.2616 0.0000 3.6176
        vertex 5.5384 0.0000 3.6176
    endloop
endfacet
facet normal 0.0000 -2.2014 0.0000
    outer loop
        vertex -5.2308 0.0000 3.9232
        vertex -5.1296 0.0000 3.8880
        vertex 5.0548 0.0000 3.8260
    endloop
endfacet
facet normal 0.0000 -4.6335 0.0000
    outer loop
        vertex 5.0548 0.0000 3.8260
        vertex 5.1476 0.0000 3.8972
        vertex -5.2308 0.0000 3.9232
    endloop
endfacet
facet normal 0.0000 -1.7050 0.0000
    outer loop
        vertex 5.2616 0.0000 3.9232
        vertex -5.2308 0.0000 3.9232
        vertex 5.1476 0.0000 3.8972
    endloop
endfacet
facet normal 0.0000 -1.1593 0.0000
    outer loop
        vertex 8.0000 0.0000 4.0000
        vertex 5.2616 0.0000 3.9232
        vertex 7.6768 0.0000 3.9232
    endloop
endfacet
facet normal 0.0000 -0.1517 0.0000
    outer loop
        vertex 8.0000 0.0000 4.0000
        vertex 7.6768 0.0000 3.9232
        vertex 7.7640 0.0000 3.8688
    endloop
endfacet
facet normal 0.0000 -6.9200 0.0000
    outer loop
        vertex 7.8616 0.0000 -3.6924
        vertex 8.0000 0.0000 -4.0000
        vertex 8.0000 0.0000 4.0000
    endloop
endfacet
facet normal 0.0000 -6.3879 0.0000
    outer loop
        vertex 8.0000 0.0000 4.0000
        vertex 7.8616 0.0000 3.6924
        vertex 7.8616 0.0000 -3.6924
    endloop
endfacet
facet normal 0.0000 -0.5344 0.0000
    outer loop
        vertex 5.8308 0.0000 -3.6308
        vertex 5.5384 0.0000 -3.6308
        vertex 5.2152 0.0000 -3.9232
    endloop
endfacet
facet normal 0.0000 -4.4423 0.0000
    outer loop
        vertex 5.2152 0.0000 -3.9232
        vertex 7.6460 0.0000 -3.9232
        vertex 5.8308 0.0000 -3.6308
    endloop
endfacet
facet normal 0.0000 -0.1658 0.0000
    outer loop
        vertex 8.0000 0.0000 -4.0000
        vertex 7.8616 0.0000 -3.6924
        vertex 7.8216 0.0000 -3.7952
    endloop
endfacet
facet normal 0.0000 -0.1863 0.0000
    outer loop
        vertex 8.0000 0.0000 -4.0000
        vertex 7.8216 0.0000 -3.7952
        vertex 7.7464 0.0000 -3.8760
    endloop
endfacet
facet normal 0.0000 -11.8511 0.0000
    outer loop
        vertex 5.2616 0.0000 3.6176
        vertex 5.2768 0.0000 -3.6308
        vertex 5.5384 0.0000 -3.6308
    endloop
endfacet
facet normal 0.0000 -12.5397 0.0000
    outer loop
        vertex 5.5384 0.0000 -3.6308
        vertex 5.5384 0.0000 3.6176
        vertex 5.2616 0.0000 3.6176
    endloop
endfacet
facet normal 0.0000 -0.1526 0.0000
    outer loop
        vertex 8.0000 0.0000 -4.0000
        vertex 7.7464 0.0000 -3.8760
        vertex 7.6460 0.0000 -3.9232
    endloop
endfacet
facet normal 0.0000 -1.1668 0.0000
    outer loop
        vertex 7.6460 0.0000 -3.9232
        vertex 5.2152 0.0000 -3.9232
        vertex -8.0000 0.0000 -4.0000
    endloop
endfacet
facet normal 0.0000 -7.6800 0.0000
    outer loop
        vertex -8.0000 0.0000 -4.0000
        vertex 8.0000 0.0000 -4.0000
        vertex 7.6460 0.0000 -3.9232
    endloop
endfacet
facet normal 0.0000 -0.7986 0.0000
    outer loop
        vertex 5.0000 0.0000 -3.2616
        vertex 5.0000 0.0000 -3.7232
        vertex 5.2768 0.0000 -3.6308
    endloop
endfacet
facet normal 0.0000 -5.0066 0.0000
    outer loop
        vertex -8.0000 0.0000 -4.0000
        vertex 5.2152 0.0000 -3.9232
        vertex -5.2152 0.0000 -3.9232
    endloop
endfacet
facet normal 0.0000 -0.0283 0.0000
    outer loop
        vertex 5.0000 0.0000 -3.7232
        vertex 5.0400 0.0000 -3.8196
        vertex 5.1164 0.0000 -3.8904
    endloop
endfacet
facet normal 0.0000 -0.3565 0.0000
    outer loop
        vertex 5.1164 0.0000 -3.8904
        vertex 5.2768 0.0000 -3.6308
        vertex 5.0000 0.0000 -3.7232
    endloop
endfacet
facet normal 0.0000 -1.9161 0.0000
    outer loop
        vertex -5.2768 0.0000 -3.6308
        vertex -5.0000 0.0000 -3.2616
        vertex -5.0000 0.0000 -2.1540
    endloop
endfacet
facet normal 0.0000 -14.4250 0.0000
    outer loop
        vertex 5.0000 0.0000 -3.2616
        vertex 0.0000 0.0000 -1.2616
        vertex 5.0000 0.0000 -3.7232
    endloop
endfacet
facet normal 0.0000 -2.3971 0.0000
    outer loop
        vertex 5.0000 0.0000 -3.7232
        vertex 0.0000 0.0000 -1.2616
        vertex 5.0400 0.0000 -3.8196
    endloop
endfacet
facet normal 0.0000 -0.0398 0.0000
    outer loop
        vertex -7.8616 0.0000 -3.6616
        vertex -7.8332 0.0000 -3.7792
        vertex -7.7564 0.0000 -3.8728
    endloop
endfacet
facet normal 0.0000 -0.3856 0.0000
    outer loop
        vertex -7.7564 0.0000 -3.8728
        vertex -7.5848 0.0000 -3.6308
        vertex -7.8616 0.0000 -3.6616
    endloop
endfacet
facet normal 0.0000 -14.4250 0.0000
    outer loop
        vertex -5.0000 0.0000 -3.2616
        vertex -5.0000 0.0000 -3.7232
        vertex 0.0000 0.0000 -1.2616
    endloop
endfacet
facet normal 0.0000 -0.8730 0.0000
    outer loop
        vertex -5.0000 0.0000 -3.2616
        vertex -5.2768 0.0000 -3.6308
        vertex -5.0400 0.0000 -3.8196
    endloop
endfacet
facet normal 0.0000 -0.1154 0.0000
    outer loop
        vertex -5.0400 0.0000 -3.8196
        vertex -5.0000 0.0000 -3.7232
        vertex -5.0000 0.0000 -3.2616
    endloop
endfacet
facet normal 0.0000 -1.1668 0.0000
    outer loop
        vertex -8.0000 0.0000 -4.0000
        vertex -5.2152 0.0000 -3.9232
        vertex -7.6460 0.0000 -3.9232
    endloop
endfacet
facet normal 0.0000 -4.4423 0.0000
    outer loop
        vertex -7.5848 0.0000 -3.6308
        vertex -7.6460 0.0000 -3.9232
        vertex -5.2152 0.0000 -3.9232
    endloop
endfacet
facet normal 0.0000 -3.2054 0.0000
    outer loop
        vertex -5.2152 0.0000 -3.9232
        vertex -5.8308 0.0000 -3.6308
        vertex -7.5848 0.0000 -3.6308
    endloop
endfacet
facet normal 0.0000 -0.1645 0.0000
    outer loop
        vertex -8.0000 0.0000 -4.0000
        vertex -7.6460 0.0000 -3.9232
        vertex -7.7564 0.0000 -3.8728
    endloop
endfacet
facet normal 0.0000 -0.2036 0.0000
    outer loop
        vertex -8.0000 0.0000 -4.0000
        vertex -7.7564 0.0000 -3.8728
        vertex -7.8332 0.0000 -3.7792
    endloop
endfacet
facet normal 0.0000 -0.1618 0.0000
    outer loop
        vertex -8.0000 0.0000 -4.0000
        vertex -7.8332 0.0000 -3.7792
        vertex -7.8616 0.0000 -3.6616
    endloop
endfacet
facet normal 0.0000 -7.7000 0.0000
    outer loop
        vertex -7.8460 0.0000 3.7384
        vertex -8.0000 0.0000 4.0000
        vertex -8.0000 0.0000 -4.0000
    endloop
endfacet
facet normal 0.0000 -6.3680 0.0000
    outer loop
        vertex -8.0000 0.0000 -4.0000
        vertex -7.8616 0.0000 -3.6616
        vertex -7.8460 0.0000 3.7384
    endloop
endfacet
facet normal 0.0000 -0.1507 0.0000
    outer loop
        vertex -8.0000 0.0000 4.0000
        vertex -7.8460 0.0000 3.7384
        vertex -7.8040 0.0000 3.8236
    endloop
endfacet
facet normal 0.0000 -4.4440 0.0000
    outer loop
        vertex -5.5384 0.0000 3.6288
        vertex -5.2308 0.0000 3.9232
        vertex -7.6460 0.0000 3.9232
    endloop
endfacet
facet normal 0.0000 -0.5327 0.0000
    outer loop
        vertex -7.6460 0.0000 3.9232
        vertex -5.8308 0.0000 3.6292
        vertex -5.5384 0.0000 3.6288
    endloop
endfacet
facet normal 0.0000 -1.1593 0.0000
    outer loop
        vertex -8.0000 0.0000 4.0000
        vertex -7.6460 0.0000 3.9232
        vertex -5.2308 0.0000 3.9232
    endloop
endfacet
facet normal 0.0000 -34.6125 0.0000
    outer loop
        vertex -5.0000 0.0000 -2.1540
        vertex -5.0000 0.0000 -3.2616
        vertex 0.0000 0.0000 -1.2616
    endloop
endfacet
facet normal 0.0000 -34.6125 0.0000
    outer loop
        vertex 0.0000 0.0000 -1.2616
        vertex 0.0000 0.0000 -0.1540
        vertex -5.0000 0.0000 -2.1540
    endloop
endfacet
facet normal 0.0000 -5.7356 0.0000
    outer loop
        vertex -7.5848 0.0000 0.2616
        vertex -7.5848 0.0000 -0.2616
        vertex -5.8308 0.0000 -0.2616
    endloop
endfacet
facet normal 0.0000 -5.7356 0.0000
    outer loop
        vertex -5.8308 0.0000 -0.2616
        vertex -5.8308 0.0000 0.2616
        vertex -7.5848 0.0000 0.2616
    endloop
endfacet
facet normal 0.0000 -12.0910 0.0000
    outer loop
        vertex -7.5848 0.0000 3.6308
        vertex -7.8460 0.0000 3.7384
        vertex -7.8616 0.0000 -3.6616
    endloop
endfacet
facet normal 0.0000 -5.5360 0.0000
    outer loop
        vertex -7.8616 0.0000 -3.6616
        vertex -7.5848 0.0000 0.4308
        vertex -7.5848 0.0000 3.6308
    endloop
endfacet
facet normal 0.0000 -0.0755 0.0000
    outer loop
        vertex -6.9700 0.0000 2.9952
        vertex -7.0688 0.0000 2.8472
        vertex -7.1036 0.0000 2.6728
    endloop
endfacet
facet normal 0.0000 -1.8369 0.0000
    outer loop
        vertex -7.1036 0.0000 2.6728
        vertex -6.1920 0.0000 2.6728
        vertex -6.9700 0.0000 2.9952
    endloop
endfacet
facet normal 0.0000 -0.4781 0.0000
    outer loop
        vertex -5.2768 0.0000 -3.6308
        vertex -5.5384 0.0000 -3.6308
        vertex -5.2152 0.0000 -3.9232
    endloop
endfacet
facet normal 0.0000 -5.8451 0.0000
    outer loop
        vertex -5.5384 0.0000 3.6288
        vertex -5.8308 0.0000 3.6292
        vertex -5.8308 0.0000 0.4308
    endloop
endfacet
facet normal 0.0000 -13.2669 0.0000
    outer loop
        vertex -5.8308 0.0000 0.4308
        vertex -5.5384 0.0000 -3.6308
        vertex -5.5384 0.0000 3.6288
    endloop
endfacet
facet normal 0.0000 -0.2210 0.0000
    outer loop
        vertex -7.6460 0.0000 -3.9232
        vertex -7.5848 0.0000 -3.6308
        vertex -7.7564 0.0000 -3.8728
    endloop
endfacet
facet normal 0.0000 -0.2539 0.0000
    outer loop
        vertex -5.1296 0.0000 3.8880
        vertex -5.2308 0.0000 3.9232
        vertex -5.5384 0.0000 3.6288
    endloop
endfacet
facet normal 0.0000 -0.4248 0.0000
    outer loop
        vertex -5.5384 0.0000 3.6288
        vertex -5.2768 0.0000 3.6284
        vertex -5.1296 0.0000 3.8880
    endloop
endfacet
facet normal 0.0000 -11.8688 0.0000
    outer loop
        vertex -5.2768 0.0000 -3.6308
        vertex -5.2768 0.0000 3.6284
        vertex -5.5384 0.0000 3.6288
    endloop
endfacet
facet normal 0.0000 -11.8694 0.0000
    outer loop
        vertex -5.5384 0.0000 3.6288
        vertex -5.5384 0.0000 -3.6308
        vertex -5.2768 0.0000 -3.6308
    endloop
endfacet
facet normal 0.0000 -0.0352 0.0000
    outer loop
        vertex 5.1476 0.0000 3.8972
        vertex 5.0548 0.0000 3.8260
        vertex 5.0000 0.0000 3.7232
    endloop
endfacet
facet normal 0.0000 -0.3819 0.0000
    outer loop
        vertex 5.0000 0.0000 3.7232
        vertex 5.2616 0.0000 3.6176
        vertex 5.1476 0.0000 3.8972
    endloop
endfacet
facet normal 0.0000 -0.2044 0.0000
    outer loop
        vertex 7.6768 0.0000 3.9232
        vertex 7.5692 0.0000 3.6152
        vertex 7.7640 0.0000 3.8688
    endloop
endfacet
facet normal 0.0000 -0.2468 0.0000
    outer loop
        vertex 5.1164 0.0000 -3.8904
        vertex 5.2152 0.0000 -3.9232
        vertex 5.5384 0.0000 -3.6308
    endloop
endfacet
facet normal 0.0000 -0.4244 0.0000
    outer loop
        vertex 5.5384 0.0000 -3.6308
        vertex 5.2768 0.0000 -3.6308
        vertex 5.1164 0.0000 -3.8904
    endloop
endfacet
facet normal 0.0000 -1.9161 0.0000
    outer loop
        vertex 5.2768 0.0000 -3.6308
        vertex 5.0000 0.0000 3.2616
        vertex 5.0000 0.0000 2.1540
    endloop
endfacet
facet normal 0.0000 -0.7986 0.0000
    outer loop
        vertex 5.0000 0.0000 3.7232
        vertex 5.0000 0.0000 3.2616
        vertex 5.2768 0.0000 -3.6308
    endloop
endfacet
facet normal 0.0000 -11.8411 0.0000
    outer loop
        vertex 5.2768 0.0000 -3.6308
        vertex 5.2616 0.0000 3.6176
        vertex 5.0000 0.0000 3.7232
    endloop
endfacet
facet normal 0.0000 -5.8228 0.0000
    outer loop
        vertex 7.5692 0.0000 3.6152
        vertex 7.5760 0.0000 0.4308
        vertex 7.8616 0.0000 3.6924
    endloop
endfacet
facet normal 0.0000 -0.9029 0.0000
    outer loop
        vertex 7.5764 0.0000 0.2616
        vertex 7.5776 0.0000 -0.2616
        vertex 7.8616 0.0000 -3.6924
    endloop
endfacet
facet normal 0.0000 -13.1634 0.0000
    outer loop
        vertex 7.8616 0.0000 -3.6924
        vertex 7.8616 0.0000 3.6924
        vertex 7.5764 0.0000 0.2616
    endloop
endfacet
facet normal 0.0000 -0.3102 0.0000
    outer loop
        vertex 7.5760 0.0000 0.4308
        vertex 7.5764 0.0000 0.2616
        vertex 7.8616 0.0000 3.6924
    endloop
endfacet
facet normal 0.0000 -5.5125 0.0000
    outer loop
        vertex 5.5384 0.0000 3.6176
        vertex 5.8220 0.0000 0.4308
        vertex 5.8152 0.0000 3.6172
    endloop
endfacet
facet normal 0.0000 -3.3476 0.0000
    outer loop
        vertex 5.2616 0.0000 3.9232
        vertex 5.8152 0.0000 3.6172
        vertex 7.5692 0.0000 3.6152
    endloop
endfacet
facet normal 0.0000 -4.6493 0.0000
    outer loop
        vertex 7.5692 0.0000 3.6152
        vertex 7.6768 0.0000 3.9232
        vertex 5.2616 0.0000 3.9232
    endloop
endfacet
facet normal 0.0000 -0.5280 0.0000
    outer loop
        vertex 5.5384 0.0000 3.6176
        vertex 5.8152 0.0000 3.6172
        vertex 5.2616 0.0000 3.9232
    endloop
endfacet
facet normal 0.0000 -1.9106 0.0000
    outer loop
        vertex -5.2768 0.0000 -3.6308
        vertex -5.0000 0.0000 2.1572
        vertex -5.0000 0.0000 3.2616
    endloop
endfacet
facet normal 0.0000 -34.6125 0.0000
    outer loop
        vertex 0.0000 0.0000 0.1540
        vertex 0.0000 0.0000 1.2616
        vertex -5.0000 0.0000 3.2616
    endloop
endfacet
facet normal 0.0000 -34.5125 0.0000
    outer loop
        vertex -5.0000 0.0000 3.2616
        vertex -5.0000 0.0000 2.1572
        vertex 0.0000 0.0000 0.1540
    endloop
endfacet
facet normal 0.0000 -34.6125 0.0000
    outer loop
        vertex 5.0000 0.0000 2.1540
        vertex 5.0000 0.0000 3.2616
        vertex 0.0000 0.0000 1.2616
    endloop
endfacet
facet normal 0.0000 -34.6125 0.0000
    outer loop
        vertex 0.0000 0.0000 1.2616
        vertex 0.0000 0.0000 0.1540
        vertex 5.0000 0.0000 2.1540
    endloop
endfacet
facet normal 0.0000 -0.5481 0.0000
    outer loop
        vertex 5.2768 0.0000 -3.6308
        vertex 5.0000 0.0000 2.1540
        vertex 5.0000 0.0000 1.8372
    endloop
endfacet
facet normal 0.0000 -8.7764 0.0000
    outer loop
        vertex 0.0000 0.0000 0.1540
        vertex 0.3768 0.0000 0.0000
        vertex 5.0000 0.0000 1.8372
    endloop
endfacet
facet normal 0.0000 -9.9000 0.0000
    outer loop
        vertex 5.0000 0.0000 1.8372
        vertex 5.0000 0.0000 2.1540
        vertex 0.0000 0.0000 0.1540
    endloop
endfacet
facet normal 0.0000 -1.9161 0.0000
    outer loop
        vertex 5.0000 0.0000 -2.1540
        vertex 5.0000 0.0000 -3.2616
        vertex 5.2768 0.0000 -3.6308
    endloop
endfacet
facet normal 0.0000 -34.6125 0.0000
    outer loop
        vertex 0.0000 0.0000 -0.1540
        vertex 0.0000 0.0000 -1.2616
        vertex 5.0000 0.0000 -3.2616
    endloop
endfacet
facet normal 0.0000 -34.6125 0.0000
    outer loop
        vertex 5.0000 0.0000 -3.2616
        vertex 5.0000 0.0000 -2.1540
        vertex 0.0000 0.0000 -0.1540
    endloop
endfacet
facet normal 0.0000 -1.8899 0.0000
    outer loop
        vertex 5.2768 0.0000 -3.6308
        vertex 5.0000 0.0000 1.8372
        vertex 5.0000 0.0000 0.7448
    endloop
endfacet
facet normal 0.0000 -9.1539 0.0000
    outer loop
        vertex 0.3768 0.0000 0.0000
        vertex 5.0000 0.0000 -2.1540
        vertex 5.0000 0.0000 -1.8372
    endloop
endfacet
facet normal 0.0000 -0.5481 0.0000
    outer loop
        vertex 5.0000 0.0000 -1.8372
        vertex 5.0000 0.0000 -2.1540
        vertex 5.2768 0.0000 -3.6308
    endloop
endfacet
facet normal 0.0000 -9.6250 0.0000
    outer loop
        vertex -5.0000 0.0000 -2.1540
        vertex 0.0000 0.0000 -0.1540
        vertex 0.0000 0.0000 0.1540
    endloop
endfacet
facet normal 0.0000 -0.6228 0.0000
    outer loop
        vertex 0.0000 0.0000 0.1540
        vertex -0.3768 0.0000 0.0000
        vertex -5.0000 0.0000 -2.1540
    endloop
endfacet
facet normal 0.0000 -0.7253 0.0000
    outer loop
        vertex 0.3768 0.0000 0.0000
        vertex 0.0000 0.0000 0.1540
        vertex 0.0000 0.0000 -0.1540
    endloop
endfacet
facet normal 0.0000 -9.5225 0.0000
    outer loop
        vertex 0.0000 0.0000 -0.1540
        vertex 5.0000 0.0000 -2.1540
        vertex 0.3768 0.0000 0.0000
    endloop
endfacet
facet normal 0.0000 -0.5591 0.0000
    outer loop
        vertex -5.2768 0.0000 -3.6308
        vertex -5.0000 0.0000 -2.1540
        vertex -5.0000 0.0000 -1.8308
    endloop
endfacet
facet normal 0.0000 -9.3389 0.0000
    outer loop
        vertex -5.0000 0.0000 -1.8308
        vertex -5.0000 0.0000 -2.1540
        vertex -0.3768 0.0000 0.0000
    endloop
endfacet
facet normal 0.0000 -1.8899 0.0000
    outer loop
        vertex -5.2768 0.0000 -3.6308
        vertex -5.0000 0.0000 -1.8308
        vertex -5.0000 0.0000 -0.7384
    endloop
endfacet
facet normal 0.0000 -12.7097 0.0000
    outer loop
        vertex -0.3768 0.0000 0.0000
        vertex -3.1308 0.0000 0.0000
        vertex -5.0000 0.0000 -0.7384
    endloop
endfacet
facet normal 0.0000 -31.5649 0.0000
    outer loop
        vertex -5.0000 0.0000 -0.7384
        vertex -5.0000 0.0000 -1.8308
        vertex -0.3768 0.0000 0.0000
    endloop
endfacet
facet normal 0.0000 -8.7614 0.0000
    outer loop
        vertex -5.0000 0.0000 1.8308
        vertex -0.3768 0.0000 0.0000
        vertex 0.0000 0.0000 0.1540
    endloop
endfacet
facet normal 0.0000 -10.2000 0.0000
    outer loop
        vertex 0.0000 0.0000 0.1540
        vertex -5.0000 0.0000 2.1572
        vertex -5.0000 0.0000 1.8308
    endloop
endfacet
facet normal 0.0000 -0.5647 0.0000
    outer loop
        vertex -5.2768 0.0000 -3.6308
        vertex -5.0000 0.0000 1.8308
        vertex -5.0000 0.0000 2.1572
    endloop
endfacet
facet normal 0.0000 -2.5549 0.0000
    outer loop
        vertex -5.2768 0.0000 -3.6308
        vertex -5.0000 0.0000 -0.7384
        vertex -5.0000 0.0000 0.7384
    endloop
endfacet
facet normal 0.0000 -17.2527 0.0000
    outer loop
        vertex -5.0000 0.0000 0.7384
        vertex -5.0000 0.0000 -0.7384
        vertex -3.1308 0.0000 0.0000
    endloop
endfacet
facet normal 0.0000 -1.8899 0.0000
    outer loop
        vertex -5.2768 0.0000 -3.6308
        vertex -5.0000 0.0000 0.7384
        vertex -5.0000 0.0000 1.8308
    endloop
endfacet
facet normal 0.0000 -31.5649 0.0000
    outer loop
        vertex -0.3768 0.0000 0.0000
        vertex -5.0000 0.0000 1.8308
        vertex -5.0000 0.0000 0.7384
    endloop
endfacet
facet normal 0.0000 -12.7097 0.0000
    outer loop
        vertex -5.0000 0.0000 0.7384
        vertex -3.1308 0.0000 0.0000
        vertex -0.3768 0.0000 0.0000
    endloop
endfacet
facet normal 0.0000 -2.5659 0.0000
    outer loop
        vertex 5.2768 0.0000 -3.6308
        vertex 5.0000 0.0000 0.7448
        vertex 5.0000 0.0000 -0.7384
    endloop
endfacet
facet normal 0.0000 -17.3275 0.0000
    outer loop
        vertex 5.0000 0.0000 -0.7384
        vertex 5.0000 0.0000 0.7448
        vertex 3.1308 0.0000 0.0000
    endloop
endfacet
facet normal 0.0000 -1.9009 0.0000
    outer loop
        vertex 5.2768 0.0000 -3.6308
        vertex 5.0000 0.0000 -0.7384
        vertex 5.0000 0.0000 -1.8372
    endloop
endfacet
facet normal 0.0000 -12.7097 0.0000
    outer loop
        vertex 5.0000 0.0000 -0.7384
        vertex 3.1308 0.0000 0.0000
        vertex 0.3768 0.0000 0.0000
    endloop
endfacet
facet normal 0.0000 -31.7498 0.0000
    outer loop
        vertex 0.3768 0.0000 0.0000
        vertex 5.0000 0.0000 -1.8372
        vertex 5.0000 0.0000 -0.7384
    endloop
endfacet
facet normal 0.0000 -31.5649 0.0000
    outer loop
        vertex 5.0000 0.0000 0.7448
        vertex 5.0000 0.0000 1.8372
        vertex 0.3768 0.0000 0.0000
    endloop
endfacet
facet normal 0.0000 -12.8199 0.0000
    outer loop
        vertex 0.3768 0.0000 0.0000
        vertex 3.1308 0.0000 0.0000
        vertex 5.0000 0.0000 0.7448
    endloop
endfacet
facet normal 0.0000 -0.9561 0.0000
    outer loop
        vertex -5.5384 0.0000 -3.6308
        vertex -5.8308 0.0000 0.2616
        vertex -5.8308 0.0000 -0.2616
    endloop
endfacet
facet normal 0.0000 -0.3092 0.0000
    outer loop
        vertex -5.8308 0.0000 0.4308
        vertex -5.8308 0.0000 0.2616
        vertex -5.5384 0.0000 -3.6308
    endloop
endfacet
facet normal 0.0000 -2.0215 0.0000
    outer loop
        vertex -7.5848 0.0000 -0.4460
        vertex -5.8308 0.0000 -0.4460
        vertex -5.8308 0.0000 -0.2616
    endloop
endfacet
facet normal 0.0000 -2.0215 0.0000
    outer loop
        vertex -5.8308 0.0000 -0.2616
        vertex -7.5848 0.0000 -0.2616
        vertex -7.5848 0.0000 -0.4460
    endloop
endfacet
facet normal 0.0000 -1.8549 0.0000
    outer loop
        vertex -5.8308 0.0000 0.4308
        vertex -7.5848 0.0000 0.4308
        vertex -7.5848 0.0000 0.2616
    endloop
endfacet
facet normal 0.0000 -1.8549 0.0000
    outer loop
        vertex -7.5848 0.0000 0.2616
        vertex -5.8308 0.0000 0.2616
        vertex -5.8308 0.0000 0.4308
    endloop
endfacet
facet normal 0.0000 -0.2927 0.0000
    outer loop
        vertex -7.5848 0.0000 0.2616
        vertex -7.5848 0.0000 0.4308
        vertex -7.8616 0.0000 -3.6616
    endloop
endfacet
facet normal 0.0000 -0.9051 0.0000
    outer loop
        vertex -7.5848 0.0000 -0.2616
        vertex -7.5848 0.0000 0.2616
        vertex -7.8616 0.0000 -3.6616
    endloop
endfacet
facet normal 0.0000 -2.0215 0.0000
    outer loop
        vertex 5.8236 0.0000 -0.2616
        vertex 5.8240 0.0000 -0.4460
        vertex 7.5780 0.0000 -0.4460
    endloop
endfacet
facet normal 0.0000 -2.0215 0.0000
    outer loop
        vertex 7.5780 0.0000 -0.4460
        vertex 7.5776 0.0000 -0.2616
        vertex 5.8236 0.0000 -0.2616
    endloop
endfacet
facet normal 0.0000 -0.3187 0.0000
    outer loop
        vertex 7.8616 0.0000 -3.6924
        vertex 7.5776 0.0000 -0.2616
        vertex 7.5780 0.0000 -0.4460
    endloop
endfacet
facet normal 0.0000 -0.9579 0.0000
    outer loop
        vertex 5.8236 0.0000 -0.2616
        vertex 5.8224 0.0000 0.2616
        vertex 5.5384 0.0000 -3.6308
    endloop
endfacet
facet normal 0.0000 -12.8478 0.0000
    outer loop
        vertex 5.8220 0.0000 0.4308
        vertex 5.5384 0.0000 3.6176
        vertex 5.5384 0.0000 -3.6308
    endloop
endfacet
facet normal 0.0000 -0.3101 0.0000
    outer loop
        vertex 5.5384 0.0000 -3.6308
        vertex 5.8224 0.0000 0.2616
        vertex 5.8220 0.0000 0.4308
    endloop
endfacet
facet normal 0.0000 -5.7356 0.0000
    outer loop
        vertex 7.5776 0.0000 -0.2616
        vertex 7.5764 0.0000 0.2616
        vertex 5.8224 0.0000 0.2616
    endloop
endfacet
facet normal 0.0000 -5.7356 0.0000
    outer loop
        vertex 5.8224 0.0000 0.2616
        vertex 5.8236 0.0000 -0.2616
        vertex 7.5776 0.0000 -0.2616
    endloop
endfacet
facet normal 0.0000 -1.8549 0.0000
    outer loop
        vertex 7.5764 0.0000 0.2616
        vertex 7.5760 0.0000 0.4308
        vertex 5.8220 0.0000 0.4308
    endloop
endfacet
facet normal 0.0000 -1.8549 0.0000
    outer loop
        vertex 5.8220 0.0000 0.4308
        vertex 5.8224 0.0000 0.2616
        vertex 7.5764 0.0000 0.2616
    endloop
endfacet
facet normal 0.0000 -5.8202 0.0000
    outer loop
        vertex -5.5384 0.0000 -3.6308
        vertex -5.8308 0.0000 -0.4460
        vertex -5.8308 0.0000 -3.6308
    endloop
endfacet
facet normal 0.0000 -0.3370 0.0000
    outer loop
        vertex -5.8308 0.0000 -0.2616
        vertex -5.8308 0.0000 -0.4460
        vertex -5.5384 0.0000 -3.6308
    endloop
endfacet
facet normal 0.0000 -0.5344 0.0000
    outer loop
        vertex -5.5384 0.0000 -3.6308
        vertex -5.8308 0.0000 -3.6308
        vertex -5.2152 0.0000 -3.9232
    endloop
endfacet
facet normal 0.0000 -0.3190 0.0000
    outer loop
        vertex -7.5848 0.0000 -0.4460
        vertex -7.5848 0.0000 -0.2616
        vertex -7.8616 0.0000 -3.6616
    endloop
endfacet
facet normal 0.0000 -5.5097 0.0000
    outer loop
        vertex -7.5848 0.0000 -3.6308
        vertex -7.5848 0.0000 -0.4460
        vertex -7.8616 0.0000 -3.6616
    endloop
endfacet
facet normal 0.0000 -0.9938 0.0000
    outer loop
        vertex 7.8216 0.0000 -3.7952
        vertex 7.8616 0.0000 -3.6924
        vertex 7.5780 0.0000 -0.4460
    endloop
endfacet
facet normal 0.0000 -4.7065 0.0000
    outer loop
        vertex 7.5780 0.0000 -0.4460
        vertex 7.5848 0.0000 -3.6308
        vertex 7.8216 0.0000 -3.7952
    endloop
endfacet
facet normal 0.0000 -0.3371 0.0000
    outer loop
        vertex 5.8236 0.0000 -0.2616
        vertex 5.5384 0.0000 -3.6308
        vertex 5.8240 0.0000 -0.4460
    endloop
endfacet
facet normal 0.0000 -0.5955 0.0000
    outer loop
        vertex 7.0724 0.0000 -2.8460
        vertex 7.1072 0.0000 -2.6716
        vertex 6.4768 0.0000 -3.0928
    endloop
endfacet
facet normal 0.0000 -0.3985 0.0000
    outer loop
        vertex 6.4768 0.0000 -3.0928
        vertex 6.9736 0.0000 -2.9940
        vertex 7.0724 0.0000 -2.8460
    endloop
endfacet
facet normal 0.0000 -3.2054 0.0000
    outer loop
        vertex 7.5848 0.0000 -3.6308
        vertex 5.8308 0.0000 -3.6308
        vertex 7.6460 0.0000 -3.9232
    endloop
endfacet
facet normal 0.0000 -5.8202 0.0000
    outer loop
        vertex 5.8308 0.0000 -3.6308
        vertex 5.8240 0.0000 -0.4460
        vertex 5.5384 0.0000 -3.6308
    endloop
endfacet
facet normal 0.0000 -9.4659 0.0000
    outer loop
        vertex 7.1072 0.0000 -2.6716
        vertex 7.5848 0.0000 -3.6308
        vertex 7.5780 0.0000 -0.4460
    endloop
endfacet
facet normal 0.0000 -0.9972 0.0000
    outer loop
        vertex 7.5780 0.0000 -0.4460
        vertex 7.0724 0.0000 -2.4972
        vertex 7.1072 0.0000 -2.6716
    endloop
endfacet
facet normal 0.0000 -0.1857 0.0000
    outer loop
        vertex -5.8308 0.0000 3.6292
        vertex -6.1920 0.0000 2.6728
        vertex -6.2268 0.0000 2.4984
    endloop
endfacet
facet normal 0.0000 -7.9160 0.0000
    outer loop
        vertex -6.2268 0.0000 2.4984
        vertex -5.8308 0.0000 0.4308
        vertex -5.8308 0.0000 3.6292
    endloop
endfacet
facet normal 0.0000 -1.6421 0.0000
    outer loop
        vertex -6.2268 0.0000 2.4984
        vertex -6.3256 0.0000 2.3508
        vertex -5.8308 0.0000 0.4308
    endloop
endfacet
facet normal 0.0000 -0.2150 0.0000
    outer loop
        vertex -6.2268 0.0000 2.4984
        vertex -6.1920 0.0000 2.6728
        vertex -6.4732 0.0000 2.2520
    endloop
endfacet
facet normal 0.0000 -0.0752 0.0000
    outer loop
        vertex -6.4732 0.0000 2.2520
        vertex -6.3256 0.0000 2.3508
        vertex -6.2268 0.0000 2.4984
    endloop
endfacet
facet normal 0.0000 -2.0767 0.0000
    outer loop
        vertex -6.3256 0.0000 2.3508
        vertex -6.4732 0.0000 2.2520
        vertex -5.8308 0.0000 0.4308
    endloop
endfacet
facet normal 0.0000 -2.1248 0.0000
    outer loop
        vertex -6.4732 0.0000 2.2520
        vertex -6.6476 0.0000 2.2172
        vertex -5.8308 0.0000 0.4308
    endloop
endfacet
facet normal 0.0000 -0.0758 0.0000
    outer loop
        vertex -6.8224 0.0000 2.2520
        vertex -6.6476 0.0000 2.2172
        vertex -6.9700 0.0000 2.3508
    endloop
endfacet
facet normal 0.0000 -1.7740 0.0000
    outer loop
        vertex -5.8308 0.0000 0.4308
        vertex -6.6476 0.0000 2.2172
        vertex -6.8224 0.0000 2.2520
    endloop
endfacet
facet normal 0.0000 -19.9649 0.0000
    outer loop
        vertex -6.8224 0.0000 2.2520
        vertex -7.5848 0.0000 0.4308
        vertex -5.8308 0.0000 0.4308
    endloop
endfacet
facet normal 0.0000 -1.4802 0.0000
    outer loop
        vertex -6.4732 0.0000 2.2520
        vertex -6.1920 0.0000 2.6728
        vertex -6.9700 0.0000 2.3508
    endloop
endfacet
facet normal 0.0000 -0.2157 0.0000
    outer loop
        vertex -6.9700 0.0000 2.3508
        vertex -6.6476 0.0000 2.2172
        vertex -6.4732 0.0000 2.2520
    endloop
endfacet
facet normal 0.0000 -2.1508 0.0000
    outer loop
        vertex -7.5848 0.0000 0.4308
        vertex -6.8224 0.0000 2.2520
        vertex -6.9700 0.0000 2.3508
    endloop
endfacet
facet normal 0.0000 -0.0756 0.0000
    outer loop
        vertex -7.1036 0.0000 2.6728
        vertex -7.0688 0.0000 2.4984
        vertex -6.9700 0.0000 2.3508
    endloop
endfacet
facet normal 0.0000 -1.8346 0.0000
    outer loop
        vertex -6.9700 0.0000 2.3508
        vertex -6.1920 0.0000 2.6728
        vertex -7.1036 0.0000 2.6728
    endloop
endfacet
facet normal 0.0000 -1.7528 0.0000
    outer loop
        vertex -7.5848 0.0000 0.4308
        vertex -6.9700 0.0000 2.3508
        vertex -7.0688 0.0000 2.4984
    endloop
endfacet
facet normal 0.0000 -9.6240 0.0000
    outer loop
        vertex -7.1036 0.0000 2.6728
        vertex -7.5848 0.0000 3.6308
        vertex -7.5848 0.0000 0.4308
    endloop
endfacet
facet normal 0.0000 -1.0121 0.0000
    outer loop
        vertex -7.5848 0.0000 0.4308
        vertex -7.0688 0.0000 2.4984
        vertex -7.1036 0.0000 2.6728
    endloop
endfacet
facet normal 0.0000 -0.7329 0.0000
    outer loop
        vertex -7.5848 0.0000 3.6308
        vertex -7.1036 0.0000 2.6728
        vertex -7.0688 0.0000 2.8472
    endloop
endfacet
facet normal 0.0000 -0.9612 0.0000
    outer loop
        vertex -7.5848 0.0000 3.6308
        vertex -7.0688 0.0000 2.8472
        vertex -6.9700 0.0000 2.9952
    endloop
endfacet
facet normal 0.0000 -0.9660 0.0000
    outer loop
        vertex -7.5848 0.0000 3.6308
        vertex -6.9700 0.0000 2.9952
        vertex -6.8224 0.0000 3.0940
    endloop
endfacet
facet normal 0.0000 -0.3690 0.0000
    outer loop
        vertex -6.8224 0.0000 3.0940
        vertex -6.6476 0.0000 3.1288
        vertex -5.8308 0.0000 3.6292
    endloop
endfacet
facet normal 0.0000 -5.8770 0.0000
    outer loop
        vertex -5.8308 0.0000 3.6292
        vertex -7.5848 0.0000 3.6308
        vertex -6.8224 0.0000 3.0940
    endloop
endfacet
facet normal 0.0000 -0.0760 0.0000
    outer loop
        vertex -6.6476 0.0000 3.1288
        vertex -6.8224 0.0000 3.0940
        vertex -6.4732 0.0000 3.0940
    endloop
endfacet
facet normal 0.0000 -0.7231 0.0000
    outer loop
        vertex -5.8308 0.0000 3.6292
        vertex -6.6476 0.0000 3.1288
        vertex -6.4732 0.0000 3.0940
    endloop
endfacet
facet normal 0.0000 -1.4815 0.0000
    outer loop
        vertex -6.9700 0.0000 2.9952
        vertex -6.1920 0.0000 2.6728
        vertex -6.4732 0.0000 3.0940
    endloop
endfacet
facet normal 0.0000 -0.2156 0.0000
    outer loop
        vertex -6.4732 0.0000 3.0940
        vertex -6.8224 0.0000 3.0940
        vertex -6.9700 0.0000 2.9952
    endloop
endfacet
facet normal 0.0000 -0.8904 0.0000
    outer loop
        vertex -5.8308 0.0000 3.6292
        vertex -6.4732 0.0000 3.0940
        vertex -6.3256 0.0000 2.9952
    endloop
endfacet
facet normal 0.0000 -0.0755 0.0000
    outer loop
        vertex -6.2268 0.0000 2.8472
        vertex -6.3256 0.0000 2.9952
        vertex -6.4732 0.0000 3.0940
    endloop
endfacet
facet normal 0.0000 -0.2149 0.0000
    outer loop
        vertex -6.4732 0.0000 3.0940
        vertex -6.1920 0.0000 2.6728
        vertex -6.2268 0.0000 2.8472
    endloop
endfacet
facet normal 0.0000 -0.8492 0.0000
    outer loop
        vertex -5.8308 0.0000 3.6292
        vertex -6.3256 0.0000 2.9952
        vertex -6.2268 0.0000 2.8472
    endloop
endfacet
facet normal 0.0000 -0.6017 0.0000
    outer loop
        vertex -5.8308 0.0000 3.6292
        vertex -6.2268 0.0000 2.8472
        vertex -6.1920 0.0000 2.6728
    endloop
endfacet
facet normal 0.0000 -0.7807 0.0000
    outer loop
        vertex -6.9720 0.0000 -2.9936
        vertex -6.8240 0.0000 -3.0928
        vertex -6.8240 0.0000 -2.2488
    endloop
endfacet
facet normal 0.0000 -0.5972 0.0000
    outer loop
        vertex -6.8240 0.0000 -2.2488
        vertex -6.9720 0.0000 -2.3480
        vertex -6.9720 0.0000 -2.9936
    endloop
endfacet
facet normal 0.0000 -0.6038 0.0000
    outer loop
        vertex -5.8308 0.0000 -3.6308
        vertex -6.1924 0.0000 -2.6708
        vertex -6.2272 0.0000 -2.8456
    endloop
endfacet
facet normal 0.0000 -0.8515 0.0000
    outer loop
        vertex -5.8308 0.0000 -3.6308
        vertex -6.2272 0.0000 -2.8456
        vertex -6.3260 0.0000 -2.9936
    endloop
endfacet
facet normal 0.0000 -0.2168 0.0000
    outer loop
        vertex -6.3260 0.0000 -2.3480
        vertex -6.4744 0.0000 -2.2488
        vertex -6.8240 0.0000 -2.2488
    endloop
endfacet
facet normal 0.0000 -0.3994 0.0000
    outer loop
        vertex -6.8240 0.0000 -2.2488
        vertex -6.2272 0.0000 -2.4960
        vertex -6.3260 0.0000 -2.3480
    endloop
endfacet
facet normal 0.0000 -0.8980 0.0000
    outer loop
        vertex -5.8308 0.0000 -3.6308
        vertex -6.3260 0.0000 -2.9936
        vertex -6.4744 0.0000 -3.0928
    endloop
endfacet
facet normal 0.0000 -0.3463 0.0000
    outer loop
        vertex -6.4744 0.0000 -3.0928
        vertex -6.6492 0.0000 -3.1276
        vertex -7.5848 0.0000 -3.6308
    endloop
endfacet
facet normal 0.0000 -5.8978 0.0000
    outer loop
        vertex -7.5848 0.0000 -3.6308
        vertex -5.8308 0.0000 -3.6308
        vertex -6.4744 0.0000 -3.0928
    endloop
endfacet
facet normal 0.0000 -0.7532 0.0000
    outer loop
        vertex -7.5848 0.0000 -3.6308
        vertex -6.6492 0.0000 -3.1276
        vertex -6.8240 0.0000 -3.0928
    endloop
endfacet
facet normal 0.0000 -0.5391 0.0000
    outer loop
        vertex -7.1056 0.0000 -2.6708
        vertex -6.9720 0.0000 -2.9936
        vertex -6.9720 0.0000 -2.3480
    endloop
endfacet
facet normal 0.0000 -0.0766 0.0000
    outer loop
        vertex -6.9720 0.0000 -2.3480
        vertex -7.0712 0.0000 -2.4960
        vertex -7.1056 0.0000 -2.6708
    endloop
endfacet
facet normal 0.0000 -0.9693 0.0000
    outer loop
        vertex -7.5848 0.0000 -3.6308
        vertex -6.8240 0.0000 -3.0928
        vertex -6.9720 0.0000 -2.9936
    endloop
endfacet
facet normal 0.0000 -0.0766 0.0000
    outer loop
        vertex -7.0712 0.0000 -2.8456
        vertex -6.9720 0.0000 -2.9936
        vertex -7.1056 0.0000 -2.6708
    endloop
endfacet
facet normal 0.0000 -0.9619 0.0000
    outer loop
        vertex -7.5848 0.0000 -3.6308
        vertex -6.9720 0.0000 -2.9936
        vertex -7.0712 0.0000 -2.8456
    endloop
endfacet
facet normal 0.0000 -0.7299 0.0000
    outer loop
        vertex -7.0712 0.0000 -2.8456
        vertex -7.1056 0.0000 -2.6708
        vertex -7.5848 0.0000 -3.6308
    endloop
endfacet
facet normal 0.0000 -1.0019 0.0000
    outer loop
        vertex -7.1056 0.0000 -2.6708
        vertex -7.0712 0.0000 -2.4960
        vertex -7.5848 0.0000 -0.4460
    endloop
endfacet
facet normal 0.0000 -9.5385 0.0000
    outer loop
        vertex -7.5848 0.0000 -0.4460
        vertex -7.5848 0.0000 -3.6308
        vertex -7.1056 0.0000 -2.6708
    endloop
endfacet
facet normal 0.0000 -1.7461 0.0000
    outer loop
        vertex -7.0712 0.0000 -2.4960
        vertex -6.9720 0.0000 -2.3480
        vertex -7.5848 0.0000 -0.4460
    endloop
endfacet
facet normal 0.0000 -1.7535 0.0000
    outer loop
        vertex -6.8240 0.0000 -2.2488
        vertex -6.6492 0.0000 -2.2140
        vertex -5.8308 0.0000 -0.4460
    endloop
endfacet
facet normal 0.0000 -19.7632 0.0000
    outer loop
        vertex -5.8308 0.0000 -0.4460
        vertex -7.5848 0.0000 -0.4460
        vertex -6.8240 0.0000 -2.2488
    endloop
endfacet
facet normal 0.0000 -0.0760 0.0000
    outer loop
        vertex -6.8240 0.0000 -3.0928
        vertex -6.6492 0.0000 -3.1276
        vertex -6.4744 0.0000 -3.0928
    endloop
endfacet
facet normal 0.0000 -1.8441 0.0000
    outer loop
        vertex -6.4744 0.0000 -3.0928
        vertex -6.8240 0.0000 -2.2488
        vertex -6.8240 0.0000 -3.0928
    endloop
endfacet
facet normal 0.0000 -2.1393 0.0000
    outer loop
        vertex -6.9720 0.0000 -2.3480
        vertex -6.8240 0.0000 -2.2488
        vertex -7.5848 0.0000 -0.4460
    endloop
endfacet
facet normal 0.0000 -0.0760 0.0000
    outer loop
        vertex -6.6492 0.0000 -2.2140
        vertex -6.8240 0.0000 -2.2488
        vertex -6.4744 0.0000 -2.2488
    endloop
endfacet
facet normal 0.0000 -2.1095 0.0000
    outer loop
        vertex -5.8308 0.0000 -0.4460
        vertex -6.6492 0.0000 -2.2140
        vertex -6.4744 0.0000 -2.2488
    endloop
endfacet
facet normal 0.0000 -2.0711 0.0000
    outer loop
        vertex -5.8308 0.0000 -0.4460
        vertex -6.4744 0.0000 -2.2488
        vertex -6.3260 0.0000 -2.3480
    endloop
endfacet
facet normal 0.0000 -0.9996 0.0000
    outer loop
        vertex -6.8240 0.0000 -2.2488
        vertex -6.4744 0.0000 -3.0928
        vertex -6.3260 0.0000 -2.9936
    endloop
endfacet
facet normal 0.0000 -2.0087 0.0000
    outer loop
        vertex -6.3260 0.0000 -2.9936
        vertex -6.2272 0.0000 -2.4960
        vertex -6.8240 0.0000 -2.2488
    endloop
endfacet
facet normal 0.0000 -1.6325 0.0000
    outer loop
        vertex -5.8308 0.0000 -0.4460
        vertex -6.3260 0.0000 -2.3480
        vertex -6.2272 0.0000 -2.4960
    endloop
endfacet
facet normal 0.0000 -0.0760 0.0000
    outer loop
        vertex -6.2272 0.0000 -2.8456
        vertex -6.1924 0.0000 -2.6708
        vertex -6.2272 0.0000 -2.4960
    endloop
endfacet
facet normal 0.0000 -0.2159 0.0000
    outer loop
        vertex -6.2272 0.0000 -2.4960
        vertex -6.3260 0.0000 -2.9936
        vertex -6.2272 0.0000 -2.8456
    endloop
endfacet
facet normal 0.0000 -7.8903 0.0000
    outer loop
        vertex -5.8308 0.0000 -3.6308
        vertex -5.8308 0.0000 -0.4460
        vertex -6.2272 0.0000 -2.4960
    endloop
endfacet
facet normal 0.0000 -0.1862 0.0000
    outer loop
        vertex -6.2272 0.0000 -2.4960
        vertex -6.1924 0.0000 -2.6708
        vertex -5.8308 0.0000 -3.6308
    endloop
endfacet
facet normal 0.0000 -0.0760 0.0000
    outer loop
        vertex 6.4768 0.0000 -3.0928
        vertex 6.6512 0.0000 -3.1276
        vertex 6.8260 0.0000 -3.0928
    endloop
endfacet
facet normal 0.0000 -0.2156 0.0000
    outer loop
        vertex 6.8260 0.0000 -3.0928
        vertex 6.9736 0.0000 -2.9940
        vertex 6.4768 0.0000 -3.0928
    endloop
endfacet
facet normal 0.0000 -0.7292 0.0000
    outer loop
        vertex 7.1072 0.0000 -2.6716
        vertex 7.0724 0.0000 -2.8460
        vertex 7.5848 0.0000 -3.6308
    endloop
endfacet
facet normal 0.0000 -5.8978 0.0000
    outer loop
        vertex 5.8308 0.0000 -3.6308
        vertex 7.5848 0.0000 -3.6308
        vertex 6.8260 0.0000 -3.0928
    endloop
endfacet
facet normal 0.0000 -0.3713 0.0000
    outer loop
        vertex 6.8260 0.0000 -3.0928
        vertex 6.6512 0.0000 -3.1276
        vertex 5.8308 0.0000 -3.6308
    endloop
endfacet
facet normal 0.0000 -0.9586 0.0000
    outer loop
        vertex 7.0724 0.0000 -2.8460
        vertex 6.9736 0.0000 -2.9940
        vertex 7.5848 0.0000 -3.6308
    endloop
endfacet
facet normal 0.0000 -0.9649 0.0000
    outer loop
        vertex 6.9736 0.0000 -2.9940
        vertex 6.8260 0.0000 -3.0928
        vertex 7.5848 0.0000 -3.6308
    endloop
endfacet
facet normal 0.0000 -0.7269 0.0000
    outer loop
        vertex 5.8308 0.0000 -3.6308
        vertex 6.6512 0.0000 -3.1276
        vertex 6.4768 0.0000 -3.0928
    endloop
endfacet
facet normal 0.0000 -0.9949 0.0000
    outer loop
        vertex 6.8260 0.0000 -2.2504
        vertex 6.3288 0.0000 -2.9940
        vertex 6.4768 0.0000 -3.0928
    endloop
endfacet
facet normal 0.0000 -2.3998 0.0000
    outer loop
        vertex 6.4768 0.0000 -3.0928
        vertex 7.1072 0.0000 -2.6716
        vertex 6.8260 0.0000 -2.2504
    endloop
endfacet
facet normal 0.0000 -0.8966 0.0000
    outer loop
        vertex 5.8308 0.0000 -3.6308
        vertex 6.4768 0.0000 -3.0928
        vertex 6.3288 0.0000 -2.9940
    endloop
endfacet
facet normal 0.0000 -0.0755 0.0000
    outer loop
        vertex 6.1952 0.0000 -2.6716
        vertex 6.2300 0.0000 -2.8460
        vertex 6.3288 0.0000 -2.9940
    endloop
endfacet
facet normal 0.0000 -1.6228 0.0000
    outer loop
        vertex 6.3288 0.0000 -2.9940
        vertex 6.8260 0.0000 -2.2504
        vertex 6.1952 0.0000 -2.6716
    endloop
endfacet
facet normal 0.0000 -0.8539 0.0000
    outer loop
        vertex 5.8308 0.0000 -3.6308
        vertex 6.3288 0.0000 -2.9940
        vertex 6.2300 0.0000 -2.8460
    endloop
endfacet
facet normal 0.0000 -0.6058 0.0000
    outer loop
        vertex 5.8308 0.0000 -3.6308
        vertex 6.2300 0.0000 -2.8460
        vertex 6.1952 0.0000 -2.6716
    endloop
endfacet
facet normal 0.0000 -7.9943 0.0000
    outer loop
        vertex 6.2300 0.0000 -2.4972
        vertex 5.8240 0.0000 -0.4460
        vertex 5.8308 0.0000 -3.6308
    endloop
endfacet
facet normal 0.0000 -0.1886 0.0000
    outer loop
        vertex 5.8308 0.0000 -3.6308
        vertex 6.1952 0.0000 -2.6716
        vertex 6.2300 0.0000 -2.4972
    endloop
endfacet
facet normal 0.0000 -0.3989 0.0000
    outer loop
        vertex 6.8260 0.0000 -2.2504
        vertex 6.3288 0.0000 -2.3492
        vertex 6.2300 0.0000 -2.4972
    endloop
endfacet
facet normal 0.0000 -0.5960 0.0000
    outer loop
        vertex 6.2300 0.0000 -2.4972
        vertex 6.1952 0.0000 -2.6716
        vertex 6.8260 0.0000 -2.2504
    endloop
endfacet
facet normal 0.0000 -1.6422 0.0000
    outer loop
        vertex 6.2300 0.0000 -2.4972
        vertex 6.3288 0.0000 -2.3492
        vertex 5.8240 0.0000 -0.4460
    endloop
endfacet
facet normal 0.0000 -2.0722 0.0000
    outer loop
        vertex 6.3288 0.0000 -2.3492
        vertex 6.4768 0.0000 -2.2504
        vertex 5.8240 0.0000 -0.4460
    endloop
endfacet
facet normal 0.0000 -0.2161 0.0000
    outer loop
        vertex 6.3288 0.0000 -2.3492
        vertex 6.8260 0.0000 -2.2504
        vertex 6.6512 0.0000 -2.2156
    endloop
endfacet
facet normal 0.0000 -0.0755 0.0000
    outer loop
        vertex 6.6512 0.0000 -2.2156
        vertex 6.4768 0.0000 -2.2504
        vertex 6.3288 0.0000 -2.3492
    endloop
endfacet
facet normal 0.0000 -2.1088 0.0000
    outer loop
        vertex 6.4768 0.0000 -2.2504
        vertex 6.6512 0.0000 -2.2156
        vertex 5.8240 0.0000 -0.4460
    endloop
endfacet
facet normal 0.0000 -1.7534 0.0000
    outer loop
        vertex 5.8240 0.0000 -0.4460
        vertex 6.6512 0.0000 -2.2156
        vertex 6.8260 0.0000 -2.2504
    endloop
endfacet
facet normal 0.0000 -19.7807 0.0000
    outer loop
        vertex 6.8260 0.0000 -2.2504
        vertex 7.5780 0.0000 -0.4460
        vertex 5.8240 0.0000 -0.4460
    endloop
endfacet
facet normal 0.0000 -2.1289 0.0000
    outer loop
        vertex 6.9736 0.0000 -2.3492
        vertex 7.5780 0.0000 -0.4460
        vertex 6.8260 0.0000 -2.2504
    endloop
endfacet
facet normal 0.0000 -0.0755 0.0000
    outer loop
        vertex 7.0724 0.0000 -2.4972
        vertex 6.9736 0.0000 -2.3492
        vertex 6.8260 0.0000 -2.2504
    endloop
endfacet
facet normal 0.0000 -0.2149 0.0000
    outer loop
        vertex 6.8260 0.0000 -2.2504
        vertex 7.1072 0.0000 -2.6716
        vertex 7.0724 0.0000 -2.4972
    endloop
endfacet
facet normal 0.0000 -1.7343 0.0000
    outer loop
        vertex 7.0724 0.0000 -2.4972
        vertex 7.5780 0.0000 -0.4460
        vertex 6.9736 0.0000 -2.3492
    endloop
endfacet
facet normal 0.0000 -0.4000 0.0000
    outer loop
        vertex 6.3276 0.0000 2.3492
        vertex 6.8248 0.0000 2.2500
        vertex 6.9728 0.0000 2.3492
    endloop
endfacet
facet normal 0.0000 -0.5968 0.0000
    outer loop
        vertex 6.9728 0.0000 2.3492
        vertex 7.0720 0.0000 2.4972
        vertex 6.3276 0.0000 2.3492
    endloop
endfacet
facet normal 0.0000 -1.7474 0.0000
    outer loop
        vertex 7.0720 0.0000 2.4972
        vertex 6.9728 0.0000 2.3492
        vertex 7.5760 0.0000 0.4308
    endloop
endfacet
facet normal 0.0000 -1.7673 0.0000
    outer loop
        vertex 6.8248 0.0000 2.2500
        vertex 6.6504 0.0000 2.2156
        vertex 5.8220 0.0000 0.4308
    endloop
endfacet
facet normal 0.0000 -19.9430 0.0000
    outer loop
        vertex 5.8220 0.0000 0.4308
        vertex 7.5760 0.0000 0.4308
        vertex 6.8248 0.0000 2.2500
    endloop
endfacet
facet normal 0.0000 -2.1485 0.0000
    outer loop
        vertex 6.9728 0.0000 2.3492
        vertex 6.8248 0.0000 2.2500
        vertex 7.5760 0.0000 0.4308
    endloop
endfacet
facet normal 0.0000 -0.0766 0.0000
    outer loop
        vertex 6.3276 0.0000 2.3492
        vertex 6.4756 0.0000 2.2500
        vertex 6.6504 0.0000 2.2156
    endloop
endfacet
facet normal 0.0000 -0.2150 0.0000
    outer loop
        vertex 6.6504 0.0000 2.2156
        vertex 6.8248 0.0000 2.2500
        vertex 6.3276 0.0000 2.3492
    endloop
endfacet
facet normal 0.0000 -2.1280 0.0000
    outer loop
        vertex 5.8220 0.0000 0.4308
        vertex 6.6504 0.0000 2.2156
        vertex 6.4756 0.0000 2.2500
    endloop
endfacet
facet normal 0.0000 -0.7817 0.0000
    outer loop
        vertex 6.6504 0.0000 3.1284
        vertex 6.2284 0.0000 2.4972
        vertex 6.3276 0.0000 2.3492
    endloop
endfacet
facet normal 0.0000 -3.3266 0.0000
    outer loop
        vertex 6.3276 0.0000 2.3492
        vertex 7.0720 0.0000 2.4972
        vertex 6.6504 0.0000 3.1284
    endloop
endfacet
facet normal 0.0000 -2.0880 0.0000
    outer loop
        vertex 5.8220 0.0000 0.4308
        vertex 6.4756 0.0000 2.2500
        vertex 6.3276 0.0000 2.3492
    endloop
endfacet
facet normal 0.0000 -0.2165 0.0000
    outer loop
        vertex 6.3276 0.0000 2.9944
        vertex 6.2284 0.0000 2.8464
        vertex 6.2284 0.0000 2.4972
    endloop
endfacet
facet normal 0.0000 -0.9200 0.0000
    outer loop
        vertex 6.2284 0.0000 2.4972
        vertex 6.6504 0.0000 3.1284
        vertex 6.3276 0.0000 2.9944
    endloop
endfacet
facet normal 0.0000 -1.6571 0.0000
    outer loop
        vertex 5.8220 0.0000 0.4308
        vertex 6.3276 0.0000 2.3492
        vertex 6.2284 0.0000 2.4972
    endloop
endfacet
facet normal 0.0000 -0.2106 0.0000
    outer loop
        vertex 6.2284 0.0000 2.4972
        vertex 6.1940 0.0000 2.6720
        vertex 5.8152 0.0000 3.6172
    endloop
endfacet
facet normal 0.0000 -8.1813 0.0000
    outer loop
        vertex 5.8152 0.0000 3.6172
        vertex 5.8220 0.0000 0.4308
        vertex 6.2284 0.0000 2.4972
    endloop
endfacet
facet normal 0.0000 -0.0751 0.0000
    outer loop
        vertex 6.1940 0.0000 2.6720
        vertex 6.2284 0.0000 2.4972
        vertex 6.2284 0.0000 2.8464
    endloop
endfacet
facet normal 0.0000 -0.6161 0.0000
    outer loop
        vertex 5.8152 0.0000 3.6172
        vertex 6.1940 0.0000 2.6720
        vertex 6.2284 0.0000 2.8464
    endloop
endfacet
facet normal 0.0000 -0.8601 0.0000
    outer loop
        vertex 5.8152 0.0000 3.6172
        vertex 6.2284 0.0000 2.8464
        vertex 6.3276 0.0000 2.9944
    endloop
endfacet
facet normal 0.0000 -0.0762 0.0000
    outer loop
        vertex 6.4756 0.0000 3.0936
        vertex 6.3276 0.0000 2.9944
        vertex 6.6504 0.0000 3.1284
    endloop
endfacet
facet normal 0.0000 -0.8938 0.0000
    outer loop
        vertex 5.8152 0.0000 3.6172
        vertex 6.3276 0.0000 2.9944
        vertex 6.4756 0.0000 3.0936
    endloop
endfacet
facet normal 0.0000 -0.3320 0.0000
    outer loop
        vertex 6.4756 0.0000 3.0936
        vertex 6.6504 0.0000 3.1284
        vertex 7.5692 0.0000 3.6152
    endloop
endfacet
facet normal 0.0000 -5.7317 0.0000
    outer loop
        vertex 7.5692 0.0000 3.6152
        vertex 5.8152 0.0000 3.6172
        vertex 6.4756 0.0000 3.0936
    endloop
endfacet
facet normal 0.0000 -0.7305 0.0000
    outer loop
        vertex 7.5692 0.0000 3.6152
        vertex 6.6504 0.0000 3.1284
        vertex 6.8248 0.0000 3.0936
    endloop
endfacet
facet normal 0.0000 -0.0754 0.0000
    outer loop
        vertex 6.9728 0.0000 2.9944
        vertex 6.8248 0.0000 3.0936
        vertex 7.0720 0.0000 2.8464
    endloop
endfacet
facet normal 0.0000 -0.9440 0.0000
    outer loop
        vertex 7.5692 0.0000 3.6152
        vertex 6.8248 0.0000 3.0936
        vertex 6.9728 0.0000 2.9944
    endloop
endfacet
facet normal 0.0000 -0.5395 0.0000
    outer loop
        vertex 7.0720 0.0000 2.4972
        vertex 7.0720 0.0000 2.8464
        vertex 6.8248 0.0000 3.0936
    endloop
endfacet
facet normal 0.0000 -0.5963 0.0000
    outer loop
        vertex 6.8248 0.0000 3.0936
        vertex 6.6504 0.0000 3.1284
        vertex 7.0720 0.0000 2.4972
    endloop
endfacet
facet normal 0.0000 -0.9366 0.0000
    outer loop
        vertex 7.5692 0.0000 3.6152
        vertex 6.9728 0.0000 2.9944
        vertex 7.0720 0.0000 2.8464
    endloop
endfacet
facet normal 0.0000 -0.0760 0.0000
    outer loop
        vertex 7.1068 0.0000 2.6720
        vertex 7.0720 0.0000 2.8464
        vertex 7.0720 0.0000 2.4972
    endloop
endfacet
facet normal 0.0000 -0.7092 0.0000
    outer loop
        vertex 7.5692 0.0000 3.6152
        vertex 7.0720 0.0000 2.8464
        vertex 7.1068 0.0000 2.6720
    endloop
endfacet
facet normal 0.0000 -0.1699 0.0000
    outer loop
        vertex 8.0000 0.0000 4.0000
        vertex 7.7640 0.0000 3.8688
        vertex 7.8280 0.0000 3.7892
    endloop
endfacet
facet normal 0.0000 -0.3695 0.0000
    outer loop
        vertex 7.7640 0.0000 3.8688
        vertex 7.5692 0.0000 3.6152
        vertex 7.8616 0.0000 3.6924
    endloop
endfacet
facet normal 0.0000 -0.0220 0.0000
    outer loop
        vertex 7.8616 0.0000 3.6924
        vertex 7.8280 0.0000 3.7892
        vertex 7.7640 0.0000 3.8688
    endloop
endfacet
facet normal 0.0000 -0.1483 0.0000
    outer loop
        vertex 8.0000 0.0000 4.0000
        vertex 7.8280 0.0000 3.7892
        vertex 7.8616 0.0000 3.6924
    endloop
endfacet
facet normal 0.0000 -164.6056 0.0000
    outer loop
        vertex -5.1164 0.0000 -3.8904
        vertex 5.0400 0.0000 -3.8196
        vertex 0.0000 0.0000 -1.2616
    endloop
endfacet
facet normal 0.0000 -1.0088 0.0000
    outer loop
        vertex 0.0000 0.0000 -1.2616
        vertex -5.0400 0.0000 -3.8196
        vertex -5.1164 0.0000 -3.8904
    endloop
endfacet
facet normal 0.0000 -2.1382 0.0000
    outer loop
        vertex -5.1164 0.0000 -3.8904
        vertex -5.2152 0.0000 -3.9232
        vertex 5.2152 0.0000 -3.9232
    endloop
endfacet
facet normal 0.0000 -2.0977 0.0000
    outer loop
        vertex 5.2152 0.0000 -3.9232
        vertex 5.1164 0.0000 -3.8904
        vertex -5.1164 0.0000 -3.8904
    endloop
endfacet
facet normal 0.0000 -4.5280 0.0000
    outer loop
        vertex 5.1164 0.0000 -3.8904
        vertex 5.0400 0.0000 -3.8196
        vertex -5.1164 0.0000 -3.8904
    endloop
endfacet
facet normal 0.0000 -2.3971 0.0000
    outer loop
        vertex -5.0000 0.0000 -3.7232
        vertex -5.0400 0.0000 -3.8196
        vertex 0.0000 0.0000 -1.2616
    endloop
endfacet
facet normal 0.0000 -0.3601 0.0000
    outer loop
        vertex -5.0400 0.0000 -3.8196
        vertex -5.2768 0.0000 -3.6308
        vertex -5.2152 0.0000 -3.9232
    endloop
endfacet
facet normal 0.0000 -0.0281 0.0000
    outer loop
        vertex -5.2152 0.0000 -3.9232
        vertex -5.1164 0.0000 -3.8904
        vertex -5.0400 0.0000 -3.8196
    endloop
endfacet
facet normal 0.0000 -0.3193 0.0000
    outer loop
        vertex -7.8460 0.0000 3.7384
        vertex -7.5848 0.0000 3.6308
        vertex -7.7344 0.0000 3.8880
    endloop
endfacet
facet normal 0.0000 -0.0202 0.0000
    outer loop
        vertex -7.7344 0.0000 3.8880
        vertex -7.8040 0.0000 3.8236
        vertex -7.8460 0.0000 3.7384
    endloop
endfacet
facet normal 0.0000 -0.1556 0.0000
    outer loop
        vertex -8.0000 0.0000 4.0000
        vertex -7.8040 0.0000 3.8236
        vertex -7.7344 0.0000 3.8880
    endloop
endfacet
facet normal 0.0000 -0.5618 0.0000
    outer loop
        vertex -5.8308 0.0000 3.6292
        vertex -7.6460 0.0000 3.9232
        vertex -7.7344 0.0000 3.8880
    endloop
endfacet
facet normal 0.0000 -2.8181 0.0000
    outer loop
        vertex -7.7344 0.0000 3.8880
        vertex -7.5848 0.0000 3.6308
        vertex -5.8308 0.0000 3.6292
    endloop
endfacet
facet normal 0.0000 -0.1203 0.0000
    outer loop
        vertex -8.0000 0.0000 4.0000
        vertex -7.7344 0.0000 3.8880
        vertex -7.6460 0.0000 3.9232
    endloop
endfacet
endsolid GiantLegoRocks
