solid GiantLegoRocks
facet normal 0.0000 0.0000 20.0000
    outer loop
        vertex -8.0000 2.8000 4.0000
        vertex -8.0000 0.0000 4.0000
        vertex 8.0000 0.0000 4.0000
    endloop
endfacet
facet normal 0.0000 0.0000 20.0000
    outer loop
        vertex 8.0000 0.0000 4.0000
        vertex 8.0000 2.8000 4.0000
        vertex -8.0000 2.8000 4.0000
    endloop
endfacet
facet normal -40.0000 0.0000 0.0000
    outer loop
        vertex -8.0000 2.8000 -4.0000
        vertex -8.0000 0.0000 -4.0000
        vertex -8.0000 0.0000 4.0000
    endloop
endfacet
facet normal -40.0000 0.0000 0.0000
    outer loop
        vertex -8.0000 0.0000 4.0000
        vertex -8.0000 2.8000 4.0000
        vertex -8.0000 2.8000 -4.0000
    endloop
endfacet
facet normal 0.0000 0.0000 -20.0000
    outer loop
        vertex 8.0000 2.8000 -4.0000
        vertex 8.0000 0.0000 -4.0000
        vertex -8.0000 0.0000 -4.0000
    endloop
endfacet
facet normal 0.0000 0.0000 -20.0000
    outer loop
        vertex -8.0000 0.0000 -4.0000
        vertex -8.0000 2.8000 -4.0000
        vertex 8.0000 2.8000 -4.0000
    endloop
endfacet
facet normal 40.0000 0.0000 0.0000
    outer loop
        vertex 8.0000 2.8000 4.0000
        vertex 8.0000 0.0000 4.0000
        vertex 8.0000 0.0000 -4.0000
    endloop
endfacet
facet normal 40.0000 0.0000 0.0000
    outer loop
        vertex 8.0000 0.0000 -4.0000
        vertex 8.0000 2.8000 -4.0000
        vertex 8.0000 2.8000 4.0000
    endloop
endfacet
facet normal 0.0000 7.0000 18.0000
    outer loop
        vertex -7.6000 3.2000 3.6000
        vertex -7.6000 2.8000 3.6000
        vertex 7.6000 2.8000 3.6000
    endloop
endfacet
facet normal 0.0000 7.0000 18.0000
    outer loop
        vertex 7.6000 2.8000 3.6000
        vertex 7.6000 3.2000 3.6000
        vertex -7.6000 3.2000 3.6000
    endloop
endfacet
facet normal -38.0000 7.0000 0.0000
    outer loop
        vertex -7.6000 3.2000 -3.6000
        vertex -7.6000 2.8000 -3.6000
        vertex -7.6000 2.8000 3.6000
    endloop
endfacet
facet normal -38.0000 7.0000 0.0000
    outer loop
        vertex -7.6000 2.8000 3.6000
        vertex -7.6000 3.2000 3.6000
        vertex -7.6000 3.2000 -3.6000
    endloop
endfacet
facet normal 0.0000 7.0000 -18.0000
    outer loop
        vertex 7.6000 3.2000 -3.6000
        vertex 7.6000 2.8000 -3.6000
        vertex -7.6000 2.8000 -3.6000
    endloop
endfacet
facet normal 0.0000 7.0000 -18.0000
    outer loop
        vertex -7.6000 2.8000 -3.6000
        vertex -7.6000 3.2000 -3.6000
        vertex 7.6000 3.2000 -3.6000
    endloop
endfacet
facet normal 38.0000 7.0000 0.0000
    outer loop
        vertex 7.6000 3.2000 3.6000
        vertex 7.6000 2.8000 3.6000
        vertex 7.6000 2.8000 -3.6000
    endloop
endfacet
facet normal 38.0000 7.0000 0.0000
    outer loop
        vertex 7.6000 2.8000 -3.6000
        vertex 7.6000 3.2000 -3.6000
        vertex 7.6000 3.2000 3.6000
    endloop
endfacet
facet normal 0.0000 -8.0000 0.0000
    outer loop
        vertex -6.4000 1.6000 2.4000
        vertex 6.4000 1.6000 2.4000
        vertex 6.4000 1.6000 -2.4000
    endloop
endfacet
facet normal 0.0000 -8.0000 0.0000
    outer loop
        vertex 6.4000 1.6000 -2.4000
        vertex -6.4000 1.6000 -2.4000
        vertex -6.4000 1.6000 2.4000
    endloop
endfacet
facet normal 0.0000 8.0000 12.0000
    outer loop
        vertex -6.4000 1.6000 2.4000
        vertex -6.4000 3.2000 2.4000
        vertex 6.4000 3.2000 2.4000
    endloop
endfacet
facet normal 0.0000 8.0000 12.0000
    outer loop
        vertex 6.4000 3.2000 2.4000
        vertex 6.4000 1.6000 2.4000
        vertex -6.4000 1.6000 2.4000
    endloop
endfacet
facet normal -32.0000 8.0000 0.0000
    outer loop
        vertex -6.4000 1.6000 -2.4000
        vertex -6.4000 3.2000 -2.4000
        vertex -6.4000 3.2000 2.4000
    endloop
endfacet
facet normal -32.0000 8.0000 0.0000
    outer loop
        vertex -6.4000 3.2000 2.4000
        vertex -6.4000 1.6000 2.4000
        vertex -6.4000 1.6000 -2.4000
    endloop
endfacet
facet normal 0.0000 8.0000 -12.0000
    outer loop
        vertex 6.4000 1.6000 -2.4000
        vertex 6.4000 3.2000 -2.4000
        vertex -6.4000 3.2000 -2.4000
    endloop
endfacet
facet normal 0.0000 8.0000 -12.0000
    outer loop
        vertex -6.4000 3.2000 -2.4000
        vertex -6.4000 1.6000 -2.4000
        vertex 6.4000 1.6000 -2.4000
    endloop
endfacet
facet normal 32.0000 8.0000 0.0000
    outer loop
        vertex 6.4000 1.6000 2.4000
        vertex 6.4000 3.2000 2.4000
        vertex 6.4000 3.2000 -2.4000
    endloop
endfacet
facet normal 32.0000 8.0000 0.0000
    outer loop
        vertex 6.4000 3.2000 -2.4000
        vertex 6.4000 1.6000 -2.4000
        vertex 6.4000 1.6000 2.4000
    endloop
endfacet
facet normal 0.0000 36.0000 0.0000
    outer loop
        vertex -7.6000 3.2000 3.6000
        vertex -6.4000 3.2000 2.4000
        vertex -6.4000 3.2000 -2.4000
    endloop
endfacet
facet normal 0.0000 54.0000 0.0000
    outer loop
        vertex -6.4000 3.2000 -2.4000
        vertex -7.6000 3.2000 -3.6000
        vertex -7.6000 3.2000 3.6000
    endloop
endfacet
facet normal 0.0000 36.0000 0.0000
    outer loop
        vertex 7.6000 3.2000 -3.6000
        vertex 6.4000 3.2000 -2.4000
        vertex 6.4000 3.2000 2.4000
    endloop
endfacet
facet normal 0.0000 54.0000 0.0000
    outer loop
        vertex 6.4000 3.2000 2.4000
        vertex 7.6000 3.2000 3.6000
        vertex 7.6000 3.2000 -3.6000
    endloop
endfacet
facet normal 0.0000 96.0000 0.0000
    outer loop
        vertex 7.6000 3.2000 3.6000
        vertex 6.4000 3.2000 2.4000
        vertex -6.4000 3.2000 2.4000
    endloop
endfacet
facet normal 0.0000 114.0000 0.0000
    outer loop
        vertex -6.4000 3.2000 2.4000
        vertex -7.6000 3.2000 3.6000
        vertex 7.6000 3.2000 3.6000
    endloop
endfacet
facet normal 0.0000 96.0000 0.0000
    outer loop
        vertex -7.6000 3.2000 -3.6000
        vertex -6.4000 3.2000 -2.4000
        vertex 6.4000 3.2000 -2.4000
    endloop
endfacet
facet normal 0.0000 114.0000 0.0000
    outer loop
        vertex 6.4000 3.2000 -2.4000
        vertex 7.6000 3.2000 -3.6000
        vertex -7.6000 3.2000 -3.6000
    endloop
endfacet
facet normal 0.0000 18.0000 0.0000
    outer loop
        vertex -8.0000 2.8000 4.0000
        vertex -7.6000 2.8000 3.6000
        vertex -7.6000 2.8000 -3.6000
    endloop
endfacet
facet normal 0.0000 20.0000 0.0000
    outer loop
        vertex -7.6000 2.8000 -3.6000
        vertex -8.0000 2.8000 -4.0000
        vertex -8.0000 2.8000 4.0000
    endloop
endfacet
facet normal 0.0000 18.0000 0.0000
    outer loop
        vertex 8.0000 2.8000 -4.0000
        vertex 7.6000 2.8000 -3.6000
        vertex 7.6000 2.8000 3.6000
    endloop
endfacet
facet normal 0.0000 20.0000 0.0000
    outer loop
        vertex 7.6000 2.8000 3.6000
        vertex 8.0000 2.8000 4.0000
        vertex 8.0000 2.8000 -4.0000
    endloop
endfacet
facet normal 0.0000 38.0000 0.0000
    outer loop
        vertex 8.0000 2.8000 4.0000
        vertex 7.6000 2.8000 3.6000
        vertex -7.6000 2.8000 3.6000
    endloop
endfacet
facet normal 0.0000 40.0000 0.0000
    outer loop
        vertex -7.6000 2.8000 3.6000
        vertex -8.0000 2.8000 4.0000
        vertex 8.0000 2.8000 4.0000
    endloop
endfacet
facet normal 0.0000 38.0000 0.0000
    outer loop
        vertex -8.0000 2.8000 -4.0000
        vertex -7.6000 2.8000 -3.6000
        vertex 7.6000 2.8000 -3.6000
    endloop
endfacet
facet normal 0.0000 40.0000 0.0000
    outer loop
        vertex 7.6000 2.8000 -3.6000
        vertex 8.0000 2.8000 -4.0000
        vertex -8.0000 2.8000 -4.0000
    endloop
endfacet
facet normal 0.0000 -7.5625 0.0000
    outer loop
        vertex -5.6480 0.0000 -1.6480
        vertex -6.7480 0.0000 -1.6480
        vertex -6.7480 0.0000 -2.7480
    endloop
endfacet
facet normal 0.0000 -7.5625 0.0000
    outer loop
        vertex -6.7480 0.0000 -2.7480
        vertex -5.6480 0.0000 -2.7480
        vertex -5.6480 0.0000 -1.6480
    endloop
endfacet
facet normal 0.0000 -7.5625 0.0000
    outer loop
        vertex -5.6480 0.0000 -0.1840
        vertex -6.7480 0.0000 -0.1840
        vertex -6.7480 0.0000 -1.2840
    endloop
endfacet
facet normal 0.0000 -7.5625 0.0000
    outer loop
        vertex -6.7480 0.0000 -1.2840
        vertex -5.6480 0.0000 -1.2840
        vertex -5.6480 0.0000 -0.1840
    endloop
endfacet
facet normal 0.0000 -7.5625 0.0000
    outer loop
        vertex -5.6480 0.0000 1.2840
        vertex -6.7480 0.0000 1.2840
        vertex -6.7480 0.0000 0.1840
    endloop
endfacet
facet normal 0.0000 -7.5625 0.0000
    outer loop
        vertex -6.7480 0.0000 0.1840
        vertex -5.6480 0.0000 0.1840
        vertex -5.6480 0.0000 1.2840
    endloop
endfacet
facet normal 0.0000 -7.5625 0.0000
    outer loop
        vertex -5.6480 0.0000 2.7480
        vertex -6.7480 0.0000 2.7480
        vertex -6.7480 0.0000 1.6480
    endloop
endfacet
facet normal 0.0000 -7.5625 0.0000
    outer loop
        vertex -6.7480 0.0000 1.6480
        vertex -5.6480 0.0000 1.6480
        vertex -5.6480 0.0000 2.7480
    endloop
endfacet
facet normal 0.0000 -7.5625 0.0000
    outer loop
        vertex -4.1840 0.0000 -1.6480
        vertex -5.2840 0.0000 -1.6480
        vertex -5.2840 0.0000 -2.7480
    endloop
endfacet
facet normal 0.0000 -7.5625 0.0000
    outer loop
        vertex -5.2840 0.0000 -2.7480
        vertex -4.1840 0.0000 -2.7480
        vertex -4.1840 0.0000 -1.6480
    endloop
endfacet
facet normal 0.0000 -7.5625 0.0000
    outer loop
        vertex -4.1840 0.0000 -0.1840
        vertex -5.2840 0.0000 -0.1840
        vertex -5.2840 0.0000 -1.2840
    endloop
endfacet
facet normal 0.0000 -7.5625 0.0000
    outer loop
        vertex -5.2840 0.0000 -1.2840
        vertex -4.1840 0.0000 -1.2840
        vertex -4.1840 0.0000 -0.1840
    endloop
endfacet
facet normal 0.0000 -7.5625 0.0000
    outer loop
        vertex -4.1840 0.0000 1.2840
        vertex -5.2840 0.0000 1.2840
        vertex -5.2840 0.0000 0.1840
    endloop
endfacet
facet normal 0.0000 -7.5625 0.0000
    outer loop
        vertex -5.2840 0.0000 0.1840
        vertex -4.1840 0.0000 0.1840
        vertex -4.1840 0.0000 1.2840
    endloop
endfacet
facet normal 0.0000 -7.5625 0.0000
    outer loop
        vertex -5.2840 0.0000 1.6480
        vertex -4.1840 0.0000 1.6480
        vertex -4.1840 0.0000 2.7480
    endloop
endfacet
facet normal 0.0000 -7.5625 0.0000
    outer loop
        vertex -4.1840 0.0000 2.7480
        vertex -5.2840 0.0000 2.7480
        vertex -5.2840 0.0000 1.6480
    endloop
endfacet
facet normal 0.0000 -7.5625 0.0000
    outer loop
        vertex -2.7160 0.0000 -1.6480
        vertex -3.8160 0.0000 -1.6480
        vertex -3.8160 0.0000 -2.7480
    endloop
endfacet
facet normal 0.0000 -7.5625 0.0000
    outer loop
        vertex -3.8160 0.0000 -2.7480
        vertex -2.7160 0.0000 -2.7480
        vertex -2.7160 0.0000 -1.6480
    endloop
endfacet
facet normal 0.0000 -7.5625 0.0000
    outer loop
        vertex -2.7160 0.0000 -0.1840
        vertex -3.8160 0.0000 -0.1840
        vertex -3.8160 0.0000 -1.2840
    endloop
endfacet
facet normal 0.0000 -7.5625 0.0000
    outer loop
        vertex -3.8160 0.0000 -1.2840
        vertex -2.7160 0.0000 -1.2840
        vertex -2.7160 0.0000 -0.1840
    endloop
endfacet
facet normal 0.0000 -7.5625 0.0000
    outer loop
        vertex -2.7160 0.0000 1.2840
        vertex -3.8160 0.0000 1.2840
        vertex -3.8160 0.0000 0.1840
    endloop
endfacet
facet normal 0.0000 -7.5625 0.0000
    outer loop
        vertex -3.8160 0.0000 0.1840
        vertex -2.7160 0.0000 0.1840
        vertex -2.7160 0.0000 1.2840
    endloop
endfacet
facet normal 0.0000 -7.5625 0.0000
    outer loop
        vertex -2.7160 0.0000 2.7480
        vertex -3.8160 0.0000 2.7480
        vertex -3.8160 0.0000 1.6480
    endloop
endfacet
facet normal 0.0000 -7.5625 0.0000
    outer loop
        vertex -3.8160 0.0000 1.6480
        vertex -2.7160 0.0000 1.6480
        vertex -2.7160 0.0000 2.7480
    endloop
endfacet
facet normal 0.0000 -7.5625 0.0000
    outer loop
        vertex -1.2480 0.0000 -1.6480
        vertex -2.3480 0.0000 -1.6480
        vertex -2.3480 0.0000 -2.7480
    endloop
endfacet
facet normal 0.0000 -7.5625 0.0000
    outer loop
        vertex -2.3480 0.0000 -2.7480
        vertex -1.2480 0.0000 -2.7480
        vertex -1.2480 0.0000 -1.6480
    endloop
endfacet
facet normal 0.0000 -7.5625 0.0000
    outer loop
        vertex -1.2480 0.0000 -0.1840
        vertex -2.3480 0.0000 -0.1840
        vertex -2.3480 0.0000 -1.2840
    endloop
endfacet
facet normal 0.0000 -7.5625 0.0000
    outer loop
        vertex -2.3480 0.0000 -1.2840
        vertex -1.2480 0.0000 -1.2840
        vertex -1.2480 0.0000 -0.1840
    endloop
endfacet
facet normal 0.0000 -7.5625 0.0000
    outer loop
        vertex -1.2480 0.0000 1.2840
        vertex -2.3480 0.0000 1.2840
        vertex -2.3480 0.0000 0.1840
    endloop
endfacet
facet normal 0.0000 -7.5625 0.0000
    outer loop
        vertex -2.3480 0.0000 0.1840
        vertex -1.2480 0.0000 0.1840
        vertex -1.2480 0.0000 1.2840
    endloop
endfacet
facet normal 0.0000 -7.5625 0.0000
    outer loop
        vertex -1.2480 0.0000 2.7480
        vertex -2.3480 0.0000 2.7480
        vertex -2.3480 0.0000 1.6480
    endloop
endfacet
facet normal 0.0000 -7.5625 0.0000
    outer loop
        vertex -2.3480 0.0000 1.6480
        vertex -1.2480 0.0000 1.6480
        vertex -1.2480 0.0000 2.7480
    endloop
endfacet
facet normal 0.0000 -47.8500 0.0000
    outer loop
        vertex 1.6000 0.0000 2.7480
        vertex -0.6000 0.0000 2.7480
        vertex -0.6000 0.0000 -0.7320
    endloop
endfacet
facet normal 0.0000 -47.8500 0.0000
    outer loop
        vertex -0.6000 0.0000 -0.7320
        vertex 1.6000 0.0000 -0.7320
        vertex 1.6000 0.0000 2.7480
    endloop
endfacet
facet normal 0.0000 -18.3000 0.0000
    outer loop
        vertex 4.1760 0.0000 2.7480
        vertex 2.1760 0.0000 2.7480
        vertex 2.1760 0.0000 1.2840
    endloop
endfacet
facet normal 0.0000 -18.3000 0.0000
    outer loop
        vertex 2.1760 0.0000 1.2840
        vertex 4.1760 0.0000 1.2840
        vertex 4.1760 0.0000 2.7480
    endloop
endfacet
facet normal 0.0000 -25.5000 0.0000
    outer loop
        vertex -8.0000 0.0000 -4.0000
        vertex -7.4000 0.0000 -3.4000
        vertex -7.4000 0.0000 3.4000
    endloop
endfacet
facet normal 0.0000 -30.0000 0.0000
    outer loop
        vertex -7.4000 0.0000 3.4000
        vertex -8.0000 0.0000 4.0000
        vertex -8.0000 0.0000 -4.0000
    endloop
endfacet
facet normal 0.0000 -55.5000 0.0000
    outer loop
        vertex 8.0000 0.0000 -4.0000
        vertex 7.4000 0.0000 -3.4000
        vertex -7.4000 0.0000 -3.4000
    endloop
endfacet
facet normal 0.0000 -60.0000 0.0000
    outer loop
        vertex -7.4000 0.0000 -3.4000
        vertex -8.0000 0.0000 -4.0000
        vertex 8.0000 0.0000 -4.0000
    endloop
endfacet
facet normal 0.0000 -55.5000 0.0000
    outer loop
        vertex -8.0000 0.0000 4.0000
        vertex -7.4000 0.0000 3.4000
        vertex 7.4000 0.0000 3.4000
    endloop
endfacet
facet normal 0.0000 -60.0000 0.0000
    outer loop
        vertex 7.4000 0.0000 3.4000
        vertex 8.0000 0.0000 4.0000
        vertex -8.0000 0.0000 4.0000
    endloop
endfacet
facet normal 0.0000 -25.5000 0.0000
    outer loop
        vertex 8.0000 0.0000 4.0000
        vertex 7.4000 0.0000 3.4000
        vertex 7.4000 0.0000 -3.4000
    endloop
endfacet
facet normal 0.0000 -30.0000 0.0000
    outer loop
        vertex 7.4000 0.0000 -3.4000
        vertex 8.0000 0.0000 -4.0000
        vertex 8.0000 0.0000 4.0000
    endloop
endfacet
facet normal 0.0000 -67.2342 0.0000
    outer loop
        vertex 6.7480 0.0000 -1.2840
        vertex -0.6000 0.0000 -1.2840
        vertex -0.6000 0.0000 -2.7480
    endloop
endfacet
facet normal 0.0000 -67.2342 0.0000
    outer loop
        vertex -0.6000 0.0000 -2.7480
        vertex 6.7480 0.0000 -2.7480
        vertex 6.7480 0.0000 -1.2840
    endloop
endfacet
facet normal 0.0000 -41.8338 0.0000
    outer loop
        vertex 6.7480 0.0000 0.7320
        vertex 2.1760 0.0000 0.7320
        vertex 2.1760 0.0000 -0.7320
    endloop
endfacet
facet normal 0.0000 -41.8338 0.0000
    outer loop
        vertex 2.1760 0.0000 -0.7320
        vertex 6.7480 0.0000 -0.7320
        vertex 6.7480 0.0000 0.7320
    endloop
endfacet
facet normal 0.0000 -18.3000 0.0000
    outer loop
        vertex 6.7480 0.0000 2.7480
        vertex 4.7480 0.0000 2.7480
        vertex 4.7480 0.0000 1.2840
    endloop
endfacet
facet normal 0.0000 -18.3000 0.0000
    outer loop
        vertex 4.7480 0.0000 1.2840
        vertex 6.7480 0.0000 1.2840
        vertex 6.7480 0.0000 2.7480
    endloop
endfacet
facet normal 0.0000 -4.4825 0.0000
    outer loop
        vertex -6.7480 0.0000 -1.6480
        vertex -7.4000 0.0000 -3.4000
        vertex -6.7480 0.0000 -2.7480
    endloop
endfacet
facet normal 0.0000 -1.4833 0.0000
    outer loop
        vertex -6.7480 0.0000 -1.2840
        vertex -7.4000 0.0000 -3.4000
        vertex -6.7480 0.0000 -1.6480
    endloop
endfacet
facet normal 0.0000 -1.4833 0.0000
    outer loop
        vertex -7.4000 0.0000 3.4000
        vertex -6.7480 0.0000 1.2840
        vertex -6.7480 0.0000 1.6480
    endloop
endfacet
facet normal 0.0000 -4.4825 0.0000
    outer loop
        vertex -7.4000 0.0000 3.4000
        vertex -6.7480 0.0000 0.1840
        vertex -6.7480 0.0000 1.2840
    endloop
endfacet
facet normal 0.0000 -4.4825 0.0000
    outer loop
        vertex -7.4000 0.0000 -3.4000
        vertex -6.7480 0.0000 -1.2840
        vertex -6.7480 0.0000 -0.1840
    endloop
endfacet
facet normal 0.0000 -27.7100 0.0000
    outer loop
        vertex -6.7480 0.0000 -0.1840
        vertex -7.4000 0.0000 3.4000
        vertex -7.4000 0.0000 -3.4000
    endloop
endfacet
facet normal 0.0000 -1.4996 0.0000
    outer loop
        vertex -7.4000 0.0000 3.4000
        vertex -6.7480 0.0000 -0.1840
        vertex -6.7480 0.0000 0.1840
    endloop
endfacet
facet normal 0.0000 -4.4825 0.0000
    outer loop
        vertex -7.4000 0.0000 3.4000
        vertex -6.7480 0.0000 1.6480
        vertex -6.7480 0.0000 2.7480
    endloop
endfacet
facet normal 0.0000 -4.4825 0.0000
    outer loop
        vertex -5.6480 0.0000 -2.7480
        vertex -6.7480 0.0000 -2.7480
        vertex -7.4000 0.0000 -3.4000
    endloop
endfacet
facet normal 0.0000 -2.5025 0.0000
    outer loop
        vertex -5.6480 0.0000 -1.2840
        vertex -6.7480 0.0000 -1.2840
        vertex -6.7480 0.0000 -1.6480
    endloop
endfacet
facet normal 0.0000 -2.5025 0.0000
    outer loop
        vertex -6.7480 0.0000 -1.6480
        vertex -5.6480 0.0000 -1.6480
        vertex -5.6480 0.0000 -1.2840
    endloop
endfacet
facet normal 0.0000 -2.5300 0.0000
    outer loop
        vertex -5.6480 0.0000 0.1840
        vertex -6.7480 0.0000 0.1840
        vertex -6.7480 0.0000 -0.1840
    endloop
endfacet
facet normal 0.0000 -2.5300 0.0000
    outer loop
        vertex -6.7480 0.0000 -0.1840
        vertex -5.6480 0.0000 -0.1840
        vertex -5.6480 0.0000 0.1840
    endloop
endfacet
facet normal 0.0000 -2.5025 0.0000
    outer loop
        vertex -5.6480 0.0000 1.6480
        vertex -6.7480 0.0000 1.6480
        vertex -6.7480 0.0000 1.2840
    endloop
endfacet
facet normal 0.0000 -2.5025 0.0000
    outer loop
        vertex -6.7480 0.0000 1.2840
        vertex -5.6480 0.0000 1.2840
        vertex -5.6480 0.0000 1.6480
    endloop
endfacet
facet normal 0.0000 -4.4825 0.0000
    outer loop
        vertex -7.4000 0.0000 3.4000
        vertex -6.7480 0.0000 2.7480
        vertex -5.6480 0.0000 2.7480
    endloop
endfacet
facet normal 0.0000 -1.4833 0.0000
    outer loop
        vertex -5.2840 0.0000 -2.7480
        vertex -5.6480 0.0000 -2.7480
        vertex -7.4000 0.0000 -3.4000
    endloop
endfacet
facet normal 0.0000 -2.5025 0.0000
    outer loop
        vertex -5.2840 0.0000 -1.6480
        vertex -5.6480 0.0000 -1.6480
        vertex -5.6480 0.0000 -2.7480
    endloop
endfacet
facet normal 0.0000 -2.5025 0.0000
    outer loop
        vertex -5.6480 0.0000 -2.7480
        vertex -5.2840 0.0000 -2.7480
        vertex -5.2840 0.0000 -1.6480
    endloop
endfacet
facet normal 0.0000 -0.8281 0.0000
    outer loop
        vertex -5.2840 0.0000 -1.2840
        vertex -5.6480 0.0000 -1.2840
        vertex -5.6480 0.0000 -1.6480
    endloop
endfacet
facet normal 0.0000 -0.8281 0.0000
    outer loop
        vertex -5.6480 0.0000 -1.6480
        vertex -5.2840 0.0000 -1.6480
        vertex -5.2840 0.0000 -1.2840
    endloop
endfacet
facet normal 0.0000 -2.5025 0.0000
    outer loop
        vertex -5.2840 0.0000 -0.1840
        vertex -5.6480 0.0000 -0.1840
        vertex -5.6480 0.0000 -1.2840
    endloop
endfacet
facet normal 0.0000 -2.5025 0.0000
    outer loop
        vertex -5.6480 0.0000 -1.2840
        vertex -5.2840 0.0000 -1.2840
        vertex -5.2840 0.0000 -0.1840
    endloop
endfacet
facet normal 0.0000 -0.8372 0.0000
    outer loop
        vertex -5.2840 0.0000 0.1840
        vertex -5.6480 0.0000 0.1840
        vertex -5.6480 0.0000 -0.1840
    endloop
endfacet
facet normal 0.0000 -0.8372 0.0000
    outer loop
        vertex -5.6480 0.0000 -0.1840
        vertex -5.2840 0.0000 -0.1840
        vertex -5.2840 0.0000 0.1840
    endloop
endfacet
facet normal 0.0000 -2.5025 0.0000
    outer loop
        vertex -5.2840 0.0000 1.2840
        vertex -5.6480 0.0000 1.2840
        vertex -5.6480 0.0000 0.1840
    endloop
endfacet
facet normal 0.0000 -2.5025 0.0000
    outer loop
        vertex -5.6480 0.0000 0.1840
        vertex -5.2840 0.0000 0.1840
        vertex -5.2840 0.0000 1.2840
    endloop
endfacet
facet normal 0.0000 -0.8281 0.0000
    outer loop
        vertex -5.2840 0.0000 1.6480
        vertex -5.6480 0.0000 1.6480
        vertex -5.6480 0.0000 1.2840
    endloop
endfacet
facet normal 0.0000 -0.8281 0.0000
    outer loop
        vertex -5.6480 0.0000 1.2840
        vertex -5.2840 0.0000 1.2840
        vertex -5.2840 0.0000 1.6480
    endloop
endfacet
facet normal 0.0000 -2.5025 0.0000
    outer loop
        vertex -5.2840 0.0000 2.7480
        vertex -5.6480 0.0000 2.7480
        vertex -5.6480 0.0000 1.6480
    endloop
endfacet
facet normal 0.0000 -2.5025 0.0000
    outer loop
        vertex -5.6480 0.0000 1.6480
        vertex -5.2840 0.0000 1.6480
        vertex -5.2840 0.0000 2.7480
    endloop
endfacet
facet normal 0.0000 -1.4833 0.0000
    outer loop
        vertex -7.4000 0.0000 3.4000
        vertex -5.6480 0.0000 2.7480
        vertex -5.2840 0.0000 2.7480
    endloop
endfacet
facet normal 0.0000 -4.4825 0.0000
    outer loop
        vertex -4.1840 0.0000 -2.7480
        vertex -5.2840 0.0000 -2.7480
        vertex -7.4000 0.0000 -3.4000
    endloop
endfacet
facet normal 0.0000 -2.5025 0.0000
    outer loop
        vertex -4.1840 0.0000 -1.2840
        vertex -5.2840 0.0000 -1.2840
        vertex -5.2840 0.0000 -1.6480
    endloop
endfacet
facet normal 0.0000 -2.5025 0.0000
    outer loop
        vertex -5.2840 0.0000 -1.6480
        vertex -4.1840 0.0000 -1.6480
        vertex -4.1840 0.0000 -1.2840
    endloop
endfacet
facet normal 0.0000 -2.5300 0.0000
    outer loop
        vertex -4.1840 0.0000 0.1840
        vertex -5.2840 0.0000 0.1840
        vertex -5.2840 0.0000 -0.1840
    endloop
endfacet
facet normal 0.0000 -2.5300 0.0000
    outer loop
        vertex -5.2840 0.0000 -0.1840
        vertex -4.1840 0.0000 -0.1840
        vertex -4.1840 0.0000 0.1840
    endloop
endfacet
facet normal 0.0000 -2.5025 0.0000
    outer loop
        vertex -4.1840 0.0000 1.6480
        vertex -5.2840 0.0000 1.6480
        vertex -5.2840 0.0000 1.2840
    endloop
endfacet
facet normal 0.0000 -2.5025 0.0000
    outer loop
        vertex -5.2840 0.0000 1.2840
        vertex -4.1840 0.0000 1.2840
        vertex -4.1840 0.0000 1.6480
    endloop
endfacet
facet normal 0.0000 -4.4825 0.0000
    outer loop
        vertex -7.4000 0.0000 3.4000
        vertex -5.2840 0.0000 2.7480
        vertex -4.1840 0.0000 2.7480
    endloop
endfacet
facet normal 0.0000 -1.4996 0.0000
    outer loop
        vertex -3.8160 0.0000 -2.7480
        vertex -4.1840 0.0000 -2.7480
        vertex -7.4000 0.0000 -3.4000
    endloop
endfacet
facet normal 0.0000 -2.5300 0.0000
    outer loop
        vertex -3.8160 0.0000 -1.6480
        vertex -4.1840 0.0000 -1.6480
        vertex -4.1840 0.0000 -2.7480
    endloop
endfacet
facet normal 0.0000 -2.5300 0.0000
    outer loop
        vertex -4.1840 0.0000 -2.7480
        vertex -3.8160 0.0000 -2.7480
        vertex -3.8160 0.0000 -1.6480
    endloop
endfacet
facet normal 0.0000 -0.8372 0.0000
    outer loop
        vertex -3.8160 0.0000 -1.2840
        vertex -4.1840 0.0000 -1.2840
        vertex -4.1840 0.0000 -1.6480
    endloop
endfacet
facet normal 0.0000 -0.8372 0.0000
    outer loop
        vertex -4.1840 0.0000 -1.6480
        vertex -3.8160 0.0000 -1.6480
        vertex -3.8160 0.0000 -1.2840
    endloop
endfacet
facet normal 0.0000 -2.5300 0.0000
    outer loop
        vertex -3.8160 0.0000 -0.1840
        vertex -4.1840 0.0000 -0.1840
        vertex -4.1840 0.0000 -1.2840
    endloop
endfacet
facet normal 0.0000 -2.5300 0.0000
    outer loop
        vertex -4.1840 0.0000 -1.2840
        vertex -3.8160 0.0000 -1.2840
        vertex -3.8160 0.0000 -0.1840
    endloop
endfacet
facet normal 0.0000 -0.8464 0.0000
    outer loop
        vertex -3.8160 0.0000 0.1840
        vertex -4.1840 0.0000 0.1840
        vertex -4.1840 0.0000 -0.1840
    endloop
endfacet
facet normal 0.0000 -0.8464 0.0000
    outer loop
        vertex -4.1840 0.0000 -0.1840
        vertex -3.8160 0.0000 -0.1840
        vertex -3.8160 0.0000 0.1840
    endloop
endfacet
facet normal 0.0000 -2.5300 0.0000
    outer loop
        vertex -3.8160 0.0000 1.2840
        vertex -4.1840 0.0000 1.2840
        vertex -4.1840 0.0000 0.1840
    endloop
endfacet
facet normal 0.0000 -2.5300 0.0000
    outer loop
        vertex -4.1840 0.0000 0.1840
        vertex -3.8160 0.0000 0.1840
        vertex -3.8160 0.0000 1.2840
    endloop
endfacet
facet normal 0.0000 -0.8372 0.0000
    outer loop
        vertex -3.8160 0.0000 1.6480
        vertex -4.1840 0.0000 1.6480
        vertex -4.1840 0.0000 1.2840
    endloop
endfacet
facet normal 0.0000 -0.8372 0.0000
    outer loop
        vertex -4.1840 0.0000 1.2840
        vertex -3.8160 0.0000 1.2840
        vertex -3.8160 0.0000 1.6480
    endloop
endfacet
facet normal 0.0000 -2.5300 0.0000
    outer loop
        vertex -3.8160 0.0000 2.7480
        vertex -4.1840 0.0000 2.7480
        vertex -4.1840 0.0000 1.6480
    endloop
endfacet
facet normal 0.0000 -2.5300 0.0000
    outer loop
        vertex -4.1840 0.0000 1.6480
        vertex -3.8160 0.0000 1.6480
        vertex -3.8160 0.0000 2.7480
    endloop
endfacet
facet normal 0.0000 -1.4996 0.0000
    outer loop
        vertex -7.4000 0.0000 3.4000
        vertex -4.1840 0.0000 2.7480
        vertex -3.8160 0.0000 2.7480
    endloop
endfacet
facet normal 0.0000 -4.4825 0.0000
    outer loop
        vertex -2.7160 0.0000 -2.7480
        vertex -3.8160 0.0000 -2.7480
        vertex -7.4000 0.0000 -3.4000
    endloop
endfacet
facet normal 0.0000 -2.5025 0.0000
    outer loop
        vertex -2.7160 0.0000 -1.2840
        vertex -3.8160 0.0000 -1.2840
        vertex -3.8160 0.0000 -1.6480
    endloop
endfacet
facet normal 0.0000 -2.5025 0.0000
    outer loop
        vertex -3.8160 0.0000 -1.6480
        vertex -2.7160 0.0000 -1.6480
        vertex -2.7160 0.0000 -1.2840
    endloop
endfacet
facet normal 0.0000 -2.5300 0.0000
    outer loop
        vertex -2.7160 0.0000 0.1840
        vertex -3.8160 0.0000 0.1840
        vertex -3.8160 0.0000 -0.1840
    endloop
endfacet
facet normal 0.0000 -2.5300 0.0000
    outer loop
        vertex -3.8160 0.0000 -0.1840
        vertex -2.7160 0.0000 -0.1840
        vertex -2.7160 0.0000 0.1840
    endloop
endfacet
facet normal 0.0000 -2.5025 0.0000
    outer loop
        vertex -2.7160 0.0000 1.6480
        vertex -3.8160 0.0000 1.6480
        vertex -3.8160 0.0000 1.2840
    endloop
endfacet
facet normal 0.0000 -2.5025 0.0000
    outer loop
        vertex -3.8160 0.0000 1.2840
        vertex -2.7160 0.0000 1.2840
        vertex -2.7160 0.0000 1.6480
    endloop
endfacet
facet normal 0.0000 -4.4825 0.0000
    outer loop
        vertex -7.4000 0.0000 3.4000
        vertex -3.8160 0.0000 2.7480
        vertex -2.7160 0.0000 2.7480
    endloop
endfacet
facet normal 0.0000 -1.4996 0.0000
    outer loop
        vertex -2.3480 0.0000 -2.7480
        vertex -2.7160 0.0000 -2.7480
        vertex -7.4000 0.0000 -3.4000
    endloop
endfacet
facet normal 0.0000 -2.5300 0.0000
    outer loop
        vertex -2.3480 0.0000 -1.6480
        vertex -2.7160 0.0000 -1.6480
        vertex -2.7160 0.0000 -2.7480
    endloop
endfacet
facet normal 0.0000 -2.5300 0.0000
    outer loop
        vertex -2.7160 0.0000 -2.7480
        vertex -2.3480 0.0000 -2.7480
        vertex -2.3480 0.0000 -1.6480
    endloop
endfacet
facet normal 0.0000 -0.8372 0.0000
    outer loop
        vertex -2.3480 0.0000 -1.2840
        vertex -2.7160 0.0000 -1.2840
        vertex -2.7160 0.0000 -1.6480
    endloop
endfacet
facet normal 0.0000 -0.8372 0.0000
    outer loop
        vertex -2.7160 0.0000 -1.6480
        vertex -2.3480 0.0000 -1.6480
        vertex -2.3480 0.0000 -1.2840
    endloop
endfacet
facet normal 0.0000 -2.5300 0.0000
    outer loop
        vertex -2.3480 0.0000 -0.1840
        vertex -2.7160 0.0000 -0.1840
        vertex -2.7160 0.0000 -1.2840
    endloop
endfacet
facet normal 0.0000 -2.5300 0.0000
    outer loop
        vertex -2.7160 0.0000 -1.2840
        vertex -2.3480 0.0000 -1.2840
        vertex -2.3480 0.0000 -0.1840
    endloop
endfacet
facet normal 0.0000 -0.8464 0.0000
    outer loop
        vertex -2.3480 0.0000 0.1840
        vertex -2.7160 0.0000 0.1840
        vertex -2.7160 0.0000 -0.1840
    endloop
endfacet
facet normal 0.0000 -0.8464 0.0000
    outer loop
        vertex -2.7160 0.0000 -0.1840
        vertex -2.3480 0.0000 -0.1840
        vertex -2.3480 0.0000 0.1840
    endloop
endfacet
facet normal 0.0000 -2.5300 0.0000
    outer loop
        vertex -2.3480 0.0000 1.2840
        vertex -2.7160 0.0000 1.2840
        vertex -2.7160 0.0000 0.1840
    endloop
endfacet
facet normal 0.0000 -2.5300 0.0000
    outer loop
        vertex -2.7160 0.0000 0.1840
        vertex -2.3480 0.0000 0.1840
        vertex -2.3480 0.0000 1.2840
    endloop
endfacet
facet normal 0.0000 -0.8372 0.0000
    outer loop
        vertex -2.3480 0.0000 1.6480
        vertex -2.7160 0.0000 1.6480
        vertex -2.7160 0.0000 1.2840
    endloop
endfacet
facet normal 0.0000 -0.8372 0.0000
    outer loop
        vertex -2.7160 0.0000 1.2840
        vertex -2.3480 0.0000 1.2840
        vertex -2.3480 0.0000 1.6480
    endloop
endfacet
facet normal 0.0000 -2.5300 0.0000
    outer loop
        vertex -2.3480 0.0000 2.7480
        vertex -2.7160 0.0000 2.7480
        vertex -2.7160 0.0000 1.6480
    endloop
endfacet
facet normal 0.0000 -2.5300 0.0000
    outer loop
        vertex -2.7160 0.0000 1.6480
        vertex -2.3480 0.0000 1.6480
        vertex -2.3480 0.0000 2.7480
    endloop
endfacet
facet normal 0.0000 -1.4996 0.0000
    outer loop
        vertex -7.4000 0.0000 3.4000
        vertex -2.7160 0.0000 2.7480
        vertex -2.3480 0.0000 2.7480
    endloop
endfacet
facet normal 0.0000 -4.4825 0.0000
    outer loop
        vertex -1.2480 0.0000 -2.7480
        vertex -2.3480 0.0000 -2.7480
        vertex -7.4000 0.0000 -3.4000
    endloop
endfacet
facet normal 0.0000 -2.5025 0.0000
    outer loop
        vertex -1.2480 0.0000 -1.2840
        vertex -2.3480 0.0000 -1.2840
        vertex -2.3480 0.0000 -1.6480
    endloop
endfacet
facet normal 0.0000 -2.5025 0.0000
    outer loop
        vertex -2.3480 0.0000 -1.6480
        vertex -1.2480 0.0000 -1.6480
        vertex -1.2480 0.0000 -1.2840
    endloop
endfacet
facet normal 0.0000 -2.5300 0.0000
    outer loop
        vertex -1.2480 0.0000 0.1840
        vertex -2.3480 0.0000 0.1840
        vertex -2.3480 0.0000 -0.1840
    endloop
endfacet
facet normal 0.0000 -2.5300 0.0000
    outer loop
        vertex -2.3480 0.0000 -0.1840
        vertex -1.2480 0.0000 -0.1840
        vertex -1.2480 0.0000 0.1840
    endloop
endfacet
facet normal 0.0000 -2.5025 0.0000
    outer loop
        vertex -1.2480 0.0000 1.6480
        vertex -2.3480 0.0000 1.6480
        vertex -2.3480 0.0000 1.2840
    endloop
endfacet
facet normal 0.0000 -2.5025 0.0000
    outer loop
        vertex -2.3480 0.0000 1.2840
        vertex -1.2480 0.0000 1.2840
        vertex -1.2480 0.0000 1.6480
    endloop
endfacet
facet normal 0.0000 -4.4825 0.0000
    outer loop
        vertex -7.4000 0.0000 3.4000
        vertex -2.3480 0.0000 2.7480
        vertex -1.2480 0.0000 2.7480
    endloop
endfacet
facet normal 0.0000 -2.6406 0.0000
    outer loop
        vertex -0.6000 0.0000 -2.7480
        vertex -1.2480 0.0000 -2.7480
        vertex -7.4000 0.0000 -3.4000
    endloop
endfacet
facet normal 0.0000 -4.4550 0.0000
    outer loop
        vertex -1.2480 0.0000 -1.6480
        vertex -1.2480 0.0000 -2.7480
        vertex -0.6000 0.0000 -2.7480
    endloop
endfacet
facet normal 0.0000 -1.4742 0.0000
    outer loop
        vertex -0.6000 0.0000 -1.2840
        vertex -1.2480 0.0000 -1.2840
        vertex -1.2480 0.0000 -1.6480
    endloop
endfacet
facet normal 0.0000 -5.9292 0.0000
    outer loop
        vertex -1.2480 0.0000 -1.6480
        vertex -0.6000 0.0000 -2.7480
        vertex -0.6000 0.0000 -1.2840
    endloop
endfacet
facet normal 0.0000 -4.4550 0.0000
    outer loop
        vertex -1.2480 0.0000 -0.1840
        vertex -1.2480 0.0000 -1.2840
        vertex -0.6000 0.0000 -1.2840
    endloop
endfacet
facet normal 0.0000 -1.4904 0.0000
    outer loop
        vertex -0.6000 0.0000 -0.7320
        vertex -1.2480 0.0000 0.1840
        vertex -1.2480 0.0000 -0.1840
    endloop
endfacet
facet normal 0.0000 -2.2356 0.0000
    outer loop
        vertex -1.2480 0.0000 -0.1840
        vertex -0.6000 0.0000 -1.2840
        vertex -0.6000 0.0000 -0.7320
    endloop
endfacet
facet normal 0.0000 -4.4550 0.0000
    outer loop
        vertex -0.6000 0.0000 2.7480
        vertex -1.2480 0.0000 1.2840
        vertex -1.2480 0.0000 0.1840
    endloop
endfacet
facet normal 0.0000 -14.0940 0.0000
    outer loop
        vertex -1.2480 0.0000 0.1840
        vertex -0.6000 0.0000 -0.7320
        vertex -0.6000 0.0000 2.7480
    endloop
endfacet
facet normal 0.0000 -1.4742 0.0000
    outer loop
        vertex -0.6000 0.0000 2.7480
        vertex -1.2480 0.0000 1.6480
        vertex -1.2480 0.0000 1.2840
    endloop
endfacet
facet normal 0.0000 -4.4550 0.0000
    outer loop
        vertex -0.6000 0.0000 2.7480
        vertex -1.2480 0.0000 2.7480
        vertex -1.2480 0.0000 1.6480
    endloop
endfacet
facet normal 0.0000 -2.6406 0.0000
    outer loop
        vertex -7.4000 0.0000 3.4000
        vertex -1.2480 0.0000 2.7480
        vertex -0.6000 0.0000 2.7480
    endloop
endfacet
facet normal 0.0000 -7.5900 0.0000
    outer loop
        vertex 1.6000 0.0000 -0.7320
        vertex -0.6000 0.0000 -0.7320
        vertex -0.6000 0.0000 -1.2840
    endloop
endfacet
facet normal 0.0000 -5.2704 0.0000
    outer loop
        vertex 2.1760 0.0000 0.7320
        vertex 1.6000 0.0000 -0.7320
        vertex 2.1760 0.0000 -0.7320
    endloop
endfacet
facet normal 0.0000 -5.2704 0.0000
    outer loop
        vertex 2.1760 0.0000 2.7480
        vertex 1.6000 0.0000 2.7480
        vertex 2.1760 0.0000 1.2840
    endloop
endfacet
facet normal 0.0000 -1.9872 0.0000
    outer loop
        vertex 2.1760 0.0000 0.7320
        vertex 2.1760 0.0000 1.2840
        vertex 1.6000 0.0000 2.7480
    endloop
endfacet
facet normal 0.0000 -12.5280 0.0000
    outer loop
        vertex 1.6000 0.0000 2.7480
        vertex 1.6000 0.0000 -0.7320
        vertex 2.1760 0.0000 0.7320
    endloop
endfacet
facet normal 0.0000 -6.9000 0.0000
    outer loop
        vertex 4.1760 0.0000 1.2840
        vertex 2.1760 0.0000 1.2840
        vertex 2.1760 0.0000 0.7320
    endloop
endfacet
facet normal 0.0000 -5.2338 0.0000
    outer loop
        vertex 4.7480 0.0000 2.7480
        vertex 4.1760 0.0000 2.7480
        vertex 4.1760 0.0000 1.2840
    endloop
endfacet
facet normal 0.0000 -5.2338 0.0000
    outer loop
        vertex 4.1760 0.0000 1.2840
        vertex 4.7480 0.0000 1.2840
        vertex 4.7480 0.0000 2.7480
    endloop
endfacet
facet normal 0.0000 -15.7734 0.0000
    outer loop
        vertex 6.7480 0.0000 -0.7320
        vertex 2.1760 0.0000 -0.7320
        vertex 6.7480 0.0000 -1.2840
    endloop
endfacet
facet normal 0.0000 -1.9872 0.0000
    outer loop
        vertex 2.1760 0.0000 -0.7320
        vertex 1.6000 0.0000 -0.7320
        vertex -0.6000 0.0000 -1.2840
    endloop
endfacet
facet normal 0.0000 -25.3506 0.0000
    outer loop
        vertex -0.6000 0.0000 -1.2840
        vertex 6.7480 0.0000 -1.2840
        vertex 2.1760 0.0000 -0.7320
    endloop
endfacet
facet normal 0.0000 -6.9000 0.0000
    outer loop
        vertex 6.7480 0.0000 1.2840
        vertex 4.7480 0.0000 1.2840
        vertex 6.7480 0.0000 0.7320
    endloop
endfacet
facet normal 0.0000 -1.9734 0.0000
    outer loop
        vertex 4.7480 0.0000 1.2840
        vertex 4.1760 0.0000 1.2840
        vertex 2.1760 0.0000 0.7320
    endloop
endfacet
facet normal 0.0000 -15.7734 0.0000
    outer loop
        vertex 2.1760 0.0000 0.7320
        vertex 6.7480 0.0000 0.7320
        vertex 4.7480 0.0000 1.2840
    endloop
endfacet
facet normal 0.0000 -29.9431 0.0000
    outer loop
        vertex 7.4000 0.0000 -3.4000
        vertex 6.7480 0.0000 -2.7480
        vertex -0.6000 0.0000 -2.7480
    endloop
endfacet
facet normal 0.0000 -60.3100 0.0000
    outer loop
        vertex -0.6000 0.0000 -2.7480
        vertex -7.4000 0.0000 -3.4000
        vertex 7.4000 0.0000 -3.4000
    endloop
endfacet
facet normal 0.0000 -2.2494 0.0000
    outer loop
        vertex 7.4000 0.0000 -3.4000
        vertex 6.7480 0.0000 -0.7320
        vertex 6.7480 0.0000 -1.2840
    endloop
endfacet
facet normal 0.0000 -5.9658 0.0000
    outer loop
        vertex 7.4000 0.0000 -3.4000
        vertex 6.7480 0.0000 -1.2840
        vertex 6.7480 0.0000 -2.7480
    endloop
endfacet
facet normal 0.0000 -5.9658 0.0000
    outer loop
        vertex 7.4000 0.0000 3.4000
        vertex 6.7480 0.0000 0.7320
        vertex 6.7480 0.0000 -0.7320
    endloop
endfacet
facet normal 0.0000 -27.7100 0.0000
    outer loop
        vertex 6.7480 0.0000 -0.7320
        vertex 7.4000 0.0000 -3.4000
        vertex 7.4000 0.0000 3.4000
    endloop
endfacet
facet normal 0.0000 -2.3309 0.0000
    outer loop
        vertex 7.4000 0.0000 3.4000
        vertex 4.1760 0.0000 2.7480
        vertex 4.7480 0.0000 2.7480
    endloop
endfacet
facet normal 0.0000 -5.9658 0.0000
    outer loop
        vertex 7.4000 0.0000 3.4000
        vertex 6.7480 0.0000 2.7480
        vertex 6.7480 0.0000 1.2840
    endloop
endfacet
facet normal 0.0000 -2.2494 0.0000
    outer loop
        vertex 7.4000 0.0000 3.4000
        vertex 6.7480 0.0000 1.2840
        vertex 6.7480 0.0000 0.7320
    endloop
endfacet
facet normal 0.0000 -8.9650 0.0000
    outer loop
        vertex -7.4000 0.0000 3.4000
        vertex -0.6000 0.0000 2.7480
        vertex 1.6000 0.0000 2.7480
    endloop
endfacet
facet normal 0.0000 -60.3100 0.0000
    outer loop
        vertex 1.6000 0.0000 2.7480
        vertex 7.4000 0.0000 3.4000
        vertex -7.4000 0.0000 3.4000
    endloop
endfacet
facet normal 0.0000 -8.1500 0.0000
    outer loop
        vertex 7.4000 0.0000 3.4000
        vertex 4.7480 0.0000 2.7480
        vertex 6.7480 0.0000 2.7480
    endloop
endfacet
facet normal 0.0000 -8.1500 0.0000
    outer loop
        vertex 7.4000 0.0000 3.4000
        vertex 2.1760 0.0000 2.7480
        vertex 4.1760 0.0000 2.7480
    endloop
endfacet
facet normal 0.0000 -2.3472 0.0000
    outer loop
        vertex 7.4000 0.0000 3.4000
        vertex 1.6000 0.0000 2.7480
        vertex 2.1760 0.0000 2.7480
    endloop
endfacet
endsolid GiantLegoRocks
