solid GiantLegoRocks
facet normal 0.0000 0.0000 20.0000
    outer loop
        vertex -4.0000 2.8000 4.0000
        vertex -4.0000 0.0000 4.0000
        vertex 4.0000 0.0000 4.0000
    endloop
endfacet
facet normal 0.0000 0.0000 20.0000
    outer loop
        vertex 4.0000 0.0000 4.0000
        vertex 4.0000 2.8000 4.0000
        vertex -4.0000 2.8000 4.0000
    endloop
endfacet
facet normal -20.0000 0.0000 0.0000
    outer loop
        vertex -4.0000 2.8000 -4.0000
        vertex -4.0000 0.0000 -4.0000
        vertex -4.0000 0.0000 4.0000
    endloop
endfacet
facet normal -20.0000 0.0000 0.0000
    outer loop
        vertex -4.0000 0.0000 4.0000
        vertex -4.0000 2.8000 4.0000
        vertex -4.0000 2.8000 -4.0000
    endloop
endfacet
facet normal 0.0000 0.0000 -20.0000
    outer loop
        vertex 4.0000 2.8000 -4.0000
        vertex 4.0000 0.0000 -4.0000
        vertex -4.0000 0.0000 -4.0000
    endloop
endfacet
facet normal 0.0000 0.0000 -20.0000
    outer loop
        vertex -4.0000 0.0000 -4.0000
        vertex -4.0000 2.8000 -4.0000
        vertex 4.0000 2.8000 -4.0000
    endloop
endfacet
facet normal 20.0000 0.0000 0.0000
    outer loop
        vertex 4.0000 2.8000 4.0000
        vertex 4.0000 0.0000 4.0000
        vertex 4.0000 0.0000 -4.0000
    endloop
endfacet
facet normal 20.0000 0.0000 0.0000
    outer loop
        vertex 4.0000 0.0000 -4.0000
        vertex 4.0000 2.8000 -4.0000
        vertex 4.0000 2.8000 4.0000
    endloop
endfacet
facet normal 0.0000 -8.0000 0.0000
    outer loop
        vertex -2.4000 1.6000 2.4000
        vertex 2.4000 1.6000 2.4000
        vertex 2.4000 1.6000 -2.4000
    endloop
endfacet
facet normal 0.0000 -8.0000 0.0000
    outer loop
        vertex 2.4000 1.6000 -2.4000
        vertex -2.4000 1.6000 -2.4000
        vertex -2.4000 1.6000 2.4000
    endloop
endfacet
facet normal 0.0000 8.0000 12.0000
    outer loop
        vertex -2.4000 1.6000 2.4000
        vertex -2.4000 3.2000 2.4000
        vertex 2.4000 3.2000 2.4000
    endloop
endfacet
facet normal 0.0000 8.0000 12.0000
    outer loop
        vertex 2.4000 3.2000 2.4000
        vertex 2.4000 1.6000 2.4000
        vertex -2.4000 1.6000 2.4000
    endloop
endfacet
facet normal -12.0000 8.0000 0.0000
    outer loop
        vertex -2.4000 1.6000 -2.4000
        vertex -2.4000 3.2000 -2.4000
        vertex -2.4000 3.2000 2.4000
    endloop
endfacet
facet normal -12.0000 8.0000 0.0000
    outer loop
        vertex -2.4000 3.2000 2.4000
        vertex -2.4000 1.6000 2.4000
        vertex -2.4000 1.6000 -2.4000
    endloop
endfacet
facet normal 0.0000 8.0000 -12.0000
    outer loop
        vertex 2.4000 1.6000 -2.4000
        vertex 2.4000 3.2000 -2.4000
        vertex -2.4000 3.2000 -2.4000
    endloop
endfacet
facet normal 0.0000 8.0000 -12.0000
    outer loop
        vertex -2.4000 3.2000 -2.4000
        vertex -2.4000 1.6000 -2.4000
        vertex 2.4000 1.6000 -2.4000
    endloop
endfacet
facet normal 12.0000 8.0000 0.0000
    outer loop
        vertex 2.4000 1.6000 2.4000
        vertex 2.4000 3.2000 2.4000
        vertex 2.4000 3.2000 -2.4000
    endloop
endfacet
facet normal 12.0000 8.0000 0.0000
    outer loop
        vertex 2.4000 3.2000 -2.4000
        vertex 2.4000 1.6000 -2.4000
        vertex 2.4000 1.6000 2.4000
    endloop
endfacet
facet normal 0.0000 7.0000 18.0000
    outer loop
        vertex -3.6000 3.2000 3.6000
        vertex -3.6000 2.8000 3.6000
        vertex 3.6000 2.8000 3.6000
    endloop
endfacet
facet normal 0.0000 7.0000 18.0000
    outer loop
        vertex 3.6000 2.8000 3.6000
        vertex 3.6000 3.2000 3.6000
        vertex -3.6000 3.2000 3.6000
    endloop
endfacet
facet normal -18.0000 7.0000 0.0000
    outer loop
        vertex -3.6000 3.2000 -3.6000
        vertex -3.6000 2.8000 -3.6000
        vertex -3.6000 2.8000 3.6000
    endloop
endfacet
facet normal -18.0000 7.0000 0.0000
    outer loop
        vertex -3.6000 2.8000 3.6000
        vertex -3.6000 3.2000 3.6000
        vertex -3.6000 3.2000 -3.6000
    endloop
endfacet
facet normal 0.0000 7.0000 -18.0000
    outer loop
        vertex 3.6000 3.2000 -3.6000
        vertex 3.6000 2.8000 -3.6000
        vertex -3.6000 2.8000 -3.6000
    endloop
endfacet
facet normal 0.0000 7.0000 -18.0000
    outer loop
        vertex -3.6000 2.8000 -3.6000
        vertex -3.6000 3.2000 -3.6000
        vertex 3.6000 3.2000 -3.6000
    endloop
endfacet
facet normal 18.0000 7.0000 0.0000
    outer loop
        vertex 3.6000 3.2000 3.6000
        vertex 3.6000 2.8000 3.6000
        vertex 3.6000 2.8000 -3.6000
    endloop
endfacet
facet normal 18.0000 7.0000 0.0000
    outer loop
        vertex 3.6000 2.8000 -3.6000
        vertex 3.6000 3.2000 -3.6000
        vertex 3.6000 3.2000 3.6000
    endloop
endfacet
facet normal 0.0000 36.0000 0.0000
    outer loop
        vertex 3.6000 3.2000 3.6000
        vertex 2.4000 3.2000 2.4000
        vertex -2.4000 3.2000 2.4000
    endloop
endfacet
facet normal 0.0000 54.0000 0.0000
    outer loop
        vertex -2.4000 3.2000 2.4000
        vertex -3.6000 3.2000 3.6000
        vertex 3.6000 3.2000 3.6000
    endloop
endfacet
facet normal 0.0000 36.0000 0.0000
    outer loop
        vertex -3.6000 3.2000 3.6000
        vertex -2.4000 3.2000 2.4000
        vertex -2.4000 3.2000 -2.4000
    endloop
endfacet
facet normal 0.0000 54.0000 0.0000
    outer loop
        vertex -2.4000 3.2000 -2.4000
        vertex -3.6000 3.2000 -3.6000
        vertex -3.6000 3.2000 3.6000
    endloop
endfacet
facet normal 0.0000 36.0000 0.0000
    outer loop
        vertex -3.6000 3.2000 -3.6000
        vertex -2.4000 3.2000 -2.4000
        vertex 2.4000 3.2000 -2.4000
    endloop
endfacet
facet normal 0.0000 54.0000 0.0000
    outer loop
        vertex 2.4000 3.2000 -2.4000
        vertex 3.6000 3.2000 -3.6000
        vertex -3.6000 3.2000 -3.6000
    endloop
endfacet
facet normal 0.0000 36.0000 0.0000
    outer loop
        vertex 3.6000 3.2000 -3.6000
        vertex 2.4000 3.2000 -2.4000
        vertex 2.4000 3.2000 2.4000
    endloop
endfacet
facet normal 0.0000 54.0000 0.0000
    outer loop
        vertex 2.4000 3.2000 2.4000
        vertex 3.6000 3.2000 3.6000
        vertex 3.6000 3.2000 -3.6000
    endloop
endfacet
facet normal 0.0000 18.0000 0.0000
    outer loop
        vertex 4.0000 2.8000 4.0000
        vertex 3.6000 2.8000 3.6000
        vertex -3.6000 2.8000 3.6000
    endloop
endfacet
facet normal 0.0000 20.0000 0.0000
    outer loop
        vertex -3.6000 2.8000 3.6000
        vertex -4.0000 2.8000 4.0000
        vertex 4.0000 2.8000 4.0000
    endloop
endfacet
facet normal 0.0000 18.0000 0.0000
    outer loop
        vertex -4.0000 2.8000 4.0000
        vertex -3.6000 2.8000 3.6000
        vertex -3.6000 2.8000 -3.6000
    endloop
endfacet
facet normal 0.0000 20.0000 0.0000
    outer loop
        vertex -3.6000 2.8000 -3.6000
        vertex -4.0000 2.8000 -4.0000
        vertex -4.0000 2.8000 4.0000
    endloop
endfacet
facet normal 0.0000 18.0000 0.0000
    outer loop
        vertex -4.0000 2.8000 -4.0000
        vertex -3.6000 2.8000 -3.6000
        vertex 3.6000 2.8000 -3.6000
    endloop
endfacet
facet normal 0.0000 20.0000 0.0000
    outer loop
        vertex 3.6000 2.8000 -3.6000
        vertex 4.0000 2.8000 -4.0000
        vertex -4.0000 2.8000 -4.0000
    endloop
endfacet
facet normal 0.0000 18.0000 0.0000
    outer loop
        vertex 4.0000 2.8000 -4.0000
        vertex 3.6000 2.8000 -3.6000
        vertex 3.6000 2.8000 3.6000
    endloop
endfacet
facet normal 0.0000 20.0000 0.0000
    outer loop
        vertex 3.6000 2.8000 3.6000
        vertex 4.0000 2.8000 4.0000
        vertex 4.0000 2.8000 -4.0000
    endloop
endfacet
facet normal 0.0000 -0.1478 0.0000
    outer loop
        vertex 1.7648 0.0000 2.2800
        vertex 1.8010 0.0000 2.4618
        vertex 1.6809 0.0000 2.5116
    endloop
endfacet
facet normal 0.0000 -0.1882 0.0000
    outer loop
        vertex 1.6809 0.0000 2.5116
        vertex 1.6348 0.0000 2.2800
        vertex 1.7648 0.0000 2.2800
    endloop
endfacet
facet normal 0.0000 -0.1478 0.0000
    outer loop
        vertex 1.8010 0.0000 2.0982
        vertex 1.7648 0.0000 2.2800
        vertex 1.6348 0.0000 2.2800
    endloop
endfacet
facet normal 0.0000 -0.1882 0.0000
    outer loop
        vertex 1.6348 0.0000 2.2800
        vertex 1.6809 0.0000 2.0484
        vertex 1.8010 0.0000 2.0982
    endloop
endfacet
facet normal 0.0000 -0.1478 0.0000
    outer loop
        vertex 1.9040 0.0000 1.9440
        vertex 1.8010 0.0000 2.0982
        vertex 1.6809 0.0000 2.0484
    endloop
endfacet
facet normal 0.0000 -0.1882 0.0000
    outer loop
        vertex 1.6809 0.0000 2.0484
        vertex 1.8121 0.0000 1.8521
        vertex 1.9040 0.0000 1.9440
    endloop
endfacet
facet normal 0.0000 -0.1478 0.0000
    outer loop
        vertex 2.0582 0.0000 1.8410
        vertex 1.9040 0.0000 1.9440
        vertex 1.8121 0.0000 1.8521
    endloop
endfacet
facet normal 0.0000 -0.1882 0.0000
    outer loop
        vertex 1.8121 0.0000 1.8521
        vertex 2.0084 0.0000 1.7209
        vertex 2.0582 0.0000 1.8410
    endloop
endfacet
facet normal 0.0000 -0.1478 0.0000
    outer loop
        vertex 2.2400 0.0000 1.8048
        vertex 2.0582 0.0000 1.8410
        vertex 2.0084 0.0000 1.7209
    endloop
endfacet
facet normal 0.0000 -0.1882 0.0000
    outer loop
        vertex 2.0084 0.0000 1.7209
        vertex 2.2400 0.0000 1.6748
        vertex 2.2400 0.0000 1.8048
    endloop
endfacet
facet normal 0.0000 -0.1478 0.0000
    outer loop
        vertex 2.4218 0.0000 1.8410
        vertex 2.2400 0.0000 1.8048
        vertex 2.2400 0.0000 1.6748
    endloop
endfacet
facet normal 0.0000 -0.1882 0.0000
    outer loop
        vertex 2.2400 0.0000 1.6748
        vertex 2.4716 0.0000 1.7209
        vertex 2.4218 0.0000 1.8410
    endloop
endfacet
facet normal 0.0000 -0.1478 0.0000
    outer loop
        vertex 2.5760 0.0000 1.9440
        vertex 2.4218 0.0000 1.8410
        vertex 2.4716 0.0000 1.7209
    endloop
endfacet
facet normal 0.0000 -0.1882 0.0000
    outer loop
        vertex 2.4716 0.0000 1.7209
        vertex 2.6679 0.0000 1.8521
        vertex 2.5760 0.0000 1.9440
    endloop
endfacet
facet normal 0.0000 -0.1478 0.0000
    outer loop
        vertex 2.6790 0.0000 2.0982
        vertex 2.5760 0.0000 1.9440
        vertex 2.6679 0.0000 1.8521
    endloop
endfacet
facet normal 0.0000 -0.1882 0.0000
    outer loop
        vertex 2.6679 0.0000 1.8521
        vertex 2.7991 0.0000 2.0484
        vertex 2.6790 0.0000 2.0982
    endloop
endfacet
facet normal 0.0000 -0.1478 0.0000
    outer loop
        vertex 2.7152 0.0000 2.2800
        vertex 2.6790 0.0000 2.0982
        vertex 2.7991 0.0000 2.0484
    endloop
endfacet
facet normal 0.0000 -0.1882 0.0000
    outer loop
        vertex 2.7991 0.0000 2.0484
        vertex 2.8452 0.0000 2.2800
        vertex 2.7152 0.0000 2.2800
    endloop
endfacet
facet normal 0.0000 -0.1478 0.0000
    outer loop
        vertex 2.6790 0.0000 2.4618
        vertex 2.7152 0.0000 2.2800
        vertex 2.8452 0.0000 2.2800
    endloop
endfacet
facet normal 0.0000 -0.1882 0.0000
    outer loop
        vertex 2.8452 0.0000 2.2800
        vertex 2.7991 0.0000 2.5116
        vertex 2.6790 0.0000 2.4618
    endloop
endfacet
facet normal 0.0000 -0.1478 0.0000
    outer loop
        vertex 2.5760 0.0000 2.6160
        vertex 2.6790 0.0000 2.4618
        vertex 2.7991 0.0000 2.5116
    endloop
endfacet
facet normal 0.0000 -0.1882 0.0000
    outer loop
        vertex 2.7991 0.0000 2.5116
        vertex 2.6679 0.0000 2.7079
        vertex 2.5760 0.0000 2.6160
    endloop
endfacet
facet normal 0.0000 -0.1478 0.0000
    outer loop
        vertex 2.4218 0.0000 2.7190
        vertex 2.5760 0.0000 2.6160
        vertex 2.6679 0.0000 2.7079
    endloop
endfacet
facet normal 0.0000 -0.1882 0.0000
    outer loop
        vertex 2.6679 0.0000 2.7079
        vertex 2.4716 0.0000 2.8391
        vertex 2.4218 0.0000 2.7190
    endloop
endfacet
facet normal 0.0000 -0.1478 0.0000
    outer loop
        vertex 2.2400 0.0000 2.7552
        vertex 2.4218 0.0000 2.7190
        vertex 2.4716 0.0000 2.8391
    endloop
endfacet
facet normal 0.0000 -0.1882 0.0000
    outer loop
        vertex 2.4716 0.0000 2.8391
        vertex 2.2400 0.0000 2.8852
        vertex 2.2400 0.0000 2.7552
    endloop
endfacet
facet normal 0.0000 -0.1478 0.0000
    outer loop
        vertex 2.0582 0.0000 2.7190
        vertex 2.2400 0.0000 2.7552
        vertex 2.2400 0.0000 2.8852
    endloop
endfacet
facet normal 0.0000 -0.1882 0.0000
    outer loop
        vertex 2.2400 0.0000 2.8852
        vertex 2.0084 0.0000 2.8391
        vertex 2.0582 0.0000 2.7190
    endloop
endfacet
facet normal 0.0000 -0.1478 0.0000
    outer loop
        vertex 1.9040 0.0000 2.6160
        vertex 2.0582 0.0000 2.7190
        vertex 2.0084 0.0000 2.8391
    endloop
endfacet
facet normal 0.0000 -0.1882 0.0000
    outer loop
        vertex 2.0084 0.0000 2.8391
        vertex 1.8121 0.0000 2.7079
        vertex 1.9040 0.0000 2.6160
    endloop
endfacet
facet normal 0.0000 -0.1478 0.0000
    outer loop
        vertex 1.8010 0.0000 2.4618
        vertex 1.9040 0.0000 2.6160
        vertex 1.8121 0.0000 2.7079
    endloop
endfacet
facet normal 0.0000 -0.1882 0.0000
    outer loop
        vertex 1.8121 0.0000 2.7079
        vertex 1.6809 0.0000 2.5116
        vertex 1.8010 0.0000 2.4618
    endloop
endfacet
facet normal 0.0000 -0.1079 0.0000
    outer loop
        vertex 2.2400 0.0000 2.2800
        vertex 2.0438 0.0000 2.3613
        vertex 2.0276 0.0000 2.2800
    endloop
endfacet
facet normal 0.0000 -0.1079 0.0000
    outer loop
        vertex 2.0276 0.0000 2.2800
        vertex 2.0438 0.0000 2.1987
        vertex 2.2400 0.0000 2.2800
    endloop
endfacet
facet normal 0.0000 -0.1079 0.0000
    outer loop
        vertex 2.2400 0.0000 2.2800
        vertex 2.0438 0.0000 2.1987
        vertex 2.0898 0.0000 2.1298
    endloop
endfacet
facet normal 0.0000 -0.1079 0.0000
    outer loop
        vertex 2.0898 0.0000 2.1298
        vertex 2.1587 0.0000 2.0838
        vertex 2.2400 0.0000 2.2800
    endloop
endfacet
facet normal 0.0000 -0.1079 0.0000
    outer loop
        vertex 2.2400 0.0000 2.2800
        vertex 2.1587 0.0000 2.0838
        vertex 2.2400 0.0000 2.0676
    endloop
endfacet
facet normal 0.0000 -0.1079 0.0000
    outer loop
        vertex 2.2400 0.0000 2.0676
        vertex 2.3213 0.0000 2.0838
        vertex 2.2400 0.0000 2.2800
    endloop
endfacet
facet normal 0.0000 -0.1079 0.0000
    outer loop
        vertex 2.2400 0.0000 2.2800
        vertex 2.3213 0.0000 2.0838
        vertex 2.3902 0.0000 2.1298
    endloop
endfacet
facet normal 0.0000 -0.1079 0.0000
    outer loop
        vertex 2.3902 0.0000 2.1298
        vertex 2.4362 0.0000 2.1987
        vertex 2.2400 0.0000 2.2800
    endloop
endfacet
facet normal 0.0000 -0.1079 0.0000
    outer loop
        vertex 2.2400 0.0000 2.2800
        vertex 2.4362 0.0000 2.1987
        vertex 2.4524 0.0000 2.2800
    endloop
endfacet
facet normal 0.0000 -0.1079 0.0000
    outer loop
        vertex 2.4524 0.0000 2.2800
        vertex 2.4362 0.0000 2.3613
        vertex 2.2400 0.0000 2.2800
    endloop
endfacet
facet normal 0.0000 -0.1079 0.0000
    outer loop
        vertex 2.2400 0.0000 2.2800
        vertex 2.4362 0.0000 2.3613
        vertex 2.3902 0.0000 2.4302
    endloop
endfacet
facet normal 0.0000 -0.1079 0.0000
    outer loop
        vertex 2.3902 0.0000 2.4302
        vertex 2.3213 0.0000 2.4762
        vertex 2.2400 0.0000 2.2800
    endloop
endfacet
facet normal 0.0000 -0.1079 0.0000
    outer loop
        vertex 2.2400 0.0000 2.2800
        vertex 2.3213 0.0000 2.4762
        vertex 2.2400 0.0000 2.4924
    endloop
endfacet
facet normal 0.0000 -0.1079 0.0000
    outer loop
        vertex 2.2400 0.0000 2.4924
        vertex 2.1587 0.0000 2.4762
        vertex 2.2400 0.0000 2.2800
    endloop
endfacet
facet normal 0.0000 -0.1079 0.0000
    outer loop
        vertex 2.2400 0.0000 2.2800
        vertex 2.1587 0.0000 2.4762
        vertex 2.0898 0.0000 2.4302
    endloop
endfacet
facet normal 0.0000 -0.1079 0.0000
    outer loop
        vertex 2.0898 0.0000 2.4302
        vertex 2.0438 0.0000 2.3613
        vertex 2.2400 0.0000 2.2800
    endloop
endfacet
facet normal 0.0000 -0.4007 0.0000
    outer loop
        vertex 1.3118 0.0000 2.2800
        vertex 1.3855 0.0000 2.6505
        vertex 1.2257 0.0000 2.7167
    endloop
endfacet
facet normal 0.0000 -0.4723 0.0000
    outer loop
        vertex 1.2257 0.0000 2.7167
        vertex 1.1388 0.0000 2.2800
        vertex 1.3118 0.0000 2.2800
    endloop
endfacet
facet normal 0.0000 -0.4007 0.0000
    outer loop
        vertex 3.2145 0.0000 2.6505
        vertex 3.2882 0.0000 2.2800
        vertex 3.4612 0.0000 2.2800
    endloop
endfacet
facet normal 0.0000 -0.4723 0.0000
    outer loop
        vertex 3.4612 0.0000 2.2800
        vertex 3.3743 0.0000 2.7167
        vertex 3.2145 0.0000 2.6505
    endloop
endfacet
facet normal 0.0000 -0.4007 0.0000
    outer loop
        vertex 3.0046 0.0000 2.9646
        vertex 3.2145 0.0000 2.6505
        vertex 3.3743 0.0000 2.7167
    endloop
endfacet
facet normal 0.0000 -0.4723 0.0000
    outer loop
        vertex 3.3743 0.0000 2.7167
        vertex 3.1270 0.0000 3.0870
        vertex 3.0046 0.0000 2.9646
    endloop
endfacet
facet normal 0.0000 -0.4007 0.0000
    outer loop
        vertex 2.6905 0.0000 3.1745
        vertex 3.0046 0.0000 2.9646
        vertex 3.1270 0.0000 3.0870
    endloop
endfacet
facet normal 0.0000 -0.4723 0.0000
    outer loop
        vertex 3.1270 0.0000 3.0870
        vertex 2.7567 0.0000 3.3343
        vertex 2.6905 0.0000 3.1745
    endloop
endfacet
facet normal 0.0000 -0.4007 0.0000
    outer loop
        vertex 2.3200 0.0000 3.2482
        vertex 2.6905 0.0000 3.1745
        vertex 2.7567 0.0000 3.3343
    endloop
endfacet
facet normal 0.0000 -0.4723 0.0000
    outer loop
        vertex 2.7567 0.0000 3.3343
        vertex 2.3200 0.0000 3.4212
        vertex 2.3200 0.0000 3.2482
    endloop
endfacet
facet normal 0.0000 -0.4439 0.0000
    outer loop
        vertex 1.9095 0.0000 3.1745
        vertex 2.3200 0.0000 3.2482
        vertex 2.3200 0.0000 3.4212
    endloop
endfacet
facet normal 0.0000 -0.5123 0.0000
    outer loop
        vertex 2.3200 0.0000 3.4212
        vertex 1.8433 0.0000 3.3343
        vertex 1.9095 0.0000 3.1745
    endloop
endfacet
facet normal 0.0000 -0.4007 0.0000
    outer loop
        vertex 1.5954 0.0000 2.9646
        vertex 1.9095 0.0000 3.1745
        vertex 1.8433 0.0000 3.3343
    endloop
endfacet
facet normal 0.0000 -0.4723 0.0000
    outer loop
        vertex 1.8433 0.0000 3.3343
        vertex 1.4730 0.0000 3.0870
        vertex 1.5954 0.0000 2.9646
    endloop
endfacet
facet normal 0.0000 -0.4007 0.0000
    outer loop
        vertex 1.3855 0.0000 2.6505
        vertex 1.5954 0.0000 2.9646
        vertex 1.4730 0.0000 3.0870
    endloop
endfacet
facet normal 0.0000 -0.4723 0.0000
    outer loop
        vertex 1.4730 0.0000 3.0870
        vertex 1.2257 0.0000 2.7167
        vertex 1.3855 0.0000 2.6505
    endloop
endfacet
facet normal 0.0000 -0.1195 0.0000
    outer loop
        vertex 0.4336 0.0000 1.9933
        vertex 0.4561 0.0000 1.8800
        vertex 0.6248 0.0000 1.8800
    endloop
endfacet
facet normal 0.0000 -0.1875 0.0000
    outer loop
        vertex 0.6248 0.0000 1.8800
        vertex 0.5894 0.0000 2.0579
        vertex 0.4336 0.0000 1.9933
    endloop
endfacet
facet normal 0.0000 -0.1195 0.0000
    outer loop
        vertex 0.3694 0.0000 2.0894
        vertex 0.4336 0.0000 1.9933
        vertex 0.5894 0.0000 2.0579
    endloop
endfacet
facet normal 0.0000 -0.1875 0.0000
    outer loop
        vertex 0.5894 0.0000 2.0579
        vertex 0.4887 0.0000 2.2087
        vertex 0.3694 0.0000 2.0894
    endloop
endfacet
facet normal 0.0000 -0.1195 0.0000
    outer loop
        vertex 0.2733 0.0000 2.1536
        vertex 0.3694 0.0000 2.0894
        vertex 0.4887 0.0000 2.2087
    endloop
endfacet
facet normal 0.0000 -0.1875 0.0000
    outer loop
        vertex 0.4887 0.0000 2.2087
        vertex 0.3379 0.0000 2.3094
        vertex 0.2733 0.0000 2.1536
    endloop
endfacet
facet normal 0.0000 -0.1195 0.0000
    outer loop
        vertex 0.1600 0.0000 2.1761
        vertex 0.2733 0.0000 2.1536
        vertex 0.3379 0.0000 2.3094
    endloop
endfacet
facet normal 0.0000 -0.1875 0.0000
    outer loop
        vertex 0.3379 0.0000 2.3094
        vertex 0.1600 0.0000 2.3448
        vertex 0.1600 0.0000 2.1761
    endloop
endfacet
facet normal 0.0000 -0.1195 0.0000
    outer loop
        vertex -3.4161 0.0000 1.8800
        vertex -3.3936 0.0000 1.9933
        vertex -3.5494 0.0000 2.0579
    endloop
endfacet
facet normal 0.0000 -0.1875 0.0000
    outer loop
        vertex -3.5494 0.0000 2.0579
        vertex -3.5848 0.0000 1.8800
        vertex -3.4161 0.0000 1.8800
    endloop
endfacet
facet normal 0.0000 -0.1195 0.0000
    outer loop
        vertex -3.2333 0.0000 2.1536
        vertex -3.1200 0.0000 2.1761
        vertex -3.1200 0.0000 2.3448
    endloop
endfacet
facet normal 0.0000 -0.1875 0.0000
    outer loop
        vertex -3.1200 0.0000 2.3448
        vertex -3.2979 0.0000 2.3094
        vertex -3.2333 0.0000 2.1536
    endloop
endfacet
facet normal 0.0000 -0.1195 0.0000
    outer loop
        vertex -3.3294 0.0000 2.0894
        vertex -3.2333 0.0000 2.1536
        vertex -3.2979 0.0000 2.3094
    endloop
endfacet
facet normal 0.0000 -0.1875 0.0000
    outer loop
        vertex -3.2979 0.0000 2.3094
        vertex -3.4487 0.0000 2.2087
        vertex -3.3294 0.0000 2.0894
    endloop
endfacet
facet normal 0.0000 -0.1195 0.0000
    outer loop
        vertex -3.3936 0.0000 1.9933
        vertex -3.3294 0.0000 2.0894
        vertex -3.4487 0.0000 2.2087
    endloop
endfacet
facet normal 0.0000 -0.1875 0.0000
    outer loop
        vertex -3.4487 0.0000 2.2087
        vertex -3.5494 0.0000 2.0579
        vertex -3.3936 0.0000 1.9933
    endloop
endfacet
facet normal 0.0000 -0.1195 0.0000
    outer loop
        vertex 0.2733 0.0000 -1.7136
        vertex 0.1600 0.0000 -1.7361
        vertex 0.1600 0.0000 -1.9048
    endloop
endfacet
facet normal 0.0000 -0.1875 0.0000
    outer loop
        vertex 0.1600 0.0000 -1.9048
        vertex 0.3379 0.0000 -1.8694
        vertex 0.2733 0.0000 -1.7136
    endloop
endfacet
facet normal 0.0000 -0.1195 0.0000
    outer loop
        vertex 0.3694 0.0000 -1.6494
        vertex 0.2733 0.0000 -1.7136
        vertex 0.3379 0.0000 -1.8694
    endloop
endfacet
facet normal 0.0000 -0.1875 0.0000
    outer loop
        vertex 0.3379 0.0000 -1.8694
        vertex 0.4887 0.0000 -1.7687
        vertex 0.3694 0.0000 -1.6494
    endloop
endfacet
facet normal 0.0000 -0.1195 0.0000
    outer loop
        vertex 0.4336 0.0000 -1.5533
        vertex 0.3694 0.0000 -1.6494
        vertex 0.4887 0.0000 -1.7687
    endloop
endfacet
facet normal 0.0000 -0.1875 0.0000
    outer loop
        vertex 0.4887 0.0000 -1.7687
        vertex 0.5894 0.0000 -1.6179
        vertex 0.4336 0.0000 -1.5533
    endloop
endfacet
facet normal 0.0000 -0.1195 0.0000
    outer loop
        vertex 0.4561 0.0000 -1.4400
        vertex 0.4336 0.0000 -1.5533
        vertex 0.5894 0.0000 -1.6179
    endloop
endfacet
facet normal 0.0000 -0.1875 0.0000
    outer loop
        vertex 0.5894 0.0000 -1.6179
        vertex 0.6248 0.0000 -1.4400
        vertex 0.4561 0.0000 -1.4400
    endloop
endfacet
facet normal 0.0000 -0.1195 0.0000
    outer loop
        vertex -3.3936 0.0000 -1.5533
        vertex -3.4161 0.0000 -1.4400
        vertex -3.5848 0.0000 -1.4400
    endloop
endfacet
facet normal 0.0000 -0.1875 0.0000
    outer loop
        vertex -3.5848 0.0000 -1.4400
        vertex -3.5494 0.0000 -1.6179
        vertex -3.3936 0.0000 -1.5533
    endloop
endfacet
facet normal 0.0000 -0.1195 0.0000
    outer loop
        vertex -3.3294 0.0000 -1.6494
        vertex -3.3936 0.0000 -1.5533
        vertex -3.5494 0.0000 -1.6179
    endloop
endfacet
facet normal 0.0000 -0.1875 0.0000
    outer loop
        vertex -3.5494 0.0000 -1.6179
        vertex -3.4487 0.0000 -1.7687
        vertex -3.3294 0.0000 -1.6494
    endloop
endfacet
facet normal 0.0000 -0.1195 0.0000
    outer loop
        vertex -3.2333 0.0000 -1.7136
        vertex -3.3294 0.0000 -1.6494
        vertex -3.4487 0.0000 -1.7687
    endloop
endfacet
facet normal 0.0000 -0.1875 0.0000
    outer loop
        vertex -3.4487 0.0000 -1.7687
        vertex -3.2979 0.0000 -1.8694
        vertex -3.2333 0.0000 -1.7136
    endloop
endfacet
facet normal 0.0000 -0.1195 0.0000
    outer loop
        vertex -3.1200 0.0000 -1.7361
        vertex -3.2333 0.0000 -1.7136
        vertex -3.2979 0.0000 -1.8694
    endloop
endfacet
facet normal 0.0000 -0.1875 0.0000
    outer loop
        vertex -3.2979 0.0000 -1.8694
        vertex -3.1200 0.0000 -1.9048
        vertex -3.1200 0.0000 -1.7361
    endloop
endfacet
facet normal 0.0000 -0.9814 0.0000
    outer loop
        vertex -2.8068 0.0000 2.0268
        vertex -3.0332 0.0000 2.0268
        vertex -3.0332 0.0000 1.3332
    endloop
endfacet
facet normal 0.0000 -0.9814 0.0000
    outer loop
        vertex -3.0332 0.0000 1.3332
        vertex -2.8068 0.0000 1.3332
        vertex -2.8068 0.0000 2.0268
    endloop
endfacet
facet normal 0.0000 -0.8910 0.0000
    outer loop
        vertex -2.4148 0.0000 2.0188
        vertex -2.6252 0.0000 2.0188
        vertex -2.6252 0.0000 1.3412
    endloop
endfacet
facet normal 0.0000 -0.8910 0.0000
    outer loop
        vertex -2.6252 0.0000 1.3412
        vertex -2.4148 0.0000 1.3412
        vertex -2.4148 0.0000 2.0188
    endloop
endfacet
facet normal 0.0000 -1.5430 0.0000
    outer loop
        vertex -2.3748 0.0000 -0.9012
        vertex -3.0652 0.0000 -0.9012
        vertex -3.0652 0.0000 -1.2588
    endloop
endfacet
facet normal 0.0000 -1.5430 0.0000
    outer loop
        vertex -3.0652 0.0000 -1.2588
        vertex -2.3748 0.0000 -1.2588
        vertex -2.3748 0.0000 -0.9012
    endloop
endfacet
facet normal 0.0000 -0.9956 0.0000
    outer loop
        vertex -0.3698 0.0000 0.8274
        vertex -0.9102 0.0000 0.8274
        vertex -0.9102 0.0000 0.5326
    endloop
endfacet
facet normal 0.0000 -0.9956 0.0000
    outer loop
        vertex -0.9102 0.0000 0.5326
        vertex -0.3698 0.0000 0.5326
        vertex -0.3698 0.0000 0.8274
    endloop
endfacet
facet normal 0.0000 -3.1637 0.0000
    outer loop
        vertex -2.1988 0.0000 3.6028
        vertex -3.2412 0.0000 3.6028
        vertex -3.2412 0.0000 3.1172
    endloop
endfacet
facet normal 0.0000 -3.1637 0.0000
    outer loop
        vertex -3.2412 0.0000 3.1172
        vertex -2.1988 0.0000 3.1172
        vertex -2.1988 0.0000 3.6028
    endloop
endfacet
facet normal 0.0000 -1.0602 0.0000
    outer loop
        vertex -1.7588 0.0000 2.8988
        vertex -3.2012 0.0000 2.8988
        vertex -3.2012 0.0000 2.7812
    endloop
endfacet
facet normal 0.0000 -1.0602 0.0000
    outer loop
        vertex -3.2012 0.0000 2.7812
        vertex -1.7588 0.0000 2.7812
        vertex -1.7588 0.0000 2.8988
    endloop
endfacet
facet normal 0.0000 -0.0701 0.0000
    outer loop
        vertex -1.9600 0.0000 -1.0800
        vertex -2.1182 0.0000 -1.0145
        vertex -2.1312 0.0000 -1.0800
    endloop
endfacet
facet normal 0.0000 -0.0701 0.0000
    outer loop
        vertex -2.1312 0.0000 -1.0800
        vertex -2.1182 0.0000 -1.1455
        vertex -1.9600 0.0000 -1.0800
    endloop
endfacet
facet normal 0.0000 -0.0701 0.0000
    outer loop
        vertex -1.9600 0.0000 -1.0800
        vertex -2.1182 0.0000 -1.1455
        vertex -2.0811 0.0000 -1.2011
    endloop
endfacet
facet normal 0.0000 -0.0701 0.0000
    outer loop
        vertex -2.0811 0.0000 -1.2011
        vertex -2.0255 0.0000 -1.2382
        vertex -1.9600 0.0000 -1.0800
    endloop
endfacet
facet normal 0.0000 -0.0701 0.0000
    outer loop
        vertex -1.9600 0.0000 -1.0800
        vertex -2.0255 0.0000 -1.2382
        vertex -1.9600 0.0000 -1.2512
    endloop
endfacet
facet normal 0.0000 -0.0701 0.0000
    outer loop
        vertex -1.9600 0.0000 -1.2512
        vertex -1.8945 0.0000 -1.2382
        vertex -1.9600 0.0000 -1.0800
    endloop
endfacet
facet normal 0.0000 -0.0701 0.0000
    outer loop
        vertex -1.9600 0.0000 -1.0800
        vertex -1.8945 0.0000 -1.2382
        vertex -1.8389 0.0000 -1.2011
    endloop
endfacet
facet normal 0.0000 -0.0701 0.0000
    outer loop
        vertex -1.8389 0.0000 -1.2011
        vertex -1.8018 0.0000 -1.1455
        vertex -1.9600 0.0000 -1.0800
    endloop
endfacet
facet normal 0.0000 -0.0701 0.0000
    outer loop
        vertex -1.9600 0.0000 -1.0800
        vertex -1.8018 0.0000 -1.1455
        vertex -1.7888 0.0000 -1.0800
    endloop
endfacet
facet normal 0.0000 -0.0701 0.0000
    outer loop
        vertex -1.7888 0.0000 -1.0800
        vertex -1.8018 0.0000 -1.0145
        vertex -1.9600 0.0000 -1.0800
    endloop
endfacet
facet normal 0.0000 -0.0701 0.0000
    outer loop
        vertex -1.9600 0.0000 -1.0800
        vertex -1.8018 0.0000 -1.0145
        vertex -1.8389 0.0000 -0.9589
    endloop
endfacet
facet normal 0.0000 -0.0701 0.0000
    outer loop
        vertex -1.8389 0.0000 -0.9589
        vertex -1.8945 0.0000 -0.9218
        vertex -1.9600 0.0000 -1.0800
    endloop
endfacet
facet normal 0.0000 -0.0701 0.0000
    outer loop
        vertex -1.9600 0.0000 -1.0800
        vertex -1.8945 0.0000 -0.9218
        vertex -1.9600 0.0000 -0.9088
    endloop
endfacet
facet normal 0.0000 -0.0701 0.0000
    outer loop
        vertex -1.9600 0.0000 -0.9088
        vertex -2.0255 0.0000 -0.9218
        vertex -1.9600 0.0000 -1.0800
    endloop
endfacet
facet normal 0.0000 -0.0701 0.0000
    outer loop
        vertex -1.9600 0.0000 -1.0800
        vertex -2.0255 0.0000 -0.9218
        vertex -2.0811 0.0000 -0.9589
    endloop
endfacet
facet normal 0.0000 -0.0701 0.0000
    outer loop
        vertex -2.0811 0.0000 -0.9589
        vertex -2.1182 0.0000 -1.0145
        vertex -1.9600 0.0000 -1.0800
    endloop
endfacet
facet normal 0.0000 -0.9426 0.0000
    outer loop
        vertex -1.7428 0.0000 3.5948
        vertex -2.0172 0.0000 3.5948
        vertex -2.0172 0.0000 3.0452
    endloop
endfacet
facet normal 0.0000 -0.9426 0.0000
    outer loop
        vertex -2.0172 0.0000 3.0452
        vertex -1.7428 0.0000 3.0452
        vertex -1.7428 0.0000 3.5948
    endloop
endfacet
facet normal 0.0000 -2.4165 0.0000
    outer loop
        vertex -0.2774 0.0000 -0.6816
        vertex -1.1626 0.0000 -0.6816
        vertex -1.1626 0.0000 -1.1184
    endloop
endfacet
facet normal 0.0000 -2.4165 0.0000
    outer loop
        vertex -1.1626 0.0000 -1.1184
        vertex -0.2774 0.0000 -1.1184
        vertex -0.2774 0.0000 -0.6816
    endloop
endfacet
facet normal 0.0000 -2.2867 0.0000
    outer loop
        vertex -0.1268 0.0000 -0.3732
        vertex -1.3132 0.0000 -0.3732
        vertex -1.1626 0.0000 -0.6816
    endloop
endfacet
facet normal 0.0000 -1.7060 0.0000
    outer loop
        vertex -1.1626 0.0000 -0.6816
        vertex -0.2774 0.0000 -0.6816
        vertex -0.1268 0.0000 -0.3732
    endloop
endfacet
facet normal 0.0000 -0.8037 0.0000
    outer loop
        vertex -1.3132 0.0000 -0.3732
        vertex -1.3132 0.0000 -1.2268
        vertex -1.1626 0.0000 -1.1184
    endloop
endfacet
facet normal 0.0000 -0.4113 0.0000
    outer loop
        vertex -1.1626 0.0000 -1.1184
        vertex -1.1626 0.0000 -0.6816
        vertex -1.3132 0.0000 -0.3732
    endloop
endfacet
facet normal 0.0000 -0.8037 0.0000
    outer loop
        vertex -1.3132 0.0000 -1.2268
        vertex -0.1268 0.0000 -1.2268
        vertex -0.2774 0.0000 -1.1184
    endloop
endfacet
facet normal 0.0000 -0.5996 0.0000
    outer loop
        vertex -0.2774 0.0000 -1.1184
        vertex -1.1626 0.0000 -1.1184
        vertex -1.3132 0.0000 -1.2268
    endloop
endfacet
facet normal 0.0000 -0.8037 0.0000
    outer loop
        vertex -0.1268 0.0000 -1.2268
        vertex -0.1268 0.0000 -0.3732
        vertex -0.2774 0.0000 -0.6816
    endloop
endfacet
facet normal 0.0000 -0.4113 0.0000
    outer loop
        vertex -0.2774 0.0000 -0.6816
        vertex -0.2774 0.0000 -1.1184
        vertex -0.1268 0.0000 -1.2268
    endloop
endfacet
facet normal 0.0000 -0.1378 0.0000
    outer loop
        vertex -0.1200 0.0000 0.0800
        vertex -0.1200 0.0000 -0.1300
        vertex -0.0150 0.0000 -0.1019
    endloop
endfacet
facet normal 0.0000 -0.1378 0.0000
    outer loop
        vertex -0.0150 0.0000 -0.1019
        vertex 0.0619 0.0000 -0.0250
        vertex -0.1200 0.0000 0.0800
    endloop
endfacet
facet normal 0.0000 -0.1378 0.0000
    outer loop
        vertex -0.1200 0.0000 0.0800
        vertex 0.0619 0.0000 -0.0250
        vertex 0.0900 0.0000 0.0800
    endloop
endfacet
facet normal 0.0000 -2.0475 0.0000
    outer loop
        vertex 0.0900 0.0000 0.0800
        vertex 0.0900 0.0000 1.6400
        vertex -0.1200 0.0000 0.0800
    endloop
endfacet
facet normal 0.0000 -0.1378 0.0000
    outer loop
        vertex -1.2000 0.0000 0.0800
        vertex -1.4100 0.0000 0.0800
        vertex -1.3819 0.0000 -0.0250
    endloop
endfacet
facet normal 0.0000 -0.1378 0.0000
    outer loop
        vertex -1.3819 0.0000 -0.0250
        vertex -1.3050 0.0000 -0.1019
        vertex -1.2000 0.0000 0.0800
    endloop
endfacet
facet normal 0.0000 -0.1378 0.0000
    outer loop
        vertex -1.2000 0.0000 0.0800
        vertex -1.3050 0.0000 -0.1019
        vertex -1.2000 0.0000 -0.1300
    endloop
endfacet
facet normal 0.0000 -1.4175 0.0000
    outer loop
        vertex -1.2000 0.0000 -0.1300
        vertex -0.1200 0.0000 0.0800
        vertex -1.2000 0.0000 0.0800
    endloop
endfacet
facet normal 0.0000 -0.1378 0.0000
    outer loop
        vertex -1.3819 0.0000 1.7450
        vertex -1.4100 0.0000 1.6400
        vertex -1.2000 0.0000 1.6400
    endloop
endfacet
facet normal 0.0000 -0.1378 0.0000
    outer loop
        vertex -1.2000 0.0000 1.6400
        vertex -1.3050 0.0000 1.8219
        vertex -1.3819 0.0000 1.7450
    endloop
endfacet
facet normal 0.0000 -0.1378 0.0000
    outer loop
        vertex -1.2000 0.0000 1.8500
        vertex -1.3050 0.0000 1.8219
        vertex -1.2000 0.0000 1.6400
    endloop
endfacet
facet normal 0.0000 -0.1378 0.0000
    outer loop
        vertex -0.1200 0.0000 1.6400
        vertex 0.0900 0.0000 1.6400
        vertex 0.0619 0.0000 1.7450
    endloop
endfacet
facet normal 0.0000 -0.1378 0.0000
    outer loop
        vertex 0.0619 0.0000 1.7450
        vertex -0.0150 0.0000 1.8219
        vertex -0.1200 0.0000 1.6400
    endloop
endfacet
facet normal 0.0000 -0.1378 0.0000
    outer loop
        vertex -0.1200 0.0000 1.8500
        vertex -0.1200 0.0000 1.6400
        vertex -0.0150 0.0000 1.8219
    endloop
endfacet
facet normal 0.0000 -1.4175 0.0000
    outer loop
        vertex -0.1200 0.0000 0.0800
        vertex -1.2000 0.0000 -0.1300
        vertex -0.1200 0.0000 -0.1300
    endloop
endfacet
facet normal 0.0000 -2.0475 0.0000
    outer loop
        vertex 0.0900 0.0000 1.6400
        vertex -0.1200 0.0000 1.6400
        vertex -0.1200 0.0000 0.0800
    endloop
endfacet
facet normal 0.0000 -2.0475 0.0000
    outer loop
        vertex -1.2000 0.0000 1.6400
        vertex -1.4100 0.0000 1.6400
        vertex -1.4100 0.0000 0.0800
    endloop
endfacet
facet normal 0.0000 -2.0475 0.0000
    outer loop
        vertex -1.4100 0.0000 0.0800
        vertex -1.2000 0.0000 0.0800
        vertex -1.2000 0.0000 1.6400
    endloop
endfacet
facet normal 0.0000 -3.4576 0.0000
    outer loop
        vertex 0.1600 0.0000 -1.7361
        vertex -3.1200 0.0000 -1.7361
        vertex -3.1200 0.0000 -1.9048
    endloop
endfacet
facet normal 0.0000 -3.4576 0.0000
    outer loop
        vertex -3.1200 0.0000 -1.9048
        vertex 0.1600 0.0000 -1.9048
        vertex 0.1600 0.0000 -1.7361
    endloop
endfacet
facet normal 0.0000 -3.4998 0.0000
    outer loop
        vertex -3.4161 0.0000 1.8800
        vertex -3.5848 0.0000 1.8800
        vertex -3.5848 0.0000 -1.4400
    endloop
endfacet
facet normal 0.0000 -3.4998 0.0000
    outer loop
        vertex -3.5848 0.0000 -1.4400
        vertex -3.4161 0.0000 -1.4400
        vertex -3.4161 0.0000 1.8800
    endloop
endfacet
facet normal 0.0000 -0.0275 0.0000
    outer loop
        vertex 1.2193 0.0000 -1.6711
        vertex 1.2142 0.0000 -1.6400
        vertex 1.0726 0.0000 -1.6400
    endloop
endfacet
facet normal 0.0000 -0.0867 0.0000
    outer loop
        vertex 1.0726 0.0000 -1.6400
        vertex 1.0884 0.0000 -1.7380
        vertex 1.2193 0.0000 -1.6711
    endloop
endfacet
facet normal 0.0000 -0.0275 0.0000
    outer loop
        vertex 1.2335 0.0000 -1.6974
        vertex 1.2193 0.0000 -1.6711
        vertex 1.0884 0.0000 -1.7380
    endloop
endfacet
facet normal 0.0000 -0.0867 0.0000
    outer loop
        vertex 1.0884 0.0000 -1.7380
        vertex 1.1334 0.0000 -1.8210
        vertex 1.2335 0.0000 -1.6974
    endloop
endfacet
facet normal 0.0000 -0.0275 0.0000
    outer loop
        vertex 1.2548 0.0000 -1.7150
        vertex 1.2335 0.0000 -1.6974
        vertex 1.1334 0.0000 -1.8210
    endloop
endfacet
facet normal 0.0000 -0.0867 0.0000
    outer loop
        vertex 1.1334 0.0000 -1.8210
        vertex 1.2006 0.0000 -1.8765
        vertex 1.2548 0.0000 -1.7150
    endloop
endfacet
facet normal 0.0000 -0.0275 0.0000
    outer loop
        vertex 1.2800 0.0000 -1.7212
        vertex 1.2548 0.0000 -1.7150
        vertex 1.2006 0.0000 -1.8765
    endloop
endfacet
facet normal 0.0000 -0.0867 0.0000
    outer loop
        vertex 1.2006 0.0000 -1.8765
        vertex 1.2800 0.0000 -1.8960
        vertex 1.2800 0.0000 -1.7212
    endloop
endfacet
facet normal 0.0000 -0.0275 0.0000
    outer loop
        vertex 1.3052 0.0000 -1.7150
        vertex 1.2800 0.0000 -1.7212
        vertex 1.2800 0.0000 -1.8960
    endloop
endfacet
facet normal 0.0000 -0.0867 0.0000
    outer loop
        vertex 1.2800 0.0000 -1.8960
        vertex 1.3594 0.0000 -1.8765
        vertex 1.3052 0.0000 -1.7150
    endloop
endfacet
facet normal 0.0000 -0.0275 0.0000
    outer loop
        vertex 1.3265 0.0000 -1.6974
        vertex 1.3052 0.0000 -1.7150
        vertex 1.3594 0.0000 -1.8765
    endloop
endfacet
facet normal 0.0000 -0.0867 0.0000
    outer loop
        vertex 1.3594 0.0000 -1.8765
        vertex 1.4266 0.0000 -1.8210
        vertex 1.3265 0.0000 -1.6974
    endloop
endfacet
facet normal 0.0000 -0.0275 0.0000
    outer loop
        vertex 1.3407 0.0000 -1.6711
        vertex 1.3265 0.0000 -1.6974
        vertex 1.4266 0.0000 -1.8210
    endloop
endfacet
facet normal 0.0000 -0.0867 0.0000
    outer loop
        vertex 1.4266 0.0000 -1.8210
        vertex 1.4716 0.0000 -1.7380
        vertex 1.3407 0.0000 -1.6711
    endloop
endfacet
facet normal 0.0000 -0.0275 0.0000
    outer loop
        vertex 3.5332 0.0000 -1.6400
        vertex 3.3916 0.0000 -1.6400
        vertex 3.3866 0.0000 -1.6711
    endloop
endfacet
facet normal 0.0000 -0.0867 0.0000
    outer loop
        vertex 3.3866 0.0000 -1.6711
        vertex 3.5174 0.0000 -1.7380
        vertex 3.5332 0.0000 -1.6400
    endloop
endfacet
facet normal 0.0000 -0.0275 0.0000
    outer loop
        vertex 3.5174 0.0000 -1.7380
        vertex 3.3866 0.0000 -1.6711
        vertex 3.3724 0.0000 -1.6974
    endloop
endfacet
facet normal 0.0000 -0.0867 0.0000
    outer loop
        vertex 3.3724 0.0000 -1.6974
        vertex 3.4725 0.0000 -1.8210
        vertex 3.5174 0.0000 -1.7380
    endloop
endfacet
facet normal 0.0000 -0.0275 0.0000
    outer loop
        vertex 3.4725 0.0000 -1.8210
        vertex 3.3724 0.0000 -1.6974
        vertex 3.3510 0.0000 -1.7150
    endloop
endfacet
facet normal 0.0000 -0.0867 0.0000
    outer loop
        vertex 3.3510 0.0000 -1.7150
        vertex 3.4052 0.0000 -1.8765
        vertex 3.4725 0.0000 -1.8210
    endloop
endfacet
facet normal 0.0000 -0.0275 0.0000
    outer loop
        vertex 3.4052 0.0000 -1.8765
        vertex 3.3510 0.0000 -1.7150
        vertex 3.3259 0.0000 -1.7212
    endloop
endfacet
facet normal 0.0000 -0.0867 0.0000
    outer loop
        vertex 3.3259 0.0000 -1.7212
        vertex 3.3259 0.0000 -1.8960
        vertex 3.4052 0.0000 -1.8765
    endloop
endfacet
facet normal 0.0000 -0.0275 0.0000
    outer loop
        vertex 3.3259 0.0000 -1.8960
        vertex 3.3259 0.0000 -1.7212
        vertex 3.3007 0.0000 -1.7150
    endloop
endfacet
facet normal 0.0000 -0.0867 0.0000
    outer loop
        vertex 3.3007 0.0000 -1.7150
        vertex 3.2465 0.0000 -1.8765
        vertex 3.3259 0.0000 -1.8960
    endloop
endfacet
facet normal 0.0000 -0.0275 0.0000
    outer loop
        vertex 3.2465 0.0000 -1.8765
        vertex 3.3007 0.0000 -1.7150
        vertex 3.2794 0.0000 -1.6974
    endloop
endfacet
facet normal 0.0000 -0.0867 0.0000
    outer loop
        vertex 3.2794 0.0000 -1.6974
        vertex 3.1792 0.0000 -1.8210
        vertex 3.2465 0.0000 -1.8765
    endloop
endfacet
facet normal 0.0000 -0.0275 0.0000
    outer loop
        vertex 3.1792 0.0000 -1.8210
        vertex 3.2794 0.0000 -1.6974
        vertex 3.2651 0.0000 -1.6711
    endloop
endfacet
facet normal 0.0000 -0.0867 0.0000
    outer loop
        vertex 3.2651 0.0000 -1.6711
        vertex 3.1343 0.0000 -1.7380
        vertex 3.1792 0.0000 -1.8210
    endloop
endfacet
facet normal 0.0000 -4.2392 0.0000
    outer loop
        vertex 3.4612 0.0000 2.2800
        vertex 3.2882 0.0000 2.2800
        vertex 3.3916 0.0000 -1.6400
    endloop
endfacet
facet normal 0.0000 -3.4694 0.0000
    outer loop
        vertex 3.3916 0.0000 -1.6400
        vertex 3.5332 0.0000 -1.6400
        vertex 3.4612 0.0000 2.2800
    endloop
endfacet
facet normal 0.0000 -3.4694 0.0000
    outer loop
        vertex 1.1388 0.0000 2.2800
        vertex 1.0726 0.0000 -1.6400
        vertex 1.2142 0.0000 -1.6400
    endloop
endfacet
facet normal 0.0000 -4.2392 0.0000
    outer loop
        vertex 1.2142 0.0000 -1.6400
        vertex 1.3118 0.0000 2.2800
        vertex 1.1388 0.0000 2.2800
    endloop
endfacet
facet normal 0.0000 -3.4998 0.0000
    outer loop
        vertex 0.6248 0.0000 -1.4400
        vertex 0.6248 0.0000 1.8800
        vertex 0.4561 0.0000 1.8800
    endloop
endfacet
facet normal 0.0000 -3.4998 0.0000
    outer loop
        vertex 0.4561 0.0000 1.8800
        vertex 0.4561 0.0000 -1.4400
        vertex 0.6248 0.0000 -1.4400
    endloop
endfacet
facet normal 0.0000 -3.4576 0.0000
    outer loop
        vertex 0.1600 0.0000 2.3448
        vertex -3.1200 0.0000 2.3448
        vertex -3.1200 0.0000 2.1761
    endloop
endfacet
facet normal 0.0000 -3.4576 0.0000
    outer loop
        vertex -3.1200 0.0000 2.1761
        vertex 0.1600 0.0000 2.1761
        vertex 0.1600 0.0000 2.3448
    endloop
endfacet
facet normal 0.0000 -6.3544 0.0000
    outer loop
        vertex -2.2342 0.0000 -2.3528
        vertex -2.0108 0.0000 -2.6072
        vertex 1.9857 0.0000 -2.6072
    endloop
endfacet
facet normal 0.0000 -7.1114 0.0000
    outer loop
        vertex 1.9857 0.0000 -2.6072
        vertex 2.2384 0.0000 -2.3528
        vertex -2.2342 0.0000 -2.3528
    endloop
endfacet
facet normal 0.0000 -6.4742 0.0000
    outer loop
        vertex -2.1355 0.0000 -3.0728
        vertex -2.0365 0.0000 -3.3272
        vertex 2.0353 0.0000 -3.3272
    endloop
endfacet
facet normal 0.0000 -6.7512 0.0000
    outer loop
        vertex 2.0353 0.0000 -3.3272
        vertex 2.1105 0.0000 -3.0728
        vertex -2.1355 0.0000 -3.0728
    endloop
endfacet
facet normal 0.0000 -0.2495 0.0000
    outer loop
        vertex 2.1105 0.0000 -3.0728
        vertex 2.0353 0.0000 -3.3272
        vertex 2.1214 0.0000 -3.5672
    endloop
endfacet
facet normal 0.0000 -1.3670 0.0000
    outer loop
        vertex 2.1214 0.0000 -3.5672
        vertex 2.5638 0.0000 -3.5672
        vertex 2.1105 0.0000 -3.0728
    endloop
endfacet
facet normal 0.0000 -2.4352 0.0000
    outer loop
        vertex 2.1105 0.0000 -3.0728
        vertex 2.5638 0.0000 -3.5672
        vertex 2.2384 0.0000 -2.3528
    endloop
endfacet
facet normal 0.0000 -0.9337 0.0000
    outer loop
        vertex 2.2384 0.0000 -2.3528
        vertex 1.9857 0.0000 -2.6072
        vertex 2.1105 0.0000 -3.0728
    endloop
endfacet
facet normal 0.0000 -0.8485 0.0000
    outer loop
        vertex -2.1355 0.0000 -3.0728
        vertex -2.0108 0.0000 -2.6072
        vertex -2.2342 0.0000 -2.3528
    endloop
endfacet
facet normal 0.0000 -2.2130 0.0000
    outer loop
        vertex -2.2342 0.0000 -2.3528
        vertex -2.5596 0.0000 -3.5672
        vertex -2.1355 0.0000 -3.0728
    endloop
endfacet
facet normal 0.0000 -1.3504 0.0000
    outer loop
        vertex -2.1355 0.0000 -3.0728
        vertex -2.5596 0.0000 -3.5672
        vertex -2.1226 0.0000 -3.5672
    endloop
endfacet
facet normal 0.0000 -0.2854 0.0000
    outer loop
        vertex -2.1226 0.0000 -3.5672
        vertex -2.0365 0.0000 -3.3272
        vertex -2.1355 0.0000 -3.0728
    endloop
endfacet
facet normal 0.0000 -12.3559 0.0000
    outer loop
        vertex -2.0108 0.0000 -2.6072
        vertex -2.1355 0.0000 -3.0728
        vertex 2.1105 0.0000 -3.0728
    endloop
endfacet
facet normal 0.0000 -11.6298 0.0000
    outer loop
        vertex 2.1105 0.0000 -3.0728
        vertex 1.9857 0.0000 -2.6072
        vertex -2.0108 0.0000 -2.6072
    endloop
endfacet
facet normal 0.0000 -3.0553 0.0000
    outer loop
        vertex -0.9102 0.0000 0.5326
        vertex -1.2000 0.0000 0.0800
        vertex -0.1200 0.0000 0.0800
    endloop
endfacet
facet normal 0.0000 -1.5290 0.0000
    outer loop
        vertex -0.1200 0.0000 0.0800
        vertex -0.3698 0.0000 0.5326
        vertex -0.9102 0.0000 0.5326
    endloop
endfacet
facet normal 0.0000 -0.4601 0.0000
    outer loop
        vertex -0.3698 0.0000 0.8274
        vertex -0.3698 0.0000 0.5326
        vertex -0.1200 0.0000 0.0800
    endloop
endfacet
facet normal 0.0000 -2.4352 0.0000
    outer loop
        vertex -0.1200 0.0000 0.0800
        vertex -0.1200 0.0000 1.6400
        vertex -0.3698 0.0000 0.8274
    endloop
endfacet
facet normal 0.0000 -2.8252 0.0000
    outer loop
        vertex -1.2000 0.0000 1.6400
        vertex -1.2000 0.0000 0.0800
        vertex -0.9102 0.0000 0.5326
    endloop
endfacet
facet normal 0.0000 -0.5337 0.0000
    outer loop
        vertex -0.9102 0.0000 0.5326
        vertex -0.9102 0.0000 0.8274
        vertex -1.2000 0.0000 1.6400
    endloop
endfacet
facet normal 0.0000 -2.7451 0.0000
    outer loop
        vertex -1.2000 0.0000 1.6400
        vertex -0.9102 0.0000 0.8274
        vertex -0.3698 0.0000 0.8274
    endloop
endfacet
facet normal 0.0000 -5.4853 0.0000
    outer loop
        vertex -0.3698 0.0000 0.8274
        vertex -0.1200 0.0000 1.6400
        vertex -1.2000 0.0000 1.6400
    endloop
endfacet
facet normal 0.0000 -1.4175 0.0000
    outer loop
        vertex -0.1200 0.0000 1.8500
        vertex -1.2000 0.0000 1.8500
        vertex -1.2000 0.0000 1.6400
    endloop
endfacet
facet normal 0.0000 -1.4175 0.0000
    outer loop
        vertex -1.2000 0.0000 1.6400
        vertex -0.1200 0.0000 1.6400
        vertex -0.1200 0.0000 1.8500
    endloop
endfacet
facet normal 0.0000 -0.7872 0.0000
    outer loop
        vertex -2.8068 0.0000 2.0268
        vertex -2.8068 0.0000 1.3332
        vertex -2.6252 0.0000 1.3412
    endloop
endfacet
facet normal 0.0000 -0.7691 0.0000
    outer loop
        vertex -2.6252 0.0000 1.3412
        vertex -2.6252 0.0000 2.0188
        vertex -2.8068 0.0000 2.0268
    endloop
endfacet
facet normal 0.0000 -0.2113 0.0000
    outer loop
        vertex -3.0332 0.0000 2.0268
        vertex -2.8068 0.0000 2.0268
        vertex -3.1200 0.0000 2.1761
    endloop
endfacet
facet normal 0.0000 -0.1180 0.0000
    outer loop
        vertex -3.1200 0.0000 2.1761
        vertex -3.2333 0.0000 2.1536
        vertex -3.0332 0.0000 2.0268
    endloop
endfacet
facet normal 0.0000 -0.1538 0.0000
    outer loop
        vertex -3.1200 0.0000 2.1761
        vertex -2.8068 0.0000 2.0268
        vertex -2.6252 0.0000 2.0188
    endloop
endfacet
facet normal 0.0000 -0.2069 0.0000
    outer loop
        vertex -2.6252 0.0000 2.0188
        vertex -2.4148 0.0000 2.0188
        vertex -3.1200 0.0000 2.1761
    endloop
endfacet
facet normal 0.0000 -3.2254 0.0000
    outer loop
        vertex 0.1600 0.0000 2.1761
        vertex -3.1200 0.0000 2.1761
        vertex -2.4148 0.0000 2.0188
    endloop
endfacet
facet normal 0.0000 -3.9110 0.0000
    outer loop
        vertex -2.4148 0.0000 2.0188
        vertex -1.2000 0.0000 1.8500
        vertex 0.1600 0.0000 2.1761
    endloop
endfacet
facet normal 0.0000 -2.2014 0.0000
    outer loop
        vertex 0.1600 0.0000 2.1761
        vertex -1.2000 0.0000 1.8500
        vertex -0.1200 0.0000 1.8500
    endloop
endfacet
facet normal 0.0000 -0.2633 0.0000
    outer loop
        vertex 0.1600 0.0000 2.1761
        vertex -0.1200 0.0000 1.8500
        vertex -0.0150 0.0000 1.8219
    endloop
endfacet
facet normal 0.0000 -0.2756 0.0000
    outer loop
        vertex -0.0150 0.0000 1.8219
        vertex 0.2733 0.0000 2.1536
        vertex 0.1600 0.0000 2.1761
    endloop
endfacet
facet normal 0.0000 -0.2979 0.0000
    outer loop
        vertex 0.2733 0.0000 2.1536
        vertex -0.0150 0.0000 1.8219
        vertex 0.0619 0.0000 1.7450
    endloop
endfacet
facet normal 0.0000 -0.3302 0.0000
    outer loop
        vertex 0.0619 0.0000 1.7450
        vertex 0.3694 0.0000 2.0894
        vertex 0.2733 0.0000 2.1536
    endloop
endfacet
facet normal 0.0000 -0.3228 0.0000
    outer loop
        vertex 0.4336 0.0000 1.9933
        vertex 0.3694 0.0000 2.0894
        vertex 0.0619 0.0000 1.7450
    endloop
endfacet
facet normal 0.0000 -0.2876 0.0000
    outer loop
        vertex 0.0619 0.0000 1.7450
        vertex 0.0900 0.0000 1.6400
        vertex 0.4336 0.0000 1.9933
    endloop
endfacet
facet normal 0.0000 -0.2931 0.0000
    outer loop
        vertex 0.4561 0.0000 1.8800
        vertex 0.4336 0.0000 1.9933
        vertex 0.0900 0.0000 1.6400
    endloop
endfacet
facet normal 0.0000 -3.5698 0.0000
    outer loop
        vertex 0.0900 0.0000 1.6400
        vertex 0.0900 0.0000 0.0800
        vertex 0.4561 0.0000 1.8800
    endloop
endfacet
facet normal 0.0000 -7.5973 0.0000
    outer loop
        vertex 0.4561 0.0000 1.8800
        vertex 0.0900 0.0000 0.0800
        vertex 0.4561 0.0000 -1.4400
    endloop
endfacet
facet normal 0.0000 -0.5076 0.0000
    outer loop
        vertex 0.4561 0.0000 -1.4400
        vertex 0.0900 0.0000 0.0800
        vertex 0.0619 0.0000 -0.0250
    endloop
endfacet
facet normal 0.0000 -0.4786 0.0000
    outer loop
        vertex 0.0619 0.0000 -0.0250
        vertex 0.4336 0.0000 -1.5533
        vertex 0.4561 0.0000 -1.4400
    endloop
endfacet
facet normal 0.0000 -0.9128 0.0000
    outer loop
        vertex 0.4336 0.0000 -1.5533
        vertex 0.0619 0.0000 -0.0250
        vertex -0.0150 0.0000 -0.1019
    endloop
endfacet
facet normal 0.0000 -0.8517 0.0000
    outer loop
        vertex -0.0150 0.0000 -0.1019
        vertex 0.3694 0.0000 -1.6494
        vertex 0.4336 0.0000 -1.5533
    endloop
endfacet
facet normal 0.0000 -1.0832 0.0000
    outer loop
        vertex 0.3694 0.0000 -1.6494
        vertex -0.0150 0.0000 -0.1019
        vertex -0.1200 0.0000 -0.1300
    endloop
endfacet
facet normal 0.0000 -0.8085 0.0000
    outer loop
        vertex -0.1200 0.0000 -0.1300
        vertex -0.1268 0.0000 -0.3732
        vertex 0.3694 0.0000 -1.6494
    endloop
endfacet
facet normal 0.0000 -0.9654 0.0000
    outer loop
        vertex 0.2733 0.0000 -1.7136
        vertex 0.3694 0.0000 -1.6494
        vertex -0.1268 0.0000 -0.3732
    endloop
endfacet
facet normal 0.0000 -2.1347 0.0000
    outer loop
        vertex -0.1268 0.0000 -0.3732
        vertex -0.1268 0.0000 -1.2268
        vertex 0.2733 0.0000 -1.7136
    endloop
endfacet
facet normal 0.0000 -0.4012 0.0000
    outer loop
        vertex 0.1600 0.0000 -1.7361
        vertex 0.2733 0.0000 -1.7136
        vertex -0.1268 0.0000 -1.2268
    endloop
endfacet
facet normal 0.0000 -10.4414 0.0000
    outer loop
        vertex -0.1268 0.0000 -1.2268
        vertex -3.1200 0.0000 -1.7361
        vertex 0.1600 0.0000 -1.7361
    endloop
endfacet
facet normal 0.0000 -3.7767 0.0000
    outer loop
        vertex -3.1200 0.0000 -1.7361
        vertex -0.1268 0.0000 -1.2268
        vertex -1.3132 0.0000 -1.2268
    endloop
endfacet
facet normal 0.0000 -1.7835 0.0000
    outer loop
        vertex -1.3132 0.0000 -1.2268
        vertex -1.9600 0.0000 -1.2512
        vertex -3.1200 0.0000 -1.7361
    endloop
endfacet
facet normal 0.0000 -1.8033 0.0000
    outer loop
        vertex -1.2000 0.0000 -0.1300
        vertex -1.3132 0.0000 -0.3732
        vertex -0.1268 0.0000 -0.3732
    endloop
endfacet
facet normal 0.0000 -1.6416 0.0000
    outer loop
        vertex -0.1268 0.0000 -0.3732
        vertex -0.1200 0.0000 -0.1300
        vertex -1.2000 0.0000 -0.1300
    endloop
endfacet
facet normal 0.0000 -0.1795 0.0000
    outer loop
        vertex -1.3132 0.0000 -0.3732
        vertex -1.2000 0.0000 -0.1300
        vertex -1.3050 0.0000 -0.1019
    endloop
endfacet
facet normal 0.0000 -1.1799 0.0000
    outer loop
        vertex -1.3050 0.0000 -0.1019
        vertex -2.0255 0.0000 -0.9218
        vertex -1.3132 0.0000 -0.3732
    endloop
endfacet
facet normal 0.0000 -0.3244 0.0000
    outer loop
        vertex -2.4148 0.0000 2.0188
        vertex -1.3050 0.0000 1.8219
        vertex -1.2000 0.0000 1.8500
    endloop
endfacet
facet normal 0.0000 -0.6278 0.0000
    outer loop
        vertex -2.4148 0.0000 2.0188
        vertex -1.3819 0.0000 1.7450
        vertex -1.3050 0.0000 1.8219
    endloop
endfacet
facet normal 0.0000 -0.7260 0.0000
    outer loop
        vertex -1.4100 0.0000 1.6400
        vertex -1.3819 0.0000 1.7450
        vertex -2.4148 0.0000 2.0188
    endloop
endfacet
facet normal 0.0000 -4.2553 0.0000
    outer loop
        vertex -2.4148 0.0000 2.0188
        vertex -2.4148 0.0000 1.3412
        vertex -1.4100 0.0000 1.6400
    endloop
endfacet
facet normal 0.0000 -9.7968 0.0000
    outer loop
        vertex -1.4100 0.0000 0.0800
        vertex -1.4100 0.0000 1.6400
        vertex -2.4148 0.0000 1.3412
    endloop
endfacet
facet normal 0.0000 -13.7670 0.0000
    outer loop
        vertex -2.4148 0.0000 1.3412
        vertex -2.3748 0.0000 -0.9012
        vertex -1.4100 0.0000 0.0800
    endloop
endfacet
facet normal 0.0000 -2.9488 0.0000
    outer loop
        vertex -2.3748 0.0000 -0.9012
        vertex -2.4148 0.0000 1.3412
        vertex -2.6252 0.0000 1.3412
    endloop
endfacet
facet normal 0.0000 -2.5576 0.0000
    outer loop
        vertex -2.6252 0.0000 1.3412
        vertex -2.8068 0.0000 1.3332
        vertex -2.3748 0.0000 -0.9012
    endloop
endfacet
facet normal 0.0000 -3.1617 0.0000
    outer loop
        vertex -2.3748 0.0000 -0.9012
        vertex -2.8068 0.0000 1.3332
        vertex -3.0332 0.0000 1.3332
    endloop
endfacet
facet normal 0.0000 -9.6414 0.0000
    outer loop
        vertex -3.0332 0.0000 1.3332
        vertex -3.0652 0.0000 -0.9012
        vertex -2.3748 0.0000 -0.9012
    endloop
endfacet
facet normal 0.0000 -5.4571 0.0000
    outer loop
        vertex -3.4161 0.0000 1.8800
        vertex -3.0652 0.0000 -0.9012
        vertex -3.0332 0.0000 1.3332
    endloop
endfacet
facet normal 0.0000 -1.6600 0.0000
    outer loop
        vertex -3.0332 0.0000 1.3332
        vertex -3.0332 0.0000 2.0268
        vertex -3.4161 0.0000 1.8800
    endloop
endfacet
facet normal 0.0000 -0.4871 0.0000
    outer loop
        vertex -3.4161 0.0000 1.8800
        vertex -3.0332 0.0000 2.0268
        vertex -3.2333 0.0000 2.1536
    endloop
endfacet
facet normal 0.0000 -0.0909 0.0000
    outer loop
        vertex -3.2333 0.0000 2.1536
        vertex -3.3294 0.0000 2.0894
        vertex -3.4161 0.0000 1.8800
    endloop
endfacet
facet normal 0.0000 -0.0319 0.0000
    outer loop
        vertex -3.3294 0.0000 2.0894
        vertex -3.3936 0.0000 1.9933
        vertex -3.4161 0.0000 1.8800
    endloop
endfacet
facet normal 0.0000 -0.2741 0.0000
    outer loop
        vertex -3.0652 0.0000 -1.2588
        vertex -3.4161 0.0000 -1.4400
        vertex -3.3936 0.0000 -1.5533
    endloop
endfacet
facet normal 0.0000 -0.3154 0.0000
    outer loop
        vertex -3.3936 0.0000 -1.5533
        vertex -3.3294 0.0000 -1.6494
        vertex -3.0652 0.0000 -1.2588
    endloop
endfacet
facet normal 0.0000 -0.3405 0.0000
    outer loop
        vertex -3.0652 0.0000 -1.2588
        vertex -3.3294 0.0000 -1.6494
        vertex -3.2333 0.0000 -1.7136
    endloop
endfacet
facet normal 0.0000 -0.3458 0.0000
    outer loop
        vertex -3.2333 0.0000 -1.7136
        vertex -3.1200 0.0000 -1.7361
        vertex -3.0652 0.0000 -1.2588
    endloop
endfacet
facet normal 0.0000 -2.0597 0.0000
    outer loop
        vertex -2.3748 0.0000 -1.2588
        vertex -3.0652 0.0000 -1.2588
        vertex -3.1200 0.0000 -1.7361
    endloop
endfacet
facet normal 0.0000 -1.2021 0.0000
    outer loop
        vertex -2.3748 0.0000 -1.2588
        vertex -3.1200 0.0000 -1.7361
        vertex -1.9600 0.0000 -1.2512
    endloop
endfacet
facet normal 0.0000 -0.0369 0.0000
    outer loop
        vertex -1.9600 0.0000 -1.2512
        vertex -2.0255 0.0000 -1.2382
        vertex -2.3748 0.0000 -1.2588
    endloop
endfacet
facet normal 0.0000 -0.0427 0.0000
    outer loop
        vertex -1.3132 0.0000 -1.2268
        vertex -1.8945 0.0000 -1.2382
        vertex -1.9600 0.0000 -1.2512
    endloop
endfacet
facet normal 0.0000 -0.1309 0.0000
    outer loop
        vertex -1.8389 0.0000 -1.2011
        vertex -1.8945 0.0000 -1.2382
        vertex -1.3132 0.0000 -1.2268
    endloop
endfacet
facet normal 0.0000 -0.1885 0.0000
    outer loop
        vertex -1.8018 0.0000 -1.1455
        vertex -1.8389 0.0000 -1.2011
        vertex -1.3132 0.0000 -1.2268
    endloop
endfacet
facet normal 0.0000 -0.2067 0.0000
    outer loop
        vertex -1.7888 0.0000 -1.0800
        vertex -1.8018 0.0000 -1.1455
        vertex -1.3132 0.0000 -1.2268
    endloop
endfacet
facet normal 0.0000 -0.1828 0.0000
    outer loop
        vertex -1.8018 0.0000 -1.0145
        vertex -1.7888 0.0000 -1.0800
        vertex -1.3132 0.0000 -1.2268
    endloop
endfacet
facet normal 0.0000 -2.6069 0.0000
    outer loop
        vertex -1.3132 0.0000 -1.2268
        vertex -1.3132 0.0000 -0.3732
        vertex -1.8018 0.0000 -1.0145
    endloop
endfacet
facet normal 0.0000 -0.3184 0.0000
    outer loop
        vertex -1.3132 0.0000 -0.3732
        vertex -1.8389 0.0000 -0.9589
        vertex -1.8018 0.0000 -1.0145
    endloop
endfacet
facet normal 0.0000 -0.3253 0.0000
    outer loop
        vertex -1.3132 0.0000 -0.3732
        vertex -1.8945 0.0000 -0.9218
        vertex -1.8389 0.0000 -0.9589
    endloop
endfacet
facet normal 0.0000 -0.2720 0.0000
    outer loop
        vertex -1.3132 0.0000 -0.3732
        vertex -1.9600 0.0000 -0.9088
        vertex -1.8945 0.0000 -0.9218
    endloop
endfacet
facet normal 0.0000 -0.1666 0.0000
    outer loop
        vertex -1.3132 0.0000 -0.3732
        vertex -2.0255 0.0000 -0.9218
        vertex -1.9600 0.0000 -0.9088
    endloop
endfacet
facet normal 0.0000 -0.7400 0.0000
    outer loop
        vertex -1.3819 0.0000 -0.0250
        vertex -2.0255 0.0000 -0.9218
        vertex -1.3050 0.0000 -0.1019
    endloop
endfacet
facet normal 0.0000 -0.5801 0.0000
    outer loop
        vertex -2.0255 0.0000 -0.9218
        vertex -1.3819 0.0000 -0.0250
        vertex -1.4100 0.0000 0.0800
    endloop
endfacet
facet normal 0.0000 -2.2664 0.0000
    outer loop
        vertex -1.4100 0.0000 0.0800
        vertex -2.3748 0.0000 -0.9012
        vertex -2.0255 0.0000 -0.9218
    endloop
endfacet
facet normal 0.0000 -0.0882 0.0000
    outer loop
        vertex -2.0811 0.0000 -1.2011
        vertex -2.3748 0.0000 -1.2588
        vertex -2.0255 0.0000 -1.2382
    endloop
endfacet
facet normal 0.0000 -0.1154 0.0000
    outer loop
        vertex -2.1182 0.0000 -1.1455
        vertex -2.3748 0.0000 -1.2588
        vertex -2.0811 0.0000 -1.2011
    endloop
endfacet
facet normal 0.0000 -0.1143 0.0000
    outer loop
        vertex -2.3748 0.0000 -1.2588
        vertex -2.1182 0.0000 -1.1455
        vertex -2.1312 0.0000 -1.0800
    endloop
endfacet
facet normal 0.0000 -0.5444 0.0000
    outer loop
        vertex -2.1312 0.0000 -1.0800
        vertex -2.3748 0.0000 -0.9012
        vertex -2.3748 0.0000 -1.2588
    endloop
endfacet
facet normal 0.0000 -0.1143 0.0000
    outer loop
        vertex -2.3748 0.0000 -0.9012
        vertex -2.1312 0.0000 -1.0800
        vertex -2.1182 0.0000 -1.0145
    endloop
endfacet
facet normal 0.0000 -0.1154 0.0000
    outer loop
        vertex -2.3748 0.0000 -0.9012
        vertex -2.1182 0.0000 -1.0145
        vertex -2.0811 0.0000 -0.9589
    endloop
endfacet
facet normal 0.0000 -0.0882 0.0000
    outer loop
        vertex -2.3748 0.0000 -0.9012
        vertex -2.0811 0.0000 -0.9589
        vertex -2.0255 0.0000 -0.9218
    endloop
endfacet
facet normal 0.0000 -0.7843 0.0000
    outer loop
        vertex -3.4161 0.0000 -1.4400
        vertex -3.0652 0.0000 -1.2588
        vertex -3.0652 0.0000 -0.9012
    endloop
endfacet
facet normal 0.0000 -7.2819 0.0000
    outer loop
        vertex -3.0652 0.0000 -0.9012
        vertex -3.4161 0.0000 1.8800
        vertex -3.4161 0.0000 -1.4400
    endloop
endfacet
facet normal 0.0000 -0.7479 0.0000
    outer loop
        vertex 1.3855 0.0000 2.6505
        vertex 1.3118 0.0000 2.2800
        vertex 1.6348 0.0000 2.2800
    endloop
endfacet
facet normal 0.0000 -0.4675 0.0000
    outer loop
        vertex 1.6348 0.0000 2.2800
        vertex 1.6809 0.0000 2.5116
        vertex 1.3855 0.0000 2.6505
    endloop
endfacet
facet normal 0.0000 -0.4763 0.0000
    outer loop
        vertex 1.3855 0.0000 2.6505
        vertex 1.6809 0.0000 2.5116
        vertex 1.8121 0.0000 2.7079
    endloop
endfacet
facet normal 0.0000 -0.7620 0.0000
    outer loop
        vertex 1.8121 0.0000 2.7079
        vertex 1.5954 0.0000 2.9646
        vertex 1.3855 0.0000 2.6505
    endloop
endfacet
facet normal 0.0000 -0.4926 0.0000
    outer loop
        vertex 1.5954 0.0000 2.9646
        vertex 1.8121 0.0000 2.7079
        vertex 2.0084 0.0000 2.8391
    endloop
endfacet
facet normal 0.0000 -0.7880 0.0000
    outer loop
        vertex 2.0084 0.0000 2.8391
        vertex 1.9095 0.0000 3.1745
        vertex 1.5954 0.0000 2.9646
    endloop
endfacet
facet normal 0.0000 -0.8944 0.0000
    outer loop
        vertex 2.2400 0.0000 2.8852
        vertex 2.3200 0.0000 3.2482
        vertex 1.9095 0.0000 3.1745
    endloop
endfacet
facet normal 0.0000 -0.5139 0.0000
    outer loop
        vertex 1.9095 0.0000 3.1745
        vertex 2.0084 0.0000 2.8391
        vertex 2.2400 0.0000 2.8852
    endloop
endfacet
facet normal 0.0000 -0.5484 0.0000
    outer loop
        vertex 2.3200 0.0000 3.2482
        vertex 2.2400 0.0000 2.8852
        vertex 2.4716 0.0000 2.8391
    endloop
endfacet
facet normal 0.0000 -0.8774 0.0000
    outer loop
        vertex 2.4716 0.0000 2.8391
        vertex 2.6905 0.0000 3.1745
        vertex 2.3200 0.0000 3.2482
    endloop
endfacet
facet normal 0.0000 -0.9454 0.0000
    outer loop
        vertex 3.0046 0.0000 2.9646
        vertex 2.6905 0.0000 3.1745
        vertex 2.4716 0.0000 2.8391
    endloop
endfacet
facet normal 0.0000 -0.5910 0.0000
    outer loop
        vertex 2.4716 0.0000 2.8391
        vertex 2.6679 0.0000 2.7079
        vertex 3.0046 0.0000 2.9646
    endloop
endfacet
facet normal 0.0000 -0.6236 0.0000
    outer loop
        vertex 3.0046 0.0000 2.9646
        vertex 2.6679 0.0000 2.7079
        vertex 2.7991 0.0000 2.5116
    endloop
endfacet
facet normal 0.0000 -0.9976 0.0000
    outer loop
        vertex 2.7991 0.0000 2.5116
        vertex 3.2145 0.0000 2.6505
        vertex 3.0046 0.0000 2.9646
    endloop
endfacet
facet normal 0.0000 -1.0258 0.0000
    outer loop
        vertex 3.2882 0.0000 2.2800
        vertex 3.2145 0.0000 2.6505
        vertex 2.7991 0.0000 2.5116
    endloop
endfacet
facet normal 0.0000 -0.6412 0.0000
    outer loop
        vertex 2.7991 0.0000 2.5116
        vertex 2.8452 0.0000 2.2800
        vertex 3.2882 0.0000 2.2800
    endloop
endfacet
facet normal 0.0000 -0.6412 0.0000
    outer loop
        vertex 3.2882 0.0000 2.2800
        vertex 2.8452 0.0000 2.2800
        vertex 2.7991 0.0000 2.0484
    endloop
endfacet
facet normal 0.0000 -0.4102 0.0000
    outer loop
        vertex 3.2882 0.0000 2.2800
        vertex 2.7991 0.0000 2.0484
        vertex 2.6679 0.0000 1.8521
    endloop
endfacet
facet normal 0.0000 -2.8888 0.0000
    outer loop
        vertex 2.6679 0.0000 1.8521
        vertex 3.0482 0.0000 1.3692
        vertex 3.2882 0.0000 2.2800
    endloop
endfacet
facet normal 0.0000 -0.4675 0.0000
    outer loop
        vertex 1.6348 0.0000 2.2800
        vertex 1.3118 0.0000 2.2800
        vertex 1.6809 0.0000 2.0484
    endloop
endfacet
facet normal 0.0000 -0.2630 0.0000
    outer loop
        vertex 1.8121 0.0000 1.8521
        vertex 1.6809 0.0000 2.0484
        vertex 1.3118 0.0000 2.2800
    endloop
endfacet
facet normal 0.0000 -2.0987 0.0000
    outer loop
        vertex 1.3118 0.0000 2.2800
        vertex 1.5918 0.0000 1.3692
        vertex 1.8121 0.0000 1.8521
    endloop
endfacet
facet normal 0.0000 -0.1335 0.0000
    outer loop
        vertex 2.2400 0.0000 2.7552
        vertex 2.2400 0.0000 2.4924
        vertex 2.3213 0.0000 2.4762
    endloop
endfacet
facet normal 0.0000 -0.2986 0.0000
    outer loop
        vertex 2.3213 0.0000 2.4762
        vertex 2.4218 0.0000 2.7190
        vertex 2.2400 0.0000 2.7552
    endloop
endfacet
facet normal 0.0000 -0.1335 0.0000
    outer loop
        vertex 2.4362 0.0000 2.3613
        vertex 2.4524 0.0000 2.2800
        vertex 2.7152 0.0000 2.2800
    endloop
endfacet
facet normal 0.0000 -0.2986 0.0000
    outer loop
        vertex 2.7152 0.0000 2.2800
        vertex 2.6790 0.0000 2.4618
        vertex 2.4362 0.0000 2.3613
    endloop
endfacet
facet normal 0.0000 -0.1335 0.0000
    outer loop
        vertex 2.0582 0.0000 2.7190
        vertex 2.1587 0.0000 2.4762
        vertex 2.2400 0.0000 2.4924
    endloop
endfacet
facet normal 0.0000 -0.2986 0.0000
    outer loop
        vertex 2.2400 0.0000 2.4924
        vertex 2.2400 0.0000 2.7552
        vertex 2.0582 0.0000 2.7190
    endloop
endfacet
facet normal 0.0000 -0.2986 0.0000
    outer loop
        vertex 1.8010 0.0000 2.4618
        vertex 1.7648 0.0000 2.2800
        vertex 2.0276 0.0000 2.2800
    endloop
endfacet
facet normal 0.0000 -0.1335 0.0000
    outer loop
        vertex 2.0276 0.0000 2.2800
        vertex 2.0438 0.0000 2.3613
        vertex 1.8010 0.0000 2.4618
    endloop
endfacet
facet normal 0.0000 -0.2986 0.0000
    outer loop
        vertex 1.7648 0.0000 2.2800
        vertex 1.8010 0.0000 2.0982
        vertex 2.0438 0.0000 2.1987
    endloop
endfacet
facet normal 0.0000 -0.1335 0.0000
    outer loop
        vertex 2.0438 0.0000 2.1987
        vertex 2.0276 0.0000 2.2800
        vertex 1.7648 0.0000 2.2800
    endloop
endfacet
facet normal 0.0000 -0.2986 0.0000
    outer loop
        vertex 2.1587 0.0000 2.0838
        vertex 2.0582 0.0000 1.8410
        vertex 2.2400 0.0000 1.8048
    endloop
endfacet
facet normal 0.0000 -0.1335 0.0000
    outer loop
        vertex 2.2400 0.0000 1.8048
        vertex 2.2400 0.0000 2.0676
        vertex 2.1587 0.0000 2.0838
    endloop
endfacet
facet normal 0.0000 -0.2986 0.0000
    outer loop
        vertex 2.2400 0.0000 2.0676
        vertex 2.2400 0.0000 1.8048
        vertex 2.4218 0.0000 1.8410
    endloop
endfacet
facet normal 0.0000 -0.1335 0.0000
    outer loop
        vertex 2.4218 0.0000 1.8410
        vertex 2.3213 0.0000 2.0838
        vertex 2.2400 0.0000 2.0676
    endloop
endfacet
facet normal 0.0000 -0.1335 0.0000
    outer loop
        vertex 2.4524 0.0000 2.2800
        vertex 2.4362 0.0000 2.1987
        vertex 2.6790 0.0000 2.0982
    endloop
endfacet
facet normal 0.0000 -0.2986 0.0000
    outer loop
        vertex 2.6790 0.0000 2.0982
        vertex 2.7152 0.0000 2.2800
        vertex 2.4524 0.0000 2.2800
    endloop
endfacet
facet normal 0.0000 -0.1335 0.0000
    outer loop
        vertex 2.4362 0.0000 2.1987
        vertex 2.3902 0.0000 2.1298
        vertex 2.5760 0.0000 1.9440
    endloop
endfacet
facet normal 0.0000 -0.2986 0.0000
    outer loop
        vertex 2.5760 0.0000 1.9440
        vertex 2.6790 0.0000 2.0982
        vertex 2.4362 0.0000 2.1987
    endloop
endfacet
facet normal 0.0000 -0.2986 0.0000
    outer loop
        vertex 2.3213 0.0000 2.0838
        vertex 2.4218 0.0000 1.8410
        vertex 2.5760 0.0000 1.9440
    endloop
endfacet
facet normal 0.0000 -0.1335 0.0000
    outer loop
        vertex 2.5760 0.0000 1.9440
        vertex 2.3902 0.0000 2.1298
        vertex 2.3213 0.0000 2.0838
    endloop
endfacet
facet normal 0.0000 -0.2987 0.0000
    outer loop
        vertex 2.0898 0.0000 2.1298
        vertex 1.9040 0.0000 1.9440
        vertex 2.0582 0.0000 1.8410
    endloop
endfacet
facet normal 0.0000 -0.1335 0.0000
    outer loop
        vertex 2.0582 0.0000 1.8410
        vertex 2.1587 0.0000 2.0838
        vertex 2.0898 0.0000 2.1298
    endloop
endfacet
facet normal 0.0000 -0.2986 0.0000
    outer loop
        vertex 2.0438 0.0000 2.1987
        vertex 1.8010 0.0000 2.0982
        vertex 1.9040 0.0000 1.9440
    endloop
endfacet
facet normal 0.0000 -0.1335 0.0000
    outer loop
        vertex 1.9040 0.0000 1.9440
        vertex 2.0898 0.0000 2.1298
        vertex 2.0438 0.0000 2.1987
    endloop
endfacet
facet normal 0.0000 -0.1335 0.0000
    outer loop
        vertex 1.8010 0.0000 2.4618
        vertex 2.0438 0.0000 2.3613
        vertex 2.0898 0.0000 2.4302
    endloop
endfacet
facet normal 0.0000 -0.2987 0.0000
    outer loop
        vertex 2.0898 0.0000 2.4302
        vertex 1.9040 0.0000 2.6160
        vertex 1.8010 0.0000 2.4618
    endloop
endfacet
facet normal 0.0000 -0.1335 0.0000
    outer loop
        vertex 1.9040 0.0000 2.6160
        vertex 2.0898 0.0000 2.4302
        vertex 2.1587 0.0000 2.4762
    endloop
endfacet
facet normal 0.0000 -0.2986 0.0000
    outer loop
        vertex 2.1587 0.0000 2.4762
        vertex 2.0582 0.0000 2.7190
        vertex 1.9040 0.0000 2.6160
    endloop
endfacet
facet normal 0.0000 -0.1335 0.0000
    outer loop
        vertex 2.4218 0.0000 2.7190
        vertex 2.3213 0.0000 2.4762
        vertex 2.3902 0.0000 2.4302
    endloop
endfacet
facet normal 0.0000 -0.2987 0.0000
    outer loop
        vertex 2.3902 0.0000 2.4302
        vertex 2.5760 0.0000 2.6160
        vertex 2.4218 0.0000 2.7190
    endloop
endfacet
facet normal 0.0000 -0.1335 0.0000
    outer loop
        vertex 2.3902 0.0000 2.4302
        vertex 2.4362 0.0000 2.3613
        vertex 2.6790 0.0000 2.4618
    endloop
endfacet
facet normal 0.0000 -0.2987 0.0000
    outer loop
        vertex 2.6790 0.0000 2.4618
        vertex 2.5760 0.0000 2.6160
        vertex 2.3902 0.0000 2.4302
    endloop
endfacet
facet normal 0.0000 -0.5512 0.0000
    outer loop
        vertex -2.1988 0.0000 3.6028
        vertex -2.1988 0.0000 3.1172
        vertex -2.0172 0.0000 3.0452
    endloop
endfacet
facet normal 0.0000 -0.6238 0.0000
    outer loop
        vertex -2.0172 0.0000 3.0452
        vertex -2.0172 0.0000 3.5948
        vertex -2.1988 0.0000 3.6028
    endloop
endfacet
facet normal 0.0000 -1.3198 0.0000
    outer loop
        vertex -2.0172 0.0000 3.0452
        vertex -3.2012 0.0000 2.8988
        vertex -1.7588 0.0000 2.8988
    endloop
endfacet
facet normal 0.0000 -0.2511 0.0000
    outer loop
        vertex -1.7588 0.0000 2.8988
        vertex -1.7428 0.0000 3.0452
        vertex -2.0172 0.0000 3.0452
    endloop
endfacet
facet normal 0.0000 -1.4229 0.0000
    outer loop
        vertex -2.1988 0.0000 3.1172
        vertex -3.2412 0.0000 3.1172
        vertex -3.2012 0.0000 2.8988
    endloop
endfacet
facet normal 0.0000 -0.6990 0.0000
    outer loop
        vertex -3.2012 0.0000 2.8988
        vertex -2.0172 0.0000 3.0452
        vertex -2.1988 0.0000 3.1172
    endloop
endfacet
facet normal 0.0000 -0.2937 0.0000
    outer loop
        vertex 0.5894 0.0000 -1.6179
        vertex 1.0884 0.0000 -1.7380
        vertex 1.0726 0.0000 -1.6400
    endloop
endfacet
facet normal 0.0000 -0.5421 0.0000
    outer loop
        vertex 1.0726 0.0000 -1.6400
        vertex 0.6248 0.0000 -1.4400
        vertex 0.5894 0.0000 -1.6179
    endloop
endfacet
facet normal 0.0000 -0.3199 0.0000
    outer loop
        vertex 0.4887 0.0000 -1.7687
        vertex 1.1334 0.0000 -1.8210
        vertex 1.0884 0.0000 -1.7380
    endloop
endfacet
facet normal 0.0000 -0.5459 0.0000
    outer loop
        vertex 1.0884 0.0000 -1.7380
        vertex 0.5894 0.0000 -1.6179
        vertex 0.4887 0.0000 -1.7687
    endloop
endfacet
facet normal 0.0000 -0.5500 0.0000
    outer loop
        vertex 0.4887 0.0000 -1.7687
        vertex 0.3379 0.0000 -1.8694
        vertex 1.2006 0.0000 -1.8765
    endloop
endfacet
facet normal 0.0000 -0.2016 0.0000
    outer loop
        vertex 1.2006 0.0000 -1.8765
        vertex 1.1334 0.0000 -1.8210
        vertex 0.4887 0.0000 -1.7687
    endloop
endfacet
facet normal 0.0000 -0.0236 0.0000
    outer loop
        vertex 1.3407 0.0000 -1.6711
        vertex 1.2142 0.0000 -1.6400
        vertex 1.2193 0.0000 -1.6711
    endloop
endfacet
facet normal 0.0000 -0.0200 0.0000
    outer loop
        vertex 1.2193 0.0000 -1.6711
        vertex 1.3265 0.0000 -1.6974
        vertex 1.3407 0.0000 -1.6711
    endloop
endfacet
facet normal 0.0000 -0.0153 0.0000
    outer loop
        vertex 1.3265 0.0000 -1.6974
        vertex 1.2193 0.0000 -1.6711
        vertex 1.2335 0.0000 -1.6974
    endloop
endfacet
facet normal 0.0000 -0.0102 0.0000
    outer loop
        vertex 1.2335 0.0000 -1.6974
        vertex 1.3052 0.0000 -1.7150
        vertex 1.3265 0.0000 -1.6974
    endloop
endfacet
facet normal 0.0000 -0.0055 0.0000
    outer loop
        vertex 1.3052 0.0000 -1.7150
        vertex 1.2335 0.0000 -1.6974
        vertex 1.2548 0.0000 -1.7150
    endloop
endfacet
facet normal 0.0000 -0.0019 0.0000
    outer loop
        vertex 1.2548 0.0000 -1.7150
        vertex 1.2800 0.0000 -1.7212
        vertex 1.3052 0.0000 -1.7150
    endloop
endfacet
facet normal 0.0000 -0.0236 0.0000
    outer loop
        vertex 3.3866 0.0000 -1.6711
        vertex 3.3916 0.0000 -1.6400
        vertex 3.2651 0.0000 -1.6711
    endloop
endfacet
facet normal 0.0000 -0.0200 0.0000
    outer loop
        vertex 3.2651 0.0000 -1.6711
        vertex 3.2794 0.0000 -1.6974
        vertex 3.3866 0.0000 -1.6711
    endloop
endfacet
facet normal 0.0000 -0.0153 0.0000
    outer loop
        vertex 3.3724 0.0000 -1.6974
        vertex 3.3866 0.0000 -1.6711
        vertex 3.2794 0.0000 -1.6974
    endloop
endfacet
facet normal 0.0000 -0.0102 0.0000
    outer loop
        vertex 3.2794 0.0000 -1.6974
        vertex 3.3007 0.0000 -1.7150
        vertex 3.3724 0.0000 -1.6974
    endloop
endfacet
facet normal 0.0000 -0.0055 0.0000
    outer loop
        vertex 3.3510 0.0000 -1.7150
        vertex 3.3724 0.0000 -1.6974
        vertex 3.3007 0.0000 -1.7150
    endloop
endfacet
facet normal 0.0000 -0.0019 0.0000
    outer loop
        vertex 3.3007 0.0000 -1.7150
        vertex 3.3259 0.0000 -1.7212
        vertex 3.3510 0.0000 -1.7150
    endloop
endfacet
facet normal 0.0000 -2.1936 0.0000
    outer loop
        vertex -1.7588 0.0000 2.8988
        vertex -1.7588 0.0000 2.7812
        vertex 1.2257 0.0000 2.7167
    endloop
endfacet
facet normal 0.0000 -7.1874 0.0000
    outer loop
        vertex 1.2257 0.0000 2.7167
        vertex 1.4730 0.0000 3.0870
        vertex -1.7588 0.0000 2.8988
    endloop
endfacet
facet normal 0.0000 -2.9383 0.0000
    outer loop
        vertex 1.4730 0.0000 3.0870
        vertex -1.7428 0.0000 3.0452
        vertex -1.7588 0.0000 2.8988
    endloop
endfacet
facet normal 0.0000 -11.0464 0.0000
    outer loop
        vertex -1.7428 0.0000 3.5948
        vertex -1.7428 0.0000 3.0452
        vertex 1.4730 0.0000 3.0870
    endloop
endfacet
facet normal 0.0000 -6.1472 0.0000
    outer loop
        vertex 1.4730 0.0000 3.0870
        vertex 1.8433 0.0000 3.3343
        vertex -1.7428 0.0000 3.5948
    endloop
endfacet
facet normal 0.0000 -2.7230 0.0000
    outer loop
        vertex -1.7428 0.0000 3.5948
        vertex 1.8433 0.0000 3.3343
        vertex 2.3200 0.0000 3.4212
    endloop
endfacet
facet normal 0.0000 -16.5200 0.0000
    outer loop
        vertex 2.3200 0.0000 3.4212
        vertex 4.0000 0.0000 4.0000
        vertex -1.7428 0.0000 3.5948
    endloop
endfacet
facet normal 0.0000 -2.4919 0.0000
    outer loop
        vertex 4.0000 0.0000 4.0000
        vertex 2.3200 0.0000 3.4212
        vertex 2.7567 0.0000 3.3343
    endloop
endfacet
facet normal 0.0000 -3.4626 0.0000
    outer loop
        vertex 4.0000 0.0000 4.0000
        vertex 2.7567 0.0000 3.3343
        vertex 3.1270 0.0000 3.0870
    endloop
endfacet
facet normal 0.0000 -3.4319 0.0000
    outer loop
        vertex 4.0000 0.0000 4.0000
        vertex 3.1270 0.0000 3.0870
        vertex 3.3743 0.0000 2.7167
    endloop
endfacet
facet normal 0.0000 -2.4045 0.0000
    outer loop
        vertex 4.0000 0.0000 4.0000
        vertex 3.3743 0.0000 2.7167
        vertex 3.4612 0.0000 2.2800
    endloop
endfacet
facet normal 0.0000 -13.9748 0.0000
    outer loop
        vertex 4.0000 0.0000 4.0000
        vertex 3.4612 0.0000 2.2800
        vertex 3.5332 0.0000 -1.6400
    endloop
endfacet
facet normal 0.0000 -23.3390 0.0000
    outer loop
        vertex 3.5332 0.0000 -1.6400
        vertex 4.0000 0.0000 -4.0000
        vertex 4.0000 0.0000 4.0000
    endloop
endfacet
facet normal 0.0000 -0.5186 0.0000
    outer loop
        vertex 3.5332 0.0000 -1.6400
        vertex 3.5174 0.0000 -1.7380
        vertex 4.0000 0.0000 -4.0000
    endloop
endfacet
facet normal 0.0000 -0.8859 0.0000
    outer loop
        vertex 3.5174 0.0000 -1.7380
        vertex 3.4725 0.0000 -1.8210
        vertex 4.0000 0.0000 -4.0000
    endloop
endfacet
facet normal 0.0000 -1.0991 0.0000
    outer loop
        vertex 3.4725 0.0000 -1.8210
        vertex 3.4052 0.0000 -1.8765
        vertex 4.0000 0.0000 -4.0000
    endloop
endfacet
facet normal 0.0000 -1.1256 0.0000
    outer loop
        vertex 4.0000 0.0000 -4.0000
        vertex 3.4052 0.0000 -1.8765
        vertex 3.3259 0.0000 -1.8960
    endloop
endfacet
facet normal 0.0000 -17.0626 0.0000
    outer loop
        vertex 3.3259 0.0000 -1.8960
        vertex 2.5638 0.0000 -3.5672
        vertex 4.0000 0.0000 -4.0000
    endloop
endfacet
facet normal 0.0000 -0.9217 0.0000
    outer loop
        vertex 3.2465 0.0000 -1.8765
        vertex 2.5638 0.0000 -3.5672
        vertex 3.3259 0.0000 -1.8960
    endloop
endfacet
facet normal 0.0000 -0.9476 0.0000
    outer loop
        vertex 3.1792 0.0000 -1.8210
        vertex 2.5638 0.0000 -3.5672
        vertex 3.2465 0.0000 -1.8765
    endloop
endfacet
facet normal 0.0000 -0.8101 0.0000
    outer loop
        vertex 2.5638 0.0000 -3.5672
        vertex 3.1792 0.0000 -1.8210
        vertex 3.1343 0.0000 -1.7380
    endloop
endfacet
facet normal 0.0000 -8.0502 0.0000
    outer loop
        vertex 3.1343 0.0000 -1.7380
        vertex 2.2384 0.0000 -2.3528
        vertex 2.5638 0.0000 -3.5672
    endloop
endfacet
facet normal 0.0000 -6.3893 0.0000
    outer loop
        vertex 2.2384 0.0000 -2.3528
        vertex 3.1343 0.0000 -1.7380
        vertex 1.4716 0.0000 -1.7380
    endloop
endfacet
facet normal 0.0000 -0.5708 0.0000
    outer loop
        vertex 1.4716 0.0000 -1.7380
        vertex 1.4266 0.0000 -1.8210
        vertex 2.2384 0.0000 -2.3528
    endloop
endfacet
facet normal 0.0000 -0.5051 0.0000
    outer loop
        vertex 1.4266 0.0000 -1.8210
        vertex 1.3594 0.0000 -1.8765
        vertex 2.2384 0.0000 -2.3528
    endloop
endfacet
facet normal 0.0000 -0.3433 0.0000
    outer loop
        vertex 1.3594 0.0000 -1.8765
        vertex 1.2800 0.0000 -1.8960
        vertex 2.2384 0.0000 -2.3528
    endloop
endfacet
facet normal 0.0000 -1.1967 0.0000
    outer loop
        vertex 2.5638 0.0000 -3.5672
        vertex 2.1214 0.0000 -3.5672
        vertex 4.0000 0.0000 -4.0000
    endloop
endfacet
facet normal 0.0000 -11.4798 0.0000
    outer loop
        vertex 4.0000 0.0000 -4.0000
        vertex 2.1214 0.0000 -3.5672
        vertex -2.1226 0.0000 -3.5672
    endloop
endfacet
facet normal 0.0000 -21.6400 0.0000
    outer loop
        vertex -2.1226 0.0000 -3.5672
        vertex -4.0000 0.0000 -4.0000
        vertex 4.0000 0.0000 -4.0000
    endloop
endfacet
facet normal 0.0000 -1.1822 0.0000
    outer loop
        vertex -2.1226 0.0000 -3.5672
        vertex -2.5596 0.0000 -3.5672
        vertex -4.0000 0.0000 -4.0000
    endloop
endfacet
facet normal 0.0000 -6.3659 0.0000
    outer loop
        vertex -2.0365 0.0000 -3.3272
        vertex -2.1226 0.0000 -3.5672
        vertex 2.1214 0.0000 -3.5672
    endloop
endfacet
facet normal 0.0000 -6.1078 0.0000
    outer loop
        vertex 2.1214 0.0000 -3.5672
        vertex 2.0353 0.0000 -3.3272
        vertex -2.0365 0.0000 -3.3272
    endloop
endfacet
facet normal 0.0000 -9.1840 0.0000
    outer loop
        vertex 0.1600 0.0000 -1.9048
        vertex -3.1200 0.0000 -1.9048
        vertex -2.2342 0.0000 -2.3528
    endloop
endfacet
facet normal 0.0000 -12.5232 0.0000
    outer loop
        vertex -2.2342 0.0000 -2.3528
        vertex 2.2384 0.0000 -2.3528
        vertex 0.1600 0.0000 -1.9048
    endloop
endfacet
facet normal 0.0000 -0.9576 0.0000
    outer loop
        vertex 0.3379 0.0000 -1.8694
        vertex 0.1600 0.0000 -1.9048
        vertex 2.2384 0.0000 -2.3528
    endloop
endfacet
facet normal 0.0000 -2.5306 0.0000
    outer loop
        vertex 2.2384 0.0000 -2.3528
        vertex 1.2800 0.0000 -1.8960
        vertex 0.3379 0.0000 -1.8694
    endloop
endfacet
facet normal 0.0000 -0.1016 0.0000
    outer loop
        vertex 0.3379 0.0000 -1.8694
        vertex 1.2800 0.0000 -1.8960
        vertex 1.2006 0.0000 -1.8765
    endloop
endfacet
facet normal 0.0000 -1.7242 0.0000
    outer loop
        vertex -3.1200 0.0000 -1.9048
        vertex -3.2979 0.0000 -1.8694
        vertex -2.5596 0.0000 -3.5672
    endloop
endfacet
facet normal 0.0000 -7.6344 0.0000
    outer loop
        vertex -2.5596 0.0000 -3.5672
        vertex -2.2342 0.0000 -2.3528
        vertex -3.1200 0.0000 -1.9048
    endloop
endfacet
facet normal 0.0000 -17.2815 0.0000
    outer loop
        vertex -4.0000 0.0000 -4.0000
        vertex -2.5596 0.0000 -3.5672
        vertex -3.2979 0.0000 -1.8694
    endloop
endfacet
facet normal 0.0000 -2.4501 0.0000
    outer loop
        vertex -3.2979 0.0000 -1.8694
        vertex -3.4487 0.0000 -1.7687
        vertex -4.0000 0.0000 -4.0000
    endloop
endfacet
facet normal 0.0000 -1.9247 0.0000
    outer loop
        vertex -3.5494 0.0000 -1.6179
        vertex -4.0000 0.0000 -4.0000
        vertex -3.4487 0.0000 -1.7687
    endloop
endfacet
facet normal 0.0000 -1.0277 0.0000
    outer loop
        vertex -3.5848 0.0000 -1.4400
        vertex -4.0000 0.0000 -4.0000
        vertex -3.5494 0.0000 -1.6179
    endloop
endfacet
facet normal 0.0000 -20.7600 0.0000
    outer loop
        vertex -4.0000 0.0000 4.0000
        vertex -4.0000 0.0000 -4.0000
        vertex -3.5848 0.0000 -1.4400
    endloop
endfacet
facet normal 0.0000 -8.6154 0.0000
    outer loop
        vertex -3.5848 0.0000 -1.4400
        vertex -3.5848 0.0000 1.8800
        vertex -4.0000 0.0000 4.0000
    endloop
endfacet
facet normal 0.0000 -0.9304 0.0000
    outer loop
        vertex -4.0000 0.0000 4.0000
        vertex -3.5848 0.0000 1.8800
        vertex -3.5494 0.0000 2.0579
    endloop
endfacet
facet normal 0.0000 -1.6477 0.0000
    outer loop
        vertex -4.0000 0.0000 4.0000
        vertex -3.5494 0.0000 2.0579
        vertex -3.4487 0.0000 2.2087
    endloop
endfacet
facet normal 0.0000 -2.0354 0.0000
    outer loop
        vertex -4.0000 0.0000 4.0000
        vertex -3.4487 0.0000 2.2087
        vertex -3.2979 0.0000 2.3094
    endloop
endfacet
facet normal 0.0000 -2.0347 0.0000
    outer loop
        vertex -4.0000 0.0000 4.0000
        vertex -3.2979 0.0000 2.3094
        vertex -3.1200 0.0000 2.3448
    endloop
endfacet
facet normal 0.0000 -1.5602 0.0000
    outer loop
        vertex -3.1200 0.0000 2.3448
        vertex -3.2012 0.0000 2.7812
        vertex -4.0000 0.0000 4.0000
    endloop
endfacet
facet normal 0.0000 -2.3030 0.0000
    outer loop
        vertex -4.0000 0.0000 4.0000
        vertex -3.2412 0.0000 3.1172
        vertex -3.2412 0.0000 3.6028
    endloop
endfacet
facet normal 0.0000 -0.8151 0.0000
    outer loop
        vertex -3.2012 0.0000 2.8988
        vertex -3.2412 0.0000 3.1172
        vertex -4.0000 0.0000 4.0000
    endloop
endfacet
facet normal 0.0000 -0.5871 0.0000
    outer loop
        vertex -4.0000 0.0000 4.0000
        vertex -3.2012 0.0000 2.7812
        vertex -3.2012 0.0000 2.8988
    endloop
endfacet
facet normal 0.0000 -8.9462 0.0000
    outer loop
        vertex -3.2012 0.0000 2.7812
        vertex -3.1200 0.0000 2.3448
        vertex 0.1600 0.0000 2.3448
    endloop
endfacet
facet normal 0.0000 -3.9341 0.0000
    outer loop
        vertex 0.1600 0.0000 2.3448
        vertex -1.7588 0.0000 2.7812
        vertex -3.2012 0.0000 2.7812
    endloop
endfacet
facet normal 0.0000 -7.3669 0.0000
    outer loop
        vertex 1.2257 0.0000 2.7167
        vertex -1.7588 0.0000 2.7812
        vertex 0.1600 0.0000 2.3448
    endloop
endfacet
facet normal 0.0000 -0.6491 0.0000
    outer loop
        vertex 0.1600 0.0000 2.3448
        vertex 0.3379 0.0000 2.3094
        vertex 1.2257 0.0000 2.7167
    endloop
endfacet
facet normal 0.0000 -0.9429 0.0000
    outer loop
        vertex 1.2257 0.0000 2.7167
        vertex 0.3379 0.0000 2.3094
        vertex 0.4887 0.0000 2.2087
    endloop
endfacet
facet normal 0.0000 -1.7358 0.0000
    outer loop
        vertex 0.4887 0.0000 2.2087
        vertex 1.1388 0.0000 2.2800
        vertex 1.2257 0.0000 2.7167
    endloop
endfacet
facet normal 0.0000 -0.6576 0.0000
    outer loop
        vertex 1.1388 0.0000 2.2800
        vertex 0.4887 0.0000 2.2087
        vertex 0.5894 0.0000 2.0579
    endloop
endfacet
facet normal 0.0000 -0.6599 0.0000
    outer loop
        vertex 1.1388 0.0000 2.2800
        vertex 0.5894 0.0000 2.0579
        vertex 0.6248 0.0000 1.8800
    endloop
endfacet
facet normal 0.0000 -12.4276 0.0000
    outer loop
        vertex 1.0726 0.0000 -1.6400
        vertex 1.1388 0.0000 2.2800
        vertex 0.6248 0.0000 1.8800
    endloop
endfacet
facet normal 0.0000 -9.2927 0.0000
    outer loop
        vertex 0.6248 0.0000 1.8800
        vertex 0.6248 0.0000 -1.4400
        vertex 1.0726 0.0000 -1.6400
    endloop
endfacet
facet normal 0.0000 -2.5878 0.0000
    outer loop
        vertex -4.0000 0.0000 4.0000
        vertex -3.2412 0.0000 3.6028
        vertex -2.1988 0.0000 3.6028
    endloop
endfacet
facet normal 0.0000 -0.3608 0.0000
    outer loop
        vertex -4.0000 0.0000 4.0000
        vertex -2.1988 0.0000 3.6028
        vertex -2.0172 0.0000 3.5948
    endloop
endfacet
facet normal 0.0000 -0.6949 0.0000
    outer loop
        vertex -2.0172 0.0000 3.5948
        vertex -1.7428 0.0000 3.5948
        vertex -4.0000 0.0000 4.0000
    endloop
endfacet
facet normal 0.0000 -20.2600 0.0000
    outer loop
        vertex 4.0000 0.0000 4.0000
        vertex -4.0000 0.0000 4.0000
        vertex -1.7428 0.0000 3.5948
    endloop
endfacet
facet normal 0.0000 -0.1653 0.0000
    outer loop
        vertex 1.8184 0.0000 1.2591
        vertex 1.5918 0.0000 1.3692
        vertex 1.6838 0.0000 1.2078
    endloop
endfacet
facet normal 0.0000 -0.1862 0.0000
    outer loop
        vertex 1.6838 0.0000 1.2078
        vertex 1.8818 0.0000 1.0620
        vertex 1.8184 0.0000 1.2591
    endloop
endfacet
facet normal 0.0000 -0.2761 0.0000
    outer loop
        vertex 2.0643 0.0000 1.1913
        vertex 1.8184 0.0000 1.2591
        vertex 1.8818 0.0000 1.0620
    endloop
endfacet
facet normal 0.0000 -0.3393 0.0000
    outer loop
        vertex 1.8818 0.0000 1.0620
        vertex 2.0966 0.0000 0.9168
        vertex 2.0643 0.0000 1.1913
    endloop
endfacet
facet normal 0.0000 -0.1653 0.0000
    outer loop
        vertex 2.9562 0.0000 1.2078
        vertex 3.0482 0.0000 1.3692
        vertex 2.8216 0.0000 1.2591
    endloop
endfacet
facet normal 0.0000 -0.1862 0.0000
    outer loop
        vertex 2.8216 0.0000 1.2591
        vertex 2.7582 0.0000 1.0620
        vertex 2.9562 0.0000 1.2078
    endloop
endfacet
facet normal 0.0000 -0.2761 0.0000
    outer loop
        vertex 2.7582 0.0000 1.0620
        vertex 2.8216 0.0000 1.2591
        vertex 2.5757 0.0000 1.1913
    endloop
endfacet
facet normal 0.0000 -0.3393 0.0000
    outer loop
        vertex 2.5757 0.0000 1.1913
        vertex 2.5434 0.0000 0.9168
        vertex 2.7582 0.0000 1.0620
    endloop
endfacet
facet normal 0.0000 -0.4341 0.0000
    outer loop
        vertex 2.5434 0.0000 0.9168
        vertex 2.5757 0.0000 1.1913
        vertex 2.3200 0.0000 1.1684
    endloop
endfacet
facet normal 0.0000 -0.7026 0.0000
    outer loop
        vertex 2.3200 0.0000 1.1684
        vertex 2.0966 0.0000 0.9168
        vertex 2.5434 0.0000 0.9168
    endloop
endfacet
facet normal 0.0000 -0.4341 0.0000
    outer loop
        vertex 2.0643 0.0000 1.1913
        vertex 2.0966 0.0000 0.9168
        vertex 2.3200 0.0000 1.1684
    endloop
endfacet
facet normal 0.0000 -0.7505 0.0000
    outer loop
        vertex 2.2400 0.0000 1.6748
        vertex 2.0084 0.0000 1.7209
        vertex 2.0643 0.0000 1.1913
    endloop
endfacet
facet normal 0.0000 -0.7979 0.0000
    outer loop
        vertex 2.0643 0.0000 1.1913
        vertex 2.3200 0.0000 1.1684
        vertex 2.2400 0.0000 1.6748
    endloop
endfacet
facet normal 0.0000 -0.8208 0.0000
    outer loop
        vertex 2.2400 0.0000 1.6748
        vertex 2.3200 0.0000 1.1684
        vertex 2.5757 0.0000 1.1913
    endloop
endfacet
facet normal 0.0000 -0.7965 0.0000
    outer loop
        vertex 2.5757 0.0000 1.1913
        vertex 2.4716 0.0000 1.7209
        vertex 2.2400 0.0000 1.6748
    endloop
endfacet
facet normal 0.0000 -0.7352 0.0000
    outer loop
        vertex 2.6679 0.0000 1.8521
        vertex 2.4716 0.0000 1.7209
        vertex 2.5757 0.0000 1.1913
    endloop
endfacet
facet normal 0.0000 -0.9764 0.0000
    outer loop
        vertex 2.5757 0.0000 1.1913
        vertex 2.8216 0.0000 1.2591
        vertex 2.6679 0.0000 1.8521
    endloop
endfacet
facet normal 0.0000 -0.9456 0.0000
    outer loop
        vertex 2.6679 0.0000 1.8521
        vertex 2.8216 0.0000 1.2591
        vertex 3.0482 0.0000 1.3692
    endloop
endfacet
facet normal 0.0000 -0.7224 0.0000
    outer loop
        vertex 2.0084 0.0000 1.7209
        vertex 1.8121 0.0000 1.8521
        vertex 1.8184 0.0000 1.2591
    endloop
endfacet
facet normal 0.0000 -0.7902 0.0000
    outer loop
        vertex 1.8184 0.0000 1.2591
        vertex 2.0643 0.0000 1.1913
        vertex 2.0084 0.0000 1.7209
    endloop
endfacet
facet normal 0.0000 -0.8355 0.0000
    outer loop
        vertex 1.8121 0.0000 1.8521
        vertex 1.5918 0.0000 1.3692
        vertex 1.8184 0.0000 1.2591
    endloop
endfacet
facet normal 0.0000 -4.1007 0.0000
    outer loop
        vertex 2.7582 0.0000 1.0620
        vertex 2.5434 0.0000 0.9168
        vertex 3.1343 0.0000 -1.7380
    endloop
endfacet
facet normal 0.0000 -2.4467 0.0000
    outer loop
        vertex 3.1343 0.0000 -1.7380
        vertex 3.2651 0.0000 -1.6711
        vertex 2.7582 0.0000 1.0620
    endloop
endfacet
facet normal 0.0000 -4.1316 0.0000
    outer loop
        vertex 1.4716 0.0000 -1.7380
        vertex 2.0966 0.0000 0.9168
        vertex 1.8818 0.0000 1.0620
    endloop
endfacet
facet normal 0.0000 -2.4610 0.0000
    outer loop
        vertex 1.8818 0.0000 1.0620
        vertex 1.3407 0.0000 -1.6711
        vertex 1.4716 0.0000 -1.7380
    endloop
endfacet
facet normal 0.0000 -27.5882 0.0000
    outer loop
        vertex 2.0966 0.0000 0.9168
        vertex 1.4716 0.0000 -1.7380
        vertex 3.1343 0.0000 -1.7380
    endloop
endfacet
facet normal 0.0000 -7.4140 0.0000
    outer loop
        vertex 3.1343 0.0000 -1.7380
        vertex 2.5434 0.0000 0.9168
        vertex 2.0966 0.0000 0.9168
    endloop
endfacet
facet normal 0.0000 -6.4676 0.0000
    outer loop
        vertex 3.3916 0.0000 -1.6400
        vertex 3.2882 0.0000 2.2800
        vertex 3.0482 0.0000 1.3692
    endloop
endfacet
facet normal 0.0000 -2.4458 0.0000
    outer loop
        vertex 3.0482 0.0000 1.3692
        vertex 3.2651 0.0000 -1.6711
        vertex 3.3916 0.0000 -1.6400
    endloop
endfacet
facet normal 0.0000 -1.9666 0.0000
    outer loop
        vertex 3.0482 0.0000 1.3692
        vertex 2.9562 0.0000 1.2078
        vertex 3.2651 0.0000 -1.6711
    endloop
endfacet
facet normal 0.0000 -3.8440 0.0000
    outer loop
        vertex 2.9562 0.0000 1.2078
        vertex 2.7582 0.0000 1.0620
        vertex 3.2651 0.0000 -1.6711
    endloop
endfacet
facet normal 0.0000 -7.4143 0.0000
    outer loop
        vertex 1.5918 0.0000 1.3692
        vertex 1.3118 0.0000 2.2800
        vertex 1.2142 0.0000 -1.6400
    endloop
endfacet
facet normal 0.0000 -2.4525 0.0000
    outer loop
        vertex 1.2142 0.0000 -1.6400
        vertex 1.3407 0.0000 -1.6711
        vertex 1.5918 0.0000 1.3692
    endloop
endfacet
facet normal 0.0000 -3.8751 0.0000
    outer loop
        vertex 1.6838 0.0000 1.2078
        vertex 1.3407 0.0000 -1.6711
        vertex 1.8818 0.0000 1.0620
    endloop
endfacet
facet normal 0.0000 -2.0010 0.0000
    outer loop
        vertex 1.5918 0.0000 1.3692
        vertex 1.3407 0.0000 -1.6711
        vertex 1.6838 0.0000 1.2078
    endloop
endfacet
endsolid GiantLegoRocks
