solid GiantLegoRocks
facet normal 0.0000 0.0000 20.0000
    outer loop
        vertex -4.0000 2.8000 4.0000
        vertex -4.0000 0.0000 4.0000
        vertex 4.0000 0.0000 4.0000
    endloop
endfacet
facet normal 0.0000 0.0000 20.0000
    outer loop
        vertex 4.0000 0.0000 4.0000
        vertex 4.0000 2.8000 4.0000
        vertex -4.0000 2.8000 4.0000
    endloop
endfacet
facet normal -20.0000 0.0000 0.0000
    outer loop
        vertex -4.0000 2.8000 -4.0000
        vertex -4.0000 0.0000 -4.0000
        vertex -4.0000 0.0000 4.0000
    endloop
endfacet
facet normal -20.0000 0.0000 0.0000
    outer loop
        vertex -4.0000 0.0000 4.0000
        vertex -4.0000 2.8000 4.0000
        vertex -4.0000 2.8000 -4.0000
    endloop
endfacet
facet normal 0.0000 0.0000 -20.0000
    outer loop
        vertex 4.0000 2.8000 -4.0000
        vertex 4.0000 0.0000 -4.0000
        vertex -4.0000 0.0000 -4.0000
    endloop
endfacet
facet normal 0.0000 0.0000 -20.0000
    outer loop
        vertex -4.0000 0.0000 -4.0000
        vertex -4.0000 2.8000 -4.0000
        vertex 4.0000 2.8000 -4.0000
    endloop
endfacet
facet normal 20.0000 0.0000 0.0000
    outer loop
        vertex 4.0000 2.8000 4.0000
        vertex 4.0000 0.0000 4.0000
        vertex 4.0000 0.0000 -4.0000
    endloop
endfacet
facet normal 20.0000 0.0000 0.0000
    outer loop
        vertex 4.0000 0.0000 -4.0000
        vertex 4.0000 2.8000 -4.0000
        vertex 4.0000 2.8000 4.0000
    endloop
endfacet
facet normal 0.0000 -8.0000 0.0000
    outer loop
        vertex -2.4000 1.6000 2.4000
        vertex 2.4000 1.6000 2.4000
        vertex 2.4000 1.6000 -2.4000
    endloop
endfacet
facet normal 0.0000 -8.0000 0.0000
    outer loop
        vertex 2.4000 1.6000 -2.4000
        vertex -2.4000 1.6000 -2.4000
        vertex -2.4000 1.6000 2.4000
    endloop
endfacet
facet normal 0.0000 8.0000 12.0000
    outer loop
        vertex -2.4000 1.6000 2.4000
        vertex -2.4000 3.2000 2.4000
        vertex 2.4000 3.2000 2.4000
    endloop
endfacet
facet normal 0.0000 8.0000 12.0000
    outer loop
        vertex 2.4000 3.2000 2.4000
        vertex 2.4000 1.6000 2.4000
        vertex -2.4000 1.6000 2.4000
    endloop
endfacet
facet normal -12.0000 8.0000 0.0000
    outer loop
        vertex -2.4000 1.6000 -2.4000
        vertex -2.4000 3.2000 -2.4000
        vertex -2.4000 3.2000 2.4000
    endloop
endfacet
facet normal -12.0000 8.0000 0.0000
    outer loop
        vertex -2.4000 3.2000 2.4000
        vertex -2.4000 1.6000 2.4000
        vertex -2.4000 1.6000 -2.4000
    endloop
endfacet
facet normal 0.0000 8.0000 -12.0000
    outer loop
        vertex 2.4000 1.6000 -2.4000
        vertex 2.4000 3.2000 -2.4000
        vertex -2.4000 3.2000 -2.4000
    endloop
endfacet
facet normal 0.0000 8.0000 -12.0000
    outer loop
        vertex -2.4000 3.2000 -2.4000
        vertex -2.4000 1.6000 -2.4000
        vertex 2.4000 1.6000 -2.4000
    endloop
endfacet
facet normal 12.0000 8.0000 0.0000
    outer loop
        vertex 2.4000 1.6000 2.4000
        vertex 2.4000 3.2000 2.4000
        vertex 2.4000 3.2000 -2.4000
    endloop
endfacet
facet normal 12.0000 8.0000 0.0000
    outer loop
        vertex 2.4000 3.2000 -2.4000
        vertex 2.4000 1.6000 -2.4000
        vertex 2.4000 1.6000 2.4000
    endloop
endfacet
facet normal 0.0000 7.0000 18.0000
    outer loop
        vertex -3.6000 3.2000 3.6000
        vertex -3.6000 2.8000 3.6000
        vertex 3.6000 2.8000 3.6000
    endloop
endfacet
facet normal 0.0000 7.0000 18.0000
    outer loop
        vertex 3.6000 2.8000 3.6000
        vertex 3.6000 3.2000 3.6000
        vertex -3.6000 3.2000 3.6000
    endloop
endfacet
facet normal -18.0000 7.0000 0.0000
    outer loop
        vertex -3.6000 3.2000 -3.6000
        vertex -3.6000 2.8000 -3.6000
        vertex -3.6000 2.8000 3.6000
    endloop
endfacet
facet normal -18.0000 7.0000 0.0000
    outer loop
        vertex -3.6000 2.8000 3.6000
        vertex -3.6000 3.2000 3.6000
        vertex -3.6000 3.2000 -3.6000
    endloop
endfacet
facet normal 0.0000 7.0000 -18.0000
    outer loop
        vertex 3.6000 3.2000 -3.6000
        vertex 3.6000 2.8000 -3.6000
        vertex -3.6000 2.8000 -3.6000
    endloop
endfacet
facet normal 0.0000 7.0000 -18.0000
    outer loop
        vertex -3.6000 2.8000 -3.6000
        vertex -3.6000 3.2000 -3.6000
        vertex 3.6000 3.2000 -3.6000
    endloop
endfacet
facet normal 18.0000 7.0000 0.0000
    outer loop
        vertex 3.6000 3.2000 3.6000
        vertex 3.6000 2.8000 3.6000
        vertex 3.6000 2.8000 -3.6000
    endloop
endfacet
facet normal 18.0000 7.0000 0.0000
    outer loop
        vertex 3.6000 2.8000 -3.6000
        vertex 3.6000 3.2000 -3.6000
        vertex 3.6000 3.2000 3.6000
    endloop
endfacet
facet normal 0.0000 36.0000 0.0000
    outer loop
        vertex 3.6000 3.2000 3.6000
        vertex 2.4000 3.2000 2.4000
        vertex -2.4000 3.2000 2.4000
    endloop
endfacet
facet normal 0.0000 54.0000 0.0000
    outer loop
        vertex -2.4000 3.2000 2.4000
        vertex -3.6000 3.2000 3.6000
        vertex 3.6000 3.2000 3.6000
    endloop
endfacet
facet normal 0.0000 36.0000 0.0000
    outer loop
        vertex -3.6000 3.2000 3.6000
        vertex -2.4000 3.2000 2.4000
        vertex -2.4000 3.2000 -2.4000
    endloop
endfacet
facet normal 0.0000 54.0000 0.0000
    outer loop
        vertex -2.4000 3.2000 -2.4000
        vertex -3.6000 3.2000 -3.6000
        vertex -3.6000 3.2000 3.6000
    endloop
endfacet
facet normal 0.0000 36.0000 0.0000
    outer loop
        vertex -3.6000 3.2000 -3.6000
        vertex -2.4000 3.2000 -2.4000
        vertex 2.4000 3.2000 -2.4000
    endloop
endfacet
facet normal 0.0000 54.0000 0.0000
    outer loop
        vertex 2.4000 3.2000 -2.4000
        vertex 3.6000 3.2000 -3.6000
        vertex -3.6000 3.2000 -3.6000
    endloop
endfacet
facet normal 0.0000 36.0000 0.0000
    outer loop
        vertex 3.6000 3.2000 -3.6000
        vertex 2.4000 3.2000 -2.4000
        vertex 2.4000 3.2000 2.4000
    endloop
endfacet
facet normal 0.0000 54.0000 0.0000
    outer loop
        vertex 2.4000 3.2000 2.4000
        vertex 3.6000 3.2000 3.6000
        vertex 3.6000 3.2000 -3.6000
    endloop
endfacet
facet normal 0.0000 18.0000 0.0000
    outer loop
        vertex 4.0000 2.8000 4.0000
        vertex 3.6000 2.8000 3.6000
        vertex -3.6000 2.8000 3.6000
    endloop
endfacet
facet normal 0.0000 20.0000 0.0000
    outer loop
        vertex -3.6000 2.8000 3.6000
        vertex -4.0000 2.8000 4.0000
        vertex 4.0000 2.8000 4.0000
    endloop
endfacet
facet normal 0.0000 18.0000 0.0000
    outer loop
        vertex -4.0000 2.8000 4.0000
        vertex -3.6000 2.8000 3.6000
        vertex -3.6000 2.8000 -3.6000
    endloop
endfacet
facet normal 0.0000 20.0000 0.0000
    outer loop
        vertex -3.6000 2.8000 -3.6000
        vertex -4.0000 2.8000 -4.0000
        vertex -4.0000 2.8000 4.0000
    endloop
endfacet
facet normal 0.0000 18.0000 0.0000
    outer loop
        vertex -4.0000 2.8000 -4.0000
        vertex -3.6000 2.8000 -3.6000
        vertex 3.6000 2.8000 -3.6000
    endloop
endfacet
facet normal 0.0000 20.0000 0.0000
    outer loop
        vertex 3.6000 2.8000 -3.6000
        vertex 4.0000 2.8000 -4.0000
        vertex -4.0000 2.8000 -4.0000
    endloop
endfacet
facet normal 0.0000 18.0000 0.0000
    outer loop
        vertex 4.0000 2.8000 -4.0000
        vertex 3.6000 2.8000 -3.6000
        vertex 3.6000 2.8000 3.6000
    endloop
endfacet
facet normal 0.0000 20.0000 0.0000
    outer loop
        vertex 3.6000 2.8000 3.6000
        vertex 4.0000 2.8000 4.0000
        vertex 4.0000 2.8000 -4.0000
    endloop
endfacet
facet normal 0.0000 -0.3750 0.0000
    outer loop
        vertex 0.5000 0.0000 1.1600
        vertex -0.5000 0.0000 1.1600
        vertex -0.5600 0.0000 1.1000
    endloop
endfacet
facet normal 0.0000 -0.4200 0.0000
    outer loop
        vertex -0.5600 0.0000 1.1000
        vertex 0.5600 0.0000 1.1000
        vertex 0.5000 0.0000 1.1600
    endloop
endfacet
facet normal 0.0000 -11.2000 0.0000
    outer loop
        vertex 0.5600 0.0000 -0.5000
        vertex 0.5600 0.0000 1.1000
        vertex -0.5600 0.0000 1.1000
    endloop
endfacet
facet normal 0.0000 -11.2000 0.0000
    outer loop
        vertex -0.5600 0.0000 1.1000
        vertex -0.5600 0.0000 -0.5000
        vertex 0.5600 0.0000 -0.5000
    endloop
endfacet
facet normal 0.0000 -0.3750 0.0000
    outer loop
        vertex -0.5600 0.0000 -0.5000
        vertex -0.5000 0.0000 -0.5600
        vertex 0.5000 0.0000 -0.5600
    endloop
endfacet
facet normal 0.0000 -0.4200 0.0000
    outer loop
        vertex 0.5000 0.0000 -0.5600
        vertex 0.5600 0.0000 -0.5000
        vertex -0.5600 0.0000 -0.5000
    endloop
endfacet
facet normal 0.0000 -0.1275 0.0000
    outer loop
        vertex -0.8000 0.0000 1.2000
        vertex -0.5600 0.0000 1.1000
        vertex -0.5000 0.0000 1.1600
    endloop
endfacet
facet normal 0.0000 -0.4250 0.0000
    outer loop
        vertex -0.5000 0.0000 1.1600
        vertex -0.6000 0.0000 1.4000
        vertex -0.8000 0.0000 1.2000
    endloop
endfacet
facet normal 0.0000 -0.5000 0.0000
    outer loop
        vertex -0.8000 0.0000 1.2000
        vertex -0.6000 0.0000 1.4000
        vertex -0.8000 0.0000 1.6000
    endloop
endfacet
facet normal 0.0000 -0.5000 0.0000
    outer loop
        vertex -0.8000 0.0000 1.6000
        vertex -1.0000 0.0000 1.4000
        vertex -0.8000 0.0000 1.2000
    endloop
endfacet
facet normal 0.0000 -0.2500 0.0000
    outer loop
        vertex -1.0000 0.0000 1.6000
        vertex -1.0000 0.0000 1.4000
        vertex -0.8000 0.0000 1.6000
    endloop
endfacet
facet normal 0.0000 -0.1275 0.0000
    outer loop
        vertex 0.5000 0.0000 1.1600
        vertex 0.5600 0.0000 1.1000
        vertex 0.8000 0.0000 1.2000
    endloop
endfacet
facet normal 0.0000 -0.4250 0.0000
    outer loop
        vertex 0.8000 0.0000 1.2000
        vertex 0.6000 0.0000 1.4000
        vertex 0.5000 0.0000 1.1600
    endloop
endfacet
facet normal 0.0000 -0.5000 0.0000
    outer loop
        vertex 0.6000 0.0000 1.4000
        vertex 0.8000 0.0000 1.2000
        vertex 1.0000 0.0000 1.4000
    endloop
endfacet
facet normal 0.0000 -0.5000 0.0000
    outer loop
        vertex 1.0000 0.0000 1.4000
        vertex 0.8000 0.0000 1.6000
        vertex 0.6000 0.0000 1.4000
    endloop
endfacet
facet normal 0.0000 -0.2500 0.0000
    outer loop
        vertex 1.0000 0.0000 1.4000
        vertex 1.0000 0.0000 1.6000
        vertex 0.8000 0.0000 1.6000
    endloop
endfacet
facet normal 0.0000 -0.4250 0.0000
    outer loop
        vertex -0.8000 0.0000 -0.6000
        vertex -0.6000 0.0000 -0.8000
        vertex -0.5000 0.0000 -0.5600
    endloop
endfacet
facet normal 0.0000 -0.1275 0.0000
    outer loop
        vertex -0.5000 0.0000 -0.5600
        vertex -0.5600 0.0000 -0.5000
        vertex -0.8000 0.0000 -0.6000
    endloop
endfacet
facet normal 0.0000 -0.5000 0.0000
    outer loop
        vertex -0.8000 0.0000 -1.0000
        vertex -0.6000 0.0000 -0.8000
        vertex -0.8000 0.0000 -0.6000
    endloop
endfacet
facet normal 0.0000 -0.5000 0.0000
    outer loop
        vertex -0.8000 0.0000 -0.6000
        vertex -1.0000 0.0000 -0.8000
        vertex -0.8000 0.0000 -1.0000
    endloop
endfacet
facet normal 0.0000 -0.2500 0.0000
    outer loop
        vertex -1.0000 0.0000 -1.0000
        vertex -0.8000 0.0000 -1.0000
        vertex -1.0000 0.0000 -0.8000
    endloop
endfacet
facet normal 0.0000 -0.1275 0.0000
    outer loop
        vertex 0.8000 0.0000 -0.6000
        vertex 0.5600 0.0000 -0.5000
        vertex 0.5000 0.0000 -0.5600
    endloop
endfacet
facet normal 0.0000 -0.4250 0.0000
    outer loop
        vertex 0.5000 0.0000 -0.5600
        vertex 0.6000 0.0000 -0.8000
        vertex 0.8000 0.0000 -0.6000
    endloop
endfacet
facet normal 0.0000 -0.5000 0.0000
    outer loop
        vertex 1.0000 0.0000 -0.8000
        vertex 0.8000 0.0000 -0.6000
        vertex 0.6000 0.0000 -0.8000
    endloop
endfacet
facet normal 0.0000 -0.5000 0.0000
    outer loop
        vertex 0.6000 0.0000 -0.8000
        vertex 0.8000 0.0000 -1.0000
        vertex 1.0000 0.0000 -0.8000
    endloop
endfacet
facet normal 0.0000 -0.2500 0.0000
    outer loop
        vertex 1.0000 0.0000 -0.8000
        vertex 0.8000 0.0000 -1.0000
        vertex 1.0000 0.0000 -1.0000
    endloop
endfacet
facet normal 0.0000 -1.5000 0.0000
    outer loop
        vertex -0.8000 0.0000 1.6000
        vertex -0.6000 0.0000 1.4000
        vertex 0.6000 0.0000 1.4000
    endloop
endfacet
facet normal 0.0000 -2.0000 0.0000
    outer loop
        vertex 0.6000 0.0000 1.4000
        vertex 0.8000 0.0000 1.6000
        vertex -0.8000 0.0000 1.6000
    endloop
endfacet
facet normal 0.0000 -1.5000 0.0000
    outer loop
        vertex 0.6000 0.0000 -0.8000
        vertex -0.6000 0.0000 -0.8000
        vertex -0.8000 0.0000 -1.0000
    endloop
endfacet
facet normal 0.0000 -2.0000 0.0000
    outer loop
        vertex -0.8000 0.0000 -1.0000
        vertex 0.8000 0.0000 -1.0000
        vertex 0.6000 0.0000 -0.8000
    endloop
endfacet
facet normal 0.0000 -0.2500 0.0000
    outer loop
        vertex -0.8000 0.0000 1.2000
        vertex -1.0000 0.0000 0.4000
        vertex -1.0000 0.0000 0.2000
    endloop
endfacet
facet normal 0.0000 -2.2500 0.0000
    outer loop
        vertex -1.0000 0.0000 0.2000
        vertex -0.8000 0.0000 -0.6000
        vertex -0.8000 0.0000 1.2000
    endloop
endfacet
facet normal 0.0000 -1.2500 0.0000
    outer loop
        vertex -1.0000 0.0000 1.4000
        vertex -1.0000 0.0000 0.4000
        vertex -0.8000 0.0000 1.2000
    endloop
endfacet
facet normal 0.0000 -1.2500 0.0000
    outer loop
        vertex -1.0000 0.0000 -0.8000
        vertex -0.8000 0.0000 -0.6000
        vertex -1.0000 0.0000 0.2000
    endloop
endfacet
facet normal 0.0000 -0.2500 0.0000
    outer loop
        vertex 1.0000 0.0000 0.2000
        vertex 1.0000 0.0000 0.4000
        vertex 0.8000 0.0000 1.2000
    endloop
endfacet
facet normal 0.0000 -2.2500 0.0000
    outer loop
        vertex 0.8000 0.0000 1.2000
        vertex 0.8000 0.0000 -0.6000
        vertex 1.0000 0.0000 0.2000
    endloop
endfacet
facet normal 0.0000 -1.2500 0.0000
    outer loop
        vertex 1.0000 0.0000 1.4000
        vertex 0.8000 0.0000 1.2000
        vertex 1.0000 0.0000 0.4000
    endloop
endfacet
facet normal 0.0000 -1.2500 0.0000
    outer loop
        vertex 1.0000 0.0000 -0.8000
        vertex 1.0000 0.0000 0.2000
        vertex 0.8000 0.0000 -0.6000
    endloop
endfacet
facet normal 0.0000 -1.2500 0.0000
    outer loop
        vertex -1.0000 0.0000 1.6000
        vertex -0.8000 0.0000 1.6000
        vertex -0.8000 0.0000 2.6000
    endloop
endfacet
facet normal 0.0000 -1.2500 0.0000
    outer loop
        vertex -0.8000 0.0000 2.6000
        vertex -1.0000 0.0000 2.6000
        vertex -1.0000 0.0000 1.6000
    endloop
endfacet
facet normal 0.0000 -0.3750 0.0000
    outer loop
        vertex -1.0000 0.0000 2.6000
        vertex -0.8000 0.0000 2.6000
        vertex -0.8000 0.0000 2.9000
    endloop
endfacet
facet normal 0.0000 -0.3750 0.0000
    outer loop
        vertex -0.8000 0.0000 2.9000
        vertex -1.0000 0.0000 2.9000
        vertex -1.0000 0.0000 2.6000
    endloop
endfacet
facet normal 0.0000 -3.0000 0.0000
    outer loop
        vertex 0.8000 0.0000 2.9000
        vertex -0.8000 0.0000 2.9000
        vertex -0.8000 0.0000 2.6000
    endloop
endfacet
facet normal 0.0000 -3.0000 0.0000
    outer loop
        vertex -0.8000 0.0000 2.6000
        vertex 0.8000 0.0000 2.6000
        vertex 0.8000 0.0000 2.9000
    endloop
endfacet
facet normal 0.0000 -0.3750 0.0000
    outer loop
        vertex 0.8000 0.0000 2.9000
        vertex 0.8000 0.0000 2.6000
        vertex 1.0000 0.0000 2.6000
    endloop
endfacet
facet normal 0.0000 -0.3750 0.0000
    outer loop
        vertex 1.0000 0.0000 2.6000
        vertex 1.0000 0.0000 2.9000
        vertex 0.8000 0.0000 2.9000
    endloop
endfacet
facet normal 0.0000 -1.2500 0.0000
    outer loop
        vertex 1.0000 0.0000 1.6000
        vertex 1.0000 0.0000 2.6000
        vertex 0.8000 0.0000 2.6000
    endloop
endfacet
facet normal 0.0000 -1.2500 0.0000
    outer loop
        vertex 0.8000 0.0000 2.6000
        vertex 0.8000 0.0000 1.6000
        vertex 1.0000 0.0000 1.6000
    endloop
endfacet
facet normal 0.0000 -0.1253 0.0000
    outer loop
        vertex -0.8292 0.0000 3.0416
        vertex -0.9708 0.0000 3.0416
        vertex -1.0000 0.0000 2.9000
    endloop
endfacet
facet normal 0.0000 -0.1770 0.0000
    outer loop
        vertex -1.0000 0.0000 2.9000
        vertex -0.8000 0.0000 2.9000
        vertex -0.8292 0.0000 3.0416
    endloop
endfacet
facet normal 0.0000 -0.0382 0.0000
    outer loop
        vertex -0.9708 0.0000 3.0416
        vertex -0.8292 0.0000 3.0416
        vertex -0.8616 0.0000 3.0848
    endloop
endfacet
facet normal 0.0000 -0.0207 0.0000
    outer loop
        vertex -0.8616 0.0000 3.0848
        vertex -0.9384 0.0000 3.0848
        vertex -0.9708 0.0000 3.0416
    endloop
endfacet
facet normal 0.0000 -0.1253 0.0000
    outer loop
        vertex 0.9708 0.0000 3.0416
        vertex 0.8292 0.0000 3.0416
        vertex 0.8000 0.0000 2.9000
    endloop
endfacet
facet normal 0.0000 -0.1770 0.0000
    outer loop
        vertex 0.8000 0.0000 2.9000
        vertex 1.0000 0.0000 2.9000
        vertex 0.9708 0.0000 3.0416
    endloop
endfacet
facet normal 0.0000 -0.0207 0.0000
    outer loop
        vertex 0.9384 0.0000 3.0848
        vertex 0.8616 0.0000 3.0848
        vertex 0.8292 0.0000 3.0416
    endloop
endfacet
facet normal 0.0000 -0.0382 0.0000
    outer loop
        vertex 0.8292 0.0000 3.0416
        vertex 0.9708 0.0000 3.0416
        vertex 0.9384 0.0000 3.0848
    endloop
endfacet
facet normal 0.0000 -1.3125 0.0000
    outer loop
        vertex -1.0000 0.0000 2.9000
        vertex -1.7000 0.0000 2.9000
        vertex -1.7000 0.0000 2.6000
    endloop
endfacet
facet normal 0.0000 -1.3125 0.0000
    outer loop
        vertex -1.7000 0.0000 2.6000
        vertex -1.0000 0.0000 2.6000
        vertex -1.0000 0.0000 2.9000
    endloop
endfacet
facet normal 0.0000 -0.4305 0.0000
    outer loop
        vertex -1.7000 0.0000 2.6000
        vertex -1.7000 0.0000 2.9000
        vertex -1.9296 0.0000 2.8544
    endloop
endfacet
facet normal 0.0000 -0.2153 0.0000
    outer loop
        vertex -1.9296 0.0000 2.8544
        vertex -1.8148 0.0000 2.5772
        vertex -1.7000 0.0000 2.6000
    endloop
endfacet
facet normal 0.0000 -0.2152 0.0000
    outer loop
        vertex -1.9120 0.0000 2.5120
        vertex -1.8148 0.0000 2.5772
        vertex -1.9296 0.0000 2.8544
    endloop
endfacet
facet normal 0.0000 -0.4312 0.0000
    outer loop
        vertex -1.9296 0.0000 2.8544
        vertex -2.1244 0.0000 2.7244
        vertex -1.9120 0.0000 2.5120
    endloop
endfacet
facet normal 0.0000 -0.2156 0.0000
    outer loop
        vertex -1.9772 0.0000 2.4148
        vertex -1.9120 0.0000 2.5120
        vertex -2.1244 0.0000 2.7244
    endloop
endfacet
facet normal 0.0000 -0.4308 0.0000
    outer loop
        vertex -2.1244 0.0000 2.7244
        vertex -2.2544 0.0000 2.5296
        vertex -1.9772 0.0000 2.4148
    endloop
endfacet
facet normal 0.0000 -0.2153 0.0000
    outer loop
        vertex -2.0000 0.0000 2.3000
        vertex -1.9772 0.0000 2.4148
        vertex -2.2544 0.0000 2.5296
    endloop
endfacet
facet normal 0.0000 -0.4305 0.0000
    outer loop
        vertex -2.2544 0.0000 2.5296
        vertex -2.3000 0.0000 2.3000
        vertex -2.0000 0.0000 2.3000
    endloop
endfacet
facet normal 0.0000 -1.3125 0.0000
    outer loop
        vertex -2.0000 0.0000 2.3000
        vertex -2.3000 0.0000 2.3000
        vertex -2.3000 0.0000 1.6000
    endloop
endfacet
facet normal 0.0000 -1.3125 0.0000
    outer loop
        vertex -2.3000 0.0000 1.6000
        vertex -2.0000 0.0000 1.6000
        vertex -2.0000 0.0000 2.3000
    endloop
endfacet
facet normal 0.0000 -0.3750 0.0000
    outer loop
        vertex -2.0000 0.0000 1.4000
        vertex -2.0000 0.0000 1.6000
        vertex -2.3000 0.0000 1.6000
    endloop
endfacet
facet normal 0.0000 -0.3750 0.0000
    outer loop
        vertex -2.3000 0.0000 1.6000
        vertex -2.3000 0.0000 1.4000
        vertex -2.0000 0.0000 1.4000
    endloop
endfacet
facet normal 0.0000 -1.2500 0.0000
    outer loop
        vertex -1.0000 0.0000 1.6000
        vertex -2.0000 0.0000 1.6000
        vertex -2.0000 0.0000 1.4000
    endloop
endfacet
facet normal 0.0000 -1.2500 0.0000
    outer loop
        vertex -2.0000 0.0000 1.4000
        vertex -1.0000 0.0000 1.4000
        vertex -1.0000 0.0000 1.6000
    endloop
endfacet
facet normal 0.0000 -0.1253 0.0000
    outer loop
        vertex -2.3000 0.0000 1.6000
        vertex -2.4416 0.0000 1.5708
        vertex -2.4416 0.0000 1.4292
    endloop
endfacet
facet normal 0.0000 -0.1770 0.0000
    outer loop
        vertex -2.4416 0.0000 1.4292
        vertex -2.3000 0.0000 1.4000
        vertex -2.3000 0.0000 1.6000
    endloop
endfacet
facet normal 0.0000 -0.0382 0.0000
    outer loop
        vertex -2.4416 0.0000 1.4292
        vertex -2.4416 0.0000 1.5708
        vertex -2.4848 0.0000 1.5384
    endloop
endfacet
facet normal 0.0000 -0.0207 0.0000
    outer loop
        vertex -2.4848 0.0000 1.5384
        vertex -2.4848 0.0000 1.4616
        vertex -2.4416 0.0000 1.4292
    endloop
endfacet
facet normal 0.0000 -1.3125 0.0000
    outer loop
        vertex 1.7000 0.0000 2.9000
        vertex 1.0000 0.0000 2.9000
        vertex 1.0000 0.0000 2.6000
    endloop
endfacet
facet normal 0.0000 -1.3125 0.0000
    outer loop
        vertex 1.0000 0.0000 2.6000
        vertex 1.7000 0.0000 2.6000
        vertex 1.7000 0.0000 2.9000
    endloop
endfacet
facet normal 0.0000 -0.4305 0.0000
    outer loop
        vertex 1.9296 0.0000 2.8544
        vertex 1.7000 0.0000 2.9000
        vertex 1.7000 0.0000 2.6000
    endloop
endfacet
facet normal 0.0000 -0.2153 0.0000
    outer loop
        vertex 1.7000 0.0000 2.6000
        vertex 1.8148 0.0000 2.5772
        vertex 1.9296 0.0000 2.8544
    endloop
endfacet
facet normal 0.0000 -0.4308 0.0000
    outer loop
        vertex 2.1244 0.0000 2.7244
        vertex 1.9296 0.0000 2.8544
        vertex 1.8148 0.0000 2.5772
    endloop
endfacet
facet normal 0.0000 -0.2156 0.0000
    outer loop
        vertex 1.8148 0.0000 2.5772
        vertex 1.9120 0.0000 2.5120
        vertex 2.1244 0.0000 2.7244
    endloop
endfacet
facet normal 0.0000 -0.4312 0.0000
    outer loop
        vertex 2.2544 0.0000 2.5296
        vertex 2.1244 0.0000 2.7244
        vertex 1.9120 0.0000 2.5120
    endloop
endfacet
facet normal 0.0000 -0.2152 0.0000
    outer loop
        vertex 1.9120 0.0000 2.5120
        vertex 1.9772 0.0000 2.4148
        vertex 2.2544 0.0000 2.5296
    endloop
endfacet
facet normal 0.0000 -0.4305 0.0000
    outer loop
        vertex 2.3000 0.0000 2.3000
        vertex 2.2544 0.0000 2.5296
        vertex 1.9772 0.0000 2.4148
    endloop
endfacet
facet normal 0.0000 -0.2152 0.0000
    outer loop
        vertex 1.9772 0.0000 2.4148
        vertex 2.0000 0.0000 2.3000
        vertex 2.3000 0.0000 2.3000
    endloop
endfacet
facet normal 0.0000 -1.3125 0.0000
    outer loop
        vertex 2.3000 0.0000 1.6000
        vertex 2.3000 0.0000 2.3000
        vertex 2.0000 0.0000 2.3000
    endloop
endfacet
facet normal 0.0000 -1.3125 0.0000
    outer loop
        vertex 2.0000 0.0000 2.3000
        vertex 2.0000 0.0000 1.6000
        vertex 2.3000 0.0000 1.6000
    endloop
endfacet
facet normal 0.0000 -0.3750 0.0000
    outer loop
        vertex 2.3000 0.0000 1.4000
        vertex 2.3000 0.0000 1.6000
        vertex 2.0000 0.0000 1.6000
    endloop
endfacet
facet normal 0.0000 -0.3750 0.0000
    outer loop
        vertex 2.0000 0.0000 1.6000
        vertex 2.0000 0.0000 1.4000
        vertex 2.3000 0.0000 1.4000
    endloop
endfacet
facet normal 0.0000 -1.2500 0.0000
    outer loop
        vertex 2.0000 0.0000 1.4000
        vertex 2.0000 0.0000 1.6000
        vertex 1.0000 0.0000 1.6000
    endloop
endfacet
facet normal 0.0000 -1.2500 0.0000
    outer loop
        vertex 1.0000 0.0000 1.6000
        vertex 1.0000 0.0000 1.4000
        vertex 2.0000 0.0000 1.4000
    endloop
endfacet
facet normal 0.0000 -0.1253 0.0000
    outer loop
        vertex 2.4416 0.0000 1.4292
        vertex 2.4416 0.0000 1.5708
        vertex 2.3000 0.0000 1.6000
    endloop
endfacet
facet normal 0.0000 -0.1770 0.0000
    outer loop
        vertex 2.3000 0.0000 1.6000
        vertex 2.3000 0.0000 1.4000
        vertex 2.4416 0.0000 1.4292
    endloop
endfacet
facet normal 0.0000 -0.0382 0.0000
    outer loop
        vertex 2.4848 0.0000 1.5384
        vertex 2.4416 0.0000 1.5708
        vertex 2.4416 0.0000 1.4292
    endloop
endfacet
facet normal 0.0000 -0.0207 0.0000
    outer loop
        vertex 2.4416 0.0000 1.4292
        vertex 2.4848 0.0000 1.4616
        vertex 2.4848 0.0000 1.5384
    endloop
endfacet
facet normal 0.0000 -1.8750 0.0000
    outer loop
        vertex -2.0000 0.0000 0.4000
        vertex -2.0000 0.0000 1.4000
        vertex -2.3000 0.0000 1.4000
    endloop
endfacet
facet normal 0.0000 -1.8750 0.0000
    outer loop
        vertex -2.3000 0.0000 1.4000
        vertex -2.3000 0.0000 0.4000
        vertex -2.0000 0.0000 0.4000
    endloop
endfacet
facet normal 0.0000 -0.3750 0.0000
    outer loop
        vertex -2.0000 0.0000 0.2000
        vertex -2.0000 0.0000 0.4000
        vertex -2.3000 0.0000 0.4000
    endloop
endfacet
facet normal 0.0000 -0.3750 0.0000
    outer loop
        vertex -2.3000 0.0000 0.4000
        vertex -2.3000 0.0000 0.2000
        vertex -2.0000 0.0000 0.2000
    endloop
endfacet
facet normal 0.0000 -1.2500 0.0000
    outer loop
        vertex -1.0000 0.0000 0.4000
        vertex -2.0000 0.0000 0.4000
        vertex -2.0000 0.0000 0.2000
    endloop
endfacet
facet normal 0.0000 -1.2500 0.0000
    outer loop
        vertex -2.0000 0.0000 0.2000
        vertex -1.0000 0.0000 0.2000
        vertex -1.0000 0.0000 0.4000
    endloop
endfacet
facet normal 0.0000 -0.1770 0.0000
    outer loop
        vertex -2.4416 0.0000 0.2292
        vertex -2.3000 0.0000 0.2000
        vertex -2.3000 0.0000 0.4000
    endloop
endfacet
facet normal 0.0000 -0.1253 0.0000
    outer loop
        vertex -2.3000 0.0000 0.4000
        vertex -2.4416 0.0000 0.3708
        vertex -2.4416 0.0000 0.2292
    endloop
endfacet
facet normal 0.0000 -0.0382 0.0000
    outer loop
        vertex -2.4416 0.0000 0.2292
        vertex -2.4416 0.0000 0.3708
        vertex -2.4848 0.0000 0.3384
    endloop
endfacet
facet normal 0.0000 -0.0207 0.0000
    outer loop
        vertex -2.4848 0.0000 0.3384
        vertex -2.4848 0.0000 0.2616
        vertex -2.4416 0.0000 0.2292
    endloop
endfacet
facet normal 0.0000 -1.8750 0.0000
    outer loop
        vertex 2.3000 0.0000 0.4000
        vertex 2.3000 0.0000 1.4000
        vertex 2.0000 0.0000 1.4000
    endloop
endfacet
facet normal 0.0000 -1.8750 0.0000
    outer loop
        vertex 2.0000 0.0000 1.4000
        vertex 2.0000 0.0000 0.4000
        vertex 2.3000 0.0000 0.4000
    endloop
endfacet
facet normal 0.0000 -0.3750 0.0000
    outer loop
        vertex 2.3000 0.0000 0.2000
        vertex 2.3000 0.0000 0.4000
        vertex 2.0000 0.0000 0.4000
    endloop
endfacet
facet normal 0.0000 -0.3750 0.0000
    outer loop
        vertex 2.0000 0.0000 0.4000
        vertex 2.0000 0.0000 0.2000
        vertex 2.3000 0.0000 0.2000
    endloop
endfacet
facet normal 0.0000 -1.2500 0.0000
    outer loop
        vertex 2.0000 0.0000 0.2000
        vertex 2.0000 0.0000 0.4000
        vertex 1.0000 0.0000 0.4000
    endloop
endfacet
facet normal 0.0000 -1.2500 0.0000
    outer loop
        vertex 1.0000 0.0000 0.4000
        vertex 1.0000 0.0000 0.2000
        vertex 2.0000 0.0000 0.2000
    endloop
endfacet
facet normal 0.0000 -0.1253 0.0000
    outer loop
        vertex 2.4416 0.0000 0.2292
        vertex 2.4416 0.0000 0.3708
        vertex 2.3000 0.0000 0.4000
    endloop
endfacet
facet normal 0.0000 -0.1770 0.0000
    outer loop
        vertex 2.3000 0.0000 0.4000
        vertex 2.3000 0.0000 0.2000
        vertex 2.4416 0.0000 0.2292
    endloop
endfacet
facet normal 0.0000 -0.0382 0.0000
    outer loop
        vertex 2.4848 0.0000 0.3384
        vertex 2.4416 0.0000 0.3708
        vertex 2.4416 0.0000 0.2292
    endloop
endfacet
facet normal 0.0000 -0.0207 0.0000
    outer loop
        vertex 2.4416 0.0000 0.2292
        vertex 2.4848 0.0000 0.2616
        vertex 2.4848 0.0000 0.3384
    endloop
endfacet
facet normal 0.0000 -1.8750 0.0000
    outer loop
        vertex -2.0000 0.0000 0.2000
        vertex -2.3000 0.0000 0.2000
        vertex -2.3000 0.0000 -0.8000
    endloop
endfacet
facet normal 0.0000 -1.8750 0.0000
    outer loop
        vertex -2.3000 0.0000 -0.8000
        vertex -2.0000 0.0000 -0.8000
        vertex -2.0000 0.0000 0.2000
    endloop
endfacet
facet normal 0.0000 -0.3750 0.0000
    outer loop
        vertex -2.0000 0.0000 -1.0000
        vertex -2.0000 0.0000 -0.8000
        vertex -2.3000 0.0000 -0.8000
    endloop
endfacet
facet normal 0.0000 -0.3750 0.0000
    outer loop
        vertex -2.3000 0.0000 -0.8000
        vertex -2.3000 0.0000 -1.0000
        vertex -2.0000 0.0000 -1.0000
    endloop
endfacet
facet normal 0.0000 -1.2500 0.0000
    outer loop
        vertex -1.0000 0.0000 -0.8000
        vertex -2.0000 0.0000 -0.8000
        vertex -2.0000 0.0000 -1.0000
    endloop
endfacet
facet normal 0.0000 -1.2500 0.0000
    outer loop
        vertex -2.0000 0.0000 -1.0000
        vertex -1.0000 0.0000 -1.0000
        vertex -1.0000 0.0000 -0.8000
    endloop
endfacet
facet normal 0.0000 -0.1770 0.0000
    outer loop
        vertex -2.4416 0.0000 -0.9708
        vertex -2.3000 0.0000 -1.0000
        vertex -2.3000 0.0000 -0.8000
    endloop
endfacet
facet normal 0.0000 -0.1253 0.0000
    outer loop
        vertex -2.3000 0.0000 -0.8000
        vertex -2.4416 0.0000 -0.8292
        vertex -2.4416 0.0000 -0.9708
    endloop
endfacet
facet normal 0.0000 -0.0382 0.0000
    outer loop
        vertex -2.4416 0.0000 -0.9708
        vertex -2.4416 0.0000 -0.8292
        vertex -2.4848 0.0000 -0.8616
    endloop
endfacet
facet normal 0.0000 -0.0207 0.0000
    outer loop
        vertex -2.4848 0.0000 -0.8616
        vertex -2.4848 0.0000 -0.9384
        vertex -2.4416 0.0000 -0.9708
    endloop
endfacet
facet normal 0.0000 -1.8750 0.0000
    outer loop
        vertex 2.3000 0.0000 -0.8000
        vertex 2.3000 0.0000 0.2000
        vertex 2.0000 0.0000 0.2000
    endloop
endfacet
facet normal 0.0000 -1.8750 0.0000
    outer loop
        vertex 2.0000 0.0000 0.2000
        vertex 2.0000 0.0000 -0.8000
        vertex 2.3000 0.0000 -0.8000
    endloop
endfacet
facet normal 0.0000 -0.3750 0.0000
    outer loop
        vertex 2.3000 0.0000 -1.0000
        vertex 2.3000 0.0000 -0.8000
        vertex 2.0000 0.0000 -0.8000
    endloop
endfacet
facet normal 0.0000 -0.3750 0.0000
    outer loop
        vertex 2.0000 0.0000 -0.8000
        vertex 2.0000 0.0000 -1.0000
        vertex 2.3000 0.0000 -1.0000
    endloop
endfacet
facet normal 0.0000 -1.2500 0.0000
    outer loop
        vertex 2.0000 0.0000 -1.0000
        vertex 2.0000 0.0000 -0.8000
        vertex 1.0000 0.0000 -0.8000
    endloop
endfacet
facet normal 0.0000 -1.2500 0.0000
    outer loop
        vertex 1.0000 0.0000 -0.8000
        vertex 1.0000 0.0000 -1.0000
        vertex 2.0000 0.0000 -1.0000
    endloop
endfacet
facet normal 0.0000 -0.1770 0.0000
    outer loop
        vertex 2.4416 0.0000 -0.8292
        vertex 2.3000 0.0000 -0.8000
        vertex 2.3000 0.0000 -1.0000
    endloop
endfacet
facet normal 0.0000 -0.1253 0.0000
    outer loop
        vertex 2.3000 0.0000 -1.0000
        vertex 2.4416 0.0000 -0.9708
        vertex 2.4416 0.0000 -0.8292
    endloop
endfacet
facet normal 0.0000 -0.0207 0.0000
    outer loop
        vertex 2.4416 0.0000 -0.9708
        vertex 2.4848 0.0000 -0.9384
        vertex 2.4848 0.0000 -0.8616
    endloop
endfacet
facet normal 0.0000 -0.0382 0.0000
    outer loop
        vertex 2.4848 0.0000 -0.8616
        vertex 2.4416 0.0000 -0.8292
        vertex 2.4416 0.0000 -0.9708
    endloop
endfacet
facet normal 0.0000 -1.3125 0.0000
    outer loop
        vertex -2.3000 0.0000 -1.0000
        vertex -2.3000 0.0000 -1.7000
        vertex -2.0000 0.0000 -1.7000
    endloop
endfacet
facet normal 0.0000 -1.3125 0.0000
    outer loop
        vertex -2.0000 0.0000 -1.7000
        vertex -2.0000 0.0000 -1.0000
        vertex -2.3000 0.0000 -1.0000
    endloop
endfacet
facet normal 0.0000 -0.2152 0.0000
    outer loop
        vertex -1.9772 0.0000 -1.8148
        vertex -2.0000 0.0000 -1.7000
        vertex -2.3000 0.0000 -1.7000
    endloop
endfacet
facet normal 0.0000 -0.5846 0.0000
    outer loop
        vertex -2.3000 0.0000 -1.7000
        vertex -2.2544 0.0000 -2.0060
        vertex -1.9772 0.0000 -1.8148
    endloop
endfacet
facet normal 0.0000 -0.6051 0.0000
    outer loop
        vertex -1.9772 0.0000 -1.8148
        vertex -2.2544 0.0000 -2.0060
        vertex -2.1244 0.0000 -2.2656
    endloop
endfacet
facet normal 0.0000 -0.2731 0.0000
    outer loop
        vertex -2.1244 0.0000 -2.2656
        vertex -1.9120 0.0000 -1.9120
        vertex -1.9772 0.0000 -1.8148
    endloop
endfacet
facet normal 0.0000 -0.6610 0.0000
    outer loop
        vertex -1.9120 0.0000 -1.9120
        vertex -2.1244 0.0000 -2.2656
        vertex -1.9296 0.0000 -2.4392
    endloop
endfacet
facet normal 0.0000 -0.3274 0.0000
    outer loop
        vertex -1.9296 0.0000 -2.4392
        vertex -1.8148 0.0000 -1.9772
        vertex -1.9120 0.0000 -1.9120
    endloop
endfacet
facet normal 0.0000 -0.7066 0.0000
    outer loop
        vertex -1.8148 0.0000 -1.9772
        vertex -1.9296 0.0000 -2.4392
        vertex -1.7000 0.0000 -2.5000
    endloop
endfacet
facet normal 0.0000 -0.3587 0.0000
    outer loop
        vertex -1.7000 0.0000 -2.5000
        vertex -1.7000 0.0000 -2.0000
        vertex -1.8148 0.0000 -1.9772
    endloop
endfacet
facet normal 0.0000 -2.1875 0.0000
    outer loop
        vertex -1.0000 0.0000 -2.0000
        vertex -1.7000 0.0000 -2.0000
        vertex -1.7000 0.0000 -2.5000
    endloop
endfacet
facet normal 0.0000 -3.3662 0.0000
    outer loop
        vertex -1.7000 0.0000 -2.5000
        vertex -0.6228 0.0000 -2.5000
        vertex -1.0000 0.0000 -2.0000
    endloop
endfacet
facet normal 0.0000 -1.2500 0.0000
    outer loop
        vertex -0.8000 0.0000 -1.0000
        vertex -1.0000 0.0000 -1.0000
        vertex -1.0000 0.0000 -2.0000
    endloop
endfacet
facet normal 0.0000 -1.1250 0.0000
    outer loop
        vertex -1.0000 0.0000 -2.0000
        vertex -0.8000 0.0000 -1.9000
        vertex -0.8000 0.0000 -1.0000
    endloop
endfacet
facet normal 0.0000 -0.6667 0.0000
    outer loop
        vertex -0.6228 0.0000 -2.5000
        vertex -0.5544 0.0000 -2.1296
        vertex -0.8000 0.0000 -1.9000
    endloop
endfacet
facet normal 0.0000 -0.8608 0.0000
    outer loop
        vertex -0.8000 0.0000 -1.9000
        vertex -1.0000 0.0000 -2.0000
        vertex -0.6228 0.0000 -2.5000
    endloop
endfacet
facet normal 0.0000 -1.3125 0.0000
    outer loop
        vertex 2.0000 0.0000 -1.7000
        vertex 2.3000 0.0000 -1.7000
        vertex 2.3000 0.0000 -1.0000
    endloop
endfacet
facet normal 0.0000 -1.3125 0.0000
    outer loop
        vertex 2.3000 0.0000 -1.0000
        vertex 2.0000 0.0000 -1.0000
        vertex 2.0000 0.0000 -1.7000
    endloop
endfacet
facet normal 0.0000 -0.2152 0.0000
    outer loop
        vertex 2.3000 0.0000 -1.7000
        vertex 2.0000 0.0000 -1.7000
        vertex 1.9772 0.0000 -1.8148
    endloop
endfacet
facet normal 0.0000 -0.5846 0.0000
    outer loop
        vertex 1.9772 0.0000 -1.8148
        vertex 2.2544 0.0000 -2.0060
        vertex 2.3000 0.0000 -1.7000
    endloop
endfacet
facet normal 0.0000 -0.6051 0.0000
    outer loop
        vertex 2.1244 0.0000 -2.2656
        vertex 2.2544 0.0000 -2.0060
        vertex 1.9772 0.0000 -1.8148
    endloop
endfacet
facet normal 0.0000 -0.2731 0.0000
    outer loop
        vertex 1.9772 0.0000 -1.8148
        vertex 1.9120 0.0000 -1.9120
        vertex 2.1244 0.0000 -2.2656
    endloop
endfacet
facet normal 0.0000 -0.6610 0.0000
    outer loop
        vertex 1.9296 0.0000 -2.4392
        vertex 2.1244 0.0000 -2.2656
        vertex 1.9120 0.0000 -1.9120
    endloop
endfacet
facet normal 0.0000 -0.3274 0.0000
    outer loop
        vertex 1.9120 0.0000 -1.9120
        vertex 1.8148 0.0000 -1.9772
        vertex 1.9296 0.0000 -2.4392
    endloop
endfacet
facet normal 0.0000 -0.7066 0.0000
    outer loop
        vertex 1.7000 0.0000 -2.5000
        vertex 1.9296 0.0000 -2.4392
        vertex 1.8148 0.0000 -1.9772
    endloop
endfacet
facet normal 0.0000 -0.3587 0.0000
    outer loop
        vertex 1.8148 0.0000 -1.9772
        vertex 1.7000 0.0000 -2.0000
        vertex 1.7000 0.0000 -2.5000
    endloop
endfacet
facet normal 0.0000 -2.1875 0.0000
    outer loop
        vertex 1.7000 0.0000 -2.5000
        vertex 1.7000 0.0000 -2.0000
        vertex 1.0000 0.0000 -2.0000
    endloop
endfacet
facet normal 0.0000 -3.3662 0.0000
    outer loop
        vertex 1.0000 0.0000 -2.0000
        vertex 0.6228 0.0000 -2.5000
        vertex 1.7000 0.0000 -2.5000
    endloop
endfacet
facet normal 0.0000 -1.2500 0.0000
    outer loop
        vertex 1.0000 0.0000 -2.0000
        vertex 1.0000 0.0000 -1.0000
        vertex 0.8000 0.0000 -1.0000
    endloop
endfacet
facet normal 0.0000 -1.1250 0.0000
    outer loop
        vertex 0.8000 0.0000 -1.0000
        vertex 0.8000 0.0000 -1.9000
        vertex 1.0000 0.0000 -2.0000
    endloop
endfacet
facet normal 0.0000 -0.6667 0.0000
    outer loop
        vertex 0.8000 0.0000 -1.9000
        vertex 0.5544 0.0000 -2.1296
        vertex 0.6228 0.0000 -2.5000
    endloop
endfacet
facet normal 0.0000 -0.8608 0.0000
    outer loop
        vertex 0.6228 0.0000 -2.5000
        vertex 1.0000 0.0000 -2.0000
        vertex 0.8000 0.0000 -1.9000
    endloop
endfacet
facet normal 0.0000 -0.1782 0.0000
    outer loop
        vertex -0.5544 0.0000 -2.1296
        vertex -0.6228 0.0000 -2.5000
        vertex -0.5656 0.0000 -2.6072
    endloop
endfacet
facet normal 0.0000 -0.4017 0.0000
    outer loop
        vertex -0.5656 0.0000 -2.6072
        vertex -0.4244 0.0000 -2.3244
        vertex -0.5544 0.0000 -2.1296
    endloop
endfacet
facet normal 0.0000 -0.4590 0.0000
    outer loop
        vertex -0.2296 0.0000 -2.4544
        vertex -0.4244 0.0000 -2.3244
        vertex -0.5656 0.0000 -2.6072
    endloop
endfacet
facet normal 0.0000 -0.7032 0.0000
    outer loop
        vertex -0.5656 0.0000 -2.6072
        vertex -0.3060 0.0000 -2.8240
        vertex -0.2296 0.0000 -2.4544
    endloop
endfacet
facet normal 0.0000 -0.5521 0.0000
    outer loop
        vertex 0.0000 0.0000 -2.5000
        vertex -0.2296 0.0000 -2.4544
        vertex -0.3060 0.0000 -2.8240
    endloop
endfacet
facet normal 0.0000 -0.7650 0.0000
    outer loop
        vertex -0.3060 0.0000 -2.8240
        vertex 0.0000 0.0000 -2.9000
        vertex 0.0000 0.0000 -2.5000
    endloop
endfacet
facet normal 0.0000 -0.5740 0.0000
    outer loop
        vertex 0.2296 0.0000 -2.4544
        vertex 0.0000 0.0000 -2.5000
        vertex 0.0000 0.0000 -2.9000
    endloop
endfacet
facet normal 0.0000 -0.7431 0.0000
    outer loop
        vertex 0.0000 0.0000 -2.9000
        vertex 0.3060 0.0000 -2.8240
        vertex 0.2296 0.0000 -2.4544
    endloop
endfacet
facet normal 0.0000 -0.7032 0.0000
    outer loop
        vertex 0.2296 0.0000 -2.4544
        vertex 0.3060 0.0000 -2.8240
        vertex 0.5656 0.0000 -2.6072
    endloop
endfacet
facet normal 0.0000 -0.4590 0.0000
    outer loop
        vertex 0.5656 0.0000 -2.6072
        vertex 0.4244 0.0000 -2.3244
        vertex 0.2296 0.0000 -2.4544
    endloop
endfacet
facet normal 0.0000 -0.1957 0.0000
    outer loop
        vertex 0.4244 0.0000 -2.3244
        vertex 0.5656 0.0000 -2.6072
        vertex 0.6228 0.0000 -2.5000
    endloop
endfacet
facet normal 0.0000 -0.3842 0.0000
    outer loop
        vertex 0.6228 0.0000 -2.5000
        vertex 0.5544 0.0000 -2.1296
        vertex 0.4244 0.0000 -2.3244
    endloop
endfacet
facet normal 0.0000 -0.2870 0.0000
    outer loop
        vertex -0.5544 0.0000 -2.1296
        vertex -0.6000 0.0000 -1.9000
        vertex -0.8000 0.0000 -1.9000
    endloop
endfacet
facet normal 0.0000 -0.3825 0.0000
    outer loop
        vertex -0.5544 0.0000 -1.6704
        vertex -0.7392 0.0000 -1.5940
        vertex -0.8000 0.0000 -1.9000
    endloop
endfacet
facet normal 0.0000 -0.2870 0.0000
    outer loop
        vertex -0.8000 0.0000 -1.9000
        vertex -0.6000 0.0000 -1.9000
        vertex -0.5544 0.0000 -1.6704
    endloop
endfacet
facet normal 0.0000 -0.3827 0.0000
    outer loop
        vertex -0.5656 0.0000 -1.3344
        vertex -0.7392 0.0000 -1.5940
        vertex -0.5544 0.0000 -1.6704
    endloop
endfacet
facet normal 0.0000 -0.2866 0.0000
    outer loop
        vertex -0.5544 0.0000 -1.6704
        vertex -0.4244 0.0000 -1.4756
        vertex -0.5656 0.0000 -1.3344
    endloop
endfacet
facet normal 0.0000 -0.3823 0.0000
    outer loop
        vertex -0.3060 0.0000 -1.1608
        vertex -0.5656 0.0000 -1.3344
        vertex -0.4244 0.0000 -1.4756
    endloop
endfacet
facet normal 0.0000 -0.2871 0.0000
    outer loop
        vertex -0.4244 0.0000 -1.4756
        vertex -0.2296 0.0000 -1.3456
        vertex -0.3060 0.0000 -1.1608
    endloop
endfacet
facet normal 0.0000 -0.3825 0.0000
    outer loop
        vertex 0.0000 0.0000 -1.1000
        vertex -0.3060 0.0000 -1.1608
        vertex -0.2296 0.0000 -1.3456
    endloop
endfacet
facet normal 0.0000 -0.2870 0.0000
    outer loop
        vertex -0.2296 0.0000 -1.3456
        vertex 0.0000 0.0000 -1.3000
        vertex 0.0000 0.0000 -1.1000
    endloop
endfacet
facet normal 0.0000 -0.3825 0.0000
    outer loop
        vertex 0.3060 0.0000 -1.1608
        vertex 0.0000 0.0000 -1.1000
        vertex 0.0000 0.0000 -1.3000
    endloop
endfacet
facet normal 0.0000 -0.2870 0.0000
    outer loop
        vertex 0.0000 0.0000 -1.3000
        vertex 0.2296 0.0000 -1.3456
        vertex 0.3060 0.0000 -1.1608
    endloop
endfacet
facet normal 0.0000 -0.3827 0.0000
    outer loop
        vertex 0.5656 0.0000 -1.3344
        vertex 0.3060 0.0000 -1.1608
        vertex 0.2296 0.0000 -1.3456
    endloop
endfacet
facet normal 0.0000 -0.2866 0.0000
    outer loop
        vertex 0.2296 0.0000 -1.3456
        vertex 0.4244 0.0000 -1.4756
        vertex 0.5656 0.0000 -1.3344
    endloop
endfacet
facet normal 0.0000 -0.3823 0.0000
    outer loop
        vertex 0.7392 0.0000 -1.5940
        vertex 0.5656 0.0000 -1.3344
        vertex 0.4244 0.0000 -1.4756
    endloop
endfacet
facet normal 0.0000 -0.2871 0.0000
    outer loop
        vertex 0.4244 0.0000 -1.4756
        vertex 0.5544 0.0000 -1.6704
        vertex 0.7392 0.0000 -1.5940
    endloop
endfacet
facet normal 0.0000 -0.3825 0.0000
    outer loop
        vertex 0.8000 0.0000 -1.9000
        vertex 0.7392 0.0000 -1.5940
        vertex 0.5544 0.0000 -1.6704
    endloop
endfacet
facet normal 0.0000 -0.2870 0.0000
    outer loop
        vertex 0.5544 0.0000 -1.6704
        vertex 0.6000 0.0000 -1.9000
        vertex 0.8000 0.0000 -1.9000
    endloop
endfacet
facet normal 0.0000 -0.2870 0.0000
    outer loop
        vertex 0.6000 0.0000 -1.9000
        vertex 0.5544 0.0000 -2.1296
        vertex 0.8000 0.0000 -1.9000
    endloop
endfacet
facet normal 0.0000 -0.0073 0.0000
    outer loop
        vertex -0.9000 0.0000 3.1000
        vertex -0.9384 0.0000 3.0848
        vertex -0.8616 0.0000 3.0848
    endloop
endfacet
facet normal 0.0000 -0.0073 0.0000
    outer loop
        vertex 0.9000 0.0000 3.1000
        vertex 0.8616 0.0000 3.0848
        vertex 0.9384 0.0000 3.0848
    endloop
endfacet
facet normal 0.0000 -0.0073 0.0000
    outer loop
        vertex -2.4848 0.0000 1.5384
        vertex -2.5000 0.0000 1.5000
        vertex -2.4848 0.0000 1.4616
    endloop
endfacet
facet normal 0.0000 -0.0073 0.0000
    outer loop
        vertex -2.4848 0.0000 0.3384
        vertex -2.5000 0.0000 0.3000
        vertex -2.4848 0.0000 0.2616
    endloop
endfacet
facet normal 0.0000 -0.0073 0.0000
    outer loop
        vertex -2.4848 0.0000 -0.8616
        vertex -2.5000 0.0000 -0.9000
        vertex -2.4848 0.0000 -0.9384
    endloop
endfacet
facet normal 0.0000 -0.0073 0.0000
    outer loop
        vertex 2.5000 0.0000 1.5000
        vertex 2.4848 0.0000 1.5384
        vertex 2.4848 0.0000 1.4616
    endloop
endfacet
facet normal 0.0000 -0.0073 0.0000
    outer loop
        vertex 2.5000 0.0000 0.3000
        vertex 2.4848 0.0000 0.3384
        vertex 2.4848 0.0000 0.2616
    endloop
endfacet
facet normal 0.0000 -0.0073 0.0000
    outer loop
        vertex 2.5000 0.0000 -0.9000
        vertex 2.4848 0.0000 -0.8616
        vertex 2.4848 0.0000 -0.9384
    endloop
endfacet
facet normal 0.0000 -9.7500 0.0000
    outer loop
        vertex -2.6000 0.0000 3.7000
        vertex -2.6000 0.0000 3.4000
        vertex 2.6000 0.0000 3.4000
    endloop
endfacet
facet normal 0.0000 -9.7500 0.0000
    outer loop
        vertex 2.6000 0.0000 3.4000
        vertex 2.6000 0.0000 3.7000
        vertex -2.6000 0.0000 3.7000
    endloop
endfacet
facet normal 0.0000 -0.4305 0.0000
    outer loop
        vertex 2.7148 0.0000 3.3772
        vertex 2.8296 0.0000 3.6544
        vertex 2.6000 0.0000 3.7000
    endloop
endfacet
facet normal 0.0000 -0.2152 0.0000
    outer loop
        vertex 2.6000 0.0000 3.7000
        vertex 2.6000 0.0000 3.4000
        vertex 2.7148 0.0000 3.3772
    endloop
endfacet
facet normal 0.0000 -0.4308 0.0000
    outer loop
        vertex 3.0244 0.0000 3.5244
        vertex 2.8296 0.0000 3.6544
        vertex 2.7148 0.0000 3.3772
    endloop
endfacet
facet normal 0.0000 -0.2156 0.0000
    outer loop
        vertex 2.7148 0.0000 3.3772
        vertex 2.8120 0.0000 3.3120
        vertex 3.0244 0.0000 3.5244
    endloop
endfacet
facet normal 0.0000 -0.4312 0.0000
    outer loop
        vertex 3.1544 0.0000 3.3296
        vertex 3.0244 0.0000 3.5244
        vertex 2.8120 0.0000 3.3120
    endloop
endfacet
facet normal 0.0000 -0.2152 0.0000
    outer loop
        vertex 2.8120 0.0000 3.3120
        vertex 2.8772 0.0000 3.2148
        vertex 3.1544 0.0000 3.3296
    endloop
endfacet
facet normal 0.0000 -0.4305 0.0000
    outer loop
        vertex 3.2000 0.0000 3.1000
        vertex 3.1544 0.0000 3.3296
        vertex 2.8772 0.0000 3.2148
    endloop
endfacet
facet normal 0.0000 -0.2153 0.0000
    outer loop
        vertex 2.8772 0.0000 3.2148
        vertex 2.9000 0.0000 3.1000
        vertex 3.2000 0.0000 3.1000
    endloop
endfacet
facet normal 0.0000 -11.4375 0.0000
    outer loop
        vertex 3.2000 0.0000 -3.0000
        vertex 3.2000 0.0000 3.1000
        vertex 2.9000 0.0000 3.1000
    endloop
endfacet
facet normal 0.0000 -11.4375 0.0000
    outer loop
        vertex 2.9000 0.0000 3.1000
        vertex 2.9000 0.0000 -3.0000
        vertex 3.2000 0.0000 -3.0000
    endloop
endfacet
facet normal 0.0000 -0.1542 0.0000
    outer loop
        vertex 2.9000 0.0000 -3.0000
        vertex 2.8772 0.0000 -3.0764
        vertex 3.1544 0.0000 -3.2296
    endloop
endfacet
facet normal 0.0000 -0.4305 0.0000
    outer loop
        vertex 3.1544 0.0000 -3.2296
        vertex 3.2000 0.0000 -3.0000
        vertex 2.9000 0.0000 -3.0000
    endloop
endfacet
facet normal 0.0000 -0.4620 0.0000
    outer loop
        vertex 3.0244 0.0000 -3.4244
        vertex 3.1544 0.0000 -3.2296
        vertex 2.8772 0.0000 -3.0764
    endloop
endfacet
facet normal 0.0000 -0.2018 0.0000
    outer loop
        vertex 2.8772 0.0000 -3.0764
        vertex 2.8120 0.0000 -3.1416
        vertex 3.0244 0.0000 -3.4244
    endloop
endfacet
facet normal 0.0000 -0.5169 0.0000
    outer loop
        vertex 2.8296 0.0000 -3.5544
        vertex 3.0244 0.0000 -3.4244
        vertex 2.8120 0.0000 -3.1416
    endloop
endfacet
facet normal 0.0000 -0.2555 0.0000
    outer loop
        vertex 2.8120 0.0000 -3.1416
        vertex 2.7148 0.0000 -3.1848
        vertex 2.8296 0.0000 -3.5544
    endloop
endfacet
facet normal 0.0000 -0.5631 0.0000
    outer loop
        vertex 2.6000 0.0000 -3.6000
        vertex 2.8296 0.0000 -3.5544
        vertex 2.7148 0.0000 -3.1848
    endloop
endfacet
facet normal 0.0000 -0.2870 0.0000
    outer loop
        vertex 2.7148 0.0000 -3.1848
        vertex 2.6000 0.0000 -3.2000
        vertex 2.6000 0.0000 -3.6000
    endloop
endfacet
facet normal 0.0000 -13.0000 0.0000
    outer loop
        vertex 2.6000 0.0000 -3.6000
        vertex 2.6000 0.0000 -3.2000
        vertex -2.6000 0.0000 -3.2000
    endloop
endfacet
facet normal 0.0000 -13.0000 0.0000
    outer loop
        vertex -2.6000 0.0000 -3.2000
        vertex -2.6000 0.0000 -3.6000
        vertex 2.6000 0.0000 -3.6000
    endloop
endfacet
facet normal 0.0000 -0.2870 0.0000
    outer loop
        vertex -2.6000 0.0000 -3.6000
        vertex -2.6000 0.0000 -3.2000
        vertex -2.7148 0.0000 -3.1848
    endloop
endfacet
facet normal 0.0000 -0.5631 0.0000
    outer loop
        vertex -2.7148 0.0000 -3.1848
        vertex -2.8296 0.0000 -3.5544
        vertex -2.6000 0.0000 -3.6000
    endloop
endfacet
facet normal 0.0000 -0.2555 0.0000
    outer loop
        vertex -2.8296 0.0000 -3.5544
        vertex -2.7148 0.0000 -3.1848
        vertex -2.8120 0.0000 -3.1416
    endloop
endfacet
facet normal 0.0000 -0.5169 0.0000
    outer loop
        vertex -2.8120 0.0000 -3.1416
        vertex -3.0244 0.0000 -3.4244
        vertex -2.8296 0.0000 -3.5544
    endloop
endfacet
facet normal 0.0000 -0.2018 0.0000
    outer loop
        vertex -3.0244 0.0000 -3.4244
        vertex -2.8120 0.0000 -3.1416
        vertex -2.8772 0.0000 -3.0764
    endloop
endfacet
facet normal 0.0000 -0.4620 0.0000
    outer loop
        vertex -2.8772 0.0000 -3.0764
        vertex -3.1544 0.0000 -3.2296
        vertex -3.0244 0.0000 -3.4244
    endloop
endfacet
facet normal 0.0000 -0.1542 0.0000
    outer loop
        vertex -3.1544 0.0000 -3.2296
        vertex -2.8772 0.0000 -3.0764
        vertex -2.9000 0.0000 -3.0000
    endloop
endfacet
facet normal 0.0000 -0.4305 0.0000
    outer loop
        vertex -2.9000 0.0000 -3.0000
        vertex -3.2000 0.0000 -3.0000
        vertex -3.1544 0.0000 -3.2296
    endloop
endfacet
facet normal 0.0000 -11.4375 0.0000
    outer loop
        vertex -3.2000 0.0000 -3.0000
        vertex -2.9000 0.0000 -3.0000
        vertex -2.9000 0.0000 3.1000
    endloop
endfacet
facet normal 0.0000 -11.4375 0.0000
    outer loop
        vertex -2.9000 0.0000 3.1000
        vertex -3.2000 0.0000 3.1000
        vertex -3.2000 0.0000 -3.0000
    endloop
endfacet
facet normal 0.0000 -0.2153 0.0000
    outer loop
        vertex -2.9000 0.0000 3.1000
        vertex -2.8772 0.0000 3.2148
        vertex -3.1544 0.0000 3.3296
    endloop
endfacet
facet normal 0.0000 -0.4305 0.0000
    outer loop
        vertex -3.1544 0.0000 3.3296
        vertex -3.2000 0.0000 3.1000
        vertex -2.9000 0.0000 3.1000
    endloop
endfacet
facet normal 0.0000 -0.4308 0.0000
    outer loop
        vertex -3.0244 0.0000 3.5244
        vertex -3.1544 0.0000 3.3296
        vertex -2.8772 0.0000 3.2148
    endloop
endfacet
facet normal 0.0000 -0.2156 0.0000
    outer loop
        vertex -2.8772 0.0000 3.2148
        vertex -2.8120 0.0000 3.3120
        vertex -3.0244 0.0000 3.5244
    endloop
endfacet
facet normal 0.0000 -0.4312 0.0000
    outer loop
        vertex -2.8296 0.0000 3.6544
        vertex -3.0244 0.0000 3.5244
        vertex -2.8120 0.0000 3.3120
    endloop
endfacet
facet normal 0.0000 -0.2152 0.0000
    outer loop
        vertex -2.8120 0.0000 3.3120
        vertex -2.7148 0.0000 3.3772
        vertex -2.8296 0.0000 3.6544
    endloop
endfacet
facet normal 0.0000 -0.4305 0.0000
    outer loop
        vertex -2.6000 0.0000 3.7000
        vertex -2.8296 0.0000 3.6544
        vertex -2.7148 0.0000 3.3772
    endloop
endfacet
facet normal 0.0000 -0.2152 0.0000
    outer loop
        vertex -2.7148 0.0000 3.3772
        vertex -2.6000 0.0000 3.4000
        vertex -2.6000 0.0000 3.7000
    endloop
endfacet
facet normal 0.0000 -5.0925 0.0000
    outer loop
        vertex -2.0000 0.0000 1.6000
        vertex -1.0000 0.0000 1.6000
        vertex -1.9772 0.0000 2.4148
    endloop
endfacet
facet normal 0.0000 -0.0998 0.0000
    outer loop
        vertex -1.9772 0.0000 2.4148
        vertex -2.0000 0.0000 2.3000
        vertex -2.0000 0.0000 1.6000
    endloop
endfacet
facet normal 0.0000 -0.0325 0.0000
    outer loop
        vertex -1.8148 0.0000 2.5772
        vertex -1.9120 0.0000 2.5120
        vertex -1.9772 0.0000 2.4148
    endloop
endfacet
facet normal 0.0000 -1.8189 0.0000
    outer loop
        vertex -1.9772 0.0000 2.4148
        vertex -1.0000 0.0000 1.6000
        vertex -1.8148 0.0000 2.5772
    endloop
endfacet
facet normal 0.0000 -5.0925 0.0000
    outer loop
        vertex -1.8148 0.0000 2.5772
        vertex -1.0000 0.0000 1.6000
        vertex -1.0000 0.0000 2.6000
    endloop
endfacet
facet normal 0.0000 -0.0998 0.0000
    outer loop
        vertex -1.0000 0.0000 2.6000
        vertex -1.7000 0.0000 2.6000
        vertex -1.8148 0.0000 2.5772
    endloop
endfacet
facet normal 0.0000 -10.0000 0.0000
    outer loop
        vertex -0.8000 0.0000 2.6000
        vertex -0.8000 0.0000 1.6000
        vertex 0.8000 0.0000 1.6000
    endloop
endfacet
facet normal 0.0000 -10.0000 0.0000
    outer loop
        vertex 0.8000 0.0000 1.6000
        vertex 0.8000 0.0000 2.6000
        vertex -0.8000 0.0000 2.6000
    endloop
endfacet
facet normal 0.0000 -5.0925 0.0000
    outer loop
        vertex 1.0000 0.0000 2.6000
        vertex 1.0000 0.0000 1.6000
        vertex 1.8148 0.0000 2.5772
    endloop
endfacet
facet normal 0.0000 -0.0998 0.0000
    outer loop
        vertex 1.8148 0.0000 2.5772
        vertex 1.7000 0.0000 2.6000
        vertex 1.0000 0.0000 2.6000
    endloop
endfacet
facet normal 0.0000 -1.8189 0.0000
    outer loop
        vertex 1.8148 0.0000 2.5772
        vertex 1.0000 0.0000 1.6000
        vertex 1.9772 0.0000 2.4148
    endloop
endfacet
facet normal 0.0000 -0.0325 0.0000
    outer loop
        vertex 1.9772 0.0000 2.4148
        vertex 1.9120 0.0000 2.5120
        vertex 1.8148 0.0000 2.5772
    endloop
endfacet
facet normal 0.0000 -5.0925 0.0000
    outer loop
        vertex 1.9772 0.0000 2.4148
        vertex 1.0000 0.0000 1.6000
        vertex 2.0000 0.0000 1.6000
    endloop
endfacet
facet normal 0.0000 -0.0998 0.0000
    outer loop
        vertex 2.0000 0.0000 1.6000
        vertex 2.0000 0.0000 2.3000
        vertex 1.9772 0.0000 2.4148
    endloop
endfacet
facet normal 0.0000 -6.2500 0.0000
    outer loop
        vertex -2.0000 0.0000 0.4000
        vertex -1.0000 0.0000 0.4000
        vertex -1.0000 0.0000 1.4000
    endloop
endfacet
facet normal 0.0000 -6.2500 0.0000
    outer loop
        vertex -1.0000 0.0000 1.4000
        vertex -2.0000 0.0000 1.4000
        vertex -2.0000 0.0000 0.4000
    endloop
endfacet
facet normal 0.0000 -1.5000 0.0000
    outer loop
        vertex -0.6000 0.0000 1.4000
        vertex -0.5000 0.0000 1.1600
        vertex 0.5000 0.0000 1.1600
    endloop
endfacet
facet normal 0.0000 -1.8000 0.0000
    outer loop
        vertex 0.5000 0.0000 1.1600
        vertex 0.6000 0.0000 1.4000
        vertex -0.6000 0.0000 1.4000
    endloop
endfacet
facet normal 0.0000 -6.2500 0.0000
    outer loop
        vertex 2.0000 0.0000 0.4000
        vertex 2.0000 0.0000 1.4000
        vertex 1.0000 0.0000 1.4000
    endloop
endfacet
facet normal 0.0000 -6.2500 0.0000
    outer loop
        vertex 1.0000 0.0000 1.4000
        vertex 1.0000 0.0000 0.4000
        vertex 2.0000 0.0000 0.4000
    endloop
endfacet
facet normal 0.0000 -2.4000 0.0000
    outer loop
        vertex -0.5600 0.0000 -0.5000
        vertex -0.5600 0.0000 1.1000
        vertex -0.8000 0.0000 1.2000
    endloop
endfacet
facet normal 0.0000 -2.7000 0.0000
    outer loop
        vertex -0.8000 0.0000 1.2000
        vertex -0.8000 0.0000 -0.6000
        vertex -0.5600 0.0000 -0.5000
    endloop
endfacet
facet normal 0.0000 -2.4000 0.0000
    outer loop
        vertex 0.8000 0.0000 1.2000
        vertex 0.5600 0.0000 1.1000
        vertex 0.5600 0.0000 -0.5000
    endloop
endfacet
facet normal 0.0000 -2.7000 0.0000
    outer loop
        vertex 0.5600 0.0000 -0.5000
        vertex 0.8000 0.0000 -0.6000
        vertex 0.8000 0.0000 1.2000
    endloop
endfacet
facet normal 0.0000 -6.2500 0.0000
    outer loop
        vertex -1.0000 0.0000 -0.8000
        vertex -1.0000 0.0000 0.2000
        vertex -2.0000 0.0000 0.2000
    endloop
endfacet
facet normal 0.0000 -6.2500 0.0000
    outer loop
        vertex -2.0000 0.0000 0.2000
        vertex -2.0000 0.0000 -0.8000
        vertex -1.0000 0.0000 -0.8000
    endloop
endfacet
facet normal 0.0000 -1.8000 0.0000
    outer loop
        vertex -0.6000 0.0000 -0.8000
        vertex 0.6000 0.0000 -0.8000
        vertex 0.5000 0.0000 -0.5600
    endloop
endfacet
facet normal 0.0000 -1.5000 0.0000
    outer loop
        vertex 0.5000 0.0000 -0.5600
        vertex -0.5000 0.0000 -0.5600
        vertex -0.6000 0.0000 -0.8000
    endloop
endfacet
facet normal 0.0000 -6.2500 0.0000
    outer loop
        vertex 2.0000 0.0000 0.2000
        vertex 1.0000 0.0000 0.2000
        vertex 1.0000 0.0000 -0.8000
    endloop
endfacet
facet normal 0.0000 -6.2500 0.0000
    outer loop
        vertex 1.0000 0.0000 -0.8000
        vertex 2.0000 0.0000 -0.8000
        vertex 2.0000 0.0000 0.2000
    endloop
endfacet
facet normal 0.0000 -4.3750 0.0000
    outer loop
        vertex -1.0000 0.0000 -1.0000
        vertex -2.0000 0.0000 -1.0000
        vertex -2.0000 0.0000 -1.7000
    endloop
endfacet
facet normal 0.0000 -0.8173 0.0000
    outer loop
        vertex -2.0000 0.0000 -1.7000
        vertex -1.9772 0.0000 -1.8148
        vertex -1.0000 0.0000 -1.0000
    endloop
endfacet
facet normal 0.0000 -1.8189 0.0000
    outer loop
        vertex -1.8148 0.0000 -1.9772
        vertex -1.0000 0.0000 -1.0000
        vertex -1.9772 0.0000 -1.8148
    endloop
endfacet
facet normal 0.0000 -0.0325 0.0000
    outer loop
        vertex -1.9772 0.0000 -1.8148
        vertex -1.9120 0.0000 -1.9120
        vertex -1.8148 0.0000 -1.9772
    endloop
endfacet
facet normal 0.0000 -0.8172 0.0000
    outer loop
        vertex -1.0000 0.0000 -1.0000
        vertex -1.8148 0.0000 -1.9772
        vertex -1.7000 0.0000 -2.0000
    endloop
endfacet
facet normal 0.0000 -4.3750 0.0000
    outer loop
        vertex -1.7000 0.0000 -2.0000
        vertex -1.0000 0.0000 -2.0000
        vertex -1.0000 0.0000 -1.0000
    endloop
endfacet
facet normal 0.0000 -0.3420 0.0000
    outer loop
        vertex -0.8000 0.0000 -1.0000
        vertex -0.8000 0.0000 -1.9000
        vertex -0.7392 0.0000 -1.5940
    endloop
endfacet
facet normal 0.0000 -0.7431 0.0000
    outer loop
        vertex -0.8000 0.0000 -1.0000
        vertex -0.7392 0.0000 -1.5940
        vertex -0.5656 0.0000 -1.3344
    endloop
endfacet
facet normal 0.0000 -0.7969 0.0000
    outer loop
        vertex -0.8000 0.0000 -1.0000
        vertex -0.5656 0.0000 -1.3344
        vertex -0.3060 0.0000 -1.1608
    endloop
endfacet
facet normal 0.0000 -0.4953 0.0000
    outer loop
        vertex -0.8000 0.0000 -1.0000
        vertex -0.3060 0.0000 -1.1608
        vertex 0.0000 0.0000 -1.1000
    endloop
endfacet
facet normal 0.0000 -1.0000 0.0000
    outer loop
        vertex 0.0000 0.0000 -1.1000
        vertex 0.8000 0.0000 -1.0000
        vertex -0.8000 0.0000 -1.0000
    endloop
endfacet
facet normal 0.0000 -0.4953 0.0000
    outer loop
        vertex 0.8000 0.0000 -1.0000
        vertex 0.0000 0.0000 -1.1000
        vertex 0.3060 0.0000 -1.1608
    endloop
endfacet
facet normal 0.0000 -0.7969 0.0000
    outer loop
        vertex 0.8000 0.0000 -1.0000
        vertex 0.3060 0.0000 -1.1608
        vertex 0.5656 0.0000 -1.3344
    endloop
endfacet
facet normal 0.0000 -0.7431 0.0000
    outer loop
        vertex 0.5656 0.0000 -1.3344
        vertex 0.7392 0.0000 -1.5940
        vertex 0.8000 0.0000 -1.0000
    endloop
endfacet
facet normal 0.0000 -0.3420 0.0000
    outer loop
        vertex 0.7392 0.0000 -1.5940
        vertex 0.8000 0.0000 -1.9000
        vertex 0.8000 0.0000 -1.0000
    endloop
endfacet
facet normal 0.0000 -4.3750 0.0000
    outer loop
        vertex 1.0000 0.0000 -1.0000
        vertex 1.0000 0.0000 -2.0000
        vertex 1.7000 0.0000 -2.0000
    endloop
endfacet
facet normal 0.0000 -0.8173 0.0000
    outer loop
        vertex 1.7000 0.0000 -2.0000
        vertex 1.8148 0.0000 -1.9772
        vertex 1.0000 0.0000 -1.0000
    endloop
endfacet
facet normal 0.0000 -0.9257 0.0000
    outer loop
        vertex 1.0000 0.0000 -1.0000
        vertex 1.8148 0.0000 -1.9772
        vertex 1.9120 0.0000 -1.9120
    endloop
endfacet
facet normal 0.0000 -0.9257 0.0000
    outer loop
        vertex 1.9120 0.0000 -1.9120
        vertex 1.9772 0.0000 -1.8148
        vertex 1.0000 0.0000 -1.0000
    endloop
endfacet
facet normal 0.0000 -0.8172 0.0000
    outer loop
        vertex 1.0000 0.0000 -1.0000
        vertex 1.9772 0.0000 -1.8148
        vertex 2.0000 0.0000 -1.7000
    endloop
endfacet
facet normal 0.0000 -4.3750 0.0000
    outer loop
        vertex 2.0000 0.0000 -1.7000
        vertex 2.0000 0.0000 -1.0000
        vertex 1.0000 0.0000 -1.0000
    endloop
endfacet
facet normal 0.0000 -0.1309 0.0000
    outer loop
        vertex 0.0000 0.0000 -1.3000
        vertex -0.2296 0.0000 -1.3456
        vertex 0.2296 0.0000 -1.3456
    endloop
endfacet
facet normal 0.0000 -0.3731 0.0000
    outer loop
        vertex 0.2296 0.0000 -1.3456
        vertex -0.2296 0.0000 -1.3456
        vertex -0.4244 0.0000 -1.4756
    endloop
endfacet
facet normal 0.0000 -0.6897 0.0000
    outer loop
        vertex -0.4244 0.0000 -1.4756
        vertex 0.4244 0.0000 -1.4756
        vertex 0.2296 0.0000 -1.3456
    endloop
endfacet
facet normal 0.0000 -1.0334 0.0000
    outer loop
        vertex 0.5544 0.0000 -1.6704
        vertex 0.4244 0.0000 -1.4756
        vertex -0.4244 0.0000 -1.4756
    endloop
endfacet
facet normal 0.0000 -1.3500 0.0000
    outer loop
        vertex -0.4244 0.0000 -1.4756
        vertex -0.5544 0.0000 -1.6704
        vertex 0.5544 0.0000 -1.6704
    endloop
endfacet
facet normal 0.0000 -1.5911 0.0000
    outer loop
        vertex 0.6000 0.0000 -1.9000
        vertex 0.5544 0.0000 -1.6704
        vertex -0.5544 0.0000 -1.6704
    endloop
endfacet
facet normal 0.0000 -1.7220 0.0000
    outer loop
        vertex -0.5544 0.0000 -1.6704
        vertex -0.6000 0.0000 -1.9000
        vertex 0.6000 0.0000 -1.9000
    endloop
endfacet
facet normal 0.0000 -1.7220 0.0000
    outer loop
        vertex 0.5544 0.0000 -2.1296
        vertex 0.6000 0.0000 -1.9000
        vertex -0.6000 0.0000 -1.9000
    endloop
endfacet
facet normal 0.0000 -1.5911 0.0000
    outer loop
        vertex -0.6000 0.0000 -1.9000
        vertex -0.5544 0.0000 -2.1296
        vertex 0.5544 0.0000 -2.1296
    endloop
endfacet
facet normal 0.0000 -1.3500 0.0000
    outer loop
        vertex 0.4244 0.0000 -2.3244
        vertex 0.5544 0.0000 -2.1296
        vertex -0.5544 0.0000 -2.1296
    endloop
endfacet
facet normal 0.0000 -1.0334 0.0000
    outer loop
        vertex -0.5544 0.0000 -2.1296
        vertex -0.4244 0.0000 -2.3244
        vertex 0.4244 0.0000 -2.3244
    endloop
endfacet
facet normal 0.0000 -0.6897 0.0000
    outer loop
        vertex 0.2296 0.0000 -2.4544
        vertex 0.4244 0.0000 -2.3244
        vertex -0.4244 0.0000 -2.3244
    endloop
endfacet
facet normal 0.0000 -0.3731 0.0000
    outer loop
        vertex -0.4244 0.0000 -2.3244
        vertex -0.2296 0.0000 -2.4544
        vertex 0.2296 0.0000 -2.4544
    endloop
endfacet
facet normal 0.0000 -0.1309 0.0000
    outer loop
        vertex 0.2296 0.0000 -2.4544
        vertex -0.2296 0.0000 -2.4544
        vertex 0.0000 0.0000 -2.5000
    endloop
endfacet
facet normal 0.0000 -0.1682 0.0000
    outer loop
        vertex -1.7000 0.0000 2.9000
        vertex -0.9708 0.0000 3.0416
        vertex -0.9384 0.0000 3.0848
    endloop
endfacet
facet normal 0.0000 -3.4195 0.0000
    outer loop
        vertex -0.9384 0.0000 3.0848
        vertex -2.6000 0.0000 3.4000
        vertex -1.7000 0.0000 2.9000
    endloop
endfacet
facet normal 0.0000 -0.2335 0.0000
    outer loop
        vertex -2.6000 0.0000 3.4000
        vertex -0.9384 0.0000 3.0848
        vertex -0.9000 0.0000 3.1000
    endloop
endfacet
facet normal 0.0000 -3.3750 0.0000
    outer loop
        vertex -2.6000 0.0000 3.4000
        vertex -0.9000 0.0000 3.1000
        vertex 0.9000 0.0000 3.1000
    endloop
endfacet
facet normal 0.0000 -9.7500 0.0000
    outer loop
        vertex 0.9000 0.0000 3.1000
        vertex 2.6000 0.0000 3.4000
        vertex -2.6000 0.0000 3.4000
    endloop
endfacet
facet normal 0.0000 -0.2335 0.0000
    outer loop
        vertex 2.6000 0.0000 3.4000
        vertex 0.9000 0.0000 3.1000
        vertex 0.9384 0.0000 3.0848
    endloop
endfacet
facet normal 0.0000 -3.4195 0.0000
    outer loop
        vertex 1.7000 0.0000 2.9000
        vertex 2.6000 0.0000 3.4000
        vertex 0.9384 0.0000 3.0848
    endloop
endfacet
facet normal 0.0000 -0.1682 0.0000
    outer loop
        vertex 0.9384 0.0000 3.0848
        vertex 0.9708 0.0000 3.0416
        vertex 1.7000 0.0000 2.9000
    endloop
endfacet
facet normal 0.0000 -0.6195 0.0000
    outer loop
        vertex -0.9708 0.0000 3.0416
        vertex -1.7000 0.0000 2.9000
        vertex -1.0000 0.0000 2.9000
    endloop
endfacet
facet normal 0.0000 -0.6195 0.0000
    outer loop
        vertex 0.9708 0.0000 3.0416
        vertex 1.0000 0.0000 2.9000
        vertex 1.7000 0.0000 2.9000
    endloop
endfacet
facet normal 0.0000 -0.1710 0.0000
    outer loop
        vertex 0.8616 0.0000 3.0848
        vertex 0.9000 0.0000 3.1000
        vertex -0.9000 0.0000 3.1000
    endloop
endfacet
facet normal 0.0000 -0.1637 0.0000
    outer loop
        vertex -0.9000 0.0000 3.1000
        vertex -0.8616 0.0000 3.0848
        vertex 0.8616 0.0000 3.0848
    endloop
endfacet
facet normal 0.0000 -0.4653 0.0000
    outer loop
        vertex 0.8292 0.0000 3.0416
        vertex 0.8616 0.0000 3.0848
        vertex -0.8616 0.0000 3.0848
    endloop
endfacet
facet normal 0.0000 -0.4478 0.0000
    outer loop
        vertex -0.8616 0.0000 3.0848
        vertex -0.8292 0.0000 3.0416
        vertex 0.8292 0.0000 3.0416
    endloop
endfacet
facet normal 0.0000 -1.4677 0.0000
    outer loop
        vertex 0.8000 0.0000 2.9000
        vertex 0.8292 0.0000 3.0416
        vertex -0.8292 0.0000 3.0416
    endloop
endfacet
facet normal 0.0000 -1.4160 0.0000
    outer loop
        vertex -0.8292 0.0000 3.0416
        vertex -0.8000 0.0000 2.9000
        vertex 0.8000 0.0000 2.9000
    endloop
endfacet
facet normal 0.0000 -0.9740 0.0000
    outer loop
        vertex -1.9296 0.0000 2.8544
        vertex -1.7000 0.0000 2.9000
        vertex -2.6000 0.0000 3.4000
    endloop
endfacet
facet normal 0.0000 -0.4870 0.0000
    outer loop
        vertex -2.6000 0.0000 3.4000
        vertex -2.7148 0.0000 3.3772
        vertex -1.9296 0.0000 2.8544
    endloop
endfacet
facet normal 0.0000 -1.2745 0.0000
    outer loop
        vertex -2.1244 0.0000 2.7244
        vertex -1.9296 0.0000 2.8544
        vertex -2.7148 0.0000 3.3772
    endloop
endfacet
facet normal 0.0000 -0.6372 0.0000
    outer loop
        vertex -2.7148 0.0000 3.3772
        vertex -2.8120 0.0000 3.3120
        vertex -2.1244 0.0000 2.7244
    endloop
endfacet
facet normal 0.0000 -1.3146 0.0000
    outer loop
        vertex -2.2544 0.0000 2.5296
        vertex -2.1244 0.0000 2.7244
        vertex -2.8120 0.0000 3.3120
    endloop
endfacet
facet normal 0.0000 -0.6576 0.0000
    outer loop
        vertex -2.8120 0.0000 3.3120
        vertex -2.8772 0.0000 3.2148
        vertex -2.2544 0.0000 2.5296
    endloop
endfacet
facet normal 0.0000 -1.0890 0.0000
    outer loop
        vertex -2.3000 0.0000 2.3000
        vertex -2.2544 0.0000 2.5296
        vertex -2.8772 0.0000 3.2148
    endloop
endfacet
facet normal 0.0000 -0.5445 0.0000
    outer loop
        vertex -2.8772 0.0000 3.2148
        vertex -2.9000 0.0000 3.1000
        vertex -2.3000 0.0000 2.3000
    endloop
endfacet
facet normal 0.0000 -2.6250 0.0000
    outer loop
        vertex -2.3000 0.0000 1.6000
        vertex -2.3000 0.0000 2.3000
        vertex -2.9000 0.0000 3.1000
    endloop
endfacet
facet normal 0.0000 -1.4370 0.0000
    outer loop
        vertex -2.9000 0.0000 3.1000
        vertex -2.4416 0.0000 1.5708
        vertex -2.3000 0.0000 1.6000
    endloop
endfacet
facet normal 0.0000 -0.5057 0.0000
    outer loop
        vertex -2.4416 0.0000 1.5708
        vertex -2.9000 0.0000 3.1000
        vertex -2.4848 0.0000 1.5384
    endloop
endfacet
facet normal 0.0000 -0.2480 0.0000
    outer loop
        vertex -2.5000 0.0000 1.5000
        vertex -2.4848 0.0000 1.5384
        vertex -2.9000 0.0000 3.1000
    endloop
endfacet
facet normal 0.0000 -0.9740 0.0000
    outer loop
        vertex 1.7000 0.0000 2.9000
        vertex 1.9296 0.0000 2.8544
        vertex 2.7148 0.0000 3.3772
    endloop
endfacet
facet normal 0.0000 -0.4870 0.0000
    outer loop
        vertex 2.7148 0.0000 3.3772
        vertex 2.6000 0.0000 3.4000
        vertex 1.7000 0.0000 2.9000
    endloop
endfacet
facet normal 0.0000 -0.6376 0.0000
    outer loop
        vertex 2.8120 0.0000 3.3120
        vertex 2.7148 0.0000 3.3772
        vertex 1.9296 0.0000 2.8544
    endloop
endfacet
facet normal 0.0000 -1.2741 0.0000
    outer loop
        vertex 1.9296 0.0000 2.8544
        vertex 2.1244 0.0000 2.7244
        vertex 2.8120 0.0000 3.3120
    endloop
endfacet
facet normal 0.0000 -0.6572 0.0000
    outer loop
        vertex 2.8772 0.0000 3.2148
        vertex 2.8120 0.0000 3.3120
        vertex 2.1244 0.0000 2.7244
    endloop
endfacet
facet normal 0.0000 -1.3150 0.0000
    outer loop
        vertex 2.1244 0.0000 2.7244
        vertex 2.2544 0.0000 2.5296
        vertex 2.8772 0.0000 3.2148
    endloop
endfacet
facet normal 0.0000 -0.5445 0.0000
    outer loop
        vertex 2.9000 0.0000 3.1000
        vertex 2.8772 0.0000 3.2148
        vertex 2.2544 0.0000 2.5296
    endloop
endfacet
facet normal 0.0000 -1.0890 0.0000
    outer loop
        vertex 2.2544 0.0000 2.5296
        vertex 2.3000 0.0000 2.3000
        vertex 2.9000 0.0000 3.1000
    endloop
endfacet
facet normal 0.0000 -1.4370 0.0000
    outer loop
        vertex 2.3000 0.0000 1.6000
        vertex 2.4416 0.0000 1.5708
        vertex 2.9000 0.0000 3.1000
    endloop
endfacet
facet normal 0.0000 -2.6250 0.0000
    outer loop
        vertex 2.9000 0.0000 3.1000
        vertex 2.3000 0.0000 2.3000
        vertex 2.3000 0.0000 1.6000
    endloop
endfacet
facet normal 0.0000 -0.5057 0.0000
    outer loop
        vertex 2.9000 0.0000 3.1000
        vertex 2.4416 0.0000 1.5708
        vertex 2.4848 0.0000 1.5384
    endloop
endfacet
facet normal 0.0000 -0.2480 0.0000
    outer loop
        vertex 2.4848 0.0000 1.5384
        vertex 2.5000 0.0000 1.5000
        vertex 2.9000 0.0000 3.1000
    endloop
endfacet
facet normal 0.0000 -3.0000 0.0000
    outer loop
        vertex -2.5000 0.0000 1.5000
        vertex -2.9000 0.0000 3.1000
        vertex -2.5000 0.0000 0.3000
    endloop
endfacet
facet normal 0.0000 -3.0000 0.0000
    outer loop
        vertex -2.5000 0.0000 -0.9000
        vertex -2.5000 0.0000 0.3000
        vertex -2.9000 0.0000 3.1000
    endloop
endfacet
facet normal 0.0000 -15.2500 0.0000
    outer loop
        vertex -2.9000 0.0000 3.1000
        vertex -2.9000 0.0000 -3.0000
        vertex -2.5000 0.0000 -0.9000
    endloop
endfacet
facet normal 0.0000 -0.2955 0.0000
    outer loop
        vertex -2.5000 0.0000 -0.9000
        vertex -2.9000 0.0000 -3.0000
        vertex -2.4848 0.0000 -0.9384
    endloop
endfacet
facet normal 0.0000 -0.6407 0.0000
    outer loop
        vertex -2.4848 0.0000 -0.9384
        vertex -2.9000 0.0000 -3.0000
        vertex -2.4416 0.0000 -0.9708
    endloop
endfacet
facet normal 0.0000 -0.6195 0.0000
    outer loop
        vertex -2.3000 0.0000 -1.7000
        vertex -2.3000 0.0000 -1.0000
        vertex -2.4416 0.0000 -0.9708
    endloop
endfacet
facet normal 0.0000 -3.8850 0.0000
    outer loop
        vertex -2.4416 0.0000 -0.9708
        vertex -2.9000 0.0000 -3.0000
        vertex -2.3000 0.0000 -1.7000
    endloop
endfacet
facet normal 0.0000 -1.5180 0.0000
    outer loop
        vertex -2.2544 0.0000 -2.0060
        vertex -2.3000 0.0000 -1.7000
        vertex -2.9000 0.0000 -3.0000
    endloop
endfacet
facet normal 0.0000 -0.4499 0.0000
    outer loop
        vertex -2.9000 0.0000 -3.0000
        vertex -2.8772 0.0000 -3.0764
        vertex -2.2544 0.0000 -2.0060
    endloop
endfacet
facet normal 0.0000 -1.8802 0.0000
    outer loop
        vertex -2.1244 0.0000 -2.2656
        vertex -2.2544 0.0000 -2.0060
        vertex -2.8772 0.0000 -3.0764
    endloop
endfacet
facet normal 0.0000 -0.6372 0.0000
    outer loop
        vertex -2.8772 0.0000 -3.0764
        vertex -2.8120 0.0000 -3.1416
        vertex -2.1244 0.0000 -2.2656
    endloop
endfacet
facet normal 0.0000 -1.8126 0.0000
    outer loop
        vertex -1.9296 0.0000 -2.4392
        vertex -2.1244 0.0000 -2.2656
        vertex -2.8120 0.0000 -3.1416
    endloop
endfacet
facet normal 0.0000 -0.6650 0.0000
    outer loop
        vertex -2.8120 0.0000 -3.1416
        vertex -2.7148 0.0000 -3.1848
        vertex -1.9296 0.0000 -2.4392
    endloop
endfacet
facet normal 0.0000 -1.3683 0.0000
    outer loop
        vertex -1.7000 0.0000 -2.5000
        vertex -1.9296 0.0000 -2.4392
        vertex -2.7148 0.0000 -3.1848
    endloop
endfacet
facet normal 0.0000 -0.5878 0.0000
    outer loop
        vertex -2.7148 0.0000 -3.1848
        vertex -2.6000 0.0000 -3.2000
        vertex -1.7000 0.0000 -2.5000
    endloop
endfacet
facet normal 0.0000 -0.1067 0.0000
    outer loop
        vertex -2.5000 0.0000 0.3000
        vertex -2.4848 0.0000 0.3384
        vertex -2.4848 0.0000 1.4616
    endloop
endfacet
facet normal 0.0000 -0.1140 0.0000
    outer loop
        vertex -2.4848 0.0000 1.4616
        vertex -2.5000 0.0000 1.5000
        vertex -2.5000 0.0000 0.3000
    endloop
endfacet
facet normal 0.0000 -0.3033 0.0000
    outer loop
        vertex -2.4416 0.0000 1.4292
        vertex -2.4848 0.0000 1.4616
        vertex -2.4848 0.0000 0.3384
    endloop
endfacet
facet normal 0.0000 -0.2858 0.0000
    outer loop
        vertex -2.4848 0.0000 0.3384
        vertex -2.4416 0.0000 0.3708
        vertex -2.4416 0.0000 1.4292
    endloop
endfacet
facet normal 0.0000 -0.9367 0.0000
    outer loop
        vertex -2.3000 0.0000 1.4000
        vertex -2.4416 0.0000 1.4292
        vertex -2.4416 0.0000 0.3708
    endloop
endfacet
facet normal 0.0000 -0.8850 0.0000
    outer loop
        vertex -2.4416 0.0000 0.3708
        vertex -2.3000 0.0000 0.4000
        vertex -2.3000 0.0000 1.4000
    endloop
endfacet
facet normal 0.0000 -0.1067 0.0000
    outer loop
        vertex -2.5000 0.0000 -0.9000
        vertex -2.4848 0.0000 -0.8616
        vertex -2.4848 0.0000 0.2616
    endloop
endfacet
facet normal 0.0000 -0.1140 0.0000
    outer loop
        vertex -2.4848 0.0000 0.2616
        vertex -2.5000 0.0000 0.3000
        vertex -2.5000 0.0000 -0.9000
    endloop
endfacet
facet normal 0.0000 -0.3033 0.0000
    outer loop
        vertex -2.4416 0.0000 0.2292
        vertex -2.4848 0.0000 0.2616
        vertex -2.4848 0.0000 -0.8616
    endloop
endfacet
facet normal 0.0000 -0.2858 0.0000
    outer loop
        vertex -2.4848 0.0000 -0.8616
        vertex -2.4416 0.0000 -0.8292
        vertex -2.4416 0.0000 0.2292
    endloop
endfacet
facet normal 0.0000 -0.9367 0.0000
    outer loop
        vertex -2.3000 0.0000 0.2000
        vertex -2.4416 0.0000 0.2292
        vertex -2.4416 0.0000 -0.8292
    endloop
endfacet
facet normal 0.0000 -0.8850 0.0000
    outer loop
        vertex -2.4416 0.0000 -0.8292
        vertex -2.3000 0.0000 -0.8000
        vertex -2.3000 0.0000 0.2000
    endloop
endfacet
facet normal 0.0000 -3.0000 0.0000
    outer loop
        vertex 2.9000 0.0000 3.1000
        vertex 2.5000 0.0000 1.5000
        vertex 2.5000 0.0000 0.3000
    endloop
endfacet
facet normal 0.0000 -15.2500 0.0000
    outer loop
        vertex 2.5000 0.0000 -0.9000
        vertex 2.9000 0.0000 -3.0000
        vertex 2.9000 0.0000 3.1000
    endloop
endfacet
facet normal 0.0000 -3.0000 0.0000
    outer loop
        vertex 2.9000 0.0000 3.1000
        vertex 2.5000 0.0000 0.3000
        vertex 2.5000 0.0000 -0.9000
    endloop
endfacet
facet normal 0.0000 -0.2955 0.0000
    outer loop
        vertex 2.5000 0.0000 -0.9000
        vertex 2.4848 0.0000 -0.9384
        vertex 2.9000 0.0000 -3.0000
    endloop
endfacet
facet normal 0.0000 -0.6407 0.0000
    outer loop
        vertex 2.9000 0.0000 -3.0000
        vertex 2.4848 0.0000 -0.9384
        vertex 2.4416 0.0000 -0.9708
    endloop
endfacet
facet normal 0.0000 -0.6195 0.0000
    outer loop
        vertex 2.4416 0.0000 -0.9708
        vertex 2.3000 0.0000 -1.0000
        vertex 2.3000 0.0000 -1.7000
    endloop
endfacet
facet normal 0.0000 -3.8850 0.0000
    outer loop
        vertex 2.3000 0.0000 -1.7000
        vertex 2.9000 0.0000 -3.0000
        vertex 2.4416 0.0000 -0.9708
    endloop
endfacet
facet normal 0.0000 -0.1067 0.0000
    outer loop
        vertex 2.5000 0.0000 1.5000
        vertex 2.4848 0.0000 1.4616
        vertex 2.4848 0.0000 0.3384
    endloop
endfacet
facet normal 0.0000 -0.1140 0.0000
    outer loop
        vertex 2.4848 0.0000 0.3384
        vertex 2.5000 0.0000 0.3000
        vertex 2.5000 0.0000 1.5000
    endloop
endfacet
facet normal 0.0000 -0.3033 0.0000
    outer loop
        vertex 2.4848 0.0000 0.3384
        vertex 2.4848 0.0000 1.4616
        vertex 2.4416 0.0000 1.4292
    endloop
endfacet
facet normal 0.0000 -0.2858 0.0000
    outer loop
        vertex 2.4416 0.0000 1.4292
        vertex 2.4416 0.0000 0.3708
        vertex 2.4848 0.0000 0.3384
    endloop
endfacet
facet normal 0.0000 -0.9367 0.0000
    outer loop
        vertex 2.4416 0.0000 0.3708
        vertex 2.4416 0.0000 1.4292
        vertex 2.3000 0.0000 1.4000
    endloop
endfacet
facet normal 0.0000 -0.8850 0.0000
    outer loop
        vertex 2.3000 0.0000 1.4000
        vertex 2.3000 0.0000 0.4000
        vertex 2.4416 0.0000 0.3708
    endloop
endfacet
facet normal 0.0000 -0.1067 0.0000
    outer loop
        vertex 2.5000 0.0000 0.3000
        vertex 2.4848 0.0000 0.2616
        vertex 2.4848 0.0000 -0.8616
    endloop
endfacet
facet normal 0.0000 -0.1140 0.0000
    outer loop
        vertex 2.4848 0.0000 -0.8616
        vertex 2.5000 0.0000 -0.9000
        vertex 2.5000 0.0000 0.3000
    endloop
endfacet
facet normal 0.0000 -0.3033 0.0000
    outer loop
        vertex 2.4848 0.0000 -0.8616
        vertex 2.4848 0.0000 0.2616
        vertex 2.4416 0.0000 0.2292
    endloop
endfacet
facet normal 0.0000 -0.2858 0.0000
    outer loop
        vertex 2.4416 0.0000 0.2292
        vertex 2.4416 0.0000 -0.8292
        vertex 2.4848 0.0000 -0.8616
    endloop
endfacet
facet normal 0.0000 -0.9367 0.0000
    outer loop
        vertex 2.4416 0.0000 -0.8292
        vertex 2.4416 0.0000 0.2292
        vertex 2.3000 0.0000 0.2000
    endloop
endfacet
facet normal 0.0000 -0.8850 0.0000
    outer loop
        vertex 2.3000 0.0000 0.2000
        vertex 2.3000 0.0000 -0.8000
        vertex 2.4416 0.0000 -0.8292
    endloop
endfacet
facet normal 0.0000 -4.7127 0.0000
    outer loop
        vertex -0.6228 0.0000 -2.5000
        vertex -1.7000 0.0000 -2.5000
        vertex -2.6000 0.0000 -3.2000
    endloop
endfacet
facet normal 0.0000 -1.5750 0.0000
    outer loop
        vertex -2.6000 0.0000 -3.2000
        vertex -0.5656 0.0000 -2.6072
        vertex -0.6228 0.0000 -2.5000
    endloop
endfacet
facet normal 0.0000 -3.7184 0.0000
    outer loop
        vertex -0.5656 0.0000 -2.6072
        vertex -2.6000 0.0000 -3.2000
        vertex -0.3060 0.0000 -2.8240
    endloop
endfacet
facet normal 0.0000 -1.8088 0.0000
    outer loop
        vertex -0.3060 0.0000 -2.8240
        vertex -2.6000 0.0000 -3.2000
        vertex 0.0000 0.0000 -2.9000
    endloop
endfacet
facet normal 0.0000 -9.7500 0.0000
    outer loop
        vertex 0.0000 0.0000 -2.9000
        vertex -2.6000 0.0000 -3.2000
        vertex 2.6000 0.0000 -3.2000
    endloop
endfacet
facet normal 0.0000 -1.8088 0.0000
    outer loop
        vertex 0.0000 0.0000 -2.9000
        vertex 2.6000 0.0000 -3.2000
        vertex 0.3060 0.0000 -2.8240
    endloop
endfacet
facet normal 0.0000 -3.7184 0.0000
    outer loop
        vertex 0.3060 0.0000 -2.8240
        vertex 2.6000 0.0000 -3.2000
        vertex 0.5656 0.0000 -2.6072
    endloop
endfacet
facet normal 0.0000 -0.7217 0.0000
    outer loop
        vertex 1.7000 0.0000 -2.5000
        vertex 0.6228 0.0000 -2.5000
        vertex 0.5656 0.0000 -2.6072
    endloop
endfacet
facet normal 0.0000 -5.5660 0.0000
    outer loop
        vertex 0.5656 0.0000 -2.6072
        vertex 2.6000 0.0000 -3.2000
        vertex 1.7000 0.0000 -2.5000
    endloop
endfacet
facet normal 0.0000 -0.5878 0.0000
    outer loop
        vertex 1.7000 0.0000 -2.5000
        vertex 2.6000 0.0000 -3.2000
        vertex 2.7148 0.0000 -3.1848
    endloop
endfacet
facet normal 0.0000 -1.3683 0.0000
    outer loop
        vertex 2.7148 0.0000 -3.1848
        vertex 1.9296 0.0000 -2.4392
        vertex 1.7000 0.0000 -2.5000
    endloop
endfacet
facet normal 0.0000 -0.6650 0.0000
    outer loop
        vertex 1.9296 0.0000 -2.4392
        vertex 2.7148 0.0000 -3.1848
        vertex 2.8120 0.0000 -3.1416
    endloop
endfacet
facet normal 0.0000 -1.8126 0.0000
    outer loop
        vertex 2.8120 0.0000 -3.1416
        vertex 2.1244 0.0000 -2.2656
        vertex 1.9296 0.0000 -2.4392
    endloop
endfacet
facet normal 0.0000 -0.6372 0.0000
    outer loop
        vertex 2.1244 0.0000 -2.2656
        vertex 2.8120 0.0000 -3.1416
        vertex 2.8772 0.0000 -3.0764
    endloop
endfacet
facet normal 0.0000 -1.8802 0.0000
    outer loop
        vertex 2.8772 0.0000 -3.0764
        vertex 2.2544 0.0000 -2.0060
        vertex 2.1244 0.0000 -2.2656
    endloop
endfacet
facet normal 0.0000 -0.4499 0.0000
    outer loop
        vertex 2.2544 0.0000 -2.0060
        vertex 2.8772 0.0000 -3.0764
        vertex 2.9000 0.0000 -3.0000
    endloop
endfacet
facet normal 0.0000 -1.5180 0.0000
    outer loop
        vertex 2.9000 0.0000 -3.0000
        vertex 2.3000 0.0000 -1.7000
        vertex 2.2544 0.0000 -2.0060
    endloop
endfacet
facet normal 0.0000 -9.7500 0.0000
    outer loop
        vertex -4.0000 0.0000 4.0000
        vertex -2.6000 0.0000 3.7000
        vertex 2.6000 0.0000 3.7000
    endloop
endfacet
facet normal 0.0000 -15.0000 0.0000
    outer loop
        vertex 2.6000 0.0000 3.7000
        vertex 4.0000 0.0000 4.0000
        vertex -4.0000 0.0000 4.0000
    endloop
endfacet
facet normal 0.0000 -0.8295 0.0000
    outer loop
        vertex 2.6000 0.0000 3.7000
        vertex 2.8296 0.0000 3.6544
        vertex 4.0000 0.0000 4.0000
    endloop
endfacet
facet normal 0.0000 -1.3717 0.0000
    outer loop
        vertex 4.0000 0.0000 4.0000
        vertex 2.8296 0.0000 3.6544
        vertex 3.0244 0.0000 3.5244
    endloop
endfacet
facet normal 0.0000 -1.5742 0.0000
    outer loop
        vertex 4.0000 0.0000 4.0000
        vertex 3.0244 0.0000 3.5244
        vertex 3.1544 0.0000 3.3296
    endloop
endfacet
facet normal 0.0000 -1.4045 0.0000
    outer loop
        vertex 3.1544 0.0000 3.3296
        vertex 3.2000 0.0000 3.1000
        vertex 4.0000 0.0000 4.0000
    endloop
endfacet
facet normal 0.0000 -30.5000 0.0000
    outer loop
        vertex 4.0000 0.0000 4.0000
        vertex 3.2000 0.0000 3.1000
        vertex 3.2000 0.0000 -3.0000
    endloop
endfacet
facet normal 0.0000 -40.0000 0.0000
    outer loop
        vertex 3.2000 0.0000 -3.0000
        vertex 4.0000 0.0000 -4.0000
        vertex 4.0000 0.0000 4.0000
    endloop
endfacet
facet normal 0.0000 -1.4330 0.0000
    outer loop
        vertex 4.0000 0.0000 -4.0000
        vertex 3.2000 0.0000 -3.0000
        vertex 3.1544 0.0000 -3.2296
    endloop
endfacet
facet normal 0.0000 -1.6555 0.0000
    outer loop
        vertex 4.0000 0.0000 -4.0000
        vertex 3.1544 0.0000 -3.2296
        vertex 3.0244 0.0000 -3.4244
    endloop
endfacet
facet normal 0.0000 -1.4935 0.0000
    outer loop
        vertex 4.0000 0.0000 -4.0000
        vertex 3.0244 0.0000 -3.4244
        vertex 2.8296 0.0000 -3.5544
    endloop
endfacet
facet normal 0.0000 -0.9730 0.0000
    outer loop
        vertex 2.8296 0.0000 -3.5544
        vertex 2.6000 0.0000 -3.6000
        vertex 4.0000 0.0000 -4.0000
    endloop
endfacet
facet normal 0.0000 -13.0000 0.0000
    outer loop
        vertex 4.0000 0.0000 -4.0000
        vertex 2.6000 0.0000 -3.6000
        vertex -2.6000 0.0000 -3.6000
    endloop
endfacet
facet normal 0.0000 -20.0000 0.0000
    outer loop
        vertex -2.6000 0.0000 -3.6000
        vertex -4.0000 0.0000 -4.0000
        vertex 4.0000 0.0000 -4.0000
    endloop
endfacet
facet normal 0.0000 -0.9730 0.0000
    outer loop
        vertex -2.6000 0.0000 -3.6000
        vertex -2.8296 0.0000 -3.5544
        vertex -4.0000 0.0000 -4.0000
    endloop
endfacet
facet normal 0.0000 -1.4935 0.0000
    outer loop
        vertex -4.0000 0.0000 -4.0000
        vertex -2.8296 0.0000 -3.5544
        vertex -3.0244 0.0000 -3.4244
    endloop
endfacet
facet normal 0.0000 -1.6555 0.0000
    outer loop
        vertex -4.0000 0.0000 -4.0000
        vertex -3.0244 0.0000 -3.4244
        vertex -3.1544 0.0000 -3.2296
    endloop
endfacet
facet normal 0.0000 -1.4330 0.0000
    outer loop
        vertex -3.1544 0.0000 -3.2296
        vertex -3.2000 0.0000 -3.0000
        vertex -4.0000 0.0000 -4.0000
    endloop
endfacet
facet normal 0.0000 -30.5000 0.0000
    outer loop
        vertex -4.0000 0.0000 -4.0000
        vertex -3.2000 0.0000 -3.0000
        vertex -3.2000 0.0000 3.1000
    endloop
endfacet
facet normal 0.0000 -40.0000 0.0000
    outer loop
        vertex -3.2000 0.0000 3.1000
        vertex -4.0000 0.0000 4.0000
        vertex -4.0000 0.0000 -4.0000
    endloop
endfacet
facet normal 0.0000 -1.4045 0.0000
    outer loop
        vertex -4.0000 0.0000 4.0000
        vertex -3.2000 0.0000 3.1000
        vertex -3.1544 0.0000 3.3296
    endloop
endfacet
facet normal 0.0000 -1.5742 0.0000
    outer loop
        vertex -4.0000 0.0000 4.0000
        vertex -3.1544 0.0000 3.3296
        vertex -3.0244 0.0000 3.5244
    endloop
endfacet
facet normal 0.0000 -1.3717 0.0000
    outer loop
        vertex -4.0000 0.0000 4.0000
        vertex -3.0244 0.0000 3.5244
        vertex -2.8296 0.0000 3.6544
    endloop
endfacet
facet normal 0.0000 -0.8295 0.0000
    outer loop
        vertex -2.8296 0.0000 3.6544
        vertex -2.6000 0.0000 3.7000
        vertex -4.0000 0.0000 4.0000
    endloop
endfacet
endsolid GiantLegoRocks
