solid GiantLegoRocks
facet normal 0.0000 0.0000 20.0000
    outer loop
        vertex -4.0000 2.8000 4.0000
        vertex -4.0000 0.0000 4.0000
        vertex 4.0000 0.0000 4.0000
    endloop
endfacet
facet normal 0.0000 0.0000 20.0000
    outer loop
        vertex 4.0000 0.0000 4.0000
        vertex 4.0000 2.8000 4.0000
        vertex -4.0000 2.8000 4.0000
    endloop
endfacet
facet normal -20.0000 0.0000 0.0000
    outer loop
        vertex -4.0000 2.8000 -4.0000
        vertex -4.0000 0.0000 -4.0000
        vertex -4.0000 0.0000 4.0000
    endloop
endfacet
facet normal -20.0000 0.0000 0.0000
    outer loop
        vertex -4.0000 0.0000 4.0000
        vertex -4.0000 2.8000 4.0000
        vertex -4.0000 2.8000 -4.0000
    endloop
endfacet
facet normal 0.0000 0.0000 -20.0000
    outer loop
        vertex 4.0000 2.8000 -4.0000
        vertex 4.0000 0.0000 -4.0000
        vertex -4.0000 0.0000 -4.0000
    endloop
endfacet
facet normal 0.0000 0.0000 -20.0000
    outer loop
        vertex -4.0000 0.0000 -4.0000
        vertex -4.0000 2.8000 -4.0000
        vertex 4.0000 2.8000 -4.0000
    endloop
endfacet
facet normal 20.0000 0.0000 0.0000
    outer loop
        vertex 4.0000 2.8000 4.0000
        vertex 4.0000 0.0000 4.0000
        vertex 4.0000 0.0000 -4.0000
    endloop
endfacet
facet normal 20.0000 0.0000 0.0000
    outer loop
        vertex 4.0000 0.0000 -4.0000
        vertex 4.0000 2.8000 -4.0000
        vertex 4.0000 2.8000 4.0000
    endloop
endfacet
facet normal 0.0000 -8.0000 0.0000
    outer loop
        vertex -2.4000 1.6000 2.4000
        vertex 2.4000 1.6000 2.4000
        vertex 2.4000 1.6000 -2.4000
    endloop
endfacet
facet normal 0.0000 -8.0000 0.0000
    outer loop
        vertex 2.4000 1.6000 -2.4000
        vertex -2.4000 1.6000 -2.4000
        vertex -2.4000 1.6000 2.4000
    endloop
endfacet
facet normal 0.0000 8.0000 12.0000
    outer loop
        vertex -2.4000 1.6000 2.4000
        vertex -2.4000 3.2000 2.4000
        vertex 2.4000 3.2000 2.4000
    endloop
endfacet
facet normal 0.0000 8.0000 12.0000
    outer loop
        vertex 2.4000 3.2000 2.4000
        vertex 2.4000 1.6000 2.4000
        vertex -2.4000 1.6000 2.4000
    endloop
endfacet
facet normal -12.0000 8.0000 0.0000
    outer loop
        vertex -2.4000 1.6000 -2.4000
        vertex -2.4000 3.2000 -2.4000
        vertex -2.4000 3.2000 2.4000
    endloop
endfacet
facet normal -12.0000 8.0000 0.0000
    outer loop
        vertex -2.4000 3.2000 2.4000
        vertex -2.4000 1.6000 2.4000
        vertex -2.4000 1.6000 -2.4000
    endloop
endfacet
facet normal 0.0000 8.0000 -12.0000
    outer loop
        vertex 2.4000 1.6000 -2.4000
        vertex 2.4000 3.2000 -2.4000
        vertex -2.4000 3.2000 -2.4000
    endloop
endfacet
facet normal 0.0000 8.0000 -12.0000
    outer loop
        vertex -2.4000 3.2000 -2.4000
        vertex -2.4000 1.6000 -2.4000
        vertex 2.4000 1.6000 -2.4000
    endloop
endfacet
facet normal 12.0000 8.0000 0.0000
    outer loop
        vertex 2.4000 1.6000 2.4000
        vertex 2.4000 3.2000 2.4000
        vertex 2.4000 3.2000 -2.4000
    endloop
endfacet
facet normal 12.0000 8.0000 0.0000
    outer loop
        vertex 2.4000 3.2000 -2.4000
        vertex 2.4000 1.6000 -2.4000
        vertex 2.4000 1.6000 2.4000
    endloop
endfacet
facet normal 0.0000 7.0000 18.0000
    outer loop
        vertex -3.6000 3.2000 3.6000
        vertex -3.6000 2.8000 3.6000
        vertex 3.6000 2.8000 3.6000
    endloop
endfacet
facet normal 0.0000 7.0000 18.0000
    outer loop
        vertex 3.6000 2.8000 3.6000
        vertex 3.6000 3.2000 3.6000
        vertex -3.6000 3.2000 3.6000
    endloop
endfacet
facet normal -18.0000 7.0000 0.0000
    outer loop
        vertex -3.6000 3.2000 -3.6000
        vertex -3.6000 2.8000 -3.6000
        vertex -3.6000 2.8000 3.6000
    endloop
endfacet
facet normal -18.0000 7.0000 0.0000
    outer loop
        vertex -3.6000 2.8000 3.6000
        vertex -3.6000 3.2000 3.6000
        vertex -3.6000 3.2000 -3.6000
    endloop
endfacet
facet normal 0.0000 7.0000 -18.0000
    outer loop
        vertex 3.6000 3.2000 -3.6000
        vertex 3.6000 2.8000 -3.6000
        vertex -3.6000 2.8000 -3.6000
    endloop
endfacet
facet normal 0.0000 7.0000 -18.0000
    outer loop
        vertex -3.6000 2.8000 -3.6000
        vertex -3.6000 3.2000 -3.6000
        vertex 3.6000 3.2000 -3.6000
    endloop
endfacet
facet normal 18.0000 7.0000 0.0000
    outer loop
        vertex 3.6000 3.2000 3.6000
        vertex 3.6000 2.8000 3.6000
        vertex 3.6000 2.8000 -3.6000
    endloop
endfacet
facet normal 18.0000 7.0000 0.0000
    outer loop
        vertex 3.6000 2.8000 -3.6000
        vertex 3.6000 3.2000 -3.6000
        vertex 3.6000 3.2000 3.6000
    endloop
endfacet
facet normal 0.0000 36.0000 0.0000
    outer loop
        vertex 3.6000 3.2000 3.6000
        vertex 2.4000 3.2000 2.4000
        vertex -2.4000 3.2000 2.4000
    endloop
endfacet
facet normal 0.0000 54.0000 0.0000
    outer loop
        vertex -2.4000 3.2000 2.4000
        vertex -3.6000 3.2000 3.6000
        vertex 3.6000 3.2000 3.6000
    endloop
endfacet
facet normal 0.0000 36.0000 0.0000
    outer loop
        vertex -3.6000 3.2000 3.6000
        vertex -2.4000 3.2000 2.4000
        vertex -2.4000 3.2000 -2.4000
    endloop
endfacet
facet normal 0.0000 54.0000 0.0000
    outer loop
        vertex -2.4000 3.2000 -2.4000
        vertex -3.6000 3.2000 -3.6000
        vertex -3.6000 3.2000 3.6000
    endloop
endfacet
facet normal 0.0000 36.0000 0.0000
    outer loop
        vertex -3.6000 3.2000 -3.6000
        vertex -2.4000 3.2000 -2.4000
        vertex 2.4000 3.2000 -2.4000
    endloop
endfacet
facet normal 0.0000 54.0000 0.0000
    outer loop
        vertex 2.4000 3.2000 -2.4000
        vertex 3.6000 3.2000 -3.6000
        vertex -3.6000 3.2000 -3.6000
    endloop
endfacet
facet normal 0.0000 36.0000 0.0000
    outer loop
        vertex 3.6000 3.2000 -3.6000
        vertex 2.4000 3.2000 -2.4000
        vertex 2.4000 3.2000 2.4000
    endloop
endfacet
facet normal 0.0000 54.0000 0.0000
    outer loop
        vertex 2.4000 3.2000 2.4000
        vertex 3.6000 3.2000 3.6000
        vertex 3.6000 3.2000 -3.6000
    endloop
endfacet
facet normal 0.0000 18.0000 0.0000
    outer loop
        vertex 4.0000 2.8000 4.0000
        vertex 3.6000 2.8000 3.6000
        vertex -3.6000 2.8000 3.6000
    endloop
endfacet
facet normal 0.0000 20.0000 0.0000
    outer loop
        vertex -3.6000 2.8000 3.6000
        vertex -4.0000 2.8000 4.0000
        vertex 4.0000 2.8000 4.0000
    endloop
endfacet
facet normal 0.0000 18.0000 0.0000
    outer loop
        vertex -4.0000 2.8000 4.0000
        vertex -3.6000 2.8000 3.6000
        vertex -3.6000 2.8000 -3.6000
    endloop
endfacet
facet normal 0.0000 20.0000 0.0000
    outer loop
        vertex -3.6000 2.8000 -3.6000
        vertex -4.0000 2.8000 -4.0000
        vertex -4.0000 2.8000 4.0000
    endloop
endfacet
facet normal 0.0000 18.0000 0.0000
    outer loop
        vertex -4.0000 2.8000 -4.0000
        vertex -3.6000 2.8000 -3.6000
        vertex 3.6000 2.8000 -3.6000
    endloop
endfacet
facet normal 0.0000 20.0000 0.0000
    outer loop
        vertex 3.6000 2.8000 -3.6000
        vertex 4.0000 2.8000 -4.0000
        vertex -4.0000 2.8000 -4.0000
    endloop
endfacet
facet normal 0.0000 18.0000 0.0000
    outer loop
        vertex 4.0000 2.8000 -4.0000
        vertex 3.6000 2.8000 -3.6000
        vertex 3.6000 2.8000 3.6000
    endloop
endfacet
facet normal 0.0000 20.0000 0.0000
    outer loop
        vertex 3.6000 2.8000 3.6000
        vertex 4.0000 2.8000 4.0000
        vertex 4.0000 2.8000 -4.0000
    endloop
endfacet
facet normal 0.0000 -7.2000 0.0000
    outer loop
        vertex -3.1200 0.0000 2.1600
        vertex -3.1200 0.0000 0.2400
        vertex -2.5200 0.0000 0.8000
    endloop
endfacet
facet normal 0.0000 -3.4500 0.0000
    outer loop
        vertex -2.5200 0.0000 0.8000
        vertex -2.5200 0.0000 1.7200
        vertex -3.1200 0.0000 2.1600
    endloop
endfacet
facet normal 0.0000 -1.6500 0.0000
    outer loop
        vertex -2.5200 0.0000 2.1600
        vertex -3.1200 0.0000 2.1600
        vertex -2.5200 0.0000 1.7200
    endloop
endfacet
facet normal 0.0000 -2.1000 0.0000
    outer loop
        vertex -2.5200 0.0000 0.8000
        vertex -3.1200 0.0000 0.2400
        vertex -2.5200 0.0000 0.2400
    endloop
endfacet
facet normal 0.0000 -2.5300 0.0000
    outer loop
        vertex -2.5200 0.0000 1.7200
        vertex -2.5200 0.0000 0.8000
        vertex -2.0800 0.0000 1.2800
    endloop
endfacet
facet normal 0.0000 -2.3100 0.0000
    outer loop
        vertex -2.0800 0.0000 1.2800
        vertex -2.1200 0.0000 2.1600
        vertex -2.5200 0.0000 1.7200
    endloop
endfacet
facet normal 0.0000 -3.7400 0.0000
    outer loop
        vertex -1.4400 0.0000 2.1600
        vertex -2.1200 0.0000 2.1600
        vertex -2.0800 0.0000 1.2800
    endloop
endfacet
facet normal 0.0000 -2.8600 0.0000
    outer loop
        vertex -2.0800 0.0000 1.2800
        vertex -2.5200 0.0000 0.8000
        vertex -2.0800 0.0000 0.2400
    endloop
endfacet
facet normal 0.0000 -4.6800 0.0000
    outer loop
        vertex -2.0800 0.0000 0.2400
        vertex -1.3600 0.0000 0.2400
        vertex -2.0800 0.0000 1.2800
    endloop
endfacet
facet normal 0.0000 -7.2000 0.0000
    outer loop
        vertex -1.0800 0.0000 2.1600
        vertex -1.0800 0.0000 0.2400
        vertex -0.4800 0.0000 0.9600
    endloop
endfacet
facet normal 0.0000 -1.6500 0.0000
    outer loop
        vertex -0.4800 0.0000 0.9600
        vertex -0.4800 0.0000 1.4000
        vertex -1.0800 0.0000 2.1600
    endloop
endfacet
facet normal 0.0000 -0.9000 0.0000
    outer loop
        vertex -1.0800 0.0000 2.1600
        vertex -0.4800 0.0000 1.4000
        vertex -0.4800 0.0000 1.6400
    endloop
endfacet
facet normal 0.0000 -3.5100 0.0000
    outer loop
        vertex 0.0000 0.0000 2.1600
        vertex -1.0800 0.0000 2.1600
        vertex -0.4800 0.0000 1.6400
    endloop
endfacet
facet normal 0.0000 -1.5600 0.0000
    outer loop
        vertex -0.4800 0.0000 1.6400
        vertex 0.0000 0.0000 1.6400
        vertex 0.0000 0.0000 2.1600
    endloop
endfacet
facet normal 0.0000 -1.3200 0.0000
    outer loop
        vertex 0.0000 0.0000 1.4000
        vertex -0.4800 0.0000 1.4000
        vertex -0.4800 0.0000 0.9600
    endloop
endfacet
facet normal 0.0000 -1.3200 0.0000
    outer loop
        vertex -0.4800 0.0000 0.9600
        vertex 0.0000 0.0000 0.9600
        vertex 0.0000 0.0000 1.4000
    endloop
endfacet
facet normal 0.0000 -0.9000 0.0000
    outer loop
        vertex -0.4800 0.0000 0.9600
        vertex -1.0800 0.0000 0.2400
        vertex -0.4800 0.0000 0.7200
    endloop
endfacet
facet normal 0.0000 -3.4800 0.0000
    outer loop
        vertex -0.4800 0.0000 0.7200
        vertex -1.0800 0.0000 0.2400
        vertex 0.0800 0.0000 0.2400
    endloop
endfacet
facet normal 0.0000 -1.6800 0.0000
    outer loop
        vertex 0.0800 0.0000 0.2400
        vertex 0.0800 0.0000 0.7200
        vertex -0.4800 0.0000 0.7200
    endloop
endfacet
facet normal 0.0000 -7.2000 0.0000
    outer loop
        vertex 0.3600 0.0000 2.1600
        vertex 0.3600 0.0000 0.2400
        vertex 0.9600 0.0000 0.9600
    endloop
endfacet
facet normal 0.0000 -1.6500 0.0000
    outer loop
        vertex 0.9600 0.0000 0.9600
        vertex 0.9600 0.0000 1.4000
        vertex 0.3600 0.0000 2.1600
    endloop
endfacet
facet normal 0.0000 -0.9000 0.0000
    outer loop
        vertex 0.3600 0.0000 2.1600
        vertex 0.9600 0.0000 1.4000
        vertex 0.9600 0.0000 1.6400
    endloop
endfacet
facet normal 0.0000 -3.5100 0.0000
    outer loop
        vertex 1.4400 0.0000 2.1600
        vertex 0.3600 0.0000 2.1600
        vertex 0.9600 0.0000 1.6400
    endloop
endfacet
facet normal 0.0000 -1.5600 0.0000
    outer loop
        vertex 0.9600 0.0000 1.6400
        vertex 1.4400 0.0000 1.6400
        vertex 1.4400 0.0000 2.1600
    endloop
endfacet
facet normal 0.0000 -1.3200 0.0000
    outer loop
        vertex 1.4400 0.0000 1.4000
        vertex 0.9600 0.0000 1.4000
        vertex 0.9600 0.0000 0.9600
    endloop
endfacet
facet normal 0.0000 -1.3200 0.0000
    outer loop
        vertex 0.9600 0.0000 0.9600
        vertex 1.4400 0.0000 0.9600
        vertex 1.4400 0.0000 1.4000
    endloop
endfacet
facet normal 0.0000 -0.9000 0.0000
    outer loop
        vertex 0.9600 0.0000 0.9600
        vertex 0.3600 0.0000 0.2400
        vertex 0.9600 0.0000 0.7200
    endloop
endfacet
facet normal 0.0000 -3.4800 0.0000
    outer loop
        vertex 0.9600 0.0000 0.7200
        vertex 0.3600 0.0000 0.2400
        vertex 1.5200 0.0000 0.2400
    endloop
endfacet
facet normal 0.0000 -1.6800 0.0000
    outer loop
        vertex 1.5200 0.0000 0.2400
        vertex 1.5200 0.0000 0.7200
        vertex 0.9600 0.0000 0.7200
    endloop
endfacet
facet normal 0.0000 -7.2000 0.0000
    outer loop
        vertex 2.4000 0.0000 0.6800
        vertex 1.8000 0.0000 2.1600
        vertex 1.8000 0.0000 0.2400
    endloop
endfacet
facet normal 0.0000 -1.6500 0.0000
    outer loop
        vertex 1.8000 0.0000 0.2400
        vertex 2.4000 0.0000 0.2400
        vertex 2.4000 0.0000 0.6800
    endloop
endfacet
facet normal 0.0000 -1.8000 0.0000
    outer loop
        vertex 2.4000 0.0000 1.1600
        vertex 1.8000 0.0000 2.1600
        vertex 2.4000 0.0000 0.6800
    endloop
endfacet
facet normal 0.0000 -0.7200 0.0000
    outer loop
        vertex 2.4000 0.0000 0.6800
        vertex 2.6400 0.0000 0.6800
        vertex 2.4000 0.0000 1.1600
    endloop
endfacet
facet normal 0.0000 -1.6500 0.0000
    outer loop
        vertex 1.8000 0.0000 2.1600
        vertex 2.4000 0.0000 1.1600
        vertex 2.4000 0.0000 1.6000
    endloop
endfacet
facet normal 0.0000 -3.0800 0.0000
    outer loop
        vertex 2.6800 0.0000 2.1600
        vertex 1.8000 0.0000 2.1600
        vertex 2.4000 0.0000 1.6000
    endloop
endfacet
facet normal 0.0000 -0.5600 0.0000
    outer loop
        vertex 2.4000 0.0000 1.6000
        vertex 2.5600 0.0000 1.6000
        vertex 2.6800 0.0000 2.1600
    endloop
endfacet
facet normal 0.0000 -1.0700 0.0000
    outer loop
        vertex 2.9600 0.0000 2.0400
        vertex 2.6800 0.0000 2.1600
        vertex 2.5600 0.0000 1.6000
    endloop
endfacet
facet normal 0.0000 -0.3200 0.0000
    outer loop
        vertex 2.5600 0.0000 1.6000
        vertex 2.6400 0.0000 1.5600
        vertex 2.9600 0.0000 2.0400
    endloop
endfacet
facet normal 0.0000 -0.8000 0.0000
    outer loop
        vertex 3.1200 0.0000 1.8800
        vertex 2.9600 0.0000 2.0400
        vertex 2.6400 0.0000 1.5600
    endloop
endfacet
facet normal 0.0000 -0.5600 0.0000
    outer loop
        vertex 2.6400 0.0000 1.5600
        vertex 2.6800 0.0000 1.4000
        vertex 3.1200 0.0000 1.8800
    endloop
endfacet
facet normal 0.0000 -1.0200 0.0000
    outer loop
        vertex 3.2400 0.0000 1.6400
        vertex 3.1200 0.0000 1.8800
        vertex 2.6800 0.0000 1.4000
    endloop
endfacet
facet normal 0.0000 -1.4000 0.0000
    outer loop
        vertex 2.6800 0.0000 1.4000
        vertex 3.2400 0.0000 1.2400
        vertex 3.2400 0.0000 1.6400
    endloop
endfacet
facet normal 0.0000 -0.6000 0.0000
    outer loop
        vertex 3.2400 0.0000 1.2400
        vertex 2.6800 0.0000 1.4000
        vertex 2.6400 0.0000 1.2400
    endloop
endfacet
facet normal 0.0000 -1.0500 0.0000
    outer loop
        vertex 2.6400 0.0000 1.2400
        vertex 3.1600 0.0000 0.9600
        vertex 3.2400 0.0000 1.2400
    endloop
endfacet
facet normal 0.0000 -0.4000 0.0000
    outer loop
        vertex 3.1600 0.0000 0.9600
        vertex 2.6400 0.0000 1.2400
        vertex 2.5600 0.0000 1.1600
    endloop
endfacet
facet normal 0.0000 -1.0500 0.0000
    outer loop
        vertex 2.5600 0.0000 1.1600
        vertex 2.9200 0.0000 0.7600
        vertex 3.1600 0.0000 0.9600
    endloop
endfacet
facet normal 0.0000 -0.8800 0.0000
    outer loop
        vertex 2.6400 0.0000 0.6800
        vertex 2.9200 0.0000 0.7600
        vertex 2.5600 0.0000 1.1600
    endloop
endfacet
facet normal 0.0000 -0.4800 0.0000
    outer loop
        vertex 2.5600 0.0000 1.1600
        vertex 2.4000 0.0000 1.1600
        vertex 2.6400 0.0000 0.6800
    endloop
endfacet
facet normal 0.0000 -0.9600 0.0000
    outer loop
        vertex -1.8160 0.0000 -0.1560
        vertex -2.2000 0.0000 -0.0800
        vertex -2.2000 0.0000 -0.4800
    endloop
endfacet
facet normal 0.0000 -0.5673 0.0000
    outer loop
        vertex -2.2000 0.0000 -0.4800
        vertex -1.9720 0.0000 -0.5240
        vertex -1.8160 0.0000 -0.1560
    endloop
endfacet
facet normal 0.0000 -0.9558 0.0000
    outer loop
        vertex -1.4920 0.0000 -0.3720
        vertex -1.8160 0.0000 -0.1560
        vertex -1.9720 0.0000 -0.5240
    endloop
endfacet
facet normal 0.0000 -0.5822 0.0000
    outer loop
        vertex -1.9720 0.0000 -0.5240
        vertex -1.7760 0.0000 -0.6560
        vertex -1.4920 0.0000 -0.3720
    endloop
endfacet
facet normal 0.0000 -0.9585 0.0000
    outer loop
        vertex -1.2760 0.0000 -0.6960
        vertex -1.4920 0.0000 -0.3720
        vertex -1.7760 0.0000 -0.6560
    endloop
endfacet
facet normal 0.0000 -0.5795 0.0000
    outer loop
        vertex -1.7760 0.0000 -0.6560
        vertex -1.6440 0.0000 -0.8520
        vertex -1.2760 0.0000 -0.6960
    endloop
endfacet
facet normal 0.0000 -0.9573 0.0000
    outer loop
        vertex -1.2000 0.0000 -1.0800
        vertex -1.2760 0.0000 -0.6960
        vertex -1.6440 0.0000 -0.8520
    endloop
endfacet
facet normal 0.0000 -0.5700 0.0000
    outer loop
        vertex -1.6440 0.0000 -0.8520
        vertex -1.6000 0.0000 -1.0800
        vertex -1.2000 0.0000 -1.0800
    endloop
endfacet
facet normal 0.0000 -0.9600 0.0000
    outer loop
        vertex -1.2760 0.0000 -1.4640
        vertex -1.2000 0.0000 -1.0800
        vertex -1.6000 0.0000 -1.0800
    endloop
endfacet
facet normal 0.0000 -0.5673 0.0000
    outer loop
        vertex -1.6000 0.0000 -1.0800
        vertex -1.6440 0.0000 -1.3080
        vertex -1.2760 0.0000 -1.4640
    endloop
endfacet
facet normal 0.0000 -0.9558 0.0000
    outer loop
        vertex -1.4920 0.0000 -1.7880
        vertex -1.2760 0.0000 -1.4640
        vertex -1.6440 0.0000 -1.3080
    endloop
endfacet
facet normal 0.0000 -0.1954 0.0000
    outer loop
        vertex -1.6440 0.0000 -1.3080
        vertex -1.6800 0.0000 -1.4000
        vertex -1.4920 0.0000 -1.7880
    endloop
endfacet
facet normal 0.0000 -1.0395 0.0000
    outer loop
        vertex -1.8160 0.0000 -2.0040
        vertex -1.4920 0.0000 -1.7880
        vertex -1.6800 0.0000 -1.4000
    endloop
endfacet
facet normal 0.0000 -0.5850 0.0000
    outer loop
        vertex -1.6800 0.0000 -1.4000
        vertex -1.8800 0.0000 -1.6000
        vertex -1.8160 0.0000 -2.0040
    endloop
endfacet
facet normal 0.0000 -1.0000 0.0000
    outer loop
        vertex -2.2000 0.0000 -2.0800
        vertex -1.8160 0.0000 -2.0040
        vertex -1.8800 0.0000 -1.6000
    endloop
endfacet
facet normal 0.0000 -0.2040 0.0000
    outer loop
        vertex -1.8800 0.0000 -1.6000
        vertex -1.9720 0.0000 -1.6360
        vertex -2.2000 0.0000 -2.0800
    endloop
endfacet
facet normal 0.0000 -0.5700 0.0000
    outer loop
        vertex -2.2000 0.0000 -2.0800
        vertex -1.9720 0.0000 -1.6360
        vertex -2.2000 0.0000 -1.6800
    endloop
endfacet
facet normal 0.0000 -0.9600 0.0000
    outer loop
        vertex -2.2000 0.0000 -1.6800
        vertex -2.5840 0.0000 -2.0040
        vertex -2.2000 0.0000 -2.0800
    endloop
endfacet
facet normal 0.0000 -0.5673 0.0000
    outer loop
        vertex -2.5840 0.0000 -2.0040
        vertex -2.2000 0.0000 -1.6800
        vertex -2.4280 0.0000 -1.6360
    endloop
endfacet
facet normal 0.0000 -0.9558 0.0000
    outer loop
        vertex -2.4280 0.0000 -1.6360
        vertex -2.9080 0.0000 -1.7880
        vertex -2.5840 0.0000 -2.0040
    endloop
endfacet
facet normal 0.0000 -0.5822 0.0000
    outer loop
        vertex -2.9080 0.0000 -1.7880
        vertex -2.4280 0.0000 -1.6360
        vertex -2.6240 0.0000 -1.5040
    endloop
endfacet
facet normal 0.0000 -0.9585 0.0000
    outer loop
        vertex -2.6240 0.0000 -1.5040
        vertex -3.1240 0.0000 -1.4640
        vertex -2.9080 0.0000 -1.7880
    endloop
endfacet
facet normal 0.0000 -0.5795 0.0000
    outer loop
        vertex -3.1240 0.0000 -1.4640
        vertex -2.6240 0.0000 -1.5040
        vertex -2.7560 0.0000 -1.3080
    endloop
endfacet
facet normal 0.0000 -0.9573 0.0000
    outer loop
        vertex -2.7560 0.0000 -1.3080
        vertex -3.2000 0.0000 -1.0800
        vertex -3.1240 0.0000 -1.4640
    endloop
endfacet
facet normal 0.0000 -0.5700 0.0000
    outer loop
        vertex -3.2000 0.0000 -1.0800
        vertex -2.7560 0.0000 -1.3080
        vertex -2.8000 0.0000 -1.0800
    endloop
endfacet
facet normal 0.0000 -0.9600 0.0000
    outer loop
        vertex -2.8000 0.0000 -1.0800
        vertex -3.1240 0.0000 -0.6960
        vertex -3.2000 0.0000 -1.0800
    endloop
endfacet
facet normal 0.0000 -0.5673 0.0000
    outer loop
        vertex -3.1240 0.0000 -0.6960
        vertex -2.8000 0.0000 -1.0800
        vertex -2.7560 0.0000 -0.8520
    endloop
endfacet
facet normal 0.0000 -0.9558 0.0000
    outer loop
        vertex -2.7560 0.0000 -0.8520
        vertex -2.9080 0.0000 -0.3720
        vertex -3.1240 0.0000 -0.6960
    endloop
endfacet
facet normal 0.0000 -0.1954 0.0000
    outer loop
        vertex -2.9080 0.0000 -0.3720
        vertex -2.7560 0.0000 -0.8520
        vertex -2.7200 0.0000 -0.7600
    endloop
endfacet
facet normal 0.0000 -1.0395 0.0000
    outer loop
        vertex -2.7200 0.0000 -0.7600
        vertex -2.5840 0.0000 -0.1560
        vertex -2.9080 0.0000 -0.3720
    endloop
endfacet
facet normal 0.0000 -0.5850 0.0000
    outer loop
        vertex -2.5840 0.0000 -0.1560
        vertex -2.7200 0.0000 -0.7600
        vertex -2.5200 0.0000 -0.5600
    endloop
endfacet
facet normal 0.0000 -1.0000 0.0000
    outer loop
        vertex -2.5200 0.0000 -0.5600
        vertex -2.2000 0.0000 -0.0800
        vertex -2.5840 0.0000 -0.1560
    endloop
endfacet
facet normal 0.0000 -0.2040 0.0000
    outer loop
        vertex -2.2000 0.0000 -0.0800
        vertex -2.5200 0.0000 -0.5600
        vertex -2.4280 0.0000 -0.5240
    endloop
endfacet
facet normal 0.0000 -0.5700 0.0000
    outer loop
        vertex -2.2000 0.0000 -0.0800
        vertex -2.4280 0.0000 -0.5240
        vertex -2.2000 0.0000 -0.4800
    endloop
endfacet
facet normal 0.0000 -2.1000 0.0000
    outer loop
        vertex -1.6800 0.0000 -1.4000
        vertex -2.5200 0.0000 -0.5600
        vertex -2.7200 0.0000 -0.7600
    endloop
endfacet
facet normal 0.0000 -2.1000 0.0000
    outer loop
        vertex -2.7200 0.0000 -0.7600
        vertex -1.8800 0.0000 -1.6000
        vertex -1.6800 0.0000 -1.4000
    endloop
endfacet
facet normal 0.0000 -4.2000 0.0000
    outer loop
        vertex -0.3600 0.0000 -1.3200
        vertex -0.3600 0.0000 -0.1200
        vertex -0.9200 0.0000 -0.1200
    endloop
endfacet
facet normal 0.0000 -4.3400 0.0000
    outer loop
        vertex -0.9200 0.0000 -0.1200
        vertex -0.9200 0.0000 -1.3600
        vertex -0.3600 0.0000 -1.3200
    endloop
endfacet
facet normal 0.0000 -0.9900 0.0000
    outer loop
        vertex -0.3600 0.0000 -1.3200
        vertex -0.9200 0.0000 -1.3600
        vertex -0.8800 0.0000 -1.6400
    endloop
endfacet
facet normal 0.0000 -0.6800 0.0000
    outer loop
        vertex -0.8800 0.0000 -1.6400
        vertex -0.2800 0.0000 -1.4800
        vertex -0.3600 0.0000 -1.3200
    endloop
endfacet
facet normal 0.0000 -0.8700 0.0000
    outer loop
        vertex -0.2800 0.0000 -1.4800
        vertex -0.8800 0.0000 -1.6400
        vertex -0.7600 0.0000 -1.8400
    endloop
endfacet
facet normal 0.0000 -1.0200 0.0000
    outer loop
        vertex -0.7600 0.0000 -1.8400
        vertex -0.5200 0.0000 -2.0000
        vertex -0.2800 0.0000 -1.4800
    endloop
endfacet
facet normal 0.0000 -0.5800 0.0000
    outer loop
        vertex -0.1200 0.0000 -1.5200
        vertex -0.2800 0.0000 -1.4800
        vertex -0.5200 0.0000 -2.0000
    endloop
endfacet
facet normal 0.0000 -1.0400 0.0000
    outer loop
        vertex -0.5200 0.0000 -2.0000
        vertex -0.2400 0.0000 -2.0800
        vertex -0.1200 0.0000 -1.5200
    endloop
endfacet
facet normal 0.0000 -1.2600 0.0000
    outer loop
        vertex -0.1200 0.0000 -1.5200
        vertex -0.2400 0.0000 -2.0800
        vertex 0.1200 0.0000 -2.0800
    endloop
endfacet
facet normal 0.0000 -0.6200 0.0000
    outer loop
        vertex 0.1200 0.0000 -2.0800
        vertex 0.0400 0.0000 -1.4800
        vertex -0.1200 0.0000 -1.5200
    endloop
endfacet
facet normal 0.0000 -1.2600 0.0000
    outer loop
        vertex 0.0400 0.0000 -1.4800
        vertex 0.1200 0.0000 -2.0800
        vertex 0.4400 0.0000 -1.9600
    endloop
endfacet
facet normal 0.0000 -0.9800 0.0000
    outer loop
        vertex 0.4400 0.0000 -1.9600
        vertex 0.6000 0.0000 -1.7600
        vertex 0.0400 0.0000 -1.4800
    endloop
endfacet
facet normal 0.0000 -0.7000 0.0000
    outer loop
        vertex 0.1200 0.0000 -1.3200
        vertex 0.0400 0.0000 -1.4800
        vertex 0.6000 0.0000 -1.7600
    endloop
endfacet
facet normal 0.0000 -1.1800 0.0000
    outer loop
        vertex 0.6000 0.0000 -1.7600
        vertex 0.6800 0.0000 -1.4400
        vertex 0.1200 0.0000 -1.3200
    endloop
endfacet
facet normal 0.0000 -4.6200 0.0000
    outer loop
        vertex 0.1200 0.0000 -1.3200
        vertex 0.6800 0.0000 -1.4400
        vertex 0.6800 0.0000 -0.1200
    endloop
endfacet
facet normal 0.0000 -4.2000 0.0000
    outer loop
        vertex 0.6800 0.0000 -0.1200
        vertex 0.1200 0.0000 -0.1200
        vertex 0.1200 0.0000 -1.3200
    endloop
endfacet
facet normal 0.0000 -4.2900 0.0000
    outer loop
        vertex 1.3600 0.0000 -0.6400
        vertex 2.3200 0.0000 -0.1200
        vertex 1.0000 0.0000 -0.1200
    endloop
endfacet
facet normal 0.0000 -1.1700 0.0000
    outer loop
        vertex 1.0000 0.0000 -0.1200
        vertex 1.0000 0.0000 -0.6400
        vertex 1.3600 0.0000 -0.6400
    endloop
endfacet
facet normal 0.0000 -1.8200 0.0000
    outer loop
        vertex 2.3200 0.0000 -0.1200
        vertex 1.3600 0.0000 -0.6400
        vertex 1.9200 0.0000 -0.6400
    endloop
endfacet
facet normal 0.0000 -1.3000 0.0000
    outer loop
        vertex 2.3200 0.0000 -0.1200
        vertex 1.9200 0.0000 -0.6400
        vertex 2.3200 0.0000 -0.6400
    endloop
endfacet
facet normal 0.0000 -5.0400 0.0000
    outer loop
        vertex 1.9200 0.0000 -0.6400
        vertex 1.3600 0.0000 -0.6400
        vertex 1.3600 0.0000 -2.0800
    endloop
endfacet
facet normal 0.0000 -5.0400 0.0000
    outer loop
        vertex 1.3600 0.0000 -2.0800
        vertex 1.9200 0.0000 -2.0800
        vertex 1.9200 0.0000 -0.6400
    endloop
endfacet
facet normal 0.0000 -4.4800 0.0000
    outer loop
        vertex 3.2400 0.0000 -0.1200
        vertex 2.6800 0.0000 -0.1200
        vertex 2.7600 0.0000 -1.4000
    endloop
endfacet
facet normal 0.0000 -3.2000 0.0000
    outer loop
        vertex 2.7600 0.0000 -1.4000
        vertex 3.1600 0.0000 -1.4000
        vertex 3.2400 0.0000 -0.1200
    endloop
endfacet
facet normal 0.0000 -1.2000 0.0000
    outer loop
        vertex 3.2000 0.0000 -1.6800
        vertex 2.7200 0.0000 -1.6800
        vertex 2.7200 0.0000 -2.0800
    endloop
endfacet
facet normal 0.0000 -1.2000 0.0000
    outer loop
        vertex 2.7200 0.0000 -2.0800
        vertex 3.2000 0.0000 -2.0800
        vertex 3.2000 0.0000 -1.6800
    endloop
endfacet
facet normal 0.0000 -64.8000 0.0000
    outer loop
        vertex 3.6000 0.0000 3.6000
        vertex -3.6000 0.0000 3.6000
        vertex 0.0000 0.0000 2.1600
    endloop
endfacet
facet normal 0.0000 -3.2400 0.0000
    outer loop
        vertex 0.0000 0.0000 2.1600
        vertex 0.3600 0.0000 2.1600
        vertex 3.6000 0.0000 3.6000
    endloop
endfacet
facet normal 0.0000 -9.7200 0.0000
    outer loop
        vertex 3.6000 0.0000 3.6000
        vertex 0.3600 0.0000 2.1600
        vertex 1.4400 0.0000 2.1600
    endloop
endfacet
facet normal 0.0000 -3.2400 0.0000
    outer loop
        vertex 3.6000 0.0000 3.6000
        vertex 1.4400 0.0000 2.1600
        vertex 1.8000 0.0000 2.1600
    endloop
endfacet
facet normal 0.0000 -7.9200 0.0000
    outer loop
        vertex 3.6000 0.0000 3.6000
        vertex 1.8000 0.0000 2.1600
        vertex 2.6800 0.0000 2.1600
    endloop
endfacet
facet normal 0.0000 -3.2100 0.0000
    outer loop
        vertex 3.6000 0.0000 3.6000
        vertex 2.6800 0.0000 2.1600
        vertex 2.9600 0.0000 2.0400
    endloop
endfacet
facet normal 0.0000 -2.2000 0.0000
    outer loop
        vertex 3.6000 0.0000 3.6000
        vertex 2.9600 0.0000 2.0400
        vertex 3.1200 0.0000 1.8800
    endloop
endfacet
facet normal 0.0000 -2.0100 0.0000
    outer loop
        vertex 3.6000 0.0000 3.6000
        vertex 3.1200 0.0000 1.8800
        vertex 3.2400 0.0000 1.6400
    endloop
endfacet
facet normal 0.0000 -0.9000 0.0000
    outer loop
        vertex 3.6000 0.0000 3.6000
        vertex 3.2400 0.0000 1.6400
        vertex 3.2400 0.0000 1.2400
    endloop
endfacet
facet normal 0.0000 -8.1000 0.0000
    outer loop
        vertex 3.2400 0.0000 1.2400
        vertex 3.6000 0.0000 0.0000
        vertex 3.6000 0.0000 3.6000
    endloop
endfacet
facet normal 0.0000 -1.2500 0.0000
    outer loop
        vertex 3.2400 0.0000 1.2400
        vertex 3.1600 0.0000 0.9600
        vertex 3.6000 0.0000 0.0000
    endloop
endfacet
facet normal 0.0000 -1.9900 0.0000
    outer loop
        vertex 3.1600 0.0000 0.9600
        vertex 2.9200 0.0000 0.7600
        vertex 3.6000 0.0000 0.0000
    endloop
endfacet
facet normal 0.0000 -1.6700 0.0000
    outer loop
        vertex 2.9200 0.0000 0.7600
        vertex 2.6400 0.0000 0.6800
        vertex 3.6000 0.0000 0.0000
    endloop
endfacet
facet normal 0.0000 -1.0200 0.0000
    outer loop
        vertex 3.6000 0.0000 0.0000
        vertex 2.6400 0.0000 0.6800
        vertex 2.4000 0.0000 0.6800
    endloop
endfacet
facet normal 0.0000 -3.3000 0.0000
    outer loop
        vertex 2.4000 0.0000 0.6800
        vertex 2.4000 0.0000 0.2400
        vertex 3.6000 0.0000 0.0000
    endloop
endfacet
facet normal 0.0000 -1.4400 0.0000
    outer loop
        vertex 3.2400 0.0000 -0.1200
        vertex 3.6000 0.0000 0.0000
        vertex 2.4000 0.0000 0.2400
    endloop
endfacet
facet normal 0.0000 -1.2600 0.0000
    outer loop
        vertex 2.4000 0.0000 0.2400
        vertex 2.6800 0.0000 -0.1200
        vertex 3.2400 0.0000 -0.1200
    endloop
endfacet
facet normal 0.0000 -2.8200 0.0000
    outer loop
        vertex 3.6000 0.0000 0.0000
        vertex 3.2400 0.0000 -0.1200
        vertex 3.1600 0.0000 -1.4000
    endloop
endfacet
facet normal 0.0000 -1.1200 0.0000
    outer loop
        vertex 3.1600 0.0000 -1.4000
        vertex 3.2000 0.0000 -1.6800
        vertex 3.6000 0.0000 0.0000
    endloop
endfacet
facet normal 0.0000 -1.0000 0.0000
    outer loop
        vertex 3.6000 0.0000 0.0000
        vertex 3.2000 0.0000 -1.6800
        vertex 3.2000 0.0000 -2.0800
    endloop
endfacet
facet normal 0.0000 -9.0000 0.0000
    outer loop
        vertex 3.2000 0.0000 -2.0800
        vertex 3.6000 0.0000 -3.6000
        vertex 3.6000 0.0000 0.0000
    endloop
endfacet
facet normal 0.0000 -4.5600 0.0000
    outer loop
        vertex 3.2000 0.0000 -2.0800
        vertex 2.7200 0.0000 -2.0800
        vertex 3.6000 0.0000 -3.6000
    endloop
endfacet
facet normal 0.0000 -7.6000 0.0000
    outer loop
        vertex 2.7200 0.0000 -2.0800
        vertex 1.9200 0.0000 -2.0800
        vertex 3.6000 0.0000 -3.6000
    endloop
endfacet
facet normal 0.0000 -5.3200 0.0000
    outer loop
        vertex 1.9200 0.0000 -2.0800
        vertex 1.3600 0.0000 -2.0800
        vertex 3.6000 0.0000 -3.6000
    endloop
endfacet
facet normal 0.0000 -11.7800 0.0000
    outer loop
        vertex 3.6000 0.0000 -3.6000
        vertex 1.3600 0.0000 -2.0800
        vertex 0.1200 0.0000 -2.0800
    endloop
endfacet
facet normal 0.0000 -68.4000 0.0000
    outer loop
        vertex 0.1200 0.0000 -2.0800
        vertex -3.6000 0.0000 -3.6000
        vertex 3.6000 0.0000 -3.6000
    endloop
endfacet
facet normal 0.0000 -3.4200 0.0000
    outer loop
        vertex 0.1200 0.0000 -2.0800
        vertex -0.2400 0.0000 -2.0800
        vertex -3.6000 0.0000 -3.6000
    endloop
endfacet
facet normal 0.0000 -4.3400 0.0000
    outer loop
        vertex -0.5200 0.0000 -2.0000
        vertex -3.6000 0.0000 -3.6000
        vertex -0.2400 0.0000 -2.0800
    endloop
endfacet
facet normal 0.0000 -5.4800 0.0000
    outer loop
        vertex -3.6000 0.0000 -3.6000
        vertex -0.5200 0.0000 -2.0000
        vertex -0.7600 0.0000 -1.8400
    endloop
endfacet
facet normal 0.0000 -8.7050 0.0000
    outer loop
        vertex -0.7600 0.0000 -1.8400
        vertex -1.8160 0.0000 -2.0040
        vertex -3.6000 0.0000 -3.6000
    endloop
endfacet
facet normal 0.0000 -2.9830 0.0000
    outer loop
        vertex -1.8160 0.0000 -2.0040
        vertex -2.2000 0.0000 -2.0800
        vertex -3.6000 0.0000 -3.6000
    endloop
endfacet
facet normal 0.0000 -4.3130 0.0000
    outer loop
        vertex -2.5840 0.0000 -2.0040
        vertex -3.6000 0.0000 -3.6000
        vertex -2.2000 0.0000 -2.0800
    endloop
endfacet
facet normal 0.0000 -4.6035 0.0000
    outer loop
        vertex -2.9080 0.0000 -1.7880
        vertex -3.6000 0.0000 -3.6000
        vertex -2.5840 0.0000 -2.0040
    endloop
endfacet
facet normal 0.0000 -3.8475 0.0000
    outer loop
        vertex -3.1240 0.0000 -1.4640
        vertex -3.6000 0.0000 -3.6000
        vertex -2.9080 0.0000 -1.7880
    endloop
endfacet
facet normal 0.0000 -2.1570 0.0000
    outer loop
        vertex -3.2000 0.0000 -1.0800
        vertex -3.6000 0.0000 -3.6000
        vertex -3.1240 0.0000 -1.4640
    endloop
endfacet
facet normal 0.0000 -2.0400 0.0000
    outer loop
        vertex -3.6000 0.0000 -3.6000
        vertex -3.2000 0.0000 -1.0800
        vertex -3.1200 0.0000 0.2400
    endloop
endfacet
facet normal 0.0000 -21.6000 0.0000
    outer loop
        vertex -3.1200 0.0000 0.2400
        vertex -3.6000 0.0000 3.6000
        vertex -3.6000 0.0000 -3.6000
    endloop
endfacet
facet normal 0.0000 -5.7600 0.0000
    outer loop
        vertex -3.6000 0.0000 3.6000
        vertex -3.1200 0.0000 0.2400
        vertex -3.1200 0.0000 2.1600
    endloop
endfacet
facet normal 0.0000 -5.4000 0.0000
    outer loop
        vertex -3.6000 0.0000 3.6000
        vertex -3.1200 0.0000 2.1600
        vertex -2.5200 0.0000 2.1600
    endloop
endfacet
facet normal 0.0000 -3.6000 0.0000
    outer loop
        vertex -3.6000 0.0000 3.6000
        vertex -2.5200 0.0000 2.1600
        vertex -2.1200 0.0000 2.1600
    endloop
endfacet
facet normal 0.0000 -1.1000 0.0000
    outer loop
        vertex -2.1200 0.0000 2.1600
        vertex -2.5200 0.0000 2.1600
        vertex -2.5200 0.0000 1.7200
    endloop
endfacet
facet normal 0.0000 -6.1200 0.0000
    outer loop
        vertex -3.6000 0.0000 3.6000
        vertex -2.1200 0.0000 2.1600
        vertex -1.4400 0.0000 2.1600
    endloop
endfacet
facet normal 0.0000 -3.2400 0.0000
    outer loop
        vertex -3.6000 0.0000 3.6000
        vertex -1.4400 0.0000 2.1600
        vertex -1.0800 0.0000 2.1600
    endloop
endfacet
facet normal 0.0000 -9.7200 0.0000
    outer loop
        vertex -3.6000 0.0000 3.6000
        vertex -1.0800 0.0000 2.1600
        vertex 0.0000 0.0000 2.1600
    endloop
endfacet
facet normal 0.0000 -1.9800 0.0000
    outer loop
        vertex -1.0800 0.0000 2.1600
        vertex -1.4400 0.0000 2.1600
        vertex -2.0800 0.0000 1.2800
    endloop
endfacet
facet normal 0.0000 -10.4600 0.0000
    outer loop
        vertex -2.0800 0.0000 1.2800
        vertex -1.3600 0.0000 0.2400
        vertex -1.0800 0.0000 2.1600
    endloop
endfacet
facet normal 0.0000 -3.3600 0.0000
    outer loop
        vertex -1.0800 0.0000 2.1600
        vertex -1.3600 0.0000 0.2400
        vertex -1.0800 0.0000 0.2400
    endloop
endfacet
facet normal 0.0000 -1.0710 0.0000
    outer loop
        vertex -1.4920 0.0000 -0.3720
        vertex -1.0800 0.0000 0.2400
        vertex -1.3600 0.0000 0.2400
    endloop
endfacet
facet normal 0.0000 -1.4175 0.0000
    outer loop
        vertex -1.3600 0.0000 0.2400
        vertex -1.8160 0.0000 -0.1560
        vertex -1.4920 0.0000 -0.3720
    endloop
endfacet
facet normal 0.0000 -1.7820 0.0000
    outer loop
        vertex -1.8160 0.0000 -0.1560
        vertex -1.3600 0.0000 0.2400
        vertex -2.0800 0.0000 0.2400
    endloop
endfacet
facet normal 0.0000 -0.8250 0.0000
    outer loop
        vertex -2.0800 0.0000 0.2400
        vertex -2.2000 0.0000 -0.0800
        vertex -1.8160 0.0000 -0.1560
    endloop
endfacet
facet normal 0.0000 -0.8800 0.0000
    outer loop
        vertex -2.5200 0.0000 0.2400
        vertex -2.2000 0.0000 -0.0800
        vertex -2.0800 0.0000 0.2400
    endloop
endfacet
facet normal 0.0000 -1.5400 0.0000
    outer loop
        vertex -2.0800 0.0000 0.2400
        vertex -2.5200 0.0000 0.8000
        vertex -2.5200 0.0000 0.2400
    endloop
endfacet
facet normal 0.0000 -0.9200 0.0000
    outer loop
        vertex -2.5840 0.0000 -0.1560
        vertex -2.2000 0.0000 -0.0800
        vertex -2.5200 0.0000 0.2400
    endloop
endfacet
facet normal 0.0000 -1.4850 0.0000
    outer loop
        vertex -2.5200 0.0000 0.2400
        vertex -3.1200 0.0000 0.2400
        vertex -2.5840 0.0000 -0.1560
    endloop
endfacet
facet normal 0.0000 -1.5255 0.0000
    outer loop
        vertex -3.1200 0.0000 0.2400
        vertex -2.9080 0.0000 -0.3720
        vertex -2.5840 0.0000 -0.1560
    endloop
endfacet
facet normal 0.0000 -1.2555 0.0000
    outer loop
        vertex -3.1200 0.0000 0.2400
        vertex -3.1240 0.0000 -0.6960
        vertex -2.9080 0.0000 -0.3720
    endloop
endfacet
facet normal 0.0000 -0.4350 0.0000
    outer loop
        vertex -3.1200 0.0000 0.2400
        vertex -3.2000 0.0000 -1.0800
        vertex -3.1240 0.0000 -0.6960
    endloop
endfacet
facet normal 0.0000 -0.6720 0.0000
    outer loop
        vertex -1.8800 0.0000 -1.6000
        vertex -2.7200 0.0000 -0.7600
        vertex -2.7560 0.0000 -0.8520
    endloop
endfacet
facet normal 0.0000 -0.6272 0.0000
    outer loop
        vertex -2.7560 0.0000 -0.8520
        vertex -1.9720 0.0000 -1.6360
        vertex -1.8800 0.0000 -1.6000
    endloop
endfacet
facet normal 0.0000 -1.3328 0.0000
    outer loop
        vertex -1.9720 0.0000 -1.6360
        vertex -2.7560 0.0000 -0.8520
        vertex -2.8000 0.0000 -1.0800
    endloop
endfacet
facet normal 0.0000 -1.0200 0.0000
    outer loop
        vertex -2.8000 0.0000 -1.0800
        vertex -2.2000 0.0000 -1.6800
        vertex -1.9720 0.0000 -1.6360
    endloop
endfacet
facet normal 0.0000 -0.6900 0.0000
    outer loop
        vertex -2.2000 0.0000 -1.6800
        vertex -2.8000 0.0000 -1.0800
        vertex -2.7560 0.0000 -1.3080
    endloop
endfacet
facet normal 0.0000 -0.3772 0.0000
    outer loop
        vertex -2.7560 0.0000 -1.3080
        vertex -2.4280 0.0000 -1.6360
        vertex -2.2000 0.0000 -1.6800
    endloop
endfacet
facet normal 0.0000 -0.1312 0.0000
    outer loop
        vertex -2.7560 0.0000 -1.3080
        vertex -2.6240 0.0000 -1.5040
        vertex -2.4280 0.0000 -1.6360
    endloop
endfacet
facet normal 0.0000 -0.6720 0.0000
    outer loop
        vertex -2.5200 0.0000 -0.5600
        vertex -1.6800 0.0000 -1.4000
        vertex -1.6440 0.0000 -1.3080
    endloop
endfacet
facet normal 0.0000 -0.6272 0.0000
    outer loop
        vertex -1.6440 0.0000 -1.3080
        vertex -2.4280 0.0000 -0.5240
        vertex -2.5200 0.0000 -0.5600
    endloop
endfacet
facet normal 0.0000 -1.3328 0.0000
    outer loop
        vertex -2.4280 0.0000 -0.5240
        vertex -1.6440 0.0000 -1.3080
        vertex -1.6000 0.0000 -1.0800
    endloop
endfacet
facet normal 0.0000 -1.0200 0.0000
    outer loop
        vertex -1.6000 0.0000 -1.0800
        vertex -2.2000 0.0000 -0.4800
        vertex -2.4280 0.0000 -0.5240
    endloop
endfacet
facet normal 0.0000 -0.6900 0.0000
    outer loop
        vertex -2.2000 0.0000 -0.4800
        vertex -1.6000 0.0000 -1.0800
        vertex -1.6440 0.0000 -0.8520
    endloop
endfacet
facet normal 0.0000 -0.3772 0.0000
    outer loop
        vertex -1.6440 0.0000 -0.8520
        vertex -1.9720 0.0000 -0.5240
        vertex -2.2000 0.0000 -0.4800
    endloop
endfacet
facet normal 0.0000 -0.1312 0.0000
    outer loop
        vertex -1.9720 0.0000 -0.5240
        vertex -1.6440 0.0000 -0.8520
        vertex -1.7760 0.0000 -0.6560
    endloop
endfacet
facet normal 0.0000 -1.5390 0.0000
    outer loop
        vertex -0.9200 0.0000 -0.1200
        vertex -1.0800 0.0000 0.2400
        vertex -1.4920 0.0000 -0.3720
    endloop
endfacet
facet normal 0.0000 -1.4985 0.0000
    outer loop
        vertex -1.4920 0.0000 -0.3720
        vertex -1.2760 0.0000 -0.6960
        vertex -0.9200 0.0000 -0.1200
    endloop
endfacet
facet normal 0.0000 -1.1280 0.0000
    outer loop
        vertex -0.9200 0.0000 -0.1200
        vertex -1.2760 0.0000 -0.6960
        vertex -1.2000 0.0000 -1.0800
    endloop
endfacet
facet normal 0.0000 -2.1700 0.0000
    outer loop
        vertex -1.2000 0.0000 -1.0800
        vertex -0.9200 0.0000 -1.3600
        vertex -0.9200 0.0000 -0.1200
    endloop
endfacet
facet normal 0.0000 -0.8050 0.0000
    outer loop
        vertex -0.9200 0.0000 -1.3600
        vertex -1.2000 0.0000 -1.0800
        vertex -1.2760 0.0000 -1.4640
    endloop
endfacet
facet normal 0.0000 -0.6490 0.0000
    outer loop
        vertex -1.2760 0.0000 -1.4640
        vertex -0.8800 0.0000 -1.6400
        vertex -0.9200 0.0000 -1.3600
    endloop
endfacet
facet normal 0.0000 -1.0395 0.0000
    outer loop
        vertex -0.8800 0.0000 -1.6400
        vertex -1.2760 0.0000 -1.4640
        vertex -1.4920 0.0000 -1.7880
    endloop
endfacet
facet normal 0.0000 -0.8760 0.0000
    outer loop
        vertex -1.4920 0.0000 -1.7880
        vertex -0.7600 0.0000 -1.8400
        vertex -0.8800 0.0000 -1.6400
    endloop
endfacet
facet normal 0.0000 -1.0935 0.0000
    outer loop
        vertex -1.4920 0.0000 -1.7880
        vertex -1.8160 0.0000 -2.0040
        vertex -0.7600 0.0000 -1.8400
    endloop
endfacet
facet normal 0.0000 -1.2600 0.0000
    outer loop
        vertex -1.0800 0.0000 0.2400
        vertex -0.9200 0.0000 -0.1200
        vertex -0.3600 0.0000 -0.1200
    endloop
endfacet
facet normal 0.0000 -2.6100 0.0000
    outer loop
        vertex -0.3600 0.0000 -0.1200
        vertex 0.0800 0.0000 0.2400
        vertex -1.0800 0.0000 0.2400
    endloop
endfacet
facet normal 0.0000 -1.0800 0.0000
    outer loop
        vertex 0.1200 0.0000 -0.1200
        vertex 0.0800 0.0000 0.2400
        vertex -0.3600 0.0000 -0.1200
    endloop
endfacet
facet normal 0.0000 -3.6000 0.0000
    outer loop
        vertex -0.3600 0.0000 -0.1200
        vertex -0.3600 0.0000 -1.3200
        vertex 0.1200 0.0000 -0.1200
    endloop
endfacet
facet normal 0.0000 -3.6000 0.0000
    outer loop
        vertex 0.1200 0.0000 -1.3200
        vertex 0.1200 0.0000 -0.1200
        vertex -0.3600 0.0000 -1.3200
    endloop
endfacet
facet normal 0.0000 -0.4800 0.0000
    outer loop
        vertex -0.3600 0.0000 -1.3200
        vertex -0.2800 0.0000 -1.4800
        vertex 0.1200 0.0000 -1.3200
    endloop
endfacet
facet normal 0.0000 -0.3200 0.0000
    outer loop
        vertex 0.0400 0.0000 -1.4800
        vertex 0.1200 0.0000 -1.3200
        vertex -0.2800 0.0000 -1.4800
    endloop
endfacet
facet normal 0.0000 -0.0800 0.0000
    outer loop
        vertex -0.2800 0.0000 -1.4800
        vertex -0.1200 0.0000 -1.5200
        vertex 0.0400 0.0000 -1.4800
    endloop
endfacet
facet normal 0.0000 -0.6300 0.0000
    outer loop
        vertex 0.0800 0.0000 0.2400
        vertex 0.1200 0.0000 -0.1200
        vertex 0.3600 0.0000 0.2400
    endloop
endfacet
facet normal 0.0000 -0.8400 0.0000
    outer loop
        vertex 0.3600 0.0000 0.2400
        vertex 0.0800 0.0000 0.7200
        vertex 0.0800 0.0000 0.2400
    endloop
endfacet
facet normal 0.0000 -3.3600 0.0000
    outer loop
        vertex 0.0800 0.0000 0.7200
        vertex 0.3600 0.0000 0.2400
        vertex 0.3600 0.0000 2.1600
    endloop
endfacet
facet normal 0.0000 -1.1400 0.0000
    outer loop
        vertex 0.3600 0.0000 2.1600
        vertex 0.0000 0.0000 0.9600
        vertex 0.0800 0.0000 0.7200
    endloop
endfacet
facet normal 0.0000 -0.8400 0.0000
    outer loop
        vertex -0.4800 0.0000 0.7200
        vertex 0.0800 0.0000 0.7200
        vertex 0.0000 0.0000 0.9600
    endloop
endfacet
facet normal 0.0000 -0.7200 0.0000
    outer loop
        vertex 0.0000 0.0000 0.9600
        vertex -0.4800 0.0000 0.9600
        vertex -0.4800 0.0000 0.7200
    endloop
endfacet
facet normal 0.0000 -0.9900 0.0000
    outer loop
        vertex 0.3600 0.0000 2.1600
        vertex 0.0000 0.0000 1.4000
        vertex 0.0000 0.0000 0.9600
    endloop
endfacet
facet normal 0.0000 -0.5400 0.0000
    outer loop
        vertex 0.3600 0.0000 2.1600
        vertex 0.0000 0.0000 1.6400
        vertex 0.0000 0.0000 1.4000
    endloop
endfacet
facet normal 0.0000 -0.7200 0.0000
    outer loop
        vertex -0.4800 0.0000 1.4000
        vertex 0.0000 0.0000 1.4000
        vertex 0.0000 0.0000 1.6400
    endloop
endfacet
facet normal 0.0000 -0.7200 0.0000
    outer loop
        vertex 0.0000 0.0000 1.6400
        vertex -0.4800 0.0000 1.6400
        vertex -0.4800 0.0000 1.4000
    endloop
endfacet
facet normal 0.0000 -1.1700 0.0000
    outer loop
        vertex 0.3600 0.0000 2.1600
        vertex 0.0000 0.0000 2.1600
        vertex 0.0000 0.0000 1.6400
    endloop
endfacet
facet normal 0.0000 -1.2600 0.0000
    outer loop
        vertex 0.3600 0.0000 0.2400
        vertex 0.1200 0.0000 -0.1200
        vertex 0.6800 0.0000 -0.1200
    endloop
endfacet
facet normal 0.0000 -0.7200 0.0000
    outer loop
        vertex 0.3600 0.0000 0.2400
        vertex 0.6800 0.0000 -0.1200
        vertex 1.0000 0.0000 -0.1200
    endloop
endfacet
facet normal 0.0000 -2.6100 0.0000
    outer loop
        vertex 1.0000 0.0000 -0.1200
        vertex 1.5200 0.0000 0.2400
        vertex 0.3600 0.0000 0.2400
    endloop
endfacet
facet normal 0.0000 -1.0400 0.0000
    outer loop
        vertex 1.0000 0.0000 -0.6400
        vertex 1.0000 0.0000 -0.1200
        vertex 0.6800 0.0000 -0.1200
    endloop
endfacet
facet normal 0.0000 -2.6400 0.0000
    outer loop
        vertex 0.6800 0.0000 -0.1200
        vertex 0.6800 0.0000 -1.4400
        vertex 1.0000 0.0000 -0.6400
    endloop
endfacet
facet normal 0.0000 -4.6800 0.0000
    outer loop
        vertex 1.0000 0.0000 -0.6400
        vertex 0.6800 0.0000 -1.4400
        vertex 1.3600 0.0000 -2.0800
    endloop
endfacet
facet normal 0.0000 -3.2400 0.0000
    outer loop
        vertex 1.3600 0.0000 -2.0800
        vertex 1.3600 0.0000 -0.6400
        vertex 1.0000 0.0000 -0.6400
    endloop
endfacet
facet normal 0.0000 -1.6800 0.0000
    outer loop
        vertex 0.6800 0.0000 -1.4400
        vertex 0.6000 0.0000 -1.7600
        vertex 1.3600 0.0000 -2.0800
    endloop
endfacet
facet normal 0.0000 -1.2700 0.0000
    outer loop
        vertex 0.6000 0.0000 -1.7600
        vertex 0.4400 0.0000 -1.9600
        vertex 1.3600 0.0000 -2.0800
    endloop
endfacet
facet normal 0.0000 -0.9300 0.0000
    outer loop
        vertex 0.4400 0.0000 -1.9600
        vertex 0.1200 0.0000 -2.0800
        vertex 1.3600 0.0000 -2.0800
    endloop
endfacet
facet normal 0.0000 -0.6300 0.0000
    outer loop
        vertex 1.8000 0.0000 0.2400
        vertex 1.5200 0.0000 0.2400
        vertex 1.0000 0.0000 -0.1200
    endloop
endfacet
facet normal 0.0000 -2.9700 0.0000
    outer loop
        vertex 1.0000 0.0000 -0.1200
        vertex 2.3200 0.0000 -0.1200
        vertex 1.8000 0.0000 0.2400
    endloop
endfacet
facet normal 0.0000 -0.8400 0.0000
    outer loop
        vertex 1.5200 0.0000 0.7200
        vertex 1.5200 0.0000 0.2400
        vertex 1.8000 0.0000 0.2400
    endloop
endfacet
facet normal 0.0000 -3.3600 0.0000
    outer loop
        vertex 1.8000 0.0000 0.2400
        vertex 1.8000 0.0000 2.1600
        vertex 1.5200 0.0000 0.7200
    endloop
endfacet
facet normal 0.0000 -1.1400 0.0000
    outer loop
        vertex 1.4400 0.0000 0.9600
        vertex 1.5200 0.0000 0.7200
        vertex 1.8000 0.0000 2.1600
    endloop
endfacet
facet normal 0.0000 -0.9900 0.0000
    outer loop
        vertex 1.8000 0.0000 2.1600
        vertex 1.4400 0.0000 1.4000
        vertex 1.4400 0.0000 0.9600
    endloop
endfacet
facet normal 0.0000 -0.8400 0.0000
    outer loop
        vertex 0.9600 0.0000 0.7200
        vertex 1.5200 0.0000 0.7200
        vertex 1.4400 0.0000 0.9600
    endloop
endfacet
facet normal 0.0000 -0.7200 0.0000
    outer loop
        vertex 1.4400 0.0000 0.9600
        vertex 0.9600 0.0000 0.9600
        vertex 0.9600 0.0000 0.7200
    endloop
endfacet
facet normal 0.0000 -0.5400 0.0000
    outer loop
        vertex 1.8000 0.0000 2.1600
        vertex 1.4400 0.0000 1.6400
        vertex 1.4400 0.0000 1.4000
    endloop
endfacet
facet normal 0.0000 -0.7200 0.0000
    outer loop
        vertex 0.9600 0.0000 1.4000
        vertex 1.4400 0.0000 1.4000
        vertex 1.4400 0.0000 1.6400
    endloop
endfacet
facet normal 0.0000 -0.7200 0.0000
    outer loop
        vertex 1.4400 0.0000 1.6400
        vertex 0.9600 0.0000 1.6400
        vertex 0.9600 0.0000 1.4000
    endloop
endfacet
facet normal 0.0000 -1.1700 0.0000
    outer loop
        vertex 1.8000 0.0000 2.1600
        vertex 1.4400 0.0000 2.1600
        vertex 1.4400 0.0000 1.6400
    endloop
endfacet
facet normal 0.0000 -1.3500 0.0000
    outer loop
        vertex 2.4000 0.0000 0.2400
        vertex 1.8000 0.0000 0.2400
        vertex 2.3200 0.0000 -0.1200
    endloop
endfacet
facet normal 0.0000 -0.8100 0.0000
    outer loop
        vertex 2.3200 0.0000 -0.1200
        vertex 2.6800 0.0000 -0.1200
        vertex 2.4000 0.0000 0.2400
    endloop
endfacet
facet normal 0.0000 -1.1700 0.0000
    outer loop
        vertex 2.6800 0.0000 -0.1200
        vertex 2.3200 0.0000 -0.1200
        vertex 2.3200 0.0000 -0.6400
    endloop
endfacet
facet normal 0.0000 -3.1400 0.0000
    outer loop
        vertex 2.3200 0.0000 -0.6400
        vertex 2.7600 0.0000 -1.4000
        vertex 2.6800 0.0000 -0.1200
    endloop
endfacet
facet normal 0.0000 -0.9600 0.0000
    outer loop
        vertex 2.7200 0.0000 -1.6800
        vertex 2.7600 0.0000 -1.4000
        vertex 2.3200 0.0000 -0.6400
    endloop
endfacet
facet normal 0.0000 -2.6000 0.0000
    outer loop
        vertex 2.3200 0.0000 -0.6400
        vertex 1.9200 0.0000 -0.6400
        vertex 2.7200 0.0000 -1.6800
    endloop
endfacet
facet normal 0.0000 -0.8400 0.0000
    outer loop
        vertex 2.7600 0.0000 -1.4000
        vertex 2.7200 0.0000 -1.6800
        vertex 3.2000 0.0000 -1.6800
    endloop
endfacet
facet normal 0.0000 -0.7000 0.0000
    outer loop
        vertex 3.2000 0.0000 -1.6800
        vertex 3.1600 0.0000 -1.4000
        vertex 2.7600 0.0000 -1.4000
    endloop
endfacet
facet normal 0.0000 -2.0000 0.0000
    outer loop
        vertex 2.7200 0.0000 -2.0800
        vertex 2.7200 0.0000 -1.6800
        vertex 1.9200 0.0000 -0.6400
    endloop
endfacet
facet normal 0.0000 -7.2000 0.0000
    outer loop
        vertex 1.9200 0.0000 -0.6400
        vertex 1.9200 0.0000 -2.0800
        vertex 2.7200 0.0000 -2.0800
    endloop
endfacet
facet normal 0.0000 -0.4400 0.0000
    outer loop
        vertex 2.4000 0.0000 1.6000
        vertex 2.4000 0.0000 1.1600
        vertex 2.5600 0.0000 1.1600
    endloop
endfacet
facet normal 0.0000 -0.4400 0.0000
    outer loop
        vertex 2.5600 0.0000 1.1600
        vertex 2.5600 0.0000 1.6000
        vertex 2.4000 0.0000 1.6000
    endloop
endfacet
facet normal 0.0000 -0.2200 0.0000
    outer loop
        vertex 2.5600 0.0000 1.6000
        vertex 2.5600 0.0000 1.1600
        vertex 2.6400 0.0000 1.2400
    endloop
endfacet
facet normal 0.0000 -0.1600 0.0000
    outer loop
        vertex 2.6400 0.0000 1.2400
        vertex 2.6400 0.0000 1.5600
        vertex 2.5600 0.0000 1.6000
    endloop
endfacet
facet normal 0.0000 -0.0800 0.0000
    outer loop
        vertex 2.6400 0.0000 1.5600
        vertex 2.6400 0.0000 1.2400
        vertex 2.6800 0.0000 1.4000
    endloop
endfacet
facet normal 0.0000 -20.0000 0.0000
    outer loop
        vertex 4.0000 0.0000 4.0000
        vertex -4.0000 0.0000 4.0000
        vertex -3.6000 0.0000 3.6000
    endloop
endfacet
facet normal 0.0000 -18.0000 0.0000
    outer loop
        vertex -3.6000 0.0000 3.6000
        vertex 3.6000 0.0000 3.6000
        vertex 4.0000 0.0000 4.0000
    endloop
endfacet
facet normal 0.0000 -9.0000 0.0000
    outer loop
        vertex 3.6000 0.0000 3.6000
        vertex 3.6000 0.0000 0.0000
        vertex 4.0000 0.0000 -4.0000
    endloop
endfacet
facet normal 0.0000 -20.0000 0.0000
    outer loop
        vertex 4.0000 0.0000 -4.0000
        vertex 4.0000 0.0000 4.0000
        vertex 3.6000 0.0000 3.6000
    endloop
endfacet
facet normal 0.0000 -9.0000 0.0000
    outer loop
        vertex 3.6000 0.0000 0.0000
        vertex 3.6000 0.0000 -3.6000
        vertex 4.0000 0.0000 -4.0000
    endloop
endfacet
facet normal 0.0000 -20.0000 0.0000
    outer loop
        vertex -4.0000 0.0000 -4.0000
        vertex 4.0000 0.0000 -4.0000
        vertex 3.6000 0.0000 -3.6000
    endloop
endfacet
facet normal 0.0000 -18.0000 0.0000
    outer loop
        vertex 3.6000 0.0000 -3.6000
        vertex -3.6000 0.0000 -3.6000
        vertex -4.0000 0.0000 -4.0000
    endloop
endfacet
facet normal 0.0000 -20.0000 0.0000
    outer loop
        vertex -4.0000 0.0000 4.0000
        vertex -4.0000 0.0000 -4.0000
        vertex -3.6000 0.0000 -3.6000
    endloop
endfacet
facet normal 0.0000 -18.0000 0.0000
    outer loop
        vertex -3.6000 0.0000 -3.6000
        vertex -3.6000 0.0000 3.6000
        vertex -4.0000 0.0000 4.0000
    endloop
endfacet
endsolid GiantLegoRocks
