solid GiantLegoRocks
facet normal 0.0000 0.0000 20.0000
    outer loop
        vertex -4.0000 2.8000 4.0000
        vertex -4.0000 0.0000 4.0000
        vertex 4.0000 0.0000 4.0000
    endloop
endfacet
facet normal 0.0000 0.0000 20.0000
    outer loop
        vertex 4.0000 0.0000 4.0000
        vertex 4.0000 2.8000 4.0000
        vertex -4.0000 2.8000 4.0000
    endloop
endfacet
facet normal -20.0000 0.0000 0.0000
    outer loop
        vertex -4.0000 2.8000 -4.0000
        vertex -4.0000 0.0000 -4.0000
        vertex -4.0000 0.0000 4.0000
    endloop
endfacet
facet normal -20.0000 0.0000 0.0000
    outer loop
        vertex -4.0000 0.0000 4.0000
        vertex -4.0000 2.8000 4.0000
        vertex -4.0000 2.8000 -4.0000
    endloop
endfacet
facet normal 0.0000 0.0000 -20.0000
    outer loop
        vertex 4.0000 2.8000 -4.0000
        vertex 4.0000 0.0000 -4.0000
        vertex -4.0000 0.0000 -4.0000
    endloop
endfacet
facet normal 0.0000 0.0000 -20.0000
    outer loop
        vertex -4.0000 0.0000 -4.0000
        vertex -4.0000 2.8000 -4.0000
        vertex 4.0000 2.8000 -4.0000
    endloop
endfacet
facet normal 20.0000 0.0000 0.0000
    outer loop
        vertex 4.0000 2.8000 4.0000
        vertex 4.0000 0.0000 4.0000
        vertex 4.0000 0.0000 -4.0000
    endloop
endfacet
facet normal 20.0000 0.0000 0.0000
    outer loop
        vertex 4.0000 0.0000 -4.0000
        vertex 4.0000 2.8000 -4.0000
        vertex 4.0000 2.8000 4.0000
    endloop
endfacet
facet normal 0.0000 -8.0000 0.0000
    outer loop
        vertex -2.4000 1.6000 2.4000
        vertex 2.4000 1.6000 2.4000
        vertex 2.4000 1.6000 -2.4000
    endloop
endfacet
facet normal 0.0000 -8.0000 0.0000
    outer loop
        vertex 2.4000 1.6000 -2.4000
        vertex -2.4000 1.6000 -2.4000
        vertex -2.4000 1.6000 2.4000
    endloop
endfacet
facet normal 0.0000 8.0000 12.0000
    outer loop
        vertex -2.4000 1.6000 2.4000
        vertex -2.4000 3.2000 2.4000
        vertex 2.4000 3.2000 2.4000
    endloop
endfacet
facet normal 0.0000 8.0000 12.0000
    outer loop
        vertex 2.4000 3.2000 2.4000
        vertex 2.4000 1.6000 2.4000
        vertex -2.4000 1.6000 2.4000
    endloop
endfacet
facet normal -12.0000 8.0000 0.0000
    outer loop
        vertex -2.4000 1.6000 -2.4000
        vertex -2.4000 3.2000 -2.4000
        vertex -2.4000 3.2000 2.4000
    endloop
endfacet
facet normal -12.0000 8.0000 0.0000
    outer loop
        vertex -2.4000 3.2000 2.4000
        vertex -2.4000 1.6000 2.4000
        vertex -2.4000 1.6000 -2.4000
    endloop
endfacet
facet normal 0.0000 8.0000 -12.0000
    outer loop
        vertex 2.4000 1.6000 -2.4000
        vertex 2.4000 3.2000 -2.4000
        vertex -2.4000 3.2000 -2.4000
    endloop
endfacet
facet normal 0.0000 8.0000 -12.0000
    outer loop
        vertex -2.4000 3.2000 -2.4000
        vertex -2.4000 1.6000 -2.4000
        vertex 2.4000 1.6000 -2.4000
    endloop
endfacet
facet normal 12.0000 8.0000 0.0000
    outer loop
        vertex 2.4000 1.6000 2.4000
        vertex 2.4000 3.2000 2.4000
        vertex 2.4000 3.2000 -2.4000
    endloop
endfacet
facet normal 12.0000 8.0000 0.0000
    outer loop
        vertex 2.4000 3.2000 -2.4000
        vertex 2.4000 1.6000 -2.4000
        vertex 2.4000 1.6000 2.4000
    endloop
endfacet
facet normal 0.0000 7.0000 18.0000
    outer loop
        vertex -3.6000 3.2000 3.6000
        vertex -3.6000 2.8000 3.6000
        vertex 3.6000 2.8000 3.6000
    endloop
endfacet
facet normal 0.0000 7.0000 18.0000
    outer loop
        vertex 3.6000 2.8000 3.6000
        vertex 3.6000 3.2000 3.6000
        vertex -3.6000 3.2000 3.6000
    endloop
endfacet
facet normal -18.0000 7.0000 0.0000
    outer loop
        vertex -3.6000 3.2000 -3.6000
        vertex -3.6000 2.8000 -3.6000
        vertex -3.6000 2.8000 3.6000
    endloop
endfacet
facet normal -18.0000 7.0000 0.0000
    outer loop
        vertex -3.6000 2.8000 3.6000
        vertex -3.6000 3.2000 3.6000
        vertex -3.6000 3.2000 -3.6000
    endloop
endfacet
facet normal 0.0000 7.0000 -18.0000
    outer loop
        vertex 3.6000 3.2000 -3.6000
        vertex 3.6000 2.8000 -3.6000
        vertex -3.6000 2.8000 -3.6000
    endloop
endfacet
facet normal 0.0000 7.0000 -18.0000
    outer loop
        vertex -3.6000 2.8000 -3.6000
        vertex -3.6000 3.2000 -3.6000
        vertex 3.6000 3.2000 -3.6000
    endloop
endfacet
facet normal 18.0000 7.0000 0.0000
    outer loop
        vertex 3.6000 3.2000 3.6000
        vertex 3.6000 2.8000 3.6000
        vertex 3.6000 2.8000 -3.6000
    endloop
endfacet
facet normal 18.0000 7.0000 0.0000
    outer loop
        vertex 3.6000 2.8000 -3.6000
        vertex 3.6000 3.2000 -3.6000
        vertex 3.6000 3.2000 3.6000
    endloop
endfacet
facet normal 0.0000 36.0000 0.0000
    outer loop
        vertex 3.6000 3.2000 3.6000
        vertex 2.4000 3.2000 2.4000
        vertex -2.4000 3.2000 2.4000
    endloop
endfacet
facet normal 0.0000 54.0000 0.0000
    outer loop
        vertex -2.4000 3.2000 2.4000
        vertex -3.6000 3.2000 3.6000
        vertex 3.6000 3.2000 3.6000
    endloop
endfacet
facet normal 0.0000 36.0000 0.0000
    outer loop
        vertex -3.6000 3.2000 3.6000
        vertex -2.4000 3.2000 2.4000
        vertex -2.4000 3.2000 -2.4000
    endloop
endfacet
facet normal 0.0000 54.0000 0.0000
    outer loop
        vertex -2.4000 3.2000 -2.4000
        vertex -3.6000 3.2000 -3.6000
        vertex -3.6000 3.2000 3.6000
    endloop
endfacet
facet normal 0.0000 36.0000 0.0000
    outer loop
        vertex -3.6000 3.2000 -3.6000
        vertex -2.4000 3.2000 -2.4000
        vertex 2.4000 3.2000 -2.4000
    endloop
endfacet
facet normal 0.0000 54.0000 0.0000
    outer loop
        vertex 2.4000 3.2000 -2.4000
        vertex 3.6000 3.2000 -3.6000
        vertex -3.6000 3.2000 -3.6000
    endloop
endfacet
facet normal 0.0000 36.0000 0.0000
    outer loop
        vertex 3.6000 3.2000 -3.6000
        vertex 2.4000 3.2000 -2.4000
        vertex 2.4000 3.2000 2.4000
    endloop
endfacet
facet normal 0.0000 54.0000 0.0000
    outer loop
        vertex 2.4000 3.2000 2.4000
        vertex 3.6000 3.2000 3.6000
        vertex 3.6000 3.2000 -3.6000
    endloop
endfacet
facet normal 0.0000 18.0000 0.0000
    outer loop
        vertex 4.0000 2.8000 4.0000
        vertex 3.6000 2.8000 3.6000
        vertex -3.6000 2.8000 3.6000
    endloop
endfacet
facet normal 0.0000 20.0000 0.0000
    outer loop
        vertex -3.6000 2.8000 3.6000
        vertex -4.0000 2.8000 4.0000
        vertex 4.0000 2.8000 4.0000
    endloop
endfacet
facet normal 0.0000 18.0000 0.0000
    outer loop
        vertex -4.0000 2.8000 4.0000
        vertex -3.6000 2.8000 3.6000
        vertex -3.6000 2.8000 -3.6000
    endloop
endfacet
facet normal 0.0000 20.0000 0.0000
    outer loop
        vertex -3.6000 2.8000 -3.6000
        vertex -4.0000 2.8000 -4.0000
        vertex -4.0000 2.8000 4.0000
    endloop
endfacet
facet normal 0.0000 18.0000 0.0000
    outer loop
        vertex -4.0000 2.8000 -4.0000
        vertex -3.6000 2.8000 -3.6000
        vertex 3.6000 2.8000 -3.6000
    endloop
endfacet
facet normal 0.0000 20.0000 0.0000
    outer loop
        vertex 3.6000 2.8000 -3.6000
        vertex 4.0000 2.8000 -4.0000
        vertex -4.0000 2.8000 -4.0000
    endloop
endfacet
facet normal 0.0000 18.0000 0.0000
    outer loop
        vertex 4.0000 2.8000 -4.0000
        vertex 3.6000 2.8000 -3.6000
        vertex 3.6000 2.8000 3.6000
    endloop
endfacet
facet normal 0.0000 20.0000 0.0000
    outer loop
        vertex 3.6000 2.8000 3.6000
        vertex 4.0000 2.8000 4.0000
        vertex 4.0000 2.8000 -4.0000
    endloop
endfacet
facet normal 0.0000 -27.2800 0.0000
    outer loop
        vertex -3.6000 0.0000 3.6000
        vertex -3.6000 0.0000 0.0800
        vertex -2.3600 0.0000 0.0800
    endloop
endfacet
facet normal 0.0000 -10.8500 0.0000
    outer loop
        vertex -2.3600 0.0000 0.0800
        vertex -2.3600 0.0000 1.4800
        vertex -3.6000 0.0000 3.6000
    endloop
endfacet
facet normal 0.0000 -17.4900 0.0000
    outer loop
        vertex -2.2800 0.0000 3.6000
        vertex -3.6000 0.0000 3.6000
        vertex -2.3600 0.0000 1.4800
    endloop
endfacet
facet normal 0.0000 -10.0800 0.0000
    outer loop
        vertex -2.3600 0.0000 1.4800
        vertex -1.5600 0.0000 2.5200
        vertex -2.2800 0.0000 3.6000
    endloop
endfacet
facet normal 0.0000 -11.0000 0.0000
    outer loop
        vertex -1.5600 0.0000 2.5200
        vertex -2.3600 0.0000 1.4800
        vertex -1.5600 0.0000 0.3200
    endloop
endfacet
facet normal 0.0000 -11.0000 0.0000
    outer loop
        vertex -1.5600 0.0000 0.3200
        vertex -0.7600 0.0000 1.4800
        vertex -1.5600 0.0000 2.5200
    endloop
endfacet
facet normal 0.0000 -10.0800 0.0000
    outer loop
        vertex -0.8400 0.0000 3.6000
        vertex -1.5600 0.0000 2.5200
        vertex -0.7600 0.0000 1.4800
    endloop
endfacet
facet normal 0.0000 -18.0200 0.0000
    outer loop
        vertex -0.7600 0.0000 1.4800
        vertex 0.5200 0.0000 3.6000
        vertex -0.8400 0.0000 3.6000
    endloop
endfacet
facet normal 0.0000 -28.1600 0.0000
    outer loop
        vertex 0.5200 0.0000 0.0800
        vertex 0.5200 0.0000 3.6000
        vertex -0.7600 0.0000 1.4800
    endloop
endfacet
facet normal 0.0000 -1.7500 0.0000
    outer loop
        vertex -0.7600 0.0000 1.4800
        vertex 0.3200 0.0000 0.0800
        vertex 0.5200 0.0000 0.0800
    endloop
endfacet
facet normal 0.0000 -9.1800 0.0000
    outer loop
        vertex 0.3200 0.0000 0.0800
        vertex -0.7600 0.0000 1.4800
        vertex -0.7600 0.0000 0.1200
    endloop
endfacet
facet normal 0.0000 -7.2900 0.0000
    outer loop
        vertex -0.7600 0.0000 0.1200
        vertex 0.3200 0.0000 -1.0000
        vertex 0.3200 0.0000 0.0800
    endloop
endfacet
facet normal 0.0000 -3.6400 0.0000
    outer loop
        vertex -0.2000 0.0000 -1.0000
        vertex 0.3200 0.0000 -1.0000
        vertex -0.7600 0.0000 0.1200
    endloop
endfacet
facet normal 0.0000 -2.1000 0.0000
    outer loop
        vertex -0.7600 0.0000 0.1200
        vertex -1.0400 0.0000 0.0800
        vertex -0.2000 0.0000 -1.0000
    endloop
endfacet
facet normal 0.0000 -1.0200 0.0000
    outer loop
        vertex -0.3200 0.0000 -1.0400
        vertex -0.2000 0.0000 -1.0000
        vertex -1.0400 0.0000 0.0800
    endloop
endfacet
facet normal 0.0000 -2.7800 0.0000
    outer loop
        vertex -1.0400 0.0000 0.0800
        vertex -1.3600 0.0000 -0.0400
        vertex -0.3200 0.0000 -1.0400
    endloop
endfacet
facet normal 0.0000 -0.7700 0.0000
    outer loop
        vertex -0.3600 0.0000 -1.1200
        vertex -0.3200 0.0000 -1.0400
        vertex -1.3600 0.0000 -0.0400
    endloop
endfacet
facet normal 0.0000 -3.8900 0.0000
    outer loop
        vertex -1.3600 0.0000 -0.0400
        vertex -1.6400 0.0000 -0.3600
        vertex -0.3600 0.0000 -1.1200
    endloop
endfacet
facet normal 0.0000 -3.9600 0.0000
    outer loop
        vertex -0.3600 0.0000 -1.1200
        vertex -1.6400 0.0000 -0.3600
        vertex -1.8000 0.0000 -0.7600
    endloop
endfacet
facet normal 0.0000 -3.2400 0.0000
    outer loop
        vertex -1.8000 0.0000 -0.7600
        vertex -1.8000 0.0000 -1.1200
        vertex -0.3600 0.0000 -1.1200
    endloop
endfacet
facet normal 0.0000 -3.6000 0.0000
    outer loop
        vertex -0.3600 0.0000 -1.1200
        vertex -1.8000 0.0000 -1.1200
        vertex -1.6800 0.0000 -1.5200
    endloop
endfacet
facet normal 0.0000 -0.7600 0.0000
    outer loop
        vertex -1.6800 0.0000 -1.5200
        vertex -0.3200 0.0000 -1.2000
        vertex -0.3600 0.0000 -1.1200
    endloop
endfacet
facet normal 0.0000 -3.1200 0.0000
    outer loop
        vertex -0.3200 0.0000 -1.2000
        vertex -1.6800 0.0000 -1.5200
        vertex -1.4800 0.0000 -1.8400
    endloop
endfacet
facet normal 0.0000 -4.8200 0.0000
    outer loop
        vertex -1.4800 0.0000 -1.8400
        vertex 0.1600 0.0000 -1.6000
        vertex -0.3200 0.0000 -1.2000
    endloop
endfacet
facet normal 0.0000 -4.3500 0.0000
    outer loop
        vertex 0.1600 0.0000 -1.6000
        vertex -1.4800 0.0000 -1.8400
        vertex -1.0400 0.0000 -2.2000
    endloop
endfacet
facet normal 0.0000 -3.4500 0.0000
    outer loop
        vertex -1.0400 0.0000 -2.2000
        vertex 0.4400 0.0000 -1.9200
        vertex 0.1600 0.0000 -1.6000
    endloop
endfacet
facet normal 0.0000 -2.7800 0.0000
    outer loop
        vertex 0.4400 0.0000 -1.9200
        vertex -1.0400 0.0000 -2.2000
        vertex -0.7200 0.0000 -2.4400
    endloop
endfacet
facet normal 0.0000 -3.9700 0.0000
    outer loop
        vertex -0.7200 0.0000 -2.4400
        vertex 0.6800 0.0000 -2.3600
        vertex 0.4400 0.0000 -1.9200
    endloop
endfacet
facet normal 0.0000 -1.0700 0.0000
    outer loop
        vertex 0.6800 0.0000 -2.3600
        vertex -0.7200 0.0000 -2.4400
        vertex -0.6800 0.0000 -2.5600
    endloop
endfacet
facet normal 0.0000 -2.7700 0.0000
    outer loop
        vertex -0.6800 0.0000 -2.5600
        vertex 0.7200 0.0000 -2.6800
        vertex 0.6800 0.0000 -2.3600
    endloop
endfacet
facet normal 0.0000 -1.4300 0.0000
    outer loop
        vertex 0.7200 0.0000 -2.6800
        vertex -0.6800 0.0000 -2.5600
        vertex -0.7200 0.0000 -2.7200
    endloop
endfacet
facet normal 0.0000 -3.5900 0.0000
    outer loop
        vertex -0.7200 0.0000 -2.7200
        vertex 0.6800 0.0000 -3.0800
        vertex 0.7200 0.0000 -2.6800
    endloop
endfacet
facet normal 0.0000 -0.6200 0.0000
    outer loop
        vertex 0.6800 0.0000 -3.0800
        vertex -0.7200 0.0000 -2.7200
        vertex -0.8400 0.0000 -2.7600
    endloop
endfacet
facet normal 0.0000 -2.9000 0.0000
    outer loop
        vertex -0.8400 0.0000 -2.7600
        vertex 0.5600 0.0000 -3.3600
        vertex 0.6800 0.0000 -3.0800
    endloop
endfacet
facet normal 0.0000 -2.7000 0.0000
    outer loop
        vertex 0.4000 0.0000 -3.6000
        vertex 0.5600 0.0000 -3.3600
        vertex -0.8400 0.0000 -2.7600
    endloop
endfacet
facet normal 0.0000 -2.3100 0.0000
    outer loop
        vertex -0.8400 0.0000 -2.7600
        vertex -1.2800 0.0000 -2.7600
        vertex 0.4000 0.0000 -3.6000
    endloop
endfacet
facet normal 0.0000 -11.5500 0.0000
    outer loop
        vertex -1.8000 0.0000 -3.6000
        vertex 0.4000 0.0000 -3.6000
        vertex -1.2800 0.0000 -2.7600
    endloop
endfacet
facet normal 0.0000 -3.1200 0.0000
    outer loop
        vertex -1.2800 0.0000 -2.7600
        vertex -1.8000 0.0000 -2.6400
        vertex -1.8000 0.0000 -3.6000
    endloop
endfacet
facet normal 0.0000 -5.4000 0.0000
    outer loop
        vertex 3.6000 0.0000 -1.0000
        vertex 3.6000 0.0000 0.0800
        vertex 2.8000 0.0000 0.1200
    endloop
endfacet
facet normal 0.0000 -3.9200 0.0000
    outer loop
        vertex 2.8000 0.0000 0.1200
        vertex 3.0400 0.0000 -1.0000
        vertex 3.6000 0.0000 -1.0000
    endloop
endfacet
facet normal 0.0000 -1.0200 0.0000
    outer loop
        vertex 2.9200 0.0000 -1.0400
        vertex 3.0400 0.0000 -1.0000
        vertex 2.2000 0.0000 0.0800
    endloop
endfacet
facet normal 0.0000 -2.7800 0.0000
    outer loop
        vertex 2.2000 0.0000 0.0800
        vertex 1.8800 0.0000 -0.0400
        vertex 2.9200 0.0000 -1.0400
    endloop
endfacet
facet normal 0.0000 -0.7700 0.0000
    outer loop
        vertex 2.8800 0.0000 -1.1200
        vertex 2.9200 0.0000 -1.0400
        vertex 1.8800 0.0000 -0.0400
    endloop
endfacet
facet normal 0.0000 -3.8900 0.0000
    outer loop
        vertex 1.8800 0.0000 -0.0400
        vertex 1.6000 0.0000 -0.3600
        vertex 2.8800 0.0000 -1.1200
    endloop
endfacet
facet normal 0.0000 -3.9600 0.0000
    outer loop
        vertex 2.8800 0.0000 -1.1200
        vertex 1.6000 0.0000 -0.3600
        vertex 1.4400 0.0000 -0.7600
    endloop
endfacet
facet normal 0.0000 -3.2400 0.0000
    outer loop
        vertex 1.4400 0.0000 -0.7600
        vertex 1.4400 0.0000 -1.1200
        vertex 2.8800 0.0000 -1.1200
    endloop
endfacet
facet normal 0.0000 -3.6000 0.0000
    outer loop
        vertex 2.8800 0.0000 -1.1200
        vertex 1.4400 0.0000 -1.1200
        vertex 1.5600 0.0000 -1.5200
    endloop
endfacet
facet normal 0.0000 -0.7600 0.0000
    outer loop
        vertex 1.5600 0.0000 -1.5200
        vertex 2.9200 0.0000 -1.2000
        vertex 2.8800 0.0000 -1.1200
    endloop
endfacet
facet normal 0.0000 -3.1200 0.0000
    outer loop
        vertex 2.9200 0.0000 -1.2000
        vertex 1.5600 0.0000 -1.5200
        vertex 1.7600 0.0000 -1.8400
    endloop
endfacet
facet normal 0.0000 -4.8200 0.0000
    outer loop
        vertex 1.7600 0.0000 -1.8400
        vertex 3.4000 0.0000 -1.6000
        vertex 2.9200 0.0000 -1.2000
    endloop
endfacet
facet normal 0.0000 -4.3500 0.0000
    outer loop
        vertex 3.4000 0.0000 -1.6000
        vertex 1.7600 0.0000 -1.8400
        vertex 2.2000 0.0000 -2.2000
    endloop
endfacet
facet normal 0.0000 -2.5500 0.0000
    outer loop
        vertex 2.2000 0.0000 -2.2000
        vertex 3.6000 0.0000 -1.8400
        vertex 3.4000 0.0000 -1.6000
    endloop
endfacet
facet normal 0.0000 -3.1200 0.0000
    outer loop
        vertex 1.4400 0.0000 -2.6400
        vertex 1.4400 0.0000 -3.6000
        vertex 1.9600 0.0000 -2.7600
    endloop
endfacet
facet normal 0.0000 -2.8200 0.0000
    outer loop
        vertex 3.6000 0.0000 -1.8400
        vertex 2.2000 0.0000 -2.2000
        vertex 2.5200 0.0000 -2.4400
    endloop
endfacet
facet normal 0.0000 -0.9600 0.0000
    outer loop
        vertex 3.6000 0.0000 -1.8400
        vertex 2.5200 0.0000 -2.4400
        vertex 2.5600 0.0000 -2.5600
    endloop
endfacet
facet normal 0.0000 -11.4400 0.0000
    outer loop
        vertex 2.5600 0.0000 -2.5600
        vertex 3.6000 0.0000 -3.6000
        vertex 3.6000 0.0000 -1.8400
    endloop
endfacet
facet normal 0.0000 -1.3000 0.0000
    outer loop
        vertex 2.5600 0.0000 -2.5600
        vertex 2.5200 0.0000 -2.7200
        vertex 3.6000 0.0000 -3.6000
    endloop
endfacet
facet normal 0.0000 -0.9300 0.0000
    outer loop
        vertex 3.6000 0.0000 -3.6000
        vertex 2.5200 0.0000 -2.7200
        vertex 2.4000 0.0000 -2.7600
    endloop
endfacet
facet normal 0.0000 -11.3400 0.0000
    outer loop
        vertex 2.4000 0.0000 -2.7600
        vertex 1.4400 0.0000 -3.6000
        vertex 3.6000 0.0000 -3.6000
    endloop
endfacet
facet normal 0.0000 -2.3100 0.0000
    outer loop
        vertex 2.4000 0.0000 -2.7600
        vertex 1.9600 0.0000 -2.7600
        vertex 1.4400 0.0000 -3.6000
    endloop
endfacet
facet normal 0.0000 -3.1400 0.0000
    outer loop
        vertex 2.8000 0.0000 0.1200
        vertex 2.3600 0.0000 0.0800
        vertex 3.0400 0.0000 -1.0000
    endloop
endfacet
facet normal 0.0000 -1.0800 0.0000
    outer loop
        vertex 2.3600 0.0000 0.0800
        vertex 2.2000 0.0000 0.0800
        vertex 3.0400 0.0000 -1.0000
    endloop
endfacet
facet normal 0.0000 -29.9200 0.0000
    outer loop
        vertex 2.3600 0.0000 3.6000
        vertex 1.0000 0.0000 3.6000
        vertex 1.0000 0.0000 0.0800
    endloop
endfacet
facet normal 0.0000 -26.4000 0.0000
    outer loop
        vertex 1.0000 0.0000 0.0800
        vertex 2.2000 0.0000 0.0800
        vertex 2.3600 0.0000 3.6000
    endloop
endfacet
facet normal 0.0000 -3.5200 0.0000
    outer loop
        vertex 2.3600 0.0000 3.6000
        vertex 2.2000 0.0000 0.0800
        vertex 2.3600 0.0000 0.0800
    endloop
endfacet
facet normal 0.0000 -9.7200 0.0000
    outer loop
        vertex -0.8400 0.0000 3.6000
        vertex -2.2800 0.0000 3.6000
        vertex -1.5600 0.0000 2.5200
    endloop
endfacet
facet normal 0.0000 -28.5200 0.0000
    outer loop
        vertex -2.3600 0.0000 0.0800
        vertex -3.6000 0.0000 0.0800
        vertex -3.6000 0.0000 -3.6000
    endloop
endfacet
facet normal 0.0000 -33.9600 0.0000
    outer loop
        vertex -3.6000 0.0000 -3.6000
        vertex -1.8000 0.0000 -2.6400
        vertex -2.3600 0.0000 0.0800
    endloop
endfacet
facet normal 0.0000 -10.8000 0.0000
    outer loop
        vertex -1.8000 0.0000 -2.6400
        vertex -3.6000 0.0000 -3.6000
        vertex -1.8000 0.0000 -3.6000
    endloop
endfacet
facet normal 0.0000 -7.0000 0.0000
    outer loop
        vertex -1.5600 0.0000 0.3200
        vertex -2.3600 0.0000 1.4800
        vertex -2.3600 0.0000 0.0800
    endloop
endfacet
facet normal 0.0000 -2.1000 0.0000
    outer loop
        vertex -2.3600 0.0000 0.0800
        vertex -1.3600 0.0000 -0.0400
        vertex -1.5600 0.0000 0.3200
    endloop
endfacet
facet normal 0.0000 -3.2500 0.0000
    outer loop
        vertex -0.7600 0.0000 1.4800
        vertex -1.5600 0.0000 0.3200
        vertex -1.3600 0.0000 -0.0400
    endloop
endfacet
facet normal 0.0000 -2.5900 0.0000
    outer loop
        vertex -1.3600 0.0000 -0.0400
        vertex -1.0400 0.0000 0.0800
        vertex -0.7600 0.0000 1.4800
    endloop
endfacet
facet normal 0.0000 -2.3800 0.0000
    outer loop
        vertex -0.7600 0.0000 1.4800
        vertex -1.0400 0.0000 0.0800
        vertex -0.7600 0.0000 0.1200
    endloop
endfacet
facet normal 0.0000 -2.2100 0.0000
    outer loop
        vertex -2.3600 0.0000 0.0800
        vertex -1.6400 0.0000 -0.3600
        vertex -1.3600 0.0000 -0.0400
    endloop
endfacet
facet normal 0.0000 -2.2400 0.0000
    outer loop
        vertex -2.3600 0.0000 0.0800
        vertex -1.8000 0.0000 -0.7600
        vertex -1.6400 0.0000 -0.3600
    endloop
endfacet
facet normal 0.0000 -1.2600 0.0000
    outer loop
        vertex -2.3600 0.0000 0.0800
        vertex -1.8000 0.0000 -1.1200
        vertex -1.8000 0.0000 -0.7600
    endloop
endfacet
facet normal 0.0000 -5.3200 0.0000
    outer loop
        vertex -1.8000 0.0000 -1.1200
        vertex -2.3600 0.0000 0.0800
        vertex -1.8000 0.0000 -2.6400
    endloop
endfacet
facet normal 0.0000 -1.1400 0.0000
    outer loop
        vertex -1.8000 0.0000 -2.6400
        vertex -1.6800 0.0000 -1.5200
        vertex -1.8000 0.0000 -1.1200
    endloop
endfacet
facet normal 0.0000 -1.6400 0.0000
    outer loop
        vertex -1.4800 0.0000 -1.8400
        vertex -1.6800 0.0000 -1.5200
        vertex -1.8000 0.0000 -2.6400
    endloop
endfacet
facet normal 0.0000 -2.8400 0.0000
    outer loop
        vertex -1.8000 0.0000 -2.6400
        vertex -1.2800 0.0000 -2.7600
        vertex -1.4800 0.0000 -1.8400
    endloop
endfacet
facet normal 0.0000 -2.0800 0.0000
    outer loop
        vertex -1.0400 0.0000 -2.2000
        vertex -1.4800 0.0000 -1.8400
        vertex -1.2800 0.0000 -2.7600
    endloop
endfacet
facet normal 0.0000 -1.5400 0.0000
    outer loop
        vertex -1.2800 0.0000 -2.7600
        vertex -0.8400 0.0000 -2.7600
        vertex -1.0400 0.0000 -2.2000
    endloop
endfacet
facet normal 0.0000 -0.8200 0.0000
    outer loop
        vertex -0.7200 0.0000 -2.4400
        vertex -1.0400 0.0000 -2.2000
        vertex -0.8400 0.0000 -2.7600
    endloop
endfacet
facet normal 0.0000 -0.2100 0.0000
    outer loop
        vertex -0.8400 0.0000 -2.7600
        vertex -0.7200 0.0000 -2.7200
        vertex -0.7200 0.0000 -2.4400
    endloop
endfacet
facet normal 0.0000 -0.0700 0.0000
    outer loop
        vertex -0.7200 0.0000 -2.4400
        vertex -0.7200 0.0000 -2.7200
        vertex -0.6800 0.0000 -2.5600
    endloop
endfacet
facet normal 0.0000 -10.5600 0.0000
    outer loop
        vertex 1.0000 0.0000 3.6000
        vertex 0.5200 0.0000 3.6000
        vertex 0.5200 0.0000 0.0800
    endloop
endfacet
facet normal 0.0000 -10.5600 0.0000
    outer loop
        vertex 0.5200 0.0000 0.0800
        vertex 1.0000 0.0000 0.0800
        vertex 1.0000 0.0000 3.6000
    endloop
endfacet
facet normal 0.0000 -3.2400 0.0000
    outer loop
        vertex 1.0000 0.0000 0.0800
        vertex 0.5200 0.0000 0.0800
        vertex 0.3200 0.0000 -1.0000
    endloop
endfacet
facet normal 0.0000 -6.5400 0.0000
    outer loop
        vertex 0.3200 0.0000 -1.0000
        vertex 1.4400 0.0000 -0.7600
        vertex 1.0000 0.0000 0.0800
    endloop
endfacet
facet normal 0.0000 -1.3500 0.0000
    outer loop
        vertex 0.5200 0.0000 0.0800
        vertex 0.3200 0.0000 0.0800
        vertex 0.3200 0.0000 -1.0000
    endloop
endfacet
facet normal 0.0000 -1.9400 0.0000
    outer loop
        vertex 1.0000 0.0000 0.0800
        vertex 1.4400 0.0000 -0.7600
        vertex 1.6000 0.0000 -0.3600
    endloop
endfacet
facet normal 0.0000 -1.9700 0.0000
    outer loop
        vertex 1.0000 0.0000 0.0800
        vertex 1.6000 0.0000 -0.3600
        vertex 1.8800 0.0000 -0.0400
    endloop
endfacet
facet normal 0.0000 -0.9000 0.0000
    outer loop
        vertex 2.2000 0.0000 0.0800
        vertex 1.0000 0.0000 0.0800
        vertex 1.8800 0.0000 -0.0400
    endloop
endfacet
facet normal 0.0000 -2.5200 0.0000
    outer loop
        vertex 1.4400 0.0000 -1.1200
        vertex 1.4400 0.0000 -0.7600
        vertex 0.3200 0.0000 -1.0000
    endloop
endfacet
facet normal 0.0000 -4.3200 0.0000
    outer loop
        vertex 0.3200 0.0000 -1.0000
        vertex 0.1600 0.0000 -1.6000
        vertex 1.4400 0.0000 -1.1200
    endloop
endfacet
facet normal 0.0000 -1.9500 0.0000
    outer loop
        vertex 0.1600 0.0000 -1.6000
        vertex 0.3200 0.0000 -1.0000
        vertex -0.2000 0.0000 -1.0000
    endloop
endfacet
facet normal 0.0000 -0.9000 0.0000
    outer loop
        vertex -0.2000 0.0000 -1.0000
        vertex -0.3200 0.0000 -1.2000
        vertex 0.1600 0.0000 -1.6000
    endloop
endfacet
facet normal 0.0000 -0.1200 0.0000
    outer loop
        vertex -0.3200 0.0000 -1.2000
        vertex -0.2000 0.0000 -1.0000
        vertex -0.3200 0.0000 -1.0400
    endloop
endfacet
facet normal 0.0000 -0.0400 0.0000
    outer loop
        vertex -0.3200 0.0000 -1.0400
        vertex -0.3600 0.0000 -1.1200
        vertex -0.3200 0.0000 -1.2000
    endloop
endfacet
facet normal 0.0000 -3.5600 0.0000
    outer loop
        vertex 1.5600 0.0000 -1.5200
        vertex 1.4400 0.0000 -1.1200
        vertex 0.1600 0.0000 -1.6000
    endloop
endfacet
facet normal 0.0000 -2.9400 0.0000
    outer loop
        vertex 0.1600 0.0000 -1.6000
        vertex 0.4400 0.0000 -1.9200
        vertex 1.5600 0.0000 -1.5200
    endloop
endfacet
facet normal 0.0000 -2.7400 0.0000
    outer loop
        vertex 1.7600 0.0000 -1.8400
        vertex 1.5600 0.0000 -1.5200
        vertex 0.4400 0.0000 -1.9200
    endloop
endfacet
facet normal 0.0000 -3.7500 0.0000
    outer loop
        vertex 0.4400 0.0000 -1.9200
        vertex 0.6800 0.0000 -2.3600
        vertex 1.7600 0.0000 -1.8400
    endloop
endfacet
facet normal 0.0000 -4.3600 0.0000
    outer loop
        vertex 1.7600 0.0000 -1.8400
        vertex 0.6800 0.0000 -2.3600
        vertex 1.4400 0.0000 -2.6400
    endloop
endfacet
facet normal 0.0000 -2.9200 0.0000
    outer loop
        vertex 1.4400 0.0000 -2.6400
        vertex 2.2000 0.0000 -2.2000
        vertex 1.7600 0.0000 -1.8400
    endloop
endfacet
facet normal 0.0000 -2.0000 0.0000
    outer loop
        vertex 2.2000 0.0000 -2.2000
        vertex 1.4400 0.0000 -2.6400
        vertex 1.9600 0.0000 -2.7600
    endloop
endfacet
facet normal 0.0000 -1.4800 0.0000
    outer loop
        vertex 1.9600 0.0000 -2.7600
        vertex 2.5200 0.0000 -2.4400
        vertex 2.2000 0.0000 -2.2000
    endloop
endfacet
facet normal 0.0000 -0.8800 0.0000
    outer loop
        vertex 2.5200 0.0000 -2.4400
        vertex 1.9600 0.0000 -2.7600
        vertex 2.4000 0.0000 -2.7600
    endloop
endfacet
facet normal 0.0000 -0.1700 0.0000
    outer loop
        vertex 2.4000 0.0000 -2.7600
        vertex 2.5600 0.0000 -2.5600
        vertex 2.5200 0.0000 -2.4400
    endloop
endfacet
facet normal 0.0000 -0.1100 0.0000
    outer loop
        vertex 2.5600 0.0000 -2.5600
        vertex 2.4000 0.0000 -2.7600
        vertex 2.5200 0.0000 -2.7200
    endloop
endfacet
facet normal 0.0000 -1.4500 0.0000
    outer loop
        vertex 0.6800 0.0000 -2.3600
        vertex 0.7200 0.0000 -2.6800
        vertex 1.4400 0.0000 -2.6400
    endloop
endfacet
facet normal 0.0000 -1.7900 0.0000
    outer loop
        vertex 1.4400 0.0000 -2.6400
        vertex 0.7200 0.0000 -2.6800
        vertex 0.6800 0.0000 -3.0800
    endloop
endfacet
facet normal 0.0000 -4.5600 0.0000
    outer loop
        vertex 0.6800 0.0000 -3.0800
        vertex 1.4400 0.0000 -3.6000
        vertex 1.4400 0.0000 -2.6400
    endloop
endfacet
facet normal 0.0000 -1.7200 0.0000
    outer loop
        vertex 0.6800 0.0000 -3.0800
        vertex 0.5600 0.0000 -3.3600
        vertex 1.4400 0.0000 -3.6000
    endloop
endfacet
facet normal 0.0000 -1.5600 0.0000
    outer loop
        vertex 0.5600 0.0000 -3.3600
        vertex 0.4000 0.0000 -3.6000
        vertex 1.4400 0.0000 -3.6000
    endloop
endfacet
facet normal 0.0000 -1.0500 0.0000
    outer loop
        vertex 3.4000 0.0000 -1.6000
        vertex 3.6000 0.0000 -1.8400
        vertex 3.6000 0.0000 -1.0000
    endloop
endfacet
facet normal 0.0000 -2.1000 0.0000
    outer loop
        vertex 3.6000 0.0000 -1.0000
        vertex 3.0400 0.0000 -1.0000
        vertex 3.4000 0.0000 -1.6000
    endloop
endfacet
facet normal 0.0000 -0.9000 0.0000
    outer loop
        vertex 2.9200 0.0000 -1.2000
        vertex 3.4000 0.0000 -1.6000
        vertex 3.0400 0.0000 -1.0000
    endloop
endfacet
facet normal 0.0000 -0.1200 0.0000
    outer loop
        vertex 3.0400 0.0000 -1.0000
        vertex 2.9200 0.0000 -1.0400
        vertex 2.9200 0.0000 -1.2000
    endloop
endfacet
facet normal 0.0000 -0.0400 0.0000
    outer loop
        vertex 2.9200 0.0000 -1.0400
        vertex 2.8800 0.0000 -1.1200
        vertex 2.9200 0.0000 -1.2000
    endloop
endfacet
facet normal 0.0000 -27.2800 0.0000
    outer loop
        vertex 3.6000 0.0000 0.0800
        vertex 3.6000 0.0000 3.6000
        vertex 2.3600 0.0000 3.6000
    endloop
endfacet
facet normal 0.0000 -17.2900 0.0000
    outer loop
        vertex 2.3600 0.0000 3.6000
        vertex 2.8000 0.0000 0.1200
        vertex 3.6000 0.0000 0.0800
    endloop
endfacet
facet normal 0.0000 -9.6800 0.0000
    outer loop
        vertex 2.3600 0.0000 3.6000
        vertex 2.3600 0.0000 0.0800
        vertex 2.8000 0.0000 0.1200
    endloop
endfacet
facet normal 0.0000 -20.0000 0.0000
    outer loop
        vertex 0.5200 0.0000 3.6000
        vertex 4.0000 0.0000 4.0000
        vertex -4.0000 0.0000 4.0000
    endloop
endfacet
facet normal 0.0000 -3.4000 0.0000
    outer loop
        vertex -4.0000 0.0000 4.0000
        vertex -0.8400 0.0000 3.6000
        vertex 0.5200 0.0000 3.6000
    endloop
endfacet
facet normal 0.0000 -3.6000 0.0000
    outer loop
        vertex -4.0000 0.0000 4.0000
        vertex -2.2800 0.0000 3.6000
        vertex -0.8400 0.0000 3.6000
    endloop
endfacet
facet normal 0.0000 -3.3000 0.0000
    outer loop
        vertex -4.0000 0.0000 4.0000
        vertex -3.6000 0.0000 3.6000
        vertex -2.2800 0.0000 3.6000
    endloop
endfacet
facet normal 0.0000 -8.8000 0.0000
    outer loop
        vertex -3.6000 0.0000 0.0800
        vertex -3.6000 0.0000 3.6000
        vertex -4.0000 0.0000 4.0000
    endloop
endfacet
facet normal 0.0000 -20.0000 0.0000
    outer loop
        vertex -4.0000 0.0000 4.0000
        vertex -4.0000 0.0000 -4.0000
        vertex -3.6000 0.0000 0.0800
    endloop
endfacet
facet normal 0.0000 -9.2000 0.0000
    outer loop
        vertex -3.6000 0.0000 0.0800
        vertex -4.0000 0.0000 -4.0000
        vertex -3.6000 0.0000 -3.6000
    endloop
endfacet
facet normal 0.0000 -4.5000 0.0000
    outer loop
        vertex -1.8000 0.0000 -3.6000
        vertex -3.6000 0.0000 -3.6000
        vertex -4.0000 0.0000 -4.0000
    endloop
endfacet
facet normal 0.0000 -5.5000 0.0000
    outer loop
        vertex 0.4000 0.0000 -3.6000
        vertex -1.8000 0.0000 -3.6000
        vertex -4.0000 0.0000 -4.0000
    endloop
endfacet
facet normal 0.0000 -20.0000 0.0000
    outer loop
        vertex -4.0000 0.0000 -4.0000
        vertex 4.0000 0.0000 -4.0000
        vertex 0.4000 0.0000 -3.6000
    endloop
endfacet
facet normal 0.0000 -2.6000 0.0000
    outer loop
        vertex 1.4400 0.0000 -3.6000
        vertex 0.4000 0.0000 -3.6000
        vertex 4.0000 0.0000 -4.0000
    endloop
endfacet
facet normal 0.0000 -5.4000 0.0000
    outer loop
        vertex 3.6000 0.0000 -3.6000
        vertex 1.4400 0.0000 -3.6000
        vertex 4.0000 0.0000 -4.0000
    endloop
endfacet
facet normal 0.0000 -4.4000 0.0000
    outer loop
        vertex 3.6000 0.0000 -1.8400
        vertex 3.6000 0.0000 -3.6000
        vertex 4.0000 0.0000 -4.0000
    endloop
endfacet
facet normal 0.0000 -2.1000 0.0000
    outer loop
        vertex 3.6000 0.0000 -1.0000
        vertex 3.6000 0.0000 -1.8400
        vertex 4.0000 0.0000 -4.0000
    endloop
endfacet
facet normal 0.0000 -2.7000 0.0000
    outer loop
        vertex 3.6000 0.0000 0.0800
        vertex 3.6000 0.0000 -1.0000
        vertex 4.0000 0.0000 -4.0000
    endloop
endfacet
facet normal 0.0000 -20.0000 0.0000
    outer loop
        vertex 4.0000 0.0000 -4.0000
        vertex 4.0000 0.0000 4.0000
        vertex 3.6000 0.0000 0.0800
    endloop
endfacet
facet normal 0.0000 -8.8000 0.0000
    outer loop
        vertex 4.0000 0.0000 4.0000
        vertex 3.6000 0.0000 3.6000
        vertex 3.6000 0.0000 0.0800
    endloop
endfacet
facet normal 0.0000 -3.1000 0.0000
    outer loop
        vertex 4.0000 0.0000 4.0000
        vertex 2.3600 0.0000 3.6000
        vertex 3.6000 0.0000 3.6000
    endloop
endfacet
facet normal 0.0000 -3.4000 0.0000
    outer loop
        vertex 4.0000 0.0000 4.0000
        vertex 1.0000 0.0000 3.6000
        vertex 2.3600 0.0000 3.6000
    endloop
endfacet
facet normal 0.0000 -1.2000 0.0000
    outer loop
        vertex 4.0000 0.0000 4.0000
        vertex 0.5200 0.0000 3.6000
        vertex 1.0000 0.0000 3.6000
    endloop
endfacet
endsolid GiantLegoRocks
