solid GiantLegoRocks
facet normal 0.0000 281.6000 0.0000
    outer loop
        vertex 16.0000 12.8000 4.0000
        vertex 14.0800 12.8000 2.4000
        vertex -14.0800 12.8000 2.4000
    endloop
endfacet
facet normal 0.0000 320.0000 0.0000
    outer loop
        vertex -14.0800 12.8000 2.4000
        vertex -16.0000 12.8000 4.0000
        vertex 16.0000 12.8000 4.0000
    endloop
endfacet
facet normal 0.0000 192.0000 0.0000
    outer loop
        vertex -8.0000 12.8000 -4.0000
        vertex -9.6000 12.8000 -2.4000
        vertex 9.6000 12.8000 -2.4000
    endloop
endfacet
facet normal 0.0000 160.0000 0.0000
    outer loop
        vertex 9.6000 12.8000 -2.4000
        vertex 8.0000 12.8000 -4.0000
        vertex -8.0000 12.8000 -4.0000
    endloop
endfacet
facet normal 0.0000 205.7376 40.9104
    outer loop
        vertex 9.6000 1.9409 0.6855
        vertex -9.6000 1.9409 0.6855
        vertex -9.6000 1.6000 2.4000
    endloop
endfacet
facet normal 0.0000 205.7376 40.9104
    outer loop
        vertex -9.6000 1.6000 2.4000
        vertex 9.6000 1.6000 2.4000
        vertex 9.6000 1.9409 0.6855
    endloop
endfacet
facet normal 0.0000 0.0000 -1344.0000
    outer loop
        vertex 14.0800 12.8000 2.4000
        vertex 9.6000 1.6000 2.4000
        vertex -9.6000 1.6000 2.4000
    endloop
endfacet
facet normal 0.0000 0.0000 -1971.2000
    outer loop
        vertex -9.6000 1.6000 2.4000
        vertex -14.0800 12.8000 2.4000
        vertex 14.0800 12.8000 2.4000
    endloop
endfacet
facet normal 0.0000 0.0000 576.0000
    outer loop
        vertex -9.6000 8.0000 -2.4000
        vertex 9.6000 8.0000 -2.4000
        vertex 9.6000 12.8000 -2.4000
    endloop
endfacet
facet normal 0.0000 0.0000 576.0000
    outer loop
        vertex 9.6000 12.8000 -2.4000
        vertex -9.6000 12.8000 -2.4000
        vertex -9.6000 8.0000 -2.4000
    endloop
endfacet
facet normal 0.0000 79.3104 436.1376
    outer loop
        vertex 9.6000 4.3655 -1.7391
        vertex 9.6000 8.0000 -2.4000
        vertex -9.6000 8.0000 -2.4000
    endloop
endfacet
facet normal 0.0000 79.3104 436.1376
    outer loop
        vertex -9.6000 8.0000 -2.4000
        vertex -9.6000 4.3655 -1.7391
        vertex 9.6000 4.3655 -1.7391
    endloop
endfacet
facet normal 0.0000 116.5536 174.3984
    outer loop
        vertex 9.6000 4.3655 -1.7391
        vertex -9.6000 4.3655 -1.7391
        vertex -9.6000 2.9122 -0.7678
    endloop
endfacet
facet normal 0.0000 116.5536 174.3984
    outer loop
        vertex -9.6000 2.9122 -0.7678
        vertex 9.6000 2.9122 -0.7678
        vertex 9.6000 4.3655 -1.7391
    endloop
endfacet
facet normal 0.0000 174.3984 116.5536
    outer loop
        vertex 9.6000 2.9122 -0.7678
        vertex -9.6000 2.9122 -0.7678
        vertex -9.6000 1.9409 0.6855
    endloop
endfacet
facet normal 0.0000 174.3984 116.5536
    outer loop
        vertex -9.6000 1.9409 0.6855
        vertex 9.6000 1.9409 0.6855
        vertex 9.6000 2.9122 -0.7678
    endloop
endfacet
facet normal 0.0000 30.0000 0.0000
    outer loop
        vertex 0.5000 10.4000 -2.4000
        vertex -0.5000 10.4000 -2.4000
        vertex -0.5000 10.4000 2.4000
    endloop
endfacet
facet normal 0.0000 30.0000 0.0000
    outer loop
        vertex -0.5000 10.4000 2.4000
        vertex 0.5000 10.4000 2.4000
        vertex 0.5000 10.4000 -2.4000
    endloop
endfacet
facet normal 264.0000 0.0000 0.0000
    outer loop
        vertex 0.5000 10.4000 2.4000
        vertex 0.5000 1.6000 2.4000
        vertex 0.5000 8.0000 -2.4000
    endloop
endfacet
facet normal 72.0000 0.0000 0.0000
    outer loop
        vertex 0.5000 8.0000 -2.4000
        vertex 0.5000 10.4000 -2.4000
        vertex 0.5000 10.4000 2.4000
    endloop
endfacet
facet normal -72.0000 0.0000 0.0000
    outer loop
        vertex -0.5000 10.4000 -2.4000
        vertex -0.5000 8.0000 -2.4000
        vertex -0.5000 1.6000 2.4000
    endloop
endfacet
facet normal -264.0000 0.0000 0.0000
    outer loop
        vertex -0.5000 1.6000 2.4000
        vertex -0.5000 10.4000 2.4000
        vertex -0.5000 10.4000 -2.4000
    endloop
endfacet
facet normal -7.3111 0.0000 0.0000
    outer loop
        vertex -0.5000 2.9122 -0.7678
        vertex -0.5000 1.9409 0.6855
        vertex -0.5000 1.6000 2.4000
    endloop
endfacet
facet normal -20.8082 0.0000 0.0000
    outer loop
        vertex -0.5000 1.6000 2.4000
        vertex -0.5000 4.3655 -1.7391
        vertex -0.5000 2.9122 -0.7678
    endloop
endfacet
facet normal 7.3111 0.0000 0.0000
    outer loop
        vertex 0.5000 1.6000 2.4000
        vertex 0.5000 1.9409 0.6855
        vertex 0.5000 2.9122 -0.7678
    endloop
endfacet
facet normal 20.8082 0.0000 0.0000
    outer loop
        vertex 0.5000 2.9122 -0.7678
        vertex 0.5000 4.3655 -1.7391
        vertex 0.5000 1.6000 2.4000
    endloop
endfacet
facet normal 82.5976 0.0000 0.0000
    outer loop
        vertex 0.5000 8.0000 -2.4000
        vertex 0.5000 1.6000 2.4000
        vertex 0.5000 4.3655 -1.7391
    endloop
endfacet
facet normal -82.5976 0.0000 0.0000
    outer loop
        vertex -0.5000 8.0000 -2.4000
        vertex -0.5000 4.3655 -1.7391
        vertex -0.5000 1.6000 2.4000
    endloop
endfacet
facet normal 0.0000 9.6800 0.0000
    outer loop
        vertex 6.8800 12.7200 -2.4000
        vertex 5.1200 12.7200 -2.4000
        vertex 6.0000 12.7200 -1.5200
    endloop
endfacet
facet normal 3.6225 0.0000 3.6225
    outer loop
        vertex 6.8800 8.0000 -2.4000
        vertex 6.0000 4.0377 -1.5200
        vertex 6.2191 4.3655 -1.7391
    endloop
endfacet
facet normal -3.6225 0.0000 3.6225
    outer loop
        vertex 6.0000 4.0377 -1.5200
        vertex 5.1200 8.0000 -2.4000
        vertex 5.7809 4.3655 -1.7391
    endloop
endfacet
facet normal 25.9600 0.0000 25.9600
    outer loop
        vertex 6.8800 8.0000 -2.4000
        vertex 6.8800 12.7200 -2.4000
        vertex 6.0000 12.7200 -1.5200
    endloop
endfacet
facet normal 47.7525 0.0000 47.7525
    outer loop
        vertex 6.0000 12.7200 -1.5200
        vertex 6.0000 4.0377 -1.5200
        vertex 6.8800 8.0000 -2.4000
    endloop
endfacet
facet normal -25.9600 0.0000 25.9600
    outer loop
        vertex 5.1200 12.7200 -2.4000
        vertex 5.1200 8.0000 -2.4000
        vertex 6.0000 4.0377 -1.5200
    endloop
endfacet
facet normal -47.7525 0.0000 47.7525
    outer loop
        vertex 6.0000 4.0377 -1.5200
        vertex 6.0000 12.7200 -1.5200
        vertex 5.1200 12.7200 -2.4000
    endloop
endfacet
facet normal 0.0000 9.6800 0.0000
    outer loop
        vertex 2.8800 12.7200 -2.4000
        vertex 1.1200 12.7200 -2.4000
        vertex 2.0000 12.7200 -1.5200
    endloop
endfacet
facet normal 3.6225 0.0000 3.6225
    outer loop
        vertex 2.8800 8.0000 -2.4000
        vertex 2.0000 4.0377 -1.5200
        vertex 2.2191 4.3655 -1.7391
    endloop
endfacet
facet normal -3.6225 0.0000 3.6225
    outer loop
        vertex 2.0000 4.0377 -1.5200
        vertex 1.1200 8.0000 -2.4000
        vertex 1.7809 4.3655 -1.7391
    endloop
endfacet
facet normal 25.9600 0.0000 25.9600
    outer loop
        vertex 2.8800 8.0000 -2.4000
        vertex 2.8800 12.7200 -2.4000
        vertex 2.0000 12.7200 -1.5200
    endloop
endfacet
facet normal 47.7525 0.0000 47.7525
    outer loop
        vertex 2.0000 12.7200 -1.5200
        vertex 2.0000 4.0377 -1.5200
        vertex 2.8800 8.0000 -2.4000
    endloop
endfacet
facet normal -25.9600 0.0000 25.9600
    outer loop
        vertex 1.1200 12.7200 -2.4000
        vertex 1.1200 8.0000 -2.4000
        vertex 2.0000 4.0377 -1.5200
    endloop
endfacet
facet normal -47.7525 0.0000 47.7525
    outer loop
        vertex 2.0000 4.0377 -1.5200
        vertex 2.0000 12.7200 -1.5200
        vertex 1.1200 12.7200 -2.4000
    endloop
endfacet
facet normal 0.0000 9.6800 0.0000
    outer loop
        vertex -1.1200 12.7200 -2.4000
        vertex -2.8800 12.7200 -2.4000
        vertex -2.0000 12.7200 -1.5200
    endloop
endfacet
facet normal 3.6225 0.0000 3.6225
    outer loop
        vertex -1.1200 8.0000 -2.4000
        vertex -2.0000 4.0377 -1.5200
        vertex -1.7809 4.3655 -1.7391
    endloop
endfacet
facet normal -3.6225 0.0000 3.6225
    outer loop
        vertex -2.0000 4.0377 -1.5200
        vertex -2.8800 8.0000 -2.4000
        vertex -2.2191 4.3655 -1.7391
    endloop
endfacet
facet normal 25.9600 0.0000 25.9600
    outer loop
        vertex -1.1200 8.0000 -2.4000
        vertex -1.1200 12.7200 -2.4000
        vertex -2.0000 12.7200 -1.5200
    endloop
endfacet
facet normal 47.7525 0.0000 47.7525
    outer loop
        vertex -2.0000 12.7200 -1.5200
        vertex -2.0000 4.0377 -1.5200
        vertex -1.1200 8.0000 -2.4000
    endloop
endfacet
facet normal -25.9600 0.0000 25.9600
    outer loop
        vertex -2.8800 12.7200 -2.4000
        vertex -2.8800 8.0000 -2.4000
        vertex -2.0000 4.0377 -1.5200
    endloop
endfacet
facet normal -47.7525 0.0000 47.7525
    outer loop
        vertex -2.0000 4.0377 -1.5200
        vertex -2.0000 12.7200 -1.5200
        vertex -2.8800 12.7200 -2.4000
    endloop
endfacet
facet normal 0.0000 9.6800 0.0000
    outer loop
        vertex -5.1200 12.7200 -2.4000
        vertex -6.8800 12.7200 -2.4000
        vertex -6.0000 12.7200 -1.5200
    endloop
endfacet
facet normal 3.6225 0.0000 3.6225
    outer loop
        vertex -5.1200 8.0000 -2.4000
        vertex -6.0000 4.0377 -1.5200
        vertex -5.7809 4.3655 -1.7391
    endloop
endfacet
facet normal -3.6225 0.0000 3.6225
    outer loop
        vertex -6.0000 4.0377 -1.5200
        vertex -6.8800 8.0000 -2.4000
        vertex -6.2191 4.3655 -1.7391
    endloop
endfacet
facet normal 25.9600 0.0000 25.9600
    outer loop
        vertex -5.1200 8.0000 -2.4000
        vertex -5.1200 12.7200 -2.4000
        vertex -6.0000 12.7200 -1.5200
    endloop
endfacet
facet normal 47.7525 0.0000 47.7525
    outer loop
        vertex -6.0000 12.7200 -1.5200
        vertex -6.0000 4.0377 -1.5200
        vertex -5.1200 8.0000 -2.4000
    endloop
endfacet
facet normal -25.9600 0.0000 25.9600
    outer loop
        vertex -6.8800 12.7200 -2.4000
        vertex -6.8800 8.0000 -2.4000
        vertex -6.0000 4.0377 -1.5200
    endloop
endfacet
facet normal -47.7525 0.0000 47.7525
    outer loop
        vertex -6.0000 4.0377 -1.5200
        vertex -6.0000 12.7200 -1.5200
        vertex -6.8800 12.7200 -2.4000
    endloop
endfacet
facet normal -58.1285 0.0000 -60.2312
    outer loop
        vertex 5.1200 12.7200 2.4000
        vertex 6.0000 12.7200 1.5507
        vertex 6.0000 1.7689 1.5507
    endloop
endfacet
facet normal -59.0250 0.0000 -61.1600
    outer loop
        vertex 6.0000 1.7689 1.5507
        vertex 5.1200 1.6000 2.4000
        vertex 5.1200 12.7200 2.4000
    endloop
endfacet
facet normal 58.1285 0.0000 -60.2312
    outer loop
        vertex 6.8800 1.6000 2.4000
        vertex 6.0000 1.7689 1.5507
        vertex 6.0000 12.7200 1.5507
    endloop
endfacet
facet normal 59.0250 0.0000 -61.1600
    outer loop
        vertex 6.0000 12.7200 1.5507
        vertex 6.8800 12.7200 2.4000
        vertex 6.8800 1.6000 2.4000
    endloop
endfacet
facet normal 0.0000 9.3421 0.0000
    outer loop
        vertex 6.8800 12.7200 2.4000
        vertex 6.0000 12.7200 1.5507
        vertex 5.1200 12.7200 2.4000
    endloop
endfacet
facet normal -58.1285 0.0000 -60.2312
    outer loop
        vertex 1.1200 12.7200 2.4000
        vertex 2.0000 12.7200 1.5507
        vertex 2.0000 1.7689 1.5507
    endloop
endfacet
facet normal -59.0250 0.0000 -61.1600
    outer loop
        vertex 2.0000 1.7689 1.5507
        vertex 1.1200 1.6000 2.4000
        vertex 1.1200 12.7200 2.4000
    endloop
endfacet
facet normal 58.1285 0.0000 -60.2312
    outer loop
        vertex 2.8800 1.6000 2.4000
        vertex 2.0000 1.7689 1.5507
        vertex 2.0000 12.7200 1.5507
    endloop
endfacet
facet normal 59.0250 0.0000 -61.1600
    outer loop
        vertex 2.0000 12.7200 1.5507
        vertex 2.8800 12.7200 2.4000
        vertex 2.8800 1.6000 2.4000
    endloop
endfacet
facet normal 0.0000 9.3421 0.0000
    outer loop
        vertex 2.8800 12.7200 2.4000
        vertex 2.0000 12.7200 1.5507
        vertex 1.1200 12.7200 2.4000
    endloop
endfacet
facet normal -58.1285 0.0000 -60.2312
    outer loop
        vertex -2.8800 12.7200 2.4000
        vertex -2.0000 12.7200 1.5507
        vertex -2.0000 1.7689 1.5507
    endloop
endfacet
facet normal -59.0250 0.0000 -61.1600
    outer loop
        vertex -2.0000 1.7689 1.5507
        vertex -2.8800 1.6000 2.4000
        vertex -2.8800 12.7200 2.4000
    endloop
endfacet
facet normal 58.1285 0.0000 -60.2312
    outer loop
        vertex -1.1200 1.6000 2.4000
        vertex -2.0000 1.7689 1.5507
        vertex -2.0000 12.7200 1.5507
    endloop
endfacet
facet normal 59.0250 0.0000 -61.1600
    outer loop
        vertex -2.0000 12.7200 1.5507
        vertex -1.1200 12.7200 2.4000
        vertex -1.1200 1.6000 2.4000
    endloop
endfacet
facet normal 0.0000 9.3421 0.0000
    outer loop
        vertex -1.1200 12.7200 2.4000
        vertex -2.0000 12.7200 1.5507
        vertex -2.8800 12.7200 2.4000
    endloop
endfacet
facet normal -58.1285 0.0000 -60.2312
    outer loop
        vertex -6.8800 12.7200 2.4000
        vertex -6.0000 12.7200 1.5507
        vertex -6.0000 1.7689 1.5507
    endloop
endfacet
facet normal -59.0250 0.0000 -61.1600
    outer loop
        vertex -6.0000 1.7689 1.5507
        vertex -6.8800 1.6000 2.4000
        vertex -6.8800 12.7200 2.4000
    endloop
endfacet
facet normal 58.1285 0.0000 -60.2312
    outer loop
        vertex -5.1200 1.6000 2.4000
        vertex -6.0000 1.7689 1.5507
        vertex -6.0000 12.7200 1.5507
    endloop
endfacet
facet normal 59.0250 0.0000 -61.1600
    outer loop
        vertex -6.0000 12.7200 1.5507
        vertex -5.1200 12.7200 2.4000
        vertex -5.1200 1.6000 2.4000
    endloop
endfacet
facet normal 0.0000 9.3421 0.0000
    outer loop
        vertex -5.1200 12.7200 2.4000
        vertex -6.0000 12.7200 1.5507
        vertex -6.8800 12.7200 2.4000
    endloop
endfacet
facet normal 32.1456 30.0000 2.3397
    outer loop
        vertex 13.8999 12.8000 1.4942
        vertex 15.0165 12.8000 0.3776
        vertex 15.0165 11.2000 0.3776
    endloop
endfacet
facet normal 32.1456 30.0000 2.3397
    outer loop
        vertex 15.0165 11.2000 0.3776
        vertex 13.8999 11.2000 1.4942
        vertex 13.8999 12.8000 1.4942
    endloop
endfacet
facet normal 31.7965 30.0000 -6.2817
    outer loop
        vertex 11.6224 11.2000 -3.0165
        vertex 11.6224 12.8000 -3.0165
        vertex 10.6148 12.8000 -2.0088
    endloop
endfacet
facet normal 31.7965 30.0000 -6.2817
    outer loop
        vertex 10.6148 12.8000 -2.0088
        vertex 10.6148 11.2000 -2.0088
        vertex 11.6224 11.2000 -3.0165
    endloop
endfacet
facet normal 0.0000 0.0000 -7.3111
    outer loop
        vertex 12.7678 2.9122 2.4000
        vertex 11.3145 1.9409 2.4000
        vertex 9.6000 1.6000 2.4000
    endloop
endfacet
facet normal 0.0000 0.0000 -20.8082
    outer loop
        vertex 9.6000 1.6000 2.4000
        vertex 13.7391 4.3655 2.4000
        vertex 12.7678 2.9122 2.4000
    endloop
endfacet
facet normal 0.0000 0.0000 -38.4597
    outer loop
        vertex 14.0800 6.0800 2.4000
        vertex 13.7391 4.3655 2.4000
        vertex 9.6000 1.6000 2.4000
    endloop
endfacet
facet normal 0.0000 0.0000 -188.1600
    outer loop
        vertex 9.6000 1.6000 2.4000
        vertex 14.0800 12.8000 2.4000
        vertex 14.0800 6.0800 2.4000
    endloop
endfacet
facet normal -0.2780 7.0307 1.3980
    outer loop
        vertex 9.6000 1.6000 2.4000
        vertex 10.2561 1.9409 0.8160
        vertex 9.6000 1.9409 0.6855
    endloop
endfacet
facet normal -0.7920 7.0305 1.1851
    outer loop
        vertex 9.6000 1.6000 2.4000
        vertex 10.8123 1.9409 1.1877
        vertex 10.2561 1.9409 0.8160
    endloop
endfacet
facet normal -1.1851 7.0305 0.7920
    outer loop
        vertex 9.6000 1.6000 2.4000
        vertex 11.1840 1.9409 1.7439
        vertex 10.8123 1.9409 1.1877
    endloop
endfacet
facet normal -1.3980 7.0307 0.2780
    outer loop
        vertex 9.6000 1.6000 2.4000
        vertex 11.3145 1.9409 2.4000
        vertex 11.1840 1.9409 1.7439
    endloop
endfacet
facet normal -0.7921 5.9597 3.9830
    outer loop
        vertex 9.6000 1.9409 0.6855
        vertex 10.2561 1.9409 0.8160
        vertex 10.8123 2.9122 -0.5267
    endloop
endfacet
facet normal -1.4635 11.0118 7.3594
    outer loop
        vertex 10.8123 2.9122 -0.5267
        vertex 9.6000 2.9122 -0.7678
        vertex 9.6000 1.9409 0.6855
    endloop
endfacet
facet normal -4.1687 11.0116 6.2385
    outer loop
        vertex 10.8123 1.9409 1.1877
        vertex 11.8400 2.9122 0.1600
        vertex 10.8123 2.9122 -0.5267
    endloop
endfacet
facet normal -2.2563 5.9597 3.3764
    outer loop
        vertex 10.8123 2.9122 -0.5267
        vertex 10.2561 1.9409 0.8160
        vertex 10.8123 1.9409 1.1877
    endloop
endfacet
facet normal -3.3764 5.9597 2.2563
    outer loop
        vertex 10.8123 1.9409 1.1877
        vertex 11.1840 1.9409 1.7439
        vertex 12.5267 2.9122 1.1877
    endloop
endfacet
facet normal -6.2385 11.0116 4.1687
    outer loop
        vertex 12.5267 2.9122 1.1877
        vertex 11.8400 2.9122 0.1600
        vertex 10.8123 1.9409 1.1877
    endloop
endfacet
facet normal -7.3594 11.0118 1.4635
    outer loop
        vertex 11.3145 1.9409 2.4000
        vertex 12.7678 2.9122 2.4000
        vertex 12.5267 2.9122 1.1877
    endloop
endfacet
facet normal -3.9830 5.9597 0.7921
    outer loop
        vertex 12.5267 2.9122 1.1877
        vertex 11.1840 1.9409 1.7439
        vertex 11.3145 1.9409 2.4000
    endloop
endfacet
facet normal -2.1898 7.3594 11.0118
    outer loop
        vertex 9.6000 4.3655 -1.7391
        vertex 9.6000 2.9122 -0.7678
        vertex 10.8123 2.9122 -0.5267
    endloop
endfacet
facet normal -2.8612 9.6159 14.3882
    outer loop
        vertex 10.8123 2.9122 -0.5267
        vertex 11.1840 4.3655 -1.4241
        vertex 9.6000 4.3655 -1.7391
    endloop
endfacet
facet normal -8.1506 9.6153 12.1963
    outer loop
        vertex 12.5268 4.3655 -0.5268
        vertex 11.1840 4.3655 -1.4241
        vertex 10.8123 2.9122 -0.5267
    endloop
endfacet
facet normal -6.2376 7.3586 9.3347
    outer loop
        vertex 10.8123 2.9122 -0.5267
        vertex 11.8400 2.9122 0.1600
        vertex 12.5268 4.3655 -0.5268
    endloop
endfacet
facet normal -9.3347 7.3586 6.2376
    outer loop
        vertex 12.5268 4.3655 -0.5268
        vertex 11.8400 2.9122 0.1600
        vertex 12.5267 2.9122 1.1877
    endloop
endfacet
facet normal -12.1963 9.6153 8.1506
    outer loop
        vertex 12.5267 2.9122 1.1877
        vertex 13.4241 4.3655 0.8160
        vertex 12.5268 4.3655 -0.5268
    endloop
endfacet
facet normal -14.3882 9.6159 2.8612
    outer loop
        vertex 13.7391 4.3655 2.4000
        vertex 13.4241 4.3655 0.8160
        vertex 12.5267 2.9122 1.1877
    endloop
endfacet
facet normal -11.0118 7.3594 2.1898
    outer loop
        vertex 12.5267 2.9122 1.1877
        vertex 12.7678 2.9122 2.4000
        vertex 13.7391 4.3655 2.4000
    endloop
endfacet
facet normal -10.4078 3.6527 15.5731
    outer loop
        vertex 12.5268 4.3655 -0.5268
        vertex 12.7678 6.0800 -0.7678
        vertex 11.3145 6.0800 -1.7391
    endloop
endfacet
facet normal -9.6152 3.3750 14.3879
    outer loop
        vertex 11.3145 6.0800 -1.7391
        vertex 11.1840 4.3655 -1.4241
        vertex 12.5268 4.3655 -0.5268
    endloop
endfacet
facet normal -14.3879 3.3750 9.6152
    outer loop
        vertex 12.5268 4.3655 -0.5268
        vertex 13.4241 4.3655 0.8160
        vertex 13.7391 6.0800 0.6855
    endloop
endfacet
facet normal -15.5731 3.6527 10.4078
    outer loop
        vertex 13.7391 6.0800 0.6855
        vertex 12.7678 6.0800 -0.7678
        vertex 12.5268 4.3655 -0.5268
    endloop
endfacet
facet normal -18.3715 3.6531 3.6531
    outer loop
        vertex 13.7391 4.3655 2.4000
        vertex 14.0800 6.0800 2.4000
        vertex 13.7391 6.0800 0.6855
    endloop
endfacet
facet normal -16.9738 3.3754 3.3754
    outer loop
        vertex 13.7391 6.0800 0.6855
        vertex 13.4241 4.3655 0.8160
        vertex 13.7391 4.3655 2.4000
    endloop
endfacet
facet normal -31.0810 0.0000 46.5062
    outer loop
        vertex 12.7678 11.2000 -0.7678
        vertex 11.3145 11.2000 -1.7391
        vertex 11.3145 6.0800 -1.7391
    endloop
endfacet
facet normal -31.0810 0.0000 46.5062
    outer loop
        vertex 11.3145 6.0800 -1.7391
        vertex 12.7678 6.0800 -0.7678
        vertex 12.7678 11.2000 -0.7678
    endloop
endfacet
facet normal -46.5062 0.0000 31.0810
    outer loop
        vertex 12.7678 11.2000 -0.7678
        vertex 12.7678 6.0800 -0.7678
        vertex 13.7391 6.0800 0.6855
    endloop
endfacet
facet normal -46.5062 0.0000 31.0810
    outer loop
        vertex 13.7391 6.0800 0.6855
        vertex 13.7391 11.2000 0.6855
        vertex 12.7678 11.2000 -0.7678
    endloop
endfacet
facet normal -25.8768 0.0000 5.1466
    outer loop
        vertex 13.8999 11.2000 1.4942
        vertex 13.7391 11.2000 0.6855
        vertex 13.7391 6.0800 0.6855
    endloop
endfacet
facet normal -54.8634 0.0003 10.9094
    outer loop
        vertex 13.7391 6.0800 0.6855
        vertex 14.0800 6.0800 2.4000
        vertex 13.8999 11.2000 1.4942
    endloop
endfacet
facet normal -9.0583 0.0000 1.8009
    outer loop
        vertex 13.8999 12.8000 1.4942
        vertex 13.8999 11.2000 1.4942
        vertex 14.0800 6.0800 2.4000
    endloop
endfacet
facet normal -38.0449 0.0000 7.5638
    outer loop
        vertex 14.0800 6.0800 2.4000
        vertex 14.0800 12.8000 2.4000
        vertex 13.8999 12.8000 1.4942
    endloop
endfacet
facet normal 0.0000 5.8920 0.0000
    outer loop
        vertex 10.6147 12.8000 -2.0088
        vertex 11.6224 12.8000 -3.0165
        vertex 11.0616 12.8000 -3.3912
    endloop
endfacet
facet normal 0.0000 9.8597 0.0000
    outer loop
        vertex 9.6000 12.8000 -2.4000
        vertex 10.6147 12.8000 -2.0088
        vertex 11.0616 12.8000 -3.3912
    endloop
endfacet
facet normal 0.0000 24.5280 0.0000
    outer loop
        vertex 11.0616 12.8000 -3.3912
        vertex 8.0000 12.8000 -4.0000
        vertex 9.6000 12.8000 -2.4000
    endloop
endfacet
facet normal 0.0000 30.6512 0.0000
    outer loop
        vertex 14.0800 12.8000 2.4000
        vertex 16.0000 12.8000 4.0000
        vertex 15.3912 12.8000 0.9384
    endloop
endfacet
facet normal 0.0000 9.0684 0.0000
    outer loop
        vertex 15.3912 12.8000 0.9384
        vertex 13.8999 12.8000 1.4942
        vertex 14.0800 12.8000 2.4000
    endloop
endfacet
facet normal 0.0000 6.5289 0.0000
    outer loop
        vertex 15.3912 12.8000 0.9384
        vertex 15.0165 12.8000 0.3776
        vertex 13.8999 12.8000 1.4942
    endloop
endfacet
facet normal 0.0000 6.1059 0.0000
    outer loop
        vertex 10.6147 11.2000 -2.0088
        vertex 11.3145 11.2000 -1.7391
        vertex 11.6224 11.2000 -3.0165
    endloop
endfacet
facet normal 0.0000 18.8584 0.0000
    outer loop
        vertex 12.7678 11.2000 -0.7678
        vertex 13.6568 11.2000 -1.6568
        vertex 11.6224 11.2000 -3.0165
    endloop
endfacet
facet normal 0.0000 13.4729 0.0000
    outer loop
        vertex 11.6224 11.2000 -3.0165
        vertex 11.3145 11.2000 -1.7391
        vertex 12.7678 11.2000 -0.7678
    endloop
endfacet
facet normal 0.0000 6.7659 0.0000
    outer loop
        vertex 13.8999 11.2000 1.4942
        vertex 15.0165 11.2000 0.3776
        vertex 13.7391 11.2000 0.6855
    endloop
endfacet
facet normal 0.0000 13.4729 0.0000
    outer loop
        vertex 12.7678 11.2000 -0.7678
        vertex 13.7391 11.2000 0.6855
        vertex 15.0165 11.2000 0.3776
    endloop
endfacet
facet normal 0.0000 18.8584 0.0000
    outer loop
        vertex 15.0165 11.2000 0.3776
        vertex 13.6568 11.2000 -1.6568
        vertex 12.7678 11.2000 -0.7678
    endloop
endfacet
facet normal -3.3754 3.3754 16.9738
    outer loop
        vertex 9.6000 4.3655 -1.7391
        vertex 11.1840 4.3655 -1.4241
        vertex 11.3145 6.0800 -1.7391
    endloop
endfacet
facet normal -7.0821 7.0821 38.9453
    outer loop
        vertex 9.6000 8.0000 -2.4000
        vertex 9.6000 4.3655 -1.7391
        vertex 11.3145 6.0800 -1.7391
    endloop
endfacet
facet normal -3.9117 0.0000 10.1475
    outer loop
        vertex 10.6147 11.2000 -2.0088
        vertex 10.6147 12.8000 -2.0088
        vertex 9.6000 12.8000 -2.4000
    endloop
endfacet
facet normal -11.7351 0.0000 30.4425
    outer loop
        vertex 9.6000 12.8000 -2.4000
        vertex 9.6000 8.0000 -2.4000
        vertex 10.6147 11.2000 -2.0088
    endloop
endfacet
facet normal -17.9124 0.0001 46.4666
    outer loop
        vertex 10.6147 11.2000 -2.0088
        vertex 9.6000 8.0000 -2.4000
        vertex 11.3145 6.0800 -1.7391
    endloop
endfacet
facet normal -8.6320 0.0000 22.3914
    outer loop
        vertex 11.3145 6.0800 -1.7391
        vertex 11.3145 11.2000 -1.7391
        vertex 10.6147 11.2000 -2.0088
    endloop
endfacet
facet normal -58.5630 0.0000 -60.6813
    outer loop
        vertex 9.1200 12.7200 2.4000
        vertex 10.0000 12.7200 1.5507
        vertex 10.0000 1.6870 1.5507
    endloop
endfacet
facet normal -59.0250 0.0000 -61.1600
    outer loop
        vertex 10.0000 1.6870 1.5507
        vertex 9.1200 1.6000 2.4000
        vertex 9.1200 12.7200 2.4000
    endloop
endfacet
facet normal 58.5630 0.0000 -60.6813
    outer loop
        vertex 10.8800 1.8545 2.4000
        vertex 10.0000 1.6870 1.5507
        vertex 10.0000 12.7200 1.5507
    endloop
endfacet
facet normal 57.6740 0.0000 -59.7601
    outer loop
        vertex 10.0000 12.7200 1.5507
        vertex 10.8800 12.7200 2.4000
        vertex 10.8800 1.8545 2.4000
    endloop
endfacet
facet normal 0.0000 9.3421 0.0000
    outer loop
        vertex 9.1200 12.7200 2.4000
        vertex 10.8800 12.7200 2.4000
        vertex 10.0000 12.7200 1.5507
    endloop
endfacet
facet normal -32.1456 30.0000 2.3397
    outer loop
        vertex -15.0165 11.2000 0.3776
        vertex -15.0165 12.8000 0.3776
        vertex -13.8999 12.8000 1.4942
    endloop
endfacet
facet normal -32.1456 30.0000 2.3397
    outer loop
        vertex -13.8999 12.8000 1.4942
        vertex -13.8999 11.2000 1.4942
        vertex -15.0165 11.2000 0.3776
    endloop
endfacet
facet normal -31.7965 30.0000 -6.2817
    outer loop
        vertex -10.6148 12.8000 -2.0088
        vertex -11.6224 12.8000 -3.0165
        vertex -11.6224 11.2000 -3.0165
    endloop
endfacet
facet normal -31.7965 30.0000 -6.2817
    outer loop
        vertex -11.6224 11.2000 -3.0165
        vertex -10.6148 11.2000 -2.0088
        vertex -10.6148 12.8000 -2.0088
    endloop
endfacet
facet normal 0.0000 0.0000 -7.3111
    outer loop
        vertex -9.6000 1.6000 2.4000
        vertex -11.3145 1.9409 2.4000
        vertex -12.7678 2.9122 2.4000
    endloop
endfacet
facet normal 0.0000 0.0000 -20.8082
    outer loop
        vertex -12.7678 2.9122 2.4000
        vertex -13.7391 4.3655 2.4000
        vertex -9.6000 1.6000 2.4000
    endloop
endfacet
facet normal 0.0000 0.0000 -38.4597
    outer loop
        vertex -9.6000 1.6000 2.4000
        vertex -13.7391 4.3655 2.4000
        vertex -14.0800 6.0800 2.4000
    endloop
endfacet
facet normal 0.0000 0.0000 -188.1600
    outer loop
        vertex -14.0800 6.0800 2.4000
        vertex -14.0800 12.8000 2.4000
        vertex -9.6000 1.6000 2.4000
    endloop
endfacet
facet normal 0.2780 7.0307 1.3980
    outer loop
        vertex -9.6000 1.9409 0.6855
        vertex -10.2561 1.9409 0.8160
        vertex -9.6000 1.6000 2.4000
    endloop
endfacet
facet normal 0.7920 7.0305 1.1851
    outer loop
        vertex -10.2561 1.9409 0.8160
        vertex -10.8123 1.9409 1.1877
        vertex -9.6000 1.6000 2.4000
    endloop
endfacet
facet normal 1.1851 7.0305 0.7920
    outer loop
        vertex -10.8123 1.9409 1.1877
        vertex -11.1840 1.9409 1.7439
        vertex -9.6000 1.6000 2.4000
    endloop
endfacet
facet normal 1.3980 7.0307 0.2780
    outer loop
        vertex -11.1840 1.9409 1.7439
        vertex -11.3145 1.9409 2.4000
        vertex -9.6000 1.6000 2.4000
    endloop
endfacet
facet normal 0.7921 5.9597 3.9830
    outer loop
        vertex -10.8123 2.9122 -0.5267
        vertex -10.2561 1.9409 0.8160
        vertex -9.6000 1.9409 0.6855
    endloop
endfacet
facet normal 1.4635 11.0118 7.3594
    outer loop
        vertex -9.6000 1.9409 0.6855
        vertex -9.6000 2.9122 -0.7678
        vertex -10.8123 2.9122 -0.5267
    endloop
endfacet
facet normal 4.1687 11.0116 6.2385
    outer loop
        vertex -10.8123 2.9122 -0.5267
        vertex -11.8400 2.9122 0.1600
        vertex -10.8123 1.9409 1.1877
    endloop
endfacet
facet normal 2.2563 5.9597 3.3764
    outer loop
        vertex -10.8123 1.9409 1.1877
        vertex -10.2561 1.9409 0.8160
        vertex -10.8123 2.9122 -0.5267
    endloop
endfacet
facet normal 3.3764 5.9597 2.2563
    outer loop
        vertex -12.5267 2.9122 1.1877
        vertex -11.1840 1.9409 1.7439
        vertex -10.8123 1.9409 1.1877
    endloop
endfacet
facet normal 6.2385 11.0116 4.1687
    outer loop
        vertex -10.8123 1.9409 1.1877
        vertex -11.8400 2.9122 0.1600
        vertex -12.5267 2.9122 1.1877
    endloop
endfacet
facet normal 7.3594 11.0118 1.4635
    outer loop
        vertex -12.5267 2.9122 1.1877
        vertex -12.7678 2.9122 2.4000
        vertex -11.3145 1.9409 2.4000
    endloop
endfacet
facet normal 3.9830 5.9597 0.7921
    outer loop
        vertex -11.3145 1.9409 2.4000
        vertex -11.1840 1.9409 1.7439
        vertex -12.5267 2.9122 1.1877
    endloop
endfacet
facet normal 2.1898 7.3594 11.0118
    outer loop
        vertex -10.8123 2.9122 -0.5267
        vertex -9.6000 2.9122 -0.7678
        vertex -9.6000 4.3655 -1.7391
    endloop
endfacet
facet normal 2.8612 9.6159 14.3882
    outer loop
        vertex -9.6000 4.3655 -1.7391
        vertex -11.1840 4.3655 -1.4241
        vertex -10.8123 2.9122 -0.5267
    endloop
endfacet
facet normal 8.1506 9.6153 12.1963
    outer loop
        vertex -10.8123 2.9122 -0.5267
        vertex -11.1840 4.3655 -1.4241
        vertex -12.5268 4.3655 -0.5268
    endloop
endfacet
facet normal 6.2376 7.3586 9.3347
    outer loop
        vertex -12.5268 4.3655 -0.5268
        vertex -11.8400 2.9122 0.1600
        vertex -10.8123 2.9122 -0.5267
    endloop
endfacet
facet normal 9.3347 7.3586 6.2376
    outer loop
        vertex -12.5267 2.9122 1.1877
        vertex -11.8400 2.9122 0.1600
        vertex -12.5268 4.3655 -0.5268
    endloop
endfacet
facet normal 12.1963 9.6153 8.1506
    outer loop
        vertex -12.5268 4.3655 -0.5268
        vertex -13.4241 4.3655 0.8160
        vertex -12.5267 2.9122 1.1877
    endloop
endfacet
facet normal 14.3882 9.6159 2.8612
    outer loop
        vertex -12.5267 2.9122 1.1877
        vertex -13.4241 4.3655 0.8160
        vertex -13.7391 4.3655 2.4000
    endloop
endfacet
facet normal 11.0118 7.3594 2.1898
    outer loop
        vertex -13.7391 4.3655 2.4000
        vertex -12.7678 2.9122 2.4000
        vertex -12.5267 2.9122 1.1877
    endloop
endfacet
facet normal 10.4078 3.6527 15.5731
    outer loop
        vertex -11.3145 6.0800 -1.7391
        vertex -12.7678 6.0800 -0.7678
        vertex -12.5268 4.3655 -0.5268
    endloop
endfacet
facet normal 9.6152 3.3750 14.3879
    outer loop
        vertex -12.5268 4.3655 -0.5268
        vertex -11.1840 4.3655 -1.4241
        vertex -11.3145 6.0800 -1.7391
    endloop
endfacet
facet normal 14.3879 3.3750 9.6152
    outer loop
        vertex -13.7391 6.0800 0.6855
        vertex -13.4241 4.3655 0.8160
        vertex -12.5268 4.3655 -0.5268
    endloop
endfacet
facet normal 15.5731 3.6527 10.4078
    outer loop
        vertex -12.5268 4.3655 -0.5268
        vertex -12.7678 6.0800 -0.7678
        vertex -13.7391 6.0800 0.6855
    endloop
endfacet
facet normal 18.3715 3.6531 3.6531
    outer loop
        vertex -13.7391 6.0800 0.6855
        vertex -14.0800 6.0800 2.4000
        vertex -13.7391 4.3655 2.4000
    endloop
endfacet
facet normal 16.9738 3.3754 3.3754
    outer loop
        vertex -13.7391 4.3655 2.4000
        vertex -13.4241 4.3655 0.8160
        vertex -13.7391 6.0800 0.6855
    endloop
endfacet
facet normal 31.0810 0.0000 46.5062
    outer loop
        vertex -11.3145 6.0800 -1.7391
        vertex -11.3145 11.2000 -1.7391
        vertex -12.7678 11.2000 -0.7678
    endloop
endfacet
facet normal 31.0810 0.0000 46.5062
    outer loop
        vertex -12.7678 11.2000 -0.7678
        vertex -12.7678 6.0800 -0.7678
        vertex -11.3145 6.0800 -1.7391
    endloop
endfacet
facet normal 46.5062 0.0000 31.0810
    outer loop
        vertex -13.7391 6.0800 0.6855
        vertex -12.7678 6.0800 -0.7678
        vertex -12.7678 11.2000 -0.7678
    endloop
endfacet
facet normal 46.5062 0.0000 31.0810
    outer loop
        vertex -12.7678 11.2000 -0.7678
        vertex -13.7391 11.2000 0.6855
        vertex -13.7391 6.0800 0.6855
    endloop
endfacet
facet normal 25.8768 0.0000 5.1466
    outer loop
        vertex -13.7391 6.0800 0.6855
        vertex -13.7391 11.2000 0.6855
        vertex -13.8999 11.2000 1.4942
    endloop
endfacet
facet normal 54.8634 0.0003 10.9094
    outer loop
        vertex -13.8999 11.2000 1.4942
        vertex -14.0800 6.0800 2.4000
        vertex -13.7391 6.0800 0.6855
    endloop
endfacet
facet normal 9.0583 0.0000 1.8009
    outer loop
        vertex -14.0800 6.0800 2.4000
        vertex -13.8999 11.2000 1.4942
        vertex -13.8999 12.8000 1.4942
    endloop
endfacet
facet normal 38.0449 0.0000 7.5638
    outer loop
        vertex -13.8999 12.8000 1.4942
        vertex -14.0800 12.8000 2.4000
        vertex -14.0800 6.0800 2.4000
    endloop
endfacet
facet normal 0.0000 5.8920 0.0000
    outer loop
        vertex -11.0616 12.8000 -3.3912
        vertex -11.6224 12.8000 -3.0165
        vertex -10.6147 12.8000 -2.0088
    endloop
endfacet
facet normal 0.0000 6.5289 0.0000
    outer loop
        vertex -13.8999 12.8000 1.4942
        vertex -15.0165 12.8000 0.3776
        vertex -15.3912 12.8000 0.9384
    endloop
endfacet
facet normal 0.0000 9.0684 0.0000
    outer loop
        vertex -14.0800 12.8000 2.4000
        vertex -13.8999 12.8000 1.4942
        vertex -15.3912 12.8000 0.9384
    endloop
endfacet
facet normal 0.0000 30.6512 0.0000
    outer loop
        vertex -15.3912 12.8000 0.9384
        vertex -16.0000 12.8000 4.0000
        vertex -14.0800 12.8000 2.4000
    endloop
endfacet
facet normal 0.0000 6.1059 0.0000
    outer loop
        vertex -11.6224 11.2000 -3.0165
        vertex -11.3145 11.2000 -1.7391
        vertex -10.6147 11.2000 -2.0088
    endloop
endfacet
facet normal 0.0000 18.8584 0.0000
    outer loop
        vertex -11.6224 11.2000 -3.0165
        vertex -13.6568 11.2000 -1.6568
        vertex -12.7678 11.2000 -0.7678
    endloop
endfacet
facet normal 0.0000 13.4729 0.0000
    outer loop
        vertex -12.7678 11.2000 -0.7678
        vertex -11.3145 11.2000 -1.7391
        vertex -11.6224 11.2000 -3.0165
    endloop
endfacet
facet normal 0.0000 6.7659 0.0000
    outer loop
        vertex -15.0165 11.2000 0.3776
        vertex -13.8999 11.2000 1.4942
        vertex -13.7391 11.2000 0.6855
    endloop
endfacet
facet normal 0.0000 13.4729 0.0000
    outer loop
        vertex -15.0165 11.2000 0.3776
        vertex -13.7391 11.2000 0.6855
        vertex -12.7678 11.2000 -0.7678
    endloop
endfacet
facet normal 0.0000 18.8584 0.0000
    outer loop
        vertex -12.7678 11.2000 -0.7678
        vertex -13.6568 11.2000 -1.6568
        vertex -15.0165 11.2000 0.3776
    endloop
endfacet
facet normal 3.3754 3.3754 16.9738
    outer loop
        vertex -11.3145 6.0800 -1.7391
        vertex -11.1840 4.3655 -1.4241
        vertex -9.6000 4.3655 -1.7391
    endloop
endfacet
facet normal 7.0821 7.0821 38.9453
    outer loop
        vertex -9.6000 4.3655 -1.7391
        vertex -9.6000 8.0000 -2.4000
        vertex -11.3145 6.0800 -1.7391
    endloop
endfacet
facet normal 3.9117 0.0000 10.1475
    outer loop
        vertex -9.6000 12.8000 -2.4000
        vertex -10.6147 12.8000 -2.0088
        vertex -10.6147 11.2000 -2.0088
    endloop
endfacet
facet normal 11.7351 0.0000 30.4425
    outer loop
        vertex -10.6147 11.2000 -2.0088
        vertex -9.6000 8.0000 -2.4000
        vertex -9.6000 12.8000 -2.4000
    endloop
endfacet
facet normal 17.9124 0.0001 46.4666
    outer loop
        vertex -11.3145 6.0800 -1.7391
        vertex -9.6000 8.0000 -2.4000
        vertex -10.6147 11.2000 -2.0088
    endloop
endfacet
facet normal 8.6320 0.0000 22.3914
    outer loop
        vertex -10.6147 11.2000 -2.0088
        vertex -11.3145 11.2000 -1.7391
        vertex -11.3145 6.0800 -1.7391
    endloop
endfacet
facet normal 0.0000 9.8597 0.0000
    outer loop
        vertex -11.0616 12.8000 -3.3912
        vertex -10.6147 12.8000 -2.0088
        vertex -9.6000 12.8000 -2.4000
    endloop
endfacet
facet normal 0.0000 24.5280 0.0000
    outer loop
        vertex -9.6000 12.8000 -2.4000
        vertex -8.0000 12.8000 -4.0000
        vertex -11.0616 12.8000 -3.3912
    endloop
endfacet
facet normal 58.5630 0.0000 -60.6813
    outer loop
        vertex -10.0000 1.6870 1.5507
        vertex -10.0000 12.7200 1.5507
        vertex -9.1200 12.7200 2.4000
    endloop
endfacet
facet normal 59.0250 0.0000 -61.1600
    outer loop
        vertex -9.1200 12.7200 2.4000
        vertex -9.1200 1.6000 2.4000
        vertex -10.0000 1.6870 1.5507
    endloop
endfacet
facet normal -58.5630 0.0000 -60.6813
    outer loop
        vertex -10.0000 12.7200 1.5507
        vertex -10.0000 1.6870 1.5507
        vertex -10.8800 1.8545 2.4000
    endloop
endfacet
facet normal -57.6740 0.0000 -59.7601
    outer loop
        vertex -10.8800 1.8545 2.4000
        vertex -10.8800 12.7200 2.4000
        vertex -10.0000 12.7200 1.5507
    endloop
endfacet
facet normal 0.0000 9.3421 0.0000
    outer loop
        vertex -9.1200 12.7200 2.4000
        vertex -10.0000 12.7200 1.5507
        vertex -10.8800 12.7200 2.4000
    endloop
endfacet
facet normal 0.0000 0.0000 2560.0000
    outer loop
        vertex 8.0000 0.0000 4.0000
        vertex 16.0000 12.8000 4.0000
        vertex -16.0000 12.8000 4.0000
    endloop
endfacet
facet normal 0.0000 0.0000 1280.0000
    outer loop
        vertex -16.0000 12.8000 4.0000
        vertex -8.0000 0.0000 4.0000
        vertex 8.0000 0.0000 4.0000
    endloop
endfacet
facet normal 0.0000 0.0000 66.3530
    outer loop
        vertex 16.0000 8.0000 4.0000
        vertex 11.0616 0.6088 4.0000
        vertex 13.6568 2.3432 4.0000
    endloop
endfacet
facet normal 0.0000 0.0000 23.3130
    outer loop
        vertex 13.6568 2.3432 4.0000
        vertex 15.3912 4.9384 4.0000
        vertex 16.0000 8.0000 4.0000
    endloop
endfacet
facet normal 0.0000 0.0000 240.0000
    outer loop
        vertex 16.0000 8.0000 4.0000
        vertex 16.0000 12.8000 4.0000
        vertex 8.0000 0.0000 4.0000
    endloop
endfacet
facet normal 0.0000 0.0000 122.6400
    outer loop
        vertex 8.0000 0.0000 4.0000
        vertex 11.0616 0.6088 4.0000
        vertex 16.0000 8.0000 4.0000
    endloop
endfacet
facet normal 0.0000 0.0000 240.0000
    outer loop
        vertex -8.0000 0.0000 4.0000
        vertex -16.0000 12.8000 4.0000
        vertex -16.0000 8.0000 4.0000
    endloop
endfacet
facet normal 0.0000 0.0000 122.6400
    outer loop
        vertex -16.0000 8.0000 4.0000
        vertex -11.0616 0.6088 4.0000
        vertex -8.0000 0.0000 4.0000
    endloop
endfacet
facet normal 0.0000 0.0000 66.3530
    outer loop
        vertex -13.6568 2.3432 4.0000
        vertex -11.0616 0.6088 4.0000
        vertex -16.0000 8.0000 4.0000
    endloop
endfacet
facet normal 0.0000 0.0000 23.3130
    outer loop
        vertex -16.0000 8.0000 4.0000
        vertex -15.3912 4.9384 4.0000
        vertex -13.6568 2.3432 4.0000
    endloop
endfacet
facet normal -0.8866 -22.4201 -4.4582
    outer loop
        vertex -8.0000 0.6088 0.9384
        vertex -8.0000 0.0000 4.0000
        vertex -9.1717 0.6088 1.1714
    endloop
endfacet
facet normal -2.5256 -22.4185 -3.7790
    outer loop
        vertex -9.1717 0.6088 1.1714
        vertex -8.0000 0.0000 4.0000
        vertex -10.1648 0.6088 1.8352
    endloop
endfacet
facet normal -3.7790 -22.4185 -2.5256
    outer loop
        vertex -10.1648 0.6088 1.8352
        vertex -8.0000 0.0000 4.0000
        vertex -10.8286 0.6088 2.8283
    endloop
endfacet
facet normal -4.4582 -22.4201 -0.8866
    outer loop
        vertex -10.8286 0.6088 2.8283
        vertex -8.0000 0.0000 4.0000
        vertex -11.0616 0.6088 4.0000
    endloop
endfacet
facet normal -4.6664 -35.1137 -23.4669
    outer loop
        vertex -10.1648 2.3432 -1.2263
        vertex -8.0000 2.3432 -1.6568
        vertex -8.0000 0.6088 0.9384
    endloop
endfacet
facet normal -2.5257 -19.0048 -12.7010
    outer loop
        vertex -8.0000 0.6088 0.9384
        vertex -9.1717 0.6088 1.1714
        vertex -10.1648 2.3432 -1.2263
    endloop
endfacet
facet normal -7.1952 -19.0034 -10.7659
    outer loop
        vertex -10.1648 2.3432 -1.2263
        vertex -9.1717 0.6088 1.1714
        vertex -10.1648 0.6088 1.8352
    endloop
endfacet
facet normal -13.2933 -35.1144 -19.8931
    outer loop
        vertex -10.1648 0.6088 1.8352
        vertex -12.0000 2.3432 0.0000
        vertex -10.1648 2.3432 -1.2263
    endloop
endfacet
facet normal -19.8931 -35.1144 -13.2933
    outer loop
        vertex -13.2263 2.3432 1.8352
        vertex -12.0000 2.3432 0.0000
        vertex -10.1648 0.6088 1.8352
    endloop
endfacet
facet normal -10.7659 -19.0034 -7.1952
    outer loop
        vertex -10.1648 0.6088 1.8352
        vertex -10.8286 0.6088 2.8283
        vertex -13.2263 2.3432 1.8352
    endloop
endfacet
facet normal -12.7010 -19.0048 -2.5257
    outer loop
        vertex -13.2263 2.3432 1.8352
        vertex -10.8286 0.6088 2.8283
        vertex -11.0616 0.6088 4.0000
    endloop
endfacet
facet normal -23.4669 -35.1137 -4.6664
    outer loop
        vertex -11.0616 0.6088 4.0000
        vertex -13.6568 2.3432 4.0000
        vertex -13.2263 2.3432 1.8352
    endloop
endfacet
facet normal -9.1234 -30.6619 -45.8799
    outer loop
        vertex -10.1648 2.3432 -1.2263
        vertex -10.8286 4.9384 -2.8287
        vertex -8.0000 4.9384 -3.3912
    endloop
endfacet
facet normal -6.9824 -23.4669 -35.1137
    outer loop
        vertex -8.0000 4.9384 -3.3912
        vertex -8.0000 2.3432 -1.6568
        vertex -10.1648 2.3432 -1.2263
    endloop
endfacet
facet normal -19.8909 -23.4647 -29.7663
    outer loop
        vertex -10.1648 2.3432 -1.2263
        vertex -12.0000 2.3432 0.0000
        vertex -13.2263 4.9384 -1.2263
    endloop
endfacet
facet normal -25.9909 -30.6607 -38.8910
    outer loop
        vertex -13.2263 4.9384 -1.2263
        vertex -10.8286 4.9384 -2.8287
        vertex -10.1648 2.3432 -1.2263
    endloop
endfacet
facet normal -38.8910 -30.6607 -25.9909
    outer loop
        vertex -13.2263 2.3432 1.8352
        vertex -14.8287 4.9384 1.1714
        vertex -13.2263 4.9384 -1.2263
    endloop
endfacet
facet normal -29.7663 -23.4647 -19.8909
    outer loop
        vertex -13.2263 4.9384 -1.2263
        vertex -12.0000 2.3432 0.0000
        vertex -13.2263 2.3432 1.8352
    endloop
endfacet
facet normal -35.1137 -23.4669 -6.9824
    outer loop
        vertex -13.2263 2.3432 1.8352
        vertex -13.6568 2.3432 4.0000
        vertex -15.3912 4.9384 4.0000
    endloop
endfacet
facet normal -45.8799 -30.6619 -9.1234
    outer loop
        vertex -15.3912 4.9384 4.0000
        vertex -14.8287 4.9384 1.1714
        vertex -13.2263 2.3432 1.8352
    endloop
endfacet
facet normal -11.6494 -11.6494 -58.5837
    outer loop
        vertex -11.0616 8.0000 -3.3912
        vertex -8.0000 8.0000 -4.0000
        vertex -8.0000 4.9384 -3.3912
    endloop
endfacet
facet normal -10.7631 -10.7631 -54.1253
    outer loop
        vertex -8.0000 4.9384 -3.3912
        vertex -10.8286 4.9384 -2.8287
        vertex -11.0616 8.0000 -3.3912
    endloop
endfacet
facet normal -30.6619 -10.7627 -45.8804
    outer loop
        vertex -11.0616 8.0000 -3.3912
        vertex -10.8286 4.9384 -2.8287
        vertex -13.2263 4.9384 -1.2263
    endloop
endfacet
facet normal -33.1877 -11.6488 -49.6592
    outer loop
        vertex -13.2263 4.9384 -1.2263
        vertex -13.6568 8.0000 -1.6568
        vertex -11.0616 8.0000 -3.3912
    endloop
endfacet
facet normal -49.6592 -11.6488 -33.1877
    outer loop
        vertex -15.3912 8.0000 0.9384
        vertex -13.6568 8.0000 -1.6568
        vertex -13.2263 4.9384 -1.2263
    endloop
endfacet
facet normal -45.8804 -10.7627 -30.6619
    outer loop
        vertex -13.2263 4.9384 -1.2263
        vertex -14.8287 4.9384 1.1714
        vertex -15.3912 8.0000 0.9384
    endloop
endfacet
facet normal -54.1253 -10.7631 -10.7631
    outer loop
        vertex -15.3912 8.0000 0.9384
        vertex -14.8287 4.9384 1.1714
        vertex -15.3912 4.9384 4.0000
    endloop
endfacet
facet normal -58.5837 -11.6494 -11.6494
    outer loop
        vertex -15.3912 4.9384 4.0000
        vertex -16.0000 8.0000 4.0000
        vertex -15.3912 8.0000 0.9384
    endloop
endfacet
facet normal -18.2640 0.0000 -91.8480
    outer loop
        vertex -11.0616 8.0000 -3.3912
        vertex -11.0616 12.8000 -3.3912
        vertex -8.0000 12.8000 -4.0000
    endloop
endfacet
facet normal -18.2640 0.0000 -91.8480
    outer loop
        vertex -8.0000 12.8000 -4.0000
        vertex -8.0000 8.0000 -4.0000
        vertex -11.0616 8.0000 -3.3912
    endloop
endfacet
facet normal -3.7467 0.0000 -5.6085
    outer loop
        vertex -11.0616 8.0000 -3.3912
        vertex -11.6224 11.2000 -3.0165
        vertex -11.6224 12.8000 -3.0165
    endloop
endfacet
facet normal -11.2402 0.0000 -16.8254
    outer loop
        vertex -11.6224 12.8000 -3.0165
        vertex -11.0616 12.8000 -3.3912
        vertex -11.0616 8.0000 -3.3912
    endloop
endfacet
facet normal -34.6880 0.0000 -51.9040
    outer loop
        vertex -11.0616 8.0000 -3.3912
        vertex -13.6568 8.0000 -1.6568
        vertex -13.6568 11.2000 -1.6568
    endloop
endfacet
facet normal -27.1946 -0.0024 -40.6870
    outer loop
        vertex -13.6568 11.2000 -1.6568
        vertex -11.6224 11.2000 -3.0165
        vertex -11.0616 8.0000 -3.3912
    endloop
endfacet
facet normal -40.6870 -0.0024 -27.1946
    outer loop
        vertex -15.3912 8.0000 0.9384
        vertex -15.0165 11.2000 0.3776
        vertex -13.6568 11.2000 -1.6568
    endloop
endfacet
facet normal -51.9040 0.0000 -34.6880
    outer loop
        vertex -13.6568 11.2000 -1.6568
        vertex -13.6568 8.0000 -1.6568
        vertex -15.3912 8.0000 0.9384
    endloop
endfacet
facet normal -16.8254 0.0000 -11.2402
    outer loop
        vertex -15.3912 8.0000 0.9384
        vertex -15.3912 12.8000 0.9384
        vertex -15.0165 12.8000 0.3776
    endloop
endfacet
facet normal -5.6085 0.0000 -3.7467
    outer loop
        vertex -15.0165 12.8000 0.3776
        vertex -15.0165 11.2000 0.3776
        vertex -15.3912 8.0000 0.9384
    endloop
endfacet
facet normal -91.8480 0.0000 -18.2640
    outer loop
        vertex -15.3912 8.0000 0.9384
        vertex -16.0000 8.0000 4.0000
        vertex -16.0000 12.8000 4.0000
    endloop
endfacet
facet normal -91.8480 0.0000 -18.2640
    outer loop
        vertex -16.0000 12.8000 4.0000
        vertex -15.3912 12.8000 0.9384
        vertex -15.3912 8.0000 0.9384
    endloop
endfacet
facet normal 0.0000 -306.1600 -60.8800
    outer loop
        vertex -8.0000 0.0000 4.0000
        vertex -8.0000 0.6088 0.9384
        vertex 8.0000 0.6088 0.9384
    endloop
endfacet
facet normal 0.0000 -306.1600 -60.8800
    outer loop
        vertex 8.0000 0.6088 0.9384
        vertex 8.0000 0.0000 4.0000
        vertex -8.0000 0.0000 4.0000
    endloop
endfacet
facet normal 0.0000 -259.5200 -173.4400
    outer loop
        vertex -8.0000 0.6088 0.9384
        vertex -8.0000 2.3432 -1.6568
        vertex 8.0000 2.3432 -1.6568
    endloop
endfacet
facet normal 0.0000 -259.5200 -173.4400
    outer loop
        vertex 8.0000 2.3432 -1.6568
        vertex 8.0000 0.6088 0.9384
        vertex -8.0000 0.6088 0.9384
    endloop
endfacet
facet normal 0.0000 -173.4400 -259.5200
    outer loop
        vertex -8.0000 2.3432 -1.6568
        vertex -8.0000 4.9384 -3.3912
        vertex 8.0000 4.9384 -3.3912
    endloop
endfacet
facet normal 0.0000 -173.4400 -259.5200
    outer loop
        vertex 8.0000 4.9384 -3.3912
        vertex 8.0000 2.3432 -1.6568
        vertex -8.0000 2.3432 -1.6568
    endloop
endfacet
facet normal 0.0000 -60.8800 -306.1600
    outer loop
        vertex -8.0000 4.9384 -3.3912
        vertex -8.0000 8.0000 -4.0000
        vertex 8.0000 8.0000 -4.0000
    endloop
endfacet
facet normal 0.0000 -60.8800 -306.1600
    outer loop
        vertex 8.0000 8.0000 -4.0000
        vertex 8.0000 4.9384 -3.3912
        vertex -8.0000 4.9384 -3.3912
    endloop
endfacet
facet normal 0.0000 0.0000 -480.0000
    outer loop
        vertex 8.0000 12.8000 -4.0000
        vertex 8.0000 8.0000 -4.0000
        vertex -8.0000 8.0000 -4.0000
    endloop
endfacet
facet normal 0.0000 0.0000 -480.0000
    outer loop
        vertex -8.0000 8.0000 -4.0000
        vertex -8.0000 12.8000 -4.0000
        vertex 8.0000 12.8000 -4.0000
    endloop
endfacet
facet normal 0.8866 -22.4201 -4.4582
    outer loop
        vertex 8.0000 0.0000 4.0000
        vertex 8.0000 0.6088 0.9384
        vertex 9.1717 0.6088 1.1714
    endloop
endfacet
facet normal 2.5256 -22.4185 -3.7790
    outer loop
        vertex 8.0000 0.0000 4.0000
        vertex 9.1717 0.6088 1.1714
        vertex 10.1648 0.6088 1.8352
    endloop
endfacet
facet normal 3.7790 -22.4185 -2.5256
    outer loop
        vertex 8.0000 0.0000 4.0000
        vertex 10.1648 0.6088 1.8352
        vertex 10.8286 0.6088 2.8283
    endloop
endfacet
facet normal 4.4582 -22.4201 -0.8866
    outer loop
        vertex 8.0000 0.0000 4.0000
        vertex 10.8286 0.6088 2.8283
        vertex 11.0616 0.6088 4.0000
    endloop
endfacet
facet normal 4.6664 -35.1137 -23.4669
    outer loop
        vertex 8.0000 0.6088 0.9384
        vertex 8.0000 2.3432 -1.6568
        vertex 10.1648 2.3432 -1.2263
    endloop
endfacet
facet normal 2.5257 -19.0048 -12.7010
    outer loop
        vertex 10.1648 2.3432 -1.2263
        vertex 9.1717 0.6088 1.1714
        vertex 8.0000 0.6088 0.9384
    endloop
endfacet
facet normal 7.1952 -19.0034 -10.7659
    outer loop
        vertex 10.1648 0.6088 1.8352
        vertex 9.1717 0.6088 1.1714
        vertex 10.1648 2.3432 -1.2263
    endloop
endfacet
facet normal 13.2933 -35.1144 -19.8931
    outer loop
        vertex 10.1648 2.3432 -1.2263
        vertex 12.0000 2.3432 0.0000
        vertex 10.1648 0.6088 1.8352
    endloop
endfacet
facet normal 19.8931 -35.1144 -13.2933
    outer loop
        vertex 10.1648 0.6088 1.8352
        vertex 12.0000 2.3432 0.0000
        vertex 13.2263 2.3432 1.8352
    endloop
endfacet
facet normal 10.7659 -19.0034 -7.1952
    outer loop
        vertex 13.2263 2.3432 1.8352
        vertex 10.8286 0.6088 2.8283
        vertex 10.1648 0.6088 1.8352
    endloop
endfacet
facet normal 12.7010 -19.0048 -2.5257
    outer loop
        vertex 11.0616 0.6088 4.0000
        vertex 10.8286 0.6088 2.8283
        vertex 13.2263 2.3432 1.8352
    endloop
endfacet
facet normal 23.4669 -35.1137 -4.6664
    outer loop
        vertex 13.2263 2.3432 1.8352
        vertex 13.6568 2.3432 4.0000
        vertex 11.0616 0.6088 4.0000
    endloop
endfacet
facet normal 9.1234 -30.6619 -45.8799
    outer loop
        vertex 8.0000 4.9384 -3.3912
        vertex 10.8286 4.9384 -2.8287
        vertex 10.1648 2.3432 -1.2263
    endloop
endfacet
facet normal 6.9824 -23.4669 -35.1137
    outer loop
        vertex 10.1648 2.3432 -1.2263
        vertex 8.0000 2.3432 -1.6568
        vertex 8.0000 4.9384 -3.3912
    endloop
endfacet
facet normal 19.8909 -23.4647 -29.7663
    outer loop
        vertex 13.2263 4.9384 -1.2263
        vertex 12.0000 2.3432 0.0000
        vertex 10.1648 2.3432 -1.2263
    endloop
endfacet
facet normal 25.9909 -30.6607 -38.8910
    outer loop
        vertex 10.1648 2.3432 -1.2263
        vertex 10.8286 4.9384 -2.8287
        vertex 13.2263 4.9384 -1.2263
    endloop
endfacet
facet normal 38.8910 -30.6607 -25.9909
    outer loop
        vertex 13.2263 4.9384 -1.2263
        vertex 14.8287 4.9384 1.1714
        vertex 13.2263 2.3432 1.8352
    endloop
endfacet
facet normal 29.7663 -23.4647 -19.8909
    outer loop
        vertex 13.2263 2.3432 1.8352
        vertex 12.0000 2.3432 0.0000
        vertex 13.2263 4.9384 -1.2263
    endloop
endfacet
facet normal 35.1137 -23.4669 -6.9824
    outer loop
        vertex 15.3912 4.9384 4.0000
        vertex 13.6568 2.3432 4.0000
        vertex 13.2263 2.3432 1.8352
    endloop
endfacet
facet normal 45.8799 -30.6619 -9.1234
    outer loop
        vertex 13.2263 2.3432 1.8352
        vertex 14.8287 4.9384 1.1714
        vertex 15.3912 4.9384 4.0000
    endloop
endfacet
facet normal 11.6494 -11.6494 -58.5837
    outer loop
        vertex 8.0000 4.9384 -3.3912
        vertex 8.0000 8.0000 -4.0000
        vertex 11.0616 8.0000 -3.3912
    endloop
endfacet
facet normal 10.7631 -10.7631 -54.1253
    outer loop
        vertex 11.0616 8.0000 -3.3912
        vertex 10.8286 4.9384 -2.8287
        vertex 8.0000 4.9384 -3.3912
    endloop
endfacet
facet normal 30.6619 -10.7627 -45.8804
    outer loop
        vertex 13.2263 4.9384 -1.2263
        vertex 10.8286 4.9384 -2.8287
        vertex 11.0616 8.0000 -3.3912
    endloop
endfacet
facet normal 33.1877 -11.6488 -49.6592
    outer loop
        vertex 11.0616 8.0000 -3.3912
        vertex 13.6568 8.0000 -1.6568
        vertex 13.2263 4.9384 -1.2263
    endloop
endfacet
facet normal 49.6592 -11.6488 -33.1877
    outer loop
        vertex 13.2263 4.9384 -1.2263
        vertex 13.6568 8.0000 -1.6568
        vertex 15.3912 8.0000 0.9384
    endloop
endfacet
facet normal 45.8804 -10.7627 -30.6619
    outer loop
        vertex 15.3912 8.0000 0.9384
        vertex 14.8287 4.9384 1.1714
        vertex 13.2263 4.9384 -1.2263
    endloop
endfacet
facet normal 54.1253 -10.7631 -10.7631
    outer loop
        vertex 15.3912 4.9384 4.0000
        vertex 14.8287 4.9384 1.1714
        vertex 15.3912 8.0000 0.9384
    endloop
endfacet
facet normal 58.5837 -11.6494 -11.6494
    outer loop
        vertex 15.3912 8.0000 0.9384
        vertex 16.0000 8.0000 4.0000
        vertex 15.3912 4.9384 4.0000
    endloop
endfacet
facet normal 18.2640 0.0000 -91.8480
    outer loop
        vertex 8.0000 12.8000 -4.0000
        vertex 11.0616 12.8000 -3.3912
        vertex 11.0616 8.0000 -3.3912
    endloop
endfacet
facet normal 18.2640 0.0000 -91.8480
    outer loop
        vertex 11.0616 8.0000 -3.3912
        vertex 8.0000 8.0000 -4.0000
        vertex 8.0000 12.8000 -4.0000
    endloop
endfacet
facet normal 3.7467 0.0000 -5.6085
    outer loop
        vertex 11.6224 12.8000 -3.0165
        vertex 11.6224 11.2000 -3.0165
        vertex 11.0616 8.0000 -3.3912
    endloop
endfacet
facet normal 11.2402 0.0000 -16.8254
    outer loop
        vertex 11.0616 8.0000 -3.3912
        vertex 11.0616 12.8000 -3.3912
        vertex 11.6224 12.8000 -3.0165
    endloop
endfacet
facet normal 34.6880 0.0000 -51.9040
    outer loop
        vertex 13.6568 11.2000 -1.6568
        vertex 13.6568 8.0000 -1.6568
        vertex 11.0616 8.0000 -3.3912
    endloop
endfacet
facet normal 27.1946 -0.0024 -40.6870
    outer loop
        vertex 11.0616 8.0000 -3.3912
        vertex 11.6224 11.2000 -3.0165
        vertex 13.6568 11.2000 -1.6568
    endloop
endfacet
facet normal 40.6870 -0.0024 -27.1946
    outer loop
        vertex 13.6568 11.2000 -1.6568
        vertex 15.0165 11.2000 0.3776
        vertex 15.3912 8.0000 0.9384
    endloop
endfacet
facet normal 51.9040 0.0000 -34.6880
    outer loop
        vertex 15.3912 8.0000 0.9384
        vertex 13.6568 8.0000 -1.6568
        vertex 13.6568 11.2000 -1.6568
    endloop
endfacet
facet normal 16.8254 0.0000 -11.2402
    outer loop
        vertex 15.0165 12.8000 0.3776
        vertex 15.3912 12.8000 0.9384
        vertex 15.3912 8.0000 0.9384
    endloop
endfacet
facet normal 5.6085 0.0000 -3.7467
    outer loop
        vertex 15.3912 8.0000 0.9384
        vertex 15.0165 11.2000 0.3776
        vertex 15.0165 12.8000 0.3776
    endloop
endfacet
facet normal 91.8480 0.0000 -18.2640
    outer loop
        vertex 16.0000 12.8000 4.0000
        vertex 16.0000 8.0000 4.0000
        vertex 15.3912 8.0000 0.9384
    endloop
endfacet
facet normal 91.8480 0.0000 -18.2640
    outer loop
        vertex 15.3912 8.0000 0.9384
        vertex 15.3912 12.8000 0.9384
        vertex 16.0000 12.8000 4.0000
    endloop
endfacet
endsolid GiantLegoRocks
