solid GiantLegoRocks
facet normal 0.0000 0.7500 0.0000
    outer loop
        vertex 7.6000 0.0000 4.4000
        vertex 7.6000 0.0000 -4.4000
        vertex -7.6000 0.0000 -4.4000
    endloop
endfacet
facet normal 0.0000 0.7500 0.0000
    outer loop
        vertex -7.6000 0.0000 -4.4000
        vertex -7.6000 0.0000 4.4000
        vertex 7.6000 0.0000 4.4000
    endloop
endfacet
facet normal 0.0000 -0.2500 22.0000
    outer loop
        vertex -7.6000 -0.1000 4.4000
        vertex 7.6000 -0.1000 4.4000
        vertex 7.6000 0.0000 4.4000
    endloop
endfacet
facet normal 0.0000 -0.2500 22.0000
    outer loop
        vertex 7.6000 0.0000 4.4000
        vertex -7.6000 0.0000 4.4000
        vertex -7.6000 -0.1000 4.4000
    endloop
endfacet
facet normal -38.0000 -0.2500 0.0000
    outer loop
        vertex -7.6000 -0.1000 -4.4000
        vertex -7.6000 -0.1000 4.4000
        vertex -7.6000 0.0000 4.4000
    endloop
endfacet
facet normal -38.0000 -0.2500 0.0000
    outer loop
        vertex -7.6000 0.0000 4.4000
        vertex -7.6000 0.0000 -4.4000
        vertex -7.6000 -0.1000 -4.4000
    endloop
endfacet
facet normal 0.0000 -0.2500 -22.0000
    outer loop
        vertex 7.6000 -0.1000 -4.4000
        vertex -7.6000 -0.1000 -4.4000
        vertex -7.6000 0.0000 -4.4000
    endloop
endfacet
facet normal 0.0000 -0.2500 -22.0000
    outer loop
        vertex -7.6000 0.0000 -4.4000
        vertex 7.6000 0.0000 -4.4000
        vertex 7.6000 -0.1000 -4.4000
    endloop
endfacet
facet normal 38.0000 -0.2500 0.0000
    outer loop
        vertex 7.6000 -0.1000 4.4000
        vertex 7.6000 -0.1000 -4.4000
        vertex 7.6000 0.0000 -4.4000
    endloop
endfacet
facet normal 38.0000 -0.2500 0.0000
    outer loop
        vertex 7.6000 0.0000 -4.4000
        vertex 7.6000 0.0000 4.4000
        vertex 7.6000 -0.1000 4.4000
    endloop
endfacet
facet normal 0.0000 -64.0000 0.0000
    outer loop
        vertex 6.4000 -0.1000 2.0000
        vertex -6.4000 -0.1000 2.0000
        vertex -6.4000 -0.1000 1.2000
    endloop
endfacet
facet normal 0.0000 -64.0000 0.0000
    outer loop
        vertex -6.4000 -0.1000 1.2000
        vertex 6.4000 -0.1000 1.2000
        vertex 6.4000 -0.1000 2.0000
    endloop
endfacet
facet normal 0.0000 -51.2000 0.0000
    outer loop
        vertex 6.4000 -0.1000 0.8400
        vertex -6.4000 -0.1000 0.8400
        vertex -6.4000 -0.1000 0.2000
    endloop
endfacet
facet normal 0.0000 -51.2000 0.0000
    outer loop
        vertex -6.4000 -0.1000 0.2000
        vertex 6.4000 -0.1000 0.2000
        vertex 6.4000 -0.1000 0.8400
    endloop
endfacet
facet normal 0.0000 -51.2000 0.0000
    outer loop
        vertex 6.4000 -0.1000 -0.2000
        vertex -6.4000 -0.1000 -0.2000
        vertex -6.4000 -0.1000 -0.8400
    endloop
endfacet
facet normal 0.0000 -51.2000 0.0000
    outer loop
        vertex -6.4000 -0.1000 -0.8400
        vertex 6.4000 -0.1000 -0.8400
        vertex 6.4000 -0.1000 -0.2000
    endloop
endfacet
facet normal 0.0000 -64.0000 0.0000
    outer loop
        vertex 6.4000 -0.1000 -1.2000
        vertex -6.4000 -0.1000 -1.2000
        vertex -6.4000 -0.1000 -2.0000
    endloop
endfacet
facet normal 0.0000 -64.0000 0.0000
    outer loop
        vertex -6.4000 -0.1000 -2.0000
        vertex 6.4000 -0.1000 -2.0000
        vertex 6.4000 -0.1000 -1.2000
    endloop
endfacet
facet normal 0.0000 -18.4800 0.0000
    outer loop
        vertex -5.9200 -0.1000 2.5200
        vertex -6.1600 -0.1000 2.2800
        vertex 6.1600 -0.1000 2.2800
    endloop
endfacet
facet normal 0.0000 -17.7600 0.0000
    outer loop
        vertex 6.1600 -0.1000 2.2800
        vertex 5.9200 -0.1000 2.5200
        vertex -5.9200 -0.1000 2.5200
    endloop
endfacet
facet normal 0.0000 -11.8400 0.0000
    outer loop
        vertex -5.6800 -0.1000 2.6800
        vertex -5.9200 -0.1000 2.5200
        vertex 5.9200 -0.1000 2.5200
    endloop
endfacet
facet normal 0.0000 -11.3600 0.0000
    outer loop
        vertex 5.9200 -0.1000 2.5200
        vertex 5.6800 -0.1000 2.6800
        vertex -5.6800 -0.1000 2.6800
    endloop
endfacet
facet normal 0.0000 -8.5200 0.0000
    outer loop
        vertex -5.4000 -0.1000 2.8000
        vertex -5.6800 -0.1000 2.6800
        vertex 5.6800 -0.1000 2.6800
    endloop
endfacet
facet normal 0.0000 -8.1000 0.0000
    outer loop
        vertex 5.6800 -0.1000 2.6800
        vertex 5.4000 -0.1000 2.8000
        vertex -5.4000 -0.1000 2.8000
    endloop
endfacet
facet normal 0.0000 -5.4000 0.0000
    outer loop
        vertex -5.0400 -0.1000 2.8800
        vertex -5.4000 -0.1000 2.8000
        vertex 5.4000 -0.1000 2.8000
    endloop
endfacet
facet normal 0.0000 -5.0400 0.0000
    outer loop
        vertex 5.4000 -0.1000 2.8000
        vertex 5.0400 -0.1000 2.8800
        vertex -5.0400 -0.1000 2.8800
    endloop
endfacet
facet normal 0.0000 -18.4800 0.0000
    outer loop
        vertex 5.9200 -0.1000 -2.5200
        vertex 6.1600 -0.1000 -2.2800
        vertex -6.1600 -0.1000 -2.2800
    endloop
endfacet
facet normal 0.0000 -17.7600 0.0000
    outer loop
        vertex -6.1600 -0.1000 -2.2800
        vertex -5.9200 -0.1000 -2.5200
        vertex 5.9200 -0.1000 -2.5200
    endloop
endfacet
facet normal 0.0000 -11.8400 0.0000
    outer loop
        vertex 5.6800 -0.1000 -2.6800
        vertex 5.9200 -0.1000 -2.5200
        vertex -5.9200 -0.1000 -2.5200
    endloop
endfacet
facet normal 0.0000 -11.3600 0.0000
    outer loop
        vertex -5.9200 -0.1000 -2.5200
        vertex -5.6800 -0.1000 -2.6800
        vertex 5.6800 -0.1000 -2.6800
    endloop
endfacet
facet normal 0.0000 -8.5200 0.0000
    outer loop
        vertex 5.4000 -0.1000 -2.8000
        vertex 5.6800 -0.1000 -2.6800
        vertex -5.6800 -0.1000 -2.6800
    endloop
endfacet
facet normal 0.0000 -8.1000 0.0000
    outer loop
        vertex -5.6800 -0.1000 -2.6800
        vertex -5.4000 -0.1000 -2.8000
        vertex 5.4000 -0.1000 -2.8000
    endloop
endfacet
facet normal 0.0000 -5.4000 0.0000
    outer loop
        vertex 5.0400 -0.1000 -2.8800
        vertex 5.4000 -0.1000 -2.8000
        vertex -5.4000 -0.1000 -2.8000
    endloop
endfacet
facet normal 0.0000 -5.0400 0.0000
    outer loop
        vertex -5.4000 -0.1000 -2.8000
        vertex -5.0400 -0.1000 -2.8800
        vertex 5.0400 -0.1000 -2.8800
    endloop
endfacet
facet normal 0.0000 -3.0312 0.0000
    outer loop
        vertex -6.9860 -0.1000 2.6736
        vertex -7.1200 -0.1000 2.0000
        vertex -6.4000 -0.1000 2.0000
    endloop
endfacet
facet normal 0.0000 -2.0359 0.0000
    outer loop
        vertex -6.4000 -0.1000 2.0000
        vertex -6.1600 -0.1000 2.2800
        vertex -6.9860 -0.1000 2.6736
    endloop
endfacet
facet normal 0.0000 -3.8855 0.0000
    outer loop
        vertex -6.6044 -0.1000 3.2444
        vertex -6.9860 -0.1000 2.6736
        vertex -6.1600 -0.1000 2.2800
    endloop
endfacet
facet normal 0.0000 -2.1132 0.0000
    outer loop
        vertex -6.1600 -0.1000 2.2800
        vertex -5.9200 -0.1000 2.5200
        vertex -6.6044 -0.1000 3.2444
    endloop
endfacet
facet normal 0.0000 -4.2166 0.0000
    outer loop
        vertex -6.0336 -0.1000 3.6260
        vertex -6.6044 -0.1000 3.2444
        vertex -5.9200 -0.1000 2.5200
    endloop
endfacet
facet normal 0.0000 -1.7726 0.0000
    outer loop
        vertex -5.9200 -0.1000 2.5200
        vertex -5.6800 -0.1000 2.6800
        vertex -6.0336 -0.1000 3.6260
    endloop
endfacet
facet normal 0.0000 -4.2788 0.0000
    outer loop
        vertex -5.3600 -0.1000 3.7600
        vertex -6.0336 -0.1000 3.6260
        vertex -5.6800 -0.1000 2.6800
    endloop
endfacet
facet normal 0.0000 -1.6500 0.0000
    outer loop
        vertex -5.6800 -0.1000 2.6800
        vertex -5.4000 -0.1000 2.8000
        vertex -5.3600 -0.1000 3.7600
    endloop
endfacet
facet normal 0.0000 -2.1400 0.0000
    outer loop
        vertex -5.3600 -0.1000 3.7600
        vertex -5.4000 -0.1000 2.8000
        vertex -5.0400 -0.1000 2.8800
    endloop
endfacet
facet normal 0.0000 -55.4400 0.0000
    outer loop
        vertex -5.3600 -0.1000 3.7600
        vertex -5.0400 -0.1000 2.8800
        vertex 5.0400 -0.1000 2.8800
    endloop
endfacet
facet normal 0.0000 -58.9600 0.0000
    outer loop
        vertex 5.0400 -0.1000 2.8800
        vertex 5.3600 -0.1000 3.7600
        vertex -5.3600 -0.1000 3.7600
    endloop
endfacet
facet normal 0.0000 -2.1400 0.0000
    outer loop
        vertex 5.3600 -0.1000 3.7600
        vertex 5.0400 -0.1000 2.8800
        vertex 5.4000 -0.1000 2.8000
    endloop
endfacet
facet normal 0.0000 -4.0081 0.0000
    outer loop
        vertex 5.4000 -0.1000 2.8000
        vertex 6.0336 -0.1000 3.6260
        vertex 5.3600 -0.1000 3.7600
    endloop
endfacet
facet normal 0.0000 -1.9207 0.0000
    outer loop
        vertex 6.0336 -0.1000 3.6260
        vertex 5.4000 -0.1000 2.8000
        vertex 5.6800 -0.1000 2.6800
    endloop
endfacet
facet normal 0.0000 -4.2182 0.0000
    outer loop
        vertex 5.6800 -0.1000 2.6800
        vertex 6.6044 -0.1000 3.2444
        vertex 6.0336 -0.1000 3.6260
    endloop
endfacet
facet normal 0.0000 -1.7710 0.0000
    outer loop
        vertex 6.6044 -0.1000 3.2444
        vertex 5.6800 -0.1000 2.6800
        vertex 5.9200 -0.1000 2.5200
    endloop
endfacet
facet normal 0.0000 -4.1693 0.0000
    outer loop
        vertex 5.9200 -0.1000 2.5200
        vertex 6.9860 -0.1000 2.6736
        vertex 6.6044 -0.1000 3.2444
    endloop
endfacet
facet normal 0.0000 -1.8294 0.0000
    outer loop
        vertex 6.9860 -0.1000 2.6736
        vertex 5.9200 -0.1000 2.5200
        vertex 6.1600 -0.1000 2.2800
    endloop
endfacet
facet normal 0.0000 -3.8071 0.0000
    outer loop
        vertex 6.1600 -0.1000 2.2800
        vertex 7.1200 -0.1000 2.0000
        vertex 6.9860 -0.1000 2.6736
    endloop
endfacet
facet normal 0.0000 -1.2600 0.0000
    outer loop
        vertex 6.4000 -0.1000 2.0000
        vertex 7.1200 -0.1000 2.0000
        vertex 6.1600 -0.1000 2.2800
    endloop
endfacet
facet normal 0.0000 -21.5600 0.0000
    outer loop
        vertex 6.1600 -0.1000 2.2800
        vertex -6.1600 -0.1000 2.2800
        vertex 6.4000 -0.1000 2.0000
    endloop
endfacet
facet normal 0.0000 -22.4000 0.0000
    outer loop
        vertex -6.1600 -0.1000 2.2800
        vertex -6.4000 -0.1000 2.0000
        vertex 6.4000 -0.1000 2.0000
    endloop
endfacet
facet normal 0.0000 -28.8000 0.0000
    outer loop
        vertex 6.4000 -0.1000 1.2000
        vertex -6.4000 -0.1000 1.2000
        vertex -6.4000 -0.1000 0.8400
    endloop
endfacet
facet normal 0.0000 -28.8000 0.0000
    outer loop
        vertex -6.4000 -0.1000 0.8400
        vertex 6.4000 -0.1000 0.8400
        vertex 6.4000 -0.1000 1.2000
    endloop
endfacet
facet normal 0.0000 -32.0000 0.0000
    outer loop
        vertex 6.4000 -0.1000 0.2000
        vertex -6.4000 -0.1000 0.2000
        vertex -6.4000 -0.1000 -0.2000
    endloop
endfacet
facet normal 0.0000 -32.0000 0.0000
    outer loop
        vertex -6.4000 -0.1000 -0.2000
        vertex 6.4000 -0.1000 -0.2000
        vertex 6.4000 -0.1000 0.2000
    endloop
endfacet
facet normal 0.0000 -28.8000 0.0000
    outer loop
        vertex 6.4000 -0.1000 -0.8400
        vertex -6.4000 -0.1000 -0.8400
        vertex -6.4000 -0.1000 -1.2000
    endloop
endfacet
facet normal 0.0000 -28.8000 0.0000
    outer loop
        vertex -6.4000 -0.1000 -1.2000
        vertex 6.4000 -0.1000 -1.2000
        vertex 6.4000 -0.1000 -0.8400
    endloop
endfacet
facet normal 0.0000 -3.0312 0.0000
    outer loop
        vertex -6.4000 -0.1000 -2.0000
        vertex -7.1200 -0.1000 -2.0000
        vertex -6.9860 -0.1000 -2.6736
    endloop
endfacet
facet normal 0.0000 -2.0359 0.0000
    outer loop
        vertex -6.9860 -0.1000 -2.6736
        vertex -6.1600 -0.1000 -2.2800
        vertex -6.4000 -0.1000 -2.0000
    endloop
endfacet
facet normal 0.0000 -3.8855 0.0000
    outer loop
        vertex -6.1600 -0.1000 -2.2800
        vertex -6.9860 -0.1000 -2.6736
        vertex -6.6044 -0.1000 -3.2444
    endloop
endfacet
facet normal 0.0000 -2.1132 0.0000
    outer loop
        vertex -6.6044 -0.1000 -3.2444
        vertex -5.9200 -0.1000 -2.5200
        vertex -6.1600 -0.1000 -2.2800
    endloop
endfacet
facet normal 0.0000 -4.2166 0.0000
    outer loop
        vertex -5.9200 -0.1000 -2.5200
        vertex -6.6044 -0.1000 -3.2444
        vertex -6.0336 -0.1000 -3.6260
    endloop
endfacet
facet normal 0.0000 -1.7726 0.0000
    outer loop
        vertex -6.0336 -0.1000 -3.6260
        vertex -5.6800 -0.1000 -2.6800
        vertex -5.9200 -0.1000 -2.5200
    endloop
endfacet
facet normal 0.0000 -4.2788 0.0000
    outer loop
        vertex -5.6800 -0.1000 -2.6800
        vertex -6.0336 -0.1000 -3.6260
        vertex -5.3600 -0.1000 -3.7600
    endloop
endfacet
facet normal 0.0000 -1.6500 0.0000
    outer loop
        vertex -5.3600 -0.1000 -3.7600
        vertex -5.4000 -0.1000 -2.8000
        vertex -5.6800 -0.1000 -2.6800
    endloop
endfacet
facet normal 0.0000 -2.1400 0.0000
    outer loop
        vertex -5.4000 -0.1000 -2.8000
        vertex -5.3600 -0.1000 -3.7600
        vertex -5.0400 -0.1000 -2.8800
    endloop
endfacet
facet normal 0.0000 -58.9600 0.0000
    outer loop
        vertex -5.0400 -0.1000 -2.8800
        vertex -5.3600 -0.1000 -3.7600
        vertex 5.3600 -0.1000 -3.7600
    endloop
endfacet
facet normal 0.0000 -55.4400 0.0000
    outer loop
        vertex 5.3600 -0.1000 -3.7600
        vertex 5.0400 -0.1000 -2.8800
        vertex -5.0400 -0.1000 -2.8800
    endloop
endfacet
facet normal 0.0000 -3.9728 0.0000
    outer loop
        vertex 5.0400 -0.1000 -2.8800
        vertex 5.3600 -0.1000 -3.7600
        vertex 6.0336 -0.1000 -3.6260
    endloop
endfacet
facet normal 0.0000 -2.1753 0.0000
    outer loop
        vertex 6.0336 -0.1000 -3.6260
        vertex 5.4000 -0.1000 -2.8000
        vertex 5.0400 -0.1000 -2.8800
    endloop
endfacet
facet normal 0.0000 -4.4579 0.0000
    outer loop
        vertex 5.4000 -0.1000 -2.8000
        vertex 6.0336 -0.1000 -3.6260
        vertex 6.6044 -0.1000 -3.2444
    endloop
endfacet
facet normal 0.0000 -1.6810 0.0000
    outer loop
        vertex 6.6044 -0.1000 -3.2444
        vertex 5.6800 -0.1000 -2.6800
        vertex 5.4000 -0.1000 -2.8000
    endloop
endfacet
facet normal 0.0000 -4.6439 0.0000
    outer loop
        vertex 5.6800 -0.1000 -2.6800
        vertex 6.6044 -0.1000 -3.2444
        vertex 6.9860 -0.1000 -2.6736
    endloop
endfacet
facet normal 0.0000 -1.2964 0.0000
    outer loop
        vertex 6.9860 -0.1000 -2.6736
        vertex 5.9200 -0.1000 -2.5200
        vertex 5.6800 -0.1000 -2.6800
    endloop
endfacet
facet normal 0.0000 -4.6165 0.0000
    outer loop
        vertex 5.9200 -0.1000 -2.5200
        vertex 6.9860 -0.1000 -2.6736
        vertex 7.1200 -0.1000 -2.0000
    endloop
endfacet
facet normal 0.0000 -1.0200 0.0000
    outer loop
        vertex 7.1200 -0.1000 -2.0000
        vertex 6.1600 -0.1000 -2.2800
        vertex 5.9200 -0.1000 -2.5200
    endloop
endfacet
facet normal 0.0000 -1.2600 0.0000
    outer loop
        vertex 6.1600 -0.1000 -2.2800
        vertex 7.1200 -0.1000 -2.0000
        vertex 6.4000 -0.1000 -2.0000
    endloop
endfacet
facet normal 0.0000 -21.5600 0.0000
    outer loop
        vertex 6.4000 -0.1000 -2.0000
        vertex -6.1600 -0.1000 -2.2800
        vertex 6.1600 -0.1000 -2.2800
    endloop
endfacet
facet normal 0.0000 -22.4000 0.0000
    outer loop
        vertex 6.4000 -0.1000 -2.0000
        vertex -6.4000 -0.1000 -2.0000
        vertex -6.1600 -0.1000 -2.2800
    endloop
endfacet
facet normal 0.0000 -3.6000 0.0000
    outer loop
        vertex 7.1200 -0.1000 2.0000
        vertex 6.4000 -0.1000 2.0000
        vertex 6.4000 -0.1000 1.2000
    endloop
endfacet
facet normal 0.0000 -1.6200 0.0000
    outer loop
        vertex 7.1200 -0.1000 2.0000
        vertex 6.4000 -0.1000 1.2000
        vertex 6.4000 -0.1000 0.8400
    endloop
endfacet
facet normal 0.0000 -2.8800 0.0000
    outer loop
        vertex 7.1200 -0.1000 2.0000
        vertex 6.4000 -0.1000 0.8400
        vertex 6.4000 -0.1000 0.2000
    endloop
endfacet
facet normal 0.0000 -1.8000 0.0000
    outer loop
        vertex 7.1200 -0.1000 2.0000
        vertex 6.4000 -0.1000 0.2000
        vertex 6.4000 -0.1000 -0.2000
    endloop
endfacet
facet normal 0.0000 -18.0000 0.0000
    outer loop
        vertex 6.4000 -0.1000 -0.2000
        vertex 7.1200 -0.1000 -2.0000
        vertex 7.1200 -0.1000 2.0000
    endloop
endfacet
facet normal 0.0000 -2.8800 0.0000
    outer loop
        vertex 6.4000 -0.1000 -0.2000
        vertex 6.4000 -0.1000 -0.8400
        vertex 7.1200 -0.1000 -2.0000
    endloop
endfacet
facet normal 0.0000 -1.6200 0.0000
    outer loop
        vertex 6.4000 -0.1000 -0.8400
        vertex 6.4000 -0.1000 -1.2000
        vertex 7.1200 -0.1000 -2.0000
    endloop
endfacet
facet normal 0.0000 -3.6000 0.0000
    outer loop
        vertex 6.4000 -0.1000 -1.2000
        vertex 6.4000 -0.1000 -2.0000
        vertex 7.1200 -0.1000 -2.0000
    endloop
endfacet
facet normal 0.0000 -3.6000 0.0000
    outer loop
        vertex -6.4000 -0.1000 2.0000
        vertex -7.1200 -0.1000 2.0000
        vertex -6.4000 -0.1000 1.2000
    endloop
endfacet
facet normal 0.0000 -1.6200 0.0000
    outer loop
        vertex -7.1200 -0.1000 2.0000
        vertex -6.4000 -0.1000 0.8400
        vertex -6.4000 -0.1000 1.2000
    endloop
endfacet
facet normal 0.0000 -2.8800 0.0000
    outer loop
        vertex -7.1200 -0.1000 2.0000
        vertex -6.4000 -0.1000 0.2000
        vertex -6.4000 -0.1000 0.8400
    endloop
endfacet
facet normal 0.0000 -1.8000 0.0000
    outer loop
        vertex -6.4000 -0.1000 -0.2000
        vertex -6.4000 -0.1000 0.2000
        vertex -7.1200 -0.1000 2.0000
    endloop
endfacet
facet normal 0.0000 -18.0000 0.0000
    outer loop
        vertex -7.1200 -0.1000 2.0000
        vertex -7.1200 -0.1000 -2.0000
        vertex -6.4000 -0.1000 -0.2000
    endloop
endfacet
facet normal 0.0000 -2.8800 0.0000
    outer loop
        vertex -6.4000 -0.1000 -0.2000
        vertex -7.1200 -0.1000 -2.0000
        vertex -6.4000 -0.1000 -0.8400
    endloop
endfacet
facet normal 0.0000 -1.6200 0.0000
    outer loop
        vertex -6.4000 -0.1000 -0.8400
        vertex -7.1200 -0.1000 -2.0000
        vertex -6.4000 -0.1000 -1.2000
    endloop
endfacet
facet normal 0.0000 -3.6000 0.0000
    outer loop
        vertex -6.4000 -0.1000 -1.2000
        vertex -7.1200 -0.1000 -2.0000
        vertex -6.4000 -0.1000 -2.0000
    endloop
endfacet
facet normal 0.0000 -4.5704 0.0000
    outer loop
        vertex -7.6000 -0.1000 4.4000
        vertex -6.0336 -0.1000 3.6260
        vertex -5.3600 -0.1000 3.7600
    endloop
endfacet
facet normal 0.0000 -6.4971 0.0000
    outer loop
        vertex -7.6000 -0.1000 4.4000
        vertex -6.6044 -0.1000 3.2444
        vertex -6.0336 -0.1000 3.6260
    endloop
endfacet
facet normal 0.0000 -6.3079 0.0000
    outer loop
        vertex -7.6000 -0.1000 4.4000
        vertex -6.9860 -0.1000 2.6736
        vertex -6.6044 -0.1000 3.2444
    endloop
endfacet
facet normal 0.0000 -4.0308 0.0000
    outer loop
        vertex -7.6000 -0.1000 4.4000
        vertex -7.1200 -0.1000 2.0000
        vertex -6.9860 -0.1000 2.6736
    endloop
endfacet
facet normal 0.0000 -12.0000 0.0000
    outer loop
        vertex -7.1200 -0.1000 -2.0000
        vertex -7.1200 -0.1000 2.0000
        vertex -7.6000 -0.1000 4.4000
    endloop
endfacet
facet normal 0.0000 -26.4000 0.0000
    outer loop
        vertex -7.6000 -0.1000 4.4000
        vertex -7.6000 -0.1000 -4.4000
        vertex -7.1200 -0.1000 -2.0000
    endloop
endfacet
facet normal 0.0000 -4.0308 0.0000
    outer loop
        vertex -7.1200 -0.1000 -2.0000
        vertex -7.6000 -0.1000 -4.4000
        vertex -6.9860 -0.1000 -2.6736
    endloop
endfacet
facet normal 0.0000 -6.3079 0.0000
    outer loop
        vertex -6.9860 -0.1000 -2.6736
        vertex -7.6000 -0.1000 -4.4000
        vertex -6.6044 -0.1000 -3.2444
    endloop
endfacet
facet normal 0.0000 -6.4971 0.0000
    outer loop
        vertex -6.6044 -0.1000 -3.2444
        vertex -7.6000 -0.1000 -4.4000
        vertex -6.0336 -0.1000 -3.6260
    endloop
endfacet
facet normal 0.0000 -4.5704 0.0000
    outer loop
        vertex -6.0336 -0.1000 -3.6260
        vertex -7.6000 -0.1000 -4.4000
        vertex -5.3600 -0.1000 -3.7600
    endloop
endfacet
facet normal 0.0000 -42.8800 0.0000
    outer loop
        vertex 5.3600 -0.1000 -3.7600
        vertex -5.3600 -0.1000 -3.7600
        vertex -7.6000 -0.1000 -4.4000
    endloop
endfacet
facet normal 0.0000 -60.8000 0.0000
    outer loop
        vertex -7.6000 -0.1000 -4.4000
        vertex 7.6000 -0.1000 -4.4000
        vertex 5.3600 -0.1000 -3.7600
    endloop
endfacet
facet normal 0.0000 -4.5704 0.0000
    outer loop
        vertex 6.0336 -0.1000 -3.6260
        vertex 5.3600 -0.1000 -3.7600
        vertex 7.6000 -0.1000 -4.4000
    endloop
endfacet
facet normal 0.0000 -6.4971 0.0000
    outer loop
        vertex 6.6044 -0.1000 -3.2444
        vertex 6.0336 -0.1000 -3.6260
        vertex 7.6000 -0.1000 -4.4000
    endloop
endfacet
facet normal 0.0000 -6.3079 0.0000
    outer loop
        vertex 6.9860 -0.1000 -2.6736
        vertex 6.6044 -0.1000 -3.2444
        vertex 7.6000 -0.1000 -4.4000
    endloop
endfacet
facet normal 0.0000 -4.0308 0.0000
    outer loop
        vertex 7.1200 -0.1000 -2.0000
        vertex 6.9860 -0.1000 -2.6736
        vertex 7.6000 -0.1000 -4.4000
    endloop
endfacet
facet normal 0.0000 -12.0000 0.0000
    outer loop
        vertex 7.1200 -0.1000 2.0000
        vertex 7.1200 -0.1000 -2.0000
        vertex 7.6000 -0.1000 -4.4000
    endloop
endfacet
facet normal 0.0000 -26.4000 0.0000
    outer loop
        vertex 7.6000 -0.1000 -4.4000
        vertex 7.6000 -0.1000 4.4000
        vertex 7.1200 -0.1000 2.0000
    endloop
endfacet
facet normal 0.0000 -4.0308 0.0000
    outer loop
        vertex 7.6000 -0.1000 4.4000
        vertex 6.9860 -0.1000 2.6736
        vertex 7.1200 -0.1000 2.0000
    endloop
endfacet
facet normal 0.0000 -6.3079 0.0000
    outer loop
        vertex 7.6000 -0.1000 4.4000
        vertex 6.6044 -0.1000 3.2444
        vertex 6.9860 -0.1000 2.6736
    endloop
endfacet
facet normal 0.0000 -6.4971 0.0000
    outer loop
        vertex 7.6000 -0.1000 4.4000
        vertex 6.0336 -0.1000 3.6260
        vertex 6.6044 -0.1000 3.2444
    endloop
endfacet
facet normal 0.0000 -4.5704 0.0000
    outer loop
        vertex 7.6000 -0.1000 4.4000
        vertex 5.3600 -0.1000 3.7600
        vertex 6.0336 -0.1000 3.6260
    endloop
endfacet
facet normal 0.0000 -42.8800 0.0000
    outer loop
        vertex -5.3600 -0.1000 3.7600
        vertex 5.3600 -0.1000 3.7600
        vertex 7.6000 -0.1000 4.4000
    endloop
endfacet
facet normal 0.0000 -60.8000 0.0000
    outer loop
        vertex 7.6000 -0.1000 4.4000
        vertex -7.6000 -0.1000 4.4000
        vertex -5.3600 -0.1000 3.7600
    endloop
endfacet
endsolid GiantLegoRocks
