solid GiantLegoRocks
facet normal 0.0000 0.0000 -21.7775
    outer loop
        vertex 17.9800 0.0000 -2.2400
        vertex 17.9800 -0.1000 -2.2400
        vertex -16.8640 -0.1000 -2.2400
    endloop
endfacet
facet normal 0.0000 0.0000 -21.7775
    outer loop
        vertex -16.8640 -0.1000 -2.2400
        vertex -16.8640 0.0000 -2.2400
        vertex 17.9800 0.0000 -2.2400
    endloop
endfacet
facet normal -2.8000 0.0000 -0.6975
    outer loop
        vertex -17.9800 0.0000 2.2400
        vertex -16.8640 0.0000 -2.2400
        vertex -16.8640 -0.1000 -2.2400
    endloop
endfacet
facet normal -2.8000 0.0000 -0.6975
    outer loop
        vertex -16.8640 -0.1000 -2.2400
        vertex -17.9800 -0.1000 2.2400
        vertex -17.9800 0.0000 2.2400
    endloop
endfacet
facet normal 2.8000 0.0000 3.1000
    outer loop
        vertex 17.9800 0.0000 -2.2400
        vertex 13.0200 0.0000 2.2400
        vertex 13.0200 -0.1000 2.2400
    endloop
endfacet
facet normal 2.8000 0.0000 3.1000
    outer loop
        vertex 13.0200 -0.1000 2.2400
        vertex 17.9800 -0.1000 -2.2400
        vertex 17.9800 0.0000 -2.2400
    endloop
endfacet
facet normal 0.0000 0.0000 19.3750
    outer loop
        vertex 13.0200 -0.1000 2.2400
        vertex 13.0200 0.0000 2.2400
        vertex -17.9800 0.0000 2.2400
    endloop
endfacet
facet normal 0.0000 0.0000 19.3750
    outer loop
        vertex -17.9800 0.0000 2.2400
        vertex -17.9800 -0.1000 2.2400
        vertex 13.0200 -0.1000 2.2400
    endloop
endfacet
facet normal 0.0000 868.0000 0.0000
    outer loop
        vertex -16.8640 0.0000 -2.2400
        vertex -17.9800 0.0000 2.2400
        vertex 13.0200 0.0000 2.2400
    endloop
endfacet
facet normal 0.0000 975.6320 0.0000
    outer loop
        vertex 13.0200 0.0000 2.2400
        vertex 17.9800 0.0000 -2.2400
        vertex -16.8640 0.0000 -2.2400
    endloop
endfacet
facet normal 0.0000 -0.7659 0.0000
    outer loop
        vertex -8.3296 -0.1000 -0.4216
        vertex -7.4560 -0.1000 -0.5512
        vertex -7.3840 -0.1000 -0.4216
    endloop
endfacet
facet normal 0.0000 -0.7683 0.0000
    outer loop
        vertex -7.3840 -0.1000 -0.4216
        vertex -7.4560 -0.1000 -0.2916
        vertex -8.3296 -0.1000 -0.4216
    endloop
endfacet
facet normal 0.0000 -0.7670 0.0000
    outer loop
        vertex -8.3296 -0.1000 -0.4216
        vertex -7.4560 -0.1000 -0.2916
        vertex -7.6608 -0.1000 -0.1816
    endloop
endfacet
facet normal 0.0000 -0.7662 0.0000
    outer loop
        vertex -7.6608 -0.1000 -0.1816
        vertex -7.9676 -0.1000 -0.1084
        vertex -8.3296 -0.1000 -0.4216
    endloop
endfacet
facet normal 0.0000 -0.7674 0.0000
    outer loop
        vertex -8.3296 -0.1000 -0.4216
        vertex -7.9676 -0.1000 -0.1084
        vertex -8.3296 -0.1000 -0.0824
    endloop
endfacet
facet normal 0.0000 -0.7674 0.0000
    outer loop
        vertex -8.3296 -0.1000 -0.0824
        vertex -8.6916 -0.1000 -0.1084
        vertex -8.3296 -0.1000 -0.4216
    endloop
endfacet
facet normal 0.0000 -0.7662 0.0000
    outer loop
        vertex -8.3296 -0.1000 -0.4216
        vertex -8.6916 -0.1000 -0.1084
        vertex -8.9984 -0.1000 -0.1816
    endloop
endfacet
facet normal 0.0000 -0.7676 0.0000
    outer loop
        vertex -8.9984 -0.1000 -0.1816
        vertex -9.2036 -0.1000 -0.2916
        vertex -8.3296 -0.1000 -0.4216
    endloop
endfacet
facet normal 0.0000 -0.7686 0.0000
    outer loop
        vertex -8.3296 -0.1000 -0.4216
        vertex -9.2036 -0.1000 -0.2916
        vertex -9.2756 -0.1000 -0.4216
    endloop
endfacet
facet normal 0.0000 -0.7663 0.0000
    outer loop
        vertex -9.2756 -0.1000 -0.4216
        vertex -9.2036 -0.1000 -0.5512
        vertex -8.3296 -0.1000 -0.4216
    endloop
endfacet
facet normal 0.0000 -0.7671 0.0000
    outer loop
        vertex -8.3296 -0.1000 -0.4216
        vertex -9.2036 -0.1000 -0.5512
        vertex -8.9984 -0.1000 -0.6612
    endloop
endfacet
facet normal 0.0000 -0.7671 0.0000
    outer loop
        vertex -8.9984 -0.1000 -0.6612
        vertex -8.6916 -0.1000 -0.7348
        vertex -8.3296 -0.1000 -0.4216
    endloop
endfacet
facet normal 0.0000 -0.7665 0.0000
    outer loop
        vertex -8.3296 -0.1000 -0.4216
        vertex -8.6916 -0.1000 -0.7348
        vertex -8.3296 -0.1000 -0.7604
    endloop
endfacet
facet normal 0.0000 -0.7665 0.0000
    outer loop
        vertex -8.3296 -0.1000 -0.7604
        vertex -7.9676 -0.1000 -0.7348
        vertex -8.3296 -0.1000 -0.4216
    endloop
endfacet
facet normal 0.0000 -0.7671 0.0000
    outer loop
        vertex -8.3296 -0.1000 -0.4216
        vertex -7.9676 -0.1000 -0.7348
        vertex -7.6608 -0.1000 -0.6612
    endloop
endfacet
facet normal 0.0000 -0.7665 0.0000
    outer loop
        vertex -7.6608 -0.1000 -0.6612
        vertex -7.4560 -0.1000 -0.5512
        vertex -8.3296 -0.1000 -0.4216
    endloop
endfacet
facet normal 0.0000 -0.7904 0.0000
    outer loop
        vertex -7.6608 -0.1000 -0.6612
        vertex -7.3724 -0.1000 -0.8840
        vertex -7.0792 -0.1000 -0.6720
    endloop
endfacet
facet normal 0.0000 -0.4137 0.0000
    outer loop
        vertex -7.0792 -0.1000 -0.6720
        vertex -7.4560 -0.1000 -0.5512
        vertex -7.6608 -0.1000 -0.6612
    endloop
endfacet
facet normal 0.0000 -0.6676 0.0000
    outer loop
        vertex -7.4560 -0.1000 -0.5512
        vertex -7.0792 -0.1000 -0.6720
        vertex -6.9760 -0.1000 -0.4216
    endloop
endfacet
facet normal 0.0000 -0.3305 0.0000
    outer loop
        vertex -6.9760 -0.1000 -0.4216
        vertex -7.3840 -0.1000 -0.4216
        vertex -7.4560 -0.1000 -0.5512
    endloop
endfacet
facet normal 0.0000 -0.6385 0.0000
    outer loop
        vertex -7.3840 -0.1000 -0.4216
        vertex -6.9760 -0.1000 -0.4216
        vertex -7.0792 -0.1000 -0.1712
    endloop
endfacet
facet normal 0.0000 -0.3603 0.0000
    outer loop
        vertex -7.0792 -0.1000 -0.1712
        vertex -7.4560 -0.1000 -0.2916
        vertex -7.3840 -0.1000 -0.4216
    endloop
endfacet
facet normal 0.0000 -0.7208 0.0000
    outer loop
        vertex -7.4560 -0.1000 -0.2916
        vertex -7.0792 -0.1000 -0.1712
        vertex -7.3724 -0.1000 0.0412
    endloop
endfacet
facet normal 0.0000 -0.4835 0.0000
    outer loop
        vertex -7.3724 -0.1000 0.0412
        vertex -7.6608 -0.1000 -0.1816
        vertex -7.4560 -0.1000 -0.2916
    endloop
endfacet
facet normal 0.0000 -0.8675 0.0000
    outer loop
        vertex -7.6608 -0.1000 -0.1816
        vertex -7.3724 -0.1000 0.0412
        vertex -7.8116 -0.1000 0.1832
    endloop
endfacet
facet normal 0.0000 -0.6305 0.0000
    outer loop
        vertex -7.8116 -0.1000 0.1832
        vertex -7.9676 -0.1000 -0.1084
        vertex -7.6608 -0.1000 -0.1816
    endloop
endfacet
facet normal 0.0000 -0.9924 0.0000
    outer loop
        vertex -7.9676 -0.1000 -0.1084
        vertex -7.8116 -0.1000 0.1832
        vertex -8.3296 -0.1000 0.2328
    endloop
endfacet
facet normal 0.0000 -0.7131 0.0000
    outer loop
        vertex -8.3296 -0.1000 0.2328
        vertex -8.3296 -0.1000 -0.0824
        vertex -7.9676 -0.1000 -0.1084
    endloop
endfacet
facet normal 0.0000 -1.0205 0.0000
    outer loop
        vertex -8.3296 -0.1000 -0.0824
        vertex -8.3296 -0.1000 0.2328
        vertex -8.8476 -0.1000 0.1832
    endloop
endfacet
facet normal 0.0000 -0.6851 0.0000
    outer loop
        vertex -8.8476 -0.1000 0.1832
        vertex -8.6916 -0.1000 -0.1084
        vertex -8.3296 -0.1000 -0.0824
    endloop
endfacet
facet normal 0.0000 -0.9389 0.0000
    outer loop
        vertex -8.6916 -0.1000 -0.1084
        vertex -8.8476 -0.1000 0.1832
        vertex -9.2868 -0.1000 0.0412
    endloop
endfacet
facet normal 0.0000 -0.5592 0.0000
    outer loop
        vertex -9.2868 -0.1000 0.0412
        vertex -8.9984 -0.1000 -0.1816
        vertex -8.6916 -0.1000 -0.1084
    endloop
endfacet
facet normal 0.0000 -0.7917 0.0000
    outer loop
        vertex -8.9984 -0.1000 -0.1816
        vertex -9.2868 -0.1000 0.0412
        vertex -9.5804 -0.1000 -0.1712
    endloop
endfacet
facet normal 0.0000 -0.4135 0.0000
    outer loop
        vertex -9.5804 -0.1000 -0.1712
        vertex -9.2036 -0.1000 -0.2916
        vertex -8.9984 -0.1000 -0.1816
    endloop
endfacet
facet normal 0.0000 -0.6670 0.0000
    outer loop
        vertex -9.2036 -0.1000 -0.2916
        vertex -9.5804 -0.1000 -0.1712
        vertex -9.6832 -0.1000 -0.4216
    endloop
endfacet
facet normal 0.0000 -0.3312 0.0000
    outer loop
        vertex -9.6832 -0.1000 -0.4216
        vertex -9.2756 -0.1000 -0.4216
        vertex -9.2036 -0.1000 -0.2916
    endloop
endfacet
facet normal 0.0000 -0.6379 0.0000
    outer loop
        vertex -9.2756 -0.1000 -0.4216
        vertex -9.6832 -0.1000 -0.4216
        vertex -9.5804 -0.1000 -0.6720
    endloop
endfacet
facet normal 0.0000 -0.3596 0.0000
    outer loop
        vertex -9.5804 -0.1000 -0.6720
        vertex -9.2036 -0.1000 -0.5512
        vertex -9.2756 -0.1000 -0.4216
    endloop
endfacet
facet normal 0.0000 -0.7209 0.0000
    outer loop
        vertex -9.2036 -0.1000 -0.5512
        vertex -9.5804 -0.1000 -0.6720
        vertex -9.2868 -0.1000 -0.8840
    endloop
endfacet
facet normal 0.0000 -0.4840 0.0000
    outer loop
        vertex -9.2868 -0.1000 -0.8840
        vertex -8.9984 -0.1000 -0.6612
        vertex -9.2036 -0.1000 -0.5512
    endloop
endfacet
facet normal 0.0000 -0.8675 0.0000
    outer loop
        vertex -8.9984 -0.1000 -0.6612
        vertex -9.2868 -0.1000 -0.8840
        vertex -8.8476 -0.1000 -1.0260
    endloop
endfacet
facet normal 0.0000 -0.6301 0.0000
    outer loop
        vertex -8.8476 -0.1000 -1.0260
        vertex -8.6916 -0.1000 -0.7348
        vertex -8.9984 -0.1000 -0.6612
    endloop
endfacet
facet normal 0.0000 -0.9911 0.0000
    outer loop
        vertex -8.6916 -0.1000 -0.7348
        vertex -8.8476 -0.1000 -1.0260
        vertex -8.3296 -0.1000 -1.0756
    endloop
endfacet
facet normal 0.0000 -0.7131 0.0000
    outer loop
        vertex -8.3296 -0.1000 -1.0756
        vertex -8.3296 -0.1000 -0.7604
        vertex -8.6916 -0.1000 -0.7348
    endloop
endfacet
facet normal 0.0000 -1.0205 0.0000
    outer loop
        vertex -8.3296 -0.1000 -0.7604
        vertex -8.3296 -0.1000 -1.0756
        vertex -7.8116 -0.1000 -1.0260
    endloop
endfacet
facet normal 0.0000 -0.6838 0.0000
    outer loop
        vertex -7.8116 -0.1000 -1.0260
        vertex -7.9676 -0.1000 -0.7348
        vertex -8.3296 -0.1000 -0.7604
    endloop
endfacet
facet normal 0.0000 -0.9378 0.0000
    outer loop
        vertex -7.9676 -0.1000 -0.7348
        vertex -7.8116 -0.1000 -1.0260
        vertex -7.3724 -0.1000 -0.8840
    endloop
endfacet
facet normal 0.0000 -0.5599 0.0000
    outer loop
        vertex -7.3724 -0.1000 -0.8840
        vertex -7.6608 -0.1000 -0.6612
        vertex -7.9676 -0.1000 -0.7348
    endloop
endfacet
facet normal 0.0000 -0.5942 0.0000
    outer loop
        vertex -8.3296 -0.1000 0.9452
        vertex -7.5340 -0.1000 0.8348
        vertex -7.4684 -0.1000 0.9452
    endloop
endfacet
facet normal 0.0000 -0.5942 0.0000
    outer loop
        vertex -7.4684 -0.1000 0.9452
        vertex -7.5340 -0.1000 1.0556
        vertex -8.3296 -0.1000 0.9452
    endloop
endfacet
facet normal 0.0000 -0.5943 0.0000
    outer loop
        vertex -8.3296 -0.1000 0.9452
        vertex -7.5340 -0.1000 1.0556
        vertex -7.7208 -0.1000 1.1492
    endloop
endfacet
facet normal 0.0000 -0.5934 0.0000
    outer loop
        vertex -7.7208 -0.1000 1.1492
        vertex -8.0000 -0.1000 1.2116
        vertex -8.3296 -0.1000 0.9452
    endloop
endfacet
facet normal 0.0000 -0.5941 0.0000
    outer loop
        vertex -8.3296 -0.1000 0.9452
        vertex -8.0000 -0.1000 1.2116
        vertex -8.3296 -0.1000 1.2336
    endloop
endfacet
facet normal 0.0000 -0.5941 0.0000
    outer loop
        vertex -8.3296 -0.1000 1.2336
        vertex -8.6592 -0.1000 1.2116
        vertex -8.3296 -0.1000 0.9452
    endloop
endfacet
facet normal 0.0000 -0.5941 0.0000
    outer loop
        vertex -8.3296 -0.1000 0.9452
        vertex -8.6592 -0.1000 1.2116
        vertex -8.9388 -0.1000 1.1492
    endloop
endfacet
facet normal 0.0000 -0.5940 0.0000
    outer loop
        vertex -8.9388 -0.1000 1.1492
        vertex -9.1252 -0.1000 1.0556
        vertex -8.3296 -0.1000 0.9452
    endloop
endfacet
facet normal 0.0000 -0.5942 0.0000
    outer loop
        vertex -8.3296 -0.1000 0.9452
        vertex -9.1252 -0.1000 1.0556
        vertex -9.1908 -0.1000 0.9452
    endloop
endfacet
facet normal 0.0000 -0.5942 0.0000
    outer loop
        vertex -9.1908 -0.1000 0.9452
        vertex -9.1252 -0.1000 0.8348
        vertex -8.3296 -0.1000 0.9452
    endloop
endfacet
facet normal 0.0000 -0.5921 0.0000
    outer loop
        vertex -8.3296 -0.1000 0.9452
        vertex -9.1252 -0.1000 0.8348
        vertex -8.9388 -0.1000 0.7416
    endloop
endfacet
facet normal 0.0000 -0.5949 0.0000
    outer loop
        vertex -8.9388 -0.1000 0.7416
        vertex -8.6592 -0.1000 0.6788
        vertex -8.3296 -0.1000 0.9452
    endloop
endfacet
facet normal 0.0000 -0.5933 0.0000
    outer loop
        vertex -8.3296 -0.1000 0.9452
        vertex -8.6592 -0.1000 0.6788
        vertex -8.3296 -0.1000 0.6572
    endloop
endfacet
facet normal 0.0000 -0.5933 0.0000
    outer loop
        vertex -8.3296 -0.1000 0.6572
        vertex -8.0000 -0.1000 0.6788
        vertex -8.3296 -0.1000 0.9452
    endloop
endfacet
facet normal 0.0000 -0.5942 0.0000
    outer loop
        vertex -8.3296 -0.1000 0.9452
        vertex -8.0000 -0.1000 0.6788
        vertex -7.7208 -0.1000 0.7416
    endloop
endfacet
facet normal 0.0000 -0.5923 0.0000
    outer loop
        vertex -7.7208 -0.1000 0.7416
        vertex -7.5340 -0.1000 0.8348
        vertex -8.3296 -0.1000 0.9452
    endloop
endfacet
facet normal 0.0000 -0.5537 0.0000
    outer loop
        vertex -8.0000 -0.1000 0.6788
        vertex -8.3296 -0.1000 0.6572
        vertex -8.3296 -0.1000 0.3884
    endloop
endfacet
facet normal 0.0000 -0.7512 0.0000
    outer loop
        vertex -8.3296 -0.1000 0.3884
        vertex -7.8676 -0.1000 0.4308
        vertex -8.0000 -0.1000 0.6788
    endloop
endfacet
facet normal 0.0000 -0.4847 0.0000
    outer loop
        vertex -7.7208 -0.1000 0.7416
        vertex -8.0000 -0.1000 0.6788
        vertex -7.8676 -0.1000 0.4308
    endloop
endfacet
facet normal 0.0000 -0.6498 0.0000
    outer loop
        vertex -7.8676 -0.1000 0.4308
        vertex -7.4760 -0.1000 0.5516
        vertex -7.7208 -0.1000 0.7416
    endloop
endfacet
facet normal 0.0000 -0.3644 0.0000
    outer loop
        vertex -7.5340 -0.1000 0.8348
        vertex -7.7208 -0.1000 0.7416
        vertex -7.4760 -0.1000 0.5516
    endloop
endfacet
facet normal 0.0000 -0.5284 0.0000
    outer loop
        vertex -7.4760 -0.1000 0.5516
        vertex -7.2144 -0.1000 0.7320
        vertex -7.5340 -0.1000 0.8348
    endloop
endfacet
facet normal 0.0000 -0.2627 0.0000
    outer loop
        vertex -7.4684 -0.1000 0.9452
        vertex -7.5340 -0.1000 0.8348
        vertex -7.2144 -0.1000 0.7320
    endloop
endfacet
facet normal 0.0000 -0.4610 0.0000
    outer loop
        vertex -7.2144 -0.1000 0.7320
        vertex -7.1224 -0.1000 0.9452
        vertex -7.4684 -0.1000 0.9452
    endloop
endfacet
facet normal 0.0000 -0.2387 0.0000
    outer loop
        vertex -7.5340 -0.1000 1.0556
        vertex -7.4684 -0.1000 0.9452
        vertex -7.1224 -0.1000 0.9452
    endloop
endfacet
facet normal 0.0000 -0.4850 0.0000
    outer loop
        vertex -7.1224 -0.1000 0.9452
        vertex -7.2144 -0.1000 1.1584
        vertex -7.5340 -0.1000 1.0556
    endloop
endfacet
facet normal 0.0000 -0.3070 0.0000
    outer loop
        vertex -7.7208 -0.1000 1.1492
        vertex -7.5340 -0.1000 1.0556
        vertex -7.2144 -0.1000 1.1584
    endloop
endfacet
facet normal 0.0000 -0.5873 0.0000
    outer loop
        vertex -7.2144 -0.1000 1.1584
        vertex -7.4760 -0.1000 1.3392
        vertex -7.7208 -0.1000 1.1492
    endloop
endfacet
facet normal 0.0000 -0.4270 0.0000
    outer loop
        vertex -8.0000 -0.1000 1.2116
        vertex -7.7208 -0.1000 1.1492
        vertex -7.4760 -0.1000 1.3392
    endloop
endfacet
facet normal 0.0000 -0.7079 0.0000
    outer loop
        vertex -7.4760 -0.1000 1.3392
        vertex -7.8676 -0.1000 1.4600
        vertex -8.0000 -0.1000 1.2116
    endloop
endfacet
facet normal 0.0000 -0.5299 0.0000
    outer loop
        vertex -8.3296 -0.1000 1.2336
        vertex -8.0000 -0.1000 1.2116
        vertex -7.8676 -0.1000 1.4600
    endloop
endfacet
facet normal 0.0000 -0.7762 0.0000
    outer loop
        vertex -7.8676 -0.1000 1.4600
        vertex -8.3296 -0.1000 1.5024
        vertex -8.3296 -0.1000 1.2336
    endloop
endfacet
facet normal 0.0000 -0.5537 0.0000
    outer loop
        vertex -8.6592 -0.1000 1.2116
        vertex -8.3296 -0.1000 1.2336
        vertex -8.3296 -0.1000 1.5024
    endloop
endfacet
facet normal 0.0000 -0.7523 0.0000
    outer loop
        vertex -8.3296 -0.1000 1.5024
        vertex -8.7916 -0.1000 1.4600
        vertex -8.6592 -0.1000 1.2116
    endloop
endfacet
facet normal 0.0000 -0.4857 0.0000
    outer loop
        vertex -8.9388 -0.1000 1.1492
        vertex -8.6592 -0.1000 1.2116
        vertex -8.7916 -0.1000 1.4600
    endloop
endfacet
facet normal 0.0000 -0.6503 0.0000
    outer loop
        vertex -8.7916 -0.1000 1.4600
        vertex -9.1836 -0.1000 1.3392
        vertex -8.9388 -0.1000 1.1492
    endloop
endfacet
facet normal 0.0000 -0.3646 0.0000
    outer loop
        vertex -9.1252 -0.1000 1.0556
        vertex -8.9388 -0.1000 1.1492
        vertex -9.1836 -0.1000 1.3392
    endloop
endfacet
facet normal 0.0000 -0.5297 0.0000
    outer loop
        vertex -9.1836 -0.1000 1.3392
        vertex -9.4452 -0.1000 1.1584
        vertex -9.1252 -0.1000 1.0556
    endloop
endfacet
facet normal 0.0000 -0.2629 0.0000
    outer loop
        vertex -9.1908 -0.1000 0.9452
        vertex -9.1252 -0.1000 1.0556
        vertex -9.4452 -0.1000 1.1584
    endloop
endfacet
facet normal 0.0000 -0.4616 0.0000
    outer loop
        vertex -9.4452 -0.1000 1.1584
        vertex -9.5372 -0.1000 0.9452
        vertex -9.1908 -0.1000 0.9452
    endloop
endfacet
facet normal 0.0000 -0.2390 0.0000
    outer loop
        vertex -9.1252 -0.1000 0.8348
        vertex -9.1908 -0.1000 0.9452
        vertex -9.5372 -0.1000 0.9452
    endloop
endfacet
facet normal 0.0000 -0.4855 0.0000
    outer loop
        vertex -9.5372 -0.1000 0.9452
        vertex -9.4452 -0.1000 0.7320
        vertex -9.1252 -0.1000 0.8348
    endloop
endfacet
facet normal 0.0000 -0.3062 0.0000
    outer loop
        vertex -8.9388 -0.1000 0.7416
        vertex -9.1252 -0.1000 0.8348
        vertex -9.4452 -0.1000 0.7320
    endloop
endfacet
facet normal 0.0000 -0.5867 0.0000
    outer loop
        vertex -9.4452 -0.1000 0.7320
        vertex -9.1836 -0.1000 0.5516
        vertex -8.9388 -0.1000 0.7416
    endloop
endfacet
facet normal 0.0000 -0.4281 0.0000
    outer loop
        vertex -8.6592 -0.1000 0.6788
        vertex -8.9388 -0.1000 0.7416
        vertex -9.1836 -0.1000 0.5516
    endloop
endfacet
facet normal 0.0000 -0.7076 0.0000
    outer loop
        vertex -9.1836 -0.1000 0.5516
        vertex -8.7916 -0.1000 0.4308
        vertex -8.6592 -0.1000 0.6788
    endloop
endfacet
facet normal 0.0000 -0.5288 0.0000
    outer loop
        vertex -8.3296 -0.1000 0.6572
        vertex -8.6592 -0.1000 0.6788
        vertex -8.7916 -0.1000 0.4308
    endloop
endfacet
facet normal 0.0000 -0.7762 0.0000
    outer loop
        vertex -8.7916 -0.1000 0.4308
        vertex -8.3296 -0.1000 0.3884
        vertex -8.3296 -0.1000 0.6572
    endloop
endfacet
facet normal 0.0000 -0.9077 0.0000
    outer loop
        vertex -5.9360 -0.1000 0.5548
        vertex -5.7384 -0.1000 0.9452
        vertex -6.1104 -0.1000 0.9452
    endloop
endfacet
facet normal 0.0000 -0.7236 0.0000
    outer loop
        vertex -6.1104 -0.1000 0.9452
        vertex -6.2792 -0.1000 0.6592
        vertex -5.9360 -0.1000 0.5548
    endloop
endfacet
facet normal 0.0000 -0.6716 0.0000
    outer loop
        vertex -6.2868 -0.1000 0.3484
        vertex -5.9360 -0.1000 0.5548
        vertex -6.2792 -0.1000 0.6592
    endloop
endfacet
facet normal 0.0000 -0.9232 0.0000
    outer loop
        vertex -6.2792 -0.1000 0.6592
        vertex -6.7604 -0.1000 0.4164
        vertex -6.2868 -0.1000 0.3484
    endloop
endfacet
facet normal 0.0000 -1.2721 0.0000
    outer loop
        vertex -5.9196 -0.1000 -0.4532
        vertex -5.4532 -0.1000 -0.4532
        vertex -5.6720 -0.1000 -0.0168
    endloop
endfacet
facet normal 0.0000 -0.9824 0.0000
    outer loop
        vertex -5.6720 -0.1000 -0.0168
        vertex -6.1032 -0.1000 -0.1420
        vertex -5.9196 -0.1000 -0.4532
    endloop
endfacet
facet normal 0.0000 -1.4653 0.0000
    outer loop
        vertex -6.1032 -0.1000 -0.1420
        vertex -5.6720 -0.1000 -0.0168
        vertex -6.2868 -0.1000 0.3484
    endloop
endfacet
facet normal 0.0000 -1.2987 0.0000
    outer loop
        vertex -6.2868 -0.1000 0.3484
        vertex -6.6256 -0.1000 0.1216
        vertex -6.1032 -0.1000 -0.1420
    endloop
endfacet
facet normal 0.0000 -0.8153 0.0000
    outer loop
        vertex -6.6256 -0.1000 0.1216
        vertex -6.2868 -0.1000 0.3484
        vertex -6.7604 -0.1000 0.4164
    endloop
endfacet
facet normal 0.0000 -0.8336 0.0000
    outer loop
        vertex -6.7604 -0.1000 0.4164
        vertex -7.1300 -0.1000 0.2352
        vertex -6.6256 -0.1000 0.1216
    endloop
endfacet
facet normal 0.0000 -1.2733 0.0000
    outer loop
        vertex -5.6720 -0.1000 -0.8900
        vertex -5.4532 -0.1000 -0.4532
        vertex -5.9196 -0.1000 -0.4532
    endloop
endfacet
facet normal 0.0000 -0.9834 0.0000
    outer loop
        vertex -5.9196 -0.1000 -0.4532
        vertex -6.1032 -0.1000 -0.7648
        vertex -5.6720 -0.1000 -0.8900
    endloop
endfacet
facet normal 0.0000 -1.4862 0.0000
    outer loop
        vertex -6.2956 -0.1000 -1.2604
        vertex -5.6720 -0.1000 -0.8900
        vertex -6.1032 -0.1000 -0.7648
    endloop
endfacet
facet normal 0.0000 -1.3012 0.0000
    outer loop
        vertex -6.1032 -0.1000 -0.7648
        vertex -6.6256 -0.1000 -1.0284
        vertex -6.2956 -0.1000 -1.2604
    endloop
endfacet
facet normal 0.0000 -1.8638 0.0000
    outer loop
        vertex -7.2288 -0.1000 -1.5080
        vertex -6.2956 -0.1000 -1.2604
        vertex -6.6256 -0.1000 -1.0284
    endloop
endfacet
facet normal 0.0000 -1.6790 0.0000
    outer loop
        vertex -6.6256 -0.1000 -1.0284
        vertex -7.4076 -0.1000 -1.2048
        vertex -7.2288 -0.1000 -1.5080
    endloop
endfacet
facet normal 0.0000 -2.1830 0.0000
    outer loop
        vertex -8.3296 -0.1000 -1.5948
        vertex -7.2288 -0.1000 -1.5080
        vertex -7.4076 -0.1000 -1.2048
    endloop
endfacet
facet normal 0.0000 -1.8901 0.0000
    outer loop
        vertex -7.4076 -0.1000 -1.2048
        vertex -8.3296 -0.1000 -1.2668
        vertex -8.3296 -0.1000 -1.5948
    endloop
endfacet
facet normal 0.0000 -2.2566 0.0000
    outer loop
        vertex -9.4304 -0.1000 -1.5080
        vertex -8.3296 -0.1000 -1.5948
        vertex -8.3296 -0.1000 -1.2668
    endloop
endfacet
facet normal 0.0000 -1.8171 0.0000
    outer loop
        vertex -8.3296 -0.1000 -1.2668
        vertex -9.2520 -0.1000 -1.2048
        vertex -9.4304 -0.1000 -1.5080
    endloop
endfacet
facet normal 0.0000 -2.0445 0.0000
    outer loop
        vertex -10.3636 -0.1000 -1.2604
        vertex -9.4304 -0.1000 -1.5080
        vertex -9.2520 -0.1000 -1.2048
    endloop
endfacet
facet normal 0.0000 -1.4973 0.0000
    outer loop
        vertex -9.2520 -0.1000 -1.2048
        vertex -10.0340 -0.1000 -1.0284
        vertex -10.3636 -0.1000 -1.2604
    endloop
endfacet
facet normal 0.0000 -1.6672 0.0000
    outer loop
        vertex -10.9872 -0.1000 -0.8900
        vertex -10.3636 -0.1000 -1.2604
        vertex -10.0340 -0.1000 -1.0284
    endloop
endfacet
facet normal 0.0000 -1.1185 0.0000
    outer loop
        vertex -10.0340 -0.1000 -1.0284
        vertex -10.5564 -0.1000 -0.7648
        vertex -10.9872 -0.1000 -0.8900
    endloop
endfacet
facet normal 0.0000 -1.3476 0.0000
    outer loop
        vertex -11.2064 -0.1000 -0.4532
        vertex -10.9872 -0.1000 -0.8900
        vertex -10.5564 -0.1000 -0.7648
    endloop
endfacet
facet normal 0.0000 -0.9091 0.0000
    outer loop
        vertex -10.5564 -0.1000 -0.7648
        vertex -10.7396 -0.1000 -0.4532
        vertex -11.2064 -0.1000 -0.4532
    endloop
endfacet
facet normal 0.0000 -1.2989 0.0000
    outer loop
        vertex -11.1424 -0.1000 -0.0080
        vertex -11.2064 -0.1000 -0.4532
        vertex -10.7396 -0.1000 -0.4532
    endloop
endfacet
facet normal 0.0000 -1.2932 0.0000
    outer loop
        vertex -10.7396 -0.1000 -0.4532
        vertex -10.5564 -0.1000 -0.1420
        vertex -11.1424 -0.1000 -0.0080
    endloop
endfacet
facet normal 0.0000 -1.4029 0.0000
    outer loop
        vertex -11.1424 -0.1000 -0.0080
        vertex -10.5564 -0.1000 -0.1420
        vertex -10.0340 -0.1000 0.1216
    endloop
endfacet
facet normal 0.0000 -1.5158 0.0000
    outer loop
        vertex -10.0340 -0.1000 0.1216
        vertex -10.5096 -0.1000 0.2848
        vertex -11.1424 -0.1000 -0.0080
    endloop
endfacet
facet normal 0.0000 -0.9077 0.0000
    outer loop
        vertex -6.1104 -0.1000 0.9452
        vertex -5.7384 -0.1000 0.9452
        vertex -5.9360 -0.1000 1.3356
    endloop
endfacet
facet normal 0.0000 -0.7240 0.0000
    outer loop
        vertex -5.9360 -0.1000 1.3356
        vertex -6.2792 -0.1000 1.2316
        vertex -6.1104 -0.1000 0.9452
    endloop
endfacet
facet normal 0.0000 -1.0746 0.0000
    outer loop
        vertex -6.2792 -0.1000 1.2316
        vertex -5.9360 -0.1000 1.3356
        vertex -6.4976 -0.1000 1.6664
    endloop
endfacet
facet normal 0.0000 -0.9768 0.0000
    outer loop
        vertex -6.4976 -0.1000 1.6664
        vertex -6.7604 -0.1000 1.4740
        vertex -6.2792 -0.1000 1.2316
    endloop
endfacet
facet normal 0.0000 -1.3739 0.0000
    outer loop
        vertex -6.7604 -0.1000 1.4740
        vertex -6.4976 -0.1000 1.6664
        vertex -7.3380 -0.1000 1.8876
    endloop
endfacet
facet normal 0.0000 -1.2749 0.0000
    outer loop
        vertex -7.3380 -0.1000 1.8876
        vertex -7.4804 -0.1000 1.6364
        vertex -6.7604 -0.1000 1.4740
    endloop
endfacet
facet normal 0.0000 -1.6259 0.0000
    outer loop
        vertex -7.4804 -0.1000 1.6364
        vertex -7.3380 -0.1000 1.8876
        vertex -8.3296 -0.1000 1.9652
    endloop
endfacet
facet normal 0.0000 -1.4436 0.0000
    outer loop
        vertex -8.3296 -0.1000 1.9652
        vertex -8.3296 -0.1000 1.6932
        vertex -7.4804 -0.1000 1.6364
    endloop
endfacet
facet normal 0.0000 -1.6857 0.0000
    outer loop
        vertex -8.3296 -0.1000 1.6932
        vertex -8.3296 -0.1000 1.9652
        vertex -9.3212 -0.1000 1.8876
    endloop
endfacet
facet normal 0.0000 -1.3843 0.0000
    outer loop
        vertex -9.3212 -0.1000 1.8876
        vertex -9.1792 -0.1000 1.6364
        vertex -8.3296 -0.1000 1.6932
    endloop
endfacet
facet normal 0.0000 -1.5164 0.0000
    outer loop
        vertex -9.1792 -0.1000 1.6364
        vertex -9.3212 -0.1000 1.8876
        vertex -10.1620 -0.1000 1.6664
    endloop
endfacet
facet normal 0.0000 -1.1325 0.0000
    outer loop
        vertex -10.1620 -0.1000 1.6664
        vertex -9.8992 -0.1000 1.4740
        vertex -9.1792 -0.1000 1.6364
    endloop
endfacet
facet normal 0.0000 -1.2187 0.0000
    outer loop
        vertex -9.8992 -0.1000 1.4740
        vertex -10.1620 -0.1000 1.6664
        vertex -10.7236 -0.1000 1.3356
    endloop
endfacet
facet normal 0.0000 -0.8331 0.0000
    outer loop
        vertex -10.7236 -0.1000 1.3356
        vertex -10.3800 -0.1000 1.2316
        vertex -9.8992 -0.1000 1.4740
    endloop
endfacet
facet normal 0.0000 -0.9666 0.0000
    outer loop
        vertex -10.3800 -0.1000 1.2316
        vertex -10.7236 -0.1000 1.3356
        vertex -10.9208 -0.1000 0.9452
    endloop
endfacet
facet normal 0.0000 -0.6652 0.0000
    outer loop
        vertex -10.9208 -0.1000 0.9452
        vertex -10.5492 -0.1000 0.9452
        vertex -10.3800 -0.1000 1.2316
    endloop
endfacet
facet normal 0.0000 -0.9067 0.0000
    outer loop
        vertex -10.5492 -0.1000 0.9452
        vertex -10.9208 -0.1000 0.9452
        vertex -10.7236 -0.1000 0.5548
    endloop
endfacet
facet normal 0.0000 -0.7246 0.0000
    outer loop
        vertex -10.7236 -0.1000 0.5548
        vertex -10.3800 -0.1000 0.6592
        vertex -10.5492 -0.1000 0.9452
    endloop
endfacet
facet normal 0.0000 -0.6721 0.0000
    outer loop
        vertex -10.3800 -0.1000 0.6592
        vertex -10.7236 -0.1000 0.5548
        vertex -10.3728 -0.1000 0.3484
    endloop
endfacet
facet normal 0.0000 -0.9230 0.0000
    outer loop
        vertex -10.3728 -0.1000 0.3484
        vertex -9.8992 -0.1000 0.4164
        vertex -10.3800 -0.1000 0.6592
    endloop
endfacet
facet normal 0.0000 -0.8153 0.0000
    outer loop
        vertex -9.8992 -0.1000 0.4164
        vertex -10.3728 -0.1000 0.3484
        vertex -10.0340 -0.1000 0.1216
    endloop
endfacet
facet normal 0.0000 -0.8336 0.0000
    outer loop
        vertex -10.0340 -0.1000 0.1216
        vertex -9.5296 -0.1000 0.2352
        vertex -9.8992 -0.1000 0.4164
    endloop
endfacet
facet normal 0.0000 -0.2264 0.0000
    outer loop
        vertex -9.8992 -0.1000 0.4164
        vertex -9.5296 -0.1000 0.2352
        vertex -9.5296 -0.1000 0.3332
    endloop
endfacet
facet normal 0.0000 -0.2264 0.0000
    outer loop
        vertex -6.7604 -0.1000 0.4164
        vertex -7.1300 -0.1000 0.3332
        vertex -7.1300 -0.1000 0.2352
    endloop
endfacet
facet normal 0.0000 -2.4182 0.0000
    outer loop
        vertex -12.2380 -0.1000 -1.0956
        vertex -11.1424 -0.1000 -0.0080
        vertex -11.2032 -0.1000 0.2848
    endloop
endfacet
facet normal 0.0000 -18.6043 0.0000
    outer loop
        vertex -11.2032 -0.1000 0.2848
        vertex -13.3596 -0.1000 0.2848
        vertex -12.2380 -0.1000 -1.0956
    endloop
endfacet
facet normal 0.0000 -2.6580 0.0000
    outer loop
        vertex -13.3596 -0.1000 0.2848
        vertex -13.4236 -0.1000 -0.0156
        vertex -12.2380 -0.1000 -1.0956
    endloop
endfacet
facet normal 0.0000 -2.6135 0.0000
    outer loop
        vertex -11.2064 -0.1000 -0.4532
        vertex -11.1424 -0.1000 -0.0080
        vertex -12.2380 -0.1000 -1.0956
    endloop
endfacet
facet normal 0.0000 -3.2155 0.0000
    outer loop
        vertex -12.2380 -0.1000 -1.0956
        vertex -12.6004 -0.1000 -1.8200
        vertex -11.2064 -0.1000 -0.4532
    endloop
endfacet
facet normal 0.0000 -0.9961 0.0000
    outer loop
        vertex -12.8204 -0.1000 -1.8200
        vertex -12.6004 -0.1000 -1.8200
        vertex -12.2380 -0.1000 -1.0956
    endloop
endfacet
facet normal 0.0000 -9.2990 0.0000
    outer loop
        vertex -12.2380 -0.1000 -1.0956
        vertex -13.4236 -0.1000 -0.0156
        vertex -12.8204 -0.1000 -1.8200
    endloop
endfacet
facet normal 0.0000 -17.6646 0.0000
    outer loop
        vertex -15.0504 -0.1000 0.1652
        vertex -12.8204 -0.1000 -1.8200
        vertex -13.4236 -0.1000 -0.0156
    endloop
endfacet
facet normal 0.0000 -0.8752 0.0000
    outer loop
        vertex -15.3520 -0.1000 0.2848
        vertex -15.0504 -0.1000 0.1652
        vertex -13.4236 -0.1000 -0.0156
    endloop
endfacet
facet normal 0.0000 -3.7407 0.0000
    outer loop
        vertex -13.4236 -0.1000 -0.0156
        vertex -13.3596 -0.1000 0.2848
        vertex -15.3520 -0.1000 0.2848
    endloop
endfacet
facet normal 0.0000 -1.2693 0.0000
    outer loop
        vertex -10.5096 -0.1000 0.2848
        vertex -11.2032 -0.1000 0.2848
        vertex -11.1424 -0.1000 -0.0080
    endloop
endfacet
facet normal 0.0000 -0.5509 0.0000
    outer loop
        vertex -8.7916 -0.1000 1.4600
        vertex -8.3296 -0.1000 1.5024
        vertex -8.3296 -0.1000 1.6932
    endloop
endfacet
facet normal 0.0000 -1.0743 0.0000
    outer loop
        vertex -8.3296 -0.1000 1.6932
        vertex -9.1792 -0.1000 1.6364
        vertex -8.7916 -0.1000 1.4600
    endloop
endfacet
facet normal 0.0000 -0.7248 0.0000
    outer loop
        vertex -9.1836 -0.1000 1.3392
        vertex -8.7916 -0.1000 1.4600
        vertex -9.1792 -0.1000 1.6364
    endloop
endfacet
facet normal 0.0000 -1.3329 0.0000
    outer loop
        vertex -9.1792 -0.1000 1.6364
        vertex -9.8992 -0.1000 1.4740
        vertex -9.1836 -0.1000 1.3392
    endloop
endfacet
facet normal 0.0000 -1.0290 0.0000
    outer loop
        vertex -9.4452 -0.1000 1.1584
        vertex -9.1836 -0.1000 1.3392
        vertex -9.8992 -0.1000 1.4740
    endloop
endfacet
facet normal 0.0000 -1.6362 0.0000
    outer loop
        vertex -9.8992 -0.1000 1.4740
        vertex -10.3800 -0.1000 1.2316
        vertex -9.4452 -0.1000 1.1584
    endloop
endfacet
facet normal 0.0000 -1.2877 0.0000
    outer loop
        vertex -9.5372 -0.1000 0.9452
        vertex -9.4452 -0.1000 1.1584
        vertex -10.3800 -0.1000 1.2316
    endloop
endfacet
facet normal 0.0000 -1.8115 0.0000
    outer loop
        vertex -10.3800 -0.1000 1.2316
        vertex -10.5492 -0.1000 0.9452
        vertex -9.5372 -0.1000 0.9452
    endloop
endfacet
facet normal 0.0000 -1.3485 0.0000
    outer loop
        vertex -9.4452 -0.1000 0.7320
        vertex -9.5372 -0.1000 0.9452
        vertex -10.5492 -0.1000 0.9452
    endloop
endfacet
facet normal 0.0000 -1.7479 0.0000
    outer loop
        vertex -10.5492 -0.1000 0.9452
        vertex -10.3800 -0.1000 0.6592
        vertex -9.4452 -0.1000 0.7320
    endloop
endfacet
facet normal 0.0000 -1.1730 0.0000
    outer loop
        vertex -9.1836 -0.1000 0.5516
        vertex -9.4452 -0.1000 0.7320
        vertex -10.3800 -0.1000 0.6592
    endloop
endfacet
facet normal 0.0000 -1.4922 0.0000
    outer loop
        vertex -10.3800 -0.1000 0.6592
        vertex -9.8992 -0.1000 0.4164
        vertex -9.1836 -0.1000 0.5516
    endloop
endfacet
facet normal 0.0000 -0.8715 0.0000
    outer loop
        vertex -8.7916 -0.1000 0.4308
        vertex -9.1836 -0.1000 0.5516
        vertex -9.8992 -0.1000 0.4164
    endloop
endfacet
facet normal 0.0000 -0.6092 0.0000
    outer loop
        vertex -9.8992 -0.1000 0.4164
        vertex -9.5296 -0.1000 0.3332
        vertex -8.7916 -0.1000 0.4308
    endloop
endfacet
facet normal 0.0000 -0.4774 0.0000
    outer loop
        vertex -8.3296 -0.1000 0.3884
        vertex -8.7916 -0.1000 0.4308
        vertex -9.5296 -0.1000 0.3332
    endloop
endfacet
facet normal 0.0000 -1.1670 0.0000
    outer loop
        vertex -9.5296 -0.1000 0.3332
        vertex -8.3296 -0.1000 0.2328
        vertex -8.3296 -0.1000 0.3884
    endloop
endfacet
facet normal 0.0000 -1.1666 0.0000
    outer loop
        vertex -8.3296 -0.1000 0.3884
        vertex -8.3296 -0.1000 0.2328
        vertex -7.1300 -0.1000 0.3332
    endloop
endfacet
facet normal 0.0000 -0.4773 0.0000
    outer loop
        vertex -7.1300 -0.1000 0.3332
        vertex -7.8676 -0.1000 0.4308
        vertex -8.3296 -0.1000 0.3884
    endloop
endfacet
facet normal 0.0000 -0.6090 0.0000
    outer loop
        vertex -7.8676 -0.1000 0.4308
        vertex -7.1300 -0.1000 0.3332
        vertex -6.7604 -0.1000 0.4164
    endloop
endfacet
facet normal 0.0000 -0.8712 0.0000
    outer loop
        vertex -6.7604 -0.1000 0.4164
        vertex -7.4760 -0.1000 0.5516
        vertex -7.8676 -0.1000 0.4308
    endloop
endfacet
facet normal 0.0000 -1.4925 0.0000
    outer loop
        vertex -7.4760 -0.1000 0.5516
        vertex -6.7604 -0.1000 0.4164
        vertex -6.2792 -0.1000 0.6592
    endloop
endfacet
facet normal 0.0000 -1.1735 0.0000
    outer loop
        vertex -6.2792 -0.1000 0.6592
        vertex -7.2144 -0.1000 0.7320
        vertex -7.4760 -0.1000 0.5516
    endloop
endfacet
facet normal 0.0000 -1.7485 0.0000
    outer loop
        vertex -7.2144 -0.1000 0.7320
        vertex -6.2792 -0.1000 0.6592
        vertex -6.1104 -0.1000 0.9452
    endloop
endfacet
facet normal 0.0000 -1.3485 0.0000
    outer loop
        vertex -6.1104 -0.1000 0.9452
        vertex -7.1224 -0.1000 0.9452
        vertex -7.2144 -0.1000 0.7320
    endloop
endfacet
facet normal 0.0000 -1.8115 0.0000
    outer loop
        vertex -7.1224 -0.1000 0.9452
        vertex -6.1104 -0.1000 0.9452
        vertex -6.2792 -0.1000 1.2316
    endloop
endfacet
facet normal 0.0000 -1.2882 0.0000
    outer loop
        vertex -6.2792 -0.1000 1.2316
        vertex -7.2144 -0.1000 1.1584
        vertex -7.1224 -0.1000 0.9452
    endloop
endfacet
facet normal 0.0000 -1.6370 0.0000
    outer loop
        vertex -7.2144 -0.1000 1.1584
        vertex -6.2792 -0.1000 1.2316
        vertex -6.7604 -0.1000 1.4740
    endloop
endfacet
facet normal 0.0000 -1.0290 0.0000
    outer loop
        vertex -6.7604 -0.1000 1.4740
        vertex -7.4760 -0.1000 1.3392
        vertex -7.2144 -0.1000 1.1584
    endloop
endfacet
facet normal 0.0000 -1.3329 0.0000
    outer loop
        vertex -7.4760 -0.1000 1.3392
        vertex -6.7604 -0.1000 1.4740
        vertex -7.4804 -0.1000 1.6364
    endloop
endfacet
facet normal 0.0000 -0.7241 0.0000
    outer loop
        vertex -7.4804 -0.1000 1.6364
        vertex -7.8676 -0.1000 1.4600
        vertex -7.4760 -0.1000 1.3392
    endloop
endfacet
facet normal 0.0000 -1.0737 0.0000
    outer loop
        vertex -7.8676 -0.1000 1.4600
        vertex -7.4804 -0.1000 1.6364
        vertex -8.3296 -0.1000 1.6932
    endloop
endfacet
facet normal 0.0000 -0.5509 0.0000
    outer loop
        vertex -8.3296 -0.1000 1.6932
        vertex -8.3296 -0.1000 1.5024
        vertex -7.8676 -0.1000 1.4600
    endloop
endfacet
facet normal 0.0000 -0.6969 0.0000
    outer loop
        vertex -7.1300 -0.1000 0.3332
        vertex -8.3296 -0.1000 0.2328
        vertex -7.8116 -0.1000 0.1832
    endloop
endfacet
facet normal 0.0000 -0.4175 0.0000
    outer loop
        vertex -7.8116 -0.1000 0.1832
        vertex -7.1300 -0.1000 0.2352
        vertex -7.1300 -0.1000 0.3332
    endloop
endfacet
facet normal 0.0000 -0.7477 0.0000
    outer loop
        vertex -7.1300 -0.1000 0.2352
        vertex -7.8116 -0.1000 0.1832
        vertex -7.3724 -0.1000 0.0412
    endloop
endfacet
facet normal 0.0000 -0.7837 0.0000
    outer loop
        vertex -7.3724 -0.1000 0.0412
        vertex -6.6256 -0.1000 0.1216
        vertex -7.1300 -0.1000 0.2352
    endloop
endfacet
facet normal 0.0000 -1.1387 0.0000
    outer loop
        vertex -6.6256 -0.1000 0.1216
        vertex -7.3724 -0.1000 0.0412
        vertex -7.0792 -0.1000 -0.1712
    endloop
endfacet
facet normal 0.0000 -1.7033 0.0000
    outer loop
        vertex -7.0792 -0.1000 -0.1712
        vertex -6.1032 -0.1000 -0.1420
        vertex -6.6256 -0.1000 0.1216
    endloop
endfacet
facet normal 0.0000 -1.5463 0.0000
    outer loop
        vertex -6.1032 -0.1000 -0.1420
        vertex -7.0792 -0.1000 -0.1712
        vertex -6.9760 -0.1000 -0.4216
    endloop
endfacet
facet normal 0.0000 -2.0184 0.0000
    outer loop
        vertex -6.9760 -0.1000 -0.4216
        vertex -5.9196 -0.1000 -0.4532
        vertex -6.1032 -0.1000 -0.1420
    endloop
endfacet
facet normal 0.0000 -1.6736 0.0000
    outer loop
        vertex -5.9196 -0.1000 -0.4532
        vertex -6.9760 -0.1000 -0.4216
        vertex -7.0792 -0.1000 -0.6720
    endloop
endfacet
facet normal 0.0000 -2.0072 0.0000
    outer loop
        vertex -7.0792 -0.1000 -0.6720
        vertex -6.1032 -0.1000 -0.7648
        vertex -5.9196 -0.1000 -0.4532
    endloop
endfacet
facet normal 0.0000 -1.4633 0.0000
    outer loop
        vertex -6.1032 -0.1000 -0.7648
        vertex -7.0792 -0.1000 -0.6720
        vertex -7.3724 -0.1000 -0.8840
    endloop
endfacet
facet normal 0.0000 -1.7018 0.0000
    outer loop
        vertex -7.3724 -0.1000 -0.8840
        vertex -6.6256 -0.1000 -1.0284
        vertex -6.1032 -0.1000 -0.7648
    endloop
endfacet
facet normal 0.0000 -1.0592 0.0000
    outer loop
        vertex -6.6256 -0.1000 -1.0284
        vertex -7.3724 -0.1000 -0.8840
        vertex -7.8116 -0.1000 -1.0260
    endloop
endfacet
facet normal 0.0000 -1.3193 0.0000
    outer loop
        vertex -7.8116 -0.1000 -1.0260
        vertex -7.4076 -0.1000 -1.2048
        vertex -6.6256 -0.1000 -1.0284
    endloop
endfacet
facet normal 0.0000 -0.7041 0.0000
    outer loop
        vertex -7.4076 -0.1000 -1.2048
        vertex -7.8116 -0.1000 -1.0260
        vertex -8.3296 -0.1000 -1.0756
    endloop
endfacet
facet normal 0.0000 -1.1018 0.0000
    outer loop
        vertex -8.3296 -0.1000 -1.0756
        vertex -8.3296 -0.1000 -1.2668
        vertex -7.4076 -0.1000 -1.2048
    endloop
endfacet
facet normal 0.0000 -1.1023 0.0000
    outer loop
        vertex -9.2520 -0.1000 -1.2048
        vertex -8.3296 -0.1000 -1.2668
        vertex -8.3296 -0.1000 -1.0756
    endloop
endfacet
facet normal 0.0000 -0.7042 0.0000
    outer loop
        vertex -8.3296 -0.1000 -1.0756
        vertex -8.8476 -0.1000 -1.0260
        vertex -9.2520 -0.1000 -1.2048
    endloop
endfacet
facet normal 0.0000 -1.3197 0.0000
    outer loop
        vertex -10.0340 -0.1000 -1.0284
        vertex -9.2520 -0.1000 -1.2048
        vertex -8.8476 -0.1000 -1.0260
    endloop
endfacet
facet normal 0.0000 -1.0595 0.0000
    outer loop
        vertex -8.8476 -0.1000 -1.0260
        vertex -9.2868 -0.1000 -0.8840
        vertex -10.0340 -0.1000 -1.0284
    endloop
endfacet
facet normal 0.0000 -1.7025 0.0000
    outer loop
        vertex -10.5564 -0.1000 -0.7648
        vertex -10.0340 -0.1000 -1.0284
        vertex -9.2868 -0.1000 -0.8840
    endloop
endfacet
facet normal 0.0000 -1.4635 0.0000
    outer loop
        vertex -9.2868 -0.1000 -0.8840
        vertex -9.5804 -0.1000 -0.6720
        vertex -10.5564 -0.1000 -0.7648
    endloop
endfacet
facet normal 0.0000 -2.0070 0.0000
    outer loop
        vertex -10.7396 -0.1000 -0.4532
        vertex -10.5564 -0.1000 -0.7648
        vertex -9.5804 -0.1000 -0.6720
    endloop
endfacet
facet normal 0.0000 -1.6736 0.0000
    outer loop
        vertex -9.5804 -0.1000 -0.6720
        vertex -9.6832 -0.1000 -0.4216
        vertex -10.7396 -0.1000 -0.4532
    endloop
endfacet
facet normal 0.0000 -2.0185 0.0000
    outer loop
        vertex -10.5564 -0.1000 -0.1420
        vertex -10.7396 -0.1000 -0.4532
        vertex -9.6832 -0.1000 -0.4216
    endloop
endfacet
facet normal 0.0000 -1.5462 0.0000
    outer loop
        vertex -9.6832 -0.1000 -0.4216
        vertex -9.5804 -0.1000 -0.1712
        vertex -10.5564 -0.1000 -0.1420
    endloop
endfacet
facet normal 0.0000 -1.7033 0.0000
    outer loop
        vertex -10.0340 -0.1000 0.1216
        vertex -10.5564 -0.1000 -0.1420
        vertex -9.5804 -0.1000 -0.1712
    endloop
endfacet
facet normal 0.0000 -1.1394 0.0000
    outer loop
        vertex -9.5804 -0.1000 -0.1712
        vertex -9.2868 -0.1000 0.0412
        vertex -10.0340 -0.1000 0.1216
    endloop
endfacet
facet normal 0.0000 -0.7840 0.0000
    outer loop
        vertex -9.5296 -0.1000 0.2352
        vertex -10.0340 -0.1000 0.1216
        vertex -9.2868 -0.1000 0.0412
    endloop
endfacet
facet normal 0.0000 -0.7480 0.0000
    outer loop
        vertex -9.2868 -0.1000 0.0412
        vertex -8.8476 -0.1000 0.1832
        vertex -9.5296 -0.1000 0.2352
    endloop
endfacet
facet normal 0.0000 -0.4177 0.0000
    outer loop
        vertex -9.5296 -0.1000 0.3332
        vertex -9.5296 -0.1000 0.2352
        vertex -8.8476 -0.1000 0.1832
    endloop
endfacet
facet normal 0.0000 -0.6970 0.0000
    outer loop
        vertex -8.8476 -0.1000 0.1832
        vertex -8.3296 -0.1000 0.2328
        vertex -9.5296 -0.1000 0.3332
    endloop
endfacet
facet normal 0.0000 -3.8663 0.0000
    outer loop
        vertex -9.4304 -0.1000 -1.5080
        vertex -12.6004 -0.1000 -1.8200
        vertex -8.3296 -0.1000 -1.5948
    endloop
endfacet
facet normal 0.0000 -6.7253 0.0000
    outer loop
        vertex -10.3636 -0.1000 -1.2604
        vertex -12.6004 -0.1000 -1.8200
        vertex -9.4304 -0.1000 -1.5080
    endloop
endfacet
facet normal 0.0000 -7.3592 0.0000
    outer loop
        vertex -10.9872 -0.1000 -0.8900
        vertex -12.6004 -0.1000 -1.8200
        vertex -10.3636 -0.1000 -1.2604
    endloop
endfacet
facet normal 0.0000 -5.6781 0.0000
    outer loop
        vertex -11.2064 -0.1000 -0.4532
        vertex -12.6004 -0.1000 -1.8200
        vertex -10.9872 -0.1000 -0.8900
    endloop
endfacet
facet normal 0.0000 -0.3286 0.0000
    outer loop
        vertex -10.3728 -0.1000 0.3484
        vertex -10.5096 -0.1000 0.2848
        vertex -10.0340 -0.1000 0.1216
    endloop
endfacet
facet normal 0.0000 -0.3159 0.0000
    outer loop
        vertex -10.5096 -0.1000 0.2848
        vertex -10.3728 -0.1000 0.3484
        vertex -10.7236 -0.1000 0.5548
    endloop
endfacet
facet normal 0.0000 -1.1704 0.0000
    outer loop
        vertex -10.7236 -0.1000 0.5548
        vertex -11.2032 -0.1000 0.2848
        vertex -10.5096 -0.1000 0.2848
    endloop
endfacet
facet normal 0.0000 -1.5030 0.0000
    outer loop
        vertex -11.2032 -0.1000 0.2848
        vertex -10.7236 -0.1000 0.5548
        vertex -10.9208 -0.1000 0.9452
    endloop
endfacet
facet normal 0.0000 -8.9005 0.0000
    outer loop
        vertex -10.9208 -0.1000 0.9452
        vertex -13.3596 -0.1000 0.2848
        vertex -11.2032 -0.1000 0.2848
    endloop
endfacet
facet normal 0.0000 -5.1367 0.0000
    outer loop
        vertex -13.3596 -0.1000 0.2848
        vertex -10.9208 -0.1000 0.9452
        vertex -10.7236 -0.1000 1.3356
    endloop
endfacet
facet normal 0.0000 -13.0851 0.0000
    outer loop
        vertex -10.7236 -0.1000 1.3356
        vertex -15.3520 -0.1000 0.2848
        vertex -13.3596 -0.1000 0.2848
    endloop
endfacet
facet normal 0.0000 -5.8809 0.0000
    outer loop
        vertex -15.3520 -0.1000 0.2848
        vertex -10.7236 -0.1000 1.3356
        vertex -10.1620 -0.1000 1.6664
    endloop
endfacet
facet normal 0.0000 -86.1146 0.0000
    outer loop
        vertex -10.1620 -0.1000 1.6664
        vertex -17.9800 -0.1000 2.2400
        vertex -15.3520 -0.1000 0.2848
    endloop
endfacet
facet normal 0.0000 -2.0752 0.0000
    outer loop
        vertex -12.8204 -0.1000 -1.8200
        vertex -15.0504 -0.1000 0.1652
        vertex -15.3520 -0.1000 0.2848
    endloop
endfacet
facet normal 0.0000 -59.8390 0.0000
    outer loop
        vertex -15.3520 -0.1000 0.2848
        vertex -16.8640 -0.1000 -2.2400
        vertex -12.8204 -0.1000 -1.8200
    endloop
endfacet
facet normal 0.0000 -1.1344 0.0000
    outer loop
        vertex -5.6720 -0.1000 -0.0168
        vertex -5.4532 -0.1000 -0.4532
        vertex -5.7384 -0.1000 0.9452
    endloop
endfacet
facet normal 0.0000 -1.3501 0.0000
    outer loop
        vertex -5.7384 -0.1000 0.9452
        vertex -5.9360 -0.1000 0.5548
        vertex -5.6720 -0.1000 -0.0168
    endloop
endfacet
facet normal 0.0000 -1.5938 0.0000
    outer loop
        vertex -5.9360 -0.1000 0.5548
        vertex -6.2868 -0.1000 0.3484
        vertex -5.6720 -0.1000 -0.0168
    endloop
endfacet
facet normal 0.0000 -59.9465 0.0000
    outer loop
        vertex -17.9800 -0.1000 2.2400
        vertex -16.8640 -0.1000 -2.2400
        vertex -15.3520 -0.1000 0.2848
    endloop
endfacet
facet normal 0.0000 -0.5775 0.0000
    outer loop
        vertex -12.6004 -0.1000 -1.8200
        vertex -12.8204 -0.1000 -1.8200
        vertex -16.8640 -0.1000 -2.2400
    endloop
endfacet
facet normal 0.0000 -5.2098 0.0000
    outer loop
        vertex -8.3296 -0.1000 -1.5948
        vertex -12.6004 -0.1000 -1.8200
        vertex -16.8640 -0.1000 -2.2400
    endloop
endfacet
facet normal 0.0000 -140.5084 0.0000
    outer loop
        vertex -16.8640 -0.1000 -2.2400
        vertex 17.9800 -0.1000 -2.2400
        vertex -8.3296 -0.1000 -1.5948
    endloop
endfacet
facet normal 0.0000 -18.7119 0.0000
    outer loop
        vertex -7.2288 -0.1000 -1.5080
        vertex -8.3296 -0.1000 -1.5948
        vertex 17.9800 -0.1000 -2.2400
    endloop
endfacet
facet normal 0.0000 -43.2800 0.0000
    outer loop
        vertex -6.2956 -0.1000 -1.2604
        vertex -7.2288 -0.1000 -1.5080
        vertex 17.9800 -0.1000 -2.2400
    endloop
endfacet
facet normal 0.0000 -60.0160 0.0000
    outer loop
        vertex -5.6720 -0.1000 -0.8900
        vertex -6.2956 -0.1000 -1.2604
        vertex 17.9800 -0.1000 -2.2400
    endloop
endfacet
facet normal 0.0000 -66.4161 0.0000
    outer loop
        vertex -5.4532 -0.1000 -0.4532
        vertex -5.6720 -0.1000 -0.8900
        vertex 17.9800 -0.1000 -2.2400
    endloop
endfacet
facet normal 0.0000 -201.6212 0.0000
    outer loop
        vertex -5.7384 -0.1000 0.9452
        vertex -5.4532 -0.1000 -0.4532
        vertex 17.9800 -0.1000 -2.2400
    endloop
endfacet
facet normal 0.0000 -53.9392 0.0000
    outer loop
        vertex -5.9360 -0.1000 1.3356
        vertex -5.7384 -0.1000 0.9452
        vertex 17.9800 -0.1000 -2.2400
    endloop
endfacet
facet normal 0.0000 -36.8960 0.0000
    outer loop
        vertex -6.4976 -0.1000 1.6664
        vertex -5.9360 -0.1000 1.3356
        vertex 17.9800 -0.1000 -2.2400
    endloop
endfacet
facet normal 0.0000 -13.3219 0.0000
    outer loop
        vertex -7.3380 -0.1000 1.8876
        vertex -6.4976 -0.1000 1.6664
        vertex 17.9800 -0.1000 -2.2400
    endloop
endfacet
facet normal 0.0000 -580.9484 0.0000
    outer loop
        vertex 17.9800 -0.1000 -2.2400
        vertex 13.0200 -0.1000 2.2400
        vertex -7.3380 -0.1000 1.8876
    endloop
endfacet
facet normal 0.0000 -6.3835 0.0000
    outer loop
        vertex -17.9800 -0.1000 2.2400
        vertex -9.3212 -0.1000 1.8876
        vertex -8.3296 -0.1000 1.9652
    endloop
endfacet
facet normal 0.0000 -13.8227 0.0000
    outer loop
        vertex -17.9800 -0.1000 2.2400
        vertex -10.1620 -0.1000 1.6664
        vertex -9.3212 -0.1000 1.8876
    endloop
endfacet
facet normal 0.0000 -53.2425 0.0000
    outer loop
        vertex -17.9800 -0.1000 2.2400
        vertex -8.3296 -0.1000 1.9652
        vertex 13.0200 -0.1000 2.2400
    endloop
endfacet
facet normal 0.0000 -12.0576 0.0000
    outer loop
        vertex 13.0200 -0.1000 2.2400
        vertex -8.3296 -0.1000 1.9652
        vertex -7.3380 -0.1000 1.8876
    endloop
endfacet
endsolid GiantLegoRocks
