solid GiantLegoRocks
facet normal 0.0000 0.7500 0.0000
    outer loop
        vertex 32.0000 0.0000 20.0000
        vertex 32.0000 0.0000 -20.0000
        vertex -32.0000 0.0000 -20.0000
    endloop
endfacet
facet normal 0.0000 0.7500 0.0000
    outer loop
        vertex -32.0000 0.0000 -20.0000
        vertex -32.0000 0.0000 20.0000
        vertex 32.0000 0.0000 20.0000
    endloop
endfacet
facet normal 0.0000 -0.2500 100.0000
    outer loop
        vertex -32.0000 -0.1000 20.0000
        vertex 32.0000 -0.1000 20.0000
        vertex 32.0000 0.0000 20.0000
    endloop
endfacet
facet normal 0.0000 -0.2500 100.0000
    outer loop
        vertex 32.0000 0.0000 20.0000
        vertex -32.0000 0.0000 20.0000
        vertex -32.0000 -0.1000 20.0000
    endloop
endfacet
facet normal -160.0000 -0.2500 0.0000
    outer loop
        vertex -32.0000 -0.1000 -20.0000
        vertex -32.0000 -0.1000 20.0000
        vertex -32.0000 0.0000 20.0000
    endloop
endfacet
facet normal -160.0000 -0.2500 0.0000
    outer loop
        vertex -32.0000 0.0000 20.0000
        vertex -32.0000 0.0000 -20.0000
        vertex -32.0000 -0.1000 -20.0000
    endloop
endfacet
facet normal 0.0000 -0.2500 -100.0000
    outer loop
        vertex 32.0000 -0.1000 -20.0000
        vertex -32.0000 -0.1000 -20.0000
        vertex -32.0000 0.0000 -20.0000
    endloop
endfacet
facet normal 0.0000 -0.2500 -100.0000
    outer loop
        vertex -32.0000 0.0000 -20.0000
        vertex 32.0000 0.0000 -20.0000
        vertex 32.0000 -0.1000 -20.0000
    endloop
endfacet
facet normal 160.0000 -0.2500 0.0000
    outer loop
        vertex 32.0000 -0.1000 20.0000
        vertex 32.0000 -0.1000 -20.0000
        vertex 32.0000 0.0000 -20.0000
    endloop
endfacet
facet normal 160.0000 -0.2500 0.0000
    outer loop
        vertex 32.0000 0.0000 -20.0000
        vertex 32.0000 0.0000 20.0000
        vertex 32.0000 -0.1000 20.0000
    endloop
endfacet
facet normal 0.0000 -325.2200 0.0000
    outer loop
        vertex -27.9000 -0.1000 20.0000
        vertex -27.9000 -0.1000 6.0000
        vertex -24.1832 -0.1000 7.5112
    endloop
endfacet
facet normal 0.0000 -319.0361 0.0000
    outer loop
        vertex -27.9000 -0.1000 20.0000
        vertex -24.1832 -0.1000 7.5112
        vertex -20.4671 -0.1000 8.7585
    endloop
endfacet
facet normal 0.0000 -312.0961 0.0000
    outer loop
        vertex -27.9000 -0.1000 20.0000
        vertex -20.4671 -0.1000 8.7585
        vertex -16.6709 -0.1000 9.7353
    endloop
endfacet
facet normal 0.0000 -296.6428 0.0000
    outer loop
        vertex -27.9000 -0.1000 20.0000
        vertex -16.6709 -0.1000 9.7353
        vertex -12.8143 -0.1000 10.4367
    endloop
endfacet
facet normal 0.0000 -272.7405 0.0000
    outer loop
        vertex -27.9000 -0.1000 20.0000
        vertex -12.8143 -0.1000 10.4367
        vertex -8.9173 -0.1000 10.8590
    endloop
endfacet
facet normal 0.0000 -240.5299 0.0000
    outer loop
        vertex -27.9000 -0.1000 20.0000
        vertex -8.9173 -0.1000 10.8590
        vertex -5.0000 -0.1000 11.0000
    endloop
endfacet
facet normal 0.0000 -562.5000 0.0000
    outer loop
        vertex -27.9000 -0.1000 20.0000
        vertex -5.0000 -0.1000 11.0000
        vertex 5.0000 -0.1000 11.0000
    endloop
endfacet
facet normal 0.0000 -3138.7500 0.0000
    outer loop
        vertex 5.0000 -0.1000 11.0000
        vertex 27.9000 -0.1000 20.0000
        vertex -27.9000 -0.1000 20.0000
    endloop
endfacet
facet normal 0.0000 -240.5299 0.0000
    outer loop
        vertex 27.9000 -0.1000 20.0000
        vertex 5.0000 -0.1000 11.0000
        vertex 8.9173 -0.1000 10.8590
    endloop
endfacet
facet normal 0.0000 -272.7405 0.0000
    outer loop
        vertex 27.9000 -0.1000 20.0000
        vertex 8.9173 -0.1000 10.8590
        vertex 12.8143 -0.1000 10.4367
    endloop
endfacet
facet normal 0.0000 -296.6428 0.0000
    outer loop
        vertex 27.9000 -0.1000 20.0000
        vertex 12.8143 -0.1000 10.4367
        vertex 16.6709 -0.1000 9.7353
    endloop
endfacet
facet normal 0.0000 -312.0961 0.0000
    outer loop
        vertex 27.9000 -0.1000 20.0000
        vertex 16.6709 -0.1000 9.7353
        vertex 20.4671 -0.1000 8.7585
    endloop
endfacet
facet normal 0.0000 -319.0361 0.0000
    outer loop
        vertex 27.9000 -0.1000 20.0000
        vertex 20.4671 -0.1000 8.7585
        vertex 24.1832 -0.1000 7.5112
    endloop
endfacet
facet normal 0.0000 -325.2200 0.0000
    outer loop
        vertex 27.9000 -0.1000 20.0000
        vertex 24.1832 -0.1000 7.5112
        vertex 27.9000 -0.1000 6.0000
    endloop
endfacet
facet normal 0.0000 -251.7368 0.0000
    outer loop
        vertex -5.1410 -0.1000 7.0827
        vertex 5.1410 -0.1000 7.0827
        vertex 5.0000 -0.1000 11.0000
    endloop
endfacet
facet normal 0.0000 -244.8325 0.0000
    outer loop
        vertex 5.0000 -0.1000 11.0000
        vertex -5.0000 -0.1000 11.0000
        vertex -5.1410 -0.1000 7.0827
    endloop
endfacet
facet normal 0.0000 -271.0013 0.0000
    outer loop
        vertex -5.1410 -0.1000 7.0827
        vertex -5.5633 -0.1000 3.1857
        vertex 5.5633 -0.1000 3.1857
    endloop
endfacet
facet normal 0.0000 -250.4310 0.0000
    outer loop
        vertex 5.5633 -0.1000 3.1857
        vertex 5.1410 -0.1000 7.0827
        vertex -5.1410 -0.1000 7.0827
    endloop
endfacet
facet normal 0.0000 -302.0046 0.0000
    outer loop
        vertex -6.2647 -0.1000 -0.6709
        vertex 6.2647 -0.1000 -0.6709
        vertex 5.5633 -0.1000 3.1857
    endloop
endfacet
facet normal 0.0000 -268.1918 0.0000
    outer loop
        vertex 5.5633 -0.1000 3.1857
        vertex -5.5633 -0.1000 3.1857
        vertex -6.2647 -0.1000 -0.6709
    endloop
endfacet
facet normal 0.0000 -343.6246 0.0000
    outer loop
        vertex -6.2647 -0.1000 -0.6709
        vertex -7.2415 -0.1000 -4.4671
        vertex 7.2415 -0.1000 -4.4671
    endloop
endfacet
facet normal 0.0000 -297.2716 0.0000
    outer loop
        vertex 7.2415 -0.1000 -4.4671
        vertex 6.2647 -0.1000 -0.6709
        vertex -6.2647 -0.1000 -0.6709
    endloop
endfacet
facet normal 0.0000 -394.3175 0.0000
    outer loop
        vertex -8.4888 -0.1000 -8.1832
        vertex 8.4888 -0.1000 -8.1832
        vertex 7.2415 -0.1000 -4.4671
    endloop
endfacet
facet normal 0.0000 -336.3795 0.0000
    outer loop
        vertex 7.2415 -0.1000 -4.4671
        vertex -7.2415 -0.1000 -4.4671
        vertex -8.4888 -0.1000 -8.1832
    endloop
endfacet
facet normal 0.0000 -452.1000 0.0000
    outer loop
        vertex -8.4888 -0.1000 -8.1832
        vertex -10.0000 -0.1000 -11.8000
        vertex 10.0000 -0.1000 -11.8000
    endloop
endfacet
facet normal 0.0000 -383.7786 0.0000
    outer loop
        vertex 10.0000 -0.1000 -11.8000
        vertex 8.4888 -0.1000 -8.1832
        vertex -8.4888 -0.1000 -8.1832
    endloop
endfacet
facet normal 0.0000 -358.7500 0.0000
    outer loop
        vertex -32.0000 -0.1000 -20.0000
        vertex -27.9000 -0.1000 6.0000
        vertex -27.9000 -0.1000 20.0000
    endloop
endfacet
facet normal 0.0000 -1025.0000 0.0000
    outer loop
        vertex -27.9000 -0.1000 20.0000
        vertex -32.0000 -0.1000 20.0000
        vertex -32.0000 -0.1000 -20.0000
    endloop
endfacet
facet normal 0.0000 -578.0324 0.0000
    outer loop
        vertex -32.0000 -0.1000 -20.0000
        vertex -20.4671 -0.1000 8.7585
        vertex -24.1832 -0.1000 7.5112
    endloop
endfacet
facet normal 0.0000 -565.2555 0.0000
    outer loop
        vertex -24.1832 -0.1000 7.5112
        vertex -27.9000 -0.1000 6.0000
        vertex -32.0000 -0.1000 -20.0000
    endloop
endfacet
facet normal 0.0000 -649.5339 0.0000
    outer loop
        vertex -32.0000 -0.1000 -20.0000
        vertex -12.8143 -0.1000 10.4367
        vertex -16.6709 -0.1000 9.7353
    endloop
endfacet
facet normal 0.0000 -611.9123 0.0000
    outer loop
        vertex -16.6709 -0.1000 9.7353
        vertex -20.4671 -0.1000 8.7585
        vertex -32.0000 -0.1000 -20.0000
    endloop
endfacet
facet normal 0.0000 -735.1870 0.0000
    outer loop
        vertex -32.0000 -0.1000 -20.0000
        vertex -5.0000 -0.1000 11.0000
        vertex -8.9173 -0.1000 10.8590
    endloop
endfacet
facet normal 0.0000 -690.6886 0.0000
    outer loop
        vertex -8.9173 -0.1000 10.8590
        vertex -12.8143 -0.1000 10.4367
        vertex -32.0000 -0.1000 -20.0000
    endloop
endfacet
facet normal 0.0000 -582.7066 0.0000
    outer loop
        vertex -32.0000 -0.1000 -20.0000
        vertex -5.5633 -0.1000 3.1857
        vertex -5.1410 -0.1000 7.0827
    endloop
endfacet
facet normal 0.0000 -633.7290 0.0000
    outer loop
        vertex -5.1410 -0.1000 7.0827
        vertex -5.0000 -0.1000 11.0000
        vertex -32.0000 -0.1000 -20.0000
    endloop
endfacet
facet normal 0.0000 -492.5873 0.0000
    outer loop
        vertex -32.0000 -0.1000 -20.0000
        vertex -7.2415 -0.1000 -4.4671
        vertex -6.2647 -0.1000 -0.6709
    endloop
endfacet
facet normal 0.0000 -535.5839 0.0000
    outer loop
        vertex -6.2647 -0.1000 -0.6709
        vertex -5.5633 -0.1000 3.1857
        vertex -32.0000 -0.1000 -20.0000
    endloop
endfacet
facet normal 0.0000 -419.8610 0.0000
    outer loop
        vertex -32.0000 -0.1000 -20.0000
        vertex -10.0000 -0.1000 -11.8000
        vertex -8.4888 -0.1000 -8.1832
    endloop
endfacet
facet normal 0.0000 -453.9474 0.0000
    outer loop
        vertex -8.4888 -0.1000 -8.1832
        vertex -7.2415 -0.1000 -4.4671
        vertex -32.0000 -0.1000 -20.0000
    endloop
endfacet
facet normal 0.0000 -3280.0000 0.0000
    outer loop
        vertex -32.0000 -0.1000 -20.0000
        vertex 32.0000 -0.1000 -20.0000
        vertex 10.0000 -0.1000 -11.8000
    endloop
endfacet
facet normal 0.0000 -1025.0000 0.0000
    outer loop
        vertex 10.0000 -0.1000 -11.8000
        vertex -10.0000 -0.1000 -11.8000
        vertex -32.0000 -0.1000 -20.0000
    endloop
endfacet
facet normal 0.0000 -453.9474 0.0000
    outer loop
        vertex 32.0000 -0.1000 -20.0000
        vertex 7.2415 -0.1000 -4.4671
        vertex 8.4888 -0.1000 -8.1832
    endloop
endfacet
facet normal 0.0000 -419.8610 0.0000
    outer loop
        vertex 8.4888 -0.1000 -8.1832
        vertex 10.0000 -0.1000 -11.8000
        vertex 32.0000 -0.1000 -20.0000
    endloop
endfacet
facet normal 0.0000 -535.5839 0.0000
    outer loop
        vertex 32.0000 -0.1000 -20.0000
        vertex 5.5633 -0.1000 3.1857
        vertex 6.2647 -0.1000 -0.6709
    endloop
endfacet
facet normal 0.0000 -492.5873 0.0000
    outer loop
        vertex 6.2647 -0.1000 -0.6709
        vertex 7.2415 -0.1000 -4.4671
        vertex 32.0000 -0.1000 -20.0000
    endloop
endfacet
facet normal 0.0000 -633.7290 0.0000
    outer loop
        vertex 32.0000 -0.1000 -20.0000
        vertex 5.0000 -0.1000 11.0000
        vertex 5.1410 -0.1000 7.0827
    endloop
endfacet
facet normal 0.0000 -582.7066 0.0000
    outer loop
        vertex 5.1410 -0.1000 7.0827
        vertex 5.5633 -0.1000 3.1857
        vertex 32.0000 -0.1000 -20.0000
    endloop
endfacet
facet normal 0.0000 -690.6886 0.0000
    outer loop
        vertex 32.0000 -0.1000 -20.0000
        vertex 12.8143 -0.1000 10.4367
        vertex 8.9173 -0.1000 10.8590
    endloop
endfacet
facet normal 0.0000 -735.1870 0.0000
    outer loop
        vertex 8.9173 -0.1000 10.8590
        vertex 5.0000 -0.1000 11.0000
        vertex 32.0000 -0.1000 -20.0000
    endloop
endfacet
facet normal 0.0000 -611.9123 0.0000
    outer loop
        vertex 32.0000 -0.1000 -20.0000
        vertex 20.4671 -0.1000 8.7585
        vertex 16.6709 -0.1000 9.7353
    endloop
endfacet
facet normal 0.0000 -649.5339 0.0000
    outer loop
        vertex 16.6709 -0.1000 9.7353
        vertex 12.8143 -0.1000 10.4367
        vertex 32.0000 -0.1000 -20.0000
    endloop
endfacet
facet normal 0.0000 -565.2555 0.0000
    outer loop
        vertex 32.0000 -0.1000 -20.0000
        vertex 27.9000 -0.1000 6.0000
        vertex 24.1832 -0.1000 7.5112
    endloop
endfacet
facet normal 0.0000 -578.0324 0.0000
    outer loop
        vertex 24.1832 -0.1000 7.5112
        vertex 20.4671 -0.1000 8.7585
        vertex 32.0000 -0.1000 -20.0000
    endloop
endfacet
facet normal 0.0000 -1025.0000 0.0000
    outer loop
        vertex 32.0000 -0.1000 -20.0000
        vertex 32.0000 -0.1000 20.0000
        vertex 27.9000 -0.1000 20.0000
    endloop
endfacet
facet normal 0.0000 -358.7500 0.0000
    outer loop
        vertex 27.9000 -0.1000 20.0000
        vertex 27.9000 -0.1000 6.0000
        vertex 32.0000 -0.1000 -20.0000
    endloop
endfacet
endsolid GiantLegoRocks
