solid GiantLegoRocks
facet normal 0.0000 0.7500 0.0000
    outer loop
        vertex 8.4000 0.0000 4.4000
        vertex 8.4000 0.0000 -4.4000
        vertex -8.4000 0.0000 -4.4000
    endloop
endfacet
facet normal 0.0000 0.7500 0.0000
    outer loop
        vertex -8.4000 0.0000 -4.4000
        vertex -8.4000 0.0000 4.4000
        vertex 8.4000 0.0000 4.4000
    endloop
endfacet
facet normal 0.0000 -0.2500 22.0000
    outer loop
        vertex -8.4000 -0.1000 4.4000
        vertex 8.4000 -0.1000 4.4000
        vertex 8.4000 0.0000 4.4000
    endloop
endfacet
facet normal 0.0000 -0.2500 22.0000
    outer loop
        vertex 8.4000 0.0000 4.4000
        vertex -8.4000 0.0000 4.4000
        vertex -8.4000 -0.1000 4.4000
    endloop
endfacet
facet normal -42.0000 -0.2500 0.0000
    outer loop
        vertex -8.4000 -0.1000 -4.4000
        vertex -8.4000 -0.1000 4.4000
        vertex -8.4000 0.0000 4.4000
    endloop
endfacet
facet normal -42.0000 -0.2500 0.0000
    outer loop
        vertex -8.4000 0.0000 4.4000
        vertex -8.4000 0.0000 -4.4000
        vertex -8.4000 -0.1000 -4.4000
    endloop
endfacet
facet normal 0.0000 -0.2500 -22.0000
    outer loop
        vertex 8.4000 -0.1000 -4.4000
        vertex -8.4000 -0.1000 -4.4000
        vertex -8.4000 0.0000 -4.4000
    endloop
endfacet
facet normal 0.0000 -0.2500 -22.0000
    outer loop
        vertex -8.4000 0.0000 -4.4000
        vertex 8.4000 0.0000 -4.4000
        vertex 8.4000 -0.1000 -4.4000
    endloop
endfacet
facet normal 42.0000 -0.2500 0.0000
    outer loop
        vertex 8.4000 -0.1000 4.4000
        vertex 8.4000 -0.1000 -4.4000
        vertex 8.4000 0.0000 -4.4000
    endloop
endfacet
facet normal 42.0000 -0.2500 0.0000
    outer loop
        vertex 8.4000 0.0000 -4.4000
        vertex 8.4000 0.0000 4.4000
        vertex 8.4000 -0.1000 4.4000
    endloop
endfacet
facet normal 0.0000 -21.4866 0.0000
    outer loop
        vertex -7.0120 -0.1000 -2.9600
        vertex -5.6280 -0.1000 -2.9600
        vertex -5.6280 -0.1000 -0.4760
    endloop
endfacet
facet normal 0.0000 -50.8966 0.0000
    outer loop
        vertex -5.6280 -0.1000 -0.4760
        vertex -7.0120 -0.1000 2.9240
        vertex -7.0120 -0.1000 -2.9600
    endloop
endfacet
facet normal 0.0000 -10.2762 0.0000
    outer loop
        vertex -7.0120 -0.1000 2.9240
        vertex -5.6280 -0.1000 -0.4760
        vertex -5.6280 -0.1000 0.7120
    endloop
endfacet
facet normal 0.0000 -12.5631 0.0000
    outer loop
        vertex -5.6280 -0.1000 0.7120
        vertex -5.6280 -0.1000 -0.4760
        vertex -3.9360 -0.1000 -0.4760
    endloop
endfacet
facet normal 0.0000 -12.5631 0.0000
    outer loop
        vertex -3.9360 -0.1000 -0.4760
        vertex -3.9360 -0.1000 0.7120
        vertex -5.6280 -0.1000 0.7120
    endloop
endfacet
facet normal 0.0000 -9.2382 0.0000
    outer loop
        vertex -7.0120 -0.1000 2.9240
        vertex -5.6280 -0.1000 0.7120
        vertex -5.6280 -0.1000 1.7800
    endloop
endfacet
facet normal 0.0000 -13.0416 0.0000
    outer loop
        vertex -5.6280 -0.1000 1.7800
        vertex -3.8040 -0.1000 1.7800
        vertex -3.8040 -0.1000 2.9240
    endloop
endfacet
facet normal 0.0000 -22.9372 0.0000
    outer loop
        vertex -3.8040 -0.1000 2.9240
        vertex -7.0120 -0.1000 2.9240
        vertex -5.6280 -0.1000 1.7800
    endloop
endfacet
facet normal 0.0000 -50.4700 0.0000
    outer loop
        vertex -2.9960 -0.1000 2.9240
        vertex -2.9960 -0.1000 -2.9600
        vertex -1.6236 -0.1000 -2.9600
    endloop
endfacet
facet normal 0.0000 -50.4700 0.0000
    outer loop
        vertex -1.6236 -0.1000 -2.9600
        vertex -1.6236 -0.1000 2.9240
        vertex -2.9960 -0.1000 2.9240
    endloop
endfacet
facet normal 0.0000 -19.9920 0.0000
    outer loop
        vertex 0.6920 -0.1000 -0.6080
        vertex -0.6680 -0.1000 -2.9600
        vertex 0.6920 -0.1000 -2.9600
    endloop
endfacet
facet normal 0.0000 -9.2140 0.0000
    outer loop
        vertex -0.6680 -0.1000 -2.9600
        vertex 0.6920 -0.1000 -0.6080
        vertex 0.6920 -0.1000 0.4760
    endloop
endfacet
facet normal 0.0000 -50.0140 0.0000
    outer loop
        vertex 0.6920 -0.1000 0.4760
        vertex -0.6680 -0.1000 2.9240
        vertex -0.6680 -0.1000 -2.9600
    endloop
endfacet
facet normal 0.0000 -2.4267 0.0000
    outer loop
        vertex 2.6680 -0.1000 -0.3080
        vertex 1.4840 -0.1000 -0.8036
        vertex 1.5880 -0.1000 -1.0880
    endloop
endfacet
facet normal 0.0000 -4.1160 0.0000
    outer loop
        vertex 1.5880 -0.1000 -1.0880
        vertex 2.8920 -0.1000 -0.7560
        vertex 2.6680 -0.1000 -0.3080
    endloop
endfacet
facet normal 0.0000 -1.7283 0.0000
    outer loop
        vertex 1.2840 -0.1000 -0.6560
        vertex 1.4840 -0.1000 -0.8036
        vertex 2.3120 -0.1000 -0.0320
    endloop
endfacet
facet normal 0.0000 -7.6971 0.0000
    outer loop
        vertex 2.3120 -0.1000 -0.0320
        vertex 1.2280 -0.1000 0.5080
        vertex 1.2840 -0.1000 -0.6560
    endloop
endfacet
facet normal 0.0000 -3.6874 0.0000
    outer loop
        vertex 0.9720 -0.1000 -0.6080
        vertex 1.2280 -0.1000 0.5080
        vertex 0.6920 -0.1000 0.4760
    endloop
endfacet
facet normal 0.0000 -1.8970 0.0000
    outer loop
        vertex 0.6920 -0.1000 0.4760
        vertex 0.6920 -0.1000 -0.6080
        vertex 0.9720 -0.1000 -0.6080
    endloop
endfacet
facet normal 0.0000 -2.2530 0.0000
    outer loop
        vertex 1.2280 -0.1000 0.5080
        vertex 0.9720 -0.1000 -0.6080
        vertex 1.2840 -0.1000 -0.6560
    endloop
endfacet
facet normal 0.0000 -12.1380 0.0000
    outer loop
        vertex -0.6680 -0.1000 2.9240
        vertex 0.6920 -0.1000 0.4760
        vertex 0.6920 -0.1000 1.9040
    endloop
endfacet
facet normal 0.0000 -9.8685 0.0000
    outer loop
        vertex 0.8800 -0.1000 2.9240
        vertex -0.6680 -0.1000 2.9240
        vertex 0.6920 -0.1000 1.9040
    endloop
endfacet
facet normal 0.0000 -3.4546 0.0000
    outer loop
        vertex 0.6920 -0.1000 1.9040
        vertex 1.2280 -0.1000 1.8720
        vertex 0.8800 -0.1000 2.9240
    endloop
endfacet
facet normal 0.0000 -1.7739 0.0000
    outer loop
        vertex 1.6040 -0.1000 0.8680
        vertex 1.4680 -0.1000 0.6400
        vertex 2.3120 -0.1000 -0.0320
    endloop
endfacet
facet normal 0.0000 -2.9376 0.0000
    outer loop
        vertex 2.3120 -0.1000 -0.0320
        vertex 2.6360 -0.1000 0.2200
        vertex 1.6040 -0.1000 0.8680
    endloop
endfacet
facet normal 0.0000 -1.7713 0.0000
    outer loop
        vertex 1.5360 -0.1000 2.9040
        vertex 1.2280 -0.1000 1.8720
        vertex 1.4680 -0.1000 1.7560
    endloop
endfacet
facet normal 0.0000 -3.2365 0.0000
    outer loop
        vertex 1.4680 -0.1000 1.7560
        vertex 1.9840 -0.1000 2.8520
        vertex 1.5360 -0.1000 2.9040
    endloop
endfacet
facet normal 0.0000 -4.2697 0.0000
    outer loop
        vertex 0.8800 -0.1000 2.9240
        vertex 1.2280 -0.1000 1.8720
        vertex 1.5360 -0.1000 2.9040
    endloop
endfacet
facet normal 0.0000 -2.1714 0.0000
    outer loop
        vertex 2.5400 -0.1000 2.6080
        vertex 1.4680 -0.1000 1.7560
        vertex 1.6040 -0.1000 1.5400
    endloop
endfacet
facet normal 0.0000 -2.8023 0.0000
    outer loop
        vertex 1.6040 -0.1000 1.5400
        vertex 2.7600 -0.1000 2.3800
        vertex 2.5400 -0.1000 2.6080
    endloop
endfacet
facet normal 0.0000 -1.7043 0.0000
    outer loop
        vertex 1.4680 -0.1000 0.6400
        vertex 1.2280 -0.1000 0.5080
        vertex 2.3120 -0.1000 -0.0320
    endloop
endfacet
facet normal 0.0000 -2.9538 0.0000
    outer loop
        vertex 1.6160 -0.1000 -1.8040
        vertex 1.6076 -0.1000 -2.1480
        vertex 2.9920 -0.1000 -1.7160
    endloop
endfacet
facet normal 0.0000 -2.2318 0.0000
    outer loop
        vertex 2.9920 -0.1000 -1.7160
        vertex 1.6236 -0.1000 -1.5440
        vertex 1.6160 -0.1000 -1.8040
    endloop
endfacet
facet normal 0.0000 -3.1451 0.0000
    outer loop
        vertex 2.3120 -0.1000 -0.0320
        vertex 1.4840 -0.1000 -0.8036
        vertex 2.6680 -0.1000 -0.3080
    endloop
endfacet
facet normal 0.0000 -3.9110 0.0000
    outer loop
        vertex 1.5880 -0.1000 -1.0880
        vertex 1.6236 -0.1000 -1.5440
        vertex 2.9840 -0.1000 -1.3920
    endloop
endfacet
facet normal 0.0000 -5.3743 0.0000
    outer loop
        vertex 2.9840 -0.1000 -1.3920
        vertex 2.8920 -0.1000 -0.7560
        vertex 1.5880 -0.1000 -1.0880
    endloop
endfacet
facet normal 0.0000 -3.4903 0.0000
    outer loop
        vertex 1.6360 -0.1000 -2.5760
        vertex 1.7120 -0.1000 -2.9600
        vertex 3.0800 -0.1000 -2.5240
    endloop
endfacet
facet normal 0.0000 -3.8719 0.0000
    outer loop
        vertex 3.0800 -0.1000 -2.5240
        vertex 1.6076 -0.1000 -2.1480
        vertex 1.6360 -0.1000 -2.5760
    endloop
endfacet
facet normal 0.0000 -7.2288 0.0000
    outer loop
        vertex 2.9920 -0.1000 -1.7160
        vertex 1.6076 -0.1000 -2.1480
        vertex 3.0800 -0.1000 -2.5240
    endloop
endfacet
facet normal 0.0000 -4.3818 0.0000
    outer loop
        vertex 3.0800 -0.1000 -2.5240
        vertex 1.7120 -0.1000 -2.9600
        vertex 3.3200 -0.1000 -2.9600
    endloop
endfacet
facet normal 0.0000 -2.7624 0.0000
    outer loop
        vertex 2.9840 -0.1000 -1.3920
        vertex 1.6236 -0.1000 -1.5440
        vertex 2.9920 -0.1000 -1.7160
    endloop
endfacet
facet normal 0.0000 -2.9358 0.0000
    outer loop
        vertex 1.6040 -0.1000 0.8680
        vertex 2.6360 -0.1000 0.2200
        vertex 2.8640 -0.1000 0.5320
    endloop
endfacet
facet normal 0.0000 -3.3012 0.0000
    outer loop
        vertex 2.8640 -0.1000 0.5320
        vertex 2.9960 -0.1000 0.9160
        vertex 1.6040 -0.1000 0.8680
    endloop
endfacet
facet normal 0.0000 -2.4468 0.0000
    outer loop
        vertex 2.2960 -0.1000 2.7560
        vertex 1.9840 -0.1000 2.8520
        vertex 1.4680 -0.1000 1.7560
    endloop
endfacet
facet normal 0.0000 -2.2909 0.0000
    outer loop
        vertex 1.4680 -0.1000 1.7560
        vertex 2.5400 -0.1000 2.6080
        vertex 2.2960 -0.1000 2.7560
    endloop
endfacet
facet normal 0.0000 -2.8291 0.0000
    outer loop
        vertex 3.0400 -0.1000 1.3840
        vertex 1.6040 -0.1000 1.5400
        vertex 1.6480 -0.1000 1.2200
    endloop
endfacet
facet normal 0.0000 -4.0265 0.0000
    outer loop
        vertex 1.6480 -0.1000 1.2200
        vertex 2.9960 -0.1000 0.9160
        vertex 3.0400 -0.1000 1.3840
    endloop
endfacet
facet normal 0.0000 -3.4550 0.0000
    outer loop
        vertex 1.6040 -0.1000 1.5400
        vertex 3.0400 -0.1000 1.3840
        vertex 3.0120 -0.1000 1.7720
    endloop
endfacet
facet normal 0.0000 -3.0256 0.0000
    outer loop
        vertex 3.0120 -0.1000 1.7720
        vertex 2.9160 -0.1000 2.1000
        vertex 1.6040 -0.1000 1.5400
    endloop
endfacet
facet normal 0.0000 -2.8420 0.0000
    outer loop
        vertex 2.7600 -0.1000 2.3800
        vertex 1.6040 -0.1000 1.5400
        vertex 2.9160 -0.1000 2.1000
    endloop
endfacet
facet normal 0.0000 -3.0492 0.0000
    outer loop
        vertex 1.6480 -0.1000 1.2200
        vertex 1.6040 -0.1000 0.8680
        vertex 2.9960 -0.1000 0.9160
    endloop
endfacet
facet normal 0.0000 -10.9440 0.0000
    outer loop
        vertex 3.9160 -0.1000 -2.9600
        vertex 5.2840 -0.1000 -1.7640
        vertex 5.2840 -0.1000 -0.4840
    endloop
endfacet
facet normal 0.0000 -50.3082 0.0000
    outer loop
        vertex 5.2840 -0.1000 -0.4840
        vertex 3.9160 -0.1000 2.9240
        vertex 3.9160 -0.1000 -2.9600
    endloop
endfacet
facet normal 0.0000 -23.9200 0.0000
    outer loop
        vertex 5.2840 -0.1000 -1.7640
        vertex 3.9160 -0.1000 -2.9600
        vertex 7.1160 -0.1000 -2.9600
    endloop
endfacet
facet normal 0.0000 -13.6942 0.0000
    outer loop
        vertex 7.1160 -0.1000 -2.9600
        vertex 7.1160 -0.1000 -1.7640
        vertex 5.2840 -0.1000 -1.7640
    endloop
endfacet
facet normal 0.0000 -9.2682 0.0000
    outer loop
        vertex 3.9160 -0.1000 2.9240
        vertex 5.2840 -0.1000 0.6960
        vertex 5.2840 -0.1000 1.7800
    endloop
endfacet
facet normal 0.0000 -10.0890 0.0000
    outer loop
        vertex 3.9160 -0.1000 2.9240
        vertex 5.2840 -0.1000 -0.4840
        vertex 5.2840 -0.1000 0.6960
    endloop
endfacet
facet normal 0.0000 -22.8800 0.0000
    outer loop
        vertex 7.1160 -0.1000 2.9240
        vertex 3.9160 -0.1000 2.9240
        vertex 5.2840 -0.1000 1.7800
    endloop
endfacet
facet normal 0.0000 -13.0988 0.0000
    outer loop
        vertex 5.2840 -0.1000 1.7800
        vertex 7.1160 -0.1000 1.7800
        vertex 7.1160 -0.1000 2.9240
    endloop
endfacet
facet normal 0.0000 -12.4785 0.0000
    outer loop
        vertex 5.2840 -0.1000 0.6960
        vertex 5.2840 -0.1000 -0.4840
        vertex 6.9760 -0.1000 -0.4840
    endloop
endfacet
facet normal 0.0000 -12.4785 0.0000
    outer loop
        vertex 6.9760 -0.1000 -0.4840
        vertex 6.9760 -0.1000 0.6960
        vertex 5.2840 -0.1000 0.6960
    endloop
endfacet
facet normal 0.0000 -51.0437 0.0000
    outer loop
        vertex -8.4000 -0.1000 -4.4000
        vertex -7.0120 -0.1000 -2.9600
        vertex -7.0120 -0.1000 2.9240
    endloop
endfacet
facet normal 0.0000 -76.3400 0.0000
    outer loop
        vertex -7.0120 -0.1000 2.9240
        vertex -8.4000 -0.1000 4.4000
        vertex -8.4000 -0.1000 -4.4000
    endloop
endfacet
facet normal 0.0000 -12.4560 0.0000
    outer loop
        vertex -5.6280 -0.1000 -2.9600
        vertex -7.0120 -0.1000 -2.9600
        vertex -8.4000 -0.1000 -4.4000
    endloop
endfacet
facet normal 0.0000 -40.8618 0.0000
    outer loop
        vertex -5.6280 -0.1000 -2.9600
        vertex -2.9960 -0.1000 -2.9600
        vertex -3.9360 -0.1000 -0.4760
    endloop
endfacet
facet normal 0.0000 -26.2683 0.0000
    outer loop
        vertex -3.9360 -0.1000 -0.4760
        vertex -5.6280 -0.1000 -0.4760
        vertex -5.6280 -0.1000 -2.9600
    endloop
endfacet
facet normal 0.0000 -23.6880 0.0000
    outer loop
        vertex -2.9960 -0.1000 -2.9600
        vertex -5.6280 -0.1000 -2.9600
        vertex -8.4000 -0.1000 -4.4000
    endloop
endfacet
facet normal 0.0000 -12.3516 0.0000
    outer loop
        vertex -1.6236 -0.1000 -2.9600
        vertex -2.9960 -0.1000 -2.9600
        vertex -8.4000 -0.1000 -4.4000
    endloop
endfacet
facet normal 0.0000 -35.1422 0.0000
    outer loop
        vertex -0.6680 -0.1000 2.9240
        vertex -1.6236 -0.1000 2.9240
        vertex -1.6236 -0.1000 -2.9600
    endloop
endfacet
facet normal 0.0000 -35.1422 0.0000
    outer loop
        vertex -1.6236 -0.1000 -2.9600
        vertex -0.6680 -0.1000 -2.9600
        vertex -0.6680 -0.1000 2.9240
    endloop
endfacet
facet normal 0.0000 -8.6004 0.0000
    outer loop
        vertex -0.6680 -0.1000 -2.9600
        vertex -1.6236 -0.1000 -2.9600
        vertex -8.4000 -0.1000 -4.4000
    endloop
endfacet
facet normal 0.0000 -151.2000 0.0000
    outer loop
        vertex -8.4000 -0.1000 -4.4000
        vertex 8.4000 -0.1000 -4.4000
        vertex -0.6680 -0.1000 -2.9600
    endloop
endfacet
facet normal 0.0000 -12.2400 0.0000
    outer loop
        vertex 0.6920 -0.1000 -2.9600
        vertex -0.6680 -0.1000 -2.9600
        vertex 8.4000 -0.1000 -4.4000
    endloop
endfacet
facet normal 0.0000 -1.6488 0.0000
    outer loop
        vertex 0.9720 -0.1000 -0.6080
        vertex 1.6236 -0.1000 -1.5440
        vertex 1.5880 -0.1000 -1.0880
    endloop
endfacet
facet normal 0.0000 -0.7512 0.0000
    outer loop
        vertex 1.5880 -0.1000 -1.0880
        vertex 1.2840 -0.1000 -0.6560
        vertex 0.9720 -0.1000 -0.6080
    endloop
endfacet
facet normal 0.0000 -0.2596 0.0000
    outer loop
        vertex 1.2840 -0.1000 -0.6560
        vertex 1.5880 -0.1000 -1.0880
        vertex 1.4840 -0.1000 -0.8036
    endloop
endfacet
facet normal 0.0000 -1.6380 0.0000
    outer loop
        vertex 1.6236 -0.1000 -1.5440
        vertex 0.9720 -0.1000 -0.6080
        vertex 0.6920 -0.1000 -0.6080
    endloop
endfacet
facet normal 0.0000 -1.5583 0.0000
    outer loop
        vertex 0.6920 -0.1000 -0.6080
        vertex 1.6160 -0.1000 -1.8040
        vertex 1.6236 -0.1000 -1.5440
    endloop
endfacet
facet normal 0.0000 -2.3012 0.0000
    outer loop
        vertex 1.6480 -0.1000 1.2200
        vertex 0.6920 -0.1000 0.4760
        vertex 1.2280 -0.1000 0.5080
    endloop
endfacet
facet normal 0.0000 -0.7282 0.0000
    outer loop
        vertex 1.2280 -0.1000 0.5080
        vertex 1.6040 -0.1000 0.8680
        vertex 1.6480 -0.1000 1.2200
    endloop
endfacet
facet normal 0.0000 -13.5828 0.0000
    outer loop
        vertex 1.6160 -0.1000 -1.8040
        vertex 0.6920 -0.1000 -0.6080
        vertex 0.6920 -0.1000 -2.9600
    endloop
endfacet
facet normal 0.0000 -1.9259 0.0000
    outer loop
        vertex 0.6920 -0.1000 -2.9600
        vertex 1.6076 -0.1000 -2.1480
        vertex 1.6160 -0.1000 -1.8040
    endloop
endfacet
facet normal 0.0000 -0.2298 0.0000
    outer loop
        vertex 1.6040 -0.1000 0.8680
        vertex 1.2280 -0.1000 0.5080
        vertex 1.4680 -0.1000 0.6400
    endloop
endfacet
facet normal 0.0000 -11.2941 0.0000
    outer loop
        vertex -5.6280 -0.1000 1.7800
        vertex -5.6280 -0.1000 0.7120
        vertex -3.9360 -0.1000 0.7120
    endloop
endfacet
facet normal 0.0000 -12.1752 0.0000
    outer loop
        vertex -3.9360 -0.1000 0.7120
        vertex -3.8040 -0.1000 1.7800
        vertex -5.6280 -0.1000 1.7800
    endloop
endfacet
facet normal 0.0000 -6.9795 0.0000
    outer loop
        vertex -3.9360 -0.1000 0.7120
        vertex -3.9360 -0.1000 -0.4760
        vertex -2.9960 -0.1000 2.9240
    endloop
endfacet
facet normal 0.0000 -4.4496 0.0000
    outer loop
        vertex -2.9960 -0.1000 2.9240
        vertex -3.8040 -0.1000 1.7800
        vertex -3.9360 -0.1000 0.7120
    endloop
endfacet
facet normal 0.0000 -29.5938 0.0000
    outer loop
        vertex -8.4000 -0.1000 4.4000
        vertex -7.0120 -0.1000 2.9240
        vertex -3.8040 -0.1000 2.9240
    endloop
endfacet
facet normal 0.0000 -7.4538 0.0000
    outer loop
        vertex -8.4000 -0.1000 4.4000
        vertex -3.8040 -0.1000 2.9240
        vertex -2.9960 -0.1000 2.9240
    endloop
endfacet
facet normal 0.0000 -5.7772 0.0000
    outer loop
        vertex -2.9960 -0.1000 2.9240
        vertex -3.8040 -0.1000 2.9240
        vertex -3.8040 -0.1000 1.7800
    endloop
endfacet
facet normal 0.0000 -12.6604 0.0000
    outer loop
        vertex -8.4000 -0.1000 4.4000
        vertex -2.9960 -0.1000 2.9240
        vertex -1.6236 -0.1000 2.9240
    endloop
endfacet
facet normal 0.0000 -8.8154 0.0000
    outer loop
        vertex -8.4000 -0.1000 4.4000
        vertex -1.6236 -0.1000 2.9240
        vertex -0.6680 -0.1000 2.9240
    endloop
endfacet
facet normal 0.0000 -154.9800 0.0000
    outer loop
        vertex -0.6680 -0.1000 2.9240
        vertex 8.4000 -0.1000 4.4000
        vertex -8.4000 -0.1000 4.4000
    endloop
endfacet
facet normal 0.0000 -34.5685 0.0000
    outer loop
        vertex -2.9960 -0.1000 2.9240
        vertex -3.9360 -0.1000 -0.4760
        vertex -2.9960 -0.1000 -2.9600
    endloop
endfacet
facet normal 0.0000 -0.6607 0.0000
    outer loop
        vertex 1.2280 -0.1000 1.8720
        vertex 1.6480 -0.1000 1.2200
        vertex 1.6040 -0.1000 1.5400
    endloop
endfacet
facet normal 0.0000 -0.2254 0.0000
    outer loop
        vertex 1.6040 -0.1000 1.5400
        vertex 1.4680 -0.1000 1.7560
        vertex 1.2280 -0.1000 1.8720
    endloop
endfacet
facet normal 0.0000 -2.1002 0.0000
    outer loop
        vertex 1.6480 -0.1000 1.2200
        vertex 1.2280 -0.1000 1.8720
        vertex 0.6920 -0.1000 1.9040
    endloop
endfacet
facet normal 0.0000 -8.5323 0.0000
    outer loop
        vertex 0.6920 -0.1000 1.9040
        vertex 0.6920 -0.1000 0.4760
        vertex 1.6480 -0.1000 1.2200
    endloop
endfacet
facet normal 0.0000 -14.2803 0.0000
    outer loop
        vertex 8.4000 -0.1000 4.4000
        vertex -0.6680 -0.1000 2.9240
        vertex 0.8800 -0.1000 2.9240
    endloop
endfacet
facet normal 0.0000 -6.9916 0.0000
    outer loop
        vertex 8.4000 -0.1000 4.4000
        vertex 0.8800 -0.1000 2.9240
        vertex 1.5360 -0.1000 2.9040
    endloop
endfacet
facet normal 0.0000 -21.3950 0.0000
    outer loop
        vertex 1.5360 -0.1000 2.9040
        vertex 3.9160 -0.1000 2.9240
        vertex 8.4000 -0.1000 4.4000
    endloop
endfacet
facet normal 0.0000 -2.4480 0.0000
    outer loop
        vertex 1.6360 -0.1000 -2.5760
        vertex 0.6920 -0.1000 -2.9600
        vertex 1.7120 -0.1000 -2.9600
    endloop
endfacet
facet normal 0.0000 -2.5934 0.0000
    outer loop
        vertex 1.6076 -0.1000 -2.1480
        vertex 0.6920 -0.1000 -2.9600
        vertex 1.6360 -0.1000 -2.5760
    endloop
endfacet
facet normal 0.0000 -2.8031 0.0000
    outer loop
        vertex 2.8920 -0.1000 -0.7560
        vertex 2.9840 -0.1000 -1.3920
        vertex 3.9160 -0.1000 -2.9600
    endloop
endfacet
facet normal 0.0000 -12.1334 0.0000
    outer loop
        vertex 3.9160 -0.1000 -2.9600
        vertex 2.9960 -0.1000 0.9160
        vertex 2.8920 -0.1000 -0.7560
    endloop
endfacet
facet normal 0.0000 -1.7248 0.0000
    outer loop
        vertex 2.6680 -0.1000 -0.3080
        vertex 2.8920 -0.1000 -0.7560
        vertex 2.8640 -0.1000 0.5320
    endloop
endfacet
facet normal 0.0000 -0.8148 0.0000
    outer loop
        vertex 2.8640 -0.1000 0.5320
        vertex 2.6360 -0.1000 0.2200
        vertex 2.6680 -0.1000 -0.3080
    endloop
endfacet
facet normal 0.0000 -1.6241 0.0000
    outer loop
        vertex 3.0800 -0.1000 -2.5240
        vertex 3.3200 -0.1000 -2.9600
        vertex 3.9160 -0.1000 -2.9600
    endloop
endfacet
facet normal 0.0000 -3.9820 0.0000
    outer loop
        vertex 3.9160 -0.1000 -2.9600
        vertex 2.9920 -0.1000 -1.7160
        vertex 3.0800 -0.1000 -2.5240
    endloop
endfacet
facet normal 0.0000 -28.8000 0.0000
    outer loop
        vertex 7.1160 -0.1000 -2.9600
        vertex 3.9160 -0.1000 -2.9600
        vertex 8.4000 -0.1000 -4.4000
    endloop
endfacet
facet normal 0.0000 -5.3640 0.0000
    outer loop
        vertex 3.9160 -0.1000 -2.9600
        vertex 3.3200 -0.1000 -2.9600
        vertex 8.4000 -0.1000 -4.4000
    endloop
endfacet
facet normal 0.0000 -9.5979 0.0000
    outer loop
        vertex 7.1160 -0.1000 -1.7640
        vertex 7.1160 -0.1000 -2.9600
        vertex 8.4000 -0.1000 -4.4000
    endloop
endfacet
facet normal 0.0000 -14.4720 0.0000
    outer loop
        vertex 3.3200 -0.1000 -2.9600
        vertex 1.7120 -0.1000 -2.9600
        vertex 8.4000 -0.1000 -4.4000
    endloop
endfacet
facet normal 0.0000 -13.5360 0.0000
    outer loop
        vertex 6.9760 -0.1000 -0.4840
        vertex 5.2840 -0.1000 -0.4840
        vertex 5.2840 -0.1000 -1.7640
    endloop
endfacet
facet normal 0.0000 -14.6560 0.0000
    outer loop
        vertex 5.2840 -0.1000 -1.7640
        vertex 7.1160 -0.1000 -1.7640
        vertex 6.9760 -0.1000 -0.4840
    endloop
endfacet
facet normal 0.0000 -7.9655 0.0000
    outer loop
        vertex 6.9760 -0.1000 -0.4840
        vertex 7.1160 -0.1000 -1.7640
        vertex 8.4000 -0.1000 -4.4000
    endloop
endfacet
facet normal 0.0000 -78.3200 0.0000
    outer loop
        vertex 8.4000 -0.1000 -4.4000
        vertex 8.4000 -0.1000 4.4000
        vertex 6.9760 -0.1000 -0.4840
    endloop
endfacet
facet normal 0.0000 -1.8089 0.0000
    outer loop
        vertex 2.9840 -0.1000 -1.3920
        vertex 2.9920 -0.1000 -1.7160
        vertex 3.9160 -0.1000 -2.9600
    endloop
endfacet
facet normal 0.0000 -9.1800 0.0000
    outer loop
        vertex 1.7120 -0.1000 -2.9600
        vertex 0.6920 -0.1000 -2.9600
        vertex 8.4000 -0.1000 -4.4000
    endloop
endfacet
facet normal 0.0000 -1.1196 0.0000
    outer loop
        vertex 2.6360 -0.1000 0.2200
        vertex 2.3120 -0.1000 -0.0320
        vertex 2.6680 -0.1000 -0.3080
    endloop
endfacet
facet normal 0.0000 -1.2996 0.0000
    outer loop
        vertex 3.9160 -0.1000 2.9240
        vertex 1.9840 -0.1000 2.8520
        vertex 2.2960 -0.1000 2.7560
    endloop
endfacet
facet normal 0.0000 -2.5534 0.0000
    outer loop
        vertex 3.9160 -0.1000 2.9240
        vertex 2.7600 -0.1000 2.3800
        vertex 2.9160 -0.1000 2.1000
    endloop
endfacet
facet normal 0.0000 -2.3953 0.0000
    outer loop
        vertex 3.9160 -0.1000 2.9240
        vertex 2.5400 -0.1000 2.6080
        vertex 2.7600 -0.1000 2.3800
    endloop
endfacet
facet normal 0.0000 -1.7547 0.0000
    outer loop
        vertex 3.9160 -0.1000 2.9240
        vertex 2.2960 -0.1000 2.7560
        vertex 2.5400 -0.1000 2.6080
    endloop
endfacet
facet normal 0.0000 -33.8330 0.0000
    outer loop
        vertex 2.9960 -0.1000 0.9160
        vertex 3.9160 -0.1000 -2.9600
        vertex 3.9160 -0.1000 2.9240
    endloop
endfacet
facet normal 0.0000 -2.1388 0.0000
    outer loop
        vertex 3.9160 -0.1000 2.9240
        vertex 3.0400 -0.1000 1.3840
        vertex 2.9960 -0.1000 0.9160
    endloop
endfacet
facet normal 0.0000 -1.1298 0.0000
    outer loop
        vertex 2.9960 -0.1000 0.9160
        vertex 2.8640 -0.1000 0.5320
        vertex 2.8920 -0.1000 -0.7560
    endloop
endfacet
facet normal 0.0000 -11.4633 0.0000
    outer loop
        vertex 5.2840 -0.1000 1.7800
        vertex 5.2840 -0.1000 0.6960
        vertex 6.9760 -0.1000 0.6960
    endloop
endfacet
facet normal 0.0000 -12.4118 0.0000
    outer loop
        vertex 6.9760 -0.1000 0.6960
        vertex 7.1160 -0.1000 1.7800
        vertex 5.2840 -0.1000 1.7800
    endloop
endfacet
facet normal 0.0000 -2.3938 0.0000
    outer loop
        vertex 3.9160 -0.1000 2.9240
        vertex 3.0120 -0.1000 1.7720
        vertex 3.0400 -0.1000 1.3840
    endloop
endfacet
facet normal 0.0000 -9.1806 0.0000
    outer loop
        vertex 8.4000 -0.1000 4.4000
        vertex 7.1160 -0.1000 2.9240
        vertex 7.1160 -0.1000 1.7800
    endloop
endfacet
facet normal 0.0000 -6.4066 0.0000
    outer loop
        vertex 8.4000 -0.1000 4.4000
        vertex 7.1160 -0.1000 1.7800
        vertex 6.9760 -0.1000 0.6960
    endloop
endfacet
facet normal 0.0000 -10.5020 0.0000
    outer loop
        vertex 6.9760 -0.1000 0.6960
        vertex 6.9760 -0.1000 -0.4840
        vertex 8.4000 -0.1000 4.4000
    endloop
endfacet
facet normal 0.0000 -29.5200 0.0000
    outer loop
        vertex 8.4000 -0.1000 4.4000
        vertex 3.9160 -0.1000 2.9240
        vertex 7.1160 -0.1000 2.9240
    endloop
endfacet
facet normal 0.0000 -2.5444 0.0000
    outer loop
        vertex 3.9160 -0.1000 2.9240
        vertex 2.9160 -0.1000 2.1000
        vertex 3.0120 -0.1000 1.7720
    endloop
endfacet
facet normal 0.0000 -0.8295 0.0000
    outer loop
        vertex 3.9160 -0.1000 2.9240
        vertex 1.5360 -0.1000 2.9040
        vertex 1.9840 -0.1000 2.8520
    endloop
endfacet
endsolid GiantLegoRocks
