solid GiantLegoRocks
facet normal 0.0000 0.7500 0.0000
    outer loop
        vertex 4.0000 0.0000 3.2000
        vertex 4.0000 0.0000 -3.2000
        vertex -4.0000 0.0000 -3.2000
    endloop
endfacet
facet normal 0.0000 0.7500 0.0000
    outer loop
        vertex -4.0000 0.0000 -3.2000
        vertex -4.0000 0.0000 3.2000
        vertex 4.0000 0.0000 3.2000
    endloop
endfacet
facet normal 0.0000 -0.2500 16.0000
    outer loop
        vertex -4.0000 -0.1000 3.2000
        vertex 4.0000 -0.1000 3.2000
        vertex 4.0000 0.0000 3.2000
    endloop
endfacet
facet normal 0.0000 -0.2500 16.0000
    outer loop
        vertex 4.0000 0.0000 3.2000
        vertex -4.0000 0.0000 3.2000
        vertex -4.0000 -0.1000 3.2000
    endloop
endfacet
facet normal -20.0000 -0.2500 0.0000
    outer loop
        vertex -4.0000 -0.1000 -3.2000
        vertex -4.0000 -0.1000 3.2000
        vertex -4.0000 0.0000 3.2000
    endloop
endfacet
facet normal -20.0000 -0.2500 0.0000
    outer loop
        vertex -4.0000 0.0000 3.2000
        vertex -4.0000 0.0000 -3.2000
        vertex -4.0000 -0.1000 -3.2000
    endloop
endfacet
facet normal 0.0000 -0.2500 -16.0000
    outer loop
        vertex 4.0000 -0.1000 -3.2000
        vertex -4.0000 -0.1000 -3.2000
        vertex -4.0000 0.0000 -3.2000
    endloop
endfacet
facet normal 0.0000 -0.2500 -16.0000
    outer loop
        vertex -4.0000 0.0000 -3.2000
        vertex 4.0000 0.0000 -3.2000
        vertex 4.0000 -0.1000 -3.2000
    endloop
endfacet
facet normal 20.0000 -0.2500 0.0000
    outer loop
        vertex 4.0000 -0.1000 3.2000
        vertex 4.0000 -0.1000 -3.2000
        vertex 4.0000 0.0000 -3.2000
    endloop
endfacet
facet normal 20.0000 -0.2500 0.0000
    outer loop
        vertex 4.0000 0.0000 -3.2000
        vertex 4.0000 0.0000 3.2000
        vertex 4.0000 -0.1000 3.2000
    endloop
endfacet
facet normal 0.0000 -0.7805 0.0000
    outer loop
        vertex 0.1754 -0.1000 -1.2816
        vertex 0.2412 -0.1000 -1.7016
        vertex 0.4509 -0.1000 -1.1420
    endloop
endfacet
facet normal 0.0000 -0.7517 0.0000
    outer loop
        vertex 0.4509 -0.1000 -1.1420
        vertex 0.3052 -0.1000 -0.7792
        vertex 0.1754 -0.1000 -1.2816
    endloop
endfacet
facet normal 0.0000 -0.3323 0.0000
    outer loop
        vertex 0.3208 -0.1000 0.0936
        vertex 0.3114 -0.1000 -0.1936
        vertex 0.4936 -0.1000 -0.2836
    endloop
endfacet
facet normal 0.0000 -0.4967 0.0000
    outer loop
        vertex 0.4936 -0.1000 -0.2836
        vertex 0.6251 -0.1000 -0.1108
        vertex 0.3208 -0.1000 0.0936
    endloop
endfacet
facet normal 0.0000 -0.6702 0.0000
    outer loop
        vertex 0.4936 -0.1000 -0.2836
        vertex 0.3114 -0.1000 -0.1936
        vertex 0.3052 -0.1000 -0.7792
    endloop
endfacet
facet normal 0.0000 -0.8782 0.0000
    outer loop
        vertex 0.3052 -0.1000 -0.7792
        vertex 0.4509 -0.1000 -1.1420
        vertex 0.4936 -0.1000 -0.2836
    endloop
endfacet
facet normal 0.0000 -0.5039 0.0000
    outer loop
        vertex 0.3104 -0.1000 1.6896
        vertex 0.3280 -0.1000 1.3456
        vertex 0.5422 -0.1000 1.7404
    endloop
endfacet
facet normal 0.0000 -0.0691 0.0000
    outer loop
        vertex 0.5422 -0.1000 1.7404
        vertex 0.3829 -0.1000 1.7532
        vertex 0.3104 -0.1000 1.6896
    endloop
endfacet
facet normal 0.0000 -0.6509 0.0000
    outer loop
        vertex 0.5833 -0.1000 -1.2852
        vertex 0.4509 -0.1000 -1.1420
        vertex 0.2412 -0.1000 -1.7016
    endloop
endfacet
facet normal 0.0000 -0.7299 0.0000
    outer loop
        vertex 0.2412 -0.1000 -1.7016
        vertex 0.4442 -0.1000 -1.7960
        vertex 0.5833 -0.1000 -1.2852
    endloop
endfacet
facet normal 0.0000 -0.5854 0.0000
    outer loop
        vertex 0.6367 -0.1000 0.4308
        vertex 0.6310 -0.1000 0.7352
        vertex 0.3299 -0.1000 0.3804
    endloop
endfacet
facet normal 0.0000 -0.5470 0.0000
    outer loop
        vertex 0.3299 -0.1000 0.3804
        vertex 0.3208 -0.1000 0.0936
        vertex 0.6367 -0.1000 0.4308
    endloop
endfacet
facet normal 0.0000 -0.9705 0.0000
    outer loop
        vertex 0.6462 -0.1000 1.0816
        vertex 0.3280 -0.1000 1.3456
        vertex 0.3449 -0.1000 0.8436
    endloop
endfacet
facet normal 0.0000 -0.6298 0.0000
    outer loop
        vertex 0.3449 -0.1000 0.8436
        vertex 0.6310 -0.1000 0.7352
        vertex 0.6462 -0.1000 1.0816
    endloop
endfacet
facet normal 0.0000 -0.8386 0.0000
    outer loop
        vertex 0.3449 -0.1000 0.8436
        vertex 0.3299 -0.1000 0.3804
        vertex 0.6310 -0.1000 0.7352
    endloop
endfacet
facet normal 0.0000 -1.1965 0.0000
    outer loop
        vertex 0.6462 -0.1000 1.0816
        vertex 0.8349 -0.1000 1.7272
        vertex 0.5422 -0.1000 1.7404
    endloop
endfacet
facet normal 0.0000 -1.1386 0.0000
    outer loop
        vertex 0.5422 -0.1000 1.7404
        vertex 0.3280 -0.1000 1.3456
        vertex 0.6462 -0.1000 1.0816
    endloop
endfacet
facet normal 0.0000 -0.6596 0.0000
    outer loop
        vertex 0.6251 -0.1000 -0.1108
        vertex 0.4936 -0.1000 -0.2836
        vertex 0.4509 -0.1000 -1.1420
    endloop
endfacet
facet normal 0.0000 -5.0323 0.0000
    outer loop
        vertex 0.4509 -0.1000 -1.1420
        vertex 1.3007 -0.1000 -0.7336
        vertex 0.6251 -0.1000 -0.1108
    endloop
endfacet
facet normal 0.0000 -1.0450 0.0000
    outer loop
        vertex 0.6367 -0.1000 0.4308
        vertex 0.3208 -0.1000 0.0936
        vertex 0.6251 -0.1000 -0.1108
    endloop
endfacet
facet normal 0.0000 -0.5047 0.0000
    outer loop
        vertex 0.6251 -0.1000 -0.1108
        vertex 0.7764 -0.1000 -0.0080
        vertex 0.6367 -0.1000 0.4308
    endloop
endfacet
facet normal 0.0000 -0.6570 0.0000
    outer loop
        vertex 0.4442 -0.1000 -1.7960
        vertex 0.6623 -0.1000 -1.8272
        vertex 0.7760 -0.1000 -1.3616
    endloop
endfacet
facet normal 0.0000 -0.6815 0.0000
    outer loop
        vertex 0.7760 -0.1000 -1.3616
        vertex 0.5833 -0.1000 -1.2852
        vertex 0.4442 -0.1000 -1.7960
    endloop
endfacet
facet normal 0.0000 -0.3459 0.0000
    outer loop
        vertex 0.6462 -0.1000 1.0816
        vertex 0.6310 -0.1000 0.7352
        vertex 0.7827 -0.1000 0.5508
    endloop
endfacet
facet normal 0.0000 -0.5215 0.0000
    outer loop
        vertex 0.7827 -0.1000 0.5508
        vertex 0.8040 -0.1000 1.0792
        vertex 0.6462 -0.1000 1.0816
    endloop
endfacet
facet normal 0.0000 -0.6396 0.0000
    outer loop
        vertex 0.8349 -0.1000 1.7272
        vertex 0.6462 -0.1000 1.0816
        vertex 0.8040 -0.1000 1.0792
    endloop
endfacet
facet normal 0.0000 -0.5917 0.0000
    outer loop
        vertex 0.8040 -0.1000 1.0792
        vertex 0.9503 -0.1000 1.0828
        vertex 0.8349 -0.1000 1.7272
    endloop
endfacet
facet normal 0.0000 -0.5053 0.0000
    outer loop
        vertex 0.7827 -0.1000 0.5508
        vertex 0.6367 -0.1000 0.4308
        vertex 0.7764 -0.1000 -0.0080
    endloop
endfacet
facet normal 0.0000 -0.8100 0.0000
    outer loop
        vertex 0.7764 -0.1000 -0.0080
        vertex 1.0155 -0.1000 0.6232
        vertex 0.7827 -0.1000 0.5508
    endloop
endfacet
facet normal 0.0000 -0.2821 0.0000
    outer loop
        vertex 0.6310 -0.1000 0.7352
        vertex 0.6367 -0.1000 0.4308
        vertex 0.7827 -0.1000 0.5508
    endloop
endfacet
facet normal 0.0000 -0.5916 0.0000
    outer loop
        vertex 0.7760 -0.1000 -1.3616
        vertex 0.6623 -0.1000 -1.8272
        vertex 0.8717 -0.1000 -1.8020
    endloop
endfacet
facet normal 0.0000 -0.6505 0.0000
    outer loop
        vertex 0.8717 -0.1000 -1.8020
        vertex 1.0040 -0.1000 -1.3232
        vertex 0.7760 -0.1000 -1.3616
    endloop
endfacet
facet normal 0.0000 -2.5395 0.0000
    outer loop
        vertex -3.2934 -0.1000 0.5516
        vertex -3.3758 -0.1000 -1.5040
        vertex -3.1661 -0.1000 -1.2036
    endloop
endfacet
facet normal 0.0000 -3.3914 0.0000
    outer loop
        vertex -3.1661 -0.1000 -1.2036
        vertex -2.8870 -0.1000 -0.7888
        vertex -3.2934 -0.1000 0.5516
    endloop
endfacet
facet normal 0.0000 -0.7590 0.0000
    outer loop
        vertex 0.8040 -0.1000 1.0792
        vertex 0.7827 -0.1000 0.5508
        vertex 1.0155 -0.1000 0.6232
    endloop
endfacet
facet normal 0.0000 -0.4216 0.0000
    outer loop
        vertex 1.0155 -0.1000 0.6232
        vertex 0.9503 -0.1000 1.0828
        vertex 0.8040 -0.1000 1.0792
    endloop
endfacet
facet normal 0.0000 -0.4820 0.0000
    outer loop
        vertex -3.0576 -0.1000 0.8388
        vertex -3.2748 -0.1000 0.9012
        vertex -3.2934 -0.1000 0.5516
    endloop
endfacet
facet normal 0.0000 -0.3345 0.0000
    outer loop
        vertex -3.2934 -0.1000 0.5516
        vertex -3.1071 -0.1000 0.5516
        vertex -3.0576 -0.1000 0.8388
    endloop
endfacet
facet normal 0.0000 -0.6475 0.0000
    outer loop
        vertex -3.2552 -0.1000 1.3724
        vertex -3.2748 -0.1000 0.9012
        vertex -3.0576 -0.1000 0.8388
    endloop
endfacet
facet normal 0.0000 -0.3110 0.0000
    outer loop
        vertex -3.0576 -0.1000 0.8388
        vertex -3.0080 -0.1000 0.9568
        vertex -3.2552 -0.1000 1.3724
    endloop
endfacet
facet normal 0.0000 -0.8147 0.0000
    outer loop
        vertex 1.0155 -0.1000 0.6232
        vertex 0.7764 -0.1000 -0.0080
        vertex 0.9854 -0.1000 -0.0016
    endloop
endfacet
facet normal 0.0000 -0.9219 0.0000
    outer loop
        vertex 0.9854 -0.1000 -0.0016
        vertex 1.2496 -0.1000 0.5824
        vertex 1.0155 -0.1000 0.6232
    endloop
endfacet
facet normal 0.0000 -0.6312 0.0000
    outer loop
        vertex -3.3758 -0.1000 -1.5040
        vertex -3.3758 -0.1000 -1.7868
        vertex -3.0187 -0.1000 -1.7756
    endloop
endfacet
facet normal 0.0000 -1.0265 0.0000
    outer loop
        vertex -3.0187 -0.1000 -1.7756
        vertex -3.1661 -0.1000 -1.2036
        vertex -3.3758 -0.1000 -1.5040
    endloop
endfacet
facet normal 0.0000 -0.8552 0.0000
    outer loop
        vertex 1.0489 -0.1000 1.7176
        vertex 0.8349 -0.1000 1.7272
        vertex 0.9503 -0.1000 1.0828
    endloop
endfacet
facet normal 0.0000 -1.5341 0.0000
    outer loop
        vertex 0.9503 -0.1000 1.0828
        vertex 1.3352 -0.1000 1.0716
        vertex 1.0489 -0.1000 1.7176
    endloop
endfacet
facet normal 0.0000 -0.7766 0.0000
    outer loop
        vertex 1.2496 -0.1000 0.5824
        vertex 0.9854 -0.1000 -0.0016
        vertex 1.1536 -0.1000 -0.1000
    endloop
endfacet
facet normal 0.0000 -0.9935 0.0000
    outer loop
        vertex 1.1536 -0.1000 -0.1000
        vertex 1.4647 -0.1000 0.4556
        vertex 1.2496 -0.1000 0.5824
    endloop
endfacet
facet normal 0.0000 -0.5114 0.0000
    outer loop
        vertex 1.0040 -0.1000 -1.3232
        vertex 0.8717 -0.1000 -1.8020
        vertex 1.0635 -0.1000 -1.7264
    endloop
endfacet
facet normal 0.0000 -0.4820 0.0000
    outer loop
        vertex 1.0635 -0.1000 -1.7264
        vertex 1.2373 -0.1000 -1.6080
        vertex 1.0040 -0.1000 -1.3232
    endloop
endfacet
facet normal 0.0000 -0.0456 0.0000
    outer loop
        vertex 0.8349 -0.1000 1.7272
        vertex 1.0489 -0.1000 1.7176
        vertex 1.3456 -0.1000 1.7384
    endloop
endfacet
facet normal 0.0000 -0.0912 0.0000
    outer loop
        vertex 1.3456 -0.1000 1.7384
        vertex 1.6294 -0.1000 1.7732
        vertex 0.8349 -0.1000 1.7272
    endloop
endfacet
facet normal 0.0000 -0.7376 0.0000
    outer loop
        vertex 1.0155 -0.1000 0.6232
        vertex 1.2496 -0.1000 0.5824
        vertex 1.3352 -0.1000 1.0716
    endloop
endfacet
facet normal 0.0000 -1.1011 0.0000
    outer loop
        vertex 1.3352 -0.1000 1.0716
        vertex 0.9503 -0.1000 1.0828
        vertex 1.0155 -0.1000 0.6232
    endloop
endfacet
facet normal 0.0000 -1.2350 0.0000
    outer loop
        vertex 1.3456 -0.1000 1.7384
        vertex 1.0489 -0.1000 1.7176
        vertex 1.3352 -0.1000 1.0716
    endloop
endfacet
facet normal 0.0000 -1.3718 0.0000
    outer loop
        vertex 1.3352 -0.1000 1.0716
        vertex 1.6694 -0.1000 1.3920
        vertex 1.3456 -0.1000 1.7384
    endloop
endfacet
facet normal 0.0000 -0.6566 0.0000
    outer loop
        vertex -3.2552 -0.1000 1.3724
        vertex -3.0080 -0.1000 0.9568
        vertex -2.8504 -0.1000 1.1168
    endloop
endfacet
facet normal 0.0000 -0.8749 0.0000
    outer loop
        vertex -2.8504 -0.1000 1.1168
        vertex -3.0845 -0.1000 1.6104
        vertex -3.2552 -0.1000 1.3724
    endloop
endfacet
facet normal 0.0000 -0.0667 0.0000
    outer loop
        vertex -2.8504 -0.1000 1.1168
        vertex -3.0080 -0.1000 0.9568
        vertex -3.0576 -0.1000 0.8388
    endloop
endfacet
facet normal 0.0000 -0.2403 0.0000
    outer loop
        vertex -3.0576 -0.1000 0.8388
        vertex -2.6725 -0.1000 1.1700
        vertex -2.8504 -0.1000 1.1168
    endloop
endfacet
facet normal 0.0000 -0.1922 0.0000
    outer loop
        vertex 0.7760 -0.1000 -1.3616
        vertex 1.0040 -0.1000 -1.3232
        vertex 1.1649 -0.1000 -1.1612
    endloop
endfacet
facet normal 0.0000 -0.2390 0.0000
    outer loop
        vertex 1.1649 -0.1000 -1.1612
        vertex 1.2497 -0.1000 -1.0192
        vertex 0.7760 -0.1000 -1.3616
    endloop
endfacet
facet normal 0.0000 -0.8642 0.0000
    outer loop
        vertex -2.8072 -0.1000 -1.1656
        vertex -2.8870 -0.1000 -0.7888
        vertex -3.1661 -0.1000 -1.2036
    endloop
endfacet
facet normal 0.0000 -1.3181 0.0000
    outer loop
        vertex -3.1661 -0.1000 -1.2036
        vertex -3.0187 -0.1000 -1.7756
        vertex -2.8072 -0.1000 -1.1656
    endloop
endfacet
facet normal 0.0000 -1.8408 0.0000
    outer loop
        vertex -2.8072 -0.1000 -1.1656
        vertex -3.0187 -0.1000 -1.7756
        vertex -2.5304 -0.1000 -1.7600
    endloop
endfacet
facet normal 0.0000 -0.4750 0.0000
    outer loop
        vertex -2.5304 -0.1000 -1.7600
        vertex -2.6784 -0.1000 -1.1676
        vertex -2.8072 -0.1000 -1.1656
    endloop
endfacet
facet normal 0.0000 -0.4758 0.0000
    outer loop
        vertex 0.9854 -0.1000 -0.0016
        vertex 0.7764 -0.1000 -0.0080
        vertex 1.2848 -0.1000 -0.3568
    endloop
endfacet
facet normal 0.0000 -0.1893 0.0000
    outer loop
        vertex 1.2848 -0.1000 -0.3568
        vertex 1.1536 -0.1000 -0.1000
        vertex 0.9854 -0.1000 -0.0016
    endloop
endfacet
facet normal 0.0000 -0.5227 0.0000
    outer loop
        vertex 1.1649 -0.1000 -1.1612
        vertex 1.0040 -0.1000 -1.3232
        vertex 1.2373 -0.1000 -1.6080
    endloop
endfacet
facet normal 0.0000 -0.5609 0.0000
    outer loop
        vertex 1.2373 -0.1000 -1.6080
        vertex 1.4134 -0.1000 -1.4552
        vertex 1.1649 -0.1000 -1.1612
    endloop
endfacet
facet normal 0.0000 -1.5610 0.0000
    outer loop
        vertex -3.1071 -0.1000 0.5516
        vertex -3.2934 -0.1000 0.5516
        vertex -2.8870 -0.1000 -0.7888
    endloop
endfacet
facet normal 0.0000 -2.3529 0.0000
    outer loop
        vertex -2.8870 -0.1000 -0.7888
        vertex -2.6629 -0.1000 -0.4432
        vertex -3.1071 -0.1000 0.5516
    endloop
endfacet
facet normal 0.0000 -0.6259 0.0000
    outer loop
        vertex -2.9363 -0.1000 1.7256
        vertex -3.0845 -0.1000 1.6104
        vertex -2.8504 -0.1000 1.1168
    endloop
endfacet
facet normal 0.0000 -0.6531 0.0000
    outer loop
        vertex -2.8504 -0.1000 1.1168
        vertex -2.7739 -0.1000 1.7912
        vertex -2.9363 -0.1000 1.7256
    endloop
endfacet
facet normal 0.0000 -1.0987 0.0000
    outer loop
        vertex 1.3007 -0.1000 -0.7336
        vertex 0.4509 -0.1000 -1.1420
        vertex 0.5833 -0.1000 -1.2852
    endloop
endfacet
facet normal 0.0000 -1.0067 0.0000
    outer loop
        vertex 0.5833 -0.1000 -1.2852
        vertex 0.7760 -0.1000 -1.3616
        vertex 1.3007 -0.1000 -0.7336
    endloop
endfacet
facet normal 0.0000 -1.1625 0.0000
    outer loop
        vertex 1.3007 -0.1000 -0.7336
        vertex 1.2848 -0.1000 -0.3568
        vertex 0.7764 -0.1000 -0.0080
    endloop
endfacet
facet normal 0.0000 -1.0230 0.0000
    outer loop
        vertex 0.7764 -0.1000 -0.0080
        vertex 0.6251 -0.1000 -0.1108
        vertex 1.3007 -0.1000 -0.7336
    endloop
endfacet
facet normal 0.0000 -0.7364 0.0000
    outer loop
        vertex 1.3007 -0.1000 -0.7336
        vertex 0.7760 -0.1000 -1.3616
        vertex 1.2497 -0.1000 -1.0192
    endloop
endfacet
facet normal 0.0000 -0.7245 0.0000
    outer loop
        vertex -2.7739 -0.1000 1.7912
        vertex -2.8504 -0.1000 1.1168
        vertex -2.6725 -0.1000 1.1700
    endloop
endfacet
facet normal 0.0000 -0.7225 0.0000
    outer loop
        vertex -2.6725 -0.1000 1.1700
        vertex -2.5914 -0.1000 1.8132
        vertex -2.7739 -0.1000 1.7912
    endloop
endfacet
facet normal 0.0000 -0.3763 0.0000
    outer loop
        vertex 1.2497 -0.1000 -1.0192
        vertex 1.1649 -0.1000 -1.1612
        vertex 1.4134 -0.1000 -1.4552
    endloop
endfacet
facet normal 0.0000 -0.5988 0.0000
    outer loop
        vertex 1.4134 -0.1000 -1.4552
        vertex 1.5584 -0.1000 -1.2560
        vertex 1.2497 -0.1000 -1.0192
    endloop
endfacet
facet normal 0.0000 -0.6618 0.0000
    outer loop
        vertex -2.8870 -0.1000 -0.7888
        vertex -2.8072 -0.1000 -1.1656
        vertex -2.5951 -0.1000 -0.8404
    endloop
endfacet
facet normal 0.0000 -0.2644 0.0000
    outer loop
        vertex -2.5951 -0.1000 -0.8404
        vertex -2.8072 -0.1000 -1.1656
        vertex -2.6784 -0.1000 -1.1676
    endloop
endfacet
facet normal 0.0000 -0.5572 0.0000
    outer loop
        vertex -2.6784 -0.1000 -1.1676
        vertex -2.4052 -0.1000 -1.1648
        vertex -2.5951 -0.1000 -0.8404
    endloop
endfacet
facet normal 0.0000 -0.8656 0.0000
    outer loop
        vertex 1.6096 -0.1000 0.2692
        vertex 1.4647 -0.1000 0.4556
        vertex 1.1536 -0.1000 -0.1000
    endloop
endfacet
facet normal 0.0000 -1.0346 0.0000
    outer loop
        vertex 1.1536 -0.1000 -0.1000
        vertex 1.2848 -0.1000 -0.3568
        vertex 1.6096 -0.1000 0.2692
    endloop
endfacet
facet normal 0.0000 -0.7724 0.0000
    outer loop
        vertex -2.2752 -0.1000 -0.3968
        vertex -2.6629 -0.1000 -0.4432
        vertex -2.8870 -0.1000 -0.7888
    endloop
endfacet
facet normal 0.0000 -0.9126 0.0000
    outer loop
        vertex -2.8870 -0.1000 -0.7888
        vertex -2.5951 -0.1000 -0.8404
        vertex -2.2752 -0.1000 -0.3968
    endloop
endfacet
facet normal 0.0000 -0.6265 0.0000
    outer loop
        vertex 1.3007 -0.1000 -0.7336
        vertex 1.2497 -0.1000 -1.0192
        vertex 1.5584 -0.1000 -1.2560
    endloop
endfacet
facet normal 0.0000 -0.6765 0.0000
    outer loop
        vertex 1.5584 -0.1000 -1.2560
        vertex 1.6543 -0.1000 -1.0304
        vertex 1.3007 -0.1000 -0.7336
    endloop
endfacet
facet normal 0.0000 -0.7255 0.0000
    outer loop
        vertex 1.3352 -0.1000 1.0716
        vertex 1.2496 -0.1000 0.5824
        vertex 1.4647 -0.1000 0.4556
    endloop
endfacet
facet normal 0.0000 -0.9336 0.0000
    outer loop
        vertex 1.4647 -0.1000 0.4556
        vertex 1.5791 -0.1000 1.0648
        vertex 1.3352 -0.1000 1.0716
    endloop
endfacet
facet normal 0.0000 -2.3938 0.0000
    outer loop
        vertex -3.1071 -0.1000 0.5516
        vertex -2.6629 -0.1000 -0.4432
        vertex -2.4586 -0.1000 -0.0384
    endloop
endfacet
facet normal 0.0000 -1.6615 0.0000
    outer loop
        vertex -2.4586 -0.1000 -0.0384
        vertex -2.3637 -0.1000 0.2852
        vertex -3.1071 -0.1000 0.5516
    endloop
endfacet
facet normal 0.0000 -0.1196 0.0000
    outer loop
        vertex 1.6294 -0.1000 1.7732
        vertex 0.3829 -0.1000 1.7532
        vertex 0.5422 -0.1000 1.7404
    endloop
endfacet
facet normal 0.0000 -0.1497 0.0000
    outer loop
        vertex 0.5422 -0.1000 1.7404
        vertex 0.8349 -0.1000 1.7272
        vertex 1.6294 -0.1000 1.7732
    endloop
endfacet
facet normal 0.0000 -0.6850 0.0000
    outer loop
        vertex 1.5791 -0.1000 1.0648
        vertex 1.4647 -0.1000 0.4556
        vertex 1.6096 -0.1000 0.2692
    endloop
endfacet
facet normal 0.0000 -0.5158 0.0000
    outer loop
        vertex 1.6096 -0.1000 0.2692
        vertex 1.6793 -0.1000 1.1568
        vertex 1.5791 -0.1000 1.0648
    endloop
endfacet
facet normal 0.0000 -0.4974 0.0000
    outer loop
        vertex -2.5914 -0.1000 1.8132
        vertex -2.6725 -0.1000 1.1700
        vertex -2.5539 -0.1000 1.1292
    endloop
endfacet
facet normal 0.0000 -0.9825 0.0000
    outer loop
        vertex -2.5539 -0.1000 1.1292
        vertex -2.3592 -0.1000 1.7704
        vertex -2.5914 -0.1000 1.8132
    endloop
endfacet
facet normal 0.0000 -0.5112 0.0000
    outer loop
        vertex 1.6793 -0.1000 1.1568
        vertex 1.6694 -0.1000 1.3920
        vertex 1.3352 -0.1000 1.0716
    endloop
endfacet
facet normal 0.0000 -0.1445 0.0000
    outer loop
        vertex 1.3352 -0.1000 1.0716
        vertex 1.5791 -0.1000 1.0648
        vertex 1.6793 -0.1000 1.1568
    endloop
endfacet
facet normal 0.0000 -1.1750 0.0000
    outer loop
        vertex -2.2752 -0.1000 -0.3968
        vertex -2.5951 -0.1000 -0.8404
        vertex -2.4052 -0.1000 -1.1648
    endloop
endfacet
facet normal 0.0000 -1.8577 0.0000
    outer loop
        vertex -2.4052 -0.1000 -1.1648
        vertex -2.0148 -0.1000 -1.1448
        vertex -2.2752 -0.1000 -0.3968
    endloop
endfacet
facet normal 0.0000 -1.0141 0.0000
    outer loop
        vertex -2.4052 -0.1000 -1.1648
        vertex -2.6784 -0.1000 -1.1676
        vertex -2.5304 -0.1000 -1.7600
    endloop
endfacet
facet normal 0.0000 -2.7076 0.0000
    outer loop
        vertex -2.5304 -0.1000 -1.7600
        vertex -1.8082 -0.1000 -1.7868
        vertex -2.4052 -0.1000 -1.1648
    endloop
endfacet
facet normal 0.0000 -0.1910 0.0000
    outer loop
        vertex 1.6756 -0.1000 1.6712
        vertex 1.6294 -0.1000 1.7732
        vertex 1.3456 -0.1000 1.7384
    endloop
endfacet
facet normal 0.0000 -0.5784 0.0000
    outer loop
        vertex 1.3456 -0.1000 1.7384
        vertex 1.6694 -0.1000 1.3920
        vertex 1.6756 -0.1000 1.6712
    endloop
endfacet
facet normal 0.0000 -0.9216 0.0000
    outer loop
        vertex -2.4586 -0.1000 -0.0384
        vertex -2.6629 -0.1000 -0.4432
        vertex -2.2752 -0.1000 -0.3968
    endloop
endfacet
facet normal 0.0000 -0.8198 0.0000
    outer loop
        vertex -2.2752 -0.1000 -0.3968
        vertex -2.0758 -0.1000 -0.0712
        vertex -2.4586 -0.1000 -0.0384
    endloop
endfacet
facet normal 0.0000 -0.9814 0.0000
    outer loop
        vertex 1.7215 -0.1000 -0.8300
        vertex 1.2848 -0.1000 -0.3568
        vertex 1.3007 -0.1000 -0.7336
    endloop
endfacet
facet normal 0.0000 -0.5676 0.0000
    outer loop
        vertex 1.3007 -0.1000 -0.7336
        vertex 1.6543 -0.1000 -1.0304
        vertex 1.7215 -0.1000 -0.8300
    endloop
endfacet
facet normal 0.0000 -0.7632 0.0000
    outer loop
        vertex 1.6793 -0.1000 1.1568
        vertex 1.6096 -0.1000 0.2692
        vertex 1.7250 -0.1000 -0.0136
    endloop
endfacet
facet normal 0.0000 -1.7281 0.0000
    outer loop
        vertex 1.7250 -0.1000 -0.0136
        vertex 1.9392 -0.1000 0.5508
        vertex 1.6793 -0.1000 1.1568
    endloop
endfacet
facet normal 0.0000 -1.0254 0.0000
    outer loop
        vertex 1.7250 -0.1000 -0.0136
        vertex 1.6096 -0.1000 0.2692
        vertex 1.2848 -0.1000 -0.3568
    endloop
endfacet
facet normal 0.0000 -0.8208 0.0000
    outer loop
        vertex 1.2848 -0.1000 -0.3568
        vertex 1.7603 -0.1000 -0.2844
        vertex 1.7250 -0.1000 -0.0136
    endloop
endfacet
facet normal 0.0000 -0.7571 0.0000
    outer loop
        vertex 1.7600 -0.1000 -0.5392
        vertex 1.7603 -0.1000 -0.2844
        vertex 1.2848 -0.1000 -0.3568
    endloop
endfacet
facet normal 0.0000 -0.9076 0.0000
    outer loop
        vertex 1.2848 -0.1000 -0.3568
        vertex 1.7215 -0.1000 -0.8300
        vertex 1.7600 -0.1000 -0.5392
    endloop
endfacet
facet normal 0.0000 -0.1421 0.0000
    outer loop
        vertex -2.5539 -0.1000 1.1292
        vertex -2.6725 -0.1000 1.1700
        vertex -2.3580 -0.1000 0.8700
    endloop
endfacet
facet normal 0.0000 -0.0470 0.0000
    outer loop
        vertex -2.3580 -0.1000 0.8700
        vertex -2.4318 -0.1000 1.0060
        vertex -2.5539 -0.1000 1.1292
    endloop
endfacet
facet normal 0.0000 -0.4880 0.0000
    outer loop
        vertex -2.3319 -0.1000 0.5968
        vertex -2.3580 -0.1000 0.8700
        vertex -2.6725 -0.1000 1.1700
    endloop
endfacet
facet normal 0.0000 -2.0846 0.0000
    outer loop
        vertex -2.6725 -0.1000 1.1700
        vertex -3.0576 -0.1000 0.8388
        vertex -2.3319 -0.1000 0.5968
    endloop
endfacet
facet normal 0.0000 -1.5007 0.0000
    outer loop
        vertex -3.1071 -0.1000 0.5516
        vertex -2.3637 -0.1000 0.2852
        vertex -2.3319 -0.1000 0.5968
    endloop
endfacet
facet normal 0.0000 -1.3775 0.0000
    outer loop
        vertex -2.3319 -0.1000 0.5968
        vertex -3.0576 -0.1000 0.8388
        vertex -3.1071 -0.1000 0.5516
    endloop
endfacet
facet normal 0.0000 -1.5923 0.0000
    outer loop
        vertex -2.0148 -0.1000 -1.1448
        vertex -2.4052 -0.1000 -1.1648
        vertex -1.8082 -0.1000 -1.7868
    endloop
endfacet
facet normal 0.0000 -0.5708 0.0000
    outer loop
        vertex -1.8082 -0.1000 -1.7868
        vertex -1.7612 -0.1000 -1.4908
        vertex -2.0148 -0.1000 -1.1448
    endloop
endfacet
facet normal 0.0000 -0.6394 0.0000
    outer loop
        vertex -2.3592 -0.1000 1.7704
        vertex -2.5539 -0.1000 1.1292
        vertex -2.4318 -0.1000 1.0060
    endloop
endfacet
facet normal 0.0000 -1.2770 0.0000
    outer loop
        vertex -2.4318 -0.1000 1.0060
        vertex -2.1080 -0.1000 1.6008
        vertex -2.3592 -0.1000 1.7704
    endloop
endfacet
facet normal 0.0000 -0.7936 0.0000
    outer loop
        vertex -2.3637 -0.1000 0.2852
        vertex -2.4586 -0.1000 -0.0384
        vertex -2.0758 -0.1000 -0.0712
    endloop
endfacet
facet normal 0.0000 -0.6760 0.0000
    outer loop
        vertex -2.0758 -0.1000 -0.0712
        vertex -1.9475 -0.1000 0.1456
        vertex -2.3637 -0.1000 0.2852
    endloop
endfacet
facet normal 0.0000 -0.4431 0.0000
    outer loop
        vertex 2.3049 -0.1000 -0.7360
        vertex 2.2970 -0.1000 -0.5768
        vertex 1.8600 -0.1000 -0.7440
    endloop
endfacet
facet normal 0.0000 -1.2129 0.0000
    outer loop
        vertex 1.8600 -0.1000 -0.7440
        vertex 1.9369 -0.1000 -1.1788
        vertex 2.3049 -0.1000 -0.7360
    endloop
endfacet
facet normal 0.0000 -0.9105 0.0000
    outer loop
        vertex 2.3573 -0.1000 0.2100
        vertex 1.8801 -0.1000 0.2792
        vertex 1.8493 -0.1000 -0.0216
    endloop
endfacet
facet normal 0.0000 -1.8327 0.0000
    outer loop
        vertex 1.8493 -0.1000 -0.0216
        vertex 2.3180 -0.1000 -0.3852
        vertex 2.3573 -0.1000 0.2100
    endloop
endfacet
facet normal 0.0000 -1.4619 0.0000
    outer loop
        vertex -2.0758 -0.1000 -0.0712
        vertex -2.2752 -0.1000 -0.3968
        vertex -2.0148 -0.1000 -1.1448
    endloop
endfacet
facet normal 0.0000 -1.5255 0.0000
    outer loop
        vertex -2.0148 -0.1000 -1.1448
        vertex -1.7882 -0.1000 -1.1316
        vertex -2.0758 -0.1000 -0.0712
    endloop
endfacet
facet normal 0.0000 -0.8384 0.0000
    outer loop
        vertex -2.3319 -0.1000 0.5968
        vertex -2.3637 -0.1000 0.2852
        vertex -1.9475 -0.1000 0.1456
    endloop
endfacet
facet normal 0.0000 -1.0730 0.0000
    outer loop
        vertex -1.9475 -0.1000 0.1456
        vertex -1.8628 -0.1000 0.4928
        vertex -2.3319 -0.1000 0.5968
    endloop
endfacet
facet normal 0.0000 -1.0968 0.0000
    outer loop
        vertex 1.8393 -0.1000 -0.3504
        vertex 1.8600 -0.1000 -0.7440
        vertex 2.2970 -0.1000 -0.5768
    endloop
endfacet
facet normal 0.0000 -0.5778 0.0000
    outer loop
        vertex 2.2970 -0.1000 -0.5768
        vertex 2.3180 -0.1000 -0.3852
        vertex 1.8393 -0.1000 -0.3504
    endloop
endfacet
facet normal 0.0000 -0.9380 0.0000
    outer loop
        vertex -1.9674 -0.1000 1.3956
        vertex -2.1080 -0.1000 1.6008
        vertex -2.4318 -0.1000 1.0060
    endloop
endfacet
facet normal 0.0000 -0.5744 0.0000
    outer loop
        vertex -2.4318 -0.1000 1.0060
        vertex -2.3580 -0.1000 0.8700
        vertex -1.9674 -0.1000 1.3956
    endloop
endfacet
facet normal 0.0000 -0.8969 0.0000
    outer loop
        vertex -1.8864 -0.1000 1.1372
        vertex -1.9674 -0.1000 1.3956
        vertex -2.3580 -0.1000 0.8700
    endloop
endfacet
facet normal 0.0000 -0.9493 0.0000
    outer loop
        vertex -2.3580 -0.1000 0.8700
        vertex -1.8439 -0.1000 0.8392
        vertex -1.8864 -0.1000 1.1372
    endloop
endfacet
facet normal 0.0000 -0.8531 0.0000
    outer loop
        vertex 2.3218 -0.1000 -0.9212
        vertex 1.9369 -0.1000 -1.1788
        vertex 2.0544 -0.1000 -1.4548
    endloop
endfacet
facet normal 0.0000 -0.5611 0.0000
    outer loop
        vertex 2.0544 -0.1000 -1.4548
        vertex 2.3744 -0.1000 -1.1520
        vertex 2.3218 -0.1000 -0.9212
    endloop
endfacet
facet normal 0.0000 -0.9860 0.0000
    outer loop
        vertex 1.8493 -0.1000 -0.0216
        vertex 1.8393 -0.1000 -0.3504
        vertex 2.3180 -0.1000 -0.3852
    endloop
endfacet
facet normal 0.0000 -0.5116 0.0000
    outer loop
        vertex 1.8801 -0.1000 0.2792
        vertex 2.3573 -0.1000 0.2100
        vertex 2.3844 -0.1000 0.3776
    endloop
endfacet
facet normal 0.0000 -0.8197 0.0000
    outer loop
        vertex 2.3844 -0.1000 0.3776
        vertex 1.9392 -0.1000 0.5508
        vertex 1.8801 -0.1000 0.2792
    endloop
endfacet
facet normal 0.0000 -1.0279 0.0000
    outer loop
        vertex -2.3319 -0.1000 0.5968
        vertex -1.8628 -0.1000 0.4928
        vertex -1.8439 -0.1000 0.8392
    endloop
endfacet
facet normal 0.0000 -0.8728 0.0000
    outer loop
        vertex -1.8439 -0.1000 0.8392
        vertex -2.3580 -0.1000 0.8700
        vertex -2.3319 -0.1000 0.5968
    endloop
endfacet
facet normal 0.0000 -0.4726 0.0000
    outer loop
        vertex 2.3049 -0.1000 -0.7360
        vertex 1.9369 -0.1000 -1.1788
        vertex 2.3218 -0.1000 -0.9212
    endloop
endfacet
facet normal 0.0000 -0.7063 0.0000
    outer loop
        vertex 2.3744 -0.1000 -1.1520
        vertex 2.0544 -0.1000 -1.4548
        vertex 2.2116 -0.1000 -1.6592
    endloop
endfacet
facet normal 0.0000 -0.7283 0.0000
    outer loop
        vertex 2.2116 -0.1000 -1.6592
        vertex 2.4009 -0.1000 -1.7852
        vertex 2.3744 -0.1000 -1.1520
    endloop
endfacet
facet normal 0.0000 -0.1903 0.0000
    outer loop
        vertex 2.3573 -0.1000 0.2100
        vertex 2.3180 -0.1000 -0.3852
        vertex 2.3811 -0.1000 -0.2044
    endloop
endfacet
facet normal 0.0000 -0.6933 0.0000
    outer loop
        vertex 1.9392 -0.1000 0.5508
        vertex 2.3844 -0.1000 0.3776
        vertex 2.4542 -0.1000 0.5996
    endloop
endfacet
facet normal 0.0000 -0.7514 0.0000
    outer loop
        vertex 2.4542 -0.1000 0.5996
        vertex 2.0425 -0.1000 0.7940
        vertex 1.9392 -0.1000 0.5508
    endloop
endfacet
facet normal 0.0000 -1.2406 0.0000
    outer loop
        vertex -1.9475 -0.1000 0.1456
        vertex -2.0758 -0.1000 -0.0712
        vertex -1.7882 -0.1000 -1.1316
    endloop
endfacet
facet normal 0.0000 -1.0216 0.0000
    outer loop
        vertex -1.8628 -0.1000 0.4928
        vertex -1.9475 -0.1000 0.1456
        vertex -1.7882 -0.1000 -1.1316
    endloop
endfacet
facet normal 0.0000 -0.4320 0.0000
    outer loop
        vertex -1.7882 -0.1000 -1.1316
        vertex -1.7420 -0.1000 -1.2116
        vertex -1.8628 -0.1000 0.4928
    endloop
endfacet
facet normal 0.0000 -0.7148 0.0000
    outer loop
        vertex 2.1690 -0.1000 1.0120
        vertex 2.0425 -0.1000 0.7940
        vertex 2.4542 -0.1000 0.5996
    endloop
endfacet
facet normal 0.0000 -0.7967 0.0000
    outer loop
        vertex 2.4542 -0.1000 0.5996
        vertex 2.5796 -0.1000 0.8652
        vertex 2.1690 -0.1000 1.0120
    endloop
endfacet
facet normal 0.0000 -0.1171 0.0000
    outer loop
        vertex -1.7420 -0.1000 -1.2116
        vertex -1.7882 -0.1000 -1.1316
        vertex -2.0148 -0.1000 -1.1448
    endloop
endfacet
facet normal 0.0000 -0.4841 0.0000
    outer loop
        vertex -2.0148 -0.1000 -1.1448
        vertex -1.7612 -0.1000 -1.4908
        vertex -1.7420 -0.1000 -1.2116
    endloop
endfacet
facet normal 0.0000 -0.6090 0.0000
    outer loop
        vertex 2.5796 -0.1000 0.8652
        vertex 2.4640 -0.1000 1.3800
        vertex 2.3136 -0.1000 1.2072
    endloop
endfacet
facet normal 0.0000 -0.6335 0.0000
    outer loop
        vertex 2.3136 -0.1000 1.2072
        vertex 2.1690 -0.1000 1.0120
        vertex 2.5796 -0.1000 0.8652
    endloop
endfacet
facet normal 0.0000 -0.4628 0.0000
    outer loop
        vertex -1.8439 -0.1000 0.8392
        vertex -1.8628 -0.1000 0.4928
        vertex -1.7420 -0.1000 -1.2116
    endloop
endfacet
facet normal 0.0000 -4.4117 0.0000
    outer loop
        vertex -1.7420 -0.1000 -1.2116
        vertex -1.4854 -0.1000 0.5516
        vertex -1.8439 -0.1000 0.8392
    endloop
endfacet
facet normal 0.0000 -0.0896 0.0000
    outer loop
        vertex -1.7612 -0.1000 -1.4908
        vertex -1.8082 -0.1000 -1.7868
        vertex -1.7460 -0.1000 -1.7000
    endloop
endfacet
facet normal 0.0000 -0.0517 0.0000
    outer loop
        vertex -1.7420 -0.1000 -1.2116
        vertex -1.7612 -0.1000 -1.4908
        vertex -1.7460 -0.1000 -1.7000
    endloop
endfacet
facet normal 0.0000 -0.5390 0.0000
    outer loop
        vertex -1.7460 -0.1000 -1.7000
        vertex -1.5678 -0.1000 -1.5040
        vertex -1.7420 -0.1000 -1.2116
    endloop
endfacet
facet normal 0.0000 -0.0760 0.0000
    outer loop
        vertex 2.3844 -0.1000 0.3776
        vertex 2.3573 -0.1000 0.2100
        vertex 2.4469 -0.1000 0.3160
    endloop
endfacet
facet normal 0.0000 -0.1137 0.0000
    outer loop
        vertex 2.4469 -0.1000 0.3160
        vertex 2.4542 -0.1000 0.5996
        vertex 2.3844 -0.1000 0.3776
    endloop
endfacet
facet normal 0.0000 -0.2790 0.0000
    outer loop
        vertex 2.3573 -0.1000 0.2100
        vertex 2.3811 -0.1000 -0.2044
        vertex 2.4828 -0.1000 -0.1000
    endloop
endfacet
facet normal 0.0000 -0.2569 0.0000
    outer loop
        vertex 2.4828 -0.1000 -0.1000
        vertex 2.4469 -0.1000 0.3160
        vertex 2.3573 -0.1000 0.2100
    endloop
endfacet
facet normal 0.0000 -0.0738 0.0000
    outer loop
        vertex 2.4828 -0.1000 -0.1000
        vertex 2.3811 -0.1000 -0.2044
        vertex 2.3180 -0.1000 -0.3852
    endloop
endfacet
facet normal 0.0000 -0.2100 0.0000
    outer loop
        vertex 2.3180 -0.1000 -0.3852
        vertex 2.6207 -0.1000 -0.0652
        vertex 2.4828 -0.1000 -0.1000
    endloop
endfacet
facet normal 0.0000 -0.3008 0.0000
    outer loop
        vertex 2.6160 -0.1000 -1.4268
        vertex 2.5103 -0.1000 -1.3792
        vertex 2.4009 -0.1000 -1.7852
    endloop
endfacet
facet normal 0.0000 -0.5347 0.0000
    outer loop
        vertex 2.4009 -0.1000 -1.7852
        vertex 2.6145 -0.1000 -1.8272
        vertex 2.6160 -0.1000 -1.4268
    endloop
endfacet
facet normal 0.0000 -0.3204 0.0000
    outer loop
        vertex 2.5530 -0.1000 0.4000
        vertex 2.5796 -0.1000 0.8652
        vertex 2.4542 -0.1000 0.5996
    endloop
endfacet
facet normal 0.0000 -0.1842 0.0000
    outer loop
        vertex 2.4542 -0.1000 0.5996
        vertex 2.4469 -0.1000 0.3160
        vertex 2.5530 -0.1000 0.4000
    endloop
endfacet
facet normal 0.0000 -0.5001 0.0000
    outer loop
        vertex 2.3744 -0.1000 -1.1520
        vertex 2.4009 -0.1000 -1.7852
        vertex 2.5103 -0.1000 -1.3792
    endloop
endfacet
facet normal 0.0000 -0.5680 0.0000
    outer loop
        vertex 2.4640 -0.1000 1.3800
        vertex 2.5796 -0.1000 0.8652
        vertex 2.7138 -0.1000 1.0540
    endloop
endfacet
facet normal 0.0000 -0.5535 0.0000
    outer loop
        vertex 2.7138 -0.1000 1.0540
        vertex 2.6205 -0.1000 1.5304
        vertex 2.4640 -0.1000 1.3800
    endloop
endfacet
facet normal 0.0000 -0.3664 0.0000
    outer loop
        vertex 2.4469 -0.1000 0.3160
        vertex 2.4828 -0.1000 -0.1000
        vertex 2.6207 -0.1000 -0.0652
    endloop
endfacet
facet normal 0.0000 -0.3440 0.0000
    outer loop
        vertex 2.6207 -0.1000 -0.0652
        vertex 2.5530 -0.1000 0.4000
        vertex 2.4469 -0.1000 0.3160
    endloop
endfacet
facet normal 0.0000 -0.4351 0.0000
    outer loop
        vertex 2.6937 -0.1000 0.4616
        vertex 2.5530 -0.1000 0.4000
        vertex 2.6207 -0.1000 -0.0652
    endloop
endfacet
facet normal 0.0000 -0.4849 0.0000
    outer loop
        vertex 2.6207 -0.1000 -0.0652
        vertex 2.7619 -0.1000 -0.1092
        vertex 2.6937 -0.1000 0.4616
    endloop
endfacet
facet normal 0.0000 -0.3988 0.0000
    outer loop
        vertex 2.5796 -0.1000 0.8652
        vertex 2.5530 -0.1000 0.4000
        vertex 2.6937 -0.1000 0.4616
    endloop
endfacet
facet normal 0.0000 -0.4729 0.0000
    outer loop
        vertex 2.6937 -0.1000 0.4616
        vertex 2.7138 -0.1000 1.0540
        vertex 2.5796 -0.1000 0.8652
    endloop
endfacet
facet normal 0.0000 -0.4911 0.0000
    outer loop
        vertex 2.8364 -0.1000 1.1964
        vertex 2.7769 -0.1000 1.6524
        vertex 2.6205 -0.1000 1.5304
    endloop
endfacet
facet normal 0.0000 -0.4480 0.0000
    outer loop
        vertex 2.6205 -0.1000 1.5304
        vertex 2.7138 -0.1000 1.0540
        vertex 2.8364 -0.1000 1.1964
    endloop
endfacet
facet normal 0.0000 -0.5859 0.0000
    outer loop
        vertex 2.6160 -0.1000 -1.4268
        vertex 2.6145 -0.1000 -1.8272
        vertex 2.8488 -0.1000 -1.7740
    endloop
endfacet
facet normal 0.0000 -0.4126 0.0000
    outer loop
        vertex 2.8488 -0.1000 -1.7740
        vertex 2.7812 -0.1000 -1.3896
        vertex 2.6160 -0.1000 -1.4268
    endloop
endfacet
facet normal 0.0000 -0.7635 0.0000
    outer loop
        vertex 2.7138 -0.1000 1.0540
        vertex 2.6937 -0.1000 0.4616
        vertex 2.8992 -0.1000 0.4404
    endloop
endfacet
facet normal 0.0000 -0.6351 0.0000
    outer loop
        vertex 2.8992 -0.1000 0.4404
        vertex 2.8364 -0.1000 1.1964
        vertex 2.7138 -0.1000 1.0540
    endloop
endfacet
facet normal 0.0000 -0.7241 0.0000
    outer loop
        vertex 2.8992 -0.1000 0.4404
        vertex 2.6937 -0.1000 0.4616
        vertex 2.7619 -0.1000 -0.1092
    endloop
endfacet
facet normal 0.0000 -0.4770 0.0000
    outer loop
        vertex 2.7619 -0.1000 -0.1092
        vertex 2.8680 -0.1000 -0.2404
        vertex 2.8992 -0.1000 0.4404
    endloop
endfacet
facet normal 0.0000 -0.4954 0.0000
    outer loop
        vertex 2.9393 -0.1000 1.7400
        vertex 2.7769 -0.1000 1.6524
        vertex 2.8364 -0.1000 1.1964
    endloop
endfacet
facet normal 0.0000 -0.4368 0.0000
    outer loop
        vertex 2.8364 -0.1000 1.1964
        vertex 2.9878 -0.1000 1.3172
        vertex 2.9393 -0.1000 1.7400
    endloop
endfacet
facet normal 0.0000 -0.6298 0.0000
    outer loop
        vertex 2.8816 -0.1000 -1.2584
        vertex 2.3744 -0.1000 -1.1520
        vertex 2.5103 -0.1000 -1.3792
    endloop
endfacet
facet normal 0.0000 -0.1903 0.0000
    outer loop
        vertex 2.5103 -0.1000 -1.3792
        vertex 2.6160 -0.1000 -1.4268
        vertex 2.8816 -0.1000 -1.2584
    endloop
endfacet
facet normal 0.0000 -0.1121 0.0000
    outer loop
        vertex 2.8816 -0.1000 -1.2584
        vertex 2.6160 -0.1000 -1.4268
        vertex 2.7812 -0.1000 -1.3896
    endloop
endfacet
facet normal 0.0000 -0.8260 0.0000
    outer loop
        vertex 2.6207 -0.1000 -0.0652
        vertex 2.3180 -0.1000 -0.3852
        vertex 2.8680 -0.1000 -0.2404
    endloop
endfacet
facet normal 0.0000 -0.0866 0.0000
    outer loop
        vertex 2.8680 -0.1000 -0.2404
        vertex 2.7619 -0.1000 -0.1092
        vertex 2.6207 -0.1000 -0.0652
    endloop
endfacet
facet normal 0.0000 -0.9329 0.0000
    outer loop
        vertex 2.9553 -0.1000 -0.4888
        vertex 2.8680 -0.1000 -0.2404
        vertex 2.3180 -0.1000 -0.3852
    endloop
endfacet
facet normal 0.0000 -0.7768 0.0000
    outer loop
        vertex 2.3180 -0.1000 -0.3852
        vertex 2.2970 -0.1000 -0.5768
        vertex 2.9553 -0.1000 -0.4888
    endloop
endfacet
facet normal 0.0000 -0.2966 0.0000
    outer loop
        vertex 2.8816 -0.1000 -1.2584
        vertex 2.7812 -0.1000 -1.3896
        vertex 2.8488 -0.1000 -1.7740
    endloop
endfacet
facet normal 0.0000 -0.6224 0.0000
    outer loop
        vertex 2.8488 -0.1000 -1.7740
        vertex 3.0508 -0.1000 -1.6356
        vertex 2.8816 -0.1000 -1.2584
    endloop
endfacet
facet normal 0.0000 -0.7509 0.0000
    outer loop
        vertex 2.3744 -0.1000 -1.1520
        vertex 2.8816 -0.1000 -1.2584
        vertex 2.9468 -0.1000 -1.0352
    endloop
endfacet
facet normal 0.0000 -0.8642 0.0000
    outer loop
        vertex 2.9468 -0.1000 -1.0352
        vertex 2.3218 -0.1000 -0.9212
        vertex 2.3744 -0.1000 -1.1520
    endloop
endfacet
facet normal 0.0000 -0.7630 0.0000
    outer loop
        vertex 2.9878 -0.1000 1.3172
        vertex 2.8364 -0.1000 1.1964
        vertex 2.8992 -0.1000 0.4404
    endloop
endfacet
facet normal 0.0000 -0.8101 0.0000
    outer loop
        vertex 2.8992 -0.1000 0.4404
        vertex 3.1405 -0.1000 1.3656
        vertex 2.9878 -0.1000 1.3172
    endloop
endfacet
facet normal 0.0000 -0.6593 0.0000
    outer loop
        vertex 2.9553 -0.1000 -0.4888
        vertex 2.2970 -0.1000 -0.5768
        vertex 2.3049 -0.1000 -0.7360
    endloop
endfacet
facet normal 0.0000 -1.0407 0.0000
    outer loop
        vertex 2.3049 -0.1000 -0.7360
        vertex 2.9806 -0.1000 -0.7352
        vertex 2.9553 -0.1000 -0.4888
    endloop
endfacet
facet normal 0.0000 -1.1960 0.0000
    outer loop
        vertex 2.3218 -0.1000 -0.9212
        vertex 2.9468 -0.1000 -1.0352
        vertex 2.9806 -0.1000 -0.7352
    endloop
endfacet
facet normal 0.0000 -0.7822 0.0000
    outer loop
        vertex 2.9806 -0.1000 -0.7352
        vertex 2.3049 -0.1000 -0.7360
        vertex 2.3218 -0.1000 -0.9212
    endloop
endfacet
facet normal 0.0000 -0.4605 0.0000
    outer loop
        vertex 3.1074 -0.1000 1.7936
        vertex 2.9393 -0.1000 1.7400
        vertex 2.9878 -0.1000 1.3172
    endloop
endfacet
facet normal 0.0000 -0.4186 0.0000
    outer loop
        vertex 2.9878 -0.1000 1.3172
        vertex 3.1405 -0.1000 1.3656
        vertex 3.1074 -0.1000 1.7936
    endloop
endfacet
facet normal 0.0000 -0.3864 0.0000
    outer loop
        vertex 3.2614 -0.1000 1.6692
        vertex 3.1074 -0.1000 1.7936
        vertex 3.1405 -0.1000 1.3656
    endloop
endfacet
facet normal 0.0000 -0.1370 0.0000
    outer loop
        vertex 3.1405 -0.1000 1.3656
        vertex 3.2291 -0.1000 1.4068
        vertex 3.2614 -0.1000 1.6692
    endloop
endfacet
facet normal 0.0000 -0.7139 0.0000
    outer loop
        vertex 3.0644 -0.1000 0.3832
        vertex 2.8992 -0.1000 0.4404
        vertex 2.8680 -0.1000 -0.2404
    endloop
endfacet
facet normal 0.0000 -0.7001 0.0000
    outer loop
        vertex 2.8680 -0.1000 -0.2404
        vertex 3.2004 -0.1000 0.2448
        vertex 3.0644 -0.1000 0.3832
    endloop
endfacet
facet normal 0.0000 -0.5165 0.0000
    outer loop
        vertex 3.2144 -0.1000 -1.3864
        vertex 2.9468 -0.1000 -1.0352
        vertex 2.8816 -0.1000 -1.2584
    endloop
endfacet
facet normal 0.0000 -0.6493 0.0000
    outer loop
        vertex 2.8816 -0.1000 -1.2584
        vertex 3.0508 -0.1000 -1.6356
        vertex 3.2144 -0.1000 -1.3864
    endloop
endfacet
facet normal 0.0000 -1.1155 0.0000
    outer loop
        vertex 2.8992 -0.1000 0.4404
        vertex 3.0644 -0.1000 0.3832
        vertex 3.2291 -0.1000 1.4068
    endloop
endfacet
facet normal 0.0000 -0.4501 0.0000
    outer loop
        vertex 3.2291 -0.1000 1.4068
        vertex 3.1405 -0.1000 1.3656
        vertex 2.8992 -0.1000 0.4404
    endloop
endfacet
facet normal 0.0000 -1.0129 0.0000
    outer loop
        vertex 3.2291 -0.1000 1.4068
        vertex 3.0644 -0.1000 0.3832
        vertex 3.2004 -0.1000 0.2448
    endloop
endfacet
facet normal 0.0000 -0.3830 0.0000
    outer loop
        vertex 3.2004 -0.1000 0.2448
        vertex 3.2840 -0.1000 1.4964
        vertex 3.2291 -0.1000 1.4068
    endloop
endfacet
facet normal 0.0000 -0.0720 0.0000
    outer loop
        vertex 3.2614 -0.1000 1.6692
        vertex 3.2291 -0.1000 1.4068
        vertex 3.2840 -0.1000 1.4964
    endloop
endfacet
facet normal 0.0000 -0.7445 0.0000
    outer loop
        vertex 3.3092 -0.1000 0.0452
        vertex 3.2004 -0.1000 0.2448
        vertex 2.8680 -0.1000 -0.2404
    endloop
endfacet
facet normal 0.0000 -0.5525 0.0000
    outer loop
        vertex 2.8680 -0.1000 -0.2404
        vertex 3.3573 -0.1000 -0.1240
        vertex 3.3092 -0.1000 0.0452
    endloop
endfacet
facet normal 0.0000 -0.8232 0.0000
    outer loop
        vertex 3.3573 -0.1000 -0.1240
        vertex 2.8680 -0.1000 -0.2404
        vertex 2.9553 -0.1000 -0.4888
    endloop
endfacet
facet normal 0.0000 -0.5548 0.0000
    outer loop
        vertex 2.9553 -0.1000 -0.4888
        vertex 3.3864 -0.1000 -0.3184
        vertex 3.3573 -0.1000 -0.1240
    endloop
endfacet
facet normal 0.0000 -0.6467 0.0000
    outer loop
        vertex 3.3380 -0.1000 -1.0632
        vertex 3.3815 -0.1000 -0.8136
        vertex 2.9806 -0.1000 -0.7352
    endloop
endfacet
facet normal 0.0000 -0.7393 0.0000
    outer loop
        vertex 2.9806 -0.1000 -0.7352
        vertex 2.9468 -0.1000 -1.0352
        vertex 3.3380 -0.1000 -1.0632
    endloop
endfacet
facet normal 0.0000 -0.8117 0.0000
    outer loop
        vertex 2.9468 -0.1000 -1.0352
        vertex 3.2144 -0.1000 -1.3864
        vertex 3.3380 -0.1000 -1.0632
    endloop
endfacet
facet normal 0.0000 -0.6050 0.0000
    outer loop
        vertex 3.3959 -0.1000 -0.5392
        vertex 3.3864 -0.1000 -0.3184
        vertex 2.9553 -0.1000 -0.4888
    endloop
endfacet
facet normal 0.0000 -0.6706 0.0000
    outer loop
        vertex 2.9553 -0.1000 -0.4888
        vertex 2.9806 -0.1000 -0.7352
        vertex 3.3959 -0.1000 -0.5392
    endloop
endfacet
facet normal 0.0000 -0.6946 0.0000
    outer loop
        vertex 3.3959 -0.1000 -0.5392
        vertex 2.9806 -0.1000 -0.7352
        vertex 3.3815 -0.1000 -0.8136
    endloop
endfacet
facet normal 0.0000 -0.4762 0.0000
    outer loop
        vertex 0.3052 -0.1000 -0.7792
        vertex 0.1201 -0.1000 -0.9088
        vertex 0.1754 -0.1000 -1.2816
    endloop
endfacet
facet normal 0.0000 -0.6727 0.0000
    outer loop
        vertex 0.3114 -0.1000 -0.1936
        vertex 0.1201 -0.1000 -0.9088
        vertex 0.3052 -0.1000 -0.7792
    endloop
endfacet
facet normal 0.0000 -0.3015 0.0000
    outer loop
        vertex 0.1201 -0.1000 -0.9088
        vertex 0.3114 -0.1000 -0.1936
        vertex 0.3208 -0.1000 0.0936
    endloop
endfacet
facet normal 0.0000 -3.1698 0.0000
    outer loop
        vertex 0.3208 -0.1000 0.0936
        vertex -0.0359 -0.1000 0.8392
        vertex 0.1201 -0.1000 -0.9088
    endloop
endfacet
facet normal 0.0000 -2.5395 0.0000
    outer loop
        vertex -1.4854 -0.1000 0.5516
        vertex -1.5678 -0.1000 -1.5040
        vertex -1.3581 -0.1000 -1.2036
    endloop
endfacet
facet normal 0.0000 -3.3914 0.0000
    outer loop
        vertex -1.3581 -0.1000 -1.2036
        vertex -1.0790 -0.1000 -0.7888
        vertex -1.4854 -0.1000 0.5516
    endloop
endfacet
facet normal 0.0000 -0.4820 0.0000
    outer loop
        vertex -1.2496 -0.1000 0.8388
        vertex -1.4668 -0.1000 0.9012
        vertex -1.4854 -0.1000 0.5516
    endloop
endfacet
facet normal 0.0000 -0.3345 0.0000
    outer loop
        vertex -1.4854 -0.1000 0.5516
        vertex -1.2991 -0.1000 0.5516
        vertex -1.2496 -0.1000 0.8388
    endloop
endfacet
facet normal 0.0000 -0.6475 0.0000
    outer loop
        vertex -1.4472 -0.1000 1.3724
        vertex -1.4668 -0.1000 0.9012
        vertex -1.2496 -0.1000 0.8388
    endloop
endfacet
facet normal 0.0000 -0.3110 0.0000
    outer loop
        vertex -1.2496 -0.1000 0.8388
        vertex -1.2000 -0.1000 0.9568
        vertex -1.4472 -0.1000 1.3724
    endloop
endfacet
facet normal 0.0000 -0.6312 0.0000
    outer loop
        vertex -1.5678 -0.1000 -1.5040
        vertex -1.5678 -0.1000 -1.7868
        vertex -1.2107 -0.1000 -1.7756
    endloop
endfacet
facet normal 0.0000 -1.0265 0.0000
    outer loop
        vertex -1.2107 -0.1000 -1.7756
        vertex -1.3581 -0.1000 -1.2036
        vertex -1.5678 -0.1000 -1.5040
    endloop
endfacet
facet normal 0.0000 -0.6566 0.0000
    outer loop
        vertex -1.4472 -0.1000 1.3724
        vertex -1.2000 -0.1000 0.9568
        vertex -1.0424 -0.1000 1.1168
    endloop
endfacet
facet normal 0.0000 -0.8749 0.0000
    outer loop
        vertex -1.0424 -0.1000 1.1168
        vertex -1.2765 -0.1000 1.6104
        vertex -1.4472 -0.1000 1.3724
    endloop
endfacet
facet normal 0.0000 -0.0667 0.0000
    outer loop
        vertex -1.0424 -0.1000 1.1168
        vertex -1.2000 -0.1000 0.9568
        vertex -1.2496 -0.1000 0.8388
    endloop
endfacet
facet normal 0.0000 -0.2403 0.0000
    outer loop
        vertex -1.2496 -0.1000 0.8388
        vertex -0.8645 -0.1000 1.1700
        vertex -1.0424 -0.1000 1.1168
    endloop
endfacet
facet normal 0.0000 -0.8642 0.0000
    outer loop
        vertex -0.9992 -0.1000 -1.1656
        vertex -1.0790 -0.1000 -0.7888
        vertex -1.3581 -0.1000 -1.2036
    endloop
endfacet
facet normal 0.0000 -1.3181 0.0000
    outer loop
        vertex -1.3581 -0.1000 -1.2036
        vertex -1.2107 -0.1000 -1.7756
        vertex -0.9992 -0.1000 -1.1656
    endloop
endfacet
facet normal 0.0000 -1.8408 0.0000
    outer loop
        vertex -0.9992 -0.1000 -1.1656
        vertex -1.2107 -0.1000 -1.7756
        vertex -0.7224 -0.1000 -1.7600
    endloop
endfacet
facet normal 0.0000 -0.4750 0.0000
    outer loop
        vertex -0.7224 -0.1000 -1.7600
        vertex -0.8704 -0.1000 -1.1676
        vertex -0.9992 -0.1000 -1.1656
    endloop
endfacet
facet normal 0.0000 -1.5610 0.0000
    outer loop
        vertex -1.2991 -0.1000 0.5516
        vertex -1.4854 -0.1000 0.5516
        vertex -1.0790 -0.1000 -0.7888
    endloop
endfacet
facet normal 0.0000 -2.3529 0.0000
    outer loop
        vertex -1.0790 -0.1000 -0.7888
        vertex -0.8549 -0.1000 -0.4432
        vertex -1.2991 -0.1000 0.5516
    endloop
endfacet
facet normal 0.0000 -0.6259 0.0000
    outer loop
        vertex -1.1283 -0.1000 1.7256
        vertex -1.2765 -0.1000 1.6104
        vertex -1.0424 -0.1000 1.1168
    endloop
endfacet
facet normal 0.0000 -0.6531 0.0000
    outer loop
        vertex -1.0424 -0.1000 1.1168
        vertex -0.9659 -0.1000 1.7912
        vertex -1.1283 -0.1000 1.7256
    endloop
endfacet
facet normal 0.0000 -0.7245 0.0000
    outer loop
        vertex -0.9659 -0.1000 1.7912
        vertex -1.0424 -0.1000 1.1168
        vertex -0.8645 -0.1000 1.1700
    endloop
endfacet
facet normal 0.0000 -0.7225 0.0000
    outer loop
        vertex -0.8645 -0.1000 1.1700
        vertex -0.7834 -0.1000 1.8132
        vertex -0.9659 -0.1000 1.7912
    endloop
endfacet
facet normal 0.0000 -0.6618 0.0000
    outer loop
        vertex -1.0790 -0.1000 -0.7888
        vertex -0.9992 -0.1000 -1.1656
        vertex -0.7871 -0.1000 -0.8404
    endloop
endfacet
facet normal 0.0000 -0.2644 0.0000
    outer loop
        vertex -0.7871 -0.1000 -0.8404
        vertex -0.9992 -0.1000 -1.1656
        vertex -0.8704 -0.1000 -1.1676
    endloop
endfacet
facet normal 0.0000 -0.5572 0.0000
    outer loop
        vertex -0.8704 -0.1000 -1.1676
        vertex -0.5972 -0.1000 -1.1648
        vertex -0.7871 -0.1000 -0.8404
    endloop
endfacet
facet normal 0.0000 -0.7724 0.0000
    outer loop
        vertex -0.4672 -0.1000 -0.3968
        vertex -0.8549 -0.1000 -0.4432
        vertex -1.0790 -0.1000 -0.7888
    endloop
endfacet
facet normal 0.0000 -0.9126 0.0000
    outer loop
        vertex -1.0790 -0.1000 -0.7888
        vertex -0.7871 -0.1000 -0.8404
        vertex -0.4672 -0.1000 -0.3968
    endloop
endfacet
facet normal 0.0000 -2.3938 0.0000
    outer loop
        vertex -1.2991 -0.1000 0.5516
        vertex -0.8549 -0.1000 -0.4432
        vertex -0.6506 -0.1000 -0.0384
    endloop
endfacet
facet normal 0.0000 -1.6615 0.0000
    outer loop
        vertex -0.6506 -0.1000 -0.0384
        vertex -0.5557 -0.1000 0.2852
        vertex -1.2991 -0.1000 0.5516
    endloop
endfacet
facet normal 0.0000 -0.4974 0.0000
    outer loop
        vertex -0.7834 -0.1000 1.8132
        vertex -0.8645 -0.1000 1.1700
        vertex -0.7459 -0.1000 1.1292
    endloop
endfacet
facet normal 0.0000 -0.9825 0.0000
    outer loop
        vertex -0.7459 -0.1000 1.1292
        vertex -0.5512 -0.1000 1.7704
        vertex -0.7834 -0.1000 1.8132
    endloop
endfacet
facet normal 0.0000 -1.1750 0.0000
    outer loop
        vertex -0.4672 -0.1000 -0.3968
        vertex -0.7871 -0.1000 -0.8404
        vertex -0.5972 -0.1000 -1.1648
    endloop
endfacet
facet normal 0.0000 -1.8577 0.0000
    outer loop
        vertex -0.5972 -0.1000 -1.1648
        vertex -0.2068 -0.1000 -1.1448
        vertex -0.4672 -0.1000 -0.3968
    endloop
endfacet
facet normal 0.0000 -1.0141 0.0000
    outer loop
        vertex -0.5972 -0.1000 -1.1648
        vertex -0.8704 -0.1000 -1.1676
        vertex -0.7224 -0.1000 -1.7600
    endloop
endfacet
facet normal 0.0000 -2.7076 0.0000
    outer loop
        vertex -0.7224 -0.1000 -1.7600
        vertex -0.0002 -0.1000 -1.7868
        vertex -0.5972 -0.1000 -1.1648
    endloop
endfacet
facet normal 0.0000 -0.9216 0.0000
    outer loop
        vertex -0.6506 -0.1000 -0.0384
        vertex -0.8549 -0.1000 -0.4432
        vertex -0.4672 -0.1000 -0.3968
    endloop
endfacet
facet normal 0.0000 -0.8198 0.0000
    outer loop
        vertex -0.4672 -0.1000 -0.3968
        vertex -0.2678 -0.1000 -0.0712
        vertex -0.6506 -0.1000 -0.0384
    endloop
endfacet
facet normal 0.0000 -0.1421 0.0000
    outer loop
        vertex -0.7459 -0.1000 1.1292
        vertex -0.8645 -0.1000 1.1700
        vertex -0.5500 -0.1000 0.8700
    endloop
endfacet
facet normal 0.0000 -0.0470 0.0000
    outer loop
        vertex -0.5500 -0.1000 0.8700
        vertex -0.6238 -0.1000 1.0060
        vertex -0.7459 -0.1000 1.1292
    endloop
endfacet
facet normal 0.0000 -0.4880 0.0000
    outer loop
        vertex -0.5239 -0.1000 0.5968
        vertex -0.5500 -0.1000 0.8700
        vertex -0.8645 -0.1000 1.1700
    endloop
endfacet
facet normal 0.0000 -2.0846 0.0000
    outer loop
        vertex -0.8645 -0.1000 1.1700
        vertex -1.2496 -0.1000 0.8388
        vertex -0.5239 -0.1000 0.5968
    endloop
endfacet
facet normal 0.0000 -1.5007 0.0000
    outer loop
        vertex -1.2991 -0.1000 0.5516
        vertex -0.5557 -0.1000 0.2852
        vertex -0.5239 -0.1000 0.5968
    endloop
endfacet
facet normal 0.0000 -1.3775 0.0000
    outer loop
        vertex -0.5239 -0.1000 0.5968
        vertex -1.2496 -0.1000 0.8388
        vertex -1.2991 -0.1000 0.5516
    endloop
endfacet
facet normal 0.0000 -1.5923 0.0000
    outer loop
        vertex -0.2068 -0.1000 -1.1448
        vertex -0.5972 -0.1000 -1.1648
        vertex -0.0002 -0.1000 -1.7868
    endloop
endfacet
facet normal 0.0000 -0.5708 0.0000
    outer loop
        vertex -0.0002 -0.1000 -1.7868
        vertex 0.0468 -0.1000 -1.4908
        vertex -0.2068 -0.1000 -1.1448
    endloop
endfacet
facet normal 0.0000 -0.6394 0.0000
    outer loop
        vertex -0.5512 -0.1000 1.7704
        vertex -0.7459 -0.1000 1.1292
        vertex -0.6238 -0.1000 1.0060
    endloop
endfacet
facet normal 0.0000 -1.2770 0.0000
    outer loop
        vertex -0.6238 -0.1000 1.0060
        vertex -0.3000 -0.1000 1.6008
        vertex -0.5512 -0.1000 1.7704
    endloop
endfacet
facet normal 0.0000 -0.7936 0.0000
    outer loop
        vertex -0.5557 -0.1000 0.2852
        vertex -0.6506 -0.1000 -0.0384
        vertex -0.2678 -0.1000 -0.0712
    endloop
endfacet
facet normal 0.0000 -0.6760 0.0000
    outer loop
        vertex -0.2678 -0.1000 -0.0712
        vertex -0.1395 -0.1000 0.1456
        vertex -0.5557 -0.1000 0.2852
    endloop
endfacet
facet normal 0.0000 -1.4619 0.0000
    outer loop
        vertex -0.2678 -0.1000 -0.0712
        vertex -0.4672 -0.1000 -0.3968
        vertex -0.2068 -0.1000 -1.1448
    endloop
endfacet
facet normal 0.0000 -1.5255 0.0000
    outer loop
        vertex -0.2068 -0.1000 -1.1448
        vertex 0.0198 -0.1000 -1.1316
        vertex -0.2678 -0.1000 -0.0712
    endloop
endfacet
facet normal 0.0000 -0.8384 0.0000
    outer loop
        vertex -0.5239 -0.1000 0.5968
        vertex -0.5557 -0.1000 0.2852
        vertex -0.1395 -0.1000 0.1456
    endloop
endfacet
facet normal 0.0000 -1.0730 0.0000
    outer loop
        vertex -0.1395 -0.1000 0.1456
        vertex -0.0548 -0.1000 0.4928
        vertex -0.5239 -0.1000 0.5968
    endloop
endfacet
facet normal 0.0000 -0.9380 0.0000
    outer loop
        vertex -0.1594 -0.1000 1.3956
        vertex -0.3000 -0.1000 1.6008
        vertex -0.6238 -0.1000 1.0060
    endloop
endfacet
facet normal 0.0000 -0.5744 0.0000
    outer loop
        vertex -0.6238 -0.1000 1.0060
        vertex -0.5500 -0.1000 0.8700
        vertex -0.1594 -0.1000 1.3956
    endloop
endfacet
facet normal 0.0000 -0.8969 0.0000
    outer loop
        vertex -0.0784 -0.1000 1.1372
        vertex -0.1594 -0.1000 1.3956
        vertex -0.5500 -0.1000 0.8700
    endloop
endfacet
facet normal 0.0000 -0.9493 0.0000
    outer loop
        vertex -0.5500 -0.1000 0.8700
        vertex -0.0359 -0.1000 0.8392
        vertex -0.0784 -0.1000 1.1372
    endloop
endfacet
facet normal 0.0000 -1.0279 0.0000
    outer loop
        vertex -0.5239 -0.1000 0.5968
        vertex -0.0548 -0.1000 0.4928
        vertex -0.0359 -0.1000 0.8392
    endloop
endfacet
facet normal 0.0000 -0.8728 0.0000
    outer loop
        vertex -0.0359 -0.1000 0.8392
        vertex -0.5500 -0.1000 0.8700
        vertex -0.5239 -0.1000 0.5968
    endloop
endfacet
facet normal 0.0000 -1.2406 0.0000
    outer loop
        vertex -0.1395 -0.1000 0.1456
        vertex -0.2678 -0.1000 -0.0712
        vertex 0.0198 -0.1000 -1.1316
    endloop
endfacet
facet normal 0.0000 -1.0216 0.0000
    outer loop
        vertex -0.0548 -0.1000 0.4928
        vertex -0.1395 -0.1000 0.1456
        vertex 0.0198 -0.1000 -1.1316
    endloop
endfacet
facet normal 0.0000 -0.4320 0.0000
    outer loop
        vertex 0.0198 -0.1000 -1.1316
        vertex 0.0660 -0.1000 -1.2116
        vertex -0.0548 -0.1000 0.4928
    endloop
endfacet
facet normal 0.0000 -0.1171 0.0000
    outer loop
        vertex 0.0660 -0.1000 -1.2116
        vertex 0.0198 -0.1000 -1.1316
        vertex -0.2068 -0.1000 -1.1448
    endloop
endfacet
facet normal 0.0000 -0.4841 0.0000
    outer loop
        vertex -0.2068 -0.1000 -1.1448
        vertex 0.0468 -0.1000 -1.4908
        vertex 0.0660 -0.1000 -1.2116
    endloop
endfacet
facet normal 0.0000 -0.4628 0.0000
    outer loop
        vertex -0.0359 -0.1000 0.8392
        vertex -0.0548 -0.1000 0.4928
        vertex 0.0660 -0.1000 -1.2116
    endloop
endfacet
facet normal 0.0000 -0.8860 0.0000
    outer loop
        vertex 0.0660 -0.1000 -1.2116
        vertex 0.1201 -0.1000 -0.9088
        vertex -0.0359 -0.1000 0.8392
    endloop
endfacet
facet normal 0.0000 -0.0896 0.0000
    outer loop
        vertex 0.0468 -0.1000 -1.4908
        vertex -0.0002 -0.1000 -1.7868
        vertex 0.0620 -0.1000 -1.7000
    endloop
endfacet
facet normal 0.0000 -0.0517 0.0000
    outer loop
        vertex 0.0660 -0.1000 -1.2116
        vertex 0.0468 -0.1000 -1.4908
        vertex 0.0620 -0.1000 -1.7000
    endloop
endfacet
facet normal 0.0000 -0.5471 0.0000
    outer loop
        vertex 0.0620 -0.1000 -1.7000
        vertex 0.2412 -0.1000 -1.7016
        vertex 0.0660 -0.1000 -1.2116
    endloop
endfacet
facet normal 0.0000 -0.3149 0.0000
    outer loop
        vertex -1.5678 -0.1000 -1.7868
        vertex -1.5678 -0.1000 -1.5040
        vertex -1.7460 -0.1000 -1.7000
    endloop
endfacet
facet normal 0.0000 -0.1304 0.0000
    outer loop
        vertex -1.7460 -0.1000 -1.7000
        vertex -1.8082 -0.1000 -1.7868
        vertex -1.5678 -0.1000 -1.7868
    endloop
endfacet
facet normal 0.0000 -2.3883 0.0000
    outer loop
        vertex -1.4854 -0.1000 0.5516
        vertex -1.7420 -0.1000 -1.2116
        vertex -1.5678 -0.1000 -1.5040
    endloop
endfacet
facet normal 0.0000 -0.8167 0.0000
    outer loop
        vertex -1.8439 -0.1000 0.8392
        vertex -1.4854 -0.1000 0.5516
        vertex -1.4668 -0.1000 0.9012
    endloop
endfacet
facet normal 0.0000 -0.7187 0.0000
    outer loop
        vertex -1.4668 -0.1000 0.9012
        vertex -1.8864 -0.1000 1.1372
        vertex -1.8439 -0.1000 0.8392
    endloop
endfacet
facet normal 0.0000 -1.2646 0.0000
    outer loop
        vertex -1.8864 -0.1000 1.1372
        vertex -1.4668 -0.1000 0.9012
        vertex -1.4472 -0.1000 1.3724
    endloop
endfacet
facet normal 0.0000 -0.8283 0.0000
    outer loop
        vertex -1.4472 -0.1000 1.3724
        vertex -1.9674 -0.1000 1.3956
        vertex -1.8864 -0.1000 1.1372
    endloop
endfacet
facet normal 0.0000 -0.7985 0.0000
    outer loop
        vertex -1.9674 -0.1000 1.3956
        vertex -1.4472 -0.1000 1.3724
        vertex -1.2765 -0.1000 1.6104
    endloop
endfacet
facet normal 0.0000 -1.0748 0.0000
    outer loop
        vertex -1.2765 -0.1000 1.6104
        vertex -2.1080 -0.1000 1.6008
        vertex -1.9674 -0.1000 1.3956
    endloop
endfacet
facet normal 0.0000 -0.5898 0.0000
    outer loop
        vertex -2.1080 -0.1000 1.6008
        vertex -1.2765 -0.1000 1.6104
        vertex -1.1283 -0.1000 1.7256
    endloop
endfacet
facet normal 0.0000 -1.2345 0.0000
    outer loop
        vertex -1.1283 -0.1000 1.7256
        vertex -2.3592 -0.1000 1.7704
        vertex -2.1080 -0.1000 1.6008
    endloop
endfacet
facet normal 0.0000 -0.5502 0.0000
    outer loop
        vertex -2.3592 -0.1000 1.7704
        vertex -1.1283 -0.1000 1.7256
        vertex -0.9659 -0.1000 1.7912
    endloop
endfacet
facet normal 0.0000 -0.4029 0.0000
    outer loop
        vertex -0.9659 -0.1000 1.7912
        vertex -2.5914 -0.1000 1.8132
        vertex -2.3592 -0.1000 1.7704
    endloop
endfacet
facet normal 0.0000 -13.8952 0.0000
    outer loop
        vertex -4.0000 -0.1000 3.2000
        vertex -2.5914 -0.1000 1.8132
        vertex -0.9659 -0.1000 1.7912
    endloop
endfacet
facet normal 0.0000 -2.0242 0.0000
    outer loop
        vertex -0.9659 -0.1000 1.7912
        vertex -0.7834 -0.1000 1.8132
        vertex -4.0000 -0.1000 3.2000
    endloop
endfacet
facet normal 0.0000 -1.7756 0.0000
    outer loop
        vertex -4.0000 -0.1000 3.2000
        vertex -2.7739 -0.1000 1.7912
        vertex -2.5914 -0.1000 1.8132
    endloop
endfacet
facet normal 0.0000 -1.9325 0.0000
    outer loop
        vertex -4.0000 -0.1000 3.2000
        vertex -2.9363 -0.1000 1.7256
        vertex -2.7739 -0.1000 1.7912
    endloop
endfacet
facet normal 0.0000 -2.1319 0.0000
    outer loop
        vertex -4.0000 -0.1000 3.2000
        vertex -3.0845 -0.1000 1.6104
        vertex -2.9363 -0.1000 1.7256
    endloop
endfacet
facet normal 0.0000 -3.0579 0.0000
    outer loop
        vertex -4.0000 -0.1000 3.2000
        vertex -3.2552 -0.1000 1.3724
        vertex -3.0845 -0.1000 1.6104
    endloop
endfacet
facet normal 0.0000 -2.4173 0.0000
    outer loop
        vertex -3.2748 -0.1000 0.9012
        vertex -3.2552 -0.1000 1.3724
        vertex -4.0000 -0.1000 3.2000
    endloop
endfacet
facet normal 0.0000 -1.8514 0.0000
    outer loop
        vertex -4.0000 -0.1000 3.2000
        vertex -3.2934 -0.1000 0.5516
        vertex -3.2748 -0.1000 0.9012
    endloop
endfacet
facet normal 0.0000 -10.4423 0.0000
    outer loop
        vertex -3.3758 -0.1000 -1.5040
        vertex -3.2934 -0.1000 0.5516
        vertex -4.0000 -0.1000 3.2000
    endloop
endfacet
facet normal 0.0000 -24.9677 0.0000
    outer loop
        vertex -4.0000 -0.1000 3.2000
        vertex -4.0000 -0.1000 -3.2000
        vertex -3.3758 -0.1000 -1.5040
    endloop
endfacet
facet normal 0.0000 -1.1033 0.0000
    outer loop
        vertex -3.3758 -0.1000 -1.5040
        vertex -4.0000 -0.1000 -3.2000
        vertex -3.3758 -0.1000 -1.7868
    endloop
endfacet
facet normal 0.0000 -3.1107 0.0000
    outer loop
        vertex -3.0187 -0.1000 -1.7756
        vertex -3.3758 -0.1000 -1.7868
        vertex -4.0000 -0.1000 -3.2000
    endloop
endfacet
facet normal 0.0000 -4.2509 0.0000
    outer loop
        vertex -2.5304 -0.1000 -1.7600
        vertex -3.0187 -0.1000 -1.7756
        vertex -4.0000 -0.1000 -3.2000
    endloop
endfacet
facet normal 0.0000 -6.7462 0.0000
    outer loop
        vertex -4.0000 -0.1000 -3.2000
        vertex -1.8082 -0.1000 -1.7868
        vertex -2.5304 -0.1000 -1.7600
    endloop
endfacet
facet normal 0.0000 -2.1233 0.0000
    outer loop
        vertex -1.5678 -0.1000 -1.7868
        vertex -1.8082 -0.1000 -1.7868
        vertex -4.0000 -0.1000 -3.2000
    endloop
endfacet
facet normal 0.0000 -2.9842 0.0000
    outer loop
        vertex -1.2107 -0.1000 -1.7756
        vertex -1.5678 -0.1000 -1.7868
        vertex -4.0000 -0.1000 -3.2000
    endloop
endfacet
facet normal 0.0000 -4.0746 0.0000
    outer loop
        vertex -0.7224 -0.1000 -1.7600
        vertex -1.2107 -0.1000 -1.7756
        vertex -4.0000 -0.1000 -3.2000
    endloop
endfacet
facet normal 0.0000 -7.0490 0.0000
    outer loop
        vertex -4.0000 -0.1000 -3.2000
        vertex -0.0002 -0.1000 -1.7868
        vertex -0.7224 -0.1000 -1.7600
    endloop
endfacet
facet normal 0.0000 -4.1549 0.0000
    outer loop
        vertex 0.4442 -0.1000 -1.7960
        vertex -0.0002 -0.1000 -1.7868
        vertex -4.0000 -0.1000 -3.2000
    endloop
endfacet
facet normal 0.0000 -2.7808 0.0000
    outer loop
        vertex -4.0000 -0.1000 -3.2000
        vertex 0.6623 -0.1000 -1.8272
        vertex 0.4442 -0.1000 -1.7960
    endloop
endfacet
facet normal 0.0000 -68.6400 0.0000
    outer loop
        vertex 0.6623 -0.1000 -1.8272
        vertex -4.0000 -0.1000 -3.2000
        vertex 4.0000 -0.1000 -3.2000
    endloop
endfacet
facet normal 0.0000 -2.3227 0.0000
    outer loop
        vertex 4.0000 -0.1000 -3.2000
        vertex 0.8717 -0.1000 -1.8020
        vertex 0.6623 -0.1000 -1.8272
    endloop
endfacet
facet normal 0.0000 -0.2446 0.0000
    outer loop
        vertex 0.0620 -0.1000 -1.7000
        vertex -0.0002 -0.1000 -1.7868
        vertex 0.4442 -0.1000 -1.7960
    endloop
endfacet
facet normal 0.0000 -0.1037 0.0000
    outer loop
        vertex 0.4442 -0.1000 -1.7960
        vertex 0.2412 -0.1000 -1.7016
        vertex 0.0620 -0.1000 -1.7000
    endloop
endfacet
facet normal 0.0000 -0.2584 0.0000
    outer loop
        vertex 0.0660 -0.1000 -1.2116
        vertex 0.2412 -0.1000 -1.7016
        vertex 0.1754 -0.1000 -1.2816
    endloop
endfacet
facet normal 0.0000 -0.7865 0.0000
    outer loop
        vertex -0.5512 -0.1000 1.7704
        vertex -0.3000 -0.1000 1.6008
        vertex 0.3104 -0.1000 1.6896
    endloop
endfacet
facet normal 0.0000 -0.3791 0.0000
    outer loop
        vertex 0.3104 -0.1000 1.6896
        vertex 0.3829 -0.1000 1.7532
        vertex -0.5512 -0.1000 1.7704
    endloop
endfacet
facet normal 0.0000 -0.5811 0.0000
    outer loop
        vertex -0.3000 -0.1000 1.6008
        vertex -0.1594 -0.1000 1.3956
        vertex 0.3280 -0.1000 1.3456
    endloop
endfacet
facet normal 0.0000 -1.3222 0.0000
    outer loop
        vertex 0.3280 -0.1000 1.3456
        vertex 0.3104 -0.1000 1.6896
        vertex -0.3000 -0.1000 1.6008
    endloop
endfacet
facet normal 0.0000 -0.7618 0.0000
    outer loop
        vertex 0.3280 -0.1000 1.3456
        vertex -0.1594 -0.1000 1.3956
        vertex -0.0784 -0.1000 1.1372
    endloop
endfacet
facet normal 0.0000 -1.2971 0.0000
    outer loop
        vertex -0.0784 -0.1000 1.1372
        vertex 0.3449 -0.1000 0.8436
        vertex 0.3280 -0.1000 1.3456
    endloop
endfacet
facet normal 0.0000 -0.7103 0.0000
    outer loop
        vertex 0.3449 -0.1000 0.8436
        vertex -0.0784 -0.1000 1.1372
        vertex -0.0359 -0.1000 0.8392
    endloop
endfacet
facet normal 0.0000 -1.1019 0.0000
    outer loop
        vertex -0.0359 -0.1000 0.8392
        vertex 0.3299 -0.1000 0.3804
        vertex 0.3449 -0.1000 0.8436
    endloop
endfacet
facet normal 0.0000 -0.6818 0.0000
    outer loop
        vertex -0.0359 -0.1000 0.8392
        vertex 0.3208 -0.1000 0.0936
        vertex 0.3299 -0.1000 0.3804
    endloop
endfacet
facet normal 0.0000 -0.2307 0.0000
    outer loop
        vertex 0.1201 -0.1000 -0.9088
        vertex 0.0660 -0.1000 -1.2116
        vertex 0.1754 -0.1000 -1.2816
    endloop
endfacet
facet normal 0.0000 -0.1190 0.0000
    outer loop
        vertex 1.7250 -0.1000 -0.0136
        vertex 1.7603 -0.1000 -0.2844
        vertex 1.8393 -0.1000 -0.3504
    endloop
endfacet
facet normal 0.0000 -0.2561 0.0000
    outer loop
        vertex 1.8393 -0.1000 -0.3504
        vertex 1.8493 -0.1000 -0.0216
        vertex 1.7250 -0.1000 -0.0136
    endloop
endfacet
facet normal 0.0000 -0.2353 0.0000
    outer loop
        vertex 1.8801 -0.1000 0.2792
        vertex 1.7250 -0.1000 -0.0136
        vertex 1.8493 -0.1000 -0.0216
    endloop
endfacet
facet normal 0.0000 -0.1551 0.0000
    outer loop
        vertex 1.9392 -0.1000 0.5508
        vertex 1.7250 -0.1000 -0.0136
        vertex 1.8801 -0.1000 0.2792
    endloop
endfacet
facet normal 0.0000 -0.7861 0.0000
    outer loop
        vertex 1.6793 -0.1000 1.1568
        vertex 1.9392 -0.1000 0.5508
        vertex 2.0425 -0.1000 0.7940
    endloop
endfacet
facet normal 0.0000 -0.7818 0.0000
    outer loop
        vertex 1.6793 -0.1000 1.1568
        vertex 2.0425 -0.1000 0.7940
        vertex 2.1690 -0.1000 1.0120
    endloop
endfacet
facet normal 0.0000 -0.7282 0.0000
    outer loop
        vertex 1.6793 -0.1000 1.1568
        vertex 2.1690 -0.1000 1.0120
        vertex 2.3136 -0.1000 1.2072
    endloop
endfacet
facet normal 0.0000 -0.9355 0.0000
    outer loop
        vertex 2.3136 -0.1000 1.2072
        vertex 1.6694 -0.1000 1.3920
        vertex 1.6793 -0.1000 1.1568
    endloop
endfacet
facet normal 0.0000 -0.8695 0.0000
    outer loop
        vertex 1.6694 -0.1000 1.3920
        vertex 2.3136 -0.1000 1.2072
        vertex 2.4640 -0.1000 1.3800
    endloop
endfacet
facet normal 0.0000 -1.3872 0.0000
    outer loop
        vertex 2.4640 -0.1000 1.3800
        vertex 1.6756 -0.1000 1.6712
        vertex 1.6694 -0.1000 1.3920
    endloop
endfacet
facet normal 0.0000 -1.0259 0.0000
    outer loop
        vertex 1.6756 -0.1000 1.6712
        vertex 2.4640 -0.1000 1.3800
        vertex 2.6205 -0.1000 1.5304
    endloop
endfacet
facet normal 0.0000 -0.8581 0.0000
    outer loop
        vertex 1.6756 -0.1000 1.6712
        vertex 2.6205 -0.1000 1.5304
        vertex 2.7769 -0.1000 1.6524
    endloop
endfacet
facet normal 0.0000 -0.6966 0.0000
    outer loop
        vertex 2.7769 -0.1000 1.6524
        vertex 1.6294 -0.1000 1.7732
        vertex 1.6756 -0.1000 1.6712
    endloop
endfacet
facet normal 0.0000 -0.7509 0.0000
    outer loop
        vertex 1.6294 -0.1000 1.7732
        vertex 2.7769 -0.1000 1.6524
        vertex 2.9393 -0.1000 1.7400
    endloop
endfacet
facet normal 0.0000 -0.4737 0.0000
    outer loop
        vertex 1.6294 -0.1000 1.7732
        vertex 2.9393 -0.1000 1.7400
        vertex 3.1074 -0.1000 1.7936
    endloop
endfacet
facet normal 0.0000 -12.8778 0.0000
    outer loop
        vertex 3.1074 -0.1000 1.7936
        vertex 4.0000 -0.1000 3.2000
        vertex 1.6294 -0.1000 1.7732
    endloop
endfacet
facet normal 0.0000 -2.0484 0.0000
    outer loop
        vertex 4.0000 -0.1000 3.2000
        vertex 3.1074 -0.1000 1.7936
        vertex 3.2614 -0.1000 1.6692
    endloop
endfacet
facet normal 0.0000 -69.3400 0.0000
    outer loop
        vertex 4.0000 -0.1000 3.2000
        vertex -4.0000 -0.1000 3.2000
        vertex -0.7834 -0.1000 1.8132
    endloop
endfacet
facet normal 0.0000 -3.2918 0.0000
    outer loop
        vertex -0.7834 -0.1000 1.8132
        vertex -0.5512 -0.1000 1.7704
        vertex 4.0000 -0.1000 3.2000
    endloop
endfacet
facet normal 0.0000 -8.8354 0.0000
    outer loop
        vertex 4.0000 -0.1000 3.2000
        vertex -0.5512 -0.1000 1.7704
        vertex 0.3829 -0.1000 1.7532
    endloop
endfacet
facet normal 0.0000 -10.8190 0.0000
    outer loop
        vertex 0.3829 -0.1000 1.7532
        vertex 1.6294 -0.1000 1.7732
        vertex 4.0000 -0.1000 3.2000
    endloop
endfacet
facet normal 0.0000 -1.0139 0.0000
    outer loop
        vertex 4.0000 -0.1000 3.2000
        vertex 3.2614 -0.1000 1.6692
        vertex 3.2840 -0.1000 1.4964
    endloop
endfacet
facet normal 0.0000 -0.1596 0.0000
    outer loop
        vertex 1.7603 -0.1000 -0.2844
        vertex 1.7600 -0.1000 -0.5392
        vertex 1.8600 -0.1000 -0.7440
    endloop
endfacet
facet normal 0.0000 -0.1856 0.0000
    outer loop
        vertex 1.8600 -0.1000 -0.7440
        vertex 1.8393 -0.1000 -0.3504
        vertex 1.7603 -0.1000 -0.2844
    endloop
endfacet
facet normal 0.0000 -0.2310 0.0000
    outer loop
        vertex 1.8600 -0.1000 -0.7440
        vertex 1.7600 -0.1000 -0.5392
        vertex 1.7215 -0.1000 -0.8300
    endloop
endfacet
facet normal 0.0000 -0.4177 0.0000
    outer loop
        vertex 1.7215 -0.1000 -0.8300
        vertex 1.9369 -0.1000 -1.1788
        vertex 1.8600 -0.1000 -0.7440
    endloop
endfacet
facet normal 0.0000 -0.4163 0.0000
    outer loop
        vertex 1.9369 -0.1000 -1.1788
        vertex 1.7215 -0.1000 -0.8300
        vertex 1.6543 -0.1000 -1.0304
    endloop
endfacet
facet normal 0.0000 -0.3785 0.0000
    outer loop
        vertex 1.6543 -0.1000 -1.0304
        vertex 2.0544 -0.1000 -1.4548
        vertex 1.9369 -0.1000 -1.1788
    endloop
endfacet
facet normal 0.0000 -0.8186 0.0000
    outer loop
        vertex 1.6543 -0.1000 -1.0304
        vertex 1.5584 -0.1000 -1.2560
        vertex 2.0544 -0.1000 -1.4548
    endloop
endfacet
facet normal 0.0000 -0.7977 0.0000
    outer loop
        vertex 2.0544 -0.1000 -1.4548
        vertex 1.5584 -0.1000 -1.2560
        vertex 1.4134 -0.1000 -1.4552
    endloop
endfacet
facet normal 0.0000 -0.8192 0.0000
    outer loop
        vertex 1.4134 -0.1000 -1.4552
        vertex 2.2116 -0.1000 -1.6592
        vertex 2.0544 -0.1000 -1.4548
    endloop
endfacet
facet normal 0.0000 -0.9868 0.0000
    outer loop
        vertex 1.4134 -0.1000 -1.4552
        vertex 1.2373 -0.1000 -1.6080
        vertex 2.2116 -0.1000 -1.6592
    endloop
endfacet
facet normal 0.0000 -0.7766 0.0000
    outer loop
        vertex 2.2116 -0.1000 -1.6592
        vertex 1.2373 -0.1000 -1.6080
        vertex 1.0635 -0.1000 -1.7264
    endloop
endfacet
facet normal 0.0000 -0.9837 0.0000
    outer loop
        vertex 1.0635 -0.1000 -1.7264
        vertex 2.4009 -0.1000 -1.7852
        vertex 2.2116 -0.1000 -1.6592
    endloop
endfacet
facet normal 0.0000 -0.7024 0.0000
    outer loop
        vertex 2.4009 -0.1000 -1.7852
        vertex 1.0635 -0.1000 -1.7264
        vertex 0.8717 -0.1000 -1.8020
    endloop
endfacet
facet normal 0.0000 -0.4238 0.0000
    outer loop
        vertex 0.8717 -0.1000 -1.8020
        vertex 2.6145 -0.1000 -1.8272
        vertex 2.4009 -0.1000 -1.7852
    endloop
endfacet
facet normal 0.0000 -14.7343 0.0000
    outer loop
        vertex 0.8717 -0.1000 -1.8020
        vertex 4.0000 -0.1000 -3.2000
        vertex 2.6145 -0.1000 -1.8272
    endloop
endfacet
facet normal 0.0000 -2.4713 0.0000
    outer loop
        vertex 2.8488 -0.1000 -1.7740
        vertex 2.6145 -0.1000 -1.8272
        vertex 4.0000 -0.1000 -3.2000
    endloop
endfacet
facet normal 0.0000 -2.7957 0.0000
    outer loop
        vertex 3.0508 -0.1000 -1.6356
        vertex 2.8488 -0.1000 -1.7740
        vertex 4.0000 -0.1000 -3.2000
    endloop
endfacet
facet normal 0.0000 -3.0785 0.0000
    outer loop
        vertex 3.2144 -0.1000 -1.3864
        vertex 3.0508 -0.1000 -1.6356
        vertex 4.0000 -0.1000 -3.2000
    endloop
endfacet
facet normal 0.0000 -2.9877 0.0000
    outer loop
        vertex 3.3380 -0.1000 -1.0632
        vertex 3.2144 -0.1000 -1.3864
        vertex 4.0000 -0.1000 -3.2000
    endloop
endfacet
facet normal 0.0000 -1.6140 0.0000
    outer loop
        vertex 3.3815 -0.1000 -0.8136
        vertex 3.3380 -0.1000 -1.0632
        vertex 4.0000 -0.1000 -3.2000
    endloop
endfacet
facet normal 0.0000 -1.2757 0.0000
    outer loop
        vertex 3.3959 -0.1000 -0.5392
        vertex 3.3815 -0.1000 -0.8136
        vertex 4.0000 -0.1000 -3.2000
    endloop
endfacet
facet normal 0.0000 -24.1632 0.0000
    outer loop
        vertex 4.0000 -0.1000 -3.2000
        vertex 4.0000 -0.1000 3.2000
        vertex 3.3959 -0.1000 -0.5392
    endloop
endfacet
facet normal 0.0000 -1.0561 0.0000
    outer loop
        vertex 4.0000 -0.1000 3.2000
        vertex 3.3864 -0.1000 -0.3184
        vertex 3.3959 -0.1000 -0.5392
    endloop
endfacet
facet normal 0.0000 -1.3855 0.0000
    outer loop
        vertex 4.0000 -0.1000 3.2000
        vertex 3.3573 -0.1000 -0.1240
        vertex 3.3864 -0.1000 -0.3184
    endloop
endfacet
facet normal 0.0000 -1.6799 0.0000
    outer loop
        vertex 4.0000 -0.1000 3.2000
        vertex 3.3092 -0.1000 0.0452
        vertex 3.3573 -0.1000 -0.1240
    endloop
endfacet
facet normal 0.0000 -3.0062 0.0000
    outer loop
        vertex 3.2004 -0.1000 0.2448
        vertex 3.3092 -0.1000 0.0452
        vertex 4.0000 -0.1000 3.2000
    endloop
endfacet
facet normal 0.0000 -4.7099 0.0000
    outer loop
        vertex 4.0000 -0.1000 3.2000
        vertex 3.2840 -0.1000 1.4964
        vertex 3.2004 -0.1000 0.2448
    endloop
endfacet
endsolid GiantLegoRocks
