solid GiantLegoRocks
facet normal 0.0000 0.7500 0.0000
    outer loop
        vertex 7.2000 0.0000 7.2000
        vertex 7.2000 0.0000 -7.2000
        vertex -7.2000 0.0000 -7.2000
    endloop
endfacet
facet normal 0.0000 0.7500 0.0000
    outer loop
        vertex -7.2000 0.0000 -7.2000
        vertex -7.2000 0.0000 7.2000
        vertex 7.2000 0.0000 7.2000
    endloop
endfacet
facet normal 0.0000 -0.2500 36.0000
    outer loop
        vertex -7.2000 -0.1000 7.2000
        vertex 7.2000 -0.1000 7.2000
        vertex 7.2000 0.0000 7.2000
    endloop
endfacet
facet normal 0.0000 -0.2500 36.0000
    outer loop
        vertex 7.2000 0.0000 7.2000
        vertex -7.2000 0.0000 7.2000
        vertex -7.2000 -0.1000 7.2000
    endloop
endfacet
facet normal -36.0000 -0.2500 0.0000
    outer loop
        vertex -7.2000 -0.1000 -7.2000
        vertex -7.2000 -0.1000 7.2000
        vertex -7.2000 0.0000 7.2000
    endloop
endfacet
facet normal -36.0000 -0.2500 0.0000
    outer loop
        vertex -7.2000 0.0000 7.2000
        vertex -7.2000 0.0000 -7.2000
        vertex -7.2000 -0.1000 -7.2000
    endloop
endfacet
facet normal 0.0000 -0.2500 -36.0000
    outer loop
        vertex 7.2000 -0.1000 -7.2000
        vertex -7.2000 -0.1000 -7.2000
        vertex -7.2000 0.0000 -7.2000
    endloop
endfacet
facet normal 0.0000 -0.2500 -36.0000
    outer loop
        vertex -7.2000 0.0000 -7.2000
        vertex 7.2000 0.0000 -7.2000
        vertex 7.2000 -0.1000 -7.2000
    endloop
endfacet
facet normal 36.0000 -0.2500 0.0000
    outer loop
        vertex 7.2000 -0.1000 7.2000
        vertex 7.2000 -0.1000 -7.2000
        vertex 7.2000 0.0000 -7.2000
    endloop
endfacet
facet normal 36.0000 -0.2500 0.0000
    outer loop
        vertex 7.2000 0.0000 -7.2000
        vertex 7.2000 0.0000 7.2000
        vertex 7.2000 -0.1000 7.2000
    endloop
endfacet
facet normal 0.0000 -648.0000 0.0000
    outer loop
        vertex -7.2000 -0.1000 7.2000
        vertex -7.2000 -0.1000 0.0000
        vertex 7.2000 -0.1000 0.0000
    endloop
endfacet
facet normal 0.0000 -648.0000 0.0000
    outer loop
        vertex 7.2000 -0.1000 0.0000
        vertex 7.2000 -0.1000 7.2000
        vertex -7.2000 -0.1000 7.2000
    endloop
endfacet
facet normal 0.0000 -648.0000 0.0000
    outer loop
        vertex -7.2000 -0.1000 0.0000
        vertex -7.2000 -0.1000 -7.2000
        vertex 7.2000 -0.1000 -7.2000
    endloop
endfacet
facet normal 0.0000 -648.0000 0.0000
    outer loop
        vertex 7.2000 -0.1000 -7.2000
        vertex 7.2000 -0.1000 0.0000
        vertex -7.2000 -0.1000 0.0000
    endloop
endfacet
endsolid GiantLegoRocks
