solid GiantLegoRocks
facet normal 0.0000 0.7500 0.0000
    outer loop
        vertex 7.6000 0.0000 4.4000
        vertex 7.6000 0.0000 -4.4000
        vertex -7.6000 0.0000 -4.4000
    endloop
endfacet
facet normal 0.0000 0.7500 0.0000
    outer loop
        vertex -7.6000 0.0000 -4.4000
        vertex -7.6000 0.0000 4.4000
        vertex 7.6000 0.0000 4.4000
    endloop
endfacet
facet normal 0.0000 -0.2500 22.0000
    outer loop
        vertex -7.6000 -0.1000 4.4000
        vertex 7.6000 -0.1000 4.4000
        vertex 7.6000 0.0000 4.4000
    endloop
endfacet
facet normal 0.0000 -0.2500 22.0000
    outer loop
        vertex 7.6000 0.0000 4.4000
        vertex -7.6000 0.0000 4.4000
        vertex -7.6000 -0.1000 4.4000
    endloop
endfacet
facet normal -38.0000 -0.2500 0.0000
    outer loop
        vertex -7.6000 -0.1000 -4.4000
        vertex -7.6000 -0.1000 4.4000
        vertex -7.6000 0.0000 4.4000
    endloop
endfacet
facet normal -38.0000 -0.2500 0.0000
    outer loop
        vertex -7.6000 0.0000 4.4000
        vertex -7.6000 0.0000 -4.4000
        vertex -7.6000 -0.1000 -4.4000
    endloop
endfacet
facet normal 0.0000 -0.2500 -22.0000
    outer loop
        vertex 7.6000 -0.1000 -4.4000
        vertex -7.6000 -0.1000 -4.4000
        vertex -7.6000 0.0000 -4.4000
    endloop
endfacet
facet normal 0.0000 -0.2500 -22.0000
    outer loop
        vertex -7.6000 0.0000 -4.4000
        vertex 7.6000 0.0000 -4.4000
        vertex 7.6000 -0.1000 -4.4000
    endloop
endfacet
facet normal 38.0000 -0.2500 0.0000
    outer loop
        vertex 7.6000 -0.1000 4.4000
        vertex 7.6000 -0.1000 -4.4000
        vertex 7.6000 0.0000 -4.4000
    endloop
endfacet
facet normal 38.0000 -0.2500 0.0000
    outer loop
        vertex 7.6000 0.0000 -4.4000
        vertex 7.6000 0.0000 4.4000
        vertex 7.6000 -0.1000 4.4000
    endloop
endfacet
facet normal 0.0000 -7.4000 0.0000
    outer loop
        vertex -6.3200 -0.1000 2.0000
        vertex -6.3200 -0.1000 1.2000
        vertex -4.8400 -0.1000 1.2000
    endloop
endfacet
facet normal 0.0000 -11.0000 0.0000
    outer loop
        vertex -4.8400 -0.1000 1.2000
        vertex -4.1200 -0.1000 2.0000
        vertex -6.3200 -0.1000 2.0000
    endloop
endfacet
facet normal 0.0000 -4.3200 0.0000
    outer loop
        vertex -4.1200 -0.1000 1.0400
        vertex -4.1200 -0.1000 2.0000
        vertex -4.8400 -0.1000 1.2000
    endloop
endfacet
facet normal 0.0000 -15.2800 0.0000
    outer loop
        vertex -4.8400 -0.1000 1.2000
        vertex -5.7200 -0.1000 -2.0000
        vertex -4.1200 -0.1000 1.0400
    endloop
endfacet
facet normal 0.0000 -15.2000 0.0000
    outer loop
        vertex -4.1200 -0.1000 1.0400
        vertex -5.7200 -0.1000 -2.0000
        vertex -4.9200 -0.1000 -2.0000
    endloop
endfacet
facet normal 0.0000 -1.2000 0.0000
    outer loop
        vertex -6.3200 -0.1000 1.2000
        vertex -6.3200 -0.1000 2.0000
        vertex -6.5600 -0.1000 2.2400
    endloop
endfacet
facet normal 0.0000 -1.9200 0.0000
    outer loop
        vertex -6.5600 -0.1000 2.2400
        vertex -6.5600 -0.1000 0.9600
        vertex -6.3200 -0.1000 1.2000
    endloop
endfacet
facet normal 0.0000 -2.1000 0.0000
    outer loop
        vertex -6.3200 -0.1000 1.2000
        vertex -6.5600 -0.1000 0.9600
        vertex -5.1600 -0.1000 0.9600
    endloop
endfacet
facet normal 0.0000 -2.2200 0.0000
    outer loop
        vertex -5.1600 -0.1000 0.9600
        vertex -4.8400 -0.1000 1.2000
        vertex -6.3200 -0.1000 1.2000
    endloop
endfacet
facet normal 0.0000 -5.0800 0.0000
    outer loop
        vertex -5.7200 -0.1000 -2.0000
        vertex -4.8400 -0.1000 1.2000
        vertex -5.1600 -0.1000 0.9600
    endloop
endfacet
facet normal 0.0000 -5.0800 0.0000
    outer loop
        vertex -5.1600 -0.1000 0.9600
        vertex -6.0400 -0.1000 -2.2400
        vertex -5.7200 -0.1000 -2.0000
    endloop
endfacet
facet normal 0.0000 -1.2000 0.0000
    outer loop
        vertex -4.9200 -0.1000 -2.0000
        vertex -5.7200 -0.1000 -2.0000
        vertex -6.0400 -0.1000 -2.2400
    endloop
endfacet
facet normal 0.0000 -1.9800 0.0000
    outer loop
        vertex -6.0400 -0.1000 -2.2400
        vertex -4.7200 -0.1000 -2.2400
        vertex -4.9200 -0.1000 -2.0000
    endloop
endfacet
facet normal 0.0000 -5.0000 0.0000
    outer loop
        vertex -4.1200 -0.1000 1.0400
        vertex -4.9200 -0.1000 -2.0000
        vertex -4.7200 -0.1000 -2.2400
    endloop
endfacet
facet normal 0.0000 -5.0700 0.0000
    outer loop
        vertex -4.7200 -0.1000 -2.2400
        vertex -3.8800 -0.1000 1.0000
        vertex -4.1200 -0.1000 1.0400
    endloop
endfacet
facet normal 0.0000 -1.4400 0.0000
    outer loop
        vertex -4.1200 -0.1000 2.0000
        vertex -4.1200 -0.1000 1.0400
        vertex -3.8800 -0.1000 1.0000
    endloop
endfacet
facet normal 0.0000 -1.8600 0.0000
    outer loop
        vertex -3.8800 -0.1000 1.0000
        vertex -3.8800 -0.1000 2.2400
        vertex -4.1200 -0.1000 2.0000
    endloop
endfacet
facet normal 0.0000 -4.0200 0.0000
    outer loop
        vertex -4.1200 -0.1000 2.0000
        vertex -3.8800 -0.1000 2.2400
        vertex -6.5600 -0.1000 2.2400
    endloop
endfacet
facet normal 0.0000 -3.3000 0.0000
    outer loop
        vertex -6.5600 -0.1000 2.2400
        vertex -6.3200 -0.1000 2.0000
        vertex -4.1200 -0.1000 2.0000
    endloop
endfacet
facet normal 0.0000 -9.4600 0.0000
    outer loop
        vertex -2.5200 -0.1000 1.1200
        vertex -1.1200 -0.1000 2.0000
        vertex -2.8400 -0.1000 2.0000
    endloop
endfacet
facet normal 0.0000 -3.6000 0.0000
    outer loop
        vertex -2.8400 -0.1000 2.0000
        vertex -3.3200 -0.1000 1.5200
        vertex -2.5200 -0.1000 1.1200
    endloop
endfacet
facet normal 0.0000 -3.6000 0.0000
    outer loop
        vertex -2.5200 -0.1000 0.4000
        vertex -2.5200 -0.1000 1.1200
        vertex -3.3200 -0.1000 1.5200
    endloop
endfacet
facet normal 0.0000 -7.6000 0.0000
    outer loop
        vertex -3.3200 -0.1000 1.5200
        vertex -3.3200 -0.1000 0.0000
        vertex -2.5200 -0.1000 0.4000
    endloop
endfacet
facet normal 0.0000 -3.0000 0.0000
    outer loop
        vertex -2.5200 -0.1000 0.4000
        vertex -3.3200 -0.1000 0.0000
        vertex -2.9200 -0.1000 -0.4000
    endloop
endfacet
facet normal 0.0000 -5.4000 0.0000
    outer loop
        vertex -2.9200 -0.1000 -0.4000
        vertex -1.4400 -0.1000 0.4000
        vertex -2.5200 -0.1000 0.4000
    endloop
endfacet
facet normal 0.0000 -7.4000 0.0000
    outer loop
        vertex -1.4400 -0.1000 0.4000
        vertex -2.9200 -0.1000 -0.4000
        vertex -1.4400 -0.1000 -0.4000
    endloop
endfacet
facet normal 0.0000 -4.2000 0.0000
    outer loop
        vertex -0.6000 -0.1000 1.4800
        vertex -1.4400 -0.1000 0.4000
        vertex -1.4400 -0.1000 -0.4000
    endloop
endfacet
facet normal 0.0000 -15.5400 0.0000
    outer loop
        vertex -1.4400 -0.1000 -0.4000
        vertex -0.6000 -0.1000 -1.4800
        vertex -0.6000 -0.1000 1.4800
    endloop
endfacet
facet normal 0.0000 -3.7800 0.0000
    outer loop
        vertex -1.4400 -0.1000 1.1200
        vertex -1.4400 -0.1000 0.4000
        vertex -0.6000 -0.1000 1.4800
    endloop
endfacet
facet normal 0.0000 -3.9000 0.0000
    outer loop
        vertex -0.6000 -0.1000 1.4800
        vertex -1.1200 -0.1000 2.0000
        vertex -1.4400 -0.1000 1.1200
    endloop
endfacet
facet normal 0.0000 -5.9400 0.0000
    outer loop
        vertex -1.1200 -0.1000 2.0000
        vertex -2.5200 -0.1000 1.1200
        vertex -1.4400 -0.1000 1.1200
    endloop
endfacet
facet normal 0.0000 -3.5700 0.0000
    outer loop
        vertex -0.6000 -0.1000 -1.4800
        vertex -1.4400 -0.1000 -0.4000
        vertex -1.4400 -0.1000 -1.0800
    endloop
endfacet
facet normal 0.0000 -4.0300 0.0000
    outer loop
        vertex -1.4400 -0.1000 -1.0800
        vertex -1.1200 -0.1000 -2.0000
        vertex -0.6000 -0.1000 -1.4800
    endloop
endfacet
facet normal 0.0000 -12.4200 0.0000
    outer loop
        vertex -3.2800 -0.1000 -2.0000
        vertex -1.1200 -0.1000 -2.0000
        vertex -1.4400 -0.1000 -1.0800
    endloop
endfacet
facet normal 0.0000 -10.5800 0.0000
    outer loop
        vertex -1.4400 -0.1000 -1.0800
        vertex -3.2800 -0.1000 -1.0800
        vertex -3.2800 -0.1000 -2.0000
    endloop
endfacet
facet normal 0.0000 -1.6200 0.0000
    outer loop
        vertex -1.4400 -0.1000 1.1200
        vertex -2.5200 -0.1000 1.1200
        vertex -2.2800 -0.1000 0.8800
    endloop
endfacet
facet normal 0.0000 -0.9000 0.0000
    outer loop
        vertex -2.2800 -0.1000 0.8800
        vertex -1.6800 -0.1000 0.8800
        vertex -1.4400 -0.1000 1.1200
    endloop
endfacet
facet normal 0.0000 -1.0800 0.0000
    outer loop
        vertex -1.4400 -0.1000 0.4000
        vertex -1.4400 -0.1000 1.1200
        vertex -1.6800 -0.1000 0.8800
    endloop
endfacet
facet normal 0.0000 -0.3600 0.0000
    outer loop
        vertex -1.6800 -0.1000 0.8800
        vertex -1.6800 -0.1000 0.6400
        vertex -1.4400 -0.1000 0.4000
    endloop
endfacet
facet normal 0.0000 -1.6200 0.0000
    outer loop
        vertex -2.5200 -0.1000 0.4000
        vertex -1.4400 -0.1000 0.4000
        vertex -1.6800 -0.1000 0.6400
    endloop
endfacet
facet normal 0.0000 -0.9000 0.0000
    outer loop
        vertex -1.6800 -0.1000 0.6400
        vertex -2.2800 -0.1000 0.6400
        vertex -2.5200 -0.1000 0.4000
    endloop
endfacet
facet normal 0.0000 -0.3600 0.0000
    outer loop
        vertex -2.5200 -0.1000 0.4000
        vertex -2.2800 -0.1000 0.6400
        vertex -2.2800 -0.1000 0.8800
    endloop
endfacet
facet normal 0.0000 -1.0800 0.0000
    outer loop
        vertex -2.2800 -0.1000 0.8800
        vertex -2.5200 -0.1000 1.1200
        vertex -2.5200 -0.1000 0.4000
    endloop
endfacet
facet normal 0.0000 -0.9000 0.0000
    outer loop
        vertex -1.6800 -0.1000 0.8800
        vertex -2.2800 -0.1000 0.8800
        vertex -2.2800 -0.1000 0.6400
    endloop
endfacet
facet normal 0.0000 -0.9000 0.0000
    outer loop
        vertex -2.2800 -0.1000 0.6400
        vertex -1.6800 -0.1000 0.6400
        vertex -1.6800 -0.1000 0.8800
    endloop
endfacet
facet normal 0.0000 -2.5800 0.0000
    outer loop
        vertex -2.8400 -0.1000 2.0000
        vertex -1.1200 -0.1000 2.0000
        vertex -1.0000 -0.1000 2.2400
    endloop
endfacet
facet normal 0.0000 -2.9400 0.0000
    outer loop
        vertex -1.0000 -0.1000 2.2400
        vertex -2.9600 -0.1000 2.2400
        vertex -2.8400 -0.1000 2.0000
    endloop
endfacet
facet normal 0.0000 -1.0800 0.0000
    outer loop
        vertex -3.3200 -0.1000 1.5200
        vertex -2.8400 -0.1000 2.0000
        vertex -2.9600 -0.1000 2.2400
    endloop
endfacet
facet normal 0.0000 -1.3500 0.0000
    outer loop
        vertex -2.9600 -0.1000 2.2400
        vertex -3.5600 -0.1000 1.6400
        vertex -3.3200 -0.1000 1.5200
    endloop
endfacet
facet normal 0.0000 -2.2800 0.0000
    outer loop
        vertex -3.3200 -0.1000 0.0000
        vertex -3.3200 -0.1000 1.5200
        vertex -3.5600 -0.1000 1.6400
    endloop
endfacet
facet normal 0.0000 -2.6400 0.0000
    outer loop
        vertex -3.5600 -0.1000 1.6400
        vertex -3.5600 -0.1000 -0.1200
        vertex -3.3200 -0.1000 0.0000
    endloop
endfacet
facet normal 0.0000 -0.9000 0.0000
    outer loop
        vertex -2.9200 -0.1000 -0.4000
        vertex -3.3200 -0.1000 0.0000
        vertex -3.5600 -0.1000 -0.1200
    endloop
endfacet
facet normal 0.0000 -1.1700 0.0000
    outer loop
        vertex -3.5600 -0.1000 -0.1200
        vertex -3.0400 -0.1000 -0.6400
        vertex -2.9200 -0.1000 -0.4000
    endloop
endfacet
facet normal 0.0000 -2.2200 0.0000
    outer loop
        vertex -1.4400 -0.1000 -0.4000
        vertex -2.9200 -0.1000 -0.4000
        vertex -3.0400 -0.1000 -0.6400
    endloop
endfacet
facet normal 0.0000 -2.0400 0.0000
    outer loop
        vertex -3.0400 -0.1000 -0.6400
        vertex -1.6800 -0.1000 -0.6400
        vertex -1.4400 -0.1000 -0.4000
    endloop
endfacet
facet normal 0.0000 -1.0200 0.0000
    outer loop
        vertex -1.4400 -0.1000 -1.0800
        vertex -1.4400 -0.1000 -0.4000
        vertex -1.6800 -0.1000 -0.6400
    endloop
endfacet
facet normal 0.0000 -0.3000 0.0000
    outer loop
        vertex -1.6800 -0.1000 -0.6400
        vertex -1.6800 -0.1000 -0.8400
        vertex -1.4400 -0.1000 -1.0800
    endloop
endfacet
facet normal 0.0000 -2.7600 0.0000
    outer loop
        vertex -3.2800 -0.1000 -1.0800
        vertex -1.4400 -0.1000 -1.0800
        vertex -1.6800 -0.1000 -0.8400
    endloop
endfacet
facet normal 0.0000 -2.7600 0.0000
    outer loop
        vertex -1.6800 -0.1000 -0.8400
        vertex -3.5200 -0.1000 -0.8400
        vertex -3.2800 -0.1000 -1.0800
    endloop
endfacet
facet normal 0.0000 -1.3800 0.0000
    outer loop
        vertex -3.2800 -0.1000 -2.0000
        vertex -3.2800 -0.1000 -1.0800
        vertex -3.5200 -0.1000 -0.8400
    endloop
endfacet
facet normal 0.0000 -2.1000 0.0000
    outer loop
        vertex -3.5200 -0.1000 -0.8400
        vertex -3.5200 -0.1000 -2.2400
        vertex -3.2800 -0.1000 -2.0000
    endloop
endfacet
facet normal 0.0000 -3.2400 0.0000
    outer loop
        vertex -1.1200 -0.1000 -2.0000
        vertex -3.2800 -0.1000 -2.0000
        vertex -3.5200 -0.1000 -2.2400
    endloop
endfacet
facet normal 0.0000 -3.7800 0.0000
    outer loop
        vertex -3.5200 -0.1000 -2.2400
        vertex -1.0000 -0.1000 -2.2400
        vertex -1.1200 -0.1000 -2.0000
    endloop
endfacet
facet normal 0.0000 -1.1700 0.0000
    outer loop
        vertex -0.6000 -0.1000 -1.4800
        vertex -1.1200 -0.1000 -2.0000
        vertex -1.0000 -0.1000 -2.2400
    endloop
endfacet
facet normal 0.0000 -1.4400 0.0000
    outer loop
        vertex -1.0000 -0.1000 -2.2400
        vertex -0.3600 -0.1000 -1.6000
        vertex -0.6000 -0.1000 -1.4800
    endloop
endfacet
facet normal 0.0000 -4.4400 0.0000
    outer loop
        vertex -0.6000 -0.1000 1.4800
        vertex -0.6000 -0.1000 -1.4800
        vertex -0.3600 -0.1000 -1.6000
    endloop
endfacet
facet normal 0.0000 -4.8000 0.0000
    outer loop
        vertex -0.3600 -0.1000 -1.6000
        vertex -0.3600 -0.1000 1.6000
        vertex -0.6000 -0.1000 1.4800
    endloop
endfacet
facet normal 0.0000 -1.4400 0.0000
    outer loop
        vertex -0.6000 -0.1000 1.4800
        vertex -0.3600 -0.1000 1.6000
        vertex -1.0000 -0.1000 2.2400
    endloop
endfacet
facet normal 0.0000 -1.1700 0.0000
    outer loop
        vertex -1.0000 -0.1000 2.2400
        vertex -1.1200 -0.1000 2.0000
        vertex -0.6000 -0.1000 1.4800
    endloop
endfacet
facet normal 0.0000 -7.5600 0.0000
    outer loop
        vertex 1.0000 -0.1000 0.5600
        vertex 1.0000 -0.1000 2.0000
        vertex 0.1600 -0.1000 2.0000
    endloop
endfacet
facet normal 0.0000 -9.6600 0.0000
    outer loop
        vertex 0.1600 -0.1000 2.0000
        vertex 0.1600 -0.1000 0.1600
        vertex 1.0000 -0.1000 0.5600
    endloop
endfacet
facet normal 0.0000 -3.7200 0.0000
    outer loop
        vertex 1.0000 -0.1000 0.5600
        vertex 0.1600 -0.1000 0.1600
        vertex 0.6400 -0.1000 -0.3200
    endloop
endfacet
facet normal 0.0000 -5.7200 0.0000
    outer loop
        vertex 0.6400 -0.1000 -0.3200
        vertex 2.0400 -0.1000 0.5600
        vertex 1.0000 -0.1000 0.5600
    endloop
endfacet
facet normal 0.0000 -7.7000 0.0000
    outer loop
        vertex 2.0400 -0.1000 0.5600
        vertex 0.6400 -0.1000 -0.3200
        vertex 2.0400 -0.1000 -0.3200
    endloop
endfacet
facet normal 0.0000 -4.4000 0.0000
    outer loop
        vertex 2.8400 -0.1000 2.0000
        vertex 2.0400 -0.1000 0.5600
        vertex 2.0400 -0.1000 -0.3200
    endloop
endfacet
facet normal 0.0000 -20.0000 0.0000
    outer loop
        vertex 2.0400 -0.1000 -0.3200
        vertex 2.8400 -0.1000 -2.0000
        vertex 2.8400 -0.1000 2.0000
    endloop
endfacet
facet normal 0.0000 -7.2000 0.0000
    outer loop
        vertex 2.8400 -0.1000 2.0000
        vertex 2.0400 -0.1000 2.0000
        vertex 2.0400 -0.1000 0.5600
    endloop
endfacet
facet normal 0.0000 -8.4000 0.0000
    outer loop
        vertex 2.0400 -0.1000 -0.3200
        vertex 2.0400 -0.1000 -2.0000
        vertex 2.8400 -0.1000 -2.0000
    endloop
endfacet
facet normal 0.0000 -1.2600 0.0000
    outer loop
        vertex -0.0800 -0.1000 2.2400
        vertex 0.1600 -0.1000 2.0000
        vertex 1.0000 -0.1000 2.0000
    endloop
endfacet
facet normal 0.0000 -1.9800 0.0000
    outer loop
        vertex 1.0000 -0.1000 2.0000
        vertex 1.2400 -0.1000 2.2400
        vertex -0.0800 -0.1000 2.2400
    endloop
endfacet
facet normal 0.0000 -2.7600 0.0000
    outer loop
        vertex 0.1600 -0.1000 0.1600
        vertex 0.1600 -0.1000 2.0000
        vertex -0.0800 -0.1000 2.2400
    endloop
endfacet
facet normal 0.0000 -3.3000 0.0000
    outer loop
        vertex -0.0800 -0.1000 2.2400
        vertex -0.0800 -0.1000 0.0400
        vertex 0.1600 -0.1000 0.1600
    endloop
endfacet
facet normal 0.0000 -1.0800 0.0000
    outer loop
        vertex 0.6400 -0.1000 -0.3200
        vertex 0.1600 -0.1000 0.1600
        vertex -0.0800 -0.1000 0.0400
    endloop
endfacet
facet normal 0.0000 -1.3500 0.0000
    outer loop
        vertex -0.0800 -0.1000 0.0400
        vertex 0.5200 -0.1000 -0.5600
        vertex 0.6400 -0.1000 -0.3200
    endloop
endfacet
facet normal 0.0000 -2.1000 0.0000
    outer loop
        vertex 2.0400 -0.1000 -0.3200
        vertex 0.6400 -0.1000 -0.3200
        vertex 0.5200 -0.1000 -0.5600
    endloop
endfacet
facet normal 0.0000 -1.9200 0.0000
    outer loop
        vertex 0.5200 -0.1000 -0.5600
        vertex 1.8000 -0.1000 -0.5600
        vertex 2.0400 -0.1000 -0.3200
    endloop
endfacet
facet normal 0.0000 -2.5200 0.0000
    outer loop
        vertex 2.0400 -0.1000 -2.0000
        vertex 2.0400 -0.1000 -0.3200
        vertex 1.8000 -0.1000 -0.5600
    endloop
endfacet
facet normal 0.0000 -2.5200 0.0000
    outer loop
        vertex 1.8000 -0.1000 -0.5600
        vertex 1.8000 -0.1000 -2.2400
        vertex 2.0400 -0.1000 -2.0000
    endloop
endfacet
facet normal 0.0000 -1.2000 0.0000
    outer loop
        vertex 2.8400 -0.1000 -2.0000
        vertex 2.0400 -0.1000 -2.0000
        vertex 1.8000 -0.1000 -2.2400
    endloop
endfacet
facet normal 0.0000 -1.9200 0.0000
    outer loop
        vertex 1.8000 -0.1000 -2.2400
        vertex 3.0800 -0.1000 -2.2400
        vertex 2.8400 -0.1000 -2.0000
    endloop
endfacet
facet normal 0.0000 -6.0000 0.0000
    outer loop
        vertex 2.8400 -0.1000 2.0000
        vertex 2.8400 -0.1000 -2.0000
        vertex 3.0800 -0.1000 -2.2400
    endloop
endfacet
facet normal 0.0000 -6.7200 0.0000
    outer loop
        vertex 3.0800 -0.1000 -2.2400
        vertex 3.0800 -0.1000 2.2400
        vertex 2.8400 -0.1000 2.0000
    endloop
endfacet
facet normal 0.0000 -1.2000 0.0000
    outer loop
        vertex 2.0400 -0.1000 2.0000
        vertex 2.8400 -0.1000 2.0000
        vertex 3.0800 -0.1000 2.2400
    endloop
endfacet
facet normal 0.0000 -1.9200 0.0000
    outer loop
        vertex 3.0800 -0.1000 2.2400
        vertex 1.8000 -0.1000 2.2400
        vertex 2.0400 -0.1000 2.0000
    endloop
endfacet
facet normal 0.0000 -2.1600 0.0000
    outer loop
        vertex 2.0400 -0.1000 0.5600
        vertex 2.0400 -0.1000 2.0000
        vertex 1.8000 -0.1000 2.2400
    endloop
endfacet
facet normal 0.0000 -2.1600 0.0000
    outer loop
        vertex 1.8000 -0.1000 2.2400
        vertex 1.8000 -0.1000 0.8000
        vertex 2.0400 -0.1000 0.5600
    endloop
endfacet
facet normal 0.0000 -1.5600 0.0000
    outer loop
        vertex 1.0000 -0.1000 0.5600
        vertex 2.0400 -0.1000 0.5600
        vertex 1.8000 -0.1000 0.8000
    endloop
endfacet
facet normal 0.0000 -0.8400 0.0000
    outer loop
        vertex 1.8000 -0.1000 0.8000
        vertex 1.2400 -0.1000 0.8000
        vertex 1.0000 -0.1000 0.5600
    endloop
endfacet
facet normal 0.0000 -2.1600 0.0000
    outer loop
        vertex 1.0000 -0.1000 2.0000
        vertex 1.0000 -0.1000 0.5600
        vertex 1.2400 -0.1000 0.8000
    endloop
endfacet
facet normal 0.0000 -2.1600 0.0000
    outer loop
        vertex 1.2400 -0.1000 0.8000
        vertex 1.2400 -0.1000 2.2400
        vertex 1.0000 -0.1000 2.0000
    endloop
endfacet
facet normal 0.0000 -9.4500 0.0000
    outer loop
        vertex 3.6800 -0.1000 2.0000
        vertex 3.6800 -0.1000 1.1600
        vertex 5.4800 -0.1000 1.1600
    endloop
endfacet
facet normal 0.0000 -11.5500 0.0000
    outer loop
        vertex 5.4800 -0.1000 1.1600
        vertex 5.8800 -0.1000 2.0000
        vertex 3.6800 -0.1000 2.0000
    endloop
endfacet
facet normal 0.0000 -3.1000 0.0000
    outer loop
        vertex 6.2800 -0.1000 1.6000
        vertex 5.8800 -0.1000 2.0000
        vertex 5.4800 -0.1000 1.1600
    endloop
endfacet
facet normal 0.0000 -3.6000 0.0000
    outer loop
        vertex 5.4800 -0.1000 1.1600
        vertex 5.4800 -0.1000 0.4400
        vertex 6.2800 -0.1000 1.6000
    endloop
endfacet
facet normal 0.0000 -7.6000 0.0000
    outer loop
        vertex 6.2800 -0.1000 0.0800
        vertex 6.2800 -0.1000 1.6000
        vertex 5.4800 -0.1000 0.4400
    endloop
endfacet
facet normal 0.0000 -3.4800 0.0000
    outer loop
        vertex 5.4800 -0.1000 0.4400
        vertex 5.8000 -0.1000 -0.4000
        vertex 6.2800 -0.1000 0.0800
    endloop
endfacet
facet normal 0.0000 -9.4500 0.0000
    outer loop
        vertex 5.8000 -0.1000 -0.4000
        vertex 5.4800 -0.1000 0.4400
        vertex 3.6800 -0.1000 0.4400
    endloop
endfacet
facet normal 0.0000 -6.9300 0.0000
    outer loop
        vertex 3.6800 -0.1000 0.4400
        vertex 4.4800 -0.1000 -0.4000
        vertex 5.8000 -0.1000 -0.4000
    endloop
endfacet
facet normal 0.0000 -12.2000 0.0000
    outer loop
        vertex 4.4800 -0.1000 -0.4000
        vertex 3.6800 -0.1000 0.4400
        vertex 3.6800 -0.1000 -2.0000
    endloop
endfacet
facet normal 0.0000 -3.6000 0.0000
    outer loop
        vertex 3.6800 -0.1000 -2.0000
        vertex 4.4800 -0.1000 -1.1200
        vertex 4.4800 -0.1000 -0.4000
    endloop
endfacet
facet normal 0.0000 -14.3000 0.0000
    outer loop
        vertex 4.4800 -0.1000 -1.1200
        vertex 3.6800 -0.1000 -2.0000
        vertex 6.2800 -0.1000 -2.0000
    endloop
endfacet
facet normal 0.0000 -9.9000 0.0000
    outer loop
        vertex 6.2800 -0.1000 -2.0000
        vertex 6.2800 -0.1000 -1.1200
        vertex 4.4800 -0.1000 -1.1200
    endloop
endfacet
facet normal 0.0000 -3.3000 0.0000
    outer loop
        vertex 3.4400 -0.1000 2.2400
        vertex 3.6800 -0.1000 2.0000
        vertex 5.8800 -0.1000 2.0000
    endloop
endfacet
facet normal 0.0000 -3.8400 0.0000
    outer loop
        vertex 5.8800 -0.1000 2.0000
        vertex 6.0000 -0.1000 2.2400
        vertex 3.4400 -0.1000 2.2400
    endloop
endfacet
facet normal 0.0000 -1.2600 0.0000
    outer loop
        vertex 3.6800 -0.1000 1.1600
        vertex 3.6800 -0.1000 2.0000
        vertex 3.4400 -0.1000 2.2400
    endloop
endfacet
facet normal 0.0000 -1.9800 0.0000
    outer loop
        vertex 3.4400 -0.1000 2.2400
        vertex 3.4400 -0.1000 0.9200
        vertex 3.6800 -0.1000 1.1600
    endloop
endfacet
facet normal 0.0000 -2.7000 0.0000
    outer loop
        vertex 5.4800 -0.1000 1.1600
        vertex 3.6800 -0.1000 1.1600
        vertex 3.4400 -0.1000 0.9200
    endloop
endfacet
facet normal 0.0000 -2.7000 0.0000
    outer loop
        vertex 3.4400 -0.1000 0.9200
        vertex 5.2400 -0.1000 0.9200
        vertex 5.4800 -0.1000 1.1600
    endloop
endfacet
facet normal 0.0000 -1.0800 0.0000
    outer loop
        vertex 5.4800 -0.1000 0.4400
        vertex 5.4800 -0.1000 1.1600
        vertex 5.2400 -0.1000 0.9200
    endloop
endfacet
facet normal 0.0000 -0.3600 0.0000
    outer loop
        vertex 5.2400 -0.1000 0.9200
        vertex 5.2400 -0.1000 0.6800
        vertex 5.4800 -0.1000 0.4400
    endloop
endfacet
facet normal 0.0000 -2.7000 0.0000
    outer loop
        vertex 3.6800 -0.1000 0.4400
        vertex 5.4800 -0.1000 0.4400
        vertex 5.2400 -0.1000 0.6800
    endloop
endfacet
facet normal 0.0000 -2.7000 0.0000
    outer loop
        vertex 5.2400 -0.1000 0.6800
        vertex 3.4400 -0.1000 0.6800
        vertex 3.6800 -0.1000 0.4400
    endloop
endfacet
facet normal 0.0000 -3.6600 0.0000
    outer loop
        vertex 3.6800 -0.1000 -2.0000
        vertex 3.6800 -0.1000 0.4400
        vertex 3.4400 -0.1000 0.6800
    endloop
endfacet
facet normal 0.0000 -4.3800 0.0000
    outer loop
        vertex 3.4400 -0.1000 0.6800
        vertex 3.4400 -0.1000 -2.2400
        vertex 3.6800 -0.1000 -2.0000
    endloop
endfacet
facet normal 0.0000 -3.9000 0.0000
    outer loop
        vertex 6.2800 -0.1000 -2.0000
        vertex 3.6800 -0.1000 -2.0000
        vertex 3.4400 -0.1000 -2.2400
    endloop
endfacet
facet normal 0.0000 -4.6200 0.0000
    outer loop
        vertex 3.4400 -0.1000 -2.2400
        vertex 6.5200 -0.1000 -2.2400
        vertex 6.2800 -0.1000 -2.0000
    endloop
endfacet
facet normal 0.0000 -1.3200 0.0000
    outer loop
        vertex 6.2800 -0.1000 -1.1200
        vertex 6.2800 -0.1000 -2.0000
        vertex 6.5200 -0.1000 -2.2400
    endloop
endfacet
facet normal 0.0000 -2.0400 0.0000
    outer loop
        vertex 6.5200 -0.1000 -2.2400
        vertex 6.5200 -0.1000 -0.8800
        vertex 6.2800 -0.1000 -1.1200
    endloop
endfacet
facet normal 0.0000 -2.7000 0.0000
    outer loop
        vertex 4.4800 -0.1000 -1.1200
        vertex 6.2800 -0.1000 -1.1200
        vertex 6.5200 -0.1000 -0.8800
    endloop
endfacet
facet normal 0.0000 -2.7000 0.0000
    outer loop
        vertex 6.5200 -0.1000 -0.8800
        vertex 4.7200 -0.1000 -0.8800
        vertex 4.4800 -0.1000 -1.1200
    endloop
endfacet
facet normal 0.0000 -1.0800 0.0000
    outer loop
        vertex 4.4800 -0.1000 -0.4000
        vertex 4.4800 -0.1000 -1.1200
        vertex 4.7200 -0.1000 -0.8800
    endloop
endfacet
facet normal 0.0000 -0.3600 0.0000
    outer loop
        vertex 4.7200 -0.1000 -0.8800
        vertex 4.7200 -0.1000 -0.6400
        vertex 4.4800 -0.1000 -0.4000
    endloop
endfacet
facet normal 0.0000 -1.9800 0.0000
    outer loop
        vertex 5.8000 -0.1000 -0.4000
        vertex 4.4800 -0.1000 -0.4000
        vertex 4.7200 -0.1000 -0.6400
    endloop
endfacet
facet normal 0.0000 -1.8600 0.0000
    outer loop
        vertex 4.7200 -0.1000 -0.6400
        vertex 5.9600 -0.1000 -0.6400
        vertex 5.8000 -0.1000 -0.4000
    endloop
endfacet
facet normal 0.0000 -1.2000 0.0000
    outer loop
        vertex 6.2800 -0.1000 0.0800
        vertex 5.8000 -0.1000 -0.4000
        vertex 5.9600 -0.1000 -0.6400
    endloop
endfacet
facet normal 0.0000 -1.4000 0.0000
    outer loop
        vertex 5.9600 -0.1000 -0.6400
        vertex 6.5200 -0.1000 -0.0800
        vertex 6.2800 -0.1000 0.0800
    endloop
endfacet
facet normal 0.0000 -2.2800 0.0000
    outer loop
        vertex 6.2800 -0.1000 1.6000
        vertex 6.2800 -0.1000 0.0800
        vertex 6.5200 -0.1000 -0.0800
    endloop
endfacet
facet normal 0.0000 -2.7000 0.0000
    outer loop
        vertex 6.5200 -0.1000 -0.0800
        vertex 6.5200 -0.1000 1.7200
        vertex 6.2800 -0.1000 1.6000
    endloop
endfacet
facet normal 0.0000 -0.9000 0.0000
    outer loop
        vertex 5.8800 -0.1000 2.0000
        vertex 6.2800 -0.1000 1.6000
        vertex 6.5200 -0.1000 1.7200
    endloop
endfacet
facet normal 0.0000 -1.1700 0.0000
    outer loop
        vertex 6.5200 -0.1000 1.7200
        vertex 6.0000 -0.1000 2.2400
        vertex 5.8800 -0.1000 2.0000
    endloop
endfacet
facet normal 0.0000 -205.2000 0.0000
    outer loop
        vertex -0.0800 -0.1000 2.2400
        vertex 7.6000 -0.1000 4.4000
        vertex -7.6000 -0.1000 4.4000
    endloop
endfacet
facet normal 0.0000 -12.4200 0.0000
    outer loop
        vertex -7.6000 -0.1000 4.4000
        vertex -1.0000 -0.1000 2.2400
        vertex -0.0800 -0.1000 2.2400
    endloop
endfacet
facet normal 0.0000 -26.4600 0.0000
    outer loop
        vertex -7.6000 -0.1000 4.4000
        vertex -2.9600 -0.1000 2.2400
        vertex -1.0000 -0.1000 2.2400
    endloop
endfacet
facet normal 0.0000 -12.4200 0.0000
    outer loop
        vertex -7.6000 -0.1000 4.4000
        vertex -3.8800 -0.1000 2.2400
        vertex -2.9600 -0.1000 2.2400
    endloop
endfacet
facet normal 0.0000 -36.1800 0.0000
    outer loop
        vertex -7.6000 -0.1000 4.4000
        vertex -6.5600 -0.1000 2.2400
        vertex -3.8800 -0.1000 2.2400
    endloop
endfacet
facet normal 0.0000 -8.3200 0.0000
    outer loop
        vertex -6.5600 -0.1000 0.9600
        vertex -6.5600 -0.1000 2.2400
        vertex -7.6000 -0.1000 4.4000
    endloop
endfacet
facet normal 0.0000 -57.2000 0.0000
    outer loop
        vertex -7.6000 -0.1000 4.4000
        vertex -7.6000 -0.1000 -4.4000
        vertex -6.5600 -0.1000 0.9600
    endloop
endfacet
facet normal 0.0000 -38.2200 0.0000
    outer loop
        vertex -6.5600 -0.1000 0.9600
        vertex -7.6000 -0.1000 -4.4000
        vertex -6.0400 -0.1000 -2.2400
    endloop
endfacet
facet normal 0.0000 -28.0000 0.0000
    outer loop
        vertex -6.0400 -0.1000 -2.2400
        vertex -5.1600 -0.1000 0.9600
        vertex -6.5600 -0.1000 0.9600
    endloop
endfacet
facet normal 0.0000 -17.8200 0.0000
    outer loop
        vertex -4.7200 -0.1000 -2.2400
        vertex -6.0400 -0.1000 -2.2400
        vertex -7.6000 -0.1000 -4.4000
    endloop
endfacet
facet normal 0.0000 -16.2000 0.0000
    outer loop
        vertex -3.5200 -0.1000 -2.2400
        vertex -4.7200 -0.1000 -2.2400
        vertex -7.6000 -0.1000 -4.4000
    endloop
endfacet
facet normal 0.0000 -10.5000 0.0000
    outer loop
        vertex -4.7200 -0.1000 -2.2400
        vertex -3.5200 -0.1000 -2.2400
        vertex -3.5200 -0.1000 -0.8400
    endloop
endfacet
facet normal 0.0000 -5.7500 0.0000
    outer loop
        vertex -3.5200 -0.1000 -0.8400
        vertex -3.5600 -0.1000 -0.1200
        vertex -4.7200 -0.1000 -2.2400
    endloop
endfacet
facet normal 0.0000 -2.2100 0.0000
    outer loop
        vertex -3.5600 -0.1000 -0.1200
        vertex -3.5200 -0.1000 -0.8400
        vertex -3.0400 -0.1000 -0.6400
    endloop
endfacet
facet normal 0.0000 -2.3000 0.0000
    outer loop
        vertex -3.0400 -0.1000 -0.6400
        vertex -3.5200 -0.1000 -0.8400
        vertex -1.6800 -0.1000 -0.8400
    endloop
endfacet
facet normal 0.0000 -1.7000 0.0000
    outer loop
        vertex -1.6800 -0.1000 -0.8400
        vertex -1.6800 -0.1000 -0.6400
        vertex -3.0400 -0.1000 -0.6400
    endloop
endfacet
facet normal 0.0000 -12.3600 0.0000
    outer loop
        vertex -3.8800 -0.1000 1.0000
        vertex -4.7200 -0.1000 -2.2400
        vertex -3.5600 -0.1000 -0.1200
    endloop
endfacet
facet normal 0.0000 -3.5200 0.0000
    outer loop
        vertex -3.5600 -0.1000 -0.1200
        vertex -3.5600 -0.1000 1.6400
        vertex -3.8800 -0.1000 1.0000
    endloop
endfacet
facet normal 0.0000 -2.4800 0.0000
    outer loop
        vertex -3.8800 -0.1000 2.2400
        vertex -3.8800 -0.1000 1.0000
        vertex -3.5600 -0.1000 1.6400
    endloop
endfacet
facet normal 0.0000 -3.4500 0.0000
    outer loop
        vertex -2.9600 -0.1000 2.2400
        vertex -3.8800 -0.1000 2.2400
        vertex -3.5600 -0.1000 1.6400
    endloop
endfacet
facet normal 0.0000 -34.0200 0.0000
    outer loop
        vertex -1.0000 -0.1000 -2.2400
        vertex -3.5200 -0.1000 -2.2400
        vertex -7.6000 -0.1000 -4.4000
    endloop
endfacet
facet normal 0.0000 -205.2000 0.0000
    outer loop
        vertex -7.6000 -0.1000 -4.4000
        vertex 7.6000 -0.1000 -4.4000
        vertex -1.0000 -0.1000 -2.2400
    endloop
endfacet
facet normal 0.0000 -37.8000 0.0000
    outer loop
        vertex -1.0000 -0.1000 -2.2400
        vertex 7.6000 -0.1000 -4.4000
        vertex 1.8000 -0.1000 -2.2400
    endloop
endfacet
facet normal 0.0000 -11.2000 0.0000
    outer loop
        vertex 1.8000 -0.1000 -2.2400
        vertex -0.3600 -0.1000 -1.6000
        vertex -1.0000 -0.1000 -2.2400
    endloop
endfacet
facet normal 0.0000 -17.5600 0.0000
    outer loop
        vertex 0.5200 -0.1000 -0.5600
        vertex -0.3600 -0.1000 -1.6000
        vertex 1.8000 -0.1000 -2.2400
    endloop
endfacet
facet normal 0.0000 -13.4400 0.0000
    outer loop
        vertex 1.8000 -0.1000 -2.2400
        vertex 1.8000 -0.1000 -0.5600
        vertex 0.5200 -0.1000 -0.5600
    endloop
endfacet
facet normal 0.0000 -7.2000 0.0000
    outer loop
        vertex -0.0800 -0.1000 0.0400
        vertex -0.3600 -0.1000 -1.6000
        vertex 0.5200 -0.1000 -0.5600
    endloop
endfacet
facet normal 0.0000 -5.6000 0.0000
    outer loop
        vertex -0.3600 -0.1000 1.6000
        vertex -0.3600 -0.1000 -1.6000
        vertex -0.0800 -0.1000 0.0400
    endloop
endfacet
facet normal 0.0000 -3.8500 0.0000
    outer loop
        vertex -0.0800 -0.1000 0.0400
        vertex -0.0800 -0.1000 2.2400
        vertex -0.3600 -0.1000 1.6000
    endloop
endfacet
facet normal 0.0000 -3.6800 0.0000
    outer loop
        vertex -0.0800 -0.1000 2.2400
        vertex -1.0000 -0.1000 2.2400
        vertex -0.3600 -0.1000 1.6000
    endloop
endfacet
facet normal 0.0000 -17.2800 0.0000
    outer loop
        vertex 3.0800 -0.1000 -2.2400
        vertex 1.8000 -0.1000 -2.2400
        vertex 7.6000 -0.1000 -4.4000
    endloop
endfacet
facet normal 0.0000 -4.8600 0.0000
    outer loop
        vertex 3.4400 -0.1000 -2.2400
        vertex 3.0800 -0.1000 -2.2400
        vertex 7.6000 -0.1000 -4.4000
    endloop
endfacet
facet normal 0.0000 -41.5800 0.0000
    outer loop
        vertex 6.5200 -0.1000 -2.2400
        vertex 3.4400 -0.1000 -2.2400
        vertex 7.6000 -0.1000 -4.4000
    endloop
endfacet
facet normal 0.0000 -9.1800 0.0000
    outer loop
        vertex 6.5200 -0.1000 -0.8800
        vertex 6.5200 -0.1000 -2.2400
        vertex 7.6000 -0.1000 -4.4000
    endloop
endfacet
facet normal 0.0000 -5.4000 0.0000
    outer loop
        vertex 6.5200 -0.1000 -0.0800
        vertex 6.5200 -0.1000 -0.8800
        vertex 7.6000 -0.1000 -4.4000
    endloop
endfacet
facet normal 0.0000 -59.4000 0.0000
    outer loop
        vertex 7.6000 -0.1000 -4.4000
        vertex 7.6000 -0.1000 4.4000
        vertex 6.5200 -0.1000 -0.0800
    endloop
endfacet
facet normal 0.0000 -2.8000 0.0000
    outer loop
        vertex 6.5200 -0.1000 -0.0800
        vertex 5.9600 -0.1000 -0.6400
        vertex 6.5200 -0.1000 -0.8800
    endloop
endfacet
facet normal 0.0000 -2.7000 0.0000
    outer loop
        vertex 4.7200 -0.1000 -0.8800
        vertex 6.5200 -0.1000 -0.8800
        vertex 5.9600 -0.1000 -0.6400
    endloop
endfacet
facet normal 0.0000 -1.8600 0.0000
    outer loop
        vertex 5.9600 -0.1000 -0.6400
        vertex 4.7200 -0.1000 -0.6400
        vertex 4.7200 -0.1000 -0.8800
    endloop
endfacet
facet normal 0.0000 -12.1500 0.0000
    outer loop
        vertex 7.6000 -0.1000 4.4000
        vertex 6.5200 -0.1000 1.7200
        vertex 6.5200 -0.1000 -0.0800
    endloop
endfacet
facet normal 0.0000 -12.2200 0.0000
    outer loop
        vertex 7.6000 -0.1000 4.4000
        vertex 6.0000 -0.1000 2.2400
        vertex 6.5200 -0.1000 1.7200
    endloop
endfacet
facet normal 0.0000 -34.5600 0.0000
    outer loop
        vertex 7.6000 -0.1000 4.4000
        vertex 3.4400 -0.1000 2.2400
        vertex 6.0000 -0.1000 2.2400
    endloop
endfacet
facet normal 0.0000 -4.8600 0.0000
    outer loop
        vertex 7.6000 -0.1000 4.4000
        vertex 3.0800 -0.1000 2.2400
        vertex 3.4400 -0.1000 2.2400
    endloop
endfacet
facet normal 0.0000 -2.9700 0.0000
    outer loop
        vertex 3.4400 -0.1000 2.2400
        vertex 3.0800 -0.1000 2.2400
        vertex 3.4400 -0.1000 0.9200
    endloop
endfacet
facet normal 0.0000 -0.5400 0.0000
    outer loop
        vertex 3.4400 -0.1000 0.6800
        vertex 3.4400 -0.1000 0.9200
        vertex 3.0800 -0.1000 2.2400
    endloop
endfacet
facet normal 0.0000 -10.0800 0.0000
    outer loop
        vertex 3.0800 -0.1000 2.2400
        vertex 3.0800 -0.1000 -2.2400
        vertex 3.4400 -0.1000 0.6800
    endloop
endfacet
facet normal 0.0000 -2.7000 0.0000
    outer loop
        vertex 3.4400 -0.1000 0.9200
        vertex 3.4400 -0.1000 0.6800
        vertex 5.2400 -0.1000 0.6800
    endloop
endfacet
facet normal 0.0000 -2.7000 0.0000
    outer loop
        vertex 5.2400 -0.1000 0.6800
        vertex 5.2400 -0.1000 0.9200
        vertex 3.4400 -0.1000 0.9200
    endloop
endfacet
facet normal 0.0000 -6.5700 0.0000
    outer loop
        vertex 3.4400 -0.1000 0.6800
        vertex 3.0800 -0.1000 -2.2400
        vertex 3.4400 -0.1000 -2.2400
    endloop
endfacet
facet normal 0.0000 -17.2800 0.0000
    outer loop
        vertex 7.6000 -0.1000 4.4000
        vertex 1.8000 -0.1000 2.2400
        vertex 3.0800 -0.1000 2.2400
    endloop
endfacet
facet normal 0.0000 -7.5600 0.0000
    outer loop
        vertex 7.6000 -0.1000 4.4000
        vertex 1.2400 -0.1000 2.2400
        vertex 1.8000 -0.1000 2.2400
    endloop
endfacet
facet normal 0.0000 -5.0400 0.0000
    outer loop
        vertex 1.8000 -0.1000 2.2400
        vertex 1.2400 -0.1000 2.2400
        vertex 1.2400 -0.1000 0.8000
    endloop
endfacet
facet normal 0.0000 -5.0400 0.0000
    outer loop
        vertex 1.2400 -0.1000 0.8000
        vertex 1.8000 -0.1000 0.8000
        vertex 1.8000 -0.1000 2.2400
    endloop
endfacet
facet normal 0.0000 -17.8200 0.0000
    outer loop
        vertex 7.6000 -0.1000 4.4000
        vertex -0.0800 -0.1000 2.2400
        vertex 1.2400 -0.1000 2.2400
    endloop
endfacet
endsolid GiantLegoRocks
