solid GiantLegoRocks
facet normal 0.0000 0.7500 0.0000
    outer loop
        vertex 7.2000 0.0000 2.8000
        vertex 7.2000 0.0000 -2.8000
        vertex -7.2000 0.0000 -2.8000
    endloop
endfacet
facet normal 0.0000 0.7500 0.0000
    outer loop
        vertex -7.2000 0.0000 -2.8000
        vertex -7.2000 0.0000 2.8000
        vertex 7.2000 0.0000 2.8000
    endloop
endfacet
facet normal 0.0000 -0.2500 14.0000
    outer loop
        vertex -7.2000 -0.1000 2.8000
        vertex 7.2000 -0.1000 2.8000
        vertex 7.2000 0.0000 2.8000
    endloop
endfacet
facet normal 0.0000 -0.2500 14.0000
    outer loop
        vertex 7.2000 0.0000 2.8000
        vertex -7.2000 0.0000 2.8000
        vertex -7.2000 -0.1000 2.8000
    endloop
endfacet
facet normal -36.0000 -0.2500 0.0000
    outer loop
        vertex -7.2000 -0.1000 -2.8000
        vertex -7.2000 -0.1000 2.8000
        vertex -7.2000 0.0000 2.8000
    endloop
endfacet
facet normal -36.0000 -0.2500 0.0000
    outer loop
        vertex -7.2000 0.0000 2.8000
        vertex -7.2000 0.0000 -2.8000
        vertex -7.2000 -0.1000 -2.8000
    endloop
endfacet
facet normal 0.0000 -0.2500 -14.0000
    outer loop
        vertex 7.2000 -0.1000 -2.8000
        vertex -7.2000 -0.1000 -2.8000
        vertex -7.2000 0.0000 -2.8000
    endloop
endfacet
facet normal 0.0000 -0.2500 -14.0000
    outer loop
        vertex -7.2000 0.0000 -2.8000
        vertex 7.2000 0.0000 -2.8000
        vertex 7.2000 -0.1000 -2.8000
    endloop
endfacet
facet normal 36.0000 -0.2500 0.0000
    outer loop
        vertex 7.2000 -0.1000 2.8000
        vertex 7.2000 -0.1000 -2.8000
        vertex 7.2000 0.0000 -2.8000
    endloop
endfacet
facet normal 36.0000 -0.2500 0.0000
    outer loop
        vertex 7.2000 0.0000 -2.8000
        vertex 7.2000 0.0000 2.8000
        vertex 7.2000 -0.1000 2.8000
    endloop
endfacet
facet normal 0.0000 -1.0493 0.0000
    outer loop
        vertex -5.9648 -0.1000 0.8448
        vertex -5.9648 -0.1000 0.2776
        vertex -5.6688 -0.1000 0.3984
    endloop
endfacet
facet normal 0.0000 -0.9266 0.0000
    outer loop
        vertex -5.6688 -0.1000 0.3984
        vertex -5.7096 -0.1000 0.9608
        vertex -5.9648 -0.1000 0.8448
    endloop
endfacet
facet normal 0.0000 -0.9865 0.0000
    outer loop
        vertex -5.7096 -0.1000 0.9608
        vertex -5.6688 -0.1000 0.3984
        vertex -5.3996 -0.1000 0.5564
    endloop
endfacet
facet normal 0.0000 -0.9899 0.0000
    outer loop
        vertex -5.3996 -0.1000 0.5564
        vertex -5.1576 -0.1000 0.7516
        vertex -5.7096 -0.1000 0.9608
    endloop
endfacet
facet normal 0.0000 -1.0081 0.0000
    outer loop
        vertex -5.4336 -0.1000 1.1484
        vertex -5.7096 -0.1000 0.9608
        vertex -5.1576 -0.1000 0.7516
    endloop
endfacet
facet normal 0.0000 -12.7775 0.0000
    outer loop
        vertex -5.1576 -0.1000 0.7516
        vertex -4.5324 -0.1000 -1.6000
        vertex -4.5324 -0.1000 1.6700
    endloop
endfacet
facet normal 0.0000 -2.6913 0.0000
    outer loop
        vertex -4.5324 -0.1000 1.6700
        vertex -5.1916 -0.1000 1.3904
        vertex -5.1576 -0.1000 0.7516
    endloop
endfacet
facet normal 0.0000 -1.0176 0.0000
    outer loop
        vertex -5.1916 -0.1000 1.3904
        vertex -5.4336 -0.1000 1.1484
        vertex -5.1576 -0.1000 0.7516
    endloop
endfacet
facet normal 0.0000 -0.8863 0.0000
    outer loop
        vertex -4.5324 -0.1000 1.6700
        vertex -5.0396 -0.1000 1.6700
        vertex -5.1916 -0.1000 1.3904
    endloop
endfacet
facet normal 0.0000 -9.1889 0.0000
    outer loop
        vertex -5.1576 -0.1000 0.7516
        vertex -5.1576 -0.1000 -1.6000
        vertex -4.5324 -0.1000 -1.6000
    endloop
endfacet
facet normal 0.0000 -0.9767 0.0000
    outer loop
        vertex -3.4412 -0.1000 -1.0712
        vertex -3.3140 -0.1000 -1.2896
        vertex -2.8948 -0.1000 -0.7808
    endloop
endfacet
facet normal 0.0000 -1.1552 0.0000
    outer loop
        vertex -2.8948 -0.1000 -0.7808
        vertex -3.5320 -0.1000 -0.7812
        vertex -3.4412 -0.1000 -1.0712
    endloop
endfacet
facet normal 0.0000 -1.4452 0.0000
    outer loop
        vertex -2.9380 -0.1000 -0.4768
        vertex -3.5868 -0.1000 -0.4200
        vertex -3.5320 -0.1000 -0.7812
    endloop
endfacet
facet normal 0.0000 -1.2108 0.0000
    outer loop
        vertex -3.5320 -0.1000 -0.7812
        vertex -2.8948 -0.1000 -0.7808
        vertex -2.9380 -0.1000 -0.4768
    endloop
endfacet
facet normal 0.0000 -1.0169 0.0000
    outer loop
        vertex -3.3140 -0.1000 -1.2896
        vertex -3.0996 -0.1000 -1.4928
        vertex -2.7488 -0.1000 -1.0664
    endloop
endfacet
facet normal 0.0000 -1.2126 0.0000
    outer loop
        vertex -2.7488 -0.1000 -1.0664
        vertex -2.8948 -0.1000 -0.7808
        vertex -3.3140 -0.1000 -1.2896
    endloop
endfacet
facet normal 0.0000 -0.9589 0.0000
    outer loop
        vertex -2.5476 -0.1000 -1.1376
        vertex -2.8440 -0.1000 -1.6144
        vertex -2.5476 -0.1000 -1.6552
    endloop
endfacet
facet normal 0.0000 -0.9459 0.0000
    outer loop
        vertex -2.5476 -0.1000 -1.6552
        vertex -2.2552 -0.1000 -1.6180
        vertex -2.5476 -0.1000 -1.1376
    endloop
endfacet
facet normal 0.0000 -0.7315 0.0000
    outer loop
        vertex -2.8440 -0.1000 -1.6144
        vertex -2.5476 -0.1000 -1.1376
        vertex -2.7488 -0.1000 -1.0664
    endloop
endfacet
facet normal 0.0000 -0.9478 0.0000
    outer loop
        vertex -2.7488 -0.1000 -1.0664
        vertex -3.0996 -0.1000 -1.4928
        vertex -2.8440 -0.1000 -1.6144
    endloop
endfacet
facet normal 0.0000 -1.9543 0.0000
    outer loop
        vertex -3.5868 -0.1000 -0.4200
        vertex -2.9380 -0.1000 -0.4768
        vertex -2.9524 -0.1000 0.0064
    endloop
endfacet
facet normal 0.0000 -1.7656 0.0000
    outer loop
        vertex -2.9524 -0.1000 0.0064
        vertex -3.6048 -0.1000 0.0132
        vertex -3.5868 -0.1000 -0.4200
    endloop
endfacet
facet normal 0.0000 -1.1780 0.0000
    outer loop
        vertex -3.4252 -0.1000 1.1024
        vertex -3.5248 -0.1000 0.8036
        vertex -2.8880 -0.1000 0.8216
    endloop
endfacet
facet normal 0.0000 -1.0327 0.0000
    outer loop
        vertex -2.8880 -0.1000 0.8216
        vertex -3.2852 -0.1000 1.3368
        vertex -3.4252 -0.1000 1.1024
    endloop
endfacet
facet normal 0.0000 -1.4300 0.0000
    outer loop
        vertex -2.9240 -0.1000 0.6232
        vertex -3.5248 -0.1000 0.8036
        vertex -3.5848 -0.1000 0.4408
    endloop
endfacet
facet normal 0.0000 -1.0975 0.0000
    outer loop
        vertex -3.5848 -0.1000 0.4408
        vertex -2.9452 -0.1000 0.3516
        vertex -2.9240 -0.1000 0.6232
    endloop
endfacet
facet normal 0.0000 -0.9394 0.0000
    outer loop
        vertex -3.0856 -0.1000 1.5220
        vertex -3.2852 -0.1000 1.3368
        vertex -2.7500 -0.1000 1.0804
    endloop
endfacet
facet normal 0.0000 -0.9103 0.0000
    outer loop
        vertex -2.7500 -0.1000 1.0804
        vertex -2.8400 -0.1000 1.6328
        vertex -3.0856 -0.1000 1.5220
    endloop
endfacet
facet normal 0.0000 -1.7205 0.0000
    outer loop
        vertex -2.9452 -0.1000 0.3516
        vertex -3.5848 -0.1000 0.4408
        vertex -3.6048 -0.1000 0.0132
    endloop
endfacet
facet normal 0.0000 -1.4079 0.0000
    outer loop
        vertex -3.6048 -0.1000 0.0132
        vertex -2.9524 -0.1000 0.0064
        vertex -2.9452 -0.1000 0.3516
    endloop
endfacet
facet normal 0.0000 -0.7393 0.0000
    outer loop
        vertex -2.8400 -0.1000 1.6328
        vertex -2.7500 -0.1000 1.0804
        vertex -2.5476 -0.1000 1.1524
    endloop
endfacet
facet normal 0.0000 -0.9459 0.0000
    outer loop
        vertex -2.5476 -0.1000 1.1524
        vertex -2.5476 -0.1000 1.6700
        vertex -2.8400 -0.1000 1.6328
    endloop
endfacet
facet normal 0.0000 -1.0868 0.0000
    outer loop
        vertex -3.2852 -0.1000 1.3368
        vertex -2.8880 -0.1000 0.8216
        vertex -2.7500 -0.1000 1.0804
    endloop
endfacet
facet normal 0.0000 -0.7856 0.0000
    outer loop
        vertex -2.8880 -0.1000 0.8216
        vertex -3.5248 -0.1000 0.8036
        vertex -2.9240 -0.1000 0.6232
    endloop
endfacet
facet normal 0.0000 -1.0855 0.0000
    outer loop
        vertex -2.2072 -0.1000 -0.8064
        vertex -2.3448 -0.1000 -1.0652
        vertex -1.8100 -0.1000 -1.3216
    endloop
endfacet
facet normal 0.0000 -1.0327 0.0000
    outer loop
        vertex -1.8100 -0.1000 -1.3216
        vertex -1.6700 -0.1000 -1.0872
        vertex -2.2072 -0.1000 -0.8064
    endloop
endfacet
facet normal 0.0000 -0.7412 0.0000
    outer loop
        vertex -2.3448 -0.1000 -1.0652
        vertex -2.5476 -0.1000 -1.1376
        vertex -2.2552 -0.1000 -1.6180
    endloop
endfacet
facet normal 0.0000 -0.9108 0.0000
    outer loop
        vertex -2.2552 -0.1000 -1.6180
        vertex -2.0096 -0.1000 -1.5068
        vertex -2.3448 -0.1000 -1.0652
    endloop
endfacet
facet normal 0.0000 -0.7795 0.0000
    outer loop
        vertex -1.5700 -0.1000 -0.7876
        vertex -2.1712 -0.1000 -0.6096
        vertex -2.2072 -0.1000 -0.8064
    endloop
endfacet
facet normal 0.0000 -1.1814 0.0000
    outer loop
        vertex -2.2072 -0.1000 -0.8064
        vertex -1.6700 -0.1000 -1.0872
        vertex -1.5700 -0.1000 -0.7876
    endloop
endfacet
facet normal 0.0000 -1.0939 0.0000
    outer loop
        vertex -1.5100 -0.1000 -0.4232
        vertex -2.1496 -0.1000 -0.3388
        vertex -2.1712 -0.1000 -0.6096
    endloop
endfacet
facet normal 0.0000 -1.4360 0.0000
    outer loop
        vertex -2.1712 -0.1000 -0.6096
        vertex -1.5700 -0.1000 -0.7876
        vertex -1.5100 -0.1000 -0.4232
    endloop
endfacet
facet normal 0.0000 -1.4076 0.0000
    outer loop
        vertex -1.4900 -0.1000 0.0064
        vertex -2.1424 -0.1000 0.0064
        vertex -2.1496 -0.1000 -0.3388
    endloop
endfacet
facet normal 0.0000 -1.7279 0.0000
    outer loop
        vertex -2.1496 -0.1000 -0.3388
        vertex -1.5100 -0.1000 -0.4232
        vertex -1.4900 -0.1000 0.0064
    endloop
endfacet
facet normal 0.0000 -0.9389 0.0000
    outer loop
        vertex -2.3448 -0.1000 -1.0652
        vertex -2.0096 -0.1000 -1.5068
        vertex -1.8100 -0.1000 -1.3216
    endloop
endfacet
facet normal 0.0000 -1.1944 0.0000
    outer loop
        vertex -2.3460 -0.1000 1.0804
        vertex -2.2004 -0.1000 0.7936
        vertex -1.8076 -0.1000 1.3324
    endloop
endfacet
facet normal 0.0000 -0.9475 0.0000
    outer loop
        vertex -1.8076 -0.1000 1.3324
        vertex -2.0084 -0.1000 1.5200
        vertex -2.3460 -0.1000 1.0804
    endloop
endfacet
facet normal 0.0000 -0.9152 0.0000
    outer loop
        vertex -2.3460 -0.1000 1.0804
        vertex -2.0084 -0.1000 1.5200
        vertex -2.2552 -0.1000 1.6324
    endloop
endfacet
facet normal 0.0000 -0.7364 0.0000
    outer loop
        vertex -2.2552 -0.1000 1.6324
        vertex -2.5476 -0.1000 1.1524
        vertex -2.3460 -0.1000 1.0804
    endloop
endfacet
facet normal 0.0000 -0.9459 0.0000
    outer loop
        vertex -2.5476 -0.1000 1.6700
        vertex -2.5476 -0.1000 1.1524
        vertex -2.2552 -0.1000 1.6324
    endloop
endfacet
facet normal 0.0000 -1.2005 0.0000
    outer loop
        vertex -1.5696 -0.1000 0.8008
        vertex -2.2004 -0.1000 0.7936
        vertex -2.1568 -0.1000 0.4896
    endloop
endfacet
facet normal 0.0000 -1.4518 0.0000
    outer loop
        vertex -2.1568 -0.1000 0.4896
        vertex -1.5100 -0.1000 0.4368
        vertex -1.5696 -0.1000 0.8008
    endloop
endfacet
facet normal 0.0000 -1.1825 0.0000
    outer loop
        vertex -2.2004 -0.1000 0.7936
        vertex -1.5696 -0.1000 0.8008
        vertex -1.6688 -0.1000 1.0996
    endloop
endfacet
facet normal 0.0000 -1.0389 0.0000
    outer loop
        vertex -1.6688 -0.1000 1.0996
        vertex -1.8076 -0.1000 1.3324
        vertex -2.2004 -0.1000 0.7936
    endloop
endfacet
facet normal 0.0000 -1.9486 0.0000
    outer loop
        vertex -1.5100 -0.1000 0.4368
        vertex -2.1568 -0.1000 0.4896
        vertex -2.1424 -0.1000 0.0064
    endloop
endfacet
facet normal 0.0000 -1.7550 0.0000
    outer loop
        vertex -2.1424 -0.1000 0.0064
        vertex -1.4900 -0.1000 0.0064
        vertex -1.5100 -0.1000 0.4368
    endloop
endfacet
facet normal 0.0000 -1.0493 0.0000
    outer loop
        vertex -0.9048 -0.1000 0.8448
        vertex -0.9048 -0.1000 0.2776
        vertex -0.6088 -0.1000 0.3984
    endloop
endfacet
facet normal 0.0000 -0.9266 0.0000
    outer loop
        vertex -0.6088 -0.1000 0.3984
        vertex -0.6496 -0.1000 0.9608
        vertex -0.9048 -0.1000 0.8448
    endloop
endfacet
facet normal 0.0000 -0.9865 0.0000
    outer loop
        vertex -0.6496 -0.1000 0.9608
        vertex -0.6088 -0.1000 0.3984
        vertex -0.3396 -0.1000 0.5564
    endloop
endfacet
facet normal 0.0000 -0.9899 0.0000
    outer loop
        vertex -0.3396 -0.1000 0.5564
        vertex -0.0976 -0.1000 0.7516
        vertex -0.6496 -0.1000 0.9608
    endloop
endfacet
facet normal 0.0000 -1.0081 0.0000
    outer loop
        vertex -0.3736 -0.1000 1.1484
        vertex -0.6496 -0.1000 0.9608
        vertex -0.0976 -0.1000 0.7516
    endloop
endfacet
facet normal 0.0000 -12.7775 0.0000
    outer loop
        vertex -0.0976 -0.1000 0.7516
        vertex 0.5276 -0.1000 -1.6000
        vertex 0.5276 -0.1000 1.6700
    endloop
endfacet
facet normal 0.0000 -2.6913 0.0000
    outer loop
        vertex 0.5276 -0.1000 1.6700
        vertex -0.1316 -0.1000 1.3904
        vertex -0.0976 -0.1000 0.7516
    endloop
endfacet
facet normal 0.0000 -1.0176 0.0000
    outer loop
        vertex -0.1316 -0.1000 1.3904
        vertex -0.3736 -0.1000 1.1484
        vertex -0.0976 -0.1000 0.7516
    endloop
endfacet
facet normal 0.0000 -0.8863 0.0000
    outer loop
        vertex 0.5276 -0.1000 1.6700
        vertex 0.0204 -0.1000 1.6700
        vertex -0.1316 -0.1000 1.3904
    endloop
endfacet
facet normal 0.0000 -9.1889 0.0000
    outer loop
        vertex -0.0976 -0.1000 0.7516
        vertex -0.0976 -0.1000 -1.6000
        vertex 0.5276 -0.1000 -1.6000
    endloop
endfacet
facet normal 0.0000 -1.5947 0.0000
    outer loop
        vertex 2.0776 -0.1000 -0.7776
        vertex 1.4724 -0.1000 -0.7776
        vertex 1.5816 -0.1000 -1.1992
    endloop
endfacet
facet normal 0.0000 -1.1517 0.0000
    outer loop
        vertex 1.5816 -0.1000 -1.1992
        vertex 2.1928 -0.1000 -1.0512
        vertex 2.0776 -0.1000 -0.7776
    endloop
endfacet
facet normal 0.0000 -0.9207 0.0000
    outer loop
        vertex 2.1472 -0.1000 0.1072
        vertex 1.5340 -0.1000 0.0160
        vertex 1.6888 -0.1000 -0.2012
    endloop
endfacet
facet normal 0.0000 -1.2254 0.0000
    outer loop
        vertex 1.6888 -0.1000 -0.2012
        vertex 1.9940 -0.1000 -0.4236
        vertex 2.1472 -0.1000 0.1072
    endloop
endfacet
facet normal 0.0000 -1.1501 0.0000
    outer loop
        vertex 2.1928 -0.1000 -1.0512
        vertex 1.5816 -0.1000 -1.1992
        vertex 1.7744 -0.1000 -1.4536
    endloop
endfacet
facet normal 0.0000 -1.0847 0.0000
    outer loop
        vertex 1.7744 -0.1000 -1.4536
        vertex 2.0468 -0.1000 -1.6064
        vertex 2.1928 -0.1000 -1.0512
    endloop
endfacet
facet normal 0.0000 -0.9360 0.0000
    outer loop
        vertex 2.4392 -0.1000 -1.1400
        vertex 2.1928 -0.1000 -1.0512
        vertex 2.0468 -0.1000 -1.6064
    endloop
endfacet
facet normal 0.0000 -1.1318 0.0000
    outer loop
        vertex 2.0468 -0.1000 -1.6064
        vertex 2.3920 -0.1000 -1.6576
        vertex 2.4392 -0.1000 -1.1400
    endloop
endfacet
facet normal 0.0000 -1.1733 0.0000
    outer loop
        vertex 2.4584 -0.1000 -0.0400
        vertex 2.1472 -0.1000 0.1072
        vertex 1.9940 -0.1000 -0.4236
    endloop
endfacet
facet normal 0.0000 -1.0731 0.0000
    outer loop
        vertex 1.9940 -0.1000 -0.4236
        vertex 2.3520 -0.1000 -0.4976
        vertex 2.4584 -0.1000 -0.0400
    endloop
endfacet
facet normal 0.0000 -0.7800 0.0000
    outer loop
        vertex 1.5340 -0.1000 0.0160
        vertex 2.1472 -0.1000 0.1072
        vertex 2.0536 -0.1000 0.2968
    endloop
endfacet
facet normal 0.0000 -0.9975 0.0000
    outer loop
        vertex 2.0536 -0.1000 0.2968
        vertex 1.4408 -0.1000 0.2728
        vertex 1.5340 -0.1000 0.0160
    endloop
endfacet
facet normal 0.0000 -1.0369 0.0000
    outer loop
        vertex 2.0512 -0.1000 0.8364
        vertex 1.5408 -0.1000 1.1440
        vertex 1.4428 -0.1000 0.8780
    endloop
endfacet
facet normal 0.0000 -1.0220 0.0000
    outer loop
        vertex 1.4428 -0.1000 0.8780
        vertex 2.0224 -0.1000 0.5696
        vertex 2.0512 -0.1000 0.8364
    endloop
endfacet
facet normal 0.0000 -1.1804 0.0000
    outer loop
        vertex 2.0224 -0.1000 0.5696
        vertex 1.4428 -0.1000 0.8780
        vertex 1.4100 -0.1000 0.5696
    endloop
endfacet
facet normal 0.0000 -1.1360 0.0000
    outer loop
        vertex 1.4100 -0.1000 0.5696
        vertex 1.4408 -0.1000 0.2728
        vertex 2.0224 -0.1000 0.5696
    endloop
endfacet
facet normal 0.0000 -0.9623 0.0000
    outer loop
        vertex 1.7044 -0.1000 1.3672
        vertex 1.5408 -0.1000 1.1440
        vertex 2.1368 -0.1000 1.0160
    endloop
endfacet
facet normal 0.0000 -0.9237 0.0000
    outer loop
        vertex 2.1368 -0.1000 1.0160
        vertex 1.9184 -0.1000 1.5352
        vertex 1.7044 -0.1000 1.3672
    endloop
endfacet
facet normal 0.0000 -1.0495 0.0000
    outer loop
        vertex 2.0224 -0.1000 0.5696
        vertex 1.4408 -0.1000 0.2728
        vertex 2.0536 -0.1000 0.2968
    endloop
endfacet
facet normal 0.0000 -1.0898 0.0000
    outer loop
        vertex 2.1684 -0.1000 1.6364
        vertex 2.1368 -0.1000 1.0160
        vertex 2.4248 -0.1000 1.1524
    endloop
endfacet
facet normal 0.0000 -0.9190 0.0000
    outer loop
        vertex 2.4248 -0.1000 1.1524
        vertex 2.4544 -0.1000 1.6700
        vertex 2.1684 -0.1000 1.6364
    endloop
endfacet
facet normal 0.0000 -0.9494 0.0000
    outer loop
        vertex 2.1684 -0.1000 1.6364
        vertex 1.9184 -0.1000 1.5352
        vertex 2.1368 -0.1000 1.0160
    endloop
endfacet
facet normal 0.0000 -0.7375 0.0000
    outer loop
        vertex 1.5408 -0.1000 1.1440
        vertex 2.0512 -0.1000 0.8364
        vertex 2.1368 -0.1000 1.0160
    endloop
endfacet
facet normal 0.0000 -1.2889 0.0000
    outer loop
        vertex 2.7240 -0.1000 -1.6136
        vertex 2.7676 -0.1000 -0.9620
        vertex 2.4392 -0.1000 -1.1400
    endloop
endfacet
facet normal 0.0000 -1.0610 0.0000
    outer loop
        vertex 2.4392 -0.1000 -1.1400
        vertex 2.3920 -0.1000 -1.6576
        vertex 2.7240 -0.1000 -1.6136
    endloop
endfacet
facet normal 0.0000 -1.1271 0.0000
    outer loop
        vertex 3.3988 -0.1000 -1.0332
        vertex 2.8784 -0.1000 -0.6888
        vertex 2.7676 -0.1000 -0.9620
    endloop
endfacet
facet normal 0.0000 -0.9671 0.0000
    outer loop
        vertex 2.7676 -0.1000 -0.9620
        vertex 3.2540 -0.1000 -1.2620
        vertex 3.3988 -0.1000 -1.0332
    endloop
endfacet
facet normal 0.0000 -0.9227 0.0000
    outer loop
        vertex 2.6756 -0.1000 -0.4292
        vertex 2.9404 -0.1000 -0.2240
        vertex 2.4584 -0.1000 -0.0400
    endloop
endfacet
facet normal 0.0000 -0.8800 0.0000
    outer loop
        vertex 2.4584 -0.1000 -0.0400
        vertex 2.3520 -0.1000 -0.4976
        vertex 2.6756 -0.1000 -0.4292
    endloop
endfacet
facet normal 0.0000 -1.1337 0.0000
    outer loop
        vertex 2.7676 -0.1000 -0.9620
        vertex 2.7240 -0.1000 -1.6136
        vertex 3.0112 -0.1000 -1.4816
    endloop
endfacet
facet normal 0.0000 -1.1228 0.0000
    outer loop
        vertex 3.0112 -0.1000 -1.4816
        vertex 3.2540 -0.1000 -1.2620
        vertex 2.7676 -0.1000 -0.9620
    endloop
endfacet
facet normal 0.0000 -1.1688 0.0000
    outer loop
        vertex 2.8784 -0.1000 -0.6888
        vertex 3.3988 -0.1000 -1.0332
        vertex 3.5024 -0.1000 -0.7424
    endloop
endfacet
facet normal 0.0000 -1.3983 0.0000
    outer loop
        vertex 3.5024 -0.1000 -0.7424
        vertex 3.5644 -0.1000 -0.3892
        vertex 2.8784 -0.1000 -0.6888
    endloop
endfacet
facet normal 0.0000 -1.8767 0.0000
    outer loop
        vertex 2.9404 -0.1000 -0.2240
        vertex 2.8784 -0.1000 -0.6888
        vertex 3.5644 -0.1000 -0.3892
    endloop
endfacet
facet normal 0.0000 -1.6419 0.0000
    outer loop
        vertex 3.5644 -0.1000 -0.3892
        vertex 3.5848 -0.1000 0.0264
        vertex 2.9404 -0.1000 -0.2240
    endloop
endfacet
facet normal 0.0000 -0.7752 0.0000
    outer loop
        vertex 2.7616 -0.1000 0.1016
        vertex 2.4584 -0.1000 -0.0400
        vertex 2.9404 -0.1000 -0.2240
    endloop
endfacet
facet normal 0.0000 -1.5912 0.0000
    outer loop
        vertex 2.9404 -0.1000 -0.2240
        vertex 3.5848 -0.1000 0.0264
        vertex 2.7616 -0.1000 0.1016
    endloop
endfacet
facet normal 0.0000 -2.2023 0.0000
    outer loop
        vertex 2.8848 -0.1000 0.5184
        vertex 2.7616 -0.1000 0.1016
        vertex 3.5848 -0.1000 0.0264
    endloop
endfacet
facet normal 0.0000 -1.7230 0.0000
    outer loop
        vertex 3.5848 -0.1000 0.0264
        vertex 3.5652 -0.1000 0.4340
        vertex 2.8848 -0.1000 0.5184
    endloop
endfacet
facet normal 0.0000 -0.8475 0.0000
    outer loop
        vertex 2.7460 -0.1000 0.9864
        vertex 2.8504 -0.1000 0.7864
        vertex 3.2672 -0.1000 1.2868
    endloop
endfacet
facet normal 0.0000 -1.1280 0.0000
    outer loop
        vertex 3.2672 -0.1000 1.2868
        vertex 3.0356 -0.1000 1.4996
        vertex 2.7460 -0.1000 0.9864
    endloop
endfacet
facet normal 0.0000 -1.0120 0.0000
    outer loop
        vertex 2.7648 -0.1000 1.6276
        vertex 2.4544 -0.1000 1.6700
        vertex 2.4248 -0.1000 1.1524
    endloop
endfacet
facet normal 0.0000 -1.3067 0.0000
    outer loop
        vertex 2.4248 -0.1000 1.1524
        vertex 2.7460 -0.1000 0.9864
        vertex 2.7648 -0.1000 1.6276
    endloop
endfacet
facet normal 0.0000 -1.1003 0.0000
    outer loop
        vertex 2.7648 -0.1000 1.6276
        vertex 2.7460 -0.1000 0.9864
        vertex 3.0356 -0.1000 1.4996
    endloop
endfacet
facet normal 0.0000 -1.0961 0.0000
    outer loop
        vertex 3.5056 -0.1000 0.7800
        vertex 2.8504 -0.1000 0.7864
        vertex 2.8848 -0.1000 0.5184
    endloop
endfacet
facet normal 0.0000 -1.4399 0.0000
    outer loop
        vertex 2.8848 -0.1000 0.5184
        vertex 3.5652 -0.1000 0.4340
        vertex 3.5056 -0.1000 0.7800
    endloop
endfacet
facet normal 0.0000 -1.1606 0.0000
    outer loop
        vertex 2.8504 -0.1000 0.7864
        vertex 3.5056 -0.1000 0.7800
        vertex 3.4064 -0.1000 1.0644
    endloop
endfacet
facet normal 0.0000 -1.0147 0.0000
    outer loop
        vertex 3.4064 -0.1000 1.0644
        vertex 3.2672 -0.1000 1.2868
        vertex 2.8504 -0.1000 0.7864
    endloop
endfacet
facet normal 0.0000 -2.4783 0.0000
    outer loop
        vertex 5.2100 -0.1000 -0.9448
        vertex 5.2100 -0.1000 -1.6000
        vertex 5.8152 -0.1000 -1.6000
    endloop
endfacet
facet normal 0.0000 -2.4783 0.0000
    outer loop
        vertex 5.8152 -0.1000 -1.6000
        vertex 5.8152 -0.1000 -0.9448
        vertex 5.2100 -0.1000 -0.9448
    endloop
endfacet
facet normal 0.0000 -4.5486 0.0000
    outer loop
        vertex 3.8800 -0.1000 -0.9448
        vertex 5.2100 -0.1000 -0.9448
        vertex 4.4648 -0.1000 -0.3976
    endloop
endfacet
facet normal 0.0000 -1.9927 0.0000
    outer loop
        vertex 4.4648 -0.1000 -0.3976
        vertex 3.8800 -0.1000 -0.3996
        vertex 3.8800 -0.1000 -0.9448
    endloop
endfacet
facet normal 0.0000 -4.0375 0.0000
    outer loop
        vertex 3.8800 -0.1000 -0.3996
        vertex 4.4648 -0.1000 -0.3976
        vertex 5.2100 -0.1000 0.7096
    endloop
endfacet
facet normal 0.0000 -7.4287 0.0000
    outer loop
        vertex 5.2100 -0.1000 0.7096
        vertex 5.2900 -0.1000 1.6700
        vertex 3.8800 -0.1000 -0.3996
    endloop
endfacet
facet normal 0.0000 -4.1880 0.0000
    outer loop
        vertex 5.8152 -0.1000 -0.3976
        vertex 5.2100 -0.1000 0.7096
        vertex 5.2100 -0.1000 -0.3976
    endloop
endfacet
facet normal 0.0000 -2.0698 0.0000
    outer loop
        vertex 5.2100 -0.1000 -0.3976
        vertex 5.8152 -0.1000 -0.9448
        vertex 5.8152 -0.1000 -0.3976
    endloop
endfacet
facet normal 0.0000 -2.5486 0.0000
    outer loop
        vertex 5.2100 -0.1000 -0.3976
        vertex 4.4648 -0.1000 -0.3976
        vertex 5.2100 -0.1000 -0.9448
    endloop
endfacet
facet normal 0.0000 -2.0698 0.0000
    outer loop
        vertex 5.2100 -0.1000 -0.9448
        vertex 5.8152 -0.1000 -0.9448
        vertex 5.2100 -0.1000 -0.3976
    endloop
endfacet
facet normal 0.0000 -1.3844 0.0000
    outer loop
        vertex 5.8152 -0.1000 -0.9448
        vertex 6.2200 -0.1000 -0.9448
        vertex 6.2200 -0.1000 -0.3976
    endloop
endfacet
facet normal 0.0000 -1.3844 0.0000
    outer loop
        vertex 6.2200 -0.1000 -0.3976
        vertex 5.8152 -0.1000 -0.3976
        vertex 5.8152 -0.1000 -0.9448
    endloop
endfacet
facet normal 0.0000 -3.1525 0.0000
    outer loop
        vertex 5.8152 -0.1000 1.6700
        vertex 5.2900 -0.1000 1.6700
        vertex 5.2100 -0.1000 0.7096
    endloop
endfacet
facet normal 0.0000 -7.8207 0.0000
    outer loop
        vertex 5.2100 -0.1000 0.7096
        vertex 5.8152 -0.1000 -0.3976
        vertex 5.8152 -0.1000 1.6700
    endloop
endfacet
facet normal 0.0000 -30.0216 0.0000
    outer loop
        vertex -5.9648 -0.1000 0.2776
        vertex -7.2000 -0.1000 -2.8000
        vertex -5.1576 -0.1000 -1.6000
    endloop
endfacet
facet normal 0.0000 -4.0830 0.0000
    outer loop
        vertex -5.1576 -0.1000 -1.6000
        vertex -5.6688 -0.1000 0.3984
        vertex -5.9648 -0.1000 0.2776
    endloop
endfacet
facet normal 0.0000 -4.6890 0.0000
    outer loop
        vertex -4.5324 -0.1000 -1.6000
        vertex -5.1576 -0.1000 -1.6000
        vertex -7.2000 -0.1000 -2.8000
    endloop
endfacet
facet normal 0.0000 -15.8063 0.0000
    outer loop
        vertex -7.2000 -0.1000 -2.8000
        vertex -2.5476 -0.1000 -1.6552
        vertex -4.5324 -0.1000 -1.6000
    endloop
endfacet
facet normal 0.0000 -3.8671 0.0000
    outer loop
        vertex -5.3996 -0.1000 0.5564
        vertex -5.6688 -0.1000 0.3984
        vertex -5.1576 -0.1000 -1.6000
    endloop
endfacet
facet normal 0.0000 -1.9099 0.0000
    outer loop
        vertex -3.4412 -0.1000 -1.0712
        vertex -4.5324 -0.1000 -1.6000
        vertex -3.3140 -0.1000 -1.2896
    endloop
endfacet
facet normal 0.0000 -0.4039 0.0000
    outer loop
        vertex -4.5324 -0.1000 -1.6000
        vertex -2.5476 -0.1000 -1.6552
        vertex -2.8440 -0.1000 -1.6144
    endloop
endfacet
facet normal 0.0000 -2.2779 0.0000
    outer loop
        vertex -3.5320 -0.1000 -0.7812
        vertex -4.5324 -0.1000 -1.6000
        vertex -3.4412 -0.1000 -1.0712
    endloop
endfacet
facet normal 0.0000 -1.2602 0.0000
    outer loop
        vertex -3.0996 -0.1000 -1.4928
        vertex -4.5324 -0.1000 -1.6000
        vertex -2.8440 -0.1000 -1.6144
    endloop
endfacet
facet normal 0.0000 -1.9633 0.0000
    outer loop
        vertex -3.3140 -0.1000 -1.2896
        vertex -4.5324 -0.1000 -1.6000
        vertex -3.0996 -0.1000 -1.4928
    endloop
endfacet
facet normal 0.0000 -18.9578 0.0000
    outer loop
        vertex -3.6048 -0.1000 0.0132
        vertex -4.5324 -0.1000 1.6700
        vertex -4.5324 -0.1000 -1.6000
    endloop
endfacet
facet normal 0.0000 -2.6930 0.0000
    outer loop
        vertex -4.5324 -0.1000 -1.6000
        vertex -3.5868 -0.1000 -0.4200
        vertex -3.6048 -0.1000 0.0132
    endloop
endfacet
facet normal 0.0000 -1.4211 0.0000
    outer loop
        vertex -2.9380 -0.1000 -0.4768
        vertex -2.8948 -0.1000 -0.7808
        vertex -2.1712 -0.1000 -0.6096
    endloop
endfacet
facet normal 0.0000 -1.3157 0.0000
    outer loop
        vertex -2.1712 -0.1000 -0.6096
        vertex -2.1496 -0.1000 -0.3388
        vertex -2.9380 -0.1000 -0.4768
    endloop
endfacet
facet normal 0.0000 -2.3934 0.0000
    outer loop
        vertex -2.9524 -0.1000 0.0064
        vertex -2.9380 -0.1000 -0.4768
        vertex -2.1496 -0.1000 -0.3388
    endloop
endfacet
facet normal 0.0000 -1.7476 0.0000
    outer loop
        vertex -2.1496 -0.1000 -0.3388
        vertex -2.1424 -0.1000 0.0064
        vertex -2.9524 -0.1000 0.0064
    endloop
endfacet
facet normal 0.0000 -1.7476 0.0000
    outer loop
        vertex -2.9452 -0.1000 0.3516
        vertex -2.9524 -0.1000 0.0064
        vertex -2.1424 -0.1000 0.0064
    endloop
endfacet
facet normal 0.0000 -2.3934 0.0000
    outer loop
        vertex -2.1424 -0.1000 0.0064
        vertex -2.1568 -0.1000 0.4896
        vertex -2.9452 -0.1000 0.3516
    endloop
endfacet
facet normal 0.0000 -2.5388 0.0000
    outer loop
        vertex -3.5868 -0.1000 -0.4200
        vertex -4.5324 -0.1000 -1.6000
        vertex -3.5320 -0.1000 -0.7812
    endloop
endfacet
facet normal 0.0000 -1.2040 0.0000
    outer loop
        vertex -2.2072 -0.1000 -0.8064
        vertex -2.8948 -0.1000 -0.7808
        vertex -2.7488 -0.1000 -1.0664
    endloop
endfacet
facet normal 0.0000 -0.6524 0.0000
    outer loop
        vertex -2.7488 -0.1000 -1.0664
        vertex -2.3448 -0.1000 -1.0652
        vertex -2.2072 -0.1000 -0.8064
    endloop
endfacet
facet normal 0.0000 -43.2320 0.0000
    outer loop
        vertex -7.2000 -0.1000 2.8000
        vertex -7.2000 -0.1000 -2.8000
        vertex -5.9648 -0.1000 0.2776
    endloop
endfacet
facet normal 0.0000 -4.3788 0.0000
    outer loop
        vertex -5.9648 -0.1000 0.2776
        vertex -5.9648 -0.1000 0.8448
        vertex -7.2000 -0.1000 2.8000
    endloop
endfacet
facet normal 0.0000 -0.4687 0.0000
    outer loop
        vertex -0.0976 -0.1000 -1.6000
        vertex -2.2552 -0.1000 -1.6180
        vertex -2.5476 -0.1000 -1.6552
    endloop
endfacet
facet normal 0.0000 -1.7409 0.0000
    outer loop
        vertex -2.5476 -0.1000 -1.6552
        vertex 2.3920 -0.1000 -1.6576
        vertex -0.0976 -0.1000 -1.6000
    endloop
endfacet
facet normal 0.0000 -2.3294 0.0000
    outer loop
        vertex -1.8100 -0.1000 -1.3216
        vertex -2.0096 -0.1000 -1.5068
        vertex -0.0976 -0.1000 -1.6000
    endloop
endfacet
facet normal 0.0000 -1.4719 0.0000
    outer loop
        vertex -2.0096 -0.1000 -1.5068
        vertex -2.2552 -0.1000 -1.6180
        vertex -0.0976 -0.1000 -1.6000
    endloop
endfacet
facet normal 0.0000 -2.7523 0.0000
    outer loop
        vertex -1.6700 -0.1000 -1.0872
        vertex -1.8100 -0.1000 -1.3216
        vertex -0.0976 -0.1000 -1.6000
    endloop
endfacet
facet normal 0.0000 -3.2648 0.0000
    outer loop
        vertex -1.5700 -0.1000 -0.7876
        vertex -1.6700 -0.1000 -1.0872
        vertex -0.0976 -0.1000 -1.6000
    endloop
endfacet
facet normal 0.0000 -0.8515 0.0000
    outer loop
        vertex -2.1712 -0.1000 -0.6096
        vertex -2.8948 -0.1000 -0.7808
        vertex -2.2072 -0.1000 -0.8064
    endloop
endfacet
facet normal 0.0000 -3.6580 0.0000
    outer loop
        vertex -1.5100 -0.1000 -0.4232
        vertex -1.5700 -0.1000 -0.7876
        vertex -0.0976 -0.1000 -1.6000
    endloop
endfacet
facet normal 0.0000 -10.6376 0.0000
    outer loop
        vertex -0.0976 -0.1000 -1.6000
        vertex -0.9048 -0.1000 0.2776
        vertex -1.5100 -0.1000 -0.4232
    endloop
endfacet
facet normal 0.0000 -1.5374 0.0000
    outer loop
        vertex -0.9048 -0.1000 0.2776
        vertex -1.4900 -0.1000 0.0064
        vertex -1.5100 -0.1000 -0.4232
    endloop
endfacet
facet normal 0.0000 -1.6081 0.0000
    outer loop
        vertex -1.5100 -0.1000 0.4368
        vertex -1.4900 -0.1000 0.0064
        vertex -0.9048 -0.1000 0.2776
    endloop
endfacet
facet normal 0.0000 -2.1454 0.0000
    outer loop
        vertex -0.9048 -0.1000 0.2776
        vertex -0.9048 -0.1000 0.8448
        vertex -1.5100 -0.1000 0.4368
    endloop
endfacet
facet normal 0.0000 -4.0830 0.0000
    outer loop
        vertex -0.6088 -0.1000 0.3984
        vertex -0.9048 -0.1000 0.2776
        vertex -0.0976 -0.1000 -1.6000
    endloop
endfacet
facet normal 0.0000 -3.8671 0.0000
    outer loop
        vertex -0.3396 -0.1000 0.5564
        vertex -0.6088 -0.1000 0.3984
        vertex -0.0976 -0.1000 -1.6000
    endloop
endfacet
facet normal 0.0000 -0.1813 0.0000
    outer loop
        vertex -2.3448 -0.1000 -1.0652
        vertex -2.7488 -0.1000 -1.0664
        vertex -2.5476 -0.1000 -1.1376
    endloop
endfacet
facet normal 0.0000 -35.4126 0.0000
    outer loop
        vertex 2.3920 -0.1000 -1.6576
        vertex -2.5476 -0.1000 -1.6552
        vertex -7.2000 -0.1000 -2.8000
    endloop
endfacet
facet normal 0.0000 -102.8160 0.0000
    outer loop
        vertex -7.2000 -0.1000 -2.8000
        vertex 7.2000 -0.1000 -2.8000
        vertex 2.3920 -0.1000 -1.6576
    endloop
endfacet
facet normal 0.0000 -3.5568 0.0000
    outer loop
        vertex -5.1576 -0.1000 0.7516
        vertex -5.3996 -0.1000 0.5564
        vertex -5.1576 -0.1000 -1.6000
    endloop
endfacet
facet normal 0.0000 -4.0141 0.0000
    outer loop
        vertex -7.2000 -0.1000 2.8000
        vertex -5.9648 -0.1000 0.8448
        vertex -5.7096 -0.1000 0.9608
    endloop
endfacet
facet normal 0.0000 -4.9201 0.0000
    outer loop
        vertex -5.7096 -0.1000 0.9608
        vertex -5.4336 -0.1000 1.1484
        vertex -7.2000 -0.1000 2.8000
    endloop
endfacet
facet normal 0.0000 -0.8589 0.0000
    outer loop
        vertex -2.8880 -0.1000 0.8216
        vertex -2.9240 -0.1000 0.6232
        vertex -2.2004 -0.1000 0.7936
    endloop
endfacet
facet normal 0.0000 -1.2070 0.0000
    outer loop
        vertex -2.2004 -0.1000 0.7936
        vertex -2.3460 -0.1000 1.0804
        vertex -2.8880 -0.1000 0.8216
    endloop
endfacet
facet normal 0.0000 -2.6096 0.0000
    outer loop
        vertex -4.5324 -0.1000 1.6700
        vertex -3.5848 -0.1000 0.4408
        vertex -3.5248 -0.1000 0.8036
    endloop
endfacet
facet normal 0.0000 -2.6861 0.0000
    outer loop
        vertex -4.5324 -0.1000 1.6700
        vertex -3.6048 -0.1000 0.0132
        vertex -3.5848 -0.1000 0.4408
    endloop
endfacet
facet normal 0.0000 -5.1697 0.0000
    outer loop
        vertex -7.2000 -0.1000 2.8000
        vertex -5.4336 -0.1000 1.1484
        vertex -5.1916 -0.1000 1.3904
    endloop
endfacet
facet normal 0.0000 -4.8488 0.0000
    outer loop
        vertex -5.1916 -0.1000 1.3904
        vertex -5.0396 -0.1000 1.6700
        vertex -7.2000 -0.1000 2.8000
    endloop
endfacet
facet normal 0.0000 -3.5821 0.0000
    outer loop
        vertex -7.2000 -0.1000 2.8000
        vertex -5.0396 -0.1000 1.6700
        vertex -4.5324 -0.1000 1.6700
    endloop
endfacet
facet normal 0.0000 -2.1187 0.0000
    outer loop
        vertex -4.5324 -0.1000 1.6700
        vertex -3.4252 -0.1000 1.1024
        vertex -3.2852 -0.1000 1.3368
    endloop
endfacet
facet normal 0.0000 -1.2291 0.0000
    outer loop
        vertex -4.5324 -0.1000 1.6700
        vertex -3.0856 -0.1000 1.5220
        vertex -2.8400 -0.1000 1.6328
    endloop
endfacet
facet normal 0.0000 -1.8593 0.0000
    outer loop
        vertex -4.5324 -0.1000 1.6700
        vertex -3.2852 -0.1000 1.3368
        vertex -3.0856 -0.1000 1.5220
    endloop
endfacet
facet normal 0.0000 -14.0176 0.0000
    outer loop
        vertex -2.5476 -0.1000 1.6700
        vertex -7.2000 -0.1000 2.8000
        vertex -4.5324 -0.1000 1.6700
    endloop
endfacet
facet normal 0.0000 -0.4615 0.0000
    outer loop
        vertex -4.5324 -0.1000 1.6700
        vertex -2.8400 -0.1000 1.6328
        vertex -2.5476 -0.1000 1.6700
    endloop
endfacet
facet normal 0.0000 -2.4210 0.0000
    outer loop
        vertex -4.5324 -0.1000 1.6700
        vertex -3.5248 -0.1000 0.8036
        vertex -3.4252 -0.1000 1.1024
    endloop
endfacet
facet normal 0.0000 -0.6535 0.0000
    outer loop
        vertex -2.7500 -0.1000 1.0804
        vertex -2.8880 -0.1000 0.8216
        vertex -2.3460 -0.1000 1.0804
    endloop
endfacet
facet normal 0.0000 -0.1818 0.0000
    outer loop
        vertex -2.3460 -0.1000 1.0804
        vertex -2.5476 -0.1000 1.1524
        vertex -2.7500 -0.1000 1.0804
    endloop
endfacet
facet normal 0.0000 -1.4213 0.0000
    outer loop
        vertex -2.1568 -0.1000 0.4896
        vertex -2.2004 -0.1000 0.7936
        vertex -2.9240 -0.1000 0.6232
    endloop
endfacet
facet normal 0.0000 -1.3200 0.0000
    outer loop
        vertex -2.9240 -0.1000 0.6232
        vertex -2.9452 -0.1000 0.3516
        vertex -2.1568 -0.1000 0.4896
    endloop
endfacet
facet normal 0.0000 -1.2688 0.0000
    outer loop
        vertex -1.6688 -0.1000 1.0996
        vertex -1.5696 -0.1000 0.8008
        vertex -0.9048 -0.1000 0.8448
    endloop
endfacet
facet normal 0.0000 -0.9603 0.0000
    outer loop
        vertex -0.9048 -0.1000 0.8448
        vertex -0.6496 -0.1000 0.9608
        vertex -1.6688 -0.1000 1.0996
    endloop
endfacet
facet normal 0.0000 -1.5288 0.0000
    outer loop
        vertex -0.9048 -0.1000 0.8448
        vertex -1.5696 -0.1000 0.8008
        vertex -1.5100 -0.1000 0.4368
    endloop
endfacet
facet normal 0.0000 -0.6035 0.0000
    outer loop
        vertex -2.5476 -0.1000 1.6700
        vertex -2.2552 -0.1000 1.6324
        vertex 0.0204 -0.1000 1.6700
    endloop
endfacet
facet normal 0.0000 -18.1365 0.0000
    outer loop
        vertex 0.0204 -0.1000 1.6700
        vertex -7.2000 -0.1000 2.8000
        vertex -2.5476 -0.1000 1.6700
    endloop
endfacet
facet normal 0.0000 -1.3625 0.0000
    outer loop
        vertex -1.8076 -0.1000 1.3324
        vertex -1.6688 -0.1000 1.0996
        vertex -0.6496 -0.1000 0.9608
    endloop
endfacet
facet normal 0.0000 -1.9988 0.0000
    outer loop
        vertex -0.6496 -0.1000 0.9608
        vertex -0.3736 -0.1000 1.1484
        vertex -1.8076 -0.1000 1.3324
    endloop
endfacet
facet normal 0.0000 -2.5670 0.0000
    outer loop
        vertex 0.0204 -0.1000 1.6700
        vertex -2.0084 -0.1000 1.5200
        vertex -1.8076 -0.1000 1.3324
    endloop
endfacet
facet normal 0.0000 -2.8737 0.0000
    outer loop
        vertex -1.8076 -0.1000 1.3324
        vertex -0.1316 -0.1000 1.3904
        vertex 0.0204 -0.1000 1.6700
    endloop
endfacet
facet normal 0.0000 -2.4472 0.0000
    outer loop
        vertex -0.1316 -0.1000 1.3904
        vertex -1.8076 -0.1000 1.3324
        vertex -0.3736 -0.1000 1.1484
    endloop
endfacet
facet normal 0.0000 -1.6566 0.0000
    outer loop
        vertex 0.0204 -0.1000 1.6700
        vertex -2.2552 -0.1000 1.6324
        vertex -2.0084 -0.1000 1.5200
    endloop
endfacet
facet normal 0.0000 -2.5566 0.0000
    outer loop
        vertex 1.5340 -0.1000 0.0160
        vertex 1.4408 -0.1000 0.2728
        vertex 0.5276 -0.1000 -1.6000
    endloop
endfacet
facet normal 0.0000 -4.3696 0.0000
    outer loop
        vertex 0.5276 -0.1000 -1.6000
        vertex 1.4724 -0.1000 -0.7776
        vertex 1.5340 -0.1000 0.0160
    endloop
endfacet
facet normal 0.0000 -1.4399 0.0000
    outer loop
        vertex 1.7744 -0.1000 -1.4536
        vertex 0.5276 -0.1000 -1.6000
        vertex 2.0468 -0.1000 -1.6064
    endloop
endfacet
facet normal 0.0000 -0.4723 0.0000
    outer loop
        vertex 2.3920 -0.1000 -1.6576
        vertex 2.0468 -0.1000 -1.6064
        vertex 0.5276 -0.1000 -1.6000
    endloop
endfacet
facet normal 0.0000 -0.2251 0.0000
    outer loop
        vertex 0.5276 -0.1000 -1.6000
        vertex -0.0976 -0.1000 -1.6000
        vertex 2.3920 -0.1000 -1.6576
    endloop
endfacet
facet normal 0.0000 -2.1588 0.0000
    outer loop
        vertex 1.5816 -0.1000 -1.1992
        vertex 0.5276 -0.1000 -1.6000
        vertex 1.7744 -0.1000 -1.4536
    endloop
endfacet
facet normal 0.0000 -3.0508 0.0000
    outer loop
        vertex 1.4724 -0.1000 -0.7776
        vertex 0.5276 -0.1000 -1.6000
        vertex 1.5816 -0.1000 -1.1992
    endloop
endfacet
facet normal 0.0000 -0.6554 0.0000
    outer loop
        vertex 5.2100 -0.1000 -1.6000
        vertex 2.7240 -0.1000 -1.6136
        vertex 2.3920 -0.1000 -1.6576
    endloop
endfacet
facet normal 0.0000 -21.8514 0.0000
    outer loop
        vertex 2.3920 -0.1000 -1.6576
        vertex 7.2000 -0.1000 -2.8000
        vertex 5.2100 -0.1000 -1.6000
    endloop
endfacet
facet normal 0.0000 -0.9409 0.0000
    outer loop
        vertex 2.1928 -0.1000 -1.0512
        vertex 2.4392 -0.1000 -1.1400
        vertex 2.3520 -0.1000 -0.4976
    endloop
endfacet
facet normal 0.0000 -0.6708 0.0000
    outer loop
        vertex 2.3520 -0.1000 -0.4976
        vertex 2.0776 -0.1000 -0.7776
        vertex 2.1928 -0.1000 -1.0512
    endloop
endfacet
facet normal 0.0000 -1.3390 0.0000
    outer loop
        vertex 1.4724 -0.1000 -0.7776
        vertex 2.0776 -0.1000 -0.7776
        vertex 1.9940 -0.1000 -0.4236
    endloop
endfacet
facet normal 0.0000 -1.4003 0.0000
    outer loop
        vertex 1.9940 -0.1000 -0.4236
        vertex 1.6888 -0.1000 -0.2012
        vertex 1.4724 -0.1000 -0.7776
    endloop
endfacet
facet normal 0.0000 -0.7534 0.0000
    outer loop
        vertex 1.9940 -0.1000 -0.4236
        vertex 2.0776 -0.1000 -0.7776
        vertex 2.3520 -0.1000 -0.4976
    endloop
endfacet
facet normal 0.0000 -1.0312 0.0000
    outer loop
        vertex 2.3520 -0.1000 -0.4976
        vertex 2.7676 -0.1000 -0.9620
        vertex 2.8784 -0.1000 -0.6888
    endloop
endfacet
facet normal 0.0000 -0.6117 0.0000
    outer loop
        vertex 2.8784 -0.1000 -0.6888
        vertex 2.6756 -0.1000 -0.4292
        vertex 2.3520 -0.1000 -0.4976
    endloop
endfacet
facet normal 0.0000 -0.6897 0.0000
    outer loop
        vertex 2.9404 -0.1000 -0.2240
        vertex 2.6756 -0.1000 -0.4292
        vertex 2.8784 -0.1000 -0.6888
    endloop
endfacet
facet normal 0.0000 -1.4155 0.0000
    outer loop
        vertex 2.3520 -0.1000 -0.4976
        vertex 2.4392 -0.1000 -1.1400
        vertex 2.7676 -0.1000 -0.9620
    endloop
endfacet
facet normal 0.0000 -0.8514 0.0000
    outer loop
        vertex 1.5340 -0.1000 0.0160
        vertex 1.4724 -0.1000 -0.7776
        vertex 1.6888 -0.1000 -0.2012
    endloop
endfacet
facet normal 0.0000 -5.2002 0.0000
    outer loop
        vertex 3.2540 -0.1000 -1.2620
        vertex 5.2100 -0.1000 -1.6000
        vertex 3.8800 -0.1000 -0.9448
    endloop
endfacet
facet normal 0.0000 -0.6081 0.0000
    outer loop
        vertex 3.8800 -0.1000 -0.9448
        vertex 3.3988 -0.1000 -1.0332
        vertex 3.2540 -0.1000 -1.2620
    endloop
endfacet
facet normal 0.0000 -0.8173 0.0000
    outer loop
        vertex 3.5024 -0.1000 -0.7424
        vertex 3.3988 -0.1000 -1.0332
        vertex 3.8800 -0.1000 -0.9448
    endloop
endfacet
facet normal 0.0000 -1.2867 0.0000
    outer loop
        vertex 3.8800 -0.1000 -0.9448
        vertex 3.8800 -0.1000 -0.3996
        vertex 3.5024 -0.1000 -0.7424
    endloop
endfacet
facet normal 0.0000 -3.1975 0.0000
    outer loop
        vertex 3.2540 -0.1000 -1.2620
        vertex 3.0112 -0.1000 -1.4816
        vertex 5.2100 -0.1000 -1.6000
    endloop
endfacet
facet normal 0.0000 -4.5390 0.0000
    outer loop
        vertex 5.8152 -0.1000 -1.6000
        vertex 5.2100 -0.1000 -1.6000
        vertex 7.2000 -0.1000 -2.8000
    endloop
endfacet
facet normal 0.0000 -2.0265 0.0000
    outer loop
        vertex 3.0112 -0.1000 -1.4816
        vertex 2.7240 -0.1000 -1.6136
        vertex 5.2100 -0.1000 -1.6000
    endloop
endfacet
facet normal 0.0000 -8.7068 0.0000
    outer loop
        vertex 5.8152 -0.1000 -1.6000
        vertex 7.2000 -0.1000 -2.8000
        vertex 6.2200 -0.1000 -0.9448
    endloop
endfacet
facet normal 0.0000 -1.6577 0.0000
    outer loop
        vertex 6.2200 -0.1000 -0.9448
        vertex 5.8152 -0.1000 -0.9448
        vertex 5.8152 -0.1000 -1.6000
    endloop
endfacet
facet normal 0.0000 -5.4464 0.0000
    outer loop
        vertex 5.2100 -0.1000 -0.9448
        vertex 3.8800 -0.1000 -0.9448
        vertex 5.2100 -0.1000 -1.6000
    endloop
endfacet
facet normal 0.0000 -0.7007 0.0000
    outer loop
        vertex 3.5644 -0.1000 -0.3892
        vertex 3.5024 -0.1000 -0.7424
        vertex 3.8800 -0.1000 -0.3996
    endloop
endfacet
facet normal 0.0000 -0.8211 0.0000
    outer loop
        vertex 3.5848 -0.1000 0.0264
        vertex 3.5644 -0.1000 -0.3892
        vertex 3.8800 -0.1000 -0.3996
    endloop
endfacet
facet normal 0.0000 -5.1568 0.0000
    outer loop
        vertex 5.2100 -0.1000 0.7096
        vertex 4.4648 -0.1000 -0.3976
        vertex 5.2100 -0.1000 -0.3976
    endloop
endfacet
facet normal 0.0000 -3.3516 0.0000
    outer loop
        vertex 6.2200 -0.1000 -0.3976
        vertex 6.2200 -0.1000 -0.9448
        vertex 7.2000 -0.1000 -2.8000
    endloop
endfacet
facet normal 0.0000 -34.3000 0.0000
    outer loop
        vertex 7.2000 -0.1000 -2.8000
        vertex 7.2000 -0.1000 2.8000
        vertex 6.2200 -0.1000 -0.3976
    endloop
endfacet
facet normal 0.0000 -5.2310 0.0000
    outer loop
        vertex 5.8152 -0.1000 1.6700
        vertex 5.8152 -0.1000 -0.3976
        vertex 6.2200 -0.1000 -0.3976
    endloop
endfacet
facet normal 0.0000 -20.7540 0.0000
    outer loop
        vertex 6.2200 -0.1000 -0.3976
        vertex 7.2000 -0.1000 2.8000
        vertex 5.8152 -0.1000 1.6700
    endloop
endfacet
facet normal 0.0000 -3.5568 0.0000
    outer loop
        vertex -0.0976 -0.1000 0.7516
        vertex -0.3396 -0.1000 0.5564
        vertex -0.0976 -0.1000 -1.6000
    endloop
endfacet
facet normal 0.0000 -1.9264 0.0000
    outer loop
        vertex 0.5276 -0.1000 1.6700
        vertex 1.4100 -0.1000 0.5696
        vertex 1.4428 -0.1000 0.8780
    endloop
endfacet
facet normal 0.0000 -1.4250 0.0000
    outer loop
        vertex 1.4408 -0.1000 0.2728
        vertex 1.4100 -0.1000 0.5696
        vertex 0.5276 -0.1000 1.6700
    endloop
endfacet
facet normal 0.0000 -18.6635 0.0000
    outer loop
        vertex 0.5276 -0.1000 1.6700
        vertex 0.5276 -0.1000 -1.6000
        vertex 1.4408 -0.1000 0.2728
    endloop
endfacet
facet normal 0.0000 -1.4604 0.0000
    outer loop
        vertex 2.8848 -0.1000 0.5184
        vertex 2.0224 -0.1000 0.5696
        vertex 2.0536 -0.1000 0.2968
    endloop
endfacet
facet normal 0.0000 -1.9946 0.0000
    outer loop
        vertex 2.0536 -0.1000 0.2968
        vertex 2.7616 -0.1000 0.1016
        vertex 2.8848 -0.1000 0.5184
    endloop
endfacet
facet normal 0.0000 -0.6997 0.0000
    outer loop
        vertex 2.1368 -0.1000 1.0160
        vertex 2.0512 -0.1000 0.8364
        vertex 2.7460 -0.1000 0.9864
    endloop
endfacet
facet normal 0.0000 -0.5726 0.0000
    outer loop
        vertex 2.7460 -0.1000 0.9864
        vertex 2.4248 -0.1000 1.1524
        vertex 2.1368 -0.1000 1.0160
    endloop
endfacet
facet normal 0.0000 -1.3417 0.0000
    outer loop
        vertex 2.8504 -0.1000 0.7864
        vertex 2.0512 -0.1000 0.8364
        vertex 2.0224 -0.1000 0.5696
    endloop
endfacet
facet normal 0.0000 -1.4335 0.0000
    outer loop
        vertex 2.0224 -0.1000 0.5696
        vertex 2.8848 -0.1000 0.5184
        vertex 2.8504 -0.1000 0.7864
    endloop
endfacet
facet normal 0.0000 -2.0066 0.0000
    outer loop
        vertex 0.5276 -0.1000 1.6700
        vertex 1.4428 -0.1000 0.8780
        vertex 1.5408 -0.1000 1.1440
    endloop
endfacet
facet normal 0.0000 -3.5821 0.0000
    outer loop
        vertex 0.0204 -0.1000 1.6700
        vertex 0.5276 -0.1000 1.6700
        vertex 7.2000 -0.1000 2.8000
    endloop
endfacet
facet normal 0.0000 -101.7000 0.0000
    outer loop
        vertex 7.2000 -0.1000 2.8000
        vertex -7.2000 -0.1000 2.8000
        vertex 0.0204 -0.1000 1.6700
    endloop
endfacet
facet normal 0.0000 -1.9512 0.0000
    outer loop
        vertex 0.5276 -0.1000 1.6700
        vertex 1.5408 -0.1000 1.1440
        vertex 1.7044 -0.1000 1.3672
    endloop
endfacet
facet normal 0.0000 -1.0903 0.0000
    outer loop
        vertex 0.5276 -0.1000 1.6700
        vertex 1.9184 -0.1000 1.5352
        vertex 2.1684 -0.1000 1.6364
    endloop
endfacet
facet normal 0.0000 -1.6406 0.0000
    outer loop
        vertex 0.5276 -0.1000 1.6700
        vertex 1.7044 -0.1000 1.3672
        vertex 1.9184 -0.1000 1.5352
    endloop
endfacet
facet normal 0.0000 -0.4046 0.0000
    outer loop
        vertex 0.5276 -0.1000 1.6700
        vertex 2.1684 -0.1000 1.6364
        vertex 2.4544 -0.1000 1.6700
    endloop
endfacet
facet normal 0.0000 -13.6080 0.0000
    outer loop
        vertex 2.4544 -0.1000 1.6700
        vertex 7.2000 -0.1000 2.8000
        vertex 0.5276 -0.1000 1.6700
    endloop
endfacet
facet normal 0.0000 -0.7248 0.0000
    outer loop
        vertex 2.7616 -0.1000 0.1016
        vertex 2.0536 -0.1000 0.2968
        vertex 2.1472 -0.1000 0.1072
    endloop
endfacet
facet normal 0.0000 -0.5544 0.0000
    outer loop
        vertex 2.1472 -0.1000 0.1072
        vertex 2.4584 -0.1000 -0.0400
        vertex 2.7616 -0.1000 0.1016
    endloop
endfacet
facet normal 0.0000 -0.9664 0.0000
    outer loop
        vertex 2.7460 -0.1000 0.9864
        vertex 2.0512 -0.1000 0.8364
        vertex 2.8504 -0.1000 0.7864
    endloop
endfacet
facet normal 0.0000 -0.6998 0.0000
    outer loop
        vertex 3.5652 -0.1000 0.4340
        vertex 3.5848 -0.1000 0.0264
        vertex 3.8800 -0.1000 -0.3996
    endloop
endfacet
facet normal 0.0000 -11.4180 0.0000
    outer loop
        vertex 3.8800 -0.1000 -0.3996
        vertex 5.2900 -0.1000 1.6700
        vertex 3.5652 -0.1000 0.4340
    endloop
endfacet
facet normal 0.0000 -4.1903 0.0000
    outer loop
        vertex 5.2900 -0.1000 1.6700
        vertex 3.5056 -0.1000 0.7800
        vertex 3.5652 -0.1000 0.4340
    endloop
endfacet
facet normal 0.0000 -0.7514 0.0000
    outer loop
        vertex 2.4544 -0.1000 1.6700
        vertex 2.7648 -0.1000 1.6276
        vertex 5.2900 -0.1000 1.6700
    endloop
endfacet
facet normal 0.0000 -20.0264 0.0000
    outer loop
        vertex 5.2900 -0.1000 1.6700
        vertex 7.2000 -0.1000 2.8000
        vertex 2.4544 -0.1000 1.6700
    endloop
endfacet
facet normal 0.0000 -2.0919 0.0000
    outer loop
        vertex 5.2900 -0.1000 1.6700
        vertex 2.7648 -0.1000 1.6276
        vertex 3.0356 -0.1000 1.4996
    endloop
endfacet
facet normal 0.0000 -3.1451 0.0000
    outer loop
        vertex 5.2900 -0.1000 1.6700
        vertex 3.2672 -0.1000 1.2868
        vertex 3.4064 -0.1000 1.0644
    endloop
endfacet
facet normal 0.0000 -3.7092 0.0000
    outer loop
        vertex 7.2000 -0.1000 2.8000
        vertex 5.2900 -0.1000 1.6700
        vertex 5.8152 -0.1000 1.6700
    endloop
endfacet
facet normal 0.0000 -3.7236 0.0000
    outer loop
        vertex 5.2900 -0.1000 1.6700
        vertex 3.4064 -0.1000 1.0644
        vertex 3.5056 -0.1000 0.7800
    endloop
endfacet
facet normal 0.0000 -3.2450 0.0000
    outer loop
        vertex 5.2900 -0.1000 1.6700
        vertex 3.0356 -0.1000 1.4996
        vertex 3.2672 -0.1000 1.2868
    endloop
endfacet
endsolid GiantLegoRocks
