solid GiantLegoRocks
facet normal 0.0000 0.7500 0.0000
    outer loop
        vertex 31.6000 0.0000 2.8000
        vertex 31.6000 0.0000 -2.8000
        vertex -31.6000 0.0000 -2.8000
    endloop
endfacet
facet normal 0.0000 0.7500 0.0000
    outer loop
        vertex -31.6000 0.0000 -2.8000
        vertex -31.6000 0.0000 2.8000
        vertex 31.6000 0.0000 2.8000
    endloop
endfacet
facet normal 0.0000 -0.2500 14.0000
    outer loop
        vertex -31.6000 -0.1000 2.8000
        vertex 31.6000 -0.1000 2.8000
        vertex 31.6000 0.0000 2.8000
    endloop
endfacet
facet normal 0.0000 -0.2500 14.0000
    outer loop
        vertex 31.6000 0.0000 2.8000
        vertex -31.6000 0.0000 2.8000
        vertex -31.6000 -0.1000 2.8000
    endloop
endfacet
facet normal -158.0000 -0.2500 0.0000
    outer loop
        vertex -31.6000 -0.1000 -2.8000
        vertex -31.6000 -0.1000 2.8000
        vertex -31.6000 0.0000 2.8000
    endloop
endfacet
facet normal -158.0000 -0.2500 0.0000
    outer loop
        vertex -31.6000 0.0000 2.8000
        vertex -31.6000 0.0000 -2.8000
        vertex -31.6000 -0.1000 -2.8000
    endloop
endfacet
facet normal 0.0000 -0.2500 -14.0000
    outer loop
        vertex 31.6000 -0.1000 -2.8000
        vertex -31.6000 -0.1000 -2.8000
        vertex -31.6000 0.0000 -2.8000
    endloop
endfacet
facet normal 0.0000 -0.2500 -14.0000
    outer loop
        vertex -31.6000 0.0000 -2.8000
        vertex 31.6000 0.0000 -2.8000
        vertex 31.6000 -0.1000 -2.8000
    endloop
endfacet
facet normal 158.0000 -0.2500 0.0000
    outer loop
        vertex 31.6000 -0.1000 2.8000
        vertex 31.6000 -0.1000 -2.8000
        vertex 31.6000 0.0000 -2.8000
    endloop
endfacet
facet normal 158.0000 -0.2500 0.0000
    outer loop
        vertex 31.6000 0.0000 -2.8000
        vertex 31.6000 0.0000 2.8000
        vertex 31.6000 -0.1000 2.8000
    endloop
endfacet
facet normal 0.0000 -196.0000 0.0000
    outer loop
        vertex 2.8000 -0.1000 2.8000
        vertex -2.8000 -0.1000 2.8000
        vertex -2.8000 -0.1000 -2.8000
    endloop
endfacet
facet normal 0.0000 -196.0000 0.0000
    outer loop
        vertex -2.8000 -0.1000 -2.8000
        vertex 2.8000 -0.1000 -2.8000
        vertex 2.8000 -0.1000 2.8000
    endloop
endfacet
facet normal 0.0000 -196.0000 0.0000
    outer loop
        vertex -2.8000 -0.1000 2.8000
        vertex -8.4000 -0.1000 2.8000
        vertex -8.4000 -0.1000 -2.8000
    endloop
endfacet
facet normal 0.0000 -196.0000 0.0000
    outer loop
        vertex -8.4000 -0.1000 -2.8000
        vertex -2.8000 -0.1000 -2.8000
        vertex -2.8000 -0.1000 2.8000
    endloop
endfacet
facet normal 0.0000 -196.0000 0.0000
    outer loop
        vertex 8.4000 -0.1000 2.8000
        vertex 2.8000 -0.1000 2.8000
        vertex 2.8000 -0.1000 -2.8000
    endloop
endfacet
facet normal 0.0000 -196.0000 0.0000
    outer loop
        vertex 2.8000 -0.1000 -2.8000
        vertex 8.4000 -0.1000 -2.8000
        vertex 8.4000 -0.1000 2.8000
    endloop
endfacet
facet normal 0.0000 -196.0000 0.0000
    outer loop
        vertex -8.4000 -0.1000 2.8000
        vertex -14.0000 -0.1000 2.8000
        vertex -14.0000 -0.1000 -2.8000
    endloop
endfacet
facet normal 0.0000 -196.0000 0.0000
    outer loop
        vertex -14.0000 -0.1000 -2.8000
        vertex -8.4000 -0.1000 -2.8000
        vertex -8.4000 -0.1000 2.8000
    endloop
endfacet
facet normal 0.0000 -196.0000 0.0000
    outer loop
        vertex 14.0000 -0.1000 2.8000
        vertex 8.4000 -0.1000 2.8000
        vertex 8.4000 -0.1000 -2.8000
    endloop
endfacet
facet normal 0.0000 -196.0000 0.0000
    outer loop
        vertex 8.4000 -0.1000 -2.8000
        vertex 14.0000 -0.1000 -2.8000
        vertex 14.0000 -0.1000 2.8000
    endloop
endfacet
facet normal 0.0000 -196.0000 0.0000
    outer loop
        vertex -14.0000 -0.1000 2.8000
        vertex -19.6000 -0.1000 2.8000
        vertex -19.6000 -0.1000 -2.8000
    endloop
endfacet
facet normal 0.0000 -196.0000 0.0000
    outer loop
        vertex -19.6000 -0.1000 -2.8000
        vertex -14.0000 -0.1000 -2.8000
        vertex -14.0000 -0.1000 2.8000
    endloop
endfacet
facet normal 0.0000 -196.0000 0.0000
    outer loop
        vertex 19.6000 -0.1000 2.8000
        vertex 14.0000 -0.1000 2.8000
        vertex 14.0000 -0.1000 -2.8000
    endloop
endfacet
facet normal 0.0000 -196.0000 0.0000
    outer loop
        vertex 14.0000 -0.1000 -2.8000
        vertex 19.6000 -0.1000 -2.8000
        vertex 19.6000 -0.1000 2.8000
    endloop
endfacet
facet normal 0.0000 -196.0000 0.0000
    outer loop
        vertex -19.6000 -0.1000 2.8000
        vertex -25.2000 -0.1000 2.8000
        vertex -25.2000 -0.1000 -2.8000
    endloop
endfacet
facet normal 0.0000 -196.0000 0.0000
    outer loop
        vertex -25.2000 -0.1000 -2.8000
        vertex -19.6000 -0.1000 -2.8000
        vertex -19.6000 -0.1000 2.8000
    endloop
endfacet
facet normal 0.0000 -196.0000 0.0000
    outer loop
        vertex 25.2000 -0.1000 2.8000
        vertex 19.6000 -0.1000 2.8000
        vertex 19.6000 -0.1000 -2.8000
    endloop
endfacet
facet normal 0.0000 -196.0000 0.0000
    outer loop
        vertex 19.6000 -0.1000 -2.8000
        vertex 25.2000 -0.1000 -2.8000
        vertex 25.2000 -0.1000 2.8000
    endloop
endfacet
facet normal 0.0000 -224.0000 0.0000
    outer loop
        vertex -25.2000 -0.1000 2.8000
        vertex -31.6000 -0.1000 2.8000
        vertex -31.6000 -0.1000 -2.8000
    endloop
endfacet
facet normal 0.0000 -224.0000 0.0000
    outer loop
        vertex -31.6000 -0.1000 -2.8000
        vertex -25.2000 -0.1000 -2.8000
        vertex -25.2000 -0.1000 2.8000
    endloop
endfacet
facet normal 0.0000 -224.0000 0.0000
    outer loop
        vertex 31.6000 -0.1000 2.8000
        vertex 25.2000 -0.1000 2.8000
        vertex 25.2000 -0.1000 -2.8000
    endloop
endfacet
facet normal 0.0000 -224.0000 0.0000
    outer loop
        vertex 25.2000 -0.1000 -2.8000
        vertex 31.6000 -0.1000 -2.8000
        vertex 31.6000 -0.1000 2.8000
    endloop
endfacet
endsolid GiantLegoRocks
