solid GiantLegoRocks
facet normal 0.0000 0.7500 0.0000
    outer loop
        vertex 15.2000 0.0000 3.2000
        vertex 15.2000 0.0000 -3.2000
        vertex -15.2000 0.0000 -3.2000
    endloop
endfacet
facet normal 0.0000 0.7500 0.0000
    outer loop
        vertex -15.2000 0.0000 -3.2000
        vertex -15.2000 0.0000 3.2000
        vertex 15.2000 0.0000 3.2000
    endloop
endfacet
facet normal 0.0000 -0.2500 16.0000
    outer loop
        vertex -15.2000 -0.1000 3.2000
        vertex 15.2000 -0.1000 3.2000
        vertex 15.2000 0.0000 3.2000
    endloop
endfacet
facet normal 0.0000 -0.2500 16.0000
    outer loop
        vertex 15.2000 0.0000 3.2000
        vertex -15.2000 0.0000 3.2000
        vertex -15.2000 -0.1000 3.2000
    endloop
endfacet
facet normal -76.0000 -0.2500 0.0000
    outer loop
        vertex -15.2000 -0.1000 -3.2000
        vertex -15.2000 -0.1000 3.2000
        vertex -15.2000 0.0000 3.2000
    endloop
endfacet
facet normal -76.0000 -0.2500 0.0000
    outer loop
        vertex -15.2000 0.0000 3.2000
        vertex -15.2000 0.0000 -3.2000
        vertex -15.2000 -0.1000 -3.2000
    endloop
endfacet
facet normal 0.0000 -0.2500 -16.0000
    outer loop
        vertex 15.2000 -0.1000 -3.2000
        vertex -15.2000 -0.1000 -3.2000
        vertex -15.2000 0.0000 -3.2000
    endloop
endfacet
facet normal 0.0000 -0.2500 -16.0000
    outer loop
        vertex -15.2000 0.0000 -3.2000
        vertex 15.2000 0.0000 -3.2000
        vertex 15.2000 -0.1000 -3.2000
    endloop
endfacet
facet normal 76.0000 -0.2500 0.0000
    outer loop
        vertex 15.2000 -0.1000 3.2000
        vertex 15.2000 -0.1000 -3.2000
        vertex 15.2000 0.0000 -3.2000
    endloop
endfacet
facet normal 76.0000 -0.2500 0.0000
    outer loop
        vertex 15.2000 0.0000 -3.2000
        vertex 15.2000 0.0000 3.2000
        vertex 15.2000 -0.1000 3.2000
    endloop
endfacet
facet normal 0.0000 -6.0500 0.0000
    outer loop
        vertex -6.0800 -0.1000 -0.6400
        vertex -6.0800 -0.1000 1.5600
        vertex -6.5200 -0.1000 1.5600
    endloop
endfacet
facet normal 0.0000 -7.1500 0.0000
    outer loop
        vertex -6.5200 -0.1000 1.5600
        vertex -6.5200 -0.1000 -1.0400
        vertex -6.0800 -0.1000 -0.6400
    endloop
endfacet
facet normal 0.0000 -3.3000 0.0000
    outer loop
        vertex -4.7600 -0.1000 -0.6400
        vertex -6.0800 -0.1000 -0.6400
        vertex -6.5200 -0.1000 -1.0400
    endloop
endfacet
facet normal 0.0000 -4.4000 0.0000
    outer loop
        vertex -6.5200 -0.1000 -1.0400
        vertex -4.7600 -0.1000 -1.0400
        vertex -4.7600 -0.1000 -0.6400
    endloop
endfacet
facet normal 0.0000 -0.7200 0.0000
    outer loop
        vertex -2.8800 -0.1000 1.1200
        vertex -2.6400 -0.1000 0.9200
        vertex -2.4000 -0.1000 1.2000
    endloop
endfacet
facet normal 0.0000 -1.1600 0.0000
    outer loop
        vertex -2.4000 -0.1000 1.2000
        vertex -2.8000 -0.1000 1.5200
        vertex -2.8800 -0.1000 1.1200
    endloop
endfacet
facet normal 0.0000 -0.9600 0.0000
    outer loop
        vertex -3.2400 -0.1000 1.2400
        vertex -2.8800 -0.1000 1.1200
        vertex -2.8000 -0.1000 1.5200
    endloop
endfacet
facet normal 0.0000 -1.3800 0.0000
    outer loop
        vertex -2.8000 -0.1000 1.5200
        vertex -3.4000 -0.1000 1.6400
        vertex -3.2400 -0.1000 1.2400
    endloop
endfacet
facet normal 0.0000 -1.0400 0.0000
    outer loop
        vertex -3.6400 -0.1000 1.2000
        vertex -3.2400 -0.1000 1.2400
        vertex -3.4000 -0.1000 1.6400
    endloop
endfacet
facet normal 0.0000 -1.3000 0.0000
    outer loop
        vertex -3.4000 -0.1000 1.6400
        vertex -3.9600 -0.1000 1.4800
        vertex -3.6400 -0.1000 1.2000
    endloop
endfacet
facet normal 0.0000 -1.1200 0.0000
    outer loop
        vertex -3.9600 -0.1000 0.9200
        vertex -3.6400 -0.1000 1.2000
        vertex -3.9600 -0.1000 1.4800
    endloop
endfacet
facet normal 0.0000 -1.5400 0.0000
    outer loop
        vertex -3.9600 -0.1000 1.4800
        vertex -4.4000 -0.1000 1.0400
        vertex -3.9600 -0.1000 0.9200
    endloop
endfacet
facet normal 0.0000 -1.3300 0.0000
    outer loop
        vertex -4.1200 -0.1000 0.4800
        vertex -3.9600 -0.1000 0.9200
        vertex -4.4000 -0.1000 1.0400
    endloop
endfacet
facet normal 0.0000 -1.6100 0.0000
    outer loop
        vertex -4.4000 -0.1000 1.0400
        vertex -4.5600 -0.1000 0.4400
        vertex -4.1200 -0.1000 0.4800
    endloop
endfacet
facet normal 0.0000 -1.2200 0.0000
    outer loop
        vertex -4.0800 -0.1000 0.0400
        vertex -4.1200 -0.1000 0.4800
        vertex -4.5600 -0.1000 0.4400
    endloop
endfacet
facet normal 0.0000 -1.8200 0.0000
    outer loop
        vertex -4.5600 -0.1000 0.4400
        vertex -4.5200 -0.1000 -0.2000
        vertex -4.0800 -0.1000 0.0400
    endloop
endfacet
facet normal 0.0000 -1.5100 0.0000
    outer loop
        vertex -3.8800 -0.1000 -0.4000
        vertex -4.0800 -0.1000 0.0400
        vertex -4.5200 -0.1000 -0.2000
    endloop
endfacet
facet normal 0.0000 -1.5700 0.0000
    outer loop
        vertex -4.5200 -0.1000 -0.2000
        vertex -4.2400 -0.1000 -0.6800
        vertex -3.8800 -0.1000 -0.4000
    endloop
endfacet
facet normal 0.0000 -1.1000 0.0000
    outer loop
        vertex -3.5600 -0.1000 -0.6400
        vertex -3.8800 -0.1000 -0.4000
        vertex -4.2400 -0.1000 -0.6800
    endloop
endfacet
facet normal 0.0000 -1.6700 0.0000
    outer loop
        vertex -4.2400 -0.1000 -0.6800
        vertex -3.6800 -0.1000 -1.0400
        vertex -3.5600 -0.1000 -0.6400
    endloop
endfacet
facet normal 0.0000 -0.8300 0.0000
    outer loop
        vertex -3.2400 -0.1000 -0.6800
        vertex -3.5600 -0.1000 -0.6400
        vertex -3.6800 -0.1000 -1.0400
    endloop
endfacet
facet normal 0.0000 -1.4600 0.0000
    outer loop
        vertex -3.6800 -0.1000 -1.0400
        vertex -3.0800 -0.1000 -1.0800
        vertex -3.2400 -0.1000 -0.6800
    endloop
endfacet
facet normal 0.0000 -0.8800 0.0000
    outer loop
        vertex -2.9200 -0.1000 -0.6000
        vertex -3.2400 -0.1000 -0.6800
        vertex -3.0800 -0.1000 -1.0800
    endloop
endfacet
facet normal 0.0000 -0.9200 0.0000
    outer loop
        vertex -3.0800 -0.1000 -1.0800
        vertex -2.7200 -0.1000 -0.9200
        vertex -2.9200 -0.1000 -0.6000
    endloop
endfacet
facet normal 0.0000 -0.9900 0.0000
    outer loop
        vertex -2.6000 -0.1000 -0.3200
        vertex -2.9200 -0.1000 -0.6000
        vertex -2.7200 -0.1000 -0.9200
    endloop
endfacet
facet normal 0.0000 -0.9900 0.0000
    outer loop
        vertex -2.7200 -0.1000 -0.9200
        vertex -2.4000 -0.1000 -0.6400
        vertex -2.6000 -0.1000 -0.3200
    endloop
endfacet
facet normal 0.0000 -0.5600 0.0000
    outer loop
        vertex -1.1200 -0.1000 1.3200
        vertex -1.1200 -0.1000 1.0000
        vertex -0.8400 -0.1000 1.0800
    endloop
endfacet
facet normal 0.0000 -0.8100 0.0000
    outer loop
        vertex -0.8400 -0.1000 1.0800
        vertex -0.7200 -0.1000 1.4400
        vertex -1.1200 -0.1000 1.3200
    endloop
endfacet
facet normal 0.0000 -0.5100 0.0000
    outer loop
        vertex -0.7200 -0.1000 1.4400
        vertex -0.8400 -0.1000 1.0800
        vertex -0.6000 -0.1000 1.1200
    endloop
endfacet
facet normal 0.0000 -1.0400 0.0000
    outer loop
        vertex -0.6000 -0.1000 1.1200
        vertex -0.2000 -0.1000 1.4400
        vertex -0.7200 -0.1000 1.4400
    endloop
endfacet
facet normal 0.0000 -0.8200 0.0000
    outer loop
        vertex -0.2000 -0.1000 1.4400
        vertex -0.6000 -0.1000 1.1200
        vertex -0.2400 -0.1000 1.0800
    endloop
endfacet
facet normal 0.0000 -0.8400 0.0000
    outer loop
        vertex -0.2400 -0.1000 1.0800
        vertex 0.1600 -0.1000 1.3200
        vertex -0.2000 -0.1000 1.4400
    endloop
endfacet
facet normal 0.0000 -0.7600 0.0000
    outer loop
        vertex 0.1600 -0.1000 1.3200
        vertex -0.2400 -0.1000 1.0800
        vertex 0.0000 -0.1000 0.9200
    endloop
endfacet
facet normal 0.0000 -0.9400 0.0000
    outer loop
        vertex 0.0000 -0.1000 0.9200
        vertex 0.4400 -0.1000 1.0800
        vertex 0.1600 -0.1000 1.3200
    endloop
endfacet
facet normal 0.0000 -0.8500 0.0000
    outer loop
        vertex 0.5200 -0.1000 0.8000
        vertex 0.4400 -0.1000 1.0800
        vertex 0.0000 -0.1000 0.9200
    endloop
endfacet
facet normal 0.0000 -0.7500 0.0000
    outer loop
        vertex 0.0000 -0.1000 0.9200
        vertex 0.0400 -0.1000 0.6800
        vertex 0.5200 -0.1000 0.8000
    endloop
endfacet
facet normal 0.0000 -0.7800 0.0000
    outer loop
        vertex 0.4400 -0.1000 0.5200
        vertex 0.5200 -0.1000 0.8000
        vertex 0.0400 -0.1000 0.6800
    endloop
endfacet
facet normal 0.0000 -0.5800 0.0000
    outer loop
        vertex 0.0400 -0.1000 0.6800
        vertex -0.0400 -0.1000 0.4800
        vertex 0.4400 -0.1000 0.5200
    endloop
endfacet
facet normal 0.0000 -0.4500 0.0000
    outer loop
        vertex 0.3200 -0.1000 0.3600
        vertex 0.4400 -0.1000 0.5200
        vertex -0.0400 -0.1000 0.4800
    endloop
endfacet
facet normal 0.0000 -0.3600 0.0000
    outer loop
        vertex -0.0400 -0.1000 0.4800
        vertex 0.2000 -0.1000 0.2400
        vertex 0.3200 -0.1000 0.3600
    endloop
endfacet
facet normal 0.0000 -0.5400 0.0000
    outer loop
        vertex 0.2000 -0.1000 0.2400
        vertex -0.0400 -0.1000 0.4800
        vertex -0.2800 -0.1000 0.3600
    endloop
endfacet
facet normal 0.0000 -0.8100 0.0000
    outer loop
        vertex -0.2800 -0.1000 0.3600
        vertex -0.2400 -0.1000 0.0800
        vertex 0.2000 -0.1000 0.2400
    endloop
endfacet
facet normal 0.0000 -0.4900 0.0000
    outer loop
        vertex -0.2400 -0.1000 0.0800
        vertex -0.2800 -0.1000 0.3600
        vertex -0.5600 -0.1000 0.3600
    endloop
endfacet
facet normal 0.0000 -0.4800 0.0000
    outer loop
        vertex -0.5600 -0.1000 0.3600
        vertex -0.5600 -0.1000 0.1200
        vertex -0.2400 -0.1000 0.0800
    endloop
endfacet
facet normal 0.0000 -0.5400 0.0000
    outer loop
        vertex -0.5600 -0.1000 0.1200
        vertex -0.5600 -0.1000 0.3600
        vertex -0.9200 -0.1000 0.4000
    endloop
endfacet
facet normal 0.0000 -0.6300 0.0000
    outer loop
        vertex -0.9200 -0.1000 0.4000
        vertex -0.9200 -0.1000 0.1200
        vertex -0.5600 -0.1000 0.1200
    endloop
endfacet
facet normal 0.0000 -0.4200 0.0000
    outer loop
        vertex 0.2000 -0.1000 0.2400
        vertex -0.2400 -0.1000 0.0800
        vertex -0.0400 -0.1000 0.0000
    endloop
endfacet
facet normal 0.0000 -0.6600 0.0000
    outer loop
        vertex -0.0400 -0.1000 0.0000
        vertex 0.4400 -0.1000 0.0400
        vertex 0.2000 -0.1000 0.2400
    endloop
endfacet
facet normal 0.0000 -0.6400 0.0000
    outer loop
        vertex 0.4400 -0.1000 0.0400
        vertex -0.0400 -0.1000 0.0000
        vertex 0.1200 -0.1000 -0.2000
    endloop
endfacet
facet normal 0.0000 -0.6600 0.0000
    outer loop
        vertex 0.1200 -0.1000 -0.2000
        vertex 0.5600 -0.1000 -0.2000
        vertex 0.4400 -0.1000 0.0400
    endloop
endfacet
facet normal 0.0000 -0.5500 0.0000
    outer loop
        vertex 0.5600 -0.1000 -0.2000
        vertex 0.1200 -0.1000 -0.2000
        vertex 0.1200 -0.1000 -0.4000
    endloop
endfacet
facet normal 0.0000 -0.8800 0.0000
    outer loop
        vertex 0.1200 -0.1000 -0.4000
        vertex 0.5600 -0.1000 -0.5200
        vertex 0.5600 -0.1000 -0.2000
    endloop
endfacet
facet normal 0.0000 -0.6100 0.0000
    outer loop
        vertex 0.5600 -0.1000 -0.5200
        vertex 0.1200 -0.1000 -0.4000
        vertex 0.0400 -0.1000 -0.6000
    endloop
endfacet
facet normal 0.0000 -0.9600 0.0000
    outer loop
        vertex 0.0400 -0.1000 -0.6000
        vertex 0.4000 -0.1000 -0.8400
        vertex 0.5600 -0.1000 -0.5200
    endloop
endfacet
facet normal 0.0000 -0.7200 0.0000
    outer loop
        vertex 0.1600 -0.1000 -1.0000
        vertex 0.4000 -0.1000 -0.8400
        vertex 0.0400 -0.1000 -0.6000
    endloop
endfacet
facet normal 0.0000 -0.5900 0.0000
    outer loop
        vertex 0.0400 -0.1000 -0.6000
        vertex -0.1600 -0.1000 -0.7200
        vertex 0.1600 -0.1000 -1.0000
    endloop
endfacet
facet normal 0.0000 -0.8000 0.0000
    outer loop
        vertex -0.1600 -0.1000 -1.1200
        vertex 0.1600 -0.1000 -1.0000
        vertex -0.1600 -0.1000 -0.7200
    endloop
endfacet
facet normal 0.0000 -0.7000 0.0000
    outer loop
        vertex -0.1600 -0.1000 -0.7200
        vertex -0.4400 -0.1000 -0.7600
        vertex -0.1600 -0.1000 -1.1200
    endloop
endfacet
facet normal 0.0000 -0.8100 0.0000
    outer loop
        vertex -0.5200 -0.1000 -1.1200
        vertex -0.1600 -0.1000 -1.1200
        vertex -0.4400 -0.1000 -0.7600
    endloop
endfacet
facet normal 0.0000 -0.7400 0.0000
    outer loop
        vertex -0.4400 -0.1000 -0.7600
        vertex -0.7600 -0.1000 -0.7200
        vertex -0.5200 -0.1000 -1.1200
    endloop
endfacet
facet normal 0.0000 -0.7800 0.0000
    outer loop
        vertex -0.8800 -0.1000 -1.0400
        vertex -0.5200 -0.1000 -1.1200
        vertex -0.7600 -0.1000 -0.7200
    endloop
endfacet
facet normal 0.0000 -0.7300 0.0000
    outer loop
        vertex -0.7600 -0.1000 -0.7200
        vertex -1.0800 -0.1000 -0.6000
        vertex -0.8800 -0.1000 -1.0400
    endloop
endfacet
facet normal 0.0000 -0.7300 0.0000
    outer loop
        vertex -1.0800 -0.1000 -0.6000
        vertex -1.2000 -0.1000 -0.9200
        vertex -0.8800 -0.1000 -1.0400
    endloop
endfacet
facet normal 0.0000 -0.7661 0.0000
    outer loop
        vertex 1.8400 -0.1000 0.6400
        vertex 1.2692 -0.1000 0.8032
        vertex 1.2288 -0.1000 0.6000
    endloop
endfacet
facet normal 0.0000 -0.7863 0.0000
    outer loop
        vertex 1.2288 -0.1000 0.6000
        vertex 1.2692 -0.1000 0.3968
        vertex 1.8400 -0.1000 0.6400
    endloop
endfacet
facet normal 0.0000 -0.7901 0.0000
    outer loop
        vertex 1.8400 -0.1000 0.6400
        vertex 1.2692 -0.1000 0.3968
        vertex 1.3844 -0.1000 0.2244
    endloop
endfacet
facet normal 0.0000 -0.7758 0.0000
    outer loop
        vertex 1.3844 -0.1000 0.2244
        vertex 1.5568 -0.1000 0.1092
        vertex 1.8400 -0.1000 0.6400
    endloop
endfacet
facet normal 0.0000 -0.7456 0.0000
    outer loop
        vertex 1.8400 -0.1000 0.6400
        vertex 1.5568 -0.1000 0.1092
        vertex 1.7600 -0.1000 0.0688
    endloop
endfacet
facet normal 0.0000 -0.7052 0.0000
    outer loop
        vertex 1.7600 -0.1000 0.0688
        vertex 1.9632 -0.1000 0.1092
        vertex 1.8400 -0.1000 0.6400
    endloop
endfacet
facet normal 0.0000 -0.6606 0.0000
    outer loop
        vertex 1.8400 -0.1000 0.6400
        vertex 1.9632 -0.1000 0.1092
        vertex 2.1356 -0.1000 0.2244
    endloop
endfacet
facet normal 0.0000 -0.6177 0.0000
    outer loop
        vertex 2.1356 -0.1000 0.2244
        vertex 2.2508 -0.1000 0.3968
        vertex 1.8400 -0.1000 0.6400
    endloop
endfacet
facet normal 0.0000 -0.5831 0.0000
    outer loop
        vertex 1.8400 -0.1000 0.6400
        vertex 2.2508 -0.1000 0.3968
        vertex 2.2912 -0.1000 0.6000
    endloop
endfacet
facet normal 0.0000 -0.5629 0.0000
    outer loop
        vertex 2.2912 -0.1000 0.6000
        vertex 2.2508 -0.1000 0.8032
        vertex 1.8400 -0.1000 0.6400
    endloop
endfacet
facet normal 0.0000 -0.5601 0.0000
    outer loop
        vertex 1.8400 -0.1000 0.6400
        vertex 2.2508 -0.1000 0.8032
        vertex 2.1356 -0.1000 0.9756
    endloop
endfacet
facet normal 0.0000 -0.5744 0.0000
    outer loop
        vertex 2.1356 -0.1000 0.9756
        vertex 1.9632 -0.1000 1.0908
        vertex 1.8400 -0.1000 0.6400
    endloop
endfacet
facet normal 0.0000 -0.6036 0.0000
    outer loop
        vertex 1.8400 -0.1000 0.6400
        vertex 1.9632 -0.1000 1.0908
        vertex 1.7600 -0.1000 1.1312
    endloop
endfacet
facet normal 0.0000 -0.6440 0.0000
    outer loop
        vertex 1.7600 -0.1000 1.1312
        vertex 1.5568 -0.1000 1.0908
        vertex 1.8400 -0.1000 0.6400
    endloop
endfacet
facet normal 0.0000 -0.6896 0.0000
    outer loop
        vertex 1.8400 -0.1000 0.6400
        vertex 1.5568 -0.1000 1.0908
        vertex 1.3844 -0.1000 0.9756
    endloop
endfacet
facet normal 0.0000 -0.7325 0.0000
    outer loop
        vertex 1.3844 -0.1000 0.9756
        vertex 1.2692 -0.1000 0.8032
        vertex 1.8400 -0.1000 0.6400
    endloop
endfacet
facet normal 0.0000 -0.8218 0.0000
    outer loop
        vertex 1.0940 -0.1000 1.2260
        vertex 0.9020 -0.1000 0.9388
        vertex 1.2692 -0.1000 0.8032
    endloop
endfacet
facet normal 0.0000 -0.4932 0.0000
    outer loop
        vertex 1.2692 -0.1000 0.8032
        vertex 1.3844 -0.1000 0.9756
        vertex 1.0940 -0.1000 1.2260
    endloop
endfacet
facet normal 0.0000 -0.7979 0.0000
    outer loop
        vertex 1.3812 -0.1000 1.4180
        vertex 1.0940 -0.1000 1.2260
        vertex 1.3844 -0.1000 0.9756
    endloop
endfacet
facet normal 0.0000 -0.4790 0.0000
    outer loop
        vertex 1.3844 -0.1000 0.9756
        vertex 1.5568 -0.1000 1.0908
        vertex 1.3812 -0.1000 1.4180
    endloop
endfacet
facet normal 0.0000 -0.7666 0.0000
    outer loop
        vertex 1.7200 -0.1000 1.4852
        vertex 1.3812 -0.1000 1.4180
        vertex 1.5568 -0.1000 1.0908
    endloop
endfacet
facet normal 0.0000 -0.4597 0.0000
    outer loop
        vertex 1.5568 -0.1000 1.0908
        vertex 1.7600 -0.1000 1.1312
        vertex 1.7200 -0.1000 1.4852
    endloop
endfacet
facet normal 0.0000 -0.7328 0.0000
    outer loop
        vertex 2.0588 -0.1000 1.4180
        vertex 1.7200 -0.1000 1.4852
        vertex 1.7600 -0.1000 1.1312
    endloop
endfacet
facet normal 0.0000 -0.4397 0.0000
    outer loop
        vertex 1.7600 -0.1000 1.1312
        vertex 1.9632 -0.1000 1.0908
        vertex 2.0588 -0.1000 1.4180
    endloop
endfacet
facet normal 0.0000 -0.7838 0.0000
    outer loop
        vertex 2.3860 -0.1000 1.2260
        vertex 2.0588 -0.1000 1.4180
        vertex 1.9632 -0.1000 1.0908
    endloop
endfacet
facet normal 0.0000 -0.4501 0.0000
    outer loop
        vertex 1.9632 -0.1000 1.0908
        vertex 2.1356 -0.1000 0.9756
        vertex 2.3860 -0.1000 1.2260
    endloop
endfacet
facet normal 0.0000 -0.7499 0.0000
    outer loop
        vertex 2.5780 -0.1000 0.9388
        vertex 2.3860 -0.1000 1.2260
        vertex 2.1356 -0.1000 0.9756
    endloop
endfacet
facet normal 0.0000 -0.4502 0.0000
    outer loop
        vertex 2.1356 -0.1000 0.9756
        vertex 2.2508 -0.1000 0.8032
        vertex 2.5780 -0.1000 0.9388
    endloop
endfacet
facet normal 0.0000 -0.7837 0.0000
    outer loop
        vertex 2.6852 -0.1000 0.6000
        vertex 2.5780 -0.1000 0.9388
        vertex 2.2508 -0.1000 0.8032
    endloop
endfacet
facet normal 0.0000 -0.5004 0.0000
    outer loop
        vertex 2.2508 -0.1000 0.8032
        vertex 2.2912 -0.1000 0.6000
        vertex 2.6852 -0.1000 0.6000
    endloop
endfacet
facet normal 0.0000 -0.8343 0.0000
    outer loop
        vertex 2.6980 -0.1000 0.2612
        vertex 2.6852 -0.1000 0.6000
        vertex 2.2912 -0.1000 0.6000
    endloop
endfacet
facet normal 0.0000 -0.6022 0.0000
    outer loop
        vertex 2.2912 -0.1000 0.6000
        vertex 2.2508 -0.1000 0.3968
        vertex 2.6980 -0.1000 0.2612
    endloop
endfacet
facet normal 0.0000 -0.8298 0.0000
    outer loop
        vertex 2.6660 -0.1000 -0.0260
        vertex 2.6980 -0.1000 0.2612
        vertex 2.2508 -0.1000 0.3968
    endloop
endfacet
facet normal 0.0000 -0.7518 0.0000
    outer loop
        vertex 2.2508 -0.1000 0.3968
        vertex 2.1356 -0.1000 0.2244
        vertex 2.6660 -0.1000 -0.0260
    endloop
endfacet
facet normal 0.0000 -1.1035 0.0000
    outer loop
        vertex 2.1600 -0.1000 -0.1200
        vertex 2.6660 -0.1000 -0.0260
        vertex 2.1356 -0.1000 0.2244
    endloop
endfacet
facet normal 0.0000 -0.1661 0.0000
    outer loop
        vertex 2.1356 -0.1000 0.2244
        vertex 2.0800 -0.1000 -0.0800
        vertex 2.1600 -0.1000 -0.1200
    endloop
endfacet
facet normal 0.0000 -0.2880 0.0000
    outer loop
        vertex 2.0800 -0.1000 -0.0800
        vertex 2.1356 -0.1000 0.2244
        vertex 1.9632 -0.1000 0.1092
    endloop
endfacet
facet normal 0.0000 -0.1620 0.0000
    outer loop
        vertex 1.9632 -0.1000 0.1092
        vertex 1.9788 -0.1000 -0.1380
        vertex 2.0800 -0.1000 -0.0800
    endloop
endfacet
facet normal 0.0000 -0.3179 0.0000
    outer loop
        vertex 1.9788 -0.1000 -0.1380
        vertex 1.9632 -0.1000 0.1092
        vertex 1.7600 -0.1000 0.0688
    endloop
endfacet
facet normal 0.0000 -0.4264 0.0000
    outer loop
        vertex 1.7600 -0.1000 0.0688
        vertex 1.7200 -0.1000 -0.2052
        vertex 1.9788 -0.1000 -0.1380
    endloop
endfacet
facet normal 0.0000 -0.3581 0.0000
    outer loop
        vertex 1.7200 -0.1000 -0.2052
        vertex 1.7600 -0.1000 0.0688
        vertex 1.5568 -0.1000 0.1092
    endloop
endfacet
facet normal 0.0000 -0.6380 0.0000
    outer loop
        vertex 1.5568 -0.1000 0.1092
        vertex 1.3812 -0.1000 -0.1780
        vertex 1.7200 -0.1000 -0.2052
    endloop
endfacet
facet normal 0.0000 -0.4359 0.0000
    outer loop
        vertex 1.3812 -0.1000 -0.1780
        vertex 1.5568 -0.1000 0.1092
        vertex 1.3844 -0.1000 0.2244
    endloop
endfacet
facet normal 0.0000 -0.7253 0.0000
    outer loop
        vertex 1.3844 -0.1000 0.2244
        vertex 1.0940 -0.1000 -0.0260
        vertex 1.3812 -0.1000 -0.1780
    endloop
endfacet
facet normal 0.0000 -0.4932 0.0000
    outer loop
        vertex 1.0940 -0.1000 -0.0260
        vertex 1.3844 -0.1000 0.2244
        vertex 1.2692 -0.1000 0.3968
    endloop
endfacet
facet normal 0.0000 -0.8218 0.0000
    outer loop
        vertex 1.2692 -0.1000 0.3968
        vertex 0.9020 -0.1000 0.2612
        vertex 1.0940 -0.1000 -0.0260
    endloop
endfacet
facet normal 0.0000 -0.5006 0.0000
    outer loop
        vertex 0.9020 -0.1000 0.2612
        vertex 1.2692 -0.1000 0.3968
        vertex 1.2288 -0.1000 0.6000
    endloop
endfacet
facet normal 0.0000 -0.8343 0.0000
    outer loop
        vertex 1.2288 -0.1000 0.6000
        vertex 0.8348 -0.1000 0.6000
        vertex 0.9020 -0.1000 0.2612
    endloop
endfacet
facet normal 0.0000 -0.5004 0.0000
    outer loop
        vertex 0.8348 -0.1000 0.6000
        vertex 1.2288 -0.1000 0.6000
        vertex 1.2692 -0.1000 0.8032
    endloop
endfacet
facet normal 0.0000 -0.8345 0.0000
    outer loop
        vertex 1.2692 -0.1000 0.8032
        vertex 0.9020 -0.1000 0.9388
        vertex 0.8348 -0.1000 0.6000
    endloop
endfacet
facet normal 0.0000 -0.6380 0.0000
    outer loop
        vertex 2.6660 -0.1000 -0.0260
        vertex 2.1600 -0.1000 -0.1200
        vertex 2.6000 -0.1000 -0.2400
    endloop
endfacet
facet normal 0.0000 -0.3300 0.0000
    outer loop
        vertex 2.6000 -0.1000 -0.2400
        vertex 2.1600 -0.1000 -0.1200
        vertex 2.1600 -0.1000 -0.2400
    endloop
endfacet
facet normal 0.0000 -0.6600 0.0000
    outer loop
        vertex 2.1600 -0.1000 -0.2400
        vertex 2.4800 -0.1000 -0.4800
        vertex 2.6000 -0.1000 -0.2400
    endloop
endfacet
facet normal 0.0000 -0.4400 0.0000
    outer loop
        vertex 2.4800 -0.1000 -0.4800
        vertex 2.1600 -0.1000 -0.2400
        vertex 2.0800 -0.1000 -0.4000
    endloop
endfacet
facet normal 0.0000 -0.7000 0.0000
    outer loop
        vertex 2.0800 -0.1000 -0.4000
        vertex 2.2800 -0.1000 -0.7200
        vertex 2.4800 -0.1000 -0.4800
    endloop
endfacet
facet normal 0.0000 -0.3900 0.0000
    outer loop
        vertex 2.2800 -0.1000 -0.7200
        vertex 2.0800 -0.1000 -0.4000
        vertex 1.9600 -0.1000 -0.5200
    endloop
endfacet
facet normal 0.0000 -0.5700 0.0000
    outer loop
        vertex 1.9600 -0.1000 -0.5200
        vertex 2.0800 -0.1000 -0.8800
        vertex 2.2800 -0.1000 -0.7200
    endloop
endfacet
facet normal 0.0000 -0.5700 0.0000
    outer loop
        vertex 2.0800 -0.1000 -0.8800
        vertex 1.9600 -0.1000 -0.5200
        vertex 1.7600 -0.1000 -0.6800
    endloop
endfacet
facet normal 0.0000 -0.6700 0.0000
    outer loop
        vertex 1.7600 -0.1000 -0.6800
        vertex 1.8000 -0.1000 -1.0400
        vertex 2.0800 -0.1000 -0.8800
    endloop
endfacet
facet normal 0.0000 -0.6600 0.0000
    outer loop
        vertex 1.8000 -0.1000 -1.0400
        vertex 1.7600 -0.1000 -0.6800
        vertex 1.4800 -0.1000 -0.8000
    endloop
endfacet
facet normal 0.0000 -0.5800 0.0000
    outer loop
        vertex 1.4800 -0.1000 -0.8000
        vertex 1.5200 -0.1000 -1.1200
        vertex 1.8000 -0.1000 -1.0400
    endloop
endfacet
facet normal 0.0000 -0.7300 0.0000
    outer loop
        vertex 1.5200 -0.1000 -1.1200
        vertex 1.4800 -0.1000 -0.8000
        vertex 1.1200 -0.1000 -0.8400
    endloop
endfacet
facet normal 0.0000 -0.4900 0.0000
    outer loop
        vertex 1.1200 -0.1000 -0.8400
        vertex 1.2400 -0.1000 -1.1200
        vertex 1.5200 -0.1000 -1.1200
    endloop
endfacet
facet normal 0.0000 -2.2500 0.0000
    outer loop
        vertex 4.4800 -0.1000 1.4000
        vertex 3.4800 -0.1000 1.0400
        vertex 4.4800 -0.1000 1.0400
    endloop
endfacet
facet normal 0.0000 -3.0600 0.0000
    outer loop
        vertex 4.4800 -0.1000 1.4000
        vertex 3.1200 -0.1000 1.4000
        vertex 3.4800 -0.1000 1.0400
    endloop
endfacet
facet normal 0.0000 -2.7900 0.0000
    outer loop
        vertex 3.4800 -0.1000 1.0400
        vertex 3.1200 -0.1000 1.4000
        vertex 3.1200 -0.1000 0.1600
    endloop
endfacet
facet normal 0.0000 -1.2600 0.0000
    outer loop
        vertex 3.1200 -0.1000 0.1600
        vertex 3.4800 -0.1000 0.4800
        vertex 3.4800 -0.1000 1.0400
    endloop
endfacet
facet normal 0.0000 -1.3600 0.0000
    outer loop
        vertex 3.4800 -0.1000 0.4800
        vertex 3.1200 -0.1000 0.1600
        vertex 3.8000 -0.1000 0.1600
    endloop
endfacet
facet normal 0.0000 -1.1200 0.0000
    outer loop
        vertex 3.8000 -0.1000 0.1600
        vertex 4.0400 -0.1000 0.4800
        vertex 3.4800 -0.1000 0.4800
    endloop
endfacet
facet normal 0.0000 -0.6800 0.0000
    outer loop
        vertex 4.0400 -0.1000 0.4800
        vertex 3.8000 -0.1000 0.1600
        vertex 4.0800 -0.1000 0.0800
    endloop
endfacet
facet normal 0.0000 -0.7700 0.0000
    outer loop
        vertex 4.0800 -0.1000 0.0800
        vertex 4.3600 -0.1000 0.3600
        vertex 4.0400 -0.1000 0.4800
    endloop
endfacet
facet normal 0.0000 -0.6300 0.0000
    outer loop
        vertex 4.3600 -0.1000 0.3600
        vertex 4.0800 -0.1000 0.0800
        vertex 4.2400 -0.1000 -0.1200
    endloop
endfacet
facet normal 0.0000 -0.8700 0.0000
    outer loop
        vertex 4.2400 -0.1000 -0.1200
        vertex 4.6000 -0.1000 0.1600
        vertex 4.3600 -0.1000 0.3600
    endloop
endfacet
facet normal 0.0000 -0.9500 0.0000
    outer loop
        vertex 4.6800 -0.1000 -0.2000
        vertex 4.6000 -0.1000 0.1600
        vertex 4.2400 -0.1000 -0.1200
    endloop
endfacet
facet normal 0.0000 -0.6600 0.0000
    outer loop
        vertex 4.2400 -0.1000 -0.1200
        vertex 4.2400 -0.1000 -0.3600
        vertex 4.6800 -0.1000 -0.2000
    endloop
endfacet
facet normal 0.0000 -0.8400 0.0000
    outer loop
        vertex 4.6400 -0.1000 -0.5200
        vertex 4.6800 -0.1000 -0.2000
        vertex 4.2400 -0.1000 -0.3600
    endloop
endfacet
facet normal 0.0000 -0.5800 0.0000
    outer loop
        vertex 4.2400 -0.1000 -0.3600
        vertex 4.1600 -0.1000 -0.5600
        vertex 4.6400 -0.1000 -0.5200
    endloop
endfacet
facet normal 0.0000 -0.8000 0.0000
    outer loop
        vertex 4.4800 -0.1000 -0.8000
        vertex 4.6400 -0.1000 -0.5200
        vertex 4.1600 -0.1000 -0.5600
    endloop
endfacet
facet normal 0.0000 -0.6800 0.0000
    outer loop
        vertex 4.1600 -0.1000 -0.5600
        vertex 3.9200 -0.1000 -0.7200
        vertex 4.4800 -0.1000 -0.8000
    endloop
endfacet
facet normal 0.0000 -0.6600 0.0000
    outer loop
        vertex 4.2800 -0.1000 -0.9600
        vertex 4.4800 -0.1000 -0.8000
        vertex 3.9200 -0.1000 -0.7200
    endloop
endfacet
facet normal 0.0000 -0.7500 0.0000
    outer loop
        vertex 3.9200 -0.1000 -0.7200
        vertex 3.9600 -0.1000 -1.0800
        vertex 4.2800 -0.1000 -0.9600
    endloop
endfacet
facet normal 0.0000 -0.6400 0.0000
    outer loop
        vertex 3.9600 -0.1000 -1.0800
        vertex 3.9200 -0.1000 -0.7200
        vertex 3.6400 -0.1000 -0.7600
    endloop
endfacet
facet normal 0.0000 -0.8000 0.0000
    outer loop
        vertex 3.6400 -0.1000 -0.7600
        vertex 3.5600 -0.1000 -1.0800
        vertex 3.9600 -0.1000 -1.0800
    endloop
endfacet
facet normal 0.0000 -0.7600 0.0000
    outer loop
        vertex 3.5600 -0.1000 -1.0800
        vertex 3.6400 -0.1000 -0.7600
        vertex 3.2800 -0.1000 -0.6800
    endloop
endfacet
facet normal 0.0000 -0.7600 0.0000
    outer loop
        vertex 3.2800 -0.1000 -0.6800
        vertex 3.2000 -0.1000 -1.0000
        vertex 3.5600 -0.1000 -1.0800
    endloop
endfacet
facet normal 0.0000 -0.7200 0.0000
    outer loop
        vertex 3.2000 -0.1000 -1.0000
        vertex 3.2800 -0.1000 -0.6800
        vertex 2.9600 -0.1000 -0.5200
    endloop
endfacet
facet normal 0.0000 -0.7200 0.0000
    outer loop
        vertex 2.9600 -0.1000 -0.5200
        vertex 2.9200 -0.1000 -0.9200
        vertex 3.2000 -0.1000 -1.0000
    endloop
endfacet
facet normal 0.0000 -2.9700 0.0000
    outer loop
        vertex 4.9600 -0.1000 1.4400
        vertex 4.9600 -0.1000 1.0000
        vertex 6.0400 -0.1000 1.0400
    endloop
endfacet
facet normal 0.0000 -3.9300 0.0000
    outer loop
        vertex 6.0400 -0.1000 1.0400
        vertex 6.6400 -0.1000 1.4000
        vertex 4.9600 -0.1000 1.4400
    endloop
endfacet
facet normal 0.0000 -0.4800 0.0000
    outer loop
        vertex 6.6400 -0.1000 1.4000
        vertex 6.0400 -0.1000 1.0400
        vertex 6.1200 -0.1000 0.9600
    endloop
endfacet
facet normal 0.0000 -0.7800 0.0000
    outer loop
        vertex 6.1200 -0.1000 0.9600
        vertex 6.6400 -0.1000 1.1600
        vertex 6.6400 -0.1000 1.4000
    endloop
endfacet
facet normal 0.0000 -0.8700 0.0000
    outer loop
        vertex 6.4000 -0.1000 0.8000
        vertex 6.6400 -0.1000 1.1600
        vertex 6.1200 -0.1000 0.9600
    endloop
endfacet
facet normal 0.0000 -1.2600 0.0000
    outer loop
        vertex 6.1200 -0.1000 0.9600
        vertex 5.8400 -0.1000 0.4000
        vertex 6.4000 -0.1000 0.8000
    endloop
endfacet
facet normal 0.0000 -1.5400 0.0000
    outer loop
        vertex 6.1200 -0.1000 0.1600
        vertex 6.4000 -0.1000 0.8000
        vertex 5.8400 -0.1000 0.4000
    endloop
endfacet
facet normal 0.0000 -1.7400 0.0000
    outer loop
        vertex 5.8400 -0.1000 0.4000
        vertex 5.5200 -0.1000 -0.3200
        vertex 6.1200 -0.1000 0.1600
    endloop
endfacet
facet normal 0.0000 -1.9500 0.0000
    outer loop
        vertex 5.9200 -0.1000 -0.5200
        vertex 6.1200 -0.1000 0.1600
        vertex 5.5200 -0.1000 -0.3200
    endloop
endfacet
facet normal 0.0000 -1.7500 0.0000
    outer loop
        vertex 5.5200 -0.1000 -0.3200
        vertex 5.3200 -0.1000 -0.9200
        vertex 5.9200 -0.1000 -0.5200
    endloop
endfacet
facet normal 0.0000 -1.6500 0.0000
    outer loop
        vertex 5.8000 -0.1000 -1.0400
        vertex 5.9200 -0.1000 -0.5200
        vertex 5.3200 -0.1000 -0.9200
    endloop
endfacet
facet normal 0.0000 -0.3900 0.0000
    outer loop
        vertex 5.3200 -0.1000 -0.9200
        vertex 5.2800 -0.1000 -1.0400
        vertex 5.8000 -0.1000 -1.0400
    endloop
endfacet
facet normal 0.0000 -43.1200 0.0000
    outer loop
        vertex 0.0000 -0.1000 -1.8400
        vertex -7.8400 -0.1000 -2.2800
        vertex 7.8400 -0.1000 -2.2800
    endloop
endfacet
facet normal 0.0000 -11.0000 0.0000
    outer loop
        vertex 7.8400 -0.1000 -2.2800
        vertex 4.0000 -0.1000 -1.8400
        vertex 0.0000 -0.1000 -1.8400
    endloop
endfacet
facet normal 0.0000 -4.2800 0.0000
    outer loop
        vertex 4.0000 -0.1000 -1.8400
        vertex 7.8400 -0.1000 -2.2800
        vertex 8.0000 -0.1000 -2.1200
    endloop
endfacet
facet normal 0.0000 -7.0000 0.0000
    outer loop
        vertex 8.0000 -0.1000 -2.1200
        vertex 8.0000 -0.1000 -1.8400
        vertex 4.0000 -0.1000 -1.8400
    endloop
endfacet
facet normal 0.0000 -0.4900 0.0000
    outer loop
        vertex 8.0000 -0.1000 -1.8400
        vertex 8.0000 -0.1000 -2.1200
        vertex 8.2800 -0.1000 -2.0000
    endloop
endfacet
facet normal 0.0000 -7.2100 0.0000
    outer loop
        vertex 8.0000 -0.1000 2.2800
        vertex 8.0000 -0.1000 -1.8400
        vertex 8.2800 -0.1000 -2.0000
    endloop
endfacet
facet normal 0.0000 -7.9100 0.0000
    outer loop
        vertex 8.2800 -0.1000 -2.0000
        vertex 8.2800 -0.1000 2.5200
        vertex 8.0000 -0.1000 2.2800
    endloop
endfacet
facet normal 0.0000 -6.0000 0.0000
    outer loop
        vertex 8.2800 -0.1000 2.5200
        vertex 4.0000 -0.1000 2.2800
        vertex 8.0000 -0.1000 2.2800
    endloop
endfacet
facet normal 0.0000 -6.0000 0.0000
    outer loop
        vertex 0.0000 -0.1000 2.2800
        vertex 4.0000 -0.1000 2.2800
        vertex 8.2800 -0.1000 2.5200
    endloop
endfacet
facet normal 0.0000 -24.8400 0.0000
    outer loop
        vertex 8.2800 -0.1000 2.5200
        vertex -8.2800 -0.1000 2.5200
        vertex 0.0000 -0.1000 2.2800
    endloop
endfacet
facet normal 0.0000 -6.0000 0.0000
    outer loop
        vertex -8.2800 -0.1000 2.5200
        vertex -4.0000 -0.1000 2.2800
        vertex 0.0000 -0.1000 2.2800
    endloop
endfacet
facet normal 0.0000 -6.0000 0.0000
    outer loop
        vertex -8.2800 -0.1000 2.5200
        vertex -8.0000 -0.1000 2.2800
        vertex -4.0000 -0.1000 2.2800
    endloop
endfacet
facet normal 0.0000 -7.9100 0.0000
    outer loop
        vertex -8.0000 -0.1000 2.2800
        vertex -8.2800 -0.1000 2.5200
        vertex -8.2800 -0.1000 -2.0000
    endloop
endfacet
facet normal 0.0000 -7.2100 0.0000
    outer loop
        vertex -8.2800 -0.1000 -2.0000
        vertex -8.0000 -0.1000 -1.8400
        vertex -8.0000 -0.1000 2.2800
    endloop
endfacet
facet normal 0.0000 -0.4900 0.0000
    outer loop
        vertex -8.0000 -0.1000 -1.8400
        vertex -8.2800 -0.1000 -2.0000
        vertex -8.0000 -0.1000 -2.1200
    endloop
endfacet
facet normal 0.0000 -7.0000 0.0000
    outer loop
        vertex -8.0000 -0.1000 -2.1200
        vertex -4.0000 -0.1000 -1.8400
        vertex -8.0000 -0.1000 -1.8400
    endloop
endfacet
facet normal 0.0000 -4.2800 0.0000
    outer loop
        vertex -4.0000 -0.1000 -1.8400
        vertex -8.0000 -0.1000 -2.1200
        vertex -7.8400 -0.1000 -2.2800
    endloop
endfacet
facet normal 0.0000 -11.0000 0.0000
    outer loop
        vertex -7.8400 -0.1000 -2.2800
        vertex 0.0000 -0.1000 -1.8400
        vertex -4.0000 -0.1000 -1.8400
    endloop
endfacet
facet normal 0.0000 -12.1800 0.0000
    outer loop
        vertex -10.1200 -0.1000 0.3600
        vertex -13.6000 -0.1000 0.3600
        vertex -13.5600 -0.1000 -0.2000
    endloop
endfacet
facet normal 0.0000 -12.0400 0.0000
    outer loop
        vertex -13.5600 -0.1000 -0.2000
        vertex -10.1200 -0.1000 -0.2000
        vertex -10.1200 -0.1000 0.3600
    endloop
endfacet
facet normal 0.0000 -0.8400 0.0000
    outer loop
        vertex -9.8800 -0.1000 0.2800
        vertex -10.1200 -0.1000 0.3600
        vertex -10.1200 -0.1000 -0.2000
    endloop
endfacet
facet normal 0.0000 -0.8400 0.0000
    outer loop
        vertex -10.1200 -0.1000 -0.2000
        vertex -9.8800 -0.1000 -0.2800
        vertex -9.8800 -0.1000 0.2800
    endloop
endfacet
facet normal 0.0000 -0.7000 0.0000
    outer loop
        vertex -9.6800 -0.1000 0.1200
        vertex -9.8800 -0.1000 0.2800
        vertex -9.8800 -0.1000 -0.2800
    endloop
endfacet
facet normal 0.0000 -0.5500 0.0000
    outer loop
        vertex -9.8800 -0.1000 -0.2800
        vertex -9.7600 -0.1000 -0.4800
        vertex -9.6800 -0.1000 0.1200
    endloop
endfacet
facet normal 0.0000 -0.5900 0.0000
    outer loop
        vertex -9.5600 -0.1000 -0.1600
        vertex -9.6800 -0.1000 0.1200
        vertex -9.7600 -0.1000 -0.4800
    endloop
endfacet
facet normal 0.0000 -1.3000 0.0000
    outer loop
        vertex -9.7600 -0.1000 -0.4800
        vertex -9.7600 -0.1000 -1.5200
        vertex -9.5600 -0.1000 -0.1600
    endloop
endfacet
facet normal 0.0000 -1.7500 0.0000
    outer loop
        vertex -9.5600 -0.1000 -1.5600
        vertex -9.5600 -0.1000 -0.1600
        vertex -9.7600 -0.1000 -1.5200
    endloop
endfacet
facet normal 0.0000 -0.3200 0.0000
    outer loop
        vertex -9.7600 -0.1000 -1.5200
        vertex -9.6400 -0.1000 -1.8000
        vertex -9.5600 -0.1000 -1.5600
    endloop
endfacet
facet normal 0.0000 -0.2900 0.0000
    outer loop
        vertex -9.6400 -0.1000 -1.8000
        vertex -9.7600 -0.1000 -1.5200
        vertex -9.8400 -0.1000 -1.7200
    endloop
endfacet
facet normal 0.0000 -0.2600 0.0000
    outer loop
        vertex -9.8400 -0.1000 -1.7200
        vertex -9.7600 -0.1000 -1.9600
        vertex -9.6400 -0.1000 -1.8000
    endloop
endfacet
facet normal 0.0000 -0.3600 0.0000
    outer loop
        vertex -9.7600 -0.1000 -1.9600
        vertex -9.8400 -0.1000 -1.7200
        vertex -10.0400 -0.1000 -1.8400
    endloop
endfacet
facet normal 0.0000 -0.2900 0.0000
    outer loop
        vertex -10.0400 -0.1000 -1.8400
        vertex -9.9600 -0.1000 -2.0400
        vertex -9.7600 -0.1000 -1.9600
    endloop
endfacet
facet normal 0.0000 -4.4000 0.0000
    outer loop
        vertex -9.9600 -0.1000 -2.0400
        vertex -10.0400 -0.1000 -1.8400
        vertex -13.5600 -0.1000 -1.8400
    endloop
endfacet
facet normal 0.0000 -4.6500 0.0000
    outer loop
        vertex -13.5600 -0.1000 -1.8400
        vertex -13.6800 -0.1000 -2.0400
        vertex -9.9600 -0.1000 -2.0400
    endloop
endfacet
facet normal 0.0000 -0.3600 0.0000
    outer loop
        vertex -13.6800 -0.1000 -2.0400
        vertex -13.5600 -0.1000 -1.8400
        vertex -13.8000 -0.1000 -1.7600
    endloop
endfacet
facet normal 0.0000 -0.2900 0.0000
    outer loop
        vertex -13.8000 -0.1000 -1.7600
        vertex -13.8800 -0.1000 -1.9600
        vertex -13.6800 -0.1000 -2.0400
    endloop
endfacet
facet normal 0.0000 -0.2800 0.0000
    outer loop
        vertex -14.0400 -0.1000 -1.8000
        vertex -13.8800 -0.1000 -1.9600
        vertex -13.8000 -0.1000 -1.7600
    endloop
endfacet
facet normal 0.0000 -0.3300 0.0000
    outer loop
        vertex -13.8000 -0.1000 -1.7600
        vertex -13.9200 -0.1000 -1.5600
        vertex -14.0400 -0.1000 -1.8000
    endloop
endfacet
facet normal 0.0000 -0.3000 0.0000
    outer loop
        vertex -14.1200 -0.1000 -1.5600
        vertex -14.0400 -0.1000 -1.8000
        vertex -13.9200 -0.1000 -1.5600
    endloop
endfacet
facet normal 0.0000 -1.3500 0.0000
    outer loop
        vertex -13.9200 -0.1000 -1.5600
        vertex -13.9200 -0.1000 -0.4800
        vertex -14.1200 -0.1000 -1.5600
    endloop
endfacet
facet normal 0.0000 -1.8000 0.0000
    outer loop
        vertex -14.1200 -0.1000 -0.1200
        vertex -14.1200 -0.1000 -1.5600
        vertex -13.9200 -0.1000 -0.4800
    endloop
endfacet
facet normal 0.0000 -0.5200 0.0000
    outer loop
        vertex -14.1200 -0.1000 -0.1200
        vertex -13.9200 -0.1000 -0.4800
        vertex -13.8000 -0.1000 -0.2800
    endloop
endfacet
facet normal 0.0000 -0.5600 0.0000
    outer loop
        vertex -13.8000 -0.1000 -0.2800
        vertex -14.0400 -0.1000 0.1200
        vertex -14.1200 -0.1000 -0.1200
    endloop
endfacet
facet normal 0.0000 -0.7200 0.0000
    outer loop
        vertex -14.0400 -0.1000 0.1200
        vertex -13.8000 -0.1000 -0.2800
        vertex -13.5600 -0.1000 -0.2000
    endloop
endfacet
facet normal 0.0000 -0.8000 0.0000
    outer loop
        vertex -13.5600 -0.1000 -0.2000
        vertex -13.8800 -0.1000 0.2800
        vertex -14.0400 -0.1000 0.1200
    endloop
endfacet
facet normal 0.0000 -1.0000 0.0000
    outer loop
        vertex -13.6000 -0.1000 0.3600
        vertex -13.8800 -0.1000 0.2800
        vertex -13.5600 -0.1000 -0.2000
    endloop
endfacet
facet normal 0.0000 -12.1800 0.0000
    outer loop
        vertex 13.4400 -0.1000 0.3600
        vertex 9.9600 -0.1000 0.3600
        vertex 10.0000 -0.1000 -0.2000
    endloop
endfacet
facet normal 0.0000 -12.0400 0.0000
    outer loop
        vertex 10.0000 -0.1000 -0.2000
        vertex 13.4400 -0.1000 -0.2000
        vertex 13.4400 -0.1000 0.3600
    endloop
endfacet
facet normal 0.0000 -0.8400 0.0000
    outer loop
        vertex 13.6800 -0.1000 0.2800
        vertex 13.4400 -0.1000 0.3600
        vertex 13.4400 -0.1000 -0.2000
    endloop
endfacet
facet normal 0.0000 -0.8400 0.0000
    outer loop
        vertex 13.4400 -0.1000 -0.2000
        vertex 13.6800 -0.1000 -0.2800
        vertex 13.6800 -0.1000 0.2800
    endloop
endfacet
facet normal 0.0000 -0.7000 0.0000
    outer loop
        vertex 13.8800 -0.1000 0.1200
        vertex 13.6800 -0.1000 0.2800
        vertex 13.6800 -0.1000 -0.2800
    endloop
endfacet
facet normal 0.0000 -0.5500 0.0000
    outer loop
        vertex 13.6800 -0.1000 -0.2800
        vertex 13.8000 -0.1000 -0.4800
        vertex 13.8800 -0.1000 0.1200
    endloop
endfacet
facet normal 0.0000 -0.5900 0.0000
    outer loop
        vertex 14.0000 -0.1000 -0.1600
        vertex 13.8800 -0.1000 0.1200
        vertex 13.8000 -0.1000 -0.4800
    endloop
endfacet
facet normal 0.0000 -1.3000 0.0000
    outer loop
        vertex 13.8000 -0.1000 -0.4800
        vertex 13.8000 -0.1000 -1.5200
        vertex 14.0000 -0.1000 -0.1600
    endloop
endfacet
facet normal 0.0000 -1.7500 0.0000
    outer loop
        vertex 14.0000 -0.1000 -1.5600
        vertex 14.0000 -0.1000 -0.1600
        vertex 13.8000 -0.1000 -1.5200
    endloop
endfacet
facet normal 0.0000 -0.3200 0.0000
    outer loop
        vertex 13.8000 -0.1000 -1.5200
        vertex 13.9200 -0.1000 -1.8000
        vertex 14.0000 -0.1000 -1.5600
    endloop
endfacet
facet normal 0.0000 -0.2900 0.0000
    outer loop
        vertex 13.9200 -0.1000 -1.8000
        vertex 13.8000 -0.1000 -1.5200
        vertex 13.7200 -0.1000 -1.7200
    endloop
endfacet
facet normal 0.0000 -0.2600 0.0000
    outer loop
        vertex 13.7200 -0.1000 -1.7200
        vertex 13.8000 -0.1000 -1.9600
        vertex 13.9200 -0.1000 -1.8000
    endloop
endfacet
facet normal 0.0000 -0.3600 0.0000
    outer loop
        vertex 13.8000 -0.1000 -1.9600
        vertex 13.7200 -0.1000 -1.7200
        vertex 13.5200 -0.1000 -1.8400
    endloop
endfacet
facet normal 0.0000 -0.2900 0.0000
    outer loop
        vertex 13.5200 -0.1000 -1.8400
        vertex 13.6000 -0.1000 -2.0400
        vertex 13.8000 -0.1000 -1.9600
    endloop
endfacet
facet normal 0.0000 -4.4000 0.0000
    outer loop
        vertex 13.6000 -0.1000 -2.0400
        vertex 13.5200 -0.1000 -1.8400
        vertex 10.0000 -0.1000 -1.8400
    endloop
endfacet
facet normal 0.0000 -4.6500 0.0000
    outer loop
        vertex 10.0000 -0.1000 -1.8400
        vertex 9.8800 -0.1000 -2.0400
        vertex 13.6000 -0.1000 -2.0400
    endloop
endfacet
facet normal 0.0000 -0.3600 0.0000
    outer loop
        vertex 9.8800 -0.1000 -2.0400
        vertex 10.0000 -0.1000 -1.8400
        vertex 9.7600 -0.1000 -1.7600
    endloop
endfacet
facet normal 0.0000 -0.2900 0.0000
    outer loop
        vertex 9.7600 -0.1000 -1.7600
        vertex 9.6800 -0.1000 -1.9600
        vertex 9.8800 -0.1000 -2.0400
    endloop
endfacet
facet normal 0.0000 -0.2800 0.0000
    outer loop
        vertex 9.5200 -0.1000 -1.8000
        vertex 9.6800 -0.1000 -1.9600
        vertex 9.7600 -0.1000 -1.7600
    endloop
endfacet
facet normal 0.0000 -0.3300 0.0000
    outer loop
        vertex 9.7600 -0.1000 -1.7600
        vertex 9.6400 -0.1000 -1.5600
        vertex 9.5200 -0.1000 -1.8000
    endloop
endfacet
facet normal 0.0000 -0.3000 0.0000
    outer loop
        vertex 9.4400 -0.1000 -1.5600
        vertex 9.5200 -0.1000 -1.8000
        vertex 9.6400 -0.1000 -1.5600
    endloop
endfacet
facet normal 0.0000 -1.3500 0.0000
    outer loop
        vertex 9.6400 -0.1000 -1.5600
        vertex 9.6400 -0.1000 -0.4800
        vertex 9.4400 -0.1000 -1.5600
    endloop
endfacet
facet normal 0.0000 -1.8000 0.0000
    outer loop
        vertex 9.4400 -0.1000 -0.1200
        vertex 9.4400 -0.1000 -1.5600
        vertex 9.6400 -0.1000 -0.4800
    endloop
endfacet
facet normal 0.0000 -0.5200 0.0000
    outer loop
        vertex 9.4400 -0.1000 -0.1200
        vertex 9.6400 -0.1000 -0.4800
        vertex 9.7600 -0.1000 -0.2800
    endloop
endfacet
facet normal 0.0000 -0.5600 0.0000
    outer loop
        vertex 9.7600 -0.1000 -0.2800
        vertex 9.5200 -0.1000 0.1200
        vertex 9.4400 -0.1000 -0.1200
    endloop
endfacet
facet normal 0.0000 -0.7200 0.0000
    outer loop
        vertex 9.5200 -0.1000 0.1200
        vertex 9.7600 -0.1000 -0.2800
        vertex 10.0000 -0.1000 -0.2000
    endloop
endfacet
facet normal 0.0000 -0.8000 0.0000
    outer loop
        vertex 10.0000 -0.1000 -0.2000
        vertex 9.6800 -0.1000 0.2800
        vertex 9.5200 -0.1000 0.1200
    endloop
endfacet
facet normal 0.0000 -1.0000 0.0000
    outer loop
        vertex 9.9600 -0.1000 0.3600
        vertex 9.6800 -0.1000 0.2800
        vertex 10.0000 -0.1000 -0.2000
    endloop
endfacet
facet normal 0.0000 -38.1100 0.0000
    outer loop
        vertex -6.5200 -0.1000 1.5600
        vertex -8.0000 -0.1000 2.2800
        vertex -8.0000 -0.1000 -1.8400
    endloop
endfacet
facet normal 0.0000 -24.0500 0.0000
    outer loop
        vertex -8.0000 -0.1000 -1.8400
        vertex -6.5200 -0.1000 -1.0400
        vertex -6.5200 -0.1000 1.5600
    endloop
endfacet
facet normal 0.0000 -20.0000 0.0000
    outer loop
        vertex -6.5200 -0.1000 -1.0400
        vertex -8.0000 -0.1000 -1.8400
        vertex -4.0000 -0.1000 -1.8400
    endloop
endfacet
facet normal 0.0000 -8.8000 0.0000
    outer loop
        vertex -4.0000 -0.1000 -1.8400
        vertex -4.7600 -0.1000 -1.0400
        vertex -6.5200 -0.1000 -1.0400
    endloop
endfacet
facet normal 0.0000 -5.4000 0.0000
    outer loop
        vertex -3.6800 -0.1000 -1.0400
        vertex -4.7600 -0.1000 -1.0400
        vertex -4.0000 -0.1000 -1.8400
    endloop
endfacet
facet normal 0.0000 -3.0800 0.0000
    outer loop
        vertex -4.0000 -0.1000 -1.8400
        vertex -3.0800 -0.1000 -1.0800
        vertex -3.6800 -0.1000 -1.0400
    endloop
endfacet
facet normal 0.0000 -19.0000 0.0000
    outer loop
        vertex -3.0800 -0.1000 -1.0800
        vertex -4.0000 -0.1000 -1.8400
        vertex 0.0000 -0.1000 -1.8400
    endloop
endfacet
facet normal 0.0000 -12.0100 0.0000
    outer loop
        vertex 0.0000 -0.1000 -1.8400
        vertex -1.2000 -0.1000 -0.9200
        vertex -3.0800 -0.1000 -1.0800
    endloop
endfacet
facet normal 0.0000 -0.9400 0.0000
    outer loop
        vertex -1.2000 -0.1000 -0.9200
        vertex 0.0000 -0.1000 -1.8400
        vertex -0.8800 -0.1000 -1.0400
    endloop
endfacet
facet normal 0.0000 -1.3600 0.0000
    outer loop
        vertex -0.8800 -0.1000 -1.0400
        vertex 0.0000 -0.1000 -1.8400
        vertex -0.5200 -0.1000 -1.1200
    endloop
endfacet
facet normal 0.0000 -1.6200 0.0000
    outer loop
        vertex -0.1600 -0.1000 -1.1200
        vertex -0.5200 -0.1000 -1.1200
        vertex 0.0000 -0.1000 -1.8400
    endloop
endfacet
facet normal 0.0000 -1.5600 0.0000
    outer loop
        vertex 0.1600 -0.1000 -1.0000
        vertex -0.1600 -0.1000 -1.1200
        vertex 0.0000 -0.1000 -1.8400
    endloop
endfacet
facet normal 0.0000 -5.7900 0.0000
    outer loop
        vertex 0.0000 -0.1000 -1.8400
        vertex 1.2400 -0.1000 -1.1200
        vertex 0.1600 -0.1000 -1.0000
    endloop
endfacet
facet normal 0.0000 -1.2600 0.0000
    outer loop
        vertex 1.5200 -0.1000 -1.1200
        vertex 1.2400 -0.1000 -1.1200
        vertex 0.0000 -0.1000 -1.8400
    endloop
endfacet
facet normal 0.0000 -18.0000 0.0000
    outer loop
        vertex 0.0000 -0.1000 -1.8400
        vertex 4.0000 -0.1000 -1.8400
        vertex 1.5200 -0.1000 -1.1200
    endloop
endfacet
facet normal 0.0000 -2.5000 0.0000
    outer loop
        vertex 1.8000 -0.1000 -1.0400
        vertex 1.5200 -0.1000 -1.1200
        vertex 4.0000 -0.1000 -1.8400
    endloop
endfacet
facet normal 0.0000 -3.6000 0.0000
    outer loop
        vertex 2.0800 -0.1000 -0.8800
        vertex 1.8000 -0.1000 -1.0400
        vertex 4.0000 -0.1000 -1.8400
    endloop
endfacet
facet normal 0.0000 -4.5600 0.0000
    outer loop
        vertex 4.0000 -0.1000 -1.8400
        vertex 2.9200 -0.1000 -0.9200
        vertex 2.0800 -0.1000 -0.8800
    endloop
endfacet
facet normal 0.0000 -1.0700 0.0000
    outer loop
        vertex 2.9200 -0.1000 -0.9200
        vertex 4.0000 -0.1000 -1.8400
        vertex 3.2000 -0.1000 -1.0000
    endloop
endfacet
facet normal 0.0000 -1.4900 0.0000
    outer loop
        vertex 3.2000 -0.1000 -1.0000
        vertex 4.0000 -0.1000 -1.8400
        vertex 3.5600 -0.1000 -1.0800
    endloop
endfacet
facet normal 0.0000 -1.9000 0.0000
    outer loop
        vertex 3.9600 -0.1000 -1.0800
        vertex 3.5600 -0.1000 -1.0800
        vertex 4.0000 -0.1000 -1.8400
    endloop
endfacet
facet normal 0.0000 -1.5500 0.0000
    outer loop
        vertex 4.2800 -0.1000 -0.9600
        vertex 3.9600 -0.1000 -1.0800
        vertex 4.0000 -0.1000 -1.8400
    endloop
endfacet
facet normal 0.0000 -0.8200 0.0000
    outer loop
        vertex 4.4800 -0.1000 -0.8000
        vertex 4.2800 -0.1000 -0.9600
        vertex 4.0000 -0.1000 -1.8400
    endloop
endfacet
facet normal 0.0000 -5.9200 0.0000
    outer loop
        vertex 4.0000 -0.1000 -1.8400
        vertex 5.2800 -0.1000 -1.0400
        vertex 4.4800 -0.1000 -0.8000
    endloop
endfacet
facet normal 0.0000 -2.6000 0.0000
    outer loop
        vertex 5.8000 -0.1000 -1.0400
        vertex 5.2800 -0.1000 -1.0400
        vertex 4.0000 -0.1000 -1.8400
    endloop
endfacet
facet normal 0.0000 -20.0000 0.0000
    outer loop
        vertex 4.0000 -0.1000 -1.8400
        vertex 8.0000 -0.1000 -1.8400
        vertex 5.8000 -0.1000 -1.0400
    endloop
endfacet
facet normal 0.0000 -7.7500 0.0000
    outer loop
        vertex 5.9200 -0.1000 -0.5200
        vertex 5.8000 -0.1000 -1.0400
        vertex 8.0000 -0.1000 -1.8400
    endloop
endfacet
facet normal 0.0000 -10.4900 0.0000
    outer loop
        vertex 8.0000 -0.1000 -1.8400
        vertex 6.1200 -0.1000 0.1600
        vertex 5.9200 -0.1000 -0.5200
    endloop
endfacet
facet normal 0.0000 -11.0200 0.0000
    outer loop
        vertex 6.4000 -0.1000 0.8000
        vertex 6.1200 -0.1000 0.1600
        vertex 8.0000 -0.1000 -1.8400
    endloop
endfacet
facet normal 0.0000 -7.5600 0.0000
    outer loop
        vertex 8.0000 -0.1000 -1.8400
        vertex 6.6400 -0.1000 1.1600
        vertex 6.4000 -0.1000 0.8000
    endloop
endfacet
facet normal 0.0000 -35.0200 0.0000
    outer loop
        vertex 6.6400 -0.1000 1.1600
        vertex 8.0000 -0.1000 -1.8400
        vertex 8.0000 -0.1000 2.2800
    endloop
endfacet
facet normal 0.0000 -2.0400 0.0000
    outer loop
        vertex 8.0000 -0.1000 2.2800
        vertex 6.6400 -0.1000 1.4000
        vertex 6.6400 -0.1000 1.1600
    endloop
endfacet
facet normal 0.0000 -9.5800 0.0000
    outer loop
        vertex 4.9600 -0.1000 1.4400
        vertex 6.6400 -0.1000 1.4000
        vertex 8.0000 -0.1000 2.2800
    endloop
endfacet
facet normal 0.0000 -21.0000 0.0000
    outer loop
        vertex 8.0000 -0.1000 2.2800
        vertex 4.0000 -0.1000 2.2800
        vertex 4.9600 -0.1000 1.4400
    endloop
endfacet
facet normal 0.0000 -2.7600 0.0000
    outer loop
        vertex 4.4800 -0.1000 1.4000
        vertex 4.9600 -0.1000 1.4400
        vertex 4.0000 -0.1000 2.2800
    endloop
endfacet
facet normal 0.0000 -7.4800 0.0000
    outer loop
        vertex 4.0000 -0.1000 2.2800
        vertex 3.1200 -0.1000 1.4000
        vertex 4.4800 -0.1000 1.4000
    endloop
endfacet
facet normal 0.0000 -3.0800 0.0000
    outer loop
        vertex 2.3860 -0.1000 1.2260
        vertex 3.1200 -0.1000 1.4000
        vertex 4.0000 -0.1000 2.2800
    endloop
endfacet
facet normal 0.0000 -4.0922 0.0000
    outer loop
        vertex 4.0000 -0.1000 2.2800
        vertex 2.0588 -0.1000 1.4180
        vertex 2.3860 -0.1000 1.2260
    endloop
endfacet
facet normal 0.0000 -2.6406 0.0000
    outer loop
        vertex 1.7200 -0.1000 1.4852
        vertex 2.0588 -0.1000 1.4180
        vertex 4.0000 -0.1000 2.2800
    endloop
endfacet
facet normal 0.0000 -19.8700 0.0000
    outer loop
        vertex 4.0000 -0.1000 2.2800
        vertex 0.0000 -0.1000 2.2800
        vertex 1.7200 -0.1000 1.4852
    endloop
endfacet
facet normal 0.0000 -2.4054 0.0000
    outer loop
        vertex 0.0000 -0.1000 2.2800
        vertex 1.3812 -0.1000 1.4180
        vertex 1.7200 -0.1000 1.4852
    endloop
endfacet
facet normal 0.0000 -3.2047 0.0000
    outer loop
        vertex 1.0940 -0.1000 1.2260
        vertex 1.3812 -0.1000 1.4180
        vertex 0.0000 -0.1000 2.2800
    endloop
endfacet
facet normal 0.0000 -5.5100 0.0000
    outer loop
        vertex 0.0000 -0.1000 2.2800
        vertex 0.1600 -0.1000 1.3200
        vertex 1.0940 -0.1000 1.2260
    endloop
endfacet
facet normal 0.0000 -2.0400 0.0000
    outer loop
        vertex 0.0000 -0.1000 2.2800
        vertex -0.2000 -0.1000 1.4400
        vertex 0.1600 -0.1000 1.3200
    endloop
endfacet
facet normal 0.0000 -2.7300 0.0000
    outer loop
        vertex 0.0000 -0.1000 2.2800
        vertex -0.7200 -0.1000 1.4400
        vertex -0.2000 -0.1000 1.4400
    endloop
endfacet
facet normal 0.0000 -1.5600 0.0000
    outer loop
        vertex -1.1200 -0.1000 1.3200
        vertex -0.7200 -0.1000 1.4400
        vertex 0.0000 -0.1000 2.2800
    endloop
endfacet
facet normal 0.0000 -6.8400 0.0000
    outer loop
        vertex 0.0000 -0.1000 2.2800
        vertex -2.4000 -0.1000 1.2000
        vertex -1.1200 -0.1000 1.3200
    endloop
endfacet
facet normal 0.0000 -7.5000 0.0000
    outer loop
        vertex 0.0000 -0.1000 2.2800
        vertex -2.8000 -0.1000 1.5200
        vertex -2.4000 -0.1000 1.2000
    endloop
endfacet
facet normal 0.0000 -4.9500 0.0000
    outer loop
        vertex -3.4000 -0.1000 1.6400
        vertex -2.8000 -0.1000 1.5200
        vertex 0.0000 -0.1000 2.2800
    endloop
endfacet
facet normal 0.0000 -16.0000 0.0000
    outer loop
        vertex 0.0000 -0.1000 2.2800
        vertex -4.0000 -0.1000 2.2800
        vertex -3.4000 -0.1000 1.6400
    endloop
endfacet
facet normal 0.0000 -2.8400 0.0000
    outer loop
        vertex -4.0000 -0.1000 2.2800
        vertex -3.9600 -0.1000 1.4800
        vertex -3.4000 -0.1000 1.6400
    endloop
endfacet
facet normal 0.0000 -2.3100 0.0000
    outer loop
        vertex -4.4000 -0.1000 1.0400
        vertex -3.9600 -0.1000 1.4800
        vertex -4.0000 -0.1000 2.2800
    endloop
endfacet
facet normal 0.0000 -14.3200 0.0000
    outer loop
        vertex -4.0000 -0.1000 2.2800
        vertex -6.0800 -0.1000 1.5600
        vertex -4.4000 -0.1000 1.0400
    endloop
endfacet
facet normal 0.0000 -1.9800 0.0000
    outer loop
        vertex -6.5200 -0.1000 1.5600
        vertex -6.0800 -0.1000 1.5600
        vertex -4.0000 -0.1000 2.2800
    endloop
endfacet
facet normal 0.0000 -18.0000 0.0000
    outer loop
        vertex -4.0000 -0.1000 2.2800
        vertex -8.0000 -0.1000 2.2800
        vertex -6.5200 -0.1000 1.5600
    endloop
endfacet
facet normal 0.0000 -6.8200 0.0000
    outer loop
        vertex -6.0800 -0.1000 1.5600
        vertex -4.5600 -0.1000 0.4400
        vertex -4.4000 -0.1000 1.0400
    endloop
endfacet
facet normal 0.0000 -5.8000 0.0000
    outer loop
        vertex -4.5200 -0.1000 -0.2000
        vertex -4.5600 -0.1000 0.4400
        vertex -6.0800 -0.1000 1.5600
    endloop
endfacet
facet normal 0.0000 -21.4500 0.0000
    outer loop
        vertex -6.0800 -0.1000 1.5600
        vertex -6.0800 -0.1000 -0.6400
        vertex -4.5200 -0.1000 -0.2000
    endloop
endfacet
facet normal 0.0000 -3.6300 0.0000
    outer loop
        vertex -4.5200 -0.1000 -0.2000
        vertex -6.0800 -0.1000 -0.6400
        vertex -4.7600 -0.1000 -0.6400
    endloop
endfacet
facet normal 0.0000 -1.4900 0.0000
    outer loop
        vertex -4.2400 -0.1000 -0.6800
        vertex -4.5200 -0.1000 -0.2000
        vertex -4.7600 -0.1000 -0.6400
    endloop
endfacet
facet normal 0.0000 -1.3000 0.0000
    outer loop
        vertex -4.7600 -0.1000 -0.6400
        vertex -4.7600 -0.1000 -1.0400
        vertex -4.2400 -0.1000 -0.6800
    endloop
endfacet
facet normal 0.0000 -2.4300 0.0000
    outer loop
        vertex -4.2400 -0.1000 -0.6800
        vertex -4.7600 -0.1000 -1.0400
        vertex -3.6800 -0.1000 -1.0400
    endloop
endfacet
facet normal 0.0000 -1.5200 0.0000
    outer loop
        vertex -1.2000 -0.1000 -0.9200
        vertex -2.7200 -0.1000 -0.9200
        vertex -3.0800 -0.1000 -1.0800
    endloop
endfacet
facet normal 0.0000 -2.6600 0.0000
    outer loop
        vertex -2.4000 -0.1000 -0.6400
        vertex -2.7200 -0.1000 -0.9200
        vertex -1.2000 -0.1000 -0.9200
    endloop
endfacet
facet normal 0.0000 -2.6100 0.0000
    outer loop
        vertex -1.2000 -0.1000 -0.9200
        vertex -1.0800 -0.1000 -0.6000
        vertex -2.4000 -0.1000 -0.6400
    endloop
endfacet
facet normal 0.0000 -2.6900 0.0000
    outer loop
        vertex -2.6000 -0.1000 -0.3200
        vertex -2.4000 -0.1000 -0.6400
        vertex -1.0800 -0.1000 -0.6000
    endloop
endfacet
facet normal 0.0000 -7.1200 0.0000
    outer loop
        vertex -1.0800 -0.1000 -0.6000
        vertex -0.9200 -0.1000 0.1200
        vertex -2.6000 -0.1000 -0.3200
    endloop
endfacet
facet normal 0.0000 -2.9400 0.0000
    outer loop
        vertex -2.6000 -0.1000 -0.3200
        vertex -0.9200 -0.1000 0.1200
        vertex -0.9200 -0.1000 0.4000
    endloop
endfacet
facet normal 0.0000 -13.2000 0.0000
    outer loop
        vertex -0.9200 -0.1000 0.4000
        vertex -2.6400 -0.1000 0.9200
        vertex -2.6000 -0.1000 -0.3200
    endloop
endfacet
facet normal 0.0000 -3.7900 0.0000
    outer loop
        vertex -2.4000 -0.1000 1.2000
        vertex -2.6400 -0.1000 0.9200
        vertex -0.9200 -0.1000 0.4000
    endloop
endfacet
facet normal 0.0000 -4.5500 0.0000
    outer loop
        vertex -0.9200 -0.1000 0.4000
        vertex -1.1200 -0.1000 1.0000
        vertex -2.4000 -0.1000 1.2000
    endloop
endfacet
facet normal 0.0000 -2.5600 0.0000
    outer loop
        vertex -1.1200 -0.1000 1.3200
        vertex -2.4000 -0.1000 1.2000
        vertex -1.1200 -0.1000 1.0000
    endloop
endfacet
facet normal 0.0000 -1.8100 0.0000
    outer loop
        vertex -2.6000 -0.1000 -0.3200
        vertex -2.6400 -0.1000 0.9200
        vertex -2.8800 -0.1000 1.1200
    endloop
endfacet
facet normal 0.0000 -3.3700 0.0000
    outer loop
        vertex -2.8800 -0.1000 1.1200
        vertex -2.9200 -0.1000 -0.6000
        vertex -2.6000 -0.1000 -0.3200
    endloop
endfacet
facet normal 0.0000 -3.9000 0.0000
    outer loop
        vertex -2.9200 -0.1000 -0.6000
        vertex -2.8800 -0.1000 1.1200
        vertex -3.2400 -0.1000 1.2400
    endloop
endfacet
facet normal 0.0000 -3.8400 0.0000
    outer loop
        vertex -3.2400 -0.1000 1.2400
        vertex -3.2400 -0.1000 -0.6800
        vertex -2.9200 -0.1000 -0.6000
    endloop
endfacet
facet normal 0.0000 -4.8000 0.0000
    outer loop
        vertex -3.2400 -0.1000 -0.6800
        vertex -3.2400 -0.1000 1.2400
        vertex -3.6400 -0.1000 1.2000
    endloop
endfacet
facet normal 0.0000 -3.6600 0.0000
    outer loop
        vertex -3.6400 -0.1000 1.2000
        vertex -3.5600 -0.1000 -0.6400
        vertex -3.2400 -0.1000 -0.6800
    endloop
endfacet
facet normal 0.0000 -3.8200 0.0000
    outer loop
        vertex -3.5600 -0.1000 -0.6400
        vertex -3.6400 -0.1000 1.2000
        vertex -3.9600 -0.1000 0.9200
    endloop
endfacet
facet normal 0.0000 -2.5200 0.0000
    outer loop
        vertex -3.9600 -0.1000 0.9200
        vertex -3.8800 -0.1000 -0.4000
        vertex -3.5600 -0.1000 -0.6400
    endloop
endfacet
facet normal 0.0000 -1.5400 0.0000
    outer loop
        vertex -3.8800 -0.1000 -0.4000
        vertex -3.9600 -0.1000 0.9200
        vertex -4.1200 -0.1000 0.4800
    endloop
endfacet
facet normal 0.0000 -0.4400 0.0000
    outer loop
        vertex -4.1200 -0.1000 0.4800
        vertex -4.0800 -0.1000 0.0400
        vertex -3.8800 -0.1000 -0.4000
    endloop
endfacet
facet normal 0.0000 -1.1500 0.0000
    outer loop
        vertex -0.8400 -0.1000 1.0800
        vertex -1.1200 -0.1000 1.0000
        vertex -0.9200 -0.1000 0.4000
    endloop
endfacet
facet normal 0.0000 -1.5500 0.0000
    outer loop
        vertex -0.9200 -0.1000 0.4000
        vertex -0.5600 -0.1000 0.3600
        vertex -0.8400 -0.1000 1.0800
    endloop
endfacet
facet normal 0.0000 -1.1500 0.0000
    outer loop
        vertex -0.6000 -0.1000 1.1200
        vertex -0.8400 -0.1000 1.0800
        vertex -0.5600 -0.1000 0.3600
    endloop
endfacet
facet normal 0.0000 -1.3300 0.0000
    outer loop
        vertex -0.5600 -0.1000 0.3600
        vertex -0.2800 -0.1000 0.3600
        vertex -0.6000 -0.1000 1.1200
    endloop
endfacet
facet normal 0.0000 -1.6300 0.0000
    outer loop
        vertex -0.2400 -0.1000 1.0800
        vertex -0.6000 -0.1000 1.1200
        vertex -0.2800 -0.1000 0.3600
    endloop
endfacet
facet normal 0.0000 -1.0500 0.0000
    outer loop
        vertex -0.2800 -0.1000 0.3600
        vertex -0.0400 -0.1000 0.4800
        vertex -0.2400 -0.1000 1.0800
    endloop
endfacet
facet normal 0.0000 -0.7000 0.0000
    outer loop
        vertex 0.0000 -0.1000 0.9200
        vertex -0.2400 -0.1000 1.0800
        vertex -0.0400 -0.1000 0.4800
    endloop
endfacet
facet normal 0.0000 -0.1700 0.0000
    outer loop
        vertex -0.0400 -0.1000 0.4800
        vertex 0.0400 -0.1000 0.6800
        vertex 0.0000 -0.1000 0.9200
    endloop
endfacet
facet normal 0.0000 -1.5600 0.0000
    outer loop
        vertex -0.9200 -0.1000 0.1200
        vertex -1.0800 -0.1000 -0.6000
        vertex -0.7600 -0.1000 -0.7200
    endloop
endfacet
facet normal 0.0000 -1.8900 0.0000
    outer loop
        vertex -0.7600 -0.1000 -0.7200
        vertex -0.5600 -0.1000 0.1200
        vertex -0.9200 -0.1000 0.1200
    endloop
endfacet
facet normal 0.0000 -1.7300 0.0000
    outer loop
        vertex -0.5600 -0.1000 0.1200
        vertex -0.7600 -0.1000 -0.7200
        vertex -0.4400 -0.1000 -0.7600
    endloop
endfacet
facet normal 0.0000 -1.7300 0.0000
    outer loop
        vertex -0.4400 -0.1000 -0.7600
        vertex -0.2400 -0.1000 0.0800
        vertex -0.5600 -0.1000 0.1200
    endloop
endfacet
facet normal 0.0000 -1.4200 0.0000
    outer loop
        vertex -0.2400 -0.1000 0.0800
        vertex -0.4400 -0.1000 -0.7600
        vertex -0.1600 -0.1000 -0.7200
    endloop
endfacet
facet normal 0.0000 -0.9600 0.0000
    outer loop
        vertex -0.1600 -0.1000 -0.7200
        vertex -0.0400 -0.1000 0.0000
        vertex -0.2400 -0.1000 0.0800
    endloop
endfacet
facet normal 0.0000 -0.8100 0.0000
    outer loop
        vertex -0.0400 -0.1000 0.0000
        vertex -0.1600 -0.1000 -0.7200
        vertex 0.0400 -0.1000 -0.6000
    endloop
endfacet
facet normal 0.0000 -0.5000 0.0000
    outer loop
        vertex 0.0400 -0.1000 -0.6000
        vertex 0.1200 -0.1000 -0.2000
        vertex -0.0400 -0.1000 0.0000
    endloop
endfacet
facet normal 0.0000 -0.1000 0.0000
    outer loop
        vertex 0.1200 -0.1000 -0.2000
        vertex 0.0400 -0.1000 -0.6000
        vertex 0.1200 -0.1000 -0.4000
    endloop
endfacet
facet normal 0.0000 -1.2365 0.0000
    outer loop
        vertex 1.0940 -0.1000 1.2260
        vertex 0.1600 -0.1000 1.3200
        vertex 0.4400 -0.1000 1.0800
    endloop
endfacet
facet normal 0.0000 -0.9987 0.0000
    outer loop
        vertex 0.4400 -0.1000 1.0800
        vertex 0.9020 -0.1000 0.9388
        vertex 1.0940 -0.1000 1.2260
    endloop
endfacet
facet normal 0.0000 -0.7379 0.0000
    outer loop
        vertex 0.9020 -0.1000 0.9388
        vertex 0.4400 -0.1000 1.0800
        vertex 0.5200 -0.1000 0.8000
    endloop
endfacet
facet normal 0.0000 -0.7506 0.0000
    outer loop
        vertex 0.5200 -0.1000 0.8000
        vertex 0.8348 -0.1000 0.6000
        vertex 0.9020 -0.1000 0.9388
    endloop
endfacet
facet normal 0.0000 -0.6509 0.0000
    outer loop
        vertex 0.8348 -0.1000 0.6000
        vertex 0.5200 -0.1000 0.8000
        vertex 0.4400 -0.1000 0.5200
    endloop
endfacet
facet normal 0.0000 -0.8696 0.0000
    outer loop
        vertex 0.4400 -0.1000 0.5200
        vertex 0.9020 -0.1000 0.2612
        vertex 0.8348 -0.1000 0.6000
    endloop
endfacet
facet normal 0.0000 -0.6561 0.0000
    outer loop
        vertex 0.9020 -0.1000 0.2612
        vertex 0.4400 -0.1000 0.5200
        vertex 0.3200 -0.1000 0.3600
    endloop
endfacet
facet normal 0.0000 -1.0899 0.0000
    outer loop
        vertex 0.3200 -0.1000 0.3600
        vertex 0.4400 -0.1000 0.0400
        vertex 0.9020 -0.1000 0.2612
    endloop
endfacet
facet normal 0.0000 -0.3300 0.0000
    outer loop
        vertex 0.3200 -0.1000 0.3600
        vertex 0.2000 -0.1000 0.2400
        vertex 0.4400 -0.1000 0.0400
    endloop
endfacet
facet normal 0.0000 -1.0947 0.0000
    outer loop
        vertex 1.0940 -0.1000 -0.0260
        vertex 0.9020 -0.1000 0.2612
        vertex 0.4400 -0.1000 0.0400
    endloop
endfacet
facet normal 0.0000 -0.9315 0.0000
    outer loop
        vertex 0.4400 -0.1000 0.0400
        vertex 0.5600 -0.1000 -0.2000
        vertex 1.0940 -0.1000 -0.0260
    endloop
endfacet
facet normal 0.0000 -0.8196 0.0000
    outer loop
        vertex 1.3812 -0.1000 -0.1780
        vertex 1.0940 -0.1000 -0.0260
        vertex 0.5600 -0.1000 -0.2000
    endloop
endfacet
facet normal 0.0000 -1.6424 0.0000
    outer loop
        vertex 0.5600 -0.1000 -0.2000
        vertex 0.5600 -0.1000 -0.5200
        vertex 1.3812 -0.1000 -0.1780
    endloop
endfacet
facet normal 0.0000 -2.8394 0.0000
    outer loop
        vertex 1.1200 -0.1000 -0.8400
        vertex 1.3812 -0.1000 -0.1780
        vertex 0.5600 -0.1000 -0.5200
    endloop
endfacet
facet normal 0.0000 -1.4400 0.0000
    outer loop
        vertex 0.5600 -0.1000 -0.5200
        vertex 0.4000 -0.1000 -0.8400
        vertex 1.1200 -0.1000 -0.8400
    endloop
endfacet
facet normal 0.0000 -1.2600 0.0000
    outer loop
        vertex 1.2400 -0.1000 -1.1200
        vertex 1.1200 -0.1000 -0.8400
        vertex 0.4000 -0.1000 -0.8400
    endloop
endfacet
facet normal 0.0000 -1.2600 0.0000
    outer loop
        vertex 0.4000 -0.1000 -0.8400
        vertex 0.1600 -0.1000 -1.0000
        vertex 1.2400 -0.1000 -1.1200
    endloop
endfacet
facet normal 0.0000 -1.4242 0.0000
    outer loop
        vertex 1.3812 -0.1000 -0.1780
        vertex 1.1200 -0.1000 -0.8400
        vertex 1.4800 -0.1000 -0.8000
    endloop
endfacet
facet normal 0.0000 -1.3003 0.0000
    outer loop
        vertex 1.4800 -0.1000 -0.8000
        vertex 1.7200 -0.1000 -0.2052
        vertex 1.3812 -0.1000 -0.1780
    endloop
endfacet
facet normal 0.0000 -0.8609 0.0000
    outer loop
        vertex 1.7200 -0.1000 -0.2052
        vertex 1.4800 -0.1000 -0.8000
        vertex 1.7600 -0.1000 -0.6800
    endloop
endfacet
facet normal 0.0000 -0.6335 0.0000
    outer loop
        vertex 1.7600 -0.1000 -0.6800
        vertex 1.9600 -0.1000 -0.5200
        vertex 1.7200 -0.1000 -0.2052
    endloop
endfacet
facet normal 0.0000 -0.4161 0.0000
    outer loop
        vertex 1.7200 -0.1000 -0.2052
        vertex 1.9600 -0.1000 -0.5200
        vertex 2.0800 -0.1000 -0.4000
    endloop
endfacet
facet normal 0.0000 -0.4663 0.0000
    outer loop
        vertex 2.0800 -0.1000 -0.4000
        vertex 1.9788 -0.1000 -0.1380
        vertex 1.7200 -0.1000 -0.2052
    endloop
endfacet
facet normal 0.0000 -0.2322 0.0000
    outer loop
        vertex 1.9788 -0.1000 -0.1380
        vertex 2.0800 -0.1000 -0.4000
        vertex 2.1600 -0.1000 -0.2400
    endloop
endfacet
facet normal 0.0000 -0.1359 0.0000
    outer loop
        vertex 2.1600 -0.1000 -0.2400
        vertex 2.1600 -0.1000 -0.1200
        vertex 1.9788 -0.1000 -0.1380
    endloop
endfacet
facet normal 0.0000 -0.0543 0.0000
    outer loop
        vertex 2.0800 -0.1000 -0.0800
        vertex 1.9788 -0.1000 -0.1380
        vertex 2.1600 -0.1000 -0.1200
    endloop
endfacet
facet normal 0.0000 -1.5263 0.0000
    outer loop
        vertex 3.1200 -0.1000 1.4000
        vertex 2.3860 -0.1000 1.2260
        vertex 2.5780 -0.1000 0.9388
    endloop
endfacet
facet normal 0.0000 -1.4567 0.0000
    outer loop
        vertex 3.1200 -0.1000 1.4000
        vertex 2.5780 -0.1000 0.9388
        vertex 2.6852 -0.1000 0.6000
    endloop
endfacet
facet normal 0.0000 -3.3697 0.0000
    outer loop
        vertex 2.6852 -0.1000 0.6000
        vertex 3.1200 -0.1000 0.1600
        vertex 3.1200 -0.1000 1.4000
    endloop
endfacet
facet normal 0.0000 -0.8855 0.0000
    outer loop
        vertex 2.6852 -0.1000 0.6000
        vertex 2.6980 -0.1000 0.2612
        vertex 3.1200 -0.1000 0.1600
    endloop
endfacet
facet normal 0.0000 -0.7777 0.0000
    outer loop
        vertex 2.6980 -0.1000 0.2612
        vertex 2.6660 -0.1000 -0.0260
        vertex 3.1200 -0.1000 0.1600
    endloop
endfacet
facet normal 0.0000 -0.5305 0.0000
    outer loop
        vertex 3.1200 -0.1000 0.1600
        vertex 2.6660 -0.1000 -0.0260
        vertex 2.6000 -0.1000 -0.2400
    endloop
endfacet
facet normal 0.0000 -1.8100 0.0000
    outer loop
        vertex 2.6000 -0.1000 -0.2400
        vertex 2.9600 -0.1000 -0.5200
        vertex 3.1200 -0.1000 0.1600
    endloop
endfacet
facet normal 0.0000 -0.7500 0.0000
    outer loop
        vertex 2.9600 -0.1000 -0.5200
        vertex 2.6000 -0.1000 -0.2400
        vertex 2.4800 -0.1000 -0.4800
    endloop
endfacet
facet normal 0.0000 -1.2100 0.0000
    outer loop
        vertex 2.4800 -0.1000 -0.4800
        vertex 2.9200 -0.1000 -0.9200
        vertex 2.9600 -0.1000 -0.5200
    endloop
endfacet
facet normal 0.0000 -1.2100 0.0000
    outer loop
        vertex 2.4800 -0.1000 -0.4800
        vertex 2.2800 -0.1000 -0.7200
        vertex 2.9200 -0.1000 -0.9200
    endloop
endfacet
facet normal 0.0000 -0.8900 0.0000
    outer loop
        vertex 2.2800 -0.1000 -0.7200
        vertex 2.0800 -0.1000 -0.8800
        vertex 2.9200 -0.1000 -0.9200
    endloop
endfacet
facet normal 0.0000 -1.5200 0.0000
    outer loop
        vertex 3.1200 -0.1000 0.1600
        vertex 2.9600 -0.1000 -0.5200
        vertex 3.2800 -0.1000 -0.6800
    endloop
endfacet
facet normal 0.0000 -3.5700 0.0000
    outer loop
        vertex 3.2800 -0.1000 -0.6800
        vertex 3.8000 -0.1000 0.1600
        vertex 3.1200 -0.1000 0.1600
    endloop
endfacet
facet normal 0.0000 -2.1500 0.0000
    outer loop
        vertex 3.8000 -0.1000 0.1600
        vertex 3.2800 -0.1000 -0.6800
        vertex 3.6400 -0.1000 -0.7600
    endloop
endfacet
facet normal 0.0000 -1.6900 0.0000
    outer loop
        vertex 3.6400 -0.1000 -0.7600
        vertex 4.0800 -0.1000 0.0800
        vertex 3.8000 -0.1000 0.1600
    endloop
endfacet
facet normal 0.0000 -1.3600 0.0000
    outer loop
        vertex 4.0800 -0.1000 0.0800
        vertex 3.6400 -0.1000 -0.7600
        vertex 3.9200 -0.1000 -0.7200
    endloop
endfacet
facet normal 0.0000 -1.0000 0.0000
    outer loop
        vertex 3.9200 -0.1000 -0.7200
        vertex 4.2400 -0.1000 -0.1200
        vertex 4.0800 -0.1000 0.0800
    endloop
endfacet
facet normal 0.0000 -0.5800 0.0000
    outer loop
        vertex 4.2400 -0.1000 -0.1200
        vertex 3.9200 -0.1000 -0.7200
        vertex 4.1600 -0.1000 -0.5600
    endloop
endfacet
facet normal 0.0000 -0.1200 0.0000
    outer loop
        vertex 4.1600 -0.1000 -0.5600
        vertex 4.2400 -0.1000 -0.3600
        vertex 4.2400 -0.1000 -0.1200
    endloop
endfacet
facet normal 0.0000 -1.3200 0.0000
    outer loop
        vertex 4.9600 -0.1000 1.0000
        vertex 4.9600 -0.1000 1.4400
        vertex 4.4800 -0.1000 1.4000
    endloop
endfacet
facet normal 0.0000 -1.0800 0.0000
    outer loop
        vertex 4.4800 -0.1000 1.4000
        vertex 4.4800 -0.1000 1.0400
        vertex 4.9600 -0.1000 1.0000
    endloop
endfacet
facet normal 0.0000 -1.9600 0.0000
    outer loop
        vertex 3.4800 -0.1000 1.0400
        vertex 3.4800 -0.1000 0.4800
        vertex 4.0400 -0.1000 0.4800
    endloop
endfacet
facet normal 0.0000 -3.5000 0.0000
    outer loop
        vertex 4.0400 -0.1000 0.4800
        vertex 4.4800 -0.1000 1.0400
        vertex 3.4800 -0.1000 1.0400
    endloop
endfacet
facet normal 0.0000 -1.4500 0.0000
    outer loop
        vertex 4.4800 -0.1000 1.0400
        vertex 4.0400 -0.1000 0.4800
        vertex 4.3600 -0.1000 0.3600
    endloop
endfacet
facet normal 0.0000 -2.0700 0.0000
    outer loop
        vertex 4.3600 -0.1000 0.3600
        vertex 4.9600 -0.1000 1.0000
        vertex 4.4800 -0.1000 1.0400
    endloop
endfacet
facet normal 0.0000 -1.7100 0.0000
    outer loop
        vertex 4.9600 -0.1000 1.0000
        vertex 4.3600 -0.1000 0.3600
        vertex 4.6000 -0.1000 0.1600
    endloop
endfacet
facet normal 0.0000 -5.5800 0.0000
    outer loop
        vertex 4.6000 -0.1000 0.1600
        vertex 6.0400 -0.1000 1.0400
        vertex 4.9600 -0.1000 1.0000
    endloop
endfacet
facet normal 0.0000 -0.4200 0.0000
    outer loop
        vertex 5.8400 -0.1000 0.4000
        vertex 6.1200 -0.1000 0.9600
        vertex 6.0400 -0.1000 1.0400
    endloop
endfacet
facet normal 0.0000 -4.6600 0.0000
    outer loop
        vertex 6.0400 -0.1000 1.0400
        vertex 4.6000 -0.1000 0.1600
        vertex 5.8400 -0.1000 0.4000
    endloop
endfacet
facet normal 0.0000 -5.1000 0.0000
    outer loop
        vertex 5.5200 -0.1000 -0.3200
        vertex 5.8400 -0.1000 0.4000
        vertex 4.6000 -0.1000 0.1600
    endloop
endfacet
facet normal 0.0000 -1.8300 0.0000
    outer loop
        vertex 4.6000 -0.1000 0.1600
        vertex 4.6800 -0.1000 -0.2000
        vertex 5.5200 -0.1000 -0.3200
    endloop
endfacet
facet normal 0.0000 -1.7100 0.0000
    outer loop
        vertex 5.5200 -0.1000 -0.3200
        vertex 4.6800 -0.1000 -0.2000
        vertex 4.6400 -0.1000 -0.5200
    endloop
endfacet
facet normal 0.0000 -3.0500 0.0000
    outer loop
        vertex 4.6400 -0.1000 -0.5200
        vertex 5.3200 -0.1000 -0.9200
        vertex 5.5200 -0.1000 -0.3200
    endloop
endfacet
facet normal 0.0000 -1.5900 0.0000
    outer loop
        vertex 5.3200 -0.1000 -0.9200
        vertex 4.6400 -0.1000 -0.5200
        vertex 4.4800 -0.1000 -0.8000
    endloop
endfacet
facet normal 0.0000 -0.6600 0.0000
    outer loop
        vertex 4.4800 -0.1000 -0.8000
        vertex 5.2800 -0.1000 -1.0400
        vertex 5.3200 -0.1000 -0.9200
    endloop
endfacet
facet normal 0.0000 -0.8100 0.0000
    outer loop
        vertex -13.8000 -0.1000 -0.2800
        vertex -13.9200 -0.1000 -0.4800
        vertex -13.9200 -0.1000 -1.5600
    endloop
endfacet
facet normal 0.0000 -1.1100 0.0000
    outer loop
        vertex -13.9200 -0.1000 -1.5600
        vertex -13.8000 -0.1000 -1.7600
        vertex -13.8000 -0.1000 -0.2800
    endloop
endfacet
facet normal 0.0000 -2.2200 0.0000
    outer loop
        vertex -13.5600 -0.1000 -0.2000
        vertex -13.8000 -0.1000 -0.2800
        vertex -13.8000 -0.1000 -1.7600
    endloop
endfacet
facet normal 0.0000 -2.4600 0.0000
    outer loop
        vertex -13.8000 -0.1000 -1.7600
        vertex -13.5600 -0.1000 -1.8400
        vertex -13.5600 -0.1000 -0.2000
    endloop
endfacet
facet normal 0.0000 -35.2600 0.0000
    outer loop
        vertex -10.1200 -0.1000 -0.2000
        vertex -13.5600 -0.1000 -0.2000
        vertex -13.5600 -0.1000 -1.8400
    endloop
endfacet
facet normal 0.0000 -36.0800 0.0000
    outer loop
        vertex -13.5600 -0.1000 -1.8400
        vertex -10.0400 -0.1000 -1.8400
        vertex -10.1200 -0.1000 -0.2000
    endloop
endfacet
facet normal 0.0000 -2.4200 0.0000
    outer loop
        vertex -9.8800 -0.1000 -0.2800
        vertex -10.1200 -0.1000 -0.2000
        vertex -10.0400 -0.1000 -1.8400
    endloop
endfacet
facet normal 0.0000 -1.8300 0.0000
    outer loop
        vertex -10.0400 -0.1000 -1.8400
        vertex -9.8400 -0.1000 -1.7200
        vertex -9.8800 -0.1000 -0.2800
    endloop
endfacet
facet normal 0.0000 -1.0300 0.0000
    outer loop
        vertex -9.7600 -0.1000 -0.4800
        vertex -9.8800 -0.1000 -0.2800
        vertex -9.8400 -0.1000 -1.7200
    endloop
endfacet
facet normal 0.0000 -0.5200 0.0000
    outer loop
        vertex -9.8400 -0.1000 -1.7200
        vertex -9.7600 -0.1000 -1.5200
        vertex -9.7600 -0.1000 -0.4800
    endloop
endfacet
facet normal 0.0000 -0.8100 0.0000
    outer loop
        vertex 9.7600 -0.1000 -0.2800
        vertex 9.6400 -0.1000 -0.4800
        vertex 9.6400 -0.1000 -1.5600
    endloop
endfacet
facet normal 0.0000 -1.1100 0.0000
    outer loop
        vertex 9.6400 -0.1000 -1.5600
        vertex 9.7600 -0.1000 -1.7600
        vertex 9.7600 -0.1000 -0.2800
    endloop
endfacet
facet normal 0.0000 -2.2200 0.0000
    outer loop
        vertex 10.0000 -0.1000 -0.2000
        vertex 9.7600 -0.1000 -0.2800
        vertex 9.7600 -0.1000 -1.7600
    endloop
endfacet
facet normal 0.0000 -2.4600 0.0000
    outer loop
        vertex 9.7600 -0.1000 -1.7600
        vertex 10.0000 -0.1000 -1.8400
        vertex 10.0000 -0.1000 -0.2000
    endloop
endfacet
facet normal 0.0000 -35.2600 0.0000
    outer loop
        vertex 13.4400 -0.1000 -0.2000
        vertex 10.0000 -0.1000 -0.2000
        vertex 10.0000 -0.1000 -1.8400
    endloop
endfacet
facet normal 0.0000 -36.0800 0.0000
    outer loop
        vertex 10.0000 -0.1000 -1.8400
        vertex 13.5200 -0.1000 -1.8400
        vertex 13.4400 -0.1000 -0.2000
    endloop
endfacet
facet normal 0.0000 -2.4200 0.0000
    outer loop
        vertex 13.6800 -0.1000 -0.2800
        vertex 13.4400 -0.1000 -0.2000
        vertex 13.5200 -0.1000 -1.8400
    endloop
endfacet
facet normal 0.0000 -1.8300 0.0000
    outer loop
        vertex 13.5200 -0.1000 -1.8400
        vertex 13.7200 -0.1000 -1.7200
        vertex 13.6800 -0.1000 -0.2800
    endloop
endfacet
facet normal 0.0000 -0.7700 0.0000
    outer loop
        vertex 13.6800 -0.1000 -0.2800
        vertex 13.7200 -0.1000 -1.7200
        vertex 13.8000 -0.1000 -1.5200
    endloop
endfacet
facet normal 0.0000 -0.7800 0.0000
    outer loop
        vertex 13.8000 -0.1000 -1.5200
        vertex 13.8000 -0.1000 -0.4800
        vertex 13.6800 -0.1000 -0.2800
    endloop
endfacet
facet normal 0.0000 -2.6200 0.0000
    outer loop
        vertex 14.0000 -0.1000 -1.5600
        vertex 13.9200 -0.1000 -1.8000
        vertex 15.2000 -0.1000 -3.2000
    endloop
endfacet
facet normal 0.0000 -2.3300 0.0000
    outer loop
        vertex 13.9200 -0.1000 -1.8000
        vertex 13.8000 -0.1000 -1.9600
        vertex 15.2000 -0.1000 -3.2000
    endloop
endfacet
facet normal 0.0000 -2.2500 0.0000
    outer loop
        vertex 13.8000 -0.1000 -1.9600
        vertex 13.6000 -0.1000 -2.0400
        vertex 15.2000 -0.1000 -3.2000
    endloop
endfacet
facet normal 0.0000 -26.9700 0.0000
    outer loop
        vertex 13.6000 -0.1000 -2.0400
        vertex 9.8800 -0.1000 -2.0400
        vertex 15.2000 -0.1000 -3.2000
    endloop
endfacet
facet normal 0.0000 -10.2700 0.0000
    outer loop
        vertex 15.2000 -0.1000 -3.2000
        vertex 9.8800 -0.1000 -2.0400
        vertex 8.2800 -0.1000 -2.0000
    endloop
endfacet
facet normal 0.0000 -7.2900 0.0000
    outer loop
        vertex 8.2800 -0.1000 -2.0000
        vertex 8.0000 -0.1000 -2.1200
        vertex 15.2000 -0.1000 -3.2000
    endloop
endfacet
facet normal 0.0000 -8.2800 0.0000
    outer loop
        vertex 8.0000 -0.1000 -2.1200
        vertex 7.8400 -0.1000 -2.2800
        vertex 15.2000 -0.1000 -3.2000
    endloop
endfacet
facet normal 0.0000 -2.4400 0.0000
    outer loop
        vertex -14.1200 -0.1000 -1.5600
        vertex -15.2000 -0.1000 -3.2000
        vertex -14.0400 -0.1000 -1.8000
    endloop
endfacet
facet normal 0.0000 -2.5600 0.0000
    outer loop
        vertex -14.0400 -0.1000 -1.8000
        vertex -15.2000 -0.1000 -3.2000
        vertex -13.8800 -0.1000 -1.9600
    endloop
endfacet
facet normal 0.0000 -2.2100 0.0000
    outer loop
        vertex -13.8800 -0.1000 -1.9600
        vertex -15.2000 -0.1000 -3.2000
        vertex -13.6800 -0.1000 -2.0400
    endloop
endfacet
facet normal 0.0000 -26.9700 0.0000
    outer loop
        vertex -9.9600 -0.1000 -2.0400
        vertex -13.6800 -0.1000 -2.0400
        vertex -15.2000 -0.1000 -3.2000
    endloop
endfacet
facet normal 0.0000 -10.8700 0.0000
    outer loop
        vertex -8.2800 -0.1000 -2.0000
        vertex -9.9600 -0.1000 -2.0400
        vertex -15.2000 -0.1000 -3.2000
    endloop
endfacet
facet normal 0.0000 -7.2900 0.0000
    outer loop
        vertex -15.2000 -0.1000 -3.2000
        vertex -8.0000 -0.1000 -2.1200
        vertex -8.2800 -0.1000 -2.0000
    endloop
endfacet
facet normal 0.0000 -8.2800 0.0000
    outer loop
        vertex -8.0000 -0.1000 -2.1200
        vertex -15.2000 -0.1000 -3.2000
        vertex -7.8400 -0.1000 -2.2800
    endloop
endfacet
facet normal 0.0000 -174.8000 0.0000
    outer loop
        vertex -7.8400 -0.1000 -2.2800
        vertex -15.2000 -0.1000 -3.2000
        vertex 15.2000 -0.1000 -3.2000
    endloop
endfacet
facet normal 0.0000 -90.1600 0.0000
    outer loop
        vertex 15.2000 -0.1000 -3.2000
        vertex 7.8400 -0.1000 -2.2800
        vertex -7.8400 -0.1000 -2.2800
    endloop
endfacet
facet normal 0.0000 -0.7900 0.0000
    outer loop
        vertex -9.7600 -0.1000 -1.9600
        vertex -9.9600 -0.1000 -2.0400
        vertex -8.2800 -0.1000 -2.0000
    endloop
endfacet
facet normal 0.0000 -1.5100 0.0000
    outer loop
        vertex -9.6400 -0.1000 -1.8000
        vertex -9.7600 -0.1000 -1.9600
        vertex -8.2800 -0.1000 -2.0000
    endloop
endfacet
facet normal 0.0000 -2.1400 0.0000
    outer loop
        vertex -9.5600 -0.1000 -1.5600
        vertex -9.6400 -0.1000 -1.8000
        vertex -8.2800 -0.1000 -2.0000
    endloop
endfacet
facet normal 0.0000 -11.2000 0.0000
    outer loop
        vertex -9.5600 -0.1000 -0.1600
        vertex -9.5600 -0.1000 -1.5600
        vertex -8.2800 -0.1000 -2.0000
    endloop
endfacet
facet normal 0.0000 -36.1600 0.0000
    outer loop
        vertex -8.2800 -0.1000 -2.0000
        vertex -8.2800 -0.1000 2.5200
        vertex -9.5600 -0.1000 -0.1600
    endloop
endfacet
facet normal 0.0000 -4.2500 0.0000
    outer loop
        vertex -8.2800 -0.1000 2.5200
        vertex -9.6800 -0.1000 0.1200
        vertex -9.5600 -0.1000 -0.1600
    endloop
endfacet
facet normal 0.0000 -4.4000 0.0000
    outer loop
        vertex -8.2800 -0.1000 2.5200
        vertex -9.8800 -0.1000 0.2800
        vertex -9.6800 -0.1000 0.1200
    endloop
endfacet
facet normal 0.0000 -4.1600 0.0000
    outer loop
        vertex -8.2800 -0.1000 2.5200
        vertex -10.1200 -0.1000 0.3600
        vertex -9.8800 -0.1000 0.2800
    endloop
endfacet
facet normal 0.0000 -46.9800 0.0000
    outer loop
        vertex -13.6000 -0.1000 0.3600
        vertex -10.1200 -0.1000 0.3600
        vertex -8.2800 -0.1000 2.5200
    endloop
endfacet
facet normal 0.0000 -116.0300 0.0000
    outer loop
        vertex -8.2800 -0.1000 2.5200
        vertex -15.2000 -0.1000 3.2000
        vertex -13.6000 -0.1000 0.3600
    endloop
endfacet
facet normal 0.0000 -5.7700 0.0000
    outer loop
        vertex -15.2000 -0.1000 3.2000
        vertex -13.8800 -0.1000 0.2800
        vertex -13.6000 -0.1000 0.3600
    endloop
endfacet
facet normal 0.0000 -4.2400 0.0000
    outer loop
        vertex -15.2000 -0.1000 3.2000
        vertex -14.0400 -0.1000 0.1200
        vertex -13.8800 -0.1000 0.2800
    endloop
endfacet
facet normal 0.0000 -3.2800 0.0000
    outer loop
        vertex -15.2000 -0.1000 3.2000
        vertex -14.1200 -0.1000 -0.1200
        vertex -14.0400 -0.1000 0.1200
    endloop
endfacet
facet normal 0.0000 -9.7200 0.0000
    outer loop
        vertex -14.1200 -0.1000 -1.5600
        vertex -14.1200 -0.1000 -0.1200
        vertex -15.2000 -0.1000 3.2000
    endloop
endfacet
facet normal 0.0000 -43.2000 0.0000
    outer loop
        vertex -15.2000 -0.1000 3.2000
        vertex -15.2000 -0.1000 -3.2000
        vertex -14.1200 -0.1000 -1.5600
    endloop
endfacet
facet normal 0.0000 -0.7500 0.0000
    outer loop
        vertex 9.6800 -0.1000 -1.9600
        vertex 8.2800 -0.1000 -2.0000
        vertex 9.8800 -0.1000 -2.0400
    endloop
endfacet
facet normal 0.0000 -1.4400 0.0000
    outer loop
        vertex 9.5200 -0.1000 -1.8000
        vertex 8.2800 -0.1000 -2.0000
        vertex 9.6800 -0.1000 -1.9600
    endloop
endfacet
facet normal 0.0000 -1.9600 0.0000
    outer loop
        vertex 9.4400 -0.1000 -1.5600
        vertex 8.2800 -0.1000 -2.0000
        vertex 9.5200 -0.1000 -1.8000
    endloop
endfacet
facet normal 0.0000 -10.4400 0.0000
    outer loop
        vertex 8.2800 -0.1000 -2.0000
        vertex 9.4400 -0.1000 -1.5600
        vertex 9.4400 -0.1000 -0.1200
    endloop
endfacet
facet normal 0.0000 -32.7700 0.0000
    outer loop
        vertex 9.4400 -0.1000 -0.1200
        vertex 8.2800 -0.1000 2.5200
        vertex 8.2800 -0.1000 -2.0000
    endloop
endfacet
facet normal 0.0000 -3.0600 0.0000
    outer loop
        vertex 8.2800 -0.1000 2.5200
        vertex 9.4400 -0.1000 -0.1200
        vertex 9.5200 -0.1000 0.1200
    endloop
endfacet
facet normal 0.0000 -3.6400 0.0000
    outer loop
        vertex 8.2800 -0.1000 2.5200
        vertex 9.5200 -0.1000 0.1200
        vertex 9.6800 -0.1000 0.2800
    endloop
endfacet
facet normal 0.0000 -4.6200 0.0000
    outer loop
        vertex 8.2800 -0.1000 2.5200
        vertex 9.6800 -0.1000 0.2800
        vertex 9.9600 -0.1000 0.3600
    endloop
endfacet
facet normal 0.0000 -46.9800 0.0000
    outer loop
        vertex 8.2800 -0.1000 2.5200
        vertex 9.9600 -0.1000 0.3600
        vertex 13.4400 -0.1000 0.3600
    endloop
endfacet
facet normal 0.0000 -115.3500 0.0000
    outer loop
        vertex 13.4400 -0.1000 0.3600
        vertex 15.2000 -0.1000 3.2000
        vertex 8.2800 -0.1000 2.5200
    endloop
endfacet
facet normal 0.0000 -5.1400 0.0000
    outer loop
        vertex 15.2000 -0.1000 3.2000
        vertex 13.4400 -0.1000 0.3600
        vertex 13.6800 -0.1000 0.2800
    endloop
endfacet
facet normal 0.0000 -5.1700 0.0000
    outer loop
        vertex 15.2000 -0.1000 3.2000
        vertex 13.6800 -0.1000 0.2800
        vertex 13.8800 -0.1000 0.1200
    endloop
endfacet
facet normal 0.0000 -4.6200 0.0000
    outer loop
        vertex 15.2000 -0.1000 3.2000
        vertex 13.8800 -0.1000 0.1200
        vertex 14.0000 -0.1000 -0.1600
    endloop
endfacet
facet normal 0.0000 -10.5000 0.0000
    outer loop
        vertex 15.2000 -0.1000 3.2000
        vertex 14.0000 -0.1000 -0.1600
        vertex 14.0000 -0.1000 -1.5600
    endloop
endfacet
facet normal 0.0000 -48.0000 0.0000
    outer loop
        vertex 14.0000 -0.1000 -1.5600
        vertex 15.2000 -0.1000 -3.2000
        vertex 15.2000 -0.1000 3.2000
    endloop
endfacet
facet normal 0.0000 -129.2000 0.0000
    outer loop
        vertex 15.2000 -0.1000 3.2000
        vertex -15.2000 -0.1000 3.2000
        vertex -8.2800 -0.1000 2.5200
    endloop
endfacet
facet normal 0.0000 -70.3800 0.0000
    outer loop
        vertex -8.2800 -0.1000 2.5200
        vertex 8.2800 -0.1000 2.5200
        vertex 15.2000 -0.1000 3.2000
    endloop
endfacet
endsolid GiantLegoRocks
