solid GiantLegoRocks
facet normal 0.0000 0.7500 0.0000
    outer loop
        vertex 15.6000 0.0000 7.6000
        vertex 15.6000 0.0000 -7.6000
        vertex -15.6000 0.0000 -7.6000
    endloop
endfacet
facet normal 0.0000 0.7500 0.0000
    outer loop
        vertex -15.6000 0.0000 -7.6000
        vertex -15.6000 0.0000 7.6000
        vertex 15.6000 0.0000 7.6000
    endloop
endfacet
facet normal 0.0000 -0.2500 38.0000
    outer loop
        vertex -15.6000 -0.1000 7.6000
        vertex 15.6000 -0.1000 7.6000
        vertex 15.6000 0.0000 7.6000
    endloop
endfacet
facet normal 0.0000 -0.2500 38.0000
    outer loop
        vertex 15.6000 0.0000 7.6000
        vertex -15.6000 0.0000 7.6000
        vertex -15.6000 -0.1000 7.6000
    endloop
endfacet
facet normal -78.0000 -0.2500 0.0000
    outer loop
        vertex -15.6000 -0.1000 -7.6000
        vertex -15.6000 -0.1000 7.6000
        vertex -15.6000 0.0000 7.6000
    endloop
endfacet
facet normal -78.0000 -0.2500 0.0000
    outer loop
        vertex -15.6000 0.0000 7.6000
        vertex -15.6000 0.0000 -7.6000
        vertex -15.6000 -0.1000 -7.6000
    endloop
endfacet
facet normal 0.0000 -0.2500 -38.0000
    outer loop
        vertex 15.6000 -0.1000 -7.6000
        vertex -15.6000 -0.1000 -7.6000
        vertex -15.6000 0.0000 -7.6000
    endloop
endfacet
facet normal 0.0000 -0.2500 -38.0000
    outer loop
        vertex -15.6000 0.0000 -7.6000
        vertex 15.6000 0.0000 -7.6000
        vertex 15.6000 -0.1000 -7.6000
    endloop
endfacet
facet normal 78.0000 -0.2500 0.0000
    outer loop
        vertex 15.6000 -0.1000 7.6000
        vertex 15.6000 -0.1000 -7.6000
        vertex 15.6000 0.0000 -7.6000
    endloop
endfacet
facet normal 78.0000 -0.2500 0.0000
    outer loop
        vertex 15.6000 0.0000 -7.6000
        vertex 15.6000 0.0000 7.6000
        vertex 15.6000 -0.1000 7.6000
    endloop
endfacet
facet normal 0.0000 -2964.0000 0.0000
    outer loop
        vertex 15.6000 -0.1000 7.6000
        vertex -15.6000 -0.1000 7.6000
        vertex -15.6000 -0.1000 -7.6000
    endloop
endfacet
facet normal 0.0000 -2964.0000 0.0000
    outer loop
        vertex -15.6000 -0.1000 -7.6000
        vertex 15.6000 -0.1000 -7.6000
        vertex 15.6000 -0.1000 7.6000
    endloop
endfacet
endsolid GiantLegoRocks
