solid GiantLegoRocks
facet normal 0.0000 88.0740 0.0000
    outer loop
        vertex -16.4000 0.0000 11.6000
        vertex 0.0000 0.0000 0.9704
        vertex -16.8000 0.0000 11.0000
    endloop
endfacet
facet normal 0.0000 197.7780 0.0000
    outer loop
        vertex -15.6000 0.0000 8.4000
        vertex -16.8000 0.0000 11.0000
        vertex 0.0000 0.0000 0.9704
    endloop
endfacet
facet normal 0.0000 198.7040 0.0000
    outer loop
        vertex -14.0000 0.0000 5.6000
        vertex -15.6000 0.0000 8.4000
        vertex 0.0000 0.0000 0.9704
    endloop
endfacet
facet normal 0.0000 152.1300 0.0000
    outer loop
        vertex -12.0000 0.0000 3.2000
        vertex -14.0000 0.0000 5.6000
        vertex 0.0000 0.0000 0.9704
    endloop
endfacet
facet normal 0.0000 119.3430 0.0000
    outer loop
        vertex -9.8000 0.0000 1.2000
        vertex -12.0000 0.0000 3.2000
        vertex 0.0000 0.0000 0.9704
    endloop
endfacet
facet normal 0.0000 37.8980 0.0000
    outer loop
        vertex -9.8000 0.0000 1.2000
        vertex 0.0000 0.0000 0.9704
        vertex -10.6000 0.0000 0.6000
    endloop
endfacet
facet normal 0.0000 26.5000 0.0000
    outer loop
        vertex -10.6000 0.0000 0.2000
        vertex -10.6000 0.0000 0.6000
        vertex 0.0000 0.0000 0.9704
    endloop
endfacet
facet normal 0.0000 124.0650 0.0000
    outer loop
        vertex -9.6000 0.0000 -1.6000
        vertex -10.6000 0.0000 0.2000
        vertex 0.0000 0.0000 0.9704
    endloop
endfacet
facet normal 0.0000 176.1300 0.0000
    outer loop
        vertex -7.6000 0.0000 -4.0000
        vertex -9.6000 0.0000 -1.6000
        vertex 0.0000 0.0000 0.9704
    endloop
endfacet
facet normal 0.0000 62.8520 0.0000
    outer loop
        vertex -6.8000 0.0000 -4.8000
        vertex -7.6000 0.0000 -4.0000
        vertex 0.0000 0.0000 0.9704
    endloop
endfacet
facet normal 0.0000 221.0000 0.0000
    outer loop
        vertex -6.8000 0.0000 -4.8000
        vertex 0.0000 0.0000 0.9704
        vertex -6.8000 0.0000 -10.0000
    endloop
endfacet
facet normal 0.0000 78.4260 0.0000
    outer loop
        vertex -6.8000 0.0000 -10.0000
        vertex 0.0000 0.0000 0.9704
        vertex -6.4000 0.0000 -11.2000
    endloop
endfacet
facet normal 0.0000 76.8520 0.0000
    outer loop
        vertex -6.4000 0.0000 -11.2000
        vertex 0.0000 0.0000 0.9704
        vertex -5.6000 0.0000 -11.6000
    endloop
endfacet
facet normal 0.0000 104.7040 0.0000
    outer loop
        vertex -5.6000 0.0000 -11.6000
        vertex 0.0000 0.0000 0.9704
        vertex -4.0000 0.0000 -11.0000
    endloop
endfacet
facet normal 0.0000 249.2600 0.0000
    outer loop
        vertex -4.0000 0.0000 -11.0000
        vertex 0.0000 0.0000 0.9704
        vertex 0.0000 0.0000 -9.0000
    endloop
endfacet
facet normal 0.0000 88.0740 0.0000
    outer loop
        vertex 0.0000 0.0000 0.9704
        vertex 16.4000 0.0000 11.6000
        vertex 16.8000 0.0000 11.0000
    endloop
endfacet
facet normal 0.0000 197.7780 0.0000
    outer loop
        vertex 0.0000 0.0000 0.9704
        vertex 16.8000 0.0000 11.0000
        vertex 15.6000 0.0000 8.4000
    endloop
endfacet
facet normal 0.0000 198.7040 0.0000
    outer loop
        vertex 0.0000 0.0000 0.9704
        vertex 15.6000 0.0000 8.4000
        vertex 14.0000 0.0000 5.6000
    endloop
endfacet
facet normal 0.0000 152.1300 0.0000
    outer loop
        vertex 0.0000 0.0000 0.9704
        vertex 14.0000 0.0000 5.6000
        vertex 12.0000 0.0000 3.2000
    endloop
endfacet
facet normal 0.0000 119.3430 0.0000
    outer loop
        vertex 0.0000 0.0000 0.9704
        vertex 12.0000 0.0000 3.2000
        vertex 9.8000 0.0000 1.2000
    endloop
endfacet
facet normal 0.0000 37.8980 0.0000
    outer loop
        vertex 0.0000 0.0000 0.9704
        vertex 9.8000 0.0000 1.2000
        vertex 10.6000 0.0000 0.6000
    endloop
endfacet
facet normal 0.0000 26.5000 0.0000
    outer loop
        vertex 0.0000 0.0000 0.9704
        vertex 10.6000 0.0000 0.6000
        vertex 10.6000 0.0000 0.2000
    endloop
endfacet
facet normal 0.0000 124.0650 0.0000
    outer loop
        vertex 0.0000 0.0000 0.9704
        vertex 10.6000 0.0000 0.2000
        vertex 9.6000 0.0000 -1.6000
    endloop
endfacet
facet normal 0.0000 176.1300 0.0000
    outer loop
        vertex 0.0000 0.0000 0.9704
        vertex 9.6000 0.0000 -1.6000
        vertex 7.6000 0.0000 -4.0000
    endloop
endfacet
facet normal 0.0000 62.8520 0.0000
    outer loop
        vertex 0.0000 0.0000 0.9704
        vertex 7.6000 0.0000 -4.0000
        vertex 6.8000 0.0000 -4.8000
    endloop
endfacet
facet normal 0.0000 221.0000 0.0000
    outer loop
        vertex 0.0000 0.0000 0.9704
        vertex 6.8000 0.0000 -4.8000
        vertex 6.8000 0.0000 -10.0000
    endloop
endfacet
facet normal 0.0000 78.4260 0.0000
    outer loop
        vertex 0.0000 0.0000 0.9704
        vertex 6.8000 0.0000 -10.0000
        vertex 6.4000 0.0000 -11.2000
    endloop
endfacet
facet normal 0.0000 76.8520 0.0000
    outer loop
        vertex 0.0000 0.0000 0.9704
        vertex 6.4000 0.0000 -11.2000
        vertex 5.6000 0.0000 -11.6000
    endloop
endfacet
facet normal 0.0000 104.7040 0.0000
    outer loop
        vertex 0.0000 0.0000 0.9704
        vertex 5.6000 0.0000 -11.6000
        vertex 4.0000 0.0000 -11.0000
    endloop
endfacet
facet normal 0.0000 249.2600 0.0000
    outer loop
        vertex 0.0000 0.0000 0.9704
        vertex 4.0000 0.0000 -11.0000
        vertex 0.0000 0.0000 -9.0000
    endloop
endfacet
facet normal 0.0000 2179.0680 0.0000
    outer loop
        vertex 0.0000 0.0000 0.9704
        vertex -16.4000 0.0000 11.6000
        vertex 16.4000 0.0000 11.6000
    endloop
endfacet
facet normal 0.0000 -25.2000 0.0000
    outer loop
        vertex 0.0000 -0.1000 -6.2000
        vertex 0.0000 -0.1000 3.8800
        vertex -0.4000 -0.1000 3.5600
    endloop
endfacet
facet normal 0.0000 -115.7600 0.0000
    outer loop
        vertex -0.4000 -0.1000 3.5600
        vertex -2.1600 -0.1000 0.2000
        vertex 0.0000 -0.1000 -6.2000
    endloop
endfacet
facet normal 0.0000 -116.9600 0.0000
    outer loop
        vertex -3.6800 -0.1000 -3.9600
        vertex 0.0000 -0.1000 -6.2000
        vertex -2.1600 -0.1000 0.2000
    endloop
endfacet
facet normal 0.0000 -91.3000 0.0000
    outer loop
        vertex -2.1600 -0.1000 0.2000
        vertex -5.9200 -0.1000 -0.4800
        vertex -3.6800 -0.1000 -3.9600
    endloop
endfacet
facet normal 0.0000 -17.5400 0.0000
    outer loop
        vertex -6.1600 -0.1000 -1.3600
        vertex -3.6800 -0.1000 -3.9600
        vertex -5.9200 -0.1000 -0.4800
    endloop
endfacet
facet normal 0.0000 -2.6600 0.0000
    outer loop
        vertex -5.9200 -0.1000 -0.4800
        vertex -6.4800 -0.1000 -0.7600
        vertex -6.1600 -0.1000 -1.3600
    endloop
endfacet
facet normal 0.0000 -88.9200 0.0000
    outer loop
        vertex 0.0000 -0.1000 -6.2000
        vertex -3.6800 -0.1000 -3.9600
        vertex -3.9200 -0.1000 -7.6800
    endloop
endfacet
facet normal 0.0000 -18.6600 0.0000
    outer loop
        vertex -3.9200 -0.1000 -7.6800
        vertex -3.2800 -0.1000 -8.2000
        vertex 0.0000 -0.1000 -6.2000
    endloop
endfacet
facet normal 0.0000 -1.9800 0.0000
    outer loop
        vertex -3.9200 -0.1000 -7.6800
        vertex -3.8400 -0.1000 -8.2400
        vertex -3.2800 -0.1000 -8.2000
    endloop
endfacet
facet normal 0.0000 -39.2400 0.0000
    outer loop
        vertex -10.9200 -0.1000 7.8800
        vertex -9.7200 -0.1000 5.7600
        vertex -7.8000 -0.1000 7.6000
    endloop
endfacet
facet normal 0.0000 -47.8800 0.0000
    outer loop
        vertex -7.8000 -0.1000 7.6000
        vertex -8.5200 -0.1000 10.1200
        vertex -10.9200 -0.1000 7.8800
    endloop
endfacet
facet normal 0.0000 -48.7200 0.0000
    outer loop
        vertex -8.5200 -0.1000 10.1200
        vertex -12.0000 -0.1000 10.1200
        vertex -10.9200 -0.1000 7.8800
    endloop
endfacet
facet normal 0.0000 -35.5200 0.0000
    outer loop
        vertex -6.8400 -0.1000 5.5600
        vertex -7.8000 -0.1000 7.6000
        vertex -9.7200 -0.1000 5.7600
    endloop
endfacet
facet normal 0.0000 -33.5800 0.0000
    outer loop
        vertex -9.7200 -0.1000 5.7600
        vertex -8.3600 -0.1000 3.8000
        vertex -6.8400 -0.1000 5.5600
    endloop
endfacet
facet normal 0.0000 -33.8400 0.0000
    outer loop
        vertex -5.5600 -0.1000 3.4800
        vertex -6.8400 -0.1000 5.5600
        vertex -8.3600 -0.1000 3.8000
    endloop
endfacet
facet normal 0.0000 -29.3000 0.0000
    outer loop
        vertex -8.3600 -0.1000 3.8000
        vertex -6.5600 -0.1000 1.9200
        vertex -5.5600 -0.1000 3.4800
    endloop
endfacet
facet normal 0.0000 -27.8800 0.0000
    outer loop
        vertex -3.8800 -0.1000 1.6400
        vertex -5.5600 -0.1000 3.4800
        vertex -6.5600 -0.1000 1.9200
    endloop
endfacet
facet normal 0.0000 -10.6600 0.0000
    outer loop
        vertex -6.5600 -0.1000 1.9200
        vertex -5.7600 -0.1000 1.2000
        vertex -3.8800 -0.1000 1.6400
    endloop
endfacet
facet normal 0.0000 -9.3600 0.0000
    outer loop
        vertex 0.0000 -0.1000 3.8800
        vertex 0.0000 -0.1000 7.0000
        vertex -0.4800 -0.1000 6.6000
    endloop
endfacet
facet normal 0.0000 -7.7600 0.0000
    outer loop
        vertex -0.4800 -0.1000 6.6000
        vertex -0.4000 -0.1000 3.5600
        vertex 0.0000 -0.1000 3.8800
    endloop
endfacet
facet normal 0.0000 -25.2200 0.0000
    outer loop
        vertex -0.4000 -0.1000 3.5600
        vertex -0.4800 -0.1000 6.6000
        vertex -1.7600 -0.1000 4.8000
    endloop
endfacet
facet normal 0.0000 -25.3400 0.0000
    outer loop
        vertex -1.7600 -0.1000 4.8000
        vertex -2.8800 -0.1000 2.8400
        vertex -0.4000 -0.1000 3.5600
    endloop
endfacet
facet normal 0.0000 -44.1600 0.0000
    outer loop
        vertex -2.1600 -0.1000 0.2000
        vertex -0.4000 -0.1000 3.5600
        vertex -2.8800 -0.1000 2.8400
    endloop
endfacet
facet normal 0.0000 -21.9000 0.0000
    outer loop
        vertex -2.8800 -0.1000 2.8400
        vertex -3.8800 -0.1000 1.6400
        vertex -2.1600 -0.1000 0.2000
    endloop
endfacet
facet normal 0.0000 -24.1000 0.0000
    outer loop
        vertex -5.5600 -0.1000 3.4800
        vertex -3.8800 -0.1000 1.6400
        vertex -2.8800 -0.1000 2.8400
    endloop
endfacet
facet normal 0.0000 -28.8300 0.0000
    outer loop
        vertex -2.8800 -0.1000 2.8400
        vertex -3.8800 -0.1000 4.8000
        vertex -5.5600 -0.1000 3.4800
    endloop
endfacet
facet normal 0.0000 -32.4000 0.0000
    outer loop
        vertex -6.8400 -0.1000 5.5600
        vertex -5.5600 -0.1000 3.4800
        vertex -3.8800 -0.1000 4.8000
    endloop
endfacet
facet normal 0.0000 -42.2700 0.0000
    outer loop
        vertex -3.8800 -0.1000 4.8000
        vertex -4.6400 -0.1000 7.2800
        vertex -6.8400 -0.1000 5.5600
    endloop
endfacet
facet normal 0.0000 -38.3700 0.0000
    outer loop
        vertex -7.8000 -0.1000 7.6000
        vertex -6.8400 -0.1000 5.5600
        vertex -4.6400 -0.1000 7.2800
    endloop
endfacet
facet normal 0.0000 -48.3300 0.0000
    outer loop
        vertex -4.6400 -0.1000 7.2800
        vertex -8.5200 -0.1000 10.1200
        vertex -7.8000 -0.1000 7.6000
    endloop
endfacet
facet normal 0.0000 -63.9000 0.0000
    outer loop
        vertex -4.9200 -0.1000 10.1200
        vertex -8.5200 -0.1000 10.1200
        vertex -4.6400 -0.1000 7.2800
    endloop
endfacet
facet normal 0.0000 -45.0700 0.0000
    outer loop
        vertex -10.9200 -0.1000 7.8800
        vertex -12.0000 -0.1000 10.1200
        vertex -15.2000 -0.1000 10.0800
    endloop
endfacet
facet normal 0.0000 -48.7100 0.0000
    outer loop
        vertex -15.2000 -0.1000 10.0800
        vertex -13.8400 -0.1000 7.5600
        vertex -10.9200 -0.1000 7.8800
    endloop
endfacet
facet normal 0.0000 -41.0900 0.0000
    outer loop
        vertex -9.7200 -0.1000 5.7600
        vertex -10.9200 -0.1000 7.8800
        vertex -13.8400 -0.1000 7.5600
    endloop
endfacet
facet normal 0.0000 -42.6400 0.0000
    outer loop
        vertex -13.8400 -0.1000 7.5600
        vertex -12.3200 -0.1000 5.2400
        vertex -9.7200 -0.1000 5.7600
    endloop
endfacet
facet normal 0.0000 -36.2700 0.0000
    outer loop
        vertex -8.3600 -0.1000 3.8000
        vertex -9.7200 -0.1000 5.7600
        vertex -12.3200 -0.1000 5.2400
    endloop
endfacet
facet normal 0.0000 -37.4400 0.0000
    outer loop
        vertex -12.3200 -0.1000 5.2400
        vertex -10.3200 -0.1000 3.0000
        vertex -8.3600 -0.1000 3.8000
    endloop
endfacet
facet normal 0.0000 -32.0300 0.0000
    outer loop
        vertex -6.5600 -0.1000 1.9200
        vertex -8.3600 -0.1000 3.8000
        vertex -10.3200 -0.1000 3.0000
    endloop
endfacet
facet normal 0.0000 -29.7200 0.0000
    outer loop
        vertex -10.3200 -0.1000 3.0000
        vertex -7.7600 -0.1000 1.0000
        vertex -6.5600 -0.1000 1.9200
    endloop
endfacet
facet normal 0.0000 -10.0000 0.0000
    outer loop
        vertex -5.7600 -0.1000 1.2000
        vertex -6.5600 -0.1000 1.9200
        vertex -7.7600 -0.1000 1.0000
    endloop
endfacet
facet normal 0.0000 -20.8000 0.0000
    outer loop
        vertex -7.7600 -0.1000 1.0000
        vertex -5.9200 -0.1000 -0.4800
        vertex -5.7600 -0.1000 1.2000
    endloop
endfacet
facet normal 0.0000 -19.3000 0.0000
    outer loop
        vertex -3.8800 -0.1000 1.6400
        vertex -5.7600 -0.1000 1.2000
        vertex -5.9200 -0.1000 -0.4800
    endloop
endfacet
facet normal 0.0000 -41.1500 0.0000
    outer loop
        vertex -5.9200 -0.1000 -0.4800
        vertex -2.1600 -0.1000 0.2000
        vertex -3.8800 -0.1000 1.6400
    endloop
endfacet
facet normal 0.0000 -8.4000 0.0000
    outer loop
        vertex -6.4800 -0.1000 -0.7600
        vertex -5.9200 -0.1000 -0.4800
        vertex -7.7600 -0.1000 1.0000
    endloop
endfacet
facet normal 0.0000 -10.6000 0.0000
    outer loop
        vertex -7.7600 -0.1000 1.0000
        vertex -8.5200 -0.1000 0.7200
        vertex -6.4800 -0.1000 -0.7600
    endloop
endfacet
facet normal 0.0000 -9.9100 0.0000
    outer loop
        vertex -6.4800 -0.1000 -0.7600
        vertex -8.5200 -0.1000 0.7200
        vertex -9.0400 -0.1000 0.3200
    endloop
endfacet
facet normal 0.0000 -9.1600 0.0000
    outer loop
        vertex -9.0400 -0.1000 0.3200
        vertex -8.8800 -0.1000 -0.3200
        vertex -6.4800 -0.1000 -0.7600
    endloop
endfacet
facet normal 0.0000 -8.1200 0.0000
    outer loop
        vertex -6.1600 -0.1000 -1.3600
        vertex -6.4800 -0.1000 -0.7600
        vertex -8.8800 -0.1000 -0.3200
    endloop
endfacet
facet normal 0.0000 -25.6400 0.0000
    outer loop
        vertex -8.8800 -0.1000 -0.3200
        vertex -7.2800 -0.1000 -2.4400
        vertex -6.1600 -0.1000 -1.3600
    endloop
endfacet
facet normal 0.0000 -34.9400 0.0000
    outer loop
        vertex -3.6800 -0.1000 -3.9600
        vertex -6.1600 -0.1000 -1.3600
        vertex -7.2800 -0.1000 -2.4400
    endloop
endfacet
facet normal 0.0000 -27.7600 0.0000
    outer loop
        vertex -7.2800 -0.1000 -2.4400
        vertex -5.5600 -0.1000 -4.4000
        vertex -3.6800 -0.1000 -3.9600
    endloop
endfacet
facet normal 0.0000 -43.0500 0.0000
    outer loop
        vertex -3.9200 -0.1000 -7.6800
        vertex -3.6800 -0.1000 -3.9600
        vertex -5.5600 -0.1000 -4.4000
    endloop
endfacet
facet normal 0.0000 -29.9300 0.0000
    outer loop
        vertex -5.5600 -0.1000 -4.4000
        vertex -5.6000 -0.1000 -7.2400
        vertex -3.9200 -0.1000 -7.6800
    endloop
endfacet
facet normal 0.0000 -5.6600 0.0000
    outer loop
        vertex -3.8400 -0.1000 -8.2400
        vertex -3.9200 -0.1000 -7.6800
        vertex -5.6000 -0.1000 -7.2400
    endloop
endfacet
facet normal 0.0000 -23.6400 0.0000
    outer loop
        vertex -5.6000 -0.1000 -7.2400
        vertex -5.4400 -0.1000 -9.4800
        vertex -3.8400 -0.1000 -8.2400
    endloop
endfacet
facet normal 0.0000 -7.6800 0.0000
    outer loop
        vertex -3.8400 -0.1000 -8.2400
        vertex -5.4400 -0.1000 -9.4800
        vertex -5.1200 -0.1000 -10.0000
    endloop
endfacet
facet normal 0.0000 -7.4400 0.0000
    outer loop
        vertex -5.1200 -0.1000 -10.0000
        vertex -4.5600 -0.1000 -10.1600
        vertex -3.8400 -0.1000 -8.2400
    endloop
endfacet
facet normal 0.0000 -6.5400 0.0000
    outer loop
        vertex -3.2800 -0.1000 -8.2000
        vertex -3.8400 -0.1000 -8.2400
        vertex -4.5600 -0.1000 -10.1600
    endloop
endfacet
facet normal 0.0000 -19.9300 0.0000
    outer loop
        vertex -4.5600 -0.1000 -10.1600
        vertex -2.2800 -0.1000 -9.1600
        vertex -3.2800 -0.1000 -8.2000
    endloop
endfacet
facet normal 0.0000 -32.1800 0.0000
    outer loop
        vertex 0.0000 -0.1000 -6.2000
        vertex -3.2800 -0.1000 -8.2000
        vertex -2.2800 -0.1000 -9.1600
    endloop
endfacet
facet normal 0.0000 -23.9400 0.0000
    outer loop
        vertex -2.2800 -0.1000 -9.1600
        vertex 0.0000 -0.1000 -7.8800
        vertex 0.0000 -0.1000 -6.2000
    endloop
endfacet
facet normal 0.0000 -81.8700 0.0000
    outer loop
        vertex 0.0000 -0.1000 7.0000
        vertex -4.9200 -0.1000 10.1200
        vertex -4.6400 -0.1000 7.2800
    endloop
endfacet
facet normal 0.0000 -12.4400 0.0000
    outer loop
        vertex -4.6400 -0.1000 7.2800
        vertex -0.4800 -0.1000 6.6000
        vertex 0.0000 -0.1000 7.0000
    endloop
endfacet
facet normal 0.0000 -61.2500 0.0000
    outer loop
        vertex -0.4800 -0.1000 6.6000
        vertex -4.6400 -0.1000 7.2800
        vertex -3.8800 -0.1000 4.8000
    endloop
endfacet
facet normal 0.0000 -23.8500 0.0000
    outer loop
        vertex -3.8800 -0.1000 4.8000
        vertex -1.7600 -0.1000 4.8000
        vertex -0.4800 -0.1000 6.6000
    endloop
endfacet
facet normal 0.0000 -25.9700 0.0000
    outer loop
        vertex -1.7600 -0.1000 4.8000
        vertex -3.8800 -0.1000 4.8000
        vertex -2.8800 -0.1000 2.8400
    endloop
endfacet
facet normal 0.0000 -30.7000 0.0000
    outer loop
        vertex -15.2000 -0.1000 10.0800
        vertex -12.0000 -0.1000 10.1200
        vertex -16.4000 -0.1000 11.6000
    endloop
endfacet
facet normal 0.0000 -8.3000 0.0000
    outer loop
        vertex -16.4000 -0.1000 11.6000
        vertex -16.8000 -0.1000 11.0000
        vertex -15.2000 -0.1000 10.0800
    endloop
endfacet
facet normal 0.0000 -19.1000 0.0000
    outer loop
        vertex -15.2000 -0.1000 10.0800
        vertex -16.8000 -0.1000 11.0000
        vertex -15.6000 -0.1000 8.4000
    endloop
endfacet
facet normal 0.0000 -20.5800 0.0000
    outer loop
        vertex -15.6000 -0.1000 8.4000
        vertex -13.8400 -0.1000 7.5600
        vertex -15.2000 -0.1000 10.0800
    endloop
endfacet
facet normal 0.0000 -22.4000 0.0000
    outer loop
        vertex -13.8400 -0.1000 7.5600
        vertex -15.6000 -0.1000 8.4000
        vertex -14.0000 -0.1000 5.6000
    endloop
endfacet
facet normal 0.0000 -20.9400 0.0000
    outer loop
        vertex -14.0000 -0.1000 5.6000
        vertex -12.3200 -0.1000 5.2400
        vertex -13.8400 -0.1000 7.5600
    endloop
endfacet
facet normal 0.0000 -20.7000 0.0000
    outer loop
        vertex -12.3200 -0.1000 5.2400
        vertex -14.0000 -0.1000 5.6000
        vertex -12.0000 -0.1000 3.2000
    endloop
endfacet
facet normal 0.0000 -21.0200 0.0000
    outer loop
        vertex -12.0000 -0.1000 3.2000
        vertex -10.3200 -0.1000 3.0000
        vertex -12.3200 -0.1000 5.2400
    endloop
endfacet
facet normal 0.0000 -18.2500 0.0000
    outer loop
        vertex -10.3200 -0.1000 3.0000
        vertex -12.0000 -0.1000 3.2000
        vertex -9.8000 -0.1000 1.2000
    endloop
endfacet
facet normal 0.0000 -12.8400 0.0000
    outer loop
        vertex -9.8000 -0.1000 1.2000
        vertex -8.5200 -0.1000 0.7200
        vertex -10.3200 -0.1000 3.0000
    endloop
endfacet
facet normal 0.0000 -13.9800 0.0000
    outer loop
        vertex -10.3200 -0.1000 3.0000
        vertex -8.5200 -0.1000 0.7200
        vertex -7.7600 -0.1000 1.0000
    endloop
endfacet
facet normal 0.0000 -4.7600 0.0000
    outer loop
        vertex -9.0400 -0.1000 0.3200
        vertex -8.5200 -0.1000 0.7200
        vertex -9.8000 -0.1000 1.2000
    endloop
endfacet
facet normal 0.0000 -7.2500 0.0000
    outer loop
        vertex -9.8000 -0.1000 1.2000
        vertex -10.6000 -0.1000 0.6000
        vertex -9.0400 -0.1000 0.3200
    endloop
endfacet
facet normal 0.0000 -3.9000 0.0000
    outer loop
        vertex -9.0400 -0.1000 0.3200
        vertex -10.6000 -0.1000 0.6000
        vertex -10.6000 -0.1000 0.2000
    endloop
endfacet
facet normal 0.0000 -6.3600 0.0000
    outer loop
        vertex -10.6000 -0.1000 0.2000
        vertex -8.8800 -0.1000 -0.3200
        vertex -9.0400 -0.1000 0.3200
    endloop
endfacet
facet normal 0.0000 -16.1000 0.0000
    outer loop
        vertex -8.8800 -0.1000 -0.3200
        vertex -10.6000 -0.1000 0.2000
        vertex -9.6000 -0.1000 -1.6000
    endloop
endfacet
facet normal 0.0000 -22.3400 0.0000
    outer loop
        vertex -9.6000 -0.1000 -1.6000
        vertex -7.2800 -0.1000 -2.4400
        vertex -8.8800 -0.1000 -0.3200
    endloop
endfacet
facet normal 0.0000 -24.3000 0.0000
    outer loop
        vertex -7.2800 -0.1000 -2.4400
        vertex -9.6000 -0.1000 -1.6000
        vertex -7.6000 -0.1000 -4.0000
    endloop
endfacet
facet normal 0.0000 -20.6900 0.0000
    outer loop
        vertex -7.6000 -0.1000 -4.0000
        vertex -5.5600 -0.1000 -4.4000
        vertex -7.2800 -0.1000 -2.4400
    endloop
endfacet
facet normal 0.0000 -8.2000 0.0000
    outer loop
        vertex -7.6000 -0.1000 -4.0000
        vertex -6.8000 -0.1000 -4.8000
        vertex -5.5600 -0.1000 -4.4000
    endloop
endfacet
facet normal 0.0000 -21.9100 0.0000
    outer loop
        vertex -5.6000 -0.1000 -7.2400
        vertex -5.5600 -0.1000 -4.4000
        vertex -6.8000 -0.1000 -4.8000
    endloop
endfacet
facet normal 0.0000 -39.0000 0.0000
    outer loop
        vertex -6.8000 -0.1000 -4.8000
        vertex -6.8000 -0.1000 -10.0000
        vertex -5.6000 -0.1000 -7.2400
    endloop
endfacet
facet normal 0.0000 -19.5600 0.0000
    outer loop
        vertex -5.4400 -0.1000 -9.4800
        vertex -5.6000 -0.1000 -7.2400
        vertex -6.8000 -0.1000 -10.0000
    endloop
endfacet
facet normal 0.0000 -11.5000 0.0000
    outer loop
        vertex -6.8000 -0.1000 -10.0000
        vertex -6.4000 -0.1000 -11.2000
        vertex -5.4400 -0.1000 -9.4800
    endloop
endfacet
facet normal 0.0000 -6.5600 0.0000
    outer loop
        vertex -5.1200 -0.1000 -10.0000
        vertex -5.4400 -0.1000 -9.4800
        vertex -6.4000 -0.1000 -11.2000
    endloop
endfacet
facet normal 0.0000 -9.2000 0.0000
    outer loop
        vertex -6.4000 -0.1000 -11.2000
        vertex -5.6000 -0.1000 -11.6000
        vertex -5.1200 -0.1000 -10.0000
    endloop
endfacet
facet normal 0.0000 -6.0800 0.0000
    outer loop
        vertex -4.5600 -0.1000 -10.1600
        vertex -5.1200 -0.1000 -10.0000
        vertex -5.6000 -0.1000 -11.6000
    endloop
endfacet
facet normal 0.0000 -10.5000 0.0000
    outer loop
        vertex -5.6000 -0.1000 -11.6000
        vertex -4.0000 -0.1000 -11.0000
        vertex -4.5600 -0.1000 -10.1600
    endloop
endfacet
facet normal 0.0000 -15.4700 0.0000
    outer loop
        vertex -2.2800 -0.1000 -9.1600
        vertex -4.5600 -0.1000 -10.1600
        vertex -4.0000 -0.1000 -11.0000
    endloop
endfacet
facet normal 0.0000 -24.5000 0.0000
    outer loop
        vertex -4.0000 -0.1000 -11.0000
        vertex 0.0000 -0.1000 -9.0000
        vertex -2.2800 -0.1000 -9.1600
    endloop
endfacet
facet normal 0.0000 -15.9600 0.0000
    outer loop
        vertex 0.0000 -0.1000 -7.8800
        vertex -2.2800 -0.1000 -9.1600
        vertex 0.0000 -0.1000 -9.0000
    endloop
endfacet
facet normal 0.0000 -25.2000 0.0000
    outer loop
        vertex 0.4000 -0.1000 3.5600
        vertex 0.0000 -0.1000 3.8800
        vertex 0.0000 -0.1000 -6.2000
    endloop
endfacet
facet normal 0.0000 -115.7600 0.0000
    outer loop
        vertex 0.0000 -0.1000 -6.2000
        vertex 2.1600 -0.1000 0.2000
        vertex 0.4000 -0.1000 3.5600
    endloop
endfacet
facet normal 0.0000 -116.9600 0.0000
    outer loop
        vertex 2.1600 -0.1000 0.2000
        vertex 0.0000 -0.1000 -6.2000
        vertex 3.6800 -0.1000 -3.9600
    endloop
endfacet
facet normal 0.0000 -91.3000 0.0000
    outer loop
        vertex 3.6800 -0.1000 -3.9600
        vertex 5.9200 -0.1000 -0.4800
        vertex 2.1600 -0.1000 0.2000
    endloop
endfacet
facet normal 0.0000 -17.5400 0.0000
    outer loop
        vertex 5.9200 -0.1000 -0.4800
        vertex 3.6800 -0.1000 -3.9600
        vertex 6.1600 -0.1000 -1.3600
    endloop
endfacet
facet normal 0.0000 -2.6600 0.0000
    outer loop
        vertex 6.1600 -0.1000 -1.3600
        vertex 6.4800 -0.1000 -0.7600
        vertex 5.9200 -0.1000 -0.4800
    endloop
endfacet
facet normal 0.0000 -88.9200 0.0000
    outer loop
        vertex 3.9200 -0.1000 -7.6800
        vertex 3.6800 -0.1000 -3.9600
        vertex 0.0000 -0.1000 -6.2000
    endloop
endfacet
facet normal 0.0000 -18.6600 0.0000
    outer loop
        vertex 0.0000 -0.1000 -6.2000
        vertex 3.2800 -0.1000 -8.2000
        vertex 3.9200 -0.1000 -7.6800
    endloop
endfacet
facet normal 0.0000 -1.9800 0.0000
    outer loop
        vertex 3.9200 -0.1000 -7.6800
        vertex 3.2800 -0.1000 -8.2000
        vertex 3.8400 -0.1000 -8.2400
    endloop
endfacet
facet normal 0.0000 -39.2400 0.0000
    outer loop
        vertex 7.8000 -0.1000 7.6000
        vertex 9.7200 -0.1000 5.7600
        vertex 10.9200 -0.1000 7.8800
    endloop
endfacet
facet normal 0.0000 -47.8800 0.0000
    outer loop
        vertex 10.9200 -0.1000 7.8800
        vertex 8.5200 -0.1000 10.1200
        vertex 7.8000 -0.1000 7.6000
    endloop
endfacet
facet normal 0.0000 -48.7200 0.0000
    outer loop
        vertex 12.0000 -0.1000 10.1200
        vertex 8.5200 -0.1000 10.1200
        vertex 10.9200 -0.1000 7.8800
    endloop
endfacet
facet normal 0.0000 -35.5200 0.0000
    outer loop
        vertex 9.7200 -0.1000 5.7600
        vertex 7.8000 -0.1000 7.6000
        vertex 6.8400 -0.1000 5.5600
    endloop
endfacet
facet normal 0.0000 -33.5800 0.0000
    outer loop
        vertex 6.8400 -0.1000 5.5600
        vertex 8.3600 -0.1000 3.8000
        vertex 9.7200 -0.1000 5.7600
    endloop
endfacet
facet normal 0.0000 -33.8400 0.0000
    outer loop
        vertex 8.3600 -0.1000 3.8000
        vertex 6.8400 -0.1000 5.5600
        vertex 5.5600 -0.1000 3.4800
    endloop
endfacet
facet normal 0.0000 -29.3000 0.0000
    outer loop
        vertex 5.5600 -0.1000 3.4800
        vertex 6.5600 -0.1000 1.9200
        vertex 8.3600 -0.1000 3.8000
    endloop
endfacet
facet normal 0.0000 -27.8800 0.0000
    outer loop
        vertex 6.5600 -0.1000 1.9200
        vertex 5.5600 -0.1000 3.4800
        vertex 3.8800 -0.1000 1.6400
    endloop
endfacet
facet normal 0.0000 -10.6600 0.0000
    outer loop
        vertex 3.8800 -0.1000 1.6400
        vertex 5.7600 -0.1000 1.2000
        vertex 6.5600 -0.1000 1.9200
    endloop
endfacet
facet normal 0.0000 -9.3600 0.0000
    outer loop
        vertex 0.4800 -0.1000 6.6000
        vertex 0.0000 -0.1000 7.0000
        vertex 0.0000 -0.1000 3.8800
    endloop
endfacet
facet normal 0.0000 -7.7600 0.0000
    outer loop
        vertex 0.0000 -0.1000 3.8800
        vertex 0.4000 -0.1000 3.5600
        vertex 0.4800 -0.1000 6.6000
    endloop
endfacet
facet normal 0.0000 -25.2200 0.0000
    outer loop
        vertex 1.7600 -0.1000 4.8000
        vertex 0.4800 -0.1000 6.6000
        vertex 0.4000 -0.1000 3.5600
    endloop
endfacet
facet normal 0.0000 -25.3400 0.0000
    outer loop
        vertex 0.4000 -0.1000 3.5600
        vertex 2.8800 -0.1000 2.8400
        vertex 1.7600 -0.1000 4.8000
    endloop
endfacet
facet normal 0.0000 -44.1600 0.0000
    outer loop
        vertex 2.8800 -0.1000 2.8400
        vertex 0.4000 -0.1000 3.5600
        vertex 2.1600 -0.1000 0.2000
    endloop
endfacet
facet normal 0.0000 -21.9000 0.0000
    outer loop
        vertex 2.1600 -0.1000 0.2000
        vertex 3.8800 -0.1000 1.6400
        vertex 2.8800 -0.1000 2.8400
    endloop
endfacet
facet normal 0.0000 -24.1000 0.0000
    outer loop
        vertex 2.8800 -0.1000 2.8400
        vertex 3.8800 -0.1000 1.6400
        vertex 5.5600 -0.1000 3.4800
    endloop
endfacet
facet normal 0.0000 -28.8300 0.0000
    outer loop
        vertex 5.5600 -0.1000 3.4800
        vertex 3.8800 -0.1000 4.8000
        vertex 2.8800 -0.1000 2.8400
    endloop
endfacet
facet normal 0.0000 -32.4000 0.0000
    outer loop
        vertex 3.8800 -0.1000 4.8000
        vertex 5.5600 -0.1000 3.4800
        vertex 6.8400 -0.1000 5.5600
    endloop
endfacet
facet normal 0.0000 -42.2700 0.0000
    outer loop
        vertex 6.8400 -0.1000 5.5600
        vertex 4.6400 -0.1000 7.2800
        vertex 3.8800 -0.1000 4.8000
    endloop
endfacet
facet normal 0.0000 -38.3700 0.0000
    outer loop
        vertex 4.6400 -0.1000 7.2800
        vertex 6.8400 -0.1000 5.5600
        vertex 7.8000 -0.1000 7.6000
    endloop
endfacet
facet normal 0.0000 -48.3300 0.0000
    outer loop
        vertex 7.8000 -0.1000 7.6000
        vertex 8.5200 -0.1000 10.1200
        vertex 4.6400 -0.1000 7.2800
    endloop
endfacet
facet normal 0.0000 -63.9000 0.0000
    outer loop
        vertex 8.5200 -0.1000 10.1200
        vertex 4.9200 -0.1000 10.1200
        vertex 4.6400 -0.1000 7.2800
    endloop
endfacet
facet normal 0.0000 -45.0700 0.0000
    outer loop
        vertex 15.2000 -0.1000 10.0800
        vertex 12.0000 -0.1000 10.1200
        vertex 10.9200 -0.1000 7.8800
    endloop
endfacet
facet normal 0.0000 -48.7100 0.0000
    outer loop
        vertex 10.9200 -0.1000 7.8800
        vertex 13.8400 -0.1000 7.5600
        vertex 15.2000 -0.1000 10.0800
    endloop
endfacet
facet normal 0.0000 -41.0900 0.0000
    outer loop
        vertex 13.8400 -0.1000 7.5600
        vertex 10.9200 -0.1000 7.8800
        vertex 9.7200 -0.1000 5.7600
    endloop
endfacet
facet normal 0.0000 -42.6400 0.0000
    outer loop
        vertex 9.7200 -0.1000 5.7600
        vertex 12.3200 -0.1000 5.2400
        vertex 13.8400 -0.1000 7.5600
    endloop
endfacet
facet normal 0.0000 -36.2700 0.0000
    outer loop
        vertex 12.3200 -0.1000 5.2400
        vertex 9.7200 -0.1000 5.7600
        vertex 8.3600 -0.1000 3.8000
    endloop
endfacet
facet normal 0.0000 -37.4400 0.0000
    outer loop
        vertex 8.3600 -0.1000 3.8000
        vertex 10.3200 -0.1000 3.0000
        vertex 12.3200 -0.1000 5.2400
    endloop
endfacet
facet normal 0.0000 -32.0300 0.0000
    outer loop
        vertex 10.3200 -0.1000 3.0000
        vertex 8.3600 -0.1000 3.8000
        vertex 6.5600 -0.1000 1.9200
    endloop
endfacet
facet normal 0.0000 -29.7200 0.0000
    outer loop
        vertex 6.5600 -0.1000 1.9200
        vertex 7.7600 -0.1000 1.0000
        vertex 10.3200 -0.1000 3.0000
    endloop
endfacet
facet normal 0.0000 -10.0000 0.0000
    outer loop
        vertex 7.7600 -0.1000 1.0000
        vertex 6.5600 -0.1000 1.9200
        vertex 5.7600 -0.1000 1.2000
    endloop
endfacet
facet normal 0.0000 -20.8000 0.0000
    outer loop
        vertex 5.7600 -0.1000 1.2000
        vertex 5.9200 -0.1000 -0.4800
        vertex 7.7600 -0.1000 1.0000
    endloop
endfacet
facet normal 0.0000 -19.3000 0.0000
    outer loop
        vertex 5.9200 -0.1000 -0.4800
        vertex 5.7600 -0.1000 1.2000
        vertex 3.8800 -0.1000 1.6400
    endloop
endfacet
facet normal 0.0000 -41.1500 0.0000
    outer loop
        vertex 3.8800 -0.1000 1.6400
        vertex 2.1600 -0.1000 0.2000
        vertex 5.9200 -0.1000 -0.4800
    endloop
endfacet
facet normal 0.0000 -8.4000 0.0000
    outer loop
        vertex 7.7600 -0.1000 1.0000
        vertex 5.9200 -0.1000 -0.4800
        vertex 6.4800 -0.1000 -0.7600
    endloop
endfacet
facet normal 0.0000 -10.6000 0.0000
    outer loop
        vertex 6.4800 -0.1000 -0.7600
        vertex 8.5200 -0.1000 0.7200
        vertex 7.7600 -0.1000 1.0000
    endloop
endfacet
facet normal 0.0000 -9.9100 0.0000
    outer loop
        vertex 9.0400 -0.1000 0.3200
        vertex 8.5200 -0.1000 0.7200
        vertex 6.4800 -0.1000 -0.7600
    endloop
endfacet
facet normal 0.0000 -9.1600 0.0000
    outer loop
        vertex 6.4800 -0.1000 -0.7600
        vertex 8.8800 -0.1000 -0.3200
        vertex 9.0400 -0.1000 0.3200
    endloop
endfacet
facet normal 0.0000 -8.1200 0.0000
    outer loop
        vertex 8.8800 -0.1000 -0.3200
        vertex 6.4800 -0.1000 -0.7600
        vertex 6.1600 -0.1000 -1.3600
    endloop
endfacet
facet normal 0.0000 -25.6400 0.0000
    outer loop
        vertex 6.1600 -0.1000 -1.3600
        vertex 7.2800 -0.1000 -2.4400
        vertex 8.8800 -0.1000 -0.3200
    endloop
endfacet
facet normal 0.0000 -34.9400 0.0000
    outer loop
        vertex 7.2800 -0.1000 -2.4400
        vertex 6.1600 -0.1000 -1.3600
        vertex 3.6800 -0.1000 -3.9600
    endloop
endfacet
facet normal 0.0000 -27.7600 0.0000
    outer loop
        vertex 3.6800 -0.1000 -3.9600
        vertex 5.5600 -0.1000 -4.4000
        vertex 7.2800 -0.1000 -2.4400
    endloop
endfacet
facet normal 0.0000 -43.0500 0.0000
    outer loop
        vertex 5.5600 -0.1000 -4.4000
        vertex 3.6800 -0.1000 -3.9600
        vertex 3.9200 -0.1000 -7.6800
    endloop
endfacet
facet normal 0.0000 -29.9300 0.0000
    outer loop
        vertex 3.9200 -0.1000 -7.6800
        vertex 5.6000 -0.1000 -7.2400
        vertex 5.5600 -0.1000 -4.4000
    endloop
endfacet
facet normal 0.0000 -5.6600 0.0000
    outer loop
        vertex 5.6000 -0.1000 -7.2400
        vertex 3.9200 -0.1000 -7.6800
        vertex 3.8400 -0.1000 -8.2400
    endloop
endfacet
facet normal 0.0000 -23.6400 0.0000
    outer loop
        vertex 3.8400 -0.1000 -8.2400
        vertex 5.4400 -0.1000 -9.4800
        vertex 5.6000 -0.1000 -7.2400
    endloop
endfacet
facet normal 0.0000 -7.6800 0.0000
    outer loop
        vertex 5.1200 -0.1000 -10.0000
        vertex 5.4400 -0.1000 -9.4800
        vertex 3.8400 -0.1000 -8.2400
    endloop
endfacet
facet normal 0.0000 -7.4400 0.0000
    outer loop
        vertex 3.8400 -0.1000 -8.2400
        vertex 4.5600 -0.1000 -10.1600
        vertex 5.1200 -0.1000 -10.0000
    endloop
endfacet
facet normal 0.0000 -6.5400 0.0000
    outer loop
        vertex 4.5600 -0.1000 -10.1600
        vertex 3.8400 -0.1000 -8.2400
        vertex 3.2800 -0.1000 -8.2000
    endloop
endfacet
facet normal 0.0000 -19.9300 0.0000
    outer loop
        vertex 3.2800 -0.1000 -8.2000
        vertex 2.2800 -0.1000 -9.1600
        vertex 4.5600 -0.1000 -10.1600
    endloop
endfacet
facet normal 0.0000 -32.1800 0.0000
    outer loop
        vertex 2.2800 -0.1000 -9.1600
        vertex 3.2800 -0.1000 -8.2000
        vertex 0.0000 -0.1000 -6.2000
    endloop
endfacet
facet normal 0.0000 -23.9400 0.0000
    outer loop
        vertex 0.0000 -0.1000 -6.2000
        vertex 0.0000 -0.1000 -7.8800
        vertex 2.2800 -0.1000 -9.1600
    endloop
endfacet
facet normal 0.0000 -81.8700 0.0000
    outer loop
        vertex 4.6400 -0.1000 7.2800
        vertex 4.9200 -0.1000 10.1200
        vertex 0.0000 -0.1000 7.0000
    endloop
endfacet
facet normal 0.0000 -12.4400 0.0000
    outer loop
        vertex 0.0000 -0.1000 7.0000
        vertex 0.4800 -0.1000 6.6000
        vertex 4.6400 -0.1000 7.2800
    endloop
endfacet
facet normal 0.0000 -61.2500 0.0000
    outer loop
        vertex 3.8800 -0.1000 4.8000
        vertex 4.6400 -0.1000 7.2800
        vertex 0.4800 -0.1000 6.6000
    endloop
endfacet
facet normal 0.0000 -23.8500 0.0000
    outer loop
        vertex 0.4800 -0.1000 6.6000
        vertex 1.7600 -0.1000 4.8000
        vertex 3.8800 -0.1000 4.8000
    endloop
endfacet
facet normal 0.0000 -25.9700 0.0000
    outer loop
        vertex 3.8800 -0.1000 4.8000
        vertex 1.7600 -0.1000 4.8000
        vertex 2.8800 -0.1000 2.8400
    endloop
endfacet
facet normal 0.0000 -30.7000 0.0000
    outer loop
        vertex 16.4000 -0.1000 11.6000
        vertex 12.0000 -0.1000 10.1200
        vertex 15.2000 -0.1000 10.0800
    endloop
endfacet
facet normal 0.0000 -8.3000 0.0000
    outer loop
        vertex 15.2000 -0.1000 10.0800
        vertex 16.8000 -0.1000 11.0000
        vertex 16.4000 -0.1000 11.6000
    endloop
endfacet
facet normal 0.0000 -19.1000 0.0000
    outer loop
        vertex 15.6000 -0.1000 8.4000
        vertex 16.8000 -0.1000 11.0000
        vertex 15.2000 -0.1000 10.0800
    endloop
endfacet
facet normal 0.0000 -20.5800 0.0000
    outer loop
        vertex 15.2000 -0.1000 10.0800
        vertex 13.8400 -0.1000 7.5600
        vertex 15.6000 -0.1000 8.4000
    endloop
endfacet
facet normal 0.0000 -22.4000 0.0000
    outer loop
        vertex 14.0000 -0.1000 5.6000
        vertex 15.6000 -0.1000 8.4000
        vertex 13.8400 -0.1000 7.5600
    endloop
endfacet
facet normal 0.0000 -20.9400 0.0000
    outer loop
        vertex 13.8400 -0.1000 7.5600
        vertex 12.3200 -0.1000 5.2400
        vertex 14.0000 -0.1000 5.6000
    endloop
endfacet
facet normal 0.0000 -20.7000 0.0000
    outer loop
        vertex 12.0000 -0.1000 3.2000
        vertex 14.0000 -0.1000 5.6000
        vertex 12.3200 -0.1000 5.2400
    endloop
endfacet
facet normal 0.0000 -21.0200 0.0000
    outer loop
        vertex 12.3200 -0.1000 5.2400
        vertex 10.3200 -0.1000 3.0000
        vertex 12.0000 -0.1000 3.2000
    endloop
endfacet
facet normal 0.0000 -18.2500 0.0000
    outer loop
        vertex 9.8000 -0.1000 1.2000
        vertex 12.0000 -0.1000 3.2000
        vertex 10.3200 -0.1000 3.0000
    endloop
endfacet
facet normal 0.0000 -12.8400 0.0000
    outer loop
        vertex 10.3200 -0.1000 3.0000
        vertex 8.5200 -0.1000 0.7200
        vertex 9.8000 -0.1000 1.2000
    endloop
endfacet
facet normal 0.0000 -13.9800 0.0000
    outer loop
        vertex 10.3200 -0.1000 3.0000
        vertex 7.7600 -0.1000 1.0000
        vertex 8.5200 -0.1000 0.7200
    endloop
endfacet
facet normal 0.0000 -4.7600 0.0000
    outer loop
        vertex 9.8000 -0.1000 1.2000
        vertex 8.5200 -0.1000 0.7200
        vertex 9.0400 -0.1000 0.3200
    endloop
endfacet
facet normal 0.0000 -7.2500 0.0000
    outer loop
        vertex 9.0400 -0.1000 0.3200
        vertex 10.6000 -0.1000 0.6000
        vertex 9.8000 -0.1000 1.2000
    endloop
endfacet
facet normal 0.0000 -3.9000 0.0000
    outer loop
        vertex 10.6000 -0.1000 0.2000
        vertex 10.6000 -0.1000 0.6000
        vertex 9.0400 -0.1000 0.3200
    endloop
endfacet
facet normal 0.0000 -6.3600 0.0000
    outer loop
        vertex 9.0400 -0.1000 0.3200
        vertex 8.8800 -0.1000 -0.3200
        vertex 10.6000 -0.1000 0.2000
    endloop
endfacet
facet normal 0.0000 -16.1000 0.0000
    outer loop
        vertex 9.6000 -0.1000 -1.6000
        vertex 10.6000 -0.1000 0.2000
        vertex 8.8800 -0.1000 -0.3200
    endloop
endfacet
facet normal 0.0000 -22.3400 0.0000
    outer loop
        vertex 8.8800 -0.1000 -0.3200
        vertex 7.2800 -0.1000 -2.4400
        vertex 9.6000 -0.1000 -1.6000
    endloop
endfacet
facet normal 0.0000 -24.3000 0.0000
    outer loop
        vertex 7.6000 -0.1000 -4.0000
        vertex 9.6000 -0.1000 -1.6000
        vertex 7.2800 -0.1000 -2.4400
    endloop
endfacet
facet normal 0.0000 -20.6900 0.0000
    outer loop
        vertex 7.2800 -0.1000 -2.4400
        vertex 5.5600 -0.1000 -4.4000
        vertex 7.6000 -0.1000 -4.0000
    endloop
endfacet
facet normal 0.0000 -8.2000 0.0000
    outer loop
        vertex 7.6000 -0.1000 -4.0000
        vertex 5.5600 -0.1000 -4.4000
        vertex 6.8000 -0.1000 -4.8000
    endloop
endfacet
facet normal 0.0000 -21.9100 0.0000
    outer loop
        vertex 6.8000 -0.1000 -4.8000
        vertex 5.5600 -0.1000 -4.4000
        vertex 5.6000 -0.1000 -7.2400
    endloop
endfacet
facet normal 0.0000 -39.0000 0.0000
    outer loop
        vertex 5.6000 -0.1000 -7.2400
        vertex 6.8000 -0.1000 -10.0000
        vertex 6.8000 -0.1000 -4.8000
    endloop
endfacet
facet normal 0.0000 -19.5600 0.0000
    outer loop
        vertex 6.8000 -0.1000 -10.0000
        vertex 5.6000 -0.1000 -7.2400
        vertex 5.4400 -0.1000 -9.4800
    endloop
endfacet
facet normal 0.0000 -11.5000 0.0000
    outer loop
        vertex 5.4400 -0.1000 -9.4800
        vertex 6.4000 -0.1000 -11.2000
        vertex 6.8000 -0.1000 -10.0000
    endloop
endfacet
facet normal 0.0000 -6.5600 0.0000
    outer loop
        vertex 6.4000 -0.1000 -11.2000
        vertex 5.4400 -0.1000 -9.4800
        vertex 5.1200 -0.1000 -10.0000
    endloop
endfacet
facet normal 0.0000 -9.2000 0.0000
    outer loop
        vertex 5.1200 -0.1000 -10.0000
        vertex 5.6000 -0.1000 -11.6000
        vertex 6.4000 -0.1000 -11.2000
    endloop
endfacet
facet normal 0.0000 -6.0800 0.0000
    outer loop
        vertex 5.6000 -0.1000 -11.6000
        vertex 5.1200 -0.1000 -10.0000
        vertex 4.5600 -0.1000 -10.1600
    endloop
endfacet
facet normal 0.0000 -10.5000 0.0000
    outer loop
        vertex 4.5600 -0.1000 -10.1600
        vertex 4.0000 -0.1000 -11.0000
        vertex 5.6000 -0.1000 -11.6000
    endloop
endfacet
facet normal 0.0000 -15.4700 0.0000
    outer loop
        vertex 4.0000 -0.1000 -11.0000
        vertex 4.5600 -0.1000 -10.1600
        vertex 2.2800 -0.1000 -9.1600
    endloop
endfacet
facet normal 0.0000 -24.5000 0.0000
    outer loop
        vertex 2.2800 -0.1000 -9.1600
        vertex 0.0000 -0.1000 -9.0000
        vertex 4.0000 -0.1000 -11.0000
    endloop
endfacet
facet normal 0.0000 -15.9600 0.0000
    outer loop
        vertex 0.0000 -0.1000 -7.8800
        vertex 0.0000 -0.1000 -9.0000
        vertex 2.2800 -0.1000 -9.1600
    endloop
endfacet
facet normal 0.0000 -91.0200 0.0000
    outer loop
        vertex -16.4000 -0.1000 11.6000
        vertex -4.9200 -0.1000 10.1200
        vertex 4.9200 -0.1000 10.1200
    endloop
endfacet
facet normal 0.0000 -303.4000 0.0000
    outer loop
        vertex 4.9200 -0.1000 10.1200
        vertex 16.4000 -0.1000 11.6000
        vertex -16.4000 -0.1000 11.6000
    endloop
endfacet
facet normal 0.0000 -191.8800 0.0000
    outer loop
        vertex 4.9200 -0.1000 10.1200
        vertex -4.9200 -0.1000 10.1200
        vertex 0.0000 -0.1000 7.0000
    endloop
endfacet
facet normal 0.0000 -32.1900 0.0000
    outer loop
        vertex -16.4000 -0.1000 11.6000
        vertex -12.0000 -0.1000 10.1200
        vertex -8.5200 -0.1000 10.1200
    endloop
endfacet
facet normal 0.0000 -33.3000 0.0000
    outer loop
        vertex -16.4000 -0.1000 11.6000
        vertex -8.5200 -0.1000 10.1200
        vertex -4.9200 -0.1000 10.1200
    endloop
endfacet
facet normal 0.0000 -33.3000 0.0000
    outer loop
        vertex 16.4000 -0.1000 11.6000
        vertex 4.9200 -0.1000 10.1200
        vertex 8.5200 -0.1000 10.1200
    endloop
endfacet
facet normal 0.0000 -32.1900 0.0000
    outer loop
        vertex 16.4000 -0.1000 11.6000
        vertex 8.5200 -0.1000 10.1200
        vertex 12.0000 -0.1000 10.1200
    endloop
endfacet
facet normal -0.3750 0.0000 0.5000
    outer loop
        vertex -10.6000 0.0000 0.6000
        vertex -10.6000 -0.1000 0.6000
        vertex -9.8000 -0.1000 1.2000
    endloop
endfacet
facet normal -0.3750 0.0000 0.5000
    outer loop
        vertex -9.8000 -0.1000 1.2000
        vertex -9.8000 0.0000 1.2000
        vertex -10.6000 0.0000 0.6000
    endloop
endfacet
facet normal -0.2500 0.0000 0.0000
    outer loop
        vertex -10.6000 0.0000 0.2000
        vertex -10.6000 -0.1000 0.2000
        vertex -10.6000 -0.1000 0.6000
    endloop
endfacet
facet normal -0.2500 0.0000 0.0000
    outer loop
        vertex -10.6000 -0.1000 0.6000
        vertex -10.6000 0.0000 0.6000
        vertex -10.6000 0.0000 0.2000
    endloop
endfacet
facet normal -1.1250 0.0000 -0.6250
    outer loop
        vertex -9.6000 0.0000 -1.6000
        vertex -9.6000 -0.1000 -1.6000
        vertex -10.6000 -0.1000 0.2000
    endloop
endfacet
facet normal -1.1250 0.0000 -0.6250
    outer loop
        vertex -10.6000 -0.1000 0.2000
        vertex -10.6000 0.0000 0.2000
        vertex -9.6000 0.0000 -1.6000
    endloop
endfacet
facet normal -1.5000 0.0000 -1.2500
    outer loop
        vertex -7.6000 0.0000 -4.0000
        vertex -7.6000 -0.1000 -4.0000
        vertex -9.6000 -0.1000 -1.6000
    endloop
endfacet
facet normal -1.5000 0.0000 -1.2500
    outer loop
        vertex -9.6000 -0.1000 -1.6000
        vertex -9.6000 0.0000 -1.6000
        vertex -7.6000 0.0000 -4.0000
    endloop
endfacet
facet normal -0.5000 0.0000 -0.5000
    outer loop
        vertex -6.8000 0.0000 -4.8000
        vertex -6.8000 -0.1000 -4.8000
        vertex -7.6000 -0.1000 -4.0000
    endloop
endfacet
facet normal -0.5000 0.0000 -0.5000
    outer loop
        vertex -7.6000 -0.1000 -4.0000
        vertex -7.6000 0.0000 -4.0000
        vertex -6.8000 0.0000 -4.8000
    endloop
endfacet
facet normal -3.2500 0.0000 0.0000
    outer loop
        vertex -6.8000 0.0000 -10.0000
        vertex -6.8000 -0.1000 -10.0000
        vertex -6.8000 -0.1000 -4.8000
    endloop
endfacet
facet normal -3.2500 0.0000 0.0000
    outer loop
        vertex -6.8000 -0.1000 -4.8000
        vertex -6.8000 0.0000 -4.8000
        vertex -6.8000 0.0000 -10.0000
    endloop
endfacet
facet normal -0.7500 0.0000 -0.2500
    outer loop
        vertex -6.4000 0.0000 -11.2000
        vertex -6.4000 -0.1000 -11.2000
        vertex -6.8000 -0.1000 -10.0000
    endloop
endfacet
facet normal -0.7500 0.0000 -0.2500
    outer loop
        vertex -6.8000 -0.1000 -10.0000
        vertex -6.8000 0.0000 -10.0000
        vertex -6.4000 0.0000 -11.2000
    endloop
endfacet
facet normal -0.2500 0.0000 -0.5000
    outer loop
        vertex -5.6000 0.0000 -11.6000
        vertex -5.6000 -0.1000 -11.6000
        vertex -6.4000 -0.1000 -11.2000
    endloop
endfacet
facet normal -0.2500 0.0000 -0.5000
    outer loop
        vertex -6.4000 -0.1000 -11.2000
        vertex -6.4000 0.0000 -11.2000
        vertex -5.6000 0.0000 -11.6000
    endloop
endfacet
facet normal 0.3750 0.0000 -1.0000
    outer loop
        vertex -4.0000 0.0000 -11.0000
        vertex -4.0000 -0.1000 -11.0000
        vertex -5.6000 -0.1000 -11.6000
    endloop
endfacet
facet normal 0.3750 0.0000 -1.0000
    outer loop
        vertex -5.6000 -0.1000 -11.6000
        vertex -5.6000 0.0000 -11.6000
        vertex -4.0000 0.0000 -11.0000
    endloop
endfacet
facet normal 1.2500 0.0000 -2.5000
    outer loop
        vertex 0.0000 0.0000 -9.0000
        vertex 0.0000 -0.1000 -9.0000
        vertex -4.0000 -0.1000 -11.0000
    endloop
endfacet
facet normal 1.2500 0.0000 -2.5000
    outer loop
        vertex -4.0000 -0.1000 -11.0000
        vertex -4.0000 0.0000 -11.0000
        vertex 0.0000 0.0000 -9.0000
    endloop
endfacet
facet normal -1.2500 0.0000 -2.5000
    outer loop
        vertex 4.0000 0.0000 -11.0000
        vertex 4.0000 -0.1000 -11.0000
        vertex 0.0000 -0.1000 -9.0000
    endloop
endfacet
facet normal -1.2500 0.0000 -2.5000
    outer loop
        vertex 0.0000 -0.1000 -9.0000
        vertex 0.0000 0.0000 -9.0000
        vertex 4.0000 0.0000 -11.0000
    endloop
endfacet
facet normal -0.3750 0.0000 -1.0000
    outer loop
        vertex 5.6000 0.0000 -11.6000
        vertex 5.6000 -0.1000 -11.6000
        vertex 4.0000 -0.1000 -11.0000
    endloop
endfacet
facet normal -0.3750 0.0000 -1.0000
    outer loop
        vertex 4.0000 -0.1000 -11.0000
        vertex 4.0000 0.0000 -11.0000
        vertex 5.6000 0.0000 -11.6000
    endloop
endfacet
facet normal 0.2500 0.0000 -0.5000
    outer loop
        vertex 6.4000 0.0000 -11.2000
        vertex 6.4000 -0.1000 -11.2000
        vertex 5.6000 -0.1000 -11.6000
    endloop
endfacet
facet normal 0.2500 0.0000 -0.5000
    outer loop
        vertex 5.6000 -0.1000 -11.6000
        vertex 5.6000 0.0000 -11.6000
        vertex 6.4000 0.0000 -11.2000
    endloop
endfacet
facet normal 0.7500 0.0000 -0.2500
    outer loop
        vertex 6.8000 0.0000 -10.0000
        vertex 6.8000 -0.1000 -10.0000
        vertex 6.4000 -0.1000 -11.2000
    endloop
endfacet
facet normal 0.7500 0.0000 -0.2500
    outer loop
        vertex 6.4000 -0.1000 -11.2000
        vertex 6.4000 0.0000 -11.2000
        vertex 6.8000 0.0000 -10.0000
    endloop
endfacet
facet normal 3.2500 0.0000 0.0000
    outer loop
        vertex 6.8000 0.0000 -4.8000
        vertex 6.8000 -0.1000 -4.8000
        vertex 6.8000 -0.1000 -10.0000
    endloop
endfacet
facet normal 3.2500 0.0000 0.0000
    outer loop
        vertex 6.8000 -0.1000 -10.0000
        vertex 6.8000 0.0000 -10.0000
        vertex 6.8000 0.0000 -4.8000
    endloop
endfacet
facet normal 0.5000 0.0000 -0.5000
    outer loop
        vertex 7.6000 0.0000 -4.0000
        vertex 7.6000 -0.1000 -4.0000
        vertex 6.8000 -0.1000 -4.8000
    endloop
endfacet
facet normal 0.5000 0.0000 -0.5000
    outer loop
        vertex 6.8000 -0.1000 -4.8000
        vertex 6.8000 0.0000 -4.8000
        vertex 7.6000 0.0000 -4.0000
    endloop
endfacet
facet normal 1.5000 0.0000 -1.2500
    outer loop
        vertex 9.6000 0.0000 -1.6000
        vertex 9.6000 -0.1000 -1.6000
        vertex 7.6000 -0.1000 -4.0000
    endloop
endfacet
facet normal 1.5000 0.0000 -1.2500
    outer loop
        vertex 7.6000 -0.1000 -4.0000
        vertex 7.6000 0.0000 -4.0000
        vertex 9.6000 0.0000 -1.6000
    endloop
endfacet
facet normal 1.1250 0.0000 -0.6250
    outer loop
        vertex 10.6000 0.0000 0.2000
        vertex 10.6000 -0.1000 0.2000
        vertex 9.6000 -0.1000 -1.6000
    endloop
endfacet
facet normal 1.1250 0.0000 -0.6250
    outer loop
        vertex 9.6000 -0.1000 -1.6000
        vertex 9.6000 0.0000 -1.6000
        vertex 10.6000 0.0000 0.2000
    endloop
endfacet
facet normal 0.2500 0.0000 0.0000
    outer loop
        vertex 10.6000 0.0000 0.6000
        vertex 10.6000 -0.1000 0.6000
        vertex 10.6000 -0.1000 0.2000
    endloop
endfacet
facet normal 0.2500 0.0000 0.0000
    outer loop
        vertex 10.6000 -0.1000 0.2000
        vertex 10.6000 0.0000 0.2000
        vertex 10.6000 0.0000 0.6000
    endloop
endfacet
facet normal 0.3750 0.0000 0.5000
    outer loop
        vertex 9.8000 0.0000 1.2000
        vertex 9.8000 -0.1000 1.2000
        vertex 10.6000 -0.1000 0.6000
    endloop
endfacet
facet normal 0.3750 0.0000 0.5000
    outer loop
        vertex 10.6000 -0.1000 0.6000
        vertex 10.6000 0.0000 0.6000
        vertex 9.8000 0.0000 1.2000
    endloop
endfacet
facet normal 1.2500 0.0000 -1.3750
    outer loop
        vertex 12.0000 0.0000 3.2000
        vertex 12.0000 -0.1000 3.2000
        vertex 9.8000 -0.1000 1.2000
    endloop
endfacet
facet normal 1.2500 0.0000 -1.3750
    outer loop
        vertex 9.8000 -0.1000 1.2000
        vertex 9.8000 0.0000 1.2000
        vertex 12.0000 0.0000 3.2000
    endloop
endfacet
facet normal 1.5000 0.0000 -1.2500
    outer loop
        vertex 14.0000 0.0000 5.6000
        vertex 14.0000 -0.1000 5.6000
        vertex 12.0000 -0.1000 3.2000
    endloop
endfacet
facet normal 1.5000 0.0000 -1.2500
    outer loop
        vertex 12.0000 -0.1000 3.2000
        vertex 12.0000 0.0000 3.2000
        vertex 14.0000 0.0000 5.6000
    endloop
endfacet
facet normal 1.7500 0.0000 -1.0000
    outer loop
        vertex 15.6000 0.0000 8.4000
        vertex 15.6000 -0.1000 8.4000
        vertex 14.0000 -0.1000 5.6000
    endloop
endfacet
facet normal 1.7500 0.0000 -1.0000
    outer loop
        vertex 14.0000 -0.1000 5.6000
        vertex 14.0000 0.0000 5.6000
        vertex 15.6000 0.0000 8.4000
    endloop
endfacet
facet normal 1.6250 0.0000 -0.7500
    outer loop
        vertex 16.8000 0.0000 11.0000
        vertex 16.8000 -0.1000 11.0000
        vertex 15.6000 -0.1000 8.4000
    endloop
endfacet
facet normal 1.6250 0.0000 -0.7500
    outer loop
        vertex 15.6000 -0.1000 8.4000
        vertex 15.6000 0.0000 8.4000
        vertex 16.8000 0.0000 11.0000
    endloop
endfacet
facet normal 0.3750 0.0000 0.2500
    outer loop
        vertex 16.4000 0.0000 11.6000
        vertex 16.4000 -0.1000 11.6000
        vertex 16.8000 -0.1000 11.0000
    endloop
endfacet
facet normal 0.3750 0.0000 0.2500
    outer loop
        vertex 16.8000 -0.1000 11.0000
        vertex 16.8000 0.0000 11.0000
        vertex 16.4000 0.0000 11.6000
    endloop
endfacet
facet normal 0.0000 0.0000 20.5000
    outer loop
        vertex -16.4000 0.0000 11.6000
        vertex -16.4000 -0.1000 11.6000
        vertex 16.4000 -0.1000 11.6000
    endloop
endfacet
facet normal 0.0000 0.0000 20.5000
    outer loop
        vertex 16.4000 -0.1000 11.6000
        vertex 16.4000 0.0000 11.6000
        vertex -16.4000 0.0000 11.6000
    endloop
endfacet
facet normal -0.3750 0.0000 0.2500
    outer loop
        vertex -16.8000 0.0000 11.0000
        vertex -16.8000 -0.1000 11.0000
        vertex -16.4000 -0.1000 11.6000
    endloop
endfacet
facet normal -0.3750 0.0000 0.2500
    outer loop
        vertex -16.4000 -0.1000 11.6000
        vertex -16.4000 0.0000 11.6000
        vertex -16.8000 0.0000 11.0000
    endloop
endfacet
facet normal -1.6250 0.0000 -0.7500
    outer loop
        vertex -15.6000 0.0000 8.4000
        vertex -15.6000 -0.1000 8.4000
        vertex -16.8000 -0.1000 11.0000
    endloop
endfacet
facet normal -1.6250 0.0000 -0.7500
    outer loop
        vertex -16.8000 -0.1000 11.0000
        vertex -16.8000 0.0000 11.0000
        vertex -15.6000 0.0000 8.4000
    endloop
endfacet
facet normal -1.7500 0.0000 -1.0000
    outer loop
        vertex -14.0000 0.0000 5.6000
        vertex -14.0000 -0.1000 5.6000
        vertex -15.6000 -0.1000 8.4000
    endloop
endfacet
facet normal -1.7500 0.0000 -1.0000
    outer loop
        vertex -15.6000 -0.1000 8.4000
        vertex -15.6000 0.0000 8.4000
        vertex -14.0000 0.0000 5.6000
    endloop
endfacet
facet normal -1.5000 0.0000 -1.2500
    outer loop
        vertex -12.0000 0.0000 3.2000
        vertex -12.0000 -0.1000 3.2000
        vertex -14.0000 -0.1000 5.6000
    endloop
endfacet
facet normal -1.5000 0.0000 -1.2500
    outer loop
        vertex -14.0000 -0.1000 5.6000
        vertex -14.0000 0.0000 5.6000
        vertex -12.0000 0.0000 3.2000
    endloop
endfacet
facet normal -1.2500 0.0000 -1.3750
    outer loop
        vertex -9.8000 0.0000 1.2000
        vertex -9.8000 -0.1000 1.2000
        vertex -12.0000 -0.1000 3.2000
    endloop
endfacet
facet normal -1.2500 0.0000 -1.3750
    outer loop
        vertex -12.0000 -0.1000 3.2000
        vertex -12.0000 0.0000 3.2000
        vertex -9.8000 0.0000 1.2000
    endloop
endfacet
endsolid GiantLegoRocks
