solid GiantLegoRocks
facet normal 0.0000 -525.0000 0.0000
    outer loop
        vertex -7.0000 0.0000 3.0000
        vertex -7.0000 0.0000 -3.0000
        vertex 7.0000 0.0000 -3.0000
    endloop
endfacet
facet normal 0.0000 -525.0000 0.0000
    outer loop
        vertex 7.0000 0.0000 -3.0000
        vertex 7.0000 0.0000 3.0000
        vertex -7.0000 0.0000 3.0000
    endloop
endfacet
facet normal -3.7500 0.0000 0.0000
    outer loop
        vertex 7.0000 0.0000 3.0000
        vertex 7.0000 0.0000 -3.0000
        vertex 7.0000 -0.1000 -3.0000
    endloop
endfacet
facet normal -3.7500 0.0000 0.0000
    outer loop
        vertex 7.0000 -0.1000 -3.0000
        vertex 7.0000 -0.1000 3.0000
        vertex 7.0000 0.0000 3.0000
    endloop
endfacet
facet normal 3.7500 0.0000 0.0000
    outer loop
        vertex -7.0000 -0.1000 3.0000
        vertex -7.0000 -0.1000 -3.0000
        vertex -7.0000 0.0000 -3.0000
    endloop
endfacet
facet normal 3.7500 0.0000 0.0000
    outer loop
        vertex -7.0000 0.0000 -3.0000
        vertex -7.0000 0.0000 3.0000
        vertex -7.0000 -0.1000 3.0000
    endloop
endfacet
facet normal 0.0000 0.0000 -8.7500
    outer loop
        vertex 7.0000 -0.1000 3.0000
        vertex -7.0000 -0.1000 3.0000
        vertex -7.0000 0.0000 3.0000
    endloop
endfacet
facet normal 0.0000 0.0000 -8.7500
    outer loop
        vertex -7.0000 0.0000 3.0000
        vertex 7.0000 0.0000 3.0000
        vertex 7.0000 -0.1000 3.0000
    endloop
endfacet
facet normal 0.0000 0.0000 8.7500
    outer loop
        vertex 7.0000 0.0000 -3.0000
        vertex -7.0000 0.0000 -3.0000
        vertex -7.0000 -0.1000 -3.0000
    endloop
endfacet
facet normal 0.0000 0.0000 8.7500
    outer loop
        vertex -7.0000 -0.1000 -3.0000
        vertex 7.0000 -0.1000 -3.0000
        vertex 7.0000 0.0000 -3.0000
    endloop
endfacet
facet normal 0.0000 -20.8691 0.0000
    outer loop
        vertex -5.1880 -0.1000 -0.9600
        vertex -4.7933 -0.1000 -0.9600
        vertex -4.7933 -0.1000 -0.1039
    endloop
endfacet
facet normal 0.0000 -47.3151 0.0000
    outer loop
        vertex -5.1880 -0.1000 -0.9600
        vertex -4.7933 -0.1000 -0.1039
        vertex -5.1880 -0.1000 0.9940
    endloop
endfacet
facet normal 0.0000 -18.7480 0.0000
    outer loop
        vertex -5.1880 -0.1000 0.9940
        vertex -4.7933 -0.1000 0.2260
        vertex -4.7933 -0.1000 0.9940
    endloop
endfacet
facet normal 0.0000 -8.1980 0.0000
    outer loop
        vertex -4.7933 -0.1000 0.2260
        vertex -5.1880 -0.1000 0.9940
        vertex -4.7933 -0.1000 -0.1039
    endloop
endfacet
facet normal 0.0000 -15.8263 0.0000
    outer loop
        vertex -4.7933 -0.1000 -0.1039
        vertex -4.0200 -0.1000 -0.1039
        vertex -4.7933 -0.1000 0.2260
    endloop
endfacet
facet normal 0.0000 -20.8357 0.0000
    outer loop
        vertex -4.0200 -0.1000 -0.9600
        vertex -3.6260 -0.1000 -0.9600
        vertex -4.0200 -0.1000 -0.1039
    endloop
endfacet
facet normal 0.0000 -47.2387 0.0000
    outer loop
        vertex -4.0200 -0.1000 -0.1039
        vertex -3.6260 -0.1000 -0.9600
        vertex -3.6260 -0.1000 0.9940
    endloop
endfacet
facet normal 0.0000 -18.7180 0.0000
    outer loop
        vertex -4.0200 -0.1000 0.2260
        vertex -3.6260 -0.1000 0.9940
        vertex -4.0200 -0.1000 0.9940
    endloop
endfacet
facet normal 0.0000 -8.1851 0.0000
    outer loop
        vertex -3.6260 -0.1000 0.9940
        vertex -4.0200 -0.1000 0.2260
        vertex -4.0200 -0.1000 -0.1039
    endloop
endfacet
facet normal 0.0000 -15.8263 0.0000
    outer loop
        vertex -4.0200 -0.1000 -0.1039
        vertex -4.0200 -0.1000 0.2260
        vertex -4.7933 -0.1000 0.2260
    endloop
endfacet
facet normal 0.0000 -11.5971 0.0000
    outer loop
        vertex -3.4161 -0.1000 -0.9600
        vertex -2.9974 -0.1000 -0.9600
        vertex -2.8360 -0.1000 -0.5160
    endloop
endfacet
facet normal 0.0000 -47.9401 0.0000
    outer loop
        vertex -2.7146 -0.1000 -0.1860
        vertex -2.6547 -0.1000 0.9940
        vertex -3.4161 -0.1000 -0.9600
    endloop
endfacet
facet normal 0.0000 -10.9899 0.0000
    outer loop
        vertex -2.1814 -0.1000 -0.1860
        vertex -2.7146 -0.1000 -0.1860
        vertex -2.8360 -0.1000 -0.5160
    endloop
endfacet
facet normal 0.0000 -16.6107 0.0000
    outer loop
        vertex -2.6547 -0.1000 0.9940
        vertex -2.7146 -0.1000 -0.1860
        vertex -2.4507 -0.1000 0.5385
    endloop
endfacet
facet normal 0.0000 -8.6449 0.0000
    outer loop
        vertex -2.7146 -0.1000 -0.1860
        vertex -3.4161 -0.1000 -0.9600
        vertex -2.8360 -0.1000 -0.5160
    endloop
endfacet
facet normal 0.0000 -11.8850 0.0000
    outer loop
        vertex -2.0547 -0.1000 -0.5160
        vertex -1.8840 -0.1000 -0.9600
        vertex -1.4547 -0.1000 -0.9600
    endloop
endfacet
facet normal 0.0000 -8.8988 0.0000
    outer loop
        vertex -2.0547 -0.1000 -0.5160
        vertex -1.4547 -0.1000 -0.9600
        vertex -2.1814 -0.1000 -0.1860
    endloop
endfacet
facet normal 0.0000 -17.1734 0.0000
    outer loop
        vertex -2.4507 -0.1000 0.5385
        vertex -2.1814 -0.1000 -0.1860
        vertex -2.2373 -0.1000 0.9940
    endloop
endfacet
facet normal 0.0000 -49.9437 0.0000
    outer loop
        vertex -2.2373 -0.1000 0.9940
        vertex -2.1814 -0.1000 -0.1860
        vertex -1.4547 -0.1000 -0.9600
    endloop
endfacet
facet normal 0.0000 -11.8559 0.0000
    outer loop
        vertex -2.4507 -0.1000 0.5385
        vertex -2.2373 -0.1000 0.9940
        vertex -2.6547 -0.1000 0.9940
    endloop
endfacet
facet normal 0.0000 -15.9861 0.0000
    outer loop
        vertex -2.0547 -0.1000 -0.5160
        vertex -2.1814 -0.1000 -0.1860
        vertex -2.8360 -0.1000 -0.5160
    endloop
endfacet
facet normal 0.0000 -6.1596 0.0000
    outer loop
        vertex -0.2863 -0.1000 -0.6880
        vertex -0.3040 -0.1000 -0.9600
        vertex 0.0520 -0.1000 -0.9600
    endloop
endfacet
facet normal 0.0000 -6.3572 0.0000
    outer loop
        vertex -0.1444 -0.1000 -0.1334
        vertex -0.2331 -0.1000 -0.4124
        vertex 0.1381 -0.1000 -0.3727
    endloop
endfacet
facet normal 0.0000 -6.2905 0.0000
    outer loop
        vertex -0.2863 -0.1000 -0.6880
        vertex 0.0736 -0.1000 -0.6838
        vertex -0.2331 -0.1000 -0.4124
    endloop
endfacet
facet normal 0.0000 -18.3449 0.0000
    outer loop
        vertex 0.2819 -0.1000 0.6200
        vertex -0.5700 -0.1000 0.9681
        vertex -0.5700 -0.1000 0.6200
    endloop
endfacet
facet normal 0.0000 -6.0936 0.0000
    outer loop
        vertex 0.2440 -0.1000 -0.0531
        vertex -0.0261 -0.1000 0.1376
        vertex -0.1444 -0.1000 -0.1334
    endloop
endfacet
facet normal 0.0000 -6.3127 0.0000
    outer loop
        vertex 0.0520 -0.1000 -0.9600
        vertex 0.0736 -0.1000 -0.6838
        vertex -0.2863 -0.1000 -0.6880
    endloop
endfacet
facet normal 0.0000 -7.3074 0.0000
    outer loop
        vertex 0.2440 -0.1000 -0.0531
        vertex -0.1444 -0.1000 -0.1334
        vertex 0.1381 -0.1000 -0.3727
    endloop
endfacet
facet normal 0.0000 -5.6509 0.0000
    outer loop
        vertex 0.3887 -0.1000 0.2481
        vertex 0.1160 -0.1000 0.3887
        vertex -0.0261 -0.1000 0.1376
    endloop
endfacet
facet normal 0.0000 -6.9000 0.0000
    outer loop
        vertex 0.3887 -0.1000 0.2481
        vertex -0.0261 -0.1000 0.1376
        vertex 0.2440 -0.1000 -0.0531
    endloop
endfacet
facet normal 0.0000 -5.5250 0.0000
    outer loop
        vertex 0.1160 -0.1000 0.3887
        vertex 0.3887 -0.1000 0.2481
        vertex 0.2819 -0.1000 0.6200
    endloop
endfacet
facet normal 0.0000 -7.3921 0.0000
    outer loop
        vertex 0.7121 -0.1000 0.6961
        vertex 0.7121 -0.1000 0.9681
        vertex 0.2819 -0.1000 0.6200
    endloop
endfacet
facet normal 0.0000 -4.4968 0.0000
    outer loop
        vertex 0.7121 -0.1000 0.6961
        vertex 0.2819 -0.1000 0.6200
        vertex 0.5517 -0.1000 0.5060
    endloop
endfacet
facet normal 0.0000 -5.6319 0.0000
    outer loop
        vertex 0.3887 -0.1000 0.2481
        vertex 0.5517 -0.1000 0.5060
        vertex 0.2819 -0.1000 0.6200
    endloop
endfacet
facet normal 0.0000 -27.4835 0.0000
    outer loop
        vertex 0.2819 -0.1000 0.6200
        vertex 0.7121 -0.1000 0.9681
        vertex -0.5700 -0.1000 0.9681
    endloop
endfacet
facet normal 0.0000 -7.1408 0.0000
    outer loop
        vertex 0.1381 -0.1000 -0.3727
        vertex -0.2331 -0.1000 -0.4124
        vertex 0.0736 -0.1000 -0.6838
    endloop
endfacet
facet normal 0.0000 -8.5322 0.0000
    outer loop
        vertex 1.3908 -0.1000 -0.6308
        vertex 0.9573 -0.1000 -0.5073
        vertex 1.1387 -0.1000 -0.8719
    endloop
endfacet
facet normal 0.0000 -4.0382 0.0000
    outer loop
        vertex 1.3908 -0.1000 -0.6308
        vertex 1.3201 -0.1000 -0.4675
        vertex 0.9573 -0.1000 -0.5073
    endloop
endfacet
facet normal 0.0000 -3.2270 0.0000
    outer loop
        vertex 1.3908 -0.1000 -0.6308
        vertex 1.5096 -0.1000 -0.9940
        vertex 1.5425 -0.1000 -0.6840
    endloop
endfacet
facet normal 0.0000 -7.5892 0.0000
    outer loop
        vertex 1.3908 -0.1000 -0.6308
        vertex 1.1387 -0.1000 -0.8719
        vertex 1.5096 -0.1000 -0.9940
    endloop
endfacet
facet normal 0.0000 -7.7024 0.0000
    outer loop
        vertex 1.0853 -0.1000 -0.1221
        vertex 1.4788 -0.1000 -0.3000
        vertex 1.3628 -0.1000 0.0627
    endloop
endfacet
facet normal 0.0000 -6.2760 0.0000
    outer loop
        vertex 1.2881 -0.1000 0.3410
        vertex 0.9642 -0.1000 0.6093
        vertex 0.9201 -0.1000 0.3410
    endloop
endfacet
facet normal 0.0000 -5.2962 0.0000
    outer loop
        vertex 1.3568 -0.1000 0.6099
        vertex 1.0967 -0.1000 0.8201
        vertex 0.9642 -0.1000 0.6093
    endloop
endfacet
facet normal 0.0000 -6.0518 0.0000
    outer loop
        vertex 0.9201 -0.1000 0.3410
        vertex 0.9613 -0.1000 0.0827
        vertex 1.2881 -0.1000 0.3410
    endloop
endfacet
facet normal 0.0000 -6.9787 0.0000
    outer loop
        vertex 1.3628 -0.1000 0.0627
        vertex 1.2881 -0.1000 0.3410
        vertex 0.9613 -0.1000 0.0827
    endloop
endfacet
facet normal 0.0000 -4.2101 0.0000
    outer loop
        vertex 1.2977 -0.1000 0.9565
        vertex 1.3568 -0.1000 0.6099
        vertex 1.5300 -0.1000 0.6920
    endloop
endfacet
facet normal 0.0000 -4.9941 0.0000
    outer loop
        vertex 1.2977 -0.1000 0.9565
        vertex 1.0967 -0.1000 0.8201
        vertex 1.3568 -0.1000 0.6099
    endloop
endfacet
facet normal 0.0000 -6.6911 0.0000
    outer loop
        vertex 1.3568 -0.1000 0.6099
        vertex 0.9642 -0.1000 0.6093
        vertex 1.2881 -0.1000 0.3410
    endloop
endfacet
facet normal 0.0000 -5.1180 0.0000
    outer loop
        vertex 0.9613 -0.1000 0.0827
        vertex 1.0853 -0.1000 -0.1221
        vertex 1.3628 -0.1000 0.0627
    endloop
endfacet
facet normal 0.0000 -3.7654 0.0000
    outer loop
        vertex 1.3628 -0.1000 0.0627
        vertex 1.4788 -0.1000 -0.3000
        vertex 1.5500 -0.1000 -0.0260
    endloop
endfacet
facet normal 0.0000 -5.0029 0.0000
    outer loop
        vertex 1.5425 -0.1000 -0.6840
        vertex 1.7984 -0.1000 -0.9347
        vertex 1.7446 -0.1000 -0.5777
    endloop
endfacet
facet normal 0.0000 -5.5948 0.0000
    outer loop
        vertex 1.7984 -0.1000 -0.9347
        vertex 1.5425 -0.1000 -0.6840
        vertex 1.5096 -0.1000 -0.9940
    endloop
endfacet
facet normal 0.0000 -5.3801 0.0000
    outer loop
        vertex 1.4788 -0.1000 -0.3000
        vertex 1.8280 -0.1000 -0.1364
        vertex 1.5500 -0.1000 -0.0260
    endloop
endfacet
facet normal 0.0000 -5.8201 0.0000
    outer loop
        vertex 1.7984 -0.1000 -0.9347
        vertex 2.0273 -0.1000 -0.7569
        vertex 1.7446 -0.1000 -0.5777
    endloop
endfacet
facet normal 0.0000 -11.1988 0.0000
    outer loop
        vertex 2.1763 -0.1000 -0.4451
        vertex 1.8280 -0.1000 -0.1364
        vertex 1.7446 -0.1000 -0.5777
    endloop
endfacet
facet normal 0.0000 -2.9285 0.0000
    outer loop
        vertex 1.5500 -0.1000 -0.0260
        vertex 1.8280 -0.1000 -0.1364
        vertex 1.7324 -0.1000 0.0594
    endloop
endfacet
facet normal 0.0000 -10.9889 0.0000
    outer loop
        vertex 2.2260 -0.1000 0.0160
        vertex 1.8280 -0.1000 -0.1364
        vertex 2.1763 -0.1000 -0.4451
    endloop
endfacet
facet normal 0.0000 -7.2583 0.0000
    outer loop
        vertex 2.1763 -0.1000 -0.4451
        vertex 1.7446 -0.1000 -0.5777
        vertex 2.0273 -0.1000 -0.7569
    endloop
endfacet
facet normal 0.0000 -5.8980 0.0000
    outer loop
        vertex 1.7324 -0.1000 0.0594
        vertex 1.8280 -0.1000 -0.1364
        vertex 2.2260 -0.1000 0.0160
    endloop
endfacet
facet normal 0.0000 -4.9208 0.0000
    outer loop
        vertex 1.5300 -0.1000 0.6920
        vertex 1.5470 -0.1000 1.0020
        vertex 1.2977 -0.1000 0.9565
    endloop
endfacet
facet normal 0.0000 -5.4322 0.0000
    outer loop
        vertex 1.8177 -0.1000 0.9445
        vertex 1.5470 -0.1000 1.0020
        vertex 1.5300 -0.1000 0.6920
    endloop
endfacet
facet normal 0.0000 -4.9832 0.0000
    outer loop
        vertex 1.5300 -0.1000 0.6920
        vertex 1.7230 -0.1000 0.5919
        vertex 1.8177 -0.1000 0.9445
    endloop
endfacet
facet normal 0.0000 -7.6143 0.0000
    outer loop
        vertex 2.1783 -0.1000 0.4682
        vertex 2.0352 -0.1000 0.7721
        vertex 1.7230 -0.1000 0.5919
    endloop
endfacet
facet normal 0.0000 -8.0063 0.0000
    outer loop
        vertex 1.8066 -0.1000 0.3103
        vertex 1.7324 -0.1000 0.0594
        vertex 2.2260 -0.1000 0.0160
    endloop
endfacet
facet normal 0.0000 -5.9275 0.0000
    outer loop
        vertex 1.8177 -0.1000 0.9445
        vertex 1.7230 -0.1000 0.5919
        vertex 2.0352 -0.1000 0.7721
    endloop
endfacet
facet normal 0.0000 -7.4446 0.0000
    outer loop
        vertex 1.7230 -0.1000 0.5919
        vertex 1.8066 -0.1000 0.3103
        vertex 2.1783 -0.1000 0.4682
    endloop
endfacet
facet normal 0.0000 -10.9701 0.0000
    outer loop
        vertex 2.2260 -0.1000 0.0160
        vertex 2.1783 -0.1000 0.4682
        vertex 1.8066 -0.1000 0.3103
    endloop
endfacet
facet normal 0.0000 -8.5293 0.0000
    outer loop
        vertex 2.9088 -0.1000 -0.6308
        vertex 2.4754 -0.1000 -0.5073
        vertex 2.6568 -0.1000 -0.8719
    endloop
endfacet
facet normal 0.0000 -4.0369 0.0000
    outer loop
        vertex 2.9088 -0.1000 -0.6308
        vertex 2.8380 -0.1000 -0.4675
        vertex 2.4754 -0.1000 -0.5073
    endloop
endfacet
facet normal 0.0000 -3.2270 0.0000
    outer loop
        vertex 2.9088 -0.1000 -0.6308
        vertex 3.0276 -0.1000 -0.9940
        vertex 3.0605 -0.1000 -0.6840
    endloop
endfacet
facet normal 0.0000 -7.5864 0.0000
    outer loop
        vertex 2.9088 -0.1000 -0.6308
        vertex 2.6568 -0.1000 -0.8719
        vertex 3.0276 -0.1000 -0.9940
    endloop
endfacet
facet normal 0.0000 -7.7009 0.0000
    outer loop
        vertex 2.6034 -0.1000 -0.1221
        vertex 2.9967 -0.1000 -0.3000
        vertex 2.8809 -0.1000 0.0627
    endloop
endfacet
facet normal 0.0000 -6.2760 0.0000
    outer loop
        vertex 2.8060 -0.1000 0.3410
        vertex 2.4822 -0.1000 0.6093
        vertex 2.4380 -0.1000 0.3410
    endloop
endfacet
facet normal 0.0000 -5.2978 0.0000
    outer loop
        vertex 2.8749 -0.1000 0.6099
        vertex 2.6148 -0.1000 0.8201
        vertex 2.4822 -0.1000 0.6093
    endloop
endfacet
facet normal 0.0000 -6.0518 0.0000
    outer loop
        vertex 2.4380 -0.1000 0.3410
        vertex 2.4794 -0.1000 0.0827
        vertex 2.8060 -0.1000 0.3410
    endloop
endfacet
facet normal 0.0000 -6.9786 0.0000
    outer loop
        vertex 2.8809 -0.1000 0.0627
        vertex 2.8060 -0.1000 0.3410
        vertex 2.4794 -0.1000 0.0827
    endloop
endfacet
facet normal 0.0000 -4.2074 0.0000
    outer loop
        vertex 2.8157 -0.1000 0.9565
        vertex 2.8749 -0.1000 0.6099
        vertex 3.0479 -0.1000 0.6920
    endloop
endfacet
facet normal 0.0000 -4.9941 0.0000
    outer loop
        vertex 2.8157 -0.1000 0.9565
        vertex 2.6148 -0.1000 0.8201
        vertex 2.8749 -0.1000 0.6099
    endloop
endfacet
facet normal 0.0000 -6.6932 0.0000
    outer loop
        vertex 2.8749 -0.1000 0.6099
        vertex 2.4822 -0.1000 0.6093
        vertex 2.8060 -0.1000 0.3410
    endloop
endfacet
facet normal 0.0000 -5.1180 0.0000
    outer loop
        vertex 2.4794 -0.1000 0.0827
        vertex 2.6034 -0.1000 -0.1221
        vertex 2.8809 -0.1000 0.0627
    endloop
endfacet
facet normal 0.0000 -3.7661 0.0000
    outer loop
        vertex 2.8809 -0.1000 0.0627
        vertex 2.9967 -0.1000 -0.3000
        vertex 3.0680 -0.1000 -0.0260
    endloop
endfacet
facet normal 0.0000 -5.0056 0.0000
    outer loop
        vertex 3.0605 -0.1000 -0.6840
        vertex 3.3165 -0.1000 -0.9347
        vertex 3.2627 -0.1000 -0.5777
    endloop
endfacet
facet normal 0.0000 -5.5972 0.0000
    outer loop
        vertex 3.3165 -0.1000 -0.9347
        vertex 3.0605 -0.1000 -0.6840
        vertex 3.0276 -0.1000 -0.9940
    endloop
endfacet
facet normal 0.0000 -5.3809 0.0000
    outer loop
        vertex 2.9967 -0.1000 -0.3000
        vertex 3.3460 -0.1000 -0.1364
        vertex 3.0680 -0.1000 -0.0260
    endloop
endfacet
facet normal 0.0000 -5.8173 0.0000
    outer loop
        vertex 3.3165 -0.1000 -0.9347
        vertex 3.5452 -0.1000 -0.7569
        vertex 3.2627 -0.1000 -0.5777
    endloop
endfacet
facet normal 0.0000 -11.1988 0.0000
    outer loop
        vertex 3.6943 -0.1000 -0.4451
        vertex 3.3460 -0.1000 -0.1364
        vertex 3.2627 -0.1000 -0.5777
    endloop
endfacet
facet normal 0.0000 -2.9285 0.0000
    outer loop
        vertex 3.0680 -0.1000 -0.0260
        vertex 3.3460 -0.1000 -0.1364
        vertex 3.2504 -0.1000 0.0594
    endloop
endfacet
facet normal 0.0000 -10.9865 0.0000
    outer loop
        vertex 3.7440 -0.1000 0.0160
        vertex 3.3460 -0.1000 -0.1364
        vertex 3.6943 -0.1000 -0.4451
    endloop
endfacet
facet normal 0.0000 -7.2573 0.0000
    outer loop
        vertex 3.6943 -0.1000 -0.4451
        vertex 3.2627 -0.1000 -0.5777
        vertex 3.5452 -0.1000 -0.7569
    endloop
endfacet
facet normal 0.0000 -5.8964 0.0000
    outer loop
        vertex 3.2504 -0.1000 0.0594
        vertex 3.3460 -0.1000 -0.1364
        vertex 3.7440 -0.1000 0.0160
    endloop
endfacet
facet normal 0.0000 -4.9184 0.0000
    outer loop
        vertex 3.0479 -0.1000 0.6920
        vertex 3.0650 -0.1000 1.0020
        vertex 2.8157 -0.1000 0.9565
    endloop
endfacet
facet normal 0.0000 -5.4347 0.0000
    outer loop
        vertex 3.3358 -0.1000 0.9445
        vertex 3.0650 -0.1000 1.0020
        vertex 3.0479 -0.1000 0.6920
    endloop
endfacet
facet normal 0.0000 -4.9860 0.0000
    outer loop
        vertex 3.0479 -0.1000 0.6920
        vertex 3.2411 -0.1000 0.5919
        vertex 3.3358 -0.1000 0.9445
    endloop
endfacet
facet normal 0.0000 -7.6129 0.0000
    outer loop
        vertex 3.6963 -0.1000 0.4682
        vertex 3.5533 -0.1000 0.7721
        vertex 3.2411 -0.1000 0.5919
    endloop
endfacet
facet normal 0.0000 -8.0040 0.0000
    outer loop
        vertex 3.3245 -0.1000 0.3103
        vertex 3.2504 -0.1000 0.0594
        vertex 3.7440 -0.1000 0.0160
    endloop
endfacet
facet normal 0.0000 -5.9275 0.0000
    outer loop
        vertex 3.3358 -0.1000 0.9445
        vertex 3.2411 -0.1000 0.5919
        vertex 3.5533 -0.1000 0.7721
    endloop
endfacet
facet normal 0.0000 -7.4434 0.0000
    outer loop
        vertex 3.2411 -0.1000 0.5919
        vertex 3.3245 -0.1000 0.3103
        vertex 3.6963 -0.1000 0.4682
    endloop
endfacet
facet normal 0.0000 -10.9701 0.0000
    outer loop
        vertex 3.7440 -0.1000 0.0160
        vertex 3.6963 -0.1000 0.4682
        vertex 3.3245 -0.1000 0.3103
    endloop
endfacet
facet normal 0.0000 -7.3833 0.0000
    outer loop
        vertex 4.4108 -0.1000 -0.4698
        vertex 4.0276 -0.1000 -0.4695
        vertex 4.1587 -0.1000 -0.7747
    endloop
endfacet
facet normal 0.0000 -5.3063 0.0000
    outer loop
        vertex 4.4982 -0.1000 -0.6413
        vertex 4.1587 -0.1000 -0.7747
        vertex 4.3612 -0.1000 -0.9391
    endloop
endfacet
facet normal 0.0000 -2.8041 0.0000
    outer loop
        vertex 4.6190 -0.1000 -0.6840
        vertex 4.4982 -0.1000 -0.6413
        vertex 4.3612 -0.1000 -0.9391
    endloop
endfacet
facet normal 0.0000 -11.3116 0.0000
    outer loop
        vertex 4.4108 -0.1000 -0.4698
        vertex 4.3761 -0.1000 0.0033
        vertex 4.0276 -0.1000 -0.4695
    endloop
endfacet
facet normal 0.0000 -4.5154 0.0000
    outer loop
        vertex 4.4982 -0.1000 -0.6413
        vertex 4.4108 -0.1000 -0.4698
        vertex 4.1587 -0.1000 -0.7747
    endloop
endfacet
facet normal 0.0000 -5.1279 0.0000
    outer loop
        vertex 4.3612 -0.1000 -0.9391
        vertex 4.6190 -0.1000 -0.9940
        vertex 4.6190 -0.1000 -0.6840
    endloop
endfacet
facet normal 0.0000 -11.6491 0.0000
    outer loop
        vertex 4.0276 -0.1000 -0.4695
        vertex 4.3761 -0.1000 0.0033
        vertex 3.9840 -0.1000 0.0073
    endloop
endfacet
facet normal 0.0000 -6.2722 0.0000
    outer loop
        vertex 4.4147 -0.1000 0.4932
        vertex 4.0694 -0.1000 0.6058
        vertex 4.0054 -0.1000 0.3410
    endloop
endfacet
facet normal 0.0000 -5.1200 0.0000
    outer loop
        vertex 4.4147 -0.1000 0.4932
        vertex 4.1761 -0.1000 0.8020
        vertex 4.0694 -0.1000 0.6058
    endloop
endfacet
facet normal 0.0000 -8.2404 0.0000
    outer loop
        vertex 3.9840 -0.1000 0.0073
        vertex 4.3761 -0.1000 0.0033
        vertex 4.0054 -0.1000 0.3410
    endloop
endfacet
facet normal 0.0000 -4.9746 0.0000
    outer loop
        vertex 4.4975 -0.1000 0.6486
        vertex 4.3663 -0.1000 0.9521
        vertex 4.1761 -0.1000 0.8020
    endloop
endfacet
facet normal 0.0000 -5.0331 0.0000
    outer loop
        vertex 4.3663 -0.1000 0.9521
        vertex 4.6190 -0.1000 0.6920
        vertex 4.6191 -0.1000 1.0020
    endloop
endfacet
facet normal 0.0000 -2.8476 0.0000
    outer loop
        vertex 4.6190 -0.1000 0.6920
        vertex 4.3663 -0.1000 0.9521
        vertex 4.4975 -0.1000 0.6486
    endloop
endfacet
facet normal 0.0000 -12.1297 0.0000
    outer loop
        vertex 4.3761 -0.1000 0.0033
        vertex 4.4147 -0.1000 0.4932
        vertex 4.0054 -0.1000 0.3410
    endloop
endfacet
facet normal 0.0000 -4.0741 0.0000
    outer loop
        vertex 4.4975 -0.1000 0.6486
        vertex 4.1761 -0.1000 0.8020
        vertex 4.4147 -0.1000 0.4932
    endloop
endfacet
facet normal 0.0000 -4.0760 0.0000
    outer loop
        vertex 4.8233 -0.1000 -0.4851
        vertex 4.7405 -0.1000 -0.6406
        vertex 5.0619 -0.1000 -0.7940
    endloop
endfacet
facet normal 0.0000 -12.0915 0.0000
    outer loop
        vertex 4.8620 -0.1000 0.0033
        vertex 4.8233 -0.1000 -0.4851
        vertex 5.2326 -0.1000 -0.3316
    endloop
endfacet
facet normal 0.0000 -2.8469 0.0000
    outer loop
        vertex 4.6190 -0.1000 -0.6840
        vertex 4.8718 -0.1000 -0.9440
        vertex 4.7405 -0.1000 -0.6406
    endloop
endfacet
facet normal 0.0000 -5.1255 0.0000
    outer loop
        vertex 5.0619 -0.1000 -0.7940
        vertex 5.1686 -0.1000 -0.5974
        vertex 4.8233 -0.1000 -0.4851
    endloop
endfacet
facet normal 0.0000 -6.2895 0.0000
    outer loop
        vertex 5.2326 -0.1000 -0.3316
        vertex 4.8233 -0.1000 -0.4851
        vertex 5.1686 -0.1000 -0.5974
    endloop
endfacet
facet normal 0.0000 -4.9719 0.0000
    outer loop
        vertex 4.7405 -0.1000 -0.6406
        vertex 4.8718 -0.1000 -0.9440
        vertex 5.0619 -0.1000 -0.7940
    endloop
endfacet
facet normal 0.0000 -8.2717 0.0000
    outer loop
        vertex 4.8620 -0.1000 0.0033
        vertex 5.2326 -0.1000 -0.3316
        vertex 5.2540 -0.1000 0.0036
    endloop
endfacet
facet normal 0.0000 -5.0065 0.0000
    outer loop
        vertex 4.8723 -0.1000 0.9514
        vertex 4.7398 -0.1000 0.6486
        vertex 5.0633 -0.1000 0.7997
    endloop
endfacet
facet normal 0.0000 -5.0411 0.0000
    outer loop
        vertex 4.6191 -0.1000 1.0020
        vertex 4.6190 -0.1000 0.6920
        vertex 4.8723 -0.1000 0.9514
    endloop
endfacet
facet normal 0.0000 -4.4554 0.0000
    outer loop
        vertex 4.7398 -0.1000 0.6486
        vertex 4.8273 -0.1000 0.4764
        vertex 5.0633 -0.1000 0.7997
    endloop
endfacet
facet normal 0.0000 -2.8344 0.0000
    outer loop
        vertex 4.6190 -0.1000 0.6920
        vertex 4.7398 -0.1000 0.6486
        vertex 4.8723 -0.1000 0.9514
    endloop
endfacet
facet normal 0.0000 -6.2887 0.0000
    outer loop
        vertex 5.1693 -0.1000 0.6047
        vertex 4.8273 -0.1000 0.4764
        vertex 5.2328 -0.1000 0.3392
    endloop
endfacet
facet normal 0.0000 -5.1518 0.0000
    outer loop
        vertex 5.0633 -0.1000 0.7997
        vertex 4.8273 -0.1000 0.4764
        vertex 5.1693 -0.1000 0.6047
    endloop
endfacet
facet normal 0.0000 -11.6684 0.0000
    outer loop
        vertex 4.8273 -0.1000 0.4764
        vertex 4.8620 -0.1000 0.0033
        vertex 5.2328 -0.1000 0.3392
    endloop
endfacet
facet normal 0.0000 -8.2815 0.0000
    outer loop
        vertex 4.8620 -0.1000 0.0033
        vertex 5.2540 -0.1000 0.0036
        vertex 5.2328 -0.1000 0.3392
    endloop
endfacet
facet normal 0.0000 -5.0335 0.0000
    outer loop
        vertex 4.6190 -0.1000 -0.9940
        vertex 4.8718 -0.1000 -0.9440
        vertex 4.6190 -0.1000 -0.6840
    endloop
endfacet
facet normal 0.0000 -53.2078 0.0000
    outer loop
        vertex -5.1880 -0.1000 0.9940
        vertex -5.6320 -0.1000 -1.6000
        vertex -5.1880 -0.1000 -0.9600
    endloop
endfacet
facet normal 0.0000 -15.6650 0.0000
    outer loop
        vertex -5.1880 -0.1000 -0.9600
        vertex -5.6320 -0.1000 -1.6000
        vertex -4.7933 -0.1000 -0.9600
    endloop
endfacet
facet normal 0.0000 -40.6589 0.0000
    outer loop
        vertex -4.7933 -0.1000 -0.9600
        vertex -4.0200 -0.1000 -0.9600
        vertex -4.0200 -0.1000 -0.1039
    endloop
endfacet
facet normal 0.0000 -30.4600 0.0000
    outer loop
        vertex -4.0200 -0.1000 -0.9600
        vertex -4.7933 -0.1000 -0.9600
        vertex -5.6320 -0.1000 -1.6000
    endloop
endfacet
facet normal 0.0000 -15.6400 0.0000
    outer loop
        vertex -5.6320 -0.1000 -1.6000
        vertex -3.6260 -0.1000 -0.9600
        vertex -4.0200 -0.1000 -0.9600
    endloop
endfacet
facet normal 0.0000 -25.2862 0.0000
    outer loop
        vertex -3.4161 -0.1000 -0.9600
        vertex -3.6260 -0.1000 0.9940
        vertex -3.6260 -0.1000 -0.9600
    endloop
endfacet
facet normal 0.0000 -8.4500 0.0000
    outer loop
        vertex -3.4161 -0.1000 -0.9600
        vertex -3.6260 -0.1000 -0.9600
        vertex -5.6320 -0.1000 -1.6000
    endloop
endfacet
facet normal 0.0000 -30.4234 0.0000
    outer loop
        vertex -2.9974 -0.1000 -0.9600
        vertex -1.8840 -0.1000 -0.9600
        vertex -2.0547 -0.1000 -0.5160
    endloop
endfacet
facet normal 0.0000 -43.7400 0.0000
    outer loop
        vertex -1.8840 -0.1000 -0.9600
        vertex -2.9974 -0.1000 -0.9600
        vertex -5.6320 -0.1000 -1.6000
    endloop
endfacet
facet normal 0.0000 -16.6050 0.0000
    outer loop
        vertex -3.4161 -0.1000 -0.9600
        vertex -5.6320 -0.1000 -1.6000
        vertex -2.9974 -0.1000 -0.9600
    endloop
endfacet
facet normal 0.0000 -17.0200 0.0000
    outer loop
        vertex -5.6320 -0.1000 -1.6000
        vertex -1.4547 -0.1000 -0.9600
        vertex -1.8840 -0.1000 -0.9600
    endloop
endfacet
facet normal 0.0000 -40.6589 0.0000
    outer loop
        vertex -4.7933 -0.1000 -0.1039
        vertex -4.7933 -0.1000 -0.9600
        vertex -4.0200 -0.1000 -0.1039
    endloop
endfacet
facet normal 0.0000 -116.0884 0.0000
    outer loop
        vertex -3.6260 -0.1000 0.9940
        vertex -3.4161 -0.1000 -0.9600
        vertex -2.6547 -0.1000 0.9940
    endloop
endfacet
facet normal 0.0000 -19.3538 0.0000
    outer loop
        vertex -1.4547 -0.1000 -0.9600
        vertex -0.3040 -0.1000 -0.9600
        vertex -0.2863 -0.1000 -0.6880
    endloop
endfacet
facet normal 0.0000 -45.2000 0.0000
    outer loop
        vertex -0.3040 -0.1000 -0.9600
        vertex -1.4547 -0.1000 -0.9600
        vertex -5.6320 -0.1000 -1.6000
    endloop
endfacet
facet normal 0.0000 -181.2398 0.0000
    outer loop
        vertex -1.4547 -0.1000 -0.9600
        vertex -0.5700 -0.1000 0.6200
        vertex -2.2373 -0.1000 0.9940
    endloop
endfacet
facet normal 0.0000 -19.0186 0.0000
    outer loop
        vertex -0.2331 -0.1000 -0.4124
        vertex -1.4547 -0.1000 -0.9600
        vertex -0.2863 -0.1000 -0.6880
    endloop
endfacet
facet normal 0.0000 -21.4248 0.0000
    outer loop
        vertex -2.0547 -0.1000 -0.5160
        vertex -2.8360 -0.1000 -0.5160
        vertex -2.9974 -0.1000 -0.9600
    endloop
endfacet
facet normal 0.0000 -23.8296 0.0000
    outer loop
        vertex -2.1814 -0.1000 -0.1860
        vertex -2.4507 -0.1000 0.5385
        vertex -2.7146 -0.1000 -0.1860
    endloop
endfacet
facet normal 0.0000 -82.1672 0.0000
    outer loop
        vertex -5.6320 -0.1000 -1.6000
        vertex 1.5096 -0.1000 -0.9940
        vertex -0.3040 -0.1000 -0.9600
    endloop
endfacet
facet normal 0.0000 -14.9158 0.0000
    outer loop
        vertex 0.0736 -0.1000 -0.6838
        vertex 0.0520 -0.1000 -0.9600
        vertex 0.9573 -0.1000 -0.5073
    endloop
endfacet
facet normal 0.0000 -10.3433 0.0000
    outer loop
        vertex 1.1387 -0.1000 -0.8719
        vertex 0.0520 -0.1000 -0.9600
        vertex 1.5096 -0.1000 -0.9940
    endloop
endfacet
facet normal 0.0000 -25.4129 0.0000
    outer loop
        vertex 0.0520 -0.1000 -0.9600
        vertex 1.1387 -0.1000 -0.8719
        vertex 0.9573 -0.1000 -0.5073
    endloop
endfacet
facet normal 0.0000 -5.7526 0.0000
    outer loop
        vertex 1.7984 -0.1000 -0.9347
        vertex 1.5096 -0.1000 -0.9940
        vertex 3.0276 -0.1000 -0.9940
    endloop
endfacet
facet normal 0.0000 -3.5978 0.0000
    outer loop
        vertex 1.3908 -0.1000 -0.6308
        vertex 1.5425 -0.1000 -0.6840
        vertex 1.4788 -0.1000 -0.3000
    endloop
endfacet
facet normal 0.0000 -0.9897 0.0000
    outer loop
        vertex 0.0520 -0.1000 -0.9600
        vertex -0.3040 -0.1000 -0.9600
        vertex 1.5096 -0.1000 -0.9940
    endloop
endfacet
facet normal 0.0000 -5.4008 0.0000
    outer loop
        vertex 1.7446 -0.1000 -0.5777
        vertex 1.4788 -0.1000 -0.3000
        vertex 1.5425 -0.1000 -0.6840
    endloop
endfacet
facet normal 0.0000 -11.5775 0.0000
    outer loop
        vertex -0.5700 -0.1000 0.6200
        vertex -0.2331 -0.1000 -0.4124
        vertex -0.1444 -0.1000 -0.1334
    endloop
endfacet
facet normal 0.0000 -17.1000 0.0000
    outer loop
        vertex 0.1381 -0.1000 -0.3727
        vertex 0.9573 -0.1000 -0.5073
        vertex 0.2440 -0.1000 -0.0531
    endloop
endfacet
facet normal 0.0000 -88.4916 0.0000
    outer loop
        vertex -0.5700 -0.1000 0.6200
        vertex -1.4547 -0.1000 -0.9600
        vertex -0.2331 -0.1000 -0.4124
    endloop
endfacet
facet normal 0.0000 -8.4665 0.0000
    outer loop
        vertex 0.9573 -0.1000 -0.5073
        vertex 1.3201 -0.1000 -0.4675
        vertex 1.0853 -0.1000 -0.1221
    endloop
endfacet
facet normal 0.0000 -5.9944 0.0000
    outer loop
        vertex 1.4788 -0.1000 -0.3000
        vertex 1.0853 -0.1000 -0.1221
        vertex 1.3201 -0.1000 -0.4675
    endloop
endfacet
facet normal 0.0000 -2.5556 0.0000
    outer loop
        vertex 1.4788 -0.1000 -0.3000
        vertex 1.3201 -0.1000 -0.4675
        vertex 1.3908 -0.1000 -0.6308
    endloop
endfacet
facet normal 0.0000 -4.7657 0.0000
    outer loop
        vertex 0.9613 -0.1000 0.0827
        vertex 0.9573 -0.1000 -0.5073
        vertex 1.0853 -0.1000 -0.1221
    endloop
endfacet
facet normal 0.0000 -8.8214 0.0000
    outer loop
        vertex 1.7446 -0.1000 -0.5777
        vertex 1.8280 -0.1000 -0.1364
        vertex 1.4788 -0.1000 -0.3000
    endloop
endfacet
facet normal 0.0000 -26.0459 0.0000
    outer loop
        vertex 0.2440 -0.1000 -0.0531
        vertex 0.9573 -0.1000 -0.5073
        vertex 0.9613 -0.1000 0.0827
    endloop
endfacet
facet normal 0.0000 -16.3317 0.0000
    outer loop
        vertex 0.0736 -0.1000 -0.6838
        vertex 0.9573 -0.1000 -0.5073
        vertex 0.1381 -0.1000 -0.3727
    endloop
endfacet
facet normal 0.0000 -416.8420 0.0000
    outer loop
        vertex -5.6320 -0.1000 -1.6000
        vertex 5.6320 -0.1000 -1.6000
        vertex 1.5096 -0.1000 -0.9940
    endloop
endfacet
facet normal 0.0000 -36.5020 0.0000
    outer loop
        vertex -4.0200 -0.1000 0.9940
        vertex -4.7933 -0.1000 0.2260
        vertex -4.0200 -0.1000 0.2260
    endloop
endfacet
facet normal 0.0000 -12.7277 0.0000
    outer loop
        vertex -0.0261 -0.1000 0.1376
        vertex -0.5700 -0.1000 0.6200
        vertex -0.1444 -0.1000 -0.1334
    endloop
endfacet
facet normal 0.0000 -12.2756 0.0000
    outer loop
        vertex -0.5700 -0.1000 0.6200
        vertex 0.1160 -0.1000 0.3887
        vertex 0.2819 -0.1000 0.6200
    endloop
endfacet
facet normal 0.0000 -7.6901 0.0000
    outer loop
        vertex 0.3887 -0.1000 0.2481
        vertex 0.9201 -0.1000 0.3410
        vertex 0.5517 -0.1000 0.5060
    endloop
endfacet
facet normal 0.0000 -12.7701 0.0000
    outer loop
        vertex -0.0261 -0.1000 0.1376
        vertex 0.1160 -0.1000 0.3887
        vertex -0.5700 -0.1000 0.6200
    endloop
endfacet
facet normal 0.0000 -14.8449 0.0000
    outer loop
        vertex -5.1880 -0.1000 0.9940
        vertex -4.7933 -0.1000 0.9940
        vertex -5.6320 -0.1000 1.6000
    endloop
endfacet
facet normal 0.0000 -14.8213 0.0000
    outer loop
        vertex -5.6320 -0.1000 1.6000
        vertex -4.0200 -0.1000 0.9940
        vertex -3.6260 -0.1000 0.9940
    endloop
endfacet
facet normal 0.0000 -28.8528 0.0000
    outer loop
        vertex -4.0200 -0.1000 0.9940
        vertex -5.6320 -0.1000 1.6000
        vertex -4.7933 -0.1000 0.9940
    endloop
endfacet
facet normal 0.0000 -36.5020 0.0000
    outer loop
        vertex -4.7933 -0.1000 0.2260
        vertex -4.0200 -0.1000 0.9940
        vertex -4.7933 -0.1000 0.9940
    endloop
endfacet
facet normal 0.0000 -86.9750 0.0000
    outer loop
        vertex -5.6320 -0.1000 1.6000
        vertex -5.6320 -0.1000 -1.6000
        vertex -5.1880 -0.1000 0.9940
    endloop
endfacet
facet normal 0.0000 -35.6677 0.0000
    outer loop
        vertex -0.5700 -0.1000 0.9681
        vertex -2.2373 -0.1000 0.9940
        vertex -0.5700 -0.1000 0.6200
    endloop
endfacet
facet normal 0.0000 -36.1716 0.0000
    outer loop
        vertex -3.6260 -0.1000 0.9940
        vertex -2.6547 -0.1000 0.9940
        vertex -5.6320 -0.1000 1.6000
    endloop
endfacet
facet normal 0.0000 -15.6876 0.0000
    outer loop
        vertex -2.6547 -0.1000 0.9940
        vertex -2.2373 -0.1000 0.9940
        vertex -5.6320 -0.1000 1.6000
    endloop
endfacet
facet normal 0.0000 -56.5313 0.0000
    outer loop
        vertex -0.5700 -0.1000 0.9681
        vertex -5.6320 -0.1000 1.6000
        vertex -2.2373 -0.1000 0.9940
    endloop
endfacet
facet normal 0.0000 -92.3830 0.0000
    outer loop
        vertex -5.6320 -0.1000 1.6000
        vertex -0.5700 -0.1000 0.9681
        vertex 1.5470 -0.1000 1.0020
    endloop
endfacet
facet normal 0.0000 -8.9167 0.0000
    outer loop
        vertex 1.3628 -0.1000 0.0627
        vertex 1.8066 -0.1000 0.3103
        vertex 1.2881 -0.1000 0.3410
    endloop
endfacet
facet normal 0.0000 -6.1389 0.0000
    outer loop
        vertex 0.9201 -0.1000 0.3410
        vertex 0.7121 -0.1000 0.6961
        vertex 0.5517 -0.1000 0.5060
    endloop
endfacet
facet normal 0.0000 -5.9236 0.0000
    outer loop
        vertex 1.7324 -0.1000 0.0594
        vertex 1.8066 -0.1000 0.3103
        vertex 1.3628 -0.1000 0.0627
    endloop
endfacet
facet normal 0.0000 -9.0055 0.0000
    outer loop
        vertex 1.7230 -0.1000 0.5919
        vertex 1.2881 -0.1000 0.3410
        vertex 1.8066 -0.1000 0.3103
    endloop
endfacet
facet normal 0.0000 -2.2127 0.0000
    outer loop
        vertex 1.3628 -0.1000 0.0627
        vertex 1.5500 -0.1000 -0.0260
        vertex 1.7324 -0.1000 0.0594
    endloop
endfacet
facet normal 0.0000 -12.2362 0.0000
    outer loop
        vertex 0.2440 -0.1000 -0.0531
        vertex 0.9613 -0.1000 0.0827
        vertex 0.3887 -0.1000 0.2481
    endloop
endfacet
facet normal 0.0000 -6.3367 0.0000
    outer loop
        vertex 1.3568 -0.1000 0.6099
        vertex 1.2881 -0.1000 0.3410
        vertex 1.7230 -0.1000 0.5919
    endloop
endfacet
facet normal 0.0000 -4.1963 0.0000
    outer loop
        vertex 0.7121 -0.1000 0.6961
        vertex 0.9642 -0.1000 0.6093
        vertex 1.0967 -0.1000 0.8201
    endloop
endfacet
facet normal 0.0000 -4.6130 0.0000
    outer loop
        vertex 0.9642 -0.1000 0.6093
        vertex 0.7121 -0.1000 0.6961
        vertex 0.9201 -0.1000 0.3410
    endloop
endfacet
facet normal 0.0000 -5.2682 0.0000
    outer loop
        vertex 0.7121 -0.1000 0.9681
        vertex 1.0967 -0.1000 0.8201
        vertex 1.2977 -0.1000 0.9565
    endloop
endfacet
facet normal 0.0000 -6.6356 0.0000
    outer loop
        vertex 1.0967 -0.1000 0.8201
        vertex 0.7121 -0.1000 0.9681
        vertex 0.7121 -0.1000 0.6961
    endloop
endfacet
facet normal 0.0000 -2.2747 0.0000
    outer loop
        vertex 1.5300 -0.1000 0.6920
        vertex 1.3568 -0.1000 0.6099
        vertex 1.7230 -0.1000 0.5919
    endloop
endfacet
facet normal 0.0000 -3.9497 0.0000
    outer loop
        vertex 1.5470 -0.1000 1.0020
        vertex 1.8177 -0.1000 0.9445
        vertex 2.8157 -0.1000 0.9565
    endloop
endfacet
facet normal 0.0000 -2.0494 0.0000
    outer loop
        vertex 1.2977 -0.1000 0.9565
        vertex 1.5470 -0.1000 1.0020
        vertex 0.7121 -0.1000 0.9681
    endloop
endfacet
facet normal 0.0000 -2.9042 0.0000
    outer loop
        vertex 0.7121 -0.1000 0.9681
        vertex 1.5470 -0.1000 1.0020
        vertex -0.5700 -0.1000 0.9681
    endloop
endfacet
facet normal 0.0000 -8.8605 0.0000
    outer loop
        vertex 0.9201 -0.1000 0.3410
        vertex 0.3887 -0.1000 0.2481
        vertex 0.9613 -0.1000 0.0827
    endloop
endfacet
facet normal 0.0000 -411.3860 0.0000
    outer loop
        vertex -5.6320 -0.1000 1.6000
        vertex 1.5470 -0.1000 1.0020
        vertex 5.6320 -0.1000 1.6000
    endloop
endfacet
facet normal 0.0000 -8.6885 0.0000
    outer loop
        vertex 2.6568 -0.1000 -0.8719
        vertex 2.0273 -0.1000 -0.7569
        vertex 1.7984 -0.1000 -0.9347
    endloop
endfacet
facet normal 0.0000 -12.9875 0.0000
    outer loop
        vertex 2.6568 -0.1000 -0.8719
        vertex 2.4754 -0.1000 -0.5073
        vertex 2.0273 -0.1000 -0.7569
    endloop
endfacet
facet normal 0.0000 -8.0671 0.0000
    outer loop
        vertex 2.6568 -0.1000 -0.8719
        vertex 1.7984 -0.1000 -0.9347
        vertex 3.0276 -0.1000 -0.9940
    endloop
endfacet
facet normal 0.0000 -7.1559 0.0000
    outer loop
        vertex 3.5452 -0.1000 -0.7569
        vertex 3.3165 -0.1000 -0.9347
        vertex 4.1587 -0.1000 -0.7747
    endloop
endfacet
facet normal 0.0000 -3.5978 0.0000
    outer loop
        vertex 2.9088 -0.1000 -0.6308
        vertex 3.0605 -0.1000 -0.6840
        vertex 2.9967 -0.1000 -0.3000
    endloop
endfacet
facet normal 0.0000 -6.0189 0.0000
    outer loop
        vertex 3.0276 -0.1000 -0.9940
        vertex 4.6190 -0.1000 -0.9940
        vertex 3.3165 -0.1000 -0.9347
    endloop
endfacet
facet normal 0.0000 -5.4038 0.0000
    outer loop
        vertex 3.2627 -0.1000 -0.5777
        vertex 2.9967 -0.1000 -0.3000
        vertex 3.0605 -0.1000 -0.6840
    endloop
endfacet
facet normal 0.0000 -8.4635 0.0000
    outer loop
        vertex 2.4754 -0.1000 -0.5073
        vertex 2.8380 -0.1000 -0.4675
        vertex 2.6034 -0.1000 -0.1221
    endloop
endfacet
facet normal 0.0000 -11.2884 0.0000
    outer loop
        vertex 2.1763 -0.1000 -0.4451
        vertex 2.6034 -0.1000 -0.1221
        vertex 2.2260 -0.1000 0.0160
    endloop
endfacet
facet normal 0.0000 -7.7680 0.0000
    outer loop
        vertex 2.6034 -0.1000 -0.1221
        vertex 2.1763 -0.1000 -0.4451
        vertex 2.4754 -0.1000 -0.5073
    endloop
endfacet
facet normal 0.0000 -5.9931 0.0000
    outer loop
        vertex 2.8380 -0.1000 -0.4675
        vertex 2.9967 -0.1000 -0.3000
        vertex 2.6034 -0.1000 -0.1221
    endloop
endfacet
facet normal 0.0000 -6.5086 0.0000
    outer loop
        vertex 2.4754 -0.1000 -0.5073
        vertex 2.1763 -0.1000 -0.4451
        vertex 2.0273 -0.1000 -0.7569
    endloop
endfacet
facet normal 0.0000 -8.8249 0.0000
    outer loop
        vertex 3.2627 -0.1000 -0.5777
        vertex 3.3460 -0.1000 -0.1364
        vertex 2.9967 -0.1000 -0.3000
    endloop
endfacet
facet normal 0.0000 -2.5556 0.0000
    outer loop
        vertex 2.9967 -0.1000 -0.3000
        vertex 2.8380 -0.1000 -0.4675
        vertex 2.9088 -0.1000 -0.6308
    endloop
endfacet
facet normal 0.0000 -7.0301 0.0000
    outer loop
        vertex 3.9840 -0.1000 0.0073
        vertex 3.7440 -0.1000 0.0160
        vertex 3.6943 -0.1000 -0.4451
    endloop
endfacet
facet normal 0.0000 -9.8848 0.0000
    outer loop
        vertex 3.9840 -0.1000 0.0073
        vertex 3.6943 -0.1000 -0.4451
        vertex 4.0276 -0.1000 -0.4695
    endloop
endfacet
facet normal 0.0000 -6.8159 0.0000
    outer loop
        vertex 3.6943 -0.1000 -0.4451
        vertex 3.5452 -0.1000 -0.7569
        vertex 4.0276 -0.1000 -0.4695
    endloop
endfacet
facet normal 0.0000 -10.6828 0.0000
    outer loop
        vertex 4.3612 -0.1000 -0.9391
        vertex 4.1587 -0.1000 -0.7747
        vertex 3.3165 -0.1000 -0.9347
    endloop
endfacet
facet normal 0.0000 -0.8870 0.0000
    outer loop
        vertex 4.7405 -0.1000 -0.6406
        vertex 4.4982 -0.1000 -0.6413
        vertex 4.6190 -0.1000 -0.6840
    endloop
endfacet
facet normal 0.0000 -12.6940 0.0000
    outer loop
        vertex 4.6190 -0.1000 -0.9940
        vertex 5.6320 -0.1000 -1.6000
        vertex 4.8718 -0.1000 -0.9440
    endloop
endfacet
facet normal 0.0000 -59.1078 0.0000
    outer loop
        vertex 5.6320 -0.1000 -1.6000
        vertex 4.6190 -0.1000 -0.9940
        vertex 3.0276 -0.1000 -0.9940
    endloop
endfacet
facet normal 0.0000 -14.8211 0.0000
    outer loop
        vertex 5.0619 -0.1000 -0.7940
        vertex 4.8718 -0.1000 -0.9440
        vertex 5.6320 -0.1000 -1.6000
    endloop
endfacet
facet normal 0.0000 -3.6810 0.0000
    outer loop
        vertex 4.3612 -0.1000 -0.9391
        vertex 3.3165 -0.1000 -0.9347
        vertex 4.6190 -0.1000 -0.9940
    endloop
endfacet
facet normal 0.0000 -12.3430 0.0000
    outer loop
        vertex 5.1686 -0.1000 -0.5974
        vertex 5.0619 -0.1000 -0.7940
        vertex 5.6320 -0.1000 -1.6000
    endloop
endfacet
facet normal 0.0000 -14.2800 0.0000
    outer loop
        vertex 4.3761 -0.1000 0.0033
        vertex 4.4108 -0.1000 -0.4698
        vertex 4.8620 -0.1000 0.0033
    endloop
endfacet
facet normal 0.0000 -4.4869 0.0000
    outer loop
        vertex 4.4982 -0.1000 -0.6413
        vertex 4.8233 -0.1000 -0.4851
        vertex 4.4108 -0.1000 -0.4698
    endloop
endfacet
facet normal 0.0000 -2.5468 0.0000
    outer loop
        vertex 4.4982 -0.1000 -0.6413
        vertex 4.7405 -0.1000 -0.6406
        vertex 4.8233 -0.1000 -0.4851
    endloop
endfacet
facet normal 0.0000 -10.0761 0.0000
    outer loop
        vertex 5.2540 -0.1000 0.0036
        vertex 5.2326 -0.1000 -0.3316
        vertex 5.6320 -0.1000 -1.6000
    endloop
endfacet
facet normal 0.0000 -14.2800 0.0000
    outer loop
        vertex 4.3761 -0.1000 0.0033
        vertex 4.8620 -0.1000 0.0033
        vertex 4.8273 -0.1000 0.4764
    endloop
endfacet
facet normal 0.0000 -11.6816 0.0000
    outer loop
        vertex 5.1686 -0.1000 -0.5974
        vertex 5.6320 -0.1000 -1.6000
        vertex 5.2326 -0.1000 -0.3316
    endloop
endfacet
facet normal 0.0000 -12.5852 0.0000
    outer loop
        vertex 4.8233 -0.1000 -0.4851
        vertex 4.8620 -0.1000 0.0033
        vertex 4.4108 -0.1000 -0.4698
    endloop
endfacet
facet normal 0.0000 -74.0750 0.0000
    outer loop
        vertex 5.6320 -0.1000 -1.6000
        vertex 5.6320 -0.1000 1.6000
        vertex 5.2540 -0.1000 0.0036
    endloop
endfacet
facet normal 0.0000 -11.5342 0.0000
    outer loop
        vertex 4.1587 -0.1000 -0.7747
        vertex 4.0276 -0.1000 -0.4695
        vertex 3.5452 -0.1000 -0.7569
    endloop
endfacet
facet normal 0.0000 -56.3905 0.0000
    outer loop
        vertex 3.0276 -0.1000 -0.9940
        vertex 1.5096 -0.1000 -0.9940
        vertex 5.6320 -0.1000 -1.6000
    endloop
endfacet
facet normal 0.0000 -4.4119 0.0000
    outer loop
        vertex 2.2260 -0.1000 0.0160
        vertex 2.4794 -0.1000 0.0827
        vertex 2.4380 -0.1000 0.3410
    endloop
endfacet
facet normal 0.0000 -3.9212 0.0000
    outer loop
        vertex 2.2260 -0.1000 0.0160
        vertex 2.6034 -0.1000 -0.1221
        vertex 2.4794 -0.1000 0.0827
    endloop
endfacet
facet normal 0.0000 -4.8457 0.0000
    outer loop
        vertex 2.4822 -0.1000 0.6093
        vertex 2.1783 -0.1000 0.4682
        vertex 2.4380 -0.1000 0.3410
    endloop
endfacet
facet normal 0.0000 -7.0477 0.0000
    outer loop
        vertex 2.4380 -0.1000 0.3410
        vertex 2.1783 -0.1000 0.4682
        vertex 2.2260 -0.1000 0.0160
    endloop
endfacet
facet normal 0.0000 -5.9236 0.0000
    outer loop
        vertex 2.8809 -0.1000 0.0627
        vertex 3.2504 -0.1000 0.0594
        vertex 3.3245 -0.1000 0.3103
    endloop
endfacet
facet normal 0.0000 -2.2127 0.0000
    outer loop
        vertex 3.2504 -0.1000 0.0594
        vertex 2.8809 -0.1000 0.0627
        vertex 3.0680 -0.1000 -0.0260
    endloop
endfacet
facet normal 0.0000 -8.9165 0.0000
    outer loop
        vertex 3.3245 -0.1000 0.3103
        vertex 2.8060 -0.1000 0.3410
        vertex 2.8809 -0.1000 0.0627
    endloop
endfacet
facet normal 0.0000 -9.0057 0.0000
    outer loop
        vertex 3.2411 -0.1000 0.5919
        vertex 2.8060 -0.1000 0.3410
        vertex 3.3245 -0.1000 0.3103
    endloop
endfacet
facet normal 0.0000 -7.3191 0.0000
    outer loop
        vertex 2.0352 -0.1000 0.7721
        vertex 2.4822 -0.1000 0.6093
        vertex 2.6148 -0.1000 0.8201
    endloop
endfacet
facet normal 0.0000 -7.1179 0.0000
    outer loop
        vertex 2.4822 -0.1000 0.6093
        vertex 2.0352 -0.1000 0.7721
        vertex 2.1783 -0.1000 0.4682
    endloop
endfacet
facet normal 0.0000 -8.4140 0.0000
    outer loop
        vertex 2.8157 -0.1000 0.9565
        vertex 1.8177 -0.1000 0.9445
        vertex 2.6148 -0.1000 0.8201
    endloop
endfacet
facet normal 0.0000 -6.9863 0.0000
    outer loop
        vertex 2.6148 -0.1000 0.8201
        vertex 1.8177 -0.1000 0.9445
        vertex 2.0352 -0.1000 0.7721
    endloop
endfacet
facet normal 0.0000 -2.2745 0.0000
    outer loop
        vertex 2.8749 -0.1000 0.6099
        vertex 3.2411 -0.1000 0.5919
        vertex 3.0479 -0.1000 0.6920
    endloop
endfacet
facet normal 0.0000 -3.9897 0.0000
    outer loop
        vertex 3.0650 -0.1000 1.0020
        vertex 3.3358 -0.1000 0.9445
        vertex 4.3663 -0.1000 0.9521
    endloop
endfacet
facet normal 0.0000 -6.3368 0.0000
    outer loop
        vertex 2.8060 -0.1000 0.3410
        vertex 3.2411 -0.1000 0.5919
        vertex 2.8749 -0.1000 0.6099
    endloop
endfacet
facet normal 0.0000 -4.4599 0.0000
    outer loop
        vertex 2.8157 -0.1000 0.9565
        vertex 3.0650 -0.1000 1.0020
        vertex 1.5470 -0.1000 1.0020
    endloop
endfacet
facet normal 0.0000 -8.4114 0.0000
    outer loop
        vertex 3.7440 -0.1000 0.0160
        vertex 4.0054 -0.1000 0.3410
        vertex 3.6963 -0.1000 0.4682
    endloop
endfacet
facet normal 0.0000 -5.1495 0.0000
    outer loop
        vertex 3.7440 -0.1000 0.0160
        vertex 3.9840 -0.1000 0.0073
        vertex 4.0054 -0.1000 0.3410
    endloop
endfacet
facet normal 0.0000 -8.3710 0.0000
    outer loop
        vertex 3.6963 -0.1000 0.4682
        vertex 4.0694 -0.1000 0.6058
        vertex 3.5533 -0.1000 0.7721
    endloop
endfacet
facet normal 0.0000 -5.7436 0.0000
    outer loop
        vertex 4.0694 -0.1000 0.6058
        vertex 3.6963 -0.1000 0.4682
        vertex 4.0054 -0.1000 0.3410
    endloop
endfacet
facet normal 0.0000 -4.4955 0.0000
    outer loop
        vertex 4.8273 -0.1000 0.4764
        vertex 4.7398 -0.1000 0.6486
        vertex 4.4147 -0.1000 0.4932
    endloop
endfacet
facet normal 0.0000 -11.6044 0.0000
    outer loop
        vertex 5.2328 -0.1000 0.3392
        vertex 5.6320 -0.1000 1.6000
        vertex 5.1693 -0.1000 0.6047
    endloop
endfacet
facet normal 0.0000 -12.6240 0.0000
    outer loop
        vertex 4.3761 -0.1000 0.0033
        vertex 4.8273 -0.1000 0.4764
        vertex 4.4147 -0.1000 0.4932
    endloop
endfacet
facet normal 0.0000 -2.5481 0.0000
    outer loop
        vertex 4.4975 -0.1000 0.6486
        vertex 4.4147 -0.1000 0.4932
        vertex 4.7398 -0.1000 0.6486
    endloop
endfacet
facet normal 0.0000 -7.5144 0.0000
    outer loop
        vertex 4.0694 -0.1000 0.6058
        vertex 4.1761 -0.1000 0.8020
        vertex 3.5533 -0.1000 0.7721
    endloop
endfacet
facet normal 0.0000 -9.5981 0.0000
    outer loop
        vertex 4.3663 -0.1000 0.9521
        vertex 3.3358 -0.1000 0.9445
        vertex 4.1761 -0.1000 0.8020
    endloop
endfacet
facet normal 0.0000 -7.2021 0.0000
    outer loop
        vertex 4.1761 -0.1000 0.8020
        vertex 3.3358 -0.1000 0.9445
        vertex 3.5533 -0.1000 0.7721
    endloop
endfacet
facet normal 0.0000 -0.8917 0.0000
    outer loop
        vertex 4.6190 -0.1000 0.6920
        vertex 4.4975 -0.1000 0.6486
        vertex 4.7398 -0.1000 0.6486
    endloop
endfacet
facet normal 0.0000 -12.6169 0.0000
    outer loop
        vertex 4.6191 -0.1000 1.0020
        vertex 4.8723 -0.1000 0.9514
        vertex 5.6320 -0.1000 1.6000
    endloop
endfacet
facet normal 0.0000 -14.8429 0.0000
    outer loop
        vertex 5.6320 -0.1000 1.6000
        vertex 4.8723 -0.1000 0.9514
        vertex 5.0633 -0.1000 0.7997
    endloop
endfacet
facet normal 0.0000 -56.9774 0.0000
    outer loop
        vertex 4.6191 -0.1000 1.0020
        vertex 5.6320 -0.1000 1.6000
        vertex 3.0650 -0.1000 1.0020
    endloop
endfacet
facet normal 0.0000 -12.1978 0.0000
    outer loop
        vertex 5.0633 -0.1000 0.7997
        vertex 5.1693 -0.1000 0.6047
        vertex 5.6320 -0.1000 1.6000
    endloop
endfacet
facet normal 0.0000 -4.9854 0.0000
    outer loop
        vertex 4.3663 -0.1000 0.9521
        vertex 4.6191 -0.1000 1.0020
        vertex 3.0650 -0.1000 1.0020
    endloop
endfacet
facet normal 0.0000 -10.0631 0.0000
    outer loop
        vertex 5.2328 -0.1000 0.3392
        vertex 5.2540 -0.1000 0.0036
        vertex 5.6320 -0.1000 1.6000
    endloop
endfacet
facet normal 0.0000 -55.6552 0.0000
    outer loop
        vertex 3.0650 -0.1000 1.0020
        vertex 5.6320 -0.1000 1.6000
        vertex 1.5470 -0.1000 1.0020
    endloop
endfacet
facet normal 0.0000 30.0000 0.0000
    outer loop
        vertex 6.2000 -0.1000 2.2000
        vertex 7.0000 -0.1000 3.0000
        vertex 7.0000 -0.1000 -3.0000
    endloop
endfacet
facet normal 0.0000 22.0000 0.0000
    outer loop
        vertex 7.0000 -0.1000 -3.0000
        vertex 6.2000 -0.1000 -2.2000
        vertex 6.2000 -0.1000 2.2000
    endloop
endfacet
facet normal 0.0000 70.0000 0.0000
    outer loop
        vertex 6.2000 -0.1000 -2.2000
        vertex 7.0000 -0.1000 -3.0000
        vertex -7.0000 -0.1000 -3.0000
    endloop
endfacet
facet normal 0.0000 62.0000 0.0000
    outer loop
        vertex -7.0000 -0.1000 -3.0000
        vertex -6.2000 -0.1000 -2.2000
        vertex 6.2000 -0.1000 -2.2000
    endloop
endfacet
facet normal 0.0000 30.0000 0.0000
    outer loop
        vertex -6.2000 -0.1000 -2.2000
        vertex -7.0000 -0.1000 -3.0000
        vertex -7.0000 -0.1000 3.0000
    endloop
endfacet
facet normal 0.0000 22.0000 0.0000
    outer loop
        vertex -7.0000 -0.1000 3.0000
        vertex -6.2000 -0.1000 2.2000
        vertex -6.2000 -0.1000 -2.2000
    endloop
endfacet
facet normal 0.0000 70.0000 0.0000
    outer loop
        vertex -6.2000 -0.1000 2.2000
        vertex -7.0000 -0.1000 3.0000
        vertex 7.0000 -0.1000 3.0000
    endloop
endfacet
facet normal 0.0000 62.0000 0.0000
    outer loop
        vertex 7.0000 -0.1000 3.0000
        vertex 6.2000 -0.1000 2.2000
        vertex -6.2000 -0.1000 2.2000
    endloop
endfacet
facet normal 0.0000 11.3600 0.0000
    outer loop
        vertex 6.2000 -0.1000 -2.2000
        vertex 5.6320 -0.1000 -1.6000
        vertex 5.6320 -0.1000 1.6000
    endloop
endfacet
facet normal 0.0000 15.6200 0.0000
    outer loop
        vertex 5.6320 -0.1000 1.6000
        vertex 6.2000 -0.1000 2.2000
        vertex 6.2000 -0.1000 -2.2000
    endloop
endfacet
facet normal 0.0000 42.2400 0.0000
    outer loop
        vertex 6.2000 -0.1000 2.2000
        vertex 5.6320 -0.1000 1.6000
        vertex -5.6320 -0.1000 1.6000
    endloop
endfacet
facet normal 0.0000 46.5000 0.0000
    outer loop
        vertex -5.6320 -0.1000 1.6000
        vertex -6.2000 -0.1000 2.2000
        vertex 6.2000 -0.1000 2.2000
    endloop
endfacet
facet normal 0.0000 11.3600 0.0000
    outer loop
        vertex -6.2000 -0.1000 2.2000
        vertex -5.6320 -0.1000 1.6000
        vertex -5.6320 -0.1000 -1.6000
    endloop
endfacet
facet normal 0.0000 15.6200 0.0000
    outer loop
        vertex -5.6320 -0.1000 -1.6000
        vertex -6.2000 -0.1000 -2.2000
        vertex -6.2000 -0.1000 2.2000
    endloop
endfacet
facet normal 0.0000 42.2400 0.0000
    outer loop
        vertex -6.2000 -0.1000 -2.2000
        vertex -5.6320 -0.1000 -1.6000
        vertex 5.6320 -0.1000 -1.6000
    endloop
endfacet
facet normal 0.0000 46.5000 0.0000
    outer loop
        vertex 5.6320 -0.1000 -1.6000
        vertex 6.2000 -0.1000 -2.2000
        vertex -6.2000 -0.1000 -2.2000
    endloop
endfacet
endsolid GiantLegoRocks
