solid GiantLegoRocks
facet normal 0.0000 0.7500 0.0000
    outer loop
        vertex 15.6000 0.0000 3.2000
        vertex 15.6000 0.0000 -3.2000
        vertex -15.6000 0.0000 -3.2000
    endloop
endfacet
facet normal 0.0000 0.7500 0.0000
    outer loop
        vertex -15.6000 0.0000 -3.2000
        vertex -15.6000 0.0000 3.2000
        vertex 15.6000 0.0000 3.2000
    endloop
endfacet
facet normal 0.0000 -0.2500 16.0000
    outer loop
        vertex -15.6000 -0.1000 3.2000
        vertex 15.6000 -0.1000 3.2000
        vertex 15.6000 0.0000 3.2000
    endloop
endfacet
facet normal 0.0000 -0.2500 16.0000
    outer loop
        vertex 15.6000 0.0000 3.2000
        vertex -15.6000 0.0000 3.2000
        vertex -15.6000 -0.1000 3.2000
    endloop
endfacet
facet normal -78.0000 -0.2500 0.0000
    outer loop
        vertex -15.6000 -0.1000 -3.2000
        vertex -15.6000 -0.1000 3.2000
        vertex -15.6000 0.0000 3.2000
    endloop
endfacet
facet normal -78.0000 -0.2500 0.0000
    outer loop
        vertex -15.6000 0.0000 3.2000
        vertex -15.6000 0.0000 -3.2000
        vertex -15.6000 -0.1000 -3.2000
    endloop
endfacet
facet normal 0.0000 -0.2500 -16.0000
    outer loop
        vertex 15.6000 -0.1000 -3.2000
        vertex -15.6000 -0.1000 -3.2000
        vertex -15.6000 0.0000 -3.2000
    endloop
endfacet
facet normal 0.0000 -0.2500 -16.0000
    outer loop
        vertex -15.6000 0.0000 -3.2000
        vertex 15.6000 0.0000 -3.2000
        vertex 15.6000 -0.1000 -3.2000
    endloop
endfacet
facet normal 78.0000 -0.2500 0.0000
    outer loop
        vertex 15.6000 -0.1000 3.2000
        vertex 15.6000 -0.1000 -3.2000
        vertex 15.6000 0.0000 -3.2000
    endloop
endfacet
facet normal 78.0000 -0.2500 0.0000
    outer loop
        vertex 15.6000 0.0000 -3.2000
        vertex 15.6000 0.0000 3.2000
        vertex 15.6000 -0.1000 3.2000
    endloop
endfacet
facet normal 0.0000 -3.8400 0.0000
    outer loop
        vertex -15.6000 -0.1000 -0.6800
        vertex -15.1200 -0.1000 -0.0400
        vertex -15.1200 -0.1000 1.2400
    endloop
endfacet
facet normal 0.0000 -11.6400 0.0000
    outer loop
        vertex -15.1200 -0.1000 1.2400
        vertex -15.6000 -0.1000 3.2000
        vertex -15.6000 -0.1000 -0.6800
    endloop
endfacet
facet normal 0.0000 -11.4900 0.0000
    outer loop
        vertex -15.6000 -0.1000 3.2000
        vertex -15.1200 -0.1000 1.2400
        vertex -14.2800 -0.1000 1.6400
    endloop
endfacet
facet normal 0.0000 -8.1600 0.0000
    outer loop
        vertex -14.2800 -0.1000 1.6400
        vertex -14.1200 -0.1000 2.4400
        vertex -15.6000 -0.1000 3.2000
    endloop
endfacet
facet normal 0.0000 -29.7600 0.0000
    outer loop
        vertex -5.6800 -0.1000 3.2000
        vertex -15.6000 -0.1000 3.2000
        vertex -11.0000 -0.1000 2.7200
    endloop
endfacet
facet normal 0.0000 -13.0000 0.0000
    outer loop
        vertex -11.0000 -0.1000 2.7200
        vertex -8.4400 -0.1000 2.5600
        vertex -5.6800 -0.1000 3.2000
    endloop
endfacet
facet normal 0.0000 -3.0100 0.0000
    outer loop
        vertex -5.6800 -0.1000 3.2000
        vertex -8.4400 -0.1000 2.5600
        vertex -6.4800 -0.1000 2.8400
    endloop
endfacet
facet normal 0.0000 -17.4100 0.0000
    outer loop
        vertex -11.0000 -0.1000 2.7200
        vertex -15.6000 -0.1000 3.2000
        vertex -14.1200 -0.1000 2.4400
    endloop
endfacet
facet normal 0.0000 -4.4300 0.0000
    outer loop
        vertex -14.1200 -0.1000 2.4400
        vertex -12.4800 -0.1000 2.3600
        vertex -11.0000 -0.1000 2.7200
    endloop
endfacet
facet normal 0.0000 -43.0800 0.0000
    outer loop
        vertex 3.6800 -0.1000 2.7200
        vertex 10.6800 -0.1000 3.2000
        vertex -3.6800 -0.1000 3.2000
    endloop
endfacet
facet normal 0.0000 -19.0800 0.0000
    outer loop
        vertex -3.6800 -0.1000 3.2000
        vertex -0.8400 -0.1000 2.6000
        vertex 3.6800 -0.1000 2.7200
    endloop
endfacet
facet normal 0.0000 -13.1500 0.0000
    outer loop
        vertex 3.6800 -0.1000 2.7200
        vertex -0.8400 -0.1000 2.6000
        vertex 0.1200 -0.1000 2.1600
    endloop
endfacet
facet normal 0.0000 -17.8000 0.0000
    outer loop
        vertex 10.6800 -0.1000 3.2000
        vertex 3.6800 -0.1000 2.7200
        vertex 7.2800 -0.1000 2.5600
    endloop
endfacet
facet normal 0.0000 -5.8200 0.0000
    outer loop
        vertex 0.6000 -0.1000 -2.2800
        vertex -0.1600 -0.1000 -2.8400
        vertex 1.7200 -0.1000 -2.6800
    endloop
endfacet
facet normal 0.0000 -8.5400 0.0000
    outer loop
        vertex 15.1600 -0.1000 -1.7600
        vertex 14.4800 -0.1000 -2.6400
        vertex 15.6000 -0.1000 -3.2000
    endloop
endfacet
facet normal 0.0000 -2.5100 0.0000
    outer loop
        vertex 15.6000 -0.1000 -0.1200
        vertex 15.2800 -0.1000 -0.4000
        vertex 15.1600 -0.1000 -1.7600
    endloop
endfacet
facet normal 0.0000 -8.4700 0.0000
    outer loop
        vertex 15.1600 -0.1000 -1.7600
        vertex 15.6000 -0.1000 -3.2000
        vertex 15.6000 -0.1000 -0.1200
    endloop
endfacet
facet normal 0.0000 -48.4200 0.0000
    outer loop
        vertex -0.1600 -0.1000 -2.8400
        vertex -5.9200 -0.1000 -3.2000
        vertex 15.6000 -0.1000 -3.2000
    endloop
endfacet
facet normal 0.0000 -19.9900 0.0000
    outer loop
        vertex 1.7200 -0.1000 -2.6800
        vertex -0.1600 -0.1000 -2.8400
        vertex 15.6000 -0.1000 -3.2000
    endloop
endfacet
facet normal 0.0000 -12.2600 0.0000
    outer loop
        vertex 15.6000 -0.1000 -3.2000
        vertex 6.5600 -0.1000 -2.7200
        vertex 1.7200 -0.1000 -2.6800
    endloop
endfacet
facet normal 0.0000 -5.2400 0.0000
    outer loop
        vertex 3.3200 -0.1000 -2.5200
        vertex 1.7200 -0.1000 -2.6800
        vertex 6.5600 -0.1000 -2.7200
    endloop
endfacet
facet normal 0.0000 -2.8600 0.0000
    outer loop
        vertex 6.5600 -0.1000 -2.7200
        vertex 4.9600 -0.1000 -2.4800
        vertex 3.3200 -0.1000 -2.5200
    endloop
endfacet
facet normal 0.0000 -1.4400 0.0000
    outer loop
        vertex 2.6800 -0.1000 -2.4400
        vertex 1.7200 -0.1000 -2.6800
        vertex 3.3200 -0.1000 -2.5200
    endloop
endfacet
facet normal 0.0000 -1.1900 0.0000
    outer loop
        vertex 4.5600 -0.1000 -2.2000
        vertex 4.1200 -0.1000 -2.1600
        vertex 3.3200 -0.1000 -2.5200
    endloop
endfacet
facet normal 0.0000 -2.9700 0.0000
    outer loop
        vertex 3.3200 -0.1000 -2.5200
        vertex 4.9600 -0.1000 -2.4800
        vertex 4.5600 -0.1000 -2.2000
    endloop
endfacet
facet normal 0.0000 -35.4600 0.0000
    outer loop
        vertex 11.6000 -0.1000 -2.3600
        vertex 6.5600 -0.1000 -2.7200
        vertex 15.6000 -0.1000 -3.2000
    endloop
endfacet
facet normal 0.0000 -8.1200 0.0000
    outer loop
        vertex 15.6000 -0.1000 -3.2000
        vertex 14.4800 -0.1000 -2.6400
        vertex 11.6000 -0.1000 -2.3600
    endloop
endfacet
facet normal 0.0000 -4.5600 0.0000
    outer loop
        vertex 12.5600 -0.1000 -2.2000
        vertex 11.6000 -0.1000 -2.3600
        vertex 14.4800 -0.1000 -2.6400
    endloop
endfacet
facet normal 0.0000 -8.4600 0.0000
    outer loop
        vertex 10.6400 -0.1000 -2.1600
        vertex 6.5600 -0.1000 -2.7200
        vertex 11.6000 -0.1000 -2.3600
    endloop
endfacet
facet normal 0.0000 -8.4600 0.0000
    outer loop
        vertex -2.6400 -0.1000 -2.7600
        vertex -5.9200 -0.1000 -3.2000
        vertex -0.1600 -0.1000 -2.8400
    endloop
endfacet
facet normal 0.0000 -1.6700 0.0000
    outer loop
        vertex -12.6800 -0.1000 -1.6800
        vertex -13.2800 -0.1000 -1.7600
        vertex -12.6400 -0.1000 -2.1200
    endloop
endfacet
facet normal 0.0000 -1.3500 0.0000
    outer loop
        vertex -9.9600 -0.1000 0.1200
        vertex -9.9600 -0.1000 -0.2400
        vertex -9.3600 -0.1000 -0.2400
    endloop
endfacet
facet normal 0.0000 -1.9500 0.0000
    outer loop
        vertex -9.3600 -0.1000 -0.2400
        vertex -9.1600 -0.1000 0.1600
        vertex -9.9600 -0.1000 0.1200
    endloop
endfacet
facet normal 0.0000 -1.8600 0.0000
    outer loop
        vertex -12.6800 -0.1000 0.4800
        vertex -12.5200 -0.1000 0.0800
        vertex -11.7600 -0.1000 0.0400
    endloop
endfacet
facet normal 0.0000 -3.8300 0.0000
    outer loop
        vertex -11.7600 -0.1000 0.0400
        vertex -12.0400 -0.1000 0.8400
        vertex -12.6800 -0.1000 0.4800
    endloop
endfacet
facet normal 0.0000 -5.4400 0.0000
    outer loop
        vertex -12.0400 -0.1000 0.8400
        vertex -11.7600 -0.1000 0.0400
        vertex -10.8400 -0.1000 0.5200
    endloop
endfacet
facet normal 0.0000 -3.9400 0.0000
    outer loop
        vertex -10.8400 -0.1000 0.5200
        vertex -11.1200 -0.1000 1.1200
        vertex -12.0400 -0.1000 0.8400
    endloop
endfacet
facet normal 0.0000 -2.5500 0.0000
    outer loop
        vertex -10.4400 -0.1000 1.1200
        vertex -11.1200 -0.1000 1.1200
        vertex -10.8400 -0.1000 0.5200
    endloop
endfacet
facet normal 0.0000 -0.8600 0.0000
    outer loop
        vertex -2.4400 -0.1000 -1.0400
        vertex -2.6800 -0.1000 -1.3600
        vertex -2.4000 -0.1000 -1.5600
    endloop
endfacet
facet normal 0.0000 -1.9900 0.0000
    outer loop
        vertex -2.4000 -0.1000 -1.5600
        vertex -1.8400 -0.1000 -0.8800
        vertex -2.4400 -0.1000 -1.0400
    endloop
endfacet
facet normal 0.0000 -2.3300 0.0000
    outer loop
        vertex -1.8400 -0.1000 -0.8800
        vertex -2.4000 -0.1000 -1.5600
        vertex -1.7200 -0.1000 -1.4000
    endloop
endfacet
facet normal 0.0000 -1.3700 0.0000
    outer loop
        vertex -1.7200 -0.1000 -1.4000
        vertex -1.4000 -0.1000 -0.9600
        vertex -1.8400 -0.1000 -0.8800
    endloop
endfacet
facet normal 0.0000 -1.8400 0.0000
    outer loop
        vertex 10.9600 -0.1000 -0.4000
        vertex 11.1200 -0.1000 -0.8000
        vertex 11.8400 -0.1000 -0.7600
    endloop
endfacet
facet normal 0.0000 -4.2700 0.0000
    outer loop
        vertex 11.8400 -0.1000 -0.7600
        vertex 11.8800 -0.1000 0.0000
        vertex 10.9600 -0.1000 -0.4000
    endloop
endfacet
facet normal 0.0000 -4.2100 0.0000
    outer loop
        vertex 11.8800 -0.1000 0.0000
        vertex 11.8400 -0.1000 -0.7600
        vertex 12.7600 -0.1000 -0.1200
    endloop
endfacet
facet normal 0.0000 -1.6100 0.0000
    outer loop
        vertex 12.7600 -0.1000 -0.1200
        vertex 12.5600 -0.1000 0.2000
        vertex 11.8800 -0.1000 0.0000
    endloop
endfacet
facet normal 0.0000 -1.1000 0.0000
    outer loop
        vertex 12.5600 -0.1000 0.2000
        vertex 12.7600 -0.1000 -0.1200
        vertex 13.1600 -0.1000 0.1200
    endloop
endfacet
facet normal 0.0000 -0.9600 0.0000
    outer loop
        vertex 13.2000 -0.1000 -0.6400
        vertex 13.2000 -0.1000 -0.9600
        vertex 13.6800 -0.1000 -0.9200
    endloop
endfacet
facet normal 0.0000 -0.9300 0.0000
    outer loop
        vertex 13.6800 -0.1000 -0.9200
        vertex 13.8000 -0.1000 -0.6800
        vertex 13.2000 -0.1000 -0.6400
    endloop
endfacet
facet normal 0.0000 -36.5400 0.0000
    outer loop
        vertex -13.2800 -0.1000 -1.7600
        vertex -15.6000 -0.1000 -0.6800
        vertex -15.6000 -0.1000 -3.2000
    endloop
endfacet
facet normal 0.0000 -10.9800 0.0000
    outer loop
        vertex -15.6000 -0.1000 -3.2000
        vertex -12.6400 -0.1000 -2.1200
        vertex -13.2800 -0.1000 -1.7600
    endloop
endfacet
facet normal 0.0000 -65.3400 0.0000
    outer loop
        vertex -12.6400 -0.1000 -2.1200
        vertex -15.6000 -0.1000 -3.2000
        vertex -5.9200 -0.1000 -3.2000
    endloop
endfacet
facet normal 0.0000 -18.2100 0.0000
    outer loop
        vertex -12.6800 -0.1000 -1.6800
        vertex -12.6400 -0.1000 -2.1200
        vertex -5.9200 -0.1000 -3.2000
    endloop
endfacet
facet normal 0.0000 -86.6800 0.0000
    outer loop
        vertex -5.9200 -0.1000 -3.2000
        vertex -9.9600 -0.1000 -0.2400
        vertex -12.6800 -0.1000 -1.6800
    endloop
endfacet
facet normal 0.0000 -11.1000 0.0000
    outer loop
        vertex -9.3600 -0.1000 -0.2400
        vertex -9.9600 -0.1000 -0.2400
        vertex -5.9200 -0.1000 -3.2000
    endloop
endfacet
facet normal 0.0000 -12.3000 0.0000
    outer loop
        vertex -9.1600 -0.1000 0.1600
        vertex -9.3600 -0.1000 -0.2400
        vertex -5.9200 -0.1000 -3.2000
    endloop
endfacet
facet normal 0.0000 -105.3000 0.0000
    outer loop
        vertex -5.9200 -0.1000 -3.2000
        vertex -2.6800 -0.1000 -1.3600
        vertex -9.1600 -0.1000 0.1600
    endloop
endfacet
facet normal 0.0000 -28.8100 0.0000
    outer loop
        vertex -2.6800 -0.1000 -1.3600
        vertex -5.9200 -0.1000 -3.2000
        vertex -2.6400 -0.1000 -2.7600
    endloop
endfacet
facet normal 0.0000 -2.4000 0.0000
    outer loop
        vertex -2.6400 -0.1000 -2.7600
        vertex -2.4000 -0.1000 -1.5600
        vertex -2.6800 -0.1000 -1.3600
    endloop
endfacet
facet normal 0.0000 -4.8600 0.0000
    outer loop
        vertex -1.7200 -0.1000 -1.4000
        vertex -2.4000 -0.1000 -1.5600
        vertex -2.6400 -0.1000 -2.7600
    endloop
endfacet
facet normal 0.0000 -21.5400 0.0000
    outer loop
        vertex -2.6400 -0.1000 -2.7600
        vertex -0.1600 -0.1000 -2.8400
        vertex -1.7200 -0.1000 -1.4000
    endloop
endfacet
facet normal 0.0000 -7.1700 0.0000
    outer loop
        vertex -1.4000 -0.1000 -0.9600
        vertex -1.7200 -0.1000 -1.4000
        vertex -0.1600 -0.1000 -2.8400
    endloop
endfacet
facet normal 0.0000 -13.2700 0.0000
    outer loop
        vertex -0.1600 -0.1000 -2.8400
        vertex 0.6000 -0.1000 -2.2800
        vertex -1.4000 -0.1000 -0.9600
    endloop
endfacet
facet normal 0.0000 -12.5200 0.0000
    outer loop
        vertex -15.1200 -0.1000 -0.0400
        vertex -15.6000 -0.1000 -0.6800
        vertex -13.2800 -0.1000 -1.7600
    endloop
endfacet
facet normal 0.0000 -29.3300 0.0000
    outer loop
        vertex -13.2800 -0.1000 -1.7600
        vertex -12.5200 -0.1000 0.0800
        vertex -15.1200 -0.1000 -0.0400
    endloop
endfacet
facet normal 0.0000 -6.5200 0.0000
    outer loop
        vertex -12.5200 -0.1000 0.0800
        vertex -13.2800 -0.1000 -1.7600
        vertex -12.6800 -0.1000 -1.6800
    endloop
endfacet
facet normal 0.0000 -8.4000 0.0000
    outer loop
        vertex -12.6800 -0.1000 -1.6800
        vertex -11.7600 -0.1000 0.0400
        vertex -12.5200 -0.1000 0.0800
    endloop
endfacet
facet normal 0.0000 -20.9600 0.0000
    outer loop
        vertex -11.7600 -0.1000 0.0400
        vertex -12.6800 -0.1000 -1.6800
        vertex -9.9600 -0.1000 -0.2400
    endloop
endfacet
facet normal 0.0000 -7.0100 0.0000
    outer loop
        vertex -9.9600 -0.1000 -0.2400
        vertex -10.8400 -0.1000 0.5200
        vertex -11.7600 -0.1000 0.0400
    endloop
endfacet
facet normal 0.0000 -1.9800 0.0000
    outer loop
        vertex -10.8400 -0.1000 0.5200
        vertex -9.9600 -0.1000 -0.2400
        vertex -9.9600 -0.1000 0.1200
    endloop
endfacet
facet normal 0.0000 -4.3000 0.0000
    outer loop
        vertex -9.9600 -0.1000 0.1200
        vertex -10.4400 -0.1000 1.1200
        vertex -10.8400 -0.1000 0.5200
    endloop
endfacet
facet normal 0.0000 -5.1200 0.0000
    outer loop
        vertex -10.4400 -0.1000 1.1200
        vertex -9.9600 -0.1000 0.1200
        vertex -9.1600 -0.1000 0.1600
    endloop
endfacet
facet normal 0.0000 -23.5200 0.0000
    outer loop
        vertex -9.1600 -0.1000 0.1600
        vertex -8.4400 -0.1000 2.5600
        vertex -10.4400 -0.1000 1.1200
    endloop
endfacet
facet normal 0.0000 -6.6200 0.0000
    outer loop
        vertex -15.1200 -0.1000 -0.0400
        vertex -12.5200 -0.1000 0.0800
        vertex -12.6800 -0.1000 0.4800
    endloop
endfacet
facet normal 0.0000 -22.8900 0.0000
    outer loop
        vertex -12.6800 -0.1000 0.4800
        vertex -14.2800 -0.1000 1.6400
        vertex -15.1200 -0.1000 -0.0400
    endloop
endfacet
facet normal 0.0000 -6.7200 0.0000
    outer loop
        vertex -14.2800 -0.1000 1.6400
        vertex -15.1200 -0.1000 1.2400
        vertex -15.1200 -0.1000 -0.0400
    endloop
endfacet
facet normal 0.0000 -8.2800 0.0000
    outer loop
        vertex -12.4800 -0.1000 2.3600
        vertex -14.1200 -0.1000 2.4400
        vertex -14.2800 -0.1000 1.6400
    endloop
endfacet
facet normal 0.0000 -20.2500 0.0000
    outer loop
        vertex -14.2800 -0.1000 1.6400
        vertex -12.6800 -0.1000 0.4800
        vertex -12.4800 -0.1000 2.3600
    endloop
endfacet
facet normal 0.0000 -7.0700 0.0000
    outer loop
        vertex -12.4800 -0.1000 2.3600
        vertex -12.6800 -0.1000 0.4800
        vertex -12.0400 -0.1000 0.8400
    endloop
endfacet
facet normal 0.0000 -15.0500 0.0000
    outer loop
        vertex -12.0400 -0.1000 0.8400
        vertex -11.0000 -0.1000 2.7200
        vertex -12.4800 -0.1000 2.3600
    endloop
endfacet
facet normal 0.0000 -8.9900 0.0000
    outer loop
        vertex -11.0000 -0.1000 2.7200
        vertex -12.0400 -0.1000 0.8400
        vertex -11.1200 -0.1000 1.1200
    endloop
endfacet
facet normal 0.0000 -6.8000 0.0000
    outer loop
        vertex -11.0000 -0.1000 2.7200
        vertex -11.1200 -0.1000 1.1200
        vertex -10.4400 -0.1000 1.1200
    endloop
endfacet
facet normal 0.0000 -25.0400 0.0000
    outer loop
        vertex -10.4400 -0.1000 1.1200
        vertex -8.4400 -0.1000 2.5600
        vertex -11.0000 -0.1000 2.7200
    endloop
endfacet
facet normal 0.0000 -28.1400 0.0000
    outer loop
        vertex -6.4800 -0.1000 2.8400
        vertex -8.4400 -0.1000 2.5600
        vertex -9.1600 -0.1000 0.1600
    endloop
endfacet
facet normal 0.0000 -134.0000 0.0000
    outer loop
        vertex -9.1600 -0.1000 0.1600
        vertex -2.6800 -0.1000 -1.3600
        vertex -6.4800 -0.1000 2.8400
    endloop
endfacet
facet normal 0.0000 -13.9000 0.0000
    outer loop
        vertex -6.4800 -0.1000 2.8400
        vertex -2.6800 -0.1000 -1.3600
        vertex -2.4400 -0.1000 -1.0400
    endloop
endfacet
facet normal 0.0000 -28.4900 0.0000
    outer loop
        vertex -2.4400 -0.1000 -1.0400
        vertex -5.6800 -0.1000 3.2000
        vertex -6.4800 -0.1000 2.8400
    endloop
endfacet
facet normal 0.0000 -53.0000 0.0000
    outer loop
        vertex -3.6800 -0.1000 3.2000
        vertex -5.6800 -0.1000 3.2000
        vertex -2.4400 -0.1000 -1.0400
    endloop
endfacet
facet normal 0.0000 -17.1400 0.0000
    outer loop
        vertex -2.4400 -0.1000 -1.0400
        vertex -1.8400 -0.1000 -0.8800
        vertex -3.6800 -0.1000 3.2000
    endloop
endfacet
facet normal 0.0000 -65.5200 0.0000
    outer loop
        vertex -0.8400 -0.1000 2.6000
        vertex -3.6800 -0.1000 3.2000
        vertex -1.8400 -0.1000 -0.8800
    endloop
endfacet
facet normal 0.0000 -10.0700 0.0000
    outer loop
        vertex -1.8400 -0.1000 -0.8800
        vertex -1.4000 -0.1000 -0.9600
        vertex -0.8400 -0.1000 2.6000
    endloop
endfacet
facet normal 0.0000 -22.9000 0.0000
    outer loop
        vertex 0.1200 -0.1000 2.1600
        vertex -0.8400 -0.1000 2.6000
        vertex -1.4000 -0.1000 -0.9600
    endloop
endfacet
facet normal 0.0000 -51.5400 0.0000
    outer loop
        vertex -1.4000 -0.1000 -0.9600
        vertex 0.6000 -0.1000 -2.2800
        vertex 0.1200 -0.1000 2.1600
    endloop
endfacet
facet normal 0.0000 -57.2400 0.0000
    outer loop
        vertex 2.6800 -0.1000 -2.4400
        vertex 0.1200 -0.1000 2.1600
        vertex 0.6000 -0.1000 -2.2800
    endloop
endfacet
facet normal 0.0000 -4.0800 0.0000
    outer loop
        vertex 0.6000 -0.1000 -2.2800
        vertex 1.7200 -0.1000 -2.6800
        vertex 2.6800 -0.1000 -2.4400
    endloop
endfacet
facet normal 0.0000 -1.8400 0.0000
    outer loop
        vertex 2.6800 -0.1000 -2.4400
        vertex 3.3200 -0.1000 -2.5200
        vertex 4.1200 -0.1000 -2.1600
    endloop
endfacet
facet normal 0.0000 -45.8800 0.0000
    outer loop
        vertex 4.1200 -0.1000 -2.1600
        vertex 0.1200 -0.1000 2.1600
        vertex 2.6800 -0.1000 -2.4400
    endloop
endfacet
facet normal 0.0000 -110.1200 0.0000
    outer loop
        vertex 3.6800 -0.1000 2.7200
        vertex 0.1200 -0.1000 2.1600
        vertex 4.1200 -0.1000 -2.1600
    endloop
endfacet
facet normal 0.0000 -13.3100 0.0000
    outer loop
        vertex 4.1200 -0.1000 -2.1600
        vertex 4.5600 -0.1000 -2.2000
        vertex 3.6800 -0.1000 2.7200
    endloop
endfacet
facet normal 0.0000 -109.8200 0.0000
    outer loop
        vertex 7.2800 -0.1000 2.5600
        vertex 3.6800 -0.1000 2.7200
        vertex 4.5600 -0.1000 -2.2000
    endloop
endfacet
facet normal 0.0000 -16.6600 0.0000
    outer loop
        vertex 4.5600 -0.1000 -2.2000
        vertex 4.9600 -0.1000 -2.4800
        vertex 7.2800 -0.1000 2.5600
    endloop
endfacet
facet normal 0.0000 -53.8800 0.0000
    outer loop
        vertex 7.2800 -0.1000 2.5600
        vertex 4.9600 -0.1000 -2.4800
        vertex 6.5600 -0.1000 -2.7200
    endloop
endfacet
facet normal 0.0000 -134.7600 0.0000
    outer loop
        vertex 6.5600 -0.1000 -2.7200
        vertex 10.9600 -0.1000 -0.4000
        vertex 7.2800 -0.1000 2.5600
    endloop
endfacet
facet normal 0.0000 -13.3200 0.0000
    outer loop
        vertex 11.1200 -0.1000 -0.8000
        vertex 10.9600 -0.1000 -0.4000
        vertex 6.5600 -0.1000 -2.7200
    endloop
endfacet
facet normal 0.0000 -33.0000 0.0000
    outer loop
        vertex 6.5600 -0.1000 -2.7200
        vertex 10.6400 -0.1000 -2.1600
        vertex 11.1200 -0.1000 -0.8000
    endloop
endfacet
facet normal 0.0000 -6.0000 0.0000
    outer loop
        vertex 11.8400 -0.1000 -0.7600
        vertex 11.1200 -0.1000 -0.8000
        vertex 10.6400 -0.1000 -2.1600
    endloop
endfacet
facet normal 0.0000 -9.9000 0.0000
    outer loop
        vertex 10.6400 -0.1000 -2.1600
        vertex 11.6000 -0.1000 -2.3600
        vertex 11.8400 -0.1000 -0.7600
    endloop
endfacet
facet normal 0.0000 -9.3600 0.0000
    outer loop
        vertex 11.8400 -0.1000 -0.7600
        vertex 11.6000 -0.1000 -2.3600
        vertex 12.5600 -0.1000 -2.2000
    endloop
endfacet
facet normal 0.0000 -11.3400 0.0000
    outer loop
        vertex 12.5600 -0.1000 -2.2000
        vertex 13.2000 -0.1000 -0.9600
        vertex 11.8400 -0.1000 -0.7600
    endloop
endfacet
facet normal 0.0000 -2.7200 0.0000
    outer loop
        vertex 11.8400 -0.1000 -0.7600
        vertex 13.2000 -0.1000 -0.9600
        vertex 13.2000 -0.1000 -0.6400
    endloop
endfacet
facet normal 0.0000 -4.7500 0.0000
    outer loop
        vertex 13.2000 -0.1000 -0.6400
        vertex 12.7600 -0.1000 -0.1200
        vertex 11.8400 -0.1000 -0.7600
    endloop
endfacet
facet normal 0.0000 -1.9600 0.0000
    outer loop
        vertex 13.1600 -0.1000 0.1200
        vertex 12.7600 -0.1000 -0.1200
        vertex 13.2000 -0.1000 -0.6400
    endloop
endfacet
facet normal 0.0000 -2.8400 0.0000
    outer loop
        vertex 13.2000 -0.1000 -0.6400
        vertex 13.8000 -0.1000 -0.6800
        vertex 13.1600 -0.1000 0.1200
    endloop
endfacet
facet normal 0.0000 -8.5200 0.0000
    outer loop
        vertex 13.1600 -0.1000 0.1200
        vertex 13.8000 -0.1000 -0.6800
        vertex 15.2800 -0.1000 -0.4000
    endloop
endfacet
facet normal 0.0000 -4.7500 0.0000
    outer loop
        vertex 15.2800 -0.1000 -0.4000
        vertex 15.6000 -0.1000 -0.1200
        vertex 13.1600 -0.1000 0.1200
    endloop
endfacet
facet normal 0.0000 -50.6300 0.0000
    outer loop
        vertex 13.1600 -0.1000 0.1200
        vertex 15.6000 -0.1000 -0.1200
        vertex 15.6000 -0.1000 3.2000
    endloop
endfacet
facet normal 0.0000 -12.7700 0.0000
    outer loop
        vertex 15.6000 -0.1000 3.2000
        vertex 12.5600 -0.1000 0.2000
        vertex 13.1600 -0.1000 0.1200
    endloop
endfacet
facet normal 0.0000 -92.2500 0.0000
    outer loop
        vertex 12.5600 -0.1000 0.2000
        vertex 15.6000 -0.1000 3.2000
        vertex 10.6800 -0.1000 3.2000
    endloop
endfacet
facet normal 0.0000 -15.1000 0.0000
    outer loop
        vertex 10.6800 -0.1000 3.2000
        vertex 11.8800 -0.1000 0.0000
        vertex 12.5600 -0.1000 0.2000
    endloop
endfacet
facet normal 0.0000 -72.8000 0.0000
    outer loop
        vertex 11.8800 -0.1000 0.0000
        vertex 10.6800 -0.1000 3.2000
        vertex 7.2800 -0.1000 2.5600
    endloop
endfacet
facet normal 0.0000 -26.2200 0.0000
    outer loop
        vertex 7.2800 -0.1000 2.5600
        vertex 10.9600 -0.1000 -0.4000
        vertex 11.8800 -0.1000 0.0000
    endloop
endfacet
facet normal 0.0000 -3.5600 0.0000
    outer loop
        vertex 13.6800 -0.1000 -0.9200
        vertex 13.2000 -0.1000 -0.9600
        vertex 12.5600 -0.1000 -2.2000
    endloop
endfacet
facet normal 0.0000 -18.4400 0.0000
    outer loop
        vertex 12.5600 -0.1000 -2.2000
        vertex 14.4800 -0.1000 -2.6400
        vertex 13.6800 -0.1000 -0.9200
    endloop
endfacet
facet normal 0.0000 -11.7100 0.0000
    outer loop
        vertex 13.6800 -0.1000 -0.9200
        vertex 14.4800 -0.1000 -2.6400
        vertex 15.1600 -0.1000 -1.7600
    endloop
endfacet
facet normal 0.0000 -2.8500 0.0000
    outer loop
        vertex 15.1600 -0.1000 -1.7600
        vertex 13.8000 -0.1000 -0.6800
        vertex 13.6800 -0.1000 -0.9200
    endloop
endfacet
facet normal 0.0000 -12.3700 0.0000
    outer loop
        vertex 15.2800 -0.1000 -0.4000
        vertex 13.8000 -0.1000 -0.6800
        vertex 15.1600 -0.1000 -1.7600
    endloop
endfacet
endsolid GiantLegoRocks
