solid GiantLegoRocks
facet normal 0.0000 0.7500 0.0000
    outer loop
        vertex 15.6000 0.0000 4.4000
        vertex 15.6000 0.0000 -4.4000
        vertex -15.6000 0.0000 -4.4000
    endloop
endfacet
facet normal 0.0000 0.7500 0.0000
    outer loop
        vertex -15.6000 0.0000 -4.4000
        vertex -15.6000 0.0000 4.4000
        vertex 15.6000 0.0000 4.4000
    endloop
endfacet
facet normal 0.0000 -0.2500 22.0000
    outer loop
        vertex -15.6000 -0.1000 4.4000
        vertex 15.6000 -0.1000 4.4000
        vertex 15.6000 0.0000 4.4000
    endloop
endfacet
facet normal 0.0000 -0.2500 22.0000
    outer loop
        vertex 15.6000 0.0000 4.4000
        vertex -15.6000 0.0000 4.4000
        vertex -15.6000 -0.1000 4.4000
    endloop
endfacet
facet normal -78.0000 -0.2500 0.0000
    outer loop
        vertex -15.6000 -0.1000 -4.4000
        vertex -15.6000 -0.1000 4.4000
        vertex -15.6000 0.0000 4.4000
    endloop
endfacet
facet normal -78.0000 -0.2500 0.0000
    outer loop
        vertex -15.6000 0.0000 4.4000
        vertex -15.6000 0.0000 -4.4000
        vertex -15.6000 -0.1000 -4.4000
    endloop
endfacet
facet normal 0.0000 -0.2500 -22.0000
    outer loop
        vertex 15.6000 -0.1000 -4.4000
        vertex -15.6000 -0.1000 -4.4000
        vertex -15.6000 0.0000 -4.4000
    endloop
endfacet
facet normal 0.0000 -0.2500 -22.0000
    outer loop
        vertex -15.6000 0.0000 -4.4000
        vertex 15.6000 0.0000 -4.4000
        vertex 15.6000 -0.1000 -4.4000
    endloop
endfacet
facet normal 78.0000 -0.2500 0.0000
    outer loop
        vertex 15.6000 -0.1000 4.4000
        vertex 15.6000 -0.1000 -4.4000
        vertex 15.6000 0.0000 -4.4000
    endloop
endfacet
facet normal 78.0000 -0.2500 0.0000
    outer loop
        vertex 15.6000 0.0000 -4.4000
        vertex 15.6000 0.0000 4.4000
        vertex 15.6000 -0.1000 4.4000
    endloop
endfacet
facet normal 0.0000 -7.8864 0.0000
    outer loop
        vertex -12.0872 -0.1000 -2.8000
        vertex -11.3896 -0.1000 -2.1744
        vertex -11.3896 -0.1000 -0.3656
    endloop
endfacet
facet normal 0.0000 -22.9371 0.0000
    outer loop
        vertex -11.3896 -0.1000 -0.3656
        vertex -12.0872 -0.1000 2.4608
        vertex -12.0872 -0.1000 -2.8000
    endloop
endfacet
facet normal 0.0000 -7.7215 0.0000
    outer loop
        vertex -11.3896 -0.1000 -2.1744
        vertex -12.0872 -0.1000 -2.8000
        vertex -10.1124 -0.1000 -2.8000
    endloop
endfacet
facet normal 0.0000 -4.9657 0.0000
    outer loop
        vertex -10.1124 -0.1000 -2.8000
        vertex -10.1196 -0.1000 -2.1744
        vertex -11.3896 -0.1000 -2.1744
    endloop
endfacet
facet normal 0.0000 -4.5210 0.0000
    outer loop
        vertex -10.2244 -0.1000 0.2552
        vertex -11.3896 -0.1000 0.2552
        vertex -11.3896 -0.1000 -0.3656
    endloop
endfacet
facet normal 0.0000 -4.5551 0.0000
    outer loop
        vertex -11.3896 -0.1000 -0.3656
        vertex -10.2156 -0.1000 -0.3656
        vertex -10.2244 -0.1000 0.2552
    endloop
endfacet
facet normal 0.0000 -2.7067 0.0000
    outer loop
        vertex -12.0872 -0.1000 2.4608
        vertex -11.3896 -0.1000 -0.3656
        vertex -11.3896 -0.1000 0.2552
    endloop
endfacet
facet normal 0.0000 -2.3198 0.0000
    outer loop
        vertex -10.1196 -0.1000 -2.1744
        vertex -10.1124 -0.1000 -2.8000
        vertex -9.5196 -0.1000 -2.7564
    endloop
endfacet
facet normal 0.0000 -2.1932 0.0000
    outer loop
        vertex -9.5196 -0.1000 -2.7564
        vertex -9.5748 -0.1000 -2.1180
        vertex -10.1196 -0.1000 -2.1744
    endloop
endfacet
facet normal 0.0000 -2.1930 0.0000
    outer loop
        vertex -9.5748 -0.1000 -0.4192
        vertex -9.1708 -0.1000 -0.0048
        vertex -9.7196 -0.1000 0.3008
    endloop
endfacet
facet normal 0.0000 -2.8351 0.0000
    outer loop
        vertex -9.7196 -0.1000 0.3008
        vertex -10.2156 -0.1000 -0.3656
        vertex -9.5748 -0.1000 -0.4192
    endloop
endfacet
facet normal 0.0000 -6.8888 0.0000
    outer loop
        vertex -12.0872 -0.1000 2.4608
        vertex -11.3896 -0.1000 0.2552
        vertex -11.3896 -0.1000 1.8352
    endloop
endfacet
facet normal 0.0000 -7.3117 0.0000
    outer loop
        vertex -10.2172 -0.1000 2.4608
        vertex -12.0872 -0.1000 2.4608
        vertex -11.3896 -0.1000 1.8352
    endloop
endfacet
facet normal 0.0000 -4.3057 0.0000
    outer loop
        vertex -11.3896 -0.1000 1.8352
        vertex -10.2884 -0.1000 1.8352
        vertex -10.2172 -0.1000 2.4608
    endloop
endfacet
facet normal 0.0000 -2.1995 0.0000
    outer loop
        vertex -10.2172 -0.1000 2.4608
        vertex -10.2884 -0.1000 1.8352
        vertex -9.7316 -0.1000 1.7848
    endloop
endfacet
facet normal 0.0000 -2.8596 0.0000
    outer loop
        vertex -9.7316 -0.1000 1.7848
        vertex -9.4740 -0.1000 2.3684
        vertex -10.2172 -0.1000 2.4608
    endloop
endfacet
facet normal 0.0000 -1.1362 0.0000
    outer loop
        vertex -9.3704 -0.1000 0.4376
        vertex -9.7196 -0.1000 0.3008
        vertex -9.1708 -0.1000 -0.0048
    endloop
endfacet
facet normal 0.0000 -1.5186 0.0000
    outer loop
        vertex -9.1708 -0.1000 -0.0048
        vertex -8.7508 -0.1000 0.2816
        vertex -9.3704 -0.1000 0.4376
    endloop
endfacet
facet normal 0.0000 -1.5712 0.0000
    outer loop
        vertex -9.4740 -0.1000 2.3684
        vertex -9.7316 -0.1000 1.7848
        vertex -9.3644 -0.1000 1.6408
    endloop
endfacet
facet normal 0.0000 -2.3990 0.0000
    outer loop
        vertex -9.3644 -0.1000 1.6408
        vertex -8.9064 -0.1000 2.1024
        vertex -9.4740 -0.1000 2.3684
    endloop
endfacet
facet normal 0.0000 -1.9611 0.0000
    outer loop
        vertex -9.7196 -0.1000 0.3008
        vertex -10.2244 -0.1000 0.2552
        vertex -10.2156 -0.1000 -0.3656
    endloop
endfacet
facet normal 0.0000 -1.9938 0.0000
    outer loop
        vertex -9.5748 -0.1000 -2.1180
        vertex -9.5196 -0.1000 -2.7564
        vertex -9.0312 -0.1000 -2.6256
    endloop
endfacet
facet normal 0.0000 -1.8096 0.0000
    outer loop
        vertex -9.0312 -0.1000 -2.6256
        vertex -9.1856 -0.1000 -1.9488
        vertex -9.5748 -0.1000 -2.1180
    endloop
endfacet
facet normal 0.0000 -1.6194 0.0000
    outer loop
        vertex -8.6472 -0.1000 -2.4080
        vertex -8.9520 -0.1000 -1.6668
        vertex -9.1856 -0.1000 -1.9488
    endloop
endfacet
facet normal 0.0000 -1.8343 0.0000
    outer loop
        vertex -9.1856 -0.1000 -1.9488
        vertex -9.0312 -0.1000 -2.6256
        vertex -8.6472 -0.1000 -2.4080
    endloop
endfacet
facet normal 0.0000 -1.3178 0.0000
    outer loop
        vertex -9.1616 -0.1000 -0.5852
        vertex -8.9400 -0.1000 -0.8668
        vertex -8.7248 -0.1000 -0.1888
    endloop
endfacet
facet normal 0.0000 -1.6073 0.0000
    outer loop
        vertex -8.7248 -0.1000 -0.1888
        vertex -9.1708 -0.1000 -0.0048
        vertex -9.1616 -0.1000 -0.5852
    endloop
endfacet
facet normal 0.0000 -1.4893 0.0000
    outer loop
        vertex -9.1708 -0.1000 -0.0048
        vertex -9.5748 -0.1000 -0.4192
        vertex -9.1616 -0.1000 -0.5852
    endloop
endfacet
facet normal 0.0000 -1.8005 0.0000
    outer loop
        vertex -8.8740 -0.1000 -1.2720
        vertex -8.9520 -0.1000 -1.6668
        vertex -8.2740 -0.1000 -1.9284
    endloop
endfacet
facet normal 0.0000 -2.9704 0.0000
    outer loop
        vertex -8.2740 -0.1000 -1.9284
        vertex -8.1496 -0.1000 -1.2724
        vertex -8.8740 -0.1000 -1.2720
    endloop
endfacet
facet normal 0.0000 -1.9177 0.0000
    outer loop
        vertex -8.8740 -0.1000 -1.2720
        vertex -8.1496 -0.1000 -1.2724
        vertex -8.2140 -0.1000 -0.8488
    endloop
endfacet
facet normal 0.0000 -1.8460 0.0000
    outer loop
        vertex -8.2140 -0.1000 -0.8488
        vertex -8.9400 -0.1000 -0.8668
        vertex -8.8740 -0.1000 -1.2720
    endloop
endfacet
facet normal 0.0000 -2.6425 0.0000
    outer loop
        vertex -8.9520 -0.1000 -1.6668
        vertex -8.6472 -0.1000 -2.4080
        vertex -8.2740 -0.1000 -1.9284
    endloop
endfacet
facet normal 0.0000 -1.7006 0.0000
    outer loop
        vertex -8.9400 -0.1000 -0.8668
        vertex -8.2140 -0.1000 -0.8488
        vertex -8.4068 -0.1000 -0.4788
    endloop
endfacet
facet normal 0.0000 -1.7376 0.0000
    outer loop
        vertex -8.4068 -0.1000 -0.4788
        vertex -8.7248 -0.1000 -0.1888
        vertex -8.9400 -0.1000 -0.8668
    endloop
endfacet
facet normal 0.0000 -2.6561 0.0000
    outer loop
        vertex -9.0992 -0.1000 1.0552
        vertex -9.3704 -0.1000 0.4376
        vertex -8.7508 -0.1000 0.2816
    endloop
endfacet
facet normal 0.0000 -2.0319 0.0000
    outer loop
        vertex -8.7508 -0.1000 0.2816
        vertex -8.4988 -0.1000 0.6552
        vertex -9.0992 -0.1000 1.0552
    endloop
endfacet
facet normal 0.0000 -2.2728 0.0000
    outer loop
        vertex -9.1608 -0.1000 1.3992
        vertex -8.5428 -0.1000 1.6780
        vertex -8.9064 -0.1000 2.1024
    endloop
endfacet
facet normal 0.0000 -1.2790 0.0000
    outer loop
        vertex -8.9064 -0.1000 2.1024
        vertex -9.3644 -0.1000 1.6408
        vertex -9.1608 -0.1000 1.3992
    endloop
endfacet
facet normal 0.0000 -1.4939 0.0000
    outer loop
        vertex -9.1608 -0.1000 1.3992
        vertex -9.0992 -0.1000 1.0552
        vertex -8.4152 -0.1000 1.1156
    endloop
endfacet
facet normal 0.0000 -2.3946 0.0000
    outer loop
        vertex -8.4152 -0.1000 1.1156
        vertex -8.5428 -0.1000 1.6780
        vertex -9.1608 -0.1000 1.3992
    endloop
endfacet
facet normal 0.0000 -1.9367 0.0000
    outer loop
        vertex -8.4152 -0.1000 1.1156
        vertex -9.0992 -0.1000 1.0552
        vertex -8.4988 -0.1000 0.6552
    endloop
endfacet
facet normal 0.0000 -22.9371 0.0000
    outer loop
        vertex -7.0920 -0.1000 2.4608
        vertex -7.0920 -0.1000 -2.8000
        vertex -6.3944 -0.1000 -2.8000
    endloop
endfacet
facet normal 0.0000 -22.9371 0.0000
    outer loop
        vertex -6.3944 -0.1000 -2.8000
        vertex -6.3944 -0.1000 2.4608
        vertex -7.0920 -0.1000 2.4608
    endloop
endfacet
facet normal 0.0000 -1.6509 0.0000
    outer loop
        vertex -5.1752 -0.1000 -1.2064
        vertex -5.0016 -0.1000 -1.6532
        vertex -4.6608 -0.1000 -1.0088
    endloop
endfacet
facet normal 0.0000 -1.7293 0.0000
    outer loop
        vertex -4.6608 -0.1000 -1.0088
        vertex -5.2832 -0.1000 -0.7100
        vertex -5.1752 -0.1000 -1.2064
    endloop
endfacet
facet normal 0.0000 -1.8609 0.0000
    outer loop
        vertex -4.7608 -0.1000 -0.1768
        vertex -5.3192 -0.1000 -0.1768
        vertex -5.2832 -0.1000 -0.7100
    endloop
endfacet
facet normal 0.0000 -3.0497 0.0000
    outer loop
        vertex -5.2832 -0.1000 -0.7100
        vertex -4.6608 -0.1000 -1.0088
        vertex -4.7608 -0.1000 -0.1768
    endloop
endfacet
facet normal 0.0000 -1.4741 0.0000
    outer loop
        vertex -5.0016 -0.1000 -1.6532
        vertex -4.7688 -0.1000 -2.0384
        vertex -4.3772 -0.1000 -1.6732
    endloop
endfacet
facet normal 0.0000 -2.5574 0.0000
    outer loop
        vertex -4.3772 -0.1000 -1.6732
        vertex -4.6608 -0.1000 -1.0088
        vertex -5.0016 -0.1000 -1.6532
    endloop
endfacet
facet normal 0.0000 -1.9237 0.0000
    outer loop
        vertex -4.1508 -0.1000 -2.5960
        vertex -3.3684 -0.1000 -2.2736
        vertex -3.9348 -0.1000 -2.1136
    endloop
endfacet
facet normal 0.0000 -2.6160 0.0000
    outer loop
        vertex -3.9348 -0.1000 -2.1136
        vertex -4.7688 -0.1000 -2.0384
        vertex -4.1508 -0.1000 -2.5960
    endloop
endfacet
facet normal 0.0000 -2.0877 0.0000
    outer loop
        vertex -4.3772 -0.1000 -1.6732
        vertex -4.7688 -0.1000 -2.0384
        vertex -3.9348 -0.1000 -2.1136
    endloop
endfacet
facet normal 0.0000 -1.7456 0.0000
    outer loop
        vertex -5.1752 -0.1000 0.8552
        vertex -5.2832 -0.1000 0.3572
        vertex -4.6568 -0.1000 0.6596
    endloop
endfacet
facet normal 0.0000 -1.6628 0.0000
    outer loop
        vertex -4.6568 -0.1000 0.6596
        vertex -5.0024 -0.1000 1.3032
        vertex -5.1752 -0.1000 0.8552
    endloop
endfacet
facet normal 0.0000 -1.8637 0.0000
    outer loop
        vertex -5.2832 -0.1000 0.3572
        vertex -5.3192 -0.1000 -0.1768
        vertex -4.7608 -0.1000 -0.1768
    endloop
endfacet
facet normal 0.0000 -3.0779 0.0000
    outer loop
        vertex -4.7608 -0.1000 -0.1768
        vertex -4.6568 -0.1000 0.6596
        vertex -5.2832 -0.1000 0.3572
    endloop
endfacet
facet normal 0.0000 -1.4851 0.0000
    outer loop
        vertex -4.7732 -0.1000 1.6872
        vertex -5.0024 -0.1000 1.3032
        vertex -4.3688 -0.1000 1.3280
    endloop
endfacet
facet normal 0.0000 -2.0908 0.0000
    outer loop
        vertex -4.3688 -0.1000 1.3280
        vertex -3.9288 -0.1000 1.7644
        vertex -4.7732 -0.1000 1.6872
    endloop
endfacet
facet normal 0.0000 -2.5832 0.0000
    outer loop
        vertex -3.3684 -0.1000 1.9208
        vertex -3.3704 -0.1000 2.4472
        vertex -4.1548 -0.1000 2.2428
    endloop
endfacet
facet normal 0.0000 -1.8965 0.0000
    outer loop
        vertex -4.1548 -0.1000 2.2428
        vertex -3.9288 -0.1000 1.7644
        vertex -3.3684 -0.1000 1.9208
    endloop
endfacet
facet normal 0.0000 -2.6338 0.0000
    outer loop
        vertex -4.1548 -0.1000 2.2428
        vertex -4.7732 -0.1000 1.6872
        vertex -3.9288 -0.1000 1.7644
    endloop
endfacet
facet normal 0.0000 -2.6022 0.0000
    outer loop
        vertex -4.3688 -0.1000 1.3280
        vertex -5.0024 -0.1000 1.3032
        vertex -4.6568 -0.1000 0.6596
    endloop
endfacet
facet normal 0.0000 -2.5701 0.0000
    outer loop
        vertex -3.3684 -0.1000 -2.2736
        vertex -4.1508 -0.1000 -2.5960
        vertex -3.3704 -0.1000 -2.8000
    endloop
endfacet
facet normal 0.0000 -2.5637 0.0000
    outer loop
        vertex -3.3704 -0.1000 -2.8000
        vertex -2.5904 -0.1000 -2.5980
        vertex -3.3684 -0.1000 -2.2736
    endloop
endfacet
facet normal 0.0000 -1.9296 0.0000
    outer loop
        vertex -2.8004 -0.1000 -2.1136
        vertex -3.3684 -0.1000 -2.2736
        vertex -2.5904 -0.1000 -2.5980
    endloop
endfacet
facet normal 0.0000 -2.5860 0.0000
    outer loop
        vertex -2.5904 -0.1000 -2.5980
        vertex -1.9764 -0.1000 -2.0440
        vertex -2.8004 -0.1000 -2.1136
    endloop
endfacet
facet normal 0.0000 -2.0980 0.0000
    outer loop
        vertex -2.3620 -0.1000 -1.6692
        vertex -2.8004 -0.1000 -2.1136
        vertex -1.9764 -0.1000 -2.0440
    endloop
endfacet
facet normal 0.0000 -1.4661 0.0000
    outer loop
        vertex -1.9764 -0.1000 -2.0440
        vertex -1.7456 -0.1000 -1.6600
        vertex -2.3620 -0.1000 -1.6692
    endloop
endfacet
facet normal 0.0000 -2.5511 0.0000
    outer loop
        vertex -2.0800 -0.1000 -1.0028
        vertex -2.3620 -0.1000 -1.6692
        vertex -1.7456 -0.1000 -1.6600
    endloop
endfacet
facet normal 0.0000 -1.6568 0.0000
    outer loop
        vertex -1.7456 -0.1000 -1.6600
        vertex -1.5700 -0.1000 -1.2124
        vertex -2.0800 -0.1000 -1.0028
    endloop
endfacet
facet normal 0.0000 -3.0241 0.0000
    outer loop
        vertex -1.4592 -0.1000 -0.7136
        vertex -1.9800 -0.1000 -0.1768
        vertex -2.0800 -0.1000 -1.0028
    endloop
endfacet
facet normal 0.0000 -1.7351 0.0000
    outer loop
        vertex -2.0800 -0.1000 -1.0028
        vertex -1.5700 -0.1000 -1.2124
        vertex -1.4592 -0.1000 -0.7136
    endloop
endfacet
facet normal 0.0000 -1.8721 0.0000
    outer loop
        vertex -1.9800 -0.1000 -0.1768
        vertex -1.4592 -0.1000 -0.7136
        vertex -1.4220 -0.1000 -0.1768
    endloop
endfacet
facet normal 0.0000 -1.8819 0.0000
    outer loop
        vertex -1.4220 -0.1000 -0.1768
        vertex -1.4580 -0.1000 0.3628
        vertex -1.9800 -0.1000 -0.1768
    endloop
endfacet
facet normal 0.0000 -2.0952 0.0000
    outer loop
        vertex -2.8044 -0.1000 1.7644
        vertex -2.3664 -0.1000 1.3240
        vertex -1.9724 -0.1000 1.6932
    endloop
endfacet
facet normal 0.0000 -2.6037 0.0000
    outer loop
        vertex -1.9724 -0.1000 1.6932
        vertex -2.5904 -0.1000 2.2468
        vertex -2.8044 -0.1000 1.7644
    endloop
endfacet
facet normal 0.0000 -1.9096 0.0000
    outer loop
        vertex -3.3684 -0.1000 1.9208
        vertex -2.8044 -0.1000 1.7644
        vertex -2.5904 -0.1000 2.2468
    endloop
endfacet
facet normal 0.0000 -2.5637 0.0000
    outer loop
        vertex -2.5904 -0.1000 2.2468
        vertex -3.3704 -0.1000 2.4472
        vertex -3.3684 -0.1000 1.9208
    endloop
endfacet
facet normal 0.0000 -2.5890 0.0000
    outer loop
        vertex -2.3664 -0.1000 1.3240
        vertex -2.0800 -0.1000 0.6560
        vertex -1.7396 -0.1000 1.3084
    endloop
endfacet
facet normal 0.0000 -1.4848 0.0000
    outer loop
        vertex -1.7396 -0.1000 1.3084
        vertex -1.9724 -0.1000 1.6932
        vertex -2.3664 -0.1000 1.3240
    endloop
endfacet
facet normal 0.0000 -1.7396 0.0000
    outer loop
        vertex -2.0800 -0.1000 0.6560
        vertex -1.4580 -0.1000 0.3628
        vertex -1.5660 -0.1000 0.8612
    endloop
endfacet
facet normal 0.0000 -1.6593 0.0000
    outer loop
        vertex -1.5660 -0.1000 0.8612
        vertex -1.7396 -0.1000 1.3084
        vertex -2.0800 -0.1000 0.6560
    endloop
endfacet
facet normal 0.0000 -3.0543 0.0000
    outer loop
        vertex -2.0800 -0.1000 0.6560
        vertex -1.9800 -0.1000 -0.1768
        vertex -1.4580 -0.1000 0.3628
    endloop
endfacet
facet normal 0.0000 -0.6860 0.0000
    outer loop
        vertex -0.2280 -0.1000 -2.4560
        vertex -0.2260 -0.1000 -2.6240
        vertex 0.4232 -0.1000 -2.2736
    endloop
endfacet
facet normal 0.0000 -2.3320 0.0000
    outer loop
        vertex 0.4232 -0.1000 -2.2736
        vertex -0.1572 -0.1000 -1.8632
        vertex -0.2280 -0.1000 -2.4560
    endloop
endfacet
facet normal 0.0000 -0.7360 0.0000
    outer loop
        vertex 0.4232 -0.1000 -2.2736
        vertex -0.2260 -0.1000 -2.6240
        vertex -0.2160 -0.1000 -2.8000
    endloop
endfacet
facet normal 0.0000 -9.6963 0.0000
    outer loop
        vertex -0.2160 -0.1000 -2.8000
        vertex 2.7312 -0.1000 -2.8000
        vertex 0.4232 -0.1000 -2.2736
    endloop
endfacet
facet normal 0.0000 -2.1312 0.0000
    outer loop
        vertex 0.0548 -0.1000 -1.3216
        vertex -0.1572 -0.1000 -1.8632
        vertex 0.4912 -0.1000 -1.8152
    endloop
endfacet
facet normal 0.0000 -1.7761 0.0000
    outer loop
        vertex 0.4912 -0.1000 -1.8152
        vertex 0.6956 -0.1000 -1.3952
        vertex 0.0548 -0.1000 -1.3216
    endloop
endfacet
facet normal 0.0000 -2.1233 0.0000
    outer loop
        vertex 0.4080 -0.1000 -0.8320
        vertex 0.0548 -0.1000 -1.3216
        vertex 0.6956 -0.1000 -1.3952
    endloop
endfacet
facet normal 0.0000 -1.8863 0.0000
    outer loop
        vertex 0.6956 -0.1000 -1.3952
        vertex 1.0364 -0.1000 -1.0132
        vertex 0.4080 -0.1000 -0.8320
    endloop
endfacet
facet normal 0.0000 -0.9595 0.0000
    outer loop
        vertex 0.6116 -0.1000 -0.6464
        vertex 0.4080 -0.1000 -0.8320
        vertex 1.0364 -0.1000 -1.0132
    endloop
endfacet
facet normal 0.0000 -1.7376 0.0000
    outer loop
        vertex 1.0364 -0.1000 -1.0132
        vertex 1.0036 -0.1000 -0.3304
        vertex 0.6116 -0.1000 -0.6464
    endloop
endfacet
facet normal 0.0000 -1.8373 0.0000
    outer loop
        vertex 0.4912 -0.1000 -1.8152
        vertex -0.1572 -0.1000 -1.8632
        vertex 0.4232 -0.1000 -2.2736
    endloop
endfacet
facet normal 0.0000 -1.5401 0.0000
    outer loop
        vertex 0.0004 -0.1000 1.9544
        vertex -0.3016 -0.1000 1.5968
        vertex 0.1304 -0.1000 1.2924
    endloop
endfacet
facet normal 0.0000 -1.5548 0.0000
    outer loop
        vertex 0.1304 -0.1000 1.2924
        vertex 0.4376 -0.1000 1.6416
        vertex 0.0004 -0.1000 1.9544
    endloop
endfacet
facet normal 0.0000 -1.4652 0.0000
    outer loop
        vertex 0.3792 -0.1000 2.2196
        vertex 0.0004 -0.1000 1.9544
        vertex 0.4376 -0.1000 1.6416
    endloop
endfacet
facet normal 0.0000 -1.4520 0.0000
    outer loop
        vertex 0.4376 -0.1000 1.6416
        vertex 0.8184 -0.1000 1.8508
        vertex 0.3792 -0.1000 2.2196
    endloop
endfacet
facet normal 0.0000 -1.4558 0.0000
    outer loop
        vertex 0.8112 -0.1000 2.3872
        vertex 0.3792 -0.1000 2.2196
        vertex 0.8184 -0.1000 1.8508
    endloop
endfacet
facet normal 0.0000 -1.5265 0.0000
    outer loop
        vertex 0.8184 -0.1000 1.8508
        vertex 1.2728 -0.1000 1.9208
        vertex 0.8112 -0.1000 2.3872
    endloop
endfacet
facet normal 0.0000 -2.6099 0.0000
    outer loop
        vertex 1.5844 -0.1000 0.1164
        vertex 1.0036 -0.1000 -0.3304
        vertex 1.6044 -0.1000 -0.5872
    endloop
endfacet
facet normal 0.0000 -2.4988 0.0000
    outer loop
        vertex 1.6044 -0.1000 -0.5872
        vertex 2.1604 -0.1000 -0.1572
        vertex 1.5844 -0.1000 0.1164
    endloop
endfacet
facet normal 0.0000 -2.5024 0.0000
    outer loop
        vertex 2.0600 -0.1000 0.5856
        vertex 1.5844 -0.1000 0.1164
        vertex 2.1604 -0.1000 -0.1572
    endloop
endfacet
facet normal 0.0000 -1.8203 0.0000
    outer loop
        vertex 2.1604 -0.1000 -0.1572
        vertex 2.5028 -0.1000 0.2104
        vertex 2.0600 -0.1000 0.5856
    endloop
endfacet
facet normal 0.0000 -1.5694 0.0000
    outer loop
        vertex 2.0600 -0.1000 0.5856
        vertex 2.5028 -0.1000 0.2104
        vertex 2.7080 -0.1000 0.6036
    endloop
endfacet
facet normal 0.0000 -1.7593 0.0000
    outer loop
        vertex 2.7080 -0.1000 0.6036
        vertex 2.2184 -0.1000 1.0244
        vertex 2.0600 -0.1000 0.5856
    endloop
endfacet
facet normal 0.0000 -7.5933 0.0000
    outer loop
        vertex 2.7312 -0.1000 -2.2736
        vertex 0.4232 -0.1000 -2.2736
        vertex 2.7312 -0.1000 -2.8000
    endloop
endfacet
facet normal 0.0000 -1.7603 0.0000
    outer loop
        vertex 1.2728 -0.1000 1.9208
        vertex 1.7984 -0.1000 1.8208
        vertex 1.8796 -0.1000 2.3412
    endloop
endfacet
facet normal 0.0000 -1.9995 0.0000
    outer loop
        vertex 1.8796 -0.1000 2.3412
        vertex 1.2716 -0.1000 2.4472
        vertex 1.2728 -0.1000 1.9208
    endloop
endfacet
facet normal 0.0000 -1.6932 0.0000
    outer loop
        vertex 2.3540 -0.1000 2.0452
        vertex 1.8796 -0.1000 2.3412
        vertex 1.7984 -0.1000 1.8208
    endloop
endfacet
facet normal 0.0000 -1.4777 0.0000
    outer loop
        vertex 1.7984 -0.1000 1.8208
        vertex 2.1132 -0.1000 1.5224
        vertex 2.3540 -0.1000 2.0452
    endloop
endfacet
facet normal 0.0000 -1.5152 0.0000
    outer loop
        vertex 1.2716 -0.1000 2.4472
        vertex 0.8112 -0.1000 2.3872
        vertex 1.2728 -0.1000 1.9208
    endloop
endfacet
facet normal 0.0000 -1.9952 0.0000
    outer loop
        vertex 2.7768 -0.1000 1.0228
        vertex 2.6644 -0.1000 1.5948
        vertex 2.2184 -0.1000 1.0244
    endloop
endfacet
facet normal 0.0000 -1.4637 0.0000
    outer loop
        vertex 2.2184 -0.1000 1.0244
        vertex 2.7080 -0.1000 0.6036
        vertex 2.7768 -0.1000 1.0228
    endloop
endfacet
facet normal 0.0000 -1.6921 0.0000
    outer loop
        vertex 2.6644 -0.1000 1.5948
        vertex 2.3540 -0.1000 2.0452
        vertex 2.1132 -0.1000 1.5224
    endloop
endfacet
facet normal 0.0000 -1.7632 0.0000
    outer loop
        vertex 2.1132 -0.1000 1.5224
        vertex 2.2184 -0.1000 1.0244
        vertex 2.6644 -0.1000 1.5948
    endloop
endfacet
facet normal 0.0000 -2.5113 0.0000
    outer loop
        vertex 1.0036 -0.1000 -0.3304
        vertex 1.0364 -0.1000 -1.0132
        vertex 1.6044 -0.1000 -0.5872
    endloop
endfacet
facet normal 0.0000 -0.6860 0.0000
    outer loop
        vertex 4.3304 -0.1000 -2.4560
        vertex 4.3324 -0.1000 -2.6240
        vertex 4.9816 -0.1000 -2.2736
    endloop
endfacet
facet normal 0.0000 -2.3320 0.0000
    outer loop
        vertex 4.9816 -0.1000 -2.2736
        vertex 4.4012 -0.1000 -1.8632
        vertex 4.3304 -0.1000 -2.4560
    endloop
endfacet
facet normal 0.0000 -0.7360 0.0000
    outer loop
        vertex 4.9816 -0.1000 -2.2736
        vertex 4.3324 -0.1000 -2.6240
        vertex 4.3424 -0.1000 -2.8000
    endloop
endfacet
facet normal 0.0000 -9.6976 0.0000
    outer loop
        vertex 4.3424 -0.1000 -2.8000
        vertex 7.2900 -0.1000 -2.8000
        vertex 4.9816 -0.1000 -2.2736
    endloop
endfacet
facet normal 0.0000 -2.1312 0.0000
    outer loop
        vertex 4.6132 -0.1000 -1.3216
        vertex 4.4012 -0.1000 -1.8632
        vertex 5.0496 -0.1000 -1.8152
    endloop
endfacet
facet normal 0.0000 -1.7761 0.0000
    outer loop
        vertex 5.0496 -0.1000 -1.8152
        vertex 5.2540 -0.1000 -1.3952
        vertex 4.6132 -0.1000 -1.3216
    endloop
endfacet
facet normal 0.0000 -2.1233 0.0000
    outer loop
        vertex 4.9664 -0.1000 -0.8320
        vertex 4.6132 -0.1000 -1.3216
        vertex 5.2540 -0.1000 -1.3952
    endloop
endfacet
facet normal 0.0000 -1.8863 0.0000
    outer loop
        vertex 5.2540 -0.1000 -1.3952
        vertex 5.5948 -0.1000 -1.0132
        vertex 4.9664 -0.1000 -0.8320
    endloop
endfacet
facet normal 0.0000 -0.9595 0.0000
    outer loop
        vertex 5.1700 -0.1000 -0.6464
        vertex 4.9664 -0.1000 -0.8320
        vertex 5.5948 -0.1000 -1.0132
    endloop
endfacet
facet normal 0.0000 -1.7376 0.0000
    outer loop
        vertex 5.5948 -0.1000 -1.0132
        vertex 5.5620 -0.1000 -0.3304
        vertex 5.1700 -0.1000 -0.6464
    endloop
endfacet
facet normal 0.0000 -1.8373 0.0000
    outer loop
        vertex 5.0496 -0.1000 -1.8152
        vertex 4.4012 -0.1000 -1.8632
        vertex 4.9816 -0.1000 -2.2736
    endloop
endfacet
facet normal 0.0000 -1.5408 0.0000
    outer loop
        vertex 4.5592 -0.1000 1.9544
        vertex 4.2568 -0.1000 1.5968
        vertex 4.6888 -0.1000 1.2924
    endloop
endfacet
facet normal 0.0000 -1.5539 0.0000
    outer loop
        vertex 4.6888 -0.1000 1.2924
        vertex 4.9960 -0.1000 1.6416
        vertex 4.5592 -0.1000 1.9544
    endloop
endfacet
facet normal 0.0000 -1.4638 0.0000
    outer loop
        vertex 4.9376 -0.1000 2.2196
        vertex 4.5592 -0.1000 1.9544
        vertex 4.9960 -0.1000 1.6416
    endloop
endfacet
facet normal 0.0000 -1.4520 0.0000
    outer loop
        vertex 4.9960 -0.1000 1.6416
        vertex 5.3768 -0.1000 1.8508
        vertex 4.9376 -0.1000 2.2196
    endloop
endfacet
facet normal 0.0000 -1.4558 0.0000
    outer loop
        vertex 5.3696 -0.1000 2.3872
        vertex 4.9376 -0.1000 2.2196
        vertex 5.3768 -0.1000 1.8508
    endloop
endfacet
facet normal 0.0000 -1.5265 0.0000
    outer loop
        vertex 5.3768 -0.1000 1.8508
        vertex 5.8312 -0.1000 1.9208
        vertex 5.3696 -0.1000 2.3872
    endloop
endfacet
facet normal 0.0000 -2.6099 0.0000
    outer loop
        vertex 6.1428 -0.1000 0.1164
        vertex 5.5620 -0.1000 -0.3304
        vertex 6.1628 -0.1000 -0.5872
    endloop
endfacet
facet normal 0.0000 -2.5005 0.0000
    outer loop
        vertex 6.1628 -0.1000 -0.5872
        vertex 6.7192 -0.1000 -0.1572
        vertex 6.1428 -0.1000 0.1164
    endloop
endfacet
facet normal 0.0000 -2.5036 0.0000
    outer loop
        vertex 6.6184 -0.1000 0.5856
        vertex 6.1428 -0.1000 0.1164
        vertex 6.7192 -0.1000 -0.1572
    endloop
endfacet
facet normal 0.0000 -1.8193 0.0000
    outer loop
        vertex 6.7192 -0.1000 -0.1572
        vertex 7.0612 -0.1000 0.2104
        vertex 6.6184 -0.1000 0.5856
    endloop
endfacet
facet normal 0.0000 -1.5694 0.0000
    outer loop
        vertex 6.6184 -0.1000 0.5856
        vertex 7.0612 -0.1000 0.2104
        vertex 7.2664 -0.1000 0.6036
    endloop
endfacet
facet normal 0.0000 -1.7593 0.0000
    outer loop
        vertex 7.2664 -0.1000 0.6036
        vertex 6.7768 -0.1000 1.0244
        vertex 6.6184 -0.1000 0.5856
    endloop
endfacet
facet normal 0.0000 -7.5946 0.0000
    outer loop
        vertex 7.2900 -0.1000 -2.2736
        vertex 4.9816 -0.1000 -2.2736
        vertex 7.2900 -0.1000 -2.8000
    endloop
endfacet
facet normal 0.0000 -1.7605 0.0000
    outer loop
        vertex 5.8312 -0.1000 1.9208
        vertex 6.3568 -0.1000 1.8208
        vertex 6.4384 -0.1000 2.3412
    endloop
endfacet
facet normal 0.0000 -2.0008 0.0000
    outer loop
        vertex 6.4384 -0.1000 2.3412
        vertex 5.8300 -0.1000 2.4472
        vertex 5.8312 -0.1000 1.9208
    endloop
endfacet
facet normal 0.0000 -1.6926 0.0000
    outer loop
        vertex 6.9124 -0.1000 2.0452
        vertex 6.4384 -0.1000 2.3412
        vertex 6.3568 -0.1000 1.8208
    endloop
endfacet
facet normal 0.0000 -1.4783 0.0000
    outer loop
        vertex 6.3568 -0.1000 1.8208
        vertex 6.6720 -0.1000 1.5224
        vertex 6.9124 -0.1000 2.0452
    endloop
endfacet
facet normal 0.0000 -1.5152 0.0000
    outer loop
        vertex 5.8300 -0.1000 2.4472
        vertex 5.3696 -0.1000 2.3872
        vertex 5.8312 -0.1000 1.9208
    endloop
endfacet
facet normal 0.0000 -1.9952 0.0000
    outer loop
        vertex 7.3352 -0.1000 1.0228
        vertex 7.2232 -0.1000 1.5948
        vertex 6.7768 -0.1000 1.0244
    endloop
endfacet
facet normal 0.0000 -1.4637 0.0000
    outer loop
        vertex 6.7768 -0.1000 1.0244
        vertex 7.2664 -0.1000 0.6036
        vertex 7.3352 -0.1000 1.0228
    endloop
endfacet
facet normal 0.0000 -1.6923 0.0000
    outer loop
        vertex 7.2232 -0.1000 1.5948
        vertex 6.9124 -0.1000 2.0452
        vertex 6.6720 -0.1000 1.5224
    endloop
endfacet
facet normal 0.0000 -1.7630 0.0000
    outer loop
        vertex 6.6720 -0.1000 1.5224
        vertex 6.7768 -0.1000 1.0244
        vertex 7.2232 -0.1000 1.5948
    endloop
endfacet
facet normal 0.0000 -2.5113 0.0000
    outer loop
        vertex 5.5620 -0.1000 -0.3304
        vertex 5.5948 -0.1000 -1.0132
        vertex 6.1628 -0.1000 -0.5872
    endloop
endfacet
facet normal 0.0000 -1.5797 0.0000
    outer loop
        vertex 9.6320 -0.1000 -1.4496
        vertex 9.0368 -0.1000 -1.3432
        vertex 9.1988 -0.1000 -1.7968
    endloop
endfacet
facet normal 0.0000 -1.8907 0.0000
    outer loop
        vertex 9.1988 -0.1000 -1.7968
        vertex 9.8964 -0.1000 -1.9360
        vertex 9.6320 -0.1000 -1.4496
    endloop
endfacet
facet normal 0.0000 -1.7989 0.0000
    outer loop
        vertex 8.9348 -0.1000 -0.8404
        vertex 9.0368 -0.1000 -1.3432
        vertex 9.5220 -0.1000 -0.9132
    endloop
endfacet
facet normal 0.0000 -2.5283 0.0000
    outer loop
        vertex 9.5220 -0.1000 -0.9132
        vertex 9.4552 -0.1000 -0.2160
        vertex 8.9348 -0.1000 -0.8404
    endloop
endfacet
facet normal 0.0000 -1.8734 0.0000
    outer loop
        vertex 8.9008 -0.1000 -0.3052
        vertex 8.9348 -0.1000 -0.8404
        vertex 9.4552 -0.1000 -0.2160
    endloop
endfacet
facet normal 0.0000 -0.6353 0.0000
    outer loop
        vertex 9.4552 -0.1000 -0.2160
        vertex 9.4592 -0.1000 -0.0320
        vertex 8.9008 -0.1000 -0.3052
    endloop
endfacet
facet normal 0.0000 -1.5072 0.0000
    outer loop
        vertex 9.8964 -0.1000 -1.9360
        vertex 9.1988 -0.1000 -1.7968
        vertex 9.4128 -0.1000 -2.1852
    endloop
endfacet
facet normal 0.0000 -2.5733 0.0000
    outer loop
        vertex 9.4128 -0.1000 -2.1852
        vertex 9.9744 -0.1000 -2.7472
        vertex 9.8964 -0.1000 -1.9360
    endloop
endfacet
facet normal 0.0000 -1.5601 0.0000
    outer loop
        vertex 9.4552 -0.1000 -0.2160
        vertex 9.5220 -0.1000 -0.9132
        vertex 9.8396 -0.1000 -0.4912
    endloop
endfacet
facet normal 0.0000 -1.4436 0.0000
    outer loop
        vertex 9.8396 -0.1000 -0.4912
        vertex 9.8380 -0.1000 0.1108
        vertex 9.4552 -0.1000 -0.2160
    endloop
endfacet
facet normal 0.0000 -1.6849 0.0000
    outer loop
        vertex 9.8964 -0.1000 -1.9360
        vertex 9.9744 -0.1000 -2.7472
        vertex 10.2628 -0.1000 -2.2904
    endloop
endfacet
facet normal 0.0000 -1.9223 0.0000
    outer loop
        vertex 9.5220 -0.1000 -0.9132
        vertex 9.0368 -0.1000 -1.3432
        vertex 9.6320 -0.1000 -1.4496
    endloop
endfacet
facet normal 0.0000 -1.4940 0.0000
    outer loop
        vertex 9.8380 -0.1000 0.1108
        vertex 9.8396 -0.1000 -0.4912
        vertex 10.2360 -0.1000 -0.2384
    endloop
endfacet
facet normal 0.0000 -1.4129 0.0000
    outer loop
        vertex 10.2360 -0.1000 -0.2384
        vertex 10.2620 -0.1000 0.3068
        vertex 9.8380 -0.1000 0.1108
    endloop
endfacet
facet normal 0.0000 -1.9552 0.0000
    outer loop
        vertex 8.9404 -0.1000 0.2744
        vertex 8.9008 -0.1000 -0.3052
        vertex 9.4592 -0.1000 -0.0320
    endloop
endfacet
facet normal 0.0000 -2.6709 0.0000
    outer loop
        vertex 9.4592 -0.1000 -0.0320
        vertex 9.5908 -0.1000 0.7140
        vertex 8.9404 -0.1000 0.2744
    endloop
endfacet
facet normal 0.0000 -1.8308 0.0000
    outer loop
        vertex 9.0588 -0.1000 0.8048
        vertex 8.9404 -0.1000 0.2744
        vertex 9.5908 -0.1000 0.7140
    endloop
endfacet
facet normal 0.0000 -1.6737 0.0000
    outer loop
        vertex 9.5908 -0.1000 0.7140
        vertex 9.2496 -0.1000 1.2756
        vertex 9.0588 -0.1000 0.8048
    endloop
endfacet
facet normal 0.0000 -1.6337 0.0000
    outer loop
        vertex 9.5064 -0.1000 1.6748
        vertex 9.2496 -0.1000 1.2756
        vertex 9.9448 -0.1000 1.3384
    endloop
endfacet
facet normal 0.0000 -1.5606 0.0000
    outer loop
        vertex 9.9448 -0.1000 1.3384
        vertex 9.8264 -0.1000 1.9988
        vertex 9.5064 -0.1000 1.6748
    endloop
endfacet
facet normal 0.0000 -1.5406 0.0000
    outer loop
        vertex 10.4704 -0.1000 1.7644
        vertex 10.2076 -0.1000 2.2428
        vertex 9.8264 -0.1000 1.9988
    endloop
endfacet
facet normal 0.0000 -2.4847 0.0000
    outer loop
        vertex 9.8264 -0.1000 1.9988
        vertex 9.9448 -0.1000 1.3384
        vertex 10.4704 -0.1000 1.7644
    endloop
endfacet
facet normal 0.0000 -2.5741 0.0000
    outer loop
        vertex 9.9448 -0.1000 1.3384
        vertex 9.2496 -0.1000 1.2756
        vertex 9.5908 -0.1000 0.7140
    endloop
endfacet
facet normal 0.0000 -1.6069 0.0000
    outer loop
        vertex 10.2620 -0.1000 0.3068
        vertex 10.2360 -0.1000 -0.2384
        vertex 10.7116 -0.1000 -0.1540
    endloop
endfacet
facet normal 0.0000 -1.5252 0.0000
    outer loop
        vertex 10.7116 -0.1000 -0.1540
        vertex 10.7272 -0.1000 0.3728
        vertex 10.2620 -0.1000 0.3068
    endloop
endfacet
facet normal 0.0000 -2.0397 0.0000
    outer loop
        vertex 10.6836 -0.1000 -2.4264
        vertex 10.6680 -0.1000 -2.9528
        vertex 11.2916 -0.1000 -2.8308
    endloop
endfacet
facet normal 0.0000 -2.8353 0.0000
    outer loop
        vertex 11.2916 -0.1000 -2.8308
        vertex 11.3868 -0.1000 -2.1480
        vertex 10.6836 -0.1000 -2.4264
    endloop
endfacet
facet normal 0.0000 -1.4465 0.0000
    outer loop
        vertex 10.6836 -0.1000 -2.4264
        vertex 10.2628 -0.1000 -2.2904
        vertex 9.9744 -0.1000 -2.7472
    endloop
endfacet
facet normal 0.0000 -2.3020 0.0000
    outer loop
        vertex 9.9744 -0.1000 -2.7472
        vertex 10.6680 -0.1000 -2.9528
        vertex 10.6836 -0.1000 -2.4264
    endloop
endfacet
facet normal 0.0000 -1.8480 0.0000
    outer loop
        vertex 11.3868 -0.1000 -2.1480
        vertex 11.2916 -0.1000 -2.8308
        vertex 11.7712 -0.1000 -2.4968
    endloop
endfacet
facet normal 0.0000 -1.8824 0.0000
    outer loop
        vertex 11.7712 -0.1000 -2.4968
        vertex 12.0832 -0.1000 -1.9964
        vertex 11.3868 -0.1000 -2.1480
    endloop
endfacet
facet normal 0.0000 -1.2760 0.0000
    outer loop
        vertex 11.5744 -0.1000 -1.8140
        vertex 11.3868 -0.1000 -2.1480
        vertex 12.0832 -0.1000 -1.9964
    endloop
endfacet
facet normal 0.0000 -2.0993 0.0000
    outer loop
        vertex 12.0832 -0.1000 -1.9964
        vertex 12.1952 -0.1000 -1.3764
        vertex 11.5744 -0.1000 -1.8140
    endloop
endfacet
facet normal 0.0000 -2.4055 0.0000
    outer loop
        vertex 12.1952 -0.1000 -1.3764
        vertex 12.0872 -0.1000 -0.6720
        vertex 11.5708 -0.1000 -0.8676
    endloop
endfacet
facet normal 0.0000 -1.7445 0.0000
    outer loop
        vertex 11.5708 -0.1000 -0.8676
        vertex 11.6368 -0.1000 -1.3684
        vertex 12.1952 -0.1000 -1.3764
    endloop
endfacet
facet normal 0.0000 -1.5583 0.0000
    outer loop
        vertex 11.6368 -0.1000 -1.3684
        vertex 11.5744 -0.1000 -1.8140
        vertex 12.1952 -0.1000 -1.3764
    endloop
endfacet
facet normal 0.0000 -1.4693 0.0000
    outer loop
        vertex 11.3848 -0.1000 -0.4828
        vertex 11.5708 -0.1000 -0.8676
        vertex 12.0872 -0.1000 -0.6720
    endloop
endfacet
facet normal 0.0000 -2.0721 0.0000
    outer loop
        vertex 12.0872 -0.1000 -0.6720
        vertex 11.7828 -0.1000 -0.1180
        vertex 11.3848 -0.1000 -0.4828
    endloop
endfacet
facet normal 0.0000 -1.2673 0.0000
    outer loop
        vertex 10.7272 -0.1000 0.3728
        vertex 10.7116 -0.1000 -0.1540
        vertex 11.0940 -0.1000 -0.2384
    endloop
endfacet
facet normal 0.0000 -1.9579 0.0000
    outer loop
        vertex 11.0940 -0.1000 -0.2384
        vertex 11.3168 -0.1000 0.2444
        vertex 10.7272 -0.1000 0.3728
    endloop
endfacet
facet normal 0.0000 -2.3902 0.0000
    outer loop
        vertex 10.6420 -0.1000 2.3960
        vertex 10.4704 -0.1000 1.7644
        vertex 11.1184 -0.1000 1.9208
    endloop
endfacet
facet normal 0.0000 -1.5792 0.0000
    outer loop
        vertex 11.1184 -0.1000 1.9208
        vertex 11.1224 -0.1000 2.4472
        vertex 10.6420 -0.1000 2.3960
    endloop
endfacet
facet normal 0.0000 -1.5505 0.0000
    outer loop
        vertex 10.6420 -0.1000 2.3960
        vertex 10.2076 -0.1000 2.2428
        vertex 10.4704 -0.1000 1.7644
    endloop
endfacet
facet normal 0.0000 -1.9108 0.0000
    outer loop
        vertex 11.7828 -0.1000 -0.1180
        vertex 11.3168 -0.1000 0.2444
        vertex 11.0940 -0.1000 -0.2384
    endloop
endfacet
facet normal 0.0000 -1.2710 0.0000
    outer loop
        vertex 11.0940 -0.1000 -0.2384
        vertex 11.3848 -0.1000 -0.4828
        vertex 11.7828 -0.1000 -0.1180
    endloop
endfacet
facet normal 0.0000 -2.2000 0.0000
    outer loop
        vertex 11.7900 -0.1000 2.3032
        vertex 11.1224 -0.1000 2.4472
        vertex 11.1184 -0.1000 1.9208
    endloop
endfacet
facet normal 0.0000 -2.2096 0.0000
    outer loop
        vertex 11.1184 -0.1000 1.9208
        vertex 11.7900 -0.1000 1.7768
        vertex 11.7900 -0.1000 2.3032
    endloop
endfacet
facet normal 0.0000 -19.7480 0.0000
    outer loop
        vertex -10.1124 -0.1000 -2.8000
        vertex -12.0872 -0.1000 -2.8000
        vertex -15.6000 -0.1000 -4.4000
    endloop
endfacet
facet normal 0.0000 -30.2040 0.0000
    outer loop
        vertex -10.1124 -0.1000 -2.8000
        vertex -15.6000 -0.1000 -4.4000
        vertex -7.0920 -0.1000 -2.8000
    endloop
endfacet
facet normal 0.0000 -0.8231 0.0000
    outer loop
        vertex -7.0920 -0.1000 -2.8000
        vertex -9.5196 -0.1000 -2.7564
        vertex -10.1124 -0.1000 -2.8000
    endloop
endfacet
facet normal 0.0000 -14.3574 0.0000
    outer loop
        vertex -11.3896 -0.1000 -2.1744
        vertex -10.1196 -0.1000 -2.1744
        vertex -10.2156 -0.1000 -0.3656
    endloop
endfacet
facet normal 0.0000 -13.2721 0.0000
    outer loop
        vertex -10.2156 -0.1000 -0.3656
        vertex -11.3896 -0.1000 -0.3656
        vertex -11.3896 -0.1000 -2.1744
    endloop
endfacet
facet normal 0.0000 -5.7844 0.0000
    outer loop
        vertex -9.5748 -0.1000 -0.4192
        vertex -10.1196 -0.1000 -2.1744
        vertex -9.5748 -0.1000 -2.1180
    endloop
endfacet
facet normal 0.0000 -7.4407 0.0000
    outer loop
        vertex -9.5748 -0.1000 -2.1180
        vertex -8.8740 -0.1000 -1.2720
        vertex -9.5748 -0.1000 -0.4192
    endloop
endfacet
facet normal 0.0000 -2.1177 0.0000
    outer loop
        vertex -9.0312 -0.1000 -2.6256
        vertex -9.5196 -0.1000 -2.7564
        vertex -7.0920 -0.1000 -2.8000
    endloop
endfacet
facet normal 0.0000 -6.9760 0.0000
    outer loop
        vertex -6.3944 -0.1000 -2.8000
        vertex -7.0920 -0.1000 -2.8000
        vertex -15.6000 -0.1000 -4.4000
    endloop
endfacet
facet normal 0.0000 -5.5761 0.0000
    outer loop
        vertex -8.2740 -0.1000 -1.9284
        vertex -8.6472 -0.1000 -2.4080
        vertex -7.0920 -0.1000 -2.8000
    endloop
endfacet
facet normal 0.0000 -3.0559 0.0000
    outer loop
        vertex -8.6472 -0.1000 -2.4080
        vertex -9.0312 -0.1000 -2.6256
        vertex -7.0920 -0.1000 -2.8000
    endloop
endfacet
facet normal 0.0000 -4.8582 0.0000
    outer loop
        vertex -5.2832 -0.1000 -0.7100
        vertex -6.3944 -0.1000 -2.8000
        vertex -5.1752 -0.1000 -1.2064
    endloop
endfacet
facet normal 0.0000 -30.2400 0.0000
    outer loop
        vertex -6.3944 -0.1000 -2.8000
        vertex -15.6000 -0.1000 -4.4000
        vertex -3.3704 -0.1000 -2.8000
    endloop
endfacet
facet normal 0.0000 -3.8556 0.0000
    outer loop
        vertex -3.3704 -0.1000 -2.8000
        vertex -4.1508 -0.1000 -2.5960
        vertex -6.3944 -0.1000 -2.8000
    endloop
endfacet
facet normal 0.0000 -1.3168 0.0000
    outer loop
        vertex -8.8740 -0.1000 -1.2720
        vertex -9.5748 -0.1000 -2.1180
        vertex -9.1856 -0.1000 -1.9488
    endloop
endfacet
facet normal 0.0000 -0.4389 0.0000
    outer loop
        vertex -9.1856 -0.1000 -1.9488
        vertex -8.9520 -0.1000 -1.6668
        vertex -8.8740 -0.1000 -1.2720
    endloop
endfacet
facet normal 0.0000 -1.4753 0.0000
    outer loop
        vertex -9.1616 -0.1000 -0.5852
        vertex -9.5748 -0.1000 -0.4192
        vertex -8.8740 -0.1000 -1.2720
    endloop
endfacet
facet normal 0.0000 -0.4450 0.0000
    outer loop
        vertex -8.8740 -0.1000 -1.2720
        vertex -8.9400 -0.1000 -0.8668
        vertex -9.1616 -0.1000 -0.5852
    endloop
endfacet
facet normal 0.0000 -7.2121 0.0000
    outer loop
        vertex -10.2156 -0.1000 -0.3656
        vertex -10.1196 -0.1000 -2.1744
        vertex -9.5748 -0.1000 -0.4192
    endloop
endfacet
facet normal 0.0000 -5.5239 0.0000
    outer loop
        vertex -8.1496 -0.1000 -1.2724
        vertex -8.2740 -0.1000 -1.9284
        vertex -7.0920 -0.1000 -2.8000
    endloop
endfacet
facet normal 0.0000 -36.8914 0.0000
    outer loop
        vertex -7.0920 -0.1000 -2.8000
        vertex -7.0920 -0.1000 2.4608
        vertex -8.2140 -0.1000 -0.8488
    endloop
endfacet
facet normal 0.0000 -2.1851 0.0000
    outer loop
        vertex -8.2140 -0.1000 -0.8488
        vertex -8.1496 -0.1000 -1.2724
        vertex -7.0920 -0.1000 -2.8000
    endloop
endfacet
facet normal 0.0000 -35.3526 0.0000
    outer loop
        vertex -6.3944 -0.1000 2.4608
        vertex -6.3944 -0.1000 -2.8000
        vertex -5.3192 -0.1000 -0.1768
    endloop
endfacet
facet normal 0.0000 -4.1819 0.0000
    outer loop
        vertex -5.3192 -0.1000 -0.1768
        vertex -5.2832 -0.1000 0.3572
        vertex -6.3944 -0.1000 2.4608
    endloop
endfacet
facet normal 0.0000 -4.1733 0.0000
    outer loop
        vertex -5.3192 -0.1000 -0.1768
        vertex -6.3944 -0.1000 -2.8000
        vertex -5.2832 -0.1000 -0.7100
    endloop
endfacet
facet normal 0.0000 -5.1337 0.0000
    outer loop
        vertex -5.1752 -0.1000 -1.2064
        vertex -6.3944 -0.1000 -2.8000
        vertex -5.0016 -0.1000 -1.6532
    endloop
endfacet
facet normal 0.0000 -115.5009 0.0000
    outer loop
        vertex -15.6000 -0.1000 -4.4000
        vertex -12.0872 -0.1000 -2.8000
        vertex -12.0872 -0.1000 2.4608
    endloop
endfacet
facet normal 0.0000 -193.2040 0.0000
    outer loop
        vertex -12.0872 -0.1000 2.4608
        vertex -15.6000 -0.1000 4.4000
        vertex -15.6000 -0.1000 -4.4000
    endloop
endfacet
facet normal 0.0000 -1.1344 0.0000
    outer loop
        vertex -3.9348 -0.1000 -2.1136
        vertex -3.3684 -0.1000 -2.2736
        vertex -2.8004 -0.1000 -2.1136
    endloop
endfacet
facet normal 0.0000 -3.1508 0.0000
    outer loop
        vertex -2.8004 -0.1000 -2.1136
        vertex -2.3620 -0.1000 -1.6692
        vertex -3.9348 -0.1000 -2.1136
    endloop
endfacet
facet normal 0.0000 -8.6069 0.0000
    outer loop
        vertex -4.7688 -0.1000 -2.0384
        vertex -6.3944 -0.1000 -2.8000
        vertex -4.1508 -0.1000 -2.5960
    endloop
endfacet
facet normal 0.0000 -8.9965 0.0000
    outer loop
        vertex -1.9764 -0.1000 -2.0440
        vertex -2.5904 -0.1000 -2.5980
        vertex -0.2160 -0.1000 -2.8000
    endloop
endfacet
facet normal 0.0000 -1.8892 0.0000
    outer loop
        vertex -0.2160 -0.1000 -2.8000
        vertex -0.2260 -0.1000 -2.6240
        vertex -1.9764 -0.1000 -2.0440
    endloop
endfacet
facet normal 0.0000 -3.9824 0.0000
    outer loop
        vertex -2.5904 -0.1000 -2.5980
        vertex -3.3704 -0.1000 -2.8000
        vertex -0.2160 -0.1000 -2.8000
    endloop
endfacet
facet normal 0.0000 -4.7905 0.0000
    outer loop
        vertex -0.2280 -0.1000 -2.4560
        vertex -1.7456 -0.1000 -1.6600
        vertex -1.9764 -0.1000 -2.0440
    endloop
endfacet
facet normal 0.0000 -1.8307 0.0000
    outer loop
        vertex -1.9764 -0.1000 -2.0440
        vertex -0.2260 -0.1000 -2.6240
        vertex -0.2280 -0.1000 -2.4560
    endloop
endfacet
facet normal 0.0000 -31.5440 0.0000
    outer loop
        vertex -0.2160 -0.1000 -2.8000
        vertex -3.3704 -0.1000 -2.8000
        vertex -15.6000 -0.1000 -4.4000
    endloop
endfacet
facet normal 0.0000 -312.0000 0.0000
    outer loop
        vertex -15.6000 -0.1000 -4.4000
        vertex 15.6000 -0.1000 -4.4000
        vertex -0.2160 -0.1000 -2.8000
    endloop
endfacet
facet normal 0.0000 -5.9749 0.0000
    outer loop
        vertex -1.7456 -0.1000 -1.6600
        vertex -0.2280 -0.1000 -2.4560
        vertex -0.1572 -0.1000 -1.8632
    endloop
endfacet
facet normal 0.0000 -4.6666 0.0000
    outer loop
        vertex -0.1572 -0.1000 -1.8632
        vertex -1.5700 -0.1000 -1.2124
        vertex -1.7456 -0.1000 -1.6600
    endloop
endfacet
facet normal 0.0000 -8.3752 0.0000
    outer loop
        vertex -2.3620 -0.1000 -1.6692
        vertex -4.6608 -0.1000 -1.0088
        vertex -4.3772 -0.1000 -1.6732
    endloop
endfacet
facet normal 0.0000 -5.5579 0.0000
    outer loop
        vertex -4.3772 -0.1000 -1.6732
        vertex -3.9348 -0.1000 -2.1136
        vertex -2.3620 -0.1000 -1.6692
    endloop
endfacet
facet normal 0.0000 -10.7385 0.0000
    outer loop
        vertex -4.6608 -0.1000 -1.0088
        vertex -2.3620 -0.1000 -1.6692
        vertex -2.0800 -0.1000 -1.0028
    endloop
endfacet
facet normal 0.0000 -13.4239 0.0000
    outer loop
        vertex -2.0800 -0.1000 -1.0028
        vertex -4.7608 -0.1000 -0.1768
        vertex -4.6608 -0.1000 -1.0088
    endloop
endfacet
facet normal 0.0000 -6.4656 0.0000
    outer loop
        vertex 2.7312 -0.1000 -2.2736
        vertex 0.6956 -0.1000 -1.3952
        vertex 0.4912 -0.1000 -1.8152
    endloop
endfacet
facet normal 0.0000 -6.6124 0.0000
    outer loop
        vertex 0.4912 -0.1000 -1.8152
        vertex 0.4232 -0.1000 -2.2736
        vertex 2.7312 -0.1000 -2.2736
    endloop
endfacet
facet normal 0.0000 -5.1409 0.0000
    outer loop
        vertex -1.4592 -0.1000 -0.7136
        vertex -1.5700 -0.1000 -1.2124
        vertex 0.0548 -0.1000 -1.3216
    endloop
endfacet
facet normal 0.0000 -5.9750 0.0000
    outer loop
        vertex 0.0548 -0.1000 -1.3216
        vertex 0.4080 -0.1000 -0.8320
        vertex -1.4592 -0.1000 -0.7136
    endloop
endfacet
facet normal 0.0000 -6.2920 0.0000
    outer loop
        vertex -1.4220 -0.1000 -0.1768
        vertex -1.4592 -0.1000 -0.7136
        vertex 0.4080 -0.1000 -0.8320
    endloop
endfacet
facet normal 0.0000 -2.9565 0.0000
    outer loop
        vertex 0.4080 -0.1000 -0.8320
        vertex 0.6116 -0.1000 -0.6464
        vertex -1.4220 -0.1000 -0.1768
    endloop
endfacet
facet normal 0.0000 -5.7004 0.0000
    outer loop
        vertex 0.6116 -0.1000 -0.6464
        vertex 1.0036 -0.1000 -0.3304
        vertex 0.1304 -0.1000 1.2924
    endloop
endfacet
facet normal 0.0000 -23.2298 0.0000
    outer loop
        vertex 0.1304 -0.1000 1.2924
        vertex -1.4220 -0.1000 -0.1768
        vertex 0.6116 -0.1000 -0.6464
    endloop
endfacet
facet normal 0.0000 -5.6446 0.0000
    outer loop
        vertex -1.5700 -0.1000 -1.2124
        vertex -0.1572 -0.1000 -1.8632
        vertex 0.0548 -0.1000 -1.3216
    endloop
endfacet
facet normal 0.0000 -5.0218 0.0000
    outer loop
        vertex -5.0016 -0.1000 -1.6532
        vertex -6.3944 -0.1000 -2.8000
        vertex -4.7688 -0.1000 -2.0384
    endloop
endfacet
facet normal 0.0000 -11.5064 0.0000
    outer loop
        vertex -10.2884 -0.1000 1.8352
        vertex -11.3896 -0.1000 0.2552
        vertex -10.2244 -0.1000 0.2552
    endloop
endfacet
facet normal 0.0000 -5.4782 0.0000
    outer loop
        vertex -10.2244 -0.1000 0.2552
        vertex -9.7316 -0.1000 1.7848
        vertex -10.2884 -0.1000 1.8352
    endloop
endfacet
facet normal 0.0000 -1.1160 0.0000
    outer loop
        vertex -9.7196 -0.1000 0.3008
        vertex -9.3704 -0.1000 0.4376
        vertex -9.0992 -0.1000 1.0552
    endloop
endfacet
facet normal 0.0000 -5.8108 0.0000
    outer loop
        vertex -9.0992 -0.1000 1.0552
        vertex -9.7316 -0.1000 1.7848
        vertex -9.7196 -0.1000 0.3008
    endloop
endfacet
facet normal 0.0000 -4.6854 0.0000
    outer loop
        vertex -9.7316 -0.1000 1.7848
        vertex -10.2244 -0.1000 0.2552
        vertex -9.7196 -0.1000 0.3008
    endloop
endfacet
facet normal 0.0000 -0.8878 0.0000
    outer loop
        vertex -8.7508 -0.1000 0.2816
        vertex -8.7248 -0.1000 -0.1888
        vertex -8.4068 -0.1000 -0.4788
    endloop
endfacet
facet normal 0.0000 -2.0009 0.0000
    outer loop
        vertex -8.4068 -0.1000 -0.4788
        vertex -8.4988 -0.1000 0.6552
        vertex -8.7508 -0.1000 0.2816
    endloop
endfacet
facet normal 0.0000 -1.2813 0.0000
    outer loop
        vertex -8.7508 -0.1000 0.2816
        vertex -9.1708 -0.1000 -0.0048
        vertex -8.7248 -0.1000 -0.1888
    endloop
endfacet
facet normal 0.0000 -16.4379 0.0000
    outer loop
        vertex -8.4988 -0.1000 0.6552
        vertex -8.2140 -0.1000 -0.8488
        vertex -7.0920 -0.1000 2.4608
    endloop
endfacet
facet normal 0.0000 -3.1046 0.0000
    outer loop
        vertex -7.0920 -0.1000 2.4608
        vertex -8.4152 -0.1000 1.1156
        vertex -8.4988 -0.1000 0.6552
    endloop
endfacet
facet normal 0.0000 -1.1537 0.0000
    outer loop
        vertex -8.4988 -0.1000 0.6552
        vertex -8.4068 -0.1000 -0.4788
        vertex -8.2140 -0.1000 -0.8488
    endloop
endfacet
facet normal 0.0000 -4.8785 0.0000
    outer loop
        vertex -6.3944 -0.1000 2.4608
        vertex -5.2832 -0.1000 0.3572
        vertex -5.1752 -0.1000 0.8552
    endloop
endfacet
facet normal 0.0000 -10.8744 0.0000
    outer loop
        vertex -10.2884 -0.1000 1.8352
        vertex -11.3896 -0.1000 1.8352
        vertex -11.3896 -0.1000 0.2552
    endloop
endfacet
facet normal 0.0000 -22.6644 0.0000
    outer loop
        vertex -15.6000 -0.1000 4.4000
        vertex -12.0872 -0.1000 2.4608
        vertex -10.2172 -0.1000 2.4608
    endloop
endfacet
facet normal 0.0000 -37.8774 0.0000
    outer loop
        vertex -7.0920 -0.1000 2.4608
        vertex -15.6000 -0.1000 4.4000
        vertex -10.2172 -0.1000 2.4608
    endloop
endfacet
facet normal 0.0000 -1.8048 0.0000
    outer loop
        vertex -10.2172 -0.1000 2.4608
        vertex -9.4740 -0.1000 2.3684
        vertex -7.0920 -0.1000 2.4608
    endloop
endfacet
facet normal 0.0000 -1.1053 0.0000
    outer loop
        vertex -9.3644 -0.1000 1.6408
        vertex -9.7316 -0.1000 1.7848
        vertex -9.0992 -0.1000 1.0552
    endloop
endfacet
facet normal 0.0000 -0.3447 0.0000
    outer loop
        vertex -9.0992 -0.1000 1.0552
        vertex -9.1608 -0.1000 1.3992
        vertex -9.3644 -0.1000 1.6408
    endloop
endfacet
facet normal 0.0000 -4.2879 0.0000
    outer loop
        vertex -7.0920 -0.1000 2.4608
        vertex -9.4740 -0.1000 2.3684
        vertex -8.9064 -0.1000 2.1024
    endloop
endfacet
facet normal 0.0000 -8.4549 0.0000
    outer loop
        vertex -15.6000 -0.1000 4.4000
        vertex -7.0920 -0.1000 2.4608
        vertex -6.3944 -0.1000 2.4608
    endloop
endfacet
facet normal 0.0000 -5.6272 0.0000
    outer loop
        vertex -7.0920 -0.1000 2.4608
        vertex -8.9064 -0.1000 2.1024
        vertex -8.5428 -0.1000 1.6780
    endloop
endfacet
facet normal 0.0000 -5.7238 0.0000
    outer loop
        vertex -7.0920 -0.1000 2.4608
        vertex -8.5428 -0.1000 1.6780
        vertex -8.4152 -0.1000 1.1156
    endloop
endfacet
facet normal 0.0000 -35.8684 0.0000
    outer loop
        vertex -3.3704 -0.1000 2.4472
        vertex -15.6000 -0.1000 4.4000
        vertex -6.3944 -0.1000 2.4608
    endloop
endfacet
facet normal 0.0000 -3.9298 0.0000
    outer loop
        vertex -6.3944 -0.1000 2.4608
        vertex -4.1548 -0.1000 2.2428
        vertex -3.3704 -0.1000 2.4472
    endloop
endfacet
facet normal 0.0000 -5.1478 0.0000
    outer loop
        vertex -6.3944 -0.1000 2.4608
        vertex -5.1752 -0.1000 0.8552
        vertex -5.0024 -0.1000 1.3032
    endloop
endfacet
facet normal 0.0000 -13.4100 0.0000
    outer loop
        vertex -1.9800 -0.1000 -0.1768
        vertex -2.0800 -0.1000 0.6560
        vertex -4.6568 -0.1000 0.6596
    endloop
endfacet
facet normal 0.0000 -14.5366 0.0000
    outer loop
        vertex -4.6568 -0.1000 0.6596
        vertex -4.7608 -0.1000 -0.1768
        vertex -1.9800 -0.1000 -0.1768
    endloop
endfacet
facet normal 0.0000 -10.7517 0.0000
    outer loop
        vertex -4.6568 -0.1000 0.6596
        vertex -2.0800 -0.1000 0.6560
        vertex -2.3664 -0.1000 1.3240
    endloop
endfacet
facet normal 0.0000 -8.3722 0.0000
    outer loop
        vertex -2.3664 -0.1000 1.3240
        vertex -4.3688 -0.1000 1.3280
        vertex -4.6568 -0.1000 0.6596
    endloop
endfacet
facet normal 0.0000 -5.4725 0.0000
    outer loop
        vertex -3.9288 -0.1000 1.7644
        vertex -4.3688 -0.1000 1.3280
        vertex -2.3664 -0.1000 1.3240
    endloop
endfacet
facet normal 0.0000 -3.0949 0.0000
    outer loop
        vertex -2.3664 -0.1000 1.3240
        vertex -2.8044 -0.1000 1.7644
        vertex -3.9288 -0.1000 1.7644
    endloop
endfacet
facet normal 0.0000 -14.3559 0.0000
    outer loop
        vertex -1.9800 -0.1000 -0.1768
        vertex -4.7608 -0.1000 -0.1768
        vertex -2.0800 -0.1000 -1.0028
    endloop
endfacet
facet normal 0.0000 -5.5660 0.0000
    outer loop
        vertex -1.4580 -0.1000 0.3628
        vertex -1.4220 -0.1000 -0.1768
        vertex 0.1304 -0.1000 1.2924
    endloop
endfacet
facet normal 0.0000 -5.5319 0.0000
    outer loop
        vertex 0.1304 -0.1000 1.2924
        vertex -0.3016 -0.1000 1.5968
        vertex -1.4580 -0.1000 0.3628
    endloop
endfacet
facet normal 0.0000 -4.3321 0.0000
    outer loop
        vertex -0.3016 -0.1000 1.5968
        vertex -1.7396 -0.1000 1.3084
        vertex -1.5660 -0.1000 0.8612
    endloop
endfacet
facet normal 0.0000 -4.4351 0.0000
    outer loop
        vertex -0.3016 -0.1000 1.5968
        vertex -1.5660 -0.1000 0.8612
        vertex -1.4580 -0.1000 0.3628
    endloop
endfacet
facet normal 0.0000 -3.8780 0.0000
    outer loop
        vertex -1.9724 -0.1000 1.6932
        vertex -1.7396 -0.1000 1.3084
        vertex -0.3016 -0.1000 1.5968
    endloop
endfacet
facet normal 0.0000 -3.9162 0.0000
    outer loop
        vertex -0.3016 -0.1000 1.5968
        vertex 0.0004 -0.1000 1.9544
        vertex -1.9724 -0.1000 1.6932
    endloop
endfacet
facet normal 0.0000 -1.0991 0.0000
    outer loop
        vertex -3.3684 -0.1000 1.9208
        vertex -3.9288 -0.1000 1.7644
        vertex -2.8044 -0.1000 1.7644
    endloop
endfacet
facet normal 0.0000 -8.6196 0.0000
    outer loop
        vertex -6.3944 -0.1000 2.4608
        vertex -4.7732 -0.1000 1.6872
        vertex -4.1548 -0.1000 2.2428
    endloop
endfacet
facet normal 0.0000 -5.1294 0.0000
    outer loop
        vertex 1.5844 -0.1000 0.1164
        vertex 0.8184 -0.1000 1.8508
        vertex 0.4376 -0.1000 1.6416
    endloop
endfacet
facet normal 0.0000 -5.4313 0.0000
    outer loop
        vertex 0.4376 -0.1000 1.6416
        vertex 0.1304 -0.1000 1.2924
        vertex 1.5844 -0.1000 0.1164
    endloop
endfacet
facet normal 0.0000 -4.9865 0.0000
    outer loop
        vertex 0.0004 -0.1000 1.9544
        vertex 0.3792 -0.1000 2.2196
        vertex -2.5904 -0.1000 2.2468
    endloop
endfacet
facet normal 0.0000 -7.8348 0.0000
    outer loop
        vertex -2.5904 -0.1000 2.2468
        vertex -1.9724 -0.1000 1.6932
        vertex 0.0004 -0.1000 1.9544
    endloop
endfacet
facet normal 0.0000 -3.1841 0.0000
    outer loop
        vertex -2.5904 -0.1000 2.2468
        vertex 0.3792 -0.1000 2.2196
        vertex 0.8112 -0.1000 2.3872
    endloop
endfacet
facet normal 0.0000 -4.9450 0.0000
    outer loop
        vertex 0.8112 -0.1000 2.3872
        vertex -3.3704 -0.1000 2.4472
        vertex -2.5904 -0.1000 2.2468
    endloop
endfacet
facet normal 0.0000 -56.6556 0.0000
    outer loop
        vertex 1.2716 -0.1000 2.4472
        vertex -15.6000 -0.1000 4.4000
        vertex -3.3704 -0.1000 2.4472
    endloop
endfacet
facet normal 0.0000 -1.7408 0.0000
    outer loop
        vertex -3.3704 -0.1000 2.4472
        vertex 0.8112 -0.1000 2.3872
        vertex 1.2716 -0.1000 2.4472
    endloop
endfacet
facet normal 0.0000 -4.9991 0.0000
    outer loop
        vertex -6.3944 -0.1000 2.4608
        vertex -5.0024 -0.1000 1.3032
        vertex -4.7732 -0.1000 1.6872
    endloop
endfacet
facet normal 0.0000 -1.7723 0.0000
    outer loop
        vertex 4.3324 -0.1000 -2.6240
        vertex 2.7312 -0.1000 -2.8000
        vertex 4.3424 -0.1000 -2.8000
    endloop
endfacet
facet normal 0.0000 -1.5387 0.0000
    outer loop
        vertex 10.6680 -0.1000 -2.9528
        vertex 4.3424 -0.1000 -2.8000
        vertex 2.7312 -0.1000 -2.8000
    endloop
endfacet
facet normal 0.0000 -67.0783 0.0000
    outer loop
        vertex 2.7312 -0.1000 -2.8000
        vertex 15.6000 -0.1000 -4.4000
        vertex 10.6680 -0.1000 -2.9528
    endloop
endfacet
facet normal 0.0000 -1.6835 0.0000
    outer loop
        vertex 2.7312 -0.1000 -2.8000
        vertex 4.3324 -0.1000 -2.6240
        vertex 4.3304 -0.1000 -2.4560
    endloop
endfacet
facet normal 0.0000 -5.2614 0.0000
    outer loop
        vertex 4.3304 -0.1000 -2.4560
        vertex 2.7312 -0.1000 -2.2736
        vertex 2.7312 -0.1000 -2.8000
    endloop
endfacet
facet normal 0.0000 -6.0057 0.0000
    outer loop
        vertex 4.4012 -0.1000 -1.8632
        vertex 2.7312 -0.1000 -2.2736
        vertex 4.3304 -0.1000 -2.4560
    endloop
endfacet
facet normal 0.0000 -5.1092 0.0000
    outer loop
        vertex 2.7312 -0.1000 -2.2736
        vertex 4.4012 -0.1000 -1.8632
        vertex 4.6132 -0.1000 -1.3216
    endloop
endfacet
facet normal 0.0000 -28.2904 0.0000
    outer loop
        vertex 4.6132 -0.1000 -1.3216
        vertex 2.1604 -0.1000 -0.1572
        vertex 2.7312 -0.1000 -2.2736
    endloop
endfacet
facet normal 0.0000 -6.7310 0.0000
    outer loop
        vertex 1.0364 -0.1000 -1.0132
        vertex 0.6956 -0.1000 -1.3952
        vertex 2.7312 -0.1000 -2.2736
    endloop
endfacet
facet normal 0.0000 -8.9868 0.0000
    outer loop
        vertex 2.7312 -0.1000 -2.2736
        vertex 1.6044 -0.1000 -0.5872
        vertex 1.0364 -0.1000 -1.0132
    endloop
endfacet
facet normal 0.0000 -5.2713 0.0000
    outer loop
        vertex 9.4128 -0.1000 -2.1852
        vertex 9.1988 -0.1000 -1.7968
        vertex 7.2900 -0.1000 -2.2736
    endloop
endfacet
facet normal 0.0000 -6.9840 0.0000
    outer loop
        vertex 7.2900 -0.1000 -2.2736
        vertex 7.2900 -0.1000 -2.8000
        vertex 9.4128 -0.1000 -2.1852
    endloop
endfacet
facet normal 0.0000 -6.6136 0.0000
    outer loop
        vertex 5.0496 -0.1000 -1.8152
        vertex 4.9816 -0.1000 -2.2736
        vertex 7.2900 -0.1000 -2.2736
    endloop
endfacet
facet normal 0.0000 -6.4667 0.0000
    outer loop
        vertex 7.2900 -0.1000 -2.2736
        vertex 5.2540 -0.1000 -1.3952
        vertex 5.0496 -0.1000 -1.8152
    endloop
endfacet
facet normal 0.0000 -6.7319 0.0000
    outer loop
        vertex 5.5948 -0.1000 -1.0132
        vertex 5.2540 -0.1000 -1.3952
        vertex 7.2900 -0.1000 -2.2736
    endloop
endfacet
facet normal 0.0000 -8.9879 0.0000
    outer loop
        vertex 7.2900 -0.1000 -2.2736
        vertex 6.1628 -0.1000 -0.5872
        vertex 5.5948 -0.1000 -1.0132
    endloop
endfacet
facet normal 0.0000 -5.8942 0.0000
    outer loop
        vertex 9.0368 -0.1000 -1.3432
        vertex 7.2900 -0.1000 -2.2736
        vertex 9.1988 -0.1000 -1.7968
    endloop
endfacet
facet normal 0.0000 -6.0824 0.0000
    outer loop
        vertex 7.2900 -0.1000 -2.2736
        vertex 9.0368 -0.1000 -1.3432
        vertex 8.9348 -0.1000 -0.8404
    endloop
endfacet
facet normal 0.0000 -26.8695 0.0000
    outer loop
        vertex 8.9348 -0.1000 -0.8404
        vertex 6.7192 -0.1000 -0.1572
        vertex 7.2900 -0.1000 -2.2736
    endloop
endfacet
facet normal 0.0000 -2.8150 0.0000
    outer loop
        vertex 7.2900 -0.1000 -2.8000
        vertex 4.3424 -0.1000 -2.8000
        vertex 10.6680 -0.1000 -2.9528
    endloop
endfacet
facet normal 0.0000 -8.1271 0.0000
    outer loop
        vertex 2.5028 -0.1000 0.2104
        vertex 2.1604 -0.1000 -0.1572
        vertex 4.6132 -0.1000 -1.3216
    endloop
endfacet
facet normal 0.0000 -9.8397 0.0000
    outer loop
        vertex 4.6132 -0.1000 -1.3216
        vertex 4.9664 -0.1000 -0.8320
        vertex 2.5028 -0.1000 0.2104
    endloop
endfacet
facet normal 0.0000 -8.8885 0.0000
    outer loop
        vertex 2.1604 -0.1000 -0.1572
        vertex 1.6044 -0.1000 -0.5872
        vertex 2.7312 -0.1000 -2.2736
    endloop
endfacet
facet normal 0.0000 -6.0439 0.0000
    outer loop
        vertex 8.9348 -0.1000 -0.8404
        vertex 8.9008 -0.1000 -0.3052
        vertex 7.0612 -0.1000 0.2104
    endloop
endfacet
facet normal 0.0000 -6.5507 0.0000
    outer loop
        vertex 7.0612 -0.1000 0.2104
        vertex 6.7192 -0.1000 -0.1572
        vertex 8.9348 -0.1000 -0.8404
    endloop
endfacet
facet normal 0.0000 -8.8938 0.0000
    outer loop
        vertex 6.7192 -0.1000 -0.1572
        vertex 6.1628 -0.1000 -0.5872
        vertex 7.2900 -0.1000 -2.2736
    endloop
endfacet
facet normal 0.0000 -5.7004 0.0000
    outer loop
        vertex 4.6888 -0.1000 1.2924
        vertex 5.1700 -0.1000 -0.6464
        vertex 5.5620 -0.1000 -0.3304
    endloop
endfacet
facet normal 0.0000 -3.0253 0.0000
    outer loop
        vertex 4.9664 -0.1000 -0.8320
        vertex 5.1700 -0.1000 -0.6464
        vertex 4.6888 -0.1000 1.2924
    endloop
endfacet
facet normal 0.0000 -27.4951 0.0000
    outer loop
        vertex 4.6888 -0.1000 1.2924
        vertex 2.7080 -0.1000 0.6036
        vertex 4.9664 -0.1000 -0.8320
    endloop
endfacet
facet normal 0.0000 -3.6783 0.0000
    outer loop
        vertex 9.9744 -0.1000 -2.7472
        vertex 7.2900 -0.1000 -2.8000
        vertex 10.6680 -0.1000 -2.9528
    endloop
endfacet
facet normal 0.0000 -6.8557 0.0000
    outer loop
        vertex 9.6320 -0.1000 -1.4496
        vertex 9.8964 -0.1000 -1.9360
        vertex 11.5708 -0.1000 -0.8676
    endloop
endfacet
facet normal 0.0000 -12.4797 0.0000
    outer loop
        vertex 11.5708 -0.1000 -0.8676
        vertex 10.2360 -0.1000 -0.2384
        vertex 9.6320 -0.1000 -1.4496
    endloop
endfacet
facet normal 0.0000 -3.9962 0.0000
    outer loop
        vertex 11.5744 -0.1000 -1.8140
        vertex 9.8964 -0.1000 -1.9360
        vertex 10.2628 -0.1000 -2.2904
    endloop
endfacet
facet normal 0.0000 -2.3678 0.0000
    outer loop
        vertex 10.2628 -0.1000 -2.2904
        vertex 10.6836 -0.1000 -2.4264
        vertex 11.5744 -0.1000 -1.8140
    endloop
endfacet
facet normal 0.0000 -9.6143 0.0000
    outer loop
        vertex 9.4128 -0.1000 -2.1852
        vertex 7.2900 -0.1000 -2.8000
        vertex 9.9744 -0.1000 -2.7472
    endloop
endfacet
facet normal 0.0000 -13.6975 0.0000
    outer loop
        vertex 11.7712 -0.1000 -2.4968
        vertex 11.2916 -0.1000 -2.8308
        vertex 15.6000 -0.1000 -4.4000
    endloop
endfacet
facet normal 0.0000 -9.4011 0.0000
    outer loop
        vertex 11.2916 -0.1000 -2.8308
        vertex 10.6680 -0.1000 -2.9528
        vertex 15.6000 -0.1000 -4.4000
    endloop
endfacet
facet normal 0.0000 -15.6858 0.0000
    outer loop
        vertex 12.0832 -0.1000 -1.9964
        vertex 11.7712 -0.1000 -2.4968
        vertex 15.6000 -0.1000 -4.4000
    endloop
endfacet
facet normal 0.0000 -1.1415 0.0000
    outer loop
        vertex 11.5744 -0.1000 -1.8140
        vertex 10.6836 -0.1000 -2.4264
        vertex 11.3868 -0.1000 -2.1480
    endloop
endfacet
facet normal 0.0000 -15.3101 0.0000
    outer loop
        vertex 12.1952 -0.1000 -1.3764
        vertex 12.0832 -0.1000 -1.9964
        vertex 15.6000 -0.1000 -4.4000
    endloop
endfacet
facet normal 0.0000 -4.6257 0.0000
    outer loop
        vertex 9.8964 -0.1000 -1.9360
        vertex 11.5744 -0.1000 -1.8140
        vertex 11.6368 -0.1000 -1.3684
    endloop
endfacet
facet normal 0.0000 -5.6816 0.0000
    outer loop
        vertex 11.6368 -0.1000 -1.3684
        vertex 11.5708 -0.1000 -0.8676
        vertex 9.8964 -0.1000 -1.9360
    endloop
endfacet
facet normal 0.0000 -2.5744 0.0000
    outer loop
        vertex 10.7116 -0.1000 -0.1540
        vertex 10.2360 -0.1000 -0.2384
        vertex 11.5708 -0.1000 -0.8676
    endloop
endfacet
facet normal 0.0000 -1.2368 0.0000
    outer loop
        vertex 11.5708 -0.1000 -0.8676
        vertex 11.3848 -0.1000 -0.4828
        vertex 10.7116 -0.1000 -0.1540
    endloop
endfacet
facet normal 0.0000 -2.0464 0.0000
    outer loop
        vertex 9.6320 -0.1000 -1.4496
        vertex 10.2360 -0.1000 -0.2384
        vertex 9.8396 -0.1000 -0.4912
    endloop
endfacet
facet normal 0.0000 -1.3549 0.0000
    outer loop
        vertex 9.8396 -0.1000 -0.4912
        vertex 9.5220 -0.1000 -0.9132
        vertex 9.6320 -0.1000 -1.4496
    endloop
endfacet
facet normal 0.0000 -0.4321 0.0000
    outer loop
        vertex 9.4592 -0.1000 -0.0320
        vertex 9.4552 -0.1000 -0.2160
        vertex 9.8380 -0.1000 0.1108
    endloop
endfacet
facet normal 0.0000 -1.6487 0.0000
    outer loop
        vertex 9.8380 -0.1000 0.1108
        vertex 9.5908 -0.1000 0.7140
        vertex 9.4592 -0.1000 -0.0320
    endloop
endfacet
facet normal 0.0000 -0.4307 0.0000
    outer loop
        vertex 10.7116 -0.1000 -0.1540
        vertex 11.3848 -0.1000 -0.4828
        vertex 11.0940 -0.1000 -0.2384
    endloop
endfacet
facet normal 0.0000 -3.6298 0.0000
    outer loop
        vertex 11.7900 -0.1000 1.7768
        vertex 11.7828 -0.1000 -0.1180
        vertex 12.0872 -0.1000 -0.6720
    endloop
endfacet
facet normal 0.0000 -63.1846 0.0000
    outer loop
        vertex 12.0872 -0.1000 -0.6720
        vertex 15.6000 -0.1000 4.4000
        vertex 11.7900 -0.1000 1.7768
    endloop
endfacet
facet normal 0.0000 -12.9487 0.0000
    outer loop
        vertex 12.0872 -0.1000 -0.6720
        vertex 12.1952 -0.1000 -1.3764
        vertex 15.6000 -0.1000 -4.4000
    endloop
endfacet
facet normal 0.0000 -193.2040 0.0000
    outer loop
        vertex 15.6000 -0.1000 -4.4000
        vertex 15.6000 -0.1000 4.4000
        vertex 12.0872 -0.1000 -0.6720
    endloop
endfacet
facet normal 0.0000 -29.4720 0.0000
    outer loop
        vertex 2.7312 -0.1000 -2.8000
        vertex -0.2160 -0.1000 -2.8000
        vertex 15.6000 -0.1000 -4.4000
    endloop
endfacet
facet normal 0.0000 -6.2773 0.0000
    outer loop
        vertex 1.2728 -0.1000 1.9208
        vertex 1.5844 -0.1000 0.1164
        vertex 2.0600 -0.1000 0.5856
    endloop
endfacet
facet normal 0.0000 -3.4807 0.0000
    outer loop
        vertex 2.0600 -0.1000 0.5856
        vertex 2.2184 -0.1000 1.0244
        vertex 1.2728 -0.1000 1.9208
    endloop
endfacet
facet normal 0.0000 -0.7836 0.0000
    outer loop
        vertex 2.2184 -0.1000 1.0244
        vertex 2.1132 -0.1000 1.5224
        vertex 1.7984 -0.1000 1.8208
    endloop
endfacet
facet normal 0.0000 -2.3537 0.0000
    outer loop
        vertex 1.7984 -0.1000 1.8208
        vertex 1.2728 -0.1000 1.9208
        vertex 2.2184 -0.1000 1.0244
    endloop
endfacet
facet normal 0.0000 -7.3912 0.0000
    outer loop
        vertex 2.7080 -0.1000 0.6036
        vertex 2.5028 -0.1000 0.2104
        vertex 4.9664 -0.1000 -0.8320
    endloop
endfacet
facet normal 0.0000 -5.1294 0.0000
    outer loop
        vertex 6.1428 -0.1000 0.1164
        vertex 5.3768 -0.1000 1.8508
        vertex 4.9960 -0.1000 1.6416
    endloop
endfacet
facet normal 0.0000 -5.4313 0.0000
    outer loop
        vertex 4.9960 -0.1000 1.6416
        vertex 4.6888 -0.1000 1.2924
        vertex 6.1428 -0.1000 0.1164
    endloop
endfacet
facet normal 0.0000 -5.6942 0.0000
    outer loop
        vertex 4.2568 -0.1000 1.5968
        vertex 2.6644 -0.1000 1.5948
        vertex 2.7768 -0.1000 1.0228
    endloop
endfacet
facet normal 0.0000 -3.6308 0.0000
    outer loop
        vertex 4.2568 -0.1000 1.5968
        vertex 2.7768 -0.1000 1.0228
        vertex 2.7080 -0.1000 0.6036
    endloop
endfacet
facet normal 0.0000 -5.6282 0.0000
    outer loop
        vertex 2.7080 -0.1000 0.6036
        vertex 4.6888 -0.1000 1.2924
        vertex 4.2568 -0.1000 1.5968
    endloop
endfacet
facet normal 0.0000 -4.4865 0.0000
    outer loop
        vertex 2.3540 -0.1000 2.0452
        vertex 2.6644 -0.1000 1.5948
        vertex 4.2568 -0.1000 1.5968
    endloop
endfacet
facet normal 0.0000 -5.1002 0.0000
    outer loop
        vertex 4.2568 -0.1000 1.5968
        vertex 4.5592 -0.1000 1.9544
        vertex 2.3540 -0.1000 2.0452
    endloop
endfacet
facet normal 0.0000 -6.2773 0.0000
    outer loop
        vertex 6.1428 -0.1000 0.1164
        vertex 6.6184 -0.1000 0.5856
        vertex 5.8312 -0.1000 1.9208
    endloop
endfacet
facet normal 0.0000 -5.2608 0.0000
    outer loop
        vertex 5.8312 -0.1000 1.9208
        vertex 5.3768 -0.1000 1.8508
        vertex 6.1428 -0.1000 0.1164
    endloop
endfacet
facet normal 0.0000 -8.3292 0.0000
    outer loop
        vertex 4.6888 -0.1000 1.2924
        vertex 5.5620 -0.1000 -0.3304
        vertex 6.1428 -0.1000 0.1164
    endloop
endfacet
facet normal 0.0000 -5.2968 0.0000
    outer loop
        vertex 4.9376 -0.1000 2.2196
        vertex 1.8796 -0.1000 2.3412
        vertex 2.3540 -0.1000 2.0452
    endloop
endfacet
facet normal 0.0000 -3.8699 0.0000
    outer loop
        vertex 2.3540 -0.1000 2.0452
        vertex 4.5592 -0.1000 1.9544
        vertex 4.9376 -0.1000 2.2196
    endloop
endfacet
facet normal 0.0000 -2.4869 0.0000
    outer loop
        vertex 5.3696 -0.1000 2.3872
        vertex 1.2716 -0.1000 2.4472
        vertex 1.8796 -0.1000 2.3412
    endloop
endfacet
facet normal 0.0000 -3.5316 0.0000
    outer loop
        vertex 1.8796 -0.1000 2.3412
        vertex 4.9376 -0.1000 2.2196
        vertex 5.3696 -0.1000 2.3872
    endloop
endfacet
facet normal 0.0000 -2.9933 0.0000
    outer loop
        vertex 10.6420 -0.1000 2.3960
        vertex 5.8300 -0.1000 2.4472
        vertex 6.4384 -0.1000 2.3412
    endloop
endfacet
facet normal 0.0000 -3.8762 0.0000
    outer loop
        vertex 6.4384 -0.1000 2.3412
        vertex 10.2076 -0.1000 2.2428
        vertex 10.6420 -0.1000 2.3960
    endloop
endfacet
facet normal 0.0000 -1.7094 0.0000
    outer loop
        vertex 1.2716 -0.1000 2.4472
        vertex 5.3696 -0.1000 2.3872
        vertex 5.8300 -0.1000 2.4472
    endloop
endfacet
facet normal 0.0000 -55.6353 0.0000
    outer loop
        vertex 5.8300 -0.1000 2.4472
        vertex 15.6000 -0.1000 4.4000
        vertex 1.2716 -0.1000 2.4472
    endloop
endfacet
facet normal 0.0000 -2.3537 0.0000
    outer loop
        vertex 6.7768 -0.1000 1.0244
        vertex 6.3568 -0.1000 1.8208
        vertex 5.8312 -0.1000 1.9208
    endloop
endfacet
facet normal 0.0000 -3.4807 0.0000
    outer loop
        vertex 5.8312 -0.1000 1.9208
        vertex 6.6184 -0.1000 0.5856
        vertex 6.7768 -0.1000 1.0244
    endloop
endfacet
facet normal 0.0000 -5.2608 0.0000
    outer loop
        vertex 1.2728 -0.1000 1.9208
        vertex 0.8184 -0.1000 1.8508
        vertex 1.5844 -0.1000 0.1164
    endloop
endfacet
facet normal 0.0000 -5.1821 0.0000
    outer loop
        vertex 7.2664 -0.1000 0.6036
        vertex 7.0612 -0.1000 0.2104
        vertex 8.9008 -0.1000 -0.3052
    endloop
endfacet
facet normal 0.0000 -6.1455 0.0000
    outer loop
        vertex 8.9008 -0.1000 -0.3052
        vertex 8.9404 -0.1000 0.2744
        vertex 7.2664 -0.1000 0.6036
    endloop
endfacet
facet normal 0.0000 -4.5274 0.0000
    outer loop
        vertex 7.3352 -0.1000 1.0228
        vertex 7.2664 -0.1000 0.6036
        vertex 8.9404 -0.1000 0.2744
    endloop
endfacet
facet normal 0.0000 -5.8751 0.0000
    outer loop
        vertex 8.9404 -0.1000 0.2744
        vertex 9.0588 -0.1000 0.8048
        vertex 7.3352 -0.1000 1.0228
    endloop
endfacet
facet normal 0.0000 -5.3317 0.0000
    outer loop
        vertex 7.3352 -0.1000 1.0228
        vertex 9.0588 -0.1000 0.8048
        vertex 9.2496 -0.1000 1.2756
    endloop
endfacet
facet normal 0.0000 -7.0209 0.0000
    outer loop
        vertex 9.2496 -0.1000 1.2756
        vertex 7.2232 -0.1000 1.5948
        vertex 7.3352 -0.1000 1.0228
    endloop
endfacet
facet normal 0.0000 -1.9013 0.0000
    outer loop
        vertex 9.5908 -0.1000 0.7140
        vertex 9.8380 -0.1000 0.1108
        vertex 10.2620 -0.1000 0.3068
    endloop
endfacet
facet normal 0.0000 -3.5203 0.0000
    outer loop
        vertex 10.2620 -0.1000 0.3068
        vertex 9.9448 -0.1000 1.3384
        vertex 9.5908 -0.1000 0.7140
    endloop
endfacet
facet normal 0.0000 -5.2551 0.0000
    outer loop
        vertex 10.7272 -0.1000 0.3728
        vertex 10.4704 -0.1000 1.7644
        vertex 9.9448 -0.1000 1.3384
    endloop
endfacet
facet normal 0.0000 -3.1302 0.0000
    outer loop
        vertex 9.9448 -0.1000 1.3384
        vertex 10.2620 -0.1000 0.3068
        vertex 10.7272 -0.1000 0.3728
    endloop
endfacet
facet normal 0.0000 -6.0183 0.0000
    outer loop
        vertex 10.7272 -0.1000 0.3728
        vertex 11.3168 -0.1000 0.2444
        vertex 11.1184 -0.1000 1.9208
    endloop
endfacet
facet normal 0.0000 -5.8870 0.0000
    outer loop
        vertex 11.1184 -0.1000 1.9208
        vertex 10.4704 -0.1000 1.7644
        vertex 10.7272 -0.1000 0.3728
    endloop
endfacet
facet normal 0.0000 -5.5682 0.0000
    outer loop
        vertex 7.2232 -0.1000 1.5948
        vertex 9.2496 -0.1000 1.2756
        vertex 9.5064 -0.1000 1.6748
    endloop
endfacet
facet normal 0.0000 -6.5826 0.0000
    outer loop
        vertex 9.5064 -0.1000 1.6748
        vertex 6.9124 -0.1000 2.0452
        vertex 7.2232 -0.1000 1.5948
    endloop
endfacet
facet normal 0.0000 -4.5544 0.0000
    outer loop
        vertex 6.9124 -0.1000 2.0452
        vertex 9.8264 -0.1000 1.9988
        vertex 10.2076 -0.1000 2.2428
    endloop
endfacet
facet normal 0.0000 -6.6815 0.0000
    outer loop
        vertex 10.2076 -0.1000 2.2428
        vertex 6.4384 -0.1000 2.3412
        vertex 6.9124 -0.1000 2.0452
    endloop
endfacet
facet normal 0.0000 -5.9936 0.0000
    outer loop
        vertex 6.9124 -0.1000 2.0452
        vertex 9.5064 -0.1000 1.6748
        vertex 9.8264 -0.1000 1.9988
    endloop
endfacet
facet normal 0.0000 -1.6936 0.0000
    outer loop
        vertex 5.8300 -0.1000 2.4472
        vertex 10.6420 -0.1000 2.3960
        vertex 11.1224 -0.1000 2.4472
    endloop
endfacet
facet normal 0.0000 -64.5937 0.0000
    outer loop
        vertex 11.1224 -0.1000 2.4472
        vertex 15.6000 -0.1000 4.4000
        vertex 5.8300 -0.1000 2.4472
    endloop
endfacet
facet normal 0.0000 -12.1779 0.0000
    outer loop
        vertex 15.6000 -0.1000 4.4000
        vertex 11.1224 -0.1000 2.4472
        vertex 11.7900 -0.1000 2.3032
    endloop
endfacet
facet normal 0.0000 -12.5349 0.0000
    outer loop
        vertex 15.6000 -0.1000 4.4000
        vertex 11.7900 -0.1000 2.3032
        vertex 11.7900 -0.1000 1.7768
    endloop
endfacet
facet normal 0.0000 -5.5349 0.0000
    outer loop
        vertex 11.3168 -0.1000 0.2444
        vertex 11.7828 -0.1000 -0.1180
        vertex 11.7900 -0.1000 1.7768
    endloop
endfacet
facet normal 0.0000 -6.8581 0.0000
    outer loop
        vertex 11.7900 -0.1000 1.7768
        vertex 11.1184 -0.1000 1.9208
        vertex 11.3168 -0.1000 0.2444
    endloop
endfacet
facet normal 0.0000 -0.7856 0.0000
    outer loop
        vertex 6.3568 -0.1000 1.8208
        vertex 6.7768 -0.1000 1.0244
        vertex 6.6720 -0.1000 1.5224
    endloop
endfacet
facet normal 0.0000 -380.7960 0.0000
    outer loop
        vertex 15.6000 -0.1000 4.4000
        vertex -15.6000 -0.1000 4.4000
        vertex 1.2716 -0.1000 2.4472
    endloop
endfacet
facet normal 0.0000 -8.3292 0.0000
    outer loop
        vertex 0.1304 -0.1000 1.2924
        vertex 1.0036 -0.1000 -0.3304
        vertex 1.5844 -0.1000 0.1164
    endloop
endfacet
endsolid GiantLegoRocks
