solid GiantLegoRocks
facet normal 0.0000 0.7500 0.0000
    outer loop
        vertex 7.2000 0.0000 3.2000
        vertex 7.2000 0.0000 -3.2000
        vertex -7.2000 0.0000 -3.2000
    endloop
endfacet
facet normal 0.0000 0.7500 0.0000
    outer loop
        vertex -7.2000 0.0000 -3.2000
        vertex -7.2000 0.0000 3.2000
        vertex 7.2000 0.0000 3.2000
    endloop
endfacet
facet normal 0.0000 -0.2500 16.0000
    outer loop
        vertex -7.2000 -0.1000 3.2000
        vertex 7.2000 -0.1000 3.2000
        vertex 7.2000 0.0000 3.2000
    endloop
endfacet
facet normal 0.0000 -0.2500 16.0000
    outer loop
        vertex 7.2000 0.0000 3.2000
        vertex -7.2000 0.0000 3.2000
        vertex -7.2000 -0.1000 3.2000
    endloop
endfacet
facet normal -36.0000 -0.2500 0.0000
    outer loop
        vertex -7.2000 -0.1000 -3.2000
        vertex -7.2000 -0.1000 3.2000
        vertex -7.2000 0.0000 3.2000
    endloop
endfacet
facet normal -36.0000 -0.2500 0.0000
    outer loop
        vertex -7.2000 0.0000 3.2000
        vertex -7.2000 0.0000 -3.2000
        vertex -7.2000 -0.1000 -3.2000
    endloop
endfacet
facet normal 0.0000 -0.2500 -16.0000
    outer loop
        vertex 7.2000 -0.1000 -3.2000
        vertex -7.2000 -0.1000 -3.2000
        vertex -7.2000 0.0000 -3.2000
    endloop
endfacet
facet normal 0.0000 -0.2500 -16.0000
    outer loop
        vertex -7.2000 0.0000 -3.2000
        vertex 7.2000 0.0000 -3.2000
        vertex 7.2000 -0.1000 -3.2000
    endloop
endfacet
facet normal 36.0000 -0.2500 0.0000
    outer loop
        vertex 7.2000 -0.1000 3.2000
        vertex 7.2000 -0.1000 -3.2000
        vertex 7.2000 0.0000 -3.2000
    endloop
endfacet
facet normal 36.0000 -0.2500 0.0000
    outer loop
        vertex 7.2000 0.0000 -3.2000
        vertex 7.2000 0.0000 3.2000
        vertex 7.2000 -0.1000 3.2000
    endloop
endfacet
facet normal 0.0000 -9.1800 0.0000
    outer loop
        vertex -7.2000 -0.1000 -1.5600
        vertex -6.3600 -0.1000 0.0400
        vertex -6.4800 -0.1000 1.5600
    endloop
endfacet
facet normal 0.0000 -21.4200 0.0000
    outer loop
        vertex -6.4800 -0.1000 1.5600
        vertex -7.2000 -0.1000 3.2000
        vertex -7.2000 -0.1000 -1.5600
    endloop
endfacet
facet normal 0.0000 -12.5400 0.0000
    outer loop
        vertex -7.2000 -0.1000 3.2000
        vertex -6.4800 -0.1000 1.5600
        vertex -5.5200 -0.1000 2.1600
    endloop
endfacet
facet normal 0.0000 -4.8200 0.0000
    outer loop
        vertex -5.5200 -0.1000 2.1600
        vertex -5.3600 -0.1000 2.5200
        vertex -7.2000 -0.1000 3.2000
    endloop
endfacet
facet normal 0.0000 -3.5500 0.0000
    outer loop
        vertex -3.6000 -0.1000 2.6400
        vertex -2.4000 -0.1000 2.6800
        vertex -1.0000 -0.1000 3.2000
    endloop
endfacet
facet normal 0.0000 -6.3300 0.0000
    outer loop
        vertex -1.0000 -0.1000 3.2000
        vertex -4.4800 -0.1000 2.8400
        vertex -3.6000 -0.1000 2.6400
    endloop
endfacet
facet normal 0.0000 -13.9500 0.0000
    outer loop
        vertex -1.0000 -0.1000 3.2000
        vertex -7.2000 -0.1000 3.2000
        vertex -4.4800 -0.1000 2.8400
    endloop
endfacet
facet normal 0.0000 -7.4200 0.0000
    outer loop
        vertex -7.2000 -0.1000 3.2000
        vertex -5.3600 -0.1000 2.5200
        vertex -4.4800 -0.1000 2.8400
    endloop
endfacet
facet normal 0.0000 -1.6800 0.0000
    outer loop
        vertex -3.4000 -0.1000 1.1200
        vertex -3.1600 -0.1000 1.6000
        vertex -3.7200 -0.1000 1.6000
    endloop
endfacet
facet normal 0.0000 -2.0000 0.0000
    outer loop
        vertex -3.7200 -0.1000 1.6000
        vertex -3.8000 -0.1000 0.7200
        vertex -3.4000 -0.1000 1.1200
    endloop
endfacet
facet normal 0.0000 -4.2600 0.0000
    outer loop
        vertex -3.8000 -0.1000 0.7200
        vertex -3.7200 -0.1000 1.6000
        vertex -4.5200 -0.1000 1.3200
    endloop
endfacet
facet normal 0.0000 -3.3600 0.0000
    outer loop
        vertex -4.5200 -0.1000 1.3200
        vertex -4.3600 -0.1000 0.4400
        vertex -3.8000 -0.1000 0.7200
    endloop
endfacet
facet normal 0.0000 -3.4000 0.0000
    outer loop
        vertex -4.3600 -0.1000 0.4400
        vertex -4.5200 -0.1000 1.3200
        vertex -5.0800 -0.1000 1.0000
    endloop
endfacet
facet normal 0.0000 -1.7200 0.0000
    outer loop
        vertex -5.0800 -0.1000 1.0000
        vertex -4.8000 -0.1000 0.4000
        vertex -4.3600 -0.1000 0.4400
    endloop
endfacet
facet normal 0.0000 -1.4000 0.0000
    outer loop
        vertex -4.8000 -0.1000 0.4000
        vertex -5.0800 -0.1000 1.0000
        vertex -5.3600 -0.1000 0.8000
    endloop
endfacet
facet normal 0.0000 -0.6200 0.0000
    outer loop
        vertex -5.3600 -0.1000 0.8000
        vertex -5.1600 -0.1000 0.4800
        vertex -4.8000 -0.1000 0.4000
    endloop
endfacet
facet normal 0.0000 -0.3000 0.0000
    outer loop
        vertex -2.9200 -0.1000 0.2000
        vertex -3.0400 -0.1000 0.0000
        vertex -2.9200 -0.1000 -0.2000
    endloop
endfacet
facet normal 0.0000 -1.0000 0.0000
    outer loop
        vertex -2.9200 -0.1000 -0.2000
        vertex -2.5200 -0.1000 0.1600
        vertex -2.9200 -0.1000 0.2000
    endloop
endfacet
facet normal 0.0000 -0.8900 0.0000
    outer loop
        vertex -2.5200 -0.1000 0.1600
        vertex -2.9200 -0.1000 -0.2000
        vertex -2.4800 -0.1000 -0.1600
    endloop
endfacet
facet normal 0.0000 -0.4800 0.0000
    outer loop
        vertex -2.4800 -0.1000 -0.1600
        vertex -2.2800 -0.1000 0.1600
        vertex -2.5200 -0.1000 0.1600
    endloop
endfacet
facet normal 0.0000 -0.2500 0.0000
    outer loop
        vertex -2.2800 -0.1000 0.1600
        vertex -2.4800 -0.1000 -0.1600
        vertex -2.2800 -0.1000 -0.0400
    endloop
endfacet
facet normal 0.0000 -0.4500 0.0000
    outer loop
        vertex 4.2000 -0.1000 -1.2800
        vertex 4.0000 -0.1000 -1.4800
        vertex 4.0800 -0.1000 -1.7600
    endloop
endfacet
facet normal 0.0000 -0.9000 0.0000
    outer loop
        vertex 4.0800 -0.1000 -1.7600
        vertex 4.3600 -0.1000 -1.8400
        vertex 4.2000 -0.1000 -1.2800
    endloop
endfacet
facet normal 0.0000 -1.9800 0.0000
    outer loop
        vertex 4.2000 -0.1000 -1.2800
        vertex 4.3600 -0.1000 -1.8400
        vertex 4.8800 -0.1000 -1.6800
    endloop
endfacet
facet normal 0.0000 -2.2800 0.0000
    outer loop
        vertex 4.8800 -0.1000 -1.6800
        vertex 4.8400 -0.1000 -1.1200
        vertex 4.2000 -0.1000 -1.2800
    endloop
endfacet
facet normal 0.0000 -1.2000 0.0000
    outer loop
        vertex 4.8400 -0.1000 -1.1200
        vertex 4.8800 -0.1000 -1.6800
        vertex 5.2000 -0.1000 -1.3600
    endloop
endfacet
facet normal 0.0000 -0.3900 0.0000
    outer loop
        vertex 5.2000 -0.1000 -1.3600
        vertex 5.1600 -0.1000 -1.1600
        vertex 4.8400 -0.1000 -1.1200
    endloop
endfacet
facet normal 0.0000 -5.6200 0.0000
    outer loop
        vertex 0.0800 -0.1000 -2.6000
        vertex -3.6400 -0.1000 -2.8800
        vertex -4.6800 -0.1000 -3.2000
    endloop
endfacet
facet normal 0.0000 -39.6000 0.0000
    outer loop
        vertex -4.6800 -0.1000 -3.2000
        vertex 5.8800 -0.1000 -3.2000
        vertex 0.0800 -0.1000 -2.6000
    endloop
endfacet
facet normal 0.0000 -10.5000 0.0000
    outer loop
        vertex 0.0800 -0.1000 -2.6000
        vertex 5.8800 -0.1000 -3.2000
        vertex 5.2000 -0.1000 -2.8400
    endloop
endfacet
facet normal 0.0000 -14.9400 0.0000
    outer loop
        vertex 5.2000 -0.1000 -2.8400
        vertex 2.3600 -0.1000 -2.2400
        vertex 0.0800 -0.1000 -2.6000
    endloop
endfacet
facet normal 0.0000 -2.5200 0.0000
    outer loop
        vertex 2.3600 -0.1000 -2.2400
        vertex 1.2400 -0.1000 -2.2400
        vertex 0.0800 -0.1000 -2.6000
    endloop
endfacet
facet normal 0.0000 -25.8300 0.0000
    outer loop
        vertex -7.2000 -0.1000 -1.5600
        vertex -7.2000 -0.1000 -3.2000
        vertex -4.6800 -0.1000 -3.2000
    endloop
endfacet
facet normal 0.0000 -33.8100 0.0000
    outer loop
        vertex -4.6800 -0.1000 -3.2000
        vertex -6.3600 -0.1000 0.0400
        vertex -7.2000 -0.1000 -1.5600
    endloop
endfacet
facet normal 0.0000 -24.4200 0.0000
    outer loop
        vertex -6.3600 -0.1000 0.0400
        vertex -4.6800 -0.1000 -3.2000
        vertex -3.6400 -0.1000 -2.8800
    endloop
endfacet
facet normal 0.0000 -29.3800 0.0000
    outer loop
        vertex -3.6400 -0.1000 -2.8800
        vertex -5.1600 -0.1000 0.4800
        vertex -6.3600 -0.1000 0.0400
    endloop
endfacet
facet normal 0.0000 -2.9500 0.0000
    outer loop
        vertex -6.3600 -0.1000 0.0400
        vertex -5.1600 -0.1000 0.4800
        vertex -5.3600 -0.1000 0.8000
    endloop
endfacet
facet normal 0.0000 -10.0700 0.0000
    outer loop
        vertex -5.3600 -0.1000 0.8000
        vertex -6.4800 -0.1000 1.5600
        vertex -6.3600 -0.1000 0.0400
    endloop
endfacet
facet normal 0.0000 -2.7300 0.0000
    outer loop
        vertex -6.4800 -0.1000 1.5600
        vertex -5.3600 -0.1000 0.8000
        vertex -5.0800 -0.1000 1.0000
    endloop
endfacet
facet normal 0.0000 -8.6100 0.0000
    outer loop
        vertex -5.0800 -0.1000 1.0000
        vertex -5.5200 -0.1000 2.1600
        vertex -6.4800 -0.1000 1.5600
    endloop
endfacet
facet normal 0.0000 -4.9400 0.0000
    outer loop
        vertex -5.5200 -0.1000 2.1600
        vertex -5.0800 -0.1000 1.0000
        vertex -4.5200 -0.1000 1.3200
    endloop
endfacet
facet normal 0.0000 -13.0800 0.0000
    outer loop
        vertex -4.5200 -0.1000 1.3200
        vertex -3.6000 -0.1000 2.6400
        vertex -5.5200 -0.1000 2.1600
    endloop
endfacet
facet normal 0.0000 -4.9900 0.0000
    outer loop
        vertex -3.6000 -0.1000 2.6400
        vertex -4.5200 -0.1000 1.3200
        vertex -3.7200 -0.1000 1.6000
    endloop
endfacet
facet normal 0.0000 -7.7700 0.0000
    outer loop
        vertex -3.7200 -0.1000 1.6000
        vertex -2.4000 -0.1000 2.6800
        vertex -3.6000 -0.1000 2.6400
    endloop
endfacet
facet normal 0.0000 -3.7800 0.0000
    outer loop
        vertex -2.4000 -0.1000 2.6800
        vertex -3.7200 -0.1000 1.6000
        vertex -3.1600 -0.1000 1.6000
    endloop
endfacet
facet normal 0.0000 -1.6600 0.0000
    outer loop
        vertex -4.4800 -0.1000 2.8400
        vertex -5.3600 -0.1000 2.5200
        vertex -5.5200 -0.1000 2.1600
    endloop
endfacet
facet normal 0.0000 -5.0400 0.0000
    outer loop
        vertex -5.5200 -0.1000 2.1600
        vertex -3.6000 -0.1000 2.6400
        vertex -4.4800 -0.1000 2.8400
    endloop
endfacet
facet normal 0.0000 -6.8000 0.0000
    outer loop
        vertex -4.8000 -0.1000 0.4000
        vertex -5.1600 -0.1000 0.4800
        vertex -3.6400 -0.1000 -2.8800
    endloop
endfacet
facet normal 0.0000 -33.1800 0.0000
    outer loop
        vertex -3.6400 -0.1000 -2.8800
        vertex -3.0400 -0.1000 0.0000
        vertex -4.8000 -0.1000 0.4000
    endloop
endfacet
facet normal 0.0000 -1.5400 0.0000
    outer loop
        vertex -4.3600 -0.1000 0.4400
        vertex -4.8000 -0.1000 0.4000
        vertex -3.0400 -0.1000 0.0000
    endloop
endfacet
facet normal 0.0000 -3.8500 0.0000
    outer loop
        vertex -3.8000 -0.1000 0.7200
        vertex -4.3600 -0.1000 0.4400
        vertex -3.0400 -0.1000 0.0000
    endloop
endfacet
facet normal 0.0000 -1.4900 0.0000
    outer loop
        vertex -3.0400 -0.1000 0.0000
        vertex -2.9200 -0.1000 0.2000
        vertex -3.8000 -0.1000 0.7200
    endloop
endfacet
facet normal 0.0000 -3.5000 0.0000
    outer loop
        vertex -3.4000 -0.1000 1.1200
        vertex -3.8000 -0.1000 0.7200
        vertex -2.9200 -0.1000 0.2000
    endloop
endfacet
facet normal 0.0000 -2.1800 0.0000
    outer loop
        vertex -2.9200 -0.1000 0.2000
        vertex -2.5200 -0.1000 0.1600
        vertex -3.4000 -0.1000 1.1200
    endloop
endfacet
facet normal 0.0000 -4.0800 0.0000
    outer loop
        vertex -3.1600 -0.1000 1.6000
        vertex -3.4000 -0.1000 1.1200
        vertex -2.5200 -0.1000 0.1600
    endloop
endfacet
facet normal 0.0000 -2.1600 0.0000
    outer loop
        vertex -2.5200 -0.1000 0.1600
        vertex -2.2800 -0.1000 0.1600
        vertex -3.1600 -0.1000 1.6000
    endloop
endfacet
facet normal 0.0000 -12.7800 0.0000
    outer loop
        vertex -2.4000 -0.1000 2.6800
        vertex -3.1600 -0.1000 1.6000
        vertex -2.2800 -0.1000 0.1600
    endloop
endfacet
facet normal 0.0000 -22.4400 0.0000
    outer loop
        vertex -2.2800 -0.1000 0.1600
        vertex -1.0000 -0.1000 3.2000
        vertex -2.4000 -0.1000 2.6800
    endloop
endfacet
facet normal 0.0000 -2.9100 0.0000
    outer loop
        vertex -3.0400 -0.1000 0.0000
        vertex -3.6400 -0.1000 -2.8800
        vertex -2.9200 -0.1000 -0.2000
    endloop
endfacet
facet normal 0.0000 -7.1900 0.0000
    outer loop
        vertex -2.4800 -0.1000 -0.1600
        vertex -2.9200 -0.1000 -0.2000
        vertex -3.6400 -0.1000 -2.8800
    endloop
endfacet
facet normal 0.0000 -61.2100 0.0000
    outer loop
        vertex -3.6400 -0.1000 -2.8800
        vertex 0.0800 -0.1000 -2.6000
        vertex -2.4800 -0.1000 -0.1600
    endloop
endfacet
facet normal 0.0000 -4.9700 0.0000
    outer loop
        vertex -2.2800 -0.1000 -0.0400
        vertex -2.4800 -0.1000 -0.1600
        vertex 0.0800 -0.1000 -2.6000
    endloop
endfacet
facet normal 0.0000 -23.8700 0.0000
    outer loop
        vertex 0.0800 -0.1000 -2.6000
        vertex 1.2400 -0.1000 -2.2400
        vertex -2.2800 -0.1000 -0.0400
    endloop
endfacet
facet normal 0.0000 -4.4000 0.0000
    outer loop
        vertex -2.2800 -0.1000 0.1600
        vertex -2.2800 -0.1000 -0.0400
        vertex 1.2400 -0.1000 -2.2400
    endloop
endfacet
facet normal 0.0000 -86.0800 0.0000
    outer loop
        vertex 1.2400 -0.1000 -2.2400
        vertex -1.0000 -0.1000 3.2000
        vertex -2.2800 -0.1000 0.1600
    endloop
endfacet
facet normal 0.0000 -38.0800 0.0000
    outer loop
        vertex -1.0000 -0.1000 3.2000
        vertex 1.2400 -0.1000 -2.2400
        vertex 2.3600 -0.1000 -2.2400
    endloop
endfacet
facet normal 0.0000 -71.7200 0.0000
    outer loop
        vertex 2.3600 -0.1000 -2.2400
        vertex 4.0000 -0.1000 -1.4800
        vertex -1.0000 -0.1000 3.2000
    endloop
endfacet
facet normal 0.0000 -3.2500 0.0000
    outer loop
        vertex 4.0000 -0.1000 -1.4800
        vertex 2.3600 -0.1000 -2.2400
        vertex 4.0800 -0.1000 -1.7600
    endloop
endfacet
facet normal 0.0000 -14.9700 0.0000
    outer loop
        vertex 4.0800 -0.1000 -1.7600
        vertex 2.3600 -0.1000 -2.2400
        vertex 5.2000 -0.1000 -2.8400
    endloop
endfacet
facet normal 0.0000 -1.3300 0.0000
    outer loop
        vertex 5.2000 -0.1000 -2.8400
        vertex 4.3600 -0.1000 -1.8400
        vertex 4.0800 -0.1000 -1.7600
    endloop
endfacet
facet normal 0.0000 -4.0900 0.0000
    outer loop
        vertex 4.8800 -0.1000 -1.6800
        vertex 4.3600 -0.1000 -1.8400
        vertex 5.2000 -0.1000 -2.8400
    endloop
endfacet
facet normal 0.0000 -4.2100 0.0000
    outer loop
        vertex 5.2000 -0.1000 -2.8400
        vertex 5.8800 -0.1000 -3.2000
        vertex 4.8800 -0.1000 -1.6800
    endloop
endfacet
facet normal 0.0000 -5.0400 0.0000
    outer loop
        vertex 5.2000 -0.1000 -1.3600
        vertex 4.8800 -0.1000 -1.6800
        vertex 5.8800 -0.1000 -3.2000
    endloop
endfacet
facet normal 0.0000 -15.1800 0.0000
    outer loop
        vertex 5.8800 -0.1000 -3.2000
        vertex 7.2000 -0.1000 -3.2000
        vertex 5.2000 -0.1000 -1.3600
    endloop
endfacet
facet normal 0.0000 -2.0400 0.0000
    outer loop
        vertex 5.1600 -0.1000 -1.1600
        vertex 5.2000 -0.1000 -1.3600
        vertex 7.2000 -0.1000 -3.2000
    endloop
endfacet
facet normal 0.0000 -81.6000 0.0000
    outer loop
        vertex 7.2000 -0.1000 -3.2000
        vertex 7.2000 -0.1000 3.2000
        vertex 5.1600 -0.1000 -1.1600
    endloop
endfacet
facet normal 0.0000 -9.2300 0.0000
    outer loop
        vertex 4.8400 -0.1000 -1.1200
        vertex 5.1600 -0.1000 -1.1600
        vertex 7.2000 -0.1000 3.2000
    endloop
endfacet
facet normal 0.0000 -221.4000 0.0000
    outer loop
        vertex 7.2000 -0.1000 3.2000
        vertex -1.0000 -0.1000 3.2000
        vertex 4.8400 -0.1000 -1.1200
    endloop
endfacet
facet normal 0.0000 -23.1200 0.0000
    outer loop
        vertex -1.0000 -0.1000 3.2000
        vertex 4.2000 -0.1000 -1.2800
        vertex 4.8400 -0.1000 -1.1200
    endloop
endfacet
facet normal 0.0000 -12.1000 0.0000
    outer loop
        vertex -1.0000 -0.1000 3.2000
        vertex 4.0000 -0.1000 -1.4800
        vertex 4.2000 -0.1000 -1.2800
    endloop
endfacet
endsolid GiantLegoRocks
