solid GiantLegoRocks
facet normal 0.0000 0.7500 0.0000
    outer loop
        vertex 7.6000 0.0000 3.6000
        vertex 7.6000 0.0000 -3.6000
        vertex -7.6000 0.0000 -3.6000
    endloop
endfacet
facet normal 0.0000 0.7500 0.0000
    outer loop
        vertex -7.6000 0.0000 -3.6000
        vertex -7.6000 0.0000 3.6000
        vertex 7.6000 0.0000 3.6000
    endloop
endfacet
facet normal 0.0000 -0.2500 18.0000
    outer loop
        vertex -7.6000 -0.1000 3.6000
        vertex 7.6000 -0.1000 3.6000
        vertex 7.6000 0.0000 3.6000
    endloop
endfacet
facet normal 0.0000 -0.2500 18.0000
    outer loop
        vertex 7.6000 0.0000 3.6000
        vertex -7.6000 0.0000 3.6000
        vertex -7.6000 -0.1000 3.6000
    endloop
endfacet
facet normal -38.0000 -0.2500 0.0000
    outer loop
        vertex -7.6000 -0.1000 -3.6000
        vertex -7.6000 -0.1000 3.6000
        vertex -7.6000 0.0000 3.6000
    endloop
endfacet
facet normal -38.0000 -0.2500 0.0000
    outer loop
        vertex -7.6000 0.0000 3.6000
        vertex -7.6000 0.0000 -3.6000
        vertex -7.6000 -0.1000 -3.6000
    endloop
endfacet
facet normal 0.0000 -0.2500 -18.0000
    outer loop
        vertex 7.6000 -0.1000 -3.6000
        vertex -7.6000 -0.1000 -3.6000
        vertex -7.6000 0.0000 -3.6000
    endloop
endfacet
facet normal 0.0000 -0.2500 -18.0000
    outer loop
        vertex -7.6000 0.0000 -3.6000
        vertex 7.6000 0.0000 -3.6000
        vertex 7.6000 -0.1000 -3.6000
    endloop
endfacet
facet normal 38.0000 -0.2500 0.0000
    outer loop
        vertex 7.6000 -0.1000 3.6000
        vertex 7.6000 -0.1000 -3.6000
        vertex 7.6000 0.0000 -3.6000
    endloop
endfacet
facet normal 38.0000 -0.2500 0.0000
    outer loop
        vertex 7.6000 0.0000 -3.6000
        vertex 7.6000 0.0000 3.6000
        vertex 7.6000 -0.1000 3.6000
    endloop
endfacet
facet normal 0.0000 -4.9800 0.0000
    outer loop
        vertex -0.8400 -0.1000 -0.0800
        vertex -0.9600 -0.1000 -0.8000
        vertex 0.2000 -0.1000 -0.4800
    endloop
endfacet
facet normal 0.0000 -4.5400 0.0000
    outer loop
        vertex 0.2000 -0.1000 -0.4800
        vertex 0.0400 -0.1000 0.2800
        vertex -0.8400 -0.1000 -0.0800
    endloop
endfacet
facet normal 0.0000 -4.1600 0.0000
    outer loop
        vertex 0.0400 -0.1000 0.2800
        vertex 0.2000 -0.1000 -0.4800
        vertex 1.0000 -0.1000 -0.1200
    endloop
endfacet
facet normal 0.0000 -4.5000 0.0000
    outer loop
        vertex 1.0000 -0.1000 -0.1200
        vertex 0.8800 -0.1000 0.6800
        vertex 0.0400 -0.1000 0.2800
    endloop
endfacet
facet normal 0.0000 -4.2700 0.0000
    outer loop
        vertex 0.8800 -0.1000 0.6800
        vertex 1.0000 -0.1000 -0.1200
        vertex 1.8000 -0.1000 0.2400
    endloop
endfacet
facet normal 0.0000 -1.2600 0.0000
    outer loop
        vertex 1.8000 -0.1000 0.2400
        vertex 0.9200 -0.1000 0.8800
        vertex 0.8800 -0.1000 0.6800
    endloop
endfacet
facet normal 0.0000 -5.3000 0.0000
    outer loop
        vertex 0.9200 -0.1000 0.8800
        vertex 1.8000 -0.1000 0.2400
        vertex 2.5200 -0.1000 0.6800
    endloop
endfacet
facet normal 0.0000 -3.9500 0.0000
    outer loop
        vertex 2.5200 -0.1000 0.6800
        vertex 2.8000 -0.1000 1.0400
        vertex 0.9200 -0.1000 0.8800
    endloop
endfacet
facet normal 0.0000 -3.3300 0.0000
    outer loop
        vertex 0.9200 -0.1000 0.8800
        vertex 2.8000 -0.1000 1.0400
        vertex 2.7600 -0.1000 1.3200
    endloop
endfacet
facet normal 0.0000 -3.9900 0.0000
    outer loop
        vertex 2.7600 -0.1000 1.3200
        vertex 2.4800 -0.1000 1.6000
        vertex 0.9200 -0.1000 0.8800
    endloop
endfacet
facet normal 0.0000 -4.4400 0.0000
    outer loop
        vertex 0.9200 -0.1000 0.8800
        vertex 2.4800 -0.1000 1.6000
        vertex 1.8400 -0.1000 1.7600
    endloop
endfacet
facet normal 0.0000 -6.6000 0.0000
    outer loop
        vertex 1.8400 -0.1000 1.7600
        vertex 0.6400 -0.1000 1.7600
        vertex 0.9200 -0.1000 0.8800
    endloop
endfacet
facet normal 0.0000 -4.4800 0.0000
    outer loop
        vertex 0.0800 -0.1000 0.9600
        vertex 0.9200 -0.1000 0.8800
        vertex 0.6400 -0.1000 1.7600
    endloop
endfacet
facet normal 0.0000 -6.0400 0.0000
    outer loop
        vertex 0.6400 -0.1000 1.7600
        vertex -0.6800 -0.1000 1.6000
        vertex 0.0800 -0.1000 0.9600
    endloop
endfacet
facet normal 0.0000 -3.1000 0.0000
    outer loop
        vertex -0.6000 -0.1000 0.8800
        vertex 0.0800 -0.1000 0.9600
        vertex -0.6800 -0.1000 1.6000
    endloop
endfacet
facet normal 0.0000 -4.0000 0.0000
    outer loop
        vertex -0.6800 -0.1000 1.6000
        vertex -1.5600 -0.1000 1.5200
        vertex -0.6000 -0.1000 0.8800
    endloop
endfacet
facet normal 0.0000 -0.4800 0.0000
    outer loop
        vertex 3.5600 -0.1000 0.2400
        vertex 3.4800 -0.1000 -0.2400
        vertex 3.6400 -0.1000 -0.2400
    endloop
endfacet
facet normal 0.0000 -0.4800 0.0000
    outer loop
        vertex 3.6400 -0.1000 -0.2400
        vertex 3.7200 -0.1000 0.2400
        vertex 3.5600 -0.1000 0.2400
    endloop
endfacet
facet normal 0.0000 -0.3600 0.0000
    outer loop
        vertex 3.7200 -0.1000 0.2400
        vertex 3.6400 -0.1000 -0.2400
        vertex 3.8000 -0.1000 0.0000
    endloop
endfacet
facet normal 0.0000 -0.8800 0.0000
    outer loop
        vertex 3.2000 -0.1000 -0.1600
        vertex 3.4800 -0.1000 -0.2400
        vertex 3.5600 -0.1000 0.2400
    endloop
endfacet
facet normal 0.0000 -0.5800 0.0000
    outer loop
        vertex 3.5600 -0.1000 0.2400
        vertex 3.4000 -0.1000 0.3200
        vertex 3.2000 -0.1000 -0.1600
    endloop
endfacet
facet normal 0.0000 -0.9500 0.0000
    outer loop
        vertex 3.0000 -0.1000 0.1200
        vertex 3.2000 -0.1000 -0.1600
        vertex 3.4000 -0.1000 0.3200
    endloop
endfacet
facet normal 0.0000 -0.4000 0.0000
    outer loop
        vertex 3.4000 -0.1000 0.3200
        vertex 3.3200 -0.1000 0.4400
        vertex 3.0000 -0.1000 0.1200
    endloop
endfacet
facet normal 0.0000 -0.7200 0.0000
    outer loop
        vertex 2.9200 -0.1000 0.4000
        vertex 3.0000 -0.1000 0.1200
        vertex 3.3200 -0.1000 0.4400
    endloop
endfacet
facet normal 0.0000 -0.6900 0.0000
    outer loop
        vertex 3.3200 -0.1000 0.4400
        vertex 2.9600 -0.1000 0.6800
        vertex 2.9200 -0.1000 0.4000
    endloop
endfacet
facet normal 0.0000 -0.7500 0.0000
    outer loop
        vertex 2.9600 -0.1000 0.6800
        vertex 3.3200 -0.1000 0.4400
        vertex 3.4000 -0.1000 0.7200
    endloop
endfacet
facet normal 0.0000 -0.9400 0.0000
    outer loop
        vertex 3.4000 -0.1000 0.7200
        vertex 3.1600 -0.1000 1.0400
        vertex 2.9600 -0.1000 0.6800
    endloop
endfacet
facet normal 0.0000 -0.6400 0.0000
    outer loop
        vertex 3.1600 -0.1000 1.0400
        vertex 3.4000 -0.1000 0.7200
        vertex 3.6000 -0.1000 0.8800
    endloop
endfacet
facet normal 0.0000 -1.0200 0.0000
    outer loop
        vertex 3.6000 -0.1000 0.8800
        vertex 3.5200 -0.1000 1.2800
        vertex 3.1600 -0.1000 1.0400
    endloop
endfacet
facet normal 0.0000 -0.7400 0.0000
    outer loop
        vertex 3.5200 -0.1000 1.2800
        vertex 3.6000 -0.1000 0.8800
        vertex 3.8800 -0.1000 0.9600
    endloop
endfacet
facet normal 0.0000 -0.9000 0.0000
    outer loop
        vertex 3.8800 -0.1000 0.9600
        vertex 3.8800 -0.1000 1.3600
        vertex 3.5200 -0.1000 1.2800
    endloop
endfacet
facet normal 0.0000 -1.0000 0.0000
    outer loop
        vertex 4.2800 -0.1000 1.2800
        vertex 3.8800 -0.1000 1.3600
        vertex 3.8800 -0.1000 0.9600
    endloop
endfacet
facet normal 0.0000 -0.8400 0.0000
    outer loop
        vertex 3.8800 -0.1000 0.9600
        vertex 4.2000 -0.1000 0.8800
        vertex 4.2800 -0.1000 1.2800
    endloop
endfacet
facet normal 0.0000 -1.0000 0.0000
    outer loop
        vertex 4.6400 -0.1000 1.0800
        vertex 4.2800 -0.1000 1.2800
        vertex 4.2000 -0.1000 0.8800
    endloop
endfacet
facet normal 0.0000 -0.7500 0.0000
    outer loop
        vertex 4.2000 -0.1000 0.8800
        vertex 4.3600 -0.1000 0.6800
        vertex 4.6400 -0.1000 1.0800
    endloop
endfacet
facet normal 0.0000 -1.0900 0.0000
    outer loop
        vertex 4.8800 -0.1000 0.8000
        vertex 4.6400 -0.1000 1.0800
        vertex 4.3600 -0.1000 0.6800
    endloop
endfacet
facet normal 0.0000 -0.8400 0.0000
    outer loop
        vertex 4.3600 -0.1000 0.6800
        vertex 4.4400 -0.1000 0.4400
        vertex 4.8800 -0.1000 0.8000
    endloop
endfacet
facet normal 0.0000 -1.2600 0.0000
    outer loop
        vertex 5.0000 -0.1000 0.4400
        vertex 4.8800 -0.1000 0.8000
        vertex 4.4400 -0.1000 0.4400
    endloop
endfacet
facet normal 0.0000 -1.4000 0.0000
    outer loop
        vertex 4.4400 -0.1000 0.4400
        vertex 4.9200 -0.1000 0.0400
        vertex 5.0000 -0.1000 0.4400
    endloop
endfacet
facet normal 0.0000 -1.1400 0.0000
    outer loop
        vertex 4.9200 -0.1000 0.0400
        vertex 4.4400 -0.1000 0.4400
        vertex 4.3200 -0.1000 0.1600
    endloop
endfacet
facet normal 0.0000 -1.3800 0.0000
    outer loop
        vertex 4.3200 -0.1000 0.1600
        vertex 4.6800 -0.1000 -0.2800
        vertex 4.9200 -0.1000 0.0400
    endloop
endfacet
facet normal 0.0000 -4.4400 0.0000
    outer loop
        vertex 3.7200 -0.1000 -1.0800
        vertex 4.6800 -0.1000 -0.2800
        vertex 4.3200 -0.1000 0.1600
    endloop
endfacet
facet normal 0.0000 -3.3900 0.0000
    outer loop
        vertex 4.3200 -0.1000 0.1600
        vertex 3.3600 -0.1000 -0.9200
        vertex 3.7200 -0.1000 -1.0800
    endloop
endfacet
facet normal 0.0000 -0.7500 0.0000
    outer loop
        vertex 3.7200 -0.1000 -1.0800
        vertex 3.3600 -0.1000 -0.9200
        vertex 3.2400 -0.1000 -1.2000
    endloop
endfacet
facet normal 0.0000 -0.8400 0.0000
    outer loop
        vertex 3.2400 -0.1000 -1.2000
        vertex 3.2400 -0.1000 -1.4800
        vertex 3.7200 -0.1000 -1.0800
    endloop
endfacet
facet normal 0.0000 -4.2000 0.0000
    outer loop
        vertex 3.7200 -0.1000 -1.0800
        vertex 3.2400 -0.1000 -1.4800
        vertex 4.9200 -0.1000 -1.4800
    endloop
endfacet
facet normal 0.0000 -2.0000 0.0000
    outer loop
        vertex 4.9200 -0.1000 -1.4800
        vertex 4.5200 -0.1000 -1.0800
        vertex 3.7200 -0.1000 -1.0800
    endloop
endfacet
facet normal 0.0000 -1.6000 0.0000
    outer loop
        vertex 4.5200 -0.1000 -1.0800
        vertex 4.9200 -0.1000 -1.4800
        vertex 4.8800 -0.1000 -0.8000
    endloop
endfacet
facet normal 0.0000 -0.4200 0.0000
    outer loop
        vertex 4.8800 -0.1000 -0.8000
        vertex 4.6400 -0.1000 -0.8000
        vertex 4.5200 -0.1000 -1.0800
    endloop
endfacet
facet normal 0.0000 -1.9460 0.0000
    outer loop
        vertex 3.1600 -0.1000 2.0320
        vertex 2.4800 -0.1000 1.6000
        vertex 2.7600 -0.1000 1.3200
    endloop
endfacet
facet normal 0.0000 -3.4820 0.0000
    outer loop
        vertex 2.7600 -0.1000 1.3200
        vertex 3.5200 -0.1000 1.2800
        vertex 3.1600 -0.1000 2.0320
    endloop
endfacet
facet normal 0.0000 -4.3260 0.0000
    outer loop
        vertex 4.0000 -0.1000 2.2000
        vertex 3.1600 -0.1000 2.0320
        vertex 3.5200 -0.1000 1.2800
    endloop
endfacet
facet normal 0.0000 -1.8300 0.0000
    outer loop
        vertex 3.5200 -0.1000 1.2800
        vertex 3.8800 -0.1000 1.3600
        vertex 4.0000 -0.1000 2.2000
    endloop
endfacet
facet normal 0.0000 -2.1600 0.0000
    outer loop
        vertex 4.0000 -0.1000 2.2000
        vertex 3.8800 -0.1000 1.3600
        vertex 4.2800 -0.1000 1.2800
    endloop
endfacet
facet normal 0.0000 -4.5360 0.0000
    outer loop
        vertex 4.2800 -0.1000 1.2800
        vertex 4.8400 -0.1000 2.0320
        vertex 4.0000 -0.1000 2.2000
    endloop
endfacet
facet normal 0.0000 -2.3920 0.0000
    outer loop
        vertex 4.8400 -0.1000 2.0320
        vertex 4.2800 -0.1000 1.2800
        vertex 4.6400 -0.1000 1.0800
    endloop
endfacet
facet normal 0.0000 -4.8552 0.0000
    outer loop
        vertex 4.6400 -0.1000 1.0800
        vertex 5.5560 -0.1000 1.5560
        vertex 4.8400 -0.1000 2.0320
    endloop
endfacet
facet normal 0.0000 -2.3170 0.0000
    outer loop
        vertex 5.5560 -0.1000 1.5560
        vertex 4.6400 -0.1000 1.0800
        vertex 4.8800 -0.1000 0.8000
    endloop
endfacet
facet normal 0.0000 -5.2742 0.0000
    outer loop
        vertex 4.8800 -0.1000 0.8000
        vertex 6.0320 -0.1000 0.8400
        vertex 5.5560 -0.1000 1.5560
    endloop
endfacet
facet normal 0.0000 -2.6220 0.0000
    outer loop
        vertex 6.0320 -0.1000 0.8400
        vertex 4.8800 -0.1000 0.8000
        vertex 5.0000 -0.1000 0.4400
    endloop
endfacet
facet normal 0.0000 -5.8380 0.0000
    outer loop
        vertex 5.0000 -0.1000 0.4400
        vertex 6.2000 -0.1000 0.0000
        vertex 6.0320 -0.1000 0.8400
    endloop
endfacet
facet normal 0.0000 -3.2200 0.0000
    outer loop
        vertex 6.2000 -0.1000 0.0000
        vertex 5.0000 -0.1000 0.4400
        vertex 4.9200 -0.1000 0.0400
    endloop
endfacet
facet normal 0.0000 -6.7300 0.0000
    outer loop
        vertex 4.9200 -0.1000 0.0400
        vertex 4.8800 -0.1000 -0.8000
        vertex 6.2000 -0.1000 0.0000
    endloop
endfacet
facet normal 0.0000 -1.1800 0.0000
    outer loop
        vertex 4.8800 -0.1000 -0.8000
        vertex 4.9200 -0.1000 0.0400
        vertex 4.6800 -0.1000 -0.2800
    endloop
endfacet
facet normal 0.0000 -0.7800 0.0000
    outer loop
        vertex 4.6800 -0.1000 -0.2800
        vertex 4.6400 -0.1000 -0.8000
        vertex 4.8800 -0.1000 -0.8000
    endloop
endfacet
facet normal 0.0000 -2.9200 0.0000
    outer loop
        vertex 4.6400 -0.1000 -0.8000
        vertex 4.6800 -0.1000 -0.2800
        vertex 3.7200 -0.1000 -1.0800
    endloop
endfacet
facet normal 0.0000 -1.4000 0.0000
    outer loop
        vertex 3.7200 -0.1000 -1.0800
        vertex 4.5200 -0.1000 -1.0800
        vertex 4.6400 -0.1000 -0.8000
    endloop
endfacet
facet normal 0.0000 -6.0900 0.0000
    outer loop
        vertex 6.0320 -0.1000 -0.8400
        vertex 6.2000 -0.1000 0.0000
        vertex 4.8800 -0.1000 -0.8000
    endloop
endfacet
facet normal 0.0000 -5.2742 0.0000
    outer loop
        vertex 4.8800 -0.1000 -0.8000
        vertex 5.5560 -0.1000 -1.5560
        vertex 6.0320 -0.1000 -0.8400
    endloop
endfacet
facet normal 0.0000 -2.6840 0.0000
    outer loop
        vertex 4.8800 -0.1000 -0.8000
        vertex 4.9200 -0.1000 -1.4800
        vertex 5.5560 -0.1000 -1.5560
    endloop
endfacet
facet normal 0.0000 -2.2322 0.0000
    outer loop
        vertex 4.8400 -0.1000 -2.0320
        vertex 5.5560 -0.1000 -1.5560
        vertex 4.9200 -0.1000 -1.4800
    endloop
endfacet
facet normal 0.0000 -2.8140 0.0000
    outer loop
        vertex 4.9200 -0.1000 -1.4800
        vertex 4.0000 -0.1000 -2.2000
        vertex 4.8400 -0.1000 -2.0320
    endloop
endfacet
facet normal 0.0000 -7.5600 0.0000
    outer loop
        vertex 4.0000 -0.1000 -2.2000
        vertex 4.9200 -0.1000 -1.4800
        vertex 3.2400 -0.1000 -1.4800
    endloop
endfacet
facet normal 0.0000 -2.9820 0.0000
    outer loop
        vertex 3.2400 -0.1000 -1.4800
        vertex 3.1600 -0.1000 -2.0320
        vertex 4.0000 -0.1000 -2.2000
    endloop
endfacet
facet normal 0.0000 -2.7082 0.0000
    outer loop
        vertex 2.4440 -0.1000 -1.5560
        vertex 3.1600 -0.1000 -2.0320
        vertex 3.2400 -0.1000 -1.4800
    endloop
endfacet
facet normal 0.0000 -1.3930 0.0000
    outer loop
        vertex 3.2400 -0.1000 -1.4800
        vertex 3.2400 -0.1000 -1.2000
        vertex 2.4440 -0.1000 -1.5560
    endloop
endfacet
facet normal 0.0000 -4.6212 0.0000
    outer loop
        vertex 1.9680 -0.1000 -0.8400
        vertex 2.4440 -0.1000 -1.5560
        vertex 3.2400 -0.1000 -1.2000
    endloop
endfacet
facet normal 0.0000 -8.1780 0.0000
    outer loop
        vertex 3.2400 -0.1000 -1.2000
        vertex 3.2000 -0.1000 -0.1600
        vertex 1.9680 -0.1000 -0.8400
    endloop
endfacet
facet normal 0.0000 -0.8500 0.0000
    outer loop
        vertex 3.2000 -0.1000 -0.1600
        vertex 3.2400 -0.1000 -1.2000
        vertex 3.3600 -0.1000 -0.9200
    endloop
endfacet
facet normal 0.0000 -1.2500 0.0000
    outer loop
        vertex 3.3600 -0.1000 -0.9200
        vertex 3.4800 -0.1000 -0.2400
        vertex 3.2000 -0.1000 -0.1600
    endloop
endfacet
facet normal 0.0000 -0.6800 0.0000
    outer loop
        vertex 3.6400 -0.1000 -0.2400
        vertex 3.4800 -0.1000 -0.2400
        vertex 3.3600 -0.1000 -0.9200
    endloop
endfacet
facet normal 0.0000 -2.1900 0.0000
    outer loop
        vertex 3.6400 -0.1000 -0.2400
        vertex 3.3600 -0.1000 -0.9200
        vertex 4.3200 -0.1000 0.1600
    endloop
endfacet
facet normal 0.0000 -0.6200 0.0000
    outer loop
        vertex 4.3200 -0.1000 0.1600
        vertex 3.8000 -0.1000 0.0000
        vertex 3.6400 -0.1000 -0.2400
    endloop
endfacet
facet normal 0.0000 -0.7900 0.0000
    outer loop
        vertex 3.8000 -0.1000 0.0000
        vertex 4.3200 -0.1000 0.1600
        vertex 4.4400 -0.1000 0.4400
    endloop
endfacet
facet normal 0.0000 -1.1800 0.0000
    outer loop
        vertex 4.4400 -0.1000 0.4400
        vertex 3.7200 -0.1000 0.2400
        vertex 3.8000 -0.1000 0.0000
    endloop
endfacet
facet normal 0.0000 -1.1800 0.0000
    outer loop
        vertex 3.7200 -0.1000 0.2400
        vertex 4.4400 -0.1000 0.4400
        vertex 4.3600 -0.1000 0.6800
    endloop
endfacet
facet normal 0.0000 -0.4400 0.0000
    outer loop
        vertex 4.3600 -0.1000 0.6800
        vertex 3.5600 -0.1000 0.2400
        vertex 3.7200 -0.1000 0.2400
    endloop
endfacet
facet normal 0.0000 -1.4400 0.0000
    outer loop
        vertex 3.5600 -0.1000 0.2400
        vertex 4.3600 -0.1000 0.6800
        vertex 4.2000 -0.1000 0.8800
    endloop
endfacet
facet normal 0.0000 -0.9600 0.0000
    outer loop
        vertex 4.2000 -0.1000 0.8800
        vertex 3.4000 -0.1000 0.3200
        vertex 3.5600 -0.1000 0.2400
    endloop
endfacet
facet normal 0.0000 -1.5200 0.0000
    outer loop
        vertex 3.4000 -0.1000 0.3200
        vertex 4.2000 -0.1000 0.8800
        vertex 3.8800 -0.1000 0.9600
    endloop
endfacet
facet normal 0.0000 -0.6800 0.0000
    outer loop
        vertex 3.8800 -0.1000 0.9600
        vertex 3.3200 -0.1000 0.4400
        vertex 3.4000 -0.1000 0.3200
    endloop
endfacet
facet normal 0.0000 -0.6300 0.0000
    outer loop
        vertex 3.3200 -0.1000 0.4400
        vertex 3.8800 -0.1000 0.9600
        vertex 3.6000 -0.1000 0.8800
    endloop
endfacet
facet normal 0.0000 -0.2700 0.0000
    outer loop
        vertex 3.6000 -0.1000 0.8800
        vertex 3.4000 -0.1000 0.7200
        vertex 3.3200 -0.1000 0.4400
    endloop
endfacet
facet normal 0.0000 -7.1820 0.0000
    outer loop
        vertex 1.8000 -0.1000 0.0000
        vertex 1.9680 -0.1000 -0.8400
        vertex 3.2000 -0.1000 -0.1600
    endloop
endfacet
facet normal 0.0000 -2.2500 0.0000
    outer loop
        vertex 3.2000 -0.1000 -0.1600
        vertex 3.0000 -0.1000 0.1200
        vertex 1.8000 -0.1000 0.0000
    endloop
endfacet
facet normal 0.0000 -1.8000 0.0000
    outer loop
        vertex 1.8000 -0.1000 0.2400
        vertex 1.8000 -0.1000 0.0000
        vertex 3.0000 -0.1000 0.1200
    endloop
endfacet
facet normal 0.0000 -2.0400 0.0000
    outer loop
        vertex 3.0000 -0.1000 0.1200
        vertex 2.9200 -0.1000 0.4000
        vertex 1.8000 -0.1000 0.2400
    endloop
endfacet
facet normal 0.0000 -2.3600 0.0000
    outer loop
        vertex 2.5200 -0.1000 0.6800
        vertex 1.8000 -0.1000 0.2400
        vertex 2.9200 -0.1000 0.4000
    endloop
endfacet
facet normal 0.0000 -0.7700 0.0000
    outer loop
        vertex 2.9200 -0.1000 0.4000
        vertex 2.9600 -0.1000 0.6800
        vertex 2.5200 -0.1000 0.6800
    endloop
endfacet
facet normal 0.0000 -0.9900 0.0000
    outer loop
        vertex 2.8000 -0.1000 1.0400
        vertex 2.5200 -0.1000 0.6800
        vertex 2.9600 -0.1000 0.6800
    endloop
endfacet
facet normal 0.0000 -0.8100 0.0000
    outer loop
        vertex 2.9600 -0.1000 0.6800
        vertex 3.1600 -0.1000 1.0400
        vertex 2.8000 -0.1000 1.0400
    endloop
endfacet
facet normal 0.0000 -0.6300 0.0000
    outer loop
        vertex 2.7600 -0.1000 1.3200
        vertex 2.8000 -0.1000 1.0400
        vertex 3.1600 -0.1000 1.0400
    endloop
endfacet
facet normal 0.0000 -1.2300 0.0000
    outer loop
        vertex 3.1600 -0.1000 1.0400
        vertex 3.5200 -0.1000 1.2800
        vertex 2.7600 -0.1000 1.3200
    endloop
endfacet
facet normal 0.0000 -4.7400 0.0000
    outer loop
        vertex -0.6000 -0.1000 0.8800
        vertex -0.8400 -0.1000 -0.0800
        vertex 0.0400 -0.1000 0.2800
    endloop
endfacet
facet normal 0.0000 -2.8700 0.0000
    outer loop
        vertex 0.0400 -0.1000 0.2800
        vertex 0.0800 -0.1000 0.9600
        vertex -0.6000 -0.1000 0.8800
    endloop
endfacet
facet normal 0.0000 -3.4700 0.0000
    outer loop
        vertex 0.0800 -0.1000 0.9600
        vertex 0.0400 -0.1000 0.2800
        vertex 0.8800 -0.1000 0.6800
    endloop
endfacet
facet normal 0.0000 -1.0700 0.0000
    outer loop
        vertex 0.8800 -0.1000 0.6800
        vertex 0.9200 -0.1000 0.8800
        vertex 0.0800 -0.1000 0.9600
    endloop
endfacet
facet normal 0.0000 -6.1460 0.0000
    outer loop
        vertex 1.9680 -0.1000 -0.8400
        vertex 0.2000 -0.1000 -0.4800
        vertex -0.9600 -0.1000 -0.8000
    endloop
endfacet
facet normal 0.0000 -12.0220 0.0000
    outer loop
        vertex -0.9600 -0.1000 -0.8000
        vertex -2.2000 -0.1000 -1.4400
        vertex 1.9680 -0.1000 -0.8400
    endloop
endfacet
facet normal 0.0000 -5.7780 0.0000
    outer loop
        vertex 1.0000 -0.1000 -0.1200
        vertex 0.2000 -0.1000 -0.4800
        vertex 1.9680 -0.1000 -0.8400
    endloop
endfacet
facet normal 0.0000 -4.3260 0.0000
    outer loop
        vertex 1.9680 -0.1000 -0.8400
        vertex 1.8000 -0.1000 0.0000
        vertex 1.0000 -0.1000 -0.1200
    endloop
endfacet
facet normal 0.0000 -1.2000 0.0000
    outer loop
        vertex 1.8000 -0.1000 0.2400
        vertex 1.0000 -0.1000 -0.1200
        vertex 1.8000 -0.1000 0.0000
    endloop
endfacet
facet normal 0.0000 -11.1300 0.0000
    outer loop
        vertex 4.8400 -0.1000 -2.0320
        vertex 4.0000 -0.1000 -2.2000
        vertex 7.6000 -0.1000 -3.6000
    endloop
endfacet
facet normal 0.0000 -15.2278 0.0000
    outer loop
        vertex 5.5560 -0.1000 -1.5560
        vertex 4.8400 -0.1000 -2.0320
        vertex 7.6000 -0.1000 -3.6000
    endloop
endfacet
facet normal 0.0000 -15.2278 0.0000
    outer loop
        vertex 6.0320 -0.1000 -0.8400
        vertex 5.5560 -0.1000 -1.5560
        vertex 7.6000 -0.1000 -3.6000
    endloop
endfacet
facet normal 0.0000 -11.1300 0.0000
    outer loop
        vertex 6.2000 -0.1000 0.0000
        vertex 6.0320 -0.1000 -0.8400
        vertex 7.6000 -0.1000 -3.6000
    endloop
endfacet
facet normal 0.0000 -63.0000 0.0000
    outer loop
        vertex 7.6000 -0.1000 -3.6000
        vertex 7.6000 -0.1000 3.6000
        vertex 6.2000 -0.1000 0.0000
    endloop
endfacet
facet normal 0.0000 -11.1300 0.0000
    outer loop
        vertex 7.6000 -0.1000 3.6000
        vertex 6.0320 -0.1000 0.8400
        vertex 6.2000 -0.1000 0.0000
    endloop
endfacet
facet normal 0.0000 -15.2278 0.0000
    outer loop
        vertex 7.6000 -0.1000 3.6000
        vertex 5.5560 -0.1000 1.5560
        vertex 6.0320 -0.1000 0.8400
    endloop
endfacet
facet normal 0.0000 -15.2278 0.0000
    outer loop
        vertex 7.6000 -0.1000 3.6000
        vertex 4.8400 -0.1000 2.0320
        vertex 5.5560 -0.1000 1.5560
    endloop
endfacet
facet normal 0.0000 -11.1300 0.0000
    outer loop
        vertex 7.6000 -0.1000 3.6000
        vertex 4.0000 -0.1000 2.2000
        vertex 4.8400 -0.1000 2.0320
    endloop
endfacet
facet normal 0.0000 -2.4080 0.0000
    outer loop
        vertex 3.1600 -0.1000 2.0320
        vertex 1.8400 -0.1000 1.7600
        vertex 2.4800 -0.1000 1.6000
    endloop
endfacet
facet normal 0.0000 -10.7700 0.0000
    outer loop
        vertex -3.7200 -0.1000 1.5200
        vertex -4.1600 -0.1000 1.0000
        vertex -3.5200 -0.1000 -2.1600
    endloop
endfacet
facet normal 0.0000 -10.4700 0.0000
    outer loop
        vertex -3.5200 -0.1000 -2.1600
        vertex -3.0800 -0.1000 -1.8800
        vertex -3.7200 -0.1000 1.5200
    endloop
endfacet
facet normal 0.0000 -9.6200 0.0000
    outer loop
        vertex -3.3200 -0.1000 1.8000
        vertex -3.7200 -0.1000 1.5200
        vertex -3.0800 -0.1000 -1.8800
    endloop
endfacet
facet normal 0.0000 -15.7400 0.0000
    outer loop
        vertex -3.0800 -0.1000 -1.8800
        vertex -2.4400 -0.1000 -1.2000
        vertex -3.3200 -0.1000 1.8000
    endloop
endfacet
facet normal 0.0000 -9.6600 0.0000
    outer loop
        vertex -2.8400 -0.1000 1.9200
        vertex -3.3200 -0.1000 1.8000
        vertex -2.4400 -0.1000 -1.2000
    endloop
endfacet
facet normal 0.0000 -14.0000 0.0000
    outer loop
        vertex -2.4400 -0.1000 -1.2000
        vertex -1.8400 -0.1000 -0.2800
        vertex -2.8400 -0.1000 1.9200
    endloop
endfacet
facet normal 0.0000 -5.0000 0.0000
    outer loop
        vertex -2.4400 -0.1000 1.8400
        vertex -2.8400 -0.1000 1.9200
        vertex -1.8400 -0.1000 -0.2800
    endloop
endfacet
facet normal 0.0000 -5.1200 0.0000
    outer loop
        vertex -1.8400 -0.1000 -0.2800
        vertex -1.6800 -0.1000 0.5200
        vertex -2.4400 -0.1000 1.8400
    endloop
endfacet
facet normal 0.0000 -1.9700 0.0000
    outer loop
        vertex -2.0400 -0.1000 1.5600
        vertex -2.4400 -0.1000 1.8400
        vertex -1.6800 -0.1000 0.5200
    endloop
endfacet
facet normal 0.0000 -0.7500 0.0000
    outer loop
        vertex -1.6800 -0.1000 0.5200
        vertex -1.8000 -0.1000 1.2000
        vertex -2.0400 -0.1000 1.5600
    endloop
endfacet
facet normal 0.0000 -11.3700 0.0000
    outer loop
        vertex -4.1200 -0.1000 -2.0400
        vertex -3.5200 -0.1000 -2.1600
        vertex -4.1600 -0.1000 1.0000
    endloop
endfacet
facet normal 0.0000 -9.8100 0.0000
    outer loop
        vertex -4.1600 -0.1000 1.0000
        vertex -4.6800 -0.1000 1.2800
        vertex -4.1200 -0.1000 -2.0400
    endloop
endfacet
facet normal 0.0000 -18.2400 0.0000
    outer loop
        vertex -5.0800 -0.1000 -1.5600
        vertex -4.1200 -0.1000 -2.0400
        vertex -4.6800 -0.1000 1.2800
    endloop
endfacet
facet normal 0.0000 -8.7200 0.0000
    outer loop
        vertex -4.6800 -0.1000 1.2800
        vertex -5.1600 -0.1000 1.3600
        vertex -5.0800 -0.1000 -1.5600
    endloop
endfacet
facet normal 0.0000 -12.1500 0.0000
    outer loop
        vertex -5.7600 -0.1000 -1.0400
        vertex -5.0800 -0.1000 -1.5600
        vertex -5.1600 -0.1000 1.3600
    endloop
endfacet
facet normal 0.0000 -6.3000 0.0000
    outer loop
        vertex -5.1600 -0.1000 1.3600
        vertex -5.6000 -0.1000 1.2800
        vertex -5.7600 -0.1000 -1.0400
    endloop
endfacet
facet normal 0.0000 -6.9000 0.0000
    outer loop
        vertex -6.2000 -0.1000 -0.5200
        vertex -5.7600 -0.1000 -1.0400
        vertex -5.6000 -0.1000 1.2800
    endloop
endfacet
facet normal 0.0000 -3.4500 0.0000
    outer loop
        vertex -5.6000 -0.1000 1.2800
        vertex -6.0000 -0.1000 1.0000
        vertex -6.2000 -0.1000 -0.5200
    endloop
endfacet
facet normal 0.0000 -1.8400 0.0000
    outer loop
        vertex -6.3200 -0.1000 0.0400
        vertex -6.2000 -0.1000 -0.5200
        vertex -6.0000 -0.1000 1.0000
    endloop
endfacet
facet normal 0.0000 -0.9600 0.0000
    outer loop
        vertex -6.0000 -0.1000 1.0000
        vertex -6.2800 -0.1000 0.6400
        vertex -6.3200 -0.1000 0.0400
    endloop
endfacet
facet normal 0.0000 -1.3500 0.0000
    outer loop
        vertex -4.6800 -0.1000 1.2800
        vertex -4.1600 -0.1000 1.0000
        vertex -4.2800 -0.1000 1.4800
    endloop
endfacet
facet normal 0.0000 -1.2500 0.0000
    outer loop
        vertex -4.2800 -0.1000 1.4800
        vertex -4.8800 -0.1000 1.6800
        vertex -4.6800 -0.1000 1.2800
    endloop
endfacet
facet normal 0.0000 -1.1000 0.0000
    outer loop
        vertex -5.1600 -0.1000 1.3600
        vertex -4.6800 -0.1000 1.2800
        vertex -4.8800 -0.1000 1.6800
    endloop
endfacet
facet normal 0.0000 -1.2800 0.0000
    outer loop
        vertex -4.8800 -0.1000 1.6800
        vertex -5.5200 -0.1000 1.6800
        vertex -5.1600 -0.1000 1.3600
    endloop
endfacet
facet normal 0.0000 -1.0600 0.0000
    outer loop
        vertex -5.6000 -0.1000 1.2800
        vertex -5.1600 -0.1000 1.3600
        vertex -5.5200 -0.1000 1.6800
    endloop
endfacet
facet normal 0.0000 -1.2600 0.0000
    outer loop
        vertex -5.5200 -0.1000 1.6800
        vertex -6.0800 -0.1000 1.4000
        vertex -5.6000 -0.1000 1.2800
    endloop
endfacet
facet normal 0.0000 -1.1400 0.0000
    outer loop
        vertex -6.0000 -0.1000 1.0000
        vertex -5.6000 -0.1000 1.2800
        vertex -6.0800 -0.1000 1.4000
    endloop
endfacet
facet normal 0.0000 -1.2000 0.0000
    outer loop
        vertex -6.0800 -0.1000 1.4000
        vertex -6.4800 -0.1000 1.0000
        vertex -6.0000 -0.1000 1.0000
    endloop
endfacet
facet normal 0.0000 -1.0800 0.0000
    outer loop
        vertex -6.2800 -0.1000 0.6400
        vertex -6.0000 -0.1000 1.0000
        vertex -6.4800 -0.1000 1.0000
    endloop
endfacet
facet normal 0.0000 -1.1000 0.0000
    outer loop
        vertex -6.4800 -0.1000 1.0000
        vertex -6.6800 -0.1000 0.4800
        vertex -6.2800 -0.1000 0.6400
    endloop
endfacet
facet normal 0.0000 -1.4600 0.0000
    outer loop
        vertex -6.3200 -0.1000 0.0400
        vertex -6.2800 -0.1000 0.6400
        vertex -6.6800 -0.1000 0.4800
    endloop
endfacet
facet normal 0.0000 -1.3500 0.0000
    outer loop
        vertex -6.6800 -0.1000 0.4800
        vertex -6.6800 -0.1000 -0.1200
        vertex -6.3200 -0.1000 0.0400
    endloop
endfacet
facet normal 0.0000 -1.3800 0.0000
    outer loop
        vertex -6.2000 -0.1000 -0.5200
        vertex -6.3200 -0.1000 0.0400
        vertex -6.6800 -0.1000 -0.1200
    endloop
endfacet
facet normal 0.0000 -1.3800 0.0000
    outer loop
        vertex -6.6800 -0.1000 -0.1200
        vertex -6.5600 -0.1000 -0.6800
        vertex -6.2000 -0.1000 -0.5200
    endloop
endfacet
facet normal 0.0000 -1.6100 0.0000
    outer loop
        vertex -5.7600 -0.1000 -1.0400
        vertex -6.2000 -0.1000 -0.5200
        vertex -6.5600 -0.1000 -0.6800
    endloop
endfacet
facet normal 0.0000 -1.8300 0.0000
    outer loop
        vertex -6.5600 -0.1000 -0.6800
        vertex -6.0400 -0.1000 -1.2800
        vertex -5.7600 -0.1000 -1.0400
    endloop
endfacet
facet normal 0.0000 -1.9300 0.0000
    outer loop
        vertex -5.0800 -0.1000 -1.5600
        vertex -5.7600 -0.1000 -1.0400
        vertex -6.0400 -0.1000 -1.2800
    endloop
endfacet
facet normal 0.0000 -1.9600 0.0000
    outer loop
        vertex -6.0400 -0.1000 -1.2800
        vertex -5.2400 -0.1000 -1.8400
        vertex -5.0800 -0.1000 -1.5600
    endloop
endfacet
facet normal 0.0000 -2.1600 0.0000
    outer loop
        vertex -4.1200 -0.1000 -2.0400
        vertex -5.0800 -0.1000 -1.5600
        vertex -5.2400 -0.1000 -1.8400
    endloop
endfacet
facet normal 0.0000 -2.2100 0.0000
    outer loop
        vertex -5.2400 -0.1000 -1.8400
        vertex -4.3200 -0.1000 -2.3200
        vertex -4.1200 -0.1000 -2.0400
    endloop
endfacet
facet normal 0.0000 -1.2000 0.0000
    outer loop
        vertex -3.5200 -0.1000 -2.1600
        vertex -4.1200 -0.1000 -2.0400
        vertex -4.3200 -0.1000 -2.3200
    endloop
endfacet
facet normal 0.0000 -1.6800 0.0000
    outer loop
        vertex -4.3200 -0.1000 -2.3200
        vertex -3.4400 -0.1000 -2.4800
        vertex -3.5200 -0.1000 -2.1600
    endloop
endfacet
facet normal 0.0000 -1.0200 0.0000
    outer loop
        vertex -3.0800 -0.1000 -1.8800
        vertex -3.5200 -0.1000 -2.1600
        vertex -3.4400 -0.1000 -2.4800
    endloop
endfacet
facet normal 0.0000 -1.4700 0.0000
    outer loop
        vertex -3.4400 -0.1000 -2.4800
        vertex -2.7600 -0.1000 -2.0000
        vertex -3.0800 -0.1000 -1.8800
    endloop
endfacet
facet normal 0.0000 -1.8400 0.0000
    outer loop
        vertex -2.4400 -0.1000 -1.2000
        vertex -3.0800 -0.1000 -1.8800
        vertex -2.7600 -0.1000 -2.0000
    endloop
endfacet
facet normal 0.0000 -1.6800 0.0000
    outer loop
        vertex -2.7600 -0.1000 -2.0000
        vertex -2.2000 -0.1000 -1.4400
        vertex -2.4400 -0.1000 -1.2000
    endloop
endfacet
facet normal 0.0000 -1.1400 0.0000
    outer loop
        vertex -2.4400 -0.1000 -1.2000
        vertex -2.2000 -0.1000 -1.4400
        vertex -1.8800 -0.1000 -1.0000
    endloop
endfacet
facet normal 0.0000 -2.4700 0.0000
    outer loop
        vertex -1.8800 -0.1000 -1.0000
        vertex -1.8400 -0.1000 -0.2800
        vertex -2.4400 -0.1000 -1.2000
    endloop
endfacet
facet normal 0.0000 -4.0900 0.0000
    outer loop
        vertex -1.8400 -0.1000 -0.2800
        vertex -1.8800 -0.1000 -1.0000
        vertex -0.9600 -0.1000 -0.8000
    endloop
endfacet
facet normal 0.0000 -1.6100 0.0000
    outer loop
        vertex -0.9600 -0.1000 -0.8000
        vertex -1.4800 -0.1000 -0.2000
        vertex -1.8400 -0.1000 -0.2800
    endloop
endfacet
facet normal 0.0000 -2.7900 0.0000
    outer loop
        vertex -0.8400 -0.1000 -0.0800
        vertex -1.4800 -0.1000 -0.2000
        vertex -0.9600 -0.1000 -0.8000
    endloop
endfacet
facet normal 0.0000 -1.7200 0.0000
    outer loop
        vertex -1.6800 -0.1000 0.5200
        vertex -1.8400 -0.1000 -0.2800
        vertex -1.4800 -0.1000 -0.2000
    endloop
endfacet
facet normal 0.0000 -2.1000 0.0000
    outer loop
        vertex -1.4800 -0.1000 -0.2000
        vertex -1.2800 -0.1000 0.7600
        vertex -1.6800 -0.1000 0.5200
    endloop
endfacet
facet normal 0.0000 -1.8800 0.0000
    outer loop
        vertex -1.8000 -0.1000 1.2000
        vertex -1.6800 -0.1000 0.5200
        vertex -1.2800 -0.1000 0.7600
    endloop
endfacet
facet normal 0.0000 -2.2600 0.0000
    outer loop
        vertex -1.8000 -0.1000 1.2000
        vertex -1.2800 -0.1000 0.7600
        vertex -0.6000 -0.1000 0.8800
    endloop
endfacet
facet normal 0.0000 -2.8800 0.0000
    outer loop
        vertex -0.6000 -0.1000 0.8800
        vertex -1.5600 -0.1000 1.5200
        vertex -1.8000 -0.1000 1.2000
    endloop
endfacet
facet normal 0.0000 -1.0200 0.0000
    outer loop
        vertex -2.0400 -0.1000 1.5600
        vertex -1.8000 -0.1000 1.2000
        vertex -1.5600 -0.1000 1.5200
    endloop
endfacet
facet normal 0.0000 -1.1200 0.0000
    outer loop
        vertex -1.5600 -0.1000 1.5200
        vertex -1.8800 -0.1000 1.9200
        vertex -2.0400 -0.1000 1.5600
    endloop
endfacet
facet normal 0.0000 -1.1800 0.0000
    outer loop
        vertex -2.4400 -0.1000 1.8400
        vertex -2.0400 -0.1000 1.5600
        vertex -1.8800 -0.1000 1.9200
    endloop
endfacet
facet normal 0.0000 -1.0800 0.0000
    outer loop
        vertex -1.8800 -0.1000 1.9200
        vertex -2.3600 -0.1000 2.1600
        vertex -2.4400 -0.1000 1.8400
    endloop
endfacet
facet normal 0.0000 -0.8400 0.0000
    outer loop
        vertex -2.8400 -0.1000 1.9200
        vertex -2.4400 -0.1000 1.8400
        vertex -2.3600 -0.1000 2.1600
    endloop
endfacet
facet normal 0.0000 -1.1400 0.0000
    outer loop
        vertex -2.3600 -0.1000 2.1600
        vertex -2.9600 -0.1000 2.2400
        vertex -2.8400 -0.1000 1.9200
    endloop
endfacet
facet normal 0.0000 -1.0500 0.0000
    outer loop
        vertex -3.3200 -0.1000 1.8000
        vertex -2.8400 -0.1000 1.9200
        vertex -2.9600 -0.1000 2.2400
    endloop
endfacet
facet normal 0.0000 -1.2900 0.0000
    outer loop
        vertex -2.9600 -0.1000 2.2400
        vertex -3.5600 -0.1000 2.0800
        vertex -3.3200 -0.1000 1.8000
    endloop
endfacet
facet normal 0.0000 -1.1200 0.0000
    outer loop
        vertex -3.7200 -0.1000 1.5200
        vertex -3.3200 -0.1000 1.8000
        vertex -3.5600 -0.1000 2.0800
    endloop
endfacet
facet normal 0.0000 -1.1200 0.0000
    outer loop
        vertex -3.5600 -0.1000 2.0800
        vertex -3.9600 -0.1000 1.8000
        vertex -3.7200 -0.1000 1.5200
    endloop
endfacet
facet normal 0.0000 -1.0400 0.0000
    outer loop
        vertex -3.7200 -0.1000 1.5200
        vertex -3.9600 -0.1000 1.8000
        vertex -4.2800 -0.1000 1.4800
    endloop
endfacet
facet normal 0.0000 -1.7100 0.0000
    outer loop
        vertex -4.2800 -0.1000 1.4800
        vertex -4.1600 -0.1000 1.0000
        vertex -3.7200 -0.1000 1.5200
    endloop
endfacet
facet normal 0.0000 -3.6900 0.0000
    outer loop
        vertex -1.2800 -0.1000 0.7600
        vertex -1.4800 -0.1000 -0.2000
        vertex -0.8400 -0.1000 -0.0800
    endloop
endfacet
facet normal 0.0000 -3.9000 0.0000
    outer loop
        vertex -0.8400 -0.1000 -0.0800
        vertex -0.6000 -0.1000 0.8800
        vertex -1.2800 -0.1000 0.7600
    endloop
endfacet
facet normal 0.0000 -133.0000 0.0000
    outer loop
        vertex 4.0000 -0.1000 2.2000
        vertex 7.6000 -0.1000 3.6000
        vertex -7.6000 -0.1000 3.6000
    endloop
endfacet
facet normal 0.0000 -58.5500 0.0000
    outer loop
        vertex -7.6000 -0.1000 3.6000
        vertex -2.3600 -0.1000 2.1600
        vertex 4.0000 -0.1000 2.2000
    endloop
endfacet
facet normal 0.0000 -6.4680 0.0000
    outer loop
        vertex 3.1600 -0.1000 2.0320
        vertex 4.0000 -0.1000 2.2000
        vertex -2.3600 -0.1000 2.1600
    endloop
endfacet
facet normal 0.0000 -7.8960 0.0000
    outer loop
        vertex -2.3600 -0.1000 2.1600
        vertex -1.8800 -0.1000 1.9200
        vertex 3.1600 -0.1000 2.0320
    endloop
endfacet
facet normal 0.0000 -6.8040 0.0000
    outer loop
        vertex 3.1600 -0.1000 2.0320
        vertex -1.8800 -0.1000 1.9200
        vertex 0.6400 -0.1000 1.7600
    endloop
endfacet
facet normal 0.0000 -2.0400 0.0000
    outer loop
        vertex 0.6400 -0.1000 1.7600
        vertex 1.8400 -0.1000 1.7600
        vertex 3.1600 -0.1000 2.0320
    endloop
endfacet
facet normal 0.0000 -3.8400 0.0000
    outer loop
        vertex -0.6800 -0.1000 1.6000
        vertex 0.6400 -0.1000 1.7600
        vertex -1.8800 -0.1000 1.9200
    endloop
endfacet
facet normal 0.0000 -2.3600 0.0000
    outer loop
        vertex -1.8800 -0.1000 1.9200
        vertex -1.5600 -0.1000 1.5200
        vertex -0.6800 -0.1000 1.6000
    endloop
endfacet
facet normal 0.0000 -2.7800 0.0000
    outer loop
        vertex -7.6000 -0.1000 3.6000
        vertex -2.9600 -0.1000 2.2400
        vertex -2.3600 -0.1000 2.1600
    endloop
endfacet
facet normal 0.0000 -9.7400 0.0000
    outer loop
        vertex -3.5600 -0.1000 2.0800
        vertex -2.9600 -0.1000 2.2400
        vertex -7.6000 -0.1000 3.6000
    endloop
endfacet
facet normal 0.0000 -28.7200 0.0000
    outer loop
        vertex -7.6000 -0.1000 3.6000
        vertex -5.5200 -0.1000 1.6800
        vertex -3.5600 -0.1000 2.0800
    endloop
endfacet
facet normal 0.0000 -1.6000 0.0000
    outer loop
        vertex -3.5600 -0.1000 2.0800
        vertex -5.5200 -0.1000 1.6800
        vertex -4.8800 -0.1000 1.6800
    endloop
endfacet
facet normal 0.0000 -1.3100 0.0000
    outer loop
        vertex -4.8800 -0.1000 1.6800
        vertex -3.9600 -0.1000 1.8000
        vertex -3.5600 -0.1000 2.0800
    endloop
endfacet
facet normal 0.0000 -1.6000 0.0000
    outer loop
        vertex -3.9600 -0.1000 1.8000
        vertex -4.8800 -0.1000 1.6800
        vertex -4.2800 -0.1000 1.4800
    endloop
endfacet
facet normal 0.0000 -10.3600 0.0000
    outer loop
        vertex -7.6000 -0.1000 3.6000
        vertex -6.0800 -0.1000 1.4000
        vertex -5.5200 -0.1000 1.6800
    endloop
endfacet
facet normal 0.0000 -9.3000 0.0000
    outer loop
        vertex -7.6000 -0.1000 3.6000
        vertex -6.4800 -0.1000 1.0000
        vertex -6.0800 -0.1000 1.4000
    endloop
endfacet
facet normal 0.0000 -6.8900 0.0000
    outer loop
        vertex -7.6000 -0.1000 3.6000
        vertex -6.6800 -0.1000 0.4800
        vertex -6.4800 -0.1000 1.0000
    endloop
endfacet
facet normal 0.0000 -3.4500 0.0000
    outer loop
        vertex -6.6800 -0.1000 -0.1200
        vertex -6.6800 -0.1000 0.4800
        vertex -7.6000 -0.1000 3.6000
    endloop
endfacet
facet normal 0.0000 -41.4000 0.0000
    outer loop
        vertex -7.6000 -0.1000 3.6000
        vertex -7.6000 -0.1000 -3.6000
        vertex -6.6800 -0.1000 -0.1200
    endloop
endfacet
facet normal 0.0000 -5.8300 0.0000
    outer loop
        vertex -6.6800 -0.1000 -0.1200
        vertex -7.6000 -0.1000 -3.6000
        vertex -6.5600 -0.1000 -0.6800
    endloop
endfacet
facet normal 0.0000 -13.3900 0.0000
    outer loop
        vertex -6.5600 -0.1000 -0.6800
        vertex -7.6000 -0.1000 -3.6000
        vertex -6.0400 -0.1000 -1.2800
    endloop
endfacet
facet normal 0.0000 -17.0600 0.0000
    outer loop
        vertex -6.0400 -0.1000 -1.2800
        vertex -7.6000 -0.1000 -3.6000
        vertex -5.2400 -0.1000 -1.8400
    endloop
endfacet
facet normal 0.0000 -17.2000 0.0000
    outer loop
        vertex -5.2400 -0.1000 -1.8400
        vertex -7.6000 -0.1000 -3.6000
        vertex -4.3200 -0.1000 -2.3200
    endloop
endfacet
facet normal 0.0000 -10.3200 0.0000
    outer loop
        vertex -4.3200 -0.1000 -2.3200
        vertex -7.6000 -0.1000 -3.6000
        vertex -3.4400 -0.1000 -2.4800
    endloop
endfacet
facet normal 0.0000 -106.4000 0.0000
    outer loop
        vertex -3.4400 -0.1000 -2.4800
        vertex -7.6000 -0.1000 -3.6000
        vertex 7.6000 -0.1000 -3.6000
    endloop
endfacet
facet normal 0.0000 -71.4000 0.0000
    outer loop
        vertex 7.6000 -0.1000 -3.6000
        vertex 4.0000 -0.1000 -2.2000
        vertex -3.4400 -0.1000 -2.4800
    endloop
endfacet
facet normal 0.0000 -9.2820 0.0000
    outer loop
        vertex -3.4400 -0.1000 -2.4800
        vertex 4.0000 -0.1000 -2.2000
        vertex 3.1600 -0.1000 -2.0320
    endloop
endfacet
facet normal 0.0000 -17.8960 0.0000
    outer loop
        vertex 3.1600 -0.1000 -2.0320
        vertex -2.7600 -0.1000 -2.0000
        vertex -3.4400 -0.1000 -2.4800
    endloop
endfacet
facet normal 0.0000 -17.4688 0.0000
    outer loop
        vertex -2.7600 -0.1000 -2.0000
        vertex 3.1600 -0.1000 -2.0320
        vertex 2.4440 -0.1000 -1.5560
    endloop
endfacet
facet normal 0.0000 -16.6600 0.0000
    outer loop
        vertex 2.4440 -0.1000 -1.5560
        vertex -2.2000 -0.1000 -1.4400
        vertex -2.7600 -0.1000 -2.0000
    endloop
endfacet
facet normal 0.0000 -20.4368 0.0000
    outer loop
        vertex 1.9680 -0.1000 -0.8400
        vertex -2.2000 -0.1000 -1.4400
        vertex 2.4440 -0.1000 -1.5560
    endloop
endfacet
facet normal 0.0000 -2.1300 0.0000
    outer loop
        vertex -0.9600 -0.1000 -0.8000
        vertex -1.8800 -0.1000 -1.0000
        vertex -2.2000 -0.1000 -1.4400
    endloop
endfacet
endsolid GiantLegoRocks
