solid GiantLegoRocks
facet normal -20.0000 0.0000 5.0000
    outer loop
        vertex -25.0000 0.0000 16.0000
        vertex -33.0000 0.0000 -16.0000
        vertex -33.0000 -0.1000 -16.0000
    endloop
endfacet
facet normal -20.0000 0.0000 5.0000
    outer loop
        vertex -33.0000 -0.1000 -16.0000
        vertex -25.0000 -0.1000 16.0000
        vertex -25.0000 0.0000 16.0000
    endloop
endfacet
facet normal 0.0000 0.0000 -41.2500
    outer loop
        vertex -33.0000 0.0000 -16.0000
        vertex 33.0000 0.0000 -16.0000
        vertex 33.0000 -0.1000 -16.0000
    endloop
endfacet
facet normal 0.0000 0.0000 -41.2500
    outer loop
        vertex 33.0000 -0.1000 -16.0000
        vertex -33.0000 -0.1000 -16.0000
        vertex -33.0000 0.0000 -16.0000
    endloop
endfacet
facet normal 20.0000 0.0000 5.0000
    outer loop
        vertex 33.0000 0.0000 -16.0000
        vertex 25.0000 0.0000 16.0000
        vertex 25.0000 -0.1000 16.0000
    endloop
endfacet
facet normal 20.0000 0.0000 5.0000
    outer loop
        vertex 25.0000 -0.1000 16.0000
        vertex 33.0000 -0.1000 -16.0000
        vertex 33.0000 0.0000 -16.0000
    endloop
endfacet
facet normal 0.0000 0.0000 31.2500
    outer loop
        vertex 25.0000 0.0000 16.0000
        vertex -25.0000 0.0000 16.0000
        vertex -25.0000 -0.1000 16.0000
    endloop
endfacet
facet normal 0.0000 0.0000 31.2500
    outer loop
        vertex -25.0000 -0.1000 16.0000
        vertex 25.0000 -0.1000 16.0000
        vertex 25.0000 0.0000 16.0000
    endloop
endfacet
facet normal 0.0000 13200.0000 0.0000
    outer loop
        vertex 25.0000 0.0000 16.0000
        vertex 33.0000 0.0000 -16.0000
        vertex -33.0000 0.0000 -16.0000
    endloop
endfacet
facet normal 0.0000 10000.0000 0.0000
    outer loop
        vertex -33.0000 0.0000 -16.0000
        vertex -25.0000 0.0000 16.0000
        vertex 25.0000 0.0000 16.0000
    endloop
endfacet
facet normal 0.0000 -13200.0000 0.0000
    outer loop
        vertex -25.0000 -0.1000 16.0000
        vertex -33.0000 -0.1000 -16.0000
        vertex 33.0000 -0.1000 -16.0000
    endloop
endfacet
facet normal 0.0000 -10000.0000 0.0000
    outer loop
        vertex 33.0000 -0.1000 -16.0000
        vertex 25.0000 -0.1000 16.0000
        vertex -25.0000 -0.1000 16.0000
    endloop
endfacet
endsolid GiantLegoRocks
