solid GiantLegoRocks
facet normal 0.0000 0.7500 0.0000
    outer loop
        vertex 6.4000 0.0000 10.4000
        vertex 6.4000 0.0000 -10.4000
        vertex -6.4000 0.0000 -10.4000
    endloop
endfacet
facet normal 0.0000 0.7500 0.0000
    outer loop
        vertex -6.4000 0.0000 -10.4000
        vertex -6.4000 0.0000 10.4000
        vertex 6.4000 0.0000 10.4000
    endloop
endfacet
facet normal 0.0000 -0.2500 52.0000
    outer loop
        vertex -6.4000 -0.1000 10.4000
        vertex 6.4000 -0.1000 10.4000
        vertex 6.4000 0.0000 10.4000
    endloop
endfacet
facet normal 0.0000 -0.2500 52.0000
    outer loop
        vertex 6.4000 0.0000 10.4000
        vertex -6.4000 0.0000 10.4000
        vertex -6.4000 -0.1000 10.4000
    endloop
endfacet
facet normal -32.0000 -0.2500 0.0000
    outer loop
        vertex -6.4000 -0.1000 -10.4000
        vertex -6.4000 -0.1000 10.4000
        vertex -6.4000 0.0000 10.4000
    endloop
endfacet
facet normal -32.0000 -0.2500 0.0000
    outer loop
        vertex -6.4000 0.0000 10.4000
        vertex -6.4000 0.0000 -10.4000
        vertex -6.4000 -0.1000 -10.4000
    endloop
endfacet
facet normal 0.0000 -0.2500 -52.0000
    outer loop
        vertex 6.4000 -0.1000 -10.4000
        vertex -6.4000 -0.1000 -10.4000
        vertex -6.4000 0.0000 -10.4000
    endloop
endfacet
facet normal 0.0000 -0.2500 -52.0000
    outer loop
        vertex -6.4000 0.0000 -10.4000
        vertex 6.4000 0.0000 -10.4000
        vertex 6.4000 -0.1000 -10.4000
    endloop
endfacet
facet normal 32.0000 -0.2500 0.0000
    outer loop
        vertex 6.4000 -0.1000 10.4000
        vertex 6.4000 -0.1000 -10.4000
        vertex 6.4000 0.0000 -10.4000
    endloop
endfacet
facet normal 32.0000 -0.2500 0.0000
    outer loop
        vertex 6.4000 0.0000 -10.4000
        vertex 6.4000 0.0000 10.4000
        vertex 6.4000 -0.1000 10.4000
    endloop
endfacet
facet normal 0.0000 -361.6000 0.0000
    outer loop
        vertex 6.4000 -0.1000 10.4000
        vertex -6.4000 -0.1000 10.4000
        vertex -6.4000 -0.1000 5.8800
    endloop
endfacet
facet normal 0.0000 -127.6900 0.0000
    outer loop
        vertex -6.4000 -0.1000 5.8800
        vertex -1.8800 -0.1000 5.8800
        vertex 6.4000 -0.1000 10.4000
    endloop
endfacet
facet normal 0.0000 -233.9100 0.0000
    outer loop
        vertex 6.4000 -0.1000 10.4000
        vertex -1.8800 -0.1000 5.8800
        vertex 6.4000 -0.1000 5.8800
    endloop
endfacet
facet normal 0.0000 -31.0500 0.0000
    outer loop
        vertex 6.4000 -0.1000 5.2800
        vertex 6.4000 -0.1000 5.8800
        vertex -1.8800 -0.1000 5.8800
    endloop
endfacet
facet normal 0.0000 -28.5000 0.0000
    outer loop
        vertex -1.8800 -0.1000 5.8800
        vertex -1.2000 -0.1000 5.2800
        vertex 6.4000 -0.1000 5.2800
    endloop
endfacet
facet normal 0.0000 -17.8400 0.0000
    outer loop
        vertex -1.2000 -0.1000 5.2800
        vertex -1.8800 -0.1000 5.8800
        vertex -2.9200 -0.1000 2.6000
    endloop
endfacet
facet normal 0.0000 -26.0400 0.0000
    outer loop
        vertex -2.9200 -0.1000 2.6000
        vertex -2.8800 -0.1000 0.2400
        vertex -1.2000 -0.1000 5.2800
    endloop
endfacet
facet normal 0.0000 -23.9200 0.0000
    outer loop
        vertex -4.5600 -0.1000 3.6800
        vertex -2.8800 -0.1000 0.2400
        vertex -2.9200 -0.1000 2.6000
    endloop
endfacet
facet normal 0.0000 -16.4900 0.0000
    outer loop
        vertex -2.9200 -0.1000 2.6000
        vertex -4.0000 -0.1000 4.9200
        vertex -4.5600 -0.1000 3.6800
    endloop
endfacet
facet normal 0.0000 -8.5000 0.0000
    outer loop
        vertex -4.5600 -0.1000 3.6800
        vertex -4.0000 -0.1000 4.9200
        vertex -5.4400 -0.1000 4.1600
    endloop
endfacet
facet normal 0.0000 -2.9800 0.0000
    outer loop
        vertex -5.4400 -0.1000 4.1600
        vertex -5.0400 -0.1000 3.4000
        vertex -4.5600 -0.1000 3.6800
    endloop
endfacet
facet normal 0.0000 -6.4000 0.0000
    outer loop
        vertex 4.0000 -0.1000 -4.4000
        vertex 3.2000 -0.1000 -3.6000
        vertex 2.5600 -0.1000 -4.2400
    endloop
endfacet
facet normal 0.0000 -6.4000 0.0000
    outer loop
        vertex 2.5600 -0.1000 -4.2400
        vertex 3.3600 -0.1000 -5.0400
        vertex 4.0000 -0.1000 -4.4000
    endloop
endfacet
facet normal 0.0000 -5.1200 0.0000
    outer loop
        vertex 4.6400 -0.1000 -5.0400
        vertex 4.0000 -0.1000 -4.4000
        vertex 3.3600 -0.1000 -5.0400
    endloop
endfacet
facet normal 0.0000 -5.1200 0.0000
    outer loop
        vertex 3.3600 -0.1000 -5.0400
        vertex 4.0000 -0.1000 -5.6800
        vertex 4.6400 -0.1000 -5.0400
    endloop
endfacet
facet normal 0.0000 -6.4000 0.0000
    outer loop
        vertex 4.8000 -0.1000 -3.6000
        vertex 4.0000 -0.1000 -4.4000
        vertex 4.6400 -0.1000 -5.0400
    endloop
endfacet
facet normal 0.0000 -6.4000 0.0000
    outer loop
        vertex 4.6400 -0.1000 -5.0400
        vertex 5.4400 -0.1000 -4.2400
        vertex 4.8000 -0.1000 -3.6000
    endloop
endfacet
facet normal 0.0000 -6.4000 0.0000
    outer loop
        vertex 3.2000 -0.1000 -6.4800
        vertex 4.0000 -0.1000 -5.6800
        vertex 3.3600 -0.1000 -5.0400
    endloop
endfacet
facet normal 0.0000 -6.4000 0.0000
    outer loop
        vertex 3.3600 -0.1000 -5.0400
        vertex 2.5600 -0.1000 -5.8400
        vertex 3.2000 -0.1000 -6.4800
    endloop
endfacet
facet normal 0.0000 -6.4000 0.0000
    outer loop
        vertex 4.6400 -0.1000 -5.0400
        vertex 4.0000 -0.1000 -5.6800
        vertex 4.8000 -0.1000 -6.4800
    endloop
endfacet
facet normal 0.0000 -6.4000 0.0000
    outer loop
        vertex 4.8000 -0.1000 -6.4800
        vertex 5.4400 -0.1000 -5.8400
        vertex 4.6400 -0.1000 -5.0400
    endloop
endfacet
facet normal 0.0000 -60.1500 0.0000
    outer loop
        vertex 0.2400 -0.1000 2.6400
        vertex -0.7600 -0.1000 0.3600
        vertex 4.0400 -0.1000 1.6800
    endloop
endfacet
facet normal 0.0000 -129.3000 0.0000
    outer loop
        vertex 4.2000 -0.1000 1.5200
        vertex -0.6000 -0.1000 0.2000
        vertex 3.0000 -0.1000 -3.1200
    endloop
endfacet
facet normal 0.0000 -20.7200 0.0000
    outer loop
        vertex 4.3200 -0.1000 1.2800
        vertex 3.2000 -0.1000 -3.0000
        vertex 4.3200 -0.1000 -1.6800
    endloop
endfacet
facet normal 0.0000 -0.8110 0.0000
    outer loop
        vertex -4.7960 -0.1000 -7.3800
        vertex -5.3200 -0.1000 -7.4800
        vertex -5.2800 -0.1000 -7.7200
    endloop
endfacet
facet normal 0.0000 -0.8110 0.0000
    outer loop
        vertex -5.2800 -0.1000 -7.7200
        vertex -4.7560 -0.1000 -7.6200
        vertex -4.7960 -0.1000 -7.3800
    endloop
endfacet
facet normal 0.0000 -0.8241 0.0000
    outer loop
        vertex -4.0800 -0.1000 -7.2400
        vertex -4.6040 -0.1000 -7.3400
        vertex -4.5640 -0.1000 -7.5840
    endloop
endfacet
facet normal 0.0000 -0.8241 0.0000
    outer loop
        vertex -4.5640 -0.1000 -7.5840
        vertex -4.0400 -0.1000 -7.4840
        vertex -4.0800 -0.1000 -7.2400
    endloop
endfacet
facet normal 0.0000 -0.8372 0.0000
    outer loop
        vertex -3.3560 -0.1000 -7.1000
        vertex -3.8800 -0.1000 -7.2000
        vertex -3.8400 -0.1000 -7.4480
    endloop
endfacet
facet normal 0.0000 -0.8372 0.0000
    outer loop
        vertex -3.8400 -0.1000 -7.4480
        vertex -3.3160 -0.1000 -7.3480
        vertex -3.3560 -0.1000 -7.1000
    endloop
endfacet
facet normal 0.0000 -0.8408 0.0000
    outer loop
        vertex -2.6400 -0.1000 -6.9600
        vertex -3.1640 -0.1000 -7.0640
        vertex -3.1200 -0.1000 -7.3120
    endloop
endfacet
facet normal 0.0000 -0.8528 0.0000
    outer loop
        vertex -3.1200 -0.1000 -7.3120
        vertex -2.5960 -0.1000 -7.2120
        vertex -2.6400 -0.1000 -6.9600
    endloop
endfacet
facet normal 0.0000 -0.1188 0.0000
    outer loop
        vertex -1.6368 -0.1000 -0.8800
        vertex -1.6800 -0.1000 -0.8800
        vertex -1.7200 -0.1000 -1.3200
    endloop
endfacet
facet normal 0.0000 -0.2365 0.0000
    outer loop
        vertex -1.7200 -0.1000 -1.3200
        vertex -1.6340 -0.1000 -1.3200
        vertex -1.6368 -0.1000 -0.8800
    endloop
endfacet
facet normal 0.0000 -20.4920 0.0000
    outer loop
        vertex -3.1640 -0.1000 -7.0640
        vertex -2.6400 -0.1000 -6.9600
        vertex -1.9200 -0.1000 -0.5600
    endloop
endfacet
facet normal 0.0000 -7.5249 0.0000
    outer loop
        vertex -1.9200 -0.1000 -0.5600
        vertex -3.3560 -0.1000 -7.1000
        vertex -3.1640 -0.1000 -7.0640
    endloop
endfacet
facet normal 0.0000 -20.5210 0.0000
    outer loop
        vertex -3.8800 -0.1000 -7.2000
        vertex -3.3560 -0.1000 -7.1000
        vertex -1.9200 -0.1000 -0.5600
    endloop
endfacet
facet normal 0.0000 -7.8100 0.0000
    outer loop
        vertex -1.9200 -0.1000 -0.5600
        vertex -4.0800 -0.1000 -7.2400
        vertex -3.8800 -0.1000 -7.2000
    endloop
endfacet
facet normal 0.0000 -20.5270 0.0000
    outer loop
        vertex -4.6040 -0.1000 -7.3400
        vertex -4.0800 -0.1000 -7.2400
        vertex -1.9200 -0.1000 -0.5600
    endloop
endfacet
facet normal 0.0000 -7.4650 0.0000
    outer loop
        vertex -1.9200 -0.1000 -0.5600
        vertex -4.7960 -0.1000 -7.3800
        vertex -4.6040 -0.1000 -7.3400
    endloop
endfacet
facet normal 0.0000 -20.5380 0.0000
    outer loop
        vertex -1.9200 -0.1000 -0.5600
        vertex -5.3200 -0.1000 -7.4800
        vertex -4.7960 -0.1000 -7.3800
    endloop
endfacet
facet normal 0.0000 -7.8600 0.0000
    outer loop
        vertex -1.9200 -0.1000 -0.5600
        vertex -5.6000 -0.1000 -7.6800
        vertex -5.3200 -0.1000 -7.4800
    endloop
endfacet
facet normal 0.0000 -0.4700 0.0000
    outer loop
        vertex -5.3200 -0.1000 -7.4800
        vertex -5.6000 -0.1000 -7.6800
        vertex -5.2800 -0.1000 -7.7200
    endloop
endfacet
facet normal 0.0000 -2.0500 0.0000
    outer loop
        vertex -5.6000 -0.1000 -7.6800
        vertex -2.6000 -0.1000 -9.0800
        vertex -5.2800 -0.1000 -7.7200
    endloop
endfacet
facet normal 0.0000 -6.1290 0.0000
    outer loop
        vertex -4.7560 -0.1000 -7.6200
        vertex -5.2800 -0.1000 -7.7200
        vertex -2.6000 -0.1000 -9.0800
    endloop
endfacet
facet normal 0.0000 -2.2371 0.0000
    outer loop
        vertex -2.6000 -0.1000 -9.0800
        vertex -4.5640 -0.1000 -7.5840
        vertex -4.7560 -0.1000 -7.6200
    endloop
endfacet
facet normal 0.0000 -0.3018 0.0000
    outer loop
        vertex -4.7560 -0.1000 -7.6200
        vertex -4.5640 -0.1000 -7.5840
        vertex -4.6040 -0.1000 -7.3400
    endloop
endfacet
facet normal 0.0000 -0.2980 0.0000
    outer loop
        vertex -4.6040 -0.1000 -7.3400
        vertex -4.7960 -0.1000 -7.3800
        vertex -4.7560 -0.1000 -7.6200
    endloop
endfacet
facet normal 0.0000 -6.1269 0.0000
    outer loop
        vertex -4.0400 -0.1000 -7.4840
        vertex -4.5640 -0.1000 -7.5840
        vertex -2.6000 -0.1000 -9.0800
    endloop
endfacet
facet normal 0.0000 -2.3190 0.0000
    outer loop
        vertex -2.6000 -0.1000 -9.0800
        vertex -3.8400 -0.1000 -7.4480
        vertex -4.0400 -0.1000 -7.4840
    endloop
endfacet
facet normal 0.0000 -0.3190 0.0000
    outer loop
        vertex -4.0400 -0.1000 -7.4840
        vertex -3.8400 -0.1000 -7.4480
        vertex -3.8800 -0.1000 -7.2000
    endloop
endfacet
facet normal 0.0000 -0.3150 0.0000
    outer loop
        vertex -3.8800 -0.1000 -7.2000
        vertex -4.0800 -0.1000 -7.2400
        vertex -4.0400 -0.1000 -7.4840
    endloop
endfacet
facet normal 0.0000 -6.1198 0.0000
    outer loop
        vertex -3.3160 -0.1000 -7.3480
        vertex -3.8400 -0.1000 -7.4480
        vertex -2.6000 -0.1000 -9.0800
    endloop
endfacet
facet normal 0.0000 -2.2828 0.0000
    outer loop
        vertex -2.6000 -0.1000 -9.0800
        vertex -3.1200 -0.1000 -7.3120
        vertex -3.3160 -0.1000 -7.3480
    endloop
endfacet
facet normal 0.0000 -0.3137 0.0000
    outer loop
        vertex -3.3160 -0.1000 -7.3480
        vertex -3.1200 -0.1000 -7.3120
        vertex -3.1640 -0.1000 -7.0640
    endloop
endfacet
facet normal 0.0000 -0.3066 0.0000
    outer loop
        vertex -3.1640 -0.1000 -7.0640
        vertex -3.3560 -0.1000 -7.1000
        vertex -3.3160 -0.1000 -7.3480
    endloop
endfacet
facet normal 0.0000 -6.1152 0.0000
    outer loop
        vertex -2.5960 -0.1000 -7.2120
        vertex -3.1200 -0.1000 -7.3120
        vertex -2.6000 -0.1000 -9.0800
    endloop
endfacet
facet normal 0.0000 -7.7260 0.0000
    outer loop
        vertex -1.9200 -0.1000 -0.5600
        vertex -2.5960 -0.1000 -7.2120
        vertex -2.6000 -0.1000 -9.0800
    endloop
endfacet
facet normal 0.0000 -2.8940 0.0000
    outer loop
        vertex -1.9200 -0.1000 -0.5600
        vertex -2.6400 -0.1000 -6.9600
        vertex -2.5960 -0.1000 -7.2120
    endloop
endfacet
facet normal 0.0000 -0.7750 0.0000
    outer loop
        vertex -0.4840 -0.1000 -6.9320
        vertex -0.9600 -0.1000 -6.8400
        vertex -1.0040 -0.1000 -7.0920
    endloop
endfacet
facet normal 0.0000 -0.7790 0.0000
    outer loop
        vertex -1.0040 -0.1000 -7.0920
        vertex -0.5240 -0.1000 -7.1840
        vertex -0.4840 -0.1000 -6.9320
    endloop
endfacet
facet normal 0.0000 -0.7608 0.0000
    outer loop
        vertex 0.2320 -0.1000 -7.0720
        vertex -0.2440 -0.1000 -6.9800
        vertex -0.2840 -0.1000 -7.2280
    endloop
endfacet
facet normal 0.0000 -0.7608 0.0000
    outer loop
        vertex -0.2840 -0.1000 -7.2280
        vertex 0.1920 -0.1000 -7.3200
        vertex 0.2320 -0.1000 -7.0720
    endloop
endfacet
facet normal 0.0000 -0.7608 0.0000
    outer loop
        vertex 0.9560 -0.1000 -7.2120
        vertex 0.4800 -0.1000 -7.1200
        vertex 0.4400 -0.1000 -7.3680
    endloop
endfacet
facet normal 0.0000 -0.7608 0.0000
    outer loop
        vertex 0.4400 -0.1000 -7.3680
        vertex 0.9160 -0.1000 -7.4600
        vertex 0.9560 -0.1000 -7.2120
    endloop
endfacet
facet normal 0.0000 -0.7489 0.0000
    outer loop
        vertex 1.6720 -0.1000 -7.3520
        vertex 1.1960 -0.1000 -7.2600
        vertex 1.1560 -0.1000 -7.5040
    endloop
endfacet
facet normal 0.0000 -0.7489 0.0000
    outer loop
        vertex 1.1560 -0.1000 -7.5040
        vertex 1.6320 -0.1000 -7.5960
        vertex 1.6720 -0.1000 -7.3520
    endloop
endfacet
facet normal 0.0000 -0.6300 0.0000
    outer loop
        vertex 2.3200 -0.1000 -7.4800
        vertex 1.9200 -0.1000 -7.4000
        vertex 1.8800 -0.1000 -7.6440
    endloop
endfacet
facet normal 0.0000 -0.6190 0.0000
    outer loop
        vertex 1.8800 -0.1000 -7.6440
        vertex 2.2800 -0.1000 -7.7200
        vertex 2.3200 -0.1000 -7.4800
    endloop
endfacet
facet normal 0.0000 -0.6490 0.0000
    outer loop
        vertex -1.6040 -0.1000 -6.4000
        vertex -1.3680 -0.1000 -6.4000
        vertex -1.3800 -0.1000 -5.9600
    endloop
endfacet
facet normal 0.0000 -0.6160 0.0000
    outer loop
        vertex -1.3800 -0.1000 -5.9600
        vertex -1.6040 -0.1000 -5.9600
        vertex -1.6040 -0.1000 -6.4000
    endloop
endfacet
facet normal 0.0000 -0.6050 0.0000
    outer loop
        vertex -1.6080 -0.1000 -5.6800
        vertex -1.3880 -0.1000 -5.6800
        vertex -1.4000 -0.1000 -5.2400
    endloop
endfacet
facet normal 0.0000 -0.5720 0.0000
    outer loop
        vertex -1.4000 -0.1000 -5.2400
        vertex -1.6080 -0.1000 -5.2400
        vertex -1.6080 -0.1000 -5.6800
    endloop
endfacet
facet normal 0.0000 -0.5610 0.0000
    outer loop
        vertex -1.6120 -0.1000 -4.9600
        vertex -1.4080 -0.1000 -4.9600
        vertex -1.4200 -0.1000 -4.5200
    endloop
endfacet
facet normal 0.0000 -0.5390 0.0000
    outer loop
        vertex -1.4200 -0.1000 -4.5200
        vertex -1.6160 -0.1000 -4.5200
        vertex -1.6120 -0.1000 -4.9600
    endloop
endfacet
facet normal 0.0000 -0.5170 0.0000
    outer loop
        vertex -1.6160 -0.1000 -4.2400
        vertex -1.4280 -0.1000 -4.2400
        vertex -1.4400 -0.1000 -3.8000
    endloop
endfacet
facet normal 0.0000 -0.4994 0.0000
    outer loop
        vertex -1.4400 -0.1000 -3.8000
        vertex -1.6200 -0.1000 -3.7960
        vertex -1.6160 -0.1000 -4.2400
    endloop
endfacet
facet normal 0.0000 -0.4730 0.0000
    outer loop
        vertex -1.6200 -0.1000 -3.5200
        vertex -1.4480 -0.1000 -3.5200
        vertex -1.4600 -0.1000 -3.0800
    endloop
endfacet
facet normal 0.0000 -0.4510 0.0000
    outer loop
        vertex -1.4600 -0.1000 -3.0800
        vertex -1.6240 -0.1000 -3.0800
        vertex -1.6200 -0.1000 -3.5200
    endloop
endfacet
facet normal 0.0000 -0.4290 0.0000
    outer loop
        vertex -1.6240 -0.1000 -2.8000
        vertex -1.4680 -0.1000 -2.8000
        vertex -1.4800 -0.1000 -2.3600
    endloop
endfacet
facet normal 0.0000 -0.4070 0.0000
    outer loop
        vertex -1.4800 -0.1000 -2.3600
        vertex -1.6280 -0.1000 -2.3600
        vertex -1.6240 -0.1000 -2.8000
    endloop
endfacet
facet normal 0.0000 -0.3850 0.0000
    outer loop
        vertex -1.6280 -0.1000 -2.0800
        vertex -1.4880 -0.1000 -2.0800
        vertex -1.5000 -0.1000 -1.6400
    endloop
endfacet
facet normal 0.0000 -0.3630 0.0000
    outer loop
        vertex -1.5000 -0.1000 -1.6400
        vertex -1.6320 -0.1000 -1.6400
        vertex -1.6280 -0.1000 -2.0800
    endloop
endfacet
facet normal 0.0000 -0.3972 0.0000
    outer loop
        vertex -1.8720 -0.1000 -7.0760
        vertex -1.9160 -0.1000 -6.8200
        vertex -2.1560 -0.1000 -6.8680
    endloop
endfacet
facet normal 0.0000 -0.4667 0.0000
    outer loop
        vertex -2.1560 -0.1000 -6.8680
        vertex -2.1600 -0.1000 -7.1280
        vertex -1.8720 -0.1000 -7.0760
    endloop
endfacet
facet normal 0.0000 -0.1180 0.0000
    outer loop
        vertex -1.3640 -0.1000 -6.6800
        vertex -1.6000 -0.1000 -6.6800
        vertex -1.6000 -0.1000 -6.7600
    endloop
endfacet
facet normal 0.0000 -0.1200 0.0000
    outer loop
        vertex -1.6000 -0.1000 -6.7600
        vertex -1.3600 -0.1000 -6.7600
        vertex -1.3640 -0.1000 -6.6800
    endloop
endfacet
facet normal 0.0000 -0.3600 0.0000
    outer loop
        vertex -1.3600 -0.1000 -6.7600
        vertex -1.6000 -0.1000 -6.7600
        vertex -1.4800 -0.1000 -7.0000
    endloop
endfacet
facet normal 0.0000 -0.2640 0.0000
    outer loop
        vertex -1.4800 -0.1000 -7.0000
        vertex -1.3200 -0.1000 -7.0320
        vertex -1.3600 -0.1000 -6.7600
    endloop
endfacet
facet normal 0.0000 -0.1388 0.0000
    outer loop
        vertex -1.3600 -0.1000 -6.7600
        vertex -1.3200 -0.1000 -7.0320
        vertex -1.2760 -0.1000 -6.7760
    endloop
endfacet
facet normal 0.0000 -0.2550 0.0000
    outer loop
        vertex -1.6360 -0.1000 -7.0280
        vertex -1.4800 -0.1000 -7.0000
        vertex -1.6000 -0.1000 -6.7600
    endloop
endfacet
facet normal 0.0000 -0.1237 0.0000
    outer loop
        vertex -1.6000 -0.1000 -6.7600
        vertex -1.6760 -0.1000 -6.7760
        vertex -1.6360 -0.1000 -7.0280
    endloop
endfacet
facet normal 0.0000 -0.3212 0.0000
    outer loop
        vertex -1.5080 -0.1000 -1.3200
        vertex -1.5200 -0.1000 -0.8800
        vertex -1.6368 -0.1000 -0.8800
    endloop
endfacet
facet normal 0.0000 -0.3465 0.0000
    outer loop
        vertex -1.6368 -0.1000 -0.8800
        vertex -1.6340 -0.1000 -1.3200
        vertex -1.5080 -0.1000 -1.3200
    endloop
endfacet
facet normal 0.0000 -0.3796 0.0000
    outer loop
        vertex -1.6368 -0.1000 -0.8800
        vertex -1.5200 -0.1000 -0.8800
        vertex -1.6400 -0.1000 -0.3600
    endloop
endfacet
facet normal 0.0000 -0.1404 0.0000
    outer loop
        vertex -1.6800 -0.1000 -0.8800
        vertex -1.6368 -0.1000 -0.8800
        vertex -1.6400 -0.1000 -0.3600
    endloop
endfacet
facet normal 0.0000 -7.5300 0.0000
    outer loop
        vertex -1.6400 -0.1000 -0.3600
        vertex -1.5200 -0.1000 -0.8800
        vertex 2.3200 -0.1000 -7.4800
    endloop
endfacet
facet normal 0.0000 -12.0600 0.0000
    outer loop
        vertex 2.3200 -0.1000 -7.4800
        vertex 2.6800 -0.1000 -7.6400
        vertex -1.6400 -0.1000 -0.3600
    endloop
endfacet
facet normal 0.0000 -0.5800 0.0000
    outer loop
        vertex 2.3200 -0.1000 -7.4800
        vertex 2.2800 -0.1000 -7.7200
        vertex 2.6800 -0.1000 -7.6400
    endloop
endfacet
facet normal 0.0000 -0.1380 0.0000
    outer loop
        vertex 2.0560 -0.1000 -7.8200
        vertex 2.6800 -0.1000 -7.6400
        vertex 2.2800 -0.1000 -7.7200
    endloop
endfacet
facet normal 0.0000 -0.3564 0.0000
    outer loop
        vertex 2.0560 -0.1000 -7.8200
        vertex 2.2800 -0.1000 -7.7200
        vertex 1.8800 -0.1000 -7.6440
    endloop
endfacet
facet normal 0.0000 -0.8844 0.0000
    outer loop
        vertex 1.8800 -0.1000 -7.6440
        vertex 1.4320 -0.1000 -8.0000
        vertex 2.0560 -0.1000 -7.8200
    endloop
endfacet
facet normal 0.0000 -1.3169 0.0000
    outer loop
        vertex 1.4320 -0.1000 -8.0000
        vertex 1.6320 -0.1000 -7.5960
        vertex 1.1560 -0.1000 -7.5040
    endloop
endfacet
facet normal 0.0000 -0.6862 0.0000
    outer loop
        vertex 1.4320 -0.1000 -8.0000
        vertex 1.8800 -0.1000 -7.6440
        vertex 1.6320 -0.1000 -7.5960
    endloop
endfacet
facet normal 0.0000 -0.6681 0.0000
    outer loop
        vertex 1.4320 -0.1000 -8.0000
        vertex 1.1560 -0.1000 -7.5040
        vertex 0.9160 -0.1000 -7.4600
    endloop
endfacet
facet normal 0.0000 -5.3865 0.0000
    outer loop
        vertex 0.9160 -0.1000 -7.4600
        vertex 0.1800 -0.1000 -8.3600
        vertex 1.4320 -0.1000 -8.0000
    endloop
endfacet
facet normal 0.0000 -3.1007 0.0000
    outer loop
        vertex 0.1800 -0.1000 -8.3600
        vertex 0.9160 -0.1000 -7.4600
        vertex 0.4400 -0.1000 -7.3680
    endloop
endfacet
facet normal 0.0000 -1.6156 0.0000
    outer loop
        vertex 0.1800 -0.1000 -8.3600
        vertex 0.4400 -0.1000 -7.3680
        vertex 0.1920 -0.1000 -7.3200
    endloop
endfacet
facet normal 0.0000 -3.1009 0.0000
    outer loop
        vertex 0.1800 -0.1000 -8.3600
        vertex 0.1920 -0.1000 -7.3200
        vertex -0.2840 -0.1000 -7.2280
    endloop
endfacet
facet normal 0.0000 -1.5704 0.0000
    outer loop
        vertex 0.1800 -0.1000 -8.3600
        vertex -0.2840 -0.1000 -7.2280
        vertex -0.5240 -0.1000 -7.1840
    endloop
endfacet
facet normal 0.0000 -3.1232 0.0000
    outer loop
        vertex 0.1800 -0.1000 -8.3600
        vertex -0.5240 -0.1000 -7.1840
        vertex -1.0040 -0.1000 -7.0920
    endloop
endfacet
facet normal 0.0000 -0.3890 0.0000
    outer loop
        vertex -0.4840 -0.1000 -6.9320
        vertex -0.5240 -0.1000 -7.1840
        vertex -0.2840 -0.1000 -7.2280
    endloop
endfacet
facet normal 0.0000 -0.3840 0.0000
    outer loop
        vertex -0.2840 -0.1000 -7.2280
        vertex -0.2440 -0.1000 -6.9800
        vertex -0.4840 -0.1000 -6.9320
    endloop
endfacet
facet normal 0.0000 -25.1405 0.0000
    outer loop
        vertex -1.0040 -0.1000 -7.0920
        vertex -2.3200 -0.1000 -9.0800
        vertex 0.1800 -0.1000 -8.3600
    endloop
endfacet
facet normal 0.0000 -4.4198 0.0000
    outer loop
        vertex -1.0040 -0.1000 -7.0920
        vertex -1.3200 -0.1000 -7.0320
        vertex -2.3200 -0.1000 -9.0800
    endloop
endfacet
facet normal 0.0000 -2.2480 0.0000
    outer loop
        vertex -2.3200 -0.1000 -9.0800
        vertex -1.3200 -0.1000 -7.0320
        vertex -1.4800 -0.1000 -7.0000
    endloop
endfacet
facet normal 0.0000 -1.8810 0.0000
    outer loop
        vertex -1.4800 -0.1000 -7.0000
        vertex -1.6360 -0.1000 -7.0280
        vertex -2.3200 -0.1000 -9.0800
    endloop
endfacet
facet normal 0.0000 -2.8215 0.0000
    outer loop
        vertex -2.3200 -0.1000 -9.0800
        vertex -1.6360 -0.1000 -7.0280
        vertex -1.8720 -0.1000 -7.0760
    endloop
endfacet
facet normal 0.0000 -3.4616 0.0000
    outer loop
        vertex -1.8720 -0.1000 -7.0760
        vertex -2.1600 -0.1000 -7.1280
        vertex -2.3200 -0.1000 -9.0800
    endloop
endfacet
facet normal 0.0000 -0.2340 0.0000
    outer loop
        vertex -1.6280 -0.1000 -2.0800
        vertex -1.6320 -0.1000 -1.6400
        vertex -1.7200 -0.1000 -1.3200
    endloop
endfacet
facet normal 0.0000 -7.8823 0.0000
    outer loop
        vertex -1.9380 -0.1000 -4.0940
        vertex -2.1560 -0.1000 -6.8680
        vertex -1.6080 -0.1000 -5.6800
    endloop
endfacet
facet normal 0.0000 -0.8959 0.0000
    outer loop
        vertex -1.9380 -0.1000 -4.0940
        vertex -1.6240 -0.1000 -2.8000
        vertex -1.6280 -0.1000 -2.3600
    endloop
endfacet
facet normal 0.0000 -0.1610 0.0000
    outer loop
        vertex -1.6280 -0.1000 -2.3600
        vertex -1.6280 -0.1000 -2.0800
        vertex -1.7200 -0.1000 -1.3200
    endloop
endfacet
facet normal 0.0000 -3.0120 0.0000
    outer loop
        vertex -1.6280 -0.1000 -2.3600
        vertex -1.7200 -0.1000 -1.3200
        vertex -1.9380 -0.1000 -4.0940
    endloop
endfacet
facet normal 0.0000 -0.5495 0.0000
    outer loop
        vertex -1.6240 -0.1000 -3.0800
        vertex -1.6240 -0.1000 -2.8000
        vertex -1.9380 -0.1000 -4.0940
    endloop
endfacet
facet normal 0.0000 -0.8889 0.0000
    outer loop
        vertex -1.6200 -0.1000 -3.5200
        vertex -1.6240 -0.1000 -3.0800
        vertex -1.9380 -0.1000 -4.0940
    endloop
endfacet
facet normal 0.0000 -0.5485 0.0000
    outer loop
        vertex -1.6200 -0.1000 -3.7960
        vertex -1.6200 -0.1000 -3.5200
        vertex -1.9380 -0.1000 -4.0940
    endloop
endfacet
facet normal 0.0000 -0.8899 0.0000
    outer loop
        vertex -1.6160 -0.1000 -4.2400
        vertex -1.6200 -0.1000 -3.7960
        vertex -1.9380 -0.1000 -4.0940
    endloop
endfacet
facet normal 0.0000 -0.5635 0.0000
    outer loop
        vertex -1.6160 -0.1000 -4.5200
        vertex -1.6160 -0.1000 -4.2400
        vertex -1.9380 -0.1000 -4.0940
    endloop
endfacet
facet normal 0.0000 -0.8748 0.0000
    outer loop
        vertex -1.6120 -0.1000 -4.9600
        vertex -1.6160 -0.1000 -4.5200
        vertex -1.9380 -0.1000 -4.0940
    endloop
endfacet
facet normal 0.0000 -0.5488 0.0000
    outer loop
        vertex -1.6080 -0.1000 -5.2400
        vertex -1.6120 -0.1000 -4.9600
        vertex -1.9380 -0.1000 -4.0940
    endloop
endfacet
facet normal 0.0000 -0.9075 0.0000
    outer loop
        vertex -1.6080 -0.1000 -5.6800
        vertex -1.6080 -0.1000 -5.2400
        vertex -1.9380 -0.1000 -4.0940
    endloop
endfacet
facet normal 0.0000 -0.9887 0.0000
    outer loop
        vertex -1.6040 -0.1000 -5.9600
        vertex -1.6080 -0.1000 -5.6800
        vertex -2.1560 -0.1000 -6.8680
    endloop
endfacet
facet normal 0.0000 -1.1964 0.0000
    outer loop
        vertex -2.1560 -0.1000 -6.8680
        vertex -1.9160 -0.1000 -6.8200
        vertex -1.6040 -0.1000 -5.9600
    endloop
endfacet
facet normal 0.0000 -0.8580 0.0000
    outer loop
        vertex -1.6040 -0.1000 -6.4000
        vertex -1.6040 -0.1000 -5.9600
        vertex -1.9160 -0.1000 -6.8200
    endloop
endfacet
facet normal 0.0000 -0.5442 0.0000
    outer loop
        vertex -1.9160 -0.1000 -6.8200
        vertex -1.6760 -0.1000 -6.7760
        vertex -1.6040 -0.1000 -6.4000
    endloop
endfacet
facet normal 0.0000 -0.1354 0.0000
    outer loop
        vertex -1.6040 -0.1000 -6.4000
        vertex -1.6760 -0.1000 -6.7760
        vertex -1.6000 -0.1000 -6.6800
    endloop
endfacet
facet normal 0.0000 -0.4130 0.0000
    outer loop
        vertex -1.6000 -0.1000 -6.6800
        vertex -1.3680 -0.1000 -6.4000
        vertex -1.6040 -0.1000 -6.4000
    endloop
endfacet
facet normal 0.0000 -0.0380 0.0000
    outer loop
        vertex -1.6000 -0.1000 -6.6800
        vertex -1.6760 -0.1000 -6.7760
        vertex -1.6000 -0.1000 -6.7600
    endloop
endfacet
facet normal 0.0000 -0.3961 0.0000
    outer loop
        vertex -1.6760 -0.1000 -6.7760
        vertex -1.9160 -0.1000 -6.8200
        vertex -1.8720 -0.1000 -7.0760
    endloop
endfacet
facet normal 0.0000 -0.3837 0.0000
    outer loop
        vertex -1.8720 -0.1000 -7.0760
        vertex -1.6360 -0.1000 -7.0280
        vertex -1.6760 -0.1000 -6.7760
    endloop
endfacet
facet normal 0.0000 -10.0650 0.0000
    outer loop
        vertex 2.3200 -0.1000 -7.4800
        vertex -1.5200 -0.1000 -0.8800
        vertex -1.5080 -0.1000 -1.3200
    endloop
endfacet
facet normal 0.0000 -13.4860 0.0000
    outer loop
        vertex -1.5080 -0.1000 -1.3200
        vertex 1.9200 -0.1000 -7.4000
        vertex 2.3200 -0.1000 -7.4800
    endloop
endfacet
facet normal 0.0000 -6.5520 0.0000
    outer loop
        vertex 1.9200 -0.1000 -7.4000
        vertex -1.5080 -0.1000 -1.3200
        vertex -1.5000 -0.1000 -1.6400
    endloop
endfacet
facet normal 0.0000 -7.9020 0.0000
    outer loop
        vertex -1.5000 -0.1000 -1.6400
        vertex 1.6720 -0.1000 -7.3520
        vertex 1.9200 -0.1000 -7.4000
    endloop
endfacet
facet normal 0.0000 -0.1720 0.0000
    outer loop
        vertex -1.6340 -0.1000 -1.3200
        vertex -1.7200 -0.1000 -1.3200
        vertex -1.6320 -0.1000 -1.6400
    endloop
endfacet
facet normal 0.0000 -0.2640 0.0000
    outer loop
        vertex -1.6320 -0.1000 -1.6400
        vertex -1.5000 -0.1000 -1.6400
        vertex -1.5080 -0.1000 -1.3200
    endloop
endfacet
facet normal 0.0000 -0.2520 0.0000
    outer loop
        vertex -1.5080 -0.1000 -1.3200
        vertex -1.6340 -0.1000 -1.3200
        vertex -1.6320 -0.1000 -1.6400
    endloop
endfacet
facet normal 0.0000 -0.3902 0.0000
    outer loop
        vertex 1.9200 -0.1000 -7.4000
        vertex 1.6720 -0.1000 -7.3520
        vertex 1.6320 -0.1000 -7.5960
    endloop
endfacet
facet normal 0.0000 -0.3902 0.0000
    outer loop
        vertex 1.6320 -0.1000 -7.5960
        vertex 1.8800 -0.1000 -7.6440
        vertex 1.9200 -0.1000 -7.4000
    endloop
endfacet
facet normal 0.0000 -8.2946 0.0000
    outer loop
        vertex 1.6720 -0.1000 -7.3520
        vertex -1.5000 -0.1000 -1.6400
        vertex -1.4880 -0.1000 -2.0800
    endloop
endfacet
facet normal 0.0000 -13.8672 0.0000
    outer loop
        vertex -1.4880 -0.1000 -2.0800
        vertex 1.1960 -0.1000 -7.2600
        vertex 1.6720 -0.1000 -7.3520
    endloop
endfacet
facet normal 0.0000 -4.4380 0.0000
    outer loop
        vertex 1.1960 -0.1000 -7.2600
        vertex -1.4880 -0.1000 -2.0800
        vertex -1.4800 -0.1000 -2.3600
    endloop
endfacet
facet normal 0.0000 -6.5472 0.0000
    outer loop
        vertex -1.4800 -0.1000 -2.3600
        vertex 0.9560 -0.1000 -7.2120
        vertex 1.1960 -0.1000 -7.2600
    endloop
endfacet
facet normal 0.0000 -0.2450 0.0000
    outer loop
        vertex -1.4800 -0.1000 -2.3600
        vertex -1.4880 -0.1000 -2.0800
        vertex -1.6280 -0.1000 -2.0800
    endloop
endfacet
facet normal 0.0000 -0.2590 0.0000
    outer loop
        vertex -1.6280 -0.1000 -2.0800
        vertex -1.6280 -0.1000 -2.3600
        vertex -1.4800 -0.1000 -2.3600
    endloop
endfacet
facet normal 0.0000 -0.3840 0.0000
    outer loop
        vertex 1.1960 -0.1000 -7.2600
        vertex 0.9560 -0.1000 -7.2120
        vertex 0.9160 -0.1000 -7.4600
    endloop
endfacet
facet normal 0.0000 -0.3770 0.0000
    outer loop
        vertex 0.9160 -0.1000 -7.4600
        vertex 1.1560 -0.1000 -7.5040
        vertex 1.1960 -0.1000 -7.2600
    endloop
endfacet
facet normal 0.0000 -6.3351 0.0000
    outer loop
        vertex 0.9560 -0.1000 -7.2120
        vertex -1.4800 -0.1000 -2.3600
        vertex -1.4680 -0.1000 -2.8000
    endloop
endfacet
facet normal 0.0000 -11.7319 0.0000
    outer loop
        vertex -1.4680 -0.1000 -2.8000
        vertex 0.4800 -0.1000 -7.1200
        vertex 0.9560 -0.1000 -7.2120
    endloop
endfacet
facet normal 0.0000 -3.1930 0.0000
    outer loop
        vertex 0.4800 -0.1000 -7.1200
        vertex -1.4680 -0.1000 -2.8000
        vertex -1.4600 -0.1000 -3.0800
    endloop
endfacet
facet normal 0.0000 -5.6800 0.0000
    outer loop
        vertex -1.4600 -0.1000 -3.0800
        vertex 0.2320 -0.1000 -7.0720
        vertex 0.4800 -0.1000 -7.1200
    endloop
endfacet
facet normal 0.0000 -0.2730 0.0000
    outer loop
        vertex -1.4600 -0.1000 -3.0800
        vertex -1.4680 -0.1000 -2.8000
        vertex -1.6240 -0.1000 -2.8000
    endloop
endfacet
facet normal 0.0000 -0.2870 0.0000
    outer loop
        vertex -1.6240 -0.1000 -2.8000
        vertex -1.6240 -0.1000 -3.0800
        vertex -1.4600 -0.1000 -3.0800
    endloop
endfacet
facet normal 0.0000 -0.3964 0.0000
    outer loop
        vertex 0.4800 -0.1000 -7.1200
        vertex 0.2320 -0.1000 -7.0720
        vertex 0.1920 -0.1000 -7.3200
    endloop
endfacet
facet normal 0.0000 -0.3964 0.0000
    outer loop
        vertex 0.1920 -0.1000 -7.3200
        vertex 0.4400 -0.1000 -7.3680
        vertex 0.4800 -0.1000 -7.1200
    endloop
endfacet
facet normal 0.0000 -4.3536 0.0000
    outer loop
        vertex 0.2320 -0.1000 -7.0720
        vertex -1.4600 -0.1000 -3.0800
        vertex -1.4480 -0.1000 -3.5200
    endloop
endfacet
facet normal 0.0000 -9.6012 0.0000
    outer loop
        vertex -1.4480 -0.1000 -3.5200
        vertex -0.2440 -0.1000 -6.9800
        vertex 0.2320 -0.1000 -7.0720
    endloop
endfacet
facet normal 0.0000 -1.9340 0.0000
    outer loop
        vertex -0.2440 -0.1000 -6.9800
        vertex -1.4480 -0.1000 -3.5200
        vertex -1.4400 -0.1000 -3.8000
    endloop
endfacet
facet normal 0.0000 -4.4112 0.0000
    outer loop
        vertex -1.4400 -0.1000 -3.8000
        vertex -0.4840 -0.1000 -6.9320
        vertex -0.2440 -0.1000 -6.9800
    endloop
endfacet
facet normal 0.0000 -0.3010 0.0000
    outer loop
        vertex -1.4400 -0.1000 -3.8000
        vertex -1.4480 -0.1000 -3.5200
        vertex -1.6200 -0.1000 -3.5200
    endloop
endfacet
facet normal 0.0000 -0.3105 0.0000
    outer loop
        vertex -1.6200 -0.1000 -3.5200
        vertex -1.6200 -0.1000 -3.7960
        vertex -1.4400 -0.1000 -3.8000
    endloop
endfacet
facet normal 0.0000 -2.3941 0.0000
    outer loop
        vertex -0.4840 -0.1000 -6.9320
        vertex -1.4400 -0.1000 -3.8000
        vertex -1.4280 -0.1000 -4.2400
    endloop
endfacet
facet normal 0.0000 -1.5174 0.0000
    outer loop
        vertex -1.4280 -0.1000 -4.2400
        vertex -1.4200 -0.1000 -4.5200
        vertex -0.4840 -0.1000 -6.9320
    endloop
endfacet
facet normal 0.0000 -0.3430 0.0000
    outer loop
        vertex -1.6160 -0.1000 -4.5200
        vertex -1.4200 -0.1000 -4.5200
        vertex -1.4280 -0.1000 -4.2400
    endloop
endfacet
facet normal 0.0000 -0.3290 0.0000
    outer loop
        vertex -1.4280 -0.1000 -4.2400
        vertex -1.6160 -0.1000 -4.2400
        vertex -1.6160 -0.1000 -4.5200
    endloop
endfacet
facet normal 0.0000 -2.3931 0.0000
    outer loop
        vertex -1.4200 -0.1000 -4.5200
        vertex -1.4080 -0.1000 -4.9600
        vertex -0.4840 -0.1000 -6.9320
    endloop
endfacet
facet normal 0.0000 -1.5184 0.0000
    outer loop
        vertex -1.4080 -0.1000 -4.9600
        vertex -1.4000 -0.1000 -5.2400
        vertex -0.4840 -0.1000 -6.9320
    endloop
endfacet
facet normal 0.0000 -0.3640 0.0000
    outer loop
        vertex -1.6080 -0.1000 -5.2400
        vertex -1.4000 -0.1000 -5.2400
        vertex -1.4080 -0.1000 -4.9600
    endloop
endfacet
facet normal 0.0000 -0.3570 0.0000
    outer loop
        vertex -1.4080 -0.1000 -4.9600
        vertex -1.6120 -0.1000 -4.9600
        vertex -1.6080 -0.1000 -5.2400
    endloop
endfacet
facet normal 0.0000 -2.3921 0.0000
    outer loop
        vertex -0.4840 -0.1000 -6.9320
        vertex -1.4000 -0.1000 -5.2400
        vertex -1.3880 -0.1000 -5.6800
    endloop
endfacet
facet normal 0.0000 -1.5194 0.0000
    outer loop
        vertex -1.3880 -0.1000 -5.6800
        vertex -1.3800 -0.1000 -5.9600
        vertex -0.4840 -0.1000 -6.9320
    endloop
endfacet
facet normal 0.0000 -0.3920 0.0000
    outer loop
        vertex -1.6040 -0.1000 -5.9600
        vertex -1.3800 -0.1000 -5.9600
        vertex -1.3880 -0.1000 -5.6800
    endloop
endfacet
facet normal 0.0000 -0.3850 0.0000
    outer loop
        vertex -1.3880 -0.1000 -5.6800
        vertex -1.6080 -0.1000 -5.6800
        vertex -1.6040 -0.1000 -5.9600
    endloop
endfacet
facet normal 0.0000 -2.3765 0.0000
    outer loop
        vertex -0.9600 -0.1000 -6.8400
        vertex -0.4840 -0.1000 -6.9320
        vertex -1.3800 -0.1000 -5.9600
    endloop
endfacet
facet normal 0.0000 -1.0890 0.0000
    outer loop
        vertex -1.3800 -0.1000 -5.9600
        vertex -1.3680 -0.1000 -6.4000
        vertex -0.9600 -0.1000 -6.8400
    endloop
endfacet
facet normal 0.0000 -0.7030 0.0000
    outer loop
        vertex -0.9600 -0.1000 -6.8400
        vertex -1.3680 -0.1000 -6.4000
        vertex -1.3640 -0.1000 -6.6800
    endloop
endfacet
facet normal 0.0000 -0.1544 0.0000
    outer loop
        vertex -1.3640 -0.1000 -6.6800
        vertex -1.2760 -0.1000 -6.7760
        vertex -0.9600 -0.1000 -6.8400
    endloop
endfacet
facet normal 0.0000 -0.4130 0.0000
    outer loop
        vertex -1.3680 -0.1000 -6.4000
        vertex -1.6000 -0.1000 -6.6800
        vertex -1.3640 -0.1000 -6.6800
    endloop
endfacet
facet normal 0.0000 -0.0416 0.0000
    outer loop
        vertex -1.3640 -0.1000 -6.6800
        vertex -1.3600 -0.1000 -6.7600
        vertex -1.2760 -0.1000 -6.7760
    endloop
endfacet
facet normal 0.0000 -0.5153 0.0000
    outer loop
        vertex -1.0040 -0.1000 -7.0920
        vertex -0.9600 -0.1000 -6.8400
        vertex -1.2760 -0.1000 -6.7760
    endloop
endfacet
facet normal 0.0000 -0.5221 0.0000
    outer loop
        vertex -1.2760 -0.1000 -6.7760
        vertex -1.3200 -0.1000 -7.0320
        vertex -1.0040 -0.1000 -7.0920
    endloop
endfacet
facet normal 0.0000 -1.0800 0.0000
    outer loop
        vertex -1.6400 -0.1000 -0.3600
        vertex -1.7200 -0.1000 0.2000
        vertex -1.9200 -0.1000 -0.5600
    endloop
endfacet
facet normal 0.0000 -0.8600 0.0000
    outer loop
        vertex -1.9200 -0.1000 -0.5600
        vertex -1.6800 -0.1000 -0.8800
        vertex -1.6400 -0.1000 -0.3600
    endloop
endfacet
facet normal 0.0000 -8.5800 0.0000
    outer loop
        vertex -5.6000 -0.1000 -7.6800
        vertex -1.9200 -0.1000 -0.5600
        vertex -1.7200 -0.1000 0.2000
    endloop
endfacet
facet normal 0.0000 -11.8500 0.0000
    outer loop
        vertex -1.7200 -0.1000 0.2000
        vertex -5.8800 -0.1000 -7.7600
        vertex -5.6000 -0.1000 -7.6800
    endloop
endfacet
facet normal 0.0000 -3.9500 0.0000
    outer loop
        vertex -2.6000 -0.1000 -9.0800
        vertex -5.6000 -0.1000 -7.6800
        vertex -5.8800 -0.1000 -7.7600
    endloop
endfacet
facet normal 0.0000 -3.6000 0.0000
    outer loop
        vertex -5.8800 -0.1000 -7.7600
        vertex -2.4400 -0.1000 -9.3200
        vertex -2.6000 -0.1000 -9.0800
    endloop
endfacet
facet normal 0.0000 -0.4200 0.0000
    outer loop
        vertex -2.6000 -0.1000 -9.0800
        vertex -2.4400 -0.1000 -9.3200
        vertex -2.3200 -0.1000 -9.0800
    endloop
endfacet
facet normal 0.0000 -3.4160 0.0000
    outer loop
        vertex -2.3200 -0.1000 -9.0800
        vertex -2.1600 -0.1000 -7.1280
        vertex -2.6000 -0.1000 -9.0800
    endloop
endfacet
facet normal 0.0000 -0.6662 0.0000
    outer loop
        vertex -2.1560 -0.1000 -6.8680
        vertex -2.6000 -0.1000 -9.0800
        vertex -2.1600 -0.1000 -7.1280
    endloop
endfacet
facet normal 0.0000 -4.5030 0.0000
    outer loop
        vertex -1.9380 -0.1000 -4.0940
        vertex -1.7200 -0.1000 -1.3200
        vertex -1.9200 -0.1000 -0.5600
    endloop
endfacet
facet normal 0.0000 -14.2420 0.0000
    outer loop
        vertex -1.9200 -0.1000 -0.5600
        vertex -2.6000 -0.1000 -9.0800
        vertex -2.1560 -0.1000 -6.8680
    endloop
endfacet
facet normal 0.0000 -4.5030 0.0000
    outer loop
        vertex -2.1560 -0.1000 -6.8680
        vertex -1.9380 -0.1000 -4.0940
        vertex -1.9200 -0.1000 -0.5600
    endloop
endfacet
facet normal 0.0000 -0.7400 0.0000
    outer loop
        vertex -1.9200 -0.1000 -0.5600
        vertex -1.7200 -0.1000 -1.3200
        vertex -1.6800 -0.1000 -0.8800
    endloop
endfacet
facet normal 0.0000 -3.2100 0.0000
    outer loop
        vertex 0.1800 -0.1000 -8.3600
        vertex -2.3200 -0.1000 -9.0800
        vertex -2.4400 -0.1000 -9.3200
    endloop
endfacet
facet normal 0.0000 -1.8300 0.0000
    outer loop
        vertex 3.0800 -0.1000 -7.7600
        vertex 1.4320 -0.1000 -8.0000
        vertex 0.1800 -0.1000 -8.3600
    endloop
endfacet
facet normal 0.0000 -7.5750 0.0000
    outer loop
        vertex 0.1800 -0.1000 -8.3600
        vertex -2.4400 -0.1000 -9.3200
        vertex 3.0800 -0.1000 -7.7600
    endloop
endfacet
facet normal 0.0000 -0.9180 0.0000
    outer loop
        vertex 2.0560 -0.1000 -7.8200
        vertex 1.4320 -0.1000 -8.0000
        vertex 3.0800 -0.1000 -7.7600
    endloop
endfacet
facet normal 0.0000 -0.9180 0.0000
    outer loop
        vertex 2.6800 -0.1000 -7.6400
        vertex 2.0560 -0.1000 -7.8200
        vertex 3.0800 -0.1000 -7.7600
    endloop
endfacet
facet normal 0.0000 -10.1100 0.0000
    outer loop
        vertex 2.6800 -0.1000 -7.6400
        vertex 3.0800 -0.1000 -7.7600
        vertex 0.1600 -0.1000 -2.8400
    endloop
endfacet
facet normal 0.0000 -14.9400 0.0000
    outer loop
        vertex 0.1600 -0.1000 -2.8400
        vertex -1.6400 -0.1000 -0.3600
        vertex 2.6800 -0.1000 -7.6400
    endloop
endfacet
facet normal 0.0000 -2.6700 0.0000
    outer loop
        vertex -1.6400 -0.1000 -0.3600
        vertex 0.1600 -0.1000 -2.8400
        vertex -0.8000 -0.1000 -1.2800
    endloop
endfacet
facet normal 0.0000 -2.4800 0.0000
    outer loop
        vertex -0.8000 -0.1000 -1.2800
        vertex -1.7200 -0.1000 0.2000
        vertex -1.6400 -0.1000 -0.3600
    endloop
endfacet
facet normal 0.0000 -23.5800 0.0000
    outer loop
        vertex -0.8000 -0.1000 -1.2800
        vertex 0.1600 -0.1000 -2.8400
        vertex 2.8000 -0.1000 -3.2000
    endloop
endfacet
facet normal 0.0000 -31.0200 0.0000
    outer loop
        vertex 2.8000 -0.1000 -3.2000
        vertex -0.8400 -0.1000 0.1200
        vertex -0.8000 -0.1000 -1.2800
    endloop
endfacet
facet normal 0.0000 -27.1200 0.0000
    outer loop
        vertex -1.8800 -0.1000 5.8800
        vertex -6.4000 -0.1000 5.8800
        vertex -4.0000 -0.1000 4.9200
    endloop
endfacet
facet normal 0.0000 -37.2200 0.0000
    outer loop
        vertex -1.8800 -0.1000 5.8800
        vertex -4.0000 -0.1000 4.9200
        vertex -2.9200 -0.1000 2.6000
    endloop
endfacet
facet normal 0.0000 -20.0400 0.0000
    outer loop
        vertex -6.4000 -0.1000 5.8800
        vertex -5.4400 -0.1000 4.1600
        vertex -4.0000 -0.1000 4.9200
    endloop
endfacet
facet normal 0.0000 -76.2500 0.0000
    outer loop
        vertex -5.8800 -0.1000 -7.7600
        vertex -5.4400 -0.1000 4.1600
        vertex -6.4000 -0.1000 5.8800
    endloop
endfacet
facet normal 0.0000 -52.9100 0.0000
    outer loop
        vertex -6.4000 -0.1000 5.8800
        vertex -6.4000 -0.1000 -10.4000
        vertex -5.8800 -0.1000 -7.7600
    endloop
endfacet
facet normal 0.0000 -61.8300 0.0000
    outer loop
        vertex -5.8800 -0.1000 -7.7600
        vertex -6.4000 -0.1000 -10.4000
        vertex -2.4400 -0.1000 -9.3200
    endloop
endfacet
facet normal 0.0000 -86.4000 0.0000
    outer loop
        vertex -2.4400 -0.1000 -9.3200
        vertex -6.4000 -0.1000 -10.4000
        vertex 6.4000 -0.1000 -10.4000
    endloop
endfacet
facet normal 0.0000 -123.4500 0.0000
    outer loop
        vertex 3.0800 -0.1000 -7.7600
        vertex -2.4400 -0.1000 -9.3200
        vertex 6.4000 -0.1000 -10.4000
    endloop
endfacet
facet normal 0.0000 -54.9400 0.0000
    outer loop
        vertex 3.0800 -0.1000 -7.7600
        vertex 6.4000 -0.1000 -10.4000
        vertex 4.8000 -0.1000 -6.4800
    endloop
endfacet
facet normal 0.0000 -12.8000 0.0000
    outer loop
        vertex 4.8000 -0.1000 -6.4800
        vertex 3.2000 -0.1000 -6.4800
        vertex 3.0800 -0.1000 -7.7600
    endloop
endfacet
facet normal 0.0000 -22.0800 0.0000
    outer loop
        vertex 5.4400 -0.1000 -5.8400
        vertex 4.8000 -0.1000 -6.4800
        vertex 6.4000 -0.1000 -10.4000
    endloop
endfacet
facet normal 0.0000 -9.6000 0.0000
    outer loop
        vertex 5.4400 -0.1000 -4.2400
        vertex 5.4400 -0.1000 -5.8400
        vertex 6.4000 -0.1000 -10.4000
    endloop
endfacet
facet normal 0.0000 -94.0800 0.0000
    outer loop
        vertex 6.4000 -0.1000 -10.4000
        vertex 6.4000 -0.1000 5.2800
        vertex 5.4400 -0.1000 -4.2400
    endloop
endfacet
facet normal 0.0000 -8.0000 0.0000
    outer loop
        vertex 5.4400 -0.1000 -4.2400
        vertex 4.6400 -0.1000 -5.0400
        vertex 5.4400 -0.1000 -5.8400
    endloop
endfacet
facet normal 0.0000 -41.9200 0.0000
    outer loop
        vertex 4.8000 -0.1000 -3.6000
        vertex 5.4400 -0.1000 -4.2400
        vertex 6.4000 -0.1000 5.2800
    endloop
endfacet
facet normal 0.0000 -45.8400 0.0000
    outer loop
        vertex 6.4000 -0.1000 5.2800
        vertex 4.3200 -0.1000 -1.6800
        vertex 4.8000 -0.1000 -3.6000
    endloop
endfacet
facet normal 0.0000 -38.4800 0.0000
    outer loop
        vertex 6.4000 -0.1000 5.2800
        vertex 4.3200 -0.1000 1.2800
        vertex 4.3200 -0.1000 -1.6800
    endloop
endfacet
facet normal 0.0000 -6.1200 0.0000
    outer loop
        vertex 6.4000 -0.1000 5.2800
        vertex 4.2000 -0.1000 1.5200
        vertex 4.3200 -0.1000 1.2800
    endloop
endfacet
facet normal 0.0000 -5.9600 0.0000
    outer loop
        vertex 6.4000 -0.1000 5.2800
        vertex 4.0400 -0.1000 1.6800
        vertex 4.2000 -0.1000 1.5200
    endloop
endfacet
facet normal 0.0000 -99.6600 0.0000
    outer loop
        vertex 0.2400 -0.1000 2.6400
        vertex 4.0400 -0.1000 1.6800
        vertex 6.4000 -0.1000 5.2800
    endloop
endfacet
facet normal 0.0000 -125.4000 0.0000
    outer loop
        vertex 6.4000 -0.1000 5.2800
        vertex -1.2000 -0.1000 5.2800
        vertex 0.2400 -0.1000 2.6400
    endloop
endfacet
facet normal 0.0000 -37.0200 0.0000
    outer loop
        vertex -0.7600 -0.1000 0.3600
        vertex 0.2400 -0.1000 2.6400
        vertex -1.2000 -0.1000 5.2800
    endloop
endfacet
facet normal 0.0000 -29.9600 0.0000
    outer loop
        vertex -1.2000 -0.1000 5.2800
        vertex -1.7200 -0.1000 0.2000
        vertex -0.7600 -0.1000 0.3600
    endloop
endfacet
facet normal 0.0000 -1.3600 0.0000
    outer loop
        vertex -0.7600 -0.1000 0.3600
        vertex -1.7200 -0.1000 0.2000
        vertex -0.8400 -0.1000 0.1200
    endloop
endfacet
facet normal 0.0000 -0.3200 0.0000
    outer loop
        vertex -0.8400 -0.1000 0.1200
        vertex -0.6000 -0.1000 0.2000
        vertex -0.7600 -0.1000 0.3600
    endloop
endfacet
facet normal 0.0000 -7.6800 0.0000
    outer loop
        vertex -1.7200 -0.1000 0.2000
        vertex -0.8000 -0.1000 -1.2800
        vertex -0.8400 -0.1000 0.1200
    endloop
endfacet
facet normal 0.0000 -6.1200 0.0000
    outer loop
        vertex 4.0400 -0.1000 1.6800
        vertex -0.7600 -0.1000 0.3600
        vertex -0.6000 -0.1000 0.2000
    endloop
endfacet
facet normal 0.0000 -6.1200 0.0000
    outer loop
        vertex -0.6000 -0.1000 0.2000
        vertex 4.2000 -0.1000 1.5200
        vertex 4.0400 -0.1000 1.6800
    endloop
endfacet
facet normal 0.0000 -6.8000 0.0000
    outer loop
        vertex -0.6000 -0.1000 0.2000
        vertex -0.8400 -0.1000 0.1200
        vertex 2.8000 -0.1000 -3.2000
    endloop
endfacet
facet normal 0.0000 -5.9500 0.0000
    outer loop
        vertex 2.8000 -0.1000 -3.2000
        vertex 3.0000 -0.1000 -3.1200
        vertex -0.6000 -0.1000 0.2000
    endloop
endfacet
facet normal 0.0000 -0.7000 0.0000
    outer loop
        vertex 3.2000 -0.1000 -3.6000
        vertex 3.0000 -0.1000 -3.1200
        vertex 2.8000 -0.1000 -3.2000
    endloop
endfacet
facet normal 0.0000 -3.2000 0.0000
    outer loop
        vertex 2.8000 -0.1000 -3.2000
        vertex 2.5600 -0.1000 -4.2400
        vertex 3.2000 -0.1000 -3.6000
    endloop
endfacet
facet normal 0.0000 -0.7500 0.0000
    outer loop
        vertex 3.2000 -0.1000 -3.0000
        vertex 3.0000 -0.1000 -3.1200
        vertex 3.2000 -0.1000 -3.6000
    endloop
endfacet
facet normal 0.0000 -4.5100 0.0000
    outer loop
        vertex 3.0000 -0.1000 -3.1200
        vertex 3.2000 -0.1000 -3.0000
        vertex 4.3200 -0.1000 1.2800
    endloop
endfacet
facet normal 0.0000 -5.2800 0.0000
    outer loop
        vertex 4.3200 -0.1000 1.2800
        vertex 4.2000 -0.1000 1.5200
        vertex 3.0000 -0.1000 -3.1200
    endloop
endfacet
facet normal 0.0000 -4.2000 0.0000
    outer loop
        vertex 4.3200 -0.1000 -1.6800
        vertex 3.2000 -0.1000 -3.0000
        vertex 3.2000 -0.1000 -3.6000
    endloop
endfacet
facet normal 0.0000 -19.2000 0.0000
    outer loop
        vertex 3.2000 -0.1000 -3.6000
        vertex 4.8000 -0.1000 -3.6000
        vertex 4.3200 -0.1000 -1.6800
    endloop
endfacet
facet normal 0.0000 -8.0000 0.0000
    outer loop
        vertex 4.8000 -0.1000 -3.6000
        vertex 3.2000 -0.1000 -3.6000
        vertex 4.0000 -0.1000 -4.4000
    endloop
endfacet
facet normal 0.0000 -17.7000 0.0000
    outer loop
        vertex 0.1600 -0.1000 -2.8400
        vertex 2.5600 -0.1000 -4.2400
        vertex 2.8000 -0.1000 -3.2000
    endloop
endfacet
facet normal 0.0000 -24.0000 0.0000
    outer loop
        vertex 2.5600 -0.1000 -4.2400
        vertex 0.1600 -0.1000 -2.8400
        vertex 2.5600 -0.1000 -5.8400
    endloop
endfacet
facet normal 0.0000 -8.0000 0.0000
    outer loop
        vertex 2.5600 -0.1000 -5.8400
        vertex 3.3600 -0.1000 -5.0400
        vertex 2.5600 -0.1000 -4.2400
    endloop
endfacet
facet normal 0.0000 -19.0500 0.0000
    outer loop
        vertex 0.1600 -0.1000 -2.8400
        vertex 3.0800 -0.1000 -7.7600
        vertex 2.5600 -0.1000 -5.8400
    endloop
endfacet
facet normal 0.0000 -5.6000 0.0000
    outer loop
        vertex 2.5600 -0.1000 -5.8400
        vertex 3.0800 -0.1000 -7.7600
        vertex 3.2000 -0.1000 -6.4800
    endloop
endfacet
facet normal 0.0000 -8.0000 0.0000
    outer loop
        vertex 4.0000 -0.1000 -5.6800
        vertex 3.2000 -0.1000 -6.4800
        vertex 4.8000 -0.1000 -6.4800
    endloop
endfacet
facet normal 0.0000 -36.9600 0.0000
    outer loop
        vertex -1.2000 -0.1000 5.2800
        vertex -2.8800 -0.1000 0.2400
        vertex -1.7200 -0.1000 0.2000
    endloop
endfacet
facet normal 0.0000 -58.7500 0.0000
    outer loop
        vertex -2.8800 -0.1000 0.2400
        vertex -5.8800 -0.1000 -7.7600
        vertex -1.7200 -0.1000 0.2000
    endloop
endfacet
facet normal 0.0000 -148.5000 0.0000
    outer loop
        vertex -5.8800 -0.1000 -7.7600
        vertex -2.8800 -0.1000 0.2400
        vertex -4.5600 -0.1000 3.6800
    endloop
endfacet
facet normal 0.0000 -32.0100 0.0000
    outer loop
        vertex -4.5600 -0.1000 3.6800
        vertex -5.0400 -0.1000 3.4000
        vertex -5.8800 -0.1000 -7.7600
    endloop
endfacet
facet normal 0.0000 -31.8900 0.0000
    outer loop
        vertex -5.4400 -0.1000 4.1600
        vertex -5.8800 -0.1000 -7.7600
        vertex -5.0400 -0.1000 3.4000
    endloop
endfacet
endsolid GiantLegoRocks
