solid GiantLegoRocks
facet normal 0.0000 0.7500 0.0000
    outer loop
        vertex 6.2000 0.0000 11.4000
        vertex 6.2000 0.0000 -11.4000
        vertex -6.2000 0.0000 -11.4000
    endloop
endfacet
facet normal 0.0000 0.7500 0.0000
    outer loop
        vertex -6.2000 0.0000 -11.4000
        vertex -6.2000 0.0000 11.4000
        vertex 6.2000 0.0000 11.4000
    endloop
endfacet
facet normal 0.0000 -0.2500 57.0000
    outer loop
        vertex -6.2000 -0.1000 11.4000
        vertex 6.2000 -0.1000 11.4000
        vertex 6.2000 0.0000 11.4000
    endloop
endfacet
facet normal 0.0000 -0.2500 57.0000
    outer loop
        vertex 6.2000 0.0000 11.4000
        vertex -6.2000 0.0000 11.4000
        vertex -6.2000 -0.1000 11.4000
    endloop
endfacet
facet normal -31.0000 -0.2500 0.0000
    outer loop
        vertex -6.2000 -0.1000 -11.4000
        vertex -6.2000 -0.1000 11.4000
        vertex -6.2000 0.0000 11.4000
    endloop
endfacet
facet normal -31.0000 -0.2500 0.0000
    outer loop
        vertex -6.2000 0.0000 11.4000
        vertex -6.2000 0.0000 -11.4000
        vertex -6.2000 -0.1000 -11.4000
    endloop
endfacet
facet normal 0.0000 -0.2500 -57.0000
    outer loop
        vertex 6.2000 -0.1000 -11.4000
        vertex -6.2000 -0.1000 -11.4000
        vertex -6.2000 0.0000 -11.4000
    endloop
endfacet
facet normal 0.0000 -0.2500 -57.0000
    outer loop
        vertex -6.2000 0.0000 -11.4000
        vertex 6.2000 0.0000 -11.4000
        vertex 6.2000 -0.1000 -11.4000
    endloop
endfacet
facet normal 31.0000 -0.2500 0.0000
    outer loop
        vertex 6.2000 -0.1000 11.4000
        vertex 6.2000 -0.1000 -11.4000
        vertex 6.2000 0.0000 -11.4000
    endloop
endfacet
facet normal 31.0000 -0.2500 0.0000
    outer loop
        vertex 6.2000 0.0000 -11.4000
        vertex 6.2000 0.0000 11.4000
        vertex 6.2000 -0.1000 11.4000
    endloop
endfacet
facet normal 0.0000 -1767.0000 0.0000
    outer loop
        vertex 6.2000 -0.1000 11.4000
        vertex -6.2000 -0.1000 11.4000
        vertex -6.2000 -0.1000 -11.4000
    endloop
endfacet
facet normal 0.0000 -1767.0000 0.0000
    outer loop
        vertex -6.2000 -0.1000 -11.4000
        vertex 6.2000 -0.1000 -11.4000
        vertex 6.2000 -0.1000 11.4000
    endloop
endfacet
endsolid GiantLegoRocks
