solid GiantLegoRocks
facet normal 2.6792 10.0872 34.4284
    outer loop
        vertex 3.1004 -24.9964 6.4276
        vertex 0.0000 -24.9546 6.6566
        vertex 0.0000 -26.7314 7.1772
    endloop
endfacet
facet normal 1.0631 5.1382 25.5383
    outer loop
        vertex 0.0000 -26.7314 7.1772
        vertex 0.0000 -30.7674 7.9892
        vertex 1.0124 -30.7620 7.9460
    endloop
endfacet
facet normal 10.5471 19.6405 89.0817
    outer loop
        vertex 0.0000 -26.7314 7.1772
        vertex 1.0124 -30.7620 7.9460
        vertex 3.1004 -24.9964 6.4276
    endloop
endfacet
facet normal 13.0687 -0.0940 31.8926
    outer loop
        vertex 6.8572 -28.7016 2.1112
        vertex 10.2764 -27.3812 0.7140
        vertex 10.2764 -25.8888 0.7184
    endloop
endfacet
facet normal 34.2421 -1.0058 82.0301
    outer loop
        vertex 10.2764 -25.8888 0.7184
        vertex 7.1220 -24.6452 2.0504
        vertex 6.8572 -28.7016 2.1112
    endloop
endfacet
facet normal 11.3625 -30.6446 -1.1540
    outer loop
        vertex 10.2764 -27.3272 -0.7200
        vertex 10.2764 -27.3812 0.7140
        vertex 6.8572 -28.7016 2.1112
    endloop
endfacet
facet normal 21.3815 0.1169 -48.1273
    outer loop
        vertex 7.9976 -25.0208 -1.7268
        vertex 10.2764 -27.3272 -0.7200
        vertex 7.9700 -28.3720 -1.7472
    endloop
endfacet
facet normal 8.8112 20.8054 -0.8261
    outer loop
        vertex 10.2764 -25.9468 -0.7424
        vertex 7.9976 -25.0208 -1.7268
        vertex 10.2764 -25.8888 0.7184
    endloop
endfacet
facet normal 8.3633 -0.3190 -19.6603
    outer loop
        vertex 10.2764 -25.9468 -0.7424
        vertex 10.2764 -27.3272 -0.7200
        vertex 7.9976 -25.0208 -1.7268
    endloop
endfacet
facet normal 0.4976 1.6396 18.9245
    outer loop
        vertex 1.4020 -32.6744 8.1176
        vertex 0.0000 -30.7674 7.9892
        vertex 0.0000 -32.9272 8.1764
    endloop
endfacet
facet normal 0.5110 1.1911 12.1140
    outer loop
        vertex 0.0000 -30.7674 7.9892
        vertex 1.4020 -32.6744 8.1176
        vertex 1.0124 -30.7620 7.9460
    endloop
endfacet
facet normal 1.1621 -4.2776 27.3598
    outer loop
        vertex 0.0000 -38.4972 6.7970
        vertex 0.0000 -40.6570 6.4594
        vertex 2.0268 -40.4656 6.4032
    endloop
endfacet
facet normal 0.5833 4.4363 13.1520
    outer loop
        vertex 1.7808 -15.7720 4.9564
        vertex 1.7000 -14.5364 4.5432
        vertex 0.0000 -14.5835 4.6345
    endloop
endfacet
facet normal 0.6676 4.8291 14.1360
    outer loop
        vertex 0.0000 -14.5835 4.6345
        vertex 0.0000 -15.8536 5.0684
        vertex 1.7808 -15.7720 4.9564
    endloop
endfacet
facet normal 68.7304 11.9893 -8.7891
    outer loop
        vertex 3.4264 -9.1956 -1.8912
        vertex 3.7132 -9.1856 0.3652
        vertex 4.5872 -14.0584 0.5528
    endloop
endfacet
facet normal 28.0909 7.3115 -3.6029
    outer loop
        vertex 3.0138 -7.2000 -1.0587
        vertex 3.7132 -9.1856 0.3652
        vertex 3.4264 -9.1956 -1.8912
    endloop
endfacet
facet normal 8.3606 2.1760 -1.0721
    outer loop
        vertex 3.4264 -9.1956 -1.8912
        vertex 2.9278 -7.2000 -1.7290
        vertex 3.0138 -7.2000 -1.0587
    endloop
endfacet
facet normal 99.2373 23.2546 -0.8642
    outer loop
        vertex 3.4264 -9.1956 -1.8912
        vertex 4.5872 -14.0584 0.5528
        vertex 4.5580 -14.0552 -2.7140
    endloop
endfacet
facet normal 0.2046 -5.5513 15.3102
    outer loop
        vertex 1.8420 -37.6012 6.6552
        vertex 0.0000 -35.6002 7.4054
        vertex 0.0000 -36.9301 6.9232
    endloop
endfacet
facet normal 3.9505 -2.7373 34.0113
    outer loop
        vertex 0.0000 -38.4972 6.7970
        vertex 2.0268 -40.4656 6.4032
        vertex 1.8420 -37.6012 6.6552
    endloop
endfacet
facet normal 2.0955 -1.4520 18.0415
    outer loop
        vertex 1.8420 -37.6012 6.6552
        vertex 0.0000 -36.9301 6.9232
        vertex 0.0000 -38.4972 6.7970
    endloop
endfacet
facet normal 0.2422 -0.4048 7.3612
    outer loop
        vertex 0.0000 -41.1677 6.4313
        vertex 1.3372 -41.2856 6.3808
        vertex 2.0268 -40.4656 6.4032
    endloop
endfacet
facet normal 0.2128 -0.3557 6.4690
    outer loop
        vertex 2.0268 -40.4656 6.4032
        vertex 0.0000 -40.6570 6.4594
        vertex 0.0000 -41.1677 6.4313
    endloop
endfacet
facet normal 26.2314 67.1781 -0.5994
    outer loop
        vertex 10.2764 -25.8888 0.7184
        vertex 7.9976 -25.0208 -1.7268
        vertex 7.1220 -24.6452 2.0504
    endloop
endfacet
facet normal 164.2511 83.3237 2.4351
    outer loop
        vertex 6.3336 -17.3944 -3.0940
        vertex 4.5872 -14.0584 0.5528
        vertex 7.5932 -20.0236 1.9096
    endloop
endfacet
facet normal 4.8102 -14.7729 51.2170
    outer loop
        vertex 0.0000 -35.6002 7.4054
        vertex 1.8420 -37.6012 6.6552
        vertex 1.4020 -32.6744 8.1176
    endloop
endfacet
facet normal 2.1997 -6.7559 23.4225
    outer loop
        vertex 1.4020 -32.6744 8.1176
        vertex 0.0000 -32.9272 8.1764
        vertex 0.0000 -35.6002 7.4054
    endloop
endfacet
facet normal -3.2622 -44.2594 36.9934
    outer loop
        vertex 0.0000 -45.4916 1.2307
        vertex 1.4168 -45.4616 1.3916
        vertex 1.3372 -41.2856 6.3808
    endloop
endfacet
facet normal -2.4673 -43.4637 36.1372
    outer loop
        vertex 1.3372 -41.2856 6.3808
        vertex 0.0000 -41.1677 6.4313
        vertex 0.0000 -45.4916 1.2307
    endloop
endfacet
facet normal 0.6980 -13.4194 0.2787
    outer loop
        vertex 0.0000 -45.4916 1.2307
        vertex 0.0000 -45.5700 -2.5441
        vertex 0.5688 -45.5420 -2.6184
    endloop
endfacet
facet normal 0.6720 -34.6559 0.5527
    outer loop
        vertex 0.0000 -45.4916 1.2307
        vertex 0.5688 -45.5420 -2.6184
        vertex 1.4168 -45.4616 1.3916
    endloop
endfacet
facet normal 8.9326 -48.4317 -0.9179
    outer loop
        vertex 1.4168 -45.4616 1.3916
        vertex 0.5688 -45.5420 -2.6184
        vertex 3.0580 -45.1328 0.0144
    endloop
endfacet
facet normal -0.1244 -16.8338 -12.3444
    outer loop
        vertex 0.0000 -45.5700 -2.5441
        vertex 0.0000 -42.9767 -6.0806
        vertex 0.7616 -42.9848 -6.0772
    endloop
endfacet
facet normal -0.5817 -12.2065 -9.0571
    outer loop
        vertex 0.0000 -45.5700 -2.5441
        vertex 0.7616 -42.9848 -6.0772
        vertex 0.5688 -45.5420 -2.6184
    endloop
endfacet
facet normal 15.6589 2.6934 -3.9360
    outer loop
        vertex 3.0138 -7.2000 -1.0587
        vertex 3.3309 -7.2000 0.2031
        vertex 3.7132 -9.1856 0.3652
    endloop
endfacet
facet normal -0.0886 11.9269 5.0565
    outer loop
        vertex 0.0000 -19.7416 8.1576
        vertex 0.6408 -19.7368 8.1576
        vertex 2.0208 -18.4640 5.1796
    endloop
endfacet
facet normal 0.1866 35.8379 15.5011
    outer loop
        vertex 2.0208 -18.4640 5.1796
        vertex 0.0000 -18.5142 5.3201
        vertex 0.0000 -19.7416 8.1576
    endloop
endfacet
facet normal -0.0028 -7.9204 3.9684
    outer loop
        vertex 0.0000 -21.0614 8.1568
        vertex 1.7492 -22.2032 5.8792
        vertex 0.5564 -21.0616 8.1568
    endloop
endfacet
facet normal 58.2192 1.3493 29.8136
    outer loop
        vertex 1.7492 -22.2032 5.8792
        vertex 2.0208 -18.4640 5.1796
        vertex 0.5564 -21.0616 8.1568
    endloop
endfacet
facet normal 24.6642 -1.5778 10.7550
    outer loop
        vertex 0.6408 -19.7368 8.1576
        vertex 0.5564 -21.0616 8.1568
        vertex 2.0208 -18.4640 5.1796
    endloop
endfacet
facet normal 0.7763 -23.4585 12.3563
    outer loop
        vertex 1.7492 -22.2032 5.8792
        vertex 0.0000 -21.0614 8.1568
        vertex 0.0000 -22.1916 6.0110
    endloop
endfacet
facet normal 27.3114 -62.7630 2.5154
    outer loop
        vertex 10.2764 -27.3272 -0.7200
        vertex 6.8572 -28.7016 2.1112
        vertex 7.9700 -28.3720 -1.7472
    endloop
endfacet
facet normal 0.0000 -0.0032 5.2860
    outer loop
        vertex 0.6408 -19.7368 8.1576
        vertex 0.0000 -19.7416 8.1576
        vertex 0.0000 -21.0614 8.1568
    endloop
endfacet
facet normal -0.0000 -0.0028 4.6071
    outer loop
        vertex 0.0000 -21.0614 8.1568
        vertex 0.5564 -21.0616 8.1568
        vertex 0.6408 -19.7368 8.1576
    endloop
endfacet
facet normal 12.6112 0.0000 0.0000
    outer loop
        vertex 10.2764 -27.3272 -0.7200
        vertex 10.2764 -25.9468 -0.7424
        vertex 10.2764 -25.8888 0.7184
    endloop
endfacet
facet normal 13.3771 0.0000 0.0000
    outer loop
        vertex 10.2764 -25.8888 0.7184
        vertex 10.2764 -27.3812 0.7140
        vertex 10.2764 -27.3272 -0.7200
    endloop
endfacet
facet normal 0.8207 -96.9859 -26.1539
    outer loop
        vertex 0.6581 -39.4493 -8.8619
        vertex -0.0015 -39.4493 -8.8617
        vertex -0.0015 -38.1395 -8.8611
    endloop
endfacet
facet normal 0.8207 -96.9859 -26.1539
    outer loop
        vertex -0.0015 -38.1395 -8.8611
        vertex 0.6581 -38.1395 -8.8613
        vertex 0.6581 -39.4493 -8.8619
    endloop
endfacet
facet normal 93.1110 -17.2458 -117.8744
    outer loop
        vertex 2.5788 -41.1508 -6.0796
        vertex 2.6212 -35.2844 -6.9044
        vertex 5.8004 -40.2240 -3.6704
    endloop
endfacet
facet normal 181.2814 -12.2775 -196.9622
    outer loop
        vertex 5.8004 -40.2240 -3.6704
        vertex 2.6212 -35.2844 -6.9044
        vertex 8.4164 -34.3760 -1.6272
    endloop
endfacet
facet normal 127.3553 -35.7201 -133.7075
    outer loop
        vertex 8.4164 -34.3760 -1.6272
        vertex 2.6212 -35.2844 -6.9044
        vertex 8.1412 -30.7276 -2.8640
    endloop
endfacet
facet normal 60.2171 -15.1626 -65.1681
    outer loop
        vertex 2.6212 -35.2844 -6.9044
        vertex 2.6380 -33.3816 -7.3316
        vertex 8.1412 -30.7276 -2.8640
    endloop
endfacet
facet normal 74.6923 -29.2615 -74.6232
    outer loop
        vertex 2.6380 -33.3816 -7.3316
        vertex 6.6748 -29.2652 -4.9052
        vertex 8.1412 -30.7276 -2.8640
    endloop
endfacet
facet normal 202.1931 29.2005 -123.1436
    outer loop
        vertex 4.6192 -20.9660 -6.3124
        vertex 7.9976 -25.0208 -1.7268
        vertex 6.6748 -29.2652 -4.9052
    endloop
endfacet
facet normal 66.0304 -0.3796 -26.9739
    outer loop
        vertex 7.9976 -25.0208 -1.7268
        vertex 7.9700 -28.3720 -1.7472
        vertex 6.6748 -29.2652 -4.9052
    endloop
endfacet
facet normal 40.2591 12.4196 -20.0243
    outer loop
        vertex 8.1412 -30.7276 -2.8640
        vertex 6.6748 -29.2652 -4.9052
        vertex 7.9700 -28.3720 -1.7472
    endloop
endfacet
facet normal 118.5521 85.9451 115.2063
    outer loop
        vertex 7.5932 -20.0236 1.9096
        vertex 4.5872 -14.0584 0.5528
        vertex 4.1552 -19.3332 4.9324
    endloop
endfacet
facet normal 29.5814 9.4713 22.5378
    outer loop
        vertex 1.7000 -14.5364 4.5432
        vertex 1.7808 -15.7720 4.9564
        vertex 4.5872 -14.0584 0.5528
    endloop
endfacet
facet normal 98.2702 64.9285 87.8933
    outer loop
        vertex 4.5872 -14.0584 0.5528
        vertex 1.7808 -15.7720 4.9564
        vertex 4.1552 -19.3332 4.9324
    endloop
endfacet
facet normal 83.0431 17.3020 62.1738
    outer loop
        vertex 3.7132 -9.1856 0.3652
        vertex 1.8768 -9.1252 2.8012
        vertex 1.7000 -14.5364 4.5432
    endloop
endfacet
facet normal 120.9672 25.1828 90.5408
    outer loop
        vertex 1.7000 -14.5364 4.5432
        vertex 4.5872 -14.0584 0.5528
        vertex 3.7132 -9.1856 0.3652
    endloop
endfacet
facet normal 29.4920 7.0246 22.0586
    outer loop
        vertex 1.7765 -7.2000 2.3222
        vertex 1.8768 -9.1252 2.8012
        vertex 3.7132 -9.1856 0.3652
    endloop
endfacet
facet normal 26.2988 6.6382 19.2906
    outer loop
        vertex 3.7132 -9.1856 0.3652
        vertex 3.3309 -7.2000 0.2031
        vertex 1.7765 -7.2000 2.3222
    endloop
endfacet
facet normal 4.7000 20.2851 63.4891
    outer loop
        vertex 0.0000 -9.1110 2.9356
        vertex 1.7000 -14.5364 4.5432
        vertex 1.8768 -9.1252 2.8012
    endloop
endfacet
facet normal 2.6222 18.0506 58.1451
    outer loop
        vertex 1.7000 -14.5364 4.5432
        vertex 0.0000 -9.1110 2.9356
        vertex 0.0000 -14.5835 4.6345
    endloop
endfacet
facet normal 0.0181 0.0573 0.2331
    outer loop
        vertex 0.8000 -7.2000 2.3966
        vertex 0.4938 -7.2609 2.4352
        vertex 0.2343 -7.4343 2.4980
    endloop
endfacet
facet normal 0.6275 2.1130 8.3835
    outer loop
        vertex 0.2343 -7.4343 2.4980
        vertex 1.8768 -9.1252 2.8012
        vertex 0.8000 -7.2000 2.3966
    endloop
endfacet
facet normal 0.0311 0.1060 0.4227
    outer loop
        vertex 0.0609 -7.6938 2.5758
        vertex 0.0000 -8.0000 2.6570
        vertex 0.0000 -9.1110 2.9356
    endloop
endfacet
facet normal 1.2223 4.1693 16.6287
    outer loop
        vertex 0.0000 -9.1110 2.9356
        vertex 1.8768 -9.1252 2.8012
        vertex 0.0609 -7.6938 2.5758
    endloop
endfacet
facet normal 0.3308 1.1278 4.4970
    outer loop
        vertex 1.8768 -9.1252 2.8012
        vertex 0.2343 -7.4343 2.4980
        vertex 0.0609 -7.6938 2.5758
    endloop
endfacet
facet normal 0.8943 2.9697 11.7495
    outer loop
        vertex 1.7765 -7.2000 2.3222
        vertex 0.8000 -7.2000 2.3966
        vertex 1.8768 -9.1252 2.8012
    endloop
endfacet
facet normal 0.1568 8.5200 -32.6062
    outer loop
        vertex 0.0000 -14.2860 -5.0656
        vertex 0.0000 -9.2131 -3.7401
        vertex 1.0284 -9.2348 -3.7408
    endloop
endfacet
facet normal 3.9546 13.5762 -54.8319
    outer loop
        vertex 0.0000 -14.2860 -5.0656
        vertex 1.0284 -9.2348 -3.7408
        vertex 1.7396 -14.2724 -4.9368
    endloop
endfacet
facet normal 0.0395 2.1967 -9.7734
    outer loop
        vertex 0.0609 -7.6938 -3.3984
        vertex 1.0284 -9.2348 -3.7408
        vertex 0.0000 -9.2131 -3.7401
    endloop
endfacet
facet normal 0.0017 0.1038 -0.4616
    outer loop
        vertex 0.0000 -9.2131 -3.7401
        vertex 0.0000 -8.0000 -3.4674
        vertex 0.0609 -7.6938 -3.3984
    endloop
endfacet
facet normal 0.0264 1.4838 -6.6019
    outer loop
        vertex 1.0125 -7.2000 -3.2835
        vertex 1.0284 -9.2348 -3.7408
        vertex 0.4938 -7.2609 -3.2993
    endloop
endfacet
facet normal 0.0003 0.0182 -0.0808
    outer loop
        vertex 0.4938 -7.2609 -3.2993
        vertex 0.8000 -7.2000 -3.2844
        vertex 1.0125 -7.2000 -3.2835
    endloop
endfacet
facet normal 0.0009 0.0524 -0.2329
    outer loop
        vertex 0.0609 -7.6938 -3.3984
        vertex 0.2343 -7.4343 -3.3393
        vertex 0.4938 -7.2609 -3.2993
    endloop
endfacet
facet normal 0.0276 1.5258 -6.7879
    outer loop
        vertex 0.4938 -7.2609 -3.2993
        vertex 1.0284 -9.2348 -3.7408
        vertex 0.0609 -7.6938 -3.3984
    endloop
endfacet
facet normal 19.3883 6.7853 -23.8888
    outer loop
        vertex 1.0125 -7.2000 -3.2835
        vertex 2.9278 -7.2000 -1.7290
        vertex 3.4264 -9.1956 -1.8912
    endloop
endfacet
facet normal 23.4103 7.0375 -30.5005
    outer loop
        vertex 1.0125 -7.2000 -3.2835
        vertex 3.4264 -9.1956 -1.8912
        vertex 1.0284 -9.2348 -3.7408
    endloop
endfacet
facet normal 183.9244 18.8218 -118.8615
    outer loop
        vertex 4.6192 -20.9660 -6.3124
        vertex 6.3336 -17.3944 -3.0940
        vertex 7.9976 -25.0208 -1.7268
    endloop
endfacet
facet normal 216.0301 41.2742 -32.6952
    outer loop
        vertex 6.3336 -17.3944 -3.0940
        vertex 7.5932 -20.0236 1.9096
        vertex 7.9976 -25.0208 -1.7268
    endloop
endfacet
facet normal 80.0478 -9.9167 -116.3518
    outer loop
        vertex 2.6380 -33.3816 -7.3316
        vertex 1.3780 -30.0548 -8.4820
        vertex 6.6748 -29.2652 -4.9052
    endloop
endfacet
facet normal 64.0399 12.5625 -148.2966
    outer loop
        vertex 2.3572 -19.9884 -7.2064
        vertex 4.6192 -20.9660 -6.3124
        vertex 1.3780 -30.0548 -8.4820
    endloop
endfacet
facet normal 192.4731 -0.6324 -284.8894
    outer loop
        vertex 6.6748 -29.2652 -4.9052
        vertex 1.3780 -30.0548 -8.4820
        vertex 4.6192 -20.9660 -6.3124
    endloop
endfacet
facet normal 68.1857 36.3227 -0.5739
    outer loop
        vertex 6.3336 -17.3944 -3.0940
        vertex 4.5580 -14.0552 -2.7140
        vertex 4.5872 -14.0584 0.5528
    endloop
endfacet
facet normal 76.3285 48.5590 -101.5257
    outer loop
        vertex 1.7396 -14.2724 -4.9368
        vertex 4.5580 -14.0552 -2.7140
        vertex 2.3572 -19.9884 -7.2064
    endloop
endfacet
facet normal 79.6650 55.0813 -111.7744
    outer loop
        vertex 4.5580 -14.0552 -2.7140
        vertex 6.3336 -17.3944 -3.0940
        vertex 2.3572 -19.9884 -7.2064
    endloop
endfacet
facet normal 39.6207 35.9209 -60.9685
    outer loop
        vertex 2.3572 -19.9884 -7.2064
        vertex 6.3336 -17.3944 -3.0940
        vertex 4.6192 -20.9660 -6.3124
    endloop
endfacet
facet normal 57.9416 26.1465 -75.6753
    outer loop
        vertex 1.7396 -14.2724 -4.9368
        vertex 1.0284 -9.2348 -3.7408
        vertex 3.4264 -9.1956 -1.8912
    endloop
endfacet
facet normal 66.3950 30.2144 -87.1380
    outer loop
        vertex 3.4264 -9.1956 -1.8912
        vertex 4.5580 -14.0552 -2.7140
        vertex 1.7396 -14.2724 -4.9368
    endloop
endfacet
facet normal 6.0385 33.7610 -83.3840
    outer loop
        vertex 1.7396 -14.2724 -4.9368
        vertex 2.3572 -19.9884 -7.2064
        vertex 0.0000 -19.7742 -7.2904
    endloop
endfacet
facet normal 4.2297 24.1883 -59.6696
    outer loop
        vertex 0.0000 -19.7742 -7.2904
        vertex 0.0000 -14.2860 -5.0656
        vertex 1.7396 -14.2724 -4.9368
    endloop
endfacet
facet normal 2.4120 8.0968 -63.9668
    outer loop
        vertex 1.3780 -30.0548 -8.4820
        vertex 0.0000 -29.8017 -8.5019
        vertex 0.0000 -22.3745 -7.5618
    endloop
endfacet
facet normal 3.3370 16.6177 -133.7004
    outer loop
        vertex 0.0000 -22.3745 -7.5618
        vertex 2.3572 -19.9884 -7.2064
        vertex 1.3780 -30.0548 -8.4820
    endloop
endfacet
facet normal 1.7280 3.9990 -38.3092
    outer loop
        vertex 2.3572 -19.9884 -7.2064
        vertex 0.0000 -22.3745 -7.5618
        vertex 0.0000 -19.7742 -7.2904
    endloop
endfacet
facet normal 0.0735 -7.0731 -31.5016
    outer loop
        vertex 0.0000 -32.1513 -7.6140
        vertex 2.6380 -33.3816 -7.3316
        vertex 2.6212 -35.2844 -6.9044
    endloop
endfacet
facet normal -0.0471 -11.1381 -49.0046
    outer loop
        vertex 2.6212 -35.2844 -6.9044
        vertex 0.0000 -35.1426 -6.9341
        vertex 0.0000 -32.1513 -7.6140
    endloop
endfacet
facet normal -1.1122 -7.6472 -20.2359
    outer loop
        vertex 0.0000 -32.1513 -7.6140
        vertex 0.0000 -29.8017 -8.5019
        vertex 1.3780 -30.0548 -8.4820
    endloop
endfacet
facet normal -2.9742 -16.7433 -45.1618
    outer loop
        vertex 0.0000 -32.1513 -7.6140
        vertex 1.3780 -30.0548 -8.4820
        vertex 2.6380 -33.3816 -7.3316
    endloop
endfacet
facet normal -0.0014 -10.2724 -4.7361
    outer loop
        vertex 0.0000 -40.5988 -6.3700
        vertex 0.0000 -39.4500 -8.8618
        vertex 0.6596 -39.4500 -8.8620
    endloop
endfacet
facet normal 0.5016 -27.2834 -12.4452
    outer loop
        vertex 0.0000 -40.5988 -6.3700
        vertex 0.6596 -39.4500 -8.8620
        vertex 1.7420 -40.5836 -6.3332
    endloop
endfacet
facet normal 53.4052 -2.9112 -24.1640
    outer loop
        vertex 1.7420 -40.5836 -6.3332
        vertex 0.6596 -39.4500 -8.8620
        vertex 1.7656 -37.0364 -6.7084
    endloop
endfacet
facet normal 17.6582 0.0863 -9.1652
    outer loop
        vertex 0.6536 -38.1372 -8.8612
        vertex 1.7656 -37.0364 -6.7084
        vertex 0.6596 -39.4500 -8.8620
    endloop
endfacet
facet normal 0.0568 23.6961 -12.1459
    outer loop
        vertex 0.0000 -37.0366 -6.7170
        vertex 1.7656 -37.0364 -6.7084
        vertex 0.6536 -38.1372 -8.8612
    endloop
endfacet
facet normal -0.0402 8.7589 -4.5082
    outer loop
        vertex 0.6536 -38.1372 -8.8612
        vertex 0.0000 -38.1402 -8.8612
        vertex 0.0000 -37.0366 -6.7170
    endloop
endfacet
facet normal 0.8281 -2.7116 -12.5078
    outer loop
        vertex 2.5788 -41.1508 -6.0796
        vertex 0.0000 -41.3749 -6.2018
        vertex 0.0000 -40.5988 -6.3700
    endloop
endfacet
facet normal 0.1546 -2.5686 -6.2551
    outer loop
        vertex 0.0000 -40.5988 -6.3700
        vertex 1.7420 -40.5836 -6.3332
        vertex 2.5788 -41.1508 -6.0796
    endloop
endfacet
facet normal 0.1517 -3.3699 -29.4606
    outer loop
        vertex 0.0000 -35.1426 -6.9341
        vertex 2.6212 -35.2844 -6.9044
        vertex 1.7656 -37.0364 -6.7084
    endloop
endfacet
facet normal 0.1025 -2.3955 -20.9007
    outer loop
        vertex 1.7656 -37.0364 -6.7084
        vertex 0.0000 -37.0366 -6.7170
        vertex 0.0000 -35.1426 -6.9341
    endloop
endfacet
facet normal 1.8452 -4.3587 -30.9063
    outer loop
        vertex 2.6212 -35.2844 -6.9044
        vertex 2.5788 -41.1508 -6.0796
        vertex 1.7656 -37.0364 -6.7084
    endloop
endfacet
facet normal 4.2922 -1.9997 -18.6355
    outer loop
        vertex 2.5788 -41.1508 -6.0796
        vertex 1.7420 -40.5836 -6.3332
        vertex 1.7656 -37.0364 -6.7084
    endloop
endfacet
facet normal 1.4036 -1.4261 -27.0145
    outer loop
        vertex 0.0000 -41.3749 -6.2018
        vertex 2.5788 -41.1508 -6.0796
        vertex 0.7616 -42.9848 -6.0772
    endloop
endfacet
facet normal 0.3366 -0.3418 -6.4753
    outer loop
        vertex 0.7616 -42.9848 -6.0772
        vertex 0.0000 -42.7352 -6.1300
        vertex 0.0000 -41.3749 -6.2018
    endloop
endfacet
facet normal 0.0026 -0.2350 -1.1493
    outer loop
        vertex 0.7616 -42.9848 -6.0772
        vertex 0.0000 -42.9767 -6.0806
        vertex 0.0000 -42.7352 -6.1300
    endloop
endfacet
facet normal 75.3197 -88.0214 -66.8569
    outer loop
        vertex 5.8004 -40.2240 -3.6704
        vertex 4.5408 -43.9068 -0.2408
        vertex 2.5788 -41.1508 -6.0796
    endloop
endfacet
facet normal 66.8859 -66.3436 -53.7907
    outer loop
        vertex 2.5788 -41.1508 -6.0796
        vertex 4.5408 -43.9068 -0.2408
        vertex 0.7616 -42.9848 -6.0772
    endloop
endfacet
facet normal 43.2508 -60.1167 -37.5028
    outer loop
        vertex 4.5408 -43.9068 -0.2408
        vertex 3.0580 -45.1328 0.0144
        vertex 0.7616 -42.9848 -6.0772
    endloop
endfacet
facet normal 50.9246 -56.9828 -39.2906
    outer loop
        vertex 0.5688 -45.5420 -2.6184
        vertex 0.7616 -42.9848 -6.0772
        vertex 3.0580 -45.1328 0.0144
    endloop
endfacet
facet normal 46.1977 -50.4916 42.9989
    outer loop
        vertex 1.4168 -45.4616 1.3916
        vertex 3.0580 -45.1328 0.0144
        vertex 1.3372 -41.2856 6.3808
    endloop
endfacet
facet normal 54.9188 -56.2559 48.8396
    outer loop
        vertex 3.0580 -45.1328 0.0144
        vertex 4.5408 -43.9068 -0.2408
        vertex 1.3372 -41.2856 6.3808
    endloop
endfacet
facet normal 18.0775 -15.6100 14.9104
    outer loop
        vertex 5.6540 -39.6120 2.8992
        vertex 2.0268 -40.4656 6.4032
        vertex 1.3372 -41.2856 6.3808
    endloop
endfacet
facet normal 126.2992 -108.9404 104.2296
    outer loop
        vertex 1.3372 -41.2856 6.3808
        vertex 4.5408 -43.9068 -0.2408
        vertex 5.6540 -39.6120 2.8992
    endloop
endfacet
facet normal 12.9520 -11.5929 10.5833
    outer loop
        vertex 5.6540 -39.6120 2.8992
        vertex 5.1660 -39.2600 3.8820
        vertex 2.0268 -40.4656 6.4032
    endloop
endfacet
facet normal 232.3036 -109.2825 15.3571
    outer loop
        vertex 8.4164 -34.3760 -1.6272
        vertex 5.6540 -39.6120 2.8992
        vertex 5.8004 -40.2240 -3.6704
    endloop
endfacet
facet normal 164.3340 -48.5811 8.1877
    outer loop
        vertex 4.5408 -43.9068 -0.2408
        vertex 5.8004 -40.2240 -3.6704
        vertex 5.6540 -39.6120 2.8992
    endloop
endfacet
facet normal 71.6668 -9.4090 34.1129
    outer loop
        vertex 6.1956 -30.9492 3.9836
        vertex 5.6032 -32.4928 4.8024
        vertex 8.4164 -34.3760 -1.6272
    endloop
endfacet
facet normal 88.2904 -1.0919 38.9503
    outer loop
        vertex 6.1044 -35.0436 3.5948
        vertex 8.4164 -34.3760 -1.6272
        vertex 5.6032 -32.4928 4.8024
    endloop
endfacet
facet normal 26.5311 -4.8882 14.9245
    outer loop
        vertex 5.1660 -39.2600 3.8820
        vertex 5.6540 -39.6120 2.8992
        vertex 6.1044 -35.0436 3.5948
    endloop
endfacet
facet normal 152.0035 -24.7513 64.1341
    outer loop
        vertex 5.6540 -39.6120 2.8992
        vertex 8.4164 -34.3760 -1.6272
        vertex 6.1044 -35.0436 3.5948
    endloop
endfacet
facet normal 76.0583 -10.2982 97.3246
    outer loop
        vertex 6.1044 -35.0436 3.5948
        vertex 1.8420 -37.6012 6.6552
        vertex 5.1660 -39.2600 3.8820
    endloop
endfacet
facet normal 47.0346 -2.0323 57.5920
    outer loop
        vertex 2.0268 -40.4656 6.4032
        vertex 5.1660 -39.2600 3.8820
        vertex 1.8420 -37.6012 6.6552
    endloop
endfacet
facet normal 117.6138 -30.5422 138.2834
    outer loop
        vertex 1.8420 -37.6012 6.6552
        vertex 6.1044 -35.0436 3.5948
        vertex 1.4020 -32.6744 8.1176
    endloop
endfacet
facet normal 54.2232 -21.3237 67.5465
    outer loop
        vertex 6.1044 -35.0436 3.5948
        vertex 5.6032 -32.4928 4.8024
        vertex 1.4020 -32.6744 8.1176
    endloop
endfacet
facet normal 96.9580 19.0185 105.9319
    outer loop
        vertex 7.5932 -20.0236 1.9096
        vertex 4.1552 -19.3332 4.9324
        vertex 6.1036 -24.6544 4.1044
    endloop
endfacet
facet normal 79.0337 12.7492 104.0436
    outer loop
        vertex 4.1552 -19.3332 4.9324
        vertex 3.1004 -24.9964 6.4276
        vertex 6.1036 -24.6544 4.1044
    endloop
endfacet
facet normal 24.0734 0.8916 31.2510
    outer loop
        vertex 6.1036 -24.6544 4.1044
        vertex 3.1004 -24.9964 6.4276
        vertex 5.9468 -26.3372 4.2732
    endloop
endfacet
facet normal 144.5616 -2.5208 189.2196
    outer loop
        vertex 3.1004 -24.9964 6.4276
        vertex 1.0124 -30.7620 7.9460
        vertex 6.1956 -30.9492 3.9836
    endloop
endfacet
facet normal 59.6737 -1.8019 79.9625
    outer loop
        vertex 6.1956 -30.9492 3.9836
        vertex 5.9468 -26.3372 4.2732
        vertex 3.1004 -24.9964 6.4276
    endloop
endfacet
facet normal 31.0541 9.2251 39.8587
    outer loop
        vertex 1.4020 -32.6744 8.1176
        vertex 5.6032 -32.4928 4.8024
        vertex 6.1956 -30.9492 3.9836
    endloop
endfacet
facet normal 47.5614 15.2074 61.4964
    outer loop
        vertex 6.1956 -30.9492 3.9836
        vertex 1.0124 -30.7620 7.9460
        vertex 1.4020 -32.6744 8.1176
    endloop
endfacet
facet normal 55.7106 -3.2322 26.9940
    outer loop
        vertex 6.8572 -28.7016 2.1112
        vertex 7.1220 -24.6452 2.0504
        vertex 5.9468 -26.3372 4.2732
    endloop
endfacet
facet normal 21.5932 -0.9385 10.7020
    outer loop
        vertex 7.1220 -24.6452 2.0504
        vertex 6.1036 -24.6544 4.1044
        vertex 5.9468 -26.3372 4.2732
    endloop
endfacet
facet normal 58.0401 1.7141 22.5656
    outer loop
        vertex 6.1956 -30.9492 3.9836
        vertex 6.8572 -28.7016 2.1112
        vertex 5.9468 -26.3372 4.2732
    endloop
endfacet
facet normal 59.3217 -5.1528 29.3894
    outer loop
        vertex 6.1036 -24.6544 4.1044
        vertex 7.1220 -24.6452 2.0504
        vertex 7.5932 -20.0236 1.9096
    endloop
endfacet
facet normal 109.4350 -10.3533 26.3978
    outer loop
        vertex 7.1220 -24.6452 2.0504
        vertex 7.9976 -25.0208 -1.7268
        vertex 7.5932 -20.0236 1.9096
    endloop
endfacet
facet normal 154.4294 26.8174 44.7457
    outer loop
        vertex 8.4164 -34.3760 -1.6272
        vertex 8.1412 -30.7276 -2.8640
        vertex 6.1956 -30.9492 3.9836
    endloop
endfacet
facet normal 50.3437 -2.9319 14.2692
    outer loop
        vertex 7.9700 -28.3720 -1.7472
        vertex 6.8572 -28.7016 2.1112
        vertex 6.1956 -30.9492 3.9836
    endloop
endfacet
facet normal 102.3606 -6.2534 28.8812
    outer loop
        vertex 6.1956 -30.9492 3.9836
        vertex 8.1412 -30.7276 -2.8640
        vertex 7.9700 -28.3720 -1.7472
    endloop
endfacet
facet normal 4.1416 12.5609 53.7726
    outer loop
        vertex 0.0000 -24.9546 6.6566
        vertex 3.1004 -24.9964 6.4276
        vertex 1.7492 -22.2032 5.8792
    endloop
endfacet
facet normal 2.3234 7.0580 30.2065
    outer loop
        vertex 1.7492 -22.2032 5.8792
        vertex 0.0000 -22.1916 6.0110
        vertex 0.0000 -24.9546 6.6566
    endloop
endfacet
facet normal 1.7335 2.8016 29.6134
    outer loop
        vertex 1.7808 -15.7720 4.9564
        vertex 0.0000 -15.8536 5.0684
        vertex 0.0000 -18.5142 5.3201
    endloop
endfacet
facet normal 2.2935 3.0297 34.0753
    outer loop
        vertex 0.0000 -18.5142 5.3201
        vertex 2.0208 -18.4640 5.1796
        vertex 1.7808 -15.7720 4.9564
    endloop
endfacet
facet normal 5.3717 3.3483 34.6075
    outer loop
        vertex 1.7808 -15.7720 4.9564
        vertex 2.0208 -18.4640 5.1796
        vertex 4.1552 -19.3332 4.9324
    endloop
endfacet
facet normal 6.6918 16.2423 66.2399
    outer loop
        vertex 3.1004 -24.9964 6.4276
        vertex 4.1552 -19.3332 4.9324
        vertex 1.7492 -22.2032 5.8792
    endloop
endfacet
facet normal 9.5776 8.9130 51.3564
    outer loop
        vertex 1.7492 -22.2032 5.8792
        vertex 4.1552 -19.3332 4.9324
        vertex 2.0208 -18.4640 5.1796
    endloop
endfacet
endsolid GiantLegoRocks
