solid GiantLegoRocks
facet normal 0.0000 0.7500 0.0000
    outer loop
        vertex -64.0000 0.0000 32.0000
        vertex 64.0000 0.0000 32.0000
        vertex 64.0000 0.0000 -32.0000
    endloop
endfacet
facet normal 0.0000 0.7500 0.0000
    outer loop
        vertex 64.0000 0.0000 -32.0000
        vertex -64.0000 0.0000 -32.0000
        vertex -64.0000 0.0000 32.0000
    endloop
endfacet
facet normal -320.0000 -0.2500 0.0000
    outer loop
        vertex -64.0000 -0.1000 -32.0000
        vertex -64.0000 -0.1000 32.0000
        vertex -64.0000 0.0000 32.0000
    endloop
endfacet
facet normal -320.0000 -0.2500 0.0000
    outer loop
        vertex -64.0000 0.0000 32.0000
        vertex -64.0000 0.0000 -32.0000
        vertex -64.0000 -0.1000 -32.0000
    endloop
endfacet
facet normal 0.0000 -0.2500 -160.0000
    outer loop
        vertex 64.0000 -0.1000 -32.0000
        vertex -64.0000 -0.1000 -32.0000
        vertex -64.0000 0.0000 -32.0000
    endloop
endfacet
facet normal 0.0000 -0.2500 -160.0000
    outer loop
        vertex -64.0000 0.0000 -32.0000
        vertex 64.0000 0.0000 -32.0000
        vertex 64.0000 -0.1000 -32.0000
    endloop
endfacet
facet normal 320.0000 -0.2500 0.0000
    outer loop
        vertex 64.0000 -0.1000 32.0000
        vertex 64.0000 -0.1000 -32.0000
        vertex 64.0000 0.0000 -32.0000
    endloop
endfacet
facet normal 320.0000 -0.2500 0.0000
    outer loop
        vertex 64.0000 0.0000 -32.0000
        vertex 64.0000 0.0000 32.0000
        vertex 64.0000 -0.1000 32.0000
    endloop
endfacet
facet normal 0.0000 -0.2500 160.0000
    outer loop
        vertex -64.0000 -0.1000 32.0000
        vertex 64.0000 -0.1000 32.0000
        vertex 64.0000 0.0000 32.0000
    endloop
endfacet
facet normal 0.0000 -0.2500 160.0000
    outer loop
        vertex 64.0000 0.0000 32.0000
        vertex -64.0000 0.0000 32.0000
        vertex -64.0000 -0.1000 32.0000
    endloop
endfacet
facet normal 0.0000 -51200.0000 0.0000
    outer loop
        vertex -64.0000 -0.1000 32.0000
        vertex -64.0000 -0.1000 -32.0000
        vertex 64.0000 -0.1000 -32.0000
    endloop
endfacet
facet normal 0.0000 -51200.0000 0.0000
    outer loop
        vertex 64.0000 -0.1000 -32.0000
        vertex 64.0000 -0.1000 32.0000
        vertex -64.0000 -0.1000 32.0000
    endloop
endfacet
endsolid GiantLegoRocks
