solid GiantLegoRocks
facet normal 0.0000 0.7500 0.0000
    outer loop
        vertex 11.2000 0.0000 3.2000
        vertex 11.2000 0.0000 -3.2000
        vertex -11.2000 0.0000 -3.2000
    endloop
endfacet
facet normal 0.0000 0.7500 0.0000
    outer loop
        vertex -11.2000 0.0000 -3.2000
        vertex -11.2000 0.0000 3.2000
        vertex 11.2000 0.0000 3.2000
    endloop
endfacet
facet normal 0.0000 -0.2500 16.0000
    outer loop
        vertex -11.2000 -0.1000 3.2000
        vertex 11.2000 -0.1000 3.2000
        vertex 11.2000 0.0000 3.2000
    endloop
endfacet
facet normal 0.0000 -0.2500 16.0000
    outer loop
        vertex 11.2000 0.0000 3.2000
        vertex -11.2000 0.0000 3.2000
        vertex -11.2000 -0.1000 3.2000
    endloop
endfacet
facet normal -56.0000 -0.2500 0.0000
    outer loop
        vertex -11.2000 -0.1000 -3.2000
        vertex -11.2000 -0.1000 3.2000
        vertex -11.2000 0.0000 3.2000
    endloop
endfacet
facet normal -56.0000 -0.2500 0.0000
    outer loop
        vertex -11.2000 0.0000 3.2000
        vertex -11.2000 0.0000 -3.2000
        vertex -11.2000 -0.1000 -3.2000
    endloop
endfacet
facet normal 0.0000 -0.2500 -16.0000
    outer loop
        vertex 11.2000 -0.1000 -3.2000
        vertex -11.2000 -0.1000 -3.2000
        vertex -11.2000 0.0000 -3.2000
    endloop
endfacet
facet normal 0.0000 -0.2500 -16.0000
    outer loop
        vertex -11.2000 0.0000 -3.2000
        vertex 11.2000 0.0000 -3.2000
        vertex 11.2000 -0.1000 -3.2000
    endloop
endfacet
facet normal 56.0000 -0.2500 0.0000
    outer loop
        vertex 11.2000 -0.1000 3.2000
        vertex 11.2000 -0.1000 -3.2000
        vertex 11.2000 0.0000 -3.2000
    endloop
endfacet
facet normal 56.0000 -0.2500 0.0000
    outer loop
        vertex 11.2000 0.0000 -3.2000
        vertex 11.2000 0.0000 3.2000
        vertex 11.2000 -0.1000 3.2000
    endloop
endfacet
facet normal 0.0000 -15.7950 0.0000
    outer loop
        vertex -5.9760 -0.1000 -2.0480
        vertex -5.0760 -0.1000 -2.0480
        vertex -4.9040 -0.1000 0.7600
    endloop
endfacet
facet normal 0.0000 -21.7174 0.0000
    outer loop
        vertex -4.9040 -0.1000 0.7600
        vertex -5.6360 -0.1000 2.0840
        vertex -5.9760 -0.1000 -2.0480
    endloop
endfacet
facet normal 0.0000 -12.4249 0.0000
    outer loop
        vertex -4.9040 -0.1000 0.7600
        vertex -3.9760 -0.1000 -2.0040
        vertex -3.7080 -0.1000 -0.6600
    endloop
endfacet
facet normal 0.0000 -5.6704 0.0000
    outer loop
        vertex -3.7080 -0.1000 -0.6600
        vertex -4.1000 -0.1000 0.5640
        vertex -4.9040 -0.1000 0.7600
    endloop
endfacet
facet normal 0.0000 -8.1426 0.0000
    outer loop
        vertex -4.6520 -0.1000 2.0840
        vertex -5.6360 -0.1000 2.0840
        vertex -4.9040 -0.1000 0.7600
    endloop
endfacet
facet normal 0.0000 -6.9618 0.0000
    outer loop
        vertex -4.9040 -0.1000 0.7600
        vertex -4.1000 -0.1000 0.5640
        vertex -4.6520 -0.1000 2.0840
    endloop
endfacet
facet normal 0.0000 -4.4688 0.0000
    outer loop
        vertex -3.7080 -0.1000 -0.6600
        vertex -3.9760 -0.1000 -2.0040
        vertex -3.4440 -0.1000 -2.0040
    endloop
endfacet
facet normal 0.0000 -12.7254 0.0000
    outer loop
        vertex -3.4440 -0.1000 -2.0040
        vertex -2.4720 -0.1000 0.7600
        vertex -3.7080 -0.1000 -0.6600
    endloop
endfacet
facet normal 0.0000 -15.7248 0.0000
    outer loop
        vertex -2.4720 -0.1000 0.7600
        vertex -2.2480 -0.1000 -2.0480
        vertex -1.3520 -0.1000 -2.0480
    endloop
endfacet
facet normal 0.0000 -21.7636 0.0000
    outer loop
        vertex -1.3520 -0.1000 -2.0480
        vertex -1.7600 -0.1000 2.0840
        vertex -2.4720 -0.1000 0.7600
    endloop
endfacet
facet normal 0.0000 -7.1441 0.0000
    outer loop
        vertex -2.4720 -0.1000 0.7600
        vertex -2.7440 -0.1000 2.0840
        vertex -3.3000 -0.1000 0.5880
    endloop
endfacet
facet normal 0.0000 -6.0198 0.0000
    outer loop
        vertex -3.3000 -0.1000 0.5880
        vertex -3.7080 -0.1000 -0.6600
        vertex -2.4720 -0.1000 0.7600
    endloop
endfacet
facet normal 0.0000 -8.1426 0.0000
    outer loop
        vertex -2.7440 -0.1000 2.0840
        vertex -2.4720 -0.1000 0.7600
        vertex -1.7600 -0.1000 2.0840
    endloop
endfacet
facet normal 0.0000 -4.9585 0.0000
    outer loop
        vertex 0.2240 -0.1000 -1.1880
        vertex -0.9520 -0.1000 -2.0320
        vertex -0.0120 -0.1000 -2.0320
    endloop
endfacet
facet normal 0.0000 -6.5360 0.0000
    outer loop
        vertex 0.4400 -0.1000 -0.4280
        vertex 0.2240 -0.1000 -1.1880
        vertex 1.6000 -0.1000 -1.1880
    endloop
endfacet
facet normal 0.0000 -4.5030 0.0000
    outer loop
        vertex 1.6000 -0.1000 -1.1880
        vertex 1.3880 -0.1000 -0.4280
        vertex 0.4400 -0.1000 -0.4280
    endloop
endfacet
facet normal 0.0000 -4.4466 0.0000
    outer loop
        vertex -0.9520 -0.1000 -2.0320
        vertex 0.2240 -0.1000 -1.1880
        vertex 0.4400 -0.1000 -0.4280
    endloop
endfacet
facet normal 0.0000 -22.7956 0.0000
    outer loop
        vertex 0.4400 -0.1000 -0.4280
        vertex 0.3600 -0.1000 2.1000
        vertex -0.9520 -0.1000 -2.0320
    endloop
endfacet
facet normal 0.0000 -8.3776 0.0000
    outer loop
        vertex 0.3600 -0.1000 2.1000
        vertex 0.4400 -0.1000 -0.4280
        vertex 0.9120 -0.1000 1.4120
    endloop
endfacet
facet normal 0.0000 -4.6007 0.0000
    outer loop
        vertex 1.3880 -0.1000 -0.4280
        vertex 1.6000 -0.1000 -1.1880
        vertex 2.8040 -0.1000 -2.0320
    endloop
endfacet
facet normal 0.0000 -23.4154 0.0000
    outer loop
        vertex 2.8040 -0.1000 -2.0320
        vertex 1.4920 -0.1000 2.1000
        vertex 1.3880 -0.1000 -0.4280
    endloop
endfacet
facet normal 0.0000 -5.0851 0.0000
    outer loop
        vertex 1.6000 -0.1000 -1.1880
        vertex 1.8400 -0.1000 -2.0320
        vertex 2.8040 -0.1000 -2.0320
    endloop
endfacet
facet normal 0.0000 -8.7168 0.0000
    outer loop
        vertex 1.4920 -0.1000 2.1000
        vertex 0.9120 -0.1000 1.4120
        vertex 1.3880 -0.1000 -0.4280
    endloop
endfacet
facet normal 0.0000 -4.8676 0.0000
    outer loop
        vertex 1.4920 -0.1000 2.1000
        vertex 0.3600 -0.1000 2.1000
        vertex 0.9120 -0.1000 1.4120
    endloop
endfacet
facet normal 0.0000 -13.1224 0.0000
    outer loop
        vertex 3.6640 -0.1000 1.3120
        vertex 5.5040 -0.1000 2.0640
        vertex 2.7120 -0.1000 2.0640
    endloop
endfacet
facet normal 0.0000 -4.4744 0.0000
    outer loop
        vertex 2.7120 -0.1000 2.0640
        vertex 2.7120 -0.1000 1.3120
        vertex 3.6640 -0.1000 1.3120
    endloop
endfacet
facet normal 0.0000 -18.5982 0.0000
    outer loop
        vertex 3.6640 -0.1000 1.3120
        vertex 3.6640 -0.1000 -2.0240
        vertex 4.5560 -0.1000 -2.0240
    endloop
endfacet
facet normal 0.0000 -18.5982 0.0000
    outer loop
        vertex 4.5560 -0.1000 -2.0240
        vertex 4.5560 -0.1000 1.3120
        vertex 3.6640 -0.1000 1.3120
    endloop
endfacet
facet normal 0.0000 -4.4556 0.0000
    outer loop
        vertex 5.5040 -0.1000 2.0640
        vertex 4.5560 -0.1000 1.3120
        vertex 5.5040 -0.1000 1.3120
    endloop
endfacet
facet normal 0.0000 -4.1924 0.0000
    outer loop
        vertex 5.5040 -0.1000 2.0640
        vertex 3.6640 -0.1000 1.3120
        vertex 4.5560 -0.1000 1.3120
    endloop
endfacet
facet normal 0.0000 -208.9600 0.0000
    outer loop
        vertex -11.2000 -0.1000 3.2000
        vertex -11.2000 -0.1000 -3.2000
        vertex -5.9760 -0.1000 -2.0480
    endloop
endfacet
facet normal 0.0000 -146.0618 0.0000
    outer loop
        vertex -5.9760 -0.1000 -2.0480
        vertex -5.6360 -0.1000 2.0840
        vertex -11.2000 -0.1000 3.2000
    endloop
endfacet
facet normal 0.0000 -6.4800 0.0000
    outer loop
        vertex -5.9760 -0.1000 -2.0480
        vertex -11.2000 -0.1000 -3.2000
        vertex -5.0760 -0.1000 -2.0480
    endloop
endfacet
facet normal 0.0000 -6.2359 0.0000
    outer loop
        vertex -3.9760 -0.1000 -2.0040
        vertex -5.0760 -0.1000 -2.0480
        vertex -11.2000 -0.1000 -3.2000
    endloop
endfacet
facet normal 0.0000 -3.9767 0.0000
    outer loop
        vertex -11.2000 -0.1000 -3.2000
        vertex -3.4440 -0.1000 -2.0040
        vertex -3.9760 -0.1000 -2.0040
    endloop
endfacet
facet normal 0.0000 -19.2577 0.0000
    outer loop
        vertex -4.9040 -0.1000 0.7600
        vertex -5.0760 -0.1000 -2.0480
        vertex -3.9760 -0.1000 -2.0040
    endloop
endfacet
facet normal 0.0000 -20.9282 0.0000
    outer loop
        vertex -2.4720 -0.1000 0.7600
        vertex -3.4440 -0.1000 -2.0040
        vertex -2.2480 -0.1000 -2.0480
    endloop
endfacet
facet normal 0.0000 -6.4512 0.0000
    outer loop
        vertex -1.3520 -0.1000 -2.0480
        vertex -2.2480 -0.1000 -2.0480
        vertex -11.2000 -0.1000 -3.2000
    endloop
endfacet
facet normal 0.0000 -11.0730 0.0000
    outer loop
        vertex -3.4440 -0.1000 -2.0040
        vertex -11.2000 -0.1000 -3.2000
        vertex -2.2480 -0.1000 -2.0480
    endloop
endfacet
facet normal 0.0000 -1.8952 0.0000
    outer loop
        vertex -0.9520 -0.1000 -2.0320
        vertex -1.3520 -0.1000 -2.0480
        vertex -11.2000 -0.1000 -3.2000
    endloop
endfacet
facet normal 0.0000 -6.8620 0.0000
    outer loop
        vertex -11.2000 -0.1000 -3.2000
        vertex -0.0120 -0.1000 -2.0320
        vertex -0.9520 -0.1000 -2.0320
    endloop
endfacet
facet normal 0.0000 -10.3708 0.0000
    outer loop
        vertex -1.7600 -0.1000 2.0840
        vertex -1.3520 -0.1000 -2.0480
        vertex -0.9520 -0.1000 -2.0320
    endloop
endfacet
facet normal 0.0000 -54.6178 0.0000
    outer loop
        vertex -0.9520 -0.1000 -2.0320
        vertex 0.3600 -0.1000 2.1000
        vertex -1.7600 -0.1000 2.0840
    endloop
endfacet
facet normal 0.0000 -25.0449 0.0000
    outer loop
        vertex 2.7120 -0.1000 1.3120
        vertex 1.4920 -0.1000 2.1000
        vertex 2.8040 -0.1000 -2.0320
    endloop
endfacet
facet normal 0.0000 -17.9786 0.0000
    outer loop
        vertex 2.8040 -0.1000 -2.0320
        vertex 3.6640 -0.1000 -2.0240
        vertex 2.7120 -0.1000 1.3120
    endloop
endfacet
facet normal 0.0000 -9.7693 0.0000
    outer loop
        vertex -0.0120 -0.1000 -2.0320
        vertex 1.8400 -0.1000 -2.0320
        vertex 1.6000 -0.1000 -1.1880
    endloop
endfacet
facet normal 0.0000 -7.2584 0.0000
    outer loop
        vertex 1.6000 -0.1000 -1.1880
        vertex 0.2240 -0.1000 -1.1880
        vertex -0.0120 -0.1000 -2.0320
    endloop
endfacet
facet normal 0.0000 -145.4952 0.0000
    outer loop
        vertex 5.5040 -0.1000 1.3120
        vertex 4.5560 -0.1000 -2.0240
        vertex 11.2000 -0.1000 -3.2000
    endloop
endfacet
facet normal 0.0000 -227.8400 0.0000
    outer loop
        vertex 11.2000 -0.1000 -3.2000
        vertex 11.2000 -0.1000 3.2000
        vertex 5.5040 -0.1000 1.3120
    endloop
endfacet
facet normal 0.0000 -10.9020 0.0000
    outer loop
        vertex 0.9120 -0.1000 1.4120
        vertex 0.4400 -0.1000 -0.4280
        vertex 1.3880 -0.1000 -0.4280
    endloop
endfacet
facet normal 0.0000 -7.6828 0.0000
    outer loop
        vertex -4.6520 -0.1000 2.0840
        vertex -4.1000 -0.1000 0.5640
        vertex -3.3000 -0.1000 0.5880
    endloop
endfacet
facet normal 0.0000 -17.8398 0.0000
    outer loop
        vertex -3.3000 -0.1000 0.5880
        vertex -2.7440 -0.1000 2.0840
        vertex -4.6520 -0.1000 2.0840
    endloop
endfacet
facet normal 0.0000 -6.1788 0.0000
    outer loop
        vertex -3.3000 -0.1000 0.5880
        vertex -4.1000 -0.1000 0.5640
        vertex -3.7080 -0.1000 -0.6600
    endloop
endfacet
facet normal 0.0000 -13.3083 0.0000
    outer loop
        vertex -11.2000 -0.1000 3.2000
        vertex -4.6520 -0.1000 2.0840
        vertex -2.7440 -0.1000 2.0840
    endloop
endfacet
facet normal 0.0000 -6.8634 0.0000
    outer loop
        vertex -11.2000 -0.1000 3.2000
        vertex -5.6360 -0.1000 2.0840
        vertex -4.6520 -0.1000 2.0840
    endloop
endfacet
facet normal 0.0000 -6.8634 0.0000
    outer loop
        vertex -11.2000 -0.1000 3.2000
        vertex -2.7440 -0.1000 2.0840
        vertex -1.7600 -0.1000 2.0840
    endloop
endfacet
facet normal 0.0000 -15.7310 0.0000
    outer loop
        vertex -1.7600 -0.1000 2.0840
        vertex 0.3600 -0.1000 2.1000
        vertex -11.2000 -0.1000 3.2000
    endloop
endfacet
facet normal 0.0000 -19.8492 0.0000
    outer loop
        vertex 3.6640 -0.1000 1.3120
        vertex 2.7120 -0.1000 1.3120
        vertex 3.6640 -0.1000 -2.0240
    endloop
endfacet
facet normal 0.0000 -26.7712 0.0000
    outer loop
        vertex 11.2000 -0.1000 3.2000
        vertex 5.5040 -0.1000 2.0640
        vertex 5.5040 -0.1000 1.3120
    endloop
endfacet
facet normal 0.0000 -19.7658 0.0000
    outer loop
        vertex 4.5560 -0.1000 1.3120
        vertex 4.5560 -0.1000 -2.0240
        vertex 5.5040 -0.1000 1.3120
    endloop
endfacet
facet normal 0.0000 -5.7340 0.0000
    outer loop
        vertex 1.4920 -0.1000 2.1000
        vertex 2.7120 -0.1000 1.3120
        vertex 2.7120 -0.1000 2.0640
    endloop
endfacet
facet normal 0.0000 -7.7825 0.0000
    outer loop
        vertex 0.3600 -0.1000 2.1000
        vertex 1.4920 -0.1000 2.1000
        vertex 11.2000 -0.1000 3.2000
    endloop
endfacet
facet normal 0.0000 -154.0000 0.0000
    outer loop
        vertex 11.2000 -0.1000 3.2000
        vertex -11.2000 -0.1000 3.2000
        vertex 0.3600 -0.1000 2.1000
    endloop
endfacet
facet normal 0.0000 -7.0372 0.0000
    outer loop
        vertex 1.8400 -0.1000 -2.0320
        vertex 11.2000 -0.1000 -3.2000
        vertex 2.8040 -0.1000 -2.0320
    endloop
endfacet
facet normal 0.0000 -6.5562 0.0000
    outer loop
        vertex 11.2000 -0.1000 -3.2000
        vertex 4.5560 -0.1000 -2.0240
        vertex 3.6640 -0.1000 -2.0240
    endloop
endfacet
facet normal 0.0000 -6.6978 0.0000
    outer loop
        vertex 3.6640 -0.1000 -2.0240
        vertex 2.8040 -0.1000 -2.0320
        vertex 11.2000 -0.1000 -3.2000
    endloop
endfacet
facet normal 0.0000 -13.5196 0.0000
    outer loop
        vertex 11.2000 -0.1000 -3.2000
        vertex 1.8400 -0.1000 -2.0320
        vertex -0.0120 -0.1000 -2.0320
    endloop
endfacet
facet normal 0.0000 -163.5200 0.0000
    outer loop
        vertex -0.0120 -0.1000 -2.0320
        vertex -11.2000 -0.1000 -3.2000
        vertex 11.2000 -0.1000 -3.2000
    endloop
endfacet
facet normal 0.0000 -19.8232 0.0000
    outer loop
        vertex 2.7120 -0.1000 2.0640
        vertex 5.5040 -0.1000 2.0640
        vertex 11.2000 -0.1000 3.2000
    endloop
endfacet
facet normal 0.0000 -10.5718 0.0000
    outer loop
        vertex 11.2000 -0.1000 3.2000
        vertex 1.4920 -0.1000 2.1000
        vertex 2.7120 -0.1000 2.0640
    endloop
endfacet
endsolid GiantLegoRocks
