solid GiantLegoRocks
facet normal 0.0000 0.7500 0.0000
    outer loop
        vertex 7.6000 0.0000 3.4000
        vertex 7.6000 0.0000 -3.4000
        vertex -7.6000 0.0000 -3.4000
    endloop
endfacet
facet normal 0.0000 0.7500 0.0000
    outer loop
        vertex -7.6000 0.0000 -3.4000
        vertex -7.6000 0.0000 3.4000
        vertex 7.6000 0.0000 3.4000
    endloop
endfacet
facet normal 0.0000 -0.2500 17.0000
    outer loop
        vertex -7.6000 -0.1000 3.4000
        vertex 7.6000 -0.1000 3.4000
        vertex 7.6000 0.0000 3.4000
    endloop
endfacet
facet normal 0.0000 -0.2500 17.0000
    outer loop
        vertex 7.6000 0.0000 3.4000
        vertex -7.6000 0.0000 3.4000
        vertex -7.6000 -0.1000 3.4000
    endloop
endfacet
facet normal -38.0000 -0.2500 0.0000
    outer loop
        vertex -7.6000 -0.1000 -3.4000
        vertex -7.6000 -0.1000 3.4000
        vertex -7.6000 0.0000 3.4000
    endloop
endfacet
facet normal -38.0000 -0.2500 0.0000
    outer loop
        vertex -7.6000 0.0000 3.4000
        vertex -7.6000 0.0000 -3.4000
        vertex -7.6000 -0.1000 -3.4000
    endloop
endfacet
facet normal 0.0000 -0.2500 -17.0000
    outer loop
        vertex 7.6000 -0.1000 -3.4000
        vertex -7.6000 -0.1000 -3.4000
        vertex -7.6000 0.0000 -3.4000
    endloop
endfacet
facet normal 0.0000 -0.2500 -17.0000
    outer loop
        vertex -7.6000 0.0000 -3.4000
        vertex 7.6000 0.0000 -3.4000
        vertex 7.6000 -0.1000 -3.4000
    endloop
endfacet
facet normal 38.0000 -0.2500 0.0000
    outer loop
        vertex 7.6000 -0.1000 3.4000
        vertex 7.6000 -0.1000 -3.4000
        vertex 7.6000 0.0000 -3.4000
    endloop
endfacet
facet normal 38.0000 -0.2500 0.0000
    outer loop
        vertex 7.6000 0.0000 -3.4000
        vertex 7.6000 0.0000 3.4000
        vertex 7.6000 -0.1000 3.4000
    endloop
endfacet
facet normal 0.0000 -0.8260 0.0000
    outer loop
        vertex 0.1272 -0.1000 3.4000
        vertex -0.2120 -0.1000 3.4000
        vertex -0.2544 -0.1000 3.0104
    endloop
endfacet
facet normal 0.0000 -1.4391 0.0000
    outer loop
        vertex -0.2544 -0.1000 3.0104
        vertex 0.2120 -0.1000 2.8832
        vertex 0.1272 -0.1000 3.4000
    endloop
endfacet
facet normal 0.0000 -1.4270 0.0000
    outer loop
        vertex 0.2120 -0.1000 2.8832
        vertex -0.2544 -0.1000 3.0104
        vertex -0.3392 -0.1000 2.5440
    endloop
endfacet
facet normal 0.0000 -1.5843 0.0000
    outer loop
        vertex -0.3392 -0.1000 2.5440
        vertex 0.3392 -0.1000 2.5016
        vertex 0.2120 -0.1000 2.8832
    endloop
endfacet
facet normal 0.0000 -0.9101 0.0000
    outer loop
        vertex 0.3392 -0.1000 2.5016
        vertex -0.3392 -0.1000 2.5440
        vertex -0.3816 -0.1000 2.3320
    endloop
endfacet
facet normal 0.0000 -1.3708 0.0000
    outer loop
        vertex -0.3816 -0.1000 2.3320
        vertex 0.5512 -0.1000 2.2472
        vertex 0.3392 -0.1000 2.5016
    endloop
endfacet
facet normal 0.0000 -3.7528 0.0000
    outer loop
        vertex 0.5512 -0.1000 2.2472
        vertex -0.3816 -0.1000 2.3320
        vertex 0.0000 -0.1000 1.6536
    endloop
endfacet
facet normal 0.0000 -1.5506 0.0000
    outer loop
        vertex 0.0000 -0.1000 1.6536
        vertex 0.8904 -0.1000 2.1624
        vertex 0.5512 -0.1000 2.2472
    endloop
endfacet
facet normal 0.0000 -2.2584 0.0000
    outer loop
        vertex 0.8904 -0.1000 2.1624
        vertex 0.0000 -0.1000 1.6536
        vertex 0.6360 -0.1000 1.6112
    endloop
endfacet
facet normal 0.0000 -1.7299 0.0000
    outer loop
        vertex 0.6360 -0.1000 1.6112
        vertex 1.1448 -0.1000 1.6256
        vertex 0.8904 -0.1000 2.1624
    endloop
endfacet
facet normal 0.0000 -1.4974 0.0000
    outer loop
        vertex 1.3568 -0.1000 2.1200
        vertex 0.8904 -0.1000 2.1624
        vertex 1.1448 -0.1000 1.6256
    endloop
endfacet
facet normal 0.0000 -1.3398 0.0000
    outer loop
        vertex 1.1448 -0.1000 1.6256
        vertex 1.5688 -0.1000 1.6032
        vertex 1.3568 -0.1000 2.1200
    endloop
endfacet
facet normal 0.0000 -1.4609 0.0000
    outer loop
        vertex 1.8232 -0.1000 2.0856
        vertex 1.3568 -0.1000 2.1200
        vertex 1.5688 -0.1000 1.6032
    endloop
endfacet
facet normal 0.0000 -1.3331 0.0000
    outer loop
        vertex 1.5688 -0.1000 1.6032
        vertex 1.9928 -0.1000 1.5688
        vertex 1.8232 -0.1000 2.0856
    endloop
endfacet
facet normal 0.0000 -1.1674 0.0000
    outer loop
        vertex 2.1912 -0.1000 2.0656
        vertex 1.8232 -0.1000 2.0856
        vertex 1.9928 -0.1000 1.5688
    endloop
endfacet
facet normal 0.0000 -1.0532 0.0000
    outer loop
        vertex 1.9928 -0.1000 1.5688
        vertex 2.3320 -0.1000 1.5688
        vertex 2.1912 -0.1000 2.0656
    endloop
endfacet
facet normal 0.0000 -0.9370 0.0000
    outer loop
        vertex 2.5016 -0.1000 2.0352
        vertex 2.1912 -0.1000 2.0656
        vertex 2.3320 -0.1000 1.5688
    endloop
endfacet
facet normal 0.0000 -0.7479 0.0000
    outer loop
        vertex 2.3320 -0.1000 1.5688
        vertex 2.5944 -0.1000 1.5848
        vertex 2.5016 -0.1000 2.0352
    endloop
endfacet
facet normal 0.0000 -0.6915 0.0000
    outer loop
        vertex 2.7560 -0.1000 1.9928
        vertex 2.5016 -0.1000 2.0352
        vertex 2.5944 -0.1000 1.5848
    endloop
endfacet
facet normal 0.0000 -0.5588 0.0000
    outer loop
        vertex 2.5944 -0.1000 1.5848
        vertex 2.8408 -0.1000 1.6536
        vertex 2.7560 -0.1000 1.9928
    endloop
endfacet
facet normal 0.0000 -0.3820 0.0000
    outer loop
        vertex 2.9680 -0.1000 1.8656
        vertex 2.7560 -0.1000 1.9928
        vertex 2.8408 -0.1000 1.6536
    endloop
endfacet
facet normal 0.0000 -0.2675 0.0000
    outer loop
        vertex 2.8408 -0.1000 1.6536
        vertex 3.1032 -0.1000 1.7544
        vertex 2.9680 -0.1000 1.8656
    endloop
endfacet
facet normal 0.0000 -1.8764 0.0000
    outer loop
        vertex -0.4664 -0.1000 1.6960
        vertex 0.0000 -0.1000 1.6536
        vertex -0.3816 -0.1000 2.3320
    endloop
endfacet
facet normal 0.0000 -0.4607 0.0000
    outer loop
        vertex -0.3816 -0.1000 2.3320
        vertex -0.5088 -0.1000 2.2472
        vertex -0.4664 -0.1000 1.6960
    endloop
endfacet
facet normal 0.0000 -1.3034 0.0000
    outer loop
        vertex -0.8480 -0.1000 1.7384
        vertex -0.4664 -0.1000 1.6960
        vertex -0.5088 -0.1000 2.2472
    endloop
endfacet
facet normal 0.0000 -0.7191 0.0000
    outer loop
        vertex -0.5088 -0.1000 2.2472
        vertex -0.7632 -0.1000 2.2048
        vertex -0.8480 -0.1000 1.7384
    endloop
endfacet
facet normal 0.0000 -1.2682 0.0000
    outer loop
        vertex -1.2720 -0.1000 1.7992
        vertex -0.8480 -0.1000 1.7384
        vertex -0.7632 -0.1000 2.2048
    endloop
endfacet
facet normal 0.0000 -1.4520 0.0000
    outer loop
        vertex -0.7632 -0.1000 2.2048
        vertex -1.2296 -0.1000 2.2896
        vertex -1.2720 -0.1000 1.7992
    endloop
endfacet
facet normal 0.0000 -1.1808 0.0000
    outer loop
        vertex -1.2720 -0.1000 1.7992
        vertex -1.2296 -0.1000 2.2896
        vertex -1.6112 -0.1000 2.3320
    endloop
endfacet
facet normal 0.0000 -1.3610 0.0000
    outer loop
        vertex -1.6112 -0.1000 2.3320
        vertex -1.6960 -0.1000 1.8232
        vertex -1.2720 -0.1000 1.7992
    endloop
endfacet
facet normal 0.0000 -1.2232 0.0000
    outer loop
        vertex -1.6960 -0.1000 1.8232
        vertex -1.6112 -0.1000 2.3320
        vertex -1.9928 -0.1000 2.3504
    endloop
endfacet
facet normal 0.0000 -1.5978 0.0000
    outer loop
        vertex -1.9928 -0.1000 2.3504
        vertex -2.2048 -0.1000 1.8656
        vertex -1.6960 -0.1000 1.8232
    endloop
endfacet
facet normal 0.0000 -1.2868 0.0000
    outer loop
        vertex -2.2048 -0.1000 1.8656
        vertex -1.9928 -0.1000 2.3504
        vertex -2.4168 -0.1000 2.3520
    endloop
endfacet
facet normal 0.0000 -1.2890 0.0000
    outer loop
        vertex -2.4168 -0.1000 2.3520
        vertex -2.6288 -0.1000 1.8656
        vertex -2.2048 -0.1000 1.8656
    endloop
endfacet
facet normal 0.0000 -1.2943 0.0000
    outer loop
        vertex -2.6288 -0.1000 1.8656
        vertex -2.4168 -0.1000 2.3520
        vertex -2.8408 -0.1000 2.3560
    endloop
endfacet
facet normal 0.0000 -1.4454 0.0000
    outer loop
        vertex -2.8408 -0.1000 2.3560
        vertex -3.0952 -0.1000 1.8536
        vertex -2.6288 -0.1000 1.8656
    endloop
endfacet
facet normal 0.0000 -1.4073 0.0000
    outer loop
        vertex -3.0952 -0.1000 1.8536
        vertex -2.8408 -0.1000 2.3560
        vertex -3.3072 -0.1000 2.3200
    endloop
endfacet
facet normal 0.0000 -1.3839 0.0000
    outer loop
        vertex -3.3072 -0.1000 2.3200
        vertex -3.5616 -0.1000 1.8352
        vertex -3.0952 -0.1000 1.8536
    endloop
endfacet
facet normal 0.0000 -1.3649 0.0000
    outer loop
        vertex -3.5616 -0.1000 1.8352
        vertex -3.3072 -0.1000 2.3200
        vertex -3.7736 -0.1000 2.2896
    endloop
endfacet
facet normal 0.0000 -1.3405 0.0000
    outer loop
        vertex -3.7736 -0.1000 2.2896
        vertex -4.0280 -0.1000 1.8232
        vertex -3.5616 -0.1000 1.8352
    endloop
endfacet
facet normal 0.0000 -1.1124 0.0000
    outer loop
        vertex -4.0280 -0.1000 1.8232
        vertex -3.7736 -0.1000 2.2896
        vertex -4.1552 -0.1000 2.2896
    endloop
endfacet
facet normal 0.0000 -1.1124 0.0000
    outer loop
        vertex -4.1552 -0.1000 2.2896
        vertex -4.4096 -0.1000 1.8232
        vertex -4.0280 -0.1000 1.8232
    endloop
endfacet
facet normal 0.0000 -1.4270 0.0000
    outer loop
        vertex -4.4096 -0.1000 1.8232
        vertex -4.1552 -0.1000 2.2896
        vertex -4.6216 -0.1000 2.3320
    endloop
endfacet
facet normal 0.0000 -0.8090 0.0000
    outer loop
        vertex -4.6216 -0.1000 2.3320
        vertex -4.6640 -0.1000 1.8232
        vertex -4.4096 -0.1000 1.8232
    endloop
endfacet
facet normal 0.0000 -1.4933 0.0000
    outer loop
        vertex -4.6640 -0.1000 1.8232
        vertex -4.6216 -0.1000 2.3320
        vertex -5.0880 -0.1000 2.3704
    endloop
endfacet
facet normal 0.0000 -0.8048 0.0000
    outer loop
        vertex -5.0880 -0.1000 2.3704
        vertex -4.8336 -0.1000 1.7384
        vertex -4.6640 -0.1000 1.8232
    endloop
endfacet
facet normal 0.0000 -2.9833 0.0000
    outer loop
        vertex -4.8336 -0.1000 1.7384
        vertex -5.0880 -0.1000 2.3704
        vertex -5.5280 -0.1000 1.5872
    endloop
endfacet
facet normal 0.0000 -0.8399 0.0000
    outer loop
        vertex -5.5280 -0.1000 1.5872
        vertex -4.9184 -0.1000 1.5264
        vertex -4.8336 -0.1000 1.7384
    endloop
endfacet
facet normal 0.0000 -0.6780 0.0000
    outer loop
        vertex -4.9184 -0.1000 1.5264
        vertex -5.5280 -0.1000 1.5872
        vertex -5.4272 -0.1000 1.3992
    endloop
endfacet
facet normal 0.0000 -1.0787 0.0000
    outer loop
        vertex -5.4272 -0.1000 1.3992
        vertex -4.9184 -0.1000 1.1872
        vertex -4.9184 -0.1000 1.5264
    endloop
endfacet
facet normal 0.0000 -1.1011 0.0000
    outer loop
        vertex -4.9184 -0.1000 1.1872
        vertex -5.4272 -0.1000 1.3992
        vertex -5.3424 -0.1000 1.0176
    endloop
endfacet
facet normal 0.0000 -1.0240 0.0000
    outer loop
        vertex -5.3424 -0.1000 1.0176
        vertex -4.9064 -0.1000 0.8056
        vertex -4.9184 -0.1000 1.1872
    endloop
endfacet
facet normal 0.0000 -0.9837 0.0000
    outer loop
        vertex -4.9064 -0.1000 0.8056
        vertex -5.3424 -0.1000 1.0176
        vertex -5.3000 -0.1000 0.6360
    endloop
endfacet
facet normal 0.0000 -0.9710 0.0000
    outer loop
        vertex -5.3000 -0.1000 0.6360
        vertex -4.8760 -0.1000 0.4240
        vertex -4.9064 -0.1000 0.8056
    endloop
endfacet
facet normal 0.0000 -1.1798 0.0000
    outer loop
        vertex -4.8760 -0.1000 0.4240
        vertex -5.3000 -0.1000 0.6360
        vertex -5.2576 -0.1000 0.1696
    endloop
endfacet
facet normal 0.0000 -1.1124 0.0000
    outer loop
        vertex -5.2576 -0.1000 0.1696
        vertex -4.8760 -0.1000 -0.0424
        vertex -4.8760 -0.1000 0.4240
    endloop
endfacet
facet normal 0.0000 -1.0112 0.0000
    outer loop
        vertex -4.8760 -0.1000 -0.0424
        vertex -5.2576 -0.1000 0.1696
        vertex -5.2576 -0.1000 -0.2544
    endloop
endfacet
facet normal 0.0000 -0.9101 0.0000
    outer loop
        vertex -5.2576 -0.1000 -0.2544
        vertex -4.8760 -0.1000 -0.4240
        vertex -4.8760 -0.1000 -0.0424
    endloop
endfacet
facet normal 0.0000 -1.0562 0.0000
    outer loop
        vertex -4.8760 -0.1000 -0.4240
        vertex -5.2576 -0.1000 -0.2544
        vertex -5.3000 -0.1000 -0.6784
    endloop
endfacet
facet normal 0.0000 -1.3933 0.0000
    outer loop
        vertex -5.3000 -0.1000 -0.6784
        vertex -4.9184 -0.1000 -0.9752
        vertex -4.8760 -0.1000 -0.4240
    endloop
endfacet
facet normal 0.0000 -1.2697 0.0000
    outer loop
        vertex -4.9184 -0.1000 -0.9752
        vertex -5.3000 -0.1000 -0.6784
        vertex -5.3848 -0.1000 -1.1448
    endloop
endfacet
facet normal 0.0000 -1.3146 0.0000
    outer loop
        vertex -5.3848 -0.1000 -1.1448
        vertex -4.9608 -0.1000 -1.4416
        vertex -4.9184 -0.1000 -0.9752
    endloop
endfacet
facet normal 0.0000 -0.7528 0.0000
    outer loop
        vertex -4.9608 -0.1000 -1.4416
        vertex -5.3848 -0.1000 -1.1448
        vertex -5.4272 -0.1000 -1.3992
    endloop
endfacet
facet normal 0.0000 -0.7303 0.0000
    outer loop
        vertex -5.4272 -0.1000 -1.3992
        vertex -5.3848 -0.1000 -1.6536
        vertex -4.9608 -0.1000 -1.4416
    endloop
endfacet
facet normal 0.0000 -0.7865 0.0000
    outer loop
        vertex -4.9608 -0.1000 -1.4416
        vertex -5.3848 -0.1000 -1.6536
        vertex -5.3000 -0.1000 -1.9080
    endloop
endfacet
facet normal 0.0000 -0.9235 0.0000
    outer loop
        vertex -5.3000 -0.1000 -1.9080
        vertex -4.9832 -0.1000 -1.9080
        vertex -4.9608 -0.1000 -1.4416
    endloop
endfacet
facet normal 0.0000 -0.5037 0.0000
    outer loop
        vertex -4.9832 -0.1000 -1.9080
        vertex -5.3000 -0.1000 -1.9080
        vertex -5.2152 -0.1000 -2.1624
    endloop
endfacet
facet normal 0.0000 -0.4600 0.0000
    outer loop
        vertex -5.2152 -0.1000 -2.1624
        vertex -5.0032 -0.1000 -2.2472
        vertex -4.9832 -0.1000 -1.9080
    endloop
endfacet
facet normal 0.0000 -0.3210 0.0000
    outer loop
        vertex -5.0032 -0.1000 -2.2472
        vertex -5.2152 -0.1000 -2.1624
        vertex -5.1288 -0.1000 -2.4392
    endloop
endfacet
facet normal 0.0000 -0.2820 0.0000
    outer loop
        vertex -5.1288 -0.1000 -2.4392
        vertex -5.0456 -0.1000 -2.6712
        vertex -5.0032 -0.1000 -2.2472
    endloop
endfacet
facet normal 0.0000 -1.2872 0.0000
    outer loop
        vertex -5.7240 -0.1000 1.7064
        vertex -5.5280 -0.1000 1.5872
        vertex -5.0880 -0.1000 2.3704
    endloop
endfacet
facet normal 0.0000 -2.2302 0.0000
    outer loop
        vertex -5.0880 -0.1000 2.3704
        vertex -5.6392 -0.1000 2.3560
        vertex -5.7240 -0.1000 1.7064
    endloop
endfacet
facet normal 0.0000 -1.5887 0.0000
    outer loop
        vertex -6.1056 -0.1000 1.7808
        vertex -5.7240 -0.1000 1.7064
        vertex -5.6392 -0.1000 2.3560
    endloop
endfacet
facet normal 0.0000 -1.7359 0.0000
    outer loop
        vertex -5.6392 -0.1000 2.3560
        vertex -6.1480 -0.1000 2.3240
        vertex -6.1056 -0.1000 1.7808
    endloop
endfacet
facet normal 0.0000 -1.1808 0.0000
    outer loop
        vertex -6.4592 -0.1000 1.8552
        vertex -6.1056 -0.1000 1.7808
        vertex -6.1480 -0.1000 2.3240
    endloop
endfacet
facet normal 0.0000 -0.8445 0.0000
    outer loop
        vertex -6.1480 -0.1000 2.3240
        vertex -6.4872 -0.1000 2.2472
        vertex -6.4592 -0.1000 1.8552
    endloop
endfacet
facet normal 0.0000 -0.6752 0.0000
    outer loop
        vertex -6.7416 -0.1000 1.9504
        vertex -6.4592 -0.1000 1.8552
        vertex -6.4872 -0.1000 2.2472
    endloop
endfacet
facet normal 0.0000 -0.3371 0.0000
    outer loop
        vertex -6.4872 -0.1000 2.2472
        vertex -6.7416 -0.1000 2.1624
        vertex -6.7416 -0.1000 1.9504
    endloop
endfacet
facet normal 0.0000 -0.3371 0.0000
    outer loop
        vertex -6.9960 -0.1000 2.0352
        vertex -6.7416 -0.1000 1.9504
        vertex -6.7416 -0.1000 2.1624
    endloop
endfacet
facet normal 0.0000 -0.8124 0.0000
    outer loop
        vertex -0.5928 -0.1000 -3.4000
        vertex -0.2536 -0.1000 -3.4000
        vertex -0.2112 -0.1000 -3.0168
    endloop
endfacet
facet normal 0.0000 -1.4204 0.0000
    outer loop
        vertex -0.2112 -0.1000 -3.0168
        vertex -0.6776 -0.1000 -2.8896
        vertex -0.5928 -0.1000 -3.4000
    endloop
endfacet
facet normal 0.0000 -1.4270 0.0000
    outer loop
        vertex -0.6776 -0.1000 -2.8896
        vertex -0.2112 -0.1000 -3.0168
        vertex -0.1264 -0.1000 -2.5504
    endloop
endfacet
facet normal 0.0000 -1.5843 0.0000
    outer loop
        vertex -0.1264 -0.1000 -2.5504
        vertex -0.8048 -0.1000 -2.5080
        vertex -0.6776 -0.1000 -2.8896
    endloop
endfacet
facet normal 0.0000 -0.9101 0.0000
    outer loop
        vertex -0.8048 -0.1000 -2.5080
        vertex -0.1264 -0.1000 -2.5504
        vertex -0.0840 -0.1000 -2.3384
    endloop
endfacet
facet normal 0.0000 -1.3708 0.0000
    outer loop
        vertex -0.0840 -0.1000 -2.3384
        vertex -1.0168 -0.1000 -2.2536
        vertex -0.8048 -0.1000 -2.5080
    endloop
endfacet
facet normal 0.0000 -3.7528 0.0000
    outer loop
        vertex -1.0168 -0.1000 -2.2536
        vertex -0.0840 -0.1000 -2.3384
        vertex -0.4656 -0.1000 -1.6600
    endloop
endfacet
facet normal 0.0000 -1.5506 0.0000
    outer loop
        vertex -0.4656 -0.1000 -1.6600
        vertex -1.3560 -0.1000 -2.1688
        vertex -1.0168 -0.1000 -2.2536
    endloop
endfacet
facet normal 0.0000 -2.2584 0.0000
    outer loop
        vertex -1.3560 -0.1000 -2.1688
        vertex -0.4656 -0.1000 -1.6600
        vertex -1.1016 -0.1000 -1.6176
    endloop
endfacet
facet normal 0.0000 -1.7299 0.0000
    outer loop
        vertex -1.1016 -0.1000 -1.6176
        vertex -1.6104 -0.1000 -1.6320
        vertex -1.3560 -0.1000 -2.1688
    endloop
endfacet
facet normal 0.0000 -1.4974 0.0000
    outer loop
        vertex -1.8224 -0.1000 -2.1264
        vertex -1.3560 -0.1000 -2.1688
        vertex -1.6104 -0.1000 -1.6320
    endloop
endfacet
facet normal 0.0000 -1.3398 0.0000
    outer loop
        vertex -1.6104 -0.1000 -1.6320
        vertex -2.0344 -0.1000 -1.6096
        vertex -1.8224 -0.1000 -2.1264
    endloop
endfacet
facet normal 0.0000 -1.4609 0.0000
    outer loop
        vertex -2.2888 -0.1000 -2.0920
        vertex -1.8224 -0.1000 -2.1264
        vertex -2.0344 -0.1000 -1.6096
    endloop
endfacet
facet normal 0.0000 -1.3331 0.0000
    outer loop
        vertex -2.0344 -0.1000 -1.6096
        vertex -2.4584 -0.1000 -1.5752
        vertex -2.2888 -0.1000 -2.0920
    endloop
endfacet
facet normal 0.0000 -1.1674 0.0000
    outer loop
        vertex -2.6568 -0.1000 -2.0720
        vertex -2.2888 -0.1000 -2.0920
        vertex -2.4584 -0.1000 -1.5752
    endloop
endfacet
facet normal 0.0000 -1.0532 0.0000
    outer loop
        vertex -2.4584 -0.1000 -1.5752
        vertex -2.7976 -0.1000 -1.5752
        vertex -2.6568 -0.1000 -2.0720
    endloop
endfacet
facet normal 0.0000 -0.9370 0.0000
    outer loop
        vertex -2.9672 -0.1000 -2.0416
        vertex -2.6568 -0.1000 -2.0720
        vertex -2.7976 -0.1000 -1.5752
    endloop
endfacet
facet normal 0.0000 -0.7479 0.0000
    outer loop
        vertex -2.7976 -0.1000 -1.5752
        vertex -3.0600 -0.1000 -1.5912
        vertex -2.9672 -0.1000 -2.0416
    endloop
endfacet
facet normal 0.0000 -0.6915 0.0000
    outer loop
        vertex -3.2216 -0.1000 -1.9992
        vertex -2.9672 -0.1000 -2.0416
        vertex -3.0600 -0.1000 -1.5912
    endloop
endfacet
facet normal 0.0000 -0.5588 0.0000
    outer loop
        vertex -3.0600 -0.1000 -1.5912
        vertex -3.3064 -0.1000 -1.6600
        vertex -3.2216 -0.1000 -1.9992
    endloop
endfacet
facet normal 0.0000 -0.3820 0.0000
    outer loop
        vertex -3.4336 -0.1000 -1.8720
        vertex -3.2216 -0.1000 -1.9992
        vertex -3.3064 -0.1000 -1.6600
    endloop
endfacet
facet normal 0.0000 -0.2675 0.0000
    outer loop
        vertex -3.3064 -0.1000 -1.6600
        vertex -3.5688 -0.1000 -1.7608
        vertex -3.4336 -0.1000 -1.8720
    endloop
endfacet
facet normal 0.0000 -1.8764 0.0000
    outer loop
        vertex 0.0008 -0.1000 -1.7024
        vertex -0.4656 -0.1000 -1.6600
        vertex -0.0840 -0.1000 -2.3384
    endloop
endfacet
facet normal 0.0000 -0.4607 0.0000
    outer loop
        vertex -0.0840 -0.1000 -2.3384
        vertex 0.0432 -0.1000 -2.2536
        vertex 0.0008 -0.1000 -1.7024
    endloop
endfacet
facet normal 0.0000 -1.3034 0.0000
    outer loop
        vertex 0.3824 -0.1000 -1.7448
        vertex 0.0008 -0.1000 -1.7024
        vertex 0.0432 -0.1000 -2.2536
    endloop
endfacet
facet normal 0.0000 -0.7191 0.0000
    outer loop
        vertex 0.0432 -0.1000 -2.2536
        vertex 0.2976 -0.1000 -2.2112
        vertex 0.3824 -0.1000 -1.7448
    endloop
endfacet
facet normal 0.0000 -1.2682 0.0000
    outer loop
        vertex 0.8064 -0.1000 -1.8056
        vertex 0.3824 -0.1000 -1.7448
        vertex 0.2976 -0.1000 -2.2112
    endloop
endfacet
facet normal 0.0000 -1.4520 0.0000
    outer loop
        vertex 0.2976 -0.1000 -2.2112
        vertex 0.7640 -0.1000 -2.2960
        vertex 0.8064 -0.1000 -1.8056
    endloop
endfacet
facet normal 0.0000 -1.1808 0.0000
    outer loop
        vertex 0.8064 -0.1000 -1.8056
        vertex 0.7640 -0.1000 -2.2960
        vertex 1.1456 -0.1000 -2.3384
    endloop
endfacet
facet normal 0.0000 -1.3610 0.0000
    outer loop
        vertex 1.1456 -0.1000 -2.3384
        vertex 1.2304 -0.1000 -1.8296
        vertex 0.8064 -0.1000 -1.8056
    endloop
endfacet
facet normal 0.0000 -1.2232 0.0000
    outer loop
        vertex 1.2304 -0.1000 -1.8296
        vertex 1.1456 -0.1000 -2.3384
        vertex 1.5272 -0.1000 -2.3568
    endloop
endfacet
facet normal 0.0000 -1.5978 0.0000
    outer loop
        vertex 1.5272 -0.1000 -2.3568
        vertex 1.7392 -0.1000 -1.8720
        vertex 1.2304 -0.1000 -1.8296
    endloop
endfacet
facet normal 0.0000 -1.2868 0.0000
    outer loop
        vertex 1.7392 -0.1000 -1.8720
        vertex 1.5272 -0.1000 -2.3568
        vertex 1.9512 -0.1000 -2.3584
    endloop
endfacet
facet normal 0.0000 -1.2890 0.0000
    outer loop
        vertex 1.9512 -0.1000 -2.3584
        vertex 2.1632 -0.1000 -1.8720
        vertex 1.7392 -0.1000 -1.8720
    endloop
endfacet
facet normal 0.0000 -1.2943 0.0000
    outer loop
        vertex 2.1632 -0.1000 -1.8720
        vertex 1.9512 -0.1000 -2.3584
        vertex 2.3752 -0.1000 -2.3624
    endloop
endfacet
facet normal 0.0000 -1.4454 0.0000
    outer loop
        vertex 2.3752 -0.1000 -2.3624
        vertex 2.6296 -0.1000 -1.8600
        vertex 2.1632 -0.1000 -1.8720
    endloop
endfacet
facet normal 0.0000 -1.4073 0.0000
    outer loop
        vertex 2.6296 -0.1000 -1.8600
        vertex 2.3752 -0.1000 -2.3624
        vertex 2.8416 -0.1000 -2.3264
    endloop
endfacet
facet normal 0.0000 -1.3839 0.0000
    outer loop
        vertex 2.8416 -0.1000 -2.3264
        vertex 3.0960 -0.1000 -1.8416
        vertex 2.6296 -0.1000 -1.8600
    endloop
endfacet
facet normal 0.0000 -1.3649 0.0000
    outer loop
        vertex 3.0960 -0.1000 -1.8416
        vertex 2.8416 -0.1000 -2.3264
        vertex 3.3080 -0.1000 -2.2960
    endloop
endfacet
facet normal 0.0000 -1.3405 0.0000
    outer loop
        vertex 3.3080 -0.1000 -2.2960
        vertex 3.5624 -0.1000 -1.8296
        vertex 3.0960 -0.1000 -1.8416
    endloop
endfacet
facet normal 0.0000 -1.1124 0.0000
    outer loop
        vertex 3.5624 -0.1000 -1.8296
        vertex 3.3080 -0.1000 -2.2960
        vertex 3.6896 -0.1000 -2.2960
    endloop
endfacet
facet normal 0.0000 -1.1124 0.0000
    outer loop
        vertex 3.6896 -0.1000 -2.2960
        vertex 3.9440 -0.1000 -1.8296
        vertex 3.5624 -0.1000 -1.8296
    endloop
endfacet
facet normal 0.0000 -1.4270 0.0000
    outer loop
        vertex 3.9440 -0.1000 -1.8296
        vertex 3.6896 -0.1000 -2.2960
        vertex 4.1560 -0.1000 -2.3384
    endloop
endfacet
facet normal 0.0000 -0.8090 0.0000
    outer loop
        vertex 4.1560 -0.1000 -2.3384
        vertex 4.1984 -0.1000 -1.8296
        vertex 3.9440 -0.1000 -1.8296
    endloop
endfacet
facet normal 0.0000 -1.4933 0.0000
    outer loop
        vertex 4.1984 -0.1000 -1.8296
        vertex 4.1560 -0.1000 -2.3384
        vertex 4.6224 -0.1000 -2.3768
    endloop
endfacet
facet normal 0.0000 -0.8048 0.0000
    outer loop
        vertex 4.6224 -0.1000 -2.3768
        vertex 4.3680 -0.1000 -1.7448
        vertex 4.1984 -0.1000 -1.8296
    endloop
endfacet
facet normal 0.0000 -2.9833 0.0000
    outer loop
        vertex 4.3680 -0.1000 -1.7448
        vertex 4.6224 -0.1000 -2.3768
        vertex 5.0624 -0.1000 -1.5936
    endloop
endfacet
facet normal 0.0000 -0.8399 0.0000
    outer loop
        vertex 5.0624 -0.1000 -1.5936
        vertex 4.4528 -0.1000 -1.5328
        vertex 4.3680 -0.1000 -1.7448
    endloop
endfacet
facet normal 0.0000 -0.6780 0.0000
    outer loop
        vertex 4.4528 -0.1000 -1.5328
        vertex 5.0624 -0.1000 -1.5936
        vertex 4.9616 -0.1000 -1.4056
    endloop
endfacet
facet normal 0.0000 -1.0787 0.0000
    outer loop
        vertex 4.9616 -0.1000 -1.4056
        vertex 4.4528 -0.1000 -1.1936
        vertex 4.4528 -0.1000 -1.5328
    endloop
endfacet
facet normal 0.0000 -1.1011 0.0000
    outer loop
        vertex 4.4528 -0.1000 -1.1936
        vertex 4.9616 -0.1000 -1.4056
        vertex 4.8768 -0.1000 -1.0240
    endloop
endfacet
facet normal 0.0000 -1.0240 0.0000
    outer loop
        vertex 4.8768 -0.1000 -1.0240
        vertex 4.4408 -0.1000 -0.8120
        vertex 4.4528 -0.1000 -1.1936
    endloop
endfacet
facet normal 0.0000 -0.9837 0.0000
    outer loop
        vertex 4.4408 -0.1000 -0.8120
        vertex 4.8768 -0.1000 -1.0240
        vertex 4.8344 -0.1000 -0.6424
    endloop
endfacet
facet normal 0.0000 -0.9710 0.0000
    outer loop
        vertex 4.8344 -0.1000 -0.6424
        vertex 4.4104 -0.1000 -0.4304
        vertex 4.4408 -0.1000 -0.8120
    endloop
endfacet
facet normal 0.0000 -1.1798 0.0000
    outer loop
        vertex 4.4104 -0.1000 -0.4304
        vertex 4.8344 -0.1000 -0.6424
        vertex 4.7920 -0.1000 -0.1760
    endloop
endfacet
facet normal 0.0000 -1.1124 0.0000
    outer loop
        vertex 4.7920 -0.1000 -0.1760
        vertex 4.4104 -0.1000 0.0360
        vertex 4.4104 -0.1000 -0.4304
    endloop
endfacet
facet normal 0.0000 -1.0112 0.0000
    outer loop
        vertex 4.4104 -0.1000 0.0360
        vertex 4.7920 -0.1000 -0.1760
        vertex 4.7920 -0.1000 0.2480
    endloop
endfacet
facet normal 0.0000 -0.9101 0.0000
    outer loop
        vertex 4.7920 -0.1000 0.2480
        vertex 4.4104 -0.1000 0.4176
        vertex 4.4104 -0.1000 0.0360
    endloop
endfacet
facet normal 0.0000 -1.0562 0.0000
    outer loop
        vertex 4.4104 -0.1000 0.4176
        vertex 4.7920 -0.1000 0.2480
        vertex 4.8344 -0.1000 0.6720
    endloop
endfacet
facet normal 0.0000 -1.3933 0.0000
    outer loop
        vertex 4.8344 -0.1000 0.6720
        vertex 4.4528 -0.1000 0.9688
        vertex 4.4104 -0.1000 0.4176
    endloop
endfacet
facet normal 0.0000 -1.2697 0.0000
    outer loop
        vertex 4.4528 -0.1000 0.9688
        vertex 4.8344 -0.1000 0.6720
        vertex 4.9192 -0.1000 1.1384
    endloop
endfacet
facet normal 0.0000 -1.3146 0.0000
    outer loop
        vertex 4.9192 -0.1000 1.1384
        vertex 4.4952 -0.1000 1.4352
        vertex 4.4528 -0.1000 0.9688
    endloop
endfacet
facet normal 0.0000 -0.7528 0.0000
    outer loop
        vertex 4.4952 -0.1000 1.4352
        vertex 4.9192 -0.1000 1.1384
        vertex 4.9616 -0.1000 1.3928
    endloop
endfacet
facet normal 0.0000 -0.7303 0.0000
    outer loop
        vertex 4.9616 -0.1000 1.3928
        vertex 4.9192 -0.1000 1.6472
        vertex 4.4952 -0.1000 1.4352
    endloop
endfacet
facet normal 0.0000 -0.7865 0.0000
    outer loop
        vertex 4.4952 -0.1000 1.4352
        vertex 4.9192 -0.1000 1.6472
        vertex 4.8344 -0.1000 1.9016
    endloop
endfacet
facet normal 0.0000 -0.9235 0.0000
    outer loop
        vertex 4.8344 -0.1000 1.9016
        vertex 4.5176 -0.1000 1.9016
        vertex 4.4952 -0.1000 1.4352
    endloop
endfacet
facet normal 0.0000 -0.5037 0.0000
    outer loop
        vertex 4.5176 -0.1000 1.9016
        vertex 4.8344 -0.1000 1.9016
        vertex 4.7496 -0.1000 2.1560
    endloop
endfacet
facet normal 0.0000 -0.4600 0.0000
    outer loop
        vertex 4.7496 -0.1000 2.1560
        vertex 4.5376 -0.1000 2.2408
        vertex 4.5176 -0.1000 1.9016
    endloop
endfacet
facet normal 0.0000 -0.3210 0.0000
    outer loop
        vertex 4.5376 -0.1000 2.2408
        vertex 4.7496 -0.1000 2.1560
        vertex 4.6632 -0.1000 2.4328
    endloop
endfacet
facet normal 0.0000 -0.2820 0.0000
    outer loop
        vertex 4.6632 -0.1000 2.4328
        vertex 4.5800 -0.1000 2.6648
        vertex 4.5376 -0.1000 2.2408
    endloop
endfacet
facet normal 0.0000 -1.2872 0.0000
    outer loop
        vertex 5.2584 -0.1000 -1.7128
        vertex 5.0624 -0.1000 -1.5936
        vertex 4.6224 -0.1000 -2.3768
    endloop
endfacet
facet normal 0.0000 -2.2302 0.0000
    outer loop
        vertex 4.6224 -0.1000 -2.3768
        vertex 5.1736 -0.1000 -2.3624
        vertex 5.2584 -0.1000 -1.7128
    endloop
endfacet
facet normal 0.0000 -1.5887 0.0000
    outer loop
        vertex 5.6400 -0.1000 -1.7872
        vertex 5.2584 -0.1000 -1.7128
        vertex 5.1736 -0.1000 -2.3624
    endloop
endfacet
facet normal 0.0000 -1.7359 0.0000
    outer loop
        vertex 5.1736 -0.1000 -2.3624
        vertex 5.6824 -0.1000 -2.3304
        vertex 5.6400 -0.1000 -1.7872
    endloop
endfacet
facet normal 0.0000 -1.1808 0.0000
    outer loop
        vertex 5.9936 -0.1000 -1.8616
        vertex 5.6400 -0.1000 -1.7872
        vertex 5.6824 -0.1000 -2.3304
    endloop
endfacet
facet normal 0.0000 -0.8445 0.0000
    outer loop
        vertex 5.6824 -0.1000 -2.3304
        vertex 6.0216 -0.1000 -2.2536
        vertex 5.9936 -0.1000 -1.8616
    endloop
endfacet
facet normal 0.0000 -0.6752 0.0000
    outer loop
        vertex 6.2760 -0.1000 -1.9568
        vertex 5.9936 -0.1000 -1.8616
        vertex 6.0216 -0.1000 -2.2536
    endloop
endfacet
facet normal 0.0000 -0.3371 0.0000
    outer loop
        vertex 6.0216 -0.1000 -2.2536
        vertex 6.2760 -0.1000 -2.1688
        vertex 6.2760 -0.1000 -1.9568
    endloop
endfacet
facet normal 0.0000 -0.3371 0.0000
    outer loop
        vertex 6.2760 -0.1000 -2.1688
        vertex 6.5304 -0.1000 -2.0416
        vertex 6.2760 -0.1000 -1.9568
    endloop
endfacet
facet normal 0.0000 -0.1461 0.0000
    outer loop
        vertex -0.5088 -0.1000 2.2472
        vertex -0.3816 -0.1000 2.3320
        vertex -0.3392 -0.1000 2.5440
    endloop
endfacet
facet normal 0.0000 -0.4270 0.0000
    outer loop
        vertex -0.3392 -0.1000 2.5440
        vertex -0.7632 -0.1000 2.2048
        vertex -0.5088 -0.1000 2.2472
    endloop
endfacet
facet normal 0.0000 -1.0562 0.0000
    outer loop
        vertex -0.7632 -0.1000 2.2048
        vertex -0.3392 -0.1000 2.5440
        vertex -0.2544 -0.1000 3.0104
    endloop
endfacet
facet normal 0.0000 -2.6180 0.0000
    outer loop
        vertex -0.2544 -0.1000 3.0104
        vertex -1.2296 -0.1000 2.2896
        vertex -0.7632 -0.1000 2.2048
    endloop
endfacet
facet normal 0.0000 -2.1836 0.0000
    outer loop
        vertex -1.2296 -0.1000 2.2896
        vertex -0.2544 -0.1000 3.0104
        vertex -0.2120 -0.1000 3.4000
    endloop
endfacet
facet normal 0.0000 -2.9180 0.0000
    outer loop
        vertex -0.2120 -0.1000 3.4000
        vertex -1.6112 -0.1000 2.3320
        vertex -1.2296 -0.1000 2.2896
    endloop
endfacet
facet normal 0.0000 -2.7081 0.0000
    outer loop
        vertex -1.9928 -0.1000 2.3504
        vertex -1.6112 -0.1000 2.3320
        vertex -0.2120 -0.1000 3.4000
    endloop
endfacet
facet normal 0.0000 -2.7992 0.0000
    outer loop
        vertex -2.4168 -0.1000 2.3520
        vertex -1.9928 -0.1000 2.3504
        vertex -0.2120 -0.1000 3.4000
    endloop
endfacet
facet normal 0.0000 -2.8323 0.0000
    outer loop
        vertex -0.2120 -0.1000 3.4000
        vertex -2.8408 -0.1000 2.3560
        vertex -2.4168 -0.1000 2.3520
    endloop
endfacet
facet normal 0.0000 -48.2067 0.0000
    outer loop
        vertex -2.8408 -0.1000 2.3560
        vertex -0.2120 -0.1000 3.4000
        vertex -7.6000 -0.1000 3.4000
    endloop
endfacet
facet normal 0.0000 -4.1141 0.0000
    outer loop
        vertex -7.6000 -0.1000 3.4000
        vertex -3.3072 -0.1000 2.3200
        vertex -2.8408 -0.1000 2.3560
    endloop
endfacet
facet normal 0.0000 -3.9638 0.0000
    outer loop
        vertex -3.7736 -0.1000 2.2896
        vertex -3.3072 -0.1000 2.3200
        vertex -7.6000 -0.1000 3.4000
    endloop
endfacet
facet normal 0.0000 -2.6483 0.0000
    outer loop
        vertex -7.6000 -0.1000 3.4000
        vertex -4.1552 -0.1000 2.2896
        vertex -3.7736 -0.1000 2.2896
    endloop
endfacet
facet normal 0.0000 -2.3239 0.0000
    outer loop
        vertex -4.6216 -0.1000 2.3320
        vertex -4.1552 -0.1000 2.2896
        vertex -7.6000 -0.1000 3.4000
    endloop
endfacet
facet normal 0.0000 -2.3984 0.0000
    outer loop
        vertex -5.0880 -0.1000 2.3704
        vertex -4.6216 -0.1000 2.3320
        vertex -7.6000 -0.1000 3.4000
    endloop
endfacet
facet normal 0.0000 -3.7731 0.0000
    outer loop
        vertex -5.6392 -0.1000 2.3560
        vertex -5.0880 -0.1000 2.3704
        vertex -7.6000 -0.1000 3.4000
    endloop
endfacet
facet normal 0.0000 -3.7121 0.0000
    outer loop
        vertex -6.1480 -0.1000 2.3240
        vertex -5.6392 -0.1000 2.3560
        vertex -7.6000 -0.1000 3.4000
    endloop
endfacet
facet normal 0.0000 -2.9781 0.0000
    outer loop
        vertex -6.4872 -0.1000 2.2472
        vertex -6.1480 -0.1000 2.3240
        vertex -7.6000 -0.1000 3.4000
    endloop
endfacet
facet normal 0.0000 -2.4227 0.0000
    outer loop
        vertex -6.7416 -0.1000 2.1624
        vertex -6.4872 -0.1000 2.2472
        vertex -7.6000 -0.1000 3.4000
    endloop
endfacet
facet normal 0.0000 -2.6502 0.0000
    outer loop
        vertex -6.9960 -0.1000 2.0352
        vertex -6.7416 -0.1000 2.1624
        vertex -7.6000 -0.1000 3.4000
    endloop
endfacet
facet normal 0.0000 -25.6700 0.0000
    outer loop
        vertex -7.6000 -0.1000 -3.4000
        vertex -6.9960 -0.1000 2.0352
        vertex -7.6000 -0.1000 3.4000
    endloop
endfacet
facet normal 0.0000 -66.2570 0.0000
    outer loop
        vertex -6.9960 -0.1000 2.0352
        vertex -7.6000 -0.1000 -3.4000
        vertex -5.4272 -0.1000 -1.3992
    endloop
endfacet
facet normal 0.0000 -3.4045 0.0000
    outer loop
        vertex -5.4272 -0.1000 -1.3992
        vertex -5.3848 -0.1000 -1.1448
        vertex -6.9960 -0.1000 2.0352
    endloop
endfacet
facet normal 0.0000 -0.1552 0.0000
    outer loop
        vertex -5.4272 -0.1000 1.3992
        vertex -5.5280 -0.1000 1.5872
        vertex -5.7240 -0.1000 1.7064
    endloop
endfacet
facet normal 0.0000 -0.5947 0.0000
    outer loop
        vertex -5.7240 -0.1000 1.7064
        vertex -6.1056 -0.1000 1.7808
        vertex -5.4272 -0.1000 1.3992
    endloop
endfacet
facet normal 0.0000 -1.4157 0.0000
    outer loop
        vertex -5.3424 -0.1000 1.0176
        vertex -5.4272 -0.1000 1.3992
        vertex -6.1056 -0.1000 1.7808
    endloop
endfacet
facet normal 0.0000 -1.6180 0.0000
    outer loop
        vertex -6.1056 -0.1000 1.7808
        vertex -5.3000 -0.1000 0.6360
        vertex -5.3424 -0.1000 1.0176
    endloop
endfacet
facet normal 0.0000 -2.1554 0.0000
    outer loop
        vertex -5.3000 -0.1000 0.6360
        vertex -6.1056 -0.1000 1.7808
        vertex -6.4592 -0.1000 1.8552
    endloop
endfacet
facet normal 0.0000 -3.0560 0.0000
    outer loop
        vertex -6.4592 -0.1000 1.8552
        vertex -5.2576 -0.1000 0.1696
        vertex -5.3000 -0.1000 0.6360
    endloop
endfacet
facet normal 0.0000 -2.2601 0.0000
    outer loop
        vertex -5.2576 -0.1000 0.1696
        vertex -6.4592 -0.1000 1.8552
        vertex -6.7416 -0.1000 1.9504
    endloop
endfacet
facet normal 0.0000 -3.9326 0.0000
    outer loop
        vertex -6.7416 -0.1000 1.9504
        vertex -5.2576 -0.1000 -0.2544
        vertex -5.2576 -0.1000 0.1696
    endloop
endfacet
facet normal 0.0000 -2.7191 0.0000
    outer loop
        vertex -5.2576 -0.1000 -0.2544
        vertex -6.7416 -0.1000 1.9504
        vertex -6.9960 -0.1000 2.0352
    endloop
endfacet
facet normal 0.0000 -5.2135 0.0000
    outer loop
        vertex -6.9960 -0.1000 2.0352
        vertex -5.3000 -0.1000 -0.6784
        vertex -5.2576 -0.1000 -0.2544
    endloop
endfacet
facet normal 0.0000 -6.3820 0.0000
    outer loop
        vertex -5.3000 -0.1000 -0.6784
        vertex -6.9960 -0.1000 2.0352
        vertex -5.3848 -0.1000 -1.1448
    endloop
endfacet
facet normal 0.0000 -3.9850 0.0000
    outer loop
        vertex -7.6000 -0.1000 -3.4000
        vertex -5.3848 -0.1000 -1.6536
        vertex -5.4272 -0.1000 -1.3992
    endloop
endfacet
facet normal 0.0000 -4.4478 0.0000
    outer loop
        vertex -7.6000 -0.1000 -3.4000
        vertex -5.3000 -0.1000 -1.9080
        vertex -5.3848 -0.1000 -1.6536
    endloop
endfacet
facet normal 0.0000 -4.4478 0.0000
    outer loop
        vertex -5.2152 -0.1000 -2.1624
        vertex -5.3000 -0.1000 -1.9080
        vertex -7.6000 -0.1000 -3.4000
    endloop
endfacet
facet normal 0.0000 -4.7940 0.0000
    outer loop
        vertex -7.6000 -0.1000 -3.4000
        vertex -5.1288 -0.1000 -2.4392
        vertex -5.2152 -0.1000 -2.1624
    endloop
endfacet
facet normal 0.0000 -4.0829 0.0000
    outer loop
        vertex -5.0456 -0.1000 -2.6712
        vertex -5.1288 -0.1000 -2.4392
        vertex -7.6000 -0.1000 -3.4000
    endloop
endfacet
facet normal 0.0000 -31.9178 0.0000
    outer loop
        vertex -5.0456 -0.1000 -2.6712
        vertex -7.6000 -0.1000 -3.4000
        vertex -0.5928 -0.1000 -3.4000
    endloop
endfacet
facet normal 0.0000 -27.5567 0.0000
    outer loop
        vertex -0.5928 -0.1000 -3.4000
        vertex -2.6568 -0.1000 -2.0720
        vertex -5.0456 -0.1000 -2.6712
    endloop
endfacet
facet normal 0.0000 -0.4270 0.0000
    outer loop
        vertex -0.8048 -0.1000 -2.5080
        vertex -1.0168 -0.1000 -2.2536
        vertex -1.3560 -0.1000 -2.1688
    endloop
endfacet
facet normal 0.0000 -1.0449 0.0000
    outer loop
        vertex -1.3560 -0.1000 -2.1688
        vertex -0.6776 -0.1000 -2.8896
        vertex -0.8048 -0.1000 -2.5080
    endloop
endfacet
facet normal 0.0000 -1.9214 0.0000
    outer loop
        vertex -0.6776 -0.1000 -2.8896
        vertex -1.3560 -0.1000 -2.1688
        vertex -1.8224 -0.1000 -2.1264
    endloop
endfacet
facet normal 0.0000 -3.2474 0.0000
    outer loop
        vertex -1.8224 -0.1000 -2.1264
        vertex -0.5928 -0.1000 -3.4000
        vertex -0.6776 -0.1000 -2.8896
    endloop
endfacet
facet normal 0.0000 -3.4482 0.0000
    outer loop
        vertex -0.5928 -0.1000 -3.4000
        vertex -1.8224 -0.1000 -2.1264
        vertex -2.2888 -0.1000 -2.0920
    endloop
endfacet
facet normal 0.0000 -2.7964 0.0000
    outer loop
        vertex -2.2888 -0.1000 -2.0920
        vertex -2.6568 -0.1000 -2.0720
        vertex -0.5928 -0.1000 -3.4000
    endloop
endfacet
facet normal 0.0000 -1.6163 0.0000
    outer loop
        vertex -5.0456 -0.1000 -2.6712
        vertex -2.6568 -0.1000 -2.0720
        vertex -2.9672 -0.1000 -2.0416
    endloop
endfacet
facet normal 0.0000 -5.3409 0.0000
    outer loop
        vertex -2.9672 -0.1000 -2.0416
        vertex -5.0032 -0.1000 -2.2472
        vertex -5.0456 -0.1000 -2.6712
    endloop
endfacet
facet normal 0.0000 -0.8664 0.0000
    outer loop
        vertex -5.0032 -0.1000 -2.2472
        vertex -2.9672 -0.1000 -2.0416
        vertex -3.2216 -0.1000 -1.9992
    endloop
endfacet
facet normal 0.0000 -3.7460 0.0000
    outer loop
        vertex -3.2216 -0.1000 -1.9992
        vertex -4.9832 -0.1000 -1.9080
        vertex -5.0032 -0.1000 -2.2472
    endloop
endfacet
facet normal 0.0000 -1.2796 0.0000
    outer loop
        vertex -3.2216 -0.1000 -1.9992
        vertex -3.4336 -0.1000 -1.8720
        vertex -4.9832 -0.1000 -1.9080
    endloop
endfacet
facet normal 0.0000 -1.1074 0.0000
    outer loop
        vertex -4.9832 -0.1000 -1.9080
        vertex -3.4336 -0.1000 -1.8720
        vertex -3.5688 -0.1000 -1.7608
    endloop
endfacet
facet normal 0.0000 -4.1024 0.0000
    outer loop
        vertex -3.5688 -0.1000 -1.7608
        vertex -4.9608 -0.1000 -1.4416
        vertex -4.9832 -0.1000 -1.9080
    endloop
endfacet
facet normal 0.0000 -31.2996 0.0000
    outer loop
        vertex -4.9608 -0.1000 -1.4416
        vertex -3.5688 -0.1000 -1.7608
        vertex -3.5616 -0.1000 1.8352
    endloop
endfacet
facet normal 0.0000 -3.2103 0.0000
    outer loop
        vertex -3.5616 -0.1000 1.8352
        vertex -4.9184 -0.1000 -0.9752
        vertex -4.9608 -0.1000 -1.4416
    endloop
endfacet
facet normal 0.0000 -3.9294 0.0000
    outer loop
        vertex -4.8760 -0.1000 -0.4240
        vertex -4.9184 -0.1000 -0.9752
        vertex -3.5616 -0.1000 1.8352
    endloop
endfacet
facet normal 0.0000 -6.4870 0.0000
    outer loop
        vertex -3.5616 -0.1000 1.8352
        vertex -4.0280 -0.1000 1.8232
        vertex -4.8760 -0.1000 -0.4240
    endloop
endfacet
facet normal 0.0000 -2.0225 0.0000
    outer loop
        vertex -4.8760 -0.1000 -0.4240
        vertex -4.0280 -0.1000 1.8232
        vertex -4.8760 -0.1000 -0.0424
    endloop
endfacet
facet normal 0.0000 -2.4719 0.0000
    outer loop
        vertex -4.8760 -0.1000 -0.0424
        vertex -4.0280 -0.1000 1.8232
        vertex -4.8760 -0.1000 0.4240
    endloop
endfacet
facet normal 0.0000 -2.2883 0.0000
    outer loop
        vertex -4.9064 -0.1000 0.8056
        vertex -4.8760 -0.1000 0.4240
        vertex -4.0280 -0.1000 1.8232
    endloop
endfacet
facet normal 0.0000 -2.4270 0.0000
    outer loop
        vertex -4.0280 -0.1000 1.8232
        vertex -4.4096 -0.1000 1.8232
        vertex -4.9064 -0.1000 0.8056
    endloop
endfacet
facet normal 0.0000 -1.2612 0.0000
    outer loop
        vertex -4.9184 -0.1000 1.1872
        vertex -4.9064 -0.1000 0.8056
        vertex -4.4096 -0.1000 1.8232
    endloop
endfacet
facet normal 0.0000 -1.0787 0.0000
    outer loop
        vertex -4.4096 -0.1000 1.8232
        vertex -4.9184 -0.1000 1.5264
        vertex -4.9184 -0.1000 1.1872
    endloop
endfacet
facet normal 0.0000 -0.4719 0.0000
    outer loop
        vertex -4.9184 -0.1000 1.5264
        vertex -4.4096 -0.1000 1.8232
        vertex -4.6640 -0.1000 1.8232
    endloop
endfacet
facet normal 0.0000 -0.1798 0.0000
    outer loop
        vertex -4.6640 -0.1000 1.8232
        vertex -4.8336 -0.1000 1.7384
        vertex -4.9184 -0.1000 1.5264
    endloop
endfacet
facet normal 0.0000 -5.8929 0.0000
    outer loop
        vertex -3.5616 -0.1000 1.8352
        vertex -3.5688 -0.1000 -1.7608
        vertex -3.3064 -0.1000 -1.6600
    endloop
endfacet
facet normal 0.0000 -10.2179 0.0000
    outer loop
        vertex -3.3064 -0.1000 -1.6600
        vertex -3.0952 -0.1000 1.8536
        vertex -3.5616 -0.1000 1.8352
    endloop
endfacet
facet normal 0.0000 -5.3201 0.0000
    outer loop
        vertex -3.0952 -0.1000 1.8536
        vertex -3.3064 -0.1000 -1.6600
        vertex -3.0600 -0.1000 -1.5912
    endloop
endfacet
facet normal 0.0000 -10.0442 0.0000
    outer loop
        vertex -3.0600 -0.1000 -1.5912
        vertex -2.6288 -0.1000 1.8656
        vertex -3.0952 -0.1000 1.8536
    endloop
endfacet
facet normal 0.0000 -5.6260 0.0000
    outer loop
        vertex -2.6288 -0.1000 1.8656
        vertex -3.0600 -0.1000 -1.5912
        vertex -2.7976 -0.1000 -1.5752
    endloop
endfacet
facet normal 0.0000 -9.1181 0.0000
    outer loop
        vertex -2.7976 -0.1000 -1.5752
        vertex -2.2048 -0.1000 1.8656
        vertex -2.6288 -0.1000 1.8656
    endloop
endfacet
facet normal 0.0000 -7.2945 0.0000
    outer loop
        vertex -2.2048 -0.1000 1.8656
        vertex -2.7976 -0.1000 -1.5752
        vertex -2.4584 -0.1000 -1.5752
    endloop
endfacet
facet normal 0.0000 -11.0089 0.0000
    outer loop
        vertex -2.4584 -0.1000 -1.5752
        vertex -1.6960 -0.1000 1.8232
        vertex -2.2048 -0.1000 1.8656
    endloop
endfacet
facet normal 0.0000 -9.1697 0.0000
    outer loop
        vertex -1.6960 -0.1000 1.8232
        vertex -2.4584 -0.1000 -1.5752
        vertex -2.0344 -0.1000 -1.6096
    endloop
endfacet
facet normal 0.0000 -9.1477 0.0000
    outer loop
        vertex -2.0344 -0.1000 -1.6096
        vertex -1.2720 -0.1000 1.7992
        vertex -1.6960 -0.1000 1.8232
    endloop
endfacet
facet normal 0.0000 -9.1401 0.0000
    outer loop
        vertex -1.2720 -0.1000 1.7992
        vertex -2.0344 -0.1000 -1.6096
        vertex -1.6104 -0.1000 -1.6320
    endloop
endfacet
facet normal 0.0000 -9.2213 0.0000
    outer loop
        vertex -1.6104 -0.1000 -1.6320
        vertex -0.8480 -0.1000 1.7384
        vertex -1.2720 -0.1000 1.7992
    endloop
endfacet
facet normal 0.0000 -10.6493 0.0000
    outer loop
        vertex -0.8480 -0.1000 1.7384
        vertex -1.6104 -0.1000 -1.6320
        vertex -1.1016 -0.1000 -1.6176
    endloop
endfacet
facet normal 0.0000 -8.0713 0.0000
    outer loop
        vertex -1.1016 -0.1000 -1.6176
        vertex -0.4664 -0.1000 1.6960
        vertex -0.8480 -0.1000 1.7384
    endloop
endfacet
facet normal 0.0000 -13.3399 0.0000
    outer loop
        vertex -0.4664 -0.1000 1.6960
        vertex -1.1016 -0.1000 -1.6176
        vertex -0.4656 -0.1000 -1.6600
    endloop
endfacet
facet normal 0.0000 -9.7825 0.0000
    outer loop
        vertex -0.4656 -0.1000 -1.6600
        vertex 0.0000 -0.1000 1.6536
        vertex -0.4664 -0.1000 1.6960
    endloop
endfacet
facet normal 0.0000 -9.7825 0.0000
    outer loop
        vertex 0.0000 -0.1000 1.6536
        vertex -0.4656 -0.1000 -1.6600
        vertex 0.0008 -0.1000 -1.7024
    endloop
endfacet
facet normal 0.0000 -13.3399 0.0000
    outer loop
        vertex 0.0008 -0.1000 -1.7024
        vertex 0.6360 -0.1000 1.6112
        vertex 0.0000 -0.1000 1.6536
    endloop
endfacet
facet normal 0.0000 -8.0713 0.0000
    outer loop
        vertex 0.6360 -0.1000 1.6112
        vertex 0.0008 -0.1000 -1.7024
        vertex 0.3824 -0.1000 -1.7448
    endloop
endfacet
facet normal 0.0000 -10.6493 0.0000
    outer loop
        vertex 0.3824 -0.1000 -1.7448
        vertex 1.1448 -0.1000 1.6256
        vertex 0.6360 -0.1000 1.6112
    endloop
endfacet
facet normal 0.0000 -9.2213 0.0000
    outer loop
        vertex 1.1448 -0.1000 1.6256
        vertex 0.3824 -0.1000 -1.7448
        vertex 0.8064 -0.1000 -1.8056
    endloop
endfacet
facet normal 0.0000 -9.1401 0.0000
    outer loop
        vertex 0.8064 -0.1000 -1.8056
        vertex 1.5688 -0.1000 1.6032
        vertex 1.1448 -0.1000 1.6256
    endloop
endfacet
facet normal 0.0000 -9.1477 0.0000
    outer loop
        vertex 1.5688 -0.1000 1.6032
        vertex 0.8064 -0.1000 -1.8056
        vertex 1.2304 -0.1000 -1.8296
    endloop
endfacet
facet normal 0.0000 -9.1697 0.0000
    outer loop
        vertex 1.2304 -0.1000 -1.8296
        vertex 1.9928 -0.1000 1.5688
        vertex 1.5688 -0.1000 1.6032
    endloop
endfacet
facet normal 0.0000 -11.0089 0.0000
    outer loop
        vertex 1.9928 -0.1000 1.5688
        vertex 1.2304 -0.1000 -1.8296
        vertex 1.7392 -0.1000 -1.8720
    endloop
endfacet
facet normal 0.0000 -7.2945 0.0000
    outer loop
        vertex 1.7392 -0.1000 -1.8720
        vertex 2.3320 -0.1000 1.5688
        vertex 1.9928 -0.1000 1.5688
    endloop
endfacet
facet normal 0.0000 -9.1181 0.0000
    outer loop
        vertex 2.3320 -0.1000 1.5688
        vertex 1.7392 -0.1000 -1.8720
        vertex 2.1632 -0.1000 -1.8720
    endloop
endfacet
facet normal 0.0000 -5.6260 0.0000
    outer loop
        vertex 2.1632 -0.1000 -1.8720
        vertex 2.5944 -0.1000 1.5848
        vertex 2.3320 -0.1000 1.5688
    endloop
endfacet
facet normal 0.0000 -10.0442 0.0000
    outer loop
        vertex 2.5944 -0.1000 1.5848
        vertex 2.1632 -0.1000 -1.8720
        vertex 2.6296 -0.1000 -1.8600
    endloop
endfacet
facet normal 0.0000 -5.3201 0.0000
    outer loop
        vertex 2.6296 -0.1000 -1.8600
        vertex 2.8408 -0.1000 1.6536
        vertex 2.5944 -0.1000 1.5848
    endloop
endfacet
facet normal 0.0000 -10.2179 0.0000
    outer loop
        vertex 2.8408 -0.1000 1.6536
        vertex 2.6296 -0.1000 -1.8600
        vertex 3.0960 -0.1000 -1.8416
    endloop
endfacet
facet normal 0.0000 -5.8929 0.0000
    outer loop
        vertex 3.0960 -0.1000 -1.8416
        vertex 3.1032 -0.1000 1.7544
        vertex 2.8408 -0.1000 1.6536
    endloop
endfacet
facet normal 0.0000 -29.4776 0.0000
    outer loop
        vertex 4.4104 -0.1000 -0.4304
        vertex 3.1032 -0.1000 1.7544
        vertex 3.0960 -0.1000 -1.8416
    endloop
endfacet
facet normal 0.0000 -4.0151 0.0000
    outer loop
        vertex 3.0960 -0.1000 -1.8416
        vertex 3.5624 -0.1000 -1.8296
        vertex 4.4104 -0.1000 -0.4304
    endloop
endfacet
facet normal 0.0000 -2.2883 0.0000
    outer loop
        vertex 4.4408 -0.1000 -0.8120
        vertex 4.4104 -0.1000 -0.4304
        vertex 3.5624 -0.1000 -1.8296
    endloop
endfacet
facet normal 0.0000 -2.4270 0.0000
    outer loop
        vertex 3.5624 -0.1000 -1.8296
        vertex 3.9440 -0.1000 -1.8296
        vertex 4.4408 -0.1000 -0.8120
    endloop
endfacet
facet normal 0.0000 -1.2612 0.0000
    outer loop
        vertex 4.4528 -0.1000 -1.1936
        vertex 4.4408 -0.1000 -0.8120
        vertex 3.9440 -0.1000 -1.8296
    endloop
endfacet
facet normal 0.0000 -1.0112 0.0000
    outer loop
        vertex 3.9440 -0.1000 -1.8296
        vertex 4.1984 -0.1000 -1.8296
        vertex 4.4528 -0.1000 -1.1936
    endloop
endfacet
facet normal 0.0000 -0.5393 0.0000
    outer loop
        vertex 4.4528 -0.1000 -1.5328
        vertex 4.4528 -0.1000 -1.1936
        vertex 4.1984 -0.1000 -1.8296
    endloop
endfacet
facet normal 0.0000 -0.1798 0.0000
    outer loop
        vertex 4.1984 -0.1000 -1.8296
        vertex 4.3680 -0.1000 -1.7448
        vertex 4.4528 -0.1000 -1.5328
    endloop
endfacet
facet normal 0.0000 -0.4270 0.0000
    outer loop
        vertex 0.3392 -0.1000 2.5016
        vertex 0.5512 -0.1000 2.2472
        vertex 0.8904 -0.1000 2.1624
    endloop
endfacet
facet normal 0.0000 -0.8427 0.0000
    outer loop
        vertex 0.8904 -0.1000 2.1624
        vertex 1.3568 -0.1000 2.1200
        vertex 0.3392 -0.1000 2.5016
    endloop
endfacet
facet normal 0.0000 -2.1236 0.0000
    outer loop
        vertex 0.2120 -0.1000 2.8832
        vertex 0.3392 -0.1000 2.5016
        vertex 1.3568 -0.1000 2.1200
    endloop
endfacet
facet normal 0.0000 -1.9786 0.0000
    outer loop
        vertex 1.3568 -0.1000 2.1200
        vertex 1.8232 -0.1000 2.0856
        vertex 0.2120 -0.1000 2.8832
    endloop
endfacet
facet normal 0.0000 -4.7814 0.0000
    outer loop
        vertex 0.1272 -0.1000 3.4000
        vertex 0.2120 -0.1000 2.8832
        vertex 1.8232 -0.1000 2.0856
    endloop
endfacet
facet normal 0.0000 -2.8111 0.0000
    outer loop
        vertex 1.8232 -0.1000 2.0856
        vertex 2.1912 -0.1000 2.0656
        vertex 0.1272 -0.1000 3.4000
    endloop
endfacet
facet normal 0.0000 -27.6523 0.0000
    outer loop
        vertex 4.5800 -0.1000 2.6648
        vertex 0.1272 -0.1000 3.4000
        vertex 2.1912 -0.1000 2.0656
    endloop
endfacet
facet normal 0.0000 -1.6163 0.0000
    outer loop
        vertex 2.1912 -0.1000 2.0656
        vertex 2.5016 -0.1000 2.0352
        vertex 4.5800 -0.1000 2.6648
    endloop
endfacet
facet normal 0.0000 -1.5518 0.0000
    outer loop
        vertex 2.7560 -0.1000 1.9928
        vertex 4.5800 -0.1000 2.6648
        vertex 2.5016 -0.1000 2.0352
    endloop
endfacet
facet normal 0.0000 -2.3405 0.0000
    outer loop
        vertex 2.9680 -0.1000 1.8656
        vertex 4.5800 -0.1000 2.6648
        vertex 2.7560 -0.1000 1.9928
    endloop
endfacet
facet normal 0.0000 -1.7957 0.0000
    outer loop
        vertex 4.5800 -0.1000 2.6648
        vertex 2.9680 -0.1000 1.8656
        vertex 3.1032 -0.1000 1.7544
    endloop
endfacet
facet normal 0.0000 -3.6723 0.0000
    outer loop
        vertex 3.1032 -0.1000 1.7544
        vertex 4.5376 -0.1000 2.2408
        vertex 4.5800 -0.1000 2.6648
    endloop
endfacet
facet normal 0.0000 -2.9801 0.0000
    outer loop
        vertex 4.5376 -0.1000 2.2408
        vertex 3.1032 -0.1000 1.7544
        vertex 4.5176 -0.1000 1.9016
    endloop
endfacet
facet normal 0.0000 -4.1024 0.0000
    outer loop
        vertex 4.4952 -0.1000 1.4352
        vertex 4.5176 -0.1000 1.9016
        vertex 3.1032 -0.1000 1.7544
    endloop
endfacet
facet normal 0.0000 -4.1423 0.0000
    outer loop
        vertex 3.1032 -0.1000 1.7544
        vertex 4.4528 -0.1000 0.9688
        vertex 4.4952 -0.1000 1.4352
    endloop
endfacet
facet normal 0.0000 -4.8576 0.0000
    outer loop
        vertex 4.4104 -0.1000 0.4176
        vertex 4.4528 -0.1000 0.9688
        vertex 3.1032 -0.1000 1.7544
    endloop
endfacet
facet normal 0.0000 -3.1177 0.0000
    outer loop
        vertex 4.4104 -0.1000 0.0360
        vertex 4.4104 -0.1000 0.4176
        vertex 3.1032 -0.1000 1.7544
    endloop
endfacet
facet normal 0.0000 -3.8105 0.0000
    outer loop
        vertex 4.4104 -0.1000 -0.4304
        vertex 4.4104 -0.1000 0.0360
        vertex 3.1032 -0.1000 1.7544
    endloop
endfacet
facet normal 0.0000 -34.3375 0.0000
    outer loop
        vertex 0.1272 -0.1000 3.4000
        vertex 4.5800 -0.1000 2.6648
        vertex 7.6000 -0.1000 3.4000
    endloop
endfacet
facet normal 0.0000 -45.4580 0.0000
    outer loop
        vertex 6.5304 -0.1000 -2.0416
        vertex 7.6000 -0.1000 -3.4000
        vertex 7.6000 -0.1000 3.4000
    endloop
endfacet
facet normal 0.0000 -76.3139 0.0000
    outer loop
        vertex 7.6000 -0.1000 3.4000
        vertex 4.9616 -0.1000 1.3928
        vertex 6.5304 -0.1000 -2.0416
    endloop
endfacet
facet normal 0.0000 -52.1086 0.0000
    outer loop
        vertex 1.1456 -0.1000 -2.3384
        vertex -0.2536 -0.1000 -3.4000
        vertex 7.6000 -0.1000 -3.4000
    endloop
endfacet
facet normal 0.0000 -1.7897 0.0000
    outer loop
        vertex 7.6000 -0.1000 -3.4000
        vertex 1.5272 -0.1000 -2.3568
        vertex 1.1456 -0.1000 -2.3384
    endloop
endfacet
facet normal 0.0000 -0.1461 0.0000
    outer loop
        vertex 0.0432 -0.1000 -2.2536
        vertex -0.0840 -0.1000 -2.3384
        vertex -0.1264 -0.1000 -2.5504
    endloop
endfacet
facet normal 0.0000 -0.4270 0.0000
    outer loop
        vertex -0.1264 -0.1000 -2.5504
        vertex 0.2976 -0.1000 -2.2112
        vertex 0.0432 -0.1000 -2.2536
    endloop
endfacet
facet normal 0.0000 -1.0562 0.0000
    outer loop
        vertex 0.2976 -0.1000 -2.2112
        vertex -0.1264 -0.1000 -2.5504
        vertex -0.2112 -0.1000 -3.0168
    endloop
endfacet
facet normal 0.0000 -2.6180 0.0000
    outer loop
        vertex -0.2112 -0.1000 -3.0168
        vertex 0.7640 -0.1000 -2.2960
        vertex 0.2976 -0.1000 -2.2112
    endloop
endfacet
facet normal 0.0000 -2.1446 0.0000
    outer loop
        vertex 0.7640 -0.1000 -2.2960
        vertex -0.2112 -0.1000 -3.0168
        vertex -0.2536 -0.1000 -3.4000
    endloop
endfacet
facet normal 0.0000 -2.9027 0.0000
    outer loop
        vertex -0.2536 -0.1000 -3.4000
        vertex 1.1456 -0.1000 -2.3384
        vertex 0.7640 -0.1000 -2.2960
    endloop
endfacet
facet normal 0.0000 -2.7038 0.0000
    outer loop
        vertex 1.9512 -0.1000 -2.3584
        vertex 1.5272 -0.1000 -2.3568
        vertex 7.6000 -0.1000 -3.4000
    endloop
endfacet
facet normal 0.0000 -2.6190 0.0000
    outer loop
        vertex 7.6000 -0.1000 -3.4000
        vertex 2.3752 -0.1000 -2.3624
        vertex 1.9512 -0.1000 -2.3584
    endloop
endfacet
facet normal 0.0000 -4.2002 0.0000
    outer loop
        vertex 2.8416 -0.1000 -2.3264
        vertex 2.3752 -0.1000 -2.3624
        vertex 7.6000 -0.1000 -3.4000
    endloop
endfacet
facet normal 0.0000 -4.0336 0.0000
    outer loop
        vertex 7.6000 -0.1000 -3.4000
        vertex 3.3080 -0.1000 -2.2960
        vertex 2.8416 -0.1000 -2.3264
    endloop
endfacet
facet normal 0.0000 -2.6330 0.0000
    outer loop
        vertex 3.6896 -0.1000 -2.2960
        vertex 3.3080 -0.1000 -2.2960
        vertex 7.6000 -0.1000 -3.4000
    endloop
endfacet
facet normal 0.0000 -2.1819 0.0000
    outer loop
        vertex 7.6000 -0.1000 -3.4000
        vertex 4.1560 -0.1000 -2.3384
        vertex 3.6896 -0.1000 -2.2960
    endloop
endfacet
facet normal 0.0000 -2.2680 0.0000
    outer loop
        vertex 4.1560 -0.1000 -2.3384
        vertex 7.6000 -0.1000 -3.4000
        vertex 4.6224 -0.1000 -2.3768
    endloop
endfacet
facet normal 0.0000 -3.7929 0.0000
    outer loop
        vertex 5.1736 -0.1000 -2.3624
        vertex 4.6224 -0.1000 -2.3768
        vertex 7.6000 -0.1000 -3.4000
    endloop
endfacet
facet normal 0.0000 -3.7848 0.0000
    outer loop
        vertex 5.6824 -0.1000 -2.3304
        vertex 5.1736 -0.1000 -2.3624
        vertex 7.6000 -0.1000 -3.4000
    endloop
endfacet
facet normal 0.0000 -3.1880 0.0000
    outer loop
        vertex 6.0216 -0.1000 -2.2536
        vertex 5.6824 -0.1000 -2.3304
        vertex 7.6000 -0.1000 -3.4000
    endloop
endfacet
facet normal 0.0000 -2.6593 0.0000
    outer loop
        vertex 6.2760 -0.1000 -2.1688
        vertex 6.0216 -0.1000 -2.2536
        vertex 7.6000 -0.1000 -3.4000
    endloop
endfacet
facet normal 0.0000 -3.0102 0.0000
    outer loop
        vertex 6.5304 -0.1000 -2.0416
        vertex 6.2760 -0.1000 -2.1688
        vertex 7.6000 -0.1000 -3.4000
    endloop
endfacet
facet normal 0.0000 -4.7613 0.0000
    outer loop
        vertex 7.6000 -0.1000 3.4000
        vertex 4.5800 -0.1000 2.6648
        vertex 4.6632 -0.1000 2.4328
    endloop
endfacet
facet normal 0.0000 -5.6030 0.0000
    outer loop
        vertex 7.6000 -0.1000 3.4000
        vertex 4.6632 -0.1000 2.4328
        vertex 4.7496 -0.1000 2.1560
    endloop
endfacet
facet normal 0.0000 -5.1915 0.0000
    outer loop
        vertex 4.7496 -0.1000 2.1560
        vertex 4.8344 -0.1000 1.9016
        vertex 7.6000 -0.1000 3.4000
    endloop
endfacet
facet normal 0.0000 -4.7270 0.0000
    outer loop
        vertex 4.9192 -0.1000 1.6472
        vertex 4.9616 -0.1000 1.3928
        vertex 7.6000 -0.1000 3.4000
    endloop
endfacet
facet normal 0.0000 -5.1915 0.0000
    outer loop
        vertex 4.8344 -0.1000 1.9016
        vertex 4.9192 -0.1000 1.6472
        vertex 7.6000 -0.1000 3.4000
    endloop
endfacet
facet normal 0.0000 -3.4045 0.0000
    outer loop
        vertex 6.5304 -0.1000 -2.0416
        vertex 4.9616 -0.1000 1.3928
        vertex 4.9192 -0.1000 1.1384
    endloop
endfacet
facet normal 0.0000 -4.2023 0.0000
    outer loop
        vertex 4.9192 -0.1000 1.1384
        vertex 6.2760 -0.1000 -1.9568
        vertex 6.5304 -0.1000 -2.0416
    endloop
endfacet
facet normal 0.0000 -5.5955 0.0000
    outer loop
        vertex 6.2760 -0.1000 -1.9568
        vertex 4.9192 -0.1000 1.1384
        vertex 4.8344 -0.1000 0.6720
    endloop
endfacet
facet normal 0.0000 -3.7821 0.0000
    outer loop
        vertex 4.8344 -0.1000 0.6720
        vertex 5.9936 -0.1000 -1.8616
        vertex 6.2760 -0.1000 -1.9568
    endloop
endfacet
facet normal 0.0000 -3.7433 0.0000
    outer loop
        vertex 5.9936 -0.1000 -1.8616
        vertex 4.8344 -0.1000 0.6720
        vertex 4.7920 -0.1000 0.2480
    endloop
endfacet
facet normal 0.0000 -4.1035 0.0000
    outer loop
        vertex 4.7920 -0.1000 0.2480
        vertex 5.6400 -0.1000 -1.7872
        vertex 5.9936 -0.1000 -1.8616
    endloop
endfacet
facet normal 0.0000 -2.2472 0.0000
    outer loop
        vertex 5.6400 -0.1000 -1.7872
        vertex 4.7920 -0.1000 0.2480
        vertex 4.7920 -0.1000 -0.1760
    endloop
endfacet
facet normal 0.0000 -2.0450 0.0000
    outer loop
        vertex 4.7920 -0.1000 -0.1760
        vertex 4.8344 -0.1000 -0.6424
        vertex 5.6400 -0.1000 -1.7872
    endloop
endfacet
facet normal 0.0000 -1.6180 0.0000
    outer loop
        vertex 5.6400 -0.1000 -1.7872
        vertex 4.8344 -0.1000 -0.6424
        vertex 4.8768 -0.1000 -1.0240
    endloop
endfacet
facet normal 0.0000 -1.4653 0.0000
    outer loop
        vertex 4.8768 -0.1000 -1.0240
        vertex 5.2584 -0.1000 -1.7128
        vertex 5.6400 -0.1000 -1.7872
    endloop
endfacet
facet normal 0.0000 -0.5451 0.0000
    outer loop
        vertex 5.2584 -0.1000 -1.7128
        vertex 4.8768 -0.1000 -1.0240
        vertex 4.9616 -0.1000 -1.4056
    endloop
endfacet
facet normal 0.0000 -0.1552 0.0000
    outer loop
        vertex 4.9616 -0.1000 -1.4056
        vertex 5.0624 -0.1000 -1.5936
        vertex 5.2584 -0.1000 -1.7128
    endloop
endfacet
endsolid GiantLegoRocks
