solid GiantLegoRocks
facet normal 0.0000 0.7500 0.0000
    outer loop
        vertex 7.6000 0.0000 11.6000
        vertex 7.6000 0.0000 -11.6000
        vertex -7.6000 0.0000 -11.6000
    endloop
endfacet
facet normal 0.0000 0.7500 0.0000
    outer loop
        vertex -7.6000 0.0000 -11.6000
        vertex -7.6000 0.0000 11.6000
        vertex 7.6000 0.0000 11.6000
    endloop
endfacet
facet normal 0.0000 -0.2500 58.0000
    outer loop
        vertex -7.6000 -0.1000 11.6000
        vertex 7.6000 -0.1000 11.6000
        vertex 7.6000 0.0000 11.6000
    endloop
endfacet
facet normal 0.0000 -0.2500 58.0000
    outer loop
        vertex 7.6000 0.0000 11.6000
        vertex -7.6000 0.0000 11.6000
        vertex -7.6000 -0.1000 11.6000
    endloop
endfacet
facet normal -38.0000 -0.2500 0.0000
    outer loop
        vertex -7.6000 -0.1000 -11.6000
        vertex -7.6000 -0.1000 11.6000
        vertex -7.6000 0.0000 11.6000
    endloop
endfacet
facet normal -38.0000 -0.2500 0.0000
    outer loop
        vertex -7.6000 0.0000 11.6000
        vertex -7.6000 0.0000 -11.6000
        vertex -7.6000 -0.1000 -11.6000
    endloop
endfacet
facet normal 0.0000 -0.2500 -58.0000
    outer loop
        vertex 7.6000 -0.1000 -11.6000
        vertex -7.6000 -0.1000 -11.6000
        vertex -7.6000 0.0000 -11.6000
    endloop
endfacet
facet normal 0.0000 -0.2500 -58.0000
    outer loop
        vertex -7.6000 0.0000 -11.6000
        vertex 7.6000 0.0000 -11.6000
        vertex 7.6000 -0.1000 -11.6000
    endloop
endfacet
facet normal 38.0000 -0.2500 0.0000
    outer loop
        vertex 7.6000 -0.1000 11.6000
        vertex 7.6000 -0.1000 -11.6000
        vertex 7.6000 0.0000 -11.6000
    endloop
endfacet
facet normal 38.0000 -0.2500 0.0000
    outer loop
        vertex 7.6000 0.0000 -11.6000
        vertex 7.6000 0.0000 11.6000
        vertex 7.6000 -0.1000 11.6000
    endloop
endfacet
facet normal 0.0000 -722.0000 0.0000
    outer loop
        vertex 7.6000 -0.1000 -4.0000
        vertex -7.6000 -0.1000 -4.0000
        vertex -7.6000 -0.1000 -11.6000
    endloop
endfacet
facet normal 0.0000 -722.0000 0.0000
    outer loop
        vertex -7.6000 -0.1000 -11.6000
        vertex 7.6000 -0.1000 -11.6000
        vertex 7.6000 -0.1000 -4.0000
    endloop
endfacet
facet normal 0.0000 -1482.0000 0.0000
    outer loop
        vertex 7.6000 -0.1000 11.6000
        vertex -7.6000 -0.1000 11.6000
        vertex -7.6000 -0.1000 -4.0000
    endloop
endfacet
facet normal 0.0000 -1482.0000 0.0000
    outer loop
        vertex -7.6000 -0.1000 -4.0000
        vertex 7.6000 -0.1000 -4.0000
        vertex 7.6000 -0.1000 11.6000
    endloop
endfacet
endsolid GiantLegoRocks
