solid GiantLegoRocks
facet normal 0.0000 0.7500 0.0000
    outer loop
        vertex 8.0000 0.0000 -3.2000
        vertex -8.0000 0.0000 -3.2000
        vertex -8.0000 0.0000 3.2000
    endloop
endfacet
facet normal 0.0000 0.7500 0.0000
    outer loop
        vertex -8.0000 0.0000 3.2000
        vertex 8.0000 0.0000 3.2000
        vertex 8.0000 0.0000 -3.2000
    endloop
endfacet
facet normal 40.0000 -0.2500 0.0000
    outer loop
        vertex 8.0000 -0.1000 3.2000
        vertex 8.0000 -0.1000 -3.2000
        vertex 8.0000 0.0000 -3.2000
    endloop
endfacet
facet normal 40.0000 -0.2500 0.0000
    outer loop
        vertex 8.0000 0.0000 -3.2000
        vertex 8.0000 0.0000 3.2000
        vertex 8.0000 -0.1000 3.2000
    endloop
endfacet
facet normal 0.0000 -0.2500 16.0000
    outer loop
        vertex -8.0000 -0.1000 3.2000
        vertex 8.0000 -0.1000 3.2000
        vertex 8.0000 0.0000 3.2000
    endloop
endfacet
facet normal 0.0000 -0.2500 16.0000
    outer loop
        vertex 8.0000 0.0000 3.2000
        vertex -8.0000 0.0000 3.2000
        vertex -8.0000 -0.1000 3.2000
    endloop
endfacet
facet normal -40.0000 -0.2500 0.0000
    outer loop
        vertex -8.0000 -0.1000 -3.2000
        vertex -8.0000 -0.1000 3.2000
        vertex -8.0000 0.0000 3.2000
    endloop
endfacet
facet normal -40.0000 -0.2500 0.0000
    outer loop
        vertex -8.0000 0.0000 3.2000
        vertex -8.0000 0.0000 -3.2000
        vertex -8.0000 -0.1000 -3.2000
    endloop
endfacet
facet normal 0.0000 -0.2500 -16.0000
    outer loop
        vertex 8.0000 -0.1000 -3.2000
        vertex -8.0000 -0.1000 -3.2000
        vertex -8.0000 0.0000 -3.2000
    endloop
endfacet
facet normal 0.0000 -0.2500 -16.0000
    outer loop
        vertex -8.0000 0.0000 -3.2000
        vertex 8.0000 0.0000 -3.2000
        vertex 8.0000 -0.1000 -3.2000
    endloop
endfacet
facet normal 0.0000 -152.0000 0.0000
    outer loop
        vertex 8.0000 -0.1000 -3.2000
        vertex 8.0000 -0.1000 -1.6800
        vertex -8.0000 -0.1000 -1.6800
    endloop
endfacet
facet normal 0.0000 -152.0000 0.0000
    outer loop
        vertex -8.0000 -0.1000 -1.6800
        vertex -8.0000 -0.1000 -3.2000
        vertex 8.0000 -0.1000 -3.2000
    endloop
endfacet
facet normal 0.0000 -152.0000 0.0000
    outer loop
        vertex 8.0000 -0.1000 1.6800
        vertex 8.0000 -0.1000 3.2000
        vertex -8.0000 -0.1000 3.2000
    endloop
endfacet
facet normal 0.0000 -152.0000 0.0000
    outer loop
        vertex -8.0000 -0.1000 3.2000
        vertex -8.0000 -0.1000 1.6800
        vertex 8.0000 -0.1000 1.6800
    endloop
endfacet
facet normal 0.0000 -336.0000 0.0000
    outer loop
        vertex 8.0000 -0.1000 1.6800
        vertex -8.0000 -0.1000 1.6800
        vertex -8.0000 -0.1000 -1.6800
    endloop
endfacet
facet normal 0.0000 -336.0000 0.0000
    outer loop
        vertex -8.0000 -0.1000 -1.6800
        vertex 8.0000 -0.1000 -1.6800
        vertex 8.0000 -0.1000 1.6800
    endloop
endfacet
endsolid GiantLegoRocks
