solid GiantLegoRocks
facet normal 0.0000 0.7500 0.0000
    outer loop
        vertex 11.6000 0.0000 3.2000
        vertex 11.6000 0.0000 -3.2000
        vertex -11.6000 0.0000 -3.2000
    endloop
endfacet
facet normal 0.0000 0.7500 0.0000
    outer loop
        vertex -11.6000 0.0000 -3.2000
        vertex -11.6000 0.0000 3.2000
        vertex 11.6000 0.0000 3.2000
    endloop
endfacet
facet normal 0.0000 -0.2500 16.0000
    outer loop
        vertex -11.6000 -0.1000 3.2000
        vertex 11.6000 -0.1000 3.2000
        vertex 11.6000 0.0000 3.2000
    endloop
endfacet
facet normal 0.0000 -0.2500 16.0000
    outer loop
        vertex 11.6000 0.0000 3.2000
        vertex -11.6000 0.0000 3.2000
        vertex -11.6000 -0.1000 3.2000
    endloop
endfacet
facet normal -58.0000 -0.2500 0.0000
    outer loop
        vertex -11.6000 -0.1000 -3.2000
        vertex -11.6000 -0.1000 3.2000
        vertex -11.6000 0.0000 3.2000
    endloop
endfacet
facet normal -58.0000 -0.2500 0.0000
    outer loop
        vertex -11.6000 0.0000 3.2000
        vertex -11.6000 0.0000 -3.2000
        vertex -11.6000 -0.1000 -3.2000
    endloop
endfacet
facet normal 0.0000 -0.2500 -16.0000
    outer loop
        vertex 11.6000 -0.1000 -3.2000
        vertex -11.6000 -0.1000 -3.2000
        vertex -11.6000 0.0000 -3.2000
    endloop
endfacet
facet normal 0.0000 -0.2500 -16.0000
    outer loop
        vertex -11.6000 0.0000 -3.2000
        vertex 11.6000 0.0000 -3.2000
        vertex 11.6000 -0.1000 -3.2000
    endloop
endfacet
facet normal 58.0000 -0.2500 0.0000
    outer loop
        vertex 11.6000 -0.1000 3.2000
        vertex 11.6000 -0.1000 -3.2000
        vertex 11.6000 0.0000 -3.2000
    endloop
endfacet
facet normal 58.0000 -0.2500 0.0000
    outer loop
        vertex 11.6000 0.0000 -3.2000
        vertex 11.6000 0.0000 3.2000
        vertex 11.6000 -0.1000 3.2000
    endloop
endfacet
facet normal 0.0000 -1.2724 0.0000
    outer loop
        vertex -11.6000 -0.1000 3.2000
        vertex -10.5040 -0.1000 2.4320
        vertex -10.2960 -0.1000 2.4720
    endloop
endfacet
facet normal 0.0000 -1.6476 0.0000
    outer loop
        vertex -11.6000 -0.1000 3.2000
        vertex -10.6760 -0.1000 2.3120
        vertex -10.5040 -0.1000 2.4320
    endloop
endfacet
facet normal 0.0000 -1.6593 0.0000
    outer loop
        vertex -11.6000 -0.1000 3.2000
        vertex -10.7960 -0.1000 2.1400
        vertex -10.6760 -0.1000 2.3120
    endloop
endfacet
facet normal 0.0000 -1.3102 0.0000
    outer loop
        vertex -11.6000 -0.1000 3.2000
        vertex -10.8360 -0.1000 1.9320
        vertex -10.7960 -0.1000 2.1400
    endloop
endfacet
facet normal 0.0000 -105.5600 0.0000
    outer loop
        vertex 10.2960 -0.1000 2.4720
        vertex 11.6000 -0.1000 3.2000
        vertex -11.6000 -0.1000 3.2000
    endloop
endfacet
facet normal 0.0000 -93.6936 0.0000
    outer loop
        vertex -11.6000 -0.1000 3.2000
        vertex -10.2960 -0.1000 2.4720
        vertex 10.2960 -0.1000 2.4720
    endloop
endfacet
facet normal 0.0000 -1.2724 0.0000
    outer loop
        vertex 11.6000 -0.1000 3.2000
        vertex 10.2960 -0.1000 2.4720
        vertex 10.5040 -0.1000 2.4320
    endloop
endfacet
facet normal 0.0000 -1.6476 0.0000
    outer loop
        vertex 11.6000 -0.1000 3.2000
        vertex 10.5040 -0.1000 2.4320
        vertex 10.6760 -0.1000 2.3120
    endloop
endfacet
facet normal 0.0000 -1.6593 0.0000
    outer loop
        vertex 11.6000 -0.1000 3.2000
        vertex 10.6760 -0.1000 2.3120
        vertex 10.7960 -0.1000 2.1400
    endloop
endfacet
facet normal 0.0000 -1.3102 0.0000
    outer loop
        vertex 11.6000 -0.1000 3.2000
        vertex 10.7960 -0.1000 2.1400
        vertex 10.8360 -0.1000 1.9320
    endloop
endfacet
facet normal 0.0000 -1.3102 0.0000
    outer loop
        vertex 10.8360 -0.1000 -1.9320
        vertex 10.7960 -0.1000 -2.1400
        vertex 11.6000 -0.1000 -3.2000
    endloop
endfacet
facet normal 0.0000 -1.6593 0.0000
    outer loop
        vertex 10.7960 -0.1000 -2.1400
        vertex 10.6760 -0.1000 -2.3120
        vertex 11.6000 -0.1000 -3.2000
    endloop
endfacet
facet normal 0.0000 -1.6476 0.0000
    outer loop
        vertex 10.6760 -0.1000 -2.3120
        vertex 10.5040 -0.1000 -2.4320
        vertex 11.6000 -0.1000 -3.2000
    endloop
endfacet
facet normal 0.0000 -1.2724 0.0000
    outer loop
        vertex 10.5040 -0.1000 -2.4320
        vertex 10.2960 -0.1000 -2.4720
        vertex 11.6000 -0.1000 -3.2000
    endloop
endfacet
facet normal 0.0000 -105.5600 0.0000
    outer loop
        vertex -11.6000 -0.1000 -3.2000
        vertex 11.6000 -0.1000 -3.2000
        vertex 10.2960 -0.1000 -2.4720
    endloop
endfacet
facet normal 0.0000 -93.6936 0.0000
    outer loop
        vertex 10.2960 -0.1000 -2.4720
        vertex -10.2960 -0.1000 -2.4720
        vertex -11.6000 -0.1000 -3.2000
    endloop
endfacet
facet normal 0.0000 -1.2724 0.0000
    outer loop
        vertex -10.5040 -0.1000 -2.4320
        vertex -11.6000 -0.1000 -3.2000
        vertex -10.2960 -0.1000 -2.4720
    endloop
endfacet
facet normal 0.0000 -1.6476 0.0000
    outer loop
        vertex -10.6760 -0.1000 -2.3120
        vertex -11.6000 -0.1000 -3.2000
        vertex -10.5040 -0.1000 -2.4320
    endloop
endfacet
facet normal 0.0000 -1.6593 0.0000
    outer loop
        vertex -10.7960 -0.1000 -2.1400
        vertex -11.6000 -0.1000 -3.2000
        vertex -10.6760 -0.1000 -2.3120
    endloop
endfacet
facet normal 0.0000 -1.3102 0.0000
    outer loop
        vertex -10.8360 -0.1000 -1.9320
        vertex -11.6000 -0.1000 -3.2000
        vertex -10.7960 -0.1000 -2.1400
    endloop
endfacet
facet normal 0.0000 -18.4506 0.0000
    outer loop
        vertex -10.8360 -0.1000 -1.9320
        vertex -10.8360 -0.1000 1.9320
        vertex -11.6000 -0.1000 3.2000
    endloop
endfacet
facet normal 0.0000 -30.5600 0.0000
    outer loop
        vertex -11.6000 -0.1000 3.2000
        vertex -11.6000 -0.1000 -3.2000
        vertex -10.8360 -0.1000 -1.9320
    endloop
endfacet
facet normal 0.0000 -18.4506 0.0000
    outer loop
        vertex 10.8360 -0.1000 1.9320
        vertex 10.8360 -0.1000 -1.9320
        vertex 11.6000 -0.1000 -3.2000
    endloop
endfacet
facet normal 0.0000 -30.5600 0.0000
    outer loop
        vertex 11.6000 -0.1000 -3.2000
        vertex 11.6000 -0.1000 3.2000
        vertex 10.8360 -0.1000 1.9320
    endloop
endfacet
facet normal 0.0000 -6.9650 0.0000
    outer loop
        vertex 0.0000 -0.1000 -2.3240
        vertex 0.5040 -0.1000 -1.6240
        vertex -1.0880 -0.1000 -1.6240
    endloop
endfacet
facet normal 0.0000 -2.6600 0.0000
    outer loop
        vertex 0.0000 -0.1000 -2.3240
        vertex -1.0880 -0.1000 -1.6240
        vertex -1.6960 -0.1000 -1.6240
    endloop
endfacet
facet normal 0.0000 -9.3625 0.0000
    outer loop
        vertex 0.0000 -0.1000 -2.3240
        vertex -1.6960 -0.1000 -1.6240
        vertex -3.8360 -0.1000 -1.6240
    endloop
endfacet
facet normal 0.0000 -2.0140 0.0000
    outer loop
        vertex 0.0000 -0.1000 2.3240
        vertex -1.4680 -0.1000 1.4760
        vertex -1.0880 -0.1000 1.4760
    endloop
endfacet
facet normal 0.0000 -8.4376 0.0000
    outer loop
        vertex 0.0000 -0.1000 2.3240
        vertex -1.0880 -0.1000 1.4760
        vertex 0.5040 -0.1000 1.4760
    endloop
endfacet
facet normal 0.0000 -4.0704 0.0000
    outer loop
        vertex -5.5160 -0.1000 1.4760
        vertex -4.7480 -0.1000 1.4760
        vertex 0.0000 -0.1000 2.3240
    endloop
endfacet
facet normal 0.0000 -54.5688 0.0000
    outer loop
        vertex 0.0000 -0.1000 2.3240
        vertex -10.2960 -0.1000 2.3240
        vertex -5.5160 -0.1000 1.4760
    endloop
endfacet
facet normal 0.0000 -2.8328 0.0000
    outer loop
        vertex -1.7280 -0.1000 0.7160
        vertex -1.9200 -0.1000 0.5920
        vertex -1.6960 -0.1000 -1.6240
    endloop
endfacet
facet normal 0.0000 -0.4680 0.0000
    outer loop
        vertex -1.6960 -0.1000 0.7160
        vertex -1.7280 -0.1000 0.7160
        vertex -1.6960 -0.1000 -1.6240
    endloop
endfacet
facet normal 0.0000 -2.7214 0.0000
    outer loop
        vertex -1.9200 -0.1000 0.5920
        vertex -2.1080 -0.1000 0.5080
        vertex -1.6960 -0.1000 -1.6240
    endloop
endfacet
facet normal 0.0000 -3.2786 0.0000
    outer loop
        vertex -2.1080 -0.1000 0.5080
        vertex -2.3440 -0.1000 0.4560
        vertex -1.6960 -0.1000 -1.6240
    endloop
endfacet
facet normal 0.0000 -6.0672 0.0000
    outer loop
        vertex -5.5160 -0.1000 1.4760
        vertex -5.5240 -0.1000 0.2120
        vertex -4.7480 -0.1000 1.4760
    endloop
endfacet
facet normal 0.0000 -7.2292 0.0000
    outer loop
        vertex -7.5920 -0.1000 1.4760
        vertex -6.2280 -0.1000 1.4760
        vertex -10.2960 -0.1000 2.3240
    endloop
endfacet
facet normal 0.0000 -8.2680 0.0000
    outer loop
        vertex -10.2960 -0.1000 2.3240
        vertex -9.1520 -0.1000 1.4760
        vertex -7.5920 -0.1000 1.4760
    endloop
endfacet
facet normal 0.0000 -1.7052 0.0000
    outer loop
        vertex -1.6000 -0.1000 1.3640
        vertex -1.4680 -0.1000 1.4760
        vertex -3.9040 -0.1000 1.4760
    endloop
endfacet
facet normal 0.0000 -1.8533 0.0000
    outer loop
        vertex -3.9040 -0.1000 1.4760
        vertex -2.1200 -0.1000 1.1040
        vertex -1.8600 -0.1000 1.2160
    endloop
endfacet
facet normal 0.0000 -2.3132 0.0000
    outer loop
        vertex -1.8600 -0.1000 1.2160
        vertex -1.6000 -0.1000 1.3640
        vertex -3.9040 -0.1000 1.4760
    endloop
endfacet
facet normal 0.0000 -1.2344 0.0000
    outer loop
        vertex -2.3440 -0.1000 1.0400
        vertex -2.1200 -0.1000 1.1040
        vertex -3.9040 -0.1000 1.4760
    endloop
endfacet
facet normal 0.0000 -3.2760 0.0000
    outer loop
        vertex 8.1200 -0.1000 0.5920
        vertex 8.3440 -0.1000 -1.6240
        vertex 8.3440 -0.1000 0.7160
    endloop
endfacet
facet normal 0.0000 -0.0248 0.0000
    outer loop
        vertex 8.3440 -0.1000 0.7160
        vertex 8.3120 -0.1000 0.7160
        vertex 8.1200 -0.1000 0.5920
    endloop
endfacet
facet normal 0.0000 -1.9775 0.0000
    outer loop
        vertex 0.0000 -0.1000 -2.3240
        vertex 0.9560 -0.1000 -1.6240
        vertex 0.5040 -0.1000 -1.6240
    endloop
endfacet
facet normal 0.0000 -2.6600 0.0000
    outer loop
        vertex 8.9520 -0.1000 -1.6240
        vertex 8.3440 -0.1000 -1.6240
        vertex 10.2960 -0.1000 -2.3240
    endloop
endfacet
facet normal 0.0000 -0.9002 0.0000
    outer loop
        vertex 10.2960 -0.1000 -2.3240
        vertex 10.4480 -0.1000 -2.2960
        vertex 8.9520 -0.1000 -1.6240
    endloop
endfacet
facet normal 0.0000 -2.7214 0.0000
    outer loop
        vertex 8.3440 -0.1000 -1.6240
        vertex 8.1200 -0.1000 0.5920
        vertex 7.9320 -0.1000 0.5080
    endloop
endfacet
facet normal 0.0000 -3.2786 0.0000
    outer loop
        vertex 7.9320 -0.1000 0.5080
        vertex 7.6960 -0.1000 0.4560
        vertex 8.3440 -0.1000 -1.6240
    endloop
endfacet
facet normal 0.0000 -0.1896 0.0000
    outer loop
        vertex 4.4440 -0.1000 0.5840
        vertex 4.3800 -0.1000 0.8120
        vertex 4.2200 -0.1000 0.9080
    endloop
endfacet
facet normal 0.0000 -0.3840 0.0000
    outer loop
        vertex 4.2200 -0.1000 0.9080
        vertex 4.4120 -0.1000 0.3560
        vertex 4.4440 -0.1000 0.5840
    endloop
endfacet
facet normal 0.0000 -0.0599 0.0000
    outer loop
        vertex 8.1800 -0.1000 1.2160
        vertex 8.4400 -0.1000 1.3640
        vertex 8.5720 -0.1000 1.4760
    endloop
endfacet
facet normal 0.0000 -0.2600 0.0000
    outer loop
        vertex 8.5720 -0.1000 1.4760
        vertex 7.6960 -0.1000 1.0400
        vertex 7.9200 -0.1000 1.1040
    endloop
endfacet
facet normal 0.0000 -0.1481 0.0000
    outer loop
        vertex 7.9200 -0.1000 1.1040
        vertex 8.1800 -0.1000 1.2160
        vertex 8.5720 -0.1000 1.4760
    endloop
endfacet
facet normal 0.0000 -2.0140 0.0000
    outer loop
        vertex 10.2960 -0.1000 2.3240
        vertex 8.5720 -0.1000 1.4760
        vertex 8.9520 -0.1000 1.4760
    endloop
endfacet
facet normal 0.0000 -1.0408 0.0000
    outer loop
        vertex 8.9520 -0.1000 1.4760
        vertex 10.4480 -0.1000 2.2960
        vertex 10.2960 -0.1000 2.3240
    endloop
endfacet
facet normal 0.0000 -6.3388 0.0000
    outer loop
        vertex 7.3760 -0.1000 1.4760
        vertex 8.5720 -0.1000 1.4760
        vertex 10.2960 -0.1000 2.3240
    endloop
endfacet
facet normal 0.0000 -11.3420 0.0000
    outer loop
        vertex 10.2960 -0.1000 2.3240
        vertex 5.2360 -0.1000 1.4760
        vertex 7.3760 -0.1000 1.4760
    endloop
endfacet
facet normal 0.0000 -1.3934 0.0000
    outer loop
        vertex 0.9560 -0.1000 1.4760
        vertex 3.5360 -0.1000 1.3840
        vertex 3.8280 -0.1000 1.4600
    endloop
endfacet
facet normal 0.0000 -0.2318 0.0000
    outer loop
        vertex 0.6080 -0.1000 -1.0960
        vertex 0.8520 -0.1000 -1.0960
        vertex 1.0760 -0.1000 -0.9440
    endloop
endfacet
facet normal 0.0000 -0.6498 0.0000
    outer loop
        vertex 1.0760 -0.1000 -0.9440
        vertex 0.3920 -0.1000 -0.9440
        vertex 0.6080 -0.1000 -1.0960
    endloop
endfacet
facet normal 0.0000 -7.8469 0.0000
    outer loop
        vertex 3.3080 -0.1000 -0.7160
        vertex 3.2440 -0.1000 0.6480
        vertex 2.4080 -0.1000 -1.1520
    endloop
endfacet
facet normal 0.0000 -0.7682 0.0000
    outer loop
        vertex 2.4080 -0.1000 -1.1520
        vertex 2.5000 -0.1000 -1.2440
        vertex 3.3080 -0.1000 -0.7160
    endloop
endfacet
facet normal 0.0000 -1.8415 0.0000
    outer loop
        vertex 2.1520 -0.1000 -1.1520
        vertex 1.8680 -0.1000 -0.3880
        vertex 1.6920 -0.1000 -0.9520
    endloop
endfacet
facet normal 0.0000 -0.3795 0.0000
    outer loop
        vertex 1.6920 -0.1000 -0.9520
        vertex 2.0600 -0.1000 -1.2440
        vertex 2.1520 -0.1000 -1.1520
    endloop
endfacet
facet normal 0.0000 -2.3880 0.0000
    outer loop
        vertex 0.0880 -0.1000 -1.3840
        vertex -1.0880 -0.1000 -1.6240
        vertex 0.5040 -0.1000 -1.6240
    endloop
endfacet
facet normal 0.0000 -2.7993 0.0000
    outer loop
        vertex 1.2440 -0.1000 -0.6560
        vertex 1.3320 -0.1000 -0.2840
        vertex 0.1280 -0.1000 -0.2840
    endloop
endfacet
facet normal 0.0000 -2.3901 0.0000
    outer loop
        vertex 0.1280 -0.1000 -0.2840
        vertex 0.2160 -0.1000 -0.6560
        vertex 1.2440 -0.1000 -0.6560
    endloop
endfacet
facet normal 0.0000 -3.0401 0.0000
    outer loop
        vertex 0.1280 -0.1000 0.1200
        vertex 0.1280 -0.1000 -0.2840
        vertex 1.3320 -0.1000 -0.2840
    endloop
endfacet
facet normal 0.0000 -3.0401 0.0000
    outer loop
        vertex 1.3320 -0.1000 -0.2840
        vertex 1.3320 -0.1000 0.1200
        vertex 0.1280 -0.1000 0.1200
    endloop
endfacet
facet normal 0.0000 -3.6552 0.0000
    outer loop
        vertex -0.2320 -0.1000 -0.9520
        vertex -1.0880 -0.1000 -1.6240
        vertex 0.0880 -0.1000 -1.3840
    endloop
endfacet
facet normal 0.0000 -3.7398 0.0000
    outer loop
        vertex -0.4040 -0.1000 -0.3880
        vertex -1.0880 -0.1000 -1.6240
        vertex -0.2320 -0.1000 -0.9520
    endloop
endfacet
facet normal 0.0000 -13.2525 0.0000
    outer loop
        vertex -0.4040 -0.1000 0.2240
        vertex -1.0880 -0.1000 1.4760
        vertex -1.0880 -0.1000 -1.6240
    endloop
endfacet
facet normal 0.0000 -2.6163 0.0000
    outer loop
        vertex -1.0880 -0.1000 -1.6240
        vertex -0.4040 -0.1000 -0.3880
        vertex -0.4040 -0.1000 0.2240
    endloop
endfacet
facet normal 0.0000 -3.7570 0.0000
    outer loop
        vertex -1.0880 -0.1000 1.4760
        vertex -0.4040 -0.1000 0.2240
        vertex -0.2320 -0.1000 0.7880
    endloop
endfacet
facet normal 0.0000 -3.6872 0.0000
    outer loop
        vertex -1.0880 -0.1000 1.4760
        vertex -0.2320 -0.1000 0.7880
        vertex 0.0880 -0.1000 1.2200
    endloop
endfacet
facet normal 0.0000 -2.5472 0.0000
    outer loop
        vertex -1.0880 -0.1000 1.4760
        vertex 0.0880 -0.1000 1.2200
        vertex 0.5040 -0.1000 1.4760
    endloop
endfacet
facet normal 0.0000 -0.6960 0.0000
    outer loop
        vertex 7.3760 -0.1000 1.4760
        vertex 7.3760 -0.1000 1.1280
        vertex 7.6960 -0.1000 1.0400
    endloop
endfacet
facet normal 0.0000 -3.2591 0.0000
    outer loop
        vertex 7.6960 -0.1000 1.0400
        vertex 8.5720 -0.1000 1.4760
        vertex 7.3760 -0.1000 1.4760
    endloop
endfacet
facet normal 0.0000 -4.2000 0.0000
    outer loop
        vertex 7.3760 -0.1000 1.1280
        vertex 6.8560 -0.1000 0.1200
        vertex 7.6960 -0.1000 0.4560
    endloop
endfacet
facet normal 0.0000 -1.1680 0.0000
    outer loop
        vertex 7.6960 -0.1000 0.4560
        vertex 7.6960 -0.1000 1.0400
        vertex 7.3760 -0.1000 1.1280
    endloop
endfacet
facet normal 0.0000 -8.4482 0.0000
    outer loop
        vertex 6.6000 -0.1000 -0.5280
        vertex 6.4360 -0.1000 -1.2000
        vertex 8.3440 -0.1000 -1.6240
    endloop
endfacet
facet normal 0.0000 -18.2332 0.0000
    outer loop
        vertex 8.3440 -0.1000 -1.6240
        vertex 7.6960 -0.1000 0.4560
        vertex 6.6000 -0.1000 -0.5280
    endloop
endfacet
facet normal 0.0000 -1.4874 0.0000
    outer loop
        vertex 3.1160 -0.1000 -1.1360
        vertex 3.3080 -0.1000 -0.7160
        vertex 2.5000 -0.1000 -1.2440
    endloop
endfacet
facet normal 0.0000 -0.5144 0.0000
    outer loop
        vertex 2.5000 -0.1000 -1.2440
        vertex 2.5320 -0.1000 -1.3720
        vertex 3.1160 -0.1000 -1.1360
    endloop
endfacet
facet normal 0.0000 -2.0933 0.0000
    outer loop
        vertex 4.9640 -0.1000 0.0320
        vertex 4.7040 -0.1000 -0.2600
        vertex 5.1280 -0.1000 -1.0720
    endloop
endfacet
facet normal 0.0000 -4.9429 0.0000
    outer loop
        vertex 5.1280 -0.1000 -1.0720
        vertex 5.8200 -0.1000 -0.9080
        vertex 4.9640 -0.1000 0.0320
    endloop
endfacet
facet normal 0.0000 -5.2386 0.0000
    outer loop
        vertex 5.1280 -0.1000 -1.0720
        vertex 4.7040 -0.1000 -0.2600
        vertex 3.9600 -0.1000 -0.8120
    endloop
endfacet
facet normal 0.0000 -1.6453 0.0000
    outer loop
        vertex 3.9600 -0.1000 -0.8120
        vertex 3.8280 -0.1000 -1.0080
        vertex 5.1280 -0.1000 -1.0720
    endloop
endfacet
facet normal 0.0000 -0.5200 0.0000
    outer loop
        vertex 3.8280 -0.1000 -1.0080
        vertex 3.8280 -0.1000 -1.0720
        vertex 5.1280 -0.1000 -1.0720
    endloop
endfacet
facet normal 0.0000 -45.0450 0.0000
    outer loop
        vertex 0.0000 -0.1000 -2.3240
        vertex 10.2960 -0.1000 -2.3240
        vertex 5.6560 -0.1000 -1.6240
    endloop
endfacet
facet normal 0.0000 -2.3100 0.0000
    outer loop
        vertex 5.6560 -0.1000 -1.6240
        vertex 5.1280 -0.1000 -1.6240
        vertex 0.0000 -0.1000 -2.3240
    endloop
endfacet
facet normal 0.0000 -0.4200 0.0000
    outer loop
        vertex 3.1160 -0.1000 -1.1360
        vertex 2.5320 -0.1000 -1.3720
        vertex 2.5000 -0.1000 -1.5000
    endloop
endfacet
facet normal 0.0000 -1.8060 0.0000
    outer loop
        vertex 2.5000 -0.1000 -1.5000
        vertex 3.0840 -0.1000 -1.6240
        vertex 3.1160 -0.1000 -1.1360
    endloop
endfacet
facet normal 0.0000 -13.2646 0.0000
    outer loop
        vertex 1.8680 -0.1000 0.2240
        vertex 2.4080 -0.1000 -1.1520
        vertex 3.2440 -0.1000 0.6480
    endloop
endfacet
facet normal 0.0000 -5.3168 0.0000
    outer loop
        vertex 3.2440 -0.1000 0.6480
        vertex 1.6920 -0.1000 0.7880
        vertex 1.8680 -0.1000 0.2240
    endloop
endfacet
facet normal 0.0000 -3.9104 0.0000
    outer loop
        vertex 1.3720 -0.1000 1.2200
        vertex 1.6920 -0.1000 0.7880
        vertex 3.2440 -0.1000 0.6480
    endloop
endfacet
facet normal 0.0000 -6.8328 0.0000
    outer loop
        vertex 3.2440 -0.1000 0.6480
        vertex 3.2440 -0.1000 1.2320
        vertex 1.3720 -0.1000 1.2200
    endloop
endfacet
facet normal 0.0000 -3.5753 0.0000
    outer loop
        vertex 4.2200 -0.1000 0.9080
        vertex 3.5680 -0.1000 -0.4240
        vertex 4.2520 -0.1000 0.0960
    endloop
endfacet
facet normal 0.0000 -0.8640 0.0000
    outer loop
        vertex 4.2520 -0.1000 0.0960
        vertex 4.4120 -0.1000 0.3560
        vertex 4.2200 -0.1000 0.9080
    endloop
endfacet
facet normal 0.0000 -0.1760 0.0000
    outer loop
        vertex 4.2200 -0.1000 0.9080
        vertex 3.9600 -0.1000 0.9400
        vertex 3.6000 -0.1000 0.8760
    endloop
endfacet
facet normal 0.0000 -5.0311 0.0000
    outer loop
        vertex 3.6000 -0.1000 0.8760
        vertex 3.5680 -0.1000 -0.4240
        vertex 4.2200 -0.1000 0.9080
    endloop
endfacet
facet normal 0.0000 -2.0541 0.0000
    outer loop
        vertex 3.3080 -0.1000 -0.7160
        vertex 3.5680 -0.1000 -0.4240
        vertex 3.6000 -0.1000 0.8760
    endloop
endfacet
facet normal 0.0000 -3.1261 0.0000
    outer loop
        vertex 3.6000 -0.1000 0.8760
        vertex 3.2440 -0.1000 0.6480
        vertex 3.3080 -0.1000 -0.7160
    endloop
endfacet
facet normal 0.0000 -3.0264 0.0000
    outer loop
        vertex 0.9560 -0.1000 1.4760
        vertex 1.3720 -0.1000 1.2200
        vertex 3.2440 -0.1000 1.2320
    endloop
endfacet
facet normal 0.0000 -2.6189 0.0000
    outer loop
        vertex 3.2440 -0.1000 1.2320
        vertex 3.5360 -0.1000 1.3840
        vertex 0.9560 -0.1000 1.4760
    endloop
endfacet
facet normal 0.0000 -2.3192 0.0000
    outer loop
        vertex 4.5120 -0.1000 1.4280
        vertex 5.2360 -0.1000 1.4760
        vertex 10.2960 -0.1000 2.3240
    endloop
endfacet
facet normal 0.0000 -3.6392 0.0000
    outer loop
        vertex 10.2960 -0.1000 2.3240
        vertex 4.1720 -0.1000 1.4760
        vertex 4.5120 -0.1000 1.4280
    endloop
endfacet
facet normal 0.0000 -54.5688 0.0000
    outer loop
        vertex 4.1720 -0.1000 1.4760
        vertex 10.2960 -0.1000 2.3240
        vertex 0.0000 -0.1000 2.3240
    endloop
endfacet
facet normal 0.0000 -2.2404 0.0000
    outer loop
        vertex 0.0000 -0.1000 2.3240
        vertex 3.8280 -0.1000 1.4600
        vertex 4.1720 -0.1000 1.4760
    endloop
endfacet
facet normal 0.0000 -15.1260 0.0000
    outer loop
        vertex 0.0000 -0.1000 2.3240
        vertex 0.9560 -0.1000 1.4760
        vertex 3.8280 -0.1000 1.4600
    endloop
endfacet
facet normal 0.0000 -2.3956 0.0000
    outer loop
        vertex 0.0000 -0.1000 2.3240
        vertex 0.5040 -0.1000 1.4760
        vertex 0.9560 -0.1000 1.4760
    endloop
endfacet
facet normal 0.0000 -12.9108 0.0000
    outer loop
        vertex -3.9040 -0.1000 1.4760
        vertex -1.4680 -0.1000 1.4760
        vertex 0.0000 -0.1000 2.3240
    endloop
endfacet
facet normal 0.0000 -4.4732 0.0000
    outer loop
        vertex -4.7480 -0.1000 1.4760
        vertex -3.9040 -0.1000 1.4760
        vertex 0.0000 -0.1000 2.3240
    endloop
endfacet
facet normal 0.0000 -2.8688 0.0000
    outer loop
        vertex -7.4960 -0.1000 -0.8440
        vertex -7.5600 -0.1000 0.7560
        vertex -7.8520 -0.1000 0.8840
    endloop
endfacet
facet normal 0.0000 -4.2809 0.0000
    outer loop
        vertex -7.8520 -0.1000 0.8840
        vertex -7.8520 -0.1000 -1.0400
        vertex -7.4960 -0.1000 -0.8440
    endloop
endfacet
facet normal 0.0000 -1.5204 0.0000
    outer loop
        vertex -6.2280 -0.1000 1.4760
        vertex -7.2680 -0.1000 1.3800
        vertex -6.9440 -0.1000 1.1760
    endloop
endfacet
facet normal 0.0000 -1.7942 0.0000
    outer loop
        vertex -6.2280 -0.1000 1.4760
        vertex -6.9440 -0.1000 1.1760
        vertex -6.6840 -0.1000 0.8840
    endloop
endfacet
facet normal 0.0000 -1.2294 0.0000
    outer loop
        vertex -6.2280 -0.1000 1.4760
        vertex -6.6840 -0.1000 0.8840
        vertex -6.5520 -0.1000 0.6240
    endloop
endfacet
facet normal 0.0000 -0.6612 0.0000
    outer loop
        vertex -6.4560 -0.1000 0.2040
        vertex -6.4560 -0.1000 -0.2600
        vertex -6.2280 -0.1000 -1.6240
    endloop
endfacet
facet normal 0.0000 -4.4175 0.0000
    outer loop
        vertex -6.2280 -0.1000 -1.6240
        vertex -6.2280 -0.1000 1.4760
        vertex -6.4560 -0.1000 0.2040
    endloop
endfacet
facet normal 0.0000 -6.2511 0.0000
    outer loop
        vertex -5.5200 -0.1000 -0.3800
        vertex -5.5160 -0.1000 -1.6240
        vertex -4.7120 -0.1000 -1.6240
    endloop
endfacet
facet normal 0.0000 -1.0150 0.0000
    outer loop
        vertex -6.2280 -0.1000 -1.6240
        vertex -7.4320 -0.1000 -1.5240
        vertex -7.8520 -0.1000 -1.6240
    endloop
endfacet
facet normal 0.0000 -7.1050 0.0000
    outer loop
        vertex -7.8520 -0.1000 -1.6240
        vertex -10.2960 -0.1000 -2.3240
        vertex -6.2280 -0.1000 -1.6240
    endloop
endfacet
facet normal 0.0000 -5.6875 0.0000
    outer loop
        vertex -10.2960 -0.1000 -2.3240
        vertex -7.8520 -0.1000 -1.6240
        vertex -9.1520 -0.1000 -1.6240
    endloop
endfacet
facet normal 0.0000 -0.8652 0.0000
    outer loop
        vertex -9.1520 -0.1000 -1.6240
        vertex -10.4480 -0.1000 -2.2960
        vertex -10.2960 -0.1000 -2.3240
    endloop
endfacet
facet normal 0.0000 -36.1404 0.0000
    outer loop
        vertex -1.6960 -0.1000 -1.6240
        vertex -2.3440 -0.1000 0.4560
        vertex -4.9720 -0.1000 -0.0320
    endloop
endfacet
facet normal 0.0000 -21.2930 0.0000
    outer loop
        vertex -4.9720 -0.1000 -0.0320
        vertex -3.8360 -0.1000 -1.6240
        vertex -1.6960 -0.1000 -1.6240
    endloop
endfacet
facet normal 0.0000 -3.7736 0.0000
    outer loop
        vertex -10.2960 -0.1000 2.3240
        vertex -6.2280 -0.1000 1.4760
        vertex -5.5160 -0.1000 1.4760
    endloop
endfacet
facet normal 0.0000 -5.6940 0.0000
    outer loop
        vertex -3.9040 -0.1000 1.4760
        vertex -2.3440 -0.1000 0.4560
        vertex -2.3440 -0.1000 1.0400
    endloop
endfacet
facet normal 0.0000 -21.5115 0.0000
    outer loop
        vertex -3.9040 -0.1000 1.4760
        vertex -4.9720 -0.1000 -0.0320
        vertex -2.3440 -0.1000 0.4560
    endloop
endfacet
facet normal 0.0000 -45.0450 0.0000
    outer loop
        vertex -5.5160 -0.1000 -1.6240
        vertex -10.2960 -0.1000 -2.3240
        vertex 0.0000 -0.1000 -2.3240
    endloop
endfacet
facet normal 0.0000 -3.5175 0.0000
    outer loop
        vertex 0.0000 -0.1000 -2.3240
        vertex -4.7120 -0.1000 -1.6240
        vertex -5.5160 -0.1000 -1.6240
    endloop
endfacet
facet normal 0.0000 -3.8325 0.0000
    outer loop
        vertex 0.0000 -0.1000 -2.3240
        vertex -3.8360 -0.1000 -1.6240
        vertex -4.7120 -0.1000 -1.6240
    endloop
endfacet
facet normal 0.0000 -1.6318 0.0000
    outer loop
        vertex -6.5520 -0.1000 -0.6800
        vertex -6.7160 -0.1000 -1.0080
        vertex -6.2280 -0.1000 -1.6240
    endloop
endfacet
facet normal 0.0000 -2.2356 0.0000
    outer loop
        vertex -6.7160 -0.1000 -1.0080
        vertex -7.0400 -0.1000 -1.3320
        vertex -6.2280 -0.1000 -1.6240
    endloop
endfacet
facet normal 0.0000 -1.4169 0.0000
    outer loop
        vertex -6.4560 -0.1000 -0.2600
        vertex -6.5520 -0.1000 -0.6800
        vertex -6.2280 -0.1000 -1.6240
    endloop
endfacet
facet normal 0.0000 -1.6898 0.0000
    outer loop
        vertex -7.0400 -0.1000 -1.3320
        vertex -7.4320 -0.1000 -1.5240
        vertex -6.2280 -0.1000 -1.6240
    endloop
endfacet
facet normal 0.0000 -3.1150 0.0000
    outer loop
        vertex -5.5160 -0.1000 -1.6240
        vertex -6.2280 -0.1000 -1.6240
        vertex -10.2960 -0.1000 -2.3240
    endloop
endfacet
facet normal 0.0000 -0.8184 0.0000
    outer loop
        vertex -6.2280 -0.1000 1.4760
        vertex -7.5920 -0.1000 1.4760
        vertex -7.2680 -0.1000 1.3800
    endloop
endfacet
facet normal 0.0000 -4.9347 0.0000
    outer loop
        vertex 4.9640 -0.1000 0.0320
        vertex 5.8200 -0.1000 -0.9080
        vertex 6.0480 -0.1000 -0.2360
    endloop
endfacet
facet normal 0.0000 -2.1994 0.0000
    outer loop
        vertex 6.0480 -0.1000 -0.2360
        vertex 5.0960 -0.1000 0.3240
        vertex 4.9640 -0.1000 0.0320
    endloop
endfacet
facet normal 0.0000 -2.8644 0.0000
    outer loop
        vertex 7.6960 -0.1000 0.4560
        vertex 6.8560 -0.1000 0.1200
        vertex 6.6000 -0.1000 -0.5280
    endloop
endfacet
facet normal 0.0000 -2.2521 0.0000
    outer loop
        vertex 5.6880 -0.1000 -1.4600
        vertex 5.8200 -0.1000 -0.9080
        vertex 5.1280 -0.1000 -1.0720
    endloop
endfacet
facet normal 0.0000 -1.9320 0.0000
    outer loop
        vertex 5.1280 -0.1000 -1.0720
        vertex 5.1280 -0.1000 -1.6240
        vertex 5.6880 -0.1000 -1.4600
    endloop
endfacet
facet normal 0.0000 -5.2258 0.0000
    outer loop
        vertex 8.3440 -0.1000 -1.6240
        vertex 6.4360 -0.1000 -1.2000
        vertex 6.3720 -0.1000 -1.6240
    endloop
endfacet
facet normal 0.0000 -8.6275 0.0000
    outer loop
        vertex 6.3720 -0.1000 -1.6240
        vertex 10.2960 -0.1000 -2.3240
        vertex 8.3440 -0.1000 -1.6240
    endloop
endfacet
facet normal 0.0000 -3.1325 0.0000
    outer loop
        vertex 5.6560 -0.1000 -1.6240
        vertex 10.2960 -0.1000 -2.3240
        vertex 6.3720 -0.1000 -1.6240
    endloop
endfacet
facet normal 0.0000 -0.5412 0.0000
    outer loop
        vertex 5.6880 -0.1000 -1.4600
        vertex 5.1280 -0.1000 -1.6240
        vertex 5.6560 -0.1000 -1.6240
    endloop
endfacet
facet normal 0.0000 -2.0927 0.0000
    outer loop
        vertex 6.3080 -0.1000 0.3160
        vertex 5.1360 -0.1000 0.6000
        vertex 5.0960 -0.1000 0.3240
    endloop
endfacet
facet normal 0.0000 -4.1944 0.0000
    outer loop
        vertex 5.0960 -0.1000 0.3240
        vertex 6.0480 -0.1000 -0.2360
        vertex 6.3080 -0.1000 0.3160
    endloop
endfacet
facet normal 0.0000 -0.2545 0.0000
    outer loop
        vertex 5.2360 -0.1000 0.9280
        vertex 5.0960 -0.1000 0.8760
        vertex 5.1360 -0.1000 0.6000
    endloop
endfacet
facet normal 0.0000 -2.5801 0.0000
    outer loop
        vertex 5.1360 -0.1000 0.6000
        vertex 6.3080 -0.1000 0.3160
        vertex 5.2360 -0.1000 0.9280
    endloop
endfacet
facet normal 0.0000 -0.2792 0.0000
    outer loop
        vertex 6.6320 -0.1000 0.9000
        vertex 6.6320 -0.1000 0.9320
        vertex 5.2360 -0.1000 0.9280
    endloop
endfacet
facet normal 0.0000 -5.1521 0.0000
    outer loop
        vertex 5.2360 -0.1000 0.9280
        vertex 6.3080 -0.1000 0.3160
        vertex 6.6320 -0.1000 0.9000
    endloop
endfacet
facet normal 0.0000 -0.2691 0.0000
    outer loop
        vertex 4.9680 -0.1000 1.1360
        vertex 5.0960 -0.1000 0.8760
        vertex 5.2360 -0.1000 0.9280
    endloop
endfacet
facet normal 0.0000 -0.9179 0.0000
    outer loop
        vertex 5.2360 -0.1000 0.9280
        vertex 5.2360 -0.1000 1.4760
        vertex 4.9680 -0.1000 1.1360
    endloop
endfacet
facet normal 0.0000 -0.6668 0.0000
    outer loop
        vertex 4.5120 -0.1000 1.4280
        vertex 4.8040 -0.1000 1.3000
        vertex 5.2360 -0.1000 1.4760
    endloop
endfacet
facet normal 0.0000 -1.8247 0.0000
    outer loop
        vertex 0.3920 -0.1000 0.7760
        vertex 0.2160 -0.1000 0.4920
        vertex 1.2440 -0.1000 0.4920
    endloop
endfacet
facet normal 0.0000 -1.2141 0.0000
    outer loop
        vertex 1.2440 -0.1000 0.4920
        vertex 1.0760 -0.1000 0.7760
        vertex 0.3920 -0.1000 0.7760
    endloop
endfacet
facet normal 0.0000 -2.3901 0.0000
    outer loop
        vertex 1.3320 -0.1000 0.1200
        vertex 1.2440 -0.1000 0.4920
        vertex 0.2160 -0.1000 0.4920
    endloop
endfacet
facet normal 0.0000 -2.7993 0.0000
    outer loop
        vertex 0.2160 -0.1000 0.4920
        vertex 0.1280 -0.1000 0.1200
        vertex 1.3320 -0.1000 0.1200
    endloop
endfacet
facet normal 0.0000 -1.8504 0.0000
    outer loop
        vertex 1.2440 -0.1000 -0.6560
        vertex 0.2160 -0.1000 -0.6560
        vertex 0.3920 -0.1000 -0.9440
    endloop
endfacet
facet normal 0.0000 -1.2312 0.0000
    outer loop
        vertex 0.3920 -0.1000 -0.9440
        vertex 1.0760 -0.1000 -0.9440
        vertex 1.2440 -0.1000 -0.6560
    endloop
endfacet
facet normal 0.0000 -0.6669 0.0000
    outer loop
        vertex 0.3920 -0.1000 0.7760
        vertex 1.0760 -0.1000 0.7760
        vertex 0.8520 -0.1000 0.9320
    endloop
endfacet
facet normal 0.0000 -0.2379 0.0000
    outer loop
        vertex 0.8520 -0.1000 0.9320
        vertex 0.6080 -0.1000 0.9320
        vertex 0.3920 -0.1000 0.7760
    endloop
endfacet
facet normal 0.0000 -7.4074 0.0000
    outer loop
        vertex -8.4680 -0.1000 -1.0720
        vertex -7.8520 -0.1000 -1.0400
        vertex -7.8520 -0.1000 0.8840
    endloop
endfacet
facet normal 0.0000 -7.6538 0.0000
    outer loop
        vertex -7.8520 -0.1000 0.8840
        vertex -8.4680 -0.1000 0.9160
        vertex -8.4680 -0.1000 -1.0720
    endloop
endfacet
facet normal 0.0000 -0.3049 0.0000
    outer loop
        vertex -7.2040 -0.1000 0.2360
        vertex -7.3320 -0.1000 0.5600
        vertex -7.5600 -0.1000 0.7560
    endloop
endfacet
facet normal 0.0000 -1.2460 0.0000
    outer loop
        vertex -7.5600 -0.1000 0.7560
        vertex -7.2040 -0.1000 -0.3240
        vertex -7.2040 -0.1000 0.2360
    endloop
endfacet
facet normal 0.0000 -0.2665 0.0000
    outer loop
        vertex -7.4960 -0.1000 -0.8440
        vertex -7.2680 -0.1000 -0.5840
        vertex -7.2040 -0.1000 -0.3240
    endloop
endfacet
facet normal 0.0000 -3.1280 0.0000
    outer loop
        vertex -7.2040 -0.1000 -0.3240
        vertex -7.5600 -0.1000 0.7560
        vertex -7.4960 -0.1000 -0.8440
    endloop
endfacet
facet normal 0.0000 -2.0655 0.0000
    outer loop
        vertex 2.4080 -0.1000 -1.1520
        vertex 1.8680 -0.1000 0.2240
        vertex 1.8680 -0.1000 -0.3880
    endloop
endfacet
facet normal 0.0000 -0.4897 0.0000
    outer loop
        vertex 1.8680 -0.1000 -0.3880
        vertex 2.2800 -0.1000 -1.1160
        vertex 2.4080 -0.1000 -1.1520
    endloop
endfacet
facet normal 0.0000 -0.4071 0.0000
    outer loop
        vertex 2.5000 -0.1000 -1.5000
        vertex 2.4080 -0.1000 -1.5920
        vertex 3.0840 -0.1000 -1.6240
    endloop
endfacet
facet normal 0.0000 -0.1608 0.0000
    outer loop
        vertex 2.4080 -0.1000 -1.5920
        vertex 2.2800 -0.1000 -1.6240
        vertex 3.0840 -0.1000 -1.6240
    endloop
endfacet
facet normal 0.0000 -1.3336 0.0000
    outer loop
        vertex 1.3720 -0.1000 -1.3840
        vertex 0.9560 -0.1000 -1.6240
        vertex 2.0600 -0.1000 -1.5000
    endloop
endfacet
facet normal 0.0000 -0.5272 0.0000
    outer loop
        vertex 2.0600 -0.1000 -1.5000
        vertex 2.0280 -0.1000 -1.3720
        vertex 1.3720 -0.1000 -1.3840
    endloop
endfacet
facet normal 0.0000 -0.5224 0.0000
    outer loop
        vertex 1.3720 -0.1000 -1.3840
        vertex 2.0280 -0.1000 -1.3720
        vertex 2.0600 -0.1000 -1.2440
    endloop
endfacet
facet normal 0.0000 -1.5776 0.0000
    outer loop
        vertex 1.6920 -0.1000 -0.9520
        vertex 1.3720 -0.1000 -1.3840
        vertex 2.0600 -0.1000 -1.2440
    endloop
endfacet
facet normal 0.0000 -0.6751 0.0000
    outer loop
        vertex 1.8680 -0.1000 -0.3880
        vertex 2.1520 -0.1000 -1.1520
        vertex 2.2800 -0.1000 -1.1160
    endloop
endfacet
facet normal 0.0000 -0.2648 0.0000
    outer loop
        vertex 2.1520 -0.1000 -1.5920
        vertex 0.9560 -0.1000 -1.6240
        vertex 2.2800 -0.1000 -1.6240
    endloop
endfacet
facet normal 0.0000 -0.7061 0.0000
    outer loop
        vertex 2.0600 -0.1000 -1.5000
        vertex 0.9560 -0.1000 -1.6240
        vertex 2.1520 -0.1000 -1.5920
    endloop
endfacet
facet normal 0.0000 -3.5175 0.0000
    outer loop
        vertex 3.0840 -0.1000 -1.6240
        vertex 2.2800 -0.1000 -1.6240
        vertex 0.0000 -0.1000 -2.3240
    endloop
endfacet
facet normal 0.0000 -5.7925 0.0000
    outer loop
        vertex 2.2800 -0.1000 -1.6240
        vertex 0.9560 -0.1000 -1.6240
        vertex 0.0000 -0.1000 -2.3240
    endloop
endfacet
facet normal 0.0000 -8.9425 0.0000
    outer loop
        vertex 5.1280 -0.1000 -1.6240
        vertex 3.0840 -0.1000 -1.6240
        vertex 0.0000 -0.1000 -2.3240
    endloop
endfacet
facet normal 0.0000 -1.0058 0.0000
    outer loop
        vertex -9.1520 -0.1000 1.4760
        vertex -10.2960 -0.1000 2.3240
        vertex -10.4480 -0.1000 2.2960
    endloop
endfacet
facet normal 0.0000 -1.3483 0.0000
    outer loop
        vertex -10.4480 -0.1000 2.2960
        vertex -10.5720 -0.1000 2.2080
        vertex -9.1520 -0.1000 1.4760
    endloop
endfacet
facet normal 0.0000 -1.5031 0.0000
    outer loop
        vertex -9.1520 -0.1000 1.4760
        vertex -10.5720 -0.1000 2.2080
        vertex -10.6600 -0.1000 2.0840
    endloop
endfacet
facet normal 0.0000 -1.5390 0.0000
    outer loop
        vertex -10.6600 -0.1000 2.0840
        vertex -10.6880 -0.1000 1.9320
        vertex -9.1520 -0.1000 1.4760
    endloop
endfacet
facet normal 0.0000 -37.0944 0.0000
    outer loop
        vertex -9.1520 -0.1000 1.4760
        vertex -10.6880 -0.1000 1.9320
        vertex -10.6880 -0.1000 -1.9320
    endloop
endfacet
facet normal 0.0000 -29.7600 0.0000
    outer loop
        vertex -10.6880 -0.1000 -1.9320
        vertex -9.1520 -0.1000 -1.6240
        vertex -9.1520 -0.1000 1.4760
    endloop
endfacet
facet normal 0.0000 -1.5131 0.0000
    outer loop
        vertex -9.1520 -0.1000 -1.6240
        vertex -10.6880 -0.1000 -1.9320
        vertex -10.6600 -0.1000 -2.0840
    endloop
endfacet
facet normal 0.0000 -1.4217 0.0000
    outer loop
        vertex -10.6600 -0.1000 -2.0840
        vertex -10.5720 -0.1000 -2.2080
        vertex -9.1520 -0.1000 -1.6240
    endloop
endfacet
facet normal 0.0000 -1.2336 0.0000
    outer loop
        vertex -9.1520 -0.1000 -1.6240
        vertex -10.5720 -0.1000 -2.2080
        vertex -10.4480 -0.1000 -2.2960
    endloop
endfacet
facet normal 0.0000 -1.4583 0.0000
    outer loop
        vertex 10.5720 -0.1000 2.2080
        vertex 10.4480 -0.1000 2.2960
        vertex 8.9520 -0.1000 1.4760
    endloop
endfacet
facet normal 0.0000 -1.6581 0.0000
    outer loop
        vertex 8.9520 -0.1000 1.4760
        vertex 10.6600 -0.1000 2.0840
        vertex 10.5720 -0.1000 2.2080
    endloop
endfacet
facet normal 0.0000 -0.6762 0.0000
    outer loop
        vertex 10.6880 -0.1000 -1.9320
        vertex 10.6880 -0.1000 1.9320
        vertex 10.6600 -0.1000 2.0840
    endloop
endfacet
facet normal 0.0000 -42.9772 0.0000
    outer loop
        vertex 10.6600 -0.1000 2.0840
        vertex 8.9520 -0.1000 1.4760
        vertex 10.6880 -0.1000 -1.9320
    endloop
endfacet
facet normal 0.0000 -33.6350 0.0000
    outer loop
        vertex 10.6880 -0.1000 -1.9320
        vertex 8.9520 -0.1000 1.4760
        vertex 8.9520 -0.1000 -1.6240
    endloop
endfacet
facet normal 0.0000 -1.7031 0.0000
    outer loop
        vertex 8.9520 -0.1000 -1.6240
        vertex 10.6600 -0.1000 -2.0840
        vertex 10.6880 -0.1000 -1.9320
    endloop
endfacet
facet normal 0.0000 -1.5767 0.0000
    outer loop
        vertex 10.5720 -0.1000 -2.2080
        vertex 10.6600 -0.1000 -2.0840
        vertex 8.9520 -0.1000 -1.6240
    endloop
endfacet
facet normal 0.0000 -1.3436 0.0000
    outer loop
        vertex 8.9520 -0.1000 -1.6240
        vertex 10.4480 -0.1000 -2.2960
        vertex 10.5720 -0.1000 -2.2080
    endloop
endfacet
facet normal 0.0000 -1.3617 0.0000
    outer loop
        vertex -6.2280 -0.1000 1.4760
        vertex -6.5520 -0.1000 0.6240
        vertex -6.4560 -0.1000 0.2040
    endloop
endfacet
facet normal 0.0000 -0.6232 0.0000
    outer loop
        vertex 5.2360 -0.1000 1.4760
        vertex 4.8040 -0.1000 1.3000
        vertex 4.9680 -0.1000 1.1360
    endloop
endfacet
facet normal 0.0000 -0.1390 0.0000
    outer loop
        vertex -10.6880 -0.1000 1.9320
        vertex -10.6600 -0.1000 2.0840
        vertex -10.7960 -0.1000 2.1400
    endloop
endfacet
facet normal 0.0000 -0.1924 0.0000
    outer loop
        vertex -10.7960 -0.1000 2.1400
        vertex -10.8360 -0.1000 1.9320
        vertex -10.6880 -0.1000 1.9320
    endloop
endfacet
facet normal 0.0000 -0.1406 0.0000
    outer loop
        vertex -10.4480 -0.1000 2.2960
        vertex -10.2960 -0.1000 2.3240
        vertex -10.2960 -0.1000 2.4720
    endloop
endfacet
facet normal 0.0000 -0.1908 0.0000
    outer loop
        vertex -10.2960 -0.1000 2.4720
        vertex -10.5040 -0.1000 2.4320
        vertex -10.4480 -0.1000 2.2960
    endloop
endfacet
facet normal 0.0000 -0.1362 0.0000
    outer loop
        vertex -10.5720 -0.1000 2.2080
        vertex -10.4480 -0.1000 2.2960
        vertex -10.5040 -0.1000 2.4320
    endloop
endfacet
facet normal 0.0000 -0.1898 0.0000
    outer loop
        vertex -10.5040 -0.1000 2.4320
        vertex -10.6760 -0.1000 2.3120
        vertex -10.5720 -0.1000 2.2080
    endloop
endfacet
facet normal 0.0000 -0.1378 0.0000
    outer loop
        vertex -10.6600 -0.1000 2.0840
        vertex -10.5720 -0.1000 2.2080
        vertex -10.6760 -0.1000 2.3120
    endloop
endfacet
facet normal 0.0000 -0.1882 0.0000
    outer loop
        vertex -10.6760 -0.1000 2.3120
        vertex -10.7960 -0.1000 2.1400
        vertex -10.6600 -0.1000 2.0840
    endloop
endfacet
facet normal 0.0000 -19.0476 0.0000
    outer loop
        vertex 10.2960 -0.1000 2.3240
        vertex 10.2960 -0.1000 2.4720
        vertex -10.2960 -0.1000 2.4720
    endloop
endfacet
facet normal 0.0000 -9.5238 0.0000
    outer loop
        vertex -10.2960 -0.1000 2.4720
        vertex 0.0000 -0.1000 2.3240
        vertex 10.2960 -0.1000 2.3240
    endloop
endfacet
facet normal 0.0000 -9.5238 0.0000
    outer loop
        vertex -10.2960 -0.1000 2.3240
        vertex 0.0000 -0.1000 2.3240
        vertex -10.2960 -0.1000 2.4720
    endloop
endfacet
facet normal 0.0000 -0.1908 0.0000
    outer loop
        vertex 10.4480 -0.1000 2.2960
        vertex 10.5040 -0.1000 2.4320
        vertex 10.2960 -0.1000 2.4720
    endloop
endfacet
facet normal 0.0000 -0.1406 0.0000
    outer loop
        vertex 10.2960 -0.1000 2.4720
        vertex 10.2960 -0.1000 2.3240
        vertex 10.4480 -0.1000 2.2960
    endloop
endfacet
facet normal 0.0000 -0.1406 0.0000
    outer loop
        vertex 10.6600 -0.1000 2.0840
        vertex 10.6880 -0.1000 1.9320
        vertex 10.8360 -0.1000 1.9320
    endloop
endfacet
facet normal 0.0000 -0.1908 0.0000
    outer loop
        vertex 10.8360 -0.1000 1.9320
        vertex 10.7960 -0.1000 2.1400
        vertex 10.6600 -0.1000 2.0840
    endloop
endfacet
facet normal 0.0000 -0.1362 0.0000
    outer loop
        vertex 10.5720 -0.1000 2.2080
        vertex 10.6600 -0.1000 2.0840
        vertex 10.7960 -0.1000 2.1400
    endloop
endfacet
facet normal 0.0000 -0.1898 0.0000
    outer loop
        vertex 10.7960 -0.1000 2.1400
        vertex 10.6760 -0.1000 2.3120
        vertex 10.5720 -0.1000 2.2080
    endloop
endfacet
facet normal 0.0000 -0.1378 0.0000
    outer loop
        vertex 10.4480 -0.1000 2.2960
        vertex 10.5720 -0.1000 2.2080
        vertex 10.6760 -0.1000 2.3120
    endloop
endfacet
facet normal 0.0000 -0.1882 0.0000
    outer loop
        vertex 10.6760 -0.1000 2.3120
        vertex 10.5040 -0.1000 2.4320
        vertex 10.4480 -0.1000 2.2960
    endloop
endfacet
facet normal 0.0000 -0.1406 0.0000
    outer loop
        vertex 10.4480 -0.1000 -2.2960
        vertex 10.2960 -0.1000 -2.3240
        vertex 10.2960 -0.1000 -2.4720
    endloop
endfacet
facet normal 0.0000 -0.1908 0.0000
    outer loop
        vertex 10.2960 -0.1000 -2.4720
        vertex 10.5040 -0.1000 -2.4320
        vertex 10.4480 -0.1000 -2.2960
    endloop
endfacet
facet normal 0.0000 -0.1362 0.0000
    outer loop
        vertex 10.5720 -0.1000 -2.2080
        vertex 10.4480 -0.1000 -2.2960
        vertex 10.5040 -0.1000 -2.4320
    endloop
endfacet
facet normal 0.0000 -0.1898 0.0000
    outer loop
        vertex 10.5040 -0.1000 -2.4320
        vertex 10.6760 -0.1000 -2.3120
        vertex 10.5720 -0.1000 -2.2080
    endloop
endfacet
facet normal 0.0000 -0.1378 0.0000
    outer loop
        vertex 10.6600 -0.1000 -2.0840
        vertex 10.5720 -0.1000 -2.2080
        vertex 10.6760 -0.1000 -2.3120
    endloop
endfacet
facet normal 0.0000 -0.1882 0.0000
    outer loop
        vertex 10.6760 -0.1000 -2.3120
        vertex 10.7960 -0.1000 -2.1400
        vertex 10.6600 -0.1000 -2.0840
    endloop
endfacet
facet normal 0.0000 -0.1390 0.0000
    outer loop
        vertex 10.6880 -0.1000 -1.9320
        vertex 10.6600 -0.1000 -2.0840
        vertex 10.7960 -0.1000 -2.1400
    endloop
endfacet
facet normal 0.0000 -0.1924 0.0000
    outer loop
        vertex 10.7960 -0.1000 -2.1400
        vertex 10.8360 -0.1000 -1.9320
        vertex 10.6880 -0.1000 -1.9320
    endloop
endfacet
facet normal 0.0000 -0.1406 0.0000
    outer loop
        vertex -10.6600 -0.1000 -2.0840
        vertex -10.6880 -0.1000 -1.9320
        vertex -10.8360 -0.1000 -1.9320
    endloop
endfacet
facet normal 0.0000 -0.1908 0.0000
    outer loop
        vertex -10.8360 -0.1000 -1.9320
        vertex -10.7960 -0.1000 -2.1400
        vertex -10.6600 -0.1000 -2.0840
    endloop
endfacet
facet normal 0.0000 -0.1362 0.0000
    outer loop
        vertex -10.5720 -0.1000 -2.2080
        vertex -10.6600 -0.1000 -2.0840
        vertex -10.7960 -0.1000 -2.1400
    endloop
endfacet
facet normal 0.0000 -0.1898 0.0000
    outer loop
        vertex -10.7960 -0.1000 -2.1400
        vertex -10.6760 -0.1000 -2.3120
        vertex -10.5720 -0.1000 -2.2080
    endloop
endfacet
facet normal 0.0000 -0.1378 0.0000
    outer loop
        vertex -10.4480 -0.1000 -2.2960
        vertex -10.5720 -0.1000 -2.2080
        vertex -10.6760 -0.1000 -2.3120
    endloop
endfacet
facet normal 0.0000 -0.1882 0.0000
    outer loop
        vertex -10.6760 -0.1000 -2.3120
        vertex -10.5040 -0.1000 -2.4320
        vertex -10.4480 -0.1000 -2.2960
    endloop
endfacet
facet normal 0.0000 -0.1390 0.0000
    outer loop
        vertex -10.2960 -0.1000 -2.3240
        vertex -10.4480 -0.1000 -2.2960
        vertex -10.5040 -0.1000 -2.4320
    endloop
endfacet
facet normal 0.0000 -0.1924 0.0000
    outer loop
        vertex -10.5040 -0.1000 -2.4320
        vertex -10.2960 -0.1000 -2.4720
        vertex -10.2960 -0.1000 -2.3240
    endloop
endfacet
facet normal 0.0000 -9.5238 0.0000
    outer loop
        vertex 0.0000 -0.1000 -2.3240
        vertex -10.2960 -0.1000 -2.3240
        vertex -10.2960 -0.1000 -2.4720
    endloop
endfacet
facet normal 0.0000 -19.0476 0.0000
    outer loop
        vertex -10.2960 -0.1000 -2.4720
        vertex 10.2960 -0.1000 -2.4720
        vertex 10.2960 -0.1000 -2.3240
    endloop
endfacet
facet normal 0.0000 -9.5238 0.0000
    outer loop
        vertex 10.2960 -0.1000 -2.3240
        vertex 0.0000 -0.1000 -2.3240
        vertex -10.2960 -0.1000 -2.4720
    endloop
endfacet
facet normal 0.0000 -3.5742 0.0000
    outer loop
        vertex -10.8360 -0.1000 1.9320
        vertex -10.8360 -0.1000 -1.9320
        vertex -10.6880 -0.1000 -1.9320
    endloop
endfacet
facet normal 0.0000 -3.5742 0.0000
    outer loop
        vertex -10.6880 -0.1000 -1.9320
        vertex -10.6880 -0.1000 1.9320
        vertex -10.8360 -0.1000 1.9320
    endloop
endfacet
facet normal 0.0000 -3.5742 0.0000
    outer loop
        vertex 10.6880 -0.1000 1.9320
        vertex 10.6880 -0.1000 -1.9320
        vertex 10.8360 -0.1000 -1.9320
    endloop
endfacet
facet normal 0.0000 -3.5742 0.0000
    outer loop
        vertex 10.8360 -0.1000 -1.9320
        vertex 10.8360 -0.1000 1.9320
        vertex 10.6880 -0.1000 1.9320
    endloop
endfacet
facet normal 0.0000 -0.2660 0.0000
    outer loop
        vertex 8.9520 -0.1000 1.4760
        vertex 8.5720 -0.1000 1.4760
        vertex 8.4400 -0.1000 1.3640
    endloop
endfacet
facet normal 0.0000 -2.0064 0.0000
    outer loop
        vertex 8.4400 -0.1000 1.3640
        vertex 8.3440 -0.1000 0.7160
        vertex 8.9520 -0.1000 1.4760
    endloop
endfacet
facet normal 0.0000 -1.7091 0.0000
    outer loop
        vertex -6.6840 -0.1000 0.8840
        vertex -6.9440 -0.1000 1.1760
        vertex -7.3320 -0.1000 0.5600
    endloop
endfacet
facet normal 0.0000 -1.3796 0.0000
    outer loop
        vertex -7.2040 -0.1000 0.2360
        vertex -6.5520 -0.1000 0.6240
        vertex -6.6840 -0.1000 0.8840
    endloop
endfacet
facet normal 0.0000 -1.5714 0.0000
    outer loop
        vertex -6.6840 -0.1000 0.8840
        vertex -7.3320 -0.1000 0.5600
        vertex -7.2040 -0.1000 0.2360
    endloop
endfacet
facet normal 0.0000 -7.9547 0.0000
    outer loop
        vertex -4.9720 -0.1000 -0.0320
        vertex -3.9040 -0.1000 1.4760
        vertex -4.7480 -0.1000 1.4760
    endloop
endfacet
facet normal 0.0000 -5.5442 0.0000
    outer loop
        vertex -4.7480 -0.1000 1.4760
        vertex -5.5240 -0.1000 0.2120
        vertex -4.9720 -0.1000 -0.0320
    endloop
endfacet
facet normal 0.0000 -0.9049 0.0000
    outer loop
        vertex 8.3120 -0.1000 0.7160
        vertex 8.1800 -0.1000 1.2160
        vertex 7.9200 -0.1000 1.1040
    endloop
endfacet
facet normal 0.0000 -0.7694 0.0000
    outer loop
        vertex 7.9200 -0.1000 1.1040
        vertex 8.1200 -0.1000 0.5920
        vertex 8.3120 -0.1000 0.7160
    endloop
endfacet
facet normal 0.0000 -0.9642 0.0000
    outer loop
        vertex 8.3440 -0.1000 0.7160
        vertex 8.4400 -0.1000 1.3640
        vertex 8.1800 -0.1000 1.2160
    endloop
endfacet
facet normal 0.0000 -0.1000 0.0000
    outer loop
        vertex 8.1800 -0.1000 1.2160
        vertex 8.3120 -0.1000 0.7160
        vertex 8.3440 -0.1000 0.7160
    endloop
endfacet
facet normal 0.0000 -8.8920 0.0000
    outer loop
        vertex 8.3440 -0.1000 0.7160
        vertex 8.3440 -0.1000 -1.6240
        vertex 8.9520 -0.1000 -1.6240
    endloop
endfacet
facet normal 0.0000 -11.7800 0.0000
    outer loop
        vertex 8.9520 -0.1000 -1.6240
        vertex 8.9520 -0.1000 1.4760
        vertex 8.3440 -0.1000 0.7160
    endloop
endfacet
facet normal 0.0000 -4.4850 0.0000
    outer loop
        vertex 5.1280 -0.1000 -1.6240
        vertex 5.1280 -0.1000 -1.0720
        vertex 3.8280 -0.1000 -1.0720
    endloop
endfacet
facet normal 0.0000 -7.0518 0.0000
    outer loop
        vertex 3.8280 -0.1000 -1.0720
        vertex 3.0840 -0.1000 -1.6240
        vertex 5.1280 -0.1000 -1.6240
    endloop
endfacet
facet normal 0.0000 -0.7490 0.0000
    outer loop
        vertex 7.6960 -0.1000 1.0400
        vertex 7.9320 -0.1000 0.5080
        vertex 8.1200 -0.1000 0.5920
    endloop
endfacet
facet normal 0.0000 -0.7968 0.0000
    outer loop
        vertex 8.1200 -0.1000 0.5920
        vertex 7.9200 -0.1000 1.1040
        vertex 7.6960 -0.1000 1.0400
    endloop
endfacet
facet normal 0.0000 -0.8614 0.0000
    outer loop
        vertex 7.6960 -0.1000 1.0400
        vertex 7.6960 -0.1000 0.4560
        vertex 7.9320 -0.1000 0.5080
    endloop
endfacet
facet normal 0.0000 -4.7278 0.0000
    outer loop
        vertex 5.2360 -0.1000 0.9280
        vertex 6.6320 -0.1000 0.9320
        vertex 7.3760 -0.1000 1.4760
    endloop
endfacet
facet normal 0.0000 -7.3295 0.0000
    outer loop
        vertex 7.3760 -0.1000 1.4760
        vertex 5.2360 -0.1000 1.4760
        vertex 5.2360 -0.1000 0.9280
    endloop
endfacet
facet normal 0.0000 -1.5808 0.0000
    outer loop
        vertex 1.3720 -0.1000 1.2200
        vertex 0.9560 -0.1000 1.4760
        vertex 0.8520 -0.1000 0.9320
    endloop
endfacet
facet normal 0.0000 -0.9102 0.0000
    outer loop
        vertex 0.8520 -0.1000 0.9320
        vertex 1.0760 -0.1000 0.7760
        vertex 1.3720 -0.1000 1.2200
    endloop
endfacet
facet normal 0.0000 -3.1566 0.0000
    outer loop
        vertex 3.5680 -0.1000 -0.4240
        vertex 3.9600 -0.1000 -0.8120
        vertex 4.7040 -0.1000 -0.2600
    endloop
endfacet
facet normal 0.0000 -2.9909 0.0000
    outer loop
        vertex 4.7040 -0.1000 -0.2600
        vertex 4.2520 -0.1000 0.0960
        vertex 3.5680 -0.1000 -0.4240
    endloop
endfacet
facet normal 0.0000 -1.2210 0.0000
    outer loop
        vertex 4.9640 -0.1000 0.0320
        vertex 4.4120 -0.1000 0.3560
        vertex 4.2520 -0.1000 0.0960
    endloop
endfacet
facet normal 0.0000 -1.4034 0.0000
    outer loop
        vertex 4.2520 -0.1000 0.0960
        vertex 4.7040 -0.1000 -0.2600
        vertex 4.9640 -0.1000 0.0320
    endloop
endfacet
facet normal 0.0000 -0.8828 0.0000
    outer loop
        vertex 0.6080 -0.1000 -1.0960
        vertex 0.3920 -0.1000 -0.9440
        vertex 0.0880 -0.1000 -1.3840
    endloop
endfacet
facet normal 0.0000 -1.5288 0.0000
    outer loop
        vertex 0.0880 -0.1000 -1.3840
        vertex 0.5040 -0.1000 -1.6240
        vertex 0.6080 -0.1000 -1.0960
    endloop
endfacet
facet normal 0.0000 -1.3459 0.0000
    outer loop
        vertex 3.9600 -0.1000 -0.8120
        vertex 3.5680 -0.1000 -0.4240
        vertex 3.3080 -0.1000 -0.7160
    endloop
endfacet
facet normal 0.0000 -0.8779 0.0000
    outer loop
        vertex 3.3080 -0.1000 -0.7160
        vertex 3.8280 -0.1000 -1.0080
        vertex 3.9600 -0.1000 -0.8120
    endloop
endfacet
facet normal 0.0000 -0.8380 0.0000
    outer loop
        vertex 1.0760 -0.1000 -0.9440
        vertex 0.8520 -0.1000 -1.0960
        vertex 0.9560 -0.1000 -1.6240
    endloop
endfacet
facet normal 0.0000 -1.5880 0.0000
    outer loop
        vertex 0.9560 -0.1000 -1.6240
        vertex 1.3720 -0.1000 -1.3840
        vertex 1.0760 -0.1000 -0.9440
    endloop
endfacet
facet normal 0.0000 -1.2044 0.0000
    outer loop
        vertex 1.6920 -0.1000 0.7880
        vertex 1.2440 -0.1000 0.4920
        vertex 1.3320 -0.1000 0.1200
    endloop
endfacet
facet normal 0.0000 -2.0038 0.0000
    outer loop
        vertex 1.3320 -0.1000 0.1200
        vertex 1.8680 -0.1000 0.2240
        vertex 1.6920 -0.1000 0.7880
    endloop
endfacet
facet normal 0.0000 -2.0502 0.0000
    outer loop
        vertex 1.3320 -0.1000 -0.2840
        vertex 1.8680 -0.1000 -0.3880
        vertex 1.8680 -0.1000 0.2240
    endloop
endfacet
facet normal 0.0000 -1.3534 0.0000
    outer loop
        vertex 1.8680 -0.1000 0.2240
        vertex 1.3320 -0.1000 0.1200
        vertex 1.3320 -0.1000 -0.2840
    endloop
endfacet
facet normal 0.0000 -1.5368 0.0000
    outer loop
        vertex 0.9560 -0.1000 1.4760
        vertex 0.5040 -0.1000 1.4760
        vertex 0.6080 -0.1000 0.9320
    endloop
endfacet
facet normal 0.0000 -0.8296 0.0000
    outer loop
        vertex 0.6080 -0.1000 0.9320
        vertex 0.8520 -0.1000 0.9320
        vertex 0.9560 -0.1000 1.4760
    endloop
endfacet
facet normal 0.0000 -1.2228 0.0000
    outer loop
        vertex 3.6000 -0.1000 0.8760
        vertex 3.9600 -0.1000 0.9400
        vertex 3.8280 -0.1000 1.4600
    endloop
endfacet
facet normal 0.0000 -0.9575 0.0000
    outer loop
        vertex 3.8280 -0.1000 1.4600
        vertex 3.5360 -0.1000 1.3840
        vertex 3.6000 -0.1000 0.8760
    endloop
endfacet
facet normal 0.0000 -1.2298 0.0000
    outer loop
        vertex 4.8040 -0.1000 1.3000
        vertex 4.5120 -0.1000 1.4280
        vertex 4.3800 -0.1000 0.8120
    endloop
endfacet
facet normal 0.0000 -0.9348 0.0000
    outer loop
        vertex 4.3800 -0.1000 0.8120
        vertex 4.9680 -0.1000 1.1360
        vertex 4.8040 -0.1000 1.3000
    endloop
endfacet
facet normal 0.0000 -0.9675 0.0000
    outer loop
        vertex 4.9680 -0.1000 1.1360
        vertex 4.3800 -0.1000 0.8120
        vertex 4.4440 -0.1000 0.5840
    endloop
endfacet
facet normal 0.0000 -1.2931 0.0000
    outer loop
        vertex 4.4440 -0.1000 0.5840
        vertex 5.0960 -0.1000 0.8760
        vertex 4.9680 -0.1000 1.1360
    endloop
endfacet
facet normal 0.0000 -0.2080 0.0000
    outer loop
        vertex 3.8280 -0.1000 -1.0720
        vertex 3.8280 -0.1000 -1.0080
        vertex 3.3080 -0.1000 -0.7160
    endloop
endfacet
facet normal 0.0000 -1.7922 0.0000
    outer loop
        vertex 3.3080 -0.1000 -0.7160
        vertex 3.1160 -0.1000 -1.1360
        vertex 3.8280 -0.1000 -1.0720
    endloop
endfacet
facet normal 0.0000 -2.7345 0.0000
    outer loop
        vertex 6.6000 -0.1000 -0.5280
        vertex 6.0480 -0.1000 -0.2360
        vertex 5.8200 -0.1000 -0.9080
    endloop
endfacet
facet normal 0.0000 -2.8865 0.0000
    outer loop
        vertex 5.8200 -0.1000 -0.9080
        vertex 6.4360 -0.1000 -1.2000
        vertex 6.6000 -0.1000 -0.5280
    endloop
endfacet
facet normal 0.0000 -2.3661 0.0000
    outer loop
        vertex 6.4360 -0.1000 -1.2000
        vertex 5.8200 -0.1000 -0.9080
        vertex 5.6880 -0.1000 -1.4600
    endloop
endfacet
facet normal 0.0000 -1.8782 0.0000
    outer loop
        vertex 5.6880 -0.1000 -1.4600
        vertex 6.3720 -0.1000 -1.6240
        vertex 6.4360 -0.1000 -1.2000
    endloop
endfacet
facet normal 0.0000 -2.1588 0.0000
    outer loop
        vertex 3.8280 -0.1000 -1.0720
        vertex 3.1160 -0.1000 -1.1360
        vertex 3.0840 -0.1000 -1.6240
    endloop
endfacet
facet normal 0.0000 -1.4044 0.0000
    outer loop
        vertex 4.9640 -0.1000 0.0320
        vertex 5.0960 -0.1000 0.3240
        vertex 4.4440 -0.1000 0.5840
    endloop
endfacet
facet normal 0.0000 -0.8514 0.0000
    outer loop
        vertex 4.4440 -0.1000 0.5840
        vertex 4.4120 -0.1000 0.3560
        vertex 4.9640 -0.1000 0.0320
    endloop
endfacet
facet normal 0.0000 -2.2494 0.0000
    outer loop
        vertex 5.0960 -0.1000 0.8760
        vertex 4.4440 -0.1000 0.5840
        vertex 5.0960 -0.1000 0.3240
    endloop
endfacet
facet normal 0.0000 -0.1380 0.0000
    outer loop
        vertex 5.0960 -0.1000 0.3240
        vertex 5.1360 -0.1000 0.6000
        vertex 5.0960 -0.1000 0.8760
    endloop
endfacet
facet normal 0.0000 -0.5392 0.0000
    outer loop
        vertex 4.1720 -0.1000 1.4760
        vertex 4.2200 -0.1000 0.9080
        vertex 4.3800 -0.1000 0.8120
    endloop
endfacet
facet normal 0.0000 -1.3486 0.0000
    outer loop
        vertex 4.3800 -0.1000 0.8120
        vertex 4.5120 -0.1000 1.4280
        vertex 4.1720 -0.1000 1.4760
    endloop
endfacet
facet normal 0.0000 -0.8186 0.0000
    outer loop
        vertex 3.8280 -0.1000 1.4600
        vertex 3.9600 -0.1000 0.9400
        vertex 4.2200 -0.1000 0.9080
    endloop
endfacet
facet normal 0.0000 -1.2260 0.0000
    outer loop
        vertex 4.2200 -0.1000 0.9080
        vertex 4.1720 -0.1000 1.4760
        vertex 3.8280 -0.1000 1.4600
    endloop
endfacet
facet normal 0.0000 -1.2215 0.0000
    outer loop
        vertex 3.2440 -0.1000 0.6480
        vertex 3.6000 -0.1000 0.8760
        vertex 3.5360 -0.1000 1.3840
    endloop
endfacet
facet normal 0.0000 -1.0658 0.0000
    outer loop
        vertex 3.5360 -0.1000 1.3840
        vertex 3.2440 -0.1000 1.2320
        vertex 3.2440 -0.1000 0.6480
    endloop
endfacet
facet normal 0.0000 -6.0181 0.0000
    outer loop
        vertex -4.9720 -0.1000 -0.0320
        vertex -5.5200 -0.1000 -0.3800
        vertex -4.7120 -0.1000 -1.6240
    endloop
endfacet
facet normal 0.0000 -8.7162 0.0000
    outer loop
        vertex -4.7120 -0.1000 -1.6240
        vertex -3.8360 -0.1000 -1.6240
        vertex -4.9720 -0.1000 -0.0320
    endloop
endfacet
facet normal 0.0000 -1.9443 0.0000
    outer loop
        vertex -6.4560 -0.1000 0.2040
        vertex -6.5520 -0.1000 0.6240
        vertex -7.2040 -0.1000 0.2360
    endloop
endfacet
facet normal 0.0000 -2.1692 0.0000
    outer loop
        vertex -7.2040 -0.1000 -0.3240
        vertex -6.4560 -0.1000 -0.2600
        vertex -6.4560 -0.1000 0.2040
    endloop
endfacet
facet normal 0.0000 -2.6180 0.0000
    outer loop
        vertex -6.4560 -0.1000 0.2040
        vertex -7.2040 -0.1000 0.2360
        vertex -7.2040 -0.1000 -0.3240
    endloop
endfacet
facet normal 0.0000 -1.3724 0.0000
    outer loop
        vertex -7.8520 -0.1000 0.8840
        vertex -7.5600 -0.1000 0.7560
        vertex -7.2680 -0.1000 1.3800
    endloop
endfacet
facet normal 0.0000 -1.3548 0.0000
    outer loop
        vertex -7.2680 -0.1000 1.3800
        vertex -7.5920 -0.1000 1.4760
        vertex -7.8520 -0.1000 0.8840
    endloop
endfacet
facet normal 0.0000 -5.4698 0.0000
    outer loop
        vertex -6.2280 -0.1000 -1.6240
        vertex -5.5240 -0.1000 0.2120
        vertex -5.5160 -0.1000 1.4760
    endloop
endfacet
facet normal 0.0000 -13.7950 0.0000
    outer loop
        vertex -5.5160 -0.1000 1.4760
        vertex -6.2280 -0.1000 1.4760
        vertex -6.2280 -0.1000 -1.6240
    endloop
endfacet
facet normal 0.0000 -1.7428 0.0000
    outer loop
        vertex -7.4320 -0.1000 -1.5240
        vertex -7.0400 -0.1000 -1.3320
        vertex -7.4960 -0.1000 -0.8440
    endloop
endfacet
facet normal 0.0000 -2.6507 0.0000
    outer loop
        vertex -5.5200 -0.1000 -0.3800
        vertex -5.5240 -0.1000 0.2120
        vertex -6.2280 -0.1000 -1.6240
    endloop
endfacet
facet normal 0.0000 -5.5358 0.0000
    outer loop
        vertex -6.2280 -0.1000 -1.6240
        vertex -5.5160 -0.1000 -1.6240
        vertex -5.5200 -0.1000 -0.3800
    endloop
endfacet
facet normal 0.0000 -1.0666 0.0000
    outer loop
        vertex -7.2040 -0.1000 -0.3240
        vertex -7.2680 -0.1000 -0.5840
        vertex -6.7160 -0.1000 -1.0080
    endloop
endfacet
facet normal 0.0000 -1.7015 0.0000
    outer loop
        vertex -6.7160 -0.1000 -1.0080
        vertex -6.5520 -0.1000 -0.6800
        vertex -7.2040 -0.1000 -0.3240
    endloop
endfacet
facet normal 0.0000 -5.4600 0.0000
    outer loop
        vertex -7.5920 -0.1000 1.4760
        vertex -9.1520 -0.1000 1.4760
        vertex -8.4680 -0.1000 0.9160
    endloop
endfacet
facet normal 0.0000 -2.3312 0.0000
    outer loop
        vertex -8.4680 -0.1000 0.9160
        vertex -7.8520 -0.1000 0.8840
        vertex -7.5920 -0.1000 1.4760
    endloop
endfacet
facet normal 0.0000 -2.0363 0.0000
    outer loop
        vertex -5.5240 -0.1000 0.2120
        vertex -5.5200 -0.1000 -0.3800
        vertex -4.9720 -0.1000 -0.0320
    endloop
endfacet
facet normal 0.0000 -4.0894 0.0000
    outer loop
        vertex 6.3080 -0.1000 0.3160
        vertex 6.8560 -0.1000 0.1200
        vertex 7.3760 -0.1000 1.1280
    endloop
endfacet
facet normal 0.0000 -2.2539 0.0000
    outer loop
        vertex 7.3760 -0.1000 1.1280
        vertex 6.6320 -0.1000 0.9000
        vertex 6.3080 -0.1000 0.3160
    endloop
endfacet
facet normal 0.0000 -0.7339 0.0000
    outer loop
        vertex 5.6880 -0.1000 -1.4600
        vertex 5.6560 -0.1000 -1.6240
        vertex 6.3720 -0.1000 -1.6240
    endloop
endfacet
facet normal 0.0000 -2.3789 0.0000
    outer loop
        vertex 6.3080 -0.1000 0.3160
        vertex 6.0480 -0.1000 -0.2360
        vertex 6.6000 -0.1000 -0.5280
    endloop
endfacet
facet normal 0.0000 -2.5330 0.0000
    outer loop
        vertex 6.6000 -0.1000 -0.5280
        vertex 6.8560 -0.1000 0.1200
        vertex 6.3080 -0.1000 0.3160
    endloop
endfacet
facet normal 0.0000 -1.6182 0.0000
    outer loop
        vertex 6.6320 -0.1000 0.9000
        vertex 7.3760 -0.1000 1.1280
        vertex 7.3760 -0.1000 1.4760
    endloop
endfacet
facet normal 0.0000 -0.1488 0.0000
    outer loop
        vertex 7.3760 -0.1000 1.4760
        vertex 6.6320 -0.1000 0.9320
        vertex 6.6320 -0.1000 0.9000
    endloop
endfacet
facet normal 0.0000 -1.5808 0.0000
    outer loop
        vertex 0.6080 -0.1000 0.9320
        vertex 0.5040 -0.1000 1.4760
        vertex 0.0880 -0.1000 1.2200
    endloop
endfacet
facet normal 0.0000 -0.8958 0.0000
    outer loop
        vertex 0.0880 -0.1000 1.2200
        vertex 0.3920 -0.1000 0.7760
        vertex 0.6080 -0.1000 0.9320
    endloop
endfacet
facet normal 0.0000 -0.9916 0.0000
    outer loop
        vertex 1.3720 -0.1000 1.2200
        vertex 1.0760 -0.1000 0.7760
        vertex 1.2440 -0.1000 0.4920
    endloop
endfacet
facet normal 0.0000 -1.8016 0.0000
    outer loop
        vertex 1.2440 -0.1000 0.4920
        vertex 1.6920 -0.1000 0.7880
        vertex 1.3720 -0.1000 1.2200
    endloop
endfacet
facet normal 0.0000 -1.9048 0.0000
    outer loop
        vertex 1.2440 -0.1000 -0.6560
        vertex 1.6920 -0.1000 -0.9520
        vertex 1.8680 -0.1000 -0.3880
    endloop
endfacet
facet normal 0.0000 -1.3034 0.0000
    outer loop
        vertex 1.8680 -0.1000 -0.3880
        vertex 1.3320 -0.1000 -0.2840
        vertex 1.2440 -0.1000 -0.6560
    endloop
endfacet
facet normal 0.0000 -1.3433 0.0000
    outer loop
        vertex 0.1280 -0.1000 -0.2840
        vertex 0.1280 -0.1000 0.1200
        vertex -0.4040 -0.1000 0.2240
    endloop
endfacet
facet normal 0.0000 -2.0349 0.0000
    outer loop
        vertex -0.4040 -0.1000 0.2240
        vertex -0.4040 -0.1000 -0.3880
        vertex 0.1280 -0.1000 -0.2840
    endloop
endfacet
facet normal 0.0000 -1.8016 0.0000
    outer loop
        vertex 1.3720 -0.1000 -1.3840
        vertex 1.6920 -0.1000 -0.9520
        vertex 1.2440 -0.1000 -0.6560
    endloop
endfacet
facet normal 0.0000 -0.9948 0.0000
    outer loop
        vertex 1.2440 -0.1000 -0.6560
        vertex 1.0760 -0.1000 -0.9440
        vertex 1.3720 -0.1000 -1.3840
    endloop
endfacet
facet normal 0.0000 -1.4916 0.0000
    outer loop
        vertex 0.5040 -0.1000 -1.6240
        vertex 0.9560 -0.1000 -1.6240
        vertex 0.8520 -0.1000 -1.0960
    endloop
endfacet
facet normal 0.0000 -0.8052 0.0000
    outer loop
        vertex 0.8520 -0.1000 -1.0960
        vertex 0.6080 -0.1000 -1.0960
        vertex 0.5040 -0.1000 -1.6240
    endloop
endfacet
facet normal 0.0000 -1.8016 0.0000
    outer loop
        vertex 0.2160 -0.1000 -0.6560
        vertex -0.2320 -0.1000 -0.9520
        vertex 0.0880 -0.1000 -1.3840
    endloop
endfacet
facet normal 0.0000 -1.0312 0.0000
    outer loop
        vertex 0.0880 -0.1000 -1.3840
        vertex 0.3920 -0.1000 -0.9440
        vertex 0.2160 -0.1000 -0.6560
    endloop
endfacet
facet normal 0.0000 -1.8974 0.0000
    outer loop
        vertex -0.4040 -0.1000 -0.3880
        vertex -0.2320 -0.1000 -0.9520
        vertex 0.2160 -0.1000 -0.6560
    endloop
endfacet
facet normal 0.0000 -1.2941 0.0000
    outer loop
        vertex 0.2160 -0.1000 -0.6560
        vertex 0.1280 -0.1000 -0.2840
        vertex -0.4040 -0.1000 -0.3880
    endloop
endfacet
facet normal 0.0000 -1.8016 0.0000
    outer loop
        vertex 0.0880 -0.1000 1.2200
        vertex -0.2320 -0.1000 0.7880
        vertex 0.2160 -0.1000 0.4920
    endloop
endfacet
facet normal 0.0000 -1.0280 0.0000
    outer loop
        vertex 0.2160 -0.1000 0.4920
        vertex 0.3920 -0.1000 0.7760
        vertex 0.0880 -0.1000 1.2200
    endloop
endfacet
facet normal 0.0000 -1.9871 0.0000
    outer loop
        vertex -0.2320 -0.1000 0.7880
        vertex -0.4040 -0.1000 0.2240
        vertex 0.1280 -0.1000 0.1200
    endloop
endfacet
facet normal 0.0000 -1.2044 0.0000
    outer loop
        vertex 0.1280 -0.1000 0.1200
        vertex 0.2160 -0.1000 0.4920
        vertex -0.2320 -0.1000 0.7880
    endloop
endfacet
facet normal 0.0000 -1.2469 0.0000
    outer loop
        vertex -7.2680 -0.1000 1.3800
        vertex -7.5600 -0.1000 0.7560
        vertex -7.3320 -0.1000 0.5600
    endloop
endfacet
facet normal 0.0000 -1.7421 0.0000
    outer loop
        vertex -7.3320 -0.1000 0.5600
        vertex -6.9440 -0.1000 1.1760
        vertex -7.2680 -0.1000 1.3800
    endloop
endfacet
facet normal 0.0000 -1.9251 0.0000
    outer loop
        vertex -7.2040 -0.1000 -0.3240
        vertex -6.5520 -0.1000 -0.6800
        vertex -6.4560 -0.1000 -0.2600
    endloop
endfacet
facet normal 0.0000 -1.5012 0.0000
    outer loop
        vertex -6.7160 -0.1000 -1.0080
        vertex -7.2680 -0.1000 -0.5840
        vertex -7.4960 -0.1000 -0.8440
    endloop
endfacet
facet normal 0.0000 -1.9116 0.0000
    outer loop
        vertex -7.4960 -0.1000 -0.8440
        vertex -7.0400 -0.1000 -1.3320
        vertex -6.7160 -0.1000 -1.0080
    endloop
endfacet
facet normal 0.0000 -1.5914 0.0000
    outer loop
        vertex -7.4320 -0.1000 -1.5240
        vertex -7.4960 -0.1000 -0.8440
        vertex -7.8520 -0.1000 -1.0400
    endloop
endfacet
facet normal 0.0000 -1.5330 0.0000
    outer loop
        vertex -7.8520 -0.1000 -1.0400
        vertex -7.8520 -0.1000 -1.6240
        vertex -7.4320 -0.1000 -1.5240
    endloop
endfacet
facet normal 0.0000 -4.4850 0.0000
    outer loop
        vertex -8.4680 -0.1000 -1.0720
        vertex -9.1520 -0.1000 -1.6240
        vertex -7.8520 -0.1000 -1.6240
    endloop
endfacet
facet normal 0.0000 -2.2484 0.0000
    outer loop
        vertex -7.8520 -0.1000 -1.6240
        vertex -7.8520 -0.1000 -1.0400
        vertex -8.4680 -0.1000 -1.0720
    endloop
endfacet
facet normal 0.0000 -13.2525 0.0000
    outer loop
        vertex -9.1520 -0.1000 1.4760
        vertex -9.1520 -0.1000 -1.6240
        vertex -8.4680 -0.1000 -1.0720
    endloop
endfacet
facet normal 0.0000 -8.4987 0.0000
    outer loop
        vertex -8.4680 -0.1000 -1.0720
        vertex -8.4680 -0.1000 0.9160
        vertex -9.1520 -0.1000 1.4760
    endloop
endfacet
facet normal 0.0000 -0.2016 0.0000
    outer loop
        vertex 2.2800 -0.1000 -1.3720
        vertex 2.0600 -0.1000 -1.2440
        vertex 2.0280 -0.1000 -1.3720
    endloop
endfacet
facet normal 0.0000 -0.2016 0.0000
    outer loop
        vertex 2.0280 -0.1000 -1.3720
        vertex 2.0600 -0.1000 -1.5000
        vertex 2.2800 -0.1000 -1.3720
    endloop
endfacet
facet normal 0.0000 -0.2001 0.0000
    outer loop
        vertex 2.2800 -0.1000 -1.3720
        vertex 2.0600 -0.1000 -1.5000
        vertex 2.1520 -0.1000 -1.5920
    endloop
endfacet
facet normal 0.0000 -0.2016 0.0000
    outer loop
        vertex 2.1520 -0.1000 -1.5920
        vertex 2.2800 -0.1000 -1.6240
        vertex 2.2800 -0.1000 -1.3720
    endloop
endfacet
facet normal 0.0000 -0.2016 0.0000
    outer loop
        vertex 2.2800 -0.1000 -1.3720
        vertex 2.2800 -0.1000 -1.6240
        vertex 2.4080 -0.1000 -1.5920
    endloop
endfacet
facet normal 0.0000 -0.2001 0.0000
    outer loop
        vertex 2.4080 -0.1000 -1.5920
        vertex 2.5000 -0.1000 -1.5000
        vertex 2.2800 -0.1000 -1.3720
    endloop
endfacet
facet normal 0.0000 -0.2016 0.0000
    outer loop
        vertex 2.2800 -0.1000 -1.3720
        vertex 2.5000 -0.1000 -1.5000
        vertex 2.5320 -0.1000 -1.3720
    endloop
endfacet
facet normal 0.0000 -0.2016 0.0000
    outer loop
        vertex 2.5320 -0.1000 -1.3720
        vertex 2.5000 -0.1000 -1.2440
        vertex 2.2800 -0.1000 -1.3720
    endloop
endfacet
facet normal 0.0000 -0.2001 0.0000
    outer loop
        vertex 2.2800 -0.1000 -1.3720
        vertex 2.5000 -0.1000 -1.2440
        vertex 2.4080 -0.1000 -1.1520
    endloop
endfacet
facet normal 0.0000 -0.2048 0.0000
    outer loop
        vertex 2.4080 -0.1000 -1.1520
        vertex 2.2800 -0.1000 -1.1160
        vertex 2.2800 -0.1000 -1.3720
    endloop
endfacet
facet normal 0.0000 -0.2048 0.0000
    outer loop
        vertex 2.2800 -0.1000 -1.3720
        vertex 2.2800 -0.1000 -1.1160
        vertex 2.1520 -0.1000 -1.1520
    endloop
endfacet
facet normal 0.0000 -0.2001 0.0000
    outer loop
        vertex 2.1520 -0.1000 -1.1520
        vertex 2.0600 -0.1000 -1.2440
        vertex 2.2800 -0.1000 -1.3720
    endloop
endfacet
facet normal 0.0000 -0.2660 0.0000
    outer loop
        vertex -1.0880 -0.1000 1.4760
        vertex -1.4680 -0.1000 1.4760
        vertex -1.6000 -0.1000 1.3640
    endloop
endfacet
facet normal 0.0000 -2.0064 0.0000
    outer loop
        vertex -1.6000 -0.1000 1.3640
        vertex -1.6960 -0.1000 0.7160
        vertex -1.0880 -0.1000 1.4760
    endloop
endfacet
facet normal 0.0000 -0.9049 0.0000
    outer loop
        vertex -1.7280 -0.1000 0.7160
        vertex -1.8600 -0.1000 1.2160
        vertex -2.1200 -0.1000 1.1040
    endloop
endfacet
facet normal 0.0000 -0.7694 0.0000
    outer loop
        vertex -2.1200 -0.1000 1.1040
        vertex -1.9200 -0.1000 0.5920
        vertex -1.7280 -0.1000 0.7160
    endloop
endfacet
facet normal 0.0000 -0.9642 0.0000
    outer loop
        vertex -1.6960 -0.1000 0.7160
        vertex -1.6000 -0.1000 1.3640
        vertex -1.8600 -0.1000 1.2160
    endloop
endfacet
facet normal 0.0000 -0.1000 0.0000
    outer loop
        vertex -1.8600 -0.1000 1.2160
        vertex -1.7280 -0.1000 0.7160
        vertex -1.6960 -0.1000 0.7160
    endloop
endfacet
facet normal 0.0000 -8.8920 0.0000
    outer loop
        vertex -1.6960 -0.1000 0.7160
        vertex -1.6960 -0.1000 -1.6240
        vertex -1.0880 -0.1000 -1.6240
    endloop
endfacet
facet normal 0.0000 -11.7800 0.0000
    outer loop
        vertex -1.0880 -0.1000 -1.6240
        vertex -1.0880 -0.1000 1.4760
        vertex -1.6960 -0.1000 0.7160
    endloop
endfacet
facet normal 0.0000 -0.7490 0.0000
    outer loop
        vertex -2.3440 -0.1000 1.0400
        vertex -2.1080 -0.1000 0.5080
        vertex -1.9200 -0.1000 0.5920
    endloop
endfacet
facet normal 0.0000 -0.7968 0.0000
    outer loop
        vertex -1.9200 -0.1000 0.5920
        vertex -2.1200 -0.1000 1.1040
        vertex -2.3440 -0.1000 1.0400
    endloop
endfacet
facet normal 0.0000 -0.8614 0.0000
    outer loop
        vertex -2.3440 -0.1000 1.0400
        vertex -2.3440 -0.1000 0.4560
        vertex -2.1080 -0.1000 0.5080
    endloop
endfacet
endsolid GiantLegoRocks
