solid GiantLegoRocks
facet normal 0.0000 0.7500 0.0000
    outer loop
        vertex 11.0000 0.0000 7.0000
        vertex 11.0000 0.0000 -7.0000
        vertex -11.0000 0.0000 -7.0000
    endloop
endfacet
facet normal 0.0000 0.7500 0.0000
    outer loop
        vertex -11.0000 0.0000 -7.0000
        vertex -11.0000 0.0000 7.0000
        vertex 11.0000 0.0000 7.0000
    endloop
endfacet
facet normal 0.0000 -0.2500 35.0000
    outer loop
        vertex -11.0000 -0.1000 7.0000
        vertex 11.0000 -0.1000 7.0000
        vertex 11.0000 0.0000 7.0000
    endloop
endfacet
facet normal 0.0000 -0.2500 35.0000
    outer loop
        vertex 11.0000 0.0000 7.0000
        vertex -11.0000 0.0000 7.0000
        vertex -11.0000 -0.1000 7.0000
    endloop
endfacet
facet normal -55.0000 -0.2500 0.0000
    outer loop
        vertex -11.0000 -0.1000 -7.0000
        vertex -11.0000 -0.1000 7.0000
        vertex -11.0000 0.0000 7.0000
    endloop
endfacet
facet normal -55.0000 -0.2500 0.0000
    outer loop
        vertex -11.0000 0.0000 7.0000
        vertex -11.0000 0.0000 -7.0000
        vertex -11.0000 -0.1000 -7.0000
    endloop
endfacet
facet normal 0.0000 -0.2500 -35.0000
    outer loop
        vertex 11.0000 -0.1000 -7.0000
        vertex -11.0000 -0.1000 -7.0000
        vertex -11.0000 0.0000 -7.0000
    endloop
endfacet
facet normal 0.0000 -0.2500 -35.0000
    outer loop
        vertex -11.0000 0.0000 -7.0000
        vertex 11.0000 0.0000 -7.0000
        vertex 11.0000 -0.1000 -7.0000
    endloop
endfacet
facet normal 55.0000 -0.2500 0.0000
    outer loop
        vertex 11.0000 -0.1000 7.0000
        vertex 11.0000 -0.1000 -7.0000
        vertex 11.0000 0.0000 -7.0000
    endloop
endfacet
facet normal 55.0000 -0.2500 0.0000
    outer loop
        vertex 11.0000 0.0000 -7.0000
        vertex 11.0000 0.0000 7.0000
        vertex 11.0000 -0.1000 7.0000
    endloop
endfacet
facet normal 0.0000 -5.5526 0.0000
    outer loop
        vertex 4.4280 -0.1000 5.2680
        vertex 5.3360 -0.1000 3.1080
        vertex 5.4480 -0.1000 3.8200
    endloop
endfacet
facet normal 0.0000 -0.6810 0.0000
    outer loop
        vertex -6.1800 -0.1000 1.5240
        vertex -5.8200 -0.1000 1.9440
        vertex -5.7160 -0.1000 2.3680
    endloop
endfacet
facet normal 0.0000 -7.8703 0.0000
    outer loop
        vertex -5.7160 -0.1000 2.3680
        vertex -6.2800 -0.1000 4.0560
        vertex -6.1800 -0.1000 1.5240
    endloop
endfacet
facet normal 0.0000 -5.7533 0.0000
    outer loop
        vertex -5.0960 -0.1000 1.2600
        vertex -5.6120 -0.1000 0.7360
        vertex -4.3240 -0.1000 0.2600
    endloop
endfacet
facet normal 0.0000 -4.0786 0.0000
    outer loop
        vertex 4.4280 -0.1000 5.2680
        vertex 5.4480 -0.1000 3.8200
        vertex 5.6000 -0.1000 4.2440
    endloop
endfacet
facet normal 0.0000 -6.6645 0.0000
    outer loop
        vertex 5.4480 -0.1000 1.6520
        vertex 4.4280 -0.1000 0.2600
        vertex 5.7480 -0.1000 1.0160
    endloop
endfacet
facet normal 0.0000 -4.7085 0.0000
    outer loop
        vertex 5.7480 -0.1000 1.0160
        vertex 4.4280 -0.1000 0.2600
        vertex 6.0880 -0.1000 0.6400
    endloop
endfacet
facet normal 0.0000 -28.4204 0.0000
    outer loop
        vertex 5.3360 -0.1000 3.1080
        vertex 4.4280 -0.1000 5.2680
        vertex 4.4280 -0.1000 0.2600
    endloop
endfacet
facet normal 0.0000 -4.8578 0.0000
    outer loop
        vertex 4.4280 -0.1000 0.2600
        vertex 5.3360 -0.1000 2.2520
        vertex 5.3360 -0.1000 3.1080
    endloop
endfacet
facet normal 0.0000 -4.7994 0.0000
    outer loop
        vertex 5.3360 -0.1000 2.2520
        vertex 4.4280 -0.1000 0.2600
        vertex 5.4480 -0.1000 1.6520
    endloop
endfacet
facet normal 0.0000 -1.9040 0.0000
    outer loop
        vertex 2.1040 -0.1000 -0.3800
        vertex 3.8040 -0.1000 -0.5400
        vertex 4.0080 -0.1000 -0.3800
    endloop
endfacet
facet normal 0.0000 -7.6160 0.0000
    outer loop
        vertex 4.0080 -0.1000 -0.3800
        vertex 3.3440 -0.1000 0.2600
        vertex 2.1040 -0.1000 -0.3800
    endloop
endfacet
facet normal 0.0000 -13.0076 0.0000
    outer loop
        vertex 9.7640 -0.1000 6.1480
        vertex 4.4280 -0.1000 5.2680
        vertex 6.6960 -0.1000 5.2520
    endloop
endfacet
facet normal 0.0000 -1.5755 0.0000
    outer loop
        vertex 6.6960 -0.1000 5.2520
        vertex 7.1280 -0.1000 5.2960
        vertex 9.7640 -0.1000 6.1480
    endloop
endfacet
facet normal 0.0000 -15.8240 0.0000
    outer loop
        vertex 3.3440 -0.1000 0.2600
        vertex -0.6120 -0.1000 0.2600
        vertex 2.1040 -0.1000 -0.3800
    endloop
endfacet
facet normal 0.0000 -4.1476 0.0000
    outer loop
        vertex -4.8400 -0.1000 1.7880
        vertex -5.0960 -0.1000 1.2600
        vertex -4.3240 -0.1000 0.2600
    endloop
endfacet
facet normal 0.0000 -0.7710 0.0000
    outer loop
        vertex -5.7160 -0.1000 3.2120
        vertex -5.9200 -0.1000 3.7360
        vertex -6.2800 -0.1000 4.0560
    endloop
endfacet
facet normal 0.0000 -2.9751 0.0000
    outer loop
        vertex -6.2800 -0.1000 4.0560
        vertex -5.7160 -0.1000 2.3680
        vertex -5.7160 -0.1000 3.2120
    endloop
endfacet
facet normal 0.0000 -5.1763 0.0000
    outer loop
        vertex 4.4280 -0.1000 5.2680
        vertex 5.6000 -0.1000 4.2440
        vertex 5.8640 -0.1000 4.7200
    endloop
endfacet
facet normal 0.0000 -2.3096 0.0000
    outer loop
        vertex 4.4280 -0.1000 5.2680
        vertex 6.2800 -0.1000 5.0920
        vertex 6.6960 -0.1000 5.2520
    endloop
endfacet
facet normal 0.0000 -4.7635 0.0000
    outer loop
        vertex 4.4280 -0.1000 5.2680
        vertex 5.8640 -0.1000 4.7200
        vertex 6.2800 -0.1000 5.0920
    endloop
endfacet
facet normal 0.0000 -2.3610 0.0000
    outer loop
        vertex -8.7240 -0.1000 0.2600
        vertex -10.1360 -0.1000 -5.7680
        vertex -10.1080 -0.1000 -5.9160
    endloop
endfacet
facet normal 0.0000 -4.2804 0.0000
    outer loop
        vertex -10.1080 -0.1000 -5.9160
        vertex -10.0240 -0.1000 -6.0360
        vertex -8.7240 -0.1000 0.2600
    endloop
endfacet
facet normal 0.0000 -1.4055 0.0000
    outer loop
        vertex -8.7240 -0.1000 5.2160
        vertex -10.0240 -0.1000 6.0360
        vertex -10.1080 -0.1000 5.9160
    endloop
endfacet
facet normal 0.0000 -1.4027 0.0000
    outer loop
        vertex -10.1080 -0.1000 5.9160
        vertex -10.1360 -0.1000 5.7680
        vertex -8.7240 -0.1000 5.2160
    endloop
endfacet
facet normal 0.0000 -101.8052 0.0000
    outer loop
        vertex -8.7240 -0.1000 5.2160
        vertex -10.1360 -0.1000 5.7680
        vertex -10.1360 -0.1000 -5.7680
    endloop
endfacet
facet normal 0.0000 -43.7367 0.0000
    outer loop
        vertex -10.1360 -0.1000 -5.7680
        vertex -8.7240 -0.1000 0.2600
        vertex -8.7240 -0.1000 5.2160
    endloop
endfacet
facet normal 0.0000 -4.3092 0.0000
    outer loop
        vertex 10.0240 -0.1000 -6.0360
        vertex 10.1080 -0.1000 -5.9160
        vertex 4.7320 -0.1000 -5.3880
    endloop
endfacet
facet normal 0.0000 -3.2481 0.0000
    outer loop
        vertex 4.7320 -0.1000 -5.3880
        vertex 9.9080 -0.1000 -6.1200
        vertex 10.0240 -0.1000 -6.0360
    endloop
endfacet
facet normal 0.0000 -1.8326 0.0000
    outer loop
        vertex 2.6080 -0.1000 -1.0360
        vertex 2.9720 -0.1000 -0.9280
        vertex 2.1040 -0.1000 -0.3800
    endloop
endfacet
facet normal 0.0000 -1.8900 0.0000
    outer loop
        vertex 2.1040 -0.1000 -0.3800
        vertex 2.1040 -0.1000 -0.9800
        vertex 2.6080 -0.1000 -1.0360
    endloop
endfacet
facet normal 0.0000 -5.2471 0.0000
    outer loop
        vertex -8.7240 -0.1000 0.2600
        vertex -10.0240 -0.1000 -6.0360
        vertex -9.9080 -0.1000 -6.1200
    endloop
endfacet
facet normal 0.0000 -169.1452 0.0000
    outer loop
        vertex 10.1360 -0.1000 -5.7680
        vertex 4.7320 -0.1000 -0.3800
        vertex 4.7320 -0.1000 -5.3880
    endloop
endfacet
facet normal 0.0000 -5.0652 0.0000
    outer loop
        vertex 4.7320 -0.1000 -5.3880
        vertex 10.1080 -0.1000 -5.9160
        vertex 10.1360 -0.1000 -5.7680
    endloop
endfacet
facet normal 0.0000 -3.6957 0.0000
    outer loop
        vertex -4.6840 -0.1000 2.4720
        vertex -4.8400 -0.1000 1.7880
        vertex -4.3240 -0.1000 0.2600
    endloop
endfacet
facet normal 0.0000 -4.4086 0.0000
    outer loop
        vertex -5.6120 -0.1000 0.7360
        vertex -6.2280 -0.1000 0.4160
        vertex -4.3240 -0.1000 0.2600
    endloop
endfacet
facet normal 0.0000 -3.7365 0.0000
    outer loop
        vertex 6.5080 -0.1000 0.3760
        vertex 6.0880 -0.1000 0.6400
        vertex 4.4280 -0.1000 0.2600
    endloop
endfacet
facet normal 0.0000 -8.5404 0.0000
    outer loop
        vertex 4.4280 -0.1000 0.2600
        vertex 4.7320 -0.1000 -0.3800
        vertex 6.5080 -0.1000 0.3760
    endloop
endfacet
facet normal 0.0000 -1.0208 0.0000
    outer loop
        vertex -8.7240 -0.1000 5.2160
        vertex -9.7640 -0.1000 6.1480
        vertex -9.9080 -0.1000 6.1200
    endloop
endfacet
facet normal 0.0000 -1.2770 0.0000
    outer loop
        vertex -9.9080 -0.1000 6.1200
        vertex -10.0240 -0.1000 6.0360
        vertex -8.7240 -0.1000 5.2160
    endloop
endfacet
facet normal 0.0000 -2.2024 0.0000
    outer loop
        vertex -4.3240 -0.1000 5.2160
        vertex -6.8840 -0.1000 5.2240
        vertex -6.1320 -0.1000 5.0840
    endloop
endfacet
facet normal 0.0000 -4.0280 0.0000
    outer loop
        vertex -0.6400 -0.1000 -5.3880
        vertex -1.4880 -0.1000 -5.3880
        vertex -9.7640 -0.1000 -6.1480
    endloop
endfacet
facet normal 0.0000 -1.3992 0.0000
    outer loop
        vertex -0.5880 -0.1000 -5.1240
        vertex -1.4880 -0.1000 -5.3880
        vertex -0.6400 -0.1000 -5.3880
    endloop
endfacet
facet normal 0.0000 -73.2114 0.0000
    outer loop
        vertex -9.7640 -0.1000 -6.1480
        vertex -6.8960 -0.1000 0.2600
        vertex -8.7240 -0.1000 0.2600
    endloop
endfacet
facet normal 0.0000 -5.9492 0.0000
    outer loop
        vertex -8.7240 -0.1000 0.2600
        vertex -9.9080 -0.1000 -6.1200
        vertex -9.7640 -0.1000 -6.1480
    endloop
endfacet
facet normal 0.0000 -4.4449 0.0000
    outer loop
        vertex -4.3240 -0.1000 5.2160
        vertex -6.1320 -0.1000 5.0840
        vertex -5.4560 -0.1000 4.7400
    endloop
endfacet
facet normal 0.0000 -10.8675 0.0000
    outer loop
        vertex 0.3960 -0.1000 -2.3080
        vertex -1.5360 -0.1000 -1.3000
        vertex -1.5360 -0.1000 -2.2000
    endloop
endfacet
facet normal 0.0000 -11.1966 0.0000
    outer loop
        vertex -1.5360 -0.1000 -2.2000
        vertex -0.0200 -0.1000 -3.2120
        vertex 0.3960 -0.1000 -2.3080
    endloop
endfacet
facet normal 0.0000 -4.5651 0.0000
    outer loop
        vertex -4.3240 -0.1000 5.2160
        vertex -5.4560 -0.1000 4.7400
        vertex -5.0440 -0.1000 4.2680
    endloop
endfacet
facet normal 0.0000 -7.0704 0.0000
    outer loop
        vertex -3.9240 -0.1000 -1.3000
        vertex -4.4640 -0.1000 -1.6720
        vertex -3.9720 -0.1000 -3.4280
    endloop
endfacet
facet normal 0.0000 -109.5106 0.0000
    outer loop
        vertex 3.3440 -0.1000 0.2600
        vertex 2.3160 -0.1000 3.6320
        vertex -2.6400 -0.1000 2.8440
    endloop
endfacet
facet normal 0.0000 -63.8894 0.0000
    outer loop
        vertex -2.6400 -0.1000 2.8440
        vertex -0.6120 -0.1000 0.2600
        vertex 3.3440 -0.1000 0.2600
    endloop
endfacet
facet normal 0.0000 -7.2103 0.0000
    outer loop
        vertex -6.1800 -0.1000 1.5240
        vertex -6.2800 -0.1000 4.0560
        vertex -6.7440 -0.1000 4.2680
    endloop
endfacet
facet normal 0.0000 -10.7865 0.0000
    outer loop
        vertex -6.7440 -0.1000 4.2680
        vertex -6.7440 -0.1000 1.2080
        vertex -6.1800 -0.1000 1.5240
    endloop
endfacet
facet normal 0.0000 -29.0133 0.0000
    outer loop
        vertex -0.7160 -0.1000 5.2160
        vertex 3.7600 -0.1000 5.2680
        vertex -9.7640 -0.1000 6.1480
    endloop
endfacet
facet normal 0.0000 -6.8968 0.0000
    outer loop
        vertex -9.7640 -0.1000 6.1480
        vertex -1.9000 -0.1000 5.2160
        vertex -0.7160 -0.1000 5.2160
    endloop
endfacet
facet normal 0.0000 -17.8920 0.0000
    outer loop
        vertex -1.8480 -0.1000 0.2600
        vertex -3.2760 -0.1000 2.2760
        vertex -3.2680 -0.1000 0.2600
    endloop
endfacet
facet normal 0.0000 -6.1770 0.0000
    outer loop
        vertex -3.2680 -0.1000 0.2600
        vertex -2.4680 -0.1000 -0.4360
        vertex -1.8480 -0.1000 0.2600
    endloop
endfacet
facet normal 0.0000 -0.5834 0.0000
    outer loop
        vertex -1.7400 -0.1000 -0.8720
        vertex -1.5360 -0.1000 -1.3000
        vertex -1.3160 -0.1000 -1.3040
    endloop
endfacet
facet normal 0.0000 -2.4486 0.0000
    outer loop
        vertex -1.3160 -0.1000 -1.3040
        vertex -1.3160 -0.1000 -0.3800
        vertex -1.7400 -0.1000 -0.8720
    endloop
endfacet
facet normal 0.0000 -13.7490 0.0000
    outer loop
        vertex 0.9160 -0.1000 -1.3280
        vertex -1.3160 -0.1000 -1.3040
        vertex 0.3960 -0.1000 -2.3080
    endloop
endfacet
facet normal 0.0000 -1.5390 0.0000
    outer loop
        vertex -4.6840 -0.1000 3.1560
        vertex -4.6840 -0.1000 2.4720
        vertex -4.3240 -0.1000 0.2600
    endloop
endfacet
facet normal 0.0000 -11.1510 0.0000
    outer loop
        vertex -4.3240 -0.1000 0.2600
        vertex -4.3240 -0.1000 5.2160
        vertex -4.6840 -0.1000 3.1560
    endloop
endfacet
facet normal 0.0000 -3.1167 0.0000
    outer loop
        vertex -4.3240 -0.1000 5.2160
        vertex -5.0440 -0.1000 4.2680
        vertex -4.8400 -0.1000 3.8440
    endloop
endfacet
facet normal 0.0000 -1.6888 0.0000
    outer loop
        vertex -2.4680 -0.1000 -0.4360
        vertex -2.0040 -0.1000 -0.6480
        vertex -1.3160 -0.1000 -0.3800
    endloop
endfacet
facet normal 0.0000 -4.7942 0.0000
    outer loop
        vertex -1.3160 -0.1000 -0.3800
        vertex -1.8480 -0.1000 0.2600
        vertex -2.4680 -0.1000 -0.4360
    endloop
endfacet
facet normal 0.0000 -2.5077 0.0000
    outer loop
        vertex -4.3240 -0.1000 0.2600
        vertex -6.2280 -0.1000 0.4160
        vertex -6.8960 -0.1000 0.2600
    endloop
endfacet
facet normal 0.0000 -103.0086 0.0000
    outer loop
        vertex -6.8960 -0.1000 0.2600
        vertex -9.7640 -0.1000 -6.1480
        vertex -4.3240 -0.1000 0.2600
    endloop
endfacet
facet normal 0.0000 -13.7037 0.0000
    outer loop
        vertex -1.4880 -0.1000 -4.4880
        vertex -2.1600 -0.1000 -3.1560
        vertex -3.3480 -0.1000 -4.0640
    endloop
endfacet
facet normal 0.0000 -4.2247 0.0000
    outer loop
        vertex -3.3480 -0.1000 -4.0640
        vertex -3.5560 -0.1000 -4.3800
        vertex -1.4880 -0.1000 -4.4880
    endloop
endfacet
facet normal 0.0000 -5.4624 0.0000
    outer loop
        vertex -1.7440 -0.1000 -2.6800
        vertex -2.1600 -0.1000 -3.1560
        vertex -1.4880 -0.1000 -4.4880
    endloop
endfacet
facet normal 0.0000 -12.8976 0.0000
    outer loop
        vertex -1.4880 -0.1000 -4.4880
        vertex -0.3840 -0.1000 -4.2240
        vertex -1.7440 -0.1000 -2.6800
    endloop
endfacet
facet normal 0.0000 -1.3959 0.0000
    outer loop
        vertex -3.5560 -0.1000 -4.3800
        vertex -3.5560 -0.1000 -4.4880
        vertex -1.4880 -0.1000 -4.4880
    endloop
endfacet
facet normal 0.0000 -10.4283 0.0000
    outer loop
        vertex 2.1040 -0.1000 -0.9800
        vertex 1.2760 -0.1000 -2.6280
        vertex 2.6080 -0.1000 -1.9920
    endloop
endfacet
facet normal 0.0000 -3.0114 0.0000
    outer loop
        vertex 2.6080 -0.1000 -1.9920
        vertex 2.6080 -0.1000 -1.0360
        vertex 2.1040 -0.1000 -0.9800
    endloop
endfacet
facet normal 0.0000 -18.6660 0.0000
    outer loop
        vertex -7.7200 -0.1000 1.1560
        vertex -6.7440 -0.1000 1.2080
        vertex -6.7440 -0.1000 4.2680
    endloop
endfacet
facet normal 0.0000 -19.2760 0.0000
    outer loop
        vertex -6.7440 -0.1000 4.2680
        vertex -7.7200 -0.1000 4.3160
        vertex -7.7200 -0.1000 1.1560
    endloop
endfacet
facet normal 0.0000 -63.9970 0.0000
    outer loop
        vertex -0.7160 -0.1000 5.2160
        vertex -2.6400 -0.1000 2.8440
        vertex 2.3160 -0.1000 3.6320
    endloop
endfacet
facet normal 0.0000 -6.1512 0.0000
    outer loop
        vertex -9.7640 -0.1000 6.1480
        vertex -4.3240 -0.1000 5.2160
        vertex -3.2680 -0.1000 5.2160
    endloop
endfacet
facet normal 0.0000 -9.2799 0.0000
    outer loop
        vertex -2.9360 -0.1000 -1.2440
        vertex -3.9720 -0.1000 -3.4280
        vertex -2.8880 -0.1000 -2.5760
    endloop
endfacet
facet normal 0.0000 -2.3250 0.0000
    outer loop
        vertex -2.8880 -0.1000 -2.5760
        vertex -2.6240 -0.1000 -2.1520
        vertex -2.9360 -0.1000 -1.2440
    endloop
endfacet
facet normal 0.0000 -0.4653 0.0000
    outer loop
        vertex -2.9360 -0.1000 -1.2440
        vertex -3.3480 -0.1000 -1.1920
        vertex -3.9240 -0.1000 -1.3000
    endloop
endfacet
facet normal 0.0000 -13.1236 0.0000
    outer loop
        vertex -3.9240 -0.1000 -1.3000
        vertex -3.9720 -0.1000 -3.4280
        vertex -2.9360 -0.1000 -1.2440
    endloop
endfacet
facet normal 0.0000 -6.0293 0.0000
    outer loop
        vertex -4.4640 -0.1000 -1.6720
        vertex -4.3880 -0.1000 -3.9040
        vertex -3.9720 -0.1000 -3.4280
    endloop
endfacet
facet normal 0.0000 -92.7580 0.0000
    outer loop
        vertex -0.6400 -0.1000 -5.3880
        vertex -9.7640 -0.1000 -6.1480
        vertex 9.7640 -0.1000 -6.1480
    endloop
endfacet
facet normal 0.0000 -5.4150 0.0000
    outer loop
        vertex 9.7640 -0.1000 -6.1480
        vertex 0.5000 -0.1000 -5.3880
        vertex -0.6400 -0.1000 -5.3880
    endloop
endfacet
facet normal 0.0000 -7.9686 0.0000
    outer loop
        vertex -9.7640 -0.1000 6.1480
        vertex -3.2680 -0.1000 5.2160
        vertex -1.9000 -0.1000 5.2160
    endloop
endfacet
facet normal 0.0000 -17.9646 0.0000
    outer loop
        vertex -0.7160 -0.1000 5.2160
        vertex 2.3160 -0.1000 3.6320
        vertex 2.3160 -0.1000 4.5800
    endloop
endfacet
facet normal 0.0000 -1.5207 0.0000
    outer loop
        vertex -11.0000 -0.1000 7.0000
        vertex -10.1240 -0.1000 6.1360
        vertex -9.9600 -0.1000 6.2520
    endloop
endfacet
facet normal 0.0000 -1.1763 0.0000
    outer loop
        vertex -11.0000 -0.1000 7.0000
        vertex -9.9600 -0.1000 6.2520
        vertex -9.7640 -0.1000 6.2920
    endloop
endfacet
facet normal 0.0000 -1.2130 0.0000
    outer loop
        vertex -11.0000 -0.1000 7.0000
        vertex -10.2760 -0.1000 5.7680
        vertex -10.2360 -0.1000 5.9680
    endloop
endfacet
facet normal 0.0000 -1.5246 0.0000
    outer loop
        vertex -11.0000 -0.1000 7.0000
        vertex -10.2360 -0.1000 5.9680
        vertex -10.1240 -0.1000 6.1360
    endloop
endfacet
facet normal 0.0000 -4.2240 0.0000
    outer loop
        vertex -3.5560 -0.1000 -0.3800
        vertex -3.2680 -0.1000 0.2600
        vertex -4.3240 -0.1000 0.2600
    endloop
endfacet
facet normal 0.0000 -2.6400 0.0000
    outer loop
        vertex -4.3240 -0.1000 0.2600
        vertex -4.0240 -0.1000 -0.5400
        vertex -3.5560 -0.1000 -0.3800
    endloop
endfacet
facet normal 0.0000 -2.8200 0.0000
    outer loop
        vertex -4.3240 -0.1000 0.2600
        vertex -4.4920 -0.1000 -0.7960
        vertex -4.0240 -0.1000 -0.5400
    endloop
endfacet
facet normal 0.0000 -2.8960 0.0000
    outer loop
        vertex 4.0080 -0.1000 -0.3800
        vertex 4.7320 -0.1000 -0.3800
        vertex 4.4280 -0.1000 0.2600
    endloop
endfacet
facet normal 0.0000 -4.3360 0.0000
    outer loop
        vertex 4.4280 -0.1000 0.2600
        vertex 3.3440 -0.1000 0.2600
        vertex 4.0080 -0.1000 -0.3800
    endloop
endfacet
facet normal 0.0000 -13.6800 0.0000
    outer loop
        vertex -1.3160 -0.1000 -0.3800
        vertex 2.1040 -0.1000 -0.3800
        vertex -0.6120 -0.1000 0.2600
    endloop
endfacet
facet normal 0.0000 -4.9440 0.0000
    outer loop
        vertex -0.6120 -0.1000 0.2600
        vertex -1.8480 -0.1000 0.2600
        vertex -1.3160 -0.1000 -0.3800
    endloop
endfacet
facet normal 0.0000 -1.2130 0.0000
    outer loop
        vertex 10.2760 -0.1000 -5.7680
        vertex 10.2360 -0.1000 -5.9680
        vertex 11.0000 -0.1000 -7.0000
    endloop
endfacet
facet normal 0.0000 -1.2130 0.0000
    outer loop
        vertex 11.0000 -0.1000 7.0000
        vertex 10.2360 -0.1000 5.9680
        vertex 10.2760 -0.1000 5.7680
    endloop
endfacet
facet normal 0.0000 -1.5207 0.0000
    outer loop
        vertex 10.1240 -0.1000 -6.1360
        vertex 9.9600 -0.1000 -6.2520
        vertex 11.0000 -0.1000 -7.0000
    endloop
endfacet
facet normal 0.0000 -1.5246 0.0000
    outer loop
        vertex 10.2360 -0.1000 -5.9680
        vertex 10.1240 -0.1000 -6.1360
        vertex 11.0000 -0.1000 -7.0000
    endloop
endfacet
facet normal 0.0000 -1.1763 0.0000
    outer loop
        vertex 11.0000 -0.1000 7.0000
        vertex 9.7640 -0.1000 6.2920
        vertex 9.9600 -0.1000 6.2520
    endloop
endfacet
facet normal 0.0000 -97.3500 0.0000
    outer loop
        vertex 9.7640 -0.1000 6.2920
        vertex 11.0000 -0.1000 7.0000
        vertex -11.0000 -0.1000 7.0000
    endloop
endfacet
facet normal 0.0000 -86.4114 0.0000
    outer loop
        vertex -11.0000 -0.1000 7.0000
        vertex -9.7640 -0.1000 6.2920
        vertex 9.7640 -0.1000 6.2920
    endloop
endfacet
facet normal 0.0000 -1.5246 0.0000
    outer loop
        vertex 11.0000 -0.1000 7.0000
        vertex 10.1240 -0.1000 6.1360
        vertex 10.2360 -0.1000 5.9680
    endloop
endfacet
facet normal 0.0000 -1.5207 0.0000
    outer loop
        vertex 11.0000 -0.1000 7.0000
        vertex 9.9600 -0.1000 6.2520
        vertex 10.1240 -0.1000 6.1360
    endloop
endfacet
facet normal 0.0000 -29.1756 0.0000
    outer loop
        vertex -4.3240 -0.1000 0.2600
        vertex -9.7640 -0.1000 -6.1480
        vertex -4.4920 -0.1000 -0.7960
    endloop
endfacet
facet normal 0.0000 -0.4719 0.0000
    outer loop
        vertex 2.8440 -0.1000 -1.9360
        vertex 2.6080 -0.1000 -1.9920
        vertex 1.2760 -0.1000 -2.6280
    endloop
endfacet
facet normal 0.0000 -8.6280 0.0000
    outer loop
        vertex 1.2760 -0.1000 -2.6280
        vertex 0.8600 -0.1000 -3.6920
        vertex 2.8440 -0.1000 -1.9360
    endloop
endfacet
facet normal 0.0000 -4.8870 0.0000
    outer loop
        vertex 2.7040 -0.1000 4.6760
        vertex 3.0880 -0.1000 4.8440
        vertex -0.7160 -0.1000 5.2160
    endloop
endfacet
facet normal 0.0000 -3.3615 0.0000
    outer loop
        vertex -0.7160 -0.1000 5.2160
        vertex 2.3160 -0.1000 4.5800
        vertex 2.7040 -0.1000 4.6760
    endloop
endfacet
facet normal 0.0000 -12.1146 0.0000
    outer loop
        vertex -1.7440 -0.1000 -2.6800
        vertex -0.3840 -0.1000 -4.2240
        vertex -0.0200 -0.1000 -3.2120
    endloop
endfacet
facet normal 0.0000 -5.8636 0.0000
    outer loop
        vertex -0.0200 -0.1000 -3.2120
        vertex -1.5360 -0.1000 -2.2000
        vertex -1.7440 -0.1000 -2.6800
    endloop
endfacet
facet normal 0.0000 -3.7859 0.0000
    outer loop
        vertex 7.5600 -0.1000 5.2520
        vertex 7.8720 -0.1000 5.1040
        vertex 9.7640 -0.1000 6.1480
    endloop
endfacet
facet normal 0.0000 -3.0253 0.0000
    outer loop
        vertex 7.1280 -0.1000 5.2960
        vertex 7.5600 -0.1000 5.2520
        vertex 9.7640 -0.1000 6.1480
    endloop
endfacet
facet normal 0.0000 -13.6151 0.0000
    outer loop
        vertex 0.6040 -0.1000 -4.6960
        vertex 0.5000 -0.1000 -5.3880
        vertex 3.6480 -0.1000 -5.3880
    endloop
endfacet
facet normal 0.0000 -2.4812 0.0000
    outer loop
        vertex 2.1040 -0.1000 -0.3800
        vertex 2.9720 -0.1000 -0.9280
        vertex 3.4240 -0.1000 -0.7560
    endloop
endfacet
facet normal 0.0000 -2.6750 0.0000
    outer loop
        vertex 3.4240 -0.1000 -0.7560
        vertex 3.8040 -0.1000 -0.5400
        vertex 2.1040 -0.1000 -0.3800
    endloop
endfacet
facet normal 0.0000 -5.8734 0.0000
    outer loop
        vertex -0.5880 -0.1000 -5.1240
        vertex -0.3840 -0.1000 -4.2240
        vertex -1.4880 -0.1000 -4.4880
    endloop
endfacet
facet normal 0.0000 -5.0625 0.0000
    outer loop
        vertex -1.4880 -0.1000 -4.4880
        vertex -1.4880 -0.1000 -5.3880
        vertex -0.5880 -0.1000 -5.1240
    endloop
endfacet
facet normal 0.0000 -6.1832 0.0000
    outer loop
        vertex 3.5040 -0.1000 5.0440
        vertex 3.7600 -0.1000 5.2680
        vertex -0.7160 -0.1000 5.2160
    endloop
endfacet
facet normal 0.0000 -5.7222 0.0000
    outer loop
        vertex -0.7160 -0.1000 5.2160
        vertex 3.0880 -0.1000 4.8440
        vertex 3.5040 -0.1000 5.0440
    endloop
endfacet
facet normal 0.0000 -24.7266 0.0000
    outer loop
        vertex -4.7000 -0.1000 -4.5920
        vertex -9.7640 -0.1000 -6.1480
        vertex -4.7480 -0.1000 -5.3880
    endloop
endfacet
facet normal 0.0000 -15.4850 0.0000
    outer loop
        vertex -4.7480 -0.1000 -5.3880
        vertex -9.7640 -0.1000 -6.1480
        vertex -1.4880 -0.1000 -5.3880
    endloop
endfacet
facet normal 0.0000 -29.8008 0.0000
    outer loop
        vertex -4.4920 -0.1000 -0.7960
        vertex -9.7640 -0.1000 -6.1480
        vertex -4.4640 -0.1000 -1.6720
    endloop
endfacet
facet normal 0.0000 -76.0611 0.0000
    outer loop
        vertex -4.3880 -0.1000 -3.9040
        vertex -4.4640 -0.1000 -1.6720
        vertex -9.7640 -0.1000 -6.1480
    endloop
endfacet
facet normal 0.0000 -18.7410 0.0000
    outer loop
        vertex -9.7640 -0.1000 -6.1480
        vertex -4.7000 -0.1000 -4.5920
        vertex -4.3880 -0.1000 -3.9040
    endloop
endfacet
facet normal 0.0000 -2.0438 0.0000
    outer loop
        vertex -3.2680 -0.1000 0.2600
        vertex -3.0160 -0.1000 -0.3680
        vertex -2.4680 -0.1000 -0.4360
    endloop
endfacet
facet normal 0.0000 -21.9496 0.0000
    outer loop
        vertex 7.5600 -0.1000 0.3760
        vertex 7.0320 -0.1000 0.2720
        vertex 10.1360 -0.1000 -5.7680
    endloop
endfacet
facet normal 0.0000 -14.9530 0.0000
    outer loop
        vertex 0.5000 -0.1000 -5.3880
        vertex 9.7640 -0.1000 -6.1480
        vertex 3.6480 -0.1000 -5.3880
    endloop
endfacet
facet normal 0.0000 -2.1384 0.0000
    outer loop
        vertex -3.2680 -0.1000 0.2600
        vertex -3.5560 -0.1000 -0.3800
        vertex -3.0160 -0.1000 -0.3680
    endloop
endfacet
facet normal 0.0000 -6.6544 0.0000
    outer loop
        vertex 10.1360 -0.1000 5.7680
        vertex 8.5880 -0.1000 4.2640
        vertex 8.7360 -0.1000 3.7200
    endloop
endfacet
facet normal 0.0000 -6.5242 0.0000
    outer loop
        vertex 10.1360 -0.1000 5.7680
        vertex 8.7360 -0.1000 3.7200
        vertex 8.8000 -0.1000 3.0680
    endloop
endfacet
facet normal 0.0000 -2.0073 0.0000
    outer loop
        vertex 10.1080 -0.1000 5.9160
        vertex 10.0240 -0.1000 6.0360
        vertex 8.5880 -0.1000 4.2640
    endloop
endfacet
facet normal 0.0000 -1.6951 0.0000
    outer loop
        vertex 8.5880 -0.1000 4.2640
        vertex 10.1360 -0.1000 5.7680
        vertex 10.1080 -0.1000 5.9160
    endloop
endfacet
facet normal 0.0000 -72.7516 0.0000
    outer loop
        vertex 0.6040 -0.1000 -4.6960
        vertex 3.6480 -0.1000 -5.3880
        vertex 3.6480 -0.1000 -1.5640
    endloop
endfacet
facet normal 0.0000 -4.2973 0.0000
    outer loop
        vertex 3.6480 -0.1000 -1.5640
        vertex 3.1680 -0.1000 -1.8320
        vertex 0.6040 -0.1000 -4.6960
    endloop
endfacet
facet normal 0.0000 -14.6400 0.0000
    outer loop
        vertex -6.8840 -0.1000 5.2240
        vertex -4.3240 -0.1000 5.2160
        vertex -9.7640 -0.1000 6.1480
    endloop
endfacet
facet normal 0.0000 -10.7700 0.0000
    outer loop
        vertex -9.7640 -0.1000 6.1480
        vertex -8.7240 -0.1000 5.2160
        vertex -6.8840 -0.1000 5.2240
    endloop
endfacet
facet normal 0.0000 -15.4242 0.0000
    outer loop
        vertex -3.2680 -0.1000 5.2160
        vertex -3.2840 -0.1000 3.4120
        vertex -1.9000 -0.1000 5.2160
    endloop
endfacet
facet normal 0.0000 -6.3077 0.0000
    outer loop
        vertex 10.1360 -0.1000 5.7680
        vertex 8.8000 -0.1000 3.0680
        vertex 8.7720 -0.1000 2.2560
    endloop
endfacet
facet normal 0.0000 -98.3444 0.0000
    outer loop
        vertex 8.7720 -0.1000 2.2560
        vertex 10.1360 -0.1000 -5.7680
        vertex 10.1360 -0.1000 5.7680
    endloop
endfacet
facet normal 0.0000 -8.5894 0.0000
    outer loop
        vertex 8.7720 -0.1000 2.2560
        vertex 8.7000 -0.1000 1.6720
        vertex 10.1360 -0.1000 -5.7680
    endloop
endfacet
facet normal 0.0000 -0.5045 0.0000
    outer loop
        vertex -2.5760 -0.1000 -1.7760
        vertex -2.6760 -0.1000 -1.4040
        vertex -2.9360 -0.1000 -1.2440
    endloop
endfacet
facet normal 0.0000 -1.0056 0.0000
    outer loop
        vertex -2.9360 -0.1000 -1.2440
        vertex -2.6240 -0.1000 -2.1520
        vertex -2.5760 -0.1000 -1.7760
    endloop
endfacet
facet normal 0.0000 -11.5067 0.0000
    outer loop
        vertex 0.8600 -0.1000 -3.6920
        vertex 0.6040 -0.1000 -4.6960
        vertex 3.1680 -0.1000 -1.8320
    endloop
endfacet
facet normal 0.0000 -2.2663 0.0000
    outer loop
        vertex 3.1680 -0.1000 -1.8320
        vertex 2.8440 -0.1000 -1.9360
        vertex 0.8600 -0.1000 -3.6920
    endloop
endfacet
facet normal 0.0000 -3.5565 0.0000
    outer loop
        vertex -4.3240 -0.1000 5.2160
        vertex -4.8400 -0.1000 3.8440
        vertex -4.6840 -0.1000 3.1560
    endloop
endfacet
facet normal 0.0000 -1.3377 0.0000
    outer loop
        vertex -1.5360 -0.1000 -1.3000
        vertex 0.3960 -0.1000 -2.3080
        vertex -1.3160 -0.1000 -1.3040
    endloop
endfacet
facet normal 0.0000 -1.8697 0.0000
    outer loop
        vertex 10.0240 -0.1000 6.0360
        vertex 9.9080 -0.1000 6.1200
        vertex 8.2800 -0.1000 4.7200
    endloop
endfacet
facet normal 0.0000 -7.5037 0.0000
    outer loop
        vertex 8.2800 -0.1000 4.7200
        vertex 8.5880 -0.1000 4.2640
        vertex 10.0240 -0.1000 6.0360
    endloop
endfacet
facet normal 0.0000 -5.1490 0.0000
    outer loop
        vertex 4.7320 -0.1000 -5.3880
        vertex 3.6480 -0.1000 -5.3880
        vertex 9.7640 -0.1000 -6.1480
    endloop
endfacet
facet normal 0.0000 -1.5646 0.0000
    outer loop
        vertex 9.7640 -0.1000 -6.1480
        vertex 9.9080 -0.1000 -6.1200
        vertex 4.7320 -0.1000 -5.3880
    endloop
endfacet
facet normal 0.0000 -1.4054 0.0000
    outer loop
        vertex -1.3160 -0.1000 -0.3800
        vertex -2.0040 -0.1000 -0.6480
        vertex -1.7400 -0.1000 -0.8720
    endloop
endfacet
facet normal 0.0000 -7.2030 0.0000
    outer loop
        vertex 9.7640 -0.1000 6.1480
        vertex 7.8720 -0.1000 5.1040
        vertex 8.2800 -0.1000 4.7200
    endloop
endfacet
facet normal 0.0000 -1.5449 0.0000
    outer loop
        vertex 8.2800 -0.1000 4.7200
        vertex 9.9080 -0.1000 6.1200
        vertex 9.7640 -0.1000 6.1480
    endloop
endfacet
facet normal 0.0000 -4.7434 0.0000
    outer loop
        vertex 2.5240 -0.1000 3.6880
        vertex 2.3160 -0.1000 3.6320
        vertex 3.3440 -0.1000 0.2600
    endloop
endfacet
facet normal 0.0000 -1.2130 0.0000
    outer loop
        vertex -10.2760 -0.1000 -5.7680
        vertex -11.0000 -0.1000 -7.0000
        vertex -10.2360 -0.1000 -5.9680
    endloop
endfacet
facet normal 0.0000 -1.5246 0.0000
    outer loop
        vertex -10.2360 -0.1000 -5.9680
        vertex -11.0000 -0.1000 -7.0000
        vertex -10.1240 -0.1000 -6.1360
    endloop
endfacet
facet normal 0.0000 -52.2004 0.0000
    outer loop
        vertex 10.2760 -0.1000 5.7680
        vertex 10.2760 -0.1000 -5.7680
        vertex 11.0000 -0.1000 -7.0000
    endloop
endfacet
facet normal 0.0000 -63.3500 0.0000
    outer loop
        vertex 11.0000 -0.1000 -7.0000
        vertex 11.0000 -0.1000 7.0000
        vertex 10.2760 -0.1000 5.7680
    endloop
endfacet
facet normal 0.0000 -52.2004 0.0000
    outer loop
        vertex -10.2760 -0.1000 -5.7680
        vertex -10.2760 -0.1000 5.7680
        vertex -11.0000 -0.1000 7.0000
    endloop
endfacet
facet normal 0.0000 -63.3500 0.0000
    outer loop
        vertex -11.0000 -0.1000 7.0000
        vertex -11.0000 -0.1000 -7.0000
        vertex -10.2760 -0.1000 -5.7680
    endloop
endfacet
facet normal 0.0000 -97.3500 0.0000
    outer loop
        vertex -11.0000 -0.1000 -7.0000
        vertex 11.0000 -0.1000 -7.0000
        vertex 9.7640 -0.1000 -6.2920
    endloop
endfacet
facet normal 0.0000 -86.4114 0.0000
    outer loop
        vertex 9.7640 -0.1000 -6.2920
        vertex -9.7640 -0.1000 -6.2920
        vertex -11.0000 -0.1000 -7.0000
    endloop
endfacet
facet normal 0.0000 -1.1763 0.0000
    outer loop
        vertex 9.9600 -0.1000 -6.2520
        vertex 9.7640 -0.1000 -6.2920
        vertex 11.0000 -0.1000 -7.0000
    endloop
endfacet
facet normal 0.0000 -1.5207 0.0000
    outer loop
        vertex -10.1240 -0.1000 -6.1360
        vertex -11.0000 -0.1000 -7.0000
        vertex -9.9600 -0.1000 -6.2520
    endloop
endfacet
facet normal 0.0000 -1.1763 0.0000
    outer loop
        vertex -9.9600 -0.1000 -6.2520
        vertex -11.0000 -0.1000 -7.0000
        vertex -9.7640 -0.1000 -6.2920
    endloop
endfacet
facet normal 0.0000 -85.3407 0.0000
    outer loop
        vertex 6.5080 -0.1000 0.3760
        vertex 4.7320 -0.1000 -0.3800
        vertex 10.1360 -0.1000 -5.7680
    endloop
endfacet
facet normal 0.0000 -17.7634 0.0000
    outer loop
        vertex 10.1360 -0.1000 -5.7680
        vertex 7.0320 -0.1000 0.2720
        vertex 6.5080 -0.1000 0.3760
    endloop
endfacet
facet normal 0.0000 -22.1048 0.0000
    outer loop
        vertex 8.4680 -0.1000 1.1160
        vertex 8.0560 -0.1000 0.6960
        vertex 10.1360 -0.1000 -5.7680
    endloop
endfacet
facet normal 0.0000 -8.2460 0.0000
    outer loop
        vertex 2.8840 -0.1000 3.7920
        vertex 2.5240 -0.1000 3.6880
        vertex 3.3440 -0.1000 0.2600
    endloop
endfacet
facet normal 0.0000 -15.7781 0.0000
    outer loop
        vertex 8.7000 -0.1000 1.6720
        vertex 8.4680 -0.1000 1.1160
        vertex 10.1360 -0.1000 -5.7680
    endloop
endfacet
facet normal 0.0000 -10.9135 0.0000
    outer loop
        vertex 3.3440 -0.1000 4.0560
        vertex 2.8840 -0.1000 3.7920
        vertex 3.3440 -0.1000 0.2600
    endloop
endfacet
facet normal 0.0000 -107.4040 0.0000
    outer loop
        vertex 4.4280 -0.1000 5.2680
        vertex 9.7640 -0.1000 6.1480
        vertex -9.7640 -0.1000 6.1480
    endloop
endfacet
facet normal 0.0000 -3.6740 0.0000
    outer loop
        vertex -9.7640 -0.1000 6.1480
        vertex 3.7600 -0.1000 5.2680
        vertex 4.4280 -0.1000 5.2680
    endloop
endfacet
facet normal 0.0000 -24.1984 0.0000
    outer loop
        vertex 8.0560 -0.1000 0.6960
        vertex 7.5600 -0.1000 0.3760
        vertex 10.1360 -0.1000 -5.7680
    endloop
endfacet
facet normal 0.0000 -9.3846 0.0000
    outer loop
        vertex 7.9400 -0.1000 3.0560
        vertex 6.1680 -0.1000 3.0840
        vertex 6.2080 -0.1000 2.2360
    endloop
endfacet
facet normal 0.0000 -8.6920 0.0000
    outer loop
        vertex 6.2080 -0.1000 2.2360
        vertex 7.9040 -0.1000 2.2360
        vertex 7.9400 -0.1000 3.0560
    endloop
endfacet
facet normal 0.0000 -6.6568 0.0000
    outer loop
        vertex 7.9040 -0.1000 2.2360
        vertex 6.2080 -0.1000 2.2360
        vertex 6.4320 -0.1000 1.6080
    endloop
endfacet
facet normal 0.0000 -4.8827 0.0000
    outer loop
        vertex 6.4320 -0.1000 1.6080
        vertex 7.6760 -0.1000 1.6080
        vertex 7.9040 -0.1000 2.2360
    endloop
endfacet
facet normal 0.0000 -1.0428 0.0000
    outer loop
        vertex 6.7920 -0.1000 1.2920
        vertex 7.3200 -0.1000 1.2920
        vertex 7.6760 -0.1000 1.6080
    endloop
endfacet
facet normal 0.0000 -2.4569 0.0000
    outer loop
        vertex 7.6760 -0.1000 1.6080
        vertex 6.4320 -0.1000 1.6080
        vertex 6.7920 -0.1000 1.2920
    endloop
endfacet
facet normal 0.0000 -7.0684 0.0000
    outer loop
        vertex 6.1680 -0.1000 3.0840
        vertex 7.9400 -0.1000 3.0560
        vertex 7.8280 -0.1000 3.6960
    endloop
endfacet
facet normal 0.0000 -6.0456 0.0000
    outer loop
        vertex 7.8280 -0.1000 3.6960
        vertex 6.2800 -0.1000 3.7080
        vertex 6.1680 -0.1000 3.0840
    endloop
endfacet
facet normal 0.0000 -4.5477 0.0000
    outer loop
        vertex 6.5440 -0.1000 4.1760
        vertex 6.2800 -0.1000 3.7080
        vertex 7.8280 -0.1000 3.6960
    endloop
endfacet
facet normal 0.0000 -3.1800 0.0000
    outer loop
        vertex 7.8280 -0.1000 3.6960
        vertex 7.6040 -0.1000 4.1760
        vertex 6.5440 -0.1000 4.1760
    endloop
endfacet
facet normal 0.0000 -1.4045 0.0000
    outer loop
        vertex 6.8480 -0.1000 4.3880
        vertex 6.5440 -0.1000 4.1760
        vertex 7.6040 -0.1000 4.1760
    endloop
endfacet
facet normal 0.0000 -0.5512 0.0000
    outer loop
        vertex 7.6040 -0.1000 4.1760
        vertex 7.2640 -0.1000 4.3880
        vertex 6.8480 -0.1000 4.3880
    endloop
endfacet
facet normal 0.0000 -4.4036 0.0000
    outer loop
        vertex 6.2080 -0.1000 2.2360
        vertex 6.1680 -0.1000 3.0840
        vertex 5.3360 -0.1000 3.1080
    endloop
endfacet
facet normal 0.0000 -4.6652 0.0000
    outer loop
        vertex 5.3360 -0.1000 3.1080
        vertex 5.3360 -0.1000 2.2520
        vertex 6.2080 -0.1000 2.2360
    endloop
endfacet
facet normal 0.0000 -3.2850 0.0000
    outer loop
        vertex 8.2800 -0.1000 4.7200
        vertex 7.8720 -0.1000 5.1040
        vertex 7.2640 -0.1000 4.3880
    endloop
endfacet
facet normal 0.0000 -2.0517 0.0000
    outer loop
        vertex 7.2640 -0.1000 4.3880
        vertex 7.6040 -0.1000 4.1760
        vertex 8.2800 -0.1000 4.7200
    endloop
endfacet
facet normal 0.0000 -4.0590 0.0000
    outer loop
        vertex 7.1280 -0.1000 5.2960
        vertex 7.2640 -0.1000 4.3880
        vertex 7.8720 -0.1000 5.1040
    endloop
endfacet
facet normal 0.0000 -0.3138 0.0000
    outer loop
        vertex 7.8720 -0.1000 5.1040
        vertex 7.5600 -0.1000 5.2520
        vertex 7.1280 -0.1000 5.2960
    endloop
endfacet
facet normal 0.0000 -3.1094 0.0000
    outer loop
        vertex 7.8280 -0.1000 3.6960
        vertex 8.7360 -0.1000 3.7200
        vertex 8.5880 -0.1000 4.2640
    endloop
endfacet
facet normal 0.0000 -2.9738 0.0000
    outer loop
        vertex 8.5880 -0.1000 4.2640
        vertex 8.2800 -0.1000 4.7200
        vertex 7.6040 -0.1000 4.1760
    endloop
endfacet
facet normal 0.0000 -3.0752 0.0000
    outer loop
        vertex 7.6040 -0.1000 4.1760
        vertex 7.8280 -0.1000 3.6960
        vertex 8.5880 -0.1000 4.2640
    endloop
endfacet
facet normal 0.0000 -3.7097 0.0000
    outer loop
        vertex 8.8000 -0.1000 3.0680
        vertex 8.7360 -0.1000 3.7200
        vertex 7.8280 -0.1000 3.6960
    endloop
endfacet
facet normal 0.0000 -3.4484 0.0000
    outer loop
        vertex 7.8280 -0.1000 3.6960
        vertex 7.9400 -0.1000 3.0560
        vertex 8.8000 -0.1000 3.0680
    endloop
endfacet
facet normal 0.0000 -5.7648 0.0000
    outer loop
        vertex 8.0560 -0.1000 0.6960
        vertex 7.3200 -0.1000 1.2920
        vertex 7.0320 -0.1000 0.2720
    endloop
endfacet
facet normal 0.0000 -0.7336 0.0000
    outer loop
        vertex 7.0320 -0.1000 0.2720
        vertex 7.5600 -0.1000 0.3760
        vertex 8.0560 -0.1000 0.6960
    endloop
endfacet
facet normal 0.0000 -3.3660 0.0000
    outer loop
        vertex 7.3200 -0.1000 1.2920
        vertex 6.7920 -0.1000 1.2920
        vertex 7.0320 -0.1000 0.2720
    endloop
endfacet
facet normal 0.0000 -5.4660 0.0000
    outer loop
        vertex 7.0320 -0.1000 0.2720
        vertex 6.7920 -0.1000 1.2920
        vertex 6.0880 -0.1000 0.6400
    endloop
endfacet
facet normal 0.0000 -0.5916 0.0000
    outer loop
        vertex 6.0880 -0.1000 0.6400
        vertex 6.5080 -0.1000 0.3760
        vertex 7.0320 -0.1000 0.2720
    endloop
endfacet
facet normal 0.0000 -3.2588 0.0000
    outer loop
        vertex 6.2080 -0.1000 2.2360
        vertex 5.3360 -0.1000 2.2520
        vertex 5.4480 -0.1000 1.6520
    endloop
endfacet
facet normal 0.0000 -2.8574 0.0000
    outer loop
        vertex 6.0880 -0.1000 0.6400
        vertex 6.7920 -0.1000 1.2920
        vertex 6.4320 -0.1000 1.6080
    endloop
endfacet
facet normal 0.0000 -2.8654 0.0000
    outer loop
        vertex 6.4320 -0.1000 1.6080
        vertex 5.7480 -0.1000 1.0160
        vertex 6.0880 -0.1000 0.6400
    endloop
endfacet
facet normal 0.0000 -3.4667 0.0000
    outer loop
        vertex 7.3200 -0.1000 1.2920
        vertex 8.0560 -0.1000 0.6960
        vertex 8.4680 -0.1000 1.1160
    endloop
endfacet
facet normal 0.0000 -2.6589 0.0000
    outer loop
        vertex 8.4680 -0.1000 1.1160
        vertex 7.6760 -0.1000 1.6080
        vertex 7.3200 -0.1000 1.2920
    endloop
endfacet
facet normal 0.0000 -2.9206 0.0000
    outer loop
        vertex 6.5440 -0.1000 4.1760
        vertex 5.8640 -0.1000 4.7200
        vertex 5.6000 -0.1000 4.2440
    endloop
endfacet
facet normal 0.0000 -2.8734 0.0000
    outer loop
        vertex 5.6000 -0.1000 4.2440
        vertex 6.2800 -0.1000 3.7080
        vertex 6.5440 -0.1000 4.1760
    endloop
endfacet
facet normal 0.0000 -2.3112 0.0000
    outer loop
        vertex 5.6000 -0.1000 4.2440
        vertex 5.4480 -0.1000 3.8200
        vertex 6.2800 -0.1000 3.7080
    endloop
endfacet
facet normal 0.0000 -2.3608 0.0000
    outer loop
        vertex 6.8480 -0.1000 4.3880
        vertex 7.2640 -0.1000 4.3880
        vertex 7.1280 -0.1000 5.2960
    endloop
endfacet
facet normal 0.0000 -0.3176 0.0000
    outer loop
        vertex 7.1280 -0.1000 5.2960
        vertex 6.6960 -0.1000 5.2520
        vertex 6.2800 -0.1000 5.0920
    endloop
endfacet
facet normal 0.0000 -4.4554 0.0000
    outer loop
        vertex 6.2800 -0.1000 5.0920
        vertex 6.8480 -0.1000 4.3880
        vertex 7.1280 -0.1000 5.2960
    endloop
endfacet
facet normal 0.0000 -4.4440 0.0000
    outer loop
        vertex 7.9400 -0.1000 3.0560
        vertex 7.9040 -0.1000 2.2360
        vertex 8.7720 -0.1000 2.2560
    endloop
endfacet
facet normal 0.0000 -4.3624 0.0000
    outer loop
        vertex 8.7720 -0.1000 2.2560
        vertex 8.8000 -0.1000 3.0680
        vertex 7.9400 -0.1000 3.0560
    endloop
endfacet
facet normal 0.0000 -3.4656 0.0000
    outer loop
        vertex 7.6760 -0.1000 1.6080
        vertex 8.4680 -0.1000 1.1160
        vertex 8.7000 -0.1000 1.6720
    endloop
endfacet
facet normal 0.0000 -3.9280 0.0000
    outer loop
        vertex 8.7000 -0.1000 1.6720
        vertex 7.9040 -0.1000 2.2360
        vertex 7.6760 -0.1000 1.6080
    endloop
endfacet
facet normal 0.0000 -3.1592 0.0000
    outer loop
        vertex 8.7000 -0.1000 1.6720
        vertex 8.7720 -0.1000 2.2560
        vertex 7.9040 -0.1000 2.2360
    endloop
endfacet
facet normal 0.0000 -3.8289 0.0000
    outer loop
        vertex 5.4480 -0.1000 1.6520
        vertex 5.7480 -0.1000 1.0160
        vertex 6.4320 -0.1000 1.6080
    endloop
endfacet
facet normal 0.0000 -3.8006 0.0000
    outer loop
        vertex 6.4320 -0.1000 1.6080
        vertex 6.2080 -0.1000 2.2360
        vertex 5.4480 -0.1000 1.6520
    endloop
endfacet
facet normal 0.0000 -3.2616 0.0000
    outer loop
        vertex 5.3360 -0.1000 3.1080
        vertex 6.1680 -0.1000 3.0840
        vertex 6.2800 -0.1000 3.7080
    endloop
endfacet
facet normal 0.0000 -3.7808 0.0000
    outer loop
        vertex 6.2800 -0.1000 3.7080
        vertex 5.4480 -0.1000 3.8200
        vertex 5.3360 -0.1000 3.1080
    endloop
endfacet
facet normal 0.0000 -1.9346 0.0000
    outer loop
        vertex 5.8640 -0.1000 4.7200
        vertex 6.5440 -0.1000 4.1760
        vertex 6.8480 -0.1000 4.3880
    endloop
endfacet
facet normal 0.0000 -3.1510 0.0000
    outer loop
        vertex 6.8480 -0.1000 4.3880
        vertex 6.2800 -0.1000 5.0920
        vertex 5.8640 -0.1000 4.7200
    endloop
endfacet
facet normal 0.0000 -1.8810 0.0000
    outer loop
        vertex -0.5880 -0.1000 -5.1240
        vertex -0.6400 -0.1000 -5.3880
        vertex 0.5000 -0.1000 -5.3880
    endloop
endfacet
facet normal 0.0000 -7.1000 0.0000
    outer loop
        vertex 1.2760 -0.1000 -2.6280
        vertex -0.0200 -0.1000 -3.2120
        vertex 0.8600 -0.1000 -3.6920
    endloop
endfacet
facet normal 0.0000 -10.2368 0.0000
    outer loop
        vertex -7.7200 -0.1000 1.1560
        vertex -8.7240 -0.1000 0.2600
        vertex -6.8960 -0.1000 0.2600
    endloop
endfacet
facet normal 0.0000 -5.7334 0.0000
    outer loop
        vertex -6.8960 -0.1000 0.2600
        vertex -6.7440 -0.1000 1.2080
        vertex -7.7200 -0.1000 1.1560
    endloop
endfacet
facet normal 0.0000 -31.0989 0.0000
    outer loop
        vertex -8.7240 -0.1000 5.2160
        vertex -8.7240 -0.1000 0.2600
        vertex -7.7200 -0.1000 1.1560
    endloop
endfacet
facet normal 0.0000 -19.8290 0.0000
    outer loop
        vertex -7.7200 -0.1000 1.1560
        vertex -7.7200 -0.1000 4.3160
        vertex -8.7240 -0.1000 5.2160
    endloop
endfacet
facet normal 0.0000 -2.3688 0.0000
    outer loop
        vertex 3.5040 -0.1000 5.0440
        vertex 3.0880 -0.1000 4.8440
        vertex 3.3440 -0.1000 4.0560
    endloop
endfacet
facet normal 0.0000 -2.5234 0.0000
    outer loop
        vertex 3.4240 -0.1000 -0.7560
        vertex 2.9720 -0.1000 -0.9280
        vertex 3.6480 -0.1000 -1.5640
    endloop
endfacet
facet normal 0.0000 -2.2517 0.0000
    outer loop
        vertex 2.7040 -0.1000 4.6760
        vertex 2.3160 -0.1000 4.5800
        vertex 2.8840 -0.1000 3.7920
    endloop
endfacet
facet normal 0.0000 -0.5049 0.0000
    outer loop
        vertex -3.0160 -0.1000 -0.3680
        vertex -3.5560 -0.1000 -0.3800
        vertex -4.0240 -0.1000 -0.5400
    endloop
endfacet
facet normal 0.0000 -1.0175 0.0000
    outer loop
        vertex -4.0240 -0.1000 -0.5400
        vertex -2.4680 -0.1000 -0.4360
        vertex -3.0160 -0.1000 -0.3680
    endloop
endfacet
facet normal 0.0000 -4.3416 0.0000
    outer loop
        vertex -5.8200 -0.1000 1.9440
        vertex -4.8400 -0.1000 1.7880
        vertex -4.6840 -0.1000 2.4720
    endloop
endfacet
facet normal 0.0000 -2.6672 0.0000
    outer loop
        vertex -4.6840 -0.1000 2.4720
        vertex -5.7160 -0.1000 2.3680
        vertex -5.8200 -0.1000 1.9440
    endloop
endfacet
facet normal 0.0000 -4.4550 0.0000
    outer loop
        vertex 2.1040 -0.1000 -0.3800
        vertex 0.9160 -0.1000 -1.3280
        vertex 2.1040 -0.1000 -0.9800
    endloop
endfacet
facet normal 0.0000 -17.5528 0.0000
    outer loop
        vertex -2.6400 -0.1000 2.8440
        vertex -0.7160 -0.1000 5.2160
        vertex -1.9000 -0.1000 5.2160
    endloop
endfacet
facet normal 0.0000 -12.1743 0.0000
    outer loop
        vertex -1.9000 -0.1000 5.2160
        vertex -3.2840 -0.1000 3.4120
        vertex -2.6400 -0.1000 2.8440
    endloop
endfacet
facet normal 0.0000 -6.4638 0.0000
    outer loop
        vertex -5.4560 -0.1000 4.7400
        vertex -5.9200 -0.1000 3.7360
        vertex -4.8400 -0.1000 3.8440
    endloop
endfacet
facet normal 0.0000 -0.4900 0.0000
    outer loop
        vertex -4.8400 -0.1000 3.8440
        vertex -5.0440 -0.1000 4.2680
        vertex -5.4560 -0.1000 4.7400
    endloop
endfacet
facet normal 0.0000 -5.0601 0.0000
    outer loop
        vertex 3.3440 -0.1000 4.0560
        vertex 4.4280 -0.1000 5.2680
        vertex 3.7600 -0.1000 5.2680
    endloop
endfacet
facet normal 0.0000 -1.3568 0.0000
    outer loop
        vertex 3.7600 -0.1000 5.2680
        vertex 3.5040 -0.1000 5.0440
        vertex 3.3440 -0.1000 4.0560
    endloop
endfacet
facet normal 0.0000 -2.6879 0.0000
    outer loop
        vertex 2.8840 -0.1000 3.7920
        vertex 3.3440 -0.1000 4.0560
        vertex 3.0880 -0.1000 4.8440
    endloop
endfacet
facet normal 0.0000 -2.3106 0.0000
    outer loop
        vertex 3.0880 -0.1000 4.8440
        vertex 2.7040 -0.1000 4.6760
        vertex 2.8840 -0.1000 3.7920
    endloop
endfacet
facet normal 0.0000 -2.1422 0.0000
    outer loop
        vertex 2.5240 -0.1000 3.6880
        vertex 2.8840 -0.1000 3.7920
        vertex 2.3160 -0.1000 4.5800
    endloop
endfacet
facet normal 0.0000 -1.2324 0.0000
    outer loop
        vertex 2.3160 -0.1000 4.5800
        vertex 2.3160 -0.1000 3.6320
        vertex 2.5240 -0.1000 3.6880
    endloop
endfacet
facet normal 0.0000 -10.0940 0.0000
    outer loop
        vertex 10.1360 -0.1000 5.7680
        vertex 10.1360 -0.1000 -5.7680
        vertex 10.2760 -0.1000 -5.7680
    endloop
endfacet
facet normal 0.0000 -10.0940 0.0000
    outer loop
        vertex 10.2760 -0.1000 -5.7680
        vertex 10.2760 -0.1000 5.7680
        vertex 10.1360 -0.1000 5.7680
    endloop
endfacet
facet normal 0.0000 -10.0940 0.0000
    outer loop
        vertex -10.2760 -0.1000 5.7680
        vertex -10.2760 -0.1000 -5.7680
        vertex -10.1360 -0.1000 -5.7680
    endloop
endfacet
facet normal 0.0000 -10.0940 0.0000
    outer loop
        vertex -10.1360 -0.1000 -5.7680
        vertex -10.1360 -0.1000 5.7680
        vertex -10.2760 -0.1000 5.7680
    endloop
endfacet
facet normal 0.0000 -0.7240 0.0000
    outer loop
        vertex 4.7320 -0.1000 -0.3800
        vertex 4.0080 -0.1000 -0.3800
        vertex 3.8040 -0.1000 -0.5400
    endloop
endfacet
facet normal 0.0000 -5.7832 0.0000
    outer loop
        vertex 3.8040 -0.1000 -0.5400
        vertex 3.6480 -0.1000 -1.5640
        vertex 4.7320 -0.1000 -0.3800
    endloop
endfacet
facet normal 0.0000 -25.7179 0.0000
    outer loop
        vertex 3.3440 -0.1000 4.0560
        vertex 3.3440 -0.1000 0.2600
        vertex 4.4280 -0.1000 0.2600
    endloop
endfacet
facet normal 0.0000 -33.9292 0.0000
    outer loop
        vertex 4.4280 -0.1000 0.2600
        vertex 4.4280 -0.1000 5.2680
        vertex 3.3440 -0.1000 4.0560
    endloop
endfacet
facet normal 0.0000 -6.4300 0.0000
    outer loop
        vertex 1.2760 -0.1000 -2.6280
        vertex 0.9160 -0.1000 -1.3280
        vertex 0.3960 -0.1000 -2.3080
    endloop
endfacet
facet normal 0.0000 -5.8040 0.0000
    outer loop
        vertex 0.3960 -0.1000 -2.3080
        vertex -0.0200 -0.1000 -3.2120
        vertex 1.2760 -0.1000 -2.6280
    endloop
endfacet
facet normal 0.0000 -13.4028 0.0000
    outer loop
        vertex -1.3160 -0.1000 -1.3040
        vertex 0.9160 -0.1000 -1.3280
        vertex 2.1040 -0.1000 -0.3800
    endloop
endfacet
facet normal 0.0000 -19.7505 0.0000
    outer loop
        vertex 2.1040 -0.1000 -0.3800
        vertex -1.3160 -0.1000 -0.3800
        vertex -1.3160 -0.1000 -1.3040
    endloop
endfacet
facet normal 0.0000 -2.2214 0.0000
    outer loop
        vertex 3.6480 -0.1000 -1.5640
        vertex 3.8040 -0.1000 -0.5400
        vertex 3.4240 -0.1000 -0.7560
    endloop
endfacet
facet normal 0.0000 -1.4101 0.0000
    outer loop
        vertex 2.6080 -0.1000 -1.0360
        vertex 2.6080 -0.1000 -1.9920
        vertex 2.8440 -0.1000 -1.9360
    endloop
endfacet
facet normal 0.0000 -25.9076 0.0000
    outer loop
        vertex 3.6480 -0.1000 -1.5640
        vertex 3.6480 -0.1000 -5.3880
        vertex 4.7320 -0.1000 -5.3880
    endloop
endfacet
facet normal 0.0000 -33.9292 0.0000
    outer loop
        vertex 4.7320 -0.1000 -5.3880
        vertex 4.7320 -0.1000 -0.3800
        vertex 3.6480 -0.1000 -1.5640
    endloop
endfacet
facet normal 0.0000 -3.0403 0.0000
    outer loop
        vertex 3.1680 -0.1000 -1.8320
        vertex 3.6480 -0.1000 -1.5640
        vertex 2.9720 -0.1000 -0.9280
    endloop
endfacet
facet normal 0.0000 -2.1889 0.0000
    outer loop
        vertex 2.9720 -0.1000 -0.9280
        vertex 2.6080 -0.1000 -1.0360
        vertex 3.1680 -0.1000 -1.8320
    endloop
endfacet
facet normal 0.0000 -1.9759 0.0000
    outer loop
        vertex 2.6080 -0.1000 -1.0360
        vertex 2.8440 -0.1000 -1.9360
        vertex 3.1680 -0.1000 -1.8320
    endloop
endfacet
facet normal 0.0000 -11.6325 0.0000
    outer loop
        vertex -1.4880 -0.1000 -5.3880
        vertex -1.4880 -0.1000 -4.4880
        vertex -3.5560 -0.1000 -4.4880
    endloop
endfacet
facet normal 0.0000 -18.3375 0.0000
    outer loop
        vertex -3.5560 -0.1000 -4.4880
        vertex -4.7480 -0.1000 -5.3880
        vertex -1.4880 -0.1000 -5.3880
    endloop
endfacet
facet normal 0.0000 -17.5752 0.0000
    outer loop
        vertex -9.7640 -0.1000 6.2920
        vertex -9.7640 -0.1000 6.1480
        vertex 9.7640 -0.1000 6.1480
    endloop
endfacet
facet normal 0.0000 -0.1233 0.0000
    outer loop
        vertex 10.0240 -0.1000 6.0360
        vertex 10.1080 -0.1000 5.9160
        vertex 10.2360 -0.1000 5.9680
    endloop
endfacet
facet normal 0.0000 -0.1750 0.0000
    outer loop
        vertex 10.2360 -0.1000 5.9680
        vertex 10.1240 -0.1000 6.1360
        vertex 10.0240 -0.1000 6.0360
    endloop
endfacet
facet normal 0.0000 -0.1295 0.0000
    outer loop
        vertex 10.1080 -0.1000 5.9160
        vertex 10.1360 -0.1000 5.7680
        vertex 10.2760 -0.1000 5.7680
    endloop
endfacet
facet normal 0.0000 -0.1730 0.0000
    outer loop
        vertex 10.2760 -0.1000 5.7680
        vertex 10.2360 -0.1000 5.9680
        vertex 10.1080 -0.1000 5.9160
    endloop
endfacet
facet normal 0.0000 -0.1279 0.0000
    outer loop
        vertex 9.9600 -0.1000 6.2520
        vertex 9.7640 -0.1000 6.1480
        vertex 9.9080 -0.1000 6.1200
    endloop
endfacet
facet normal 0.0000 -0.1250 0.0000
    outer loop
        vertex 9.9080 -0.1000 6.1200
        vertex 10.0240 -0.1000 6.0360
        vertex 10.1240 -0.1000 6.1360
    endloop
endfacet
facet normal 0.0000 -0.1730 0.0000
    outer loop
        vertex 10.1240 -0.1000 6.1360
        vertex 9.9600 -0.1000 6.2520
        vertex 9.9080 -0.1000 6.1200
    endloop
endfacet
facet normal 0.0000 -17.5752 0.0000
    outer loop
        vertex 9.7640 -0.1000 6.2920
        vertex -9.7640 -0.1000 6.2920
        vertex 9.7640 -0.1000 6.1480
    endloop
endfacet
facet normal 0.0000 -0.1764 0.0000
    outer loop
        vertex 9.7640 -0.1000 6.1480
        vertex 9.9600 -0.1000 6.2520
        vertex 9.7640 -0.1000 6.2920
    endloop
endfacet
facet normal 0.0000 -0.1296 0.0000
    outer loop
        vertex -9.9080 -0.1000 6.1200
        vertex -9.7640 -0.1000 6.1480
        vertex -9.7640 -0.1000 6.2920
    endloop
endfacet
facet normal 0.0000 -0.1747 0.0000
    outer loop
        vertex -9.7640 -0.1000 6.2920
        vertex -9.9600 -0.1000 6.2520
        vertex -9.9080 -0.1000 6.1200
    endloop
endfacet
facet normal 0.0000 -0.1275 0.0000
    outer loop
        vertex -10.1360 -0.1000 5.7680
        vertex -10.1080 -0.1000 5.9160
        vertex -10.2360 -0.1000 5.9680
    endloop
endfacet
facet normal 0.0000 -0.1750 0.0000
    outer loop
        vertex -10.2360 -0.1000 5.9680
        vertex -10.2760 -0.1000 5.7680
        vertex -10.1360 -0.1000 5.7680
    endloop
endfacet
facet normal 0.0000 -0.1275 0.0000
    outer loop
        vertex -10.1080 -0.1000 5.9160
        vertex -10.0240 -0.1000 6.0360
        vertex -10.1240 -0.1000 6.1360
    endloop
endfacet
facet normal 0.0000 -0.1708 0.0000
    outer loop
        vertex -10.1240 -0.1000 6.1360
        vertex -10.2360 -0.1000 5.9680
        vertex -10.1080 -0.1000 5.9160
    endloop
endfacet
facet normal 0.0000 -0.1230 0.0000
    outer loop
        vertex -10.0240 -0.1000 6.0360
        vertex -9.9080 -0.1000 6.1200
        vertex -9.9600 -0.1000 6.2520
    endloop
endfacet
facet normal 0.0000 -0.1750 0.0000
    outer loop
        vertex -9.9600 -0.1000 6.2520
        vertex -10.1240 -0.1000 6.1360
        vertex -10.0240 -0.1000 6.0360
    endloop
endfacet
facet normal 0.0000 -0.1250 0.0000
    outer loop
        vertex -9.9080 -0.1000 -6.1200
        vertex -10.0240 -0.1000 -6.0360
        vertex -10.1240 -0.1000 -6.1360
    endloop
endfacet
facet normal 0.0000 -0.1730 0.0000
    outer loop
        vertex -10.1240 -0.1000 -6.1360
        vertex -9.9600 -0.1000 -6.2520
        vertex -9.9080 -0.1000 -6.1200
    endloop
endfacet
facet normal 0.0000 -0.1233 0.0000
    outer loop
        vertex -10.0240 -0.1000 -6.0360
        vertex -10.1080 -0.1000 -5.9160
        vertex -10.2360 -0.1000 -5.9680
    endloop
endfacet
facet normal 0.0000 -0.1750 0.0000
    outer loop
        vertex -10.2360 -0.1000 -5.9680
        vertex -10.1240 -0.1000 -6.1360
        vertex -10.0240 -0.1000 -6.0360
    endloop
endfacet
facet normal 0.0000 -17.5752 0.0000
    outer loop
        vertex -9.7640 -0.1000 -6.2920
        vertex 9.7640 -0.1000 -6.2920
        vertex 9.7640 -0.1000 -6.1480
    endloop
endfacet
facet normal 0.0000 -17.5752 0.0000
    outer loop
        vertex 9.7640 -0.1000 -6.1480
        vertex -9.7640 -0.1000 -6.1480
        vertex -9.7640 -0.1000 -6.2920
    endloop
endfacet
facet normal 0.0000 -0.1279 0.0000
    outer loop
        vertex -9.7640 -0.1000 -6.1480
        vertex -9.9080 -0.1000 -6.1200
        vertex -9.9600 -0.1000 -6.2520
    endloop
endfacet
facet normal 0.0000 -0.1764 0.0000
    outer loop
        vertex -9.9600 -0.1000 -6.2520
        vertex -9.7640 -0.1000 -6.2920
        vertex -9.7640 -0.1000 -6.1480
    endloop
endfacet
facet normal 0.0000 -0.1295 0.0000
    outer loop
        vertex -10.1080 -0.1000 -5.9160
        vertex -10.1360 -0.1000 -5.7680
        vertex -10.2760 -0.1000 -5.7680
    endloop
endfacet
facet normal 0.0000 -0.1730 0.0000
    outer loop
        vertex -10.2760 -0.1000 -5.7680
        vertex -10.2360 -0.1000 -5.9680
        vertex -10.1080 -0.1000 -5.9160
    endloop
endfacet
facet normal 0.0000 -0.1230 0.0000
    outer loop
        vertex 10.0240 -0.1000 -6.0360
        vertex 9.9080 -0.1000 -6.1200
        vertex 9.9600 -0.1000 -6.2520
    endloop
endfacet
facet normal 0.0000 -0.1750 0.0000
    outer loop
        vertex 9.9600 -0.1000 -6.2520
        vertex 10.1240 -0.1000 -6.1360
        vertex 10.0240 -0.1000 -6.0360
    endloop
endfacet
facet normal 0.0000 -0.1296 0.0000
    outer loop
        vertex 9.9080 -0.1000 -6.1200
        vertex 9.7640 -0.1000 -6.1480
        vertex 9.7640 -0.1000 -6.2920
    endloop
endfacet
facet normal 0.0000 -0.1747 0.0000
    outer loop
        vertex 9.7640 -0.1000 -6.2920
        vertex 9.9600 -0.1000 -6.2520
        vertex 9.9080 -0.1000 -6.1200
    endloop
endfacet
facet normal 0.0000 -0.1275 0.0000
    outer loop
        vertex 10.1360 -0.1000 -5.7680
        vertex 10.1080 -0.1000 -5.9160
        vertex 10.2360 -0.1000 -5.9680
    endloop
endfacet
facet normal 0.0000 -0.1750 0.0000
    outer loop
        vertex 10.2360 -0.1000 -5.9680
        vertex 10.2760 -0.1000 -5.7680
        vertex 10.1360 -0.1000 -5.7680
    endloop
endfacet
facet normal 0.0000 -0.1275 0.0000
    outer loop
        vertex 10.1080 -0.1000 -5.9160
        vertex 10.0240 -0.1000 -6.0360
        vertex 10.1240 -0.1000 -6.1360
    endloop
endfacet
facet normal 0.0000 -0.1708 0.0000
    outer loop
        vertex 10.1240 -0.1000 -6.1360
        vertex 10.2360 -0.1000 -5.9680
        vertex 10.1080 -0.1000 -5.9160
    endloop
endfacet
facet normal 0.0000 -3.3084 0.0000
    outer loop
        vertex -5.9200 -0.1000 3.7360
        vertex -5.7160 -0.1000 3.2120
        vertex -4.6840 -0.1000 3.1560
    endloop
endfacet
facet normal 0.0000 -4.7493 0.0000
    outer loop
        vertex -4.6840 -0.1000 3.1560
        vertex -4.8400 -0.1000 3.8440
        vertex -5.9200 -0.1000 3.7360
    endloop
endfacet
facet normal 0.0000 -4.4118 0.0000
    outer loop
        vertex -5.7160 -0.1000 2.3680
        vertex -4.6840 -0.1000 2.4720
        vertex -4.6840 -0.1000 3.1560
    endloop
endfacet
facet normal 0.0000 -5.4438 0.0000
    outer loop
        vertex -4.6840 -0.1000 3.1560
        vertex -5.7160 -0.1000 3.2120
        vertex -5.7160 -0.1000 2.3680
    endloop
endfacet
facet normal 0.0000 -13.0830 0.0000
    outer loop
        vertex -2.6400 -0.1000 2.8440
        vertex -3.2760 -0.1000 2.2760
        vertex -1.8480 -0.1000 0.2600
    endloop
endfacet
facet normal 0.0000 -19.9614 0.0000
    outer loop
        vertex -1.8480 -0.1000 0.2600
        vertex -0.6120 -0.1000 0.2600
        vertex -2.6400 -0.1000 2.8440
    endloop
endfacet
facet normal 0.0000 -11.4108 0.0000
    outer loop
        vertex -4.3240 -0.1000 0.2600
        vertex -3.2840 -0.1000 3.4120
        vertex -3.2680 -0.1000 5.2160
    endloop
endfacet
facet normal 0.0000 -32.7096 0.0000
    outer loop
        vertex -3.2680 -0.1000 5.2160
        vertex -4.3240 -0.1000 5.2160
        vertex -4.3240 -0.1000 0.2600
    endloop
endfacet
facet normal 0.0000 -5.2395 0.0000
    outer loop
        vertex -5.9200 -0.1000 3.7360
        vertex -5.4560 -0.1000 4.7400
        vertex -6.1320 -0.1000 5.0840
    endloop
endfacet
facet normal 0.0000 -2.6090 0.0000
    outer loop
        vertex -6.1320 -0.1000 5.0840
        vertex -6.2800 -0.1000 4.0560
        vertex -5.9200 -0.1000 3.7360
    endloop
endfacet
facet normal 0.0000 -3.1773 0.0000
    outer loop
        vertex -6.7440 -0.1000 4.2680
        vertex -6.2800 -0.1000 4.0560
        vertex -6.1320 -0.1000 5.0840
    endloop
endfacet
facet normal 0.0000 -4.3707 0.0000
    outer loop
        vertex -6.1320 -0.1000 5.0840
        vertex -6.8840 -0.1000 5.2240
        vertex -6.7440 -0.1000 4.2680
    endloop
endfacet
facet normal 0.0000 -2.3830 0.0000
    outer loop
        vertex -4.0240 -0.1000 -0.5400
        vertex -4.4920 -0.1000 -0.7960
        vertex -3.9240 -0.1000 -1.3000
    endloop
endfacet
facet normal 0.0000 -2.8035 0.0000
    outer loop
        vertex -3.9240 -0.1000 -1.3000
        vertex -3.3480 -0.1000 -1.1920
        vertex -4.0240 -0.1000 -0.5400
    endloop
endfacet
facet normal 0.0000 -2.5712 0.0000
    outer loop
        vertex -2.5760 -0.1000 -1.7760
        vertex -2.6240 -0.1000 -2.1520
        vertex -1.5360 -0.1000 -2.2000
    endloop
endfacet
facet normal 0.0000 -7.6317 0.0000
    outer loop
        vertex -2.8880 -0.1000 -2.5760
        vertex -3.9720 -0.1000 -3.4280
        vertex -3.3480 -0.1000 -4.0640
    endloop
endfacet
facet normal 0.0000 -1.7810 0.0000
    outer loop
        vertex -2.4680 -0.1000 -0.4360
        vertex -2.9360 -0.1000 -1.2440
        vertex -2.6760 -0.1000 -1.4040
    endloop
endfacet
facet normal 0.0000 -3.1821 0.0000
    outer loop
        vertex -1.7400 -0.1000 -0.8720
        vertex -2.6760 -0.1000 -1.4040
        vertex -1.5360 -0.1000 -1.3000
    endloop
endfacet
facet normal 0.0000 -10.4355 0.0000
    outer loop
        vertex 2.1040 -0.1000 -0.9800
        vertex 0.9160 -0.1000 -1.3280
        vertex 1.2760 -0.1000 -2.6280
    endloop
endfacet
facet normal 0.0000 -4.5440 0.0000
    outer loop
        vertex -3.2840 -0.1000 3.4120
        vertex -3.2760 -0.1000 2.2760
        vertex -2.6400 -0.1000 2.8440
    endloop
endfacet
facet normal 0.0000 -10.4002 0.0000
    outer loop
        vertex -6.8840 -0.1000 5.2240
        vertex -8.7240 -0.1000 5.2160
        vertex -7.7200 -0.1000 4.3160
    endloop
endfacet
facet normal 0.0000 -5.7896 0.0000
    outer loop
        vertex -7.7200 -0.1000 4.3160
        vertex -6.7440 -0.1000 4.2680
        vertex -6.8840 -0.1000 5.2240
    endloop
endfacet
facet normal 0.0000 -7.5416 0.0000
    outer loop
        vertex -3.2840 -0.1000 3.4120
        vertex -4.3240 -0.1000 0.2600
        vertex -3.2760 -0.1000 2.2760
    endloop
endfacet
facet normal 0.0000 -3.8097 0.0000
    outer loop
        vertex -6.7440 -0.1000 1.2080
        vertex -6.8960 -0.1000 0.2600
        vertex -6.2280 -0.1000 0.4160
    endloop
endfacet
facet normal 0.0000 -3.8109 0.0000
    outer loop
        vertex -6.2280 -0.1000 0.4160
        vertex -6.1800 -0.1000 1.5240
        vertex -6.7440 -0.1000 1.2080
    endloop
endfacet
facet normal 0.0000 -4.1698 0.0000
    outer loop
        vertex -6.2280 -0.1000 0.4160
        vertex -5.6120 -0.1000 0.7360
        vertex -6.1800 -0.1000 1.5240
    endloop
endfacet
facet normal 0.0000 -4.4015 0.0000
    outer loop
        vertex -6.1800 -0.1000 1.5240
        vertex -5.6120 -0.1000 0.7360
        vertex -5.0960 -0.1000 1.2600
    endloop
endfacet
facet normal 0.0000 -3.4395 0.0000
    outer loop
        vertex -5.0960 -0.1000 1.2600
        vertex -5.8200 -0.1000 1.9440
        vertex -6.1800 -0.1000 1.5240
    endloop
endfacet
facet normal 0.0000 -3.4836 0.0000
    outer loop
        vertex -5.0960 -0.1000 1.2600
        vertex -4.8400 -0.1000 1.7880
        vertex -5.8200 -0.1000 1.9440
    endloop
endfacet
facet normal 0.0000 -13.3056 0.0000
    outer loop
        vertex -3.2760 -0.1000 2.2760
        vertex -4.3240 -0.1000 0.2600
        vertex -3.2680 -0.1000 0.2600
    endloop
endfacet
facet normal 0.0000 -5.6602 0.0000
    outer loop
        vertex -3.5560 -0.1000 -4.4880
        vertex -4.7000 -0.1000 -4.5920
        vertex -4.7480 -0.1000 -5.3880
    endloop
endfacet
facet normal 0.0000 -3.5100 0.0000
    outer loop
        vertex -3.3480 -0.1000 -4.0640
        vertex -3.9720 -0.1000 -3.4280
        vertex -4.3880 -0.1000 -3.9040
    endloop
endfacet
facet normal 0.0000 -2.2620 0.0000
    outer loop
        vertex -4.3880 -0.1000 -3.9040
        vertex -3.5560 -0.1000 -4.3800
        vertex -3.3480 -0.1000 -4.0640
    endloop
endfacet
facet normal 0.0000 -8.4379 0.0000
    outer loop
        vertex -2.8880 -0.1000 -2.5760
        vertex -3.3480 -0.1000 -4.0640
        vertex -2.1600 -0.1000 -3.1560
    endloop
endfacet
facet normal 0.0000 -2.8862 0.0000
    outer loop
        vertex -2.1600 -0.1000 -3.1560
        vertex -2.6240 -0.1000 -2.1520
        vertex -2.8880 -0.1000 -2.5760
    endloop
endfacet
facet normal 0.0000 -3.0216 0.0000
    outer loop
        vertex -3.9240 -0.1000 -1.3000
        vertex -4.4920 -0.1000 -0.7960
        vertex -4.4640 -0.1000 -1.6720
    endloop
endfacet
facet normal 0.0000 -3.9908 0.0000
    outer loop
        vertex -2.6240 -0.1000 -2.1520
        vertex -2.1600 -0.1000 -3.1560
        vertex -1.7440 -0.1000 -2.6800
    endloop
endfacet
facet normal 0.0000 -3.3264 0.0000
    outer loop
        vertex -1.7440 -0.1000 -2.6800
        vertex -1.5360 -0.1000 -2.2000
        vertex -2.6240 -0.1000 -2.1520
    endloop
endfacet
facet normal 0.0000 -0.5616 0.0000
    outer loop
        vertex -3.5560 -0.1000 -4.4880
        vertex -3.5560 -0.1000 -4.3800
        vertex -4.3880 -0.1000 -3.9040
    endloop
endfacet
facet normal 0.0000 -4.7164 0.0000
    outer loop
        vertex -4.3880 -0.1000 -3.9040
        vertex -4.7000 -0.1000 -4.5920
        vertex -3.5560 -0.1000 -4.4880
    endloop
endfacet
facet normal 0.0000 -2.7155 0.0000
    outer loop
        vertex -1.5360 -0.1000 -1.3000
        vertex -2.6760 -0.1000 -1.4040
        vertex -2.5760 -0.1000 -1.7760
    endloop
endfacet
facet normal 0.0000 -5.8500 0.0000
    outer loop
        vertex -2.5760 -0.1000 -1.7760
        vertex -1.5360 -0.1000 -2.2000
        vertex -1.5360 -0.1000 -1.3000
    endloop
endfacet
facet normal 0.0000 -6.1593 0.0000
    outer loop
        vertex 0.6040 -0.1000 -4.6960
        vertex -0.3840 -0.1000 -4.2240
        vertex -0.5880 -0.1000 -5.1240
    endloop
endfacet
facet normal 0.0000 -4.8772 0.0000
    outer loop
        vertex -0.5880 -0.1000 -5.1240
        vertex 0.5000 -0.1000 -5.3880
        vertex 0.6040 -0.1000 -4.6960
    endloop
endfacet
facet normal 0.0000 -6.6580 0.0000
    outer loop
        vertex 0.8600 -0.1000 -3.6920
        vertex -0.0200 -0.1000 -3.2120
        vertex -0.3840 -0.1000 -4.2240
    endloop
endfacet
facet normal 0.0000 -6.9549 0.0000
    outer loop
        vertex -0.3840 -0.1000 -4.2240
        vertex 0.6040 -0.1000 -4.6960
        vertex 0.8600 -0.1000 -3.6920
    endloop
endfacet
facet normal 0.0000 -3.0828 0.0000
    outer loop
        vertex -2.0040 -0.1000 -0.6480
        vertex -2.4680 -0.1000 -0.4360
        vertex -2.6760 -0.1000 -1.4040
    endloop
endfacet
facet normal 0.0000 -2.1882 0.0000
    outer loop
        vertex -2.6760 -0.1000 -1.4040
        vertex -1.7400 -0.1000 -0.8720
        vertex -2.0040 -0.1000 -0.6480
    endloop
endfacet
facet normal 0.0000 -6.7801 0.0000
    outer loop
        vertex -2.4680 -0.1000 -0.4360
        vertex -4.0240 -0.1000 -0.5400
        vertex -3.3480 -0.1000 -1.1920
    endloop
endfacet
facet normal 0.0000 -2.2327 0.0000
    outer loop
        vertex -3.3480 -0.1000 -1.1920
        vertex -2.9360 -0.1000 -1.2440
        vertex -2.4680 -0.1000 -0.4360
    endloop
endfacet
endsolid GiantLegoRocks
