solid GiantLegoRocks
facet normal 0.0000 0.7500 0.0000
    outer loop
        vertex 7.0000 0.0000 3.0000
        vertex 7.0000 0.0000 -3.0000
        vertex -7.0000 0.0000 -3.0000
    endloop
endfacet
facet normal 0.0000 0.7500 0.0000
    outer loop
        vertex -7.0000 0.0000 -3.0000
        vertex -7.0000 0.0000 3.0000
        vertex 7.0000 0.0000 3.0000
    endloop
endfacet
facet normal 0.0000 -0.2500 15.0000
    outer loop
        vertex -7.0000 -0.1000 3.0000
        vertex 7.0000 -0.1000 3.0000
        vertex 7.0000 0.0000 3.0000
    endloop
endfacet
facet normal 0.0000 -0.2500 15.0000
    outer loop
        vertex 7.0000 0.0000 3.0000
        vertex -7.0000 0.0000 3.0000
        vertex -7.0000 -0.1000 3.0000
    endloop
endfacet
facet normal -35.0000 -0.2500 0.0000
    outer loop
        vertex -7.0000 -0.1000 -3.0000
        vertex -7.0000 -0.1000 3.0000
        vertex -7.0000 0.0000 3.0000
    endloop
endfacet
facet normal -35.0000 -0.2500 0.0000
    outer loop
        vertex -7.0000 0.0000 3.0000
        vertex -7.0000 0.0000 -3.0000
        vertex -7.0000 -0.1000 -3.0000
    endloop
endfacet
facet normal 0.0000 -0.2500 -15.0000
    outer loop
        vertex 7.0000 -0.1000 -3.0000
        vertex -7.0000 -0.1000 -3.0000
        vertex -7.0000 0.0000 -3.0000
    endloop
endfacet
facet normal 0.0000 -0.2500 -15.0000
    outer loop
        vertex -7.0000 0.0000 -3.0000
        vertex 7.0000 0.0000 -3.0000
        vertex 7.0000 -0.1000 -3.0000
    endloop
endfacet
facet normal 35.0000 -0.2500 0.0000
    outer loop
        vertex 7.0000 -0.1000 3.0000
        vertex 7.0000 -0.1000 -3.0000
        vertex 7.0000 0.0000 -3.0000
    endloop
endfacet
facet normal 35.0000 -0.2500 0.0000
    outer loop
        vertex 7.0000 0.0000 -3.0000
        vertex 7.0000 0.0000 3.0000
        vertex 7.0000 -0.1000 3.0000
    endloop
endfacet
facet normal 0.0000 -7.8000 0.0000
    outer loop
        vertex -2.7200 -0.1000 -1.1200
        vertex -2.2000 -0.1000 -1.1200
        vertex -0.6400 -0.1000 1.2800
    endloop
endfacet
facet normal 0.0000 -9.3200 0.0000
    outer loop
        vertex -0.6400 -0.1000 1.2800
        vertex -0.8800 -0.1000 1.7200
        vertex -2.7200 -0.1000 -1.1200
    endloop
endfacet
facet normal 0.0000 -7.8000 0.0000
    outer loop
        vertex 0.6400 -0.1000 1.2800
        vertex 2.2000 -0.1000 -1.1200
        vertex 2.7200 -0.1000 -1.1200
    endloop
endfacet
facet normal 0.0000 -9.3200 0.0000
    outer loop
        vertex 2.7200 -0.1000 -1.1200
        vertex 0.8800 -0.1000 1.7200
        vertex 0.6400 -0.1000 1.2800
    endloop
endfacet
facet normal 0.0000 -9.0000 0.0000
    outer loop
        vertex -1.5600 -0.1000 -1.6000
        vertex -1.8000 -0.1000 -2.0000
        vertex 1.8000 -0.1000 -2.0000
    endloop
endfacet
facet normal 0.0000 -7.8000 0.0000
    outer loop
        vertex 1.8000 -0.1000 -2.0000
        vertex 1.5600 -0.1000 -1.6000
        vertex -1.5600 -0.1000 -1.6000
    endloop
endfacet
facet normal 0.0000 -94.6000 0.0000
    outer loop
        vertex 0.0000 -0.1000 2.0000
        vertex -2.2000 -0.1000 -1.4400
        vertex 2.2000 -0.1000 -1.4400
    endloop
endfacet
facet normal 0.0000 -2.8400 0.0000
    outer loop
        vertex -0.8800 -0.1000 1.7200
        vertex -0.6400 -0.1000 1.2800
        vertex 0.0000 -0.1000 2.0000
    endloop
endfacet
facet normal 0.0000 -5.2800 0.0000
    outer loop
        vertex 0.0000 -0.1000 2.0000
        vertex -0.8800 -0.1000 2.6800
        vertex -0.8800 -0.1000 1.7200
    endloop
endfacet
facet normal 0.0000 -2.8400 0.0000
    outer loop
        vertex 0.0000 -0.1000 2.0000
        vertex 0.6400 -0.1000 1.2800
        vertex 0.8800 -0.1000 1.7200
    endloop
endfacet
facet normal 0.0000 -5.2800 0.0000
    outer loop
        vertex 0.8800 -0.1000 1.7200
        vertex 0.8800 -0.1000 2.6800
        vertex 0.0000 -0.1000 2.0000
    endloop
endfacet
facet normal 0.0000 -1.8400 0.0000
    outer loop
        vertex -2.2000 -0.1000 -1.4400
        vertex -1.8000 -0.1000 -2.0000
        vertex -1.5600 -0.1000 -1.6000
    endloop
endfacet
facet normal 0.0000 -1.8400 0.0000
    outer loop
        vertex 2.2000 -0.1000 -1.4400
        vertex 1.5600 -0.1000 -1.6000
        vertex 1.8000 -0.1000 -2.0000
    endloop
endfacet
facet normal 0.0000 -1.0400 0.0000
    outer loop
        vertex 2.7200 -0.1000 -1.1200
        vertex 2.2000 -0.1000 -1.1200
        vertex 2.2000 -0.1000 -1.4400
    endloop
endfacet
facet normal 0.0000 -1.0400 0.0000
    outer loop
        vertex -2.2000 -0.1000 -1.1200
        vertex -2.7200 -0.1000 -1.1200
        vertex -2.2000 -0.1000 -1.4400
    endloop
endfacet
facet normal 0.0000 -3.1200 0.0000
    outer loop
        vertex -0.6400 -0.1000 1.2800
        vertex -2.2000 -0.1000 -1.1200
        vertex -2.2000 -0.1000 -1.4400
    endloop
endfacet
facet normal 0.0000 -3.8600 0.0000
    outer loop
        vertex -2.2000 -0.1000 -1.4400
        vertex 0.0000 -0.1000 2.0000
        vertex -0.6400 -0.1000 1.2800
    endloop
endfacet
facet normal 0.0000 -3.8600 0.0000
    outer loop
        vertex 0.6400 -0.1000 1.2800
        vertex 0.0000 -0.1000 2.0000
        vertex 2.2000 -0.1000 -1.4400
    endloop
endfacet
facet normal 0.0000 -3.1200 0.0000
    outer loop
        vertex 2.2000 -0.1000 -1.4400
        vertex 2.2000 -0.1000 -1.1200
        vertex 0.6400 -0.1000 1.2800
    endloop
endfacet
facet normal 0.0000 -3.1200 0.0000
    outer loop
        vertex -2.2000 -0.1000 -1.4400
        vertex -1.5600 -0.1000 -1.6000
        vertex 1.5600 -0.1000 -1.6000
    endloop
endfacet
facet normal 0.0000 -4.4000 0.0000
    outer loop
        vertex 1.5600 -0.1000 -1.6000
        vertex 2.2000 -0.1000 -1.4400
        vertex -2.2000 -0.1000 -1.4400
    endloop
endfacet
facet normal 0.0000 -1.0200 0.0000
    outer loop
        vertex -1.8000 -0.1000 -2.0000
        vertex -2.2000 -0.1000 -1.4400
        vertex -2.7200 -0.1000 -1.1200
    endloop
endfacet
facet normal 0.0000 -5.2000 0.0000
    outer loop
        vertex -2.7200 -0.1000 -1.1200
        vertex -2.1600 -0.1000 -2.5600
        vertex -1.8000 -0.1000 -2.0000
    endloop
endfacet
facet normal 0.0000 -1.0200 0.0000
    outer loop
        vertex 2.7200 -0.1000 -1.1200
        vertex 2.2000 -0.1000 -1.4400
        vertex 1.8000 -0.1000 -2.0000
    endloop
endfacet
facet normal 0.0000 -5.2000 0.0000
    outer loop
        vertex 1.8000 -0.1000 -2.0000
        vertex 2.1600 -0.1000 -2.5600
        vertex 2.7200 -0.1000 -1.1200
    endloop
endfacet
facet normal 0.0000 -6.9000 0.0000
    outer loop
        vertex -2.7200 -0.1000 -1.1200
        vertex -3.4400 -0.1000 -1.2400
        vertex -2.1600 -0.1000 -2.5600
    endloop
endfacet
facet normal 0.0000 -11.4000 0.0000
    outer loop
        vertex -3.4400 -0.1000 -1.2400
        vertex -2.7200 -0.1000 -1.1200
        vertex -0.8800 -0.1000 1.7200
    endloop
endfacet
facet normal 0.0000 -15.3600 0.0000
    outer loop
        vertex -0.8800 -0.1000 1.7200
        vertex -0.8800 -0.1000 2.6800
        vertex -3.4400 -0.1000 -1.2400
    endloop
endfacet
facet normal 0.0000 -6.9000 0.0000
    outer loop
        vertex 3.4400 -0.1000 -1.2400
        vertex 2.7200 -0.1000 -1.1200
        vertex 2.1600 -0.1000 -2.5600
    endloop
endfacet
facet normal 0.0000 -11.4000 0.0000
    outer loop
        vertex 0.8800 -0.1000 1.7200
        vertex 2.7200 -0.1000 -1.1200
        vertex 3.4400 -0.1000 -1.2400
    endloop
endfacet
facet normal 0.0000 -15.3600 0.0000
    outer loop
        vertex 3.4400 -0.1000 -1.2400
        vertex 0.8800 -0.1000 2.6800
        vertex 0.8800 -0.1000 1.7200
    endloop
endfacet
facet normal 0.0000 -15.1200 0.0000
    outer loop
        vertex -1.8000 -0.1000 -2.0000
        vertex -2.1600 -0.1000 -2.5600
        vertex 2.1600 -0.1000 -2.5600
    endloop
endfacet
facet normal 0.0000 -12.6000 0.0000
    outer loop
        vertex 2.1600 -0.1000 -2.5600
        vertex 1.8000 -0.1000 -2.0000
        vertex -1.8000 -0.1000 -2.0000
    endloop
endfacet
facet normal 0.0000 -7.4800 0.0000
    outer loop
        vertex 0.8800 -0.1000 2.6800
        vertex -0.8800 -0.1000 2.6800
        vertex 0.0000 -0.1000 2.0000
    endloop
endfacet
facet normal 0.0000 -133.5000 0.0000
    outer loop
        vertex -7.0000 -0.1000 3.0000
        vertex -7.0000 -0.1000 -3.0000
        vertex -3.4400 -0.1000 -1.2400
    endloop
endfacet
facet normal 0.0000 -155.0600 0.0000
    outer loop
        vertex -3.4400 -0.1000 -1.2400
        vertex -0.8800 -0.1000 2.6800
        vertex -7.0000 -0.1000 3.0000
    endloop
endfacet
facet normal 0.0000 -43.4500 0.0000
    outer loop
        vertex -2.1600 -0.1000 -2.5600
        vertex -3.4400 -0.1000 -1.2400
        vertex -7.0000 -0.1000 -3.0000
    endloop
endfacet
facet normal 0.0000 -3.5200 0.0000
    outer loop
        vertex -7.0000 -0.1000 3.0000
        vertex -0.8800 -0.1000 2.6800
        vertex 0.8800 -0.1000 2.6800
    endloop
endfacet
facet normal 0.0000 -28.0000 0.0000
    outer loop
        vertex 0.8800 -0.1000 2.6800
        vertex 7.0000 -0.1000 3.0000
        vertex -7.0000 -0.1000 3.0000
    endloop
endfacet
facet normal 0.0000 -155.0600 0.0000
    outer loop
        vertex 7.0000 -0.1000 3.0000
        vertex 0.8800 -0.1000 2.6800
        vertex 3.4400 -0.1000 -1.2400
    endloop
endfacet
facet normal 0.0000 -133.5000 0.0000
    outer loop
        vertex 3.4400 -0.1000 -1.2400
        vertex 7.0000 -0.1000 -3.0000
        vertex 7.0000 -0.1000 3.0000
    endloop
endfacet
facet normal 0.0000 -43.4500 0.0000
    outer loop
        vertex 3.4400 -0.1000 -1.2400
        vertex 2.1600 -0.1000 -2.5600
        vertex 7.0000 -0.1000 -3.0000
    endloop
endfacet
facet normal 0.0000 -38.5000 0.0000
    outer loop
        vertex -2.1600 -0.1000 -2.5600
        vertex -7.0000 -0.1000 -3.0000
        vertex 7.0000 -0.1000 -3.0000
    endloop
endfacet
facet normal 0.0000 -11.8800 0.0000
    outer loop
        vertex 7.0000 -0.1000 -3.0000
        vertex 2.1600 -0.1000 -2.5600
        vertex -2.1600 -0.1000 -2.5600
    endloop
endfacet
endsolid GiantLegoRocks
