solid GiantLegoRocks
facet normal 0.0000 0.2870 -0.0533
    outer loop
        vertex 0.8000 0.5600 0.0000
        vertex 0.9000 0.5174 -0.2296
        vertex 0.7000 0.5174 -0.2296
    endloop
endfacet
facet normal 0.0000 0.4866 -0.3035
    outer loop
        vertex 0.9000 0.5174 -0.2296
        vertex 1.0000 0.3960 -0.4243
        vertex 0.6000 0.3960 -0.4243
    endloop
endfacet
facet normal 0.0000 0.2433 -0.1518
    outer loop
        vertex 0.6000 0.3960 -0.4243
        vertex 0.7000 0.5174 -0.2296
        vertex 0.9000 0.5174 -0.2296
    endloop
endfacet
facet normal 0.0000 0.4878 -0.6812
    outer loop
        vertex 1.0000 0.3960 -0.4243
        vertex 1.1000 0.2143 -0.5543
        vertex 0.5000 0.2143 -0.5543
    endloop
endfacet
facet normal 0.0000 0.3252 -0.4542
    outer loop
        vertex 0.5000 0.2143 -0.5543
        vertex 0.6000 0.3960 -0.4243
        vertex 1.0000 0.3960 -0.4243
    endloop
endfacet
facet normal 0.0000 0.2283 -1.0716
    outer loop
        vertex 1.1000 0.2143 -0.5543
        vertex 1.2000 0.0000 -0.6000
        vertex 0.4000 0.0000 -0.6000
    endloop
endfacet
facet normal 0.0000 0.1712 -0.8037
    outer loop
        vertex 0.4000 0.0000 -0.6000
        vertex 0.5000 0.2143 -0.5543
        vertex 1.1000 0.2143 -0.5543
    endloop
endfacet
facet normal 0.0000 0.2870 0.0533
    outer loop
        vertex 0.9000 0.5174 0.2296
        vertex 0.8000 0.5600 0.0000
        vertex 0.7000 0.5174 0.2296
    endloop
endfacet
facet normal 0.0000 0.2433 0.1518
    outer loop
        vertex 0.9000 0.5174 0.2296
        vertex 0.7000 0.5174 0.2296
        vertex 0.6000 0.3960 0.4243
    endloop
endfacet
facet normal 0.0000 0.4866 0.3035
    outer loop
        vertex 0.6000 0.3960 0.4243
        vertex 1.0000 0.3960 0.4243
        vertex 0.9000 0.5174 0.2296
    endloop
endfacet
facet normal 0.0000 0.3252 0.4542
    outer loop
        vertex 1.0000 0.3960 0.4243
        vertex 0.6000 0.3960 0.4243
        vertex 0.5000 0.2143 0.5543
    endloop
endfacet
facet normal 0.0000 0.4878 0.6812
    outer loop
        vertex 0.5000 0.2143 0.5543
        vertex 1.1000 0.2143 0.5543
        vertex 1.0000 0.3960 0.4243
    endloop
endfacet
facet normal 0.0000 0.1712 0.8037
    outer loop
        vertex 1.1000 0.2143 0.5543
        vertex 0.5000 0.2143 0.5543
        vertex 0.4000 0.0000 0.6000
    endloop
endfacet
facet normal 0.0000 0.2283 1.0716
    outer loop
        vertex 0.4000 0.0000 0.6000
        vertex 1.2000 0.0000 0.6000
        vertex 1.1000 0.2143 0.5543
    endloop
endfacet
facet normal 0.0000 -0.2870 -0.0533
    outer loop
        vertex 0.9000 -0.5174 -0.2296
        vertex 0.8000 -0.5600 0.0000
        vertex 0.7000 -0.5174 -0.2296
    endloop
endfacet
facet normal 0.0000 -0.2433 -0.1518
    outer loop
        vertex 0.9000 -0.5174 -0.2296
        vertex 0.7000 -0.5174 -0.2296
        vertex 0.6000 -0.3960 -0.4243
    endloop
endfacet
facet normal 0.0000 -0.4866 -0.3035
    outer loop
        vertex 0.6000 -0.3960 -0.4243
        vertex 1.0000 -0.3960 -0.4243
        vertex 0.9000 -0.5174 -0.2296
    endloop
endfacet
facet normal 0.0000 -0.3252 -0.4542
    outer loop
        vertex 1.0000 -0.3960 -0.4243
        vertex 0.6000 -0.3960 -0.4243
        vertex 0.5000 -0.2143 -0.5543
    endloop
endfacet
facet normal 0.0000 -0.4878 -0.6812
    outer loop
        vertex 0.5000 -0.2143 -0.5543
        vertex 1.1000 -0.2143 -0.5543
        vertex 1.0000 -0.3960 -0.4243
    endloop
endfacet
facet normal 0.0000 -0.1712 -0.8037
    outer loop
        vertex 1.1000 -0.2143 -0.5543
        vertex 0.5000 -0.2143 -0.5543
        vertex 0.4000 0.0000 -0.6000
    endloop
endfacet
facet normal 0.0000 -0.2283 -1.0716
    outer loop
        vertex 0.4000 0.0000 -0.6000
        vertex 1.2000 0.0000 -0.6000
        vertex 1.1000 -0.2143 -0.5543
    endloop
endfacet
facet normal 0.0000 -0.2870 0.0533
    outer loop
        vertex 0.8000 -0.5600 0.0000
        vertex 0.9000 -0.5174 0.2296
        vertex 0.7000 -0.5174 0.2296
    endloop
endfacet
facet normal 0.0000 -0.4866 0.3035
    outer loop
        vertex 0.9000 -0.5174 0.2296
        vertex 1.0000 -0.3960 0.4243
        vertex 0.6000 -0.3960 0.4243
    endloop
endfacet
facet normal 0.0000 -0.2433 0.1518
    outer loop
        vertex 0.6000 -0.3960 0.4243
        vertex 0.7000 -0.5174 0.2296
        vertex 0.9000 -0.5174 0.2296
    endloop
endfacet
facet normal 0.0000 -0.4878 0.6812
    outer loop
        vertex 1.0000 -0.3960 0.4243
        vertex 1.1000 -0.2143 0.5543
        vertex 0.5000 -0.2143 0.5543
    endloop
endfacet
facet normal 0.0000 -0.3252 0.4542
    outer loop
        vertex 0.5000 -0.2143 0.5543
        vertex 0.6000 -0.3960 0.4243
        vertex 1.0000 -0.3960 0.4243
    endloop
endfacet
facet normal 0.0000 -0.2283 1.0716
    outer loop
        vertex 1.1000 -0.2143 0.5543
        vertex 1.2000 0.0000 0.6000
        vertex 0.4000 0.0000 0.6000
    endloop
endfacet
facet normal 0.0000 -0.1712 0.8037
    outer loop
        vertex 0.4000 0.0000 0.6000
        vertex 0.5000 -0.2143 0.5543
        vertex 1.1000 -0.2143 0.5543
    endloop
endfacet
facet normal -0.0044 0.0285 -0.1435
    outer loop
        vertex 1.2000 0.2296 -0.5543
        vertex 1.2000 0.0000 -0.6000
        vertex 1.1000 0.2143 -0.5543
    endloop
endfacet
facet normal -0.0124 0.0813 -0.1231
    outer loop
        vertex 1.2000 0.2296 -0.5543
        vertex 1.1000 0.2143 -0.5543
        vertex 1.0000 0.3960 -0.4243
    endloop
endfacet
facet normal -0.0230 0.1626 -0.2433
    outer loop
        vertex 1.0000 0.3960 -0.4243
        vertex 1.2000 0.4243 -0.4243
        vertex 1.2000 0.2296 -0.5543
    endloop
endfacet
facet normal -0.0344 0.2433 -0.1694
    outer loop
        vertex 1.2000 0.4243 -0.4243
        vertex 1.0000 0.3960 -0.4243
        vertex 0.9000 0.5174 -0.2296
    endloop
endfacet
facet normal -0.0450 0.3650 -0.2439
    outer loop
        vertex 0.9000 0.5174 -0.2296
        vertex 1.2000 0.5543 -0.2296
        vertex 1.2000 0.4243 -0.4243
    endloop
endfacet
facet normal -0.0530 0.4305 -0.1030
    outer loop
        vertex 1.2000 0.5543 -0.2296
        vertex 0.9000 0.5174 -0.2296
        vertex 0.8000 0.5600 0.0000
    endloop
endfacet
facet normal -0.0574 0.5740 -0.1141
    outer loop
        vertex 0.8000 0.5600 0.0000
        vertex 1.2000 0.6000 0.0000
        vertex 1.2000 0.5543 -0.2296
    endloop
endfacet
facet normal -0.0530 0.4305 0.1030
    outer loop
        vertex 0.8000 0.5600 0.0000
        vertex 0.9000 0.5174 0.2296
        vertex 1.2000 0.5543 0.2296
    endloop
endfacet
facet normal -0.0574 0.5740 0.1141
    outer loop
        vertex 1.2000 0.5543 0.2296
        vertex 1.2000 0.6000 0.0000
        vertex 0.8000 0.5600 0.0000
    endloop
endfacet
facet normal -0.0344 0.2433 0.1694
    outer loop
        vertex 0.9000 0.5174 0.2296
        vertex 1.0000 0.3960 0.4243
        vertex 1.2000 0.4243 0.4243
    endloop
endfacet
facet normal -0.0450 0.3650 0.2439
    outer loop
        vertex 1.2000 0.4243 0.4243
        vertex 1.2000 0.5543 0.2296
        vertex 0.9000 0.5174 0.2296
    endloop
endfacet
facet normal -0.0230 0.1626 0.2433
    outer loop
        vertex 1.2000 0.2296 0.5543
        vertex 1.2000 0.4243 0.4243
        vertex 1.0000 0.3960 0.4243
    endloop
endfacet
facet normal -0.0124 0.0813 0.1231
    outer loop
        vertex 1.0000 0.3960 0.4243
        vertex 1.1000 0.2143 0.5543
        vertex 1.2000 0.2296 0.5543
    endloop
endfacet
facet normal -0.0044 0.0285 0.1435
    outer loop
        vertex 1.2000 0.2296 0.5543
        vertex 1.1000 0.2143 0.5543
        vertex 1.2000 0.0000 0.6000
    endloop
endfacet
facet normal -0.0044 -0.0285 0.1435
    outer loop
        vertex 1.2000 0.0000 0.6000
        vertex 1.1000 -0.2143 0.5543
        vertex 1.2000 -0.2296 0.5543
    endloop
endfacet
facet normal -0.0124 -0.0813 0.1231
    outer loop
        vertex 1.2000 -0.2296 0.5543
        vertex 1.1000 -0.2143 0.5543
        vertex 1.0000 -0.3960 0.4243
    endloop
endfacet
facet normal -0.0230 -0.1626 0.2433
    outer loop
        vertex 1.0000 -0.3960 0.4243
        vertex 1.2000 -0.4243 0.4243
        vertex 1.2000 -0.2296 0.5543
    endloop
endfacet
facet normal -0.0344 -0.2433 0.1694
    outer loop
        vertex 1.2000 -0.4243 0.4243
        vertex 1.0000 -0.3960 0.4243
        vertex 0.9000 -0.5174 0.2296
    endloop
endfacet
facet normal -0.0450 -0.3650 0.2439
    outer loop
        vertex 0.9000 -0.5174 0.2296
        vertex 1.2000 -0.5543 0.2296
        vertex 1.2000 -0.4243 0.4243
    endloop
endfacet
facet normal -0.0530 -0.4305 0.1030
    outer loop
        vertex 1.2000 -0.5543 0.2296
        vertex 0.9000 -0.5174 0.2296
        vertex 0.8000 -0.5600 0.0000
    endloop
endfacet
facet normal -0.0574 -0.5740 0.1141
    outer loop
        vertex 0.8000 -0.5600 0.0000
        vertex 1.2000 -0.6000 0.0000
        vertex 1.2000 -0.5543 0.2296
    endloop
endfacet
facet normal -0.0574 -0.5740 -0.1141
    outer loop
        vertex 1.2000 -0.5543 -0.2296
        vertex 1.2000 -0.6000 0.0000
        vertex 0.8000 -0.5600 0.0000
    endloop
endfacet
facet normal -0.0530 -0.4305 -0.1030
    outer loop
        vertex 0.8000 -0.5600 0.0000
        vertex 0.9000 -0.5174 -0.2296
        vertex 1.2000 -0.5543 -0.2296
    endloop
endfacet
facet normal -0.0450 -0.3650 -0.2439
    outer loop
        vertex 1.2000 -0.4243 -0.4243
        vertex 1.2000 -0.5543 -0.2296
        vertex 0.9000 -0.5174 -0.2296
    endloop
endfacet
facet normal -0.0344 -0.2433 -0.1694
    outer loop
        vertex 0.9000 -0.5174 -0.2296
        vertex 1.0000 -0.3960 -0.4243
        vertex 1.2000 -0.4243 -0.4243
    endloop
endfacet
facet normal -0.0230 -0.1626 -0.2433
    outer loop
        vertex 1.2000 -0.2296 -0.5543
        vertex 1.2000 -0.4243 -0.4243
        vertex 1.0000 -0.3960 -0.4243
    endloop
endfacet
facet normal -0.0124 -0.0813 -0.1231
    outer loop
        vertex 1.0000 -0.3960 -0.4243
        vertex 1.1000 -0.2143 -0.5543
        vertex 1.2000 -0.2296 -0.5543
    endloop
endfacet
facet normal -0.0044 -0.0285 -0.1435
    outer loop
        vertex 1.2000 -0.2296 -0.5543
        vertex 1.1000 -0.2143 -0.5543
        vertex 1.2000 0.0000 -0.6000
    endloop
endfacet
facet normal 0.0044 -0.0285 -0.1435
    outer loop
        vertex 0.4000 -0.2296 -0.5543
        vertex 0.4000 0.0000 -0.6000
        vertex 0.5000 -0.2143 -0.5543
    endloop
endfacet
facet normal 0.0124 -0.0813 -0.1231
    outer loop
        vertex 0.4000 -0.2296 -0.5543
        vertex 0.5000 -0.2143 -0.5543
        vertex 0.6000 -0.3960 -0.4243
    endloop
endfacet
facet normal 0.0230 -0.1626 -0.2433
    outer loop
        vertex 0.4000 -0.2296 -0.5543
        vertex 0.6000 -0.3960 -0.4243
        vertex 0.4000 -0.4243 -0.4243
    endloop
endfacet
facet normal 0.0344 -0.2433 -0.1694
    outer loop
        vertex 0.4000 -0.4243 -0.4243
        vertex 0.6000 -0.3960 -0.4243
        vertex 0.7000 -0.5174 -0.2296
    endloop
endfacet
facet normal 0.0450 -0.3650 -0.2439
    outer loop
        vertex 0.7000 -0.5174 -0.2296
        vertex 0.4000 -0.5543 -0.2296
        vertex 0.4000 -0.4243 -0.4243
    endloop
endfacet
facet normal 0.0530 -0.4305 -0.1030
    outer loop
        vertex 0.4000 -0.5543 -0.2296
        vertex 0.7000 -0.5174 -0.2296
        vertex 0.8000 -0.5600 0.0000
    endloop
endfacet
facet normal 0.0574 -0.5740 -0.1141
    outer loop
        vertex 0.8000 -0.5600 0.0000
        vertex 0.4000 -0.6000 0.0000
        vertex 0.4000 -0.5543 -0.2296
    endloop
endfacet
facet normal 0.0530 -0.4305 0.1030
    outer loop
        vertex 0.8000 -0.5600 0.0000
        vertex 0.7000 -0.5174 0.2296
        vertex 0.4000 -0.5543 0.2296
    endloop
endfacet
facet normal 0.0574 -0.5740 0.1141
    outer loop
        vertex 0.4000 -0.5543 0.2296
        vertex 0.4000 -0.6000 0.0000
        vertex 0.8000 -0.5600 0.0000
    endloop
endfacet
facet normal 0.0344 -0.2433 0.1694
    outer loop
        vertex 0.7000 -0.5174 0.2296
        vertex 0.6000 -0.3960 0.4243
        vertex 0.4000 -0.4243 0.4243
    endloop
endfacet
facet normal 0.0450 -0.3650 0.2439
    outer loop
        vertex 0.4000 -0.4243 0.4243
        vertex 0.4000 -0.5543 0.2296
        vertex 0.7000 -0.5174 0.2296
    endloop
endfacet
facet normal 0.0230 -0.1626 0.2433
    outer loop
        vertex 0.4000 -0.4243 0.4243
        vertex 0.6000 -0.3960 0.4243
        vertex 0.4000 -0.2296 0.5543
    endloop
endfacet
facet normal 0.0124 -0.0813 0.1231
    outer loop
        vertex 0.4000 -0.2296 0.5543
        vertex 0.6000 -0.3960 0.4243
        vertex 0.5000 -0.2143 0.5543
    endloop
endfacet
facet normal 0.0044 -0.0285 0.1435
    outer loop
        vertex 0.4000 -0.2296 0.5543
        vertex 0.5000 -0.2143 0.5543
        vertex 0.4000 0.0000 0.6000
    endloop
endfacet
facet normal 0.0044 0.0285 -0.1435
    outer loop
        vertex 0.4000 0.0000 -0.6000
        vertex 0.4000 0.2296 -0.5543
        vertex 0.5000 0.2143 -0.5543
    endloop
endfacet
facet normal 0.0124 0.0813 -0.1231
    outer loop
        vertex 0.5000 0.2143 -0.5543
        vertex 0.4000 0.2296 -0.5543
        vertex 0.6000 0.3960 -0.4243
    endloop
endfacet
facet normal 0.0230 0.1626 -0.2433
    outer loop
        vertex 0.6000 0.3960 -0.4243
        vertex 0.4000 0.2296 -0.5543
        vertex 0.4000 0.4243 -0.4243
    endloop
endfacet
facet normal 0.0344 0.2433 -0.1694
    outer loop
        vertex 0.6000 0.3960 -0.4243
        vertex 0.4000 0.4243 -0.4243
        vertex 0.7000 0.5174 -0.2296
    endloop
endfacet
facet normal 0.0450 0.3650 -0.2439
    outer loop
        vertex 0.4000 0.5543 -0.2296
        vertex 0.7000 0.5174 -0.2296
        vertex 0.4000 0.4243 -0.4243
    endloop
endfacet
facet normal 0.0530 0.4305 -0.1030
    outer loop
        vertex 0.7000 0.5174 -0.2296
        vertex 0.4000 0.5543 -0.2296
        vertex 0.8000 0.5600 0.0000
    endloop
endfacet
facet normal 0.0574 0.5740 -0.1141
    outer loop
        vertex 0.4000 0.6000 0.0000
        vertex 0.8000 0.5600 0.0000
        vertex 0.4000 0.5543 -0.2296
    endloop
endfacet
facet normal 0.0530 0.4305 0.1030
    outer loop
        vertex 0.7000 0.5174 0.2296
        vertex 0.8000 0.5600 0.0000
        vertex 0.4000 0.5543 0.2296
    endloop
endfacet
facet normal 0.0574 0.5740 0.1141
    outer loop
        vertex 0.4000 0.6000 0.0000
        vertex 0.4000 0.5543 0.2296
        vertex 0.8000 0.5600 0.0000
    endloop
endfacet
facet normal 0.0344 0.2433 0.1694
    outer loop
        vertex 0.6000 0.3960 0.4243
        vertex 0.7000 0.5174 0.2296
        vertex 0.4000 0.4243 0.4243
    endloop
endfacet
facet normal 0.0450 0.3650 0.2439
    outer loop
        vertex 0.4000 0.5543 0.2296
        vertex 0.4000 0.4243 0.4243
        vertex 0.7000 0.5174 0.2296
    endloop
endfacet
facet normal 0.0230 0.1626 0.2433
    outer loop
        vertex 0.6000 0.3960 0.4243
        vertex 0.4000 0.4243 0.4243
        vertex 0.4000 0.2296 0.5543
    endloop
endfacet
facet normal 0.0124 0.0813 0.1231
    outer loop
        vertex 0.6000 0.3960 0.4243
        vertex 0.4000 0.2296 0.5543
        vertex 0.5000 0.2143 0.5543
    endloop
endfacet
facet normal 0.0044 0.0285 0.1435
    outer loop
        vertex 0.5000 0.2143 0.5543
        vertex 0.4000 0.2296 0.5543
        vertex 0.4000 0.0000 0.6000
    endloop
endfacet
facet normal 0.0000 0.2870 -0.0533
    outer loop
        vertex 0.0000 0.5600 0.0000
        vertex 0.1000 0.5174 -0.2296
        vertex -0.1000 0.5174 -0.2296
    endloop
endfacet
facet normal 0.0000 0.4866 -0.3035
    outer loop
        vertex 0.1000 0.5174 -0.2296
        vertex 0.2000 0.3960 -0.4243
        vertex -0.2000 0.3960 -0.4243
    endloop
endfacet
facet normal 0.0000 0.2433 -0.1518
    outer loop
        vertex -0.2000 0.3960 -0.4243
        vertex -0.1000 0.5174 -0.2296
        vertex 0.1000 0.5174 -0.2296
    endloop
endfacet
facet normal 0.0000 0.4878 -0.6812
    outer loop
        vertex 0.2000 0.3960 -0.4243
        vertex 0.3000 0.2143 -0.5543
        vertex -0.3000 0.2143 -0.5543
    endloop
endfacet
facet normal 0.0000 0.3252 -0.4542
    outer loop
        vertex -0.3000 0.2143 -0.5543
        vertex -0.2000 0.3960 -0.4243
        vertex 0.2000 0.3960 -0.4243
    endloop
endfacet
facet normal 0.0000 0.2283 -1.0716
    outer loop
        vertex 0.3000 0.2143 -0.5543
        vertex 0.4000 0.0000 -0.6000
        vertex -0.4000 0.0000 -0.6000
    endloop
endfacet
facet normal 0.0000 0.1712 -0.8037
    outer loop
        vertex -0.4000 0.0000 -0.6000
        vertex -0.3000 0.2143 -0.5543
        vertex 0.3000 0.2143 -0.5543
    endloop
endfacet
facet normal 0.0000 0.2870 0.0533
    outer loop
        vertex 0.1000 0.5174 0.2296
        vertex 0.0000 0.5600 0.0000
        vertex -0.1000 0.5174 0.2296
    endloop
endfacet
facet normal 0.0000 0.2433 0.1518
    outer loop
        vertex 0.1000 0.5174 0.2296
        vertex -0.1000 0.5174 0.2296
        vertex -0.2000 0.3960 0.4243
    endloop
endfacet
facet normal 0.0000 0.4866 0.3035
    outer loop
        vertex -0.2000 0.3960 0.4243
        vertex 0.2000 0.3960 0.4243
        vertex 0.1000 0.5174 0.2296
    endloop
endfacet
facet normal 0.0000 0.3252 0.4542
    outer loop
        vertex 0.2000 0.3960 0.4243
        vertex -0.2000 0.3960 0.4243
        vertex -0.3000 0.2143 0.5543
    endloop
endfacet
facet normal 0.0000 0.4878 0.6812
    outer loop
        vertex -0.3000 0.2143 0.5543
        vertex 0.3000 0.2143 0.5543
        vertex 0.2000 0.3960 0.4243
    endloop
endfacet
facet normal 0.0000 0.1712 0.8037
    outer loop
        vertex 0.3000 0.2143 0.5543
        vertex -0.3000 0.2143 0.5543
        vertex -0.4000 0.0000 0.6000
    endloop
endfacet
facet normal 0.0000 0.2283 1.0716
    outer loop
        vertex -0.4000 0.0000 0.6000
        vertex 0.4000 0.0000 0.6000
        vertex 0.3000 0.2143 0.5543
    endloop
endfacet
facet normal 0.0000 -0.2870 -0.0533
    outer loop
        vertex 0.1000 -0.5174 -0.2296
        vertex 0.0000 -0.5600 0.0000
        vertex -0.1000 -0.5174 -0.2296
    endloop
endfacet
facet normal 0.0000 -0.2433 -0.1518
    outer loop
        vertex 0.1000 -0.5174 -0.2296
        vertex -0.1000 -0.5174 -0.2296
        vertex -0.2000 -0.3960 -0.4243
    endloop
endfacet
facet normal 0.0000 -0.4866 -0.3035
    outer loop
        vertex -0.2000 -0.3960 -0.4243
        vertex 0.2000 -0.3960 -0.4243
        vertex 0.1000 -0.5174 -0.2296
    endloop
endfacet
facet normal 0.0000 -0.3252 -0.4542
    outer loop
        vertex 0.2000 -0.3960 -0.4243
        vertex -0.2000 -0.3960 -0.4243
        vertex -0.3000 -0.2143 -0.5543
    endloop
endfacet
facet normal 0.0000 -0.4878 -0.6812
    outer loop
        vertex -0.3000 -0.2143 -0.5543
        vertex 0.3000 -0.2143 -0.5543
        vertex 0.2000 -0.3960 -0.4243
    endloop
endfacet
facet normal 0.0000 -0.1712 -0.8037
    outer loop
        vertex 0.3000 -0.2143 -0.5543
        vertex -0.3000 -0.2143 -0.5543
        vertex -0.4000 0.0000 -0.6000
    endloop
endfacet
facet normal 0.0000 -0.2283 -1.0716
    outer loop
        vertex -0.4000 0.0000 -0.6000
        vertex 0.4000 0.0000 -0.6000
        vertex 0.3000 -0.2143 -0.5543
    endloop
endfacet
facet normal 0.0000 -0.2870 0.0533
    outer loop
        vertex 0.0000 -0.5600 0.0000
        vertex 0.1000 -0.5174 0.2296
        vertex -0.1000 -0.5174 0.2296
    endloop
endfacet
facet normal 0.0000 -0.4866 0.3035
    outer loop
        vertex 0.1000 -0.5174 0.2296
        vertex 0.2000 -0.3960 0.4243
        vertex -0.2000 -0.3960 0.4243
    endloop
endfacet
facet normal 0.0000 -0.2433 0.1518
    outer loop
        vertex -0.2000 -0.3960 0.4243
        vertex -0.1000 -0.5174 0.2296
        vertex 0.1000 -0.5174 0.2296
    endloop
endfacet
facet normal 0.0000 -0.4878 0.6812
    outer loop
        vertex 0.2000 -0.3960 0.4243
        vertex 0.3000 -0.2143 0.5543
        vertex -0.3000 -0.2143 0.5543
    endloop
endfacet
facet normal 0.0000 -0.3252 0.4542
    outer loop
        vertex -0.3000 -0.2143 0.5543
        vertex -0.2000 -0.3960 0.4243
        vertex 0.2000 -0.3960 0.4243
    endloop
endfacet
facet normal 0.0000 -0.2283 1.0716
    outer loop
        vertex 0.3000 -0.2143 0.5543
        vertex 0.4000 0.0000 0.6000
        vertex -0.4000 0.0000 0.6000
    endloop
endfacet
facet normal 0.0000 -0.1712 0.8037
    outer loop
        vertex -0.4000 0.0000 0.6000
        vertex -0.3000 -0.2143 0.5543
        vertex 0.3000 -0.2143 0.5543
    endloop
endfacet
facet normal -0.0044 0.0285 -0.1435
    outer loop
        vertex 0.4000 0.2296 -0.5543
        vertex 0.4000 0.0000 -0.6000
        vertex 0.3000 0.2143 -0.5543
    endloop
endfacet
facet normal -0.0124 0.0813 -0.1231
    outer loop
        vertex 0.4000 0.2296 -0.5543
        vertex 0.3000 0.2143 -0.5543
        vertex 0.2000 0.3960 -0.4243
    endloop
endfacet
facet normal -0.0230 0.1626 -0.2433
    outer loop
        vertex 0.2000 0.3960 -0.4243
        vertex 0.4000 0.4243 -0.4243
        vertex 0.4000 0.2296 -0.5543
    endloop
endfacet
facet normal -0.0344 0.2433 -0.1694
    outer loop
        vertex 0.4000 0.4243 -0.4243
        vertex 0.2000 0.3960 -0.4243
        vertex 0.1000 0.5174 -0.2296
    endloop
endfacet
facet normal -0.0450 0.3650 -0.2439
    outer loop
        vertex 0.1000 0.5174 -0.2296
        vertex 0.4000 0.5543 -0.2296
        vertex 0.4000 0.4243 -0.4243
    endloop
endfacet
facet normal -0.0530 0.4305 -0.1030
    outer loop
        vertex 0.4000 0.5543 -0.2296
        vertex 0.1000 0.5174 -0.2296
        vertex 0.0000 0.5600 0.0000
    endloop
endfacet
facet normal -0.0574 0.5740 -0.1141
    outer loop
        vertex 0.0000 0.5600 0.0000
        vertex 0.4000 0.6000 0.0000
        vertex 0.4000 0.5543 -0.2296
    endloop
endfacet
facet normal -0.0530 0.4305 0.1030
    outer loop
        vertex 0.0000 0.5600 0.0000
        vertex 0.1000 0.5174 0.2296
        vertex 0.4000 0.5543 0.2296
    endloop
endfacet
facet normal -0.0574 0.5740 0.1141
    outer loop
        vertex 0.4000 0.5543 0.2296
        vertex 0.4000 0.6000 0.0000
        vertex 0.0000 0.5600 0.0000
    endloop
endfacet
facet normal -0.0344 0.2433 0.1694
    outer loop
        vertex 0.1000 0.5174 0.2296
        vertex 0.2000 0.3960 0.4243
        vertex 0.4000 0.4243 0.4243
    endloop
endfacet
facet normal -0.0450 0.3650 0.2439
    outer loop
        vertex 0.4000 0.4243 0.4243
        vertex 0.4000 0.5543 0.2296
        vertex 0.1000 0.5174 0.2296
    endloop
endfacet
facet normal -0.0230 0.1626 0.2433
    outer loop
        vertex 0.4000 0.2296 0.5543
        vertex 0.4000 0.4243 0.4243
        vertex 0.2000 0.3960 0.4243
    endloop
endfacet
facet normal -0.0124 0.0813 0.1231
    outer loop
        vertex 0.2000 0.3960 0.4243
        vertex 0.3000 0.2143 0.5543
        vertex 0.4000 0.2296 0.5543
    endloop
endfacet
facet normal -0.0044 0.0285 0.1435
    outer loop
        vertex 0.4000 0.2296 0.5543
        vertex 0.3000 0.2143 0.5543
        vertex 0.4000 0.0000 0.6000
    endloop
endfacet
facet normal -0.0044 -0.0285 0.1435
    outer loop
        vertex 0.4000 0.0000 0.6000
        vertex 0.3000 -0.2143 0.5543
        vertex 0.4000 -0.2296 0.5543
    endloop
endfacet
facet normal -0.0124 -0.0813 0.1231
    outer loop
        vertex 0.4000 -0.2296 0.5543
        vertex 0.3000 -0.2143 0.5543
        vertex 0.2000 -0.3960 0.4243
    endloop
endfacet
facet normal -0.0230 -0.1626 0.2433
    outer loop
        vertex 0.2000 -0.3960 0.4243
        vertex 0.4000 -0.4243 0.4243
        vertex 0.4000 -0.2296 0.5543
    endloop
endfacet
facet normal -0.0344 -0.2433 0.1694
    outer loop
        vertex 0.4000 -0.4243 0.4243
        vertex 0.2000 -0.3960 0.4243
        vertex 0.1000 -0.5174 0.2296
    endloop
endfacet
facet normal -0.0450 -0.3650 0.2439
    outer loop
        vertex 0.1000 -0.5174 0.2296
        vertex 0.4000 -0.5543 0.2296
        vertex 0.4000 -0.4243 0.4243
    endloop
endfacet
facet normal -0.0530 -0.4305 0.1030
    outer loop
        vertex 0.4000 -0.5543 0.2296
        vertex 0.1000 -0.5174 0.2296
        vertex 0.0000 -0.5600 0.0000
    endloop
endfacet
facet normal -0.0574 -0.5740 0.1141
    outer loop
        vertex 0.0000 -0.5600 0.0000
        vertex 0.4000 -0.6000 0.0000
        vertex 0.4000 -0.5543 0.2296
    endloop
endfacet
facet normal -0.0574 -0.5740 -0.1141
    outer loop
        vertex 0.4000 -0.5543 -0.2296
        vertex 0.4000 -0.6000 0.0000
        vertex 0.0000 -0.5600 0.0000
    endloop
endfacet
facet normal -0.0530 -0.4305 -0.1030
    outer loop
        vertex 0.0000 -0.5600 0.0000
        vertex 0.1000 -0.5174 -0.2296
        vertex 0.4000 -0.5543 -0.2296
    endloop
endfacet
facet normal -0.0450 -0.3650 -0.2439
    outer loop
        vertex 0.4000 -0.4243 -0.4243
        vertex 0.4000 -0.5543 -0.2296
        vertex 0.1000 -0.5174 -0.2296
    endloop
endfacet
facet normal -0.0344 -0.2433 -0.1694
    outer loop
        vertex 0.1000 -0.5174 -0.2296
        vertex 0.2000 -0.3960 -0.4243
        vertex 0.4000 -0.4243 -0.4243
    endloop
endfacet
facet normal -0.0230 -0.1626 -0.2433
    outer loop
        vertex 0.4000 -0.2296 -0.5543
        vertex 0.4000 -0.4243 -0.4243
        vertex 0.2000 -0.3960 -0.4243
    endloop
endfacet
facet normal -0.0124 -0.0813 -0.1231
    outer loop
        vertex 0.2000 -0.3960 -0.4243
        vertex 0.3000 -0.2143 -0.5543
        vertex 0.4000 -0.2296 -0.5543
    endloop
endfacet
facet normal -0.0044 -0.0285 -0.1435
    outer loop
        vertex 0.4000 -0.2296 -0.5543
        vertex 0.3000 -0.2143 -0.5543
        vertex 0.4000 0.0000 -0.6000
    endloop
endfacet
facet normal 0.0044 -0.0285 -0.1435
    outer loop
        vertex -0.4000 -0.2296 -0.5543
        vertex -0.4000 0.0000 -0.6000
        vertex -0.3000 -0.2143 -0.5543
    endloop
endfacet
facet normal 0.0124 -0.0813 -0.1231
    outer loop
        vertex -0.4000 -0.2296 -0.5543
        vertex -0.3000 -0.2143 -0.5543
        vertex -0.2000 -0.3960 -0.4243
    endloop
endfacet
facet normal 0.0230 -0.1626 -0.2433
    outer loop
        vertex -0.4000 -0.2296 -0.5543
        vertex -0.2000 -0.3960 -0.4243
        vertex -0.4000 -0.4243 -0.4243
    endloop
endfacet
facet normal 0.0344 -0.2433 -0.1694
    outer loop
        vertex -0.4000 -0.4243 -0.4243
        vertex -0.2000 -0.3960 -0.4243
        vertex -0.1000 -0.5174 -0.2296
    endloop
endfacet
facet normal 0.0450 -0.3650 -0.2439
    outer loop
        vertex -0.1000 -0.5174 -0.2296
        vertex -0.4000 -0.5543 -0.2296
        vertex -0.4000 -0.4243 -0.4243
    endloop
endfacet
facet normal 0.0530 -0.4305 -0.1030
    outer loop
        vertex -0.4000 -0.5543 -0.2296
        vertex -0.1000 -0.5174 -0.2296
        vertex 0.0000 -0.5600 0.0000
    endloop
endfacet
facet normal 0.0574 -0.5740 -0.1141
    outer loop
        vertex 0.0000 -0.5600 0.0000
        vertex -0.4000 -0.6000 0.0000
        vertex -0.4000 -0.5543 -0.2296
    endloop
endfacet
facet normal 0.0530 -0.4305 0.1030
    outer loop
        vertex 0.0000 -0.5600 0.0000
        vertex -0.1000 -0.5174 0.2296
        vertex -0.4000 -0.5543 0.2296
    endloop
endfacet
facet normal 0.0574 -0.5740 0.1141
    outer loop
        vertex -0.4000 -0.5543 0.2296
        vertex -0.4000 -0.6000 0.0000
        vertex 0.0000 -0.5600 0.0000
    endloop
endfacet
facet normal 0.0344 -0.2433 0.1694
    outer loop
        vertex -0.1000 -0.5174 0.2296
        vertex -0.2000 -0.3960 0.4243
        vertex -0.4000 -0.4243 0.4243
    endloop
endfacet
facet normal 0.0450 -0.3650 0.2439
    outer loop
        vertex -0.4000 -0.4243 0.4243
        vertex -0.4000 -0.5543 0.2296
        vertex -0.1000 -0.5174 0.2296
    endloop
endfacet
facet normal 0.0230 -0.1626 0.2433
    outer loop
        vertex -0.4000 -0.4243 0.4243
        vertex -0.2000 -0.3960 0.4243
        vertex -0.4000 -0.2296 0.5543
    endloop
endfacet
facet normal 0.0124 -0.0813 0.1231
    outer loop
        vertex -0.4000 -0.2296 0.5543
        vertex -0.2000 -0.3960 0.4243
        vertex -0.3000 -0.2143 0.5543
    endloop
endfacet
facet normal 0.0044 -0.0285 0.1435
    outer loop
        vertex -0.4000 -0.2296 0.5543
        vertex -0.3000 -0.2143 0.5543
        vertex -0.4000 0.0000 0.6000
    endloop
endfacet
facet normal 0.0044 0.0285 -0.1435
    outer loop
        vertex -0.4000 0.0000 -0.6000
        vertex -0.4000 0.2296 -0.5543
        vertex -0.3000 0.2143 -0.5543
    endloop
endfacet
facet normal 0.0124 0.0813 -0.1231
    outer loop
        vertex -0.3000 0.2143 -0.5543
        vertex -0.4000 0.2296 -0.5543
        vertex -0.2000 0.3960 -0.4243
    endloop
endfacet
facet normal 0.0230 0.1626 -0.2433
    outer loop
        vertex -0.2000 0.3960 -0.4243
        vertex -0.4000 0.2296 -0.5543
        vertex -0.4000 0.4243 -0.4243
    endloop
endfacet
facet normal 0.0344 0.2433 -0.1694
    outer loop
        vertex -0.2000 0.3960 -0.4243
        vertex -0.4000 0.4243 -0.4243
        vertex -0.1000 0.5174 -0.2296
    endloop
endfacet
facet normal 0.0450 0.3650 -0.2439
    outer loop
        vertex -0.4000 0.5543 -0.2296
        vertex -0.1000 0.5174 -0.2296
        vertex -0.4000 0.4243 -0.4243
    endloop
endfacet
facet normal 0.0530 0.4305 -0.1030
    outer loop
        vertex -0.1000 0.5174 -0.2296
        vertex -0.4000 0.5543 -0.2296
        vertex 0.0000 0.5600 0.0000
    endloop
endfacet
facet normal 0.0574 0.5740 -0.1141
    outer loop
        vertex -0.4000 0.6000 0.0000
        vertex 0.0000 0.5600 0.0000
        vertex -0.4000 0.5543 -0.2296
    endloop
endfacet
facet normal 0.0530 0.4305 0.1030
    outer loop
        vertex -0.1000 0.5174 0.2296
        vertex 0.0000 0.5600 0.0000
        vertex -0.4000 0.5543 0.2296
    endloop
endfacet
facet normal 0.0574 0.5740 0.1141
    outer loop
        vertex -0.4000 0.6000 0.0000
        vertex -0.4000 0.5543 0.2296
        vertex 0.0000 0.5600 0.0000
    endloop
endfacet
facet normal 0.0344 0.2433 0.1694
    outer loop
        vertex -0.2000 0.3960 0.4243
        vertex -0.1000 0.5174 0.2296
        vertex -0.4000 0.4243 0.4243
    endloop
endfacet
facet normal 0.0450 0.3650 0.2439
    outer loop
        vertex -0.4000 0.5543 0.2296
        vertex -0.4000 0.4243 0.4243
        vertex -0.1000 0.5174 0.2296
    endloop
endfacet
facet normal 0.0230 0.1626 0.2433
    outer loop
        vertex -0.2000 0.3960 0.4243
        vertex -0.4000 0.4243 0.4243
        vertex -0.4000 0.2296 0.5543
    endloop
endfacet
facet normal 0.0124 0.0813 0.1231
    outer loop
        vertex -0.2000 0.3960 0.4243
        vertex -0.4000 0.2296 0.5543
        vertex -0.3000 0.2143 0.5543
    endloop
endfacet
facet normal 0.0044 0.0285 0.1435
    outer loop
        vertex -0.3000 0.2143 0.5543
        vertex -0.4000 0.2296 0.5543
        vertex -0.4000 0.0000 0.6000
    endloop
endfacet
facet normal 0.0000 0.2870 -0.0533
    outer loop
        vertex -0.8000 0.5600 0.0000
        vertex -0.7000 0.5174 -0.2296
        vertex -0.9000 0.5174 -0.2296
    endloop
endfacet
facet normal 0.0000 0.4866 -0.3035
    outer loop
        vertex -0.7000 0.5174 -0.2296
        vertex -0.6000 0.3960 -0.4243
        vertex -1.0000 0.3960 -0.4243
    endloop
endfacet
facet normal 0.0000 0.2433 -0.1518
    outer loop
        vertex -1.0000 0.3960 -0.4243
        vertex -0.9000 0.5174 -0.2296
        vertex -0.7000 0.5174 -0.2296
    endloop
endfacet
facet normal 0.0000 0.4878 -0.6812
    outer loop
        vertex -0.6000 0.3960 -0.4243
        vertex -0.5000 0.2143 -0.5543
        vertex -1.1000 0.2143 -0.5543
    endloop
endfacet
facet normal 0.0000 0.3252 -0.4542
    outer loop
        vertex -1.1000 0.2143 -0.5543
        vertex -1.0000 0.3960 -0.4243
        vertex -0.6000 0.3960 -0.4243
    endloop
endfacet
facet normal 0.0000 0.2283 -1.0716
    outer loop
        vertex -0.5000 0.2143 -0.5543
        vertex -0.4000 0.0000 -0.6000
        vertex -1.2000 0.0000 -0.6000
    endloop
endfacet
facet normal 0.0000 0.1712 -0.8037
    outer loop
        vertex -1.2000 0.0000 -0.6000
        vertex -1.1000 0.2143 -0.5543
        vertex -0.5000 0.2143 -0.5543
    endloop
endfacet
facet normal 0.0000 0.2870 0.0533
    outer loop
        vertex -0.7000 0.5174 0.2296
        vertex -0.8000 0.5600 0.0000
        vertex -0.9000 0.5174 0.2296
    endloop
endfacet
facet normal 0.0000 0.2433 0.1518
    outer loop
        vertex -0.7000 0.5174 0.2296
        vertex -0.9000 0.5174 0.2296
        vertex -1.0000 0.3960 0.4243
    endloop
endfacet
facet normal 0.0000 0.4866 0.3035
    outer loop
        vertex -1.0000 0.3960 0.4243
        vertex -0.6000 0.3960 0.4243
        vertex -0.7000 0.5174 0.2296
    endloop
endfacet
facet normal 0.0000 0.3252 0.4542
    outer loop
        vertex -0.6000 0.3960 0.4243
        vertex -1.0000 0.3960 0.4243
        vertex -1.1000 0.2143 0.5543
    endloop
endfacet
facet normal 0.0000 0.4878 0.6812
    outer loop
        vertex -1.1000 0.2143 0.5543
        vertex -0.5000 0.2143 0.5543
        vertex -0.6000 0.3960 0.4243
    endloop
endfacet
facet normal 0.0000 0.1712 0.8037
    outer loop
        vertex -0.5000 0.2143 0.5543
        vertex -1.1000 0.2143 0.5543
        vertex -1.2000 0.0000 0.6000
    endloop
endfacet
facet normal 0.0000 0.2283 1.0716
    outer loop
        vertex -1.2000 0.0000 0.6000
        vertex -0.4000 0.0000 0.6000
        vertex -0.5000 0.2143 0.5543
    endloop
endfacet
facet normal 0.0000 -0.2870 -0.0533
    outer loop
        vertex -0.7000 -0.5174 -0.2296
        vertex -0.8000 -0.5600 0.0000
        vertex -0.9000 -0.5174 -0.2296
    endloop
endfacet
facet normal 0.0000 -0.2433 -0.1518
    outer loop
        vertex -0.7000 -0.5174 -0.2296
        vertex -0.9000 -0.5174 -0.2296
        vertex -1.0000 -0.3960 -0.4243
    endloop
endfacet
facet normal 0.0000 -0.4866 -0.3035
    outer loop
        vertex -1.0000 -0.3960 -0.4243
        vertex -0.6000 -0.3960 -0.4243
        vertex -0.7000 -0.5174 -0.2296
    endloop
endfacet
facet normal 0.0000 -0.3252 -0.4542
    outer loop
        vertex -0.6000 -0.3960 -0.4243
        vertex -1.0000 -0.3960 -0.4243
        vertex -1.1000 -0.2143 -0.5543
    endloop
endfacet
facet normal 0.0000 -0.4878 -0.6812
    outer loop
        vertex -1.1000 -0.2143 -0.5543
        vertex -0.5000 -0.2143 -0.5543
        vertex -0.6000 -0.3960 -0.4243
    endloop
endfacet
facet normal 0.0000 -0.1712 -0.8037
    outer loop
        vertex -0.5000 -0.2143 -0.5543
        vertex -1.1000 -0.2143 -0.5543
        vertex -1.2000 0.0000 -0.6000
    endloop
endfacet
facet normal 0.0000 -0.2283 -1.0716
    outer loop
        vertex -1.2000 0.0000 -0.6000
        vertex -0.4000 0.0000 -0.6000
        vertex -0.5000 -0.2143 -0.5543
    endloop
endfacet
facet normal 0.0000 -0.2870 0.0533
    outer loop
        vertex -0.8000 -0.5600 0.0000
        vertex -0.7000 -0.5174 0.2296
        vertex -0.9000 -0.5174 0.2296
    endloop
endfacet
facet normal 0.0000 -0.4866 0.3035
    outer loop
        vertex -0.7000 -0.5174 0.2296
        vertex -0.6000 -0.3960 0.4243
        vertex -1.0000 -0.3960 0.4243
    endloop
endfacet
facet normal 0.0000 -0.2433 0.1518
    outer loop
        vertex -1.0000 -0.3960 0.4243
        vertex -0.9000 -0.5174 0.2296
        vertex -0.7000 -0.5174 0.2296
    endloop
endfacet
facet normal 0.0000 -0.4878 0.6812
    outer loop
        vertex -0.6000 -0.3960 0.4243
        vertex -0.5000 -0.2143 0.5543
        vertex -1.1000 -0.2143 0.5543
    endloop
endfacet
facet normal 0.0000 -0.3252 0.4542
    outer loop
        vertex -1.1000 -0.2143 0.5543
        vertex -1.0000 -0.3960 0.4243
        vertex -0.6000 -0.3960 0.4243
    endloop
endfacet
facet normal 0.0000 -0.2283 1.0716
    outer loop
        vertex -0.5000 -0.2143 0.5543
        vertex -0.4000 0.0000 0.6000
        vertex -1.2000 0.0000 0.6000
    endloop
endfacet
facet normal 0.0000 -0.1712 0.8037
    outer loop
        vertex -1.2000 0.0000 0.6000
        vertex -1.1000 -0.2143 0.5543
        vertex -0.5000 -0.2143 0.5543
    endloop
endfacet
facet normal -0.0044 0.0285 -0.1435
    outer loop
        vertex -0.4000 0.2296 -0.5543
        vertex -0.4000 0.0000 -0.6000
        vertex -0.5000 0.2143 -0.5543
    endloop
endfacet
facet normal -0.0124 0.0813 -0.1231
    outer loop
        vertex -0.4000 0.2296 -0.5543
        vertex -0.5000 0.2143 -0.5543
        vertex -0.6000 0.3960 -0.4243
    endloop
endfacet
facet normal -0.0230 0.1626 -0.2433
    outer loop
        vertex -0.6000 0.3960 -0.4243
        vertex -0.4000 0.4243 -0.4243
        vertex -0.4000 0.2296 -0.5543
    endloop
endfacet
facet normal -0.0344 0.2433 -0.1694
    outer loop
        vertex -0.4000 0.4243 -0.4243
        vertex -0.6000 0.3960 -0.4243
        vertex -0.7000 0.5174 -0.2296
    endloop
endfacet
facet normal -0.0450 0.3650 -0.2439
    outer loop
        vertex -0.7000 0.5174 -0.2296
        vertex -0.4000 0.5543 -0.2296
        vertex -0.4000 0.4243 -0.4243
    endloop
endfacet
facet normal -0.0530 0.4305 -0.1030
    outer loop
        vertex -0.4000 0.5543 -0.2296
        vertex -0.7000 0.5174 -0.2296
        vertex -0.8000 0.5600 0.0000
    endloop
endfacet
facet normal -0.0574 0.5740 -0.1141
    outer loop
        vertex -0.8000 0.5600 0.0000
        vertex -0.4000 0.6000 0.0000
        vertex -0.4000 0.5543 -0.2296
    endloop
endfacet
facet normal -0.0530 0.4305 0.1030
    outer loop
        vertex -0.8000 0.5600 0.0000
        vertex -0.7000 0.5174 0.2296
        vertex -0.4000 0.5543 0.2296
    endloop
endfacet
facet normal -0.0574 0.5740 0.1141
    outer loop
        vertex -0.4000 0.5543 0.2296
        vertex -0.4000 0.6000 0.0000
        vertex -0.8000 0.5600 0.0000
    endloop
endfacet
facet normal -0.0344 0.2433 0.1694
    outer loop
        vertex -0.7000 0.5174 0.2296
        vertex -0.6000 0.3960 0.4243
        vertex -0.4000 0.4243 0.4243
    endloop
endfacet
facet normal -0.0450 0.3650 0.2439
    outer loop
        vertex -0.4000 0.4243 0.4243
        vertex -0.4000 0.5543 0.2296
        vertex -0.7000 0.5174 0.2296
    endloop
endfacet
facet normal -0.0230 0.1626 0.2433
    outer loop
        vertex -0.4000 0.2296 0.5543
        vertex -0.4000 0.4243 0.4243
        vertex -0.6000 0.3960 0.4243
    endloop
endfacet
facet normal -0.0124 0.0813 0.1231
    outer loop
        vertex -0.6000 0.3960 0.4243
        vertex -0.5000 0.2143 0.5543
        vertex -0.4000 0.2296 0.5543
    endloop
endfacet
facet normal -0.0044 0.0285 0.1435
    outer loop
        vertex -0.4000 0.2296 0.5543
        vertex -0.5000 0.2143 0.5543
        vertex -0.4000 0.0000 0.6000
    endloop
endfacet
facet normal -0.0044 -0.0285 0.1435
    outer loop
        vertex -0.4000 0.0000 0.6000
        vertex -0.5000 -0.2143 0.5543
        vertex -0.4000 -0.2296 0.5543
    endloop
endfacet
facet normal -0.0124 -0.0813 0.1231
    outer loop
        vertex -0.4000 -0.2296 0.5543
        vertex -0.5000 -0.2143 0.5543
        vertex -0.6000 -0.3960 0.4243
    endloop
endfacet
facet normal -0.0230 -0.1626 0.2433
    outer loop
        vertex -0.6000 -0.3960 0.4243
        vertex -0.4000 -0.4243 0.4243
        vertex -0.4000 -0.2296 0.5543
    endloop
endfacet
facet normal -0.0344 -0.2433 0.1694
    outer loop
        vertex -0.4000 -0.4243 0.4243
        vertex -0.6000 -0.3960 0.4243
        vertex -0.7000 -0.5174 0.2296
    endloop
endfacet
facet normal -0.0450 -0.3650 0.2439
    outer loop
        vertex -0.7000 -0.5174 0.2296
        vertex -0.4000 -0.5543 0.2296
        vertex -0.4000 -0.4243 0.4243
    endloop
endfacet
facet normal -0.0530 -0.4305 0.1030
    outer loop
        vertex -0.4000 -0.5543 0.2296
        vertex -0.7000 -0.5174 0.2296
        vertex -0.8000 -0.5600 0.0000
    endloop
endfacet
facet normal -0.0574 -0.5740 0.1141
    outer loop
        vertex -0.8000 -0.5600 0.0000
        vertex -0.4000 -0.6000 0.0000
        vertex -0.4000 -0.5543 0.2296
    endloop
endfacet
facet normal -0.0574 -0.5740 -0.1141
    outer loop
        vertex -0.4000 -0.5543 -0.2296
        vertex -0.4000 -0.6000 0.0000
        vertex -0.8000 -0.5600 0.0000
    endloop
endfacet
facet normal -0.0530 -0.4305 -0.1030
    outer loop
        vertex -0.8000 -0.5600 0.0000
        vertex -0.7000 -0.5174 -0.2296
        vertex -0.4000 -0.5543 -0.2296
    endloop
endfacet
facet normal -0.0450 -0.3650 -0.2439
    outer loop
        vertex -0.4000 -0.4243 -0.4243
        vertex -0.4000 -0.5543 -0.2296
        vertex -0.7000 -0.5174 -0.2296
    endloop
endfacet
facet normal -0.0344 -0.2433 -0.1694
    outer loop
        vertex -0.7000 -0.5174 -0.2296
        vertex -0.6000 -0.3960 -0.4243
        vertex -0.4000 -0.4243 -0.4243
    endloop
endfacet
facet normal -0.0230 -0.1626 -0.2433
    outer loop
        vertex -0.4000 -0.2296 -0.5543
        vertex -0.4000 -0.4243 -0.4243
        vertex -0.6000 -0.3960 -0.4243
    endloop
endfacet
facet normal -0.0124 -0.0813 -0.1231
    outer loop
        vertex -0.6000 -0.3960 -0.4243
        vertex -0.5000 -0.2143 -0.5543
        vertex -0.4000 -0.2296 -0.5543
    endloop
endfacet
facet normal -0.0044 -0.0285 -0.1435
    outer loop
        vertex -0.4000 -0.2296 -0.5543
        vertex -0.5000 -0.2143 -0.5543
        vertex -0.4000 0.0000 -0.6000
    endloop
endfacet
facet normal 0.0044 -0.0285 -0.1435
    outer loop
        vertex -1.2000 -0.2296 -0.5543
        vertex -1.2000 0.0000 -0.6000
        vertex -1.1000 -0.2143 -0.5543
    endloop
endfacet
facet normal 0.0124 -0.0813 -0.1231
    outer loop
        vertex -1.2000 -0.2296 -0.5543
        vertex -1.1000 -0.2143 -0.5543
        vertex -1.0000 -0.3960 -0.4243
    endloop
endfacet
facet normal 0.0230 -0.1626 -0.2433
    outer loop
        vertex -1.2000 -0.2296 -0.5543
        vertex -1.0000 -0.3960 -0.4243
        vertex -1.2000 -0.4243 -0.4243
    endloop
endfacet
facet normal 0.0344 -0.2433 -0.1694
    outer loop
        vertex -1.2000 -0.4243 -0.4243
        vertex -1.0000 -0.3960 -0.4243
        vertex -0.9000 -0.5174 -0.2296
    endloop
endfacet
facet normal 0.0450 -0.3650 -0.2439
    outer loop
        vertex -0.9000 -0.5174 -0.2296
        vertex -1.2000 -0.5543 -0.2296
        vertex -1.2000 -0.4243 -0.4243
    endloop
endfacet
facet normal 0.0530 -0.4305 -0.1030
    outer loop
        vertex -1.2000 -0.5543 -0.2296
        vertex -0.9000 -0.5174 -0.2296
        vertex -0.8000 -0.5600 0.0000
    endloop
endfacet
facet normal 0.0574 -0.5740 -0.1141
    outer loop
        vertex -0.8000 -0.5600 0.0000
        vertex -1.2000 -0.6000 0.0000
        vertex -1.2000 -0.5543 -0.2296
    endloop
endfacet
facet normal 0.0530 -0.4305 0.1030
    outer loop
        vertex -0.8000 -0.5600 0.0000
        vertex -0.9000 -0.5174 0.2296
        vertex -1.2000 -0.5543 0.2296
    endloop
endfacet
facet normal 0.0574 -0.5740 0.1141
    outer loop
        vertex -1.2000 -0.5543 0.2296
        vertex -1.2000 -0.6000 0.0000
        vertex -0.8000 -0.5600 0.0000
    endloop
endfacet
facet normal 0.0344 -0.2433 0.1694
    outer loop
        vertex -0.9000 -0.5174 0.2296
        vertex -1.0000 -0.3960 0.4243
        vertex -1.2000 -0.4243 0.4243
    endloop
endfacet
facet normal 0.0450 -0.3650 0.2439
    outer loop
        vertex -1.2000 -0.4243 0.4243
        vertex -1.2000 -0.5543 0.2296
        vertex -0.9000 -0.5174 0.2296
    endloop
endfacet
facet normal 0.0230 -0.1626 0.2433
    outer loop
        vertex -1.2000 -0.4243 0.4243
        vertex -1.0000 -0.3960 0.4243
        vertex -1.2000 -0.2296 0.5543
    endloop
endfacet
facet normal 0.0124 -0.0813 0.1231
    outer loop
        vertex -1.2000 -0.2296 0.5543
        vertex -1.0000 -0.3960 0.4243
        vertex -1.1000 -0.2143 0.5543
    endloop
endfacet
facet normal 0.0044 -0.0285 0.1435
    outer loop
        vertex -1.2000 -0.2296 0.5543
        vertex -1.1000 -0.2143 0.5543
        vertex -1.2000 0.0000 0.6000
    endloop
endfacet
facet normal 0.0044 0.0285 -0.1435
    outer loop
        vertex -1.2000 0.0000 -0.6000
        vertex -1.2000 0.2296 -0.5543
        vertex -1.1000 0.2143 -0.5543
    endloop
endfacet
facet normal 0.0124 0.0813 -0.1231
    outer loop
        vertex -1.1000 0.2143 -0.5543
        vertex -1.2000 0.2296 -0.5543
        vertex -1.0000 0.3960 -0.4243
    endloop
endfacet
facet normal 0.0230 0.1626 -0.2433
    outer loop
        vertex -1.0000 0.3960 -0.4243
        vertex -1.2000 0.2296 -0.5543
        vertex -1.2000 0.4243 -0.4243
    endloop
endfacet
facet normal 0.0344 0.2433 -0.1694
    outer loop
        vertex -1.0000 0.3960 -0.4243
        vertex -1.2000 0.4243 -0.4243
        vertex -0.9000 0.5174 -0.2296
    endloop
endfacet
facet normal 0.0450 0.3650 -0.2439
    outer loop
        vertex -1.2000 0.5543 -0.2296
        vertex -0.9000 0.5174 -0.2296
        vertex -1.2000 0.4243 -0.4243
    endloop
endfacet
facet normal 0.0530 0.4305 -0.1030
    outer loop
        vertex -0.9000 0.5174 -0.2296
        vertex -1.2000 0.5543 -0.2296
        vertex -0.8000 0.5600 0.0000
    endloop
endfacet
facet normal 0.0574 0.5740 -0.1141
    outer loop
        vertex -1.2000 0.6000 0.0000
        vertex -0.8000 0.5600 0.0000
        vertex -1.2000 0.5543 -0.2296
    endloop
endfacet
facet normal 0.0530 0.4305 0.1030
    outer loop
        vertex -0.9000 0.5174 0.2296
        vertex -0.8000 0.5600 0.0000
        vertex -1.2000 0.5543 0.2296
    endloop
endfacet
facet normal 0.0574 0.5740 0.1141
    outer loop
        vertex -1.2000 0.6000 0.0000
        vertex -1.2000 0.5543 0.2296
        vertex -0.8000 0.5600 0.0000
    endloop
endfacet
facet normal 0.0344 0.2433 0.1694
    outer loop
        vertex -1.0000 0.3960 0.4243
        vertex -0.9000 0.5174 0.2296
        vertex -1.2000 0.4243 0.4243
    endloop
endfacet
facet normal 0.0450 0.3650 0.2439
    outer loop
        vertex -1.2000 0.5543 0.2296
        vertex -1.2000 0.4243 0.4243
        vertex -0.9000 0.5174 0.2296
    endloop
endfacet
facet normal 0.0230 0.1626 0.2433
    outer loop
        vertex -1.0000 0.3960 0.4243
        vertex -1.2000 0.4243 0.4243
        vertex -1.2000 0.2296 0.5543
    endloop
endfacet
facet normal 0.0124 0.0813 0.1231
    outer loop
        vertex -1.0000 0.3960 0.4243
        vertex -1.2000 0.2296 0.5543
        vertex -1.1000 0.2143 0.5543
    endloop
endfacet
facet normal 0.0044 0.0285 0.1435
    outer loop
        vertex -1.1000 0.2143 0.5543
        vertex -1.2000 0.2296 0.5543
        vertex -1.2000 0.0000 0.6000
    endloop
endfacet
endsolid GiantLegoRocks
