solid GiantLegoRocks
facet normal 0.0000 0.7500 0.0000
    outer loop
        vertex 55.6000 0.0000 2.0000
        vertex 55.6000 0.0000 -2.0000
        vertex -55.6000 0.0000 -2.0000
    endloop
endfacet
facet normal 0.0000 0.7500 0.0000
    outer loop
        vertex -55.6000 0.0000 -2.0000
        vertex -55.6000 0.0000 2.0000
        vertex 55.6000 0.0000 2.0000
    endloop
endfacet
facet normal 0.0000 -0.2500 10.0000
    outer loop
        vertex -55.6000 -0.1000 2.0000
        vertex 55.6000 -0.1000 2.0000
        vertex 55.6000 0.0000 2.0000
    endloop
endfacet
facet normal 0.0000 -0.2500 10.0000
    outer loop
        vertex 55.6000 0.0000 2.0000
        vertex -55.6000 0.0000 2.0000
        vertex -55.6000 -0.1000 2.0000
    endloop
endfacet
facet normal -278.0000 -0.2500 0.0000
    outer loop
        vertex -55.6000 -0.1000 -2.0000
        vertex -55.6000 -0.1000 2.0000
        vertex -55.6000 0.0000 2.0000
    endloop
endfacet
facet normal -278.0000 -0.2500 0.0000
    outer loop
        vertex -55.6000 0.0000 2.0000
        vertex -55.6000 0.0000 -2.0000
        vertex -55.6000 -0.1000 -2.0000
    endloop
endfacet
facet normal 0.0000 -0.2500 -10.0000
    outer loop
        vertex 55.6000 -0.1000 -2.0000
        vertex -55.6000 -0.1000 -2.0000
        vertex -55.6000 0.0000 -2.0000
    endloop
endfacet
facet normal 0.0000 -0.2500 -10.0000
    outer loop
        vertex -55.6000 0.0000 -2.0000
        vertex 55.6000 0.0000 -2.0000
        vertex 55.6000 -0.1000 -2.0000
    endloop
endfacet
facet normal 278.0000 -0.2500 0.0000
    outer loop
        vertex 55.6000 -0.1000 2.0000
        vertex 55.6000 -0.1000 -2.0000
        vertex 55.6000 0.0000 -2.0000
    endloop
endfacet
facet normal 278.0000 -0.2500 0.0000
    outer loop
        vertex 55.6000 0.0000 -2.0000
        vertex 55.6000 0.0000 2.0000
        vertex 55.6000 -0.1000 2.0000
    endloop
endfacet
facet normal 0.0000 -1656.0000 0.0000
    outer loop
        vertex 55.2000 -0.1000 1.2000
        vertex -55.2000 -0.1000 1.2000
        vertex -55.2000 -0.1000 -1.2000
    endloop
endfacet
facet normal 0.0000 -1656.0000 0.0000
    outer loop
        vertex -55.2000 -0.1000 -1.2000
        vertex 55.2000 -0.1000 -1.2000
        vertex 55.2000 -0.1000 1.2000
    endloop
endfacet
facet normal 0.0000 -552.0000 0.0000
    outer loop
        vertex -55.6000 -0.1000 2.0000
        vertex -55.2000 -0.1000 1.2000
        vertex 55.2000 -0.1000 1.2000
    endloop
endfacet
facet normal 0.0000 -556.0000 0.0000
    outer loop
        vertex 55.2000 -0.1000 1.2000
        vertex 55.6000 -0.1000 2.0000
        vertex -55.6000 -0.1000 2.0000
    endloop
endfacet
facet normal 0.0000 -6.0000 0.0000
    outer loop
        vertex 55.6000 -0.1000 2.0000
        vertex 55.2000 -0.1000 1.2000
        vertex 55.2000 -0.1000 -1.2000
    endloop
endfacet
facet normal 0.0000 -10.0000 0.0000
    outer loop
        vertex 55.2000 -0.1000 -1.2000
        vertex 55.6000 -0.1000 -2.0000
        vertex 55.6000 -0.1000 2.0000
    endloop
endfacet
facet normal 0.0000 -552.0000 0.0000
    outer loop
        vertex 55.6000 -0.1000 -2.0000
        vertex 55.2000 -0.1000 -1.2000
        vertex -55.2000 -0.1000 -1.2000
    endloop
endfacet
facet normal 0.0000 -556.0000 0.0000
    outer loop
        vertex -55.2000 -0.1000 -1.2000
        vertex -55.6000 -0.1000 -2.0000
        vertex 55.6000 -0.1000 -2.0000
    endloop
endfacet
facet normal 0.0000 -6.0000 0.0000
    outer loop
        vertex -55.6000 -0.1000 -2.0000
        vertex -55.2000 -0.1000 -1.2000
        vertex -55.2000 -0.1000 1.2000
    endloop
endfacet
facet normal 0.0000 -10.0000 0.0000
    outer loop
        vertex -55.2000 -0.1000 1.2000
        vertex -55.6000 -0.1000 2.0000
        vertex -55.6000 -0.1000 -2.0000
    endloop
endfacet
endsolid GiantLegoRocks
