solid GiantLegoRocks
facet normal 0.0000 0.7500 0.0000
    outer loop
        vertex 8.4000 0.0000 2.8000
        vertex 8.4000 0.0000 -2.8000
        vertex -8.4000 0.0000 -2.8000
    endloop
endfacet
facet normal 0.0000 0.7500 0.0000
    outer loop
        vertex -8.4000 0.0000 -2.8000
        vertex -8.4000 0.0000 2.8000
        vertex 8.4000 0.0000 2.8000
    endloop
endfacet
facet normal 0.0000 -0.2500 14.0000
    outer loop
        vertex -8.4000 -0.1000 2.8000
        vertex 8.4000 -0.1000 2.8000
        vertex 8.4000 0.0000 2.8000
    endloop
endfacet
facet normal 0.0000 -0.2500 14.0000
    outer loop
        vertex 8.4000 0.0000 2.8000
        vertex -8.4000 0.0000 2.8000
        vertex -8.4000 -0.1000 2.8000
    endloop
endfacet
facet normal -42.0000 -0.2500 0.0000
    outer loop
        vertex -8.4000 -0.1000 -2.8000
        vertex -8.4000 -0.1000 2.8000
        vertex -8.4000 0.0000 2.8000
    endloop
endfacet
facet normal -42.0000 -0.2500 0.0000
    outer loop
        vertex -8.4000 0.0000 2.8000
        vertex -8.4000 0.0000 -2.8000
        vertex -8.4000 -0.1000 -2.8000
    endloop
endfacet
facet normal 0.0000 -0.2500 -14.0000
    outer loop
        vertex 8.4000 -0.1000 -2.8000
        vertex -8.4000 -0.1000 -2.8000
        vertex -8.4000 0.0000 -2.8000
    endloop
endfacet
facet normal 0.0000 -0.2500 -14.0000
    outer loop
        vertex -8.4000 0.0000 -2.8000
        vertex 8.4000 0.0000 -2.8000
        vertex 8.4000 -0.1000 -2.8000
    endloop
endfacet
facet normal 42.0000 -0.2500 0.0000
    outer loop
        vertex 8.4000 -0.1000 2.8000
        vertex 8.4000 -0.1000 -2.8000
        vertex 8.4000 0.0000 -2.8000
    endloop
endfacet
facet normal 42.0000 -0.2500 0.0000
    outer loop
        vertex 8.4000 0.0000 -2.8000
        vertex 8.4000 0.0000 2.8000
        vertex 8.4000 -0.1000 2.8000
    endloop
endfacet
facet normal 0.0000 -3.5604 0.0000
    outer loop
        vertex -5.7800 -0.1000 -0.9680
        vertex -6.3960 -0.1000 -1.5200
        vertex -5.3640 -0.1000 -1.5200
    endloop
endfacet
facet normal 0.0000 -1.7526 0.0000
    outer loop
        vertex -5.3640 -0.1000 -1.5200
        vertex -5.2720 -0.1000 -0.9680
        vertex -5.7800 -0.1000 -0.9680
    endloop
endfacet
facet normal 0.0000 -11.8118 0.0000
    outer loop
        vertex -6.3960 -0.1000 1.5480
        vertex -6.3960 -0.1000 -1.5200
        vertex -5.7800 -0.1000 -0.9680
    endloop
endfacet
facet normal 0.0000 -7.6076 0.0000
    outer loop
        vertex -5.7800 -0.1000 -0.9680
        vertex -5.7800 -0.1000 1.0080
        vertex -6.3960 -0.1000 1.5480
    endloop
endfacet
facet normal 0.0000 -1.0130 0.0000
    outer loop
        vertex -4.9920 -0.1000 -1.5040
        vertex -4.7120 -0.1000 -1.4560
        vertex -4.8920 -0.1000 -0.9080
    endloop
endfacet
facet normal 0.0000 -1.3780 0.0000
    outer loop
        vertex -4.8920 -0.1000 -0.9080
        vertex -5.2720 -0.1000 -0.9680
        vertex -4.9920 -0.1000 -1.5040
    endloop
endfacet
facet normal 0.0000 -1.1724 0.0000
    outer loop
        vertex -4.4920 -0.1000 -1.3720
        vertex -4.6360 -0.1000 -0.7360
        vertex -4.8920 -0.1000 -0.9080
    endloop
endfacet
facet normal 0.0000 -0.8480 0.0000
    outer loop
        vertex -4.8920 -0.1000 -0.9080
        vertex -4.7120 -0.1000 -1.4560
        vertex -4.4920 -0.1000 -1.3720
    endloop
endfacet
facet normal 0.0000 -1.2742 0.0000
    outer loop
        vertex -5.2720 -0.1000 -0.9680
        vertex -5.3640 -0.1000 -1.5200
        vertex -4.9920 -0.1000 -1.5040
    endloop
endfacet
facet normal 0.0000 -1.9710 0.0000
    outer loop
        vertex -5.7800 -0.1000 1.0080
        vertex -5.1960 -0.1000 1.0080
        vertex -5.1960 -0.1000 1.5480
    endloop
endfacet
facet normal 0.0000 -4.0500 0.0000
    outer loop
        vertex -5.1960 -0.1000 1.5480
        vertex -6.3960 -0.1000 1.5480
        vertex -5.7800 -0.1000 1.0080
    endloop
endfacet
facet normal 0.0000 -1.4580 0.0000
    outer loop
        vertex -4.7640 -0.1000 1.5080
        vertex -5.1960 -0.1000 1.5480
        vertex -5.1960 -0.1000 1.0080
    endloop
endfacet
facet normal 0.0000 -1.2245 0.0000
    outer loop
        vertex -5.1960 -0.1000 1.0080
        vertex -4.8560 -0.1000 0.9480
        vertex -4.7640 -0.1000 1.5080
    endloop
endfacet
facet normal 0.0000 -1.3056 0.0000
    outer loop
        vertex -4.4120 -0.1000 1.3800
        vertex -4.7640 -0.1000 1.5080
        vertex -4.8560 -0.1000 0.9480
    endloop
endfacet
facet normal 0.0000 -1.1367 0.0000
    outer loop
        vertex -4.8560 -0.1000 0.9480
        vertex -4.6200 -0.1000 0.7680
        vertex -4.4120 -0.1000 1.3800
    endloop
endfacet
facet normal 0.0000 -1.0278 0.0000
    outer loop
        vertex -3.9240 -0.1000 -0.7320
        vertex -4.4600 -0.1000 -0.3000
        vertex -4.5280 -0.1000 -0.5520
    endloop
endfacet
facet normal 0.0000 -1.2627 0.0000
    outer loop
        vertex -4.5280 -0.1000 -0.5520
        vertex -4.0800 -0.1000 -1.0200
        vertex -3.9240 -0.1000 -0.7320
    endloop
endfacet
facet normal 0.0000 -0.8907 0.0000
    outer loop
        vertex -4.6360 -0.1000 -0.7360
        vertex -4.4920 -0.1000 -1.3720
        vertex -4.2960 -0.1000 -1.2480
    endloop
endfacet
facet normal 0.0000 -1.1757 0.0000
    outer loop
        vertex -4.2960 -0.1000 -1.2480
        vertex -4.0800 -0.1000 -1.0200
        vertex -4.6360 -0.1000 -0.7360
    endloop
endfacet
facet normal 0.0000 -1.4250 0.0000
    outer loop
        vertex -4.4600 -0.1000 -0.3000
        vertex -3.9240 -0.1000 -0.7320
        vertex -3.8280 -0.1000 -0.3840
    endloop
endfacet
facet normal 0.0000 -1.2429 0.0000
    outer loop
        vertex -3.8280 -0.1000 -0.3840
        vertex -4.4400 -0.1000 0.0120
        vertex -4.4600 -0.1000 -0.3000
    endloop
endfacet
facet normal 0.0000 -0.8311 0.0000
    outer loop
        vertex -4.5280 -0.1000 -0.5520
        vertex -4.6360 -0.1000 -0.7360
        vertex -4.0800 -0.1000 -1.0200
    endloop
endfacet
facet normal 0.0000 -1.0491 0.0000
    outer loop
        vertex -4.5200 -0.1000 0.5760
        vertex -4.4600 -0.1000 0.3240
        vertex -3.8320 -0.1000 0.4840
    endloop
endfacet
facet normal 0.0000 -1.5845 0.0000
    outer loop
        vertex -3.8320 -0.1000 0.4840
        vertex -3.9480 -0.1000 0.8680
        vertex -4.5200 -0.1000 0.5760
    endloop
endfacet
facet normal 0.0000 -0.8689 0.0000
    outer loop
        vertex -4.6200 -0.1000 0.7680
        vertex -4.5200 -0.1000 0.5760
        vertex -3.9480 -0.1000 0.8680
    endloop
endfacet
facet normal 0.0000 -1.3800 0.0000
    outer loop
        vertex -3.9480 -0.1000 0.8680
        vertex -4.1400 -0.1000 1.1680
        vertex -4.6200 -0.1000 0.7680
    endloop
endfacet
facet normal 0.0000 -1.3160 0.0000
    outer loop
        vertex -4.4120 -0.1000 1.3800
        vertex -4.6200 -0.1000 0.7680
        vertex -4.1400 -0.1000 1.1680
    endloop
endfacet
facet normal 0.0000 -1.2558 0.0000
    outer loop
        vertex -4.4600 -0.1000 0.3240
        vertex -4.4400 -0.1000 0.0120
        vertex -3.7960 -0.1000 0.0120
    endloop
endfacet
facet normal 0.0000 -1.8886 0.0000
    outer loop
        vertex -3.7960 -0.1000 0.0120
        vertex -3.8320 -0.1000 0.4840
        vertex -4.4600 -0.1000 0.3240
    endloop
endfacet
facet normal 0.0000 -1.5939 0.0000
    outer loop
        vertex -3.7960 -0.1000 0.0120
        vertex -4.4400 -0.1000 0.0120
        vertex -3.8280 -0.1000 -0.3840
    endloop
endfacet
facet normal 0.0000 -12.1109 0.0000
    outer loop
        vertex -3.2756 -0.1000 1.5480
        vertex -3.2756 -0.1000 -1.5200
        vertex -2.6440 -0.1000 -1.5200
    endloop
endfacet
facet normal 0.0000 -12.1109 0.0000
    outer loop
        vertex -2.6440 -0.1000 -1.5200
        vertex -2.6440 -0.1000 1.5480
        vertex -3.2756 -0.1000 1.5480
    endloop
endfacet
facet normal 0.0000 -2.6228 0.0000
    outer loop
        vertex -1.4360 -0.1000 -0.8880
        vertex -2.3000 -0.1000 -1.5200
        vertex -1.6360 -0.1000 -1.5200
    endloop
endfacet
facet normal 0.0000 -11.9535 0.0000
    outer loop
        vertex -1.2080 -0.1000 1.5480
        vertex -2.3000 -0.1000 -1.5200
        vertex -1.2680 -0.1000 -0.3720
    endloop
endfacet
facet normal 0.0000 -4.5975 0.0000
    outer loop
        vertex -1.2680 -0.1000 -0.3720
        vertex -0.8440 -0.1000 0.9360
        vertex -1.2080 -0.1000 1.5480
    endloop
endfacet
facet normal 0.0000 -2.7477 0.0000
    outer loop
        vertex -0.4160 -0.1000 -0.3720
        vertex -1.2680 -0.1000 -0.3720
        vertex -1.4360 -0.1000 -0.8880
    endloop
endfacet
facet normal 0.0000 -3.8442 0.0000
    outer loop
        vertex -1.4360 -0.1000 -0.8880
        vertex -0.2440 -0.1000 -0.8880
        vertex -0.4160 -0.1000 -0.3720
    endloop
endfacet
facet normal 0.0000 -2.1228 0.0000
    outer loop
        vertex -1.2680 -0.1000 -0.3720
        vertex -2.3000 -0.1000 -1.5200
        vertex -1.4360 -0.1000 -0.8880
    endloop
endfacet
facet normal 0.0000 -2.6070 0.0000
    outer loop
        vertex -0.2440 -0.1000 -0.8880
        vertex -0.0360 -0.1000 -1.5200
        vertex 0.6240 -0.1000 -1.5200
    endloop
endfacet
facet normal 0.0000 -2.1199 0.0000
    outer loop
        vertex -0.4160 -0.1000 -0.3720
        vertex -0.2440 -0.1000 -0.8880
        vertex 0.6240 -0.1000 -1.5200
    endloop
endfacet
facet normal 0.0000 -12.0208 0.0000
    outer loop
        vertex 0.6240 -0.1000 -1.5200
        vertex -0.4800 -0.1000 1.5480
        vertex -0.4160 -0.1000 -0.3720
    endloop
endfacet
facet normal 0.0000 -4.6128 0.0000
    outer loop
        vertex -0.4800 -0.1000 1.5480
        vertex -0.8440 -0.1000 0.9360
        vertex -0.4160 -0.1000 -0.3720
    endloop
endfacet
facet normal 0.0000 -2.7846 0.0000
    outer loop
        vertex -0.4800 -0.1000 1.5480
        vertex -1.2080 -0.1000 1.5480
        vertex -0.8440 -0.1000 0.9360
    endloop
endfacet
facet normal 0.0000 -8.1685 0.0000
    outer loop
        vertex 0.9440 -0.1000 -1.5200
        vertex 1.5640 -0.1000 -1.5200
        vertex 1.5640 -0.1000 0.5880
    endloop
endfacet
facet normal 0.0000 -11.8885 0.0000
    outer loop
        vertex 1.5640 -0.1000 0.5880
        vertex 0.9440 -0.1000 1.5480
        vertex 0.9440 -0.1000 -1.5200
    endloop
endfacet
facet normal 0.0000 -3.9600 0.0000
    outer loop
        vertex 1.6040 -0.1000 1.5480
        vertex 0.9440 -0.1000 1.5480
        vertex 1.5640 -0.1000 0.5880
    endloop
endfacet
facet normal 0.0000 -7.9910 0.0000
    outer loop
        vertex 1.5640 -0.1000 0.5880
        vertex 2.8480 -0.1000 -0.5600
        vertex 1.6040 -0.1000 1.5480
    endloop
endfacet
facet normal 0.0000 -3.9120 0.0000
    outer loop
        vertex 2.8480 -0.1000 -0.5600
        vertex 2.8200 -0.1000 -1.5200
        vertex 3.4720 -0.1000 -1.5200
    endloop
endfacet
facet normal 0.0000 -11.9652 0.0000
    outer loop
        vertex 3.4720 -0.1000 -1.5200
        vertex 3.4720 -0.1000 1.5480
        vertex 2.8480 -0.1000 -0.5600
    endloop
endfacet
facet normal 0.0000 -8.2212 0.0000
    outer loop
        vertex 3.4720 -0.1000 1.5480
        vertex 2.8480 -0.1000 1.5480
        vertex 2.8480 -0.1000 -0.5600
    endloop
endfacet
facet normal 0.0000 -7.9049 0.0000
    outer loop
        vertex 1.5640 -0.1000 0.5880
        vertex 2.8200 -0.1000 -1.5200
        vertex 2.8480 -0.1000 -0.5600
    endloop
endfacet
facet normal 0.0000 -2.6228 0.0000
    outer loop
        vertex 4.6520 -0.1000 -0.8880
        vertex 3.7880 -0.1000 -1.5200
        vertex 4.4520 -0.1000 -1.5200
    endloop
endfacet
facet normal 0.0000 -11.9535 0.0000
    outer loop
        vertex 4.8800 -0.1000 1.5480
        vertex 3.7880 -0.1000 -1.5200
        vertex 4.8200 -0.1000 -0.3720
    endloop
endfacet
facet normal 0.0000 -4.5975 0.0000
    outer loop
        vertex 4.8200 -0.1000 -0.3720
        vertex 5.2440 -0.1000 0.9360
        vertex 4.8800 -0.1000 1.5480
    endloop
endfacet
facet normal 0.0000 -2.7477 0.0000
    outer loop
        vertex 5.6720 -0.1000 -0.3720
        vertex 4.8200 -0.1000 -0.3720
        vertex 4.6520 -0.1000 -0.8880
    endloop
endfacet
facet normal 0.0000 -3.8442 0.0000
    outer loop
        vertex 4.6520 -0.1000 -0.8880
        vertex 5.8440 -0.1000 -0.8880
        vertex 5.6720 -0.1000 -0.3720
    endloop
endfacet
facet normal 0.0000 -2.1228 0.0000
    outer loop
        vertex 4.8200 -0.1000 -0.3720
        vertex 3.7880 -0.1000 -1.5200
        vertex 4.6520 -0.1000 -0.8880
    endloop
endfacet
facet normal 0.0000 -2.6228 0.0000
    outer loop
        vertex 5.8440 -0.1000 -0.8880
        vertex 6.0520 -0.1000 -1.5200
        vertex 6.7160 -0.1000 -1.5200
    endloop
endfacet
facet normal 0.0000 -2.1328 0.0000
    outer loop
        vertex 5.6720 -0.1000 -0.3720
        vertex 5.8440 -0.1000 -0.8880
        vertex 6.7160 -0.1000 -1.5200
    endloop
endfacet
facet normal 0.0000 -12.0688 0.0000
    outer loop
        vertex 6.7160 -0.1000 -1.5200
        vertex 5.6080 -0.1000 1.5480
        vertex 5.6720 -0.1000 -0.3720
    endloop
endfacet
facet normal 0.0000 -4.6128 0.0000
    outer loop
        vertex 5.6080 -0.1000 1.5480
        vertex 5.2440 -0.1000 0.9360
        vertex 5.6720 -0.1000 -0.3720
    endloop
endfacet
facet normal 0.0000 -2.7846 0.0000
    outer loop
        vertex 5.6080 -0.1000 1.5480
        vertex 4.8800 -0.1000 1.5480
        vertex 5.2440 -0.1000 0.9360
    endloop
endfacet
facet normal 0.0000 -38.4267 0.0000
    outer loop
        vertex -8.4000 -0.1000 -2.8000
        vertex -6.3960 -0.1000 -1.5200
        vertex -6.3960 -0.1000 1.5480
    endloop
endfacet
facet normal 0.0000 -70.1400 0.0000
    outer loop
        vertex -6.3960 -0.1000 1.5480
        vertex -8.4000 -0.1000 2.8000
        vertex -8.4000 -0.1000 -2.8000
    endloop
endfacet
facet normal 0.0000 -8.2560 0.0000
    outer loop
        vertex -5.3640 -0.1000 -1.5200
        vertex -6.3960 -0.1000 -1.5200
        vertex -8.4000 -0.1000 -2.8000
    endloop
endfacet
facet normal 0.0000 -2.6724 0.0000
    outer loop
        vertex -4.9920 -0.1000 -1.5040
        vertex -5.3640 -0.1000 -1.5200
        vertex -8.4000 -0.1000 -2.8000
    endloop
endfacet
facet normal 0.0000 -1.2456 0.0000
    outer loop
        vertex -4.7120 -0.1000 -1.4560
        vertex -4.9920 -0.1000 -1.5040
        vertex -8.4000 -0.1000 -2.8000
    endloop
endfacet
facet normal 0.0000 -13.5410 0.0000
    outer loop
        vertex -8.4000 -0.1000 -2.8000
        vertex -3.2756 -0.1000 -1.5200
        vertex -4.7120 -0.1000 -1.4560
    endloop
endfacet
facet normal 0.0000 -6.2738 0.0000
    outer loop
        vertex -5.7800 -0.1000 1.0080
        vertex -5.7800 -0.1000 -0.9680
        vertex -5.2720 -0.1000 -0.9680
    endloop
endfacet
facet normal 0.0000 -7.2124 0.0000
    outer loop
        vertex -5.2720 -0.1000 -0.9680
        vertex -5.1960 -0.1000 1.0080
        vertex -5.7800 -0.1000 1.0080
    endloop
endfacet
facet normal 0.0000 -1.2820 0.0000
    outer loop
        vertex -4.4600 -0.1000 -0.3000
        vertex -5.2720 -0.1000 -0.9680
        vertex -4.8920 -0.1000 -0.9080
    endloop
endfacet
facet normal 0.0000 -0.4220 0.0000
    outer loop
        vertex -4.8920 -0.1000 -0.9080
        vertex -4.5280 -0.1000 -0.5520
        vertex -4.4600 -0.1000 -0.3000
    endloop
endfacet
facet normal 0.0000 -1.1240 0.0000
    outer loop
        vertex -4.2960 -0.1000 -1.2480
        vertex -4.4920 -0.1000 -1.3720
        vertex -3.2756 -0.1000 -1.5200
    endloop
endfacet
facet normal 0.0000 -1.8213 0.0000
    outer loop
        vertex -4.0800 -0.1000 -1.0200
        vertex -4.2960 -0.1000 -1.2480
        vertex -3.2756 -0.1000 -1.5200
    endloop
endfacet
facet normal 0.0000 -5.0528 0.0000
    outer loop
        vertex -2.6440 -0.1000 -1.5200
        vertex -3.2756 -0.1000 -1.5200
        vertex -8.4000 -0.1000 -2.8000
    endloop
endfacet
facet normal 0.0000 -0.8421 0.0000
    outer loop
        vertex -4.4920 -0.1000 -1.3720
        vertex -4.7120 -0.1000 -1.4560
        vertex -3.2756 -0.1000 -1.5200
    endloop
endfacet
facet normal 0.0000 -6.5962 0.0000
    outer loop
        vertex -2.6440 -0.1000 1.5480
        vertex -2.6440 -0.1000 -1.5200
        vertex -2.3000 -0.1000 -1.5200
    endloop
endfacet
facet normal 0.0000 -27.5353 0.0000
    outer loop
        vertex -2.3000 -0.1000 -1.5200
        vertex -1.2080 -0.1000 1.5480
        vertex -2.6440 -0.1000 1.5480
    endloop
endfacet
facet normal 0.0000 -0.1783 0.0000
    outer loop
        vertex -4.5280 -0.1000 -0.5520
        vertex -4.8920 -0.1000 -0.9080
        vertex -4.6360 -0.1000 -0.7360
    endloop
endfacet
facet normal 0.0000 -1.9354 0.0000
    outer loop
        vertex -3.9240 -0.1000 -0.7320
        vertex -4.0800 -0.1000 -1.0200
        vertex -3.2756 -0.1000 -1.5200
    endloop
endfacet
facet normal 0.0000 -1.8831 0.0000
    outer loop
        vertex -3.8280 -0.1000 -0.3840
        vertex -3.9240 -0.1000 -0.7320
        vertex -3.2756 -0.1000 -1.5200
    endloop
endfacet
facet normal 0.0000 -1.5944 0.0000
    outer loop
        vertex -3.7960 -0.1000 0.0120
        vertex -3.8280 -0.1000 -0.3840
        vertex -3.2756 -0.1000 -1.5200
    endloop
endfacet
facet normal 0.0000 -9.9787 0.0000
    outer loop
        vertex -3.2756 -0.1000 -1.5200
        vertex -3.2756 -0.1000 1.5480
        vertex -3.7960 -0.1000 0.0120
    endloop
endfacet
facet normal 0.0000 -2.7520 0.0000
    outer loop
        vertex -2.3000 -0.1000 -1.5200
        vertex -2.6440 -0.1000 -1.5200
        vertex -8.4000 -0.1000 -2.8000
    endloop
endfacet
facet normal 0.0000 -0.6645 0.0000
    outer loop
        vertex -4.5200 -0.1000 0.5760
        vertex -4.8560 -0.1000 0.9480
        vertex -5.1960 -0.1000 1.0080
    endloop
endfacet
facet normal 0.0000 -0.9027 0.0000
    outer loop
        vertex -5.1960 -0.1000 1.0080
        vertex -4.4600 -0.1000 0.3240
        vertex -4.5200 -0.1000 0.5760
    endloop
endfacet
facet normal 0.0000 -0.1707 0.0000
    outer loop
        vertex -4.8560 -0.1000 0.9480
        vertex -4.5200 -0.1000 0.5760
        vertex -4.6200 -0.1000 0.7680
    endloop
endfacet
facet normal 0.0000 -9.3900 0.0000
    outer loop
        vertex -8.4000 -0.1000 2.8000
        vertex -6.3960 -0.1000 1.5480
        vertex -5.1960 -0.1000 1.5480
    endloop
endfacet
facet normal 0.0000 -2.5794 0.0000
    outer loop
        vertex -8.4000 -0.1000 2.8000
        vertex -5.1960 -0.1000 1.5480
        vertex -4.7640 -0.1000 1.5080
    endloop
endfacet
facet normal 0.0000 -12.9278 0.0000
    outer loop
        vertex -4.7640 -0.1000 1.5080
        vertex -3.2756 -0.1000 1.5480
        vertex -8.4000 -0.1000 2.8000
    endloop
endfacet
facet normal 0.0000 -9.8097 0.0000
    outer loop
        vertex -5.1960 -0.1000 1.0080
        vertex -5.2720 -0.1000 -0.9680
        vertex -4.4400 -0.1000 0.0120
    endloop
endfacet
facet normal 0.0000 -1.3497 0.0000
    outer loop
        vertex -4.4400 -0.1000 0.0120
        vertex -4.4600 -0.1000 0.3240
        vertex -5.1960 -0.1000 1.0080
    endloop
endfacet
facet normal 0.0000 -1.7913 0.0000
    outer loop
        vertex -3.2756 -0.1000 1.5480
        vertex -4.4120 -0.1000 1.3800
        vertex -4.1400 -0.1000 1.1680
    endloop
endfacet
facet normal 0.0000 -2.1068 0.0000
    outer loop
        vertex -3.2756 -0.1000 1.5480
        vertex -3.9480 -0.1000 0.8680
        vertex -3.8320 -0.1000 0.4840
    endloop
endfacet
facet normal 0.0000 -1.8808 0.0000
    outer loop
        vertex -3.2756 -0.1000 1.5480
        vertex -3.8320 -0.1000 0.4840
        vertex -3.7960 -0.1000 0.0120
    endloop
endfacet
facet normal 0.0000 -2.0768 0.0000
    outer loop
        vertex -3.2756 -0.1000 1.5480
        vertex -4.1400 -0.1000 1.1680
        vertex -3.9480 -0.1000 0.8680
    endloop
endfacet
facet normal 0.0000 -1.2787 0.0000
    outer loop
        vertex -3.2756 -0.1000 1.5480
        vertex -4.7640 -0.1000 1.5080
        vertex -4.4120 -0.1000 1.3800
    endloop
endfacet
facet normal 0.0000 -1.4999 0.0000
    outer loop
        vertex -4.4400 -0.1000 0.0120
        vertex -5.2720 -0.1000 -0.9680
        vertex -4.4600 -0.1000 -0.3000
    endloop
endfacet
facet normal 0.0000 -4.9423 0.0000
    outer loop
        vertex -8.4000 -0.1000 2.8000
        vertex -3.2756 -0.1000 1.5480
        vertex -2.6440 -0.1000 1.5480
    endloop
endfacet
facet normal 0.0000 -5.3120 0.0000
    outer loop
        vertex -1.6360 -0.1000 -1.5200
        vertex -2.3000 -0.1000 -1.5200
        vertex -8.4000 -0.1000 -2.8000
    endloop
endfacet
facet normal 0.0000 -5.2800 0.0000
    outer loop
        vertex 8.4000 -0.1000 -2.8000
        vertex 0.6240 -0.1000 -1.5200
        vertex -0.0360 -0.1000 -1.5200
    endloop
endfacet
facet normal 0.0000 -134.4000 0.0000
    outer loop
        vertex -0.0360 -0.1000 -1.5200
        vertex -8.4000 -0.1000 -2.8000
        vertex 8.4000 -0.1000 -2.8000
    endloop
endfacet
facet normal 0.0000 -12.8000 0.0000
    outer loop
        vertex -0.0360 -0.1000 -1.5200
        vertex -1.6360 -0.1000 -1.5200
        vertex -8.4000 -0.1000 -2.8000
    endloop
endfacet
facet normal 0.0000 -6.3200 0.0000
    outer loop
        vertex -1.6360 -0.1000 -1.5200
        vertex -0.0360 -0.1000 -1.5200
        vertex -0.2440 -0.1000 -0.8880
    endloop
endfacet
facet normal 0.0000 -4.7084 0.0000
    outer loop
        vertex -0.2440 -0.1000 -0.8880
        vertex -1.4360 -0.1000 -0.8880
        vertex -1.6360 -0.1000 -1.5200
    endloop
endfacet
facet normal 0.0000 -4.9600 0.0000
    outer loop
        vertex 1.5640 -0.1000 -1.5200
        vertex 0.9440 -0.1000 -1.5200
        vertex 8.4000 -0.1000 -2.8000
    endloop
endfacet
facet normal 0.0000 -6.1360 0.0000
    outer loop
        vertex 0.6240 -0.1000 -1.5200
        vertex 0.9440 -0.1000 -1.5200
        vertex 0.9440 -0.1000 1.5480
    endloop
endfacet
facet normal 0.0000 -27.3052 0.0000
    outer loop
        vertex 0.9440 -0.1000 1.5480
        vertex -0.4800 -0.1000 1.5480
        vertex 0.6240 -0.1000 -1.5200
    endloop
endfacet
facet normal 0.0000 -2.5600 0.0000
    outer loop
        vertex 0.9440 -0.1000 -1.5200
        vertex 0.6240 -0.1000 -1.5200
        vertex 8.4000 -0.1000 -2.8000
    endloop
endfacet
facet normal 0.0000 -5.2160 0.0000
    outer loop
        vertex 3.4720 -0.1000 -1.5200
        vertex 2.8200 -0.1000 -1.5200
        vertex 8.4000 -0.1000 -2.8000
    endloop
endfacet
facet normal 0.0000 -5.3120 0.0000
    outer loop
        vertex 4.4520 -0.1000 -1.5200
        vertex 3.7880 -0.1000 -1.5200
        vertex 8.4000 -0.1000 -2.8000
    endloop
endfacet
facet normal 0.0000 -2.5280 0.0000
    outer loop
        vertex 3.7880 -0.1000 -1.5200
        vertex 3.4720 -0.1000 -1.5200
        vertex 8.4000 -0.1000 -2.8000
    endloop
endfacet
facet normal 0.0000 -10.0480 0.0000
    outer loop
        vertex 2.8200 -0.1000 -1.5200
        vertex 1.5640 -0.1000 -1.5200
        vertex 8.4000 -0.1000 -2.8000
    endloop
endfacet
facet normal 0.0000 -6.0593 0.0000
    outer loop
        vertex 3.4720 -0.1000 1.5480
        vertex 3.4720 -0.1000 -1.5200
        vertex 3.7880 -0.1000 -1.5200
    endloop
endfacet
facet normal 0.0000 -26.9984 0.0000
    outer loop
        vertex 3.7880 -0.1000 -1.5200
        vertex 4.8800 -0.1000 1.5480
        vertex 3.4720 -0.1000 1.5480
    endloop
endfacet
facet normal 0.0000 -4.7084 0.0000
    outer loop
        vertex 5.8440 -0.1000 -0.8880
        vertex 4.6520 -0.1000 -0.8880
        vertex 4.4520 -0.1000 -1.5200
    endloop
endfacet
facet normal 0.0000 -6.3200 0.0000
    outer loop
        vertex 4.4520 -0.1000 -1.5200
        vertex 6.0520 -0.1000 -1.5200
        vertex 5.8440 -0.1000 -0.8880
    endloop
endfacet
facet normal 0.0000 -5.3120 0.0000
    outer loop
        vertex 6.7160 -0.1000 -1.5200
        vertex 6.0520 -0.1000 -1.5200
        vertex 8.4000 -0.1000 -2.8000
    endloop
endfacet
facet normal 0.0000 -12.8000 0.0000
    outer loop
        vertex 6.0520 -0.1000 -1.5200
        vertex 4.4520 -0.1000 -1.5200
        vertex 8.4000 -0.1000 -2.8000
    endloop
endfacet
facet normal 0.0000 -58.9400 0.0000
    outer loop
        vertex 6.7160 -0.1000 -1.5200
        vertex 8.4000 -0.1000 -2.8000
        vertex 8.4000 -0.1000 2.8000
    endloop
endfacet
facet normal 0.0000 -62.2067 0.0000
    outer loop
        vertex 8.4000 -0.1000 2.8000
        vertex 5.6080 -0.1000 1.5480
        vertex 6.7160 -0.1000 -1.5200
    endloop
endfacet
facet normal 0.0000 -6.9651 0.0000
    outer loop
        vertex -0.8440 -0.1000 0.9360
        vertex -1.2680 -0.1000 -0.3720
        vertex -0.4160 -0.1000 -0.3720
    endloop
endfacet
facet normal 0.0000 -5.6966 0.0000
    outer loop
        vertex -8.4000 -0.1000 2.8000
        vertex -1.2080 -0.1000 1.5480
        vertex -0.4800 -0.1000 1.5480
    endloop
endfacet
facet normal 0.0000 -131.4600 0.0000
    outer loop
        vertex -0.4800 -0.1000 1.5480
        vertex 8.4000 -0.1000 2.8000
        vertex -8.4000 -0.1000 2.8000
    endloop
endfacet
facet normal 0.0000 -11.1428 0.0000
    outer loop
        vertex 8.4000 -0.1000 2.8000
        vertex -0.4800 -0.1000 1.5480
        vertex 0.9440 -0.1000 1.5480
    endloop
endfacet
facet normal 0.0000 -5.1645 0.0000
    outer loop
        vertex 8.4000 -0.1000 2.8000
        vertex 0.9440 -0.1000 1.5480
        vertex 1.6040 -0.1000 1.5480
    endloop
endfacet
facet normal 0.0000 -6.9651 0.0000
    outer loop
        vertex 5.2440 -0.1000 0.9360
        vertex 4.8200 -0.1000 -0.3720
        vertex 5.6720 -0.1000 -0.3720
    endloop
endfacet
facet normal 0.0000 -4.8828 0.0000
    outer loop
        vertex 8.4000 -0.1000 2.8000
        vertex 2.8480 -0.1000 1.5480
        vertex 3.4720 -0.1000 1.5480
    endloop
endfacet
facet normal 0.0000 -5.6966 0.0000
    outer loop
        vertex 8.4000 -0.1000 2.8000
        vertex 4.8800 -0.1000 1.5480
        vertex 5.6080 -0.1000 1.5480
    endloop
endfacet
facet normal 0.0000 -11.0176 0.0000
    outer loop
        vertex 8.4000 -0.1000 2.8000
        vertex 3.4720 -0.1000 1.5480
        vertex 4.8800 -0.1000 1.5480
    endloop
endfacet
facet normal 0.0000 -9.7343 0.0000
    outer loop
        vertex 8.4000 -0.1000 2.8000
        vertex 1.6040 -0.1000 1.5480
        vertex 2.8480 -0.1000 1.5480
    endloop
endfacet
facet normal 0.0000 -16.3897 0.0000
    outer loop
        vertex 2.8480 -0.1000 1.5480
        vertex 1.6040 -0.1000 1.5480
        vertex 2.8480 -0.1000 -0.5600
    endloop
endfacet
facet normal 0.0000 -16.5478 0.0000
    outer loop
        vertex 1.5640 -0.1000 0.5880
        vertex 1.5640 -0.1000 -1.5200
        vertex 2.8200 -0.1000 -1.5200
    endloop
endfacet
facet normal 0.0000 -11.2367 0.0000
    outer loop
        vertex -8.4000 -0.1000 2.8000
        vertex -2.6440 -0.1000 1.5480
        vertex -1.2080 -0.1000 1.5480
    endloop
endfacet
endsolid GiantLegoRocks
