solid GiantLegoRocks
facet normal 0.0000 0.7500 0.0000
    outer loop
        vertex 20.4000 0.0000 2.0000
        vertex 20.4000 0.0000 -2.0000
        vertex -20.4000 0.0000 -2.0000
    endloop
endfacet
facet normal 0.0000 0.7500 0.0000
    outer loop
        vertex -20.4000 0.0000 -2.0000
        vertex -20.4000 0.0000 2.0000
        vertex 20.4000 0.0000 2.0000
    endloop
endfacet
facet normal 0.0000 -0.2500 10.0000
    outer loop
        vertex -20.4000 -0.1000 2.0000
        vertex 20.4000 -0.1000 2.0000
        vertex 20.4000 0.0000 2.0000
    endloop
endfacet
facet normal 0.0000 -0.2500 10.0000
    outer loop
        vertex 20.4000 0.0000 2.0000
        vertex -20.4000 0.0000 2.0000
        vertex -20.4000 -0.1000 2.0000
    endloop
endfacet
facet normal -102.0000 -0.2500 0.0000
    outer loop
        vertex -20.4000 -0.1000 -2.0000
        vertex -20.4000 -0.1000 2.0000
        vertex -20.4000 0.0000 2.0000
    endloop
endfacet
facet normal -102.0000 -0.2500 0.0000
    outer loop
        vertex -20.4000 0.0000 2.0000
        vertex -20.4000 0.0000 -2.0000
        vertex -20.4000 -0.1000 -2.0000
    endloop
endfacet
facet normal 0.0000 -0.2500 -10.0000
    outer loop
        vertex 20.4000 -0.1000 -2.0000
        vertex -20.4000 -0.1000 -2.0000
        vertex -20.4000 0.0000 -2.0000
    endloop
endfacet
facet normal 0.0000 -0.2500 -10.0000
    outer loop
        vertex -20.4000 0.0000 -2.0000
        vertex 20.4000 0.0000 -2.0000
        vertex 20.4000 -0.1000 -2.0000
    endloop
endfacet
facet normal 102.0000 -0.2500 0.0000
    outer loop
        vertex 20.4000 -0.1000 2.0000
        vertex 20.4000 -0.1000 -2.0000
        vertex 20.4000 0.0000 -2.0000
    endloop
endfacet
facet normal 102.0000 -0.2500 0.0000
    outer loop
        vertex 20.4000 0.0000 -2.0000
        vertex 20.4000 0.0000 2.0000
        vertex 20.4000 -0.1000 2.0000
    endloop
endfacet
facet normal 0.0000 -600.0000 0.0000
    outer loop
        vertex 20.0000 -0.1000 1.2000
        vertex -20.0000 -0.1000 1.2000
        vertex -20.0000 -0.1000 -1.2000
    endloop
endfacet
facet normal 0.0000 -600.0000 0.0000
    outer loop
        vertex -20.0000 -0.1000 -1.2000
        vertex 20.0000 -0.1000 -1.2000
        vertex 20.0000 -0.1000 1.2000
    endloop
endfacet
facet normal 0.0000 -204.0000 0.0000
    outer loop
        vertex 20.4000 -0.1000 2.0000
        vertex -20.4000 -0.1000 2.0000
        vertex -20.0000 -0.1000 1.2000
    endloop
endfacet
facet normal 0.0000 -200.0000 0.0000
    outer loop
        vertex -20.0000 -0.1000 1.2000
        vertex 20.0000 -0.1000 1.2000
        vertex 20.4000 -0.1000 2.0000
    endloop
endfacet
facet normal 0.0000 -10.0000 0.0000
    outer loop
        vertex 20.4000 -0.1000 -2.0000
        vertex 20.4000 -0.1000 2.0000
        vertex 20.0000 -0.1000 1.2000
    endloop
endfacet
facet normal 0.0000 -6.0000 0.0000
    outer loop
        vertex 20.0000 -0.1000 1.2000
        vertex 20.0000 -0.1000 -1.2000
        vertex 20.4000 -0.1000 -2.0000
    endloop
endfacet
facet normal 0.0000 -204.0000 0.0000
    outer loop
        vertex -20.4000 -0.1000 -2.0000
        vertex 20.4000 -0.1000 -2.0000
        vertex 20.0000 -0.1000 -1.2000
    endloop
endfacet
facet normal 0.0000 -200.0000 0.0000
    outer loop
        vertex 20.0000 -0.1000 -1.2000
        vertex -20.0000 -0.1000 -1.2000
        vertex -20.4000 -0.1000 -2.0000
    endloop
endfacet
facet normal 0.0000 -10.0000 0.0000
    outer loop
        vertex -20.4000 -0.1000 2.0000
        vertex -20.4000 -0.1000 -2.0000
        vertex -20.0000 -0.1000 -1.2000
    endloop
endfacet
facet normal 0.0000 -6.0000 0.0000
    outer loop
        vertex -20.0000 -0.1000 -1.2000
        vertex -20.0000 -0.1000 1.2000
        vertex -20.4000 -0.1000 2.0000
    endloop
endfacet
endsolid GiantLegoRocks
