solid GiantLegoRocks
facet normal -29.4336 -0.5241 3.1500
    outer loop
        vertex -11.7734 -0.1000 1.2600
        vertex -11.7734 -0.1000 0.3600
        vertex -11.6261 -0.1000 0.3677
    endloop
endfacet
facet normal -29.4336 -0.5241 3.1500
    outer loop
        vertex -11.7734 -0.1000 1.2600
        vertex -11.6261 -0.1000 0.3677
        vertex -11.4813 -0.1000 0.3907
    endloop
endfacet
facet normal -29.4336 -0.5241 3.1500
    outer loop
        vertex -11.7734 -0.1000 1.2600
        vertex -11.4813 -0.1000 0.3907
        vertex -11.3414 -0.1000 0.4285
    endloop
endfacet
facet normal -29.4336 -0.5241 3.1500
    outer loop
        vertex -11.7734 -0.1000 1.2600
        vertex -11.3414 -0.1000 0.4285
        vertex -11.2090 -0.1000 0.4806
    endloop
endfacet
facet normal -29.4336 -0.5241 3.1500
    outer loop
        vertex -11.7734 -0.1000 1.2600
        vertex -11.2090 -0.1000 0.4806
        vertex -11.0861 -0.1000 0.5459
    endloop
endfacet
facet normal -29.4336 -0.5241 3.1500
    outer loop
        vertex -11.7734 -0.1000 1.2600
        vertex -11.0861 -0.1000 0.5459
        vertex -10.9752 -0.1000 0.6236
    endloop
endfacet
facet normal -29.4336 -0.5241 3.1500
    outer loop
        vertex -11.7734 -0.1000 1.2600
        vertex -10.9752 -0.1000 0.6236
        vertex -10.8777 -0.1000 0.7121
    endloop
endfacet
facet normal -29.4336 -0.5241 3.1500
    outer loop
        vertex -11.7734 -0.1000 1.2600
        vertex -10.8777 -0.1000 0.7121
        vertex -10.7958 -0.1000 0.8100
    endloop
endfacet
facet normal -29.4336 -0.5241 3.1500
    outer loop
        vertex -11.7734 -0.1000 1.2600
        vertex -10.7958 -0.1000 0.8100
        vertex -10.7304 -0.1000 0.9156
    endloop
endfacet
facet normal -29.4336 -0.5241 3.1500
    outer loop
        vertex -11.7734 -0.1000 1.2600
        vertex -10.7304 -0.1000 0.9156
        vertex -10.6830 -0.1000 1.0271
    endloop
endfacet
facet normal -29.4336 -0.5241 3.1500
    outer loop
        vertex -11.7734 -0.1000 1.2600
        vertex -10.6830 -0.1000 1.0271
        vertex -10.6542 -0.1000 1.1425
    endloop
endfacet
facet normal -29.4336 -0.5241 3.1500
    outer loop
        vertex -11.7734 -0.1000 1.2600
        vertex -10.6542 -0.1000 1.1425
        vertex -10.6445 -0.1000 1.2600
    endloop
endfacet
facet normal -29.4336 -0.5241 3.1500
    outer loop
        vertex -11.7734 -0.1000 1.2600
        vertex -10.6445 -0.1000 1.2600
        vertex -10.6542 -0.1000 1.3775
    endloop
endfacet
facet normal -29.4336 -0.5241 3.1500
    outer loop
        vertex -11.7734 -0.1000 1.2600
        vertex -10.6542 -0.1000 1.3775
        vertex -10.6830 -0.1000 1.4929
    endloop
endfacet
facet normal -29.4336 -0.5241 3.1500
    outer loop
        vertex -11.7734 -0.1000 1.2600
        vertex -10.6830 -0.1000 1.4929
        vertex -10.7304 -0.1000 1.6044
    endloop
endfacet
facet normal -29.4336 -0.5241 3.1500
    outer loop
        vertex -11.7734 -0.1000 1.2600
        vertex -10.7304 -0.1000 1.6044
        vertex -10.7958 -0.1000 1.7100
    endloop
endfacet
facet normal -29.4336 -0.5241 3.1500
    outer loop
        vertex -11.7734 -0.1000 1.2600
        vertex -10.7958 -0.1000 1.7100
        vertex -10.8777 -0.1000 1.8079
    endloop
endfacet
facet normal -29.4336 -0.5241 3.1500
    outer loop
        vertex -11.7734 -0.1000 1.2600
        vertex -10.8777 -0.1000 1.8079
        vertex -10.9752 -0.1000 1.8964
    endloop
endfacet
facet normal -29.4336 -0.5241 3.1500
    outer loop
        vertex -11.7734 -0.1000 1.2600
        vertex -10.9752 -0.1000 1.8964
        vertex -11.0861 -0.1000 1.9741
    endloop
endfacet
facet normal -29.4336 -0.5241 3.1500
    outer loop
        vertex -11.7734 -0.1000 1.2600
        vertex -11.0861 -0.1000 1.9741
        vertex -11.2090 -0.1000 2.0394
    endloop
endfacet
facet normal -29.4336 -0.5241 3.1500
    outer loop
        vertex -11.7734 -0.1000 1.2600
        vertex -11.2090 -0.1000 2.0394
        vertex -11.3414 -0.1000 2.0915
    endloop
endfacet
facet normal -29.4336 -0.5241 3.1500
    outer loop
        vertex -11.7734 -0.1000 1.2600
        vertex -11.3414 -0.1000 2.0915
        vertex -11.4813 -0.1000 2.1293
    endloop
endfacet
facet normal -29.4336 -0.5241 3.1500
    outer loop
        vertex -11.7734 -0.1000 1.2600
        vertex -11.4813 -0.1000 2.1293
        vertex -11.6261 -0.1000 2.1523
    endloop
endfacet
facet normal -29.4336 -0.5241 3.1500
    outer loop
        vertex -11.7734 -0.1000 1.2600
        vertex -11.6261 -0.1000 2.1523
        vertex -11.7734 -0.1000 2.1600
    endloop
endfacet
facet normal 0.0000 -1.8455 0.0000
    outer loop
        vertex -9.6874 -0.1000 1.8800
        vertex -10.7304 -0.1000 1.6044
        vertex -10.6445 -0.1000 1.2600
    endloop
endfacet
facet normal 0.0000 -3.1664 0.0000
    outer loop
        vertex -10.6445 -0.1000 1.2600
        vertex -9.5155 -0.1000 1.2600
        vertex -9.6874 -0.1000 1.8800
    endloop
endfacet
facet normal 0.0000 -1.7403 0.0000
    outer loop
        vertex -10.1769 -0.1000 2.4055
        vertex -10.9752 -0.1000 1.8964
        vertex -10.7304 -0.1000 1.6044
    endloop
endfacet
facet normal 0.0000 -3.0960 0.0000
    outer loop
        vertex -10.7304 -0.1000 1.6044
        vertex -9.6874 -0.1000 1.8800
        vertex -10.1769 -0.1000 2.4055
    endloop
endfacet
facet normal 0.0000 -1.6163 0.0000
    outer loop
        vertex -10.9093 -0.1000 2.7567
        vertex -11.3414 -0.1000 2.0915
        vertex -10.9752 -0.1000 1.8964
    endloop
endfacet
facet normal 0.0000 -2.9719 0.0000
    outer loop
        vertex -10.9752 -0.1000 1.8964
        vertex -10.1769 -0.1000 2.4055
        vertex -10.9093 -0.1000 2.7567
    endloop
endfacet
facet normal 0.0000 -1.5462 0.0000
    outer loop
        vertex -11.7734 -0.1000 2.8800
        vertex -11.7734 -0.1000 2.1600
        vertex -11.3414 -0.1000 2.0915
    endloop
endfacet
facet normal 0.0000 -2.8670 0.0000
    outer loop
        vertex -11.3414 -0.1000 2.0915
        vertex -10.9093 -0.1000 2.7567
        vertex -11.7734 -0.1000 2.8800
    endloop
endfacet
facet normal 0.0000 -1.5708 0.0000
    outer loop
        vertex -10.9093 -0.1000 -0.2367
        vertex -11.3414 -0.1000 0.4285
        vertex -11.7734 -0.1000 0.3600
    endloop
endfacet
facet normal 0.0000 -2.8423 0.0000
    outer loop
        vertex -11.7734 -0.1000 0.3600
        vertex -11.7734 -0.1000 -0.3600
        vertex -10.9093 -0.1000 -0.2367
    endloop
endfacet
facet normal 0.0000 -1.6759 0.0000
    outer loop
        vertex -10.1769 -0.1000 0.1145
        vertex -10.9752 -0.1000 0.6236
        vertex -11.3414 -0.1000 0.4285
    endloop
endfacet
facet normal 0.0000 -2.9124 0.0000
    outer loop
        vertex -11.3414 -0.1000 0.4285
        vertex -10.9093 -0.1000 -0.2367
        vertex -10.1769 -0.1000 0.1145
    endloop
endfacet
facet normal 0.0000 -1.7999 0.0000
    outer loop
        vertex -9.6874 -0.1000 0.6400
        vertex -10.7304 -0.1000 0.9156
        vertex -10.9752 -0.1000 0.6236
    endloop
endfacet
facet normal 0.0000 -3.0364 0.0000
    outer loop
        vertex -10.9752 -0.1000 0.6236
        vertex -10.1769 -0.1000 0.1145
        vertex -9.6874 -0.1000 0.6400
    endloop
endfacet
facet normal 0.0000 -1.8702 0.0000
    outer loop
        vertex -9.5155 -0.1000 1.2600
        vertex -10.6445 -0.1000 1.2600
        vertex -10.7304 -0.1000 0.9156
    endloop
endfacet
facet normal 0.0000 -3.1417 0.0000
    outer loop
        vertex -10.7304 -0.1000 0.9156
        vertex -9.6874 -0.1000 0.6400
        vertex -9.5155 -0.1000 1.2600
    endloop
endfacet
facet normal 0.0000 -4.6247 0.0000
    outer loop
        vertex -14.2800 -0.1000 2.8800
        vertex -13.2317 -0.1000 2.1600
        vertex -11.7734 -0.1000 2.1600
    endloop
endfacet
facet normal 0.0000 -7.7697 0.0000
    outer loop
        vertex -11.7734 -0.1000 2.1600
        vertex -11.7734 -0.1000 2.8800
        vertex -14.2800 -0.1000 2.8800
    endloop
endfacet
facet normal 0.0000 -4.6247 0.0000
    outer loop
        vertex -13.2317 -0.1000 0.3600
        vertex -13.2317 -0.1000 -0.3600
        vertex -11.7734 -0.1000 -0.3600
    endloop
endfacet
facet normal 0.0000 -4.6247 0.0000
    outer loop
        vertex -11.7734 -0.1000 -0.3600
        vertex -11.7734 -0.1000 0.3600
        vertex -13.2317 -0.1000 0.3600
    endloop
endfacet
facet normal 0.0000 -25.4097 0.0000
    outer loop
        vertex -13.2317 -0.1000 0.3600
        vertex -14.2800 -0.1000 2.8800
        vertex -14.2800 -0.1000 -2.8800
    endloop
endfacet
facet normal 0.0000 -3.3950 0.0000
    outer loop
        vertex -14.2800 -0.1000 -2.8800
        vertex -13.2317 -0.1000 -0.3600
        vertex -13.2317 -0.1000 0.3600
    endloop
endfacet
facet normal 0.0000 -11.2574 0.0000
    outer loop
        vertex -13.2317 -0.1000 -0.3600
        vertex -14.2800 -0.1000 -2.8800
        vertex -13.2317 -0.1000 -2.8800
    endloop
endfacet
facet normal 0.0000 -8.1124 0.0000
    outer loop
        vertex -14.2800 -0.1000 2.8800
        vertex -13.2317 -0.1000 0.3600
        vertex -13.2317 -0.1000 2.1600
    endloop
endfacet
facet normal 0.0000 -2.4651 0.0000
    outer loop
        vertex -6.6125 -0.1000 -2.8800
        vertex -6.6125 -0.1000 -2.1600
        vertex -7.3508 -0.1000 -1.9926
    endloop
endfacet
facet normal 0.0000 -3.6767 0.0000
    outer loop
        vertex -7.3508 -0.1000 -1.9926
        vertex -7.7230 -0.1000 -2.6592
        vertex -6.6125 -0.1000 -2.8800
    endloop
endfacet
facet normal 0.0000 -2.7147 0.0000
    outer loop
        vertex -7.7230 -0.1000 -2.6592
        vertex -7.3508 -0.1000 -1.9926
        vertex -7.9750 -0.1000 -1.5210
    endloop
endfacet
facet normal 0.0000 -4.0605 0.0000
    outer loop
        vertex -7.9750 -0.1000 -1.5210
        vertex -8.6646 -0.1000 -2.0352
        vertex -7.7230 -0.1000 -2.6592
    endloop
endfacet
facet normal 0.0000 -3.1587 0.0000
    outer loop
        vertex -8.6646 -0.1000 -2.0352
        vertex -7.9750 -0.1000 -1.5210
        vertex -8.3983 -0.1000 -0.8244
    endloop
endfacet
facet normal 0.0000 -4.4586 0.0000
    outer loop
        vertex -8.3983 -0.1000 -0.8244
        vertex -9.2938 -0.1000 -1.1028
        vertex -8.6646 -0.1000 -2.0352
    endloop
endfacet
facet normal 0.0000 -3.4983 0.0000
    outer loop
        vertex -9.2938 -0.1000 -1.1028
        vertex -8.3983 -0.1000 -0.8244
        vertex -8.5470 -0.1000 0.0000
    endloop
endfacet
facet normal 0.0000 -4.6926 0.0000
    outer loop
        vertex -8.5470 -0.1000 0.0000
        vertex -9.5138 -0.1000 0.0000
        vertex -9.2938 -0.1000 -1.1028
    endloop
endfacet
facet normal 0.0000 -3.5711 0.0000
    outer loop
        vertex -9.5138 -0.1000 0.0000
        vertex -8.5470 -0.1000 0.0000
        vertex -8.3983 -0.1000 0.8244
    endloop
endfacet
facet normal 0.0000 -4.6198 0.0000
    outer loop
        vertex -8.3983 -0.1000 0.8244
        vertex -9.2938 -0.1000 1.1028
        vertex -9.5138 -0.1000 0.0000
    endloop
endfacet
facet normal 0.0000 -3.3401 0.0000
    outer loop
        vertex -9.2938 -0.1000 1.1028
        vertex -8.3983 -0.1000 0.8244
        vertex -7.9750 -0.1000 1.5210
    endloop
endfacet
facet normal 0.0000 -4.2772 0.0000
    outer loop
        vertex -7.9750 -0.1000 1.5210
        vertex -8.6646 -0.1000 2.0352
        vertex -9.2938 -0.1000 1.1028
    endloop
endfacet
facet normal 0.0000 -2.9423 0.0000
    outer loop
        vertex -8.6646 -0.1000 2.0352
        vertex -7.9750 -0.1000 1.5210
        vertex -7.3508 -0.1000 1.9926
    endloop
endfacet
facet normal 0.0000 -3.8329 0.0000
    outer loop
        vertex -7.3508 -0.1000 1.9926
        vertex -7.7230 -0.1000 2.6592
        vertex -8.6646 -0.1000 2.0352
    endloop
endfacet
facet normal 0.0000 -2.5603 0.0000
    outer loop
        vertex -7.7230 -0.1000 2.6592
        vertex -7.3508 -0.1000 1.9926
        vertex -6.6125 -0.1000 2.1600
    endloop
endfacet
facet normal 0.0000 -3.5814 0.0000
    outer loop
        vertex -6.6125 -0.1000 2.1600
        vertex -6.6125 -0.1000 2.8800
        vertex -7.7230 -0.1000 2.6592
    endloop
endfacet
facet normal 0.0000 -2.4651 0.0000
    outer loop
        vertex -6.6125 -0.1000 2.8800
        vertex -6.6125 -0.1000 2.1600
        vertex -5.8741 -0.1000 1.9926
    endloop
endfacet
facet normal 0.0000 -3.6767 0.0000
    outer loop
        vertex -5.8741 -0.1000 1.9926
        vertex -5.5020 -0.1000 2.6592
        vertex -6.6125 -0.1000 2.8800
    endloop
endfacet
facet normal 0.0000 -2.7147 0.0000
    outer loop
        vertex -5.5020 -0.1000 2.6592
        vertex -5.8741 -0.1000 1.9926
        vertex -5.2500 -0.1000 1.5210
    endloop
endfacet
facet normal 0.0000 -4.0605 0.0000
    outer loop
        vertex -5.2500 -0.1000 1.5210
        vertex -4.5604 -0.1000 2.0352
        vertex -5.5020 -0.1000 2.6592
    endloop
endfacet
facet normal 0.0000 -3.1587 0.0000
    outer loop
        vertex -4.5604 -0.1000 2.0352
        vertex -5.2500 -0.1000 1.5210
        vertex -4.8266 -0.1000 0.8244
    endloop
endfacet
facet normal 0.0000 -4.4586 0.0000
    outer loop
        vertex -4.8266 -0.1000 0.8244
        vertex -3.9312 -0.1000 1.1028
        vertex -4.5604 -0.1000 2.0352
    endloop
endfacet
facet normal 0.0000 -3.4983 0.0000
    outer loop
        vertex -3.9312 -0.1000 1.1028
        vertex -4.8266 -0.1000 0.8244
        vertex -4.6780 -0.1000 0.0000
    endloop
endfacet
facet normal 0.0000 -4.6926 0.0000
    outer loop
        vertex -4.6780 -0.1000 0.0000
        vertex -3.7111 -0.1000 0.0000
        vertex -3.9312 -0.1000 1.1028
    endloop
endfacet
facet normal 0.0000 -3.5711 0.0000
    outer loop
        vertex -3.7111 -0.1000 0.0000
        vertex -4.6780 -0.1000 0.0000
        vertex -4.8266 -0.1000 -0.8244
    endloop
endfacet
facet normal 0.0000 -4.6198 0.0000
    outer loop
        vertex -4.8266 -0.1000 -0.8244
        vertex -3.9312 -0.1000 -1.1028
        vertex -3.7111 -0.1000 0.0000
    endloop
endfacet
facet normal 0.0000 -3.3401 0.0000
    outer loop
        vertex -3.9312 -0.1000 -1.1028
        vertex -4.8266 -0.1000 -0.8244
        vertex -5.2500 -0.1000 -1.5210
    endloop
endfacet
facet normal 0.0000 -4.2772 0.0000
    outer loop
        vertex -5.2500 -0.1000 -1.5210
        vertex -4.5604 -0.1000 -2.0352
        vertex -3.9312 -0.1000 -1.1028
    endloop
endfacet
facet normal 0.0000 -2.9423 0.0000
    outer loop
        vertex -4.5604 -0.1000 -2.0352
        vertex -5.2500 -0.1000 -1.5210
        vertex -5.8741 -0.1000 -1.9926
    endloop
endfacet
facet normal 0.0000 -3.8329 0.0000
    outer loop
        vertex -5.8741 -0.1000 -1.9926
        vertex -5.5020 -0.1000 -2.6592
        vertex -4.5604 -0.1000 -2.0352
    endloop
endfacet
facet normal 0.0000 -2.5603 0.0000
    outer loop
        vertex -5.5020 -0.1000 -2.6592
        vertex -5.8741 -0.1000 -1.9926
        vertex -6.6125 -0.1000 -2.1600
    endloop
endfacet
facet normal 0.0000 -3.5814 0.0000
    outer loop
        vertex -6.6125 -0.1000 -2.1600
        vertex -6.6125 -0.1000 -2.8800
        vertex -5.5020 -0.1000 -2.6592
    endloop
endfacet
facet normal 0.0000 -25.4097 0.0000
    outer loop
        vertex -2.0160 -0.1000 2.8800
        vertex -3.0643 -0.1000 2.8800
        vertex -3.0643 -0.1000 -2.8800
    endloop
endfacet
facet normal 0.0000 -22.2647 0.0000
    outer loop
        vertex -3.0643 -0.1000 -2.8800
        vertex -2.0160 -0.1000 -2.1600
        vertex -2.0160 -0.1000 2.8800
    endloop
endfacet
facet normal 0.0000 -13.4750 0.0000
    outer loop
        vertex -2.0160 -0.1000 -2.1600
        vertex -3.0643 -0.1000 -2.8800
        vertex 1.3440 -0.1000 -2.8800
    endloop
endfacet
facet normal 0.0000 -10.3300 0.0000
    outer loop
        vertex 1.3440 -0.1000 -2.8800
        vertex 1.3440 -0.1000 -2.1600
        vertex -2.0160 -0.1000 -2.1600
    endloop
endfacet
facet normal 0.0000 -23.4743 0.0000
    outer loop
        vertex 2.0966 -0.1000 2.8800
        vertex 2.0966 -0.1000 -2.8800
        vertex 3.0643 -0.1000 -2.8800
    endloop
endfacet
facet normal 0.0000 -23.4743 0.0000
    outer loop
        vertex 3.0643 -0.1000 -2.8800
        vertex 3.0643 -0.1000 2.8800
        vertex 2.0966 -0.1000 2.8800
    endloop
endfacet
facet normal 0.0000 -2.4626 0.0000
    outer loop
        vertex 6.6125 -0.1000 2.8800
        vertex 6.6125 -0.1000 2.1600
        vertex 7.3500 -0.1000 1.9944
    endloop
endfacet
facet normal 0.0000 -3.6692 0.0000
    outer loop
        vertex 7.3500 -0.1000 1.9944
        vertex 7.7230 -0.1000 2.6592
        vertex 6.6125 -0.1000 2.8800
    endloop
endfacet
facet normal 0.0000 -2.7168 0.0000
    outer loop
        vertex 7.7230 -0.1000 2.6592
        vertex 7.3500 -0.1000 1.9944
        vertex 7.9750 -0.1000 1.5210
    endloop
endfacet
facet normal 0.0000 -4.0605 0.0000
    outer loop
        vertex 7.9750 -0.1000 1.5210
        vertex 8.6646 -0.1000 2.0352
        vertex 7.7230 -0.1000 2.6592
    endloop
endfacet
facet normal 0.0000 -1.6133 0.0000
    outer loop
        vertex 8.6646 -0.1000 2.0352
        vertex 7.9750 -0.1000 1.5210
        vertex 8.1808 -0.1000 1.2000
    endloop
endfacet
facet normal 0.0000 -3.8970 0.0000
    outer loop
        vertex 8.1808 -0.1000 1.2000
        vertex 9.2287 -0.1000 1.2000
        vertex 8.6646 -0.1000 2.0352
    endloop
endfacet
facet normal 0.0000 -3.8970 0.0000
    outer loop
        vertex 8.6646 -0.1000 -2.0352
        vertex 9.2287 -0.1000 -1.2000
        vertex 8.1808 -0.1000 -1.2000
    endloop
endfacet
facet normal 0.0000 -1.6133 0.0000
    outer loop
        vertex 8.1808 -0.1000 -1.2000
        vertex 7.9750 -0.1000 -1.5210
        vertex 8.6646 -0.1000 -2.0352
    endloop
endfacet
facet normal 0.0000 -2.9423 0.0000
    outer loop
        vertex 8.6646 -0.1000 -2.0352
        vertex 7.9750 -0.1000 -1.5210
        vertex 7.3508 -0.1000 -1.9926
    endloop
endfacet
facet normal 0.0000 -3.8329 0.0000
    outer loop
        vertex 7.3508 -0.1000 -1.9926
        vertex 7.7230 -0.1000 -2.6592
        vertex 8.6646 -0.1000 -2.0352
    endloop
endfacet
facet normal 0.0000 -2.5603 0.0000
    outer loop
        vertex 7.7230 -0.1000 -2.6592
        vertex 7.3508 -0.1000 -1.9926
        vertex 6.6125 -0.1000 -2.1600
    endloop
endfacet
facet normal 0.0000 -3.5814 0.0000
    outer loop
        vertex 6.6125 -0.1000 -2.1600
        vertex 6.6125 -0.1000 -2.8800
        vertex 7.7230 -0.1000 -2.6592
    endloop
endfacet
facet normal 0.0000 -2.4651 0.0000
    outer loop
        vertex 6.6125 -0.1000 -2.8800
        vertex 6.6125 -0.1000 -2.1600
        vertex 5.8741 -0.1000 -1.9926
    endloop
endfacet
facet normal 0.0000 -3.6767 0.0000
    outer loop
        vertex 5.8741 -0.1000 -1.9926
        vertex 5.5020 -0.1000 -2.6592
        vertex 6.6125 -0.1000 -2.8800
    endloop
endfacet
facet normal 0.0000 -2.7147 0.0000
    outer loop
        vertex 5.5020 -0.1000 -2.6592
        vertex 5.8741 -0.1000 -1.9926
        vertex 5.2500 -0.1000 -1.5210
    endloop
endfacet
facet normal 0.0000 -4.0605 0.0000
    outer loop
        vertex 5.2500 -0.1000 -1.5210
        vertex 4.5604 -0.1000 -2.0352
        vertex 5.5020 -0.1000 -2.6592
    endloop
endfacet
facet normal 0.0000 -3.1587 0.0000
    outer loop
        vertex 4.5604 -0.1000 -2.0352
        vertex 5.2500 -0.1000 -1.5210
        vertex 4.8266 -0.1000 -0.8244
    endloop
endfacet
facet normal 0.0000 -4.4586 0.0000
    outer loop
        vertex 4.8266 -0.1000 -0.8244
        vertex 3.9312 -0.1000 -1.1028
        vertex 4.5604 -0.1000 -2.0352
    endloop
endfacet
facet normal 0.0000 -3.4983 0.0000
    outer loop
        vertex 3.9312 -0.1000 -1.1028
        vertex 4.8266 -0.1000 -0.8244
        vertex 4.6780 -0.1000 0.0000
    endloop
endfacet
facet normal 0.0000 -4.6926 0.0000
    outer loop
        vertex 4.6780 -0.1000 0.0000
        vertex 3.7111 -0.1000 0.0000
        vertex 3.9312 -0.1000 -1.1028
    endloop
endfacet
facet normal 0.0000 -3.5711 0.0000
    outer loop
        vertex 3.7111 -0.1000 0.0000
        vertex 4.6780 -0.1000 0.0000
        vertex 4.8266 -0.1000 0.8244
    endloop
endfacet
facet normal 0.0000 -4.6198 0.0000
    outer loop
        vertex 4.8266 -0.1000 0.8244
        vertex 3.9312 -0.1000 1.1028
        vertex 3.7111 -0.1000 0.0000
    endloop
endfacet
facet normal 0.0000 -3.3401 0.0000
    outer loop
        vertex 3.9312 -0.1000 1.1028
        vertex 4.8266 -0.1000 0.8244
        vertex 5.2500 -0.1000 1.5210
    endloop
endfacet
facet normal 0.0000 -4.2772 0.0000
    outer loop
        vertex 5.2500 -0.1000 1.5210
        vertex 4.5604 -0.1000 2.0352
        vertex 3.9312 -0.1000 1.1028
    endloop
endfacet
facet normal 0.0000 -2.9423 0.0000
    outer loop
        vertex 4.5604 -0.1000 2.0352
        vertex 5.2500 -0.1000 1.5210
        vertex 5.8741 -0.1000 1.9926
    endloop
endfacet
facet normal 0.0000 -3.8329 0.0000
    outer loop
        vertex 5.8741 -0.1000 1.9926
        vertex 5.5020 -0.1000 2.6592
        vertex 4.5604 -0.1000 2.0352
    endloop
endfacet
facet normal 0.0000 -2.5603 0.0000
    outer loop
        vertex 5.5020 -0.1000 2.6592
        vertex 5.8741 -0.1000 1.9926
        vertex 6.6125 -0.1000 2.1600
    endloop
endfacet
facet normal 0.0000 -3.5814 0.0000
    outer loop
        vertex 6.6125 -0.1000 2.1600
        vertex 6.6125 -0.1000 2.8800
        vertex 5.5020 -0.1000 2.6592
    endloop
endfacet
facet normal 0.0000 -12.6081 0.0000
    outer loop
        vertex 11.1283 -0.1000 -2.1600
        vertex 10.1606 -0.1000 -2.8800
        vertex 14.2800 -0.1000 -2.8800
    endloop
endfacet
facet normal 0.0000 -9.7050 0.0000
    outer loop
        vertex 14.2800 -0.1000 -2.8800
        vertex 14.2800 -0.1000 -2.1600
        vertex 11.1283 -0.1000 -2.1600
    endloop
endfacet
facet normal 0.0000 -9.7050 0.0000
    outer loop
        vertex 10.1606 -0.1000 2.8800
        vertex 11.1283 -0.1000 2.1600
        vertex 14.2800 -0.1000 2.1600
    endloop
endfacet
facet normal 0.0000 -12.6081 0.0000
    outer loop
        vertex 14.2800 -0.1000 2.1600
        vertex 14.2800 -0.1000 2.8800
        vertex 10.1606 -0.1000 2.8800
    endloop
endfacet
facet normal 0.0000 -9.7050 0.0000
    outer loop
        vertex 11.1283 -0.1000 0.3600
        vertex 11.1283 -0.1000 -0.3600
        vertex 14.2800 -0.1000 -0.3600
    endloop
endfacet
facet normal 0.0000 -9.7050 0.0000
    outer loop
        vertex 14.2800 -0.1000 -0.3600
        vertex 14.2800 -0.1000 0.3600
        vertex 11.1283 -0.1000 0.3600
    endloop
endfacet
facet normal 0.0000 -11.8622 0.0000
    outer loop
        vertex 10.1606 -0.1000 0.0000
        vertex 10.1606 -0.1000 -2.8800
        vertex 11.1283 -0.1000 -2.1600
    endloop
endfacet
facet normal 0.0000 -7.5076 0.0000
    outer loop
        vertex 11.1283 -0.1000 -2.1600
        vertex 11.1283 -0.1000 -0.3600
        vertex 10.1606 -0.1000 0.0000
    endloop
endfacet
facet normal 0.0000 -3.1530 0.0000
    outer loop
        vertex 11.1283 -0.1000 0.3600
        vertex 10.1606 -0.1000 0.0000
        vertex 11.1283 -0.1000 -0.3600
    endloop
endfacet
facet normal 0.0000 -7.5076 0.0000
    outer loop
        vertex 10.1606 -0.1000 0.0000
        vertex 11.1283 -0.1000 0.3600
        vertex 11.1283 -0.1000 2.1600
    endloop
endfacet
facet normal 0.0000 -11.8622 0.0000
    outer loop
        vertex 11.1283 -0.1000 2.1600
        vertex 10.1606 -0.1000 2.8800
        vertex 10.1606 -0.1000 0.0000
    endloop
endfacet
facet normal 0.0000 -1.7556 0.0000
    outer loop
        vertex -9.6835 -0.1000 -0.4800
        vertex -10.9093 -0.1000 -0.2367
        vertex -11.7734 -0.1000 -0.3600
    endloop
endfacet
facet normal 0.0000 -22.9233 0.0000
    outer loop
        vertex -11.7734 -0.1000 -0.3600
        vertex -13.2317 -0.1000 -2.8800
        vertex -9.6835 -0.1000 -0.4800
    endloop
endfacet
facet normal 0.0000 -2.7863 0.0000
    outer loop
        vertex -10.1769 -0.1000 0.1145
        vertex -10.9093 -0.1000 -0.2367
        vertex -9.6835 -0.1000 -0.4800
    endloop
endfacet
facet normal 0.0000 -2.5429 0.0000
    outer loop
        vertex -9.6874 -0.1000 0.6400
        vertex -10.1769 -0.1000 0.1145
        vertex -9.6835 -0.1000 -0.4800
    endloop
endfacet
facet normal 0.0000 -1.0495 0.0000
    outer loop
        vertex -9.6835 -0.1000 -0.4800
        vertex -9.5138 -0.1000 0.0000
        vertex -9.6874 -0.1000 0.6400
    endloop
endfacet
facet normal 0.0000 -1.4099 0.0000
    outer loop
        vertex -9.5155 -0.1000 2.8800
        vertex -9.6874 -0.1000 1.8800
        vertex -9.5155 -0.1000 1.2600
    endloop
endfacet
facet normal 0.0000 -1.7469 0.0000
    outer loop
        vertex -9.5155 -0.1000 1.2600
        vertex -9.2938 -0.1000 1.1028
        vertex -9.5155 -0.1000 2.8800
    endloop
endfacet
facet normal 0.0000 -2.6660 0.0000
    outer loop
        vertex -9.5155 -0.1000 2.8800
        vertex -10.1769 -0.1000 2.4055
        vertex -9.6874 -0.1000 1.8800
    endloop
endfacet
facet normal 0.0000 -2.6659 0.0000
    outer loop
        vertex -9.5155 -0.1000 2.8800
        vertex -10.9093 -0.1000 2.7567
        vertex -10.1769 -0.1000 2.4055
    endloop
endfacet
facet normal 0.0000 -1.4100 0.0000
    outer loop
        vertex -9.5155 -0.1000 2.8800
        vertex -11.7734 -0.1000 2.8800
        vertex -10.9093 -0.1000 2.7567
    endloop
endfacet
facet normal 0.0000 -3.5143 0.0000
    outer loop
        vertex -5.5020 -0.1000 -2.6592
        vertex -6.6125 -0.1000 -2.8800
        vertex -3.0643 -0.1000 -2.8800
    endloop
endfacet
facet normal 0.0000 -7.4543 0.0000
    outer loop
        vertex -4.5604 -0.1000 -2.0352
        vertex -5.5020 -0.1000 -2.6592
        vertex -3.0643 -0.1000 -2.8800
    endloop
endfacet
facet normal 0.0000 -8.2768 0.0000
    outer loop
        vertex -3.9312 -0.1000 -1.1028
        vertex -4.5604 -0.1000 -2.0352
        vertex -3.0643 -0.1000 -2.8800
    endloop
endfacet
facet normal 0.0000 -5.8630 0.0000
    outer loop
        vertex -3.7111 -0.1000 0.0000
        vertex -3.9312 -0.1000 -1.1028
        vertex -3.0643 -0.1000 -2.8800
    endloop
endfacet
facet normal 0.0000 -15.7732 0.0000
    outer loop
        vertex -3.0643 -0.1000 -2.8800
        vertex -3.0643 -0.1000 2.8800
        vertex -3.7111 -0.1000 0.0000
    endloop
endfacet
facet normal 0.0000 -5.8630 0.0000
    outer loop
        vertex -3.0643 -0.1000 2.8800
        vertex -3.9312 -0.1000 1.1028
        vertex -3.7111 -0.1000 0.0000
    endloop
endfacet
facet normal 0.0000 -8.2768 0.0000
    outer loop
        vertex -3.0643 -0.1000 2.8800
        vertex -4.5604 -0.1000 2.0352
        vertex -3.9312 -0.1000 1.1028
    endloop
endfacet
facet normal 0.0000 -7.4543 0.0000
    outer loop
        vertex -3.0643 -0.1000 2.8800
        vertex -5.5020 -0.1000 2.6592
        vertex -4.5604 -0.1000 2.0352
    endloop
endfacet
facet normal 0.0000 -3.5143 0.0000
    outer loop
        vertex -3.0643 -0.1000 2.8800
        vertex -6.6125 -0.1000 2.8800
        vertex -5.5020 -0.1000 2.6592
    endloop
endfacet
facet normal 0.0000 -2.9208 0.0000
    outer loop
        vertex -6.6125 -0.1000 2.8800
        vertex -9.5155 -0.1000 2.8800
        vertex -7.7230 -0.1000 2.6592
    endloop
endfacet
facet normal 0.0000 -5.7770 0.0000
    outer loop
        vertex -9.5155 -0.1000 2.8800
        vertex -8.6646 -0.1000 2.0352
        vertex -7.7230 -0.1000 2.6592
    endloop
endfacet
facet normal 0.0000 -5.7705 0.0000
    outer loop
        vertex -9.5155 -0.1000 2.8800
        vertex -9.2938 -0.1000 1.1028
        vertex -8.6646 -0.1000 2.0352
    endloop
endfacet
facet normal 0.0000 -20.2077 0.0000
    outer loop
        vertex -9.2938 -0.1000 -1.1028
        vertex -13.2317 -0.1000 -2.8800
        vertex -8.6646 -0.1000 -2.0352
    endloop
endfacet
facet normal 0.0000 -15.4390 0.0000
    outer loop
        vertex -8.6646 -0.1000 -2.0352
        vertex -13.2317 -0.1000 -2.8800
        vertex -7.7230 -0.1000 -2.6592
    endloop
endfacet
facet normal 0.0000 -6.3397 0.0000
    outer loop
        vertex -6.6125 -0.1000 -2.8800
        vertex -7.7230 -0.1000 -2.6592
        vertex -13.2317 -0.1000 -2.8800
    endloop
endfacet
facet normal 0.0000 -3.5596 0.0000
    outer loop
        vertex -13.2317 -0.1000 -2.8800
        vertex -14.2800 -0.1000 -3.0000
        vertex -6.6125 -0.1000 -2.8800
    endloop
endfacet
facet normal 0.0000 -6.8952 0.0000
    outer loop
        vertex -6.6125 -0.1000 0.0000
        vertex -6.6125 -0.1000 2.1600
        vertex -7.3508 -0.1000 1.9926
    endloop
endfacet
facet normal 0.0000 -6.8826 0.0000
    outer loop
        vertex -7.3508 -0.1000 1.9926
        vertex -7.9750 -0.1000 1.5210
        vertex -6.6125 -0.1000 0.0000
    endloop
endfacet
facet normal 0.0000 -6.8876 0.0000
    outer loop
        vertex -6.6125 -0.1000 0.0000
        vertex -7.9750 -0.1000 1.5210
        vertex -8.3983 -0.1000 0.8244
    endloop
endfacet
facet normal 0.0000 -6.8951 0.0000
    outer loop
        vertex -8.3983 -0.1000 0.8244
        vertex -8.5470 -0.1000 0.0000
        vertex -6.6125 -0.1000 0.0000
    endloop
endfacet
facet normal 0.0000 -6.8951 0.0000
    outer loop
        vertex -6.6125 -0.1000 0.0000
        vertex -8.5470 -0.1000 0.0000
        vertex -8.3983 -0.1000 -0.8244
    endloop
endfacet
facet normal 0.0000 -6.8876 0.0000
    outer loop
        vertex -8.3983 -0.1000 -0.8244
        vertex -7.9750 -0.1000 -1.5210
        vertex -6.6125 -0.1000 0.0000
    endloop
endfacet
facet normal 0.0000 -6.8826 0.0000
    outer loop
        vertex -6.6125 -0.1000 0.0000
        vertex -7.9750 -0.1000 -1.5210
        vertex -7.3508 -0.1000 -1.9926
    endloop
endfacet
facet normal 0.0000 -6.8952 0.0000
    outer loop
        vertex -7.3508 -0.1000 -1.9926
        vertex -6.6125 -0.1000 -2.1600
        vertex -6.6125 -0.1000 0.0000
    endloop
endfacet
facet normal 0.0000 -6.8952 0.0000
    outer loop
        vertex -6.6125 -0.1000 0.0000
        vertex -6.6125 -0.1000 -2.1600
        vertex -5.8741 -0.1000 -1.9926
    endloop
endfacet
facet normal 0.0000 -6.8826 0.0000
    outer loop
        vertex -5.8741 -0.1000 -1.9926
        vertex -5.2500 -0.1000 -1.5210
        vertex -6.6125 -0.1000 0.0000
    endloop
endfacet
facet normal 0.0000 -6.8876 0.0000
    outer loop
        vertex -6.6125 -0.1000 0.0000
        vertex -5.2500 -0.1000 -1.5210
        vertex -4.8266 -0.1000 -0.8244
    endloop
endfacet
facet normal 0.0000 -6.8951 0.0000
    outer loop
        vertex -4.8266 -0.1000 -0.8244
        vertex -4.6780 -0.1000 0.0000
        vertex -6.6125 -0.1000 0.0000
    endloop
endfacet
facet normal 0.0000 -6.8951 0.0000
    outer loop
        vertex -6.6125 -0.1000 0.0000
        vertex -4.6780 -0.1000 0.0000
        vertex -4.8266 -0.1000 0.8244
    endloop
endfacet
facet normal 0.0000 -6.8876 0.0000
    outer loop
        vertex -4.8266 -0.1000 0.8244
        vertex -5.2500 -0.1000 1.5210
        vertex -6.6125 -0.1000 0.0000
    endloop
endfacet
facet normal 0.0000 -6.8826 0.0000
    outer loop
        vertex -6.6125 -0.1000 0.0000
        vertex -5.2500 -0.1000 1.5210
        vertex -5.8741 -0.1000 1.9926
    endloop
endfacet
facet normal 0.0000 -6.8952 0.0000
    outer loop
        vertex -5.8741 -0.1000 1.9926
        vertex -6.6125 -0.1000 2.1600
        vertex -6.6125 -0.1000 0.0000
    endloop
endfacet
facet normal 0.0000 -70.8100 0.0000
    outer loop
        vertex -2.0160 -0.1000 2.8800
        vertex -2.0160 -0.1000 -2.1600
        vertex 1.3440 -0.1000 -2.1600
    endloop
endfacet
facet normal 0.0000 -86.6154 0.0000
    outer loop
        vertex 1.3440 -0.1000 -2.1600
        vertex 2.0966 -0.1000 2.8800
        vertex -2.0160 -0.1000 2.8800
    endloop
endfacet
facet normal 0.0000 -3.5143 0.0000
    outer loop
        vertex 7.7230 -0.1000 -2.6592
        vertex 6.6125 -0.1000 -2.8800
        vertex 10.1606 -0.1000 -2.8800
    endloop
endfacet
facet normal 0.0000 -7.4543 0.0000
    outer loop
        vertex 8.6646 -0.1000 -2.0352
        vertex 7.7230 -0.1000 -2.6592
        vertex 10.1606 -0.1000 -2.8800
    endloop
endfacet
facet normal 0.0000 -7.4420 0.0000
    outer loop
        vertex 9.2287 -0.1000 -1.2000
        vertex 8.6646 -0.1000 -2.0352
        vertex 10.1606 -0.1000 -2.8800
    endloop
endfacet
facet normal 0.0000 -11.4328 0.0000
    outer loop
        vertex 10.1606 -0.1000 -2.8800
        vertex 10.1606 -0.1000 0.0000
        vertex 9.2287 -0.1000 -1.2000
    endloop
endfacet
facet normal 0.0000 -11.4328 0.0000
    outer loop
        vertex 9.2287 -0.1000 1.2000
        vertex 10.1606 -0.1000 0.0000
        vertex 10.1606 -0.1000 2.8800
    endloop
endfacet
facet normal 0.0000 -7.4420 0.0000
    outer loop
        vertex 10.1606 -0.1000 2.8800
        vertex 8.6646 -0.1000 2.0352
        vertex 9.2287 -0.1000 1.2000
    endloop
endfacet
facet normal 0.0000 -7.4543 0.0000
    outer loop
        vertex 10.1606 -0.1000 2.8800
        vertex 7.7230 -0.1000 2.6592
        vertex 8.6646 -0.1000 2.0352
    endloop
endfacet
facet normal 0.0000 -3.5143 0.0000
    outer loop
        vertex 10.1606 -0.1000 2.8800
        vertex 6.6125 -0.1000 2.8800
        vertex 7.7230 -0.1000 2.6592
    endloop
endfacet
facet normal 0.0000 -3.5143 0.0000
    outer loop
        vertex 6.6125 -0.1000 2.8800
        vertex 3.0643 -0.1000 2.8800
        vertex 5.5020 -0.1000 2.6592
    endloop
endfacet
facet normal 0.0000 -7.4543 0.0000
    outer loop
        vertex 3.0643 -0.1000 2.8800
        vertex 4.5604 -0.1000 2.0352
        vertex 5.5020 -0.1000 2.6592
    endloop
endfacet
facet normal 0.0000 -8.2768 0.0000
    outer loop
        vertex 3.0643 -0.1000 2.8800
        vertex 3.9312 -0.1000 1.1028
        vertex 4.5604 -0.1000 2.0352
    endloop
endfacet
facet normal 0.0000 -5.8630 0.0000
    outer loop
        vertex 3.7111 -0.1000 0.0000
        vertex 3.9312 -0.1000 1.1028
        vertex 3.0643 -0.1000 2.8800
    endloop
endfacet
facet normal 0.0000 -15.7732 0.0000
    outer loop
        vertex 3.0643 -0.1000 2.8800
        vertex 3.0643 -0.1000 -2.8800
        vertex 3.7111 -0.1000 0.0000
    endloop
endfacet
facet normal 0.0000 -5.8630 0.0000
    outer loop
        vertex 3.7111 -0.1000 0.0000
        vertex 3.0643 -0.1000 -2.8800
        vertex 3.9312 -0.1000 -1.1028
    endloop
endfacet
facet normal 0.0000 -8.2768 0.0000
    outer loop
        vertex 3.9312 -0.1000 -1.1028
        vertex 3.0643 -0.1000 -2.8800
        vertex 4.5604 -0.1000 -2.0352
    endloop
endfacet
facet normal 0.0000 -7.4543 0.0000
    outer loop
        vertex 4.5604 -0.1000 -2.0352
        vertex 3.0643 -0.1000 -2.8800
        vertex 5.5020 -0.1000 -2.6592
    endloop
endfacet
facet normal 0.0000 -3.5143 0.0000
    outer loop
        vertex 5.5020 -0.1000 -2.6592
        vertex 3.0643 -0.1000 -2.8800
        vertex 6.6125 -0.1000 -2.8800
    endloop
endfacet
facet normal 0.0000 -6.8952 0.0000
    outer loop
        vertex 6.6125 -0.1000 0.0000
        vertex 6.6125 -0.1000 -2.1600
        vertex 7.3508 -0.1000 -1.9926
    endloop
endfacet
facet normal 0.0000 -6.8826 0.0000
    outer loop
        vertex 7.3508 -0.1000 -1.9926
        vertex 7.9750 -0.1000 -1.5210
        vertex 6.6125 -0.1000 0.0000
    endloop
endfacet
facet normal 0.0000 -6.8951 0.0000
    outer loop
        vertex 6.6125 -0.1000 0.0000
        vertex 8.3983 -0.1000 -0.8244
        vertex 8.5470 -0.1000 0.0000
    endloop
endfacet
facet normal 0.0000 -6.8951 0.0000
    outer loop
        vertex 8.5470 -0.1000 0.0000
        vertex 8.3983 -0.1000 0.8244
        vertex 6.6125 -0.1000 0.0000
    endloop
endfacet
facet normal 0.0000 -6.8982 0.0000
    outer loop
        vertex 6.6125 -0.1000 0.0000
        vertex 7.9750 -0.1000 1.5210
        vertex 7.3500 -0.1000 1.9944
    endloop
endfacet
facet normal 0.0000 -6.8877 0.0000
    outer loop
        vertex 7.3500 -0.1000 1.9944
        vertex 6.6125 -0.1000 2.1600
        vertex 6.6125 -0.1000 0.0000
    endloop
endfacet
facet normal 0.0000 -6.8952 0.0000
    outer loop
        vertex 6.6125 -0.1000 0.0000
        vertex 6.6125 -0.1000 2.1600
        vertex 5.8741 -0.1000 1.9926
    endloop
endfacet
facet normal 0.0000 -6.8826 0.0000
    outer loop
        vertex 5.8741 -0.1000 1.9926
        vertex 5.2500 -0.1000 1.5210
        vertex 6.6125 -0.1000 0.0000
    endloop
endfacet
facet normal 0.0000 -6.8876 0.0000
    outer loop
        vertex 6.6125 -0.1000 0.0000
        vertex 5.2500 -0.1000 1.5210
        vertex 4.8266 -0.1000 0.8244
    endloop
endfacet
facet normal 0.0000 -6.8951 0.0000
    outer loop
        vertex 4.8266 -0.1000 0.8244
        vertex 4.6780 -0.1000 0.0000
        vertex 6.6125 -0.1000 0.0000
    endloop
endfacet
facet normal 0.0000 -6.8951 0.0000
    outer loop
        vertex 6.6125 -0.1000 0.0000
        vertex 4.6780 -0.1000 0.0000
        vertex 4.8266 -0.1000 -0.8244
    endloop
endfacet
facet normal 0.0000 -6.8876 0.0000
    outer loop
        vertex 4.8266 -0.1000 -0.8244
        vertex 5.2500 -0.1000 -1.5210
        vertex 6.6125 -0.1000 0.0000
    endloop
endfacet
facet normal 0.0000 -6.8826 0.0000
    outer loop
        vertex 6.6125 -0.1000 0.0000
        vertex 5.2500 -0.1000 -1.5210
        vertex 5.8741 -0.1000 -1.9926
    endloop
endfacet
facet normal 0.0000 -6.8952 0.0000
    outer loop
        vertex 5.8741 -0.1000 -1.9926
        vertex 6.6125 -0.1000 -2.1600
        vertex 6.6125 -0.1000 0.0000
    endloop
endfacet
facet normal 0.0000 -1.8901 0.0000
    outer loop
        vertex 9.2287 -0.1000 1.2000
        vertex 8.1808 -0.1000 1.2000
        vertex 8.3983 -0.1000 0.8244
    endloop
endfacet
facet normal 0.0000 -1.8901 0.0000
    outer loop
        vertex 8.3983 -0.1000 -0.8244
        vertex 8.1808 -0.1000 -1.2000
        vertex 9.2287 -0.1000 -1.2000
    endloop
endfacet
facet normal 0.0000 -3.3352 0.0000
    outer loop
        vertex 9.2287 -0.1000 1.2000
        vertex 8.3983 -0.1000 0.8244
        vertex 8.5470 -0.1000 0.0000
    endloop
endfacet
facet normal 0.0000 -8.3182 0.0000
    outer loop
        vertex 8.5470 -0.1000 0.0000
        vertex 10.1606 -0.1000 0.0000
        vertex 9.2287 -0.1000 1.2000
    endloop
endfacet
facet normal 0.0000 -23.8876 0.0000
    outer loop
        vertex 11.1283 -0.1000 2.1600
        vertex 11.1283 -0.1000 0.3600
        vertex 14.2800 -0.1000 0.3600
    endloop
endfacet
facet normal 0.0000 -23.8876 0.0000
    outer loop
        vertex 14.2800 -0.1000 0.3600
        vertex 14.2800 -0.1000 2.1600
        vertex 11.1283 -0.1000 2.1600
    endloop
endfacet
facet normal 0.0000 -23.8876 0.0000
    outer loop
        vertex 11.1283 -0.1000 -0.3600
        vertex 11.1283 -0.1000 -2.1600
        vertex 14.2800 -0.1000 -2.1600
    endloop
endfacet
facet normal 0.0000 -23.8876 0.0000
    outer loop
        vertex 14.2800 -0.1000 -2.1600
        vertex 14.2800 -0.1000 -0.3600
        vertex 11.1283 -0.1000 -0.3600
    endloop
endfacet
facet normal 0.0000 -3.3766 0.0000
    outer loop
        vertex 6.6125 -0.1000 0.0000
        vertex 7.9750 -0.1000 -1.5210
        vertex 8.1808 -0.1000 -1.2000
    endloop
endfacet
facet normal 0.0000 -3.7922 0.0000
    outer loop
        vertex 8.1808 -0.1000 -1.2000
        vertex 8.3983 -0.1000 -0.8244
        vertex 6.6125 -0.1000 0.0000
    endloop
endfacet
facet normal 0.0000 -3.7922 0.0000
    outer loop
        vertex 6.6125 -0.1000 0.0000
        vertex 8.3983 -0.1000 0.8244
        vertex 8.1808 -0.1000 1.2000
    endloop
endfacet
facet normal 0.0000 -3.3766 0.0000
    outer loop
        vertex 8.1808 -0.1000 1.2000
        vertex 7.9750 -0.1000 1.5210
        vertex 6.6125 -0.1000 0.0000
    endloop
endfacet
facet normal 0.0000 -2.5079 0.0000
    outer loop
        vertex 1.3440 -0.1000 -2.1600
        vertex 1.3440 -0.1000 -2.8800
        vertex 2.0966 -0.1000 -2.8800
    endloop
endfacet
facet normal 0.0000 -18.3134 0.0000
    outer loop
        vertex 2.0966 -0.1000 -2.8800
        vertex 2.0966 -0.1000 2.8800
        vertex 1.3440 -0.1000 -2.1600
    endloop
endfacet
facet normal 0.0000 -5.7184 0.0000
    outer loop
        vertex -11.7734 -0.1000 1.2600
        vertex -11.7734 -0.1000 2.1600
        vertex -13.2317 -0.1000 2.1600
    endloop
endfacet
facet normal 0.0000 -11.1868 0.0000
    outer loop
        vertex -13.2317 -0.1000 2.1600
        vertex -13.2317 -0.1000 0.3600
        vertex -11.7734 -0.1000 1.2600
    endloop
endfacet
facet normal 0.0000 -5.7184 0.0000
    outer loop
        vertex -11.7734 -0.1000 1.2600
        vertex -13.2317 -0.1000 0.3600
        vertex -11.7734 -0.1000 0.3600
    endloop
endfacet
facet normal 0.0000 -1.4131 0.0000
    outer loop
        vertex -9.5138 -0.1000 0.0000
        vertex -9.2938 -0.1000 1.1028
        vertex -9.5155 -0.1000 1.2600
    endloop
endfacet
facet normal 0.0000 -1.1564 0.0000
    outer loop
        vertex -9.5155 -0.1000 1.2600
        vertex -9.6874 -0.1000 0.6400
        vertex -9.5138 -0.1000 0.0000
    endloop
endfacet
facet normal 0.0000 -1.4698 0.0000
    outer loop
        vertex -9.5138 -0.1000 0.0000
        vertex -9.6835 -0.1000 -0.4800
        vertex -9.2938 -0.1000 -1.1028
    endloop
endfacet
facet normal 0.0000 -13.3551 0.0000
    outer loop
        vertex -9.6835 -0.1000 -0.4800
        vertex -13.2317 -0.1000 -2.8800
        vertex -9.2938 -0.1000 -1.1028
    endloop
endfacet
facet normal 0.0000 -15.5615 0.0000
    outer loop
        vertex -11.7734 -0.1000 -0.3600
        vertex -13.2317 -0.1000 -0.3600
        vertex -13.2317 -0.1000 -2.8800
    endloop
endfacet
facet normal 0.0000 -3.3352 0.0000
    outer loop
        vertex 8.5470 -0.1000 0.0000
        vertex 8.3983 -0.1000 -0.8244
        vertex 9.2287 -0.1000 -1.2000
    endloop
endfacet
facet normal 0.0000 -8.3182 0.0000
    outer loop
        vertex 9.2287 -0.1000 -1.2000
        vertex 10.1606 -0.1000 0.0000
        vertex 8.5470 -0.1000 0.0000
    endloop
endfacet
facet normal 0.0000 -2.3097 0.0000
    outer loop
        vertex 14.2800 -0.1000 3.0000
        vertex 10.1606 -0.1000 2.8800
        vertex 14.2800 -0.1000 2.8800
    endloop
endfacet
facet normal 0.0000 -2.0241 0.0000
    outer loop
        vertex 14.2800 -0.1000 3.0000
        vertex 6.6125 -0.1000 2.8800
        vertex 10.1606 -0.1000 2.8800
    endloop
endfacet
facet normal 0.0000 -2.0241 0.0000
    outer loop
        vertex 14.2800 -0.1000 3.0000
        vertex 3.0643 -0.1000 2.8800
        vertex 6.6125 -0.1000 2.8800
    endloop
endfacet
facet normal 0.0000 -0.7338 0.0000
    outer loop
        vertex 14.2800 -0.1000 3.0000
        vertex 2.0966 -0.1000 2.8800
        vertex 3.0643 -0.1000 2.8800
    endloop
endfacet
facet normal 0.0000 -14.5300 0.0000
    outer loop
        vertex 14.2800 -0.1000 3.0000
        vertex -14.2800 -0.1000 3.0000
        vertex -2.0160 -0.1000 2.8800
    endloop
endfacet
facet normal 0.0000 -2.3063 0.0000
    outer loop
        vertex -2.0160 -0.1000 2.8800
        vertex 2.0966 -0.1000 2.8800
        vertex 14.2800 -0.1000 3.0000
    endloop
endfacet
facet normal 0.0000 -1.5033 0.0000
    outer loop
        vertex -14.2800 -0.1000 3.0000
        vertex -14.2800 -0.1000 2.8800
        vertex -11.7734 -0.1000 2.8800
    endloop
endfacet
facet normal 0.0000 -1.3790 0.0000
    outer loop
        vertex -14.2800 -0.1000 3.0000
        vertex -11.7734 -0.1000 2.8800
        vertex -9.5155 -0.1000 2.8800
    endloop
endfacet
facet normal 0.0000 -1.7015 0.0000
    outer loop
        vertex -14.2800 -0.1000 3.0000
        vertex -9.5155 -0.1000 2.8800
        vertex -6.6125 -0.1000 2.8800
    endloop
endfacet
facet normal 0.0000 -2.0241 0.0000
    outer loop
        vertex -14.2800 -0.1000 3.0000
        vertex -6.6125 -0.1000 2.8800
        vertex -3.0643 -0.1000 2.8800
    endloop
endfacet
facet normal 0.0000 -0.7742 0.0000
    outer loop
        vertex -14.2800 -0.1000 3.0000
        vertex -3.0643 -0.1000 2.8800
        vertex -2.0160 -0.1000 2.8800
    endloop
endfacet
facet normal 0.0000 -0.7742 0.0000
    outer loop
        vertex -14.2800 -0.1000 -3.0000
        vertex -13.2317 -0.1000 -2.8800
        vertex -14.2800 -0.1000 -2.8800
    endloop
endfacet
facet normal 0.0000 -2.0241 0.0000
    outer loop
        vertex -14.2800 -0.1000 -3.0000
        vertex -3.0643 -0.1000 -2.8800
        vertex -6.6125 -0.1000 -2.8800
    endloop
endfacet
facet normal 0.0000 -14.5300 0.0000
    outer loop
        vertex -14.2800 -0.1000 -3.0000
        vertex 14.2800 -0.1000 -3.0000
        vertex 1.3440 -0.1000 -2.8800
    endloop
endfacet
facet normal 0.0000 -2.4542 0.0000
    outer loop
        vertex 1.3440 -0.1000 -2.8800
        vertex -3.0643 -0.1000 -2.8800
        vertex -14.2800 -0.1000 -3.0000
    endloop
endfacet
facet normal 0.0000 -2.3097 0.0000
    outer loop
        vertex 14.2800 -0.1000 -3.0000
        vertex 14.2800 -0.1000 -2.8800
        vertex 10.1606 -0.1000 -2.8800
    endloop
endfacet
facet normal 0.0000 -2.0241 0.0000
    outer loop
        vertex 14.2800 -0.1000 -3.0000
        vertex 10.1606 -0.1000 -2.8800
        vertex 6.6125 -0.1000 -2.8800
    endloop
endfacet
facet normal 0.0000 -2.0241 0.0000
    outer loop
        vertex 14.2800 -0.1000 -3.0000
        vertex 6.6125 -0.1000 -2.8800
        vertex 3.0643 -0.1000 -2.8800
    endloop
endfacet
facet normal 0.0000 -0.7338 0.0000
    outer loop
        vertex 14.2800 -0.1000 -3.0000
        vertex 3.0643 -0.1000 -2.8800
        vertex 2.0966 -0.1000 -2.8800
    endloop
endfacet
facet normal 0.0000 -0.6263 0.0000
    outer loop
        vertex 14.2800 -0.1000 -3.0000
        vertex 2.0966 -0.1000 -2.8800
        vertex 1.3440 -0.1000 -2.8800
    endloop
endfacet
facet normal 0.0000 583.2000 0.0000
    outer loop
        vertex -24.0000 -0.1000 4.8000
        vertex -14.2800 -0.1000 4.8000
        vertex -14.2800 -0.1000 -4.8000
    endloop
endfacet
facet normal 0.0000 583.2000 0.0000
    outer loop
        vertex -14.2800 -0.1000 -4.8000
        vertex -24.0000 -0.1000 -4.8000
        vertex -24.0000 -0.1000 4.8000
    endloop
endfacet
facet normal 0.0000 321.3000 0.0000
    outer loop
        vertex -14.2800 -0.1000 4.8000
        vertex 14.2800 -0.1000 4.8000
        vertex 14.2800 -0.1000 3.0000
    endloop
endfacet
facet normal 0.0000 321.3000 0.0000
    outer loop
        vertex 14.2800 -0.1000 3.0000
        vertex -14.2800 -0.1000 3.0000
        vertex -14.2800 -0.1000 4.8000
    endloop
endfacet
facet normal 0.0000 321.3000 0.0000
    outer loop
        vertex -14.2800 -0.1000 -3.0000
        vertex 14.2800 -0.1000 -3.0000
        vertex 14.2800 -0.1000 -4.8000
    endloop
endfacet
facet normal 0.0000 321.3000 0.0000
    outer loop
        vertex 14.2800 -0.1000 -4.8000
        vertex -14.2800 -0.1000 -4.8000
        vertex -14.2800 -0.1000 -3.0000
    endloop
endfacet
facet normal 0.0000 583.2000 0.0000
    outer loop
        vertex 14.2800 -0.1000 4.8000
        vertex 24.0000 -0.1000 4.8000
        vertex 24.0000 -0.1000 -4.8000
    endloop
endfacet
facet normal 0.0000 583.2000 0.0000
    outer loop
        vertex 24.0000 -0.1000 -4.8000
        vertex 14.2800 -0.1000 -4.8000
        vertex 14.2800 -0.1000 4.8000
    endloop
endfacet
facet normal 0.0000 -2880.0000 0.0000
    outer loop
        vertex -24.0000 0.0000 -4.8000
        vertex 24.0000 0.0000 -4.8000
        vertex 24.0000 0.0000 4.8000
    endloop
endfacet
facet normal 0.0000 -2880.0000 0.0000
    outer loop
        vertex 24.0000 0.0000 4.8000
        vertex -24.0000 0.0000 4.8000
        vertex -24.0000 0.0000 -4.8000
    endloop
endfacet
facet normal 0.0000 0.0000 -30.0000
    outer loop
        vertex 24.0000 0.0000 4.8000
        vertex 24.0000 -0.1000 4.8000
        vertex -24.0000 -0.1000 4.8000
    endloop
endfacet
facet normal 0.0000 0.0000 -30.0000
    outer loop
        vertex -24.0000 -0.1000 4.8000
        vertex -24.0000 0.0000 4.8000
        vertex 24.0000 0.0000 4.8000
    endloop
endfacet
facet normal 6.0000 0.0000 0.0000
    outer loop
        vertex -24.0000 0.0000 4.8000
        vertex -24.0000 -0.1000 4.8000
        vertex -24.0000 -0.1000 -4.8000
    endloop
endfacet
facet normal 6.0000 0.0000 0.0000
    outer loop
        vertex -24.0000 -0.1000 -4.8000
        vertex -24.0000 0.0000 -4.8000
        vertex -24.0000 0.0000 4.8000
    endloop
endfacet
facet normal 0.0000 0.0000 30.0000
    outer loop
        vertex -24.0000 0.0000 -4.8000
        vertex -24.0000 -0.1000 -4.8000
        vertex 24.0000 -0.1000 -4.8000
    endloop
endfacet
facet normal 0.0000 0.0000 30.0000
    outer loop
        vertex 24.0000 -0.1000 -4.8000
        vertex 24.0000 0.0000 -4.8000
        vertex -24.0000 0.0000 -4.8000
    endloop
endfacet
facet normal -6.0000 0.0000 0.0000
    outer loop
        vertex 24.0000 0.0000 -4.8000
        vertex 24.0000 -0.1000 -4.8000
        vertex 24.0000 -0.1000 4.8000
    endloop
endfacet
facet normal -6.0000 0.0000 0.0000
    outer loop
        vertex 24.0000 -0.1000 4.8000
        vertex 24.0000 0.0000 4.8000
        vertex 24.0000 0.0000 -4.8000
    endloop
endfacet
endsolid GiantLegoRocks
