solid GiantLegoRocks
facet normal 0.0000 -22.1850 0.0000
    outer loop
        vertex 0.0000 0.0000 0.0000
        vertex 1.6000 0.0000 0.0000
        vertex 1.5862 0.0000 0.2088
    endloop
endfacet
facet normal 0.0000 -22.1891 0.0000
    outer loop
        vertex 0.0000 0.0000 0.0000
        vertex 1.5862 0.0000 0.2088
        vertex 1.5454 0.0000 0.4141
    endloop
endfacet
facet normal 0.0000 -22.1926 0.0000
    outer loop
        vertex 0.0000 0.0000 0.0000
        vertex 1.5454 0.0000 0.4141
        vertex 1.4782 0.0000 0.6123
    endloop
endfacet
facet normal 0.0000 -22.1904 0.0000
    outer loop
        vertex 0.0000 0.0000 0.0000
        vertex 1.4782 0.0000 0.6123
        vertex 1.3856 0.0000 0.8000
    endloop
endfacet
facet normal 0.0000 -22.1885 0.0000
    outer loop
        vertex 0.0000 0.0000 0.0000
        vertex 1.3856 0.0000 0.8000
        vertex 1.2694 0.0000 0.9741
    endloop
endfacet
facet normal 0.0000 -22.1902 0.0000
    outer loop
        vertex 0.0000 0.0000 0.0000
        vertex 1.2694 0.0000 0.9741
        vertex 1.1314 0.0000 1.1314
    endloop
endfacet
facet normal 0.0000 -22.1902 0.0000
    outer loop
        vertex 0.0000 0.0000 0.0000
        vertex 1.1314 0.0000 1.1314
        vertex 0.9741 0.0000 1.2694
    endloop
endfacet
facet normal 0.0000 -22.1885 0.0000
    outer loop
        vertex 0.0000 0.0000 0.0000
        vertex 0.9741 0.0000 1.2694
        vertex 0.8000 0.0000 1.3856
    endloop
endfacet
facet normal 0.0000 -22.1904 0.0000
    outer loop
        vertex 0.0000 0.0000 0.0000
        vertex 0.8000 0.0000 1.3856
        vertex 0.6123 0.0000 1.4782
    endloop
endfacet
facet normal 0.0000 -22.1926 0.0000
    outer loop
        vertex 0.0000 0.0000 0.0000
        vertex 0.6123 0.0000 1.4782
        vertex 0.4141 0.0000 1.5454
    endloop
endfacet
facet normal 0.0000 -22.1891 0.0000
    outer loop
        vertex 0.0000 0.0000 0.0000
        vertex 0.4141 0.0000 1.5454
        vertex 0.2088 0.0000 1.5862
    endloop
endfacet
facet normal 0.0000 -22.1850 0.0000
    outer loop
        vertex 0.0000 0.0000 0.0000
        vertex 0.2088 0.0000 1.5862
        vertex 0.0000 0.0000 1.6000
    endloop
endfacet
facet normal 0.0000 -22.1850 0.0000
    outer loop
        vertex 0.0000 0.0000 0.0000
        vertex 0.0000 0.0000 1.6000
        vertex -0.2088 0.0000 1.5862
    endloop
endfacet
facet normal 0.0000 -22.1891 0.0000
    outer loop
        vertex 0.0000 0.0000 0.0000
        vertex -0.2088 0.0000 1.5862
        vertex -0.4141 0.0000 1.5454
    endloop
endfacet
facet normal 0.0000 -22.1926 0.0000
    outer loop
        vertex 0.0000 0.0000 0.0000
        vertex -0.4141 0.0000 1.5454
        vertex -0.6123 0.0000 1.4782
    endloop
endfacet
facet normal 0.0000 -22.1904 0.0000
    outer loop
        vertex 0.0000 0.0000 0.0000
        vertex -0.6123 0.0000 1.4782
        vertex -0.8000 0.0000 1.3856
    endloop
endfacet
facet normal 0.0000 -22.1885 0.0000
    outer loop
        vertex 0.0000 0.0000 0.0000
        vertex -0.8000 0.0000 1.3856
        vertex -0.9741 0.0000 1.2694
    endloop
endfacet
facet normal 0.0000 -22.1902 0.0000
    outer loop
        vertex 0.0000 0.0000 0.0000
        vertex -0.9741 0.0000 1.2694
        vertex -1.1314 0.0000 1.1314
    endloop
endfacet
facet normal 0.0000 -22.1902 0.0000
    outer loop
        vertex 0.0000 0.0000 0.0000
        vertex -1.1314 0.0000 1.1314
        vertex -1.2694 0.0000 0.9741
    endloop
endfacet
facet normal 0.0000 -22.1885 0.0000
    outer loop
        vertex 0.0000 0.0000 0.0000
        vertex -1.2694 0.0000 0.9741
        vertex -1.3856 0.0000 0.8000
    endloop
endfacet
facet normal 0.0000 -22.1904 0.0000
    outer loop
        vertex 0.0000 0.0000 0.0000
        vertex -1.3856 0.0000 0.8000
        vertex -1.4782 0.0000 0.6123
    endloop
endfacet
facet normal 0.0000 -22.1926 0.0000
    outer loop
        vertex 0.0000 0.0000 0.0000
        vertex -1.4782 0.0000 0.6123
        vertex -1.5454 0.0000 0.4141
    endloop
endfacet
facet normal 0.0000 -22.1891 0.0000
    outer loop
        vertex 0.0000 0.0000 0.0000
        vertex -1.5454 0.0000 0.4141
        vertex -1.5862 0.0000 0.2088
    endloop
endfacet
facet normal 0.0000 -22.1850 0.0000
    outer loop
        vertex 0.0000 0.0000 0.0000
        vertex -1.5862 0.0000 0.2088
        vertex -1.6000 0.0000 0.0000
    endloop
endfacet
facet normal 0.0000 -22.1850 0.0000
    outer loop
        vertex 0.0000 0.0000 0.0000
        vertex -1.6000 0.0000 0.0000
        vertex -1.5862 0.0000 -0.2088
    endloop
endfacet
facet normal 0.0000 -22.1891 0.0000
    outer loop
        vertex 0.0000 0.0000 0.0000
        vertex -1.5862 0.0000 -0.2088
        vertex -1.5454 0.0000 -0.4141
    endloop
endfacet
facet normal 0.0000 -22.1926 0.0000
    outer loop
        vertex 0.0000 0.0000 0.0000
        vertex -1.5454 0.0000 -0.4141
        vertex -1.4782 0.0000 -0.6123
    endloop
endfacet
facet normal 0.0000 -22.1904 0.0000
    outer loop
        vertex 0.0000 0.0000 0.0000
        vertex -1.4782 0.0000 -0.6123
        vertex -1.3856 0.0000 -0.8000
    endloop
endfacet
facet normal 0.0000 -22.1885 0.0000
    outer loop
        vertex 0.0000 0.0000 0.0000
        vertex -1.3856 0.0000 -0.8000
        vertex -1.2694 0.0000 -0.9741
    endloop
endfacet
facet normal 0.0000 -22.1902 0.0000
    outer loop
        vertex 0.0000 0.0000 0.0000
        vertex -1.2694 0.0000 -0.9741
        vertex -1.1314 0.0000 -1.1314
    endloop
endfacet
facet normal 0.0000 -22.1902 0.0000
    outer loop
        vertex 0.0000 0.0000 0.0000
        vertex -1.1314 0.0000 -1.1314
        vertex -0.9741 0.0000 -1.2694
    endloop
endfacet
facet normal 0.0000 -22.1885 0.0000
    outer loop
        vertex 0.0000 0.0000 0.0000
        vertex -0.9741 0.0000 -1.2694
        vertex -0.8000 0.0000 -1.3856
    endloop
endfacet
facet normal 0.0000 -22.1904 0.0000
    outer loop
        vertex 0.0000 0.0000 0.0000
        vertex -0.8000 0.0000 -1.3856
        vertex -0.6123 0.0000 -1.4782
    endloop
endfacet
facet normal 0.0000 -22.1926 0.0000
    outer loop
        vertex 0.0000 0.0000 0.0000
        vertex -0.6123 0.0000 -1.4782
        vertex -0.4141 0.0000 -1.5454
    endloop
endfacet
facet normal 0.0000 -22.1891 0.0000
    outer loop
        vertex 0.0000 0.0000 0.0000
        vertex -0.4141 0.0000 -1.5454
        vertex -0.2088 0.0000 -1.5862
    endloop
endfacet
facet normal 0.0000 -22.1850 0.0000
    outer loop
        vertex 0.0000 0.0000 0.0000
        vertex -0.2088 0.0000 -1.5862
        vertex 0.0000 0.0000 -1.6000
    endloop
endfacet
facet normal 0.0000 -22.1850 0.0000
    outer loop
        vertex 0.0000 0.0000 0.0000
        vertex 0.0000 0.0000 -1.6000
        vertex 0.2088 0.0000 -1.5862
    endloop
endfacet
facet normal 0.0000 -22.1891 0.0000
    outer loop
        vertex 0.0000 0.0000 0.0000
        vertex 0.2088 0.0000 -1.5862
        vertex 0.4141 0.0000 -1.5454
    endloop
endfacet
facet normal 0.0000 -22.1926 0.0000
    outer loop
        vertex 0.0000 0.0000 0.0000
        vertex 0.4141 0.0000 -1.5454
        vertex 0.6123 0.0000 -1.4782
    endloop
endfacet
facet normal 0.0000 -22.1904 0.0000
    outer loop
        vertex 0.0000 0.0000 0.0000
        vertex 0.6123 0.0000 -1.4782
        vertex 0.8000 0.0000 -1.3856
    endloop
endfacet
facet normal 0.0000 -22.1885 0.0000
    outer loop
        vertex 0.0000 0.0000 0.0000
        vertex 0.8000 0.0000 -1.3856
        vertex 0.9741 0.0000 -1.2694
    endloop
endfacet
facet normal 0.0000 -22.1902 0.0000
    outer loop
        vertex 0.0000 0.0000 0.0000
        vertex 0.9741 0.0000 -1.2694
        vertex 1.1314 0.0000 -1.1314
    endloop
endfacet
facet normal 0.0000 -22.1902 0.0000
    outer loop
        vertex 0.0000 0.0000 0.0000
        vertex 1.1314 0.0000 -1.1314
        vertex 1.2694 0.0000 -0.9741
    endloop
endfacet
facet normal 0.0000 -22.1885 0.0000
    outer loop
        vertex 0.0000 0.0000 0.0000
        vertex 1.2694 0.0000 -0.9741
        vertex 1.3856 0.0000 -0.8000
    endloop
endfacet
facet normal 0.0000 -22.1904 0.0000
    outer loop
        vertex 0.0000 0.0000 0.0000
        vertex 1.3856 0.0000 -0.8000
        vertex 1.4782 0.0000 -0.6123
    endloop
endfacet
facet normal 0.0000 -22.1926 0.0000
    outer loop
        vertex 0.0000 0.0000 0.0000
        vertex 1.4782 0.0000 -0.6123
        vertex 1.5454 0.0000 -0.4141
    endloop
endfacet
facet normal 0.0000 -22.1891 0.0000
    outer loop
        vertex 0.0000 0.0000 0.0000
        vertex 1.5454 0.0000 -0.4141
        vertex 1.5862 0.0000 -0.2088
    endloop
endfacet
facet normal 0.0000 -22.1850 0.0000
    outer loop
        vertex 0.0000 0.0000 0.0000
        vertex 1.5862 0.0000 -0.2088
        vertex 1.6000 0.0000 0.0000
    endloop
endfacet
facet normal 0.5220 0.0000 0.0344
    outer loop
        vertex 1.5862 0.0000 0.2088
        vertex 1.6000 0.0000 0.0000
        vertex 1.6000 68.0000 0.0000
    endloop
endfacet
facet normal 0.5220 0.0000 0.0344
    outer loop
        vertex 1.6000 68.0000 0.0000
        vertex 1.5862 68.0000 0.2088
        vertex 1.5862 0.0000 0.2088
    endloop
endfacet
facet normal 0.5132 0.0000 0.1020
    outer loop
        vertex 1.5454 0.0000 0.4141
        vertex 1.5862 0.0000 0.2088
        vertex 1.5862 68.0000 0.2088
    endloop
endfacet
facet normal 0.5132 0.0000 0.1020
    outer loop
        vertex 1.5862 68.0000 0.2088
        vertex 1.5454 68.0000 0.4141
        vertex 1.5454 0.0000 0.4141
    endloop
endfacet
facet normal 0.4956 0.0000 0.1680
    outer loop
        vertex 1.4782 0.0000 0.6123
        vertex 1.5454 0.0000 0.4141
        vertex 1.5454 68.0000 0.4141
    endloop
endfacet
facet normal 0.4956 0.0000 0.1680
    outer loop
        vertex 1.5454 68.0000 0.4141
        vertex 1.4782 68.0000 0.6123
        vertex 1.4782 0.0000 0.6123
    endloop
endfacet
facet normal 0.4692 0.0000 0.2316
    outer loop
        vertex 1.3856 0.0000 0.8000
        vertex 1.4782 0.0000 0.6123
        vertex 1.4782 68.0000 0.6123
    endloop
endfacet
facet normal 0.4692 0.0000 0.2316
    outer loop
        vertex 1.4782 68.0000 0.6123
        vertex 1.3856 68.0000 0.8000
        vertex 1.3856 0.0000 0.8000
    endloop
endfacet
facet normal 0.4352 0.0000 0.2904
    outer loop
        vertex 1.2694 0.0000 0.9741
        vertex 1.3856 0.0000 0.8000
        vertex 1.3856 68.0000 0.8000
    endloop
endfacet
facet normal 0.4352 0.0000 0.2904
    outer loop
        vertex 1.3856 68.0000 0.8000
        vertex 1.2694 68.0000 0.9741
        vertex 1.2694 0.0000 0.9741
    endloop
endfacet
facet normal 0.3932 0.0000 0.3452
    outer loop
        vertex 1.1314 0.0000 1.1314
        vertex 1.2694 0.0000 0.9741
        vertex 1.2694 68.0000 0.9741
    endloop
endfacet
facet normal 0.3932 0.0000 0.3452
    outer loop
        vertex 1.2694 68.0000 0.9741
        vertex 1.1314 68.0000 1.1314
        vertex 1.1314 0.0000 1.1314
    endloop
endfacet
facet normal 0.3452 0.0000 0.3932
    outer loop
        vertex 0.9741 0.0000 1.2694
        vertex 1.1314 0.0000 1.1314
        vertex 1.1314 68.0000 1.1314
    endloop
endfacet
facet normal 0.3452 0.0000 0.3932
    outer loop
        vertex 1.1314 68.0000 1.1314
        vertex 0.9741 68.0000 1.2694
        vertex 0.9741 0.0000 1.2694
    endloop
endfacet
facet normal 0.2904 0.0000 0.4352
    outer loop
        vertex 0.8000 0.0000 1.3856
        vertex 0.9741 0.0000 1.2694
        vertex 0.9741 68.0000 1.2694
    endloop
endfacet
facet normal 0.2904 0.0000 0.4352
    outer loop
        vertex 0.9741 68.0000 1.2694
        vertex 0.8000 68.0000 1.3856
        vertex 0.8000 0.0000 1.3856
    endloop
endfacet
facet normal 0.2316 0.0000 0.4692
    outer loop
        vertex 0.6123 0.0000 1.4782
        vertex 0.8000 0.0000 1.3856
        vertex 0.8000 68.0000 1.3856
    endloop
endfacet
facet normal 0.2316 0.0000 0.4692
    outer loop
        vertex 0.8000 68.0000 1.3856
        vertex 0.6123 68.0000 1.4782
        vertex 0.6123 0.0000 1.4782
    endloop
endfacet
facet normal 0.1680 0.0000 0.4956
    outer loop
        vertex 0.4141 0.0000 1.5454
        vertex 0.6123 0.0000 1.4782
        vertex 0.6123 68.0000 1.4782
    endloop
endfacet
facet normal 0.1680 0.0000 0.4956
    outer loop
        vertex 0.6123 68.0000 1.4782
        vertex 0.4141 68.0000 1.5454
        vertex 0.4141 0.0000 1.5454
    endloop
endfacet
facet normal 0.1020 0.0000 0.5132
    outer loop
        vertex 0.2088 0.0000 1.5862
        vertex 0.4141 0.0000 1.5454
        vertex 0.4141 68.0000 1.5454
    endloop
endfacet
facet normal 0.1020 0.0000 0.5132
    outer loop
        vertex 0.4141 68.0000 1.5454
        vertex 0.2088 68.0000 1.5862
        vertex 0.2088 0.0000 1.5862
    endloop
endfacet
facet normal 0.0344 0.0000 0.5220
    outer loop
        vertex 0.0000 0.0000 1.6000
        vertex 0.2088 0.0000 1.5862
        vertex 0.2088 68.0000 1.5862
    endloop
endfacet
facet normal 0.0344 0.0000 0.5220
    outer loop
        vertex 0.2088 68.0000 1.5862
        vertex 0.0000 68.0000 1.6000
        vertex 0.0000 0.0000 1.6000
    endloop
endfacet
facet normal -0.0344 0.0000 0.5220
    outer loop
        vertex -0.2088 0.0000 1.5862
        vertex 0.0000 0.0000 1.6000
        vertex 0.0000 68.0000 1.6000
    endloop
endfacet
facet normal -0.0344 0.0000 0.5220
    outer loop
        vertex 0.0000 68.0000 1.6000
        vertex -0.2088 68.0000 1.5862
        vertex -0.2088 0.0000 1.5862
    endloop
endfacet
facet normal -0.1020 0.0000 0.5132
    outer loop
        vertex -0.4141 0.0000 1.5454
        vertex -0.2088 0.0000 1.5862
        vertex -0.2088 68.0000 1.5862
    endloop
endfacet
facet normal -0.1020 0.0000 0.5132
    outer loop
        vertex -0.2088 68.0000 1.5862
        vertex -0.4141 68.0000 1.5454
        vertex -0.4141 0.0000 1.5454
    endloop
endfacet
facet normal -0.1680 0.0000 0.4956
    outer loop
        vertex -0.6123 0.0000 1.4782
        vertex -0.4141 0.0000 1.5454
        vertex -0.4141 68.0000 1.5454
    endloop
endfacet
facet normal -0.1680 0.0000 0.4956
    outer loop
        vertex -0.4141 68.0000 1.5454
        vertex -0.6123 68.0000 1.4782
        vertex -0.6123 0.0000 1.4782
    endloop
endfacet
facet normal -0.2316 0.0000 0.4692
    outer loop
        vertex -0.8000 0.0000 1.3856
        vertex -0.6123 0.0000 1.4782
        vertex -0.6123 68.0000 1.4782
    endloop
endfacet
facet normal -0.2316 0.0000 0.4692
    outer loop
        vertex -0.6123 68.0000 1.4782
        vertex -0.8000 68.0000 1.3856
        vertex -0.8000 0.0000 1.3856
    endloop
endfacet
facet normal -0.2904 0.0000 0.4352
    outer loop
        vertex -0.9741 0.0000 1.2694
        vertex -0.8000 0.0000 1.3856
        vertex -0.8000 68.0000 1.3856
    endloop
endfacet
facet normal -0.2904 0.0000 0.4352
    outer loop
        vertex -0.8000 68.0000 1.3856
        vertex -0.9741 68.0000 1.2694
        vertex -0.9741 0.0000 1.2694
    endloop
endfacet
facet normal -0.3452 0.0000 0.3932
    outer loop
        vertex -1.1314 0.0000 1.1314
        vertex -0.9741 0.0000 1.2694
        vertex -0.9741 68.0000 1.2694
    endloop
endfacet
facet normal -0.3452 0.0000 0.3932
    outer loop
        vertex -0.9741 68.0000 1.2694
        vertex -1.1314 68.0000 1.1314
        vertex -1.1314 0.0000 1.1314
    endloop
endfacet
facet normal -0.3932 0.0000 0.3452
    outer loop
        vertex -1.2694 0.0000 0.9741
        vertex -1.1314 0.0000 1.1314
        vertex -1.1314 68.0000 1.1314
    endloop
endfacet
facet normal -0.3932 0.0000 0.3452
    outer loop
        vertex -1.1314 68.0000 1.1314
        vertex -1.2694 68.0000 0.9741
        vertex -1.2694 0.0000 0.9741
    endloop
endfacet
facet normal -0.4352 0.0000 0.2904
    outer loop
        vertex -1.3856 0.0000 0.8000
        vertex -1.2694 0.0000 0.9741
        vertex -1.2694 68.0000 0.9741
    endloop
endfacet
facet normal -0.4352 0.0000 0.2904
    outer loop
        vertex -1.2694 68.0000 0.9741
        vertex -1.3856 68.0000 0.8000
        vertex -1.3856 0.0000 0.8000
    endloop
endfacet
facet normal -0.4692 0.0000 0.2316
    outer loop
        vertex -1.4782 0.0000 0.6123
        vertex -1.3856 0.0000 0.8000
        vertex -1.3856 68.0000 0.8000
    endloop
endfacet
facet normal -0.4692 0.0000 0.2316
    outer loop
        vertex -1.3856 68.0000 0.8000
        vertex -1.4782 68.0000 0.6123
        vertex -1.4782 0.0000 0.6123
    endloop
endfacet
facet normal -0.4956 0.0000 0.1680
    outer loop
        vertex -1.5454 0.0000 0.4141
        vertex -1.4782 0.0000 0.6123
        vertex -1.4782 68.0000 0.6123
    endloop
endfacet
facet normal -0.4956 0.0000 0.1680
    outer loop
        vertex -1.4782 68.0000 0.6123
        vertex -1.5454 68.0000 0.4141
        vertex -1.5454 0.0000 0.4141
    endloop
endfacet
facet normal -0.5132 0.0000 0.1020
    outer loop
        vertex -1.5862 0.0000 0.2088
        vertex -1.5454 0.0000 0.4141
        vertex -1.5454 68.0000 0.4141
    endloop
endfacet
facet normal -0.5132 0.0000 0.1020
    outer loop
        vertex -1.5454 68.0000 0.4141
        vertex -1.5862 68.0000 0.2088
        vertex -1.5862 0.0000 0.2088
    endloop
endfacet
facet normal -0.5220 0.0000 0.0344
    outer loop
        vertex -1.6000 0.0000 0.0000
        vertex -1.5862 0.0000 0.2088
        vertex -1.5862 68.0000 0.2088
    endloop
endfacet
facet normal -0.5220 0.0000 0.0344
    outer loop
        vertex -1.5862 68.0000 0.2088
        vertex -1.6000 68.0000 0.0000
        vertex -1.6000 0.0000 0.0000
    endloop
endfacet
facet normal -0.5220 0.0000 -0.0344
    outer loop
        vertex -1.5862 0.0000 -0.2088
        vertex -1.6000 0.0000 0.0000
        vertex -1.6000 68.0000 0.0000
    endloop
endfacet
facet normal -0.5220 0.0000 -0.0344
    outer loop
        vertex -1.6000 68.0000 0.0000
        vertex -1.5862 68.0000 -0.2088
        vertex -1.5862 0.0000 -0.2088
    endloop
endfacet
facet normal -0.5132 0.0000 -0.1020
    outer loop
        vertex -1.5454 0.0000 -0.4141
        vertex -1.5862 0.0000 -0.2088
        vertex -1.5862 68.0000 -0.2088
    endloop
endfacet
facet normal -0.5132 0.0000 -0.1020
    outer loop
        vertex -1.5862 68.0000 -0.2088
        vertex -1.5454 68.0000 -0.4141
        vertex -1.5454 0.0000 -0.4141
    endloop
endfacet
facet normal -0.4956 0.0000 -0.1680
    outer loop
        vertex -1.4782 0.0000 -0.6123
        vertex -1.5454 0.0000 -0.4141
        vertex -1.5454 68.0000 -0.4141
    endloop
endfacet
facet normal -0.4956 0.0000 -0.1680
    outer loop
        vertex -1.5454 68.0000 -0.4141
        vertex -1.4782 68.0000 -0.6123
        vertex -1.4782 0.0000 -0.6123
    endloop
endfacet
facet normal -0.4692 0.0000 -0.2316
    outer loop
        vertex -1.3856 0.0000 -0.8000
        vertex -1.4782 0.0000 -0.6123
        vertex -1.4782 68.0000 -0.6123
    endloop
endfacet
facet normal -0.4692 0.0000 -0.2316
    outer loop
        vertex -1.4782 68.0000 -0.6123
        vertex -1.3856 68.0000 -0.8000
        vertex -1.3856 0.0000 -0.8000
    endloop
endfacet
facet normal -0.4352 0.0000 -0.2904
    outer loop
        vertex -1.2694 0.0000 -0.9741
        vertex -1.3856 0.0000 -0.8000
        vertex -1.3856 68.0000 -0.8000
    endloop
endfacet
facet normal -0.4352 0.0000 -0.2904
    outer loop
        vertex -1.3856 68.0000 -0.8000
        vertex -1.2694 68.0000 -0.9741
        vertex -1.2694 0.0000 -0.9741
    endloop
endfacet
facet normal -0.3932 0.0000 -0.3452
    outer loop
        vertex -1.1314 0.0000 -1.1314
        vertex -1.2694 0.0000 -0.9741
        vertex -1.2694 68.0000 -0.9741
    endloop
endfacet
facet normal -0.3932 0.0000 -0.3452
    outer loop
        vertex -1.2694 68.0000 -0.9741
        vertex -1.1314 68.0000 -1.1314
        vertex -1.1314 0.0000 -1.1314
    endloop
endfacet
facet normal -0.3452 0.0000 -0.3932
    outer loop
        vertex -0.9741 0.0000 -1.2694
        vertex -1.1314 0.0000 -1.1314
        vertex -1.1314 68.0000 -1.1314
    endloop
endfacet
facet normal -0.3452 0.0000 -0.3932
    outer loop
        vertex -1.1314 68.0000 -1.1314
        vertex -0.9741 68.0000 -1.2694
        vertex -0.9741 0.0000 -1.2694
    endloop
endfacet
facet normal -0.2904 0.0000 -0.4352
    outer loop
        vertex -0.8000 0.0000 -1.3856
        vertex -0.9741 0.0000 -1.2694
        vertex -0.9741 68.0000 -1.2694
    endloop
endfacet
facet normal -0.2904 0.0000 -0.4352
    outer loop
        vertex -0.9741 68.0000 -1.2694
        vertex -0.8000 68.0000 -1.3856
        vertex -0.8000 0.0000 -1.3856
    endloop
endfacet
facet normal -0.2316 0.0000 -0.4692
    outer loop
        vertex -0.6123 0.0000 -1.4782
        vertex -0.8000 0.0000 -1.3856
        vertex -0.8000 68.0000 -1.3856
    endloop
endfacet
facet normal -0.2316 0.0000 -0.4692
    outer loop
        vertex -0.8000 68.0000 -1.3856
        vertex -0.6123 68.0000 -1.4782
        vertex -0.6123 0.0000 -1.4782
    endloop
endfacet
facet normal -0.1680 0.0000 -0.4956
    outer loop
        vertex -0.4141 0.0000 -1.5454
        vertex -0.6123 0.0000 -1.4782
        vertex -0.6123 68.0000 -1.4782
    endloop
endfacet
facet normal -0.1680 0.0000 -0.4956
    outer loop
        vertex -0.6123 68.0000 -1.4782
        vertex -0.4141 68.0000 -1.5454
        vertex -0.4141 0.0000 -1.5454
    endloop
endfacet
facet normal -0.1020 0.0000 -0.5132
    outer loop
        vertex -0.2088 0.0000 -1.5862
        vertex -0.4141 0.0000 -1.5454
        vertex -0.4141 68.0000 -1.5454
    endloop
endfacet
facet normal -0.1020 0.0000 -0.5132
    outer loop
        vertex -0.4141 68.0000 -1.5454
        vertex -0.2088 68.0000 -1.5862
        vertex -0.2088 0.0000 -1.5862
    endloop
endfacet
facet normal -0.0344 0.0000 -0.5220
    outer loop
        vertex 0.0000 0.0000 -1.6000
        vertex -0.2088 0.0000 -1.5862
        vertex -0.2088 68.0000 -1.5862
    endloop
endfacet
facet normal -0.0344 0.0000 -0.5220
    outer loop
        vertex -0.2088 68.0000 -1.5862
        vertex 0.0000 68.0000 -1.6000
        vertex 0.0000 0.0000 -1.6000
    endloop
endfacet
facet normal 0.0344 0.0000 -0.5220
    outer loop
        vertex 0.2088 0.0000 -1.5862
        vertex 0.0000 0.0000 -1.6000
        vertex 0.0000 68.0000 -1.6000
    endloop
endfacet
facet normal 0.0344 0.0000 -0.5220
    outer loop
        vertex 0.0000 68.0000 -1.6000
        vertex 0.2088 68.0000 -1.5862
        vertex 0.2088 0.0000 -1.5862
    endloop
endfacet
facet normal 0.1020 0.0000 -0.5132
    outer loop
        vertex 0.4141 0.0000 -1.5454
        vertex 0.2088 0.0000 -1.5862
        vertex 0.2088 68.0000 -1.5862
    endloop
endfacet
facet normal 0.1020 0.0000 -0.5132
    outer loop
        vertex 0.2088 68.0000 -1.5862
        vertex 0.4141 68.0000 -1.5454
        vertex 0.4141 0.0000 -1.5454
    endloop
endfacet
facet normal 0.1680 0.0000 -0.4956
    outer loop
        vertex 0.6123 0.0000 -1.4782
        vertex 0.4141 0.0000 -1.5454
        vertex 0.4141 68.0000 -1.5454
    endloop
endfacet
facet normal 0.1680 0.0000 -0.4956
    outer loop
        vertex 0.4141 68.0000 -1.5454
        vertex 0.6123 68.0000 -1.4782
        vertex 0.6123 0.0000 -1.4782
    endloop
endfacet
facet normal 0.2316 0.0000 -0.4692
    outer loop
        vertex 0.8000 0.0000 -1.3856
        vertex 0.6123 0.0000 -1.4782
        vertex 0.6123 68.0000 -1.4782
    endloop
endfacet
facet normal 0.2316 0.0000 -0.4692
    outer loop
        vertex 0.6123 68.0000 -1.4782
        vertex 0.8000 68.0000 -1.3856
        vertex 0.8000 0.0000 -1.3856
    endloop
endfacet
facet normal 0.2904 0.0000 -0.4352
    outer loop
        vertex 0.9741 0.0000 -1.2694
        vertex 0.8000 0.0000 -1.3856
        vertex 0.8000 68.0000 -1.3856
    endloop
endfacet
facet normal 0.2904 0.0000 -0.4352
    outer loop
        vertex 0.8000 68.0000 -1.3856
        vertex 0.9741 68.0000 -1.2694
        vertex 0.9741 0.0000 -1.2694
    endloop
endfacet
facet normal 0.3452 0.0000 -0.3932
    outer loop
        vertex 1.1314 0.0000 -1.1314
        vertex 0.9741 0.0000 -1.2694
        vertex 0.9741 68.0000 -1.2694
    endloop
endfacet
facet normal 0.3452 0.0000 -0.3932
    outer loop
        vertex 0.9741 68.0000 -1.2694
        vertex 1.1314 68.0000 -1.1314
        vertex 1.1314 0.0000 -1.1314
    endloop
endfacet
facet normal 0.3932 0.0000 -0.3452
    outer loop
        vertex 1.2694 0.0000 -0.9741
        vertex 1.1314 0.0000 -1.1314
        vertex 1.1314 68.0000 -1.1314
    endloop
endfacet
facet normal 0.3932 0.0000 -0.3452
    outer loop
        vertex 1.1314 68.0000 -1.1314
        vertex 1.2694 68.0000 -0.9741
        vertex 1.2694 0.0000 -0.9741
    endloop
endfacet
facet normal 0.4352 0.0000 -0.2904
    outer loop
        vertex 1.3856 0.0000 -0.8000
        vertex 1.2694 0.0000 -0.9741
        vertex 1.2694 68.0000 -0.9741
    endloop
endfacet
facet normal 0.4352 0.0000 -0.2904
    outer loop
        vertex 1.2694 68.0000 -0.9741
        vertex 1.3856 68.0000 -0.8000
        vertex 1.3856 0.0000 -0.8000
    endloop
endfacet
facet normal 0.4692 0.0000 -0.2316
    outer loop
        vertex 1.4782 0.0000 -0.6123
        vertex 1.3856 0.0000 -0.8000
        vertex 1.3856 68.0000 -0.8000
    endloop
endfacet
facet normal 0.4692 0.0000 -0.2316
    outer loop
        vertex 1.3856 68.0000 -0.8000
        vertex 1.4782 68.0000 -0.6123
        vertex 1.4782 0.0000 -0.6123
    endloop
endfacet
facet normal 0.4956 0.0000 -0.1680
    outer loop
        vertex 1.5454 0.0000 -0.4141
        vertex 1.4782 0.0000 -0.6123
        vertex 1.4782 68.0000 -0.6123
    endloop
endfacet
facet normal 0.4956 0.0000 -0.1680
    outer loop
        vertex 1.4782 68.0000 -0.6123
        vertex 1.5454 68.0000 -0.4141
        vertex 1.5454 0.0000 -0.4141
    endloop
endfacet
facet normal 0.5132 0.0000 -0.1020
    outer loop
        vertex 1.5862 0.0000 -0.2088
        vertex 1.5454 0.0000 -0.4141
        vertex 1.5454 68.0000 -0.4141
    endloop
endfacet
facet normal 0.5132 0.0000 -0.1020
    outer loop
        vertex 1.5454 68.0000 -0.4141
        vertex 1.5862 68.0000 -0.2088
        vertex 1.5862 0.0000 -0.2088
    endloop
endfacet
facet normal 0.5220 0.0000 -0.0344
    outer loop
        vertex 1.6000 0.0000 0.0000
        vertex 1.5862 0.0000 -0.2088
        vertex 1.5862 68.0000 -0.2088
    endloop
endfacet
facet normal 0.5220 0.0000 -0.0344
    outer loop
        vertex 1.5862 68.0000 -0.2088
        vertex 1.6000 68.0000 0.0000
        vertex 1.6000 0.0000 0.0000
    endloop
endfacet
facet normal 0.0000 169.8695 0.0000
    outer loop
        vertex 0.0000 68.0000 0.0000
        vertex 1.5862 68.0000 0.2088
        vertex 1.6000 68.0000 0.0000
    endloop
endfacet
facet normal 0.0000 169.8695 0.0000
    outer loop
        vertex 0.0000 68.0000 0.0000
        vertex 1.5454 68.0000 0.4141
        vertex 1.5862 68.0000 0.2088
    endloop
endfacet
facet normal 0.0000 169.8695 0.0000
    outer loop
        vertex 0.0000 68.0000 0.0000
        vertex 1.4782 68.0000 0.6123
        vertex 1.5454 68.0000 0.4141
    endloop
endfacet
facet normal 0.0000 169.8695 0.0000
    outer loop
        vertex 0.0000 68.0000 0.0000
        vertex 1.3856 68.0000 0.8000
        vertex 1.4782 68.0000 0.6123
    endloop
endfacet
facet normal 0.0000 169.8695 0.0000
    outer loop
        vertex 0.0000 68.0000 0.0000
        vertex 1.2694 68.0000 0.9741
        vertex 1.3856 68.0000 0.8000
    endloop
endfacet
facet normal 0.0000 169.8695 0.0000
    outer loop
        vertex 0.0000 68.0000 0.0000
        vertex 1.1314 68.0000 1.1314
        vertex 1.2694 68.0000 0.9741
    endloop
endfacet
facet normal 0.0000 169.8695 0.0000
    outer loop
        vertex 0.0000 68.0000 0.0000
        vertex 0.9741 68.0000 1.2694
        vertex 1.1314 68.0000 1.1314
    endloop
endfacet
facet normal 0.0000 169.8695 0.0000
    outer loop
        vertex 0.0000 68.0000 0.0000
        vertex 0.8000 68.0000 1.3856
        vertex 0.9741 68.0000 1.2694
    endloop
endfacet
facet normal 0.0000 169.8695 0.0000
    outer loop
        vertex 0.0000 68.0000 0.0000
        vertex 0.6123 68.0000 1.4782
        vertex 0.8000 68.0000 1.3856
    endloop
endfacet
facet normal 0.0000 169.8695 0.0000
    outer loop
        vertex 0.0000 68.0000 0.0000
        vertex 0.4141 68.0000 1.5454
        vertex 0.6123 68.0000 1.4782
    endloop
endfacet
facet normal 0.0000 169.8695 0.0000
    outer loop
        vertex 0.0000 68.0000 0.0000
        vertex 0.2088 68.0000 1.5862
        vertex 0.4141 68.0000 1.5454
    endloop
endfacet
facet normal 0.0000 169.8695 0.0000
    outer loop
        vertex 0.0000 68.0000 0.0000
        vertex 0.0000 68.0000 1.6000
        vertex 0.2088 68.0000 1.5862
    endloop
endfacet
facet normal 0.0000 169.8695 0.0000
    outer loop
        vertex 0.0000 68.0000 0.0000
        vertex -0.2088 68.0000 1.5862
        vertex 0.0000 68.0000 1.6000
    endloop
endfacet
facet normal 0.0000 169.8695 0.0000
    outer loop
        vertex 0.0000 68.0000 0.0000
        vertex -0.4141 68.0000 1.5454
        vertex -0.2088 68.0000 1.5862
    endloop
endfacet
facet normal 0.0000 169.8695 0.0000
    outer loop
        vertex 0.0000 68.0000 0.0000
        vertex -0.6123 68.0000 1.4782
        vertex -0.4141 68.0000 1.5454
    endloop
endfacet
facet normal 0.0000 169.8695 0.0000
    outer loop
        vertex 0.0000 68.0000 0.0000
        vertex -0.8000 68.0000 1.3856
        vertex -0.6123 68.0000 1.4782
    endloop
endfacet
facet normal 0.0000 169.8695 0.0000
    outer loop
        vertex 0.0000 68.0000 0.0000
        vertex -0.9741 68.0000 1.2694
        vertex -0.8000 68.0000 1.3856
    endloop
endfacet
facet normal 0.0000 169.8695 0.0000
    outer loop
        vertex 0.0000 68.0000 0.0000
        vertex -1.1314 68.0000 1.1314
        vertex -0.9741 68.0000 1.2694
    endloop
endfacet
facet normal 0.0000 169.8695 0.0000
    outer loop
        vertex 0.0000 68.0000 0.0000
        vertex -1.2694 68.0000 0.9741
        vertex -1.1314 68.0000 1.1314
    endloop
endfacet
facet normal 0.0000 169.8695 0.0000
    outer loop
        vertex 0.0000 68.0000 0.0000
        vertex -1.3856 68.0000 0.8000
        vertex -1.2694 68.0000 0.9741
    endloop
endfacet
facet normal 0.0000 169.8695 0.0000
    outer loop
        vertex 0.0000 68.0000 0.0000
        vertex -1.4782 68.0000 0.6123
        vertex -1.3856 68.0000 0.8000
    endloop
endfacet
facet normal 0.0000 169.8695 0.0000
    outer loop
        vertex 0.0000 68.0000 0.0000
        vertex -1.5454 68.0000 0.4141
        vertex -1.4782 68.0000 0.6123
    endloop
endfacet
facet normal 0.0000 169.8695 0.0000
    outer loop
        vertex 0.0000 68.0000 0.0000
        vertex -1.5862 68.0000 0.2088
        vertex -1.5454 68.0000 0.4141
    endloop
endfacet
facet normal 0.0000 169.8695 0.0000
    outer loop
        vertex 0.0000 68.0000 0.0000
        vertex -1.6000 68.0000 0.0000
        vertex -1.5862 68.0000 0.2088
    endloop
endfacet
facet normal 0.0000 169.8695 0.0000
    outer loop
        vertex 0.0000 68.0000 0.0000
        vertex -1.5862 68.0000 -0.2088
        vertex -1.6000 68.0000 0.0000
    endloop
endfacet
facet normal 0.0000 169.8695 0.0000
    outer loop
        vertex 0.0000 68.0000 0.0000
        vertex -1.5454 68.0000 -0.4141
        vertex -1.5862 68.0000 -0.2088
    endloop
endfacet
facet normal 0.0000 169.8695 0.0000
    outer loop
        vertex 0.0000 68.0000 0.0000
        vertex -1.4782 68.0000 -0.6123
        vertex -1.5454 68.0000 -0.4141
    endloop
endfacet
facet normal 0.0000 169.8695 0.0000
    outer loop
        vertex 0.0000 68.0000 0.0000
        vertex -1.3856 68.0000 -0.8000
        vertex -1.4782 68.0000 -0.6123
    endloop
endfacet
facet normal 0.0000 169.8695 0.0000
    outer loop
        vertex 0.0000 68.0000 0.0000
        vertex -1.2694 68.0000 -0.9741
        vertex -1.3856 68.0000 -0.8000
    endloop
endfacet
facet normal 0.0000 169.8695 0.0000
    outer loop
        vertex 0.0000 68.0000 0.0000
        vertex -1.1314 68.0000 -1.1314
        vertex -1.2694 68.0000 -0.9741
    endloop
endfacet
facet normal 0.0000 169.8695 0.0000
    outer loop
        vertex 0.0000 68.0000 0.0000
        vertex -0.9741 68.0000 -1.2694
        vertex -1.1314 68.0000 -1.1314
    endloop
endfacet
facet normal 0.0000 169.8695 0.0000
    outer loop
        vertex 0.0000 68.0000 0.0000
        vertex -0.8000 68.0000 -1.3856
        vertex -0.9741 68.0000 -1.2694
    endloop
endfacet
facet normal 0.0000 169.8695 0.0000
    outer loop
        vertex 0.0000 68.0000 0.0000
        vertex -0.6123 68.0000 -1.4782
        vertex -0.8000 68.0000 -1.3856
    endloop
endfacet
facet normal 0.0000 169.8695 0.0000
    outer loop
        vertex 0.0000 68.0000 0.0000
        vertex -0.4141 68.0000 -1.5454
        vertex -0.6123 68.0000 -1.4782
    endloop
endfacet
facet normal 0.0000 169.8695 0.0000
    outer loop
        vertex 0.0000 68.0000 0.0000
        vertex -0.2088 68.0000 -1.5862
        vertex -0.4141 68.0000 -1.5454
    endloop
endfacet
facet normal 0.0000 169.8695 0.0000
    outer loop
        vertex 0.0000 68.0000 0.0000
        vertex 0.0000 68.0000 -1.6000
        vertex -0.2088 68.0000 -1.5862
    endloop
endfacet
facet normal 0.0000 169.8695 0.0000
    outer loop
        vertex 0.0000 68.0000 0.0000
        vertex 0.2088 68.0000 -1.5862
        vertex 0.0000 68.0000 -1.6000
    endloop
endfacet
facet normal 0.0000 169.8695 0.0000
    outer loop
        vertex 0.0000 68.0000 0.0000
        vertex 0.4141 68.0000 -1.5454
        vertex 0.2088 68.0000 -1.5862
    endloop
endfacet
facet normal 0.0000 169.8695 0.0000
    outer loop
        vertex 0.0000 68.0000 0.0000
        vertex 0.6123 68.0000 -1.4782
        vertex 0.4141 68.0000 -1.5454
    endloop
endfacet
facet normal 0.0000 169.8695 0.0000
    outer loop
        vertex 0.0000 68.0000 0.0000
        vertex 0.8000 68.0000 -1.3856
        vertex 0.6123 68.0000 -1.4782
    endloop
endfacet
facet normal 0.0000 169.8695 0.0000
    outer loop
        vertex 0.0000 68.0000 0.0000
        vertex 0.9741 68.0000 -1.2694
        vertex 0.8000 68.0000 -1.3856
    endloop
endfacet
facet normal 0.0000 169.8695 0.0000
    outer loop
        vertex 0.0000 68.0000 0.0000
        vertex 1.1314 68.0000 -1.1314
        vertex 0.9741 68.0000 -1.2694
    endloop
endfacet
facet normal 0.0000 169.8695 0.0000
    outer loop
        vertex 0.0000 68.0000 0.0000
        vertex 1.2694 68.0000 -0.9741
        vertex 1.1314 68.0000 -1.1314
    endloop
endfacet
facet normal 0.0000 169.8695 0.0000
    outer loop
        vertex 0.0000 68.0000 0.0000
        vertex 1.3856 68.0000 -0.8000
        vertex 1.2694 68.0000 -0.9741
    endloop
endfacet
facet normal 0.0000 169.8695 0.0000
    outer loop
        vertex 0.0000 68.0000 0.0000
        vertex 1.4782 68.0000 -0.6123
        vertex 1.3856 68.0000 -0.8000
    endloop
endfacet
facet normal 0.0000 169.8695 0.0000
    outer loop
        vertex 0.0000 68.0000 0.0000
        vertex 1.5454 68.0000 -0.4141
        vertex 1.4782 68.0000 -0.6123
    endloop
endfacet
facet normal 0.0000 169.8695 0.0000
    outer loop
        vertex 0.0000 68.0000 0.0000
        vertex 1.5862 68.0000 -0.2088
        vertex 1.5454 68.0000 -0.4141
    endloop
endfacet
facet normal 0.0000 169.8695 0.0000
    outer loop
        vertex 0.0000 68.0000 0.0000
        vertex 1.6000 68.0000 0.0000
        vertex 1.5862 68.0000 -0.2088
    endloop
endfacet
endsolid GiantLegoRocks
