solid GiantLegoRocks
facet normal 0.0000 3.3508 0.0000
    outer loop
        vertex -19.2103 -4.5000 1.6321
        vertex -19.1855 -4.5000 1.8306
        vertex -16.5255 -4.5000 1.4981
    endloop
endfacet
facet normal 0.0000 3.3492 0.0000
    outer loop
        vertex -16.5255 -4.5000 1.4981
        vertex -16.5516 -4.5000 1.2998
        vertex -19.2103 -4.5000 1.6321
    endloop
endfacet
facet normal 0.0000 3.7417 0.0000
    outer loop
        vertex -13.5864 -4.5000 0.8897
        vertex -16.5516 -4.5000 1.2998
        vertex -16.5255 -4.5000 1.4981
    endloop
endfacet
facet normal 0.0000 3.7433 0.0000
    outer loop
        vertex -16.5255 -4.5000 1.4981
        vertex -13.5590 -4.5000 1.0878
        vertex -13.5864 -4.5000 0.8897
    endloop
endfacet
facet normal 0.7429 0.0000 -0.1028
    outer loop
        vertex -13.5590 -5.1000 1.0878
        vertex -13.5864 -5.1000 0.8897
        vertex -13.5864 -4.5000 0.8897
    endloop
endfacet
facet normal 0.7429 0.0000 -0.1028
    outer loop
        vertex -13.5864 -4.5000 0.8897
        vertex -13.5590 -4.5000 1.0878
        vertex -13.5590 -5.1000 1.0878
    endloop
endfacet
facet normal 0.0000 1.8050 0.0000
    outer loop
        vertex -12.1560 -5.1000 0.6918
        vertex -13.5864 -5.1000 0.8897
        vertex -13.5590 -5.1000 1.0878
    endloop
endfacet
facet normal 0.0000 1.8066 0.0000
    outer loop
        vertex -13.5590 -5.1000 1.0878
        vertex -12.1273 -5.1000 0.8898
        vertex -12.1560 -5.1000 0.6918
    endloop
endfacet
facet normal 0.0000 0.6770 0.0000
    outer loop
        vertex -12.1560 -5.1000 0.6918
        vertex -12.1273 -5.1000 0.8898
        vertex -11.5918 -5.1000 0.8085
    endloop
endfacet
facet normal 0.0000 0.6753 0.0000
    outer loop
        vertex -11.5918 -5.1000 0.8085
        vertex -11.6218 -5.1000 0.6108
        vertex -12.1560 -5.1000 0.6918
    endloop
endfacet
facet normal 0.0000 2.4999 0.0000
    outer loop
        vertex -5.6888 -5.1000 -0.3170
        vertex -7.6621 -5.1000 0.0087
        vertex -7.6296 -5.1000 0.2061
    endloop
endfacet
facet normal 0.0000 2.4999 0.0000
    outer loop
        vertex -7.6296 -5.1000 0.2061
        vertex -5.6563 -5.1000 -0.1197
        vertex -5.6888 -5.1000 -0.3170
    endloop
endfacet
facet normal -0.7400 0.0000 0.1222
    outer loop
        vertex -5.6888 -4.5000 -0.3170
        vertex -5.6888 -5.1000 -0.3170
        vertex -5.6563 -5.1000 -0.1197
    endloop
endfacet
facet normal -0.7400 0.0000 0.1222
    outer loop
        vertex -5.6563 -5.1000 -0.1197
        vertex -5.6563 -4.5000 -0.1197
        vertex -5.6888 -4.5000 -0.3170
    endloop
endfacet
facet normal 0.0000 2.9117 0.0000
    outer loop
        vertex -3.3905 -4.5000 -0.6965
        vertex -5.6888 -4.5000 -0.3170
        vertex -5.6563 -4.5000 -0.1197
    endloop
endfacet
facet normal 0.0000 2.9134 0.0000
    outer loop
        vertex -5.6563 -4.5000 -0.1197
        vertex -3.3566 -4.5000 -0.4994
        vertex -3.3905 -4.5000 -0.6965
    endloop
endfacet
facet normal 0.0000 3.6546 0.0000
    outer loop
        vertex -3.3905 -4.5000 -0.6965
        vertex -3.3566 -4.5000 -0.4994
        vertex -0.4784 -4.5000 -1.0134
    endloop
endfacet
facet normal 0.0000 3.6530 0.0000
    outer loop
        vertex -0.4784 -4.5000 -1.0134
        vertex -0.5136 -4.5000 -1.2103
        vertex -3.3905 -4.5000 -0.6965
    endloop
endfacet
facet normal 0.0000 5.0476 0.0000
    outer loop
        vertex -3.0179 -4.5000 1.4717
        vertex -2.9841 -4.5000 1.6688
        vertex 0.9912 -4.5000 0.9589
    endloop
endfacet
facet normal 0.0000 5.0460 0.0000
    outer loop
        vertex 0.9912 -4.5000 0.9589
        vertex 0.9561 -4.5000 0.7621
        vertex -3.0179 -4.5000 1.4717
    endloop
endfacet
facet normal 0.0000 2.9297 0.0000
    outer loop
        vertex -2.9841 -4.5000 1.6688
        vertex -3.0179 -4.5000 1.4717
        vertex -5.3305 -4.5000 1.8535
    endloop
endfacet
facet normal 0.0000 2.9314 0.0000
    outer loop
        vertex -5.3305 -4.5000 1.8535
        vertex -5.2979 -4.5000 2.0509
        vertex -2.9841 -4.5000 1.6688
    endloop
endfacet
facet normal -0.7400 0.0000 0.1222
    outer loop
        vertex -5.3305 -4.5000 1.8535
        vertex -5.3305 -5.1000 1.8535
        vertex -5.2979 -5.1000 2.0509
    endloop
endfacet
facet normal -0.7400 0.0000 0.1222
    outer loop
        vertex -5.2979 -5.1000 2.0509
        vertex -5.2979 -4.5000 2.0509
        vertex -5.3305 -4.5000 1.8535
    endloop
endfacet
facet normal 0.0000 2.5000 0.0000
    outer loop
        vertex -5.2979 -5.1000 2.0509
        vertex -5.3305 -5.1000 1.8535
        vertex -7.3038 -5.1000 2.1793
    endloop
endfacet
facet normal 0.0000 2.5000 0.0000
    outer loop
        vertex -7.3038 -5.1000 2.1793
        vertex -7.2712 -5.1000 2.3766
        vertex -5.2979 -5.1000 2.0509
    endloop
endfacet
facet normal 0.0000 0.6950 0.0000
    outer loop
        vertex -11.8403 -5.1000 2.8691
        vertex -11.8116 -5.1000 3.0670
        vertex -11.2619 -5.1000 2.9836
    endloop
endfacet
facet normal 0.0000 0.6933 0.0000
    outer loop
        vertex -11.2619 -5.1000 2.9836
        vertex -11.2919 -5.1000 2.7859
        vertex -11.8403 -5.1000 2.8691
    endloop
endfacet
facet normal 0.0000 1.8230 0.0000
    outer loop
        vertex -11.8116 -5.1000 3.0670
        vertex -11.8403 -5.1000 2.8691
        vertex -13.2850 -5.1000 3.0689
    endloop
endfacet
facet normal 0.0000 1.8246 0.0000
    outer loop
        vertex -13.2850 -5.1000 3.0689
        vertex -13.2576 -5.1000 3.2670
        vertex -11.8116 -5.1000 3.0670
    endloop
endfacet
facet normal 0.7429 0.0000 -0.1028
    outer loop
        vertex -13.2576 -5.1000 3.2670
        vertex -13.2850 -5.1000 3.0689
        vertex -13.2850 -4.5000 3.0689
    endloop
endfacet
facet normal 0.7429 0.0000 -0.1028
    outer loop
        vertex -13.2850 -4.5000 3.0689
        vertex -13.2576 -4.5000 3.2670
        vertex -13.2576 -5.1000 3.2670
    endloop
endfacet
facet normal 0.0000 3.7598 0.0000
    outer loop
        vertex -13.2576 -4.5000 3.2670
        vertex -13.2850 -4.5000 3.0689
        vertex -16.2645 -4.5000 3.4810
    endloop
endfacet
facet normal 0.0000 3.7614 0.0000
    outer loop
        vertex -16.2645 -4.5000 3.4810
        vertex -16.2384 -4.5000 3.6793
        vertex -13.2576 -4.5000 3.2670
    endloop
endfacet
facet normal 0.0000 4.7438 0.0000
    outer loop
        vertex -20.0290 -4.5000 3.9515
        vertex -20.0042 -4.5000 4.1500
        vertex -16.2384 -4.5000 3.6793
    endloop
endfacet
facet normal 0.0000 4.7421 0.0000
    outer loop
        vertex -16.2384 -4.5000 3.6793
        vertex -16.2645 -4.5000 3.4810
        vertex -20.0290 -4.5000 3.9515
    endloop
endfacet
facet normal 2.0919 -0.0000 -0.3736
    outer loop
        vertex 0.9912 -6.4000 0.9589
        vertex 0.9561 -6.2000 0.7621
        vertex 0.9561 -4.5000 0.7621
    endloop
endfacet
facet normal 2.3380 -0.0000 -0.4175
    outer loop
        vertex 0.9561 -4.5000 0.7621
        vertex 0.9912 -4.5000 0.9589
        vertex 0.9912 -6.4000 0.9589
    endloop
endfacet
facet normal 0.9844 0.0000 -0.1758
    outer loop
        vertex 0.5693 -6.4000 -1.4036
        vertex 0.5693 -5.6000 -1.4036
        vertex 0.6045 -5.6000 -1.2067
    endloop
endfacet
facet normal 0.7383 0.0000 -0.1318
    outer loop
        vertex 0.6045 -5.6000 -1.2067
        vertex 0.6045 -6.2000 -1.2068
        vertex 0.5693 -6.4000 -1.4036
    endloop
endfacet
facet normal 2.4610 0.0000 -0.4395
    outer loop
        vertex 0.5693 -6.4000 -1.4036
        vertex 0.6045 -6.2000 -1.2068
        vertex 0.9561 -6.2000 0.7621
    endloop
endfacet
facet normal 2.9532 -0.0000 -0.5274
    outer loop
        vertex 0.9561 -6.2000 0.7621
        vertex 0.9912 -6.4000 0.9589
        vertex 0.5693 -6.4000 -1.4036
    endloop
endfacet
facet normal -0.9923 0.0000 0.1240
    outer loop
        vertex -20.2770 -5.6000 1.9670
        vertex -20.3018 -5.6000 1.7686
        vertex -20.3018 -6.4000 1.7686
    endloop
endfacet
facet normal -0.7442 0.0000 0.0930
    outer loop
        vertex -20.3018 -6.4000 1.7686
        vertex -20.2770 -6.2000 1.9670
        vertex -20.2770 -5.6000 1.9670
    endloop
endfacet
facet normal -2.4806 -0.0000 0.3101
    outer loop
        vertex -20.0290 -6.2000 3.9515
        vertex -20.2770 -6.2000 1.9670
        vertex -20.3018 -6.4000 1.7686
    endloop
endfacet
facet normal -2.9768 -0.0000 0.3721
    outer loop
        vertex -20.3018 -6.4000 1.7686
        vertex -20.0042 -6.4000 4.1500
        vertex -20.0290 -6.2000 3.9515
    endloop
endfacet
facet normal -2.1085 0.0000 0.2636
    outer loop
        vertex -20.0290 -4.5000 3.9515
        vertex -20.0290 -6.2000 3.9515
        vertex -20.0042 -6.4000 4.1500
    endloop
endfacet
facet normal -2.3566 0.0000 0.2946
    outer loop
        vertex -20.0042 -6.4000 4.1500
        vertex -20.0042 -4.5000 4.1500
        vertex -20.0290 -4.5000 3.9515
    endloop
endfacet
facet normal -1.3644 1.3750 0.1705
    outer loop
        vertex -19.2103 -4.5000 1.6321
        vertex -20.3018 -5.6000 1.7686
        vertex -20.2770 -5.6000 1.9670
    endloop
endfacet
facet normal -1.3644 1.3750 0.1705
    outer loop
        vertex -20.2770 -5.6000 1.9670
        vertex -19.1855 -4.5000 1.8306
        vertex -19.2103 -4.5000 1.6321
    endloop
endfacet
facet normal 1.3536 1.3750 -0.2417
    outer loop
        vertex 0.5693 -5.6000 -1.4036
        vertex -0.5136 -4.5000 -1.2103
        vertex -0.4784 -4.5000 -1.0134
    endloop
endfacet
facet normal 1.3536 1.3750 -0.2417
    outer loop
        vertex -0.4784 -4.5000 -1.0134
        vertex 0.6045 -5.6000 -1.2067
        vertex 0.5693 -5.6000 -1.4036
    endloop
endfacet
facet normal 0.5116 0.0000 4.0931
    outer loop
        vertex -20.2770 -5.6000 1.9670
        vertex -20.2770 -6.2000 1.9670
        vertex -19.1855 -4.5000 1.8306
    endloop
endfacet
facet normal 4.9825 -0.0000 39.8599
    outer loop
        vertex -19.1855 -4.5000 1.8306
        vertex -20.2770 -6.2000 1.9670
        vertex -16.5255 -6.2000 1.4981
    endloop
endfacet
facet normal 3.5328 0.0000 28.2626
    outer loop
        vertex -16.5255 -6.2000 1.4981
        vertex -16.5255 -4.5000 1.4981
        vertex -19.1855 -4.5000 1.8306
    endloop
endfacet
facet normal 4.3596 0.0000 31.5192
    outer loop
        vertex -13.5590 -4.5000 1.0878
        vertex -16.5255 -4.5000 1.4981
        vertex -16.5255 -6.2000 1.4981
    endloop
endfacet
facet normal 1.5387 0.0000 11.1244
    outer loop
        vertex -16.5255 -6.2000 1.4981
        vertex -13.5590 -5.1000 1.0878
        vertex -13.5590 -4.5000 1.0878
    endloop
endfacet
facet normal 4.1824 -0.0000 30.2377
    outer loop
        vertex -13.5590 -5.1000 1.0878
        vertex -16.5255 -6.2000 1.4981
        vertex -12.1273 -6.2000 0.8898
    endloop
endfacet
facet normal 1.3614 0.0000 9.8429
    outer loop
        vertex -12.1273 -6.2000 0.8898
        vertex -12.1273 -5.1000 0.8898
        vertex -13.5590 -5.1000 1.0878
    endloop
endfacet
facet normal 0.0508 0.0000 0.3347
    outer loop
        vertex -11.5918 -5.2000 0.8085
        vertex -11.5918 -5.1000 0.8085
        vertex -12.1273 -5.1000 0.8898
    endloop
endfacet
facet normal 0.5584 0.0000 3.6812
    outer loop
        vertex -12.1273 -5.1000 0.8898
        vertex -12.1273 -6.2000 0.8898
        vertex -11.5918 -5.2000 0.8085
    endloop
endfacet
facet normal 4.1617 -0.0000 27.4367
    outer loop
        vertex -11.5918 -5.2000 0.8085
        vertex -12.1273 -6.2000 0.8898
        vertex -7.7374 -6.2000 0.2239
    endloop
endfacet
facet normal 3.6540 0.0000 24.0901
    outer loop
        vertex -7.7374 -6.2000 0.2239
        vertex -7.7374 -5.2000 0.2239
        vertex -11.5918 -5.2000 0.8085
    endloop
endfacet
facet normal 0.1113 0.0000 0.6742
    outer loop
        vertex -7.6296 -5.2000 0.2061
        vertex -7.7374 -5.2000 0.2239
        vertex -7.7374 -6.2000 0.2239
    endloop
endfacet
facet normal 4.5204 0.0000 27.3799
    outer loop
        vertex -7.7374 -6.2000 0.2239
        vertex -3.3566 -6.2000 -0.4994
        vertex -7.6296 -5.2000 0.2061
    endloop
endfacet
facet normal 0.4409 0.0000 2.6706
    outer loop
        vertex -7.6296 -5.1000 0.2061
        vertex -7.6296 -5.2000 0.2061
        vertex -3.3566 -6.2000 -0.4994
    endloop
endfacet
facet normal 2.2398 -0.0000 13.5663
    outer loop
        vertex -3.3566 -6.2000 -0.4994
        vertex -5.6563 -5.1000 -0.1197
        vertex -7.6296 -5.1000 0.2061
    endloop
endfacet
facet normal 1.4238 0.0000 8.6236
    outer loop
        vertex -3.3566 -4.5000 -0.4994
        vertex -5.6563 -4.5000 -0.1197
        vertex -5.6563 -5.1000 -0.1197
    endloop
endfacet
facet normal 4.0340 0.0000 24.4334
    outer loop
        vertex -5.6563 -5.1000 -0.1197
        vertex -3.3566 -6.2000 -0.4994
        vertex -3.3566 -4.5000 -0.4994
    endloop
endfacet
facet normal 5.4611 0.0000 30.5814
    outer loop
        vertex -0.4784 -4.5000 -1.0134
        vertex -3.3566 -4.5000 -0.4994
        vertex -3.3566 -6.2000 -0.4994
    endloop
endfacet
facet normal 7.5158 0.0000 42.0868
    outer loop
        vertex -3.3566 -6.2000 -0.4994
        vertex 0.6045 -6.2000 -1.2068
        vertex -0.4784 -4.5000 -1.0134
    endloop
endfacet
facet normal 0.7251 -0.0000 4.0608
    outer loop
        vertex 0.6045 -6.2000 -1.2068
        vertex 0.6045 -5.6000 -1.2067
        vertex -0.4784 -4.5000 -1.0134
    endloop
endfacet
facet normal -7.5402 -0.0000 -42.2238
    outer loop
        vertex 0.9561 -4.5000 0.7621
        vertex 0.9561 -6.2000 0.7621
        vertex -3.0179 -6.2000 1.4717
    endloop
endfacet
facet normal -7.5402 0.0000 -42.2238
    outer loop
        vertex -3.0179 -6.2000 1.4717
        vertex -3.0179 -4.5000 1.4717
        vertex 0.9561 -4.5000 0.7621
    endloop
endfacet
facet normal -4.0566 0.0000 -24.5707
    outer loop
        vertex -3.0179 -4.5000 1.4717
        vertex -3.0179 -6.2000 1.4717
        vertex -5.3305 -5.1000 1.8535
    endloop
endfacet
facet normal -1.4318 0.0000 -8.6720
    outer loop
        vertex -5.3305 -5.1000 1.8535
        vertex -5.3305 -4.5000 1.8535
        vertex -3.0179 -4.5000 1.4717
    endloop
endfacet
facet normal -4.9997 0.0000 -39.9979
    outer loop
        vertex -16.2645 -4.5000 3.4810
        vertex -16.2645 -6.2000 3.4810
        vertex -20.0290 -6.2000 3.9515
    endloop
endfacet
facet normal -4.9997 0.0000 -39.9979
    outer loop
        vertex -20.0290 -6.2000 3.9515
        vertex -20.0290 -4.5000 3.9515
        vertex -16.2645 -4.5000 3.4810
    endloop
endfacet
facet normal -2.4784 0.0000 -15.0117
    outer loop
        vertex -5.3305 -5.1000 1.8535
        vertex -3.0179 -6.2000 1.4717
        vertex -7.3038 -5.2000 2.1793
    endloop
endfacet
facet normal -0.2036 0.0000 -1.2333
    outer loop
        vertex -7.3038 -5.2000 2.1793
        vertex -7.3038 -5.1000 2.1793
        vertex -5.3305 -5.1000 1.8535
    endloop
endfacet
facet normal -0.1246 -0.0000 -0.7550
    outer loop
        vertex -7.4246 -5.2000 2.1993
        vertex -7.3038 -5.2000 2.1793
        vertex -3.0179 -6.2000 1.4717
    endloop
endfacet
facet normal -4.5471 0.0000 -27.5413
    outer loop
        vertex -3.0179 -6.2000 1.4717
        vertex -7.4246 -6.2000 2.1993
        vertex -7.4246 -5.2000 2.1993
    endloop
endfacet
facet normal -3.6663 0.0000 -24.1710
    outer loop
        vertex -11.2919 -5.2000 2.7859
        vertex -7.4246 -5.2000 2.1993
        vertex -7.4246 -6.2000 2.1993
    endloop
endfacet
facet normal -4.1862 -0.0000 -27.5985
    outer loop
        vertex -7.4246 -6.2000 2.1993
        vertex -11.8403 -6.2000 2.8691
        vertex -11.2919 -5.2000 2.7859
    endloop
endfacet
facet normal -0.5719 0.0000 -3.7702
    outer loop
        vertex -11.2919 -5.2000 2.7859
        vertex -11.8403 -6.2000 2.8691
        vertex -11.8403 -5.1000 2.8691
    endloop
endfacet
facet normal -0.0520 0.0000 -0.3427
    outer loop
        vertex -11.8403 -5.1000 2.8691
        vertex -11.2919 -5.1000 2.7859
        vertex -11.2919 -5.2000 2.7859
    endloop
endfacet
facet normal -1.3738 0.0000 -9.9321
    outer loop
        vertex -13.2850 -5.1000 3.0689
        vertex -11.8403 -5.1000 2.8691
        vertex -11.8403 -6.2000 2.8691
    endloop
endfacet
facet normal -4.2070 0.0000 -30.4160
    outer loop
        vertex -11.8403 -6.2000 2.8691
        vertex -16.2645 -6.2000 3.4810
        vertex -13.2850 -5.1000 3.0689
    endloop
endfacet
facet normal -4.3787 0.0000 -31.6569
    outer loop
        vertex -13.2850 -5.1000 3.0689
        vertex -16.2645 -6.2000 3.4810
        vertex -16.2645 -4.5000 3.4810
    endloop
endfacet
facet normal -1.5454 0.0000 -11.1730
    outer loop
        vertex -16.2645 -4.5000 3.4810
        vertex -13.2850 -4.5000 3.0689
        vertex -13.2850 -5.1000 3.0689
    endloop
endfacet
facet normal 0.0000 -56.6898 0.0000
    outer loop
        vertex -20.0042 -6.4000 4.1500
        vertex -20.3018 -6.4000 1.7686
        vertex -16.5516 -6.4000 1.2998
    endloop
endfacet
facet normal 0.0000 -56.9254 0.0000
    outer loop
        vertex -16.5516 -6.4000 1.2998
        vertex -16.2384 -6.4000 3.6793
        vertex -20.0042 -6.4000 4.1500
    endloop
endfacet
facet normal 0.0000 -67.0318 0.0000
    outer loop
        vertex -12.1560 -6.4000 0.6918
        vertex -11.8116 -6.4000 3.0670
        vertex -16.2384 -6.4000 3.6793
    endloop
endfacet
facet normal 0.0000 -66.5606 0.0000
    outer loop
        vertex -16.2384 -6.4000 3.6793
        vertex -16.5516 -6.4000 1.2998
        vertex -12.1560 -6.4000 0.6918
    endloop
endfacet
facet normal 0.0000 -66.5606 0.0000
    outer loop
        vertex -11.8116 -6.4000 3.0670
        vertex -12.1560 -6.4000 0.6918
        vertex -7.7687 -6.4000 0.0263
    endloop
endfacet
facet normal 0.0000 -67.0318 0.0000
    outer loop
        vertex -7.7687 -6.4000 0.0263
        vertex -7.3933 -6.4000 2.3968
        vertex -11.8116 -6.4000 3.0670
    endloop
endfacet
facet normal 0.0000 -66.5606 0.0000
    outer loop
        vertex -7.3933 -6.4000 2.3968
        vertex -7.7687 -6.4000 0.0263
        vertex -3.3905 -6.4000 -0.6965
    endloop
endfacet
facet normal 0.0000 -67.0318 0.0000
    outer loop
        vertex -3.3905 -6.4000 -0.6965
        vertex -2.9841 -6.4000 1.6688
        vertex -7.3933 -6.4000 2.3968
    endloop
endfacet
facet normal 0.0000 -60.3358 0.0000
    outer loop
        vertex -2.9841 -6.4000 1.6688
        vertex -3.3905 -6.4000 -0.6965
        vertex 0.5693 -6.4000 -1.4036
    endloop
endfacet
facet normal 0.0000 -60.5714 0.0000
    outer loop
        vertex 0.5693 -6.4000 -1.4036
        vertex 0.9912 -6.4000 0.9589
        vertex -2.9841 -6.4000 1.6688
    endloop
endfacet
facet normal 8.4300 0.0000 47.2066
    outer loop
        vertex -2.9841 -6.4000 1.6688
        vertex 0.9912 -6.4000 0.9589
        vertex 0.9912 -4.5000 0.9589
    endloop
endfacet
facet normal 8.4300 0.0000 47.2066
    outer loop
        vertex 0.9912 -4.5000 0.9589
        vertex -2.9841 -4.5000 1.6688
        vertex -2.9841 -6.4000 1.6688
    endloop
endfacet
facet normal 4.5364 0.0000 27.4767
    outer loop
        vertex -2.9841 -6.4000 1.6688
        vertex -2.9841 -4.5000 1.6688
        vertex -5.2979 -4.5000 2.0509
    endloop
endfacet
facet normal 1.4326 0.0000 8.6768
    outer loop
        vertex -5.2979 -4.5000 2.0509
        vertex -5.2979 -5.1000 2.0509
        vertex -2.9841 -6.4000 1.6688
    endloop
endfacet
facet normal 2.6471 -0.0000 16.0330
    outer loop
        vertex -2.9841 -6.4000 1.6688
        vertex -5.2979 -5.1000 2.0509
        vertex -7.2712 -5.1000 2.3766
    endloop
endfacet
facet normal 5.9147 -0.0000 35.8247
    outer loop
        vertex -7.2712 -5.1000 2.3766
        vertex -7.3933 -6.4000 2.3968
        vertex -2.9841 -6.4000 1.6688
    endloop
endfacet
facet normal 0.0126 0.0000 0.0763
    outer loop
        vertex -7.3933 -6.4000 2.3968
        vertex -7.2712 -5.1000 2.3766
        vertex -7.2712 -5.0000 2.3766
    endloop
endfacet
facet normal 0.1764 0.0000 1.0682
    outer loop
        vertex -7.2712 -5.0000 2.3766
        vertex -7.3933 -5.0000 2.3968
        vertex -7.3933 -6.4000 2.3968
    endloop
endfacet
facet normal 5.5899 0.0000 44.7189
    outer loop
        vertex -20.0042 -6.4000 4.1500
        vertex -16.2384 -6.4000 3.6793
        vertex -16.2384 -4.5000 3.6793
    endloop
endfacet
facet normal 5.5899 0.0000 44.7189
    outer loop
        vertex -16.2384 -4.5000 3.6793
        vertex -20.0042 -4.5000 4.1500
        vertex -20.0042 -6.4000 4.1500
    endloop
endfacet
facet normal -0.6822 0.0000 -5.4575
    outer loop
        vertex -20.3018 -6.4000 1.7686
        vertex -20.3018 -5.6000 1.7686
        vertex -19.2103 -4.5000 1.6321
    endloop
endfacet
facet normal -5.5667 -0.0000 -44.5338
    outer loop
        vertex -16.5516 -6.4000 1.2998
        vertex -20.3018 -6.4000 1.7686
        vertex -19.2103 -4.5000 1.6321
    endloop
endfacet
facet normal -3.9465 0.0000 -31.5722
    outer loop
        vertex -19.2103 -4.5000 1.6321
        vertex -16.5516 -4.5000 1.2998
        vertex -16.5516 -6.4000 1.2998
    endloop
endfacet
facet normal -4.8704 0.0000 -35.2119
    outer loop
        vertex -16.5516 -6.4000 1.2998
        vertex -16.5516 -4.5000 1.2998
        vertex -13.5864 -4.5000 0.8897
    endloop
endfacet
facet normal -1.5380 0.0000 -11.1196
    outer loop
        vertex -13.5864 -4.5000 0.8897
        vertex -13.5864 -5.1000 0.8897
        vertex -16.5516 -6.4000 1.2998
    endloop
endfacet
facet normal -4.9399 0.0001 -35.7144
    outer loop
        vertex -12.1560 -6.4000 0.6918
        vertex -16.5516 -6.4000 1.2998
        vertex -13.5864 -5.1000 0.8897
    endloop
endfacet
facet normal -1.6075 0.0000 -11.6220
    outer loop
        vertex -13.5864 -5.1000 0.8897
        vertex -12.1560 -5.1000 0.6918
        vertex -12.1560 -6.4000 0.6918
    endloop
endfacet
facet normal -0.6583 0.0000 -4.3400
    outer loop
        vertex -12.1560 -6.4000 0.6918
        vertex -12.1560 -5.1000 0.6918
        vertex -11.6218 -5.1000 0.6108
    endloop
endfacet
facet normal -5.4070 -0.0000 -35.6467
    outer loop
        vertex -11.6218 -5.1000 0.6108
        vertex -7.7687 -6.4000 0.0263
        vertex -12.1560 -6.4000 0.6918
    endloop
endfacet
facet normal -0.3653 0.0000 -2.4082
    outer loop
        vertex -11.6218 -5.1000 0.6108
        vertex -11.6218 -5.0000 0.6108
        vertex -7.7687 -5.0000 0.0263
    endloop
endfacet
facet normal -5.1139 0.0000 -33.7148
    outer loop
        vertex -7.7687 -5.0000 0.0263
        vertex -7.7687 -6.4000 0.0263
        vertex -11.6218 -5.1000 0.6108
    endloop
endfacet
facet normal -0.0110 -0.0000 -0.0666
    outer loop
        vertex -7.7687 -5.0000 0.0263
        vertex -7.6621 -5.0000 0.0087
        vertex -7.6621 -5.1000 0.0087
    endloop
endfacet
facet normal -0.1540 0.0000 -0.9326
    outer loop
        vertex -7.6621 -5.1000 0.0087
        vertex -7.7687 -6.4000 0.0263
        vertex -7.7687 -5.0000 0.0263
    endloop
endfacet
facet normal -2.6470 -0.0000 -16.0330
    outer loop
        vertex -7.7687 -6.4000 0.0263
        vertex -7.6621 -5.1000 0.0087
        vertex -5.6888 -5.1000 -0.3170
    endloop
endfacet
facet normal -5.8731 0.0000 -35.5729
    outer loop
        vertex -5.6888 -5.1000 -0.3170
        vertex -3.3905 -6.4000 -0.6965
        vertex -7.7687 -6.4000 0.0263
    endloop
endfacet
facet normal -4.5060 0.0000 -27.2926
    outer loop
        vertex -3.3905 -4.5000 -0.6965
        vertex -3.3905 -6.4000 -0.6965
        vertex -5.6888 -5.1000 -0.3170
    endloop
endfacet
facet normal -1.4230 0.0000 -8.6187
    outer loop
        vertex -5.6888 -5.1000 -0.3170
        vertex -5.6888 -4.5000 -0.3170
        vertex -3.3905 -4.5000 -0.6965
    endloop
endfacet
facet normal -6.1009 0.0000 -34.1639
    outer loop
        vertex -3.3905 -6.4000 -0.6965
        vertex -3.3905 -4.5000 -0.6965
        vertex -0.5136 -4.5000 -1.2103
    endloop
endfacet
facet normal -8.3972 0.0000 -47.0229
    outer loop
        vertex -0.5136 -4.5000 -1.2103
        vertex 0.5693 -6.4000 -1.4036
        vertex -3.3905 -6.4000 -0.6965
    endloop
endfacet
facet normal -0.9669 0.0000 -5.4143
    outer loop
        vertex 0.5693 -5.6000 -1.4036
        vertex 0.5693 -6.4000 -1.4036
        vertex -0.5136 -4.5000 -1.2103
    endloop
endfacet
facet normal 0.0000 50.4598 0.0000
    outer loop
        vertex -3.3566 -6.2000 -0.4994
        vertex -3.0179 -6.2000 1.4717
        vertex 0.9561 -6.2000 0.7621
    endloop
endfacet
facet normal 0.0000 50.2962 0.0000
    outer loop
        vertex 0.9561 -6.2000 0.7621
        vertex 0.6045 -6.2000 -1.2068
        vertex -3.3566 -6.2000 -0.4994
    endloop
endfacet
facet normal 0.0000 55.8271 0.0000
    outer loop
        vertex -7.4246 -6.2000 2.1993
        vertex -3.0179 -6.2000 1.4717
        vertex -3.3566 -6.2000 -0.4994
    endloop
endfacet
facet normal 0.0000 55.4999 0.0000
    outer loop
        vertex -3.3566 -6.2000 -0.4994
        vertex -7.7374 -6.2000 0.2239
        vertex -7.4246 -6.2000 2.1993
    endloop
endfacet
facet normal 0.0000 55.8271 0.0000
    outer loop
        vertex -11.8403 -6.2000 2.8691
        vertex -7.4246 -6.2000 2.1993
        vertex -7.7374 -6.2000 0.2239
    endloop
endfacet
facet normal 0.0000 55.4999 0.0000
    outer loop
        vertex -7.7374 -6.2000 0.2239
        vertex -12.1273 -6.2000 0.8898
        vertex -11.8403 -6.2000 2.8691
    endloop
endfacet
facet normal 0.0000 55.8271 0.0000
    outer loop
        vertex -16.2645 -6.2000 3.4810
        vertex -11.8403 -6.2000 2.8691
        vertex -12.1273 -6.2000 0.8898
    endloop
endfacet
facet normal 0.0000 55.4999 0.0000
    outer loop
        vertex -12.1273 -6.2000 0.8898
        vertex -16.5255 -6.2000 1.4981
        vertex -16.2645 -6.2000 3.4810
    endloop
endfacet
facet normal 0.0000 47.4215 0.0000
    outer loop
        vertex -20.2770 -6.2000 1.9670
        vertex -20.0290 -6.2000 3.9515
        vertex -16.2645 -6.2000 3.4810
    endloop
endfacet
facet normal 0.0000 47.2579 0.0000
    outer loop
        vertex -16.2645 -6.2000 3.4810
        vertex -16.5255 -6.2000 1.4981
        vertex -20.2770 -6.2000 1.9670
    endloop
endfacet
facet normal 5.1345 0.0000 33.8507
    outer loop
        vertex -11.2619 -5.1000 2.9836
        vertex -7.3933 -6.4000 2.3968
        vertex -7.3933 -5.0000 2.3968
    endloop
endfacet
facet normal 0.3668 0.0000 2.4179
    outer loop
        vertex -7.3933 -5.0000 2.3968
        vertex -11.2619 -5.0000 2.9836
        vertex -11.2619 -5.1000 2.9836
    endloop
endfacet
facet normal 0.6774 0.0000 4.4662
    outer loop
        vertex -7.3933 -6.4000 2.3968
        vertex -11.2619 -5.1000 2.9836
        vertex -11.8116 -5.1000 3.0670
    endloop
endfacet
facet normal 5.4452 0.0000 35.8991
    outer loop
        vertex -11.8116 -5.1000 3.0670
        vertex -11.8116 -6.4000 3.0670
        vertex -7.3933 -6.4000 2.3968
    endloop
endfacet
facet normal 1.6250 0.0000 11.7485
    outer loop
        vertex -11.8116 -6.4000 3.0670
        vertex -11.8116 -5.1000 3.0670
        vertex -13.2576 -5.1000 3.2670
    endloop
endfacet
facet normal 4.9749 -0.0001 35.9673
    outer loop
        vertex -13.2576 -5.1000 3.2670
        vertex -16.2384 -6.4000 3.6793
        vertex -11.8116 -6.4000 3.0670
    endloop
endfacet
facet normal 1.5461 0.0000 11.1779
    outer loop
        vertex -16.2384 -6.4000 3.6793
        vertex -13.2576 -5.1000 3.2670
        vertex -13.2576 -4.5000 3.2670
    endloop
endfacet
facet normal 4.8959 0.0000 35.3967
    outer loop
        vertex -13.2576 -4.5000 3.2670
        vertex -16.2384 -4.5000 3.6793
        vertex -16.2384 -6.4000 3.6793
    endloop
endfacet
facet normal 0.0000 0.5401 0.0000
    outer loop
        vertex -7.6621 -5.0000 0.0087
        vertex -7.7687 -5.0000 0.0263
        vertex -7.6436 -5.0000 0.8165
    endloop
endfacet
facet normal 0.0000 0.5663 0.0000
    outer loop
        vertex -7.6436 -5.0000 0.8165
        vertex -7.5318 -5.0000 0.7980
        vertex -7.6621 -5.0000 0.0087
    endloop
endfacet
facet normal 0.0000 19.5117 0.0000
    outer loop
        vertex -11.5019 -5.0000 1.4017
        vertex -7.6436 -5.0000 0.8165
        vertex -7.7687 -5.0000 0.0263
    endloop
endfacet
facet normal 0.0000 19.4856 0.0000
    outer loop
        vertex -7.7687 -5.0000 0.0263
        vertex -11.6218 -5.0000 0.6108
        vertex -11.5019 -5.0000 1.4017
    endloop
endfacet
facet normal 0.0000 0.6187 0.0000
    outer loop
        vertex -7.3933 -5.0000 2.3968
        vertex -7.2712 -5.0000 2.3766
        vertex -7.4015 -5.0000 1.5873
    endloop
endfacet
facet normal 0.0000 0.5925 0.0000
    outer loop
        vertex -7.4015 -5.0000 1.5873
        vertex -7.5184 -5.0000 1.6066
        vertex -7.3933 -5.0000 2.3968
    endloop
endfacet
facet normal 0.0000 19.5379 0.0000
    outer loop
        vertex -7.3933 -5.0000 2.3968
        vertex -7.5184 -5.0000 1.6066
        vertex -11.3819 -5.0000 2.1927
    endloop
endfacet
facet normal 0.0000 19.5641 0.0000
    outer loop
        vertex -11.3819 -5.0000 2.1927
        vertex -11.2619 -5.0000 2.9836
        vertex -7.3933 -5.0000 2.3968
    endloop
endfacet
facet normal -0.7325 0.0000 -4.8293
    outer loop
        vertex -7.5184 -5.2000 1.6066
        vertex -11.3819 -5.2000 2.1927
        vertex -11.3819 -5.0000 2.1927
    endloop
endfacet
facet normal -0.7325 0.0000 -4.8293
    outer loop
        vertex -11.3819 -5.0000 2.1927
        vertex -7.5184 -5.0000 1.6066
        vertex -7.5184 -5.2000 1.6066
    endloop
endfacet
facet normal -0.0241 0.0000 -0.1461
    outer loop
        vertex -7.4015 -5.2000 1.5873
        vertex -7.5184 -5.2000 1.6066
        vertex -7.5184 -5.0000 1.6066
    endloop
endfacet
facet normal -0.0241 0.0000 -0.1461
    outer loop
        vertex -7.5184 -5.0000 1.6066
        vertex -7.4015 -5.0000 1.5873
        vertex -7.4015 -5.2000 1.5873
    endloop
endfacet
facet normal 0.0231 0.0000 0.1397
    outer loop
        vertex -7.6436 -5.0000 0.8165
        vertex -7.6436 -5.2000 0.8165
        vertex -7.5318 -5.2000 0.7980
    endloop
endfacet
facet normal 0.0231 0.0000 0.1397
    outer loop
        vertex -7.5318 -5.2000 0.7980
        vertex -7.5318 -5.0000 0.7980
        vertex -7.6436 -5.0000 0.8165
    endloop
endfacet
facet normal 0.7315 0.0000 4.8229
    outer loop
        vertex -11.5019 -5.2000 1.4017
        vertex -7.6436 -5.2000 0.8165
        vertex -7.6436 -5.0000 0.8165
    endloop
endfacet
facet normal 0.7315 0.0000 4.8229
    outer loop
        vertex -7.6436 -5.0000 0.8165
        vertex -11.5019 -5.0000 1.4017
        vertex -11.5019 -5.2000 1.4017
    endloop
endfacet
facet normal 0.1233 0.0000 -0.0204
    outer loop
        vertex -7.2712 -5.0000 2.3766
        vertex -7.2712 -5.1000 2.3766
        vertex -7.3038 -5.1000 2.1793
    endloop
endfacet
facet normal 0.4933 -0.0000 -0.0814
    outer loop
        vertex -7.3038 -5.1000 2.1793
        vertex -7.4015 -5.0000 1.5873
        vertex -7.2712 -5.0000 2.3766
    endloop
endfacet
facet normal 0.7400 0.0000 -0.1222
    outer loop
        vertex -7.4015 -5.2000 1.5873
        vertex -7.4015 -5.0000 1.5873
        vertex -7.3038 -5.1000 2.1793
    endloop
endfacet
facet normal 0.3700 0.0000 -0.0611
    outer loop
        vertex -7.3038 -5.1000 2.1793
        vertex -7.3038 -5.2000 2.1793
        vertex -7.4015 -5.2000 1.5873
    endloop
endfacet
facet normal -0.1236 0.0000 0.0187
    outer loop
        vertex -11.2919 -5.1000 2.7859
        vertex -11.2619 -5.1000 2.9836
        vertex -11.2619 -5.0000 2.9836
    endloop
endfacet
facet normal -0.4943 0.0000 0.0750
    outer loop
        vertex -11.2619 -5.0000 2.9836
        vertex -11.3819 -5.0000 2.1927
        vertex -11.2919 -5.1000 2.7859
    endloop
endfacet
facet normal -0.7415 0.0000 0.1125
    outer loop
        vertex -11.2919 -5.1000 2.7859
        vertex -11.3819 -5.0000 2.1927
        vertex -11.3819 -5.2000 2.1927
    endloop
endfacet
facet normal -0.3708 0.0000 0.0562
    outer loop
        vertex -11.3819 -5.2000 2.1927
        vertex -11.2919 -5.2000 2.7859
        vertex -11.2919 -5.1000 2.7859
    endloop
endfacet
facet normal 0.0000 -14.6682 0.0000
    outer loop
        vertex -7.4246 -5.2000 2.1993
        vertex -11.2919 -5.2000 2.7859
        vertex -11.3819 -5.2000 2.1927
    endloop
endfacet
facet normal 0.0000 -14.6535 0.0000
    outer loop
        vertex -11.3819 -5.2000 2.1927
        vertex -7.5184 -5.2000 1.6066
        vertex -7.4246 -5.2000 2.1993
    endloop
endfacet
facet normal 0.0000 -0.4591 0.0000
    outer loop
        vertex -7.4015 -5.2000 1.5873
        vertex -7.3038 -5.2000 2.1793
        vertex -7.4246 -5.2000 2.1993
    endloop
endfacet
facet normal 0.0000 -0.4444 0.0000
    outer loop
        vertex -7.4246 -5.2000 2.1993
        vertex -7.5184 -5.2000 1.6066
        vertex -7.4015 -5.2000 1.5873
    endloop
endfacet
facet normal -0.1236 0.0000 0.0187
    outer loop
        vertex -11.6218 -5.0000 0.6108
        vertex -11.6218 -5.1000 0.6108
        vertex -11.5918 -5.1000 0.8085
    endloop
endfacet
facet normal -0.4943 0.0000 0.0750
    outer loop
        vertex -11.5918 -5.1000 0.8085
        vertex -11.5019 -5.0000 1.4017
        vertex -11.6218 -5.0000 0.6108
    endloop
endfacet
facet normal -0.7415 0.0000 0.1125
    outer loop
        vertex -11.5918 -5.2000 0.8085
        vertex -11.5019 -5.2000 1.4017
        vertex -11.5019 -5.0000 1.4017
    endloop
endfacet
facet normal -0.3708 0.0000 0.0562
    outer loop
        vertex -11.5019 -5.0000 1.4017
        vertex -11.5918 -5.1000 0.8085
        vertex -11.5918 -5.2000 0.8085
    endloop
endfacet
facet normal 0.1233 0.0000 -0.0204
    outer loop
        vertex -7.6296 -5.1000 0.2061
        vertex -7.6621 -5.1000 0.0087
        vertex -7.6621 -5.0000 0.0087
    endloop
endfacet
facet normal 0.4933 0.0000 -0.0814
    outer loop
        vertex -7.6621 -5.0000 0.0087
        vertex -7.5318 -5.0000 0.7980
        vertex -7.6296 -5.1000 0.2061
    endloop
endfacet
facet normal 0.3700 0.0000 -0.0611
    outer loop
        vertex -7.6296 -5.2000 0.2061
        vertex -7.6296 -5.1000 0.2061
        vertex -7.5318 -5.0000 0.7980
    endloop
endfacet
facet normal 0.7400 0.0000 -0.1222
    outer loop
        vertex -7.5318 -5.0000 0.7980
        vertex -7.5318 -5.2000 0.7980
        vertex -7.6296 -5.2000 0.2061
    endloop
endfacet
facet normal 0.0000 -0.4100 0.0000
    outer loop
        vertex -7.6436 -5.2000 0.8165
        vertex -7.7374 -5.2000 0.2239
        vertex -7.6296 -5.2000 0.2061
    endloop
endfacet
facet normal 0.0000 -0.4247 0.0000
    outer loop
        vertex -7.6296 -5.2000 0.2061
        vertex -7.5318 -5.2000 0.7980
        vertex -7.6436 -5.2000 0.8165
    endloop
endfacet
facet normal 0.0000 -14.6191 0.0000
    outer loop
        vertex -11.5918 -5.2000 0.8085
        vertex -7.7374 -5.2000 0.2239
        vertex -7.6436 -5.2000 0.8165
    endloop
endfacet
facet normal 0.0000 -14.6338 0.0000
    outer loop
        vertex -7.6436 -5.2000 0.8165
        vertex -11.5019 -5.2000 1.4017
        vertex -11.5918 -5.2000 0.8085
    endloop
endfacet
endsolid GiantLegoRocks
