solid GiantLegoRocks
facet normal 2.5013 0.0000 0.1648
    outer loop
        vertex 7.6007 0.0000 1.0005
        vertex 7.6667 0.0000 0.0000
        vertex 7.6667 0.8000 0.0000
    endloop
endfacet
facet normal 2.5013 0.0000 0.1648
    outer loop
        vertex 7.6667 0.8000 0.0000
        vertex 7.6007 0.8000 1.0005
        vertex 7.6007 0.0000 1.0005
    endloop
endfacet
facet normal 2.4591 0.0000 0.4888
    outer loop
        vertex 7.4052 0.0000 1.9841
        vertex 7.6007 0.0000 1.0005
        vertex 7.6007 0.8000 1.0005
    endloop
endfacet
facet normal 2.4591 0.0000 0.4888
    outer loop
        vertex 7.6007 0.8000 1.0005
        vertex 7.4052 0.8000 1.9841
        vertex 7.4052 0.0000 1.9841
    endloop
endfacet
facet normal 2.3748 0.0000 0.8050
    outer loop
        vertex 7.0832 0.0000 2.9340
        vertex 7.4052 0.0000 1.9841
        vertex 7.4052 0.8000 1.9841
    endloop
endfacet
facet normal 2.3748 0.0000 0.8050
    outer loop
        vertex 7.4052 0.8000 1.9841
        vertex 7.0832 0.8000 2.9340
        vertex 7.0832 0.0000 2.9340
    endloop
endfacet
facet normal 2.2483 0.0000 1.1098
    outer loop
        vertex 6.6393 0.0000 3.8333
        vertex 7.0832 0.0000 2.9340
        vertex 7.0832 0.8000 2.9340
    endloop
endfacet
facet normal 2.2483 0.0000 1.1098
    outer loop
        vertex 7.0832 0.8000 2.9340
        vertex 6.6393 0.8000 3.8333
        vertex 6.6393 0.0000 3.8333
    endloop
endfacet
facet normal 2.0853 0.0000 1.3915
    outer loop
        vertex 6.0827 0.0000 4.6675
        vertex 6.6393 0.0000 3.8333
        vertex 6.6393 0.8000 3.8333
    endloop
endfacet
facet normal 2.0853 0.0000 1.3915
    outer loop
        vertex 6.6393 0.8000 3.8333
        vertex 6.0827 0.8000 4.6675
        vertex 6.0827 0.0000 4.6675
    endloop
endfacet
facet normal 1.8841 0.0000 1.6541
    outer loop
        vertex 5.4211 0.0000 5.4211
        vertex 6.0827 0.0000 4.6675
        vertex 6.0827 0.8000 4.6675
    endloop
endfacet
facet normal 1.8841 0.0000 1.6541
    outer loop
        vertex 6.0827 0.8000 4.6675
        vertex 5.4211 0.8000 5.4211
        vertex 5.4211 0.0000 5.4211
    endloop
endfacet
facet normal 1.6541 0.0000 1.8841
    outer loop
        vertex 4.6675 0.0000 6.0827
        vertex 5.4211 0.0000 5.4211
        vertex 5.4211 0.8000 5.4211
    endloop
endfacet
facet normal 1.6541 0.0000 1.8841
    outer loop
        vertex 5.4211 0.8000 5.4211
        vertex 4.6675 0.8000 6.0827
        vertex 4.6675 0.0000 6.0827
    endloop
endfacet
facet normal 1.3915 0.0000 2.0853
    outer loop
        vertex 3.8333 0.0000 6.6393
        vertex 4.6675 0.0000 6.0827
        vertex 4.6675 0.8000 6.0827
    endloop
endfacet
facet normal 1.3915 0.0000 2.0853
    outer loop
        vertex 4.6675 0.8000 6.0827
        vertex 3.8333 0.8000 6.6393
        vertex 3.8333 0.0000 6.6393
    endloop
endfacet
facet normal 1.1098 0.0000 2.2483
    outer loop
        vertex 2.9340 0.0000 7.0832
        vertex 3.8333 0.0000 6.6393
        vertex 3.8333 0.8000 6.6393
    endloop
endfacet
facet normal 1.1098 0.0000 2.2483
    outer loop
        vertex 3.8333 0.8000 6.6393
        vertex 2.9340 0.8000 7.0832
        vertex 2.9340 0.0000 7.0832
    endloop
endfacet
facet normal 0.8050 0.0000 2.3748
    outer loop
        vertex 1.9841 0.0000 7.4052
        vertex 2.9340 0.0000 7.0832
        vertex 2.9340 0.8000 7.0832
    endloop
endfacet
facet normal 0.8050 0.0000 2.3748
    outer loop
        vertex 2.9340 0.8000 7.0832
        vertex 1.9841 0.8000 7.4052
        vertex 1.9841 0.0000 7.4052
    endloop
endfacet
facet normal 0.4888 0.0000 2.4591
    outer loop
        vertex 1.0005 0.0000 7.6007
        vertex 1.9841 0.0000 7.4052
        vertex 1.9841 0.8000 7.4052
    endloop
endfacet
facet normal 0.4888 0.0000 2.4591
    outer loop
        vertex 1.9841 0.8000 7.4052
        vertex 1.0005 0.8000 7.6007
        vertex 1.0005 0.0000 7.6007
    endloop
endfacet
facet normal 0.1648 0.0000 2.5013
    outer loop
        vertex 0.0000 0.0000 7.6667
        vertex 1.0005 0.0000 7.6007
        vertex 1.0005 0.8000 7.6007
    endloop
endfacet
facet normal 0.1648 0.0000 2.5013
    outer loop
        vertex 1.0005 0.8000 7.6007
        vertex 0.0000 0.8000 7.6667
        vertex 0.0000 0.0000 7.6667
    endloop
endfacet
facet normal -0.1648 0.0000 2.5013
    outer loop
        vertex -1.0005 0.0000 7.6007
        vertex 0.0000 0.0000 7.6667
        vertex 0.0000 0.8000 7.6667
    endloop
endfacet
facet normal -0.1648 0.0000 2.5013
    outer loop
        vertex 0.0000 0.8000 7.6667
        vertex -1.0005 0.8000 7.6007
        vertex -1.0005 0.0000 7.6007
    endloop
endfacet
facet normal -0.4888 0.0000 2.4591
    outer loop
        vertex -1.9841 0.0000 7.4052
        vertex -1.0005 0.0000 7.6007
        vertex -1.0005 0.8000 7.6007
    endloop
endfacet
facet normal -0.4888 0.0000 2.4591
    outer loop
        vertex -1.0005 0.8000 7.6007
        vertex -1.9841 0.8000 7.4052
        vertex -1.9841 0.0000 7.4052
    endloop
endfacet
facet normal -0.8050 0.0000 2.3748
    outer loop
        vertex -2.9340 0.0000 7.0832
        vertex -1.9841 0.0000 7.4052
        vertex -1.9841 0.8000 7.4052
    endloop
endfacet
facet normal -0.8050 0.0000 2.3748
    outer loop
        vertex -1.9841 0.8000 7.4052
        vertex -2.9340 0.8000 7.0832
        vertex -2.9340 0.0000 7.0832
    endloop
endfacet
facet normal -1.1098 0.0000 2.2483
    outer loop
        vertex -3.8333 0.0000 6.6393
        vertex -2.9340 0.0000 7.0832
        vertex -2.9340 0.8000 7.0832
    endloop
endfacet
facet normal -1.1098 0.0000 2.2483
    outer loop
        vertex -2.9340 0.8000 7.0832
        vertex -3.8333 0.8000 6.6393
        vertex -3.8333 0.0000 6.6393
    endloop
endfacet
facet normal -1.3915 0.0000 2.0853
    outer loop
        vertex -4.6675 0.0000 6.0827
        vertex -3.8333 0.0000 6.6393
        vertex -3.8333 0.8000 6.6393
    endloop
endfacet
facet normal -1.3915 0.0000 2.0853
    outer loop
        vertex -3.8333 0.8000 6.6393
        vertex -4.6675 0.8000 6.0827
        vertex -4.6675 0.0000 6.0827
    endloop
endfacet
facet normal -1.6541 0.0000 1.8841
    outer loop
        vertex -5.4211 0.0000 5.4211
        vertex -4.6675 0.0000 6.0827
        vertex -4.6675 0.8000 6.0827
    endloop
endfacet
facet normal -1.6541 0.0000 1.8841
    outer loop
        vertex -4.6675 0.8000 6.0827
        vertex -5.4211 0.8000 5.4211
        vertex -5.4211 0.0000 5.4211
    endloop
endfacet
facet normal -1.8841 0.0000 1.6541
    outer loop
        vertex -6.0827 0.0000 4.6675
        vertex -5.4211 0.0000 5.4211
        vertex -5.4211 0.8000 5.4211
    endloop
endfacet
facet normal -1.8841 0.0000 1.6541
    outer loop
        vertex -5.4211 0.8000 5.4211
        vertex -6.0827 0.8000 4.6675
        vertex -6.0827 0.0000 4.6675
    endloop
endfacet
facet normal -2.0853 0.0000 1.3915
    outer loop
        vertex -6.6393 0.0000 3.8333
        vertex -6.0827 0.0000 4.6675
        vertex -6.0827 0.8000 4.6675
    endloop
endfacet
facet normal -2.0853 0.0000 1.3915
    outer loop
        vertex -6.0827 0.8000 4.6675
        vertex -6.6393 0.8000 3.8333
        vertex -6.6393 0.0000 3.8333
    endloop
endfacet
facet normal -2.2483 0.0000 1.1098
    outer loop
        vertex -7.0832 0.0000 2.9340
        vertex -6.6393 0.0000 3.8333
        vertex -6.6393 0.8000 3.8333
    endloop
endfacet
facet normal -2.2483 0.0000 1.1098
    outer loop
        vertex -6.6393 0.8000 3.8333
        vertex -7.0832 0.8000 2.9340
        vertex -7.0832 0.0000 2.9340
    endloop
endfacet
facet normal -2.3748 0.0000 0.8050
    outer loop
        vertex -7.4052 0.0000 1.9841
        vertex -7.0832 0.0000 2.9340
        vertex -7.0832 0.8000 2.9340
    endloop
endfacet
facet normal -2.3748 0.0000 0.8050
    outer loop
        vertex -7.0832 0.8000 2.9340
        vertex -7.4052 0.8000 1.9841
        vertex -7.4052 0.0000 1.9841
    endloop
endfacet
facet normal -2.4591 0.0000 0.4888
    outer loop
        vertex -7.6007 0.0000 1.0005
        vertex -7.4052 0.0000 1.9841
        vertex -7.4052 0.8000 1.9841
    endloop
endfacet
facet normal -2.4591 0.0000 0.4888
    outer loop
        vertex -7.4052 0.8000 1.9841
        vertex -7.6007 0.8000 1.0005
        vertex -7.6007 0.0000 1.0005
    endloop
endfacet
facet normal -2.5013 0.0000 0.1648
    outer loop
        vertex -7.6667 0.0000 0.0000
        vertex -7.6007 0.0000 1.0005
        vertex -7.6007 0.8000 1.0005
    endloop
endfacet
facet normal -2.5013 0.0000 0.1648
    outer loop
        vertex -7.6007 0.8000 1.0005
        vertex -7.6667 0.8000 0.0000
        vertex -7.6667 0.0000 0.0000
    endloop
endfacet
facet normal -2.5013 0.0000 -0.1648
    outer loop
        vertex -7.6007 0.0000 -1.0005
        vertex -7.6667 0.0000 0.0000
        vertex -7.6667 0.8000 0.0000
    endloop
endfacet
facet normal -2.5013 0.0000 -0.1648
    outer loop
        vertex -7.6667 0.8000 0.0000
        vertex -7.6007 0.8000 -1.0005
        vertex -7.6007 0.0000 -1.0005
    endloop
endfacet
facet normal -2.4591 0.0000 -0.4888
    outer loop
        vertex -7.4052 0.0000 -1.9841
        vertex -7.6007 0.0000 -1.0005
        vertex -7.6007 0.8000 -1.0005
    endloop
endfacet
facet normal -2.4591 0.0000 -0.4888
    outer loop
        vertex -7.6007 0.8000 -1.0005
        vertex -7.4052 0.8000 -1.9841
        vertex -7.4052 0.0000 -1.9841
    endloop
endfacet
facet normal -2.3748 0.0000 -0.8050
    outer loop
        vertex -7.0832 0.0000 -2.9340
        vertex -7.4052 0.0000 -1.9841
        vertex -7.4052 0.8000 -1.9841
    endloop
endfacet
facet normal -2.3748 0.0000 -0.8050
    outer loop
        vertex -7.4052 0.8000 -1.9841
        vertex -7.0832 0.8000 -2.9340
        vertex -7.0832 0.0000 -2.9340
    endloop
endfacet
facet normal -2.2483 0.0000 -1.1098
    outer loop
        vertex -6.6393 0.0000 -3.8333
        vertex -7.0832 0.0000 -2.9340
        vertex -7.0832 0.8000 -2.9340
    endloop
endfacet
facet normal -2.2483 0.0000 -1.1098
    outer loop
        vertex -7.0832 0.8000 -2.9340
        vertex -6.6393 0.8000 -3.8333
        vertex -6.6393 0.0000 -3.8333
    endloop
endfacet
facet normal -2.0853 0.0000 -1.3915
    outer loop
        vertex -6.0827 0.0000 -4.6675
        vertex -6.6393 0.0000 -3.8333
        vertex -6.6393 0.8000 -3.8333
    endloop
endfacet
facet normal -2.0853 0.0000 -1.3915
    outer loop
        vertex -6.6393 0.8000 -3.8333
        vertex -6.0827 0.8000 -4.6675
        vertex -6.0827 0.0000 -4.6675
    endloop
endfacet
facet normal -1.8841 0.0000 -1.6541
    outer loop
        vertex -5.4211 0.0000 -5.4211
        vertex -6.0827 0.0000 -4.6675
        vertex -6.0827 0.8000 -4.6675
    endloop
endfacet
facet normal -1.8841 0.0000 -1.6541
    outer loop
        vertex -6.0827 0.8000 -4.6675
        vertex -5.4211 0.8000 -5.4211
        vertex -5.4211 0.0000 -5.4211
    endloop
endfacet
facet normal -1.6541 0.0000 -1.8841
    outer loop
        vertex -4.6675 0.0000 -6.0827
        vertex -5.4211 0.0000 -5.4211
        vertex -5.4211 0.8000 -5.4211
    endloop
endfacet
facet normal -1.6541 0.0000 -1.8841
    outer loop
        vertex -5.4211 0.8000 -5.4211
        vertex -4.6675 0.8000 -6.0827
        vertex -4.6675 0.0000 -6.0827
    endloop
endfacet
facet normal -1.3915 0.0000 -2.0853
    outer loop
        vertex -3.8333 0.0000 -6.6393
        vertex -4.6675 0.0000 -6.0827
        vertex -4.6675 0.8000 -6.0827
    endloop
endfacet
facet normal -1.3915 0.0000 -2.0853
    outer loop
        vertex -4.6675 0.8000 -6.0827
        vertex -3.8333 0.8000 -6.6393
        vertex -3.8333 0.0000 -6.6393
    endloop
endfacet
facet normal -1.1098 0.0000 -2.2483
    outer loop
        vertex -2.9340 0.0000 -7.0832
        vertex -3.8333 0.0000 -6.6393
        vertex -3.8333 0.8000 -6.6393
    endloop
endfacet
facet normal -1.1098 0.0000 -2.2483
    outer loop
        vertex -3.8333 0.8000 -6.6393
        vertex -2.9340 0.8000 -7.0832
        vertex -2.9340 0.0000 -7.0832
    endloop
endfacet
facet normal -0.8050 0.0000 -2.3748
    outer loop
        vertex -1.9841 0.0000 -7.4052
        vertex -2.9340 0.0000 -7.0832
        vertex -2.9340 0.8000 -7.0832
    endloop
endfacet
facet normal -0.8050 0.0000 -2.3748
    outer loop
        vertex -2.9340 0.8000 -7.0832
        vertex -1.9841 0.8000 -7.4052
        vertex -1.9841 0.0000 -7.4052
    endloop
endfacet
facet normal -0.4888 0.0000 -2.4591
    outer loop
        vertex -1.0005 0.0000 -7.6007
        vertex -1.9841 0.0000 -7.4052
        vertex -1.9841 0.8000 -7.4052
    endloop
endfacet
facet normal -0.4888 0.0000 -2.4591
    outer loop
        vertex -1.9841 0.8000 -7.4052
        vertex -1.0005 0.8000 -7.6007
        vertex -1.0005 0.0000 -7.6007
    endloop
endfacet
facet normal -0.1648 0.0000 -2.5013
    outer loop
        vertex 0.0000 0.0000 -7.6667
        vertex -1.0005 0.0000 -7.6007
        vertex -1.0005 0.8000 -7.6007
    endloop
endfacet
facet normal -0.1648 0.0000 -2.5013
    outer loop
        vertex -1.0005 0.8000 -7.6007
        vertex 0.0000 0.8000 -7.6667
        vertex 0.0000 0.0000 -7.6667
    endloop
endfacet
facet normal 0.1648 0.0000 -2.5013
    outer loop
        vertex 1.0005 0.0000 -7.6007
        vertex 0.0000 0.0000 -7.6667
        vertex 0.0000 0.8000 -7.6667
    endloop
endfacet
facet normal 0.1648 0.0000 -2.5013
    outer loop
        vertex 0.0000 0.8000 -7.6667
        vertex 1.0005 0.8000 -7.6007
        vertex 1.0005 0.0000 -7.6007
    endloop
endfacet
facet normal 0.4888 0.0000 -2.4591
    outer loop
        vertex 1.9841 0.0000 -7.4052
        vertex 1.0005 0.0000 -7.6007
        vertex 1.0005 0.8000 -7.6007
    endloop
endfacet
facet normal 0.4888 0.0000 -2.4591
    outer loop
        vertex 1.0005 0.8000 -7.6007
        vertex 1.9841 0.8000 -7.4052
        vertex 1.9841 0.0000 -7.4052
    endloop
endfacet
facet normal 0.8050 0.0000 -2.3748
    outer loop
        vertex 2.9340 0.0000 -7.0832
        vertex 1.9841 0.0000 -7.4052
        vertex 1.9841 0.8000 -7.4052
    endloop
endfacet
facet normal 0.8050 0.0000 -2.3748
    outer loop
        vertex 1.9841 0.8000 -7.4052
        vertex 2.9340 0.8000 -7.0832
        vertex 2.9340 0.0000 -7.0832
    endloop
endfacet
facet normal 1.1098 0.0000 -2.2483
    outer loop
        vertex 3.8333 0.0000 -6.6393
        vertex 2.9340 0.0000 -7.0832
        vertex 2.9340 0.8000 -7.0832
    endloop
endfacet
facet normal 1.1098 0.0000 -2.2483
    outer loop
        vertex 2.9340 0.8000 -7.0832
        vertex 3.8333 0.8000 -6.6393
        vertex 3.8333 0.0000 -6.6393
    endloop
endfacet
facet normal 1.3915 0.0000 -2.0853
    outer loop
        vertex 4.6675 0.0000 -6.0827
        vertex 3.8333 0.0000 -6.6393
        vertex 3.8333 0.8000 -6.6393
    endloop
endfacet
facet normal 1.3915 0.0000 -2.0853
    outer loop
        vertex 3.8333 0.8000 -6.6393
        vertex 4.6675 0.8000 -6.0827
        vertex 4.6675 0.0000 -6.0827
    endloop
endfacet
facet normal 1.6541 0.0000 -1.8841
    outer loop
        vertex 5.4211 0.0000 -5.4211
        vertex 4.6675 0.0000 -6.0827
        vertex 4.6675 0.8000 -6.0827
    endloop
endfacet
facet normal 1.6541 0.0000 -1.8841
    outer loop
        vertex 4.6675 0.8000 -6.0827
        vertex 5.4211 0.8000 -5.4211
        vertex 5.4211 0.0000 -5.4211
    endloop
endfacet
facet normal 1.8841 0.0000 -1.6541
    outer loop
        vertex 6.0827 0.0000 -4.6675
        vertex 5.4211 0.0000 -5.4211
        vertex 5.4211 0.8000 -5.4211
    endloop
endfacet
facet normal 1.8841 0.0000 -1.6541
    outer loop
        vertex 5.4211 0.8000 -5.4211
        vertex 6.0827 0.8000 -4.6675
        vertex 6.0827 0.0000 -4.6675
    endloop
endfacet
facet normal 2.0853 0.0000 -1.3915
    outer loop
        vertex 6.6393 0.0000 -3.8333
        vertex 6.0827 0.0000 -4.6675
        vertex 6.0827 0.8000 -4.6675
    endloop
endfacet
facet normal 2.0853 0.0000 -1.3915
    outer loop
        vertex 6.0827 0.8000 -4.6675
        vertex 6.6393 0.8000 -3.8333
        vertex 6.6393 0.0000 -3.8333
    endloop
endfacet
facet normal 2.2483 0.0000 -1.1098
    outer loop
        vertex 7.0832 0.0000 -2.9340
        vertex 6.6393 0.0000 -3.8333
        vertex 6.6393 0.8000 -3.8333
    endloop
endfacet
facet normal 2.2483 0.0000 -1.1098
    outer loop
        vertex 6.6393 0.8000 -3.8333
        vertex 7.0832 0.8000 -2.9340
        vertex 7.0832 0.0000 -2.9340
    endloop
endfacet
facet normal 2.3748 0.0000 -0.8050
    outer loop
        vertex 7.4052 0.0000 -1.9841
        vertex 7.0832 0.0000 -2.9340
        vertex 7.0832 0.8000 -2.9340
    endloop
endfacet
facet normal 2.3748 0.0000 -0.8050
    outer loop
        vertex 7.0832 0.8000 -2.9340
        vertex 7.4052 0.8000 -1.9841
        vertex 7.4052 0.0000 -1.9841
    endloop
endfacet
facet normal 2.4591 0.0000 -0.4888
    outer loop
        vertex 7.6007 0.0000 -1.0005
        vertex 7.4052 0.0000 -1.9841
        vertex 7.4052 0.8000 -1.9841
    endloop
endfacet
facet normal 2.4591 0.0000 -0.4888
    outer loop
        vertex 7.4052 0.8000 -1.9841
        vertex 7.6007 0.8000 -1.0005
        vertex 7.6007 0.0000 -1.0005
    endloop
endfacet
facet normal 2.5013 0.0000 -0.1648
    outer loop
        vertex 7.6667 0.0000 0.0000
        vertex 7.6007 0.0000 -1.0005
        vertex 7.6007 0.8000 -1.0005
    endloop
endfacet
facet normal 2.5013 0.0000 -0.1648
    outer loop
        vertex 7.6007 0.8000 -1.0005
        vertex 7.6667 0.8000 0.0000
        vertex 7.6667 0.0000 0.0000
    endloop
endfacet
facet normal -2.2511 0.0000 -0.1484
    outer loop
        vertex 6.8407 0.0000 0.9005
        vertex 6.9000 0.8000 0.0000
        vertex 6.9000 0.0000 0.0000
    endloop
endfacet
facet normal -2.2511 0.0000 -0.1484
    outer loop
        vertex 6.9000 0.8000 0.0000
        vertex 6.8407 0.0000 0.9005
        vertex 6.8407 0.8000 0.9005
    endloop
endfacet
facet normal -2.2132 0.0000 -0.4399
    outer loop
        vertex 6.6647 0.0000 1.7857
        vertex 6.8407 0.8000 0.9005
        vertex 6.8407 0.0000 0.9005
    endloop
endfacet
facet normal -2.2132 0.0000 -0.4399
    outer loop
        vertex 6.8407 0.8000 0.9005
        vertex 6.6647 0.0000 1.7857
        vertex 6.6647 0.8000 1.7857
    endloop
endfacet
facet normal -2.1373 0.0000 -0.7245
    outer loop
        vertex 6.3749 0.0000 2.6406
        vertex 6.6647 0.8000 1.7857
        vertex 6.6647 0.0000 1.7857
    endloop
endfacet
facet normal -2.1373 0.0000 -0.7245
    outer loop
        vertex 6.6647 0.8000 1.7857
        vertex 6.3749 0.0000 2.6406
        vertex 6.3749 0.8000 2.6406
    endloop
endfacet
facet normal -2.0234 0.0000 -0.9988
    outer loop
        vertex 5.9754 0.0000 3.4500
        vertex 6.3749 0.8000 2.6406
        vertex 6.3749 0.0000 2.6406
    endloop
endfacet
facet normal -2.0234 0.0000 -0.9988
    outer loop
        vertex 6.3749 0.8000 2.6406
        vertex 5.9754 0.0000 3.4500
        vertex 5.9754 0.8000 3.4500
    endloop
endfacet
facet normal -1.8768 0.0000 -1.2523
    outer loop
        vertex 5.4745 0.0000 4.2007
        vertex 5.9754 0.8000 3.4500
        vertex 5.9754 0.0000 3.4500
    endloop
endfacet
facet normal -1.8768 0.0000 -1.2523
    outer loop
        vertex 5.9754 0.8000 3.4500
        vertex 5.4745 0.0000 4.2007
        vertex 5.4745 0.8000 4.2007
    endloop
endfacet
facet normal -1.6957 0.0000 -1.4887
    outer loop
        vertex 4.8790 0.0000 4.8790
        vertex 5.4745 0.8000 4.2007
        vertex 5.4745 0.0000 4.2007
    endloop
endfacet
facet normal -1.6957 0.0000 -1.4887
    outer loop
        vertex 5.4745 0.8000 4.2007
        vertex 4.8790 0.0000 4.8790
        vertex 4.8790 0.8000 4.8790
    endloop
endfacet
facet normal -1.4887 0.0000 -1.6957
    outer loop
        vertex 4.2007 0.0000 5.4745
        vertex 4.8790 0.8000 4.8790
        vertex 4.8790 0.0000 4.8790
    endloop
endfacet
facet normal -1.4887 0.0000 -1.6957
    outer loop
        vertex 4.8790 0.8000 4.8790
        vertex 4.2007 0.0000 5.4745
        vertex 4.2007 0.8000 5.4745
    endloop
endfacet
facet normal -1.2523 0.0000 -1.8768
    outer loop
        vertex 3.4500 0.0000 5.9754
        vertex 4.2007 0.8000 5.4745
        vertex 4.2007 0.0000 5.4745
    endloop
endfacet
facet normal -1.2523 0.0000 -1.8768
    outer loop
        vertex 4.2007 0.8000 5.4745
        vertex 3.4500 0.0000 5.9754
        vertex 3.4500 0.8000 5.9754
    endloop
endfacet
facet normal -0.9988 0.0000 -2.0234
    outer loop
        vertex 2.6406 0.0000 6.3749
        vertex 3.4500 0.8000 5.9754
        vertex 3.4500 0.0000 5.9754
    endloop
endfacet
facet normal -0.9988 0.0000 -2.0234
    outer loop
        vertex 3.4500 0.8000 5.9754
        vertex 2.6406 0.0000 6.3749
        vertex 2.6406 0.8000 6.3749
    endloop
endfacet
facet normal -0.7245 0.0000 -2.1373
    outer loop
        vertex 1.7857 0.0000 6.6647
        vertex 2.6406 0.8000 6.3749
        vertex 2.6406 0.0000 6.3749
    endloop
endfacet
facet normal -0.7245 0.0000 -2.1373
    outer loop
        vertex 2.6406 0.8000 6.3749
        vertex 1.7857 0.0000 6.6647
        vertex 1.7857 0.8000 6.6647
    endloop
endfacet
facet normal -0.4399 0.0000 -2.2132
    outer loop
        vertex 0.9005 0.0000 6.8407
        vertex 1.7857 0.8000 6.6647
        vertex 1.7857 0.0000 6.6647
    endloop
endfacet
facet normal -0.4399 0.0000 -2.2132
    outer loop
        vertex 1.7857 0.8000 6.6647
        vertex 0.9005 0.0000 6.8407
        vertex 0.9005 0.8000 6.8407
    endloop
endfacet
facet normal -0.1484 0.0000 -2.2511
    outer loop
        vertex 0.0000 0.0000 6.9000
        vertex 0.9005 0.8000 6.8407
        vertex 0.9005 0.0000 6.8407
    endloop
endfacet
facet normal -0.1484 0.0000 -2.2511
    outer loop
        vertex 0.9005 0.8000 6.8407
        vertex 0.0000 0.0000 6.9000
        vertex 0.0000 0.8000 6.9000
    endloop
endfacet
facet normal 0.1484 0.0000 -2.2511
    outer loop
        vertex -0.9005 0.0000 6.8407
        vertex 0.0000 0.8000 6.9000
        vertex 0.0000 0.0000 6.9000
    endloop
endfacet
facet normal 0.1484 0.0000 -2.2511
    outer loop
        vertex 0.0000 0.8000 6.9000
        vertex -0.9005 0.0000 6.8407
        vertex -0.9005 0.8000 6.8407
    endloop
endfacet
facet normal 0.4399 0.0000 -2.2132
    outer loop
        vertex -1.7857 0.0000 6.6647
        vertex -0.9005 0.8000 6.8407
        vertex -0.9005 0.0000 6.8407
    endloop
endfacet
facet normal 0.4399 0.0000 -2.2132
    outer loop
        vertex -0.9005 0.8000 6.8407
        vertex -1.7857 0.0000 6.6647
        vertex -1.7857 0.8000 6.6647
    endloop
endfacet
facet normal 0.7245 0.0000 -2.1373
    outer loop
        vertex -2.6406 0.0000 6.3749
        vertex -1.7857 0.8000 6.6647
        vertex -1.7857 0.0000 6.6647
    endloop
endfacet
facet normal 0.7245 0.0000 -2.1373
    outer loop
        vertex -1.7857 0.8000 6.6647
        vertex -2.6406 0.0000 6.3749
        vertex -2.6406 0.8000 6.3749
    endloop
endfacet
facet normal 0.9988 0.0000 -2.0234
    outer loop
        vertex -3.4500 0.0000 5.9754
        vertex -2.6406 0.8000 6.3749
        vertex -2.6406 0.0000 6.3749
    endloop
endfacet
facet normal 0.9988 0.0000 -2.0234
    outer loop
        vertex -2.6406 0.8000 6.3749
        vertex -3.4500 0.0000 5.9754
        vertex -3.4500 0.8000 5.9754
    endloop
endfacet
facet normal 1.2523 0.0000 -1.8768
    outer loop
        vertex -4.2007 0.0000 5.4745
        vertex -3.4500 0.8000 5.9754
        vertex -3.4500 0.0000 5.9754
    endloop
endfacet
facet normal 1.2523 0.0000 -1.8768
    outer loop
        vertex -3.4500 0.8000 5.9754
        vertex -4.2007 0.0000 5.4745
        vertex -4.2007 0.8000 5.4745
    endloop
endfacet
facet normal 1.4887 0.0000 -1.6957
    outer loop
        vertex -4.8790 0.0000 4.8790
        vertex -4.2007 0.8000 5.4745
        vertex -4.2007 0.0000 5.4745
    endloop
endfacet
facet normal 1.4887 0.0000 -1.6957
    outer loop
        vertex -4.2007 0.8000 5.4745
        vertex -4.8790 0.0000 4.8790
        vertex -4.8790 0.8000 4.8790
    endloop
endfacet
facet normal 1.6957 0.0000 -1.4887
    outer loop
        vertex -5.4745 0.0000 4.2007
        vertex -4.8790 0.8000 4.8790
        vertex -4.8790 0.0000 4.8790
    endloop
endfacet
facet normal 1.6957 0.0000 -1.4887
    outer loop
        vertex -4.8790 0.8000 4.8790
        vertex -5.4745 0.0000 4.2007
        vertex -5.4745 0.8000 4.2007
    endloop
endfacet
facet normal 1.8768 0.0000 -1.2523
    outer loop
        vertex -5.9754 0.0000 3.4500
        vertex -5.4745 0.8000 4.2007
        vertex -5.4745 0.0000 4.2007
    endloop
endfacet
facet normal 1.8768 0.0000 -1.2523
    outer loop
        vertex -5.4745 0.8000 4.2007
        vertex -5.9754 0.0000 3.4500
        vertex -5.9754 0.8000 3.4500
    endloop
endfacet
facet normal 2.0234 0.0000 -0.9988
    outer loop
        vertex -6.3749 0.0000 2.6406
        vertex -5.9754 0.8000 3.4500
        vertex -5.9754 0.0000 3.4500
    endloop
endfacet
facet normal 2.0234 0.0000 -0.9988
    outer loop
        vertex -5.9754 0.8000 3.4500
        vertex -6.3749 0.0000 2.6406
        vertex -6.3749 0.8000 2.6406
    endloop
endfacet
facet normal 2.1373 0.0000 -0.7245
    outer loop
        vertex -6.6647 0.0000 1.7857
        vertex -6.3749 0.8000 2.6406
        vertex -6.3749 0.0000 2.6406
    endloop
endfacet
facet normal 2.1373 0.0000 -0.7245
    outer loop
        vertex -6.3749 0.8000 2.6406
        vertex -6.6647 0.0000 1.7857
        vertex -6.6647 0.8000 1.7857
    endloop
endfacet
facet normal 2.2132 0.0000 -0.4399
    outer loop
        vertex -6.8407 0.0000 0.9005
        vertex -6.6647 0.8000 1.7857
        vertex -6.6647 0.0000 1.7857
    endloop
endfacet
facet normal 2.2132 0.0000 -0.4399
    outer loop
        vertex -6.6647 0.8000 1.7857
        vertex -6.8407 0.0000 0.9005
        vertex -6.8407 0.8000 0.9005
    endloop
endfacet
facet normal 2.2511 0.0000 -0.1484
    outer loop
        vertex -6.9000 0.0000 0.0000
        vertex -6.8407 0.8000 0.9005
        vertex -6.8407 0.0000 0.9005
    endloop
endfacet
facet normal 2.2511 0.0000 -0.1484
    outer loop
        vertex -6.8407 0.8000 0.9005
        vertex -6.9000 0.0000 0.0000
        vertex -6.9000 0.8000 0.0000
    endloop
endfacet
facet normal 2.2511 0.0000 0.1484
    outer loop
        vertex -6.8407 0.0000 -0.9005
        vertex -6.9000 0.8000 0.0000
        vertex -6.9000 0.0000 0.0000
    endloop
endfacet
facet normal 2.2511 0.0000 0.1484
    outer loop
        vertex -6.9000 0.8000 0.0000
        vertex -6.8407 0.0000 -0.9005
        vertex -6.8407 0.8000 -0.9005
    endloop
endfacet
facet normal 2.2132 0.0000 0.4399
    outer loop
        vertex -6.6647 0.0000 -1.7857
        vertex -6.8407 0.8000 -0.9005
        vertex -6.8407 0.0000 -0.9005
    endloop
endfacet
facet normal 2.2132 0.0000 0.4399
    outer loop
        vertex -6.8407 0.8000 -0.9005
        vertex -6.6647 0.0000 -1.7857
        vertex -6.6647 0.8000 -1.7857
    endloop
endfacet
facet normal 2.1373 0.0000 0.7245
    outer loop
        vertex -6.3749 0.0000 -2.6406
        vertex -6.6647 0.8000 -1.7857
        vertex -6.6647 0.0000 -1.7857
    endloop
endfacet
facet normal 2.1373 0.0000 0.7245
    outer loop
        vertex -6.6647 0.8000 -1.7857
        vertex -6.3749 0.0000 -2.6406
        vertex -6.3749 0.8000 -2.6406
    endloop
endfacet
facet normal 2.0234 0.0000 0.9988
    outer loop
        vertex -5.9754 0.0000 -3.4500
        vertex -6.3749 0.8000 -2.6406
        vertex -6.3749 0.0000 -2.6406
    endloop
endfacet
facet normal 2.0234 0.0000 0.9988
    outer loop
        vertex -6.3749 0.8000 -2.6406
        vertex -5.9754 0.0000 -3.4500
        vertex -5.9754 0.8000 -3.4500
    endloop
endfacet
facet normal 1.8768 0.0000 1.2523
    outer loop
        vertex -5.4745 0.0000 -4.2007
        vertex -5.9754 0.8000 -3.4500
        vertex -5.9754 0.0000 -3.4500
    endloop
endfacet
facet normal 1.8768 0.0000 1.2523
    outer loop
        vertex -5.9754 0.8000 -3.4500
        vertex -5.4745 0.0000 -4.2007
        vertex -5.4745 0.8000 -4.2007
    endloop
endfacet
facet normal 1.6957 0.0000 1.4887
    outer loop
        vertex -4.8790 0.0000 -4.8790
        vertex -5.4745 0.8000 -4.2007
        vertex -5.4745 0.0000 -4.2007
    endloop
endfacet
facet normal 1.6957 0.0000 1.4887
    outer loop
        vertex -5.4745 0.8000 -4.2007
        vertex -4.8790 0.0000 -4.8790
        vertex -4.8790 0.8000 -4.8790
    endloop
endfacet
facet normal 1.4887 0.0000 1.6957
    outer loop
        vertex -4.2007 0.0000 -5.4745
        vertex -4.8790 0.8000 -4.8790
        vertex -4.8790 0.0000 -4.8790
    endloop
endfacet
facet normal 1.4887 0.0000 1.6957
    outer loop
        vertex -4.8790 0.8000 -4.8790
        vertex -4.2007 0.0000 -5.4745
        vertex -4.2007 0.8000 -5.4745
    endloop
endfacet
facet normal 1.2523 0.0000 1.8768
    outer loop
        vertex -3.4500 0.0000 -5.9754
        vertex -4.2007 0.8000 -5.4745
        vertex -4.2007 0.0000 -5.4745
    endloop
endfacet
facet normal 1.2523 0.0000 1.8768
    outer loop
        vertex -4.2007 0.8000 -5.4745
        vertex -3.4500 0.0000 -5.9754
        vertex -3.4500 0.8000 -5.9754
    endloop
endfacet
facet normal 0.9988 0.0000 2.0234
    outer loop
        vertex -2.6406 0.0000 -6.3749
        vertex -3.4500 0.8000 -5.9754
        vertex -3.4500 0.0000 -5.9754
    endloop
endfacet
facet normal 0.9988 0.0000 2.0234
    outer loop
        vertex -3.4500 0.8000 -5.9754
        vertex -2.6406 0.0000 -6.3749
        vertex -2.6406 0.8000 -6.3749
    endloop
endfacet
facet normal 0.7245 0.0000 2.1373
    outer loop
        vertex -1.7857 0.0000 -6.6647
        vertex -2.6406 0.8000 -6.3749
        vertex -2.6406 0.0000 -6.3749
    endloop
endfacet
facet normal 0.7245 0.0000 2.1373
    outer loop
        vertex -2.6406 0.8000 -6.3749
        vertex -1.7857 0.0000 -6.6647
        vertex -1.7857 0.8000 -6.6647
    endloop
endfacet
facet normal 0.4399 0.0000 2.2132
    outer loop
        vertex -0.9005 0.0000 -6.8407
        vertex -1.7857 0.8000 -6.6647
        vertex -1.7857 0.0000 -6.6647
    endloop
endfacet
facet normal 0.4399 0.0000 2.2132
    outer loop
        vertex -1.7857 0.8000 -6.6647
        vertex -0.9005 0.0000 -6.8407
        vertex -0.9005 0.8000 -6.8407
    endloop
endfacet
facet normal 0.1484 0.0000 2.2511
    outer loop
        vertex 0.0000 0.0000 -6.9000
        vertex -0.9005 0.8000 -6.8407
        vertex -0.9005 0.0000 -6.8407
    endloop
endfacet
facet normal 0.1484 0.0000 2.2511
    outer loop
        vertex -0.9005 0.8000 -6.8407
        vertex 0.0000 0.0000 -6.9000
        vertex 0.0000 0.8000 -6.9000
    endloop
endfacet
facet normal -0.1484 0.0000 2.2511
    outer loop
        vertex 0.9005 0.0000 -6.8407
        vertex 0.0000 0.8000 -6.9000
        vertex 0.0000 0.0000 -6.9000
    endloop
endfacet
facet normal -0.1484 0.0000 2.2511
    outer loop
        vertex 0.0000 0.8000 -6.9000
        vertex 0.9005 0.0000 -6.8407
        vertex 0.9005 0.8000 -6.8407
    endloop
endfacet
facet normal -0.4399 0.0000 2.2132
    outer loop
        vertex 1.7857 0.0000 -6.6647
        vertex 0.9005 0.8000 -6.8407
        vertex 0.9005 0.0000 -6.8407
    endloop
endfacet
facet normal -0.4399 0.0000 2.2132
    outer loop
        vertex 0.9005 0.8000 -6.8407
        vertex 1.7857 0.0000 -6.6647
        vertex 1.7857 0.8000 -6.6647
    endloop
endfacet
facet normal -0.7245 0.0000 2.1373
    outer loop
        vertex 2.6406 0.0000 -6.3749
        vertex 1.7857 0.8000 -6.6647
        vertex 1.7857 0.0000 -6.6647
    endloop
endfacet
facet normal -0.7245 0.0000 2.1373
    outer loop
        vertex 1.7857 0.8000 -6.6647
        vertex 2.6406 0.0000 -6.3749
        vertex 2.6406 0.8000 -6.3749
    endloop
endfacet
facet normal -0.9988 0.0000 2.0234
    outer loop
        vertex 3.4500 0.0000 -5.9754
        vertex 2.6406 0.8000 -6.3749
        vertex 2.6406 0.0000 -6.3749
    endloop
endfacet
facet normal -0.9988 0.0000 2.0234
    outer loop
        vertex 2.6406 0.8000 -6.3749
        vertex 3.4500 0.0000 -5.9754
        vertex 3.4500 0.8000 -5.9754
    endloop
endfacet
facet normal -1.2523 0.0000 1.8768
    outer loop
        vertex 4.2007 0.0000 -5.4745
        vertex 3.4500 0.8000 -5.9754
        vertex 3.4500 0.0000 -5.9754
    endloop
endfacet
facet normal -1.2523 0.0000 1.8768
    outer loop
        vertex 3.4500 0.8000 -5.9754
        vertex 4.2007 0.0000 -5.4745
        vertex 4.2007 0.8000 -5.4745
    endloop
endfacet
facet normal -1.4887 0.0000 1.6957
    outer loop
        vertex 4.8790 0.0000 -4.8790
        vertex 4.2007 0.8000 -5.4745
        vertex 4.2007 0.0000 -5.4745
    endloop
endfacet
facet normal -1.4887 0.0000 1.6957
    outer loop
        vertex 4.2007 0.8000 -5.4745
        vertex 4.8790 0.0000 -4.8790
        vertex 4.8790 0.8000 -4.8790
    endloop
endfacet
facet normal -1.6957 0.0000 1.4887
    outer loop
        vertex 5.4745 0.0000 -4.2007
        vertex 4.8790 0.8000 -4.8790
        vertex 4.8790 0.0000 -4.8790
    endloop
endfacet
facet normal -1.6957 0.0000 1.4887
    outer loop
        vertex 4.8790 0.8000 -4.8790
        vertex 5.4745 0.0000 -4.2007
        vertex 5.4745 0.8000 -4.2007
    endloop
endfacet
facet normal -1.8768 0.0000 1.2523
    outer loop
        vertex 5.9754 0.0000 -3.4500
        vertex 5.4745 0.8000 -4.2007
        vertex 5.4745 0.0000 -4.2007
    endloop
endfacet
facet normal -1.8768 0.0000 1.2523
    outer loop
        vertex 5.4745 0.8000 -4.2007
        vertex 5.9754 0.0000 -3.4500
        vertex 5.9754 0.8000 -3.4500
    endloop
endfacet
facet normal -2.0234 0.0000 0.9988
    outer loop
        vertex 6.3749 0.0000 -2.6406
        vertex 5.9754 0.8000 -3.4500
        vertex 5.9754 0.0000 -3.4500
    endloop
endfacet
facet normal -2.0234 0.0000 0.9988
    outer loop
        vertex 5.9754 0.8000 -3.4500
        vertex 6.3749 0.0000 -2.6406
        vertex 6.3749 0.8000 -2.6406
    endloop
endfacet
facet normal -2.1373 0.0000 0.7245
    outer loop
        vertex 6.6647 0.0000 -1.7857
        vertex 6.3749 0.8000 -2.6406
        vertex 6.3749 0.0000 -2.6406
    endloop
endfacet
facet normal -2.1373 0.0000 0.7245
    outer loop
        vertex 6.3749 0.8000 -2.6406
        vertex 6.6647 0.0000 -1.7857
        vertex 6.6647 0.8000 -1.7857
    endloop
endfacet
facet normal -2.2132 0.0000 0.4399
    outer loop
        vertex 6.8407 0.0000 -0.9005
        vertex 6.6647 0.8000 -1.7857
        vertex 6.6647 0.0000 -1.7857
    endloop
endfacet
facet normal -2.2132 0.0000 0.4399
    outer loop
        vertex 6.6647 0.8000 -1.7857
        vertex 6.8407 0.0000 -0.9005
        vertex 6.8407 0.8000 -0.9005
    endloop
endfacet
facet normal -2.2511 0.0000 0.1484
    outer loop
        vertex 6.9000 0.0000 0.0000
        vertex 6.8407 0.8000 -0.9005
        vertex 6.8407 0.0000 -0.9005
    endloop
endfacet
facet normal -2.2511 0.0000 0.1484
    outer loop
        vertex 6.8407 0.8000 -0.9005
        vertex 6.9000 0.0000 0.0000
        vertex 6.9000 0.8000 0.0000
    endloop
endfacet
facet normal 0.0000 -1.3050 0.0000
    outer loop
        vertex 7.6667 0.0000 0.0000
        vertex 7.6007 0.0000 1.0005
        vertex 6.8407 0.0000 0.9005
    endloop
endfacet
facet normal 0.0000 -1.1745 0.0000
    outer loop
        vertex 6.8407 0.0000 0.9005
        vertex 6.9000 0.0000 0.0000
        vertex 7.6667 0.0000 0.0000
    endloop
endfacet
facet normal 0.0000 -1.3052 0.0000
    outer loop
        vertex 7.6007 0.0000 1.0005
        vertex 7.4052 0.0000 1.9841
        vertex 6.6647 0.0000 1.7857
    endloop
endfacet
facet normal 0.0000 -1.1747 0.0000
    outer loop
        vertex 6.6647 0.0000 1.7857
        vertex 6.8407 0.0000 0.9005
        vertex 7.6007 0.0000 1.0005
    endloop
endfacet
facet normal 0.0000 -1.3054 0.0000
    outer loop
        vertex 7.4052 0.0000 1.9841
        vertex 7.0832 0.0000 2.9340
        vertex 6.3749 0.0000 2.6406
    endloop
endfacet
facet normal 0.0000 -1.1749 0.0000
    outer loop
        vertex 6.3749 0.0000 2.6406
        vertex 6.6647 0.0000 1.7857
        vertex 7.4052 0.0000 1.9841
    endloop
endfacet
facet normal 0.0000 -1.3053 0.0000
    outer loop
        vertex 7.0832 0.0000 2.9340
        vertex 6.6393 0.0000 3.8333
        vertex 5.9754 0.0000 3.4500
    endloop
endfacet
facet normal 0.0000 -1.1748 0.0000
    outer loop
        vertex 5.9754 0.0000 3.4500
        vertex 6.3749 0.0000 2.6406
        vertex 7.0832 0.0000 2.9340
    endloop
endfacet
facet normal 0.0000 -1.3052 0.0000
    outer loop
        vertex 6.6393 0.0000 3.8333
        vertex 6.0827 0.0000 4.6675
        vertex 5.4745 0.0000 4.2007
    endloop
endfacet
facet normal 0.0000 -1.1747 0.0000
    outer loop
        vertex 5.4745 0.0000 4.2007
        vertex 5.9754 0.0000 3.4500
        vertex 6.6393 0.0000 3.8333
    endloop
endfacet
facet normal 0.0000 -1.3053 0.0000
    outer loop
        vertex 6.0827 0.0000 4.6675
        vertex 5.4211 0.0000 5.4211
        vertex 4.8790 0.0000 4.8790
    endloop
endfacet
facet normal 0.0000 -1.1748 0.0000
    outer loop
        vertex 4.8790 0.0000 4.8790
        vertex 5.4745 0.0000 4.2007
        vertex 6.0827 0.0000 4.6675
    endloop
endfacet
facet normal 0.0000 -1.3053 0.0000
    outer loop
        vertex 5.4211 0.0000 5.4211
        vertex 4.6675 0.0000 6.0827
        vertex 4.2007 0.0000 5.4745
    endloop
endfacet
facet normal 0.0000 -1.1748 0.0000
    outer loop
        vertex 4.2007 0.0000 5.4745
        vertex 4.8790 0.0000 4.8790
        vertex 5.4211 0.0000 5.4211
    endloop
endfacet
facet normal 0.0000 -1.3052 0.0000
    outer loop
        vertex 4.6675 0.0000 6.0827
        vertex 3.8333 0.0000 6.6393
        vertex 3.4500 0.0000 5.9754
    endloop
endfacet
facet normal 0.0000 -1.1747 0.0000
    outer loop
        vertex 3.4500 0.0000 5.9754
        vertex 4.2007 0.0000 5.4745
        vertex 4.6675 0.0000 6.0827
    endloop
endfacet
facet normal 0.0000 -1.3053 0.0000
    outer loop
        vertex 3.8333 0.0000 6.6393
        vertex 2.9340 0.0000 7.0832
        vertex 2.6406 0.0000 6.3749
    endloop
endfacet
facet normal 0.0000 -1.1748 0.0000
    outer loop
        vertex 2.6406 0.0000 6.3749
        vertex 3.4500 0.0000 5.9754
        vertex 3.8333 0.0000 6.6393
    endloop
endfacet
facet normal 0.0000 -1.3054 0.0000
    outer loop
        vertex 2.9340 0.0000 7.0832
        vertex 1.9841 0.0000 7.4052
        vertex 1.7857 0.0000 6.6647
    endloop
endfacet
facet normal 0.0000 -1.1749 0.0000
    outer loop
        vertex 1.7857 0.0000 6.6647
        vertex 2.6406 0.0000 6.3749
        vertex 2.9340 0.0000 7.0832
    endloop
endfacet
facet normal 0.0000 -1.3052 0.0000
    outer loop
        vertex 1.9841 0.0000 7.4052
        vertex 1.0005 0.0000 7.6007
        vertex 0.9005 0.0000 6.8407
    endloop
endfacet
facet normal 0.0000 -1.1747 0.0000
    outer loop
        vertex 0.9005 0.0000 6.8407
        vertex 1.7857 0.0000 6.6647
        vertex 1.9841 0.0000 7.4052
    endloop
endfacet
facet normal 0.0000 -1.3050 0.0000
    outer loop
        vertex 1.0005 0.0000 7.6007
        vertex 0.0000 0.0000 7.6667
        vertex 0.0000 0.0000 6.9000
    endloop
endfacet
facet normal 0.0000 -1.1745 0.0000
    outer loop
        vertex 0.0000 0.0000 6.9000
        vertex 0.9005 0.0000 6.8407
        vertex 1.0005 0.0000 7.6007
    endloop
endfacet
facet normal 0.0000 -1.3050 0.0000
    outer loop
        vertex 0.0000 0.0000 7.6667
        vertex -1.0005 0.0000 7.6007
        vertex -0.9005 0.0000 6.8407
    endloop
endfacet
facet normal 0.0000 -1.1745 0.0000
    outer loop
        vertex -0.9005 0.0000 6.8407
        vertex 0.0000 0.0000 6.9000
        vertex 0.0000 0.0000 7.6667
    endloop
endfacet
facet normal 0.0000 -1.3052 0.0000
    outer loop
        vertex -1.0005 0.0000 7.6007
        vertex -1.9841 0.0000 7.4052
        vertex -1.7857 0.0000 6.6647
    endloop
endfacet
facet normal 0.0000 -1.1747 0.0000
    outer loop
        vertex -1.7857 0.0000 6.6647
        vertex -0.9005 0.0000 6.8407
        vertex -1.0005 0.0000 7.6007
    endloop
endfacet
facet normal 0.0000 -1.3054 0.0000
    outer loop
        vertex -1.9841 0.0000 7.4052
        vertex -2.9340 0.0000 7.0832
        vertex -2.6406 0.0000 6.3749
    endloop
endfacet
facet normal 0.0000 -1.1749 0.0000
    outer loop
        vertex -2.6406 0.0000 6.3749
        vertex -1.7857 0.0000 6.6647
        vertex -1.9841 0.0000 7.4052
    endloop
endfacet
facet normal 0.0000 -1.3053 0.0000
    outer loop
        vertex -2.9340 0.0000 7.0832
        vertex -3.8333 0.0000 6.6393
        vertex -3.4500 0.0000 5.9754
    endloop
endfacet
facet normal 0.0000 -1.1748 0.0000
    outer loop
        vertex -3.4500 0.0000 5.9754
        vertex -2.6406 0.0000 6.3749
        vertex -2.9340 0.0000 7.0832
    endloop
endfacet
facet normal 0.0000 -1.3052 0.0000
    outer loop
        vertex -3.8333 0.0000 6.6393
        vertex -4.6675 0.0000 6.0827
        vertex -4.2007 0.0000 5.4745
    endloop
endfacet
facet normal 0.0000 -1.1747 0.0000
    outer loop
        vertex -4.2007 0.0000 5.4745
        vertex -3.4500 0.0000 5.9754
        vertex -3.8333 0.0000 6.6393
    endloop
endfacet
facet normal 0.0000 -1.3053 0.0000
    outer loop
        vertex -4.6675 0.0000 6.0827
        vertex -5.4211 0.0000 5.4211
        vertex -4.8790 0.0000 4.8790
    endloop
endfacet
facet normal 0.0000 -1.1748 0.0000
    outer loop
        vertex -4.8790 0.0000 4.8790
        vertex -4.2007 0.0000 5.4745
        vertex -4.6675 0.0000 6.0827
    endloop
endfacet
facet normal 0.0000 -1.3053 0.0000
    outer loop
        vertex -5.4211 0.0000 5.4211
        vertex -6.0827 0.0000 4.6675
        vertex -5.4745 0.0000 4.2007
    endloop
endfacet
facet normal 0.0000 -1.1748 0.0000
    outer loop
        vertex -5.4745 0.0000 4.2007
        vertex -4.8790 0.0000 4.8790
        vertex -5.4211 0.0000 5.4211
    endloop
endfacet
facet normal 0.0000 -1.3052 0.0000
    outer loop
        vertex -6.0827 0.0000 4.6675
        vertex -6.6393 0.0000 3.8333
        vertex -5.9754 0.0000 3.4500
    endloop
endfacet
facet normal 0.0000 -1.1747 0.0000
    outer loop
        vertex -5.9754 0.0000 3.4500
        vertex -5.4745 0.0000 4.2007
        vertex -6.0827 0.0000 4.6675
    endloop
endfacet
facet normal 0.0000 -1.3053 0.0000
    outer loop
        vertex -6.6393 0.0000 3.8333
        vertex -7.0832 0.0000 2.9340
        vertex -6.3749 0.0000 2.6406
    endloop
endfacet
facet normal 0.0000 -1.1748 0.0000
    outer loop
        vertex -6.3749 0.0000 2.6406
        vertex -5.9754 0.0000 3.4500
        vertex -6.6393 0.0000 3.8333
    endloop
endfacet
facet normal 0.0000 -1.3054 0.0000
    outer loop
        vertex -7.0832 0.0000 2.9340
        vertex -7.4052 0.0000 1.9841
        vertex -6.6647 0.0000 1.7857
    endloop
endfacet
facet normal 0.0000 -1.1749 0.0000
    outer loop
        vertex -6.6647 0.0000 1.7857
        vertex -6.3749 0.0000 2.6406
        vertex -7.0832 0.0000 2.9340
    endloop
endfacet
facet normal 0.0000 -1.3052 0.0000
    outer loop
        vertex -7.4052 0.0000 1.9841
        vertex -7.6007 0.0000 1.0005
        vertex -6.8407 0.0000 0.9005
    endloop
endfacet
facet normal 0.0000 -1.1747 0.0000
    outer loop
        vertex -6.8407 0.0000 0.9005
        vertex -6.6647 0.0000 1.7857
        vertex -7.4052 0.0000 1.9841
    endloop
endfacet
facet normal 0.0000 -1.3050 0.0000
    outer loop
        vertex -7.6007 0.0000 1.0005
        vertex -7.6667 0.0000 0.0000
        vertex -6.9000 0.0000 0.0000
    endloop
endfacet
facet normal 0.0000 -1.1745 0.0000
    outer loop
        vertex -6.9000 0.0000 0.0000
        vertex -6.8407 0.0000 0.9005
        vertex -7.6007 0.0000 1.0005
    endloop
endfacet
facet normal 0.0000 -1.3050 0.0000
    outer loop
        vertex -7.6667 0.0000 0.0000
        vertex -7.6007 0.0000 -1.0005
        vertex -6.8407 0.0000 -0.9005
    endloop
endfacet
facet normal 0.0000 -1.1745 0.0000
    outer loop
        vertex -6.8407 0.0000 -0.9005
        vertex -6.9000 0.0000 0.0000
        vertex -7.6667 0.0000 0.0000
    endloop
endfacet
facet normal 0.0000 -1.3052 0.0000
    outer loop
        vertex -7.6007 0.0000 -1.0005
        vertex -7.4052 0.0000 -1.9841
        vertex -6.6647 0.0000 -1.7857
    endloop
endfacet
facet normal 0.0000 -1.1747 0.0000
    outer loop
        vertex -6.6647 0.0000 -1.7857
        vertex -6.8407 0.0000 -0.9005
        vertex -7.6007 0.0000 -1.0005
    endloop
endfacet
facet normal 0.0000 -1.3054 0.0000
    outer loop
        vertex -7.4052 0.0000 -1.9841
        vertex -7.0832 0.0000 -2.9340
        vertex -6.3749 0.0000 -2.6406
    endloop
endfacet
facet normal 0.0000 -1.1749 0.0000
    outer loop
        vertex -6.3749 0.0000 -2.6406
        vertex -6.6647 0.0000 -1.7857
        vertex -7.4052 0.0000 -1.9841
    endloop
endfacet
facet normal 0.0000 -1.3053 0.0000
    outer loop
        vertex -7.0832 0.0000 -2.9340
        vertex -6.6393 0.0000 -3.8333
        vertex -5.9754 0.0000 -3.4500
    endloop
endfacet
facet normal 0.0000 -1.1748 0.0000
    outer loop
        vertex -5.9754 0.0000 -3.4500
        vertex -6.3749 0.0000 -2.6406
        vertex -7.0832 0.0000 -2.9340
    endloop
endfacet
facet normal 0.0000 -1.3052 0.0000
    outer loop
        vertex -6.6393 0.0000 -3.8333
        vertex -6.0827 0.0000 -4.6675
        vertex -5.4745 0.0000 -4.2007
    endloop
endfacet
facet normal 0.0000 -1.1747 0.0000
    outer loop
        vertex -5.4745 0.0000 -4.2007
        vertex -5.9754 0.0000 -3.4500
        vertex -6.6393 0.0000 -3.8333
    endloop
endfacet
facet normal 0.0000 -1.3053 0.0000
    outer loop
        vertex -6.0827 0.0000 -4.6675
        vertex -5.4211 0.0000 -5.4211
        vertex -4.8790 0.0000 -4.8790
    endloop
endfacet
facet normal 0.0000 -1.1748 0.0000
    outer loop
        vertex -4.8790 0.0000 -4.8790
        vertex -5.4745 0.0000 -4.2007
        vertex -6.0827 0.0000 -4.6675
    endloop
endfacet
facet normal 0.0000 -1.3053 0.0000
    outer loop
        vertex -5.4211 0.0000 -5.4211
        vertex -4.6675 0.0000 -6.0827
        vertex -4.2007 0.0000 -5.4745
    endloop
endfacet
facet normal 0.0000 -1.1748 0.0000
    outer loop
        vertex -4.2007 0.0000 -5.4745
        vertex -4.8790 0.0000 -4.8790
        vertex -5.4211 0.0000 -5.4211
    endloop
endfacet
facet normal 0.0000 -1.3052 0.0000
    outer loop
        vertex -4.6675 0.0000 -6.0827
        vertex -3.8333 0.0000 -6.6393
        vertex -3.4500 0.0000 -5.9754
    endloop
endfacet
facet normal 0.0000 -1.1747 0.0000
    outer loop
        vertex -3.4500 0.0000 -5.9754
        vertex -4.2007 0.0000 -5.4745
        vertex -4.6675 0.0000 -6.0827
    endloop
endfacet
facet normal 0.0000 -1.3053 0.0000
    outer loop
        vertex -3.8333 0.0000 -6.6393
        vertex -2.9340 0.0000 -7.0832
        vertex -2.6406 0.0000 -6.3749
    endloop
endfacet
facet normal 0.0000 -1.1748 0.0000
    outer loop
        vertex -2.6406 0.0000 -6.3749
        vertex -3.4500 0.0000 -5.9754
        vertex -3.8333 0.0000 -6.6393
    endloop
endfacet
facet normal 0.0000 -1.3054 0.0000
    outer loop
        vertex -2.9340 0.0000 -7.0832
        vertex -1.9841 0.0000 -7.4052
        vertex -1.7857 0.0000 -6.6647
    endloop
endfacet
facet normal 0.0000 -1.1749 0.0000
    outer loop
        vertex -1.7857 0.0000 -6.6647
        vertex -2.6406 0.0000 -6.3749
        vertex -2.9340 0.0000 -7.0832
    endloop
endfacet
facet normal 0.0000 -1.3052 0.0000
    outer loop
        vertex -1.9841 0.0000 -7.4052
        vertex -1.0005 0.0000 -7.6007
        vertex -0.9005 0.0000 -6.8407
    endloop
endfacet
facet normal 0.0000 -1.1747 0.0000
    outer loop
        vertex -0.9005 0.0000 -6.8407
        vertex -1.7857 0.0000 -6.6647
        vertex -1.9841 0.0000 -7.4052
    endloop
endfacet
facet normal 0.0000 -1.3050 0.0000
    outer loop
        vertex -1.0005 0.0000 -7.6007
        vertex 0.0000 0.0000 -7.6667
        vertex 0.0000 0.0000 -6.9000
    endloop
endfacet
facet normal 0.0000 -1.1745 0.0000
    outer loop
        vertex 0.0000 0.0000 -6.9000
        vertex -0.9005 0.0000 -6.8407
        vertex -1.0005 0.0000 -7.6007
    endloop
endfacet
facet normal 0.0000 -1.3050 0.0000
    outer loop
        vertex 0.0000 0.0000 -7.6667
        vertex 1.0005 0.0000 -7.6007
        vertex 0.9005 0.0000 -6.8407
    endloop
endfacet
facet normal 0.0000 -1.1745 0.0000
    outer loop
        vertex 0.9005 0.0000 -6.8407
        vertex 0.0000 0.0000 -6.9000
        vertex 0.0000 0.0000 -7.6667
    endloop
endfacet
facet normal 0.0000 -1.3052 0.0000
    outer loop
        vertex 1.0005 0.0000 -7.6007
        vertex 1.9841 0.0000 -7.4052
        vertex 1.7857 0.0000 -6.6647
    endloop
endfacet
facet normal 0.0000 -1.1747 0.0000
    outer loop
        vertex 1.7857 0.0000 -6.6647
        vertex 0.9005 0.0000 -6.8407
        vertex 1.0005 0.0000 -7.6007
    endloop
endfacet
facet normal 0.0000 -1.3054 0.0000
    outer loop
        vertex 1.9841 0.0000 -7.4052
        vertex 2.9340 0.0000 -7.0832
        vertex 2.6406 0.0000 -6.3749
    endloop
endfacet
facet normal 0.0000 -1.1749 0.0000
    outer loop
        vertex 2.6406 0.0000 -6.3749
        vertex 1.7857 0.0000 -6.6647
        vertex 1.9841 0.0000 -7.4052
    endloop
endfacet
facet normal 0.0000 -1.3053 0.0000
    outer loop
        vertex 2.9340 0.0000 -7.0832
        vertex 3.8333 0.0000 -6.6393
        vertex 3.4500 0.0000 -5.9754
    endloop
endfacet
facet normal 0.0000 -1.1748 0.0000
    outer loop
        vertex 3.4500 0.0000 -5.9754
        vertex 2.6406 0.0000 -6.3749
        vertex 2.9340 0.0000 -7.0832
    endloop
endfacet
facet normal 0.0000 -1.3052 0.0000
    outer loop
        vertex 3.8333 0.0000 -6.6393
        vertex 4.6675 0.0000 -6.0827
        vertex 4.2007 0.0000 -5.4745
    endloop
endfacet
facet normal 0.0000 -1.1747 0.0000
    outer loop
        vertex 4.2007 0.0000 -5.4745
        vertex 3.4500 0.0000 -5.9754
        vertex 3.8333 0.0000 -6.6393
    endloop
endfacet
facet normal 0.0000 -1.3053 0.0000
    outer loop
        vertex 4.6675 0.0000 -6.0827
        vertex 5.4211 0.0000 -5.4211
        vertex 4.8790 0.0000 -4.8790
    endloop
endfacet
facet normal 0.0000 -1.1748 0.0000
    outer loop
        vertex 4.8790 0.0000 -4.8790
        vertex 4.2007 0.0000 -5.4745
        vertex 4.6675 0.0000 -6.0827
    endloop
endfacet
facet normal 0.0000 -1.3053 0.0000
    outer loop
        vertex 5.4211 0.0000 -5.4211
        vertex 6.0827 0.0000 -4.6675
        vertex 5.4745 0.0000 -4.2007
    endloop
endfacet
facet normal 0.0000 -1.1748 0.0000
    outer loop
        vertex 5.4745 0.0000 -4.2007
        vertex 4.8790 0.0000 -4.8790
        vertex 5.4211 0.0000 -5.4211
    endloop
endfacet
facet normal 0.0000 -1.3052 0.0000
    outer loop
        vertex 6.0827 0.0000 -4.6675
        vertex 6.6393 0.0000 -3.8333
        vertex 5.9754 0.0000 -3.4500
    endloop
endfacet
facet normal 0.0000 -1.1747 0.0000
    outer loop
        vertex 5.9754 0.0000 -3.4500
        vertex 5.4745 0.0000 -4.2007
        vertex 6.0827 0.0000 -4.6675
    endloop
endfacet
facet normal 0.0000 -1.3053 0.0000
    outer loop
        vertex 6.6393 0.0000 -3.8333
        vertex 7.0832 0.0000 -2.9340
        vertex 6.3749 0.0000 -2.6406
    endloop
endfacet
facet normal 0.0000 -1.1748 0.0000
    outer loop
        vertex 6.3749 0.0000 -2.6406
        vertex 5.9754 0.0000 -3.4500
        vertex 6.6393 0.0000 -3.8333
    endloop
endfacet
facet normal 0.0000 -1.3054 0.0000
    outer loop
        vertex 7.0832 0.0000 -2.9340
        vertex 7.4052 0.0000 -1.9841
        vertex 6.6647 0.0000 -1.7857
    endloop
endfacet
facet normal 0.0000 -1.1749 0.0000
    outer loop
        vertex 6.6647 0.0000 -1.7857
        vertex 6.3749 0.0000 -2.6406
        vertex 7.0832 0.0000 -2.9340
    endloop
endfacet
facet normal 0.0000 -1.3052 0.0000
    outer loop
        vertex 7.4052 0.0000 -1.9841
        vertex 7.6007 0.0000 -1.0005
        vertex 6.8407 0.0000 -0.9005
    endloop
endfacet
facet normal 0.0000 -1.1747 0.0000
    outer loop
        vertex 6.8407 0.0000 -0.9005
        vertex 6.6647 0.0000 -1.7857
        vertex 7.4052 0.0000 -1.9841
    endloop
endfacet
facet normal 0.0000 -1.3050 0.0000
    outer loop
        vertex 7.6007 0.0000 -1.0005
        vertex 7.6667 0.0000 0.0000
        vertex 6.9000 0.0000 0.0000
    endloop
endfacet
facet normal 0.0000 -1.1745 0.0000
    outer loop
        vertex 6.9000 0.0000 0.0000
        vertex 6.8407 0.0000 -0.9005
        vertex 7.6007 0.0000 -1.0005
    endloop
endfacet
facet normal 0.0000 0.6950 0.0000
    outer loop
        vertex 7.6667 0.8000 0.0000
        vertex 6.8407 0.8000 0.9005
        vertex 7.6007 0.8000 1.0005
    endloop
endfacet
facet normal 0.0000 0.8255 0.0000
    outer loop
        vertex 6.8407 0.8000 0.9005
        vertex 7.6667 0.8000 0.0000
        vertex 6.9000 0.8000 0.0000
    endloop
endfacet
facet normal 0.0000 0.6948 0.0000
    outer loop
        vertex 7.6007 0.8000 1.0005
        vertex 6.6647 0.8000 1.7857
        vertex 7.4052 0.8000 1.9841
    endloop
endfacet
facet normal 0.0000 0.8253 0.0000
    outer loop
        vertex 6.6647 0.8000 1.7857
        vertex 7.6007 0.8000 1.0005
        vertex 6.8407 0.8000 0.9005
    endloop
endfacet
facet normal 0.0000 0.6946 0.0000
    outer loop
        vertex 7.4052 0.8000 1.9841
        vertex 6.3749 0.8000 2.6406
        vertex 7.0832 0.8000 2.9340
    endloop
endfacet
facet normal 0.0000 0.8251 0.0000
    outer loop
        vertex 6.3749 0.8000 2.6406
        vertex 7.4052 0.8000 1.9841
        vertex 6.6647 0.8000 1.7857
    endloop
endfacet
facet normal 0.0000 0.6947 0.0000
    outer loop
        vertex 7.0832 0.8000 2.9340
        vertex 5.9754 0.8000 3.4500
        vertex 6.6393 0.8000 3.8333
    endloop
endfacet
facet normal 0.0000 0.8252 0.0000
    outer loop
        vertex 5.9754 0.8000 3.4500
        vertex 7.0832 0.8000 2.9340
        vertex 6.3749 0.8000 2.6406
    endloop
endfacet
facet normal 0.0000 0.6948 0.0000
    outer loop
        vertex 6.6393 0.8000 3.8333
        vertex 5.4745 0.8000 4.2007
        vertex 6.0827 0.8000 4.6675
    endloop
endfacet
facet normal 0.0000 0.8253 0.0000
    outer loop
        vertex 5.4745 0.8000 4.2007
        vertex 6.6393 0.8000 3.8333
        vertex 5.9754 0.8000 3.4500
    endloop
endfacet
facet normal 0.0000 0.6947 0.0000
    outer loop
        vertex 6.0827 0.8000 4.6675
        vertex 4.8790 0.8000 4.8790
        vertex 5.4211 0.8000 5.4211
    endloop
endfacet
facet normal 0.0000 0.8252 0.0000
    outer loop
        vertex 4.8790 0.8000 4.8790
        vertex 6.0827 0.8000 4.6675
        vertex 5.4745 0.8000 4.2007
    endloop
endfacet
facet normal 0.0000 0.6947 0.0000
    outer loop
        vertex 5.4211 0.8000 5.4211
        vertex 4.2007 0.8000 5.4745
        vertex 4.6675 0.8000 6.0827
    endloop
endfacet
facet normal 0.0000 0.8252 0.0000
    outer loop
        vertex 4.2007 0.8000 5.4745
        vertex 5.4211 0.8000 5.4211
        vertex 4.8790 0.8000 4.8790
    endloop
endfacet
facet normal 0.0000 0.6948 0.0000
    outer loop
        vertex 4.6675 0.8000 6.0827
        vertex 3.4500 0.8000 5.9754
        vertex 3.8333 0.8000 6.6393
    endloop
endfacet
facet normal 0.0000 0.8253 0.0000
    outer loop
        vertex 3.4500 0.8000 5.9754
        vertex 4.6675 0.8000 6.0827
        vertex 4.2007 0.8000 5.4745
    endloop
endfacet
facet normal 0.0000 0.6947 0.0000
    outer loop
        vertex 3.8333 0.8000 6.6393
        vertex 2.6406 0.8000 6.3749
        vertex 2.9340 0.8000 7.0832
    endloop
endfacet
facet normal 0.0000 0.8252 0.0000
    outer loop
        vertex 2.6406 0.8000 6.3749
        vertex 3.8333 0.8000 6.6393
        vertex 3.4500 0.8000 5.9754
    endloop
endfacet
facet normal 0.0000 0.6946 0.0000
    outer loop
        vertex 2.9340 0.8000 7.0832
        vertex 1.7857 0.8000 6.6647
        vertex 1.9841 0.8000 7.4052
    endloop
endfacet
facet normal 0.0000 0.8251 0.0000
    outer loop
        vertex 1.7857 0.8000 6.6647
        vertex 2.9340 0.8000 7.0832
        vertex 2.6406 0.8000 6.3749
    endloop
endfacet
facet normal 0.0000 0.6948 0.0000
    outer loop
        vertex 1.9841 0.8000 7.4052
        vertex 0.9005 0.8000 6.8407
        vertex 1.0005 0.8000 7.6007
    endloop
endfacet
facet normal 0.0000 0.8253 0.0000
    outer loop
        vertex 0.9005 0.8000 6.8407
        vertex 1.9841 0.8000 7.4052
        vertex 1.7857 0.8000 6.6647
    endloop
endfacet
facet normal 0.0000 0.6950 0.0000
    outer loop
        vertex 1.0005 0.8000 7.6007
        vertex 0.0000 0.8000 6.9000
        vertex 0.0000 0.8000 7.6667
    endloop
endfacet
facet normal 0.0000 0.8255 0.0000
    outer loop
        vertex 0.0000 0.8000 6.9000
        vertex 1.0005 0.8000 7.6007
        vertex 0.9005 0.8000 6.8407
    endloop
endfacet
facet normal 0.0000 0.6950 0.0000
    outer loop
        vertex 0.0000 0.8000 7.6667
        vertex -0.9005 0.8000 6.8407
        vertex -1.0005 0.8000 7.6007
    endloop
endfacet
facet normal 0.0000 0.8255 0.0000
    outer loop
        vertex -0.9005 0.8000 6.8407
        vertex 0.0000 0.8000 7.6667
        vertex 0.0000 0.8000 6.9000
    endloop
endfacet
facet normal 0.0000 0.6948 0.0000
    outer loop
        vertex -1.0005 0.8000 7.6007
        vertex -1.7857 0.8000 6.6647
        vertex -1.9841 0.8000 7.4052
    endloop
endfacet
facet normal 0.0000 0.8253 0.0000
    outer loop
        vertex -1.7857 0.8000 6.6647
        vertex -1.0005 0.8000 7.6007
        vertex -0.9005 0.8000 6.8407
    endloop
endfacet
facet normal 0.0000 0.6946 0.0000
    outer loop
        vertex -1.9841 0.8000 7.4052
        vertex -2.6406 0.8000 6.3749
        vertex -2.9340 0.8000 7.0832
    endloop
endfacet
facet normal 0.0000 0.8251 0.0000
    outer loop
        vertex -2.6406 0.8000 6.3749
        vertex -1.9841 0.8000 7.4052
        vertex -1.7857 0.8000 6.6647
    endloop
endfacet
facet normal 0.0000 0.6947 0.0000
    outer loop
        vertex -2.9340 0.8000 7.0832
        vertex -3.4500 0.8000 5.9754
        vertex -3.8333 0.8000 6.6393
    endloop
endfacet
facet normal 0.0000 0.8252 0.0000
    outer loop
        vertex -3.4500 0.8000 5.9754
        vertex -2.9340 0.8000 7.0832
        vertex -2.6406 0.8000 6.3749
    endloop
endfacet
facet normal 0.0000 0.6948 0.0000
    outer loop
        vertex -3.8333 0.8000 6.6393
        vertex -4.2007 0.8000 5.4745
        vertex -4.6675 0.8000 6.0827
    endloop
endfacet
facet normal 0.0000 0.8253 0.0000
    outer loop
        vertex -4.2007 0.8000 5.4745
        vertex -3.8333 0.8000 6.6393
        vertex -3.4500 0.8000 5.9754
    endloop
endfacet
facet normal 0.0000 0.6947 0.0000
    outer loop
        vertex -4.6675 0.8000 6.0827
        vertex -4.8790 0.8000 4.8790
        vertex -5.4211 0.8000 5.4211
    endloop
endfacet
facet normal 0.0000 0.8252 0.0000
    outer loop
        vertex -4.8790 0.8000 4.8790
        vertex -4.6675 0.8000 6.0827
        vertex -4.2007 0.8000 5.4745
    endloop
endfacet
facet normal 0.0000 0.6947 0.0000
    outer loop
        vertex -5.4211 0.8000 5.4211
        vertex -5.4745 0.8000 4.2007
        vertex -6.0827 0.8000 4.6675
    endloop
endfacet
facet normal 0.0000 0.8252 0.0000
    outer loop
        vertex -5.4745 0.8000 4.2007
        vertex -5.4211 0.8000 5.4211
        vertex -4.8790 0.8000 4.8790
    endloop
endfacet
facet normal 0.0000 0.6948 0.0000
    outer loop
        vertex -6.0827 0.8000 4.6675
        vertex -5.9754 0.8000 3.4500
        vertex -6.6393 0.8000 3.8333
    endloop
endfacet
facet normal 0.0000 0.8253 0.0000
    outer loop
        vertex -5.9754 0.8000 3.4500
        vertex -6.0827 0.8000 4.6675
        vertex -5.4745 0.8000 4.2007
    endloop
endfacet
facet normal 0.0000 0.6947 0.0000
    outer loop
        vertex -6.6393 0.8000 3.8333
        vertex -6.3749 0.8000 2.6406
        vertex -7.0832 0.8000 2.9340
    endloop
endfacet
facet normal 0.0000 0.8252 0.0000
    outer loop
        vertex -6.3749 0.8000 2.6406
        vertex -6.6393 0.8000 3.8333
        vertex -5.9754 0.8000 3.4500
    endloop
endfacet
facet normal 0.0000 0.6946 0.0000
    outer loop
        vertex -7.0832 0.8000 2.9340
        vertex -6.6647 0.8000 1.7857
        vertex -7.4052 0.8000 1.9841
    endloop
endfacet
facet normal 0.0000 0.8251 0.0000
    outer loop
        vertex -6.6647 0.8000 1.7857
        vertex -7.0832 0.8000 2.9340
        vertex -6.3749 0.8000 2.6406
    endloop
endfacet
facet normal 0.0000 0.6948 0.0000
    outer loop
        vertex -7.4052 0.8000 1.9841
        vertex -6.8407 0.8000 0.9005
        vertex -7.6007 0.8000 1.0005
    endloop
endfacet
facet normal 0.0000 0.8253 0.0000
    outer loop
        vertex -6.8407 0.8000 0.9005
        vertex -7.4052 0.8000 1.9841
        vertex -6.6647 0.8000 1.7857
    endloop
endfacet
facet normal 0.0000 0.6950 0.0000
    outer loop
        vertex -7.6007 0.8000 1.0005
        vertex -6.9000 0.8000 0.0000
        vertex -7.6667 0.8000 0.0000
    endloop
endfacet
facet normal 0.0000 0.8255 0.0000
    outer loop
        vertex -6.9000 0.8000 0.0000
        vertex -7.6007 0.8000 1.0005
        vertex -6.8407 0.8000 0.9005
    endloop
endfacet
facet normal 0.0000 0.6950 0.0000
    outer loop
        vertex -7.6667 0.8000 0.0000
        vertex -6.8407 0.8000 -0.9005
        vertex -7.6007 0.8000 -1.0005
    endloop
endfacet
facet normal 0.0000 0.8255 0.0000
    outer loop
        vertex -6.8407 0.8000 -0.9005
        vertex -7.6667 0.8000 0.0000
        vertex -6.9000 0.8000 0.0000
    endloop
endfacet
facet normal 0.0000 0.6948 0.0000
    outer loop
        vertex -7.6007 0.8000 -1.0005
        vertex -6.6647 0.8000 -1.7857
        vertex -7.4052 0.8000 -1.9841
    endloop
endfacet
facet normal 0.0000 0.8253 0.0000
    outer loop
        vertex -6.6647 0.8000 -1.7857
        vertex -7.6007 0.8000 -1.0005
        vertex -6.8407 0.8000 -0.9005
    endloop
endfacet
facet normal 0.0000 0.6946 0.0000
    outer loop
        vertex -7.4052 0.8000 -1.9841
        vertex -6.3749 0.8000 -2.6406
        vertex -7.0832 0.8000 -2.9340
    endloop
endfacet
facet normal 0.0000 0.8251 0.0000
    outer loop
        vertex -6.3749 0.8000 -2.6406
        vertex -7.4052 0.8000 -1.9841
        vertex -6.6647 0.8000 -1.7857
    endloop
endfacet
facet normal 0.0000 0.6947 0.0000
    outer loop
        vertex -7.0832 0.8000 -2.9340
        vertex -5.9754 0.8000 -3.4500
        vertex -6.6393 0.8000 -3.8333
    endloop
endfacet
facet normal 0.0000 0.8252 0.0000
    outer loop
        vertex -5.9754 0.8000 -3.4500
        vertex -7.0832 0.8000 -2.9340
        vertex -6.3749 0.8000 -2.6406
    endloop
endfacet
facet normal 0.0000 0.6948 0.0000
    outer loop
        vertex -6.6393 0.8000 -3.8333
        vertex -5.4745 0.8000 -4.2007
        vertex -6.0827 0.8000 -4.6675
    endloop
endfacet
facet normal 0.0000 0.8253 0.0000
    outer loop
        vertex -5.4745 0.8000 -4.2007
        vertex -6.6393 0.8000 -3.8333
        vertex -5.9754 0.8000 -3.4500
    endloop
endfacet
facet normal 0.0000 0.6947 0.0000
    outer loop
        vertex -6.0827 0.8000 -4.6675
        vertex -4.8790 0.8000 -4.8790
        vertex -5.4211 0.8000 -5.4211
    endloop
endfacet
facet normal 0.0000 0.8252 0.0000
    outer loop
        vertex -4.8790 0.8000 -4.8790
        vertex -6.0827 0.8000 -4.6675
        vertex -5.4745 0.8000 -4.2007
    endloop
endfacet
facet normal 0.0000 0.6947 0.0000
    outer loop
        vertex -5.4211 0.8000 -5.4211
        vertex -4.2007 0.8000 -5.4745
        vertex -4.6675 0.8000 -6.0827
    endloop
endfacet
facet normal 0.0000 0.8252 0.0000
    outer loop
        vertex -4.2007 0.8000 -5.4745
        vertex -5.4211 0.8000 -5.4211
        vertex -4.8790 0.8000 -4.8790
    endloop
endfacet
facet normal 0.0000 0.6948 0.0000
    outer loop
        vertex -4.6675 0.8000 -6.0827
        vertex -3.4500 0.8000 -5.9754
        vertex -3.8333 0.8000 -6.6393
    endloop
endfacet
facet normal 0.0000 0.8253 0.0000
    outer loop
        vertex -3.4500 0.8000 -5.9754
        vertex -4.6675 0.8000 -6.0827
        vertex -4.2007 0.8000 -5.4745
    endloop
endfacet
facet normal 0.0000 0.6947 0.0000
    outer loop
        vertex -3.8333 0.8000 -6.6393
        vertex -2.6406 0.8000 -6.3749
        vertex -2.9340 0.8000 -7.0832
    endloop
endfacet
facet normal 0.0000 0.8252 0.0000
    outer loop
        vertex -2.6406 0.8000 -6.3749
        vertex -3.8333 0.8000 -6.6393
        vertex -3.4500 0.8000 -5.9754
    endloop
endfacet
facet normal 0.0000 0.6946 0.0000
    outer loop
        vertex -2.9340 0.8000 -7.0832
        vertex -1.7857 0.8000 -6.6647
        vertex -1.9841 0.8000 -7.4052
    endloop
endfacet
facet normal 0.0000 0.8251 0.0000
    outer loop
        vertex -1.7857 0.8000 -6.6647
        vertex -2.9340 0.8000 -7.0832
        vertex -2.6406 0.8000 -6.3749
    endloop
endfacet
facet normal 0.0000 0.6948 0.0000
    outer loop
        vertex -1.9841 0.8000 -7.4052
        vertex -0.9005 0.8000 -6.8407
        vertex -1.0005 0.8000 -7.6007
    endloop
endfacet
facet normal 0.0000 0.8253 0.0000
    outer loop
        vertex -0.9005 0.8000 -6.8407
        vertex -1.9841 0.8000 -7.4052
        vertex -1.7857 0.8000 -6.6647
    endloop
endfacet
facet normal 0.0000 0.6950 0.0000
    outer loop
        vertex -1.0005 0.8000 -7.6007
        vertex 0.0000 0.8000 -6.9000
        vertex 0.0000 0.8000 -7.6667
    endloop
endfacet
facet normal 0.0000 0.8255 0.0000
    outer loop
        vertex 0.0000 0.8000 -6.9000
        vertex -1.0005 0.8000 -7.6007
        vertex -0.9005 0.8000 -6.8407
    endloop
endfacet
facet normal 0.0000 0.6950 0.0000
    outer loop
        vertex 0.0000 0.8000 -7.6667
        vertex 0.9005 0.8000 -6.8407
        vertex 1.0005 0.8000 -7.6007
    endloop
endfacet
facet normal 0.0000 0.8255 0.0000
    outer loop
        vertex 0.9005 0.8000 -6.8407
        vertex 0.0000 0.8000 -7.6667
        vertex 0.0000 0.8000 -6.9000
    endloop
endfacet
facet normal 0.0000 0.6948 0.0000
    outer loop
        vertex 1.0005 0.8000 -7.6007
        vertex 1.7857 0.8000 -6.6647
        vertex 1.9841 0.8000 -7.4052
    endloop
endfacet
facet normal 0.0000 0.8253 0.0000
    outer loop
        vertex 1.7857 0.8000 -6.6647
        vertex 1.0005 0.8000 -7.6007
        vertex 0.9005 0.8000 -6.8407
    endloop
endfacet
facet normal 0.0000 0.6946 0.0000
    outer loop
        vertex 1.9841 0.8000 -7.4052
        vertex 2.6406 0.8000 -6.3749
        vertex 2.9340 0.8000 -7.0832
    endloop
endfacet
facet normal 0.0000 0.8251 0.0000
    outer loop
        vertex 2.6406 0.8000 -6.3749
        vertex 1.9841 0.8000 -7.4052
        vertex 1.7857 0.8000 -6.6647
    endloop
endfacet
facet normal 0.0000 0.6947 0.0000
    outer loop
        vertex 2.9340 0.8000 -7.0832
        vertex 3.4500 0.8000 -5.9754
        vertex 3.8333 0.8000 -6.6393
    endloop
endfacet
facet normal 0.0000 0.8252 0.0000
    outer loop
        vertex 3.4500 0.8000 -5.9754
        vertex 2.9340 0.8000 -7.0832
        vertex 2.6406 0.8000 -6.3749
    endloop
endfacet
facet normal 0.0000 0.6948 0.0000
    outer loop
        vertex 3.8333 0.8000 -6.6393
        vertex 4.2007 0.8000 -5.4745
        vertex 4.6675 0.8000 -6.0827
    endloop
endfacet
facet normal 0.0000 0.8253 0.0000
    outer loop
        vertex 4.2007 0.8000 -5.4745
        vertex 3.8333 0.8000 -6.6393
        vertex 3.4500 0.8000 -5.9754
    endloop
endfacet
facet normal 0.0000 0.6947 0.0000
    outer loop
        vertex 4.6675 0.8000 -6.0827
        vertex 4.8790 0.8000 -4.8790
        vertex 5.4211 0.8000 -5.4211
    endloop
endfacet
facet normal 0.0000 0.8252 0.0000
    outer loop
        vertex 4.8790 0.8000 -4.8790
        vertex 4.6675 0.8000 -6.0827
        vertex 4.2007 0.8000 -5.4745
    endloop
endfacet
facet normal 0.0000 0.6947 0.0000
    outer loop
        vertex 5.4211 0.8000 -5.4211
        vertex 5.4745 0.8000 -4.2007
        vertex 6.0827 0.8000 -4.6675
    endloop
endfacet
facet normal 0.0000 0.8252 0.0000
    outer loop
        vertex 5.4745 0.8000 -4.2007
        vertex 5.4211 0.8000 -5.4211
        vertex 4.8790 0.8000 -4.8790
    endloop
endfacet
facet normal 0.0000 0.6948 0.0000
    outer loop
        vertex 6.0827 0.8000 -4.6675
        vertex 5.9754 0.8000 -3.4500
        vertex 6.6393 0.8000 -3.8333
    endloop
endfacet
facet normal 0.0000 0.8253 0.0000
    outer loop
        vertex 5.9754 0.8000 -3.4500
        vertex 6.0827 0.8000 -4.6675
        vertex 5.4745 0.8000 -4.2007
    endloop
endfacet
facet normal 0.0000 0.6947 0.0000
    outer loop
        vertex 6.6393 0.8000 -3.8333
        vertex 6.3749 0.8000 -2.6406
        vertex 7.0832 0.8000 -2.9340
    endloop
endfacet
facet normal 0.0000 0.8252 0.0000
    outer loop
        vertex 6.3749 0.8000 -2.6406
        vertex 6.6393 0.8000 -3.8333
        vertex 5.9754 0.8000 -3.4500
    endloop
endfacet
facet normal 0.0000 0.6946 0.0000
    outer loop
        vertex 7.0832 0.8000 -2.9340
        vertex 6.6647 0.8000 -1.7857
        vertex 7.4052 0.8000 -1.9841
    endloop
endfacet
facet normal 0.0000 0.8251 0.0000
    outer loop
        vertex 6.6647 0.8000 -1.7857
        vertex 7.0832 0.8000 -2.9340
        vertex 6.3749 0.8000 -2.6406
    endloop
endfacet
facet normal 0.0000 0.6948 0.0000
    outer loop
        vertex 7.4052 0.8000 -1.9841
        vertex 6.8407 0.8000 -0.9005
        vertex 7.6007 0.8000 -1.0005
    endloop
endfacet
facet normal 0.0000 0.8253 0.0000
    outer loop
        vertex 6.8407 0.8000 -0.9005
        vertex 7.4052 0.8000 -1.9841
        vertex 6.6647 0.8000 -1.7857
    endloop
endfacet
facet normal 0.0000 0.6950 0.0000
    outer loop
        vertex 7.6007 0.8000 -1.0005
        vertex 6.9000 0.8000 0.0000
        vertex 7.6667 0.8000 0.0000
    endloop
endfacet
facet normal 0.0000 0.8255 0.0000
    outer loop
        vertex 6.9000 0.8000 0.0000
        vertex 7.6007 0.8000 -1.0005
        vertex 6.8407 0.8000 -0.9005
    endloop
endfacet
endsolid GiantLegoRocks
