solid GiantLegoRocks
facet normal 0.0000 0.0000 0.2610
    outer loop
        vertex 0.0000 0.0000 0.0000
        vertex 3.1200 0.0000 0.0000
        vertex 3.0932 0.4072 0.0000
    endloop
endfacet
facet normal 0.0000 0.0000 0.2610
    outer loop
        vertex 0.0000 0.0000 0.0000
        vertex 3.0932 0.4072 0.0000
        vertex 3.0136 0.8075 0.0000
    endloop
endfacet
facet normal 0.0000 0.0000 0.2611
    outer loop
        vertex 0.0000 0.0000 0.0000
        vertex 3.0136 0.8075 0.0000
        vertex 2.8826 1.1940 0.0000
    endloop
endfacet
facet normal 0.0000 0.0000 0.2611
    outer loop
        vertex 0.0000 0.0000 0.0000
        vertex 2.8826 1.1940 0.0000
        vertex 2.7019 1.5600 0.0000
    endloop
endfacet
facet normal 0.0000 0.0000 0.2610
    outer loop
        vertex 0.0000 0.0000 0.0000
        vertex 2.7019 1.5600 0.0000
        vertex 2.4754 1.8995 0.0000
    endloop
endfacet
facet normal 0.0000 0.0000 0.2611
    outer loop
        vertex 0.0000 0.0000 0.0000
        vertex 2.4754 1.8995 0.0000
        vertex 2.2062 2.2062 0.0000
    endloop
endfacet
facet normal 0.0000 0.0000 0.2611
    outer loop
        vertex 0.0000 0.0000 0.0000
        vertex 2.2062 2.2062 0.0000
        vertex 1.8995 2.4754 0.0000
    endloop
endfacet
facet normal 0.0000 0.0000 0.2610
    outer loop
        vertex 0.0000 0.0000 0.0000
        vertex 1.8995 2.4754 0.0000
        vertex 1.5600 2.7019 0.0000
    endloop
endfacet
facet normal 0.0000 0.0000 0.2611
    outer loop
        vertex 0.0000 0.0000 0.0000
        vertex 1.5600 2.7019 0.0000
        vertex 1.1940 2.8826 0.0000
    endloop
endfacet
facet normal 0.0000 0.0000 0.2611
    outer loop
        vertex 0.0000 0.0000 0.0000
        vertex 1.1940 2.8826 0.0000
        vertex 0.8075 3.0136 0.0000
    endloop
endfacet
facet normal 0.0000 0.0000 0.2610
    outer loop
        vertex 0.0000 0.0000 0.0000
        vertex 0.8075 3.0136 0.0000
        vertex 0.4072 3.0932 0.0000
    endloop
endfacet
facet normal 0.0000 0.0000 0.2610
    outer loop
        vertex 0.0000 0.0000 0.0000
        vertex 0.4072 3.0932 0.0000
        vertex 0.0000 3.1200 0.0000
    endloop
endfacet
facet normal 0.0000 0.0000 0.2610
    outer loop
        vertex 0.0000 0.0000 0.0000
        vertex 0.0000 3.1200 0.0000
        vertex -0.4072 3.0932 0.0000
    endloop
endfacet
facet normal 0.0000 0.0000 0.2610
    outer loop
        vertex 0.0000 0.0000 0.0000
        vertex -0.4072 3.0932 0.0000
        vertex -0.8075 3.0136 0.0000
    endloop
endfacet
facet normal 0.0000 0.0000 0.2611
    outer loop
        vertex 0.0000 0.0000 0.0000
        vertex -0.8075 3.0136 0.0000
        vertex -1.1940 2.8826 0.0000
    endloop
endfacet
facet normal 0.0000 0.0000 0.2611
    outer loop
        vertex 0.0000 0.0000 0.0000
        vertex -1.1940 2.8826 0.0000
        vertex -1.5600 2.7019 0.0000
    endloop
endfacet
facet normal 0.0000 0.0000 0.2610
    outer loop
        vertex 0.0000 0.0000 0.0000
        vertex -1.5600 2.7019 0.0000
        vertex -1.8995 2.4754 0.0000
    endloop
endfacet
facet normal 0.0000 0.0000 0.2611
    outer loop
        vertex 0.0000 0.0000 0.0000
        vertex -1.8995 2.4754 0.0000
        vertex -2.2062 2.2062 0.0000
    endloop
endfacet
facet normal 0.0000 0.0000 0.2611
    outer loop
        vertex 0.0000 0.0000 0.0000
        vertex -2.2062 2.2062 0.0000
        vertex -2.4754 1.8995 0.0000
    endloop
endfacet
facet normal 0.0000 0.0000 0.2610
    outer loop
        vertex 0.0000 0.0000 0.0000
        vertex -2.4754 1.8995 0.0000
        vertex -2.7019 1.5600 0.0000
    endloop
endfacet
facet normal 0.0000 0.0000 0.2611
    outer loop
        vertex 0.0000 0.0000 0.0000
        vertex -2.7019 1.5600 0.0000
        vertex -2.8826 1.1940 0.0000
    endloop
endfacet
facet normal 0.0000 0.0000 0.2611
    outer loop
        vertex 0.0000 0.0000 0.0000
        vertex -2.8826 1.1940 0.0000
        vertex -3.0136 0.8075 0.0000
    endloop
endfacet
facet normal 0.0000 0.0000 0.2610
    outer loop
        vertex 0.0000 0.0000 0.0000
        vertex -3.0136 0.8075 0.0000
        vertex -3.0932 0.4072 0.0000
    endloop
endfacet
facet normal 0.0000 0.0000 0.2610
    outer loop
        vertex 0.0000 0.0000 0.0000
        vertex -3.0932 0.4072 0.0000
        vertex -3.1200 0.0000 0.0000
    endloop
endfacet
facet normal 0.0000 0.0000 0.2610
    outer loop
        vertex 0.0000 0.0000 0.0000
        vertex -3.1200 0.0000 0.0000
        vertex -3.0932 -0.4072 0.0000
    endloop
endfacet
facet normal 0.0000 0.0000 0.2610
    outer loop
        vertex 0.0000 0.0000 0.0000
        vertex -3.0932 -0.4072 0.0000
        vertex -3.0136 -0.8075 0.0000
    endloop
endfacet
facet normal 0.0000 0.0000 0.2611
    outer loop
        vertex 0.0000 0.0000 0.0000
        vertex -3.0136 -0.8075 0.0000
        vertex -2.8826 -1.1940 0.0000
    endloop
endfacet
facet normal 0.0000 0.0000 0.2611
    outer loop
        vertex 0.0000 0.0000 0.0000
        vertex -2.8826 -1.1940 0.0000
        vertex -2.7019 -1.5600 0.0000
    endloop
endfacet
facet normal 0.0000 0.0000 0.2610
    outer loop
        vertex 0.0000 0.0000 0.0000
        vertex -2.7019 -1.5600 0.0000
        vertex -2.4754 -1.8995 0.0000
    endloop
endfacet
facet normal 0.0000 0.0000 0.2611
    outer loop
        vertex 0.0000 0.0000 0.0000
        vertex -2.4754 -1.8995 0.0000
        vertex -2.2062 -2.2062 0.0000
    endloop
endfacet
facet normal 0.0000 0.0000 0.2611
    outer loop
        vertex 0.0000 0.0000 0.0000
        vertex -2.2062 -2.2062 0.0000
        vertex -1.8995 -2.4754 0.0000
    endloop
endfacet
facet normal 0.0000 0.0000 0.2610
    outer loop
        vertex 0.0000 0.0000 0.0000
        vertex -1.8995 -2.4754 0.0000
        vertex -1.5600 -2.7019 0.0000
    endloop
endfacet
facet normal 0.0000 0.0000 0.2611
    outer loop
        vertex 0.0000 0.0000 0.0000
        vertex -1.5600 -2.7019 0.0000
        vertex -1.1940 -2.8826 0.0000
    endloop
endfacet
facet normal 0.0000 0.0000 0.2611
    outer loop
        vertex 0.0000 0.0000 0.0000
        vertex -1.1940 -2.8826 0.0000
        vertex -0.8075 -3.0136 0.0000
    endloop
endfacet
facet normal 0.0000 0.0000 0.2610
    outer loop
        vertex 0.0000 0.0000 0.0000
        vertex -0.8075 -3.0136 0.0000
        vertex -0.4072 -3.0932 0.0000
    endloop
endfacet
facet normal 0.0000 0.0000 0.2610
    outer loop
        vertex 0.0000 0.0000 0.0000
        vertex -0.4072 -3.0932 0.0000
        vertex 0.0000 -3.1200 0.0000
    endloop
endfacet
facet normal 0.0000 0.0000 0.2610
    outer loop
        vertex 0.0000 0.0000 0.0000
        vertex 0.0000 -3.1200 0.0000
        vertex 0.4072 -3.0932 0.0000
    endloop
endfacet
facet normal 0.0000 0.0000 0.2610
    outer loop
        vertex 0.0000 0.0000 0.0000
        vertex 0.4072 -3.0932 0.0000
        vertex 0.8075 -3.0136 0.0000
    endloop
endfacet
facet normal 0.0000 0.0000 0.2611
    outer loop
        vertex 0.0000 0.0000 0.0000
        vertex 0.8075 -3.0136 0.0000
        vertex 1.1940 -2.8826 0.0000
    endloop
endfacet
facet normal 0.0000 0.0000 0.2611
    outer loop
        vertex 0.0000 0.0000 0.0000
        vertex 1.1940 -2.8826 0.0000
        vertex 1.5600 -2.7019 0.0000
    endloop
endfacet
facet normal 0.0000 0.0000 0.2610
    outer loop
        vertex 0.0000 0.0000 0.0000
        vertex 1.5600 -2.7019 0.0000
        vertex 1.8995 -2.4754 0.0000
    endloop
endfacet
facet normal 0.0000 0.0000 0.2611
    outer loop
        vertex 0.0000 0.0000 0.0000
        vertex 1.8995 -2.4754 0.0000
        vertex 2.2062 -2.2062 0.0000
    endloop
endfacet
facet normal 0.0000 0.0000 0.2611
    outer loop
        vertex 0.0000 0.0000 0.0000
        vertex 2.2062 -2.2062 0.0000
        vertex 2.4754 -1.8995 0.0000
    endloop
endfacet
facet normal 0.0000 0.0000 0.2610
    outer loop
        vertex 0.0000 0.0000 0.0000
        vertex 2.4754 -1.8995 0.0000
        vertex 2.7019 -1.5600 0.0000
    endloop
endfacet
facet normal 0.0000 0.0000 0.2611
    outer loop
        vertex 0.0000 0.0000 0.0000
        vertex 2.7019 -1.5600 0.0000
        vertex 2.8826 -1.1940 0.0000
    endloop
endfacet
facet normal 0.0000 0.0000 0.2611
    outer loop
        vertex 0.0000 0.0000 0.0000
        vertex 2.8826 -1.1940 0.0000
        vertex 3.0136 -0.8075 0.0000
    endloop
endfacet
facet normal 0.0000 0.0000 0.2610
    outer loop
        vertex 0.0000 0.0000 0.0000
        vertex 3.0136 -0.8075 0.0000
        vertex 3.0932 -0.4072 0.0000
    endloop
endfacet
facet normal 0.0000 0.0000 0.2610
    outer loop
        vertex 0.0000 0.0000 0.0000
        vertex 3.0932 -0.4072 0.0000
        vertex 3.1200 0.0000 0.0000
    endloop
endfacet
facet normal 1.0179 0.0671 0.0000
    outer loop
        vertex 3.0932 0.4072 0.0000
        vertex 3.1200 0.0000 0.0000
        vertex 3.1200 0.0000 -0.8000
    endloop
endfacet
facet normal 1.0179 0.0671 0.0000
    outer loop
        vertex 3.1200 0.0000 -0.8000
        vertex 3.0932 0.4072 -0.8000
        vertex 3.0932 0.4072 0.0000
    endloop
endfacet
facet normal 1.0007 0.1989 0.0000
    outer loop
        vertex 3.0136 0.8075 0.0000
        vertex 3.0932 0.4072 0.0000
        vertex 3.0932 0.4072 -0.8000
    endloop
endfacet
facet normal 1.0007 0.1989 0.0000
    outer loop
        vertex 3.0932 0.4072 -0.8000
        vertex 3.0136 0.8075 -0.8000
        vertex 3.0136 0.8075 0.0000
    endloop
endfacet
facet normal 0.9664 0.3276 0.0000
    outer loop
        vertex 2.8826 1.1940 0.0000
        vertex 3.0136 0.8075 0.0000
        vertex 3.0136 0.8075 -0.8000
    endloop
endfacet
facet normal 0.9664 0.3276 0.0000
    outer loop
        vertex 3.0136 0.8075 -0.8000
        vertex 2.8826 1.1940 -0.8000
        vertex 2.8826 1.1940 0.0000
    endloop
endfacet
facet normal 0.9149 0.4516 0.0000
    outer loop
        vertex 2.7019 1.5600 0.0000
        vertex 2.8826 1.1940 0.0000
        vertex 2.8826 1.1940 -0.8000
    endloop
endfacet
facet normal 0.9149 0.4516 0.0000
    outer loop
        vertex 2.8826 1.1940 -0.8000
        vertex 2.7019 1.5600 -0.8000
        vertex 2.7019 1.5600 0.0000
    endloop
endfacet
facet normal 0.8486 0.5663 0.0000
    outer loop
        vertex 2.4754 1.8995 0.0000
        vertex 2.7019 1.5600 0.0000
        vertex 2.7019 1.5600 -0.8000
    endloop
endfacet
facet normal 0.8486 0.5663 0.0000
    outer loop
        vertex 2.7019 1.5600 -0.8000
        vertex 2.4754 1.8995 -0.8000
        vertex 2.4754 1.8995 0.0000
    endloop
endfacet
facet normal 0.7667 0.6731 0.0000
    outer loop
        vertex 2.2062 2.2062 0.0000
        vertex 2.4754 1.8995 0.0000
        vertex 2.4754 1.8995 -0.8000
    endloop
endfacet
facet normal 0.7667 0.6731 0.0000
    outer loop
        vertex 2.4754 1.8995 -0.8000
        vertex 2.2062 2.2062 -0.8000
        vertex 2.2062 2.2062 0.0000
    endloop
endfacet
facet normal 0.6731 0.7667 0.0000
    outer loop
        vertex 1.8995 2.4754 0.0000
        vertex 2.2062 2.2062 0.0000
        vertex 2.2062 2.2062 -0.8000
    endloop
endfacet
facet normal 0.6731 0.7667 0.0000
    outer loop
        vertex 2.2062 2.2062 -0.8000
        vertex 1.8995 2.4754 -0.8000
        vertex 1.8995 2.4754 0.0000
    endloop
endfacet
facet normal 0.5663 0.8486 0.0000
    outer loop
        vertex 1.5600 2.7019 0.0000
        vertex 1.8995 2.4754 0.0000
        vertex 1.8995 2.4754 -0.8000
    endloop
endfacet
facet normal 0.5663 0.8486 0.0000
    outer loop
        vertex 1.8995 2.4754 -0.8000
        vertex 1.5600 2.7019 -0.8000
        vertex 1.5600 2.7019 0.0000
    endloop
endfacet
facet normal 0.4516 0.9149 0.0000
    outer loop
        vertex 1.1940 2.8826 0.0000
        vertex 1.5600 2.7019 0.0000
        vertex 1.5600 2.7019 -0.8000
    endloop
endfacet
facet normal 0.4516 0.9149 0.0000
    outer loop
        vertex 1.5600 2.7019 -0.8000
        vertex 1.1940 2.8826 -0.8000
        vertex 1.1940 2.8826 0.0000
    endloop
endfacet
facet normal 0.3276 0.9664 0.0000
    outer loop
        vertex 0.8075 3.0136 0.0000
        vertex 1.1940 2.8826 0.0000
        vertex 1.1940 2.8826 -0.8000
    endloop
endfacet
facet normal 0.3276 0.9664 0.0000
    outer loop
        vertex 1.1940 2.8826 -0.8000
        vertex 0.8075 3.0136 -0.8000
        vertex 0.8075 3.0136 0.0000
    endloop
endfacet
facet normal 0.1989 1.0007 0.0000
    outer loop
        vertex 0.4072 3.0932 0.0000
        vertex 0.8075 3.0136 0.0000
        vertex 0.8075 3.0136 -0.8000
    endloop
endfacet
facet normal 0.1989 1.0007 0.0000
    outer loop
        vertex 0.8075 3.0136 -0.8000
        vertex 0.4072 3.0932 -0.8000
        vertex 0.4072 3.0932 0.0000
    endloop
endfacet
facet normal 0.0671 1.0179 0.0000
    outer loop
        vertex 0.0000 3.1200 0.0000
        vertex 0.4072 3.0932 0.0000
        vertex 0.4072 3.0932 -0.8000
    endloop
endfacet
facet normal 0.0671 1.0179 0.0000
    outer loop
        vertex 0.4072 3.0932 -0.8000
        vertex 0.0000 3.1200 -0.8000
        vertex 0.0000 3.1200 0.0000
    endloop
endfacet
facet normal -0.0671 1.0179 0.0000
    outer loop
        vertex -0.4072 3.0932 0.0000
        vertex 0.0000 3.1200 0.0000
        vertex 0.0000 3.1200 -0.8000
    endloop
endfacet
facet normal -0.0671 1.0179 0.0000
    outer loop
        vertex 0.0000 3.1200 -0.8000
        vertex -0.4072 3.0932 -0.8000
        vertex -0.4072 3.0932 0.0000
    endloop
endfacet
facet normal -0.1989 1.0007 0.0000
    outer loop
        vertex -0.8075 3.0136 0.0000
        vertex -0.4072 3.0932 0.0000
        vertex -0.4072 3.0932 -0.8000
    endloop
endfacet
facet normal -0.1989 1.0007 0.0000
    outer loop
        vertex -0.4072 3.0932 -0.8000
        vertex -0.8075 3.0136 -0.8000
        vertex -0.8075 3.0136 0.0000
    endloop
endfacet
facet normal -0.3276 0.9664 0.0000
    outer loop
        vertex -1.1940 2.8826 0.0000
        vertex -0.8075 3.0136 0.0000
        vertex -0.8075 3.0136 -0.8000
    endloop
endfacet
facet normal -0.3276 0.9664 0.0000
    outer loop
        vertex -0.8075 3.0136 -0.8000
        vertex -1.1940 2.8826 -0.8000
        vertex -1.1940 2.8826 0.0000
    endloop
endfacet
facet normal -0.4516 0.9149 0.0000
    outer loop
        vertex -1.5600 2.7019 0.0000
        vertex -1.1940 2.8826 0.0000
        vertex -1.1940 2.8826 -0.8000
    endloop
endfacet
facet normal -0.4516 0.9149 0.0000
    outer loop
        vertex -1.1940 2.8826 -0.8000
        vertex -1.5600 2.7019 -0.8000
        vertex -1.5600 2.7019 0.0000
    endloop
endfacet
facet normal -0.5663 0.8486 0.0000
    outer loop
        vertex -1.8995 2.4754 0.0000
        vertex -1.5600 2.7019 0.0000
        vertex -1.5600 2.7019 -0.8000
    endloop
endfacet
facet normal -0.5663 0.8486 0.0000
    outer loop
        vertex -1.5600 2.7019 -0.8000
        vertex -1.8995 2.4754 -0.8000
        vertex -1.8995 2.4754 0.0000
    endloop
endfacet
facet normal -0.6731 0.7667 0.0000
    outer loop
        vertex -2.2062 2.2062 0.0000
        vertex -1.8995 2.4754 0.0000
        vertex -1.8995 2.4754 -0.8000
    endloop
endfacet
facet normal -0.6731 0.7667 0.0000
    outer loop
        vertex -1.8995 2.4754 -0.8000
        vertex -2.2062 2.2062 -0.8000
        vertex -2.2062 2.2062 0.0000
    endloop
endfacet
facet normal -0.7667 0.6731 0.0000
    outer loop
        vertex -2.4754 1.8995 0.0000
        vertex -2.2062 2.2062 0.0000
        vertex -2.2062 2.2062 -0.8000
    endloop
endfacet
facet normal -0.7667 0.6731 0.0000
    outer loop
        vertex -2.2062 2.2062 -0.8000
        vertex -2.4754 1.8995 -0.8000
        vertex -2.4754 1.8995 0.0000
    endloop
endfacet
facet normal -0.8486 0.5663 0.0000
    outer loop
        vertex -2.7019 1.5600 0.0000
        vertex -2.4754 1.8995 0.0000
        vertex -2.4754 1.8995 -0.8000
    endloop
endfacet
facet normal -0.8486 0.5663 0.0000
    outer loop
        vertex -2.4754 1.8995 -0.8000
        vertex -2.7019 1.5600 -0.8000
        vertex -2.7019 1.5600 0.0000
    endloop
endfacet
facet normal -0.9149 0.4516 0.0000
    outer loop
        vertex -2.8826 1.1940 0.0000
        vertex -2.7019 1.5600 0.0000
        vertex -2.7019 1.5600 -0.8000
    endloop
endfacet
facet normal -0.9149 0.4516 0.0000
    outer loop
        vertex -2.7019 1.5600 -0.8000
        vertex -2.8826 1.1940 -0.8000
        vertex -2.8826 1.1940 0.0000
    endloop
endfacet
facet normal -0.9664 0.3276 0.0000
    outer loop
        vertex -3.0136 0.8075 0.0000
        vertex -2.8826 1.1940 0.0000
        vertex -2.8826 1.1940 -0.8000
    endloop
endfacet
facet normal -0.9664 0.3276 0.0000
    outer loop
        vertex -2.8826 1.1940 -0.8000
        vertex -3.0136 0.8075 -0.8000
        vertex -3.0136 0.8075 0.0000
    endloop
endfacet
facet normal -1.0007 0.1989 0.0000
    outer loop
        vertex -3.0932 0.4072 0.0000
        vertex -3.0136 0.8075 0.0000
        vertex -3.0136 0.8075 -0.8000
    endloop
endfacet
facet normal -1.0007 0.1989 0.0000
    outer loop
        vertex -3.0136 0.8075 -0.8000
        vertex -3.0932 0.4072 -0.8000
        vertex -3.0932 0.4072 0.0000
    endloop
endfacet
facet normal -1.0179 0.0671 0.0000
    outer loop
        vertex -3.1200 0.0000 0.0000
        vertex -3.0932 0.4072 0.0000
        vertex -3.0932 0.4072 -0.8000
    endloop
endfacet
facet normal -1.0179 0.0671 0.0000
    outer loop
        vertex -3.0932 0.4072 -0.8000
        vertex -3.1200 0.0000 -0.8000
        vertex -3.1200 0.0000 0.0000
    endloop
endfacet
facet normal -1.0179 -0.0671 0.0000
    outer loop
        vertex -3.0932 -0.4072 0.0000
        vertex -3.1200 0.0000 0.0000
        vertex -3.1200 0.0000 -0.8000
    endloop
endfacet
facet normal -1.0179 -0.0671 0.0000
    outer loop
        vertex -3.1200 0.0000 -0.8000
        vertex -3.0932 -0.4072 -0.8000
        vertex -3.0932 -0.4072 0.0000
    endloop
endfacet
facet normal -1.0007 -0.1989 0.0000
    outer loop
        vertex -3.0136 -0.8075 0.0000
        vertex -3.0932 -0.4072 0.0000
        vertex -3.0932 -0.4072 -0.8000
    endloop
endfacet
facet normal -1.0007 -0.1989 0.0000
    outer loop
        vertex -3.0932 -0.4072 -0.8000
        vertex -3.0136 -0.8075 -0.8000
        vertex -3.0136 -0.8075 0.0000
    endloop
endfacet
facet normal -0.9664 -0.3276 0.0000
    outer loop
        vertex -2.8826 -1.1940 0.0000
        vertex -3.0136 -0.8075 0.0000
        vertex -3.0136 -0.8075 -0.8000
    endloop
endfacet
facet normal -0.9664 -0.3276 0.0000
    outer loop
        vertex -3.0136 -0.8075 -0.8000
        vertex -2.8826 -1.1940 -0.8000
        vertex -2.8826 -1.1940 0.0000
    endloop
endfacet
facet normal -0.9149 -0.4516 0.0000
    outer loop
        vertex -2.7019 -1.5600 0.0000
        vertex -2.8826 -1.1940 0.0000
        vertex -2.8826 -1.1940 -0.8000
    endloop
endfacet
facet normal -0.9149 -0.4516 0.0000
    outer loop
        vertex -2.8826 -1.1940 -0.8000
        vertex -2.7019 -1.5600 -0.8000
        vertex -2.7019 -1.5600 0.0000
    endloop
endfacet
facet normal -0.8486 -0.5663 0.0000
    outer loop
        vertex -2.4754 -1.8995 0.0000
        vertex -2.7019 -1.5600 0.0000
        vertex -2.7019 -1.5600 -0.8000
    endloop
endfacet
facet normal -0.8486 -0.5663 0.0000
    outer loop
        vertex -2.7019 -1.5600 -0.8000
        vertex -2.4754 -1.8995 -0.8000
        vertex -2.4754 -1.8995 0.0000
    endloop
endfacet
facet normal -0.7667 -0.6731 0.0000
    outer loop
        vertex -2.2062 -2.2062 0.0000
        vertex -2.4754 -1.8995 0.0000
        vertex -2.4754 -1.8995 -0.8000
    endloop
endfacet
facet normal -0.7667 -0.6731 0.0000
    outer loop
        vertex -2.4754 -1.8995 -0.8000
        vertex -2.2062 -2.2062 -0.8000
        vertex -2.2062 -2.2062 0.0000
    endloop
endfacet
facet normal -0.6731 -0.7667 0.0000
    outer loop
        vertex -1.8995 -2.4754 0.0000
        vertex -2.2062 -2.2062 0.0000
        vertex -2.2062 -2.2062 -0.8000
    endloop
endfacet
facet normal -0.6731 -0.7667 0.0000
    outer loop
        vertex -2.2062 -2.2062 -0.8000
        vertex -1.8995 -2.4754 -0.8000
        vertex -1.8995 -2.4754 0.0000
    endloop
endfacet
facet normal -0.5663 -0.8486 0.0000
    outer loop
        vertex -1.5600 -2.7019 0.0000
        vertex -1.8995 -2.4754 0.0000
        vertex -1.8995 -2.4754 -0.8000
    endloop
endfacet
facet normal -0.5663 -0.8486 0.0000
    outer loop
        vertex -1.8995 -2.4754 -0.8000
        vertex -1.5600 -2.7019 -0.8000
        vertex -1.5600 -2.7019 0.0000
    endloop
endfacet
facet normal -0.4516 -0.9149 0.0000
    outer loop
        vertex -1.1940 -2.8826 0.0000
        vertex -1.5600 -2.7019 0.0000
        vertex -1.5600 -2.7019 -0.8000
    endloop
endfacet
facet normal -0.4516 -0.9149 0.0000
    outer loop
        vertex -1.5600 -2.7019 -0.8000
        vertex -1.1940 -2.8826 -0.8000
        vertex -1.1940 -2.8826 0.0000
    endloop
endfacet
facet normal -0.3276 -0.9664 0.0000
    outer loop
        vertex -0.8075 -3.0136 0.0000
        vertex -1.1940 -2.8826 0.0000
        vertex -1.1940 -2.8826 -0.8000
    endloop
endfacet
facet normal -0.3276 -0.9664 0.0000
    outer loop
        vertex -1.1940 -2.8826 -0.8000
        vertex -0.8075 -3.0136 -0.8000
        vertex -0.8075 -3.0136 0.0000
    endloop
endfacet
facet normal -0.1989 -1.0007 0.0000
    outer loop
        vertex -0.4072 -3.0932 0.0000
        vertex -0.8075 -3.0136 0.0000
        vertex -0.8075 -3.0136 -0.8000
    endloop
endfacet
facet normal -0.1989 -1.0007 0.0000
    outer loop
        vertex -0.8075 -3.0136 -0.8000
        vertex -0.4072 -3.0932 -0.8000
        vertex -0.4072 -3.0932 0.0000
    endloop
endfacet
facet normal -0.0671 -1.0179 0.0000
    outer loop
        vertex 0.0000 -3.1200 0.0000
        vertex -0.4072 -3.0932 0.0000
        vertex -0.4072 -3.0932 -0.8000
    endloop
endfacet
facet normal -0.0671 -1.0179 0.0000
    outer loop
        vertex -0.4072 -3.0932 -0.8000
        vertex 0.0000 -3.1200 -0.8000
        vertex 0.0000 -3.1200 0.0000
    endloop
endfacet
facet normal 0.0671 -1.0179 0.0000
    outer loop
        vertex 0.4072 -3.0932 0.0000
        vertex 0.0000 -3.1200 0.0000
        vertex 0.0000 -3.1200 -0.8000
    endloop
endfacet
facet normal 0.0671 -1.0179 0.0000
    outer loop
        vertex 0.0000 -3.1200 -0.8000
        vertex 0.4072 -3.0932 -0.8000
        vertex 0.4072 -3.0932 0.0000
    endloop
endfacet
facet normal 0.1989 -1.0007 0.0000
    outer loop
        vertex 0.8075 -3.0136 0.0000
        vertex 0.4072 -3.0932 0.0000
        vertex 0.4072 -3.0932 -0.8000
    endloop
endfacet
facet normal 0.1989 -1.0007 0.0000
    outer loop
        vertex 0.4072 -3.0932 -0.8000
        vertex 0.8075 -3.0136 -0.8000
        vertex 0.8075 -3.0136 0.0000
    endloop
endfacet
facet normal 0.3276 -0.9664 0.0000
    outer loop
        vertex 1.1940 -2.8826 0.0000
        vertex 0.8075 -3.0136 0.0000
        vertex 0.8075 -3.0136 -0.8000
    endloop
endfacet
facet normal 0.3276 -0.9664 0.0000
    outer loop
        vertex 0.8075 -3.0136 -0.8000
        vertex 1.1940 -2.8826 -0.8000
        vertex 1.1940 -2.8826 0.0000
    endloop
endfacet
facet normal 0.4516 -0.9149 0.0000
    outer loop
        vertex 1.5600 -2.7019 0.0000
        vertex 1.1940 -2.8826 0.0000
        vertex 1.1940 -2.8826 -0.8000
    endloop
endfacet
facet normal 0.4516 -0.9149 0.0000
    outer loop
        vertex 1.1940 -2.8826 -0.8000
        vertex 1.5600 -2.7019 -0.8000
        vertex 1.5600 -2.7019 0.0000
    endloop
endfacet
facet normal 0.5663 -0.8486 0.0000
    outer loop
        vertex 1.8995 -2.4754 0.0000
        vertex 1.5600 -2.7019 0.0000
        vertex 1.5600 -2.7019 -0.8000
    endloop
endfacet
facet normal 0.5663 -0.8486 0.0000
    outer loop
        vertex 1.5600 -2.7019 -0.8000
        vertex 1.8995 -2.4754 -0.8000
        vertex 1.8995 -2.4754 0.0000
    endloop
endfacet
facet normal 0.6731 -0.7667 0.0000
    outer loop
        vertex 2.2062 -2.2062 0.0000
        vertex 1.8995 -2.4754 0.0000
        vertex 1.8995 -2.4754 -0.8000
    endloop
endfacet
facet normal 0.6731 -0.7667 0.0000
    outer loop
        vertex 1.8995 -2.4754 -0.8000
        vertex 2.2062 -2.2062 -0.8000
        vertex 2.2062 -2.2062 0.0000
    endloop
endfacet
facet normal 0.7667 -0.6731 0.0000
    outer loop
        vertex 2.4754 -1.8995 0.0000
        vertex 2.2062 -2.2062 0.0000
        vertex 2.2062 -2.2062 -0.8000
    endloop
endfacet
facet normal 0.7667 -0.6731 0.0000
    outer loop
        vertex 2.2062 -2.2062 -0.8000
        vertex 2.4754 -1.8995 -0.8000
        vertex 2.4754 -1.8995 0.0000
    endloop
endfacet
facet normal 0.8486 -0.5663 0.0000
    outer loop
        vertex 2.7019 -1.5600 0.0000
        vertex 2.4754 -1.8995 0.0000
        vertex 2.4754 -1.8995 -0.8000
    endloop
endfacet
facet normal 0.8486 -0.5663 0.0000
    outer loop
        vertex 2.4754 -1.8995 -0.8000
        vertex 2.7019 -1.5600 -0.8000
        vertex 2.7019 -1.5600 0.0000
    endloop
endfacet
facet normal 0.9149 -0.4516 0.0000
    outer loop
        vertex 2.8826 -1.1940 0.0000
        vertex 2.7019 -1.5600 0.0000
        vertex 2.7019 -1.5600 -0.8000
    endloop
endfacet
facet normal 0.9149 -0.4516 0.0000
    outer loop
        vertex 2.7019 -1.5600 -0.8000
        vertex 2.8826 -1.1940 -0.8000
        vertex 2.8826 -1.1940 0.0000
    endloop
endfacet
facet normal 0.9664 -0.3276 0.0000
    outer loop
        vertex 3.0136 -0.8075 0.0000
        vertex 2.8826 -1.1940 0.0000
        vertex 2.8826 -1.1940 -0.8000
    endloop
endfacet
facet normal 0.9664 -0.3276 0.0000
    outer loop
        vertex 2.8826 -1.1940 -0.8000
        vertex 3.0136 -0.8075 -0.8000
        vertex 3.0136 -0.8075 0.0000
    endloop
endfacet
facet normal 1.0007 -0.1989 0.0000
    outer loop
        vertex 3.0932 -0.4072 0.0000
        vertex 3.0136 -0.8075 0.0000
        vertex 3.0136 -0.8075 -0.8000
    endloop
endfacet
facet normal 1.0007 -0.1989 0.0000
    outer loop
        vertex 3.0136 -0.8075 -0.8000
        vertex 3.0932 -0.4072 -0.8000
        vertex 3.0932 -0.4072 0.0000
    endloop
endfacet
facet normal 1.0179 -0.0671 0.0000
    outer loop
        vertex 3.1200 0.0000 0.0000
        vertex 3.0932 -0.4072 0.0000
        vertex 3.0932 -0.4072 -0.8000
    endloop
endfacet
facet normal 1.0179 -0.0671 0.0000
    outer loop
        vertex 3.0932 -0.4072 -0.8000
        vertex 3.1200 0.0000 -0.8000
        vertex 3.1200 0.0000 0.0000
    endloop
endfacet
facet normal 0.0000 0.0000 -1.7390
    outer loop
        vertex 0.0000 0.0000 -0.8000
        vertex 3.0932 0.4072 -0.8000
        vertex 3.1200 0.0000 -0.8000
    endloop
endfacet
facet normal 0.0000 0.0000 -1.7390
    outer loop
        vertex 0.0000 0.0000 -0.8000
        vertex 3.0136 0.8075 -0.8000
        vertex 3.0932 0.4072 -0.8000
    endloop
endfacet
facet normal 0.0000 0.0000 -1.7389
    outer loop
        vertex 0.0000 0.0000 -0.8000
        vertex 2.8826 1.1940 -0.8000
        vertex 3.0136 0.8075 -0.8000
    endloop
endfacet
facet normal 0.0000 0.0000 -1.7389
    outer loop
        vertex 0.0000 0.0000 -0.8000
        vertex 2.7019 1.5600 -0.8000
        vertex 2.8826 1.1940 -0.8000
    endloop
endfacet
facet normal 0.0000 0.0000 -1.7390
    outer loop
        vertex 0.0000 0.0000 -0.8000
        vertex 2.4754 1.8995 -0.8000
        vertex 2.7019 1.5600 -0.8000
    endloop
endfacet
facet normal 0.0000 0.0000 -1.7389
    outer loop
        vertex 0.0000 0.0000 -0.8000
        vertex 2.2062 2.2062 -0.8000
        vertex 2.4754 1.8995 -0.8000
    endloop
endfacet
facet normal 0.0000 0.0000 -1.7389
    outer loop
        vertex 0.0000 0.0000 -0.8000
        vertex 1.8995 2.4754 -0.8000
        vertex 2.2062 2.2062 -0.8000
    endloop
endfacet
facet normal 0.0000 0.0000 -1.7390
    outer loop
        vertex 0.0000 0.0000 -0.8000
        vertex 1.5600 2.7019 -0.8000
        vertex 1.8995 2.4754 -0.8000
    endloop
endfacet
facet normal 0.0000 0.0000 -1.7389
    outer loop
        vertex 0.0000 0.0000 -0.8000
        vertex 1.1940 2.8826 -0.8000
        vertex 1.5600 2.7019 -0.8000
    endloop
endfacet
facet normal 0.0000 0.0000 -1.7389
    outer loop
        vertex 0.0000 0.0000 -0.8000
        vertex 0.8075 3.0136 -0.8000
        vertex 1.1940 2.8826 -0.8000
    endloop
endfacet
facet normal 0.0000 0.0000 -1.7390
    outer loop
        vertex 0.0000 0.0000 -0.8000
        vertex 0.4072 3.0932 -0.8000
        vertex 0.8075 3.0136 -0.8000
    endloop
endfacet
facet normal 0.0000 0.0000 -1.7390
    outer loop
        vertex 0.0000 0.0000 -0.8000
        vertex 0.0000 3.1200 -0.8000
        vertex 0.4072 3.0932 -0.8000
    endloop
endfacet
facet normal 0.0000 0.0000 -1.7390
    outer loop
        vertex 0.0000 0.0000 -0.8000
        vertex -0.4072 3.0932 -0.8000
        vertex 0.0000 3.1200 -0.8000
    endloop
endfacet
facet normal 0.0000 0.0000 -1.7390
    outer loop
        vertex 0.0000 0.0000 -0.8000
        vertex -0.8075 3.0136 -0.8000
        vertex -0.4072 3.0932 -0.8000
    endloop
endfacet
facet normal 0.0000 0.0000 -1.7389
    outer loop
        vertex 0.0000 0.0000 -0.8000
        vertex -1.1940 2.8826 -0.8000
        vertex -0.8075 3.0136 -0.8000
    endloop
endfacet
facet normal 0.0000 0.0000 -1.7389
    outer loop
        vertex 0.0000 0.0000 -0.8000
        vertex -1.5600 2.7019 -0.8000
        vertex -1.1940 2.8826 -0.8000
    endloop
endfacet
facet normal 0.0000 0.0000 -1.7390
    outer loop
        vertex 0.0000 0.0000 -0.8000
        vertex -1.8995 2.4754 -0.8000
        vertex -1.5600 2.7019 -0.8000
    endloop
endfacet
facet normal 0.0000 0.0000 -1.7389
    outer loop
        vertex 0.0000 0.0000 -0.8000
        vertex -2.2062 2.2062 -0.8000
        vertex -1.8995 2.4754 -0.8000
    endloop
endfacet
facet normal 0.0000 0.0000 -1.7389
    outer loop
        vertex 0.0000 0.0000 -0.8000
        vertex -2.4754 1.8995 -0.8000
        vertex -2.2062 2.2062 -0.8000
    endloop
endfacet
facet normal 0.0000 0.0000 -1.7390
    outer loop
        vertex 0.0000 0.0000 -0.8000
        vertex -2.7019 1.5600 -0.8000
        vertex -2.4754 1.8995 -0.8000
    endloop
endfacet
facet normal 0.0000 0.0000 -1.7389
    outer loop
        vertex 0.0000 0.0000 -0.8000
        vertex -2.8826 1.1940 -0.8000
        vertex -2.7019 1.5600 -0.8000
    endloop
endfacet
facet normal 0.0000 0.0000 -1.7389
    outer loop
        vertex 0.0000 0.0000 -0.8000
        vertex -3.0136 0.8075 -0.8000
        vertex -2.8826 1.1940 -0.8000
    endloop
endfacet
facet normal 0.0000 0.0000 -1.7390
    outer loop
        vertex 0.0000 0.0000 -0.8000
        vertex -3.0932 0.4072 -0.8000
        vertex -3.0136 0.8075 -0.8000
    endloop
endfacet
facet normal 0.0000 0.0000 -1.7390
    outer loop
        vertex 0.0000 0.0000 -0.8000
        vertex -3.1200 0.0000 -0.8000
        vertex -3.0932 0.4072 -0.8000
    endloop
endfacet
facet normal 0.0000 0.0000 -1.7390
    outer loop
        vertex 0.0000 0.0000 -0.8000
        vertex -3.0932 -0.4072 -0.8000
        vertex -3.1200 0.0000 -0.8000
    endloop
endfacet
facet normal 0.0000 0.0000 -1.7390
    outer loop
        vertex 0.0000 0.0000 -0.8000
        vertex -3.0136 -0.8075 -0.8000
        vertex -3.0932 -0.4072 -0.8000
    endloop
endfacet
facet normal 0.0000 0.0000 -1.7389
    outer loop
        vertex 0.0000 0.0000 -0.8000
        vertex -2.8826 -1.1940 -0.8000
        vertex -3.0136 -0.8075 -0.8000
    endloop
endfacet
facet normal 0.0000 0.0000 -1.7389
    outer loop
        vertex 0.0000 0.0000 -0.8000
        vertex -2.7019 -1.5600 -0.8000
        vertex -2.8826 -1.1940 -0.8000
    endloop
endfacet
facet normal 0.0000 0.0000 -1.7390
    outer loop
        vertex 0.0000 0.0000 -0.8000
        vertex -2.4754 -1.8995 -0.8000
        vertex -2.7019 -1.5600 -0.8000
    endloop
endfacet
facet normal 0.0000 0.0000 -1.7389
    outer loop
        vertex 0.0000 0.0000 -0.8000
        vertex -2.2062 -2.2062 -0.8000
        vertex -2.4754 -1.8995 -0.8000
    endloop
endfacet
facet normal 0.0000 0.0000 -1.7389
    outer loop
        vertex 0.0000 0.0000 -0.8000
        vertex -1.8995 -2.4754 -0.8000
        vertex -2.2062 -2.2062 -0.8000
    endloop
endfacet
facet normal 0.0000 0.0000 -1.7390
    outer loop
        vertex 0.0000 0.0000 -0.8000
        vertex -1.5600 -2.7019 -0.8000
        vertex -1.8995 -2.4754 -0.8000
    endloop
endfacet
facet normal 0.0000 0.0000 -1.7389
    outer loop
        vertex 0.0000 0.0000 -0.8000
        vertex -1.1940 -2.8826 -0.8000
        vertex -1.5600 -2.7019 -0.8000
    endloop
endfacet
facet normal 0.0000 0.0000 -1.7389
    outer loop
        vertex 0.0000 0.0000 -0.8000
        vertex -0.8075 -3.0136 -0.8000
        vertex -1.1940 -2.8826 -0.8000
    endloop
endfacet
facet normal 0.0000 0.0000 -1.7390
    outer loop
        vertex 0.0000 0.0000 -0.8000
        vertex -0.4072 -3.0932 -0.8000
        vertex -0.8075 -3.0136 -0.8000
    endloop
endfacet
facet normal 0.0000 0.0000 -1.7390
    outer loop
        vertex 0.0000 0.0000 -0.8000
        vertex 0.0000 -3.1200 -0.8000
        vertex -0.4072 -3.0932 -0.8000
    endloop
endfacet
facet normal 0.0000 0.0000 -1.7390
    outer loop
        vertex 0.0000 0.0000 -0.8000
        vertex 0.4072 -3.0932 -0.8000
        vertex 0.0000 -3.1200 -0.8000
    endloop
endfacet
facet normal 0.0000 0.0000 -1.7390
    outer loop
        vertex 0.0000 0.0000 -0.8000
        vertex 0.8075 -3.0136 -0.8000
        vertex 0.4072 -3.0932 -0.8000
    endloop
endfacet
facet normal 0.0000 0.0000 -1.7389
    outer loop
        vertex 0.0000 0.0000 -0.8000
        vertex 1.1940 -2.8826 -0.8000
        vertex 0.8075 -3.0136 -0.8000
    endloop
endfacet
facet normal 0.0000 0.0000 -1.7389
    outer loop
        vertex 0.0000 0.0000 -0.8000
        vertex 1.5600 -2.7019 -0.8000
        vertex 1.1940 -2.8826 -0.8000
    endloop
endfacet
facet normal 0.0000 0.0000 -1.7390
    outer loop
        vertex 0.0000 0.0000 -0.8000
        vertex 1.8995 -2.4754 -0.8000
        vertex 1.5600 -2.7019 -0.8000
    endloop
endfacet
facet normal 0.0000 0.0000 -1.7389
    outer loop
        vertex 0.0000 0.0000 -0.8000
        vertex 2.2062 -2.2062 -0.8000
        vertex 1.8995 -2.4754 -0.8000
    endloop
endfacet
facet normal 0.0000 0.0000 -1.7389
    outer loop
        vertex 0.0000 0.0000 -0.8000
        vertex 2.4754 -1.8995 -0.8000
        vertex 2.2062 -2.2062 -0.8000
    endloop
endfacet
facet normal 0.0000 0.0000 -1.7390
    outer loop
        vertex 0.0000 0.0000 -0.8000
        vertex 2.7019 -1.5600 -0.8000
        vertex 2.4754 -1.8995 -0.8000
    endloop
endfacet
facet normal 0.0000 0.0000 -1.7389
    outer loop
        vertex 0.0000 0.0000 -0.8000
        vertex 2.8826 -1.1940 -0.8000
        vertex 2.7019 -1.5600 -0.8000
    endloop
endfacet
facet normal 0.0000 0.0000 -1.7389
    outer loop
        vertex 0.0000 0.0000 -0.8000
        vertex 3.0136 -0.8075 -0.8000
        vertex 2.8826 -1.1940 -0.8000
    endloop
endfacet
facet normal 0.0000 0.0000 -1.7390
    outer loop
        vertex 0.0000 0.0000 -0.8000
        vertex 3.0932 -0.4072 -0.8000
        vertex 3.0136 -0.8075 -0.8000
    endloop
endfacet
facet normal 0.0000 0.0000 -1.7390
    outer loop
        vertex 0.0000 0.0000 -0.8000
        vertex 3.1200 0.0000 -0.8000
        vertex 3.0932 -0.4072 -0.8000
    endloop
endfacet
endsolid GiantLegoRocks
